<svg xmlns="http://www.w3.org/2000/svg" xmlns:xlink="http://www.w3.org/1999/xlink" width="423.836" height="304.41"><defs><path id="b" d="M353.779 166.802h-40.552a3.862 3.862 0 110-7.724h40.552a3.862 3.862 0 110 7.724z"/><path id="c" d="M286.192 157.147a15.45 15.45 0 00-15.448 15.448 15.45 15.45 0 0015.448 15.448 15.45 15.45 0 0015.448-15.448 15.45 15.45 0 00-15.448-15.448zm9.089 11.664l-10.299 10.298a1.925 1.925 0 01-2.73 0l-5.149-5.149a1.93 1.93 0 112.731-2.731l3.784 3.784 8.934-8.933a1.93 1.93 0 112.73 2.73z"/><path id="d" d="M373.089 176.457h-38.621a1.93 1.93 0 110-3.862h38.621a1.93 1.93 0 110 3.862z"/><path id="e" d="M326.745 176.457h-15.449a1.93 1.93 0 110-3.862h15.449a1.93 1.93 0 110 3.862z"/><path id="f" d="M380.813 184.182h-11.586a1.93 1.93 0 110-3.862h11.586a1.93 1.93 0 110 3.862z"/><path id="g" d="M361.502 184.182h-50.206a1.93 1.93 0 110-3.862h50.206a1.93 1.93 0 110 3.862z"/><linearGradient id="a" x1="-506.288" y1="135.105" x2="490.369" y2="244.6" gradientUnits="userSpaceOnUse"><stop offset="0" stop-color="#0684ff"/><stop offset="1" stop-color="#0684ff" stop-opacity="0"/></linearGradient></defs><g stroke="#06f" transform="matrix(.53103 0 0 .50472 83.868 43.887)" stroke-width="2.026" fill="url(#a)"><path d="M136.7 367.7l45.4-78.8-45.4-78.9H45.4L0 288.9l45.4 78.8zM335.8 200.3L290 121.5h-90.8l-45.5 78.8 45.5 78.9H290zM290 298.6h-90.8l-45.5 78.8 45.5 79.2H290l45.8-79.2zM45.4 190.6h91.3l45.4-78.8-45.4-79.2H45.4L0 111.8zM443.8 32.6h-91.3l-45.4 78.8 45.4 79.2h91.3l45.4-78.8z"/></g><g fill="#fff"><use xlink:href="#b"/><use xlink:href="#c"/></g><g fill="#afb9d2"><use xlink:href="#d"/><use xlink:href="#e"/></g><g fill="#c7cfe2"><use xlink:href="#f"/><use xlink:href="#g"/></g><g fill="#fff"><use xlink:href="#b" y="40.552"/><use xlink:href="#c" y="40.552"/></g><g fill="#afb9d2"><use xlink:href="#d" y="40.552"/><use xlink:href="#e" y="40.552"/></g><g fill="#c7cfe2"><use xlink:href="#f" y="40.551"/><use xlink:href="#g" y="40.551"/></g><path d="M347.985 247.906h-34.758a3.862 3.862 0 110-7.724h34.759a3.862 3.862 0 110 7.724zm-61.793-9.655a15.45 15.45 0 00-15.448 15.448 15.45 15.45 0 0015.448 15.448 15.45 15.45 0 0015.448-15.448 15.45 15.45 0 00-15.448-15.448z" fill="#eff2fa"/><g fill="#afb9d2"><use xlink:href="#d" y="81.104"/><use xlink:href="#e" y="81.104"/></g><g fill="#c7cfe2"><use xlink:href="#f" y="81.103"/><use xlink:href="#g" y="81.103"/></g></svg>