<svg xmlns="http://www.w3.org/2000/svg" xmlns:xlink="http://www.w3.org/1999/xlink" width="720" height="420" version="1.1"><defs><linearGradient id="o" x1="3980.029" x2="-538.384" y1="530.045" y2="530.045" gradientUnits="userSpaceOnUse" xlink:href="#a"/><linearGradient id="b"><stop offset="0" stop-color="#0684ff" stop-opacity="1"/><stop offset="1" stop-color="#0684ff" stop-opacity="0"/></linearGradient><linearGradient id="p" x1="3980.029" x2="-538.384" y1="530.045" y2="530.045" gradientUnits="userSpaceOnUse" xlink:href="#a"/><linearGradient id="i" x1="-506.288" x2="490.369" y1="135.105" y2="244.6" gradientUnits="userSpaceOnUse" xlink:href="#b"/><linearGradient id="n" x1="-506.288" x2="490.369" y1="135.105" y2="244.6" gradientUnits="userSpaceOnUse" xlink:href="#b"/><linearGradient id="m" x1="-506.288" x2="490.369" y1="135.105" y2="244.6" gradientUnits="userSpaceOnUse" xlink:href="#b"/><linearGradient id="l" x1="-506.288" x2="490.369" y1="135.105" y2="244.6" gradientUnits="userSpaceOnUse" xlink:href="#b"/><linearGradient id="a" gradientUnits="userSpaceOnUse"><stop offset="0" stop-color="#2a7fff"/><stop offset="1" stop-color="#2a7fff" stop-opacity="0"/></linearGradient><linearGradient id="q" x1="3980.029" x2="-538.384" y1="530.045" y2="530.045" gradientUnits="userSpaceOnUse" xlink:href="#a"/><linearGradient id="r" x1="3783.117" x2="2640.401" y1="514.695" y2="427.979" gradientUnits="userSpaceOnUse" xlink:href="#a"/><linearGradient id="j" x1="-506.288" x2="490.369" y1="135.105" y2="244.6" gradientUnits="userSpaceOnUse" xlink:href="#b"/><linearGradient id="k" x1="-506.288" x2="490.369" y1="135.105" y2="244.6" gradientUnits="userSpaceOnUse" xlink:href="#b"/><path d="M536.3 80.05h15.44v15.44H536.3z" id="h"/><path d="M474.56 80.05H490v15.44h-15.44z" id="g"/><path d="M366.5 80.05h15.44v15.44H366.5z" id="f"/><path d="M196.7 80.05h15.44v15.44H196.7z" id="e"/><path d="M104.08 80.05h15.44v15.44h-15.44z" id="d"/><path d="M88.64 80.05h15.44v15.44H88.64z" id="c"/></defs><g fill="none" fill-rule="evenodd" transform="matrix(1.07874 0 0 1.063 -18.58 -5.741)"><path d="M631.36 390.6V55.79a5 5 0 0 0-5-4.94h-514.9a5 5 0 0 0-4.95 4.94v313.36" fill="#e6e6e6" stroke="#0682ff"/><g fill="#0f256e" fill-rule="nonzero"><path d="M622.24 378.7V43.89a4.94 4.94 0 0 0-5-4.94h-514.9a5 5 0 0 0-5 4.94v325.26" stroke="#183a9e"/><path d="M613.49 369.15V34.35a5 5 0 0 0-5-5H93.59a5 5 0 0 0-5 5v334.8" stroke="#204ecf"/></g><circle cx="100.6" cy="42.16" r="3.21" stroke="#fbfbfb"/><circle cx="113.44" cy="42.16" r="3.21" stroke="#fff"/><circle cx="126.27" cy="42.16" r="3.21" stroke="#fdfdfd"/><path d="M88.64 55.67h524.85" fill="#213b97" fill-rule="nonzero" stroke="#2d50c6"/><g stroke="#213b97" opacity=".2"><use xlink:href="#c"/><use xlink:href="#d"/><use x="15.43" xlink:href="#d"/><use x="30.87" xlink:href="#d"/><use x="46.31" xlink:href="#d"/><use x="61.74" xlink:href="#d"/><use x="77.18" xlink:href="#d"/><use xlink:href="#e"/><use x="108.05" xlink:href="#d"/><use x="123.49" xlink:href="#d"/><use x="138.93" xlink:href="#d"/><use x="154.36" xlink:href="#d"/><use x="169.8" xlink:href="#d"/><use x="185.24" xlink:href="#d"/><use x="200.67" xlink:href="#d"/><use x="216.11" xlink:href="#d"/><use x="231.55" xlink:href="#d"/><use x="246.98" xlink:href="#d"/><use xlink:href="#f"/><use x="277.86" xlink:href="#d"/><use x="293.29" xlink:href="#d"/><use x="308.73" xlink:href="#d"/><use x="324.17" xlink:href="#d"/><use x="339.6" xlink:href="#d"/><use x="355.04" xlink:href="#d"/><use xlink:href="#g"/><use x="385.91" xlink:href="#d"/><use x="401.35" xlink:href="#d"/><use x="416.79" xlink:href="#d"/><use xlink:href="#h"/><use x="447.66" xlink:href="#d"/><use x="463.1" xlink:href="#d"/><use x="478.53" xlink:href="#d"/><use x="493.97" xlink:href="#d"/><use y="15.44" xlink:href="#c"/><use y="15.44" xlink:href="#d"/><use x="15.43" y="15.44" xlink:href="#d"/><use x="30.87" y="15.44" xlink:href="#d"/><use x="46.31" y="15.44" xlink:href="#d"/><use x="61.74" y="15.44" xlink:href="#d"/><use x="77.18" y="15.44" xlink:href="#d"/><use y="15.44" xlink:href="#e"/><use x="108.05" y="15.44" xlink:href="#d"/><use x="123.49" y="15.44" xlink:href="#d"/><use x="138.93" y="15.44" xlink:href="#d"/><use x="154.36" y="15.44" xlink:href="#d"/><use x="169.8" y="15.44" xlink:href="#d"/><use x="185.24" y="15.44" xlink:href="#d"/><use x="200.67" y="15.44" xlink:href="#d"/><use x="216.11" y="15.44" xlink:href="#d"/><use x="231.55" y="15.44" xlink:href="#d"/><use x="246.98" y="15.44" xlink:href="#d"/><use y="15.44" xlink:href="#f"/><use x="277.86" y="15.44" xlink:href="#d"/><use x="293.29" y="15.44" xlink:href="#d"/><use x="308.73" y="15.44" xlink:href="#d"/><use x="324.17" y="15.44" xlink:href="#d"/><use x="339.6" y="15.44" xlink:href="#d"/><use x="355.04" y="15.44" xlink:href="#d"/><use y="15.44" xlink:href="#g"/><use x="385.91" y="15.44" xlink:href="#d"/><use x="401.35" y="15.44" xlink:href="#d"/><use x="416.79" y="15.44" xlink:href="#d"/><use y="15.44" xlink:href="#h"/><use x="447.66" y="15.44" xlink:href="#d"/><use x="463.1" y="15.44" xlink:href="#d"/><use x="478.53" y="15.44" xlink:href="#d"/><use x="493.97" y="15.44" xlink:href="#d"/><use y="30.88" xlink:href="#c"/><use y="30.88" xlink:href="#d"/><use x="15.43" y="30.88" xlink:href="#d"/><use x="30.87" y="30.88" xlink:href="#d"/><use x="46.31" y="30.88" xlink:href="#d"/><use x="61.74" y="30.88" xlink:href="#d"/><use x="77.18" y="30.88" xlink:href="#d"/><use y="30.88" xlink:href="#e"/><use x="108.05" y="30.88" xlink:href="#d"/><use x="123.49" y="30.88" xlink:href="#d"/><use x="138.93" y="30.88" xlink:href="#d"/><use x="154.36" y="30.88" xlink:href="#d"/><use x="169.8" y="30.88" xlink:href="#d"/><use x="185.24" y="30.88" xlink:href="#d"/><use x="200.67" y="30.88" xlink:href="#d"/><use x="216.11" y="30.88" xlink:href="#d"/><use x="231.55" y="30.88" xlink:href="#d"/><use x="246.98" y="30.88" xlink:href="#d"/><use y="30.88" xlink:href="#f"/><use x="277.86" y="30.88" xlink:href="#d"/><use x="293.29" y="30.88" xlink:href="#d"/><use x="308.73" y="30.88" xlink:href="#d"/><use x="324.17" y="30.88" xlink:href="#d"/><use x="339.6" y="30.88" xlink:href="#d"/><use x="355.04" y="30.88" xlink:href="#d"/><use y="30.88" xlink:href="#g"/><use x="385.91" y="30.88" xlink:href="#d"/><use x="401.35" y="30.88" xlink:href="#d"/><use x="416.79" y="30.88" xlink:href="#d"/><use y="30.88" xlink:href="#h"/><use x="447.66" y="30.88" xlink:href="#d"/><use x="463.1" y="30.88" xlink:href="#d"/><use x="478.53" y="30.88" xlink:href="#d"/><use x="493.97" y="30.88" xlink:href="#d"/><use y="46.31" xlink:href="#c"/><use y="46.31" xlink:href="#d"/><use x="15.43" y="46.31" xlink:href="#d"/><use x="30.87" y="46.31" xlink:href="#d"/><use x="46.31" y="46.31" xlink:href="#d"/><use x="61.74" y="46.31" xlink:href="#d"/><use x="77.18" y="46.31" xlink:href="#d"/><use y="46.31" xlink:href="#e"/><use x="108.05" y="46.31" xlink:href="#d"/><use x="123.49" y="46.31" xlink:href="#d"/><use x="138.93" y="46.31" xlink:href="#d"/><use x="154.36" y="46.31" xlink:href="#d"/><use x="169.8" y="46.31" xlink:href="#d"/><use x="185.24" y="46.31" xlink:href="#d"/><use x="200.67" y="46.31" xlink:href="#d"/><use x="216.11" y="46.31" xlink:href="#d"/><use x="231.55" y="46.31" xlink:href="#d"/><use x="246.98" y="46.31" xlink:href="#d"/><use y="46.31" xlink:href="#f"/><use x="277.86" y="46.31" xlink:href="#d"/><use x="293.29" y="46.31" xlink:href="#d"/><use x="308.73" y="46.31" xlink:href="#d"/><use x="324.17" y="46.31" xlink:href="#d"/><use x="339.6" y="46.31" xlink:href="#d"/><use x="355.04" y="46.31" xlink:href="#d"/><use y="46.31" xlink:href="#g"/><use x="385.91" y="46.31" xlink:href="#d"/><use x="401.35" y="46.31" xlink:href="#d"/><use x="416.79" y="46.31" xlink:href="#d"/><use y="46.31" xlink:href="#h"/><use x="447.66" y="46.31" xlink:href="#d"/><use x="463.1" y="46.31" xlink:href="#d"/><use x="478.53" y="46.31" xlink:href="#d"/><use x="493.97" y="46.31" xlink:href="#d"/><use y="61.75" xlink:href="#c"/><use y="61.75" xlink:href="#d"/><use x="15.43" y="61.75" xlink:href="#d"/><use x="30.87" y="61.75" xlink:href="#d"/><use x="46.31" y="61.75" xlink:href="#d"/><use x="61.74" y="61.75" xlink:href="#d"/><use x="77.18" y="61.75" xlink:href="#d"/><use y="61.75" xlink:href="#e"/><use x="108.05" y="61.75" xlink:href="#d"/><use x="123.49" y="61.75" xlink:href="#d"/><use x="138.93" y="61.75" xlink:href="#d"/><use x="154.36" y="61.75" xlink:href="#d"/><use x="169.8" y="61.75" xlink:href="#d"/><use x="185.24" y="61.75" xlink:href="#d"/><use x="200.67" y="61.75" xlink:href="#d"/><use x="216.11" y="61.75" xlink:href="#d"/><use x="231.55" y="61.75" xlink:href="#d"/><use x="246.98" y="61.75" xlink:href="#d"/><use y="61.75" xlink:href="#f"/><use x="277.86" y="61.75" xlink:href="#d"/><use x="293.29" y="61.75" xlink:href="#d"/><use x="308.73" y="61.75" xlink:href="#d"/><use x="324.17" y="61.75" xlink:href="#d"/><use x="339.6" y="61.75" xlink:href="#d"/><use x="355.04" y="61.75" xlink:href="#d"/><use y="61.75" xlink:href="#g"/><use x="385.91" y="61.75" xlink:href="#d"/><use x="401.35" y="61.75" xlink:href="#d"/><use x="416.79" y="61.75" xlink:href="#d"/><use y="61.75" xlink:href="#h"/><use x="447.66" y="61.75" xlink:href="#d"/><use x="463.1" y="61.75" xlink:href="#d"/><use x="478.53" y="61.75" xlink:href="#d"/><use x="493.97" y="61.75" xlink:href="#d"/><use y="77.19" xlink:href="#c"/><use y="77.19" xlink:href="#d"/><use x="15.43" y="77.19" xlink:href="#d"/><use x="30.87" y="77.19" xlink:href="#d"/><use x="46.31" y="77.19" xlink:href="#d"/><use x="61.74" y="77.19" xlink:href="#d"/><use x="77.18" y="77.19" xlink:href="#d"/><use y="77.19" xlink:href="#e"/><use x="108.05" y="77.19" xlink:href="#d"/><use x="123.49" y="77.19" xlink:href="#d"/><use x="138.93" y="77.19" xlink:href="#d"/><use x="154.36" y="77.19" xlink:href="#d"/><use x="169.8" y="77.19" xlink:href="#d"/><use x="185.24" y="77.19" xlink:href="#d"/><use x="200.67" y="77.19" xlink:href="#d"/><use x="216.11" y="77.19" xlink:href="#d"/><use x="231.55" y="77.19" xlink:href="#d"/><use x="246.98" y="77.19" xlink:href="#d"/><use y="77.19" xlink:href="#f"/><use x="277.86" y="77.19" xlink:href="#d"/><use x="293.29" y="77.19" xlink:href="#d"/><use x="308.73" y="77.19" xlink:href="#d"/><use x="324.17" y="77.19" xlink:href="#d"/><use x="339.6" y="77.19" xlink:href="#d"/><use x="355.04" y="77.19" xlink:href="#d"/><use y="77.19" xlink:href="#g"/><use x="385.91" y="77.19" xlink:href="#d"/><use x="401.35" y="77.19" xlink:href="#d"/><use x="416.79" y="77.19" xlink:href="#d"/><use y="77.19" xlink:href="#h"/><use x="447.66" y="77.19" xlink:href="#d"/><use x="463.1" y="77.19" xlink:href="#d"/><use x="478.53" y="77.19" xlink:href="#d"/><use x="493.97" y="77.19" xlink:href="#d"/><use y="92.62" xlink:href="#c"/><use y="92.62" xlink:href="#d"/><use x="15.43" y="92.62" xlink:href="#d"/><use x="30.87" y="92.62" xlink:href="#d"/><use x="46.31" y="92.62" xlink:href="#d"/><use x="61.74" y="92.62" xlink:href="#d"/><use x="77.18" y="92.62" xlink:href="#d"/><use y="92.62" xlink:href="#e"/><use x="108.05" y="92.62" xlink:href="#d"/><use x="123.49" y="92.62" xlink:href="#d"/><use x="138.93" y="92.62" xlink:href="#d"/><use x="154.36" y="92.62" xlink:href="#d"/><use x="169.8" y="92.62" xlink:href="#d"/><use x="185.24" y="92.62" xlink:href="#d"/><use x="200.67" y="92.62" xlink:href="#d"/><use x="216.11" y="92.62" xlink:href="#d"/><use x="231.55" y="92.62" xlink:href="#d"/><use x="246.98" y="92.62" xlink:href="#d"/><use y="92.62" xlink:href="#f"/><use x="277.86" y="92.62" xlink:href="#d"/><use x="293.29" y="92.62" xlink:href="#d"/><use x="308.73" y="92.62" xlink:href="#d"/><use x="324.17" y="92.62" xlink:href="#d"/><use x="339.6" y="92.62" xlink:href="#d"/><use x="355.04" y="92.62" xlink:href="#d"/><use y="92.62" xlink:href="#g"/><use x="385.91" y="92.62" xlink:href="#d"/><use x="401.35" y="92.62" xlink:href="#d"/><use x="416.79" y="92.62" xlink:href="#d"/><use y="92.62" xlink:href="#h"/><use x="447.66" y="92.62" xlink:href="#d"/><use x="463.1" y="92.62" xlink:href="#d"/><use x="478.53" y="92.62" xlink:href="#d"/><use x="493.97" y="92.62" xlink:href="#d"/><use y="108.06" xlink:href="#c"/><use y="108.06" xlink:href="#d"/><use x="15.43" y="108.06" xlink:href="#d"/><use x="30.87" y="108.06" xlink:href="#d"/><use x="46.31" y="108.06" xlink:href="#d"/><use x="61.74" y="108.06" xlink:href="#d"/><use x="77.18" y="108.06" xlink:href="#d"/><use y="108.06" xlink:href="#e"/><use x="108.05" y="108.06" xlink:href="#d"/><use x="123.49" y="108.06" xlink:href="#d"/><use x="138.93" y="108.06" xlink:href="#d"/><use x="154.36" y="108.06" xlink:href="#d"/><use x="169.8" y="108.06" xlink:href="#d"/><use x="185.24" y="108.06" xlink:href="#d"/><use x="200.67" y="108.06" xlink:href="#d"/><use x="216.11" y="108.06" xlink:href="#d"/><use x="231.55" y="108.06" xlink:href="#d"/><use x="246.98" y="108.06" xlink:href="#d"/><use y="108.06" xlink:href="#f"/><use x="277.86" y="108.06" xlink:href="#d"/><use x="293.29" y="108.06" xlink:href="#d"/><use x="308.73" y="108.06" xlink:href="#d"/><use x="324.17" y="108.06" xlink:href="#d"/><use x="339.6" y="108.06" xlink:href="#d"/><use x="355.04" y="108.06" xlink:href="#d"/><use y="108.06" xlink:href="#g"/><use x="385.91" y="108.06" xlink:href="#d"/><use x="401.35" y="108.06" xlink:href="#d"/><use x="416.79" y="108.06" xlink:href="#d"/><use y="108.06" xlink:href="#h"/><use x="447.66" y="108.06" xlink:href="#d"/><use x="463.1" y="108.06" xlink:href="#d"/><use x="478.53" y="108.06" xlink:href="#d"/><use x="493.97" y="108.06" xlink:href="#d"/><use y="123.5" xlink:href="#c"/><use y="123.5" xlink:href="#d"/><use x="15.43" y="123.5" xlink:href="#d"/><use x="30.87" y="123.5" xlink:href="#d"/><use x="46.31" y="123.5" xlink:href="#d"/><use x="61.74" y="123.5" xlink:href="#d"/><use x="77.18" y="123.5" xlink:href="#d"/><use y="123.5" xlink:href="#e"/><use x="108.05" y="123.5" xlink:href="#d"/><use x="123.49" y="123.5" xlink:href="#d"/><use x="138.93" y="123.5" xlink:href="#d"/><use x="154.36" y="123.5" xlink:href="#d"/><use x="169.8" y="123.5" xlink:href="#d"/><use x="185.24" y="123.5" xlink:href="#d"/><use x="200.67" y="123.5" xlink:href="#d"/><use x="216.11" y="123.5" xlink:href="#d"/><use x="231.55" y="123.5" xlink:href="#d"/><use x="246.98" y="123.5" xlink:href="#d"/><use y="123.5" xlink:href="#f"/><use x="277.86" y="123.5" xlink:href="#d"/><use x="293.29" y="123.5" xlink:href="#d"/><use x="308.73" y="123.5" xlink:href="#d"/><use x="324.17" y="123.5" xlink:href="#d"/><use x="339.6" y="123.5" xlink:href="#d"/><use x="355.04" y="123.5" xlink:href="#d"/><use y="123.5" xlink:href="#g"/><use x="385.91" y="123.5" xlink:href="#d"/><use x="401.35" y="123.5" xlink:href="#d"/><use x="416.79" y="123.5" xlink:href="#d"/><use y="123.5" xlink:href="#h"/><use x="447.66" y="123.5" xlink:href="#d"/><use x="463.1" y="123.5" xlink:href="#d"/><use x="478.53" y="123.5" xlink:href="#d"/><use x="493.97" y="123.5" xlink:href="#d"/><use y="138.93" xlink:href="#c"/><use y="138.93" xlink:href="#d"/><use x="15.43" y="138.93" xlink:href="#d"/><use x="30.87" y="138.93" xlink:href="#d"/><use x="46.31" y="138.93" xlink:href="#d"/><use x="61.74" y="138.93" xlink:href="#d"/><use x="77.18" y="138.93" xlink:href="#d"/><use y="138.93" xlink:href="#e"/><use x="108.05" y="138.93" xlink:href="#d"/><use x="123.49" y="138.93" xlink:href="#d"/><use x="138.93" y="138.93" xlink:href="#d"/><use x="154.36" y="138.93" xlink:href="#d"/><use x="169.8" y="138.93" xlink:href="#d"/><use x="185.24" y="138.93" xlink:href="#d"/><use x="200.67" y="138.93" xlink:href="#d"/><use x="216.11" y="138.93" xlink:href="#d"/><use x="231.55" y="138.93" xlink:href="#d"/><use x="246.98" y="138.93" xlink:href="#d"/><use y="138.93" xlink:href="#f"/><use x="277.86" y="138.93" xlink:href="#d"/><use x="293.29" y="138.93" xlink:href="#d"/><use x="308.73" y="138.93" xlink:href="#d"/><use x="324.17" y="138.93" xlink:href="#d"/><use x="339.6" y="138.93" xlink:href="#d"/><use x="355.04" y="138.93" xlink:href="#d"/><use y="138.93" xlink:href="#g"/><use x="385.91" y="138.93" xlink:href="#d"/><use x="401.35" y="138.93" xlink:href="#d"/><use x="416.79" y="138.93" xlink:href="#d"/><use y="138.93" xlink:href="#h"/><use x="447.66" y="138.93" xlink:href="#d"/><use x="463.1" y="138.93" xlink:href="#d"/><use x="478.53" y="138.93" xlink:href="#d"/><use x="493.97" y="138.93" xlink:href="#d"/><use y="154.37" xlink:href="#c"/><use y="154.37" xlink:href="#d"/><use x="15.43" y="154.37" xlink:href="#d"/><use x="30.87" y="154.37" xlink:href="#d"/><use x="46.31" y="154.37" xlink:href="#d"/><use x="61.74" y="154.37" xlink:href="#d"/><use x="77.18" y="154.37" xlink:href="#d"/><use y="154.37" xlink:href="#e"/><use x="108.05" y="154.37" xlink:href="#d"/><use x="123.49" y="154.37" xlink:href="#d"/><use x="138.93" y="154.37" xlink:href="#d"/><use x="154.36" y="154.37" xlink:href="#d"/><use x="169.8" y="154.37" xlink:href="#d"/><use x="185.24" y="154.37" xlink:href="#d"/><use x="200.67" y="154.37" xlink:href="#d"/><use x="216.11" y="154.37" xlink:href="#d"/><use x="231.55" y="154.37" xlink:href="#d"/><use x="246.98" y="154.37" xlink:href="#d"/><use y="154.37" xlink:href="#f"/><use x="277.86" y="154.37" xlink:href="#d"/><use x="293.29" y="154.37" xlink:href="#d"/><use x="308.73" y="154.37" xlink:href="#d"/><use x="324.17" y="154.37" xlink:href="#d"/><use x="339.6" y="154.37" xlink:href="#d"/><use x="355.04" y="154.37" xlink:href="#d"/><use y="154.37" xlink:href="#g"/><use x="385.91" y="154.37" xlink:href="#d"/><use x="401.35" y="154.37" xlink:href="#d"/><use x="416.79" y="154.37" xlink:href="#d"/><use y="154.37" xlink:href="#h"/><use x="447.66" y="154.37" xlink:href="#d"/><use x="463.1" y="154.37" xlink:href="#d"/><use x="478.53" y="154.37" xlink:href="#d"/><use x="493.97" y="154.37" xlink:href="#d"/><use y="169.81" xlink:href="#c"/><use y="169.81" xlink:href="#d"/><use x="15.43" y="169.81" xlink:href="#d"/><use x="30.87" y="169.81" xlink:href="#d"/><use x="46.31" y="169.81" xlink:href="#d"/><use x="61.74" y="169.81" xlink:href="#d"/><use x="77.18" y="169.81" xlink:href="#d"/><use y="169.81" xlink:href="#e"/><use x="108.05" y="169.81" xlink:href="#d"/><use x="123.49" y="169.81" xlink:href="#d"/><use x="138.93" y="169.81" xlink:href="#d"/><use x="154.36" y="169.81" xlink:href="#d"/><use x="169.8" y="169.81" xlink:href="#d"/><use x="185.24" y="169.81" xlink:href="#d"/><use x="200.67" y="169.81" xlink:href="#d"/><use x="216.11" y="169.81" xlink:href="#d"/><use x="231.55" y="169.81" xlink:href="#d"/><use x="246.98" y="169.81" xlink:href="#d"/><use y="169.81" xlink:href="#f"/><use x="277.86" y="169.81" xlink:href="#d"/><use x="293.29" y="169.81" xlink:href="#d"/><use x="308.73" y="169.81" xlink:href="#d"/><use x="324.17" y="169.81" xlink:href="#d"/><use x="339.6" y="169.81" xlink:href="#d"/><use x="355.04" y="169.81" xlink:href="#d"/><use y="169.81" xlink:href="#g"/><use x="385.91" y="169.81" xlink:href="#d"/><use x="401.35" y="169.81" xlink:href="#d"/><use x="416.79" y="169.81" xlink:href="#d"/><use y="169.81" xlink:href="#h"/><use x="447.66" y="169.81" xlink:href="#d"/><use x="463.1" y="169.81" xlink:href="#d"/><use x="478.53" y="169.81" xlink:href="#d"/><use x="493.97" y="169.81" xlink:href="#d"/><use y="185.24" xlink:href="#c"/><use y="185.24" xlink:href="#d"/><use x="15.43" y="185.24" xlink:href="#d"/><use x="30.87" y="185.24" xlink:href="#d"/><use x="46.31" y="185.24" xlink:href="#d"/><use x="61.74" y="185.24" xlink:href="#d"/><use x="77.18" y="185.24" xlink:href="#d"/><use y="185.24" xlink:href="#e"/><use x="108.05" y="185.24" xlink:href="#d"/><use x="123.49" y="185.24" xlink:href="#d"/><use x="138.93" y="185.24" xlink:href="#d"/><use x="154.36" y="185.24" xlink:href="#d"/><use x="169.8" y="185.24" xlink:href="#d"/><use x="185.24" y="185.24" xlink:href="#d"/><use x="200.67" y="185.24" xlink:href="#d"/><use x="216.11" y="185.24" xlink:href="#d"/><use x="231.55" y="185.24" xlink:href="#d"/><use x="246.98" y="185.24" xlink:href="#d"/><use y="185.24" xlink:href="#f"/><use x="277.86" y="185.24" xlink:href="#d"/><use x="293.29" y="185.24" xlink:href="#d"/><use x="308.73" y="185.24" xlink:href="#d"/><use x="324.17" y="185.24" xlink:href="#d"/><use x="339.6" y="185.24" xlink:href="#d"/><use x="355.04" y="185.24" xlink:href="#d"/><use y="185.24" xlink:href="#g"/><use x="385.91" y="185.24" xlink:href="#d"/><use x="401.35" y="185.24" xlink:href="#d"/><use x="416.79" y="185.24" xlink:href="#d"/><use y="185.24" xlink:href="#h"/><use x="447.66" y="185.24" xlink:href="#d"/><use x="463.1" y="185.24" xlink:href="#d"/><use x="478.53" y="185.24" xlink:href="#d"/><use x="493.97" y="185.24" xlink:href="#d"/><use y="200.68" xlink:href="#c"/><use y="200.68" xlink:href="#d"/><use x="15.43" y="200.68" xlink:href="#d"/><use x="30.87" y="200.68" xlink:href="#d"/><use x="46.31" y="200.68" xlink:href="#d"/><use x="61.74" y="200.68" xlink:href="#d"/><use x="77.18" y="200.68" xlink:href="#d"/><use y="200.68" xlink:href="#e"/><use x="108.05" y="200.68" xlink:href="#d"/><use x="123.49" y="200.68" xlink:href="#d"/><use x="138.93" y="200.68" xlink:href="#d"/><use x="154.36" y="200.68" xlink:href="#d"/><use x="169.8" y="200.68" xlink:href="#d"/><use x="185.24" y="200.68" xlink:href="#d"/><use x="200.67" y="200.68" xlink:href="#d"/><use x="216.11" y="200.68" xlink:href="#d"/><use x="231.55" y="200.68" xlink:href="#d"/><use x="246.98" y="200.68" xlink:href="#d"/><use y="200.68" xlink:href="#f"/><use x="277.86" y="200.68" xlink:href="#d"/><use x="293.29" y="200.68" xlink:href="#d"/><use x="308.73" y="200.68" xlink:href="#d"/><use x="324.17" y="200.68" xlink:href="#d"/><use x="339.6" y="200.68" xlink:href="#d"/><use x="355.04" y="200.68" xlink:href="#d"/><use y="200.68" xlink:href="#g"/><use x="385.91" y="200.68" xlink:href="#d"/><use x="401.35" y="200.68" xlink:href="#d"/><use x="416.79" y="200.68" xlink:href="#d"/><use y="200.68" xlink:href="#h"/><use x="447.66" y="200.68" xlink:href="#d"/><use x="463.1" y="200.68" xlink:href="#d"/><use x="478.53" y="200.68" xlink:href="#d"/><use x="493.97" y="200.68" xlink:href="#d"/><use y="216.12" xlink:href="#c"/><use y="216.12" xlink:href="#d"/><use x="15.43" y="216.12" xlink:href="#d"/><use x="30.87" y="216.12" xlink:href="#d"/><use x="46.31" y="216.12" xlink:href="#d"/><use x="61.74" y="216.12" xlink:href="#d"/><use x="77.18" y="216.12" xlink:href="#d"/><use y="216.12" xlink:href="#e"/><use x="108.05" y="216.12" xlink:href="#d"/><use x="123.49" y="216.12" xlink:href="#d"/><use x="138.93" y="216.12" xlink:href="#d"/><use x="154.36" y="216.12" xlink:href="#d"/><use x="169.8" y="216.12" xlink:href="#d"/><use x="185.24" y="216.12" xlink:href="#d"/><use x="200.67" y="216.12" xlink:href="#d"/><use x="216.11" y="216.12" xlink:href="#d"/><use x="231.55" y="216.12" xlink:href="#d"/><use x="246.98" y="216.12" xlink:href="#d"/><use y="216.12" xlink:href="#f"/><use x="277.86" y="216.12" xlink:href="#d"/><use x="293.29" y="216.12" xlink:href="#d"/><use x="308.73" y="216.12" xlink:href="#d"/><use x="324.17" y="216.12" xlink:href="#d"/><use x="339.6" y="216.12" xlink:href="#d"/><use x="355.04" y="216.12" xlink:href="#d"/><use y="216.12" xlink:href="#g"/><use x="385.91" y="216.12" xlink:href="#d"/><use x="401.35" y="216.12" xlink:href="#d"/><use x="416.79" y="216.12" xlink:href="#d"/><use y="216.12" xlink:href="#h"/><use x="447.66" y="216.12" xlink:href="#d"/><use x="463.1" y="216.12" xlink:href="#d"/><use x="478.53" y="216.12" xlink:href="#d"/><use x="493.97" y="216.12" xlink:href="#d"/><use y="231.55" xlink:href="#c"/><use y="231.55" xlink:href="#d"/><use x="15.43" y="231.55" xlink:href="#d"/><use x="30.87" y="231.55" xlink:href="#d"/><use x="46.31" y="231.55" xlink:href="#d"/><use x="61.74" y="231.55" xlink:href="#d"/><use x="77.18" y="231.55" xlink:href="#d"/><use y="231.55" xlink:href="#e"/><use x="108.05" y="231.55" xlink:href="#d"/><use x="123.49" y="231.55" xlink:href="#d"/><use x="138.93" y="231.55" xlink:href="#d"/><use x="154.36" y="231.55" xlink:href="#d"/><use x="169.8" y="231.55" xlink:href="#d"/><use x="185.24" y="231.55" xlink:href="#d"/><use x="200.67" y="231.55" xlink:href="#d"/><use x="216.11" y="231.55" xlink:href="#d"/><use x="231.55" y="231.55" xlink:href="#d"/><use x="246.98" y="231.55" xlink:href="#d"/><use y="231.55" xlink:href="#f"/><use x="277.86" y="231.55" xlink:href="#d"/><use x="293.29" y="231.55" xlink:href="#d"/><use x="308.73" y="231.55" xlink:href="#d"/><use x="324.17" y="231.55" xlink:href="#d"/><use x="339.6" y="231.55" xlink:href="#d"/><use x="355.04" y="231.55" xlink:href="#d"/><use y="231.55" xlink:href="#g"/><use x="385.91" y="231.55" xlink:href="#d"/><use x="401.35" y="231.55" xlink:href="#d"/><use x="416.79" y="231.55" xlink:href="#d"/><use y="231.55" xlink:href="#h"/><use x="447.66" y="231.55" xlink:href="#d"/><use x="463.1" y="231.55" xlink:href="#d"/><use x="478.53" y="231.55" xlink:href="#d"/><use x="493.97" y="231.55" xlink:href="#d"/><use y="246.99" xlink:href="#c"/><use y="246.99" xlink:href="#d"/><use x="15.43" y="246.99" xlink:href="#d"/><use x="30.87" y="246.99" xlink:href="#d"/><use x="46.31" y="246.99" xlink:href="#d"/><use x="61.74" y="246.99" xlink:href="#d"/><use x="77.18" y="246.99" xlink:href="#d"/><use y="246.99" xlink:href="#e"/><use x="108.05" y="246.99" xlink:href="#d"/><use x="123.49" y="246.99" xlink:href="#d"/><use x="138.93" y="246.99" xlink:href="#d"/><use x="154.36" y="246.99" xlink:href="#d"/><use x="169.8" y="246.99" xlink:href="#d"/><use x="185.24" y="246.99" xlink:href="#d"/><use x="200.67" y="246.99" xlink:href="#d"/><use x="216.11" y="246.99" xlink:href="#d"/><use x="231.55" y="246.99" xlink:href="#d"/><use x="246.98" y="246.99" xlink:href="#d"/><use y="246.99" xlink:href="#f"/><use x="277.86" y="246.99" xlink:href="#d"/><use x="293.29" y="246.99" xlink:href="#d"/><use x="308.73" y="246.99" xlink:href="#d"/><use x="324.17" y="246.99" xlink:href="#d"/><use x="339.6" y="246.99" xlink:href="#d"/><use x="355.04" y="246.99" xlink:href="#d"/><use y="246.99" xlink:href="#g"/><use x="385.91" y="246.99" xlink:href="#d"/><use x="401.35" y="246.99" xlink:href="#d"/><use x="416.79" y="246.99" xlink:href="#d"/><use y="246.99" xlink:href="#h"/><use x="447.66" y="246.99" xlink:href="#d"/><use x="463.1" y="246.99" xlink:href="#d"/><use x="478.53" y="246.99" xlink:href="#d"/><use x="493.97" y="246.99" xlink:href="#d"/><use y="262.43" xlink:href="#c"/><use y="262.43" xlink:href="#d"/><use x="15.43" y="262.43" xlink:href="#d"/><use x="30.87" y="262.43" xlink:href="#d"/><use x="46.31" y="262.43" xlink:href="#d"/><use x="61.74" y="262.43" xlink:href="#d"/><use x="77.18" y="262.43" xlink:href="#d"/><use y="262.43" xlink:href="#e"/><use x="108.05" y="262.43" xlink:href="#d"/><use x="123.49" y="262.43" xlink:href="#d"/><use x="138.93" y="262.43" xlink:href="#d"/><use x="154.36" y="262.43" xlink:href="#d"/><use x="169.8" y="262.43" xlink:href="#d"/><use x="185.24" y="262.43" xlink:href="#d"/><use x="200.67" y="262.43" xlink:href="#d"/><use x="216.11" y="262.43" xlink:href="#d"/><use x="231.55" y="262.43" xlink:href="#d"/><use x="246.98" y="262.43" xlink:href="#d"/><use y="262.43" xlink:href="#f"/><use x="277.86" y="262.43" xlink:href="#d"/><use x="293.29" y="262.43" xlink:href="#d"/><use x="308.73" y="262.43" xlink:href="#d"/><use x="324.17" y="262.43" xlink:href="#d"/><use x="339.6" y="262.43" xlink:href="#d"/><use x="355.04" y="262.43" xlink:href="#d"/><use y="262.43" xlink:href="#g"/><use x="385.91" y="262.43" xlink:href="#d"/><use x="401.35" y="262.43" xlink:href="#d"/><use x="416.79" y="262.43" xlink:href="#d"/><use y="262.43" xlink:href="#h"/><use x="447.66" y="262.43" xlink:href="#d"/><use x="463.1" y="262.43" xlink:href="#d"/><use x="478.53" y="262.43" xlink:href="#d"/><use x="493.97" y="262.43" xlink:href="#d"/></g><g fill-rule="nonzero"><path d="M88.64 55.67h524.85v24.38H88.64z" fill="#183a9e" stroke="#204ecf"/><path d="M146.456 62.104v12h-30.04l-6.35-6 6.35-6z" fill="#2a7fff"/><text fill="#fff" x="-8.007" y=".523" font-family="ProximaNova-Medium,Proxima Nova" font-size="8.58"><tspan x="123.083" y="70.853">900</tspan></text><path d="M105.083 126.37H598.05v122.733H105.083z" fill="#15266a" opacity=".26" style="mix-blend-mode:multiply"/></g><path d="M106.51 369.15V67.86" fill="#fff" stroke="#f7fafb" stroke-dasharray="3.005" stroke-width="1.002"/><path d="M126.57 278.45h101v64.03h-101z" fill="#0f256e" fill-rule="nonzero" stroke="#204ecf"/><g fill="#fff" stroke="#2d50c6"><path d="m135.55 333 25.88-23.04 12.24 8.64 16.95-16.27 26.97 30.5z"/><circle cx="153.03" cy="295.79" r="6.5"/></g><path d="m169.973 68.45 6.35-6h30.04v12h-30.04z" fill="#56a7e8" fill-rule="nonzero"/><text fill="#fff" fill-rule="nonzero" x="-9.96" y="1.008" font-family="ProximaNova-Medium,Proxima Nova" font-size="8.58"><tspan x="183.36" y="71.338">760</tspan></text><path d="M165.636 369.732V68.442" stroke="#25a9ef" stroke-dasharray="3"/><g fill="#0f256e" fill-rule="nonzero" stroke="#183a9e"><circle cx="502.007" cy="307.176" r="25.17"/><circle cx="567.437" cy="307.176" r="25.17"/></g><g stroke="#204ecf"><path d="M459.12 281.02v30.59h15.44"/><g fill="#0f256e" fill-rule="nonzero"><circle cx="499.73" cy="311.61" r="25.17"/><circle cx="565.16" cy="311.61" r="25.17"/></g></g><g fill="#fff" fill-rule="nonzero" stroke="#25a9ef"><path d="M488.258 322.665a2.68 2.68 0 0 1 0-3.79l10.607-10.607 3.797 3.797-10.607 10.607a2.68 2.68 0 0 1-3.797-.007z"/><path d="m504.839 314.33-8.556-8.556 3.564-3.564 8.556 8.556zm.882-6.27-3.21-3.21 5.53-5.53a2.27 2.27 0 0 1 3.21 0 2.27 2.27 0 0 1 0 3.21z"/></g><path d="M486.566 324.37a.75.75 0 0 1 0-1.061l.905-.905 1.066 1.061-.905.905a.75.75 0 0 1-1.061 0z" fill="#15266a" fill-rule="nonzero" stroke="#25a9ef"/><path d="M527.07 311.61h12.92" stroke="#204ecf"/><g fill-rule="nonzero"><path d="M559.34 322.33v3.02h10.79v-3.02h-3.89v-20.37h6.51v2.16h3.02v-5.18H553.7v5.18h3.02v-2.16h6.51v20.37z" fill="#fff" stroke="#15266a"/><circle fill="#204ecf" cx="459.12" cy="281.02" r="3.86"/></g><path d="M474.56 100.54h30.87v10.39h-30.87z" stroke="#f8faff"/><path d="M520.87 100.54h30.87v10.39h-30.87z" stroke="#fefefe"/><path d="M567.18 100.54h30.87v10.39h-30.87z" stroke="#fcfcfc"/></g><path d="M515.58 72.629h-6.249l-.872 3.167h-5.619l6.692-19.17h6.02l6.692 19.17h-5.72zm-1.144-4.135-1.959-6.933-1.959 6.902zm9.252-11.868h5.005v6.641a4.761 5.119 0 0 1 1.673-1.245 5.491 5.903 0 0 1 2.088-.43 5.062 5.442 0 0 1 3.904 1.829 7.006 7.533 0 0 1 1.544 5.242 9.18 9.869 0 0 1-.701 3.997 5.391 5.795 0 0 1-1.96 2.598 5.005 5.38 0 0 1-2.76.845 5.148 5.534 0 0 1-2.387-.6 6.048 6.503 0 0 1-1.773-1.768v2.06h-4.633zm4.962 12.19a3.789 4.074 0 0 0 .629 2.598 2.002 2.152 0 0 0 1.587.799 1.83 1.968 0 0 0 1.43-.799 3.946 4.243 0 0 0 .6-2.659 3.575 3.843 0 0 0-.585-2.413 1.816 1.952 0 0 0-1.43-.769 2.03 2.183 0 0 0-1.64.799 3.417 3.674 0 0 0-.585 2.444zm11.009.077a6.492 6.979 0 0 1 2.002-5.242 7.464 8.024 0 0 1 5.391-2.091 7.378 7.932 0 0 1 5.848 2.429 7.006 7.533 0 0 1-.372 10.033 7.55 8.117 0 0 1-5.476 2.045 7.736 8.317 0 0 1-5.033-1.69 6.349 6.825 0 0 1-2.36-5.489zm4.962 0a3.961 4.258 0 0 0 .701 2.752 2.316 2.49 0 0 0 3.518 0 4.032 4.335 0 0 0 .686-2.813 3.818 4.104 0 0 0-.615-2.659 2.188 2.352 0 0 0-1.716-.876 2.216 2.383 0 0 0-1.787.892 3.846 4.135 0 0 0-.786 2.69zm25.867 6.903h-4.62v-2.244a6.678 7.179 0 0 1-2.087 1.968 5.462 5.872 0 0 1-2.588.584 4.204 4.52 0 0 1-3.203-1.307 5.305 5.703 0 0 1-1.158-4.043v-8.839h4.947v7.686a2.617 2.813 0 0 0 .443 1.86 1.601 1.722 0 0 0 1.273.553 1.787 1.922 0 0 0 1.43-.738 3.832 4.12 0 0 0 .572-2.629v-6.672h4.947zm8.979-19.17v5.288h2.717v3.889h-2.717v4.981a2.388 2.567 0 0 0 .157 1.184.887.953 0 0 0 .844.43 5.233 5.626 0 0 0 1.53-.338l.372 3.674a15.929 17.125 0 0 1-3.432.43 5.92 6.364 0 0 1-2.717-.507 2.86 3.075 0 0 1-1.301-1.537 8.365 8.993 0 0 1-.415-3.367v-4.888h-1.83v-3.889h1.83v-2.552zm25.309 0h5.491v11.422a8.965 9.639 0 0 1-.486 3.213 6.463 6.948 0 0 1-1.544 2.629 6.32 6.795 0 0 1-2.202 1.537 11.439 12.298 0 0 1-3.861.63 22.878 24.596 0 0 1-2.86-.2 7.321 7.871 0 0 1-2.559-.769 6.206 6.672 0 0 1-1.902-1.66 5.634 6.057 0 0 1-1.172-2.198 10.595 11.391 0 0 1-.5-3.244V56.565h5.496v11.699a3.131 3.367 0 0 0 .8 2.444 3.031 3.259 0 0 0 2.246.876 2.96 3.182 0 0 0 2.23-.861 3.089 3.32 0 0 0 .815-2.46zm7.936 15.311 4.919-.492a2.374 2.552 0 0 0 .844 1.337 2.517 2.706 0 0 0 1.43.415 2.416 2.598 0 0 0 1.544-.46.944 1.015 0 0 0 .429-.846.915.984 0 0 0-.558-.886 10.538 11.33 0 0 0-2.131-.554 21.763 23.397 0 0 1-3.581-.892 3.803 4.089 0 0 1-1.686-1.384 3.317 3.566 0 0 1-.701-2.244 3.432 3.689 0 0 1 .744-2.352 4.604 4.95 0 0 1 2.045-1.537 10.967 11.791 0 0 1 3.489-.492 12.368 13.297 0 0 1 3.417.384 4.461 4.796 0 0 1 1.83 1.184 5.72 6.149 0 0 1 1.23 2.152l-4.704.492a1.573 1.691 0 0 0-.6-.984 2.488 2.675 0 0 0-1.43-.415 1.973 2.121 0 0 0-1.216.324.901.968 0 0 0-.386.784.772.83 0 0 0 .486.77 8.165 8.778 0 0 0 2.116.46 13.956 15.004 0 0 1 3.675.845 4.061 4.366 0 0 1 1.846 1.537 3.546 3.812 0 0 1 .63 2.182 4.032 4.335 0 0 1-.673 2.337 4.633 4.981 0 0 1-2.13 1.814 10.309 11.084 0 0 1-3.96.661A9.394 10.1 0 0 1 614.596 75a4.547 4.888 0 0 1-1.887-3.059z" fill="#fff"/><path d="M243.564 292.672h199.547v17.51H243.564z" fill="#316de0"/><path d="M243.564 325.487h144.04v17.51h-144.04z" fill="#0a6fef"/><g fill="url(#i)" fill-opacity="1" stroke="#06f" stroke-dasharray="none" stroke-miterlimit="4" stroke-opacity="1" stroke-width="4.84" transform="matrix(.26437 0 0 .2543 462.38 128.802)"><path d="M45.4 210 0 288.9l45.4 78.8h91.3l45.4-78.8-45.4-78.9z" fill="url(#j)"/><path d="m153.7 200.3 45.5 78.9H290l45.8-78.9-45.8-78.8h-90.8z" fill="url(#k)"/><path d="M199.2 456.6H290l45.8-79.2-45.8-78.8h-90.8l-45.5 78.8z" fill="url(#l)"/><path d="M136.7 32.6H45.4L0 111.8l45.4 78.8h91.3l45.4-78.8z" fill="url(#m)"/><path d="M352.5 190.6h91.3l45.4-78.8-45.4-79.2h-91.3l-45.4 78.8z" fill="url(#n)"/></g><g fill="url(#o)" fill-opacity="1" stroke="#0049f8" stroke-dasharray="none" stroke-miterlimit="4" stroke-opacity="1" stroke-width="15.248" transform="matrix(.08306 0 0 -.07968 127.608 222.651)"><path d="M220 1073c0-4 24-62 53-130l52-123h405V260l-331-2-332-3-33-115C16 77 0 19 0 13 0 3 102 0 475 0c462 0 476 1 495 20s20 33 20 540v520H605c-212 0-385-3-385-7z" fill="url(#p)"/><path d="M1220 539c0-349 3-539 10-537 5 1 145 122 310 268 166 146 305 265 309 265 5 0 144-120 311-267C2326 120 2466 0 2471 0s9 232 9 540v540h-270l-2-249-3-248-178 159-178 158-160-142c-88-79-169-149-180-157-19-13-19-8-19 233v246h-270z" fill="url(#q)"/><path d="M2720 1053c-20-26-21-35-18-299 3-251 4-274 22-293 19-21 24-21 493-21h473V260h-878l-54-127-55-128 605-3c553-2 607-1 624 14 17 16 18 39 18 335 0 317 0 318-22 333-20 14-83 16-490 16h-468v120h439l448.712 6.132 56.494 107.438c41.257 69.287 79.745 141.21 79.745 141.21C3857.758 1077.27 3772 1080 3346 1080h-605z" fill="url(#r)"/></g><text fill="#fff" fill-opacity="1" x=".707" y="209.304" stroke="none" font-family="Arial" font-size="38.667" font-stretch="normal" font-style="normal" font-variant="normal" font-weight="400" style="line-height:1.25;-inkscape-font-specification:Arial;white-space:pre;inline-size:600.632" transform="matrix(.72533 0 0 .65148 126.376 114.38)" xml:space="preserve"><tspan x=".707" y="209.304">JunTech Web Solutions Aruba </tspan></text></svg>