<?xml version="1.0" encoding="UTF-8" standalone="no"?>
<svg
   width="423.836"
   height="304.41"
   version="1.1"
   id="svg250"
   sodipodi:docname="About-Us-JunTech-Web-Solutions-Aruba.svg"
   inkscape:version="1.1 (c68e22c387, 2021-05-23)"
   xmlns:inkscape="http://www.inkscape.org/namespaces/inkscape"
   xmlns:sodipodi="http://sodipodi.sourceforge.net/DTD/sodipodi-0.dtd"
   xmlns:xlink="http://www.w3.org/1999/xlink"
   xmlns="http://www.w3.org/2000/svg"
   xmlns:svg="http://www.w3.org/2000/svg">
  <sodipodi:namedview
     id="namedview252"
     pagecolor="#ffffff"
     bordercolor="#666666"
     borderopacity="1.0"
     inkscape:pageshadow="2"
     inkscape:pageopacity="0.0"
     inkscape:pagecheckerboard="0"
     showgrid="false"
     inkscape:zoom="2.5787589"
     inkscape:cx="211.92365"
     inkscape:cy="161.89959"
     inkscape:window-width="1920"
     inkscape:window-height="1003"
     inkscape:window-x="-9"
     inkscape:window-y="-9"
     inkscape:window-maximized="1"
     inkscape:current-layer="svg250" />
  <defs
     id="defs194">
    <path
       id="b"
       d="M353.779 166.802h-40.552a3.862 3.862 0 110-7.724h40.552a3.862 3.862 0 110 7.724z" />
    <path
       id="c"
       d="M286.192 157.147a15.45 15.45 0 00-15.448 15.448 15.45 15.45 0 0015.448 15.448 15.45 15.45 0 0015.448-15.448 15.45 15.45 0 00-15.448-15.448zm9.089 11.664l-10.299 10.298a1.925 1.925 0 01-2.73 0l-5.149-5.149a1.93 1.93 0 112.731-2.731l3.784 3.784 8.934-8.933a1.93 1.93 0 112.73 2.73z" />
    <path
       id="d"
       d="M373.089 176.457h-38.621a1.93 1.93 0 110-3.862h38.621a1.93 1.93 0 110 3.862z" />
    <path
       id="e"
       d="M326.745 176.457h-15.449a1.93 1.93 0 110-3.862h15.449a1.93 1.93 0 110 3.862z" />
    <path
       id="f"
       d="M380.813 184.182h-11.586a1.93 1.93 0 110-3.862h11.586a1.93 1.93 0 110 3.862z" />
    <path
       id="g"
       d="M361.502 184.182h-50.206a1.93 1.93 0 110-3.862h50.206a1.93 1.93 0 110 3.862z" />
    <linearGradient
       id="a"
       x1="-506.288"
       y1="135.105"
       x2="490.369"
       y2="244.6"
       gradientUnits="userSpaceOnUse">
      <stop
         offset="0"
         stop-color="#0684ff"
         id="stop189" />
      <stop
         offset="1"
         stop-color="#0684ff"
         stop-opacity="0"
         id="stop191" />
    </linearGradient>
    <linearGradient
       inkscape:collect="always"
       xlink:href="#a"
       id="linearGradient334"
       gradientUnits="userSpaceOnUse"
       x1="-506.288"
       y1="135.105"
       x2="490.369"
       y2="244.6" />
    <linearGradient
       inkscape:collect="always"
       xlink:href="#a"
       id="linearGradient336"
       gradientUnits="userSpaceOnUse"
       x1="-506.288"
       y1="135.105"
       x2="490.369"
       y2="244.6" />
  </defs>
  <g
     stroke="#0066ff"
     transform="matrix(0.53103,0,0,0.50472,89.684752,70.256274)"
     stroke-width="2.026"
     fill="url(#a)"
     id="g198"
     style="fill:url(#linearGradient336)">
    <path
       d="M 136.7,367.7 182.1,288.9 136.7,210 H 45.4 L 0,288.9 45.4,367.7 Z M 335.8,200.3 290,121.5 h -90.8 l -45.5,78.8 45.5,78.9 H 290 Z M 290,298.6 h -90.8 l -45.5,78.8 45.5,79.2 H 290 l 45.8,-79.2 z M 45.4,190.6 h 91.3 L 182.1,111.8 136.7,32.6 H 45.4 L 0,111.8 Z m 398.4,-158 h -91.3 l -45.4,78.8 45.4,79.2 h 91.3 l 45.4,-78.8 z"
       id="path196"
       style="fill:url(#linearGradient334)" />
  </g>
  <g
     fill="#ffffff"
     id="g204"
     transform="translate(5.8167517,26.369274)">
    <use
       xlink:href="#b"
       id="use200"
       x="0"
       y="0"
       width="100%"
       height="100%" />
    <use
       xlink:href="#c"
       id="use202"
       x="0"
       y="0"
       width="100%"
       height="100%" />
  </g>
  <g
     fill="#afb9d2"
     id="g210"
     transform="translate(5.8167517,26.369274)">
    <use
       xlink:href="#d"
       id="use206"
       x="0"
       y="0"
       width="100%"
       height="100%" />
    <use
       xlink:href="#e"
       id="use208"
       x="0"
       y="0"
       width="100%"
       height="100%" />
  </g>
  <g
     fill="#c7cfe2"
     id="g216"
     transform="translate(5.8167517,26.369274)">
    <use
       xlink:href="#f"
       id="use212"
       x="0"
       y="0"
       width="100%"
       height="100%" />
    <use
       xlink:href="#g"
       id="use214"
       x="0"
       y="0"
       width="100%"
       height="100%" />
  </g>
  <g
     fill="#ffffff"
     id="g222"
     transform="translate(5.8167517,26.369274)">
    <use
       xlink:href="#b"
       y="40.551998"
       id="use218"
       x="0"
       width="100%"
       height="100%" />
    <use
       xlink:href="#c"
       y="40.551998"
       id="use220"
       x="0"
       width="100%"
       height="100%" />
  </g>
  <g
     fill="#afb9d2"
     id="g228"
     transform="translate(5.8167517,26.369274)">
    <use
       xlink:href="#d"
       y="40.551998"
       id="use224"
       x="0"
       width="100%"
       height="100%" />
    <use
       xlink:href="#e"
       y="40.551998"
       id="use226"
       x="0"
       width="100%"
       height="100%" />
  </g>
  <g
     fill="#c7cfe2"
     id="g234"
     transform="translate(5.8167517,26.369274)">
    <use
       xlink:href="#f"
       y="40.550999"
       id="use230"
       x="0"
       width="100%"
       height="100%" />
    <use
       xlink:href="#g"
       y="40.550999"
       id="use232"
       x="0"
       width="100%"
       height="100%" />
  </g>
  <path
     d="m 353.80175,274.27527 h -34.758 a 3.862,3.862 0 1 1 0,-7.724 h 34.759 a 3.862,3.862 0 1 1 0,7.724 z m -61.793,-9.655 a 15.45,15.45 0 0 0 -15.448,15.448 15.45,15.45 0 0 0 15.448,15.448 15.45,15.45 0 0 0 15.448,-15.448 15.45,15.45 0 0 0 -15.448,-15.448 z"
     fill="#eff2fa"
     id="path236" />
  <g
     fill="#afb9d2"
     id="g242"
     transform="translate(5.8167517,26.369274)">
    <use
       xlink:href="#d"
       y="81.103996"
       id="use238"
       x="0"
       width="100%"
       height="100%" />
    <use
       xlink:href="#e"
       y="81.103996"
       id="use240"
       x="0"
       width="100%"
       height="100%" />
  </g>
  <g
     fill="#c7cfe2"
     id="g248"
     transform="translate(5.8167517,26.369274)">
    <use
       xlink:href="#f"
       y="81.102997"
       id="use244"
       x="0"
       width="100%"
       height="100%" />
    <use
       xlink:href="#g"
       y="81.102997"
       id="use246"
       x="0"
       width="100%"
       height="100%" />
  </g>
</svg>
