<?xml version="1.0" encoding="UTF-8" standalone="no"?>
<svg
   width="900"
   height="600"
   viewBox="0 0 900 600"
   fill="none"
   version="1.1"
   id="svg4474"
   sodipodi:docname="About-Us-JunTech-Web-Solutions-JWS-Aruba.svg"
   inkscape:version="1.1.1 (3bf5ae0d25, 2021-09-20)"
   xmlns:inkscape="http://www.inkscape.org/namespaces/inkscape"
   xmlns:sodipodi="http://sodipodi.sourceforge.net/DTD/sodipodi-0.dtd"
   xmlns="http://www.w3.org/2000/svg"
   xmlns:svg="http://www.w3.org/2000/svg">
  <sodipodi:namedview
     id="namedview4476"
     pagecolor="#ffffff"
     bordercolor="#666666"
     borderopacity="1.0"
     inkscape:pageshadow="2"
     inkscape:pageopacity="0.0"
     inkscape:pagecheckerboard="0"
     showgrid="false"
     inkscape:zoom="1.3083333"
     inkscape:cx="449.80892"
     inkscape:cy="300"
     inkscape:window-width="1920"
     inkscape:window-height="1003"
     inkscape:window-x="-9"
     inkscape:window-y="-9"
     inkscape:window-maximized="1"
     inkscape:current-layer="svg4474" />
  <path
     fill="transparent"
     d="M0 0h900v600H0z"
     id="path4388" />
  <path
     d="m 671.36317,274.87385 c -11.644,5.776 -27.099,-1.651 -27.099,-1.651 0,0 3.434,-16.789 15.085,-22.557 11.645,-5.777 27.094,1.642 27.094,1.642 0,0 -3.435,16.79 -15.08,22.566 z"
     fill="url(#a)"
     id="path4390"
     style="fill:url(#a)" />
  <path
     d="M220.375 337.958c17.935 10.749 43.666.813 43.666.813s-3.365-27.361-21.31-38.098c-17.935-10.749-43.656-.825-43.656-.825s3.365 27.361 21.3 38.11z"
     fill="url(#b)"
     id="path4392" />
  <circle
     r="7.012"
     transform="matrix(-1 0 0 1 340.047 396.428)"
     fill="#E1E4E5"
     id="circle4394" />
  <circle
     r="10.128"
     transform="matrix(-1 0 0 1 186.527 393.956)"
     fill="#E1E4E5"
     id="circle4396"
     style="fill:#2a7fff" />
  <circle
     r="7.7080002"
     transform="scale(-1,1)"
     fill="#e1e4e5"
     id="circle4398"
     cx="-712.30249"
     cy="399.3566"
     style="fill:#0055d4" />
  <circle
     r="8.57"
     transform="matrix(-1 0 0 1 645.533 149.668)"
     fill="#E1E4E5"
     id="circle4400"
     style="fill:#0055d4" />
  <circle
     r="7.6960001"
     transform="matrix(0,1,1,0,0,0)"
     fill="#E1E4E5"
     id="circle4402"
     style="fill:#0066ff"
     cx="208.31039"
     cy="165.7476" />
  <circle
     r="10.238"
     transform="matrix(-1 0 0 1 408.608 83.238)"
     fill="#E1E4E5"
     id="circle4404"
     style="fill:#5599ff" />
  <ellipse
     rx="7.875"
     ry="6.3"
     transform="matrix(-1 0 0 1 440.622 440.779)"
     fill="#E1E4E5"
     id="ellipse4406" />
  <circle
     r="16.016"
     transform="scale(1 -1) rotate(-75 205.442 -406.959)"
     fill="#E1E4E5"
     id="circle4408"
     style="fill:#0066ff" />
  <path
     d="M244.79 180.812h.112c.665 9.413 7.665 9.558 7.665 9.558s-7.719.151-7.719 11.027c0-10.876-7.719-11.027-7.719-11.027s6.997-.145 7.661-9.558zm-11.727 246.386h.108c.638 9.385 7.358 9.529 7.358 9.529s-7.411.151-7.411 10.994c0-10.843-7.411-10.994-7.411-10.994s6.718-.144 7.356-9.529z"
     fill="#E1E4E5"
     id="path4410" />
  <path
     stroke="#E1E4E5"
     stroke-width="4.261"
     d="M75 491.679h750m-693.537 33.025H404.19m37.287 0h356.889"
     id="path4412" />
  <path
     fill-rule="evenodd"
     clip-rule="evenodd"
     d="m581.826 189.99-57.889-58.08a40.882 40.882 0 0 0-28.944-12.035H348.184c-22.619 0-40.94 18.381-40.94 41.075v287.524c0 22.693 18.321 41.074 40.94 41.074h204.698c22.619 0 40.939-18.381 40.939-41.074V219.03a41.156 41.156 0 0 0-11.995-29.04z"
     fill="#fff"
     stroke="#E1E4E5"
     stroke-width="3.921"
     id="path4414" />
  <rect
     x="341.335"
     y="202.972"
     width="50.212"
     height="50.212"
     rx="25.106"
     fill="#ee0707"
     id="rect4416"
     style="fill:#0066ff" />
  <rect
     x="355.119"
     y="216.755"
     width="22.645"
     height="22.645"
     rx="11.322"
     fill="#fff"
     id="rect4418" />
  <rect
     x="404.761"
     y="206.936"
     width="152.838"
     height="7.047"
     rx="3.524"
     fill="#E1E4E5"
     id="rect4420" />
  <rect
     x="404.761"
     y="224.113"
     width="152.838"
     height="7.047"
     rx="3.524"
     fill="#E1E4E5"
     id="rect4422"
     style="fill:#5599ff" />
  <rect
     x="404.761"
     y="241.291"
     width="152.838"
     height="7.047"
     rx="3.524"
     fill="#E1E4E5"
     id="rect4424" />
  <rect
     x="341.335"
     y="265.968"
     width="50.212"
     height="50.212"
     rx="25.106"
     fill="#ee0707"
     id="rect4426"
     style="fill:#0066ff" />
  <rect
     x="355.119"
     y="279.751"
     width="22.645"
     height="22.645"
     rx="11.322"
     fill="#fff"
     id="rect4428" />
  <rect
     x="404.761"
     y="269.932"
     width="152.838"
     height="7.047"
     rx="3.524"
     fill="#E1E4E5"
     id="rect4430" />
  <rect
     x="404.761"
     y="287.109"
     width="152.838"
     height="7.047"
     rx="3.524"
     fill="#E1E4E5"
     id="rect4432"
     style="fill:#cccccc" />
  <rect
     x="404.761"
     y="304.287"
     width="152.838"
     height="7.047"
     rx="3.524"
     fill="#E1E4E5"
     id="rect4434" />
  <rect
     x="341.335"
     y="328.964"
     width="50.212"
     height="50.212"
     rx="25.106"
     fill="#ee0707"
     id="rect4436"
     style="fill:#0055d4" />
  <rect
     x="355.119"
     y="342.748"
     width="22.645"
     height="22.645"
     rx="11.322"
     fill="#fff"
     id="rect4438" />
  <rect
     x="404.761"
     y="332.928"
     width="152.838"
     height="7.047"
     rx="3.524"
     fill="#E1E4E5"
     id="rect4440"
     style="fill:#5599ff" />
  <rect
     x="404.761"
     y="350.106"
     width="152.838"
     height="7.047"
     rx="3.524"
     fill="#E1E4E5"
     id="rect4442" />
  <rect
     x="404.761"
     y="367.284"
     width="152.838"
     height="7.047"
     rx="3.524"
     fill="#E1E4E5"
     id="rect4444" />
  <rect
     x="341.335"
     y="391.96"
     width="50.212"
     height="50.212"
     rx="25.106"
     fill="#ee0707"
     id="rect4446"
     style="fill:#2a7fff" />
  <rect
     x="355.119"
     y="405.744"
     width="22.645"
     height="22.645"
     rx="11.322"
     fill="#fff"
     id="rect4448" />
  <rect
     x="404.761"
     y="395.924"
     width="152.838"
     height="7.047"
     rx="3.524"
     fill="#E1E4E5"
     id="rect4450" />
  <rect
     x="404.761"
     y="413.102"
     width="152.838"
     height="7.047"
     rx="3.524"
     fill="#E1E4E5"
     id="rect4452"
     style="fill:#5599ff" />
  <rect
     x="404.761"
     y="430.28"
     width="152.838"
     height="7.047"
     rx="3.524"
     fill="#E1E4E5"
     id="rect4454" />
  <circle
     cx="568.30145"
     cy="410.78482"
     fill="#ee0707"
     id="circle4456"
     style="fill:#0066ff;stroke-width:0.769627"
     r="63.133228" />
  <path
     clip-rule="evenodd"
     d="M550.862 434.417h-7.294a4.08 4.08 0 0 1-4.079-4.079v-28.543a4.08 4.08 0 0 1 4.079-4.079h7.294a4.08 4.08 0 0 1 4.08 4.079v28.543a4.08 4.08 0 0 1-4.08 4.079v0z"
     stroke="#fff"
     stroke-width="5.248"
     stroke-linecap="round"
     stroke-linejoin="round"
     id="path4458" />
  <path
     d="m554.942 401.858 14.097-18.355c2.623-3.419 7.746-3.504 10.485-.178v0a6.925 6.925 0 0 1 1.58 4.408v12.637h11.961a6.953 6.953 0 0 1 5.779 3.087l1.271 1.897a6.95 6.95 0 0 1 .904 5.791l-5.25 18.243a6.953 6.953 0 0 1-6.68 5.03h-24.296a6.953 6.953 0 0 1-5.092-2.218l-4.759-5.123"
     stroke="#fff"
     stroke-width="5.248"
     stroke-linecap="round"
     stroke-linejoin="round"
     id="path4460" />
  <defs
     id="defs4472">
    <linearGradient
       id="a"
       x1="686.265"
       y1="240.153"
       x2="782.309"
       y2="164.181"
       gradientUnits="userSpaceOnUse"
       gradientTransform="translate(-59.617834,52.738854)">
      <stop
         stop-color="#fff"
         id="stop4462" />
      <stop
         offset="1"
         stop-color="#EEE"
         id="stop4464" />
    </linearGradient>
    <linearGradient
       id="b"
       x1="289.779"
       y1="372.559"
       x2="145.467"
       y2="238.475"
       gradientUnits="userSpaceOnUse">
      <stop
         stop-color="#fff"
         id="stop4467" />
      <stop
         offset="1"
         stop-color="#EEE"
         id="stop4469" />
    </linearGradient>
  </defs>
</svg>
