<svg xmlns="http://www.w3.org/2000/svg" xmlns:svg="http://www.w3.org/2000/svg" id="svg4474" width="900" height="600" fill="none" version="1.1" viewBox="0 0 900 600"><path id="path4388" fill="transparent" d="M0 0h900v600H0z"/><path id="path4390" fill="url(#a)" d="m 671.36317,274.87385 c -11.644,5.776 -27.099,-1.651 -27.099,-1.651 0,0 3.434,-16.789 15.085,-22.557 11.645,-5.777 27.094,1.642 27.094,1.642 0,0 -3.435,16.79 -15.08,22.566 z" style="fill:url(#a)"/><path id="path4392" fill="url(#b)" d="M220.375 337.958c17.935 10.749 43.666.813 43.666.813s-3.365-27.361-21.31-38.098c-17.935-10.749-43.656-.825-43.656-.825s3.365 27.361 21.3 38.11z"/><circle id="circle4394" r="7.012" fill="#E1E4E5" transform="matrix(-1 0 0 1 340.047 396.428)"/><circle id="circle4396" r="10.128" fill="#E1E4E5" transform="matrix(-1 0 0 1 186.527 393.956)" style="fill:#2a7fff"/><circle id="circle4398" cx="-712.302" cy="399.357" r="7.708" fill="#e1e4e5" transform="scale(-1,1)" style="fill:#0055d4"/><circle id="circle4400" r="8.57" fill="#E1E4E5" transform="matrix(-1 0 0 1 645.533 149.668)" style="fill:#0055d4"/><circle id="circle4402" cx="208.31" cy="165.748" r="7.696" fill="#E1E4E5" transform="matrix(0,1,1,0,0,0)" style="fill:#06f"/><circle id="circle4404" r="10.238" fill="#E1E4E5" transform="matrix(-1 0 0 1 408.608 83.238)" style="fill:#59f"/><ellipse id="ellipse4406" fill="#E1E4E5" rx="7.875" ry="6.3" transform="matrix(-1 0 0 1 440.622 440.779)"/><circle id="circle4408" r="16.016" fill="#E1E4E5" transform="scale(1 -1) rotate(-75 205.442 -406.959)" style="fill:#06f"/><path id="path4410" fill="#E1E4E5" d="M244.79 180.812h.112c.665 9.413 7.665 9.558 7.665 9.558s-7.719.151-7.719 11.027c0-10.876-7.719-11.027-7.719-11.027s6.997-.145 7.661-9.558zm-11.727 246.386h.108c.638 9.385 7.358 9.529 7.358 9.529s-7.411.151-7.411 10.994c0-10.843-7.411-10.994-7.411-10.994s6.718-.144 7.356-9.529z"/><path id="path4412" stroke="#E1E4E5" stroke-width="4.261" d="M75 491.679h750m-693.537 33.025H404.19m37.287 0h356.889"/><path id="path4414" fill="#fff" fill-rule="evenodd" stroke="#E1E4E5" stroke-width="3.921" d="m581.826 189.99-57.889-58.08a40.882 40.882 0 0 0-28.944-12.035H348.184c-22.619 0-40.94 18.381-40.94 41.075v287.524c0 22.693 18.321 41.074 40.94 41.074h204.698c22.619 0 40.939-18.381 40.939-41.074V219.03a41.156 41.156 0 0 0-11.995-29.04z" clip-rule="evenodd"/><rect id="rect4416" width="50.212" height="50.212" x="341.335" y="202.972" fill="#ee0707" rx="25.106" style="fill:#06f"/><rect id="rect4418" width="22.645" height="22.645" x="355.119" y="216.755" fill="#fff" rx="11.322"/><rect id="rect4420" width="152.838" height="7.047" x="404.761" y="206.936" fill="#E1E4E5" rx="3.524"/><rect id="rect4422" width="152.838" height="7.047" x="404.761" y="224.113" fill="#E1E4E5" rx="3.524" style="fill:#59f"/><rect id="rect4424" width="152.838" height="7.047" x="404.761" y="241.291" fill="#E1E4E5" rx="3.524"/><rect id="rect4426" width="50.212" height="50.212" x="341.335" y="265.968" fill="#ee0707" rx="25.106" style="fill:#06f"/><rect id="rect4428" width="22.645" height="22.645" x="355.119" y="279.751" fill="#fff" rx="11.322"/><rect id="rect4430" width="152.838" height="7.047" x="404.761" y="269.932" fill="#E1E4E5" rx="3.524"/><rect id="rect4432" width="152.838" height="7.047" x="404.761" y="287.109" fill="#E1E4E5" rx="3.524" style="fill:#ccc"/><rect id="rect4434" width="152.838" height="7.047" x="404.761" y="304.287" fill="#E1E4E5" rx="3.524"/><rect id="rect4436" width="50.212" height="50.212" x="341.335" y="328.964" fill="#ee0707" rx="25.106" style="fill:#0055d4"/><rect id="rect4438" width="22.645" height="22.645" x="355.119" y="342.748" fill="#fff" rx="11.322"/><rect id="rect4440" width="152.838" height="7.047" x="404.761" y="332.928" fill="#E1E4E5" rx="3.524" style="fill:#59f"/><rect id="rect4442" width="152.838" height="7.047" x="404.761" y="350.106" fill="#E1E4E5" rx="3.524"/><rect id="rect4444" width="152.838" height="7.047" x="404.761" y="367.284" fill="#E1E4E5" rx="3.524"/><rect id="rect4446" width="50.212" height="50.212" x="341.335" y="391.96" fill="#ee0707" rx="25.106" style="fill:#2a7fff"/><rect id="rect4448" width="22.645" height="22.645" x="355.119" y="405.744" fill="#fff" rx="11.322"/><rect id="rect4450" width="152.838" height="7.047" x="404.761" y="395.924" fill="#E1E4E5" rx="3.524"/><rect id="rect4452" width="152.838" height="7.047" x="404.761" y="413.102" fill="#E1E4E5" rx="3.524" style="fill:#59f"/><rect id="rect4454" width="152.838" height="7.047" x="404.761" y="430.28" fill="#E1E4E5" rx="3.524"/><circle id="circle4456" cx="568.301" cy="410.785" fill="#ee0707" style="fill:#06f;stroke-width:.769627" r="63.133"/><path id="path4458" stroke="#fff" stroke-linecap="round" stroke-linejoin="round" stroke-width="5.248" d="M550.862 434.417h-7.294a4.08 4.08 0 0 1-4.079-4.079v-28.543a4.08 4.08 0 0 1 4.079-4.079h7.294a4.08 4.08 0 0 1 4.08 4.079v28.543a4.08 4.08 0 0 1-4.08 4.079v0z" clip-rule="evenodd"/><path id="path4460" stroke="#fff" stroke-linecap="round" stroke-linejoin="round" stroke-width="5.248" d="m554.942 401.858 14.097-18.355c2.623-3.419 7.746-3.504 10.485-.178v0a6.925 6.925 0 0 1 1.58 4.408v12.637h11.961a6.953 6.953 0 0 1 5.779 3.087l1.271 1.897a6.95 6.95 0 0 1 .904 5.791l-5.25 18.243a6.953 6.953 0 0 1-6.68 5.03h-24.296a6.953 6.953 0 0 1-5.092-2.218l-4.759-5.123"/><defs id="defs4472"><linearGradient id="a" x1="686.265" x2="782.309" y1="240.153" y2="164.181" gradientTransform="translate(-59.617834,52.738854)" gradientUnits="userSpaceOnUse"><stop id="stop4462" stop-color="#fff"/><stop id="stop4464" offset="1" stop-color="#EEE"/></linearGradient><linearGradient id="b" x1="289.779" x2="145.467" y1="372.559" y2="238.475" gradientUnits="userSpaceOnUse"><stop id="stop4467" stop-color="#fff"/><stop id="stop4469" offset="1" stop-color="#EEE"/></linearGradient></defs></svg>