<svg xmlns="http://www.w3.org/2000/svg" xmlns:xlink="http://www.w3.org/1999/xlink" width="423.836" height="304.41" xmlns:v="https://vecta.io/nano"><defs><linearGradient id="A" x1="-506.288" y1="135.105" x2="490.369" y2="244.6" gradientUnits="userSpaceOnUse"><stop offset="0" stop-color="#0684ff"/><stop offset="1" stop-color="#0684ff" stop-opacity="0"/></linearGradient><path id="B" d="M353.779 166.802h-40.552c-2.133 0-3.862-1.729-3.862-3.862h0c0-2.133 1.729-3.862 3.862-3.862h40.552c2.133 0 3.862 1.729 3.862 3.862h0c0 2.133-1.729 3.862-3.862 3.862z"/><path id="C" d="M286.192 157.147a15.45 15.45 0 0 0-15.448 15.448 15.45 15.45 0 0 0 15.448 15.448 15.45 15.45 0 0 0 15.448-15.448 15.45 15.45 0 0 0-15.448-15.448zm9.089 11.664l-10.299 10.298c-.377.377-.871.566-1.365.566s-.988-.189-1.365-.566l-5.149-5.149a1.93 1.93 0 1 1 2.731-2.731l3.784 3.784 8.934-8.933a1.93 1.93 0 1 1 2.73 2.73z"/><path id="D" d="M373.089 176.457h-38.621a1.93 1.93 0 1 1 0-3.862h38.621a1.93 1.93 0 1 1 0 3.862z"/><path id="E" d="M326.745 176.457h-15.449a1.93 1.93 0 1 1 0-3.862h15.449a1.93 1.93 0 1 1 0 3.862z"/><path id="F" d="M380.813 184.182h-11.586a1.93 1.93 0 1 1 0-3.862h11.586a1.93 1.93 0 1 1 0 3.862z"/><path id="G" d="M361.502 184.182h-50.206a1.93 1.93 0 1 1 0-3.862h50.206a1.93 1.93 0 1 1 0 3.862z"/></defs><g stroke="#06f" transform="matrix(.531032 0 0 .50472 83.867624 43.887327)" stroke-width="2.026"><path d="M136.7 367.7l45.4-78.8-45.4-78.9H45.4L0 288.9l45.4 78.8z" fill="url(#A)"/><path d="M335.8 200.3L290 121.5h-90.8l-45.5 78.8 45.5 78.9H290z" fill="url(#A)"/><path d="M290 298.6h-90.8l-45.5 78.8 45.5 79.2H290l45.8-79.2z" fill="url(#A)"/><path d="M45.4 190.6h91.3l45.4-78.8-45.4-79.2H45.4L0 111.8z" fill="url(#A)"/><path d="M443.8 32.6h-91.3l-45.4 78.8 45.4 79.2h91.3l45.4-78.8z" fill="url(#A)"/></g><g fill="#fff"><use xlink:href="#B"/><use xlink:href="#C"/></g><g fill="#afb9d2"><use xlink:href="#D"/><use xlink:href="#E"/></g><g fill="#c7cfe2"><use xlink:href="#F"/><use xlink:href="#G"/></g><g fill="#fff"><use xlink:href="#B" y="40.552"/><use xlink:href="#C" y="40.552"/></g><g fill="#afb9d2"><use xlink:href="#D" y="40.552"/><use xlink:href="#E" y="40.552"/></g><g fill="#c7cfe2"><use xlink:href="#F" y="40.551"/><use xlink:href="#G" y="40.551"/></g><path d="M347.985 247.906h-34.758c-2.133 0-3.862-1.729-3.862-3.862h0c0-2.133 1.729-3.862 3.862-3.862h34.759c2.133 0 3.862 1.729 3.862 3.862h0c0 2.133-1.729 3.862-3.862 3.862zm-61.793-9.655a15.45 15.45 0 0 0-15.448 15.448 15.45 15.45 0 0 0 15.448 15.448 15.45 15.45 0 0 0 15.448-15.448 15.45 15.45 0 0 0-15.448-15.448z" fill="#eff2fa"/><g fill="#afb9d2"><use xlink:href="#D" y="81.104"/><use xlink:href="#E" y="81.104"/></g><g fill="#c7cfe2"><use xlink:href="#F" y="81.103"/><use xlink:href="#G" y="81.103"/></g></svg>