<svg xmlns="http://www.w3.org/2000/svg" width="926" height="749" xmlns:v="https://vecta.io/nano"><defs><linearGradient id="A" x1="-506.288" y1="135.105" x2="490.369" y2="244.6" gradientUnits="userSpaceOnUse"><stop offset="0" stop-color="#0684ff"/><stop offset="1" stop-color="#0684ff" stop-opacity="0"/></linearGradient></defs><circle cx="237.905" cy="226.935" r="83.979" fill="#2a7fff"/><path d="M926 200.96v220.88c.002 86.461-34.343 169.382-95.481 230.519S686.461 747.842 600 747.84H0V526.96c0-118.03 62.73-221.42 156.68-278.63 16.19-9.868 33.215-18.294 50.88-25.18a320.09 320.09 0 0 1 31.76-10.53c.21-.07.43-.13.64-.18q4.77-1.305 9.6-2.46c.18-.05.35-.09.53-.13 19.845-4.729 40.091-7.584 60.47-8.53l7.25-.25a76.52 76.52 0 0 1 2.64-.05q2.76-.06 5.55-.06z" fill="#333"/><path d="M432 605.5C193.914 605.5.819 669.701.01 749h863.981c-.81-79.299-193.904-143.5-431.991-143.5z" fill="#f2f2f2"/><ellipse cx="352" cy="692" rx="80" ry="22.222" opacity=".1"/><ellipse cx="525" cy="652" rx="80" ry="22.222" opacity=".1"/><ellipse cx="352" cy="692" rx="72" ry="20" opacity=".1"/><ellipse cx="525" cy="652" rx="72" ry="20" opacity=".1"/><g fill="#f2f2f2"><circle cx="138" cy="290" r="7"/><circle cx="740" cy="564" r="7"/><circle cx="410" cy="339" r="7"/></g><circle cx="757" cy="297" r="4" fill="#06f"/><circle cx="154" cy="497" r="4" fill="#2a7fff"/><path d="M94 581.322h-1.822V579.5h-.356v1.822H90v.356h1.822v1.822h.356v-1.822H94v-.356zm585-148h-1.822V431.5h-.356v1.822H675v.356h1.822v1.822h.356v-1.822H679v-.356zm151-30h-1.822V401.5h-.356v1.822H826v.356h1.822v1.822h.356v-1.822H830v-.356z" fill="#f2f2f2"/><path fill="#06f" d="M505 483.322h-1.822V481.5h-.356v1.822H501v.356h1.822v1.822h.356v-1.822H505v-.356z"/><path d="M786 493.322h-1.822V491.5h-.356v1.822H782v.356h1.822v1.822h.356v-1.822H786v-.356zm-339 43h-1.822V534.5h-.356v1.822H443v.356h1.822v1.822h.356v-1.822H447v-.356zm128 2h-1.822V536.5h-.356v1.822H571v.356h1.822v1.822h.356v-1.822H575v-.356zm-479-170h-1.822V366.5h-.356v1.822H92v.356h1.822v1.822h.356v-1.822H96v-.356z" fill="#f2f2f2"/><path d="M676.997 230.689h2.874v58.063h-2.874zm-65.249 154.357l-26.445 60.938 5.174 8.623-1.725 2.874 12.073 6.324v-3.449l4.599-1.15 19.546-35.643-13.222-38.517z" fill="#e6e6e6"/><path d="M591.052 456.907s-19.546 30.469 2.3 35.068 4.024-32.194 4.024-32.194z" fill="#2ab0ff"/><path d="M619.221 443.109l-6.899 22.421-2.874 28.744-5.174 10.348 5.749 46.566 9.198 9.198 4.024 45.991v20.696l10.923 18.971-14.066 19.964a6.36 6.36 0 0 0 4.99 10.031c3.105.082 7.199-.796 12.525-3.55 16.672-8.623 16.097-16.672 16.097-16.672s10.348 0 10.923-8.048-6.324-65.537-6.324-65.537l-6.324-24.72V490.25h2.3l1.15 57.489 5.174 21.271.575 9.198 7.474 91.982s33.343 9.198 35.068 1.725-12.647-12.073-12.647-12.073l8.623-16.672v-32.194l-2.874-6.899-5.174-46.566 8.623-9.198 4.599-5.749v-45.991l-5.749-17.821-1.725-14.947-9.198-22.995s-41.967-13.797-68.986 2.3z" fill="#fff"/><path d="M693.956 313.185c.001 18.986-12.261 35.8-30.339 41.602s-37.834-.734-48.883-16.174-10.862-36.248.462-51.487l.012-.012a43.69 43.69 0 0 1 78.748 26.071z" fill="#00b0ff"/><path d="M687.747 295.071l-3.564 20.414c-26.784-69.527-69.389-26.818-70.125-26.071a43.69 43.69 0 0 1 73.689 5.657z" opacity=".1"/><g fill="#fff"><path d="M688.897 292.771l-3.564 20.414c-26.784-69.527-69.389-26.818-70.124-26.071a43.69 43.69 0 0 1 73.689 5.657z"/><path d="M682.908 284.153l5.989 20.79s-12.433 37.263-70.086 38.562l-1.89 5.323-6.324 1.725-2.874 12.073 8.048 76.46s-3.449 7.474 2.3 6.899c0 0 37.942-12.647 70.711-1.15 0 0 6.899 2.874 5.174-3.449 0 0 22.995-14.372 21.271-29.319s1.725-84.508 1.725-84.508 3.449-20.121-6.899-24.72c0 0-15.198-21.273-27.145-18.685z"/></g><path d="M670.304 429.418s-36.018 3.617-26.048 23.591 27.725-16.851 27.725-16.851z" fill="#2ab0ff"/><g fill="#e6e6e6"><path d="M688.782 340.205s-6.324 7.474-4.024 19.546 10.923 39.092 10.923 39.092l-30.469 28.169 9.198 12.647 41.392-21.271L725 412.64h0c-2.287-23.252-7.979-46.043-16.892-67.64l-1.504-3.645s-10.923-4.599-17.821-1.15z"/><circle cx="685.908" cy="309.161" r="10.635"/><circle cx="678.434" cy="230.402" r="7.761"/></g><path fill="#06f" d="M481 352.322h-1.822V350.5h-.356v1.822H477v.356h1.822v1.822h.356v-1.822H481v-.356z"/><g fill="#f2f2f2"><path d="M645 296.322h-1.822V294.5h-.356v1.822H641v.356h1.822v1.822h.356v-1.822H645v-.356zm-18 17h-1.822V311.5h-.356v1.822H623v.356h1.822v1.822h.356v-1.822H627v-.356z"/><circle cx="556" cy="267" r="4"/><path d="M358.958 295.195c0 279.044-35.088 279.044-78.36 279.044-22.371 0-42.554 0-56.826-38.546-4.103-11.078-7.728-25.362-10.767-43.75-6.843-41.333-10.767-103.447-10.767-196.748 0-35.878 4.247-71.05 10.767-103.901 3.134-15.815 6.795-31.081 10.767-45.64 4.857-17.825 10.181-34.586 15.552-49.923a769.07 769.07 0 0 1 10.767-28.927C266.398 25.554 280.598 0 280.598 0s78.36 141.083 78.36 295.195z"/></g><path d="M250.092 66.803v486.5h-10.767V95.73c3.601-10.312 7.238-19.991 10.767-28.927z" opacity=".1"/><circle cx="278.206" cy="192.609" r="43.068" fill="#3f3d56"/><g fill="#06f"><path d="M372.716 547.919c-9.576-23.572-21.871-27.638-29.908-27.285v-3.82H217.193v3.82c-8.037-.354-20.332 3.713-29.908 27.285C171.732 586.202 196.855 652 196.855 652s-13.426-91.767 31.158-92.371A52.76 52.76 0 0 0 242 572.319V597h72v-22.434c7.038-3.57 13.185-8.674 17.987-14.937 44.584.604 31.158 92.371 31.158 92.371s25.123-65.798 9.571-104.081z"/><circle cx="278.206" cy="192.609" r="33.497"/><path d="M846.01 200.96h-2c.299 45.084 36.905 81.489 81.99 81.54v-2c-43.982-.048-79.694-35.559-79.99-79.54zm-37 0h-2c.316 65.512 53.477 118.472 118.99 118.54v-2c-64.406-.072-116.67-52.134-116.99-116.54z"/></g><path d="M771 200.96h-2c.25 86.36 70.58 156.54 157 156.54v-2c-85.32 0-154.75-69.28-155-154.54z" fill="#0055d4"/><path d="M303.119 168.465a34.77 34.77 0 0 0-49.498 0 34.77 34.77 0 0 0 0 49.498 34.77 34.77 0 0 0 49.498 0 34.77 34.77 0 0 0 0-49.498zm-24.749 56.96c-17.761 0-32.211-14.45-32.211-32.211s14.45-32.211 32.211-32.211 32.211 14.45 32.211 32.211-14.45 32.211-32.211 32.211z" fill="#06f"/><circle cy="193.326" cx="278.311" r="34.015"/><g stroke="#06f"><g transform="matrix(.104662 0 0 .099511 252.64017 168.33174)" stroke-width="4.22"><path d="M45.4 210L0 288.9l45.4 78.8h91.3l45.4-78.8-45.4-78.9z" fill="url(#A)"/><path d="M153.7 200.3l45.5 78.9H290l45.8-78.9-45.8-78.8h-90.8z" fill="url(#A)"/><path d="M199.2 456.6H290l45.8-79.2-45.8-78.8h-90.8l-45.5 78.8z" fill="url(#A)"/><path d="M136.7 32.6H45.4L0 111.8l45.4 78.8h91.3l45.4-78.8z" fill="url(#A)"/><path d="M352.5 190.6h91.3l45.4-78.8-45.4-79.2h-91.3l-45.4 78.8z" fill="url(#A)"/></g><g transform="matrix(.046128 0 0 .045611 646.86307 358.41698)" stroke-width="2.026"><path d="M182.1 288.9L136.7 210H45.4L0 288.9l45.4 78.8h91.3z" fill="url(#A)"/><path d="M290 121.5h-90.8l-45.5 78.8 45.5 78.9H290l45.8-78.9z" fill="url(#A)"/><path d="M199.2 298.6l-45.5 78.8 45.5 79.2H290l45.8-79.2-45.8-78.8z" fill="url(#A)"/><path d="M136.7 190.6l45.4-78.8-45.4-79.2H45.4L0 111.8l45.4 78.8z" fill="url(#A)"/><path d="M352.5 32.6l-45.4 78.8 45.4 79.2h91.3l45.4-78.8-45.4-79.2z" fill="url(#A)"/></g></g></svg>