<?xml version="1.0" encoding="UTF-8" standalone="no"?>
<!-- Created with Inkscape (http://www.inkscape.org/) -->

<svg
   version="1.1"
   id="svg316"
   width="666.66669"
   height="666.66669"
   viewBox="0 0 666.66669 666.66669"
   sodipodi:docname="3545755.svg"
   inkscape:version="1.2.2 (732a01da63, 2022-12-09)"
   xmlns:inkscape="http://www.inkscape.org/namespaces/inkscape"
   xmlns:sodipodi="http://sodipodi.sourceforge.net/DTD/sodipodi-0.dtd"
   xmlns="http://www.w3.org/2000/svg"
   xmlns:svg="http://www.w3.org/2000/svg">
  <defs
     id="defs320">
    <clipPath
       clipPathUnits="userSpaceOnUse"
       id="clipPath332">
      <path
         d="M 0,500 H 500 V 0 H 0 Z"
         id="path330" />
    </clipPath>
    <clipPath
       clipPathUnits="userSpaceOnUse"
       id="clipPath386">
      <path
         d="M 0,500 H 500 V 0 H 0 Z"
         id="path384" />
    </clipPath>
    <clipPath
       clipPathUnits="userSpaceOnUse"
       id="clipPath402">
      <path
         d="M 0,500 H 500 V 0 H 0 Z"
         id="path400" />
    </clipPath>
    <clipPath
       clipPathUnits="userSpaceOnUse"
       id="clipPath414">
      <path
         d="M 0,500 H 500 V 0 H 0 Z"
         id="path412" />
    </clipPath>
    <clipPath
       clipPathUnits="userSpaceOnUse"
       id="clipPath474">
      <path
         d="M 0,500 H 500 V 0 H 0 Z"
         id="path472" />
    </clipPath>
    <clipPath
       clipPathUnits="userSpaceOnUse"
       id="clipPath630">
      <path
         d="M 0,500 H 500 V 0 H 0 Z"
         id="path628" />
    </clipPath>
    <clipPath
       clipPathUnits="userSpaceOnUse"
       id="clipPath654">
      <path
         d="m 246.725,277.632 h 92.134 v -88.198 h -92.134 z"
         id="path652" />
    </clipPath>
    <clipPath
       clipPathUnits="userSpaceOnUse"
       id="clipPath674">
      <path
         d="M 99.5029,375.232 H 173.11 V 227.98 H 99.5029 Z"
         id="path672" />
    </clipPath>
    <clipPath
       clipPathUnits="userSpaceOnUse"
       id="clipPath694">
      <path
         d="m 326.991,221.135 h 9.881 v -17.309 h -9.881 z"
         id="path692" />
    </clipPath>
    <clipPath
       clipPathUnits="userSpaceOnUse"
       id="clipPath726">
      <path
         d="M 119.877,351.467 H 179.68 V 228.422 h -59.803 z"
         id="path724" />
    </clipPath>
    <clipPath
       clipPathUnits="userSpaceOnUse"
       id="clipPath742">
      <path
         d="m 218.693,184.616 h 46.366 v -42.674 h -46.366 z"
         id="path740" />
    </clipPath>
  </defs>
  <sodipodi:namedview
     id="namedview318"
     pagecolor="#ffffff"
     bordercolor="#000000"
     borderopacity="0.25"
     inkscape:showpageshadow="2"
     inkscape:pageopacity="0.0"
     inkscape:pagecheckerboard="0"
     inkscape:deskcolor="#d1d1d1"
     showgrid="false"
     inkscape:zoom="1.0479322"
     inkscape:cx="420.82874"
     inkscape:cy="500.03234"
     inkscape:window-width="1366"
     inkscape:window-height="697"
     inkscape:window-x="-8"
     inkscape:window-y="-8"
     inkscape:window-maximized="1"
     inkscape:current-layer="g324">
    <inkscape:page
       x="0"
       y="0"
       id="page322"
       width="666.66669"
       height="666.66669" />
  </sodipodi:namedview>
  <g
     id="g324"
     inkscape:groupmode="layer"
     inkscape:label="Page 1"
     transform="matrix(1.3333333,0,0,-1.3333333,0,666.66667)">
    <g
       id="g326">
      <g
         id="g328"
         clip-path="url(#clipPath332)">
        <g
           id="g334"
           transform="translate(136.3063,373.6291)"
           style="fill:#0055d4">
          <path
             d="m 0,0 v 0 c -18.921,0 -34.259,15.338 -34.259,34.259 0,18.921 15.338,34.26 34.259,34.26 18.921,0 34.259,-15.339 34.259,-34.26 C 34.259,15.338 18.921,0 0,0"
             style="fill:#0055d4;fill-opacity:1;fill-rule:nonzero;stroke:none"
             id="path336" />
        </g>
        <path
           d="m 120.772,392.619 h 7.09 v 22.906 h -7.09 z"
           style="fill:#ffffff;fill-opacity:1;fill-rule:nonzero;stroke:none"
           id="path338" />
        <g
           id="g340"
           transform="translate(124.2829,418.5246)">
          <path
             d="M 0,0 C 2.316,0 4.193,1.894 4.193,4.228 4.193,6.561 2.316,8.454 0,8.454 -2.316,8.454 -4.193,6.561 -4.193,4.228 -4.193,1.894 -2.316,0 0,0"
             style="fill:#ffffff;fill-opacity:1;fill-rule:nonzero;stroke:none"
             id="path342" />
        </g>
        <g
           id="g344"
           transform="translate(139.1964,404.6432)">
          <path
             d="M 0,0 C 0,3.22 1.481,5.139 4.32,5.139 6.927,5.139 8.18,3.297 8.18,0 v -12.024 h 7.057 V 2.479 c 0,6.135 -3.478,9.102 -8.334,9.102 C 2.044,11.581 0,7.796 0,7.796 v 3.086 H -6.802 V -12.024 H 0 Z"
             style="fill:#ffffff;fill-opacity:1;fill-rule:nonzero;stroke:none"
             id="path346" />
        </g>
        <g
           id="g348"
           transform="translate(182.2204,476.114)">
          <path
             d="M 0,0 4.691,-8.578 13.269,-13.269 4.691,-17.96 0,-26.538 l -4.691,8.578 -8.578,4.691 8.578,4.691 z"
             style="fill:#f5f5f5;fill-opacity:1;fill-rule:nonzero;stroke:none"
             id="path350" />
        </g>
        <g
           id="g352"
           transform="translate(377.8707,243.7272)">
          <path
             d="M 0,0 3.518,-6.434 9.951,-9.951 3.518,-13.47 0,-19.903 l -3.519,6.433 -6.433,3.519 6.433,3.517 z"
             style="fill:#ebebeb;fill-opacity:1;fill-rule:nonzero;stroke:none"
             id="path354" />
        </g>
        <g
           id="g356"
           transform="translate(387.8219,275.4919)">
          <path
             d="M 0,0 1.588,-2.902 4.49,-4.49 1.588,-6.078 0,-8.98 l -1.587,2.902 -2.903,1.588 2.903,1.588 z"
             style="fill:#e0e0e0;fill-opacity:1;fill-rule:nonzero;stroke:none"
             id="path358" />
        </g>
        <g
           id="g360"
           transform="translate(148.7135,472.8874)">
          <path
             d="M 0,0 1.587,-2.902 4.49,-4.49 1.587,-6.077 0,-8.98 l -1.587,2.903 -2.903,1.587 2.903,1.588 z"
             style="fill:#e0e0e0;fill-opacity:1;fill-rule:nonzero;stroke:none"
             id="path362" />
        </g>
        <g
           id="g364"
           transform="translate(69.1334,203.2419)">
          <path
             d="m 0,0 c 3.579,1.557 6.09,5.301 6.055,9.674 -0.051,5.729 -4.446,10.338 -9.819,10.293 -5.37,-0.045 -9.684,-4.726 -9.633,-10.454 0.038,-4.414 2.665,-8.137 6.322,-9.604 -14.938,-2.449 -14.048,-18.707 -14.048,-18.707 l 35.394,0.295 c 0,0 0.595,16.455 -14.271,18.503"
             style="fill:#e0e0e0;fill-opacity:1;fill-rule:nonzero;stroke:none"
             id="path366" />
        </g>
        <g
           id="g368"
           transform="translate(408.6354,96.0622)">
          <path
             d="m 0,0 c -0.501,2.547 -3.013,4.538 -5.605,4.444 -2.571,-0.092 -4.911,-2.222 -5.26,-4.767 -0.372,2.542 -2.731,4.651 -5.301,4.72 -2.595,0.071 -5.089,-1.942 -5.566,-4.493 -0.349,-1.857 0.288,-3.791 1.334,-5.365 1.045,-1.574 2.473,-2.85 3.885,-4.106 1.978,-1.76 3.805,-3.415 5.784,-5.175 1.961,1.777 3.63,3.447 5.593,5.225 1.401,1.269 2.818,2.557 3.849,4.14 C -0.256,-3.793 0.364,-1.854 0,0"
             style="fill:#ebebeb;fill-opacity:1;fill-rule:nonzero;stroke:none"
             id="path370" />
        </g>
        <g
           id="g372"
           transform="translate(431.6871,306.8498)">
          <path
             d="m 0,0 3.793,0.752 5.989,13.176 -1.501,7.571 c 0,0 5.79,1.523 7.067,-8.527 1.276,-10.051 1.522,-7.378 1.522,-7.378 0,0 12.457,2.421 13.705,1.544 0.908,-0.636 3.7,-12.933 5.161,-19.613 0.735,-3.363 -0.714,-6.913 -3.694,-8.334 -0.424,-0.202 -0.861,-0.358 -1.305,-0.445 -3.103,-0.616 -19.466,-1.238 -19.466,-1.238 l -6.552,-1.299 z"
             style="fill:#e0e0e0;fill-opacity:1;fill-rule:nonzero;stroke:none"
             id="path374" />
        </g>
        <g
           id="g376"
           transform="translate(420.4186,306.7746)">
          <path
             d="m 0,0 7.477,-25.478 6.495,1.289 -5.041,25.418 z"
             style="fill:#e0e0e0;fill-opacity:1;fill-rule:nonzero;stroke:none"
             id="path378" />
        </g>
      </g>
    </g>
    <g
       id="g410"
       clip-path="url(#clipPath414)">
      <g
         id="g416"
         transform="translate(393.4323,316.8503)"
         style="fill:#d40000">
        <path
           d="m 0,0 v 0 c -20.179,-9.814 -44.494,-1.412 -54.309,18.767 -9.814,20.179 -1.412,44.494 18.768,54.309 20.18,9.814 44.494,1.412 54.309,-18.767 C 28.582,34.129 20.18,9.814 0,0"
           style="fill:#d40000;fill-opacity:1;fill-rule:nonzero;stroke:none"
           id="path418" />
      </g>
      <g
         id="g420"
         transform="translate(365.6207,344.3063)">
        <path
           d="M 0,0 C 0.684,0.043 1.087,0.517 0.945,1.229 0.847,1.722 0.583,2.959 0.48,3.478 0.344,4.186 0.173,4.372 -0.554,4.692 -2.133,5.388 -3.521,6.61 -4.576,8.782 -7.64,15.081 -5.67,23.012 1.89,26.688 8.583,29.944 14.25,27.642 16.907,22.179 20.402,14.993 20.172,7.38 15.45,5.084 12.842,3.815 9.842,5.022 9.181,7.97 8.396,11.494 8.188,15.606 7.079,17.887 6.087,19.927 4.164,21.096 1.897,19.994 -0.769,18.697 -1.569,14.898 0.228,11.204 1.372,8.851 2.942,7.646 2.942,7.646 c 0,0 2.894,-12.886 3.4,-15.142 1.007,-4.494 4.221,-9.043 4.532,-9.508 0.186,-0.277 0.599,-0.161 0.662,0.145 0.091,0.441 1.359,5.905 0.531,10.346 -0.232,1.257 -1.577,7.703 -1.577,7.703 1.669,-1.231 4.908,-1.453 7.599,-0.144 8.014,3.897 9.897,13.846 5.141,23.623 C 19.634,32.063 10.024,35.904 0.506,31.274 -11.337,25.514 -13.18,14.119 -9.735,7.039 -7.65,2.751 -4.172,-0.273 0,0"
           style="fill:#ffffff;fill-opacity:1;fill-rule:nonzero;stroke:none"
           id="path422" />
      </g>
      <g
         id="g424"
         transform="translate(434.0123,202.2448)"
         style="fill:#00d455">
        <path
           d="M 0,0 V 0 C -14.457,5.524 -21.698,21.722 -16.174,36.179 -10.65,50.636 5.548,57.878 20.005,52.354 34.462,46.83 41.703,30.632 36.18,16.175 30.655,1.718 14.457,-5.523 0,0"
           style="fill:#00d455;fill-opacity:1;fill-rule:nonzero;stroke:none"
           id="path426" />
      </g>
      <g
         id="g428"
         transform="translate(439.9235,216.9313)">
        <path
           d="m 0,0 c -2.409,0.92 -4.374,2.488 -5.777,4.437 l -5.109,0.29 3.148,3.803 c -0.677,2.483 -0.606,5.186 0.378,7.76 0.146,0.383 0.313,0.758 0.496,1.118 2.855,5.732 9.707,8.461 15.851,6.113 6.224,-2.377 9.51,-9.117 7.67,-15.357 C 16.568,7.85 16.465,7.542 16.347,7.231 13.868,0.744 6.533,-2.497 0,0 M 18.721,6.732 C 21.419,14.369 17.509,22.821 9.84,25.752 2.263,28.646 -6.182,25.074 -9.356,17.756 -9.44,17.554 -9.525,17.352 -9.604,17.147 -10.615,14.5 -10.819,11.75 -10.346,9.148 l -5.408,-6.533 8.756,-0.501 c 1.596,-1.881 3.677,-3.402 6.145,-4.345 7.789,-2.976 16.491,0.877 19.444,8.605 0.045,0.119 0.091,0.237 0.13,0.358"
           style="fill:#ffffff;fill-opacity:1;fill-rule:evenodd;stroke:none"
           id="path430" />
      </g>
      <g
         id="g432"
         transform="translate(449.7994,223.3981)">
        <path
           d="M 0,0 C -0.285,0.305 -1.663,1.785 -1.937,2.019 -2.209,2.259 -2.42,2.399 -2.781,2.145 -3.144,1.89 -4.105,1.372 -4.39,1.224 -4.682,1.07 -4.89,1.119 -5.174,1.425 -5.452,1.728 -6.431,2.51 -7.302,4.189 -7.979,5.484 -8.25,6.874 -8.317,7.292 c -0.067,0.419 0.181,0.536 0.419,0.642 0.218,0.098 0.497,0.271 0.751,0.401 0.069,0.042 0.128,0.08 0.188,0.117 0.127,0.096 0.231,0.192 0.374,0.326 0.207,0.186 0.224,0.407 0.203,0.611 -0.019,0.205 -0.067,2.159 -0.096,2.957 -0.021,0.794 -0.357,0.786 -0.561,0.864 -0.198,0.076 -0.417,0.197 -0.648,0.285 -0.231,0.089 -0.64,0.147 -1.087,-0.075 -0.449,-0.223 -1.657,-0.714 -2.303,-2.403 -0.151,-0.396 -0.23,-0.82 -0.268,-1.237 -0.112,-1.341 0.26,-2.625 0.326,-2.847 0.086,-0.29 0.937,-4.714 3.921,-7.436 2.995,-2.71 3.169,-2.254 3.827,-2.437 0.653,-0.189 2.361,0.044 2.952,0.74 0.595,0.687 0.857,1.374 0.827,1.552 C 0.476,-0.477 0.276,-0.303 0,0"
           style="fill:#ffffff;fill-opacity:1;fill-rule:evenodd;stroke:none"
           id="path434" />
      </g>
      <g
         id="g436"
         transform="translate(69.631,331.7595)"
         style="fill:#2a7fff">
        <path
           d="m 0,0 v 0 c -11.801,0 -21.368,9.567 -21.368,21.368 0,11.802 9.567,21.369 21.368,21.369 11.802,0 21.369,-9.567 21.369,-21.369 C 21.369,9.567 11.802,0 0,0"
           style="fill:#2a7fff;fill-opacity:1;fill-rule:nonzero;stroke:none"
           id="path438" />
      </g>
      <g
         id="g440"
         transform="translate(58.2462,345.9743)">
        <path
           d="m 0,0 c 2.067,-1.326 4.523,-2.099 7.161,-2.099 8.673,0 13.573,7.326 13.278,13.897 0.913,0.658 1.705,1.48 2.331,2.418 -0.838,-0.371 -1.739,-0.623 -2.683,-0.736 0.964,0.578 1.705,1.493 2.054,2.585 -0.903,-0.535 -1.903,-0.924 -2.966,-1.134 -0.853,0.908 -2.067,1.475 -3.411,1.475 -3.015,0 -5.231,-2.814 -4.55,-5.736 C 7.331,10.865 3.889,12.725 1.585,15.551 0.361,13.451 0.951,10.704 3.031,9.314 2.265,9.338 1.544,9.549 0.915,9.898 0.864,7.734 2.415,5.71 4.661,5.258 4.004,5.079 3.284,5.039 2.553,5.179 3.146,3.322 4.872,1.973 6.916,1.934 4.952,0.395 2.478,-0.293 0,0"
           style="fill:#ffffff;fill-opacity:1;fill-rule:nonzero;stroke:none"
           id="path442" />
      </g>
      <g
         id="g444"
         transform="translate(108.0319,92.3864)"
         style="fill:#d42aff">
        <path
           d="m 0,0 v 0 c -19.773,-4.71 -39.62,7.5 -44.331,27.273 -4.71,19.773 7.5,39.621 27.273,44.331 v 0 c 19.773,4.709 39.62,-7.5 44.33,-27.273 C 31.983,24.558 19.773,4.711 0,0"
           style="fill:#d42aff;fill-opacity:1;fill-rule:nonzero;stroke:none"
           id="path446" />
      </g>
      <g
         id="g448"
         transform="translate(94.8268,147.8181)">
        <path
           d="m 0,0 c -5.332,-1.27 -5.995,-1.452 -8.066,-2.046 -2.066,-0.594 -3.414,-1.266 -4.547,-2.048 -1.172,-0.809 -2.106,-1.741 -2.938,-3.092 -0.831,-1.351 -1.241,-2.607 -1.435,-4.017 -0.188,-1.363 -0.181,-2.869 0.222,-4.982 0.404,-2.117 0.54,-2.79 1.81,-8.122 1.27,-5.331 1.452,-5.994 2.047,-8.065 0.592,-2.066 1.264,-3.414 2.047,-4.547 0.809,-1.172 1.741,-2.106 3.092,-2.938 1.351,-0.831 2.606,-1.242 4.017,-1.436 1.364,-0.187 2.87,-0.18 4.982,0.223 2.117,0.403 2.79,0.54 8.122,1.81 5.331,1.27 5.994,1.451 8.065,2.046 2.066,0.593 3.414,1.265 4.547,2.048 1.172,0.809 2.107,1.741 2.938,3.092 0.831,1.351 1.242,2.606 1.436,4.016 0.187,1.365 0.18,2.871 -0.223,4.983 -0.403,2.116 -0.54,2.79 -1.81,8.121 -1.27,5.332 -1.452,5.995 -2.046,8.066 -0.593,2.067 -1.265,3.414 -2.048,4.547 C 19.403,-1.17 18.471,-0.234 17.12,0.597 15.769,1.428 14.514,1.839 13.104,2.032 11.739,2.22 10.233,2.213 8.121,1.811 6.004,1.406 5.331,1.271 0,0 m 0.842,-3.536 c 5.242,1.248 5.867,1.376 7.96,1.774 1.934,0.369 3.05,0.297 3.806,0.193 1.001,-0.138 1.756,-0.408 2.607,-0.931 0.85,-0.523 1.431,-1.075 2.006,-1.906 0.433,-0.629 1,-1.592 1.544,-3.486 0.588,-2.046 0.756,-2.663 2.005,-7.904 1.248,-5.241 1.376,-5.867 1.774,-7.96 0.369,-1.934 0.297,-3.05 0.193,-3.806 -0.138,-1.001 -0.407,-1.755 -0.931,-2.607 -0.523,-0.851 -1.076,-1.432 -1.907,-2.006 -0.628,-0.433 -1.591,-1.001 -3.484,-1.545 -2.047,-0.587 -2.663,-0.754 -7.905,-2.003 -5.242,-1.249 -5.867,-1.377 -7.959,-1.776 -1.935,-0.368 -3.051,-0.296 -3.806,-0.191 -1.002,0.137 -1.757,0.407 -2.608,0.93 -0.85,0.524 -1.431,1.075 -2.006,1.907 -0.433,0.628 -1.001,1.591 -1.544,3.484 -0.587,2.048 -0.755,2.664 -2.004,7.905 -1.249,5.241 -1.376,5.867 -1.775,7.959 -0.369,1.936 -0.296,3.051 -0.193,3.807 0.138,1.001 0.408,1.757 0.931,2.606 0.523,0.852 1.076,1.433 1.908,2.007 0.627,0.434 1.59,1.001 3.484,1.544 2.046,0.588 2.663,0.756 7.904,2.005"
           style="fill:#ffffff;fill-opacity:1;fill-rule:nonzero;stroke:none"
           id="path450" />
      </g>
      <g
         id="g452"
         transform="translate(101.0617,121.6442)">
        <path
           d="m 0,0 c -3.614,-0.86 -7.241,1.372 -8.102,4.985 -0.861,3.614 1.371,7.242 4.985,8.102 3.613,0.861 7.241,-1.37 8.101,-4.984 C 5.845,4.489 3.614,0.861 0,0 M -3.96,16.624 C -9.527,15.298 -12.965,9.71 -11.639,4.143 -10.313,-1.425 -4.724,-4.862 0.843,-3.536 6.41,-2.21 9.848,3.378 8.521,8.945 7.195,14.513 1.607,17.95 -3.96,16.624"
           style="fill:#ffffff;fill-opacity:1;fill-rule:nonzero;stroke:none"
           id="path454" />
      </g>
      <g
         id="g456"
         transform="translate(109.841,141.7243)">
        <path
           d="m 0,0 c 0.31,-1.301 -0.494,-2.607 -1.794,-2.917 -1.302,-0.31 -2.608,0.494 -2.917,1.795 -0.31,1.301 0.493,2.606 1.794,2.917 C -1.616,2.104 -0.31,1.301 0,0"
           style="fill:#ffffff;fill-opacity:1;fill-rule:nonzero;stroke:none"
           id="path458" />
      </g>
      <g
         id="g460"
         transform="translate(386.8073,124.778)"
         style="fill:#0044aa">
        <path
           d="m 0,0 v 0 c -9.479,0 -17.164,7.685 -17.164,17.164 0,9.479 7.685,17.163 17.164,17.163 9.479,0 17.163,-7.684 17.163,-17.163 C 17.163,7.685 9.479,0 0,0"
           style="fill:#0044aa;fill-opacity:1;fill-rule:nonzero;stroke:none"
           id="path462" />
      </g>
      <g
         id="g464"
         transform="translate(384.191,131.5671)">
        <path
           d="m 0,0 h 4.179 v 10.463 h 2.915 l 0.31,3.503 H 4.179 v 1.995 c 0,0.826 0.166,1.152 0.964,1.152 h 2.261 v 3.636 H 4.511 C 1.402,20.749 0,19.38 0,16.759 V 13.966 H -2.173 V 10.419 H 0 Z"
           style="fill:#ffffff;fill-opacity:1;fill-rule:nonzero;stroke:none"
           id="path466" />
      </g>
    </g>
    <g
       id="g468">
      <g
         id="g470"
         clip-path="url(#clipPath474)">
        <g
           id="g476"
           transform="translate(328.2701,29.9538)">
          <path
             d="m 0,0 -137.887,0.082 c -16.583,0.008 -30.021,13.457 -30.018,30.041 l 0.068,345.685 c 0.003,16.593 13.46,30.04 30.053,30.031 L 0.104,405.758 c 16.583,-0.01 30.021,-13.459 30.017,-30.042 L 30.054,30.029 C 30.051,13.437 16.594,-0.011 0,0"
             style="fill:#263238;fill-opacity:1;fill-rule:nonzero;stroke:none"
             id="path478" />
        </g>
        <g
           id="g480"
           transform="translate(328.2272,423.4846)">
          <path
             d="m 0,0 -26.733,0.016 c -3.585,0.002 -6.494,-3.036 -6.494,-6.783 l -0.002,-4.849 c 10e-4,-3.748 -2.907,-6.785 -6.492,-6.782 l -52.11,0.03 c -3.585,0.002 -6.491,3.042 -6.49,6.79 l 0.001,4.849 c 10e-4,3.749 -2.906,6.789 -6.491,6.791 l -9.402,0.005 -23.399,0.014 c -11.62,0.006 -21.045,-9.411 -21.047,-21.032 l -0.066,-337.414 c -0.003,-11.615 9.409,-21.033 21.023,-21.041 l 137.611,-0.08 c 11.62,-0.007 21.045,9.41 21.048,21.031 L 21.023,-21.04 C 21.025,-9.425 11.614,-0.007 0,0"
             style="fill:#ffffff;fill-opacity:1;fill-rule:nonzero;stroke:none"
             id="path482" />
        </g>
        <g
           id="g484"
           transform="translate(330.2408,396.0734)">
          <path
             d="m 0,0 c 0,-0.091 -3.477,-0.193 -7.765,-0.228 -4.289,-0.036 -7.766,0.009 -7.767,0.1 0,0.09 3.475,0.192 7.764,0.228 C -3.479,0.135 -0.001,0.09 0,0"
             style="fill:#263238;fill-opacity:1;fill-rule:nonzero;stroke:none"
             id="path486" />
        </g>
        <g
           id="g488"
           transform="translate(330.2731,392.0993)">
          <path
             d="m 0,0 c 0.001,-0.09 -3.476,-0.192 -7.764,-0.228 -4.29,-0.035 -7.766,0.009 -7.767,0.1 -10e-4,0.09 3.474,0.192 7.764,0.228 C -3.479,0.135 -0.001,0.091 0,0"
             style="fill:#263238;fill-opacity:1;fill-rule:nonzero;stroke:none"
             id="path490" />
        </g>
        <g
           id="g492"
           transform="translate(330.3063,388.1257)">
          <path
             d="m 0,0 c 0.001,-0.09 -3.476,-0.192 -7.765,-0.228 -4.289,-0.036 -7.766,0.009 -7.766,0.1 -10e-4,0.09 3.474,0.192 7.764,0.228 C -3.479,0.135 -0.001,0.09 0,0"
             style="fill:#263238;fill-opacity:1;fill-rule:nonzero;stroke:none"
             id="path494" />
        </g>
        <g
           id="g496"
           transform="translate(184.0192,384.2497)">
          <path
             d="M 0,0 C 0.008,0.008 0.147,0.017 0.407,0.027 0.728,0.038 1.1,0.05 1.539,0.065 2.607,0.09 4.004,0.124 5.718,0.164 L 5.603,0.047 C 5.588,0.973 5.571,1.985 5.554,3.077 5.56,3.641 5.505,4.171 5.56,4.822 5.673,5.471 6.251,6.043 6.962,6.11 7.636,6.124 8.229,6.154 8.959,6.12 9.712,6.028 10.353,5.304 10.33,4.506 10.346,3.093 10.363,1.617 10.38,0.086 l -0.194,0.191 c 1.693,0.017 3.456,0.035 5.272,0.053 l -0.2,-0.204 c -0.019,2.124 -0.039,4.32 -0.059,6.57 -0.005,0.561 -0.009,1.118 -0.014,1.673 -0.002,0.515 -0.316,0.86 -0.741,1.245 -0.78,0.769 -1.549,1.527 -2.305,2.272 -0.755,0.745 -1.497,1.477 -2.223,2.194 -0.363,0.358 -0.723,0.713 -1.078,1.065 -0.37,0.356 -0.661,0.725 -1.09,0.813 C 7.332,16.07 6.873,15.982 6.538,15.727 6.219,15.458 5.878,15.075 5.557,14.762 4.908,14.107 4.276,13.471 3.665,12.854 2.475,11.618 1.236,10.489 0.334,9.421 -0.045,8.832 0.097,8.111 0.069,7.454 0.068,6.801 0.066,6.181 0.065,5.596 0.059,4.458 0.052,3.459 0.047,2.604 0.038,1.839 0.031,1.208 0.025,0.69 0.018,0.248 0.01,0.01 0,0 -0.01,-0.01 -0.021,0.208 -0.036,0.634 -0.05,1.144 -0.068,1.766 -0.089,2.518 -0.108,3.38 -0.131,4.387 -0.157,5.535 -0.168,6.131 -0.18,6.763 -0.192,7.429 c -0.005,0.337 -0.011,0.683 -0.016,1.036 -0.003,0.375 0.093,0.761 0.291,1.104 0.975,1.195 2.139,2.253 3.338,3.525 0.607,0.621 1.233,1.263 1.877,1.923 0.338,0.332 0.615,0.662 1.017,1.008 0.422,0.324 1.001,0.441 1.529,0.301 0.561,-0.123 0.926,-0.583 1.266,-0.905 0.357,-0.35 0.718,-0.703 1.082,-1.06 0.729,-0.715 1.474,-1.444 2.23,-2.187 0.758,-0.743 1.528,-1.499 2.31,-2.267 0.185,-0.196 0.408,-0.362 0.589,-0.637 0.17,-0.263 0.268,-0.574 0.276,-0.89 0.005,-0.556 0.01,-1.117 0.015,-1.681 0.017,-2.25 0.034,-4.446 0.05,-6.569 l 0.002,-0.203 -0.203,-0.001 C 13.645,-0.086 11.882,-0.097 10.189,-0.108 L 9.996,-0.109 9.995,0.083 C 9.987,1.614 9.979,3.09 9.972,4.503 9.994,5.14 9.499,5.702 8.907,5.783 8.3,5.815 7.585,5.794 6.995,5.789 6.428,5.742 5.955,5.287 5.858,4.764 5.807,4.234 5.846,3.616 5.835,3.08 5.835,1.987 5.836,0.975 5.836,0.049 V -0.07 L 5.72,-0.069 C 3.977,-0.057 2.557,-0.047 1.471,-0.04 1.042,-0.032 0.678,-0.026 0.365,-0.021 0.117,-0.014 -0.007,-0.007 0,0"
             style="fill:#263238;fill-opacity:1;fill-rule:nonzero;stroke:none"
             id="path498" />
        </g>
        <g
           id="g500"
           transform="translate(274.9791,120.5934)">
          <path
             d="m 0,0 c 0,-0.036 -0.514,-0.07 -1.444,-0.102 -1.029,-0.021 -2.352,-0.048 -3.941,-0.082 -3.326,-0.047 -7.922,-0.076 -12.998,-0.076 -5.077,0 -9.674,0.029 -13.001,0.076 -1.588,0.034 -2.911,0.061 -3.939,0.082 -0.93,0.032 -1.445,0.066 -1.445,0.102 0,0.036 0.515,0.07 1.445,0.102 1.028,0.021 2.351,0.049 3.939,0.083 3.327,0.046 7.924,0.076 13.001,0.076 5.076,0 9.672,-0.03 12.998,-0.076 C -3.796,0.151 -2.473,0.123 -1.444,0.102 -0.514,0.07 0,0.036 0,0"
             style="fill:#455a64;fill-opacity:1;fill-rule:nonzero;stroke:none"
             id="path502" />
        </g>
        <g
           id="g504"
           transform="translate(332.7711,111.5485)">
          <path
             d="m 0,0 c 0,-0.145 -21.17,-0.261 -47.277,-0.261 -26.118,0 -47.283,0.116 -47.283,0.261 0,0.144 21.165,0.26 47.283,0.26 C -21.17,0.26 0,0.144 0,0"
             style="fill:#455a64;fill-opacity:1;fill-rule:nonzero;stroke:none"
             id="path506" />
        </g>
        <g
           id="g508"
           transform="translate(303.2213,103.0388)">
          <path
             d="m 0,0 c 0,-0.145 -14.555,-0.261 -32.504,-0.261 -17.955,0 -32.506,0.116 -32.506,0.261 0,0.144 14.551,0.26 32.506,0.26 C -14.555,0.26 0,0.144 0,0"
             style="fill:#455a64;fill-opacity:1;fill-rule:nonzero;stroke:none"
             id="path510" />
        </g>
        <g
           id="g512"
           transform="translate(331.7028,89.7878)">
          <path
             d="M 0,0 0.092,-0.092 2.679,-2.687 2.69,5.01 -2.525,5.019 -2.537,-2.531 Z M 2.938,-3.313 0,-0.367 -2.798,-3.156 -2.785,5.278 2.95,5.27 Z"
             style="fill:#263238;fill-opacity:1;fill-rule:nonzero;stroke:none"
             id="path514" />
        </g>
        <g
           id="g516"
           transform="translate(253.985,93.1872)">
          <path
             d="m 0,0 c -1.479,-0.012 -2.673,-1.225 -2.662,-2.704 0.013,-1.479 1.225,-2.673 2.705,-2.661 0.38,0.004 0.802,0.136 1.292,0.407 l 0.043,0.024 0.764,-0.34 -0.173,0.751 0.034,0.038 c 0.457,0.502 0.706,1.15 0.7,1.824 C 2.691,-1.182 1.479,0.012 0,0 M 2.424,-5.616 1.387,-5.153 C 0.886,-5.425 0.446,-5.559 0.044,-5.562 c -1.588,-0.013 -2.89,1.269 -2.902,2.856 -0.013,1.588 1.268,2.891 2.856,2.903 C 1.586,0.21 2.888,-1.072 2.9,-2.659 2.906,-3.366 2.652,-4.046 2.184,-4.579 Z"
             style="fill:#263238;fill-opacity:1;fill-rule:nonzero;stroke:none"
             id="path518" />
        </g>
        <g
           id="g520"
           transform="translate(260.1617,92.7536)">
          <path
             d="M 0,0 1.897,-1.742 2.91,-4.212 4.608,0.037 Z M 2.912,-4.737 1.724,-1.838 -0.505,0.193 4.9,0.236 Z"
             style="fill:#263238;fill-opacity:1;fill-rule:nonzero;stroke:none"
             id="path522" />
        </g>
        <g
           id="g524"
           transform="translate(262.1139,90.9079)">
          <path
             d="M 0,0 -0.107,0.166 2.84,2.082 2.948,1.917 Z"
             style="fill:#263238;fill-opacity:1;fill-rule:nonzero;stroke:none"
             id="path526" />
        </g>
        <g
           id="g528"
           transform="translate(247.9035,92.3405)">
          <path
             d="m 0,0 c -0.155,0.772 -0.919,1.374 -1.706,1.343 -0.779,-0.031 -1.487,-0.68 -1.59,-1.452 -0.116,0.77 -0.834,1.408 -1.614,1.426 -0.787,0.019 -1.542,-0.595 -1.684,-1.37 -0.104,-0.563 0.092,-1.149 0.41,-1.626 0.32,-0.476 0.754,-0.862 1.184,-1.242 0.602,-0.532 1.158,-1.032 1.761,-1.563 0.593,0.541 1.097,1.049 1.691,1.591 0.423,0.386 0.852,0.779 1.163,1.26 C -0.073,-1.151 0.113,-0.562 0,0"
             style="fill:#e8505b;fill-opacity:1;fill-rule:nonzero;stroke:none"
             id="path530" />
        </g>
        <g
           id="g532"
           transform="translate(340.6617,79.0124)">
          <path
             d="M 0,0 C 0,0 -0.012,0.323 -0.018,0.94 -0.021,1.567 -0.027,2.479 -0.036,3.677 -0.045,6.09 -0.06,9.639 -0.078,14.235 -0.1,23.426 -0.132,36.797 -0.172,53.569 L 0,53.397 c -38.477,-0.021 -95.909,-0.052 -159.916,-0.088 h -0.01 l 0.26,0.26 C -159.669,34.952 -159.672,16.894 -159.675,0 l -0.251,0.252 C -113.891,0.205 -73.944,0.164 -45.493,0.135 -31.257,0.104 -19.899,0.081 -12.087,0.064 -8.187,0.05 -5.174,0.039 -3.123,0.032 -2.107,0.024 -1.333,0.02 -0.8,0.016 -0.275,0.011 0,0 0,0 0,0 -0.254,-0.011 -0.768,-0.016 -1.295,-0.02 -2.06,-0.024 -3.062,-0.032 -5.1,-0.039 -8.095,-0.05 -11.972,-0.064 c -7.799,-0.017 -19.136,-0.041 -33.348,-0.071 -28.494,-0.029 -68.501,-0.07 -114.606,-0.117 h -0.253 V 0 c -0.002,16.894 -0.005,34.952 -0.008,53.569 v 0.261 h 0.261 0.01 C -95.909,53.794 -38.477,53.763 0,53.741 H 0.172 V 53.569 C 0.132,36.753 0.1,23.347 0.078,14.132 0.06,9.552 0.045,6.017 0.035,3.612 0.027,2.429 0.021,1.526 0.018,0.906 0.012,0.301 0,0 0,0"
             style="fill:#263238;fill-opacity:1;fill-rule:nonzero;stroke:none"
             id="path534" />
        </g>
        <g
           id="g536"
           transform="translate(231.6852,123.3796)">
          <path
             d="m 0,0 -0.201,-35.416 -44.299,0.252 0.201,35.415 z"
             style="fill:#ebebeb;fill-opacity:1;fill-rule:nonzero;stroke:none"
             id="path538" />
        </g>
        <g
           id="g540"
           transform="translate(231.6852,123.3796)">
          <path
             d="M 0,0 C -0.005,-0.005 -0.08,-0.009 -0.222,-0.013 -0.385,-0.015 -0.59,-0.019 -0.85,-0.022 -1.425,-0.025 -2.232,-0.03 -3.269,-0.036 -5.399,-0.039 -8.47,-0.042 -12.352,-0.047 -20.143,-0.03 -31.184,-0.008 -44.3,0.019 l 0.234,0.231 c -0.052,-10.545 -0.111,-22.626 -0.174,-35.412 0.054,-0.063 -0.486,0.492 -0.251,0.258 h 0.012 0.024 0.048 l 0.096,-10e-4 0.192,-10e-4 0.384,-0.002 0.767,-0.005 1.527,-0.009 c 1.016,-0.006 2.026,-0.012 3.032,-0.017 2.012,-0.012 4.002,-0.025 5.969,-0.037 3.933,-0.025 7.771,-0.049 11.493,-0.074 7.441,-0.054 14.415,-0.104 20.747,-0.149 l -0.218,-0.216 c 0.107,10.635 0.196,19.457 0.258,25.651 0.041,3.08 0.074,5.506 0.097,7.191 0.015,0.813 0.027,1.447 0.035,1.904 C -0.017,-0.235 0,0 0,0 0,0 0.015,-0.204 0.02,-0.623 0.023,-1.07 0.028,-1.69 0.034,-2.486 0.038,-4.16 0.043,-6.569 0.049,-9.629 0.041,-15.856 0.029,-24.726 0.015,-35.417 v -0.217 l -0.218,10e-4 c -6.331,0.027 -13.305,0.055 -20.747,0.086 -3.721,0.019 -7.56,0.037 -11.493,0.057 -1.967,0.011 -3.958,0.02 -5.969,0.031 -1.005,0.006 -2.017,0.012 -3.032,0.017 l -1.527,0.008 -0.767,0.005 -0.384,0.002 -0.191,10e-4 h -0.097 l -0.048,0.001 h -0.024 -0.012 c 0.228,-0.233 -0.325,0.317 -0.267,0.266 0.083,12.786 0.161,24.867 0.229,35.412 l 10e-4,0.233 0.233,-0.002 C -31.12,0.361 -20.027,0.259 -12.199,0.186 -8.34,0.137 -5.287,0.099 -3.169,0.072 -2.153,0.055 -1.361,0.041 -0.797,0.031 -0.548,0.024 -0.351,0.019 -0.195,0.015 -0.062,0.009 0.004,0.004 0,0"
             style="fill:#263238;fill-opacity:1;fill-rule:nonzero;stroke:none"
             id="path542" />
        </g>
        <g
           id="g544"
           transform="translate(188.7247,90.4362)">
          <path
             d="M 0,0 41.187,-0.234 41.362,30.723 0.176,30.957 Z"
             style="fill:#e0e0e0;fill-opacity:1;fill-rule:nonzero;stroke:none"
             id="path546" />
        </g>
        <g
           id="g548"
           transform="translate(188.7247,90.4362)">
          <path
             d="M 0,0 14.495,19.16 23.337,7.071 29.418,13.473 41.187,-0.234 Z"
             style="fill:#f5f5f5;fill-opacity:1;fill-rule:nonzero;stroke:none"
             id="path550" />
        </g>
        <g
           id="g552"
           transform="translate(215.9269,111.8815)">
          <path
             d="m 0,0 c -0.01,-1.791 -1.471,-3.234 -3.262,-3.225 -1.791,0.011 -3.234,1.471 -3.224,3.262 0.01,1.791 1.47,3.234 3.261,3.225 C -1.434,3.251 0.01,1.791 0,0"
             style="fill:#f5f5f5;fill-opacity:1;fill-rule:nonzero;stroke:none"
             id="path554" />
        </g>
        <g
           id="g556"
           transform="translate(262.0875,353.1276)">
          <path
             d="m 0,0 c 0,-0.018 -0.163,-0.036 -0.474,-0.052 -0.371,-0.014 -0.818,-0.03 -1.356,-0.049 -1.261,-0.021 -2.945,-0.049 -4.988,-0.083 -4.214,-0.047 -10.034,-0.076 -16.461,-0.076 -6.43,0 -12.25,0.029 -16.463,0.076 -2.043,0.034 -3.727,0.062 -4.989,0.083 -0.538,0.019 -0.985,0.035 -1.356,0.049 -0.31,0.016 -0.473,0.034 -0.473,0.052 0,0.018 0.163,0.036 0.473,0.053 0.371,0.013 0.818,0.029 1.356,0.049 1.261,0.021 2.946,0.048 4.989,0.082 4.213,0.047 10.033,0.076 16.463,0.076 6.427,0 12.247,-0.029 16.461,-0.076 C -4.775,0.15 -3.091,0.123 -1.83,0.102 -1.292,0.082 -0.844,0.066 -0.474,0.053 -0.163,0.036 0,0.018 0,0"
             style="fill:#263238;fill-opacity:1;fill-rule:nonzero;stroke:none"
             id="path558" />
        </g>
        <g
           id="g560"
           transform="translate(323.1676,162.2712)">
          <path
             d="M 0,0 0.137,-0.136 3.98,-3.992 3.998,7.446 -3.754,7.458 -3.771,-3.761 Z M 4.364,-4.924 -0.001,-0.545 -4.158,-4.69 -4.139,7.845 4.384,7.831 Z"
             style="fill:#263238;fill-opacity:1;fill-rule:nonzero;stroke:none"
             id="path562" />
        </g>
        <g
           id="g564"
           transform="translate(211.9035,169.7194)">
          <path
             d="m 0,0 c -2.912,-0.022 -5.262,-2.41 -5.238,-5.321 0.023,-2.912 2.411,-5.261 5.322,-5.239 0.748,0.007 1.58,0.27 2.543,0.802 l 0.085,0.048 1.504,-0.672 -0.341,1.479 0.069,0.075 C 4.843,-7.84 5.333,-6.563 5.322,-5.237 5.299,-2.325 2.911,0.023 0,0 m 4.771,-11.054 -2.041,0.91 c -0.986,-0.534 -1.852,-0.796 -2.642,-0.803 -3.126,-0.026 -5.689,2.497 -5.714,5.622 -0.025,3.125 2.497,5.688 5.623,5.714 3.125,0.025 5.688,-2.497 5.713,-5.622 0.011,-1.393 -0.489,-2.73 -1.411,-3.781 z"
             style="fill:#263238;fill-opacity:1;fill-rule:nonzero;stroke:none"
             id="path566" />
        </g>
        <g
           id="g568"
           transform="translate(224.0617,168.8669)">
          <path
             d="M 0,0 3.736,-3.429 5.728,-8.291 9.071,0.072 Z M 5.732,-9.325 3.394,-3.617 -0.993,0.38 9.646,0.466 Z"
             style="fill:#263238;fill-opacity:1;fill-rule:nonzero;stroke:none"
             id="path570" />
        </g>
        <g
           id="g572"
           transform="translate(227.9054,165.2341)">
          <path
             d="M 0,0 -0.212,0.326 5.59,4.099 5.802,3.772 Z"
             style="fill:#263238;fill-opacity:1;fill-rule:nonzero;stroke:none"
             id="path574" />
        </g>
        <g
           id="g576"
           transform="translate(199.9332,168.0544)"
           style="fill:#ff0000">
          <path
             d="M 0,0 C -0.305,1.521 -1.809,2.704 -3.358,2.643 -4.893,2.582 -6.286,1.305 -6.489,-0.217 -6.716,1.301 -8.13,2.556 -9.666,2.592 -11.215,2.628 -12.7,1.421 -12.98,-0.104 c -0.205,-1.11 0.18,-2.264 0.808,-3.202 0.628,-0.938 1.484,-1.696 2.33,-2.444 1.185,-1.047 2.28,-2.031 3.465,-3.078 1.168,1.065 2.162,2.067 3.33,3.133 0.834,0.76 1.677,1.533 2.29,2.481 C -0.145,-2.266 0.222,-1.106 0,0"
             style="fill:#ff0000;fill-opacity:1;fill-rule:nonzero;stroke:none"
             id="path578" />
        </g>
        <g
           id="g580"
           transform="translate(206.1798,353.1276)">
          <path
             d="m 0,0 c 0,-3.985 -3.231,-7.216 -7.216,-7.216 -3.986,0 -7.217,3.231 -7.217,7.216 0,3.985 3.231,7.216 7.217,7.216 C -3.231,7.216 0,3.985 0,0"
             style="fill:#ebebeb;fill-opacity:1;fill-rule:nonzero;stroke:none"
             id="path582" />
        </g>
        <g
           id="g584"
           transform="translate(324.8073,198.7448)">
          <path
             d="m 0,0 c 0,-0.144 -30.261,-0.26 -67.579,-0.26 -37.332,0 -67.586,0.116 -67.586,0.26 0,0.145 30.254,0.261 67.586,0.261 C -30.261,0.261 0,0.145 0,0"
             style="fill:#455a64;fill-opacity:1;fill-rule:nonzero;stroke:none"
             id="path586" />
        </g>
        <g
           id="g588"
           transform="translate(324.8073,210.0007)">
          <path
             d="m 0,0 c 0,-0.144 -30.261,-0.261 -67.579,-0.261 -37.332,0 -67.586,0.117 -67.586,0.261 0,0.144 30.254,0.261 67.586,0.261 C -30.261,0.261 0,0.144 0,0"
             style="fill:#455a64;fill-opacity:1;fill-rule:nonzero;stroke:none"
             id="path590" />
        </g>
        <g
           id="g592"
           transform="translate(263.2135,187.3395)">
          <path
             d="m 0,0 c 0,-0.144 -16.47,-0.261 -36.783,-0.261 -20.321,0 -36.788,0.117 -36.788,0.261 0,0.144 16.467,0.261 36.788,0.261 C -16.47,0.261 0,0.144 0,0"
             style="fill:#455a64;fill-opacity:1;fill-rule:nonzero;stroke:none"
             id="path594" />
        </g>
        <g
           id="g596"
           transform="translate(254.1354,64.7097)">
          <path
             d="m 0,0 c -0.007,-1.608 -1.299,-2.906 -2.884,-2.899 -1.586,0.007 -2.866,1.318 -2.859,2.926 0.007,1.609 1.298,2.909 2.884,2.901 C -1.273,2.921 0.006,1.61 0,0"
             style="fill:#263238;fill-opacity:1;fill-rule:nonzero;stroke:none"
             id="path598" />
        </g>
        <g
           id="g600"
           transform="translate(263.0338,64.6696)">
          <path
             d="m 0,0 c -0.008,-1.608 -1.299,-2.907 -2.884,-2.9 -1.586,0.006 -2.866,1.317 -2.859,2.926 0.006,1.609 1.298,2.908 2.884,2.901 C -1.273,2.92 0.006,1.609 0,0"
             style="fill:#263238;fill-opacity:1;fill-rule:nonzero;stroke:none"
             id="path602" />
        </g>
        <g
           id="g604"
           transform="translate(271.9313,64.6286)">
          <path
             d="m 0,0 c -0.007,-1.608 -1.298,-2.908 -2.884,-2.899 -1.586,0.005 -2.866,1.316 -2.859,2.926 0.007,1.609 1.298,2.907 2.884,2.9 C -1.273,2.92 0.007,1.609 0,0"
             style="fill:#263238;fill-opacity:1;fill-rule:nonzero;stroke:none"
             id="path606" />
        </g>
        <g
           id="g608"
           transform="translate(181.7077,241.0192)">
          <path
             d="M 0,0 159.928,0.047 159.898,97.85 -0.028,97.804 Z"
             style="fill:#e0e0e0;fill-opacity:1;fill-rule:nonzero;stroke:none"
             id="path610" />
        </g>
        <g
           id="g612"
           transform="translate(196.4572,241.0251)">
          <path
             d="M 0,0 45.828,61.337 74.239,22.979 93.495,43.495 131.26,0.038 Z"
             style="fill:#f5f5f5;fill-opacity:1;fill-rule:nonzero;stroke:none"
             id="path614" />
        </g>
        <g
           id="g616"
           transform="translate(282.7379,309.8869)">
          <path
             d="m 0,0 c 0.001,-5.708 -4.624,-10.336 -10.332,-10.338 -5.709,-0.002 -10.337,4.624 -10.339,10.332 -0.001,5.708 4.624,10.337 10.332,10.338 C -4.63,10.333 -0.002,5.708 0,0"
             style="fill:#f5f5f5;fill-opacity:1;fill-rule:nonzero;stroke:none"
             id="path618" />
        </g>
        <g
           id="g620"
           transform="translate(341.1901,150.1472)">
          <path
             d="M 0,0 C -0.002,2.092 -0.097,90.444 -0.236,221.239 L 0,221.003 c -48.228,-0.007 -102.592,-0.015 -159.908,-0.024 h -0.018 l 0.26,0.26 C -159.684,138.501 -159.701,61.929 -159.715,0 l -0.211,0.211 C -62.944,0.083 -1.745,0.002 0,0 -1.744,-0.003 -62.944,-0.084 -159.926,-0.212 l -0.212,-0.001 V 0 c -0.014,61.929 -0.031,138.501 -0.049,221.239 v 0.261 h 0.261 0.018 c 57.316,-0.009 111.68,-0.017 159.908,-0.024 h 0.236 v -0.237 C 0.188,155.778 0.147,100.444 0.119,61.468 0.092,42.007 0.07,26.632 0.056,16.115 0.044,10.871 0.034,6.839 0.027,4.111 0.021,2.759 0.017,1.73 0.014,1.032 0.009,0.344 0,0 0,0"
             style="fill:#263238;fill-opacity:1;fill-rule:nonzero;stroke:none"
             id="path622" />
        </g>
      </g>
    </g>
    <g
       id="g624">
      <g
         id="g626"
         clip-path="url(#clipPath630)">
        <g
           id="g632"
           transform="translate(266.0436,122.7028)">
          <path
             d="m 0,0 3.537,11.888 c 0.618,2.578 1.438,5.618 2.541,9.089 0.991,3.119 3.535,6.395 5.856,8.755 3.611,3.673 5.329,3.698 7.756,5.647 0.221,0.142 0.468,0.345 0.676,0.457 0.503,0.272 0.871,0.633 1.181,1.021 2.092,2.263 0.083,5.765 -4.166,5.432 C 14.183,42.038 8.967,41.123 0.485,32.373 0.38,32.24 0.269,32.129 0.164,31.993 c -4.451,-5.786 -8.632,10.732 -9.386,16.88 -0.489,3.989 -4.804,6.441 -8.708,4.998 l -20.661,-9.664 c -1.706,0.601 -3.732,0.5 -6.032,-0.204 -3.042,-1.125 -4.731,-4.253 -3.936,-7.288 l 8.38,-33.452 -24.612,-81.893 h 53.048 z"
             style="fill:#ffbe9d;fill-opacity:1;fill-rule:nonzero;stroke:none"
             id="path634" />
        </g>
        <g
           id="g636"
           transform="translate(306.7955,197.9157)">
          <path
             d="m 0,0 -16.398,-32.133 -8.199,2.278 -41.215,-33.526 c -3.508,-2.853 -8.649,-2.396 -11.598,1.03 l -15.692,18.236 c 0,0 31.642,13.63 37.494,24.913 5.851,11.283 -0.911,13.842 -0.911,13.842 l 14.892,16.923 z"
             style="fill:#e8505b;fill-opacity:1;fill-rule:nonzero;stroke:none"
             id="path638" />
        </g>
        <g
           id="g640"
           transform="translate(285.527,263.5568)">
          <path
             d="m 0,0 c 0,0 -24.004,5.309 -57.783,37.792 -33.778,32.482 -49.651,75.617 -53.785,75.407 -4.135,-0.21 -22.188,8.172 -56.524,-66.52 -34.337,-74.691 -20.811,-92.035 -13.979,-91.896 6.833,0.14 53.227,13.069 82.205,9.775 28.977,-3.294 66.225,-18.396 66.225,-18.396 z"
             style="fill:#e8505b;fill-opacity:1;fill-rule:nonzero;stroke:none"
             id="path642" />
        </g>
        <g
           id="g644"
           transform="translate(336.5201,222.8454)">
          <path
             d="m 0,0 -8.189,-15.57 -3.669,-6.975 c -5.031,-9.567 -16.67,-13.521 -26.489,-8.998 L -89.795,-13.617 -59.832,54.787 -8.43,27.394 C 1.437,22.135 5.204,9.896 0,0"
             style="fill:#e8505b;fill-opacity:1;fill-rule:nonzero;stroke:none"
             id="path646" />
        </g>
        <g
           id="g648">
          <g
             id="g650" />
          <g
             id="g662">
            <g
               clip-path="url(#clipPath654)"
               opacity="0.399994"
               id="g660">
              <g
                 transform="translate(336.5201,222.8454)"
                 id="g658">
                <path
                   d="m 0,0 -8.189,-15.57 -3.669,-6.975 c -5.031,-9.567 -16.67,-13.521 -26.489,-8.998 L -89.795,-13.617 -59.832,54.787 -8.43,27.394 C 1.437,22.135 5.204,9.896 0,0"
                   style="fill:#000000;fill-opacity:1;fill-rule:nonzero;stroke:none"
                   id="path656" />
              </g>
            </g>
          </g>
        </g>
        <g
           id="g664"
           transform="translate(120.2096,308.8762)">
          <path
             d="M 0,0 C -18.274,-40.46 -25.881,-76.515 -16.99,-80.531 -8.101,-84.546 13.92,-55 32.194,-14.54 50.467,25.92 58.074,61.975 49.185,65.99 40.294,70.005 18.274,40.461 0,0"
             style="fill:#e8505b;fill-opacity:1;fill-rule:nonzero;stroke:none"
             id="path666" />
        </g>
        <g
           id="g668">
          <g
             id="g670" />
          <g
             id="g682">
            <g
               clip-path="url(#clipPath674)"
               opacity="0.5"
               id="g680">
              <g
                 transform="translate(120.2096,308.8762)"
                 id="g678">
                <path
                   d="M 0,0 C -18.274,-40.46 -25.881,-76.515 -16.99,-80.531 -8.101,-84.546 13.92,-55 32.194,-14.54 50.467,25.92 58.074,61.975 49.185,65.99 40.294,70.005 18.274,40.461 0,0"
                   style="fill:#000000;fill-opacity:1;fill-rule:nonzero;stroke:none"
                   id="path676" />
              </g>
            </g>
          </g>
        </g>
        <g
           id="g684"
           transform="translate(340.9352,200.3474)">
          <path
             d="M 0,0 -13.944,4.38 -5.315,20.788 5.144,14.286 Z"
             style="fill:#e8505b;fill-opacity:1;fill-rule:nonzero;stroke:none"
             id="path686" />
        </g>
        <g
           id="g688">
          <g
             id="g690" />
          <g
             id="g702">
            <g
               clip-path="url(#clipPath694)"
               opacity="0.600006"
               id="g700">
              <g
                 transform="translate(335.6198,221.1354)"
                 id="g698">
                <path
                   d="m 0,0 -8.629,-16.408 2.865,-0.901 7.016,16.531 z"
                   style="fill:#000000;fill-opacity:1;fill-rule:nonzero;stroke:none"
                   id="path696" />
              </g>
            </g>
          </g>
        </g>
        <g
           id="g704"
           transform="translate(326.0114,217.3503)">
          <path
             d="m 0,0 c -0.204,-0.451 -7.164,2.254 -15.543,6.042 -8.385,3.788 -15.012,7.225 -14.808,7.675 0.204,0.45 7.162,-2.255 15.545,-6.043 C -6.425,3.886 0.203,0.45 0,0"
             style="fill:#e8505b;fill-opacity:1;fill-rule:nonzero;stroke:none"
             id="path706" />
        </g>
        <g
           id="g708"
           transform="translate(330.3004,227.1227)">
          <path
             d="m 0,0 c -0.221,-0.445 -6.518,2.209 -14.067,5.927 -7.553,3.72 -13.495,7.094 -13.276,7.538 0.218,0.443 6.514,-2.211 14.067,-5.931 C -5.727,3.815 0.218,0.443 0,0"
             style="fill:#e8505b;fill-opacity:1;fill-rule:nonzero;stroke:none"
             id="path710" />
        </g>
        <g
           id="g712"
           transform="translate(320.6022,207.1003)">
          <path
             d="m 0,0 c -0.074,-0.237 -1.73,0.145 -4.373,0.961 -1.319,0.407 -2.885,0.924 -4.615,1.522 -1.72,0.624 -3.504,1.527 -5.416,2.393 -7.63,3.541 -13.454,7.009 -13.265,7.42 0.226,0.485 6.453,-2.285 14.012,-5.792 1.895,-0.859 3.653,-1.806 5.311,-2.498 C -6.681,3.333 -5.188,2.705 -3.941,2.151 -1.447,1.044 0.072,0.236 0,0"
             style="fill:#e8505b;fill-opacity:1;fill-rule:nonzero;stroke:none"
             id="path714" />
        </g>
        <g
           id="g716"
           transform="translate(157.4645,317.8742)">
          <path
             d="M 0,0 C 0,0 -20.863,12.937 -32.278,-15.25 -43.692,-43.438 -21.741,-48.072 -21.741,-48.072 -12.758,-34.143 -5.461,-18.179 0,0"
             style="fill:#e8505b;fill-opacity:1;fill-rule:nonzero;stroke:none"
             id="path718" />
        </g>
        <g
           id="g720">
          <g
             id="g722" />
          <g
             id="g734">
            <g
               clip-path="url(#clipPath726)"
               opacity="0.5"
               id="g732">
              <g
                 transform="translate(179.6535,351.4665)"
                 id="g730">
                <path
                   d="m 0,0 c 0.122,-0.021 -0.175,-1.935 -0.817,-5.385 -0.66,-3.444 -1.594,-8.444 -2.932,-14.583 -0.881,-3.023 -1.846,-6.324 -2.879,-9.864 -0.523,-1.773 -1.065,-3.606 -1.621,-5.494 -0.28,-0.945 -0.564,-1.902 -0.852,-2.872 -0.312,-0.963 -0.718,-1.907 -1.081,-2.88 -1.502,-3.879 -3.078,-7.946 -4.713,-12.162 -0.41,-1.054 -0.824,-2.117 -1.242,-3.189 -0.405,-1.077 -0.979,-2.09 -1.466,-3.151 -1.02,-2.102 -2.054,-4.235 -3.101,-6.394 -1.05,-2.157 -2.088,-4.29 -3.11,-6.392 -0.532,-1.039 -0.976,-2.116 -1.57,-3.102 -0.585,-0.991 -1.165,-1.975 -1.74,-2.949 -2.304,-3.892 -4.528,-7.646 -6.648,-11.226 -0.542,-0.887 -1.033,-1.79 -1.597,-2.631 -0.586,-0.828 -1.164,-1.645 -1.735,-2.45 -1.141,-1.607 -2.25,-3.168 -3.321,-4.678 -2.146,-3.003 -4.149,-5.805 -5.982,-8.37 -3.989,-4.834 -7.334,-8.647 -9.633,-11.294 -2.312,-2.635 -3.635,-4.055 -3.731,-3.976 -0.095,0.079 1.047,1.648 3.194,4.419 2.226,2.823 5.351,6.786 9.19,11.653 1.765,2.586 3.691,5.41 5.758,8.437 1.038,1.512 2.112,3.076 3.217,4.686 0.555,0.804 1.116,1.62 1.686,2.447 0.549,0.84 1.027,1.746 1.555,2.632 2.076,3.573 4.255,7.32 6.514,11.204 0.567,0.97 1.137,1.949 1.714,2.935 0.586,0.981 1.023,2.052 1.549,3.087 1.013,2.088 2.04,4.207 3.079,6.351 1.043,2.141 2.072,4.258 3.087,6.344 0.488,1.052 1.061,2.057 1.468,3.125 0.419,1.061 0.835,2.116 1.247,3.16 1.657,4.174 3.255,8.202 4.779,12.042 0.371,0.963 0.786,1.897 1.108,2.849 0.297,0.961 0.592,1.908 0.883,2.842 0.582,1.866 1.148,3.68 1.696,5.433 1.103,3.499 2.131,6.762 3.074,9.75 1.45,6.014 2.63,10.91 3.472,14.397 C -0.65,-1.851 -0.122,0.021 0,0"
                   style="fill:#000000;fill-opacity:1;fill-rule:nonzero;stroke:none"
                   id="path728" />
              </g>
            </g>
          </g>
        </g>
        <g
           id="g736">
          <g
             id="g738" />
          <g
             id="g750">
            <g
               clip-path="url(#clipPath742)"
               opacity="0.399994"
               id="g748">
              <g
                 transform="translate(218.693,156.0388)"
                 id="g746">
                <path
                   d="m 0,0 c 1.903,-3.454 3.845,-6.963 6.662,-9.725 2.817,-2.76 6.684,-4.716 10.609,-4.322 3.924,0.396 7.642,3.655 7.685,7.599 1.883,-1.415 4.77,-0.649 6.33,1.117 1.561,1.766 2.067,4.219 2.254,6.567 2.558,-1.508 6.116,-0.312 7.823,2.118 1.707,2.43 1.814,5.705 0.986,8.557 -0.828,2.853 -2.479,5.383 -4.108,7.866 1.97,-0.159 4.057,-0.297 5.82,0.597 1.762,0.894 2.952,3.225 1.923,4.912 -0.603,0.99 -1.76,1.483 -2.868,1.829 -3.087,0.966 -5.253,1.74 -8.467,1.366 C 33.903,28.475 35.936,20.006 15.766,8.424 3.859,1.586 0,0 0,0"
                   style="fill:#000000;fill-opacity:1;fill-rule:nonzero;stroke:none"
                   id="path744" />
              </g>
            </g>
          </g>
        </g>
        <g
           id="g752"
           transform="translate(264.1139,143.8034)">
          <path
             d="m 0,0 c -0.014,-0.093 -1.356,0.164 -3.533,0.105 -2.164,-0.048 -5.189,-0.523 -8.176,-1.956 -2.99,-1.432 -5.254,-3.494 -6.647,-5.15 -1.409,-1.66 -2.049,-2.868 -2.13,-2.82 -0.029,0.015 0.101,0.332 0.395,0.875 0.293,0.544 0.769,1.303 1.449,2.177 1.345,1.748 3.633,3.915 6.707,5.387 3.074,1.475 6.195,1.902 8.399,1.856 C -2.429,0.457 -1.537,0.353 -0.93,0.24 -0.322,0.13 0.006,0.032 0,0"
             style="fill:#eb996e;fill-opacity:1;fill-rule:nonzero;stroke:none"
             id="path754" />
        </g>
        <g
           id="g756"
           transform="translate(220.0079,161.4099)">
          <path
             d="m 0,0 c 3.249,-3.121 5.471,-6.566 8.879,-9.71 1.548,-1.428 3.954,-4.134 6.03,-4.493 2.075,-0.36 3.405,-0.085 4.227,1.855 0.665,1.572 -0.53,3.718 -1.355,5.013 -2.171,3.405 -4.247,6.068 -5.873,8.716 -0.762,1.24 0.224,1.496 0.584,0.922 1.564,-1.621 3.897,-3.026 5.297,-4.79 1.919,-2.417 2.267,-5.618 7.285,-4.606 0.663,0.134 1.325,0.364 1.863,0.775 1.889,1.445 1.968,3.96 1.173,5.973 -0.623,1.578 -1.716,2.917 -2.794,4.228 2.136,-2.412 4.469,-4.953 7.864,-5.227 1.976,-0.159 3.958,0.761 4.757,2.574 1.005,2.282 -0.436,4.488 -1.882,6.272 -2.563,3.162 -5.423,6.083 -8.529,8.714 -1.156,0.978 -2.63,1.526 -4.146,1.537 -1.756,0.011 -3.955,-0.319 -5.041,-1.848 -1.971,-2.774 -1.364,-5.226 -1.364,-5.226 0,0 -4.406,2.233 -7.946,-0.103 C 5.489,8.239 4.613,4.224 4.613,4.224 Z"
             style="fill:#ffbe9d;fill-opacity:1;fill-rule:nonzero;stroke:none"
             id="path758" />
        </g>
        <g
           id="g760"
           transform="translate(243.4533,180.1306)">
          <path
             d="M 0,0 C -1.364,1.373 -1.681,3.885 -0.624,5.959 0.126,7.428 1.071,8.854 2.03,9.178 6.221,10.592 24.532,7.424 24.365,3.36 24.194,-0.813 22.861,-2.649 12.923,-1.215 11.175,-0.962 8.432,-0.617 8.432,-0.617 L 6.033,-4.218 Z"
             style="fill:#ffbe9d;fill-opacity:1;fill-rule:nonzero;stroke:none"
             id="path762" />
        </g>
        <g
           id="g764"
           transform="translate(246.7326,163.113)">
          <path
             d="M 0,0 C -0.146,-0.089 -1.539,2.755 -4.384,5.304 -7.2,7.887 -10.165,8.995 -10.091,9.148 -10.07,9.206 -9.305,9.009 -8.152,8.465 -7.001,7.926 -5.482,6.998 -4.034,5.689 -2.591,4.377 -1.519,2.956 -0.87,1.863 -0.216,0.769 0.055,0.026 0,0"
             style="fill:#eb996e;fill-opacity:1;fill-rule:nonzero;stroke:none"
             id="path766" />
        </g>
        <g
           id="g768"
           transform="translate(249.8136,175.6013)">
          <path
             d="M 0,0 C -0.091,-0.086 -1.3,0.901 -2.949,1.91 -3.77,2.415 -4.53,2.839 -5.098,3.095 -5.664,3.36 -6.039,3.434 -6.038,3.512 -6.041,3.578 -5.607,3.632 -4.971,3.44 -4.335,3.26 -3.517,2.871 -2.675,2.353 -0.984,1.319 0.122,0.109 0,0"
             style="fill:#eb996e;fill-opacity:1;fill-rule:nonzero;stroke:none"
             id="path770" />
        </g>
        <g
           id="g772"
           transform="translate(252.8873,179.3786)">
          <path
             d="M 0,0 C -0.012,-0.11 -1.606,-0.155 -3.527,0.397 -4.481,0.689 -5.286,1.149 -5.783,1.58 -6.286,2.008 -6.496,2.365 -6.446,2.408 -6.35,2.497 -5.212,1.416 -3.373,0.896 -1.557,0.369 0.027,0.173 0,0"
             style="fill:#eb996e;fill-opacity:1;fill-rule:nonzero;stroke:none"
             id="path774" />
        </g>
        <g
           id="g776"
           transform="translate(235.0914,158.0817)">
          <path
             d="m 0,0 c -0.059,-0.042 -0.707,0.785 -1.67,2.171 -0.983,1.353 -2.233,3.372 -4.274,4.857 -2.041,1.488 -4.444,1.84 -6.054,1.604 -1.643,-0.229 -2.501,-0.906 -2.551,-0.811 -0.017,0.024 0.175,0.209 0.584,0.462 0.405,0.259 1.057,0.542 1.907,0.712 1.685,0.347 4.251,0.034 6.417,-1.544 C -3.484,5.875 -2.269,3.775 -1.363,2.374 -0.478,0.935 0.058,0.042 0,0"
             style="fill:#eb996e;fill-opacity:1;fill-rule:nonzero;stroke:none"
             id="path778" />
        </g>
        <g
           id="g780"
           transform="translate(249.0997,117.5817)">
          <path
             d="m 0,0 c 0.015,-0.143 -3.336,-0.625 -7.484,-1.075 -4.15,-0.451 -7.526,-0.701 -7.541,-0.559 -0.016,0.144 3.335,0.625 7.484,1.076 C -3.392,-0.106 -0.016,0.143 0,0"
             style="fill:#eb996e;fill-opacity:1;fill-rule:nonzero;stroke:none"
             id="path782" />
        </g>
      </g>
    </g>
    <g
       id="g784"
       transform="translate(406.6315,450.1564)">
      <path
         d="M 0,0 1.129,-2.064 3.193,-3.193 1.129,-4.322 0,-6.386 l -1.129,2.064 -2.064,1.129 2.064,1.129 z"
         style="fill:#e8505b;fill-opacity:1;fill-rule:nonzero;stroke:none"
         id="path786" />
    </g>
    <g
       id="g788"
       transform="translate(430.236,398.9865)">
      <path
         d="M 0,0 1.129,-2.064 3.193,-3.193 1.129,-4.322 0,-6.386 l -1.128,2.064 -2.064,1.129 2.064,1.129 z"
         style="fill:#e8505b;fill-opacity:1;fill-rule:nonzero;stroke:none"
         id="path790" />
    </g>
    <g
       id="g792"
       transform="translate(51.9035,262.4665)">
      <path
         d="M 0,0 1.129,-2.064 3.193,-3.193 1.129,-4.322 0,-6.386 l -1.129,2.064 -2.064,1.129 2.064,1.129 z"
         style="fill:#e8505b;fill-opacity:1;fill-rule:nonzero;stroke:none"
         id="path794" />
    </g>
    <g
       id="g796"
       transform="translate(375.6617,437.4382)">
      <path
         d="M 0,0 2.606,-4.767 7.373,-7.374 2.606,-9.98 0,-14.747 l -2.606,4.767 -4.767,2.606 4.767,2.607 z"
         style="fill:#e8505b;fill-opacity:1;fill-rule:nonzero;stroke:none"
         id="path798" />
    </g>
    <g
       id="g800"
       transform="translate(73.0612,294.903)">
      <path
         d="M 0,0 2.601,-4.756 7.357,-7.357 2.601,-9.958 0,-14.714 l -2.601,4.756 -4.756,2.601 4.756,2.601 z"
         style="fill:#e8505b;fill-opacity:1;fill-rule:nonzero;stroke:none"
         id="path802" />
    </g>
    <g
       id="g804"
       transform="translate(436.6578,181.4343)">
      <path
         d="M 0,0 2.602,-4.756 7.357,-7.356 2.602,-9.958 0,-14.714 l -2.601,4.756 -4.756,2.602 4.756,2.6 z"
         style="fill:#e8505b;fill-opacity:1;fill-rule:nonzero;stroke:none"
         id="path806" />
    </g>
  </g>
</svg>
