<!--?xml version="1.0" encoding="UTF-8" standalone="no"?-->
<svg data-name="Layer 1" width="333.99695" height="330.26123" viewBox="0 0 333.99695 330.26123" version="1.1" id="svg7978" sodipodi:docname="undraw_share_link_re_54rx.svg" inkscape:version="1.2.2 (732a01da63, 2022-12-09)" xmlns:inkscape="http://www.inkscape.org/namespaces/inkscape" xmlns:sodipodi="http://sodipodi.sourceforge.net/DTD/sodipodi-0.dtd" xmlns="http://www.w3.org/2000/svg" xmlns:svg="http://www.w3.org/2000/svg" style="">
  <defs id="defs7982"></defs>
  <sodipodi:namedview id="namedview7980" pagecolor="#ffffff" bordercolor="#000000" borderopacity="0.25" inkscape:showpageshadow="2" inkscape:pageopacity="0.0" inkscape:pagecheckerboard="0" inkscape:deskcolor="#d1d1d1" showgrid="false" inkscape:zoom="1.3384271" inkscape:cx="99.370373" inkscape:cy="18.678642" inkscape:window-width="1366" inkscape:window-height="697" inkscape:window-x="-8" inkscape:window-y="-8" inkscape:window-maximized="1" inkscape:current-layer="svg7978" showguides="false"></sodipodi:namedview>
  <path d="m 480.36191,365.76438 h -720.73046 a 1,1 0 0 1 0,-2 h 720.73046 a 1,1 0 0 1 0,2 z" fill="#e6e6e6" id="path7920" class="JuaJrlxp_0"></path>
  <path fill="#6c63ff" id="circle7934" style="opacity: 0.274262; fill: rgb(255, 0, 0); stroke: rgb(255, 0, 0); stroke-width: 0; stroke-opacity: 1;" d="M27.91139000000001,164.91812A140,140 0,1,1 307.91139,164.91812A140,140 0,1,1 27.91139000000001,164.91812" class="JuaJrlxp_1"></path>
  <path d="m 159.17593,210.24128 a 34.19886,34.19886 0 0 1 -48.36445,0 v -8e-5 a 34.20534,34.20534 0 0 1 -4.62155,-42.61667 l -7.523849,7.67608 a 34.19884,34.19884 0 0 0 0,48.36444 v 8e-5 a 34.19886,34.19886 0 0 0 48.364449,0 l 16.6733,-17.31253 0.25368,-1.07625 z" opacity="0.2" id="path7936" class="JuaJrlxp_2"></path>
  <path d="m 175.05882,103.28451 a 34.19884,34.19884 0 0 1 47.51695,9.01436 v 8e-5 a 34.20537,34.20537 0 0 1 -3.4025,42.73128 l 8.8227,-6.13925 a 34.19886,34.19886 0 0 0 9.01436,-47.517 v -9e-5 a 34.19884,34.19884 0 0 0 -47.51695,-9.014352 l -19.60796,13.901582 -0.44983,1.0101 z" opacity="0.2" id="path7938" class="JuaJrlxp_3"></path>
  <path d="M 122.84842,237.9602 A 37.19872,37.19872 0 0 1 96.544711,174.45776 l 31.568359,-32.20752 a 37.19814,37.19814 0 0 1 52.62793,-0.021 2.9996813,2.9996813 0 0 1 -4.24219,4.24219 31.19932,31.19932 0 0 0 -44.12183,9e-5 c -4.63672,16.3462 -14.65528,27.562 -31.56836,32.20752 a 31.1992,31.1992 0 1 0 44.10107,44.14356 c -0.68359,-6.70606 1.27588,-13.00977 16.63379,-17.27246 a 2.99975,2.99975 0 1 1 4.32105,4.162 l -16.67332,17.31253 a 36.98475,36.98475 0 0 1 -26.34279,10.93553 z" fill="#ffffff" id="path7940" style="stroke:#ff0000;stroke-opacity:1" class="JuaJrlxp_4"></path>
  <path d="m 174.0999,192.39767 a 36.95558,36.95558 0 0 1 -26.30371,-10.896 3.0000278,3.0000278 0 0 1 4.24317,-4.24219 31.19775,31.19775 0 0 0 44.12133,9e-5 c 3.99805,-24.08447 20.29834,-27.4834 34.4668,-34.46582 A 31.199192,31.199192 0 0 0 186.50493,98.671668 c -3.94141,11.371092 -7.811,22.876462 -19.54981,19.549802 a 2.9997945,2.9997945 0 0 1 -4.24242,-4.24228 l 19.5498,-19.549802 a 37.198561,37.198561 0 1 1 52.60692,52.606502 l -34.4663,34.4663 a 36.95515,36.95515 0 0 1 -26.30322,10.89548 z" fill="#ffffff" id="path7942" style="stroke: rgb(255, 0, 0); stroke-width: 1.00157; stroke-opacity: 1;" class="JuaJrlxp_5"></path>
  <path d="m 289.54884,93.670168 a 142.54233,142.54233 0 0 0 -21.07031,-27.49023 c -1.81006,-1.83985 -3.67969,-3.64014 -5.58985,-5.39014 -1.06005,-0.96972 -2.12988,-1.91992 -3.22021,-2.8501 -2.06982,-1.77978 -4.19971,-3.5 -6.36963,-5.15966 a 140.28645,140.28645 0 0 0 -85.39017,-28.85987 c -77.740229,0 -140.999999,63.25 -140.999999,141.000002 a 140.73243,140.73243 0 0 0 2.32959,25.55957 0.765,0.765 0 0 0 0.0205,0.14014 c 0.71,3.87012 1.58985,7.68994 2.60987,11.43994 a 140.99,140.99 0 0 0 255.749999,37.31006 q 2.92455,-4.71021 5.5,-9.66016 A 140.803,140.803 0 0 0 289.54883,93.670168 Z M 167.90867,303.92017 a 138.95232,138.95232 0 0 1 -138.999999,-139 c 0,-76.650392 62.35987,-139.000002 138.999999,-139.000002 a 138.95426,138.95426 0 0 1 99.48,42.01953 133.0646,133.0646 0 0 1 9.54,10.86036 134.82842,134.82842 0 0 1 8.25,11.56982 138.92664,138.92664 0 0 1 16.19971,113.410162 c -1.23,4.23974 -2.66992,8.39013 -4.29,12.46 -1.62988,4.08008 -3.43994,8.08008 -5.43994,11.96 a 139.47249,139.47249 0 0 1 -123.73977,75.72013 z" fill="#3f3d56" id="path7944" style="fill:#fd0202;fill-opacity:1" class="JuaJrlxp_6"></path>
  <path fill="#6c63ff" id="circle7966" style="fill:#ff0000" d="M114.15532,161.20343A3,3 0,1,1 120.15532,161.20343A3,3 0,1,1 114.15532,161.20343" class="JuaJrlxp_7"></path>
  <path fill="#6c63ff" id="circle7968" style="fill:#ff0000" d="M209.15532,159.20343A3,3 0,1,1 215.15532,159.20343A3,3 0,1,1 209.15532,159.20343" class="JuaJrlxp_8"></path>
<style data-made-with="vivus-instant">.JuaJrlxp_0{stroke-dasharray:1448 1450;stroke-dashoffset:1449;animation:JuaJrlxp_draw_0 6200ms ease-in-out 0ms infinite,JuaJrlxp_fade 6200ms linear 0ms infinite;}.JuaJrlxp_1{stroke-dasharray:880 882;stroke-dashoffset:881;animation:JuaJrlxp_draw_1 6200ms ease-in-out 0ms infinite,JuaJrlxp_fade 6200ms linear 0ms infinite;}.JuaJrlxp_2{stroke-dasharray:251 253;stroke-dashoffset:252;animation:JuaJrlxp_draw_2 6200ms ease-in-out 0ms infinite,JuaJrlxp_fade 6200ms linear 0ms infinite;}.JuaJrlxp_3{stroke-dasharray:251 253;stroke-dashoffset:252;animation:JuaJrlxp_draw_3 6200ms ease-in-out 0ms infinite,JuaJrlxp_fade 6200ms linear 0ms infinite;}.JuaJrlxp_4{stroke-dasharray:485 487;stroke-dashoffset:486;animation:JuaJrlxp_draw_4 6200ms ease-in-out 0ms infinite,JuaJrlxp_fade 6200ms linear 0ms infinite;}.JuaJrlxp_5{stroke-dasharray:501 503;stroke-dashoffset:502;animation:JuaJrlxp_draw_5 6200ms ease-in-out 0ms infinite,JuaJrlxp_fade 6200ms linear 0ms infinite;}.JuaJrlxp_6{stroke-dasharray:1760 1762;stroke-dashoffset:1761;animation:JuaJrlxp_draw_6 6200ms ease-in-out 0ms infinite,JuaJrlxp_fade 6200ms linear 0ms infinite;}.JuaJrlxp_7{stroke-dasharray:19 21;stroke-dashoffset:20;animation:JuaJrlxp_draw_7 6200ms ease-in-out 0ms infinite,JuaJrlxp_fade 6200ms linear 0ms infinite;}.JuaJrlxp_8{stroke-dasharray:19 21;stroke-dashoffset:20;animation:JuaJrlxp_draw_8 6200ms ease-in-out 0ms infinite,JuaJrlxp_fade 6200ms linear 0ms infinite;}@keyframes JuaJrlxp_draw{100%{stroke-dashoffset:0;}}@keyframes JuaJrlxp_fade{0%{stroke-opacity:1;}93.54838709677419%{stroke-opacity:1;}100%{stroke-opacity:0;}}@keyframes JuaJrlxp_draw_0{12.903225806451612%{stroke-dashoffset: 1449}34.40860215053764%{ stroke-dashoffset: 0;}100%{ stroke-dashoffset: 0;}}@keyframes JuaJrlxp_draw_1{14.24731182795699%{stroke-dashoffset: 881}35.752688172043015%{ stroke-dashoffset: 0;}100%{ stroke-dashoffset: 0;}}@keyframes JuaJrlxp_draw_2{15.591397849462366%{stroke-dashoffset: 252}37.096774193548384%{ stroke-dashoffset: 0;}100%{ stroke-dashoffset: 0;}}@keyframes JuaJrlxp_draw_3{16.93548387096774%{stroke-dashoffset: 252}38.44086021505377%{ stroke-dashoffset: 0;}100%{ stroke-dashoffset: 0;}}@keyframes JuaJrlxp_draw_4{18.279569892473116%{stroke-dashoffset: 486}39.78494623655914%{ stroke-dashoffset: 0;}100%{ stroke-dashoffset: 0;}}@keyframes JuaJrlxp_draw_5{19.623655913978492%{stroke-dashoffset: 502}41.12903225806452%{ stroke-dashoffset: 0;}100%{ stroke-dashoffset: 0;}}@keyframes JuaJrlxp_draw_6{20.967741935483872%{stroke-dashoffset: 1761}42.473118279569896%{ stroke-dashoffset: 0;}100%{ stroke-dashoffset: 0;}}@keyframes JuaJrlxp_draw_7{22.311827956989248%{stroke-dashoffset: 20}43.81720430107527%{ stroke-dashoffset: 0;}100%{ stroke-dashoffset: 0;}}@keyframes JuaJrlxp_draw_8{23.65591397849462%{stroke-dashoffset: 20}45.16129032258064%{ stroke-dashoffset: 0;}100%{ stroke-dashoffset: 0;}}</style></svg>
