<?xml version="1.0" encoding="UTF-8" standalone="no"?>
<svg
   data-name="Layer 1"
   width="523"
   height="336"
   viewBox="0 0 523 336"
   version="1.1"
   id="svg14875"
   sodipodi:docname="AWS-Aruba-FAQ.svg"
   inkscape:version="1.2.2 (732a01da63, 2022-12-09)"
   xmlns:inkscape="http://www.inkscape.org/namespaces/inkscape"
   xmlns:sodipodi="http://sodipodi.sourceforge.net/DTD/sodipodi-0.dtd"
   xmlns="http://www.w3.org/2000/svg"
   xmlns:svg="http://www.w3.org/2000/svg">
  <defs
     id="defs14879" />
  <sodipodi:namedview
     id="namedview14877"
     pagecolor="#ffffff"
     bordercolor="#000000"
     borderopacity="0.25"
     inkscape:showpageshadow="2"
     inkscape:pageopacity="0.0"
     inkscape:pagecheckerboard="0"
     inkscape:deskcolor="#d1d1d1"
     showgrid="false"
     inkscape:zoom="1.3537285"
     inkscape:cx="261.5"
     inkscape:cy="277.75141"
     inkscape:window-width="1366"
     inkscape:window-height="697"
     inkscape:window-x="-8"
     inkscape:window-y="-8"
     inkscape:window-maximized="1"
     inkscape:current-layer="svg14875" />
  <ellipse
     cx="73.71401"
     cy="331.4603"
     rx="10.90314"
     ry="4.08868"
     fill="#2f2e41"
     id="ellipse14807" />
  <ellipse
     cx="99.88149"
     cy="330.91516"
     rx="10.90314"
     ry="4.08868"
     fill="#2f2e41"
     id="ellipse14809" />
  <ellipse
     cx="469.74364"
     cy="542.42432"
     rx="21.53369"
     ry="6.76007"
     transform="translate(-546.62487 25.10005) rotate(-29.96257)"
     fill="#2f2e41"
     id="ellipse14811" />
  <circle
     cx="420.93647"
     cy="555.94632"
     r="43.06735"
     transform="translate(-533.75772 600.39468) rotate(-80.78252)"
     fill="#2f2e41"
     id="circle14813" />
  <rect
     x="62.81087"
     y="307.746"
     width="13.08374"
     height="23.44171"
     fill="#2f2e41"
     id="rect14815" />
  <rect
     x="88.97835"
     y="307.746"
     width="13.08374"
     height="23.44171"
     fill="#2f2e41"
     id="rect14817" />
  <circle
     cx="83.52681"
     cy="263.04321"
     r="14.71922"
     fill="#fff"
     id="circle14819" />
  <circle
     cx="83.52681"
     cy="263.04321"
     r="4.90642"
     fill="#3f3d56"
     id="circle14821" />
  <path
     d="M379.15975,515.89493c-3.47748-15.57379,7.63867-31.31046,24.82861-35.14884s33.94421,5.67508,37.42169,21.24887-7.91491,21.31766-25.10486,25.156S382.63723,531.46875,379.15975,515.89493Z"
     transform="translate(-338.5 -282)"
     fill="#e6e6e6"
     id="path14823"
     style="fill:#ff8080" />
  <ellipse
     cx="372.42832"
     cy="535.96292"
     rx="6.76007"
     ry="21.53368"
     transform="translate(-609.92557 360.7865) rotate(-64.62574)"
     fill="#2f2e41"
     id="ellipse14825" />
  <path
     d="M399.78194,571.48328c0,4.21514,10.85327,12.53857,22.89654,12.53857s23.33515-11.867,23.33515-16.08209-11.29193.81775-23.33515.81775S399.78194,567.26813,399.78194,571.48328Z"
     transform="translate(-338.5 -282)"
     fill="#fff"
     id="path14827" />
  <ellipse
     cx="232.60883"
     cy="331.4603"
     rx="10.90314"
     ry="4.08868"
     fill="#2f2e41"
     id="ellipse14829" />
  <ellipse
     cx="206.44135"
     cy="330.91516"
     rx="10.90314"
     ry="4.08868"
     fill="#2f2e41"
     id="ellipse14831" />
  <ellipse
     cx="513.57919"
     cy="542.42432"
     rx="6.76007"
     ry="21.53369"
     transform="translate(-551.35011 434.45934) rotate(-60.03743)"
     fill="#2f2e41"
     id="ellipse14833" />
  <circle
     cx="223.88636"
     cy="273.94632"
     r="43.06734"
     fill="#2f2e41"
     id="circle14835" />
  <rect
     x="230.42822"
     y="307.746"
     width="13.08374"
     height="23.44171"
     fill="#2f2e41"
     id="rect14837" />
  <rect
     x="204.26074"
     y="307.746"
     width="13.08374"
     height="23.44171"
     fill="#2f2e41"
     id="rect14839" />
  <circle
     cx="213.79602"
     cy="263.04321"
     r="14.71922"
     fill="#fff"
     id="circle14841" />
  <ellipse
     cx="545.29602"
     cy="543.04321"
     rx="4.92055"
     ry="4.88593"
     transform="translate(-562.77667 262.29055) rotate(-44.97427)"
     fill="#3f3d56"
     id="ellipse14843" />
  <path
     d="M567.01764,527.15094c-17.18994-3.83832-28.58234-9.58219-25.10486-25.156s20.23175-25.08725,37.42169-21.24887,28.3061,19.57505,24.82862,35.14884S584.20758,530.98926,567.01764,527.15094Z"
     transform="translate(-338.5 -282)"
     fill="#6c63ff"
     id="path14845"
     style="fill:#ff5555" />
  <ellipse
     cx="601.89451"
     cy="567.96293"
     rx="6.76007"
     ry="21.53368"
     transform="translate(-464.12902 -108.45868) rotate(-14.87459)"
     fill="#2f2e41"
     id="ellipse14847" />
  <path
     d="M552.62933,568.75815c-7.90666,0-15.32008-5.03284-15.32008-.81775s7.41338,16.08209,15.32008,16.08209,15.03213-8.32343,15.03213-12.53857S560.536,568.75815,552.62933,568.75815Z"
     transform="translate(-338.5 -282)"
     fill="#fff"
     id="path14849" />
  <path
     d="M496.97168,484.53906H493.147a12.93742,12.93742,0,0,1-12.92285-12.92285v-3.21094c0-7.95312,1.50684-14.6123,4.479-19.79248a104.11414,104.11414,0,0,1,12.542-16.85156,74.26915,74.26915,0,0,0,8.52783-10.27881,17.29,17.29,0,0,0,2.69336-9.5625c0-7.978-5.19776-11.85644-15.89063-11.85644a64.52587,64.52587,0,0,0-17.51513,2.6289,14.7451,14.7451,0,0,1-18.79248-14.17822v-6.5a14.46343,14.46343,0,0,1,8.53222-13.25635A78.08334,78.08334,0,0,1,496.61035,362.5c11.44434,0,21.77539,1.92236,30.707,5.71289,8.94776,3.79932,16.01709,9.15674,21.01123,15.92383a38.35194,38.35194,0,0,1,7.53614,23.24414c0,8.98-2.45166,16.80127-7.28663,23.24658-4.78222,6.37988-11.63769,13.36426-20.376,20.76026a145.20407,145.20407,0,0,0-13.06348,12.30664,22.71817,22.71817,0,0,0-5.43115,10.11132A12.888,12.888,0,0,1,496.97168,484.53906Z"
     transform="translate(-338.5 -282)"
     fill="#6c63ff"
     id="path14851"
     style="fill:#ff0800;fill-opacity:1" />
  <path
     d="M494.84521,545.31055h-.50439a23.95118,23.95118,0,0,1,0-47.90235h.50439a23.95118,23.95118,0,1,1,0,47.90235Z"
     transform="translate(-338.5 -282)"
     fill="#6c63ff"
     id="path14853"
     style="fill:#ff0800;fill-opacity:1" />
  <path
     d="M650.5,618h-311a1,1,0,0,1,0-2h311a1,1,0,0,1,0,2Z"
     transform="translate(-338.5 -282)"
     fill="#ccc"
     id="path14855" />
  <path
     d="M860.5,618h-166a1,1,0,0,1,0-2h166a1,1,0,0,1,0,2Z"
     transform="translate(-338.5 -282)"
     fill="#ccc"
     id="path14857" />
</svg>
