<!--?xml version="1.0" encoding="UTF-8" standalone="no"?-->
<svg viewBox="0 0 563.76535 435.56224" width="335.85553" height="255.84932" version="1.1" id="svg6622" sodipodi:docname="AWS-Aruba-SEO-Services.svg" inkscape:version="1.2.2 (732a01da63, 2022-12-09)" xmlns:inkscape="http://www.inkscape.org/namespaces/inkscape" xmlns:sodipodi="http://sodipodi.sourceforge.net/DTD/sodipodi-0.dtd" xmlns:xlink="http://www.w3.org/1999/xlink" xmlns="http://www.w3.org/2000/svg" xmlns:svg="http://www.w3.org/2000/svg" style="">
  <sodipodi:namedview id="namedview6624" pagecolor="#ffffff" bordercolor="#666666" borderopacity="1.0" inkscape:pageshadow="2" inkscape:pageopacity="0.0" inkscape:pagecheckerboard="0" showgrid="false" inkscape:zoom="1.0820131" inkscape:cx="275.41256" inkscape:cy="223.65718" inkscape:window-width="1366" inkscape:window-height="697" inkscape:window-x="-8" inkscape:window-y="-8" inkscape:window-maximized="1" inkscape:current-layer="svg6622" inkscape:showpageshadow="2" inkscape:deskcolor="#d1d1d1"></sodipodi:namedview>
  <style id="style6479">.D{opacity:.24}.E{fill:#4fbefb}.F{stroke-width:2.078}.G{stroke-width:1.449}.H{fill:#fff}</style>
  <defs id="defs6504">
    <linearGradient id="A" x1="486.03" y1="221.36" x2="449.73999" y2="315.10001" gradientUnits="userSpaceOnUse">
      <stop offset="0" stop-color="#010101" stop-opacity="0" id="stop6481"></stop>
      <stop offset=".95" stop-color="#010101" id="stop6483"></stop>
    </linearGradient>
    <linearGradient id="B" x1="475.54001" y1="295.98001" x2="566.26001" y2="121.93" gradientUnits="userSpaceOnUse">
      <stop offset="0" stop-color="#fff" stop-opacity="0" id="stop6486"></stop>
      <stop offset=".95" stop-color="#fff" id="stop6488"></stop>
    </linearGradient>
    <linearGradient id="C" x1="485.73001" y1="265.76001" x2="502.35999" y2="169.38" xlink:href="#B" gradientTransform="matrix(0.836848,0,0,0.833356,-5.503777,-39.069752)"></linearGradient>
    <linearGradient id="D" x1="434.189" y1="201.57401" x2="443.06699" y2="184.589" xlink:href="#A"></linearGradient>
    <linearGradient id="E" x1="426.771" y1="167.692" x2="455.47699" y2="167.692" xlink:href="#B"></linearGradient>
    <linearGradient id="F" x1="462.82001" y1="158.03" x2="483.76001" y2="158.03" xlink:href="#A"></linearGradient>
    <linearGradient id="G" x1="447.78" y1="205.13" x2="468.73001" y2="205.13" gradientTransform="matrix(-0.81174256,-0.20000544,-0.20084352,0.80835532,845.67943,62.741351)" xlink:href="#A"></linearGradient>
    <linearGradient id="H" x1="521.62" y1="265.17999" x2="281.23001" y2="322.26001" xlink:href="#B" gradientTransform="matrix(0.836848,0,0,0.833356,-5.503777,-39.069752)"></linearGradient>
    <linearGradient id="I" x1="453.30399" y1="148.33501" x2="463.061" y2="148.33501" xlink:href="#A" gradientTransform="translate(-38.965877,-54.461797)"></linearGradient>
    <path id="J" d="m 510.03,232.73 q -1.28,15.9 -7,23 -7.37,9.12 -20.82,9.14 -13,0 -20.66,-9.34 c -5,-6.2 -7.53,-16.27 -7.57,-30.33 a 79.16,79.16 0 0 1 2.17,-7.73 27.88,27.88 0 0 0 9.18,-8.5 c 3.51,-5.19 5.32,-11.55 9.71,-16 1.49,-1.49 3.22,-2.78 4.31,-4.56 a 9.14,9.14 0 0 0 1.25,-3.78 c 0.36,-2.66 -0.08,-5.56 -0.12,-8.3 a 26.72,26.72 0 0 1 3.94,-14.21 c 8.34,0.12 16.55,3.9 24.73,5.39 3.58,6 -2.66,13.74 -0.93,20.54 0.61,2.42 2.22,4.47 2.9,6.89 1.13,4.11 -0.6,8.13 -2.29,12.24 a 41.35,41.35 0 0 0 -1.94,5.68 c -1.6,6.62 0.5,13.4 3.14,19.87 z" class="TtLrvhhC_0"></path>
    <path id="K" d="m 477.73,140.52 c -5.55,5.27 -11.31,10.86 -13.62,18.16 -1.73,5.43 -1.36,11.27 -1,17 0.11,1.53 0.43,3.37 1.86,3.92 1.62,0.62 3.2,-0.94 4.19,-2.36 3.36,-4.82 6.19,-10.19 10.84,-13.77 a 8.74,8.74 0 0 0 2.14,-2 7.17,7.17 0 0 0 0.81,-3.73 c 0.26,-7.1 0.74,-14.33 0.78,-21.37 -2.38,0.62 -4.16,2.39 -6,4.15 z" class="TtLrvhhC_1"></path>
    <linearGradient xlink:href="#A" id="L"></linearGradient>
    <linearGradient xlink:href="#B" id="M" gradientTransform="matrix(0.836848,0,0,0.833356,-5.503777,-39.069752)"></linearGradient>
    <path id="N" d="m 428.352,192.762 c 0,0 -0.406,5.534 0.712,7.156 1.118,1.622 8.679,4.773 11.605,3.366 a 19.792,18.715 0 0 0 4.948,-3.528 l 1.474,-5.116 z" class="TtLrvhhC_2"></path>
    <path id="O" d="m 426.771,183.822 c 0,0 3.225,-41.738 20.447,-46.309 17.222,-4.571 2.136,55.471 2.136,55.471 0,0 -22.583,16.285 -22.583,-9.162 z" class="TtLrvhhC_3"></path>
  </defs>
  <path d="m 559.97067,205.97821 c -9.13,30.534 -25.942,58.126 -42.194,85.543 -7.482,12.55 -15.063,25.642 -16.678,40.143 -1.18,10.767 0.979,21.667 0.201,32.451 -2.184,30.809 -28.645,55.91 -58.252,65.16 -29.607,9.25 -61.675,5.533 -92.053,-0.833 -30.378,-6.366 -60.42,-15.301 -91.426,-16.342 -22.31,-0.742 -44.487,2.584 -66.53,6.009 -26.729,4.167 -54.027,8.334 -80.647,3.658 -26.619997,-4.676 -52.921997,-19.993 -63.265997,-44.902 -12.879,-30.976 1.674,-67.018 -6.277,-99.611 -2.326,-9.651 -6.511,-18.525 -11.457,-27.151 -3.707,-6.509 -7.85,-12.851 -11.959,-19.167 -7.18,-11.109 -14.226,-22.351 -18.57,-34.701 -11.39,-32.384 -1.657,-71.077 23.758,-94.303 46.027,-42.117002 116.873997,-27.884002 169.879997,-55.410002 58.479,-30.401 107.117,-63.626 176.407,-34.668 19.173,8.025 36.528,19.909 55.776,27.826 16.142,6.667 33.399,10.301 50.01,15.734 l 1.498,0.516 a 188.157,187.372 0 0 1 23.867,9.801 c 21.759,10.834 41.005,26.242 52.436,47.318002 15.248,27.984 14.578,62.385 5.473,92.928 z" opacity="0.501" fill="#aaccff" id="path6506" style="stroke: rgb(255, 0, 0); stroke-width: 3.15117; fill: rgb(255, 170, 170); fill-opacity: 1; stroke-opacity: 1;" class="TtLrvhhC_4"></path>
  <path d="m 490.21167,60.633208 -0.954,68.510002 -16.837,9.209 -4.268,-51.027002 -170.909,113.336002 -89.116,-73.893 -176.733997,123.336 c -3.707,-6.509 -7.85,-12.851 -11.959,-19.167 L 209.30667,98.342208 l 89.476,74.260002 155.369,-100.627002 c 0.167,0.049 -44.596,-15.591 -44.596,-15.591 1.322,-0.942 9.456,-10 10.879,-11.025 l 57.742,10.567 c 8.159,2.717 4.319,0.884 12.034,4.709 z" fill="#2a7fff" opacity="0.987" id="path6508" style="stroke: none; stroke-width: 1.44876; fill: rgb(255, 0, 0); fill-opacity: 1;" class="TtLrvhhC_5"></path>
  <g class="E" id="g6522" style="fill:#ff2a2a;stroke:none;stroke-width:2.078" transform="matrix(0.836848,0,0,0.833356,-3.855188,0.714629)">
    <path width="100.68" height="35.27" class="D TtLrvhhC_6" id="rect6512" style="fill:#ff2a2a;stroke:none" d="M 548.96997,146.03 L 631.6499699999999,146.03 A 9,9,0,0,1,640.6499699999999,155.03 L 640.6499699999999,172.3 A 9,9,0,0,1,631.6499699999999,181.3 L 548.96997,181.3 A 9,9,0,0,1,539.96997,172.3 L 539.96997,155.03 A 9,9,0,0,1,548.96997,146.03"></path>
    <path width="144.33" height="50.560001" class="D TtLrvhhC_7" id="rect6514" style="fill:#ff2a2a;stroke:none" d="M 452.60999,421.35999 L 568.93999,421.35999 A 14,14,0,0,1,582.93999,435.35999 L 582.93999,457.919991 A 14,14,0,0,1,568.93999,471.919991 L 452.60999,471.919991 A 14,14,0,0,1,438.60999,457.919991 L 438.60999,435.35999 A 14,14,0,0,1,452.60999,421.35999"></path>
    <path width="131.42999" height="46.560001" class="D TtLrvhhC_8" id="rect6516" style="fill:#ff2a2a;stroke:none" d="M 73.58000200000001,304 L 181.009992,304 A 12,12,0,0,1,193.009992,316 L 193.009992,338.560001 A 12,12,0,0,1,181.009992,350.560001 L 73.58000200000001,350.560001 A 12,12,0,0,1,61.580002,338.560001 L 61.580002,316 A 12,12,0,0,1,73.58000200000001,304"></path>
    <path width="102.57" height="39.779999" class="D TtLrvhhC_9" id="rect6518" style="fill:#ff2a2a;stroke:none" d="M 113.23,415.5 L 195.8,415.5 A 10,10,0,0,1,205.8,425.5 L 205.8,445.279999 A 10,10,0,0,1,195.8,455.279999 L 113.23,455.279999 A 10,10,0,0,1,103.23,445.279999 L 103.23,425.5 A 10,10,0,0,1,113.23,415.5"></path>
    <path d="m 408.46,242.81 q 0,-36.75 18.85,-57.22 18.85,-20.47 52.51,-20.47 34.5,0 53.16,20.11 18.66,20.11 18.67,56.35 0,26.31 -8.16,43.15 a 61,61 0 0 1 -23.57,26.2 q -15.4,9.33 -38.41,9.33 -23.37,0 -38.69,-8.09 -15.32,-8.09 -24.79,-25.55 -9.57,-17.5 -9.57,-43.81 z m 42.7,0.21 q 0,22.73 7.78,32.65 7.78,9.92 21.16,9.93 13.76,0 21.3,-9.73 7.54,-9.73 7.54,-34.9 0,-21.19 -7.87,-31 -7.87,-9.81 -21.35,-9.71 a 25.1,25.1 0 0 0 -20.69,9.9 q -7.86,9.93 -7.87,32.86 z m -320.22,26.41 40.86,-2.56 q 1.33,10 5.41,15.17 6.63,8.45 19,8.44 9.2,0 14.17,-4.32 4.97,-4.32 5,-10 0,-5.4 -4.74,-9.67 -4.74,-4.27 -22,-8.06 -28.25,-6.35 -40.29,-16.87 a 33.94,33.94 0 0 1 -12.13,-26.83 36.44,36.44 0 0 1 6.21,-20.24 q 6.21,-9.53 18.67,-15 12.46,-5.47 34.18,-5.45 26.64,0 40.62,9.91 13.98,9.91 16.64,31.52 l -40.51,2.39 q -1.62,-9.39 -6.78,-13.65 -5.16,-4.26 -14.27,-4.27 -7.48,0 -11.28,3.18 a 9.73,9.73 0 0 0 -3.79,7.73 7.73,7.73 0 0 0 3.13,6 q 3,2.74 14.41,5.12 28.16,6.06 40.34,12.27 12.18,6.21 17.72,15.41 a 39,39 0 0 1 5.52,20.54 44.07,44.07 0 0 1 -7.4,24.65 46.2,46.2 0 0 1 -20.66,17.11 q -13.27,5.83 -33.47,5.83 -35.44,0 -49.1,-13.65 -13.66,-13.65 -15.46,-34.7 z m 147.61,-93 h 115.09 v 29.68 h -72.05 v 22.08 h 66.83 v 28.35 h -66.83 v 27.4 h 74.13 v 31.47 H 278.55 Z" opacity="0.37" id="path6520" style="fill:#ff2a2a;stroke:none" class="TtLrvhhC_10"></path>
  </g>
  <g class="H" id="g6528" style="fill:#ffffff;stroke:none;stroke-width:2.078" transform="matrix(0.836848,0,0,0.833356,-3.855188,0.714629)">
    <path d="m 132.08,247.32 40.86,-2.56 q 1.32,10 5.4,15.17 6.65,8.44 19,8.44 9.19,0 14.17,-4.32 4.98,-4.32 5,-10 0,-5.4 -4.74,-9.67 -4.74,-4.27 -22,-8.06 -28.26,-6.35 -40.29,-16.87 a 34,34 0 0 1 -12.14,-26.83 36.44,36.44 0 0 1 6.21,-20.24 q 6.21,-9.52 18.68,-15 12.47,-5.48 34.17,-5.45 26.64,0 40.63,9.91 13.99,9.91 16.63,31.52 l -40.48,2.37 q -1.6,-9.39 -6.78,-13.65 -5.18,-4.26 -14.26,-4.27 -7.5,0 -11.28,3.18 a 9.73,9.73 0 0 0 -3.8,7.72 7.73,7.73 0 0 0 3.13,6 q 3,2.76 14.41,5.13 28.15,6.06 40.34,12.27 12.19,6.21 17.73,15.41 a 39.12,39.12 0 0 1 5.54,20.57 44.14,44.14 0 0 1 -7.39,24.65 46.29,46.29 0 0 1 -20.67,17.11 q -13.27,5.84 -33.46,5.83 -35.46,0 -49.11,-13.65 -13.65,-13.65 -15.5,-34.71 z m 147.6,-93 h 115.09 v 29.67 h -72.05 v 22.09 h 66.84 v 28.35 h -66.84 v 27.4 h 74.14 v 31.43 H 279.68 Z" id="path6524" style="fill:#ffffff;stroke:none" class="TtLrvhhC_11"></path>
    <path width="397.62" height="46.869999" id="rect6526" style="fill:#ffffff;stroke:none" d="M 152.14999,358.59 L 521.76999,358.59 A 14,14,0,0,1,535.76999,372.59 L 535.76999,391.459999 A 14,14,0,0,1,521.76999,405.459999 L 152.14999,405.459999 A 14,14,0,0,1,138.14999,391.459999 L 138.14999,372.59 A 14,14,0,0,1,152.14999,358.59" class="TtLrvhhC_12"></path>
  </g>
  <path d="m 437.43067,298.80621 c -1.606,-0.63 -3.307,-0.949 -5.021,-0.942 h -308.57 c -7.597,0.004 -13.76,6.126 -13.783,13.693 v 15.001 c 0.019,7.569 6.183,13.696 13.783,13.7 h 308.604 c 7.576,-0.05 13.703,-6.156 13.749,-13.7 v -15.001 c -0.004,-5.642 -3.482,-10.704 -8.762,-12.75 z m 5.398,27.784 c -0.013,5.706 -4.656,10.329 -10.385,10.342 h -308.604 c -5.741,0 -10.4,-4.625 -10.419,-10.342 v -15.001 c 0.024,-5.713 4.682,-10.334 10.419,-10.334 h 308.604 c 5.727,0.014 10.367,4.631 10.385,10.334 z" class="D TtLrvhhC_13" id="path6532" style="fill:#ffffff;stroke:none;stroke-width:1.449;opacity:1;stroke-opacity:1"></path>
  <path d="m 123.68867,322.83221 c 0.684,0.422 1.459,0.654 2.251,0.675 1.239,0 1.816,-0.616 1.816,-1.391 0,-0.775 -0.485,-1.25 -1.741,-1.717 -1.674,-0.6 -2.511,-1.525 -2.511,-2.642 0,-1.508 1.221,-2.742 3.238,-2.742 a 4.71,4.71 0 0 1 2.31,0.576 l -0.427,1.242 a 3.65,3.65 0 0 0 -1.916,-0.542 c -1.012,0 -1.573,0.576 -1.573,1.275 0,0.699 0.561,1.117 1.782,1.583 1.632,0.608 2.46,1.425 2.46,2.816 0,1.666 -1.28,2.8 -3.506,2.8 a 5.4,5.4 0 0 1 -2.637,-0.641 z m 8.887,-2.626 a 2.99,2.99 0 0 0 0.847,2.341 3.01,3.01 0 0 0 2.332,0.893 c 0.892,0.031 1.781,-0.135 2.602,-0.483 l 0.293,1.217 c -0.993,0.414 -2.055,0.613 -3.122,0.583 -2.895,0 -4.619,-1.892 -4.619,-4.716 0,-2.824 1.674,-5 4.402,-5 3.063,0 3.874,2.684 3.874,4.4 a 7.23,7.23 0 0 1 -0.051,0.792 z m 5.021,-1.217 c 0,-1.083 -0.451,-2.758 -2.369,-2.758 -1.724,0 -2.511,1.575 -2.619,2.758 z m 8.896,5.576 -0.134,-1.175 h -0.059 a 3.51,3.51 0 0 1 -2.87,1.391 2.68,2.68 0 0 1 -2.025,-0.716 c -0.539,-0.496 -0.848,-1.214 -0.845,-1.968 0,-2.258 2.017,-3.492 5.641,-3.475 v -0.183 a 1.92,1.92 0 0 0 -0.534,-1.598 c -0.425,-0.427 -1.008,-0.634 -1.592,-0.568 -0.859,10e-4 -1.702,0.242 -2.444,0.699 l -0.394,-1.125 c 0.932,-0.558 2.001,-0.847 3.088,-0.833 2.87,0 3.565,1.95 3.565,3.816 v 3.5 a 13.03,13.03 0 0 0 0.15,2.233 z m -0.252,-4.767 c -1.858,-0.042 -3.975,0.292 -3.975,2.108 -0.035,0.436 0.122,0.865 0.431,1.176 a 1.51,1.51 0 0 0 1.175,0.441 c 1.017,0.03 1.935,-0.602 2.267,-1.559 a 1.79,1.79 0 0 0 0.1,-0.542 z m 4.394,-1.659 -0.075,-2.917 h 1.489 l 0.059,1.833 h 0.075 c 0.333,-1.17 1.382,-1.994 2.602,-2.041 a 1.74,1.74 0 0 1 0.485,0.058 v 1.601 a 2.4,2.4 0 0 0 -0.585,-0.058 2.39,2.39 0 0 0 -2.285,2.184 4.38,4.38 0 0 0 -0.075,0.792 v 5 h -1.674 z m 12.829,6.083 a 6.26,6.26 0 0 1 -2.694,0.542 c -2.828,0 -4.67,-1.916 -4.67,-4.775 -0.058,-1.356 0.456,-2.671 1.403,-3.591 0.957,-0.946 2.272,-1.442 3.618,-1.368 a 5.75,5.75 0 0 1 2.369,0.483 l -0.394,1.317 a 3.93,3.93 0 0 0 -1.975,-0.451 c -2.151,0 -3.348,1.583 -3.348,3.533 -0.083,0.906 0.223,1.805 0.845,2.472 a 3.23,3.23 0 0 0 2.411,1.027 4.9,4.9 0 0 0 2.092,-0.467 z m 1.991,-13.358 h 1.674 v 5.833 a 3.24,3.24 0 0 1 1.221,-1.2 3.6,3.6 0 0 1 1.749,-0.475 c 1.264,0 3.272,0.766 3.272,3.992 v 5.558 h -1.674 v -5.366 c 0,-1.5 -0.561,-2.775 -2.168,-2.775 -1.039,0.017 -1.955,0.685 -2.285,1.666 a 1.97,1.97 0 0 0 -0.118,0.833 v 5.634 h -1.674 z" opacity="0.56" id="path6534" style="fill:#ff0000;stroke:none;stroke-width:1.449;opacity:1" class="TtLrvhhC_14"></path>
  <path d="m 446.19267,311.55721 v 15.001 a 13.51,13.51 0 0 1 -5.489,10.908 h -40.168 v -38.66 h 36.905 c 5.277,2.049 8.751,7.111 8.753,12.75 z" id="path6536" style="fill:#ffffff;stroke:none;stroke-width:1.449" class="TtLrvhhC_15"></path>
  <path d="m 418.25967,325.80621 c -4.784,0.004 -9.099,-2.865 -10.932,-7.265 a 11.74,11.74 0 0 1 2.561,-12.836 c 3.383,-3.368 8.471,-4.376 12.89,-2.551 4.419,1.825 7.299,6.121 7.296,10.886 -0.014,6.493 -5.297,11.753 -11.817,11.768 z m 0,-20.267 c -3.453,-0.004 -6.568,2.066 -7.892,5.241 -1.324,3.175 -0.596,6.833 1.845,9.266 2.441,2.433 6.112,3.162 9.304,1.847 3.192,-1.315 5.271,-4.416 5.272,-7.855 0,-4.69 -3.817,-8.496 -8.528,-8.501 z" id="path6540" style="fill:#ff0800;fill-opacity:1;stroke:none;stroke-width:1.449" class="TtLrvhhC_16"></path>
  <path d="m 422.43267,322.28821 2.783,-2.192 7.844,9.876 -2.783,2.192 z m 20.463,-179.578 q -15.281,-15.75 -43.441,-15.776 -27.508,0 -42.939,16.042 c -10.243,10.741 -15.406,25.676 -15.406,44.909 q 0,20.642 7.791,34.368 7.791,13.726 20.319,20.068 12.494,6.35 31.616,6.342 18.803,0 31.374,-7.351 c 8.301,-4.814 14.995,-11.956 19.248,-20.534 q 6.611,-13.251 6.637,-33.868 0.016,-28.384 -15.197,-44.201 z m -66.864,45.344 q 0,-18.025 6.369,-25.776 c 3.855,-4.835 9.701,-7.671 15.9,-7.717 a 5.48,5.48 0 0 1 1.046,-0.067 q 11.004,0 17.456,7.65 c 2.575,3.279 4.33,7.12 5.121,11.208 0.927,4.302 1.368,8.693 1.314,13.092 0,2.95 -0.1,5.667 -0.301,8.217 q -1.071,13.251 -5.858,19.167 -6.168,7.601 -17.424,7.617 -10.879,0 -17.29,-7.784 c -4.185,-5.167 -6.302,-13.559 -6.334,-25.276 z" id="path6542" style="fill:#ffffff;fill-opacity:1;stroke:none;stroke-width:1.449" class="TtLrvhhC_17"></path>
  <use xlink:href="#J" transform="matrix(0.836848,0,0,0.833356,-3.855188,0.714629)" class="E F" id="use6546" x="0" y="0" width="100%" height="100%" style="stroke:none"></use>
  <use xlink:href="#J" x="1.97" y="47.740002" fill="url(#L)" id="use6548" style="fill:url(#L);stroke:none;stroke-width:2.078" width="100%" height="100%" transform="matrix(0.836848,0,0,0.833356,-5.503777,-39.069752)"></use>
  <path d="m 418.68611,196.82833 q -0.83685,13.24203 -4.39346,19.16719 c -3.0796,5.0668 -7.42284,7.62521 -13.05483,7.62521 q -8.18437,0 -12.9544,-7.79188 c -3.12981,-5.16681 -4.71982,-13.5587 -4.74493,-25.26736 q 0.56069,-3.33342 1.36406,-6.44184 a 21.055096,20.967237 0 0 0 5.75752,-7.08352 c 2.19254,-4.33346 3.34739,-9.6336 6.08388,-13.3337 a 21.850101,21.758925 0 0 0 2.70302,-3.79177 9.5902781,9.5502598 0 0 0 0.77827,-3.15842 64.144399,63.876737 0 0 0 -0.0753,-6.90852 28.277094,28.159099 0 0 1 2.51055,-11.85032 c 5.22193,0.1 10.37691,3.25842 15.49842,4.50012 2.25112,5.00014 -1.67369,11.44198 -0.57742,17.11713 0.37658,2.00839 1.38916,3.7251 1.81596,5.73349 0.71132,3.42509 -0.37659,6.78352 -1.43938,10.20861 a 44.763,44.576212 0 0 0 -1.21343,4.72513 c -1.01259,5.50848 0.30126,11.1753 1.94149,16.55045 z" fill="url(#M)" id="path6550" style="fill:url(#M);stroke:none;stroke-width:1.73534" class="TtLrvhhC_18"></path>
  <path d="m 401.73993,164.17744 1.08791,-1.20836 a 26.628503,26.517388 0 0 1 -5.85794,17.29213 c -1.81596,2.2334 -4.07545,4.30012 -4.7784,7.09186 a 33.298182,33.159235 0 0 0 14.36031,-21.41725 c 0.58579,-3.09175 0.83685,-6.47517 2.81181,-8.91691 l 0.41005,4.25845 a 87.735144,87.369043 0 0 0 4.49388,-10.20027 c 0.25105,-0.67502 0.4519,-1.54171 -0.0921,-2.01672 a 1.8745395,1.8667174 0 0 0 -1.06279,-0.34168 c -3.34739,-0.32501 -7.063,-1.43337 -8.78691,1.95005 -1.96659,3.88344 -2.41849,9.25859 -2.58586,13.5087 z" fill="url(#C)" id="path6552" style="fill:url(#C);stroke:none;stroke-width:1.73534" class="TtLrvhhC_19"></path>
  <use xlink:href="#N" class="E" id="use6556" x="0" y="0" width="100%" height="100%" style="stroke:none;stroke-width:0.996" transform="matrix(1.175439,0,0,1.237912,-103.31782,-100.62061)"></use>
  <use xlink:href="#N" fill="url(#D)" id="use6558" style="fill:url(#D);stroke:none;stroke-width:0.996" x="0" y="0" width="100%" height="100%" transform="matrix(1.175439,0,0,1.237912,-103.31782,-100.62061)"></use>
  <use xlink:href="#O" class="E" id="use6560" x="0" y="0" width="100%" height="100%" style="stroke:none;stroke-width:0.996" transform="matrix(1.175439,0,0,1.237912,-103.31782,-100.62061)"></use>
  <use xlink:href="#O" fill="url(#E)" id="use6562" style="fill:url(#E);stroke:none;stroke-width:0.996" x="0" y="0" width="100%" height="100%" transform="matrix(1.175439,0,0,1.237912,-103.31782,-100.62061)"></use>
  <use xlink:href="#K" class="E" id="use6566" x="0" y="0" width="100%" height="100%" style="stroke:none;stroke-width:2.078" transform="matrix(0.836848,0,0,0.833356,-3.855188,0.714629)"></use>
  <use xlink:href="#K" fill="url(#F)" id="use6568" style="fill:url(#F);stroke:none;stroke-width:2.078" x="0" y="0" width="100%" height="100%" transform="matrix(0.836848,0,0,0.833356,-3.855188,0.714629)"></use>
  <path d="m 432.33467,123.18521 c 3.473,5.366 7.047,11.034 7.482,17.393 0.327,4.741 -1.138,9.401 -2.578,13.925 -0.384,1.217 -1.012,2.642 -2.285,2.809 -1.448,0.183 -2.419,-1.391 -2.946,-2.742 -1.774,-4.558 -3.013,-9.466 -6.084,-13.284 a 7.372,7.342 0 0 1 -1.347,-2.017 6.109,6.083 0 0 1 0.075,-3.184 l 3.606,-17.5 c 1.833,1.034 2.929,2.816 4.075,4.6 z" class="E G TtLrvhhC_20" id="path6572" style="stroke:none"></path>
  <path d="m 432.30999,123.33467 c 3.46455,5.35847 7.03789,11.0253 7.47305,17.39214 0.32637,4.73346 -1.12974,9.39192 -2.57749,13.92537 -0.38495,1.2167 -1.01258,2.64174 -2.28459,2.80008 -1.43938,0.18334 -2.41849,-1.3917 -2.94571,-2.74174 -1.77412,-4.55846 -3.01265,-9.45859 -6.07551,-13.27536 a 7.1885243,7.158528 0 0 1 -1.34733,-2.01672 6.0169371,5.9918296 0 0 1 0.0669,-3.18342 l 3.60681,-17.50048 c 1.84107,1.03336 2.92897,2.81674 4.08382,4.60013 z" fill="url(#G)" id="path6574" style="fill:url(#G);stroke:none;stroke-width:1.73534" class="TtLrvhhC_21"></path>
  <path d="m 409.33851,167.93588 a 27.615984,27.500748 0 0 0 -2.02517,6.48351 c -0.30126,2.21673 -0.0502,4.47512 -0.25105,6.66685 -0.39332,4.51679 -2.57749,8.65856 -3.79092,13.03368 -1.72391,6.23351 -1.43101,12.81702 -1.12138,19.26719 l 7.42284,-23.78398 a 37.315052,37.159344 0 0 0 1.6737,-6.66684 52.303,52.08475 0 0 0 -0.0419,-7.73355 77.885443,77.560443 0 0 1 0.92054,-13.47536 c -1.28038,1.77504 -1.95823,4.15844 -2.78671,6.2085 z" fill="url(#H)" id="path6576" style="fill:url(#H);stroke:none;stroke-width:1.73534" class="TtLrvhhC_22"></path>
  <path class="E TtLrvhhC_23" id="ellipse6580" style="stroke:none;stroke-width:1.449" d="M413.2245199,94.151726A5.9920001,5.967 0,1,1 425.2085201,94.151726A5.9920001,5.967 0,1,1 413.2245199,94.151726"></path>
  <path fill="url(#I)" id="ellipse6582" style="fill:url(#I);stroke:none;stroke-width:1.449" d="M414.3371298,93.873207A4.8790002,4.8590002 0,1,1 424.0951302,93.873207A4.8790002,4.8590002 0,1,1 414.3371298,93.873207" class="TtLrvhhC_24"></path>
  <path width="116.087" height="40.493" class="H TtLrvhhC_25" id="rect6584" style="stroke:#ff0000;stroke-width:1.449;stroke-opacity:1" d="M 378.74768,358.18323 L 472.83468,358.18323 A 11,11,0,0,1,483.83468,369.18323 L 483.83468,387.67623 A 11,11,0,0,1,472.83468,398.67623 L 378.74768,398.67623 A 11,11,0,0,1,367.74768,387.67623 L 367.74768,369.18323 A 11,11,0,0,1,378.74768,358.18323"></path>
  <path width="94.003136" height="3.483428" class="D TtLrvhhC_26" id="rect6588" style="fill:#ff0000;stroke:none;stroke-width:1.73534" d="M 380.76431,369.28299 L 472.767446,369.28299 A 1,1,0,0,1,473.767446,370.28299 L 473.767446,371.766418 A 1,1,0,0,1,472.767446,372.766418 L 380.76431,372.766418 A 1,1,0,0,1,379.76431,371.766418 L 379.76431,370.28299 A 1,1,0,0,1,380.76431,369.28299"></path>
  <path width="66.161201" height="3.2917562" class="D TtLrvhhC_27" id="rect6590" style="fill:#ff0000;stroke:none;stroke-width:1.73534" d="M 380.76431,378.91656 L 444.92551100000003,378.91656 A 1,1,0,0,1,445.92551100000003,379.91656 L 445.92551100000003,381.2083162 A 1,1,0,0,1,444.92551100000003,382.2083162 L 380.76431,382.2083162 A 1,1,0,0,1,379.76431,381.2083162 L 379.76431,379.91656 A 1,1,0,0,1,380.76431,378.91656"></path>
  <path width="116.087" height="40.493" class="G H TtLrvhhC_28" id="rect6594" style="stroke:#ff0000;stroke-opacity:1" d="M 48.26667,245.27921 L 142.35367,245.27921 A 11,11,0,0,1,153.35367,256.27921000000003 L 153.35367,274.77221000000003 A 11,11,0,0,1,142.35367,285.77221000000003 L 48.26667,285.77221000000003 A 11,11,0,0,1,37.26667,274.77221000000003 L 37.26667,256.27921000000003 A 11,11,0,0,1,48.26667,245.27921"></path>
  <path width="94.003136" height="3.483428" class="D TtLrvhhC_29" id="rect6596" style="fill:#ff0000;stroke:none;stroke-width:1.73534" d="M 50.293026,256.37991 L 142.29616199999998,256.37991 A 1,1,0,0,1,143.29616199999998,257.37991 L 143.29616199999998,258.863338 A 1,1,0,0,1,142.29616199999998,259.863338 L 50.293026,259.863338 A 1,1,0,0,1,49.293026,258.863338 L 49.293026,257.37991 A 1,1,0,0,1,50.293026,256.37991"></path>
  <path width="66.161201" height="3.2917562" class="D TtLrvhhC_30" id="rect6598" style="fill:#ff0000;stroke:none;stroke-width:1.73534" d="M 50.293026,266.01352 L 114.454227,266.01352 A 1,1,0,0,1,115.454227,267.01352 L 115.454227,268.30527620000004 A 1,1,0,0,1,114.454227,269.30527620000004 L 50.293026,269.30527620000004 A 1,1,0,0,1,49.293026,268.30527620000004 L 49.293026,267.01352 A 1,1,0,0,1,50.293026,266.01352"></path>
  <path width="84.253998" height="29.393" class="G H TtLrvhhC_31" id="rect6602" style="stroke:#ff0000;stroke-opacity:1" d="M 88.524673,351.17422 L 156.778671,351.17422 A 8,8,0,0,1,164.778671,359.17422 L 164.778671,372.56722 A 8,8,0,0,1,156.778671,380.56722 L 88.524673,380.56722 A 8,8,0,0,1,80.524673,372.56722 L 80.524673,359.17422 A 8,8,0,0,1,88.524673,351.17422"></path>
  <path width="68.228218" height="2.5250688" class="D TtLrvhhC_32" id="rect6604" style="fill:#d40000;stroke:none;stroke-width:1.73534" d="M 90.252525,359.2327 L 156.48074300000002,359.2327 A 1,1,0,0,1,157.48074300000002,360.2327 L 157.48074300000002,360.7577688 A 1,1,0,0,1,156.48074300000002,361.7577688 L 90.252525,361.7577688 A 1,1,0,0,1,89.252525,360.7577688 L 89.252525,360.2327 A 1,1,0,0,1,90.252525,359.2327"></path>
  <path width="48.026707" height="2.3917317" class="D TtLrvhhC_33" id="rect6606" style="fill:#d40000;stroke:none;stroke-width:1.73534" d="M 90.252525,366.22458 L 136.279232,366.22458 A 1,1,0,0,1,137.279232,367.22458 L 137.279232,367.6163117 A 1,1,0,0,1,136.279232,368.6163117 L 90.252525,368.6163117 A 1,1,0,0,1,89.252525,367.6163117 L 89.252525,367.22458 A 1,1,0,0,1,90.252525,366.22458"></path>
  <path width="84.253998" height="29.393" class="G H TtLrvhhC_34" id="rect6610" style="stroke:#ff0000;stroke-opacity:1" d="M 456.23669,115.26987 L 524.490688,115.26987 A 8,8,0,0,1,532.490688,123.26987 L 532.490688,136.66287 A 8,8,0,0,1,524.490688,144.66287 L 456.23669,144.66287 A 8,8,0,0,1,448.23669,136.66287 L 448.23669,123.26987 A 8,8,0,0,1,456.23669,115.26987"></path>
  <path width="68.228218" height="2.5250688" class="D TtLrvhhC_35" id="rect6612" style="fill:#ff0000;stroke:none;stroke-width:1.73534" d="M 460.51593,121.33458 L 526.744148,121.33458 A 1,1,0,0,1,527.744148,122.33458 L 527.744148,122.8596488 A 1,1,0,0,1,526.744148,123.8596488 L 460.51593,123.8596488 A 1,1,0,0,1,459.51593,122.8596488 L 459.51593,122.33458 A 1,1,0,0,1,460.51593,121.33458"></path>
  <path width="48.026707" height="2.3917317" class="D TtLrvhhC_36" id="rect6614" style="fill:#ff0000;stroke:none;stroke-width:1.73534" d="M 460.51593,128.32643 L 506.542637,128.32643 A 1,1,0,0,1,507.542637,129.32643 L 507.542637,129.7181617 A 1,1,0,0,1,506.542637,130.7181617 L 460.51593,130.7181617 A 1,1,0,0,1,459.51593,129.7181617 L 459.51593,129.32643 A 1,1,0,0,1,460.51593,128.32643"></path>
  <path d="m 176.91235,305.21458 h 1.26364 v 24.56733 h -1.26364 z" class="D TtLrvhhC_37" id="path6616" style="fill:#ff0000;stroke:none;stroke-width:1.73534"></path>
<style data-made-with="vivus-instant">.TtLrvhhC_0{stroke-dasharray:270 272;stroke-dashoffset:271;animation:TtLrvhhC_draw_0 6200ms ease-in-out 0ms infinite,TtLrvhhC_fade 6200ms linear 0ms infinite;}.TtLrvhhC_1{stroke-dasharray:104 106;stroke-dashoffset:105;animation:TtLrvhhC_draw_1 6200ms ease-in-out 0ms infinite,TtLrvhhC_fade 6200ms linear 0ms infinite;}.TtLrvhhC_2{stroke-dasharray:51 53;stroke-dashoffset:52;animation:TtLrvhhC_draw_2 6200ms ease-in-out 0ms infinite,TtLrvhhC_fade 6200ms linear 0ms infinite;}.TtLrvhhC_3{stroke-dasharray:148 150;stroke-dashoffset:149;animation:TtLrvhhC_draw_3 6200ms ease-in-out 0ms infinite,TtLrvhhC_fade 6200ms linear 0ms infinite;}.TtLrvhhC_4{stroke-dasharray:1653 1655;stroke-dashoffset:1654;animation:TtLrvhhC_draw_4 6200ms ease-in-out 0ms infinite,TtLrvhhC_fade 6200ms linear 0ms infinite;}.TtLrvhhC_5{stroke-dasharray:1366 1368;stroke-dashoffset:1367;animation:TtLrvhhC_draw_5 6200ms ease-in-out 0ms infinite,TtLrvhhC_fade 6200ms linear 0ms infinite;}.TtLrvhhC_6{stroke-dasharray:257 259;stroke-dashoffset:258;animation:TtLrvhhC_draw_6 6200ms ease-in-out 0ms infinite,TtLrvhhC_fade 6200ms linear 0ms infinite;}.TtLrvhhC_7{stroke-dasharray:366 368;stroke-dashoffset:367;animation:TtLrvhhC_draw_7 6200ms ease-in-out 0ms infinite,TtLrvhhC_fade 6200ms linear 0ms infinite;}.TtLrvhhC_8{stroke-dasharray:336 338;stroke-dashoffset:337;animation:TtLrvhhC_draw_8 6200ms ease-in-out 0ms infinite,TtLrvhhC_fade 6200ms linear 0ms infinite;}.TtLrvhhC_9{stroke-dasharray:268 270;stroke-dashoffset:269;animation:TtLrvhhC_draw_9 6200ms ease-in-out 0ms infinite,TtLrvhhC_fade 6200ms linear 0ms infinite;}.TtLrvhhC_10{stroke-dasharray:2261 2263;stroke-dashoffset:2262;animation:TtLrvhhC_draw_10 6200ms ease-in-out 0ms infinite,TtLrvhhC_fade 6200ms linear 0ms infinite;}.TtLrvhhC_11{stroke-dasharray:1546 1548;stroke-dashoffset:1547;animation:TtLrvhhC_draw_11 6200ms ease-in-out 0ms infinite,TtLrvhhC_fade 6200ms linear 0ms infinite;}.TtLrvhhC_12{stroke-dasharray:865 867;stroke-dashoffset:866;animation:TtLrvhhC_draw_12 6200ms ease-in-out 0ms infinite,TtLrvhhC_fade 6200ms linear 0ms infinite;}.TtLrvhhC_13{stroke-dasharray:1446 1448;stroke-dashoffset:1447;animation:TtLrvhhC_draw_13 6200ms ease-in-out 0ms infinite,TtLrvhhC_fade 6200ms linear 0ms infinite;}.TtLrvhhC_14{stroke-dasharray:275 277;stroke-dashoffset:276;animation:TtLrvhhC_draw_14 6200ms ease-in-out 0ms infinite,TtLrvhhC_fade 6200ms linear 0ms infinite;}.TtLrvhhC_15{stroke-dasharray:160 162;stroke-dashoffset:161;animation:TtLrvhhC_draw_15 6200ms ease-in-out 0ms infinite,TtLrvhhC_fade 6200ms linear 0ms infinite;}.TtLrvhhC_16{stroke-dasharray:128 130;stroke-dashoffset:129;animation:TtLrvhhC_draw_16 6200ms ease-in-out 0ms infinite,TtLrvhhC_fade 6200ms linear 0ms infinite;}.TtLrvhhC_17{stroke-dasharray:604 606;stroke-dashoffset:605;animation:TtLrvhhC_draw_17 6200ms ease-in-out 0ms infinite,TtLrvhhC_fade 6200ms linear 0ms infinite;}.TtLrvhhC_18{stroke-dasharray:207 209;stroke-dashoffset:208;animation:TtLrvhhC_draw_18 6200ms ease-in-out 0ms infinite,TtLrvhhC_fade 6200ms linear 0ms infinite;}.TtLrvhhC_19{stroke-dasharray:108 110;stroke-dashoffset:109;animation:TtLrvhhC_draw_19 6200ms ease-in-out 0ms infinite,TtLrvhhC_fade 6200ms linear 0ms infinite;}.TtLrvhhC_20{stroke-dasharray:86 88;stroke-dashoffset:87;animation:TtLrvhhC_draw_20 6200ms ease-in-out 0ms infinite,TtLrvhhC_fade 6200ms linear 0ms infinite;}.TtLrvhhC_21{stroke-dasharray:86 88;stroke-dashoffset:87;animation:TtLrvhhC_draw_21 6200ms ease-in-out 0ms infinite,TtLrvhhC_fade 6200ms linear 0ms infinite;}.TtLrvhhC_22{stroke-dasharray:107 109;stroke-dashoffset:108;animation:TtLrvhhC_draw_22 6200ms ease-in-out 0ms infinite,TtLrvhhC_fade 6200ms linear 0ms infinite;}.TtLrvhhC_23{stroke-dasharray:38 40;stroke-dashoffset:39;animation:TtLrvhhC_draw_23 6200ms ease-in-out 0ms infinite,TtLrvhhC_fade 6200ms linear 0ms infinite;}.TtLrvhhC_24{stroke-dasharray:31 33;stroke-dashoffset:32;animation:TtLrvhhC_draw_24 6200ms ease-in-out 0ms infinite,TtLrvhhC_fade 6200ms linear 0ms infinite;}.TtLrvhhC_25{stroke-dasharray:295 297;stroke-dashoffset:296;animation:TtLrvhhC_draw_25 6200ms ease-in-out 0ms infinite,TtLrvhhC_fade 6200ms linear 0ms infinite;}.TtLrvhhC_26{stroke-dasharray:194 196;stroke-dashoffset:195;animation:TtLrvhhC_draw_26 6200ms ease-in-out 0ms infinite,TtLrvhhC_fade 6200ms linear 0ms infinite;}.TtLrvhhC_27{stroke-dasharray:138 140;stroke-dashoffset:139;animation:TtLrvhhC_draw_27 6200ms ease-in-out 0ms infinite,TtLrvhhC_fade 6200ms linear 0ms infinite;}.TtLrvhhC_28{stroke-dasharray:295 297;stroke-dashoffset:296;animation:TtLrvhhC_draw_28 6200ms ease-in-out 0ms infinite,TtLrvhhC_fade 6200ms linear 0ms infinite;}.TtLrvhhC_29{stroke-dasharray:194 196;stroke-dashoffset:195;animation:TtLrvhhC_draw_29 6200ms ease-in-out 0ms infinite,TtLrvhhC_fade 6200ms linear 0ms infinite;}.TtLrvhhC_30{stroke-dasharray:138 140;stroke-dashoffset:139;animation:TtLrvhhC_draw_30 6200ms ease-in-out 0ms infinite,TtLrvhhC_fade 6200ms linear 0ms infinite;}.TtLrvhhC_31{stroke-dasharray:214 216;stroke-dashoffset:215;animation:TtLrvhhC_draw_31 6200ms ease-in-out 0ms infinite,TtLrvhhC_fade 6200ms linear 0ms infinite;}.TtLrvhhC_32{stroke-dasharray:140 142;stroke-dashoffset:141;animation:TtLrvhhC_draw_32 6200ms ease-in-out 0ms infinite,TtLrvhhC_fade 6200ms linear 0ms infinite;}.TtLrvhhC_33{stroke-dasharray:100 102;stroke-dashoffset:101;animation:TtLrvhhC_draw_33 6200ms ease-in-out 0ms infinite,TtLrvhhC_fade 6200ms linear 0ms infinite;}.TtLrvhhC_34{stroke-dasharray:214 216;stroke-dashoffset:215;animation:TtLrvhhC_draw_34 6200ms ease-in-out 0ms infinite,TtLrvhhC_fade 6200ms linear 0ms infinite;}.TtLrvhhC_35{stroke-dasharray:140 142;stroke-dashoffset:141;animation:TtLrvhhC_draw_35 6200ms ease-in-out 0ms infinite,TtLrvhhC_fade 6200ms linear 0ms infinite;}.TtLrvhhC_36{stroke-dasharray:100 102;stroke-dashoffset:101;animation:TtLrvhhC_draw_36 6200ms ease-in-out 0ms infinite,TtLrvhhC_fade 6200ms linear 0ms infinite;}.TtLrvhhC_37{stroke-dasharray:52 54;stroke-dashoffset:53;animation:TtLrvhhC_draw_37 6200ms ease-in-out 0ms infinite,TtLrvhhC_fade 6200ms linear 0ms infinite;}@keyframes TtLrvhhC_draw{100%{stroke-dashoffset:0;}}@keyframes TtLrvhhC_fade{0%{stroke-opacity:1;}93.54838709677419%{stroke-opacity:1;}100%{stroke-opacity:0;}}@keyframes TtLrvhhC_draw_0{12.903225806451612%{stroke-dashoffset: 271}34.40860215053764%{ stroke-dashoffset: 0;}100%{ stroke-dashoffset: 0;}}@keyframes TtLrvhhC_draw_1{13.193839000290614%{stroke-dashoffset: 105}34.69921534437664%{ stroke-dashoffset: 0;}100%{ stroke-dashoffset: 0;}}@keyframes TtLrvhhC_draw_2{13.484452194129615%{stroke-dashoffset: 52}34.98982853821563%{ stroke-dashoffset: 0;}100%{ stroke-dashoffset: 0;}}@keyframes TtLrvhhC_draw_3{13.775065387968613%{stroke-dashoffset: 149}35.28044173205464%{ stroke-dashoffset: 0;}100%{ stroke-dashoffset: 0;}}@keyframes TtLrvhhC_draw_4{14.065678581807614%{stroke-dashoffset: 1654}35.571054925893634%{ stroke-dashoffset: 0;}100%{ stroke-dashoffset: 0;}}@keyframes TtLrvhhC_draw_5{14.356291775646616%{stroke-dashoffset: 1367}35.861668119732634%{ stroke-dashoffset: 0;}100%{ stroke-dashoffset: 0;}}@keyframes TtLrvhhC_draw_6{14.646904969485616%{stroke-dashoffset: 258}36.152281313571635%{ stroke-dashoffset: 0;}100%{ stroke-dashoffset: 0;}}@keyframes TtLrvhhC_draw_7{14.937518163324615%{stroke-dashoffset: 367}36.44289450741064%{ stroke-dashoffset: 0;}100%{ stroke-dashoffset: 0;}}@keyframes TtLrvhhC_draw_8{15.228131357163615%{stroke-dashoffset: 337}36.73350770124964%{ stroke-dashoffset: 0;}100%{ stroke-dashoffset: 0;}}@keyframes TtLrvhhC_draw_9{15.518744551002616%{stroke-dashoffset: 269}37.024120895088636%{ stroke-dashoffset: 0;}100%{ stroke-dashoffset: 0;}}@keyframes TtLrvhhC_draw_10{15.809357744841614%{stroke-dashoffset: 2262}37.31473408892764%{ stroke-dashoffset: 0;}100%{ stroke-dashoffset: 0;}}@keyframes TtLrvhhC_draw_11{16.099970938680617%{stroke-dashoffset: 1547}37.605347282766644%{ stroke-dashoffset: 0;}100%{ stroke-dashoffset: 0;}}@keyframes TtLrvhhC_draw_12{16.390584132519617%{stroke-dashoffset: 866}37.89596047660564%{ stroke-dashoffset: 0;}100%{ stroke-dashoffset: 0;}}@keyframes TtLrvhhC_draw_13{16.681197326358614%{stroke-dashoffset: 1447}38.18657367044464%{ stroke-dashoffset: 0;}100%{ stroke-dashoffset: 0;}}@keyframes TtLrvhhC_draw_14{16.971810520197618%{stroke-dashoffset: 276}38.47718686428364%{ stroke-dashoffset: 0;}100%{ stroke-dashoffset: 0;}}@keyframes TtLrvhhC_draw_15{17.262423714036615%{stroke-dashoffset: 161}38.767800058122646%{ stroke-dashoffset: 0;}100%{ stroke-dashoffset: 0;}}@keyframes TtLrvhhC_draw_16{17.553036907875615%{stroke-dashoffset: 129}39.05841325196164%{ stroke-dashoffset: 0;}100%{ stroke-dashoffset: 0;}}@keyframes TtLrvhhC_draw_17{17.84365010171462%{stroke-dashoffset: 605}39.34902644580065%{ stroke-dashoffset: 0;}100%{ stroke-dashoffset: 0;}}@keyframes TtLrvhhC_draw_18{18.13426329555362%{stroke-dashoffset: 208}39.63963963963965%{ stroke-dashoffset: 0;}100%{ stroke-dashoffset: 0;}}@keyframes TtLrvhhC_draw_19{18.42487648939262%{stroke-dashoffset: 109}39.93025283347864%{ stroke-dashoffset: 0;}100%{ stroke-dashoffset: 0;}}@keyframes TtLrvhhC_draw_20{18.715489683231617%{stroke-dashoffset: 87}40.22086602731763%{ stroke-dashoffset: 0;}100%{ stroke-dashoffset: 0;}}@keyframes TtLrvhhC_draw_21{19.006102877070617%{stroke-dashoffset: 87}40.51147922115664%{ stroke-dashoffset: 0;}100%{ stroke-dashoffset: 0;}}@keyframes TtLrvhhC_draw_22{19.29671607090962%{stroke-dashoffset: 108}40.80209241499564%{ stroke-dashoffset: 0;}100%{ stroke-dashoffset: 0;}}@keyframes TtLrvhhC_draw_23{19.587329264748618%{stroke-dashoffset: 39}41.09270560883464%{ stroke-dashoffset: 0;}100%{ stroke-dashoffset: 0;}}@keyframes TtLrvhhC_draw_24{19.877942458587622%{stroke-dashoffset: 32}41.38331880267365%{ stroke-dashoffset: 0;}100%{ stroke-dashoffset: 0;}}@keyframes TtLrvhhC_draw_25{20.16855565242662%{stroke-dashoffset: 296}41.67393199651265%{ stroke-dashoffset: 0;}100%{ stroke-dashoffset: 0;}}@keyframes TtLrvhhC_draw_26{20.459168846265623%{stroke-dashoffset: 195}41.96454519035164%{ stroke-dashoffset: 0;}100%{ stroke-dashoffset: 0;}}@keyframes TtLrvhhC_draw_27{20.74978204010462%{stroke-dashoffset: 139}42.255158384190636%{ stroke-dashoffset: 0;}100%{ stroke-dashoffset: 0;}}@keyframes TtLrvhhC_draw_28{21.04039523394362%{stroke-dashoffset: 296}42.545771578029644%{ stroke-dashoffset: 0;}100%{ stroke-dashoffset: 0;}}@keyframes TtLrvhhC_draw_29{21.331008427782624%{stroke-dashoffset: 195}42.836384771868644%{ stroke-dashoffset: 0;}100%{ stroke-dashoffset: 0;}}@keyframes TtLrvhhC_draw_30{21.62162162162162%{stroke-dashoffset: 139}43.126997965707645%{ stroke-dashoffset: 0;}100%{ stroke-dashoffset: 0;}}@keyframes TtLrvhhC_draw_31{21.912234815460625%{stroke-dashoffset: 215}43.417611159546645%{ stroke-dashoffset: 0;}100%{ stroke-dashoffset: 0;}}@keyframes TtLrvhhC_draw_32{22.202848009299622%{stroke-dashoffset: 141}43.70822435338565%{ stroke-dashoffset: 0;}100%{ stroke-dashoffset: 0;}}@keyframes TtLrvhhC_draw_33{22.493461203138622%{stroke-dashoffset: 101}43.998837547224646%{ stroke-dashoffset: 0;}100%{ stroke-dashoffset: 0;}}@keyframes TtLrvhhC_draw_34{22.784074396977623%{stroke-dashoffset: 215}44.28945074106365%{ stroke-dashoffset: 0;}100%{ stroke-dashoffset: 0;}}@keyframes TtLrvhhC_draw_35{23.074687590816623%{stroke-dashoffset: 141}44.58006393490265%{ stroke-dashoffset: 0;}100%{ stroke-dashoffset: 0;}}@keyframes TtLrvhhC_draw_36{23.365300784655624%{stroke-dashoffset: 101}44.87067712874165%{ stroke-dashoffset: 0;}100%{ stroke-dashoffset: 0;}}@keyframes TtLrvhhC_draw_37{23.655913978494624%{stroke-dashoffset: 53}45.16129032258064%{ stroke-dashoffset: 0;}100%{ stroke-dashoffset: 0;}}</style></svg>
