<!--?xml version="1.0" encoding="UTF-8" standalone="no"?-->
<svg data-name="Layer 1" width="546.8385" height="351.04782" viewBox="0 0 546.83849 351.04782" version="1.1" id="svg374" sodipodi:docname="AWS-Aruba-SEO-Core-Services.svg" inkscape:version="1.2.2 (732a01da63, 2022-12-09)" xml:space="preserve" xmlns:inkscape="http://www.inkscape.org/namespaces/inkscape" xmlns:sodipodi="http://sodipodi.sourceforge.net/DTD/sodipodi-0.dtd" xmlns:xlink="http://www.w3.org/1999/xlink" xmlns="http://www.w3.org/2000/svg" xmlns:svg="http://www.w3.org/2000/svg" style=""><defs id="defs378"><linearGradient xlink:href="#A" id="L" gradientTransform="matrix(0.836848,0,0,0.833356,-3.8551864,0.71466484)"></linearGradient><linearGradient id="A" x1="486.03" y1="221.36" x2="449.73999" y2="315.10001" gradientUnits="userSpaceOnUse"><stop offset="0" stop-color="#010101" stop-opacity="0" id="stop6481"></stop><stop offset=".95" stop-color="#010101" id="stop6483"></stop></linearGradient><linearGradient xlink:href="#B" id="M" gradientTransform="matrix(0.836848,0,0,0.833356,-5.503777,-39.069752)"></linearGradient><linearGradient id="B" x1="475.54001" y1="295.98001" x2="566.26001" y2="121.93" gradientUnits="userSpaceOnUse"><stop offset="0" stop-color="#fff" stop-opacity="0" id="stop6486"></stop><stop offset=".95" stop-color="#fff" id="stop6488"></stop></linearGradient><linearGradient id="C" x1="485.73001" y1="265.76001" x2="502.35999" y2="169.38" xlink:href="#B" gradientTransform="matrix(0.836848,0,0,0.833356,-5.503777,-39.069752)"></linearGradient><linearGradient id="D" x1="434.189" y1="201.57401" x2="443.06699" y2="184.589" xlink:href="#A" gradientTransform="matrix(1.175439,0,0,1.237912,-103.31782,-100.62061)"></linearGradient><linearGradient id="E" x1="426.771" y1="167.692" x2="455.47699" y2="167.692" xlink:href="#B" gradientTransform="matrix(1.175439,0,0,1.237912,-103.31782,-100.62061)"></linearGradient><linearGradient id="F" x1="462.82001" y1="158.03" x2="483.76001" y2="158.03" xlink:href="#A" gradientTransform="matrix(0.836848,0,0,0.833356,-3.855188,0.714629)"></linearGradient><linearGradient id="G" x1="447.78" y1="205.13" x2="468.73001" y2="205.13" gradientTransform="matrix(-0.81174256,-0.20000544,-0.20084352,0.80835532,845.67943,62.741351)" xlink:href="#A"></linearGradient><linearGradient id="H" x1="521.62" y1="265.17999" x2="281.23001" y2="322.26001" xlink:href="#B" gradientTransform="matrix(0.836848,0,0,0.833356,-5.503777,-39.069752)"></linearGradient><linearGradient id="I" x1="453.30399" y1="148.33501" x2="463.061" y2="148.33501" xlink:href="#A" gradientTransform="translate(-38.965877,-54.461797)"></linearGradient></defs><sodipodi:namedview id="namedview376" pagecolor="#ffffff" bordercolor="#000000" borderopacity="0.25" inkscape:showpageshadow="2" inkscape:pageopacity="0.0" inkscape:pagecheckerboard="0" inkscape:deskcolor="#d1d1d1" showgrid="false" inkscape:zoom="1.0561606" inkscape:cx="255.64294" inkscape:cy="184.63101" inkscape:window-width="1366" inkscape:window-height="697" inkscape:window-x="-8" inkscape:window-y="-8" inkscape:window-maximized="1" inkscape:current-layer="svg374"></sodipodi:namedview><g id="g6851" transform="translate(-13.497343,-26.644005)"></g><path d="M 529.8385,350.54781 H 17 a 16.51867,16.51867 0 0 1 -16.5,-16.5 V 25.894 A 12.10184,12.10184 0 0 1 12.58789,13.80562 h 521.45349 a 12.31112,12.31112 0 0 1 12.29712,12.29736 v 307.94483 a 16.51868,16.51868 0 0 1 -16.5,16.5 z" fill="#f2f2f2" id="path264" style="fill: rgb(2, 0, 0); stroke: rgb(250, 0, 0); stroke-opacity: 1; opacity: 0.35443; fill-opacity: 1; stroke-width: 2.2;" class="ffMejHuw_0"></path><g id="g6806" transform="matrix(0.85515654,0,0,0.8536271,35.111589,-4.4205387)"><path d="m 490.21167,60.633208 -0.954,68.510002 -16.837,9.209 -4.268,-51.027002 -170.909,113.336002 -89.116,-73.893 -176.733997,123.336 c -3.707,-6.509 -7.85,-12.851 -11.959,-19.167 L 209.30667,98.342208 l 89.476,74.260002 155.369,-100.627002 c 0.167,0.049 -44.596,-15.591 -44.596,-15.591 1.322,-0.942 9.456,-10 10.879,-11.025 l 57.742,10.567 c 8.159,2.717 4.319,0.884 12.034,4.709 z" fill="#2a7fff" opacity="0.987" id="path6508" style="fill: rgb(255, 0, 0); fill-opacity: 1; stroke: none; stroke-width: 1.44876;" class="ffMejHuw_1"></path><g class="E" id="g6522" style="fill:#ff2a2a;stroke:none;stroke-width:2.078" transform="matrix(0.836848,0,0,0.833356,-3.855188,0.714629)"><path width="100.68" height="35.27" class="D ffMejHuw_2" id="rect6512" style="opacity:0.24;fill:#ff2a2a;stroke:none" d="M 548.96997,146.03 L 631.6499699999999,146.03 A 9,9,0,0,1,640.6499699999999,155.03 L 640.6499699999999,172.3 A 9,9,0,0,1,631.6499699999999,181.3 L 548.96997,181.3 A 9,9,0,0,1,539.96997,172.3 L 539.96997,155.03 A 9,9,0,0,1,548.96997,146.03"></path><path width="144.33" height="50.560001" class="D ffMejHuw_3" id="rect6514" style="opacity:0.24;fill:#ff2a2a;stroke:none" d="M 452.60999,421.35999 L 568.93999,421.35999 A 14,14,0,0,1,582.93999,435.35999 L 582.93999,457.919991 A 14,14,0,0,1,568.93999,471.919991 L 452.60999,471.919991 A 14,14,0,0,1,438.60999,457.919991 L 438.60999,435.35999 A 14,14,0,0,1,452.60999,421.35999"></path><path width="131.42999" height="46.560001" class="D ffMejHuw_4" id="rect6516" style="opacity:0.24;fill:#ff2a2a;stroke:none" d="M 73.58000200000001,304 L 181.009992,304 A 12,12,0,0,1,193.009992,316 L 193.009992,338.560001 A 12,12,0,0,1,181.009992,350.560001 L 73.58000200000001,350.560001 A 12,12,0,0,1,61.580002,338.560001 L 61.580002,316 A 12,12,0,0,1,73.58000200000001,304"></path><path width="102.57" height="39.779999" class="D ffMejHuw_5" id="rect6518" style="opacity:0.24;fill:#ff2a2a;stroke:none" d="M 113.23,415.5 L 195.8,415.5 A 10,10,0,0,1,205.8,425.5 L 205.8,445.279999 A 10,10,0,0,1,195.8,455.279999 L 113.23,455.279999 A 10,10,0,0,1,103.23,445.279999 L 103.23,425.5 A 10,10,0,0,1,113.23,415.5"></path><path d="m 408.46,242.81 q 0,-36.75 18.85,-57.22 18.85,-20.47 52.51,-20.47 34.5,0 53.16,20.11 18.66,20.11 18.67,56.35 0,26.31 -8.16,43.15 a 61,61 0 0 1 -23.57,26.2 q -15.4,9.33 -38.41,9.33 -23.37,0 -38.69,-8.09 -15.32,-8.09 -24.79,-25.55 -9.57,-17.5 -9.57,-43.81 z m 42.7,0.21 q 0,22.73 7.78,32.65 7.78,9.92 21.16,9.93 13.76,0 21.3,-9.73 7.54,-9.73 7.54,-34.9 0,-21.19 -7.87,-31 -7.87,-9.81 -21.35,-9.71 a 25.1,25.1 0 0 0 -20.69,9.9 q -7.86,9.93 -7.87,32.86 z m -320.22,26.41 40.86,-2.56 q 1.33,10 5.41,15.17 6.63,8.45 19,8.44 9.2,0 14.17,-4.32 4.97,-4.32 5,-10 0,-5.4 -4.74,-9.67 -4.74,-4.27 -22,-8.06 -28.25,-6.35 -40.29,-16.87 a 33.94,33.94 0 0 1 -12.13,-26.83 36.44,36.44 0 0 1 6.21,-20.24 q 6.21,-9.53 18.67,-15 12.46,-5.47 34.18,-5.45 26.64,0 40.62,9.91 13.98,9.91 16.64,31.52 l -40.51,2.39 q -1.62,-9.39 -6.78,-13.65 -5.16,-4.26 -14.27,-4.27 -7.48,0 -11.28,3.18 a 9.73,9.73 0 0 0 -3.79,7.73 7.73,7.73 0 0 0 3.13,6 q 3,2.74 14.41,5.12 28.16,6.06 40.34,12.27 12.18,6.21 17.72,15.41 a 39,39 0 0 1 5.52,20.54 44.07,44.07 0 0 1 -7.4,24.65 46.2,46.2 0 0 1 -20.66,17.11 q -13.27,5.83 -33.47,5.83 -35.44,0 -49.1,-13.65 -13.66,-13.65 -15.46,-34.7 z m 147.61,-93 h 115.09 v 29.68 h -72.05 v 22.08 h 66.83 v 28.35 h -66.83 v 27.4 h 74.13 v 31.47 H 278.55 Z" opacity="0.37" id="path6520" style="fill:#ff2a2a;stroke:none" class="ffMejHuw_6"></path></g><g class="H" id="g6528" style="fill:#ffffff;stroke:none;stroke-width:2.078" transform="matrix(0.836848,0,0,0.833356,-3.855188,0.714629)"><path d="m 132.08,247.32 40.86,-2.56 q 1.32,10 5.4,15.17 6.65,8.44 19,8.44 9.19,0 14.17,-4.32 4.98,-4.32 5,-10 0,-5.4 -4.74,-9.67 -4.74,-4.27 -22,-8.06 -28.26,-6.35 -40.29,-16.87 a 34,34 0 0 1 -12.14,-26.83 36.44,36.44 0 0 1 6.21,-20.24 q 6.21,-9.52 18.68,-15 12.47,-5.48 34.17,-5.45 26.64,0 40.63,9.91 13.99,9.91 16.63,31.52 l -40.48,2.37 q -1.6,-9.39 -6.78,-13.65 -5.18,-4.26 -14.26,-4.27 -7.5,0 -11.28,3.18 a 9.73,9.73 0 0 0 -3.8,7.72 7.73,7.73 0 0 0 3.13,6 q 3,2.76 14.41,5.13 28.15,6.06 40.34,12.27 12.19,6.21 17.73,15.41 a 39.12,39.12 0 0 1 5.54,20.57 44.14,44.14 0 0 1 -7.39,24.65 46.29,46.29 0 0 1 -20.67,17.11 q -13.27,5.84 -33.46,5.83 -35.46,0 -49.11,-13.65 -13.65,-13.65 -15.5,-34.71 z m 147.6,-93 h 115.09 v 29.67 h -72.05 v 22.09 h 66.84 v 28.35 h -66.84 v 27.4 h 74.14 v 31.43 H 279.68 Z" id="path6524" style="fill:#ffffff;stroke:none" class="ffMejHuw_7"></path><path width="397.62" height="46.869999" id="rect6526" style="fill:#ffffff;stroke:none" d="M 152.14999,358.59 L 521.76999,358.59 A 14,14,0,0,1,535.76999,372.59 L 535.76999,391.459999 A 14,14,0,0,1,521.76999,405.459999 L 152.14999,405.459999 A 14,14,0,0,1,138.14999,391.459999 L 138.14999,372.59 A 14,14,0,0,1,152.14999,358.59" class="ffMejHuw_8"></path></g><path d="m 437.43067,298.80621 c -1.606,-0.63 -3.307,-0.949 -5.021,-0.942 h -308.57 c -7.597,0.004 -13.76,6.126 -13.783,13.693 v 15.001 c 0.019,7.569 6.183,13.696 13.783,13.7 h 308.604 c 7.576,-0.05 13.703,-6.156 13.749,-13.7 v -15.001 c -0.004,-5.642 -3.482,-10.704 -8.762,-12.75 z m 5.398,27.784 c -0.013,5.706 -4.656,10.329 -10.385,10.342 h -308.604 c -5.741,0 -10.4,-4.625 -10.419,-10.342 v -15.001 c 0.024,-5.713 4.682,-10.334 10.419,-10.334 h 308.604 c 5.727,0.014 10.367,4.631 10.385,10.334 z" class="D ffMejHuw_9" id="path6532" style="opacity:0.24;fill:#ffffff;stroke:none;stroke-width:1.449;stroke-opacity:1"></path><path d="m 123.68867,322.83221 c 0.684,0.422 1.459,0.654 2.251,0.675 1.239,0 1.816,-0.616 1.816,-1.391 0,-0.775 -0.485,-1.25 -1.741,-1.717 -1.674,-0.6 -2.511,-1.525 -2.511,-2.642 0,-1.508 1.221,-2.742 3.238,-2.742 a 4.71,4.71 0 0 1 2.31,0.576 l -0.427,1.242 a 3.65,3.65 0 0 0 -1.916,-0.542 c -1.012,0 -1.573,0.576 -1.573,1.275 0,0.699 0.561,1.117 1.782,1.583 1.632,0.608 2.46,1.425 2.46,2.816 0,1.666 -1.28,2.8 -3.506,2.8 a 5.4,5.4 0 0 1 -2.637,-0.641 z m 8.887,-2.626 a 2.99,2.99 0 0 0 0.847,2.341 3.01,3.01 0 0 0 2.332,0.893 c 0.892,0.031 1.781,-0.135 2.602,-0.483 l 0.293,1.217 c -0.993,0.414 -2.055,0.613 -3.122,0.583 -2.895,0 -4.619,-1.892 -4.619,-4.716 0,-2.824 1.674,-5 4.402,-5 3.063,0 3.874,2.684 3.874,4.4 a 7.23,7.23 0 0 1 -0.051,0.792 z m 5.021,-1.217 c 0,-1.083 -0.451,-2.758 -2.369,-2.758 -1.724,0 -2.511,1.575 -2.619,2.758 z m 8.896,5.576 -0.134,-1.175 h -0.059 a 3.51,3.51 0 0 1 -2.87,1.391 2.68,2.68 0 0 1 -2.025,-0.716 c -0.539,-0.496 -0.848,-1.214 -0.845,-1.968 0,-2.258 2.017,-3.492 5.641,-3.475 v -0.183 a 1.92,1.92 0 0 0 -0.534,-1.598 c -0.425,-0.427 -1.008,-0.634 -1.592,-0.568 -0.859,10e-4 -1.702,0.242 -2.444,0.699 l -0.394,-1.125 c 0.932,-0.558 2.001,-0.847 3.088,-0.833 2.87,0 3.565,1.95 3.565,3.816 v 3.5 a 13.03,13.03 0 0 0 0.15,2.233 z m -0.252,-4.767 c -1.858,-0.042 -3.975,0.292 -3.975,2.108 -0.035,0.436 0.122,0.865 0.431,1.176 a 1.51,1.51 0 0 0 1.175,0.441 c 1.017,0.03 1.935,-0.602 2.267,-1.559 a 1.79,1.79 0 0 0 0.1,-0.542 z m 4.394,-1.659 -0.075,-2.917 h 1.489 l 0.059,1.833 h 0.075 c 0.333,-1.17 1.382,-1.994 2.602,-2.041 a 1.74,1.74 0 0 1 0.485,0.058 v 1.601 a 2.4,2.4 0 0 0 -0.585,-0.058 2.39,2.39 0 0 0 -2.285,2.184 4.38,4.38 0 0 0 -0.075,0.792 v 5 h -1.674 z m 12.829,6.083 a 6.26,6.26 0 0 1 -2.694,0.542 c -2.828,0 -4.67,-1.916 -4.67,-4.775 -0.058,-1.356 0.456,-2.671 1.403,-3.591 0.957,-0.946 2.272,-1.442 3.618,-1.368 a 5.75,5.75 0 0 1 2.369,0.483 l -0.394,1.317 a 3.93,3.93 0 0 0 -1.975,-0.451 c -2.151,0 -3.348,1.583 -3.348,3.533 -0.083,0.906 0.223,1.805 0.845,2.472 a 3.23,3.23 0 0 0 2.411,1.027 4.9,4.9 0 0 0 2.092,-0.467 z m 1.991,-13.358 h 1.674 v 5.833 a 3.24,3.24 0 0 1 1.221,-1.2 3.6,3.6 0 0 1 1.749,-0.475 c 1.264,0 3.272,0.766 3.272,3.992 v 5.558 h -1.674 v -5.366 c 0,-1.5 -0.561,-2.775 -2.168,-2.775 -1.039,0.017 -1.955,0.685 -2.285,1.666 a 1.97,1.97 0 0 0 -0.118,0.833 v 5.634 h -1.674 z" opacity="0.56" id="path6534" style="fill:#ff0000;stroke:none;stroke-width:1.449" class="ffMejHuw_10"></path><path d="m 446.19267,311.55721 v 15.001 a 13.51,13.51 0 0 1 -5.489,10.908 h -40.168 v -38.66 h 36.905 c 5.277,2.049 8.751,7.111 8.753,12.75 z" id="path6536" style="fill:#ffffff;stroke:none;stroke-width:1.449" class="ffMejHuw_11"></path><path d="m 418.25967,325.80621 c -4.784,0.004 -9.099,-2.865 -10.932,-7.265 a 11.74,11.74 0 0 1 2.561,-12.836 c 3.383,-3.368 8.471,-4.376 12.89,-2.551 4.419,1.825 7.299,6.121 7.296,10.886 -0.014,6.493 -5.297,11.753 -11.817,11.768 z m 0,-20.267 c -3.453,-0.004 -6.568,2.066 -7.892,5.241 -1.324,3.175 -0.596,6.833 1.845,9.266 2.441,2.433 6.112,3.162 9.304,1.847 3.192,-1.315 5.271,-4.416 5.272,-7.855 0,-4.69 -3.817,-8.496 -8.528,-8.501 z" id="path6540" style="fill:#ff0800;fill-opacity:1;stroke:none;stroke-width:1.449" class="ffMejHuw_12"></path><path d="m 422.43267,322.28821 2.783,-2.192 7.844,9.876 -2.783,2.192 z m 20.463,-179.578 q -15.281,-15.75 -43.441,-15.776 -27.508,0 -42.939,16.042 c -10.243,10.741 -15.406,25.676 -15.406,44.909 q 0,20.642 7.791,34.368 7.791,13.726 20.319,20.068 12.494,6.35 31.616,6.342 18.803,0 31.374,-7.351 c 8.301,-4.814 14.995,-11.956 19.248,-20.534 q 6.611,-13.251 6.637,-33.868 0.016,-28.384 -15.197,-44.201 z m -66.864,45.344 q 0,-18.025 6.369,-25.776 c 3.855,-4.835 9.701,-7.671 15.9,-7.717 a 5.48,5.48 0 0 1 1.046,-0.067 q 11.004,0 17.456,7.65 c 2.575,3.279 4.33,7.12 5.121,11.208 0.927,4.302 1.368,8.693 1.314,13.092 0,2.95 -0.1,5.667 -0.301,8.217 q -1.071,13.251 -5.858,19.167 -6.168,7.601 -17.424,7.617 -10.879,0 -17.29,-7.784 c -4.185,-5.167 -6.302,-13.559 -6.334,-25.276 z" id="path6542" style="fill:#ffffff;fill-opacity:1;stroke:none;stroke-width:1.449" class="ffMejHuw_13"></path><path id="use6546" d="m 422.9624,194.66157 q -1.07117,13.25036 -5.85794,19.16719 -6.16757,7.60021 -17.42317,7.61687 -10.87903,0 -17.28928,-7.78354 c -4.18424,-5.16681 -6.30147,-13.5587 -6.33494,-25.27569 a 66.244888,65.968461 0 0 1 1.81596,-6.44184 23.331322,23.233965 0 0 0 7.68226,-7.08353 c 2.93734,-4.32512 4.45203,-9.62526 8.1258,-13.33369 1.2469,-1.2417 2.69465,-2.31673 3.60681,-3.80011 a 7.6487907,7.6168738 0 0 0 1.04606,-3.15008 c 0.30127,-2.21673 -0.0669,-4.63346 -0.10042,-6.91686 a 22.360579,22.267272 0 0 1 3.29718,-11.84199 c 6.97931,0.10001 13.84983,3.25009 20.69525,4.49179 2.99592,5.00014 -2.22601,11.45031 -0.77827,17.11713 0.51048,2.01673 1.85781,3.72511 2.42686,5.74183 0.94564,3.42509 -0.50211,6.77518 -1.91638,10.20028 a 34.603665,34.459271 0 0 0 -1.62349,4.73346 c -1.33895,5.51681 0.41843,11.16697 2.62771,16.55878 z" style="fill:#4fbefb;stroke:none;stroke-width:1.73534" class="ffMejHuw_14"></path><path id="use6548" d="m 422.9624,194.66161 q -1.07117,13.25036 -5.85794,19.16718 -6.16757,7.60021 -17.42317,7.61688 -10.87903,0 -17.28928,-7.78355 c -4.18424,-5.1668 -6.30147,-13.5587 -6.33494,-25.27568 a 66.244888,65.968461 0 0 1 1.81596,-6.44185 23.331322,23.233965 0 0 0 7.68226,-7.08352 c 2.93734,-4.32512 4.45203,-9.62526 8.1258,-13.3337 1.2469,-1.2417 2.69465,-2.31673 3.60681,-3.8001 a 7.6487907,7.6168738 0 0 0 1.04606,-3.15009 c 0.30127,-2.21672 -0.0669,-4.63346 -0.10042,-6.91685 a 22.360579,22.267272 0 0 1 3.29718,-11.84199 c 6.97931,0.1 13.84984,3.25009 20.69525,4.49179 2.99592,5.00013 -2.22601,11.45031 -0.77827,17.11713 0.51048,2.01672 1.85781,3.7251 2.42686,5.74182 0.94564,3.4251 -0.50211,6.77519 -1.91638,10.20028 a 34.603665,34.459271 0 0 0 -1.62348,4.73346 c -1.33896,5.51682 0.41842,11.16697 2.6277,16.55879 z" style="fill:url(#L);stroke:none;stroke-width:1.73534" class="ffMejHuw_15"></path><path d="m 418.68611,196.82833 q -0.83685,13.24203 -4.39346,19.16719 c -3.0796,5.0668 -7.42284,7.62521 -13.05483,7.62521 q -8.18437,0 -12.9544,-7.79188 c -3.12981,-5.16681 -4.71982,-13.5587 -4.74493,-25.26736 q 0.56069,-3.33342 1.36406,-6.44184 a 21.055096,20.967237 0 0 0 5.75752,-7.08352 c 2.19254,-4.33346 3.34739,-9.6336 6.08388,-13.3337 a 21.850101,21.758925 0 0 0 2.70302,-3.79177 9.5902781,9.5502598 0 0 0 0.77827,-3.15842 64.144399,63.876737 0 0 0 -0.0753,-6.90852 28.277094,28.159099 0 0 1 2.51055,-11.85032 c 5.22193,0.1 10.37691,3.25842 15.49842,4.50012 2.25112,5.00014 -1.67369,11.44198 -0.57742,17.11713 0.37658,2.00839 1.38916,3.7251 1.81596,5.73349 0.71132,3.42509 -0.37659,6.78352 -1.43938,10.20861 a 44.763,44.576212 0 0 0 -1.21343,4.72513 c -1.01259,5.50848 0.30126,11.1753 1.94149,16.55045 z" fill="url(#M)" id="path6550" style="fill:url(#M);stroke:none;stroke-width:1.73534" class="ffMejHuw_16"></path><path d="m 401.73993,164.17744 1.08791,-1.20836 a 26.628503,26.517388 0 0 1 -5.85794,17.29213 c -1.81596,2.2334 -4.07545,4.30012 -4.7784,7.09186 a 33.298182,33.159235 0 0 0 14.36031,-21.41725 c 0.58579,-3.09175 0.83685,-6.47517 2.81181,-8.91691 l 0.41005,4.25845 a 87.735144,87.369043 0 0 0 4.49388,-10.20027 c 0.25105,-0.67502 0.4519,-1.54171 -0.0921,-2.01672 a 1.8745395,1.8667174 0 0 0 -1.06279,-0.34168 c -3.34739,-0.32501 -7.063,-1.43337 -8.78691,1.95005 -1.96659,3.88344 -2.41849,9.25859 -2.58586,13.5087 z" fill="url(#C)" id="path6552" style="fill:url(#C);stroke:none;stroke-width:1.73534" class="ffMejHuw_17"></path><path id="use6556" d="m 400.18383,138.00178 c 0,0 -0.47723,6.85061 0.83691,8.8585 1.31414,2.00789 10.20163,5.90856 13.64097,4.16681 a 23.264289,23.167523 0 0 0 5.81607,-4.36735 l 1.7326,-6.33316 z" style="fill:#4fbefb;stroke:none;stroke-width:1.20145" class="ffMejHuw_18"></path><path id="use6558" d="m 400.18383,138.00178 c 0,0 -0.47723,6.85061 0.83691,8.8585 1.31414,2.00789 10.20163,5.90856 13.64097,4.16681 a 23.264289,23.167523 0 0 0 5.81607,-4.36735 l 1.7326,-6.33316 z" style="fill:url(#D);stroke:none;stroke-width:1.20145" class="ffMejHuw_19"></path><path id="use6560" d="m 398.32546,126.93485 c 0,0 3.79079,-51.667971 24.0342,-57.326467 20.24341,-5.658496 2.51074,68.668217 2.51074,68.668217 0,0 -26.54494,20.1594 -26.54494,-11.34175 z" style="fill:#4fbefb;stroke:none;stroke-width:1.20145" class="ffMejHuw_20"></path><path id="use6562" d="m 398.32546,126.93485 c 0,0 3.79079,-51.667971 24.0342,-57.326467 20.24341,-5.658496 2.51074,68.668217 2.51074,68.668217 0,0 -26.54494,20.1594 -26.54494,-11.34175 z" style="fill:url(#E);stroke:none;stroke-width:1.20145" class="ffMejHuw_21"></path><path id="use6566" d="m 395.93221,117.81781 c -4.64451,4.39179 -9.46475,9.05025 -11.39787,15.13375 -1.44775,4.52512 -1.13812,9.39192 -0.83685,14.16705 0.092,1.27504 0.35984,2.80841 1.55654,3.26676 1.35569,0.51668 2.67791,-0.78336 3.50639,-1.96672 2.81181,-4.01678 5.18009,-8.4919 9.07143,-11.47532 a 7.3140515,7.2835314 0 0 0 1.79086,-1.66671 6.0002002,5.9751625 0 0 0 0.67784,-3.10842 c 0.21758,-5.91682 0.61927,-11.94199 0.65275,-17.80881 -1.9917,0.51668 -3.48129,1.99172 -5.02109,3.45842 z" style="fill:#4fbefb;stroke:none;stroke-width:1.73534" class="ffMejHuw_22"></path><path id="use6568" d="m 395.93221,117.81781 c -4.64451,4.39179 -9.46475,9.05025 -11.39787,15.13375 -1.44775,4.52512 -1.13812,9.39192 -0.83685,14.16705 0.092,1.27504 0.35984,2.80841 1.55654,3.26676 1.35569,0.51668 2.67791,-0.78336 3.50639,-1.96672 2.81181,-4.01678 5.18009,-8.4919 9.07143,-11.47532 a 7.3140515,7.2835314 0 0 0 1.79086,-1.66671 6.0002002,5.9751625 0 0 0 0.67784,-3.10842 c 0.21758,-5.91682 0.61927,-11.94199 0.65275,-17.80881 -1.9917,0.51668 -3.48129,1.99172 -5.02109,3.45842 z" style="fill:url(#F);stroke:none;stroke-width:1.73534" class="ffMejHuw_23"></path><path d="m 432.33467,123.18521 c 3.473,5.366 7.047,11.034 7.482,17.393 0.327,4.741 -1.138,9.401 -2.578,13.925 -0.384,1.217 -1.012,2.642 -2.285,2.809 -1.448,0.183 -2.419,-1.391 -2.946,-2.742 -1.774,-4.558 -3.013,-9.466 -6.084,-13.284 a 7.372,7.342 0 0 1 -1.347,-2.017 6.109,6.083 0 0 1 0.075,-3.184 l 3.606,-17.5 c 1.833,1.034 2.929,2.816 4.075,4.6 z" class="E G ffMejHuw_24" id="path6572" style="fill:#4fbefb;stroke:none;stroke-width:1.449"></path><path d="m 432.30999,123.33467 c 3.46455,5.35847 7.03789,11.0253 7.47305,17.39214 0.32637,4.73346 -1.12974,9.39192 -2.57749,13.92537 -0.38495,1.2167 -1.01258,2.64174 -2.28459,2.80008 -1.43938,0.18334 -2.41849,-1.3917 -2.94571,-2.74174 -1.77412,-4.55846 -3.01265,-9.45859 -6.07551,-13.27536 a 7.1885243,7.158528 0 0 1 -1.34733,-2.01672 6.0169371,5.9918296 0 0 1 0.0669,-3.18342 l 3.60681,-17.50048 c 1.84107,1.03336 2.92897,2.81674 4.08382,4.60013 z" fill="url(#G)" id="path6574" style="fill:url(#G);stroke:none;stroke-width:1.73534" class="ffMejHuw_25"></path><path d="m 409.33851,167.93588 a 27.615984,27.500748 0 0 0 -2.02517,6.48351 c -0.30126,2.21673 -0.0502,4.47512 -0.25105,6.66685 -0.39332,4.51679 -2.57749,8.65856 -3.79092,13.03368 -1.72391,6.23351 -1.43101,12.81702 -1.12138,19.26719 l 7.42284,-23.78398 a 37.315052,37.159344 0 0 0 1.6737,-6.66684 52.303,52.08475 0 0 0 -0.0419,-7.73355 77.885443,77.560443 0 0 1 0.92054,-13.47536 c -1.28038,1.77504 -1.95823,4.15844 -2.78671,6.2085 z" fill="url(#H)" id="path6576" style="fill:url(#H);stroke:none;stroke-width:1.73534" class="ffMejHuw_26"></path><path class="E ffMejHuw_27" id="ellipse6580" style="fill:#4fbefb;stroke:none;stroke-width:1.449" d="M413.2245199,94.151726A5.9920001,5.967 0,1,1 425.2085201,94.151726A5.9920001,5.967 0,1,1 413.2245199,94.151726"></path><path fill="url(#I)" id="ellipse6582" style="fill:url(#I);stroke:none;stroke-width:1.449" d="M414.3371298,93.873207A4.8790002,4.8590002 0,1,1 424.0951302,93.873207A4.8790002,4.8590002 0,1,1 414.3371298,93.873207" class="ffMejHuw_28"></path><path width="116.087" height="40.493" class="H ffMejHuw_29" id="rect6584" style="fill:#ffffff;stroke:#ff0000;stroke-width:1.449;stroke-opacity:1" d="M 378.74768,358.18323 L 472.83468,358.18323 A 11,11,0,0,1,483.83468,369.18323 L 483.83468,387.67623 A 11,11,0,0,1,472.83468,398.67623 L 378.74768,398.67623 A 11,11,0,0,1,367.74768,387.67623 L 367.74768,369.18323 A 11,11,0,0,1,378.74768,358.18323"></path><path width="94.003136" height="3.483428" class="D ffMejHuw_30" id="rect6588" style="opacity:0.24;fill:#ff0000;stroke:none;stroke-width:1.73534" d="M 380.76431,369.28299 L 472.767446,369.28299 A 1,1,0,0,1,473.767446,370.28299 L 473.767446,371.766418 A 1,1,0,0,1,472.767446,372.766418 L 380.76431,372.766418 A 1,1,0,0,1,379.76431,371.766418 L 379.76431,370.28299 A 1,1,0,0,1,380.76431,369.28299"></path><path width="66.161201" height="3.2917562" class="D ffMejHuw_31" id="rect6590" style="opacity:0.24;fill:#ff0000;stroke:none;stroke-width:1.73534" d="M 380.76431,378.91656 L 444.92551100000003,378.91656 A 1,1,0,0,1,445.92551100000003,379.91656 L 445.92551100000003,381.2083162 A 1,1,0,0,1,444.92551100000003,382.2083162 L 380.76431,382.2083162 A 1,1,0,0,1,379.76431,381.2083162 L 379.76431,379.91656 A 1,1,0,0,1,380.76431,378.91656"></path><path width="116.087" height="40.493" class="G H ffMejHuw_32" id="rect6594" style="fill:#ffffff;stroke:#ff0000;stroke-width:1.449;stroke-opacity:1" d="M 48.26667,245.27921 L 142.35367,245.27921 A 11,11,0,0,1,153.35367,256.27921000000003 L 153.35367,274.77221000000003 A 11,11,0,0,1,142.35367,285.77221000000003 L 48.26667,285.77221000000003 A 11,11,0,0,1,37.26667,274.77221000000003 L 37.26667,256.27921000000003 A 11,11,0,0,1,48.26667,245.27921"></path><path width="94.003136" height="3.483428" class="D ffMejHuw_33" id="rect6596" style="opacity:0.24;fill:#ff0000;stroke:none;stroke-width:1.73534" d="M 50.293026,256.37991 L 142.29616199999998,256.37991 A 1,1,0,0,1,143.29616199999998,257.37991 L 143.29616199999998,258.863338 A 1,1,0,0,1,142.29616199999998,259.863338 L 50.293026,259.863338 A 1,1,0,0,1,49.293026,258.863338 L 49.293026,257.37991 A 1,1,0,0,1,50.293026,256.37991"></path><path width="66.161201" height="3.2917562" class="D ffMejHuw_34" id="rect6598" style="opacity:0.24;fill:#ff0000;stroke:none;stroke-width:1.73534" d="M 50.293026,266.01352 L 114.454227,266.01352 A 1,1,0,0,1,115.454227,267.01352 L 115.454227,268.30527620000004 A 1,1,0,0,1,114.454227,269.30527620000004 L 50.293026,269.30527620000004 A 1,1,0,0,1,49.293026,268.30527620000004 L 49.293026,267.01352 A 1,1,0,0,1,50.293026,266.01352"></path><path width="84.253998" height="29.393" class="G H ffMejHuw_35" id="rect6602" style="fill:#ffffff;stroke:#ff0000;stroke-width:1.449;stroke-opacity:1" d="M 88.524673,351.17422 L 156.778671,351.17422 A 8,8,0,0,1,164.778671,359.17422 L 164.778671,372.56722 A 8,8,0,0,1,156.778671,380.56722 L 88.524673,380.56722 A 8,8,0,0,1,80.524673,372.56722 L 80.524673,359.17422 A 8,8,0,0,1,88.524673,351.17422"></path><path width="68.228218" height="2.5250688" class="D ffMejHuw_36" id="rect6604" style="opacity:0.24;fill:#d40000;stroke:none;stroke-width:1.73534" d="M 90.252525,359.2327 L 156.48074300000002,359.2327 A 1,1,0,0,1,157.48074300000002,360.2327 L 157.48074300000002,360.7577688 A 1,1,0,0,1,156.48074300000002,361.7577688 L 90.252525,361.7577688 A 1,1,0,0,1,89.252525,360.7577688 L 89.252525,360.2327 A 1,1,0,0,1,90.252525,359.2327"></path><path width="48.026707" height="2.3917317" class="D ffMejHuw_37" id="rect6606" style="opacity:0.24;fill:#d40000;stroke:none;stroke-width:1.73534" d="M 90.252525,366.22458 L 136.279232,366.22458 A 1,1,0,0,1,137.279232,367.22458 L 137.279232,367.6163117 A 1,1,0,0,1,136.279232,368.6163117 L 90.252525,368.6163117 A 1,1,0,0,1,89.252525,367.6163117 L 89.252525,367.22458 A 1,1,0,0,1,90.252525,366.22458"></path><path width="84.253998" height="29.393" class="G H ffMejHuw_38" id="rect6610" style="fill:#ffffff;stroke:#ff0000;stroke-width:1.449;stroke-opacity:1" d="M 456.23669,115.26987 L 524.490688,115.26987 A 8,8,0,0,1,532.490688,123.26987 L 532.490688,136.66287 A 8,8,0,0,1,524.490688,144.66287 L 456.23669,144.66287 A 8,8,0,0,1,448.23669,136.66287 L 448.23669,123.26987 A 8,8,0,0,1,456.23669,115.26987"></path><path width="68.228218" height="2.5250688" class="D ffMejHuw_39" id="rect6612" style="opacity:0.24;fill:#ff0000;stroke:none;stroke-width:1.73534" d="M 460.51593,121.33458 L 526.744148,121.33458 A 1,1,0,0,1,527.744148,122.33458 L 527.744148,122.8596488 A 1,1,0,0,1,526.744148,123.8596488 L 460.51593,123.8596488 A 1,1,0,0,1,459.51593,122.8596488 L 459.51593,122.33458 A 1,1,0,0,1,460.51593,121.33458"></path><path width="48.026707" height="2.3917317" class="D ffMejHuw_40" id="rect6614" style="opacity:0.24;fill:#ff0000;stroke:none;stroke-width:1.73534" d="M 460.51593,128.32643 L 506.542637,128.32643 A 1,1,0,0,1,507.542637,129.32643 L 507.542637,129.7181617 A 1,1,0,0,1,506.542637,130.7181617 L 460.51593,130.7181617 A 1,1,0,0,1,459.51593,129.7181617 L 459.51593,129.32643 A 1,1,0,0,1,460.51593,128.32643"></path><path d="m 176.91235,305.21458 h 1.26364 v 24.56733 h -1.26364 z" class="D ffMejHuw_41" id="path6616" style="opacity:0.24;fill:#ff0000;stroke:none;stroke-width:1.73534"></path></g><path d="M 546.10876,24.95019 H 0.26843 V 16.5498 A 16.57376,16.57376 0 0 1 16.82849,0 H 529.5487 a 16.57368,16.57368 0 0 1 16.56006,16.5498 z" fill="#f50004" id="path268" class="ffMejHuw_42"></path><path fill="#ffffff" id="circle270" d="M26.080366899999998,12.499954A4.2834201,4.2834201 0,1,1 34.647207099999996,12.499954A4.2834201,4.2834201 0,1,1 26.080366899999998,12.499954" class="ffMejHuw_43"></path><path fill="#ffffff" id="circle272" d="M42.3391689,12.499954A4.2834201,4.2834201 0,1,1 50.9060091,12.499954A4.2834201,4.2834201 0,1,1 42.3391689,12.499954" class="ffMejHuw_44"></path><path fill="#ffffff" id="circle274" d="M58.5979729,12.499954A4.2834201,4.2834201 0,1,1 67.1648131,12.499954A4.2834201,4.2834201 0,1,1 58.5979729,12.499954" class="ffMejHuw_45"></path><style data-made-with="vivus-instant">.ffMejHuw_0{stroke-dasharray:1741 1743;stroke-dashoffset:1742;animation:ffMejHuw_draw_0 5200ms ease-in-out 0ms infinite,ffMejHuw_fade 5200ms linear 0ms infinite;}.ffMejHuw_1{stroke-dasharray:1366 1368;stroke-dashoffset:1367;animation:ffMejHuw_draw_1 5200ms ease-in-out 0ms infinite,ffMejHuw_fade 5200ms linear 0ms infinite;}.ffMejHuw_2{stroke-dasharray:257 259;stroke-dashoffset:258;animation:ffMejHuw_draw_2 5200ms ease-in-out 0ms infinite,ffMejHuw_fade 5200ms linear 0ms infinite;}.ffMejHuw_3{stroke-dasharray:366 368;stroke-dashoffset:367;animation:ffMejHuw_draw_3 5200ms ease-in-out 0ms infinite,ffMejHuw_fade 5200ms linear 0ms infinite;}.ffMejHuw_4{stroke-dasharray:336 338;stroke-dashoffset:337;animation:ffMejHuw_draw_4 5200ms ease-in-out 0ms infinite,ffMejHuw_fade 5200ms linear 0ms infinite;}.ffMejHuw_5{stroke-dasharray:268 270;stroke-dashoffset:269;animation:ffMejHuw_draw_5 5200ms ease-in-out 0ms infinite,ffMejHuw_fade 5200ms linear 0ms infinite;}.ffMejHuw_6{stroke-dasharray:2261 2263;stroke-dashoffset:2262;animation:ffMejHuw_draw_6 5200ms ease-in-out 0ms infinite,ffMejHuw_fade 5200ms linear 0ms infinite;}.ffMejHuw_7{stroke-dasharray:1546 1548;stroke-dashoffset:1547;animation:ffMejHuw_draw_7 5200ms ease-in-out 0ms infinite,ffMejHuw_fade 5200ms linear 0ms infinite;}.ffMejHuw_8{stroke-dasharray:865 867;stroke-dashoffset:866;animation:ffMejHuw_draw_8 5200ms ease-in-out 0ms infinite,ffMejHuw_fade 5200ms linear 0ms infinite;}.ffMejHuw_9{stroke-dasharray:1446 1448;stroke-dashoffset:1447;animation:ffMejHuw_draw_9 5200ms ease-in-out 0ms infinite,ffMejHuw_fade 5200ms linear 0ms infinite;}.ffMejHuw_10{stroke-dasharray:275 277;stroke-dashoffset:276;animation:ffMejHuw_draw_10 5200ms ease-in-out 0ms infinite,ffMejHuw_fade 5200ms linear 0ms infinite;}.ffMejHuw_11{stroke-dasharray:160 162;stroke-dashoffset:161;animation:ffMejHuw_draw_11 5200ms ease-in-out 0ms infinite,ffMejHuw_fade 5200ms linear 0ms infinite;}.ffMejHuw_12{stroke-dasharray:128 130;stroke-dashoffset:129;animation:ffMejHuw_draw_12 5200ms ease-in-out 0ms infinite,ffMejHuw_fade 5200ms linear 0ms infinite;}.ffMejHuw_13{stroke-dasharray:604 606;stroke-dashoffset:605;animation:ffMejHuw_draw_13 5200ms ease-in-out 0ms infinite,ffMejHuw_fade 5200ms linear 0ms infinite;}.ffMejHuw_14{stroke-dasharray:225 227;stroke-dashoffset:226;animation:ffMejHuw_draw_14 5200ms ease-in-out 0ms infinite,ffMejHuw_fade 5200ms linear 0ms infinite;}.ffMejHuw_15{stroke-dasharray:225 227;stroke-dashoffset:226;animation:ffMejHuw_draw_15 5200ms ease-in-out 0ms infinite,ffMejHuw_fade 5200ms linear 0ms infinite;}.ffMejHuw_16{stroke-dasharray:207 209;stroke-dashoffset:208;animation:ffMejHuw_draw_16 5200ms ease-in-out 0ms infinite,ffMejHuw_fade 5200ms linear 0ms infinite;}.ffMejHuw_17{stroke-dasharray:108 110;stroke-dashoffset:109;animation:ffMejHuw_draw_17 5200ms ease-in-out 0ms infinite,ffMejHuw_fade 5200ms linear 0ms infinite;}.ffMejHuw_18{stroke-dasharray:60 62;stroke-dashoffset:61;animation:ffMejHuw_draw_18 5200ms ease-in-out 0ms infinite,ffMejHuw_fade 5200ms linear 0ms infinite;}.ffMejHuw_19{stroke-dasharray:60 62;stroke-dashoffset:61;animation:ffMejHuw_draw_19 5200ms ease-in-out 0ms infinite,ffMejHuw_fade 5200ms linear 0ms infinite;}.ffMejHuw_20{stroke-dasharray:181 183;stroke-dashoffset:182;animation:ffMejHuw_draw_20 5200ms ease-in-out 0ms infinite,ffMejHuw_fade 5200ms linear 0ms infinite;}.ffMejHuw_21{stroke-dasharray:181 183;stroke-dashoffset:182;animation:ffMejHuw_draw_21 5200ms ease-in-out 0ms infinite,ffMejHuw_fade 5200ms linear 0ms infinite;}.ffMejHuw_22{stroke-dasharray:86 88;stroke-dashoffset:87;animation:ffMejHuw_draw_22 5200ms ease-in-out 0ms infinite,ffMejHuw_fade 5200ms linear 0ms infinite;}.ffMejHuw_23{stroke-dasharray:86 88;stroke-dashoffset:87;animation:ffMejHuw_draw_23 5200ms ease-in-out 0ms infinite,ffMejHuw_fade 5200ms linear 0ms infinite;}.ffMejHuw_24{stroke-dasharray:86 88;stroke-dashoffset:87;animation:ffMejHuw_draw_24 5200ms ease-in-out 0ms infinite,ffMejHuw_fade 5200ms linear 0ms infinite;}.ffMejHuw_25{stroke-dasharray:86 88;stroke-dashoffset:87;animation:ffMejHuw_draw_25 5200ms ease-in-out 0ms infinite,ffMejHuw_fade 5200ms linear 0ms infinite;}.ffMejHuw_26{stroke-dasharray:107 109;stroke-dashoffset:108;animation:ffMejHuw_draw_26 5200ms ease-in-out 0ms infinite,ffMejHuw_fade 5200ms linear 0ms infinite;}.ffMejHuw_27{stroke-dasharray:38 40;stroke-dashoffset:39;animation:ffMejHuw_draw_27 5200ms ease-in-out 0ms infinite,ffMejHuw_fade 5200ms linear 0ms infinite;}.ffMejHuw_28{stroke-dasharray:31 33;stroke-dashoffset:32;animation:ffMejHuw_draw_28 5200ms ease-in-out 0ms infinite,ffMejHuw_fade 5200ms linear 0ms infinite;}.ffMejHuw_29{stroke-dasharray:295 297;stroke-dashoffset:296;animation:ffMejHuw_draw_29 5200ms ease-in-out 0ms infinite,ffMejHuw_fade 5200ms linear 0ms infinite;}.ffMejHuw_30{stroke-dasharray:194 196;stroke-dashoffset:195;animation:ffMejHuw_draw_30 5200ms ease-in-out 0ms infinite,ffMejHuw_fade 5200ms linear 0ms infinite;}.ffMejHuw_31{stroke-dasharray:138 140;stroke-dashoffset:139;animation:ffMejHuw_draw_31 5200ms ease-in-out 0ms infinite,ffMejHuw_fade 5200ms linear 0ms infinite;}.ffMejHuw_32{stroke-dasharray:295 297;stroke-dashoffset:296;animation:ffMejHuw_draw_32 5200ms ease-in-out 0ms infinite,ffMejHuw_fade 5200ms linear 0ms infinite;}.ffMejHuw_33{stroke-dasharray:194 196;stroke-dashoffset:195;animation:ffMejHuw_draw_33 5200ms ease-in-out 0ms infinite,ffMejHuw_fade 5200ms linear 0ms infinite;}.ffMejHuw_34{stroke-dasharray:138 140;stroke-dashoffset:139;animation:ffMejHuw_draw_34 5200ms ease-in-out 0ms infinite,ffMejHuw_fade 5200ms linear 0ms infinite;}.ffMejHuw_35{stroke-dasharray:214 216;stroke-dashoffset:215;animation:ffMejHuw_draw_35 5200ms ease-in-out 0ms infinite,ffMejHuw_fade 5200ms linear 0ms infinite;}.ffMejHuw_36{stroke-dasharray:140 142;stroke-dashoffset:141;animation:ffMejHuw_draw_36 5200ms ease-in-out 0ms infinite,ffMejHuw_fade 5200ms linear 0ms infinite;}.ffMejHuw_37{stroke-dasharray:100 102;stroke-dashoffset:101;animation:ffMejHuw_draw_37 5200ms ease-in-out 0ms infinite,ffMejHuw_fade 5200ms linear 0ms infinite;}.ffMejHuw_38{stroke-dasharray:214 216;stroke-dashoffset:215;animation:ffMejHuw_draw_38 5200ms ease-in-out 0ms infinite,ffMejHuw_fade 5200ms linear 0ms infinite;}.ffMejHuw_39{stroke-dasharray:140 142;stroke-dashoffset:141;animation:ffMejHuw_draw_39 5200ms ease-in-out 0ms infinite,ffMejHuw_fade 5200ms linear 0ms infinite;}.ffMejHuw_40{stroke-dasharray:100 102;stroke-dashoffset:101;animation:ffMejHuw_draw_40 5200ms ease-in-out 0ms infinite,ffMejHuw_fade 5200ms linear 0ms infinite;}.ffMejHuw_41{stroke-dasharray:52 54;stroke-dashoffset:53;animation:ffMejHuw_draw_41 5200ms ease-in-out 0ms infinite,ffMejHuw_fade 5200ms linear 0ms infinite;}.ffMejHuw_42{stroke-dasharray:1128 1130;stroke-dashoffset:1129;animation:ffMejHuw_draw_42 5200ms ease-in-out 0ms infinite,ffMejHuw_fade 5200ms linear 0ms infinite;}.ffMejHuw_43{stroke-dasharray:27 29;stroke-dashoffset:28;animation:ffMejHuw_draw_43 5200ms ease-in-out 0ms infinite,ffMejHuw_fade 5200ms linear 0ms infinite;}.ffMejHuw_44{stroke-dasharray:27 29;stroke-dashoffset:28;animation:ffMejHuw_draw_44 5200ms ease-in-out 0ms infinite,ffMejHuw_fade 5200ms linear 0ms infinite;}.ffMejHuw_45{stroke-dasharray:27 29;stroke-dashoffset:28;animation:ffMejHuw_draw_45 5200ms ease-in-out 0ms infinite,ffMejHuw_fade 5200ms linear 0ms infinite;}@keyframes ffMejHuw_draw{100%{stroke-dashoffset:0;}}@keyframes ffMejHuw_fade{0%{stroke-opacity:1;}92.3076923076923%{stroke-opacity:1;}100%{stroke-opacity:0;}}@keyframes ffMejHuw_draw_0{15.384615384615385%{stroke-dashoffset: 1742}41.02564102564103%{ stroke-dashoffset: 0;}100%{ stroke-dashoffset: 0;}}@keyframes ffMejHuw_draw_1{15.669515669515668%{stroke-dashoffset: 1367}41.31054131054132%{ stroke-dashoffset: 0;}100%{ stroke-dashoffset: 0;}}@keyframes ffMejHuw_draw_2{15.954415954415953%{stroke-dashoffset: 258}41.5954415954416%{ stroke-dashoffset: 0;}100%{ stroke-dashoffset: 0;}}@keyframes ffMejHuw_draw_3{16.23931623931624%{stroke-dashoffset: 367}41.88034188034188%{ stroke-dashoffset: 0;}100%{ stroke-dashoffset: 0;}}@keyframes ffMejHuw_draw_4{16.524216524216524%{stroke-dashoffset: 337}42.16524216524217%{ stroke-dashoffset: 0;}100%{ stroke-dashoffset: 0;}}@keyframes ffMejHuw_draw_5{16.80911680911681%{stroke-dashoffset: 269}42.45014245014245%{ stroke-dashoffset: 0;}100%{ stroke-dashoffset: 0;}}@keyframes ffMejHuw_draw_6{17.094017094017094%{stroke-dashoffset: 2262}42.73504273504275%{ stroke-dashoffset: 0;}100%{ stroke-dashoffset: 0;}}@keyframes ffMejHuw_draw_7{17.37891737891738%{stroke-dashoffset: 1547}43.01994301994302%{ stroke-dashoffset: 0;}100%{ stroke-dashoffset: 0;}}@keyframes ffMejHuw_draw_8{17.663817663817664%{stroke-dashoffset: 866}43.30484330484331%{ stroke-dashoffset: 0;}100%{ stroke-dashoffset: 0;}}@keyframes ffMejHuw_draw_9{17.948717948717945%{stroke-dashoffset: 1447}43.5897435897436%{ stroke-dashoffset: 0;}100%{ stroke-dashoffset: 0;}}@keyframes ffMejHuw_draw_10{18.233618233618234%{stroke-dashoffset: 276}43.87464387464388%{ stroke-dashoffset: 0;}100%{ stroke-dashoffset: 0;}}@keyframes ffMejHuw_draw_11{18.51851851851852%{stroke-dashoffset: 161}44.15954415954416%{ stroke-dashoffset: 0;}100%{ stroke-dashoffset: 0;}}@keyframes ffMejHuw_draw_12{18.803418803418804%{stroke-dashoffset: 129}44.44444444444445%{ stroke-dashoffset: 0;}100%{ stroke-dashoffset: 0;}}@keyframes ffMejHuw_draw_13{19.08831908831909%{stroke-dashoffset: 605}44.72934472934473%{ stroke-dashoffset: 0;}100%{ stroke-dashoffset: 0;}}@keyframes ffMejHuw_draw_14{19.37321937321937%{stroke-dashoffset: 226}45.01424501424502%{ stroke-dashoffset: 0;}100%{ stroke-dashoffset: 0;}}@keyframes ffMejHuw_draw_15{19.65811965811966%{stroke-dashoffset: 226}45.2991452991453%{ stroke-dashoffset: 0;}100%{ stroke-dashoffset: 0;}}@keyframes ffMejHuw_draw_16{19.94301994301994%{stroke-dashoffset: 208}45.58404558404558%{ stroke-dashoffset: 0;}100%{ stroke-dashoffset: 0;}}@keyframes ffMejHuw_draw_17{20.227920227920226%{stroke-dashoffset: 109}45.86894586894587%{ stroke-dashoffset: 0;}100%{ stroke-dashoffset: 0;}}@keyframes ffMejHuw_draw_18{20.51282051282051%{stroke-dashoffset: 61}46.15384615384615%{ stroke-dashoffset: 0;}100%{ stroke-dashoffset: 0;}}@keyframes ffMejHuw_draw_19{20.7977207977208%{stroke-dashoffset: 61}46.438746438746435%{ stroke-dashoffset: 0;}100%{ stroke-dashoffset: 0;}}@keyframes ffMejHuw_draw_20{21.082621082621085%{stroke-dashoffset: 182}46.72364672364672%{ stroke-dashoffset: 0;}100%{ stroke-dashoffset: 0;}}@keyframes ffMejHuw_draw_21{21.367521367521366%{stroke-dashoffset: 182}47.008547008547005%{ stroke-dashoffset: 0;}100%{ stroke-dashoffset: 0;}}@keyframes ffMejHuw_draw_22{21.65242165242165%{stroke-dashoffset: 87}47.29344729344729%{ stroke-dashoffset: 0;}100%{ stroke-dashoffset: 0;}}@keyframes ffMejHuw_draw_23{21.937321937321936%{stroke-dashoffset: 87}47.578347578347575%{ stroke-dashoffset: 0;}100%{ stroke-dashoffset: 0;}}@keyframes ffMejHuw_draw_24{22.222222222222225%{stroke-dashoffset: 87}47.86324786324787%{ stroke-dashoffset: 0;}100%{ stroke-dashoffset: 0;}}@keyframes ffMejHuw_draw_25{22.50712250712251%{stroke-dashoffset: 87}48.14814814814815%{ stroke-dashoffset: 0;}100%{ stroke-dashoffset: 0;}}@keyframes ffMejHuw_draw_26{22.79202279202279%{stroke-dashoffset: 108}48.433048433048434%{ stroke-dashoffset: 0;}100%{ stroke-dashoffset: 0;}}@keyframes ffMejHuw_draw_27{23.076923076923077%{stroke-dashoffset: 39}48.71794871794872%{ stroke-dashoffset: 0;}100%{ stroke-dashoffset: 0;}}@keyframes ffMejHuw_draw_28{23.36182336182336%{stroke-dashoffset: 32}49.002849002849004%{ stroke-dashoffset: 0;}100%{ stroke-dashoffset: 0;}}@keyframes ffMejHuw_draw_29{23.646723646723643%{stroke-dashoffset: 296}49.287749287749286%{ stroke-dashoffset: 0;}100%{ stroke-dashoffset: 0;}}@keyframes ffMejHuw_draw_30{23.93162393162393%{stroke-dashoffset: 195}49.572649572649574%{ stroke-dashoffset: 0;}100%{ stroke-dashoffset: 0;}}@keyframes ffMejHuw_draw_31{24.216524216524213%{stroke-dashoffset: 139}49.85754985754986%{ stroke-dashoffset: 0;}100%{ stroke-dashoffset: 0;}}@keyframes ffMejHuw_draw_32{24.5014245014245%{stroke-dashoffset: 296}50.142450142450144%{ stroke-dashoffset: 0;}100%{ stroke-dashoffset: 0;}}@keyframes ffMejHuw_draw_33{24.786324786324787%{stroke-dashoffset: 195}50.42735042735044%{ stroke-dashoffset: 0;}100%{ stroke-dashoffset: 0;}}@keyframes ffMejHuw_draw_34{25.071225071225072%{stroke-dashoffset: 139}50.712250712250714%{ stroke-dashoffset: 0;}100%{ stroke-dashoffset: 0;}}@keyframes ffMejHuw_draw_35{25.356125356125354%{stroke-dashoffset: 215}50.99715099715101%{ stroke-dashoffset: 0;}100%{ stroke-dashoffset: 0;}}@keyframes ffMejHuw_draw_36{25.64102564102564%{stroke-dashoffset: 141}51.28205128205129%{ stroke-dashoffset: 0;}100%{ stroke-dashoffset: 0;}}@keyframes ffMejHuw_draw_37{25.925925925925924%{stroke-dashoffset: 101}51.566951566951566%{ stroke-dashoffset: 0;}100%{ stroke-dashoffset: 0;}}@keyframes ffMejHuw_draw_38{26.21082621082621%{stroke-dashoffset: 215}51.85185185185186%{ stroke-dashoffset: 0;}100%{ stroke-dashoffset: 0;}}@keyframes ffMejHuw_draw_39{26.495726495726498%{stroke-dashoffset: 141}52.13675213675214%{ stroke-dashoffset: 0;}100%{ stroke-dashoffset: 0;}}@keyframes ffMejHuw_draw_40{26.780626780626783%{stroke-dashoffset: 101}52.42165242165242%{ stroke-dashoffset: 0;}100%{ stroke-dashoffset: 0;}}@keyframes ffMejHuw_draw_41{27.065527065527068%{stroke-dashoffset: 53}52.70655270655271%{ stroke-dashoffset: 0;}100%{ stroke-dashoffset: 0;}}@keyframes ffMejHuw_draw_42{27.35042735042735%{stroke-dashoffset: 1129}52.991452991452995%{ stroke-dashoffset: 0;}100%{ stroke-dashoffset: 0;}}@keyframes ffMejHuw_draw_43{27.635327635327634%{stroke-dashoffset: 28}53.27635327635327%{ stroke-dashoffset: 0;}100%{ stroke-dashoffset: 0;}}@keyframes ffMejHuw_draw_44{27.92022792022792%{stroke-dashoffset: 28}53.561253561253565%{ stroke-dashoffset: 0;}100%{ stroke-dashoffset: 0;}}@keyframes ffMejHuw_draw_45{28.205128205128204%{stroke-dashoffset: 28}53.84615384615385%{ stroke-dashoffset: 0;}100%{ stroke-dashoffset: 0;}}</style></svg>
