<?xml version="1.0" encoding="UTF-8" standalone="no"?>
<svg
   viewBox="0 0 563.76535 435.56224"
   width="335.85553"
   height="255.84932"
   version="1.1"
   id="svg6622"
   sodipodi:docname="AWS-Aruba-SEO-Services.svg"
   inkscape:version="1.2.2 (732a01da63, 2022-12-09)"
   xmlns:inkscape="http://www.inkscape.org/namespaces/inkscape"
   xmlns:sodipodi="http://sodipodi.sourceforge.net/DTD/sodipodi-0.dtd"
   xmlns:xlink="http://www.w3.org/1999/xlink"
   xmlns="http://www.w3.org/2000/svg"
   xmlns:svg="http://www.w3.org/2000/svg">
  <sodipodi:namedview
     id="namedview6624"
     pagecolor="#ffffff"
     bordercolor="#666666"
     borderopacity="1.0"
     inkscape:pageshadow="2"
     inkscape:pageopacity="0.0"
     inkscape:pagecheckerboard="0"
     showgrid="false"
     inkscape:zoom="1.0820131"
     inkscape:cx="275.41257"
     inkscape:cy="149.72093"
     inkscape:window-width="1366"
     inkscape:window-height="697"
     inkscape:window-x="-8"
     inkscape:window-y="-8"
     inkscape:window-maximized="1"
     inkscape:current-layer="svg6622"
     inkscape:showpageshadow="2"
     inkscape:deskcolor="#d1d1d1" />
  <style
     id="style6479"><![CDATA[.D{opacity:.24}.E{fill:#4fbefb}.F{stroke-width:2.078}.G{stroke-width:1.449}.H{fill:#fff}]]></style>
  <defs
     id="defs6504">
    <linearGradient
       id="A"
       x1="486.03"
       y1="221.36"
       x2="449.73999"
       y2="315.10001"
       gradientUnits="userSpaceOnUse">
      <stop
         offset="0"
         stop-color="#010101"
         stop-opacity="0"
         id="stop6481" />
      <stop
         offset=".95"
         stop-color="#010101"
         id="stop6483" />
    </linearGradient>
    <linearGradient
       id="B"
       x1="475.54001"
       y1="295.98001"
       x2="566.26001"
       y2="121.93"
       gradientUnits="userSpaceOnUse">
      <stop
         offset="0"
         stop-color="#fff"
         stop-opacity="0"
         id="stop6486" />
      <stop
         offset=".95"
         stop-color="#fff"
         id="stop6488" />
    </linearGradient>
    <linearGradient
       id="C"
       x1="485.73001"
       y1="265.76001"
       x2="502.35999"
       y2="169.38"
       xlink:href="#B" />
    <linearGradient
       id="D"
       x1="434.189"
       y1="201.57401"
       x2="443.06699"
       y2="184.589"
       xlink:href="#A" />
    <linearGradient
       id="E"
       x1="426.771"
       y1="167.692"
       x2="455.47699"
       y2="167.692"
       xlink:href="#B" />
    <linearGradient
       id="F"
       x1="462.82001"
       y1="158.03"
       x2="483.76001"
       y2="158.03"
       xlink:href="#A" />
    <linearGradient
       id="G"
       x1="447.78"
       y1="205.13"
       x2="468.73001"
       y2="205.13"
       gradientTransform="matrix(-0.97,-0.24,-0.24,0.97,1017.13,122.17)"
       xlink:href="#A" />
    <linearGradient
       id="H"
       x1="521.62"
       y1="265.17999"
       x2="281.23001"
       y2="322.26001"
       xlink:href="#B" />
    <linearGradient
       id="I"
       x1="453.30399"
       y1="148.33501"
       x2="463.061"
       y2="148.33501"
       xlink:href="#A"
       gradientTransform="translate(0.98245018,-9.436005)" />
    <path
       id="J"
       d="m 510.03,232.73 q -1.28,15.9 -7,23 -7.37,9.12 -20.82,9.14 -13,0 -20.66,-9.34 c -5,-6.2 -7.53,-16.27 -7.57,-30.33 a 79.16,79.16 0 0 1 2.17,-7.73 27.88,27.88 0 0 0 9.18,-8.5 c 3.51,-5.19 5.32,-11.55 9.71,-16 1.49,-1.49 3.22,-2.78 4.31,-4.56 a 9.14,9.14 0 0 0 1.25,-3.78 c 0.36,-2.66 -0.08,-5.56 -0.12,-8.3 a 26.72,26.72 0 0 1 3.94,-14.21 c 8.34,0.12 16.55,3.9 24.73,5.39 3.58,6 -2.66,13.74 -0.93,20.54 0.61,2.42 2.22,4.47 2.9,6.89 1.13,4.11 -0.6,8.13 -2.29,12.24 a 41.35,41.35 0 0 0 -1.94,5.68 c -1.6,6.62 0.5,13.4 3.14,19.87 z" />
    <path
       id="K"
       d="m 477.73,140.52 c -5.55,5.27 -11.31,10.86 -13.62,18.16 -1.73,5.43 -1.36,11.27 -1,17 0.11,1.53 0.43,3.37 1.86,3.92 1.62,0.62 3.2,-0.94 4.19,-2.36 3.36,-4.82 6.19,-10.19 10.84,-13.77 a 8.74,8.74 0 0 0 2.14,-2 7.17,7.17 0 0 0 0.81,-3.73 c 0.26,-7.1 0.74,-14.33 0.78,-21.37 -2.38,0.62 -4.16,2.39 -6,4.15 z" />
    <linearGradient
       xlink:href="#A"
       id="L" />
    <linearGradient
       xlink:href="#B"
       id="M" />
    <path
       id="N"
       d="m 428.352,192.762 c 0,0 -0.406,5.534 0.712,7.156 1.118,1.622 8.679,4.773 11.605,3.366 a 19.792,18.715 0 0 0 4.948,-3.528 l 1.474,-5.116 z" />
    <path
       id="O"
       d="m 426.771,183.822 c 0,0 3.225,-41.738 20.447,-46.309 17.222,-4.571 2.136,55.471 2.136,55.471 0,0 -22.583,16.285 -22.583,-9.162 z" />
  </defs>
  <path
     d="m 559.97067,205.97821 c -9.13,30.534 -25.942,58.126 -42.194,85.543 -7.482,12.55 -15.063,25.642 -16.678,40.143 -1.18,10.767 0.979,21.667 0.201,32.451 -2.184,30.809 -28.645,55.91 -58.252,65.16 -29.607,9.25 -61.675,5.533 -92.053,-0.833 -30.378,-6.366 -60.42,-15.301 -91.426,-16.342 -22.31,-0.742 -44.487,2.584 -66.53,6.009 -26.729,4.167 -54.027,8.334 -80.647,3.658 -26.619997,-4.676 -52.921997,-19.993 -63.265997,-44.902 -12.879,-30.976 1.674,-67.018 -6.277,-99.611 -2.326,-9.651 -6.511,-18.525 -11.457,-27.151 -3.707,-6.509 -7.85,-12.851 -11.959,-19.167 -7.18,-11.109 -14.226,-22.351 -18.57,-34.701 -11.39,-32.384 -1.657,-71.077 23.758,-94.303 46.027,-42.117002 116.873997,-27.884002 169.879997,-55.410002 58.479,-30.401 107.117,-63.626 176.407,-34.668 19.173,8.025 36.528,19.909 55.776,27.826 16.142,6.667 33.399,10.301 50.01,15.734 l 1.498,0.516 a 188.157,187.372 0 0 1 23.867,9.801 c 21.759,10.834 41.005,26.242 52.436,47.318002 15.248,27.984 14.578,62.385 5.473,92.928 z"
     opacity="0.501"
     fill="#aaccff"
     id="path6506"
     style="stroke:none;stroke-width:1.449;fill:#ffaaaa" />
  <path
     d="m 490.21167,60.633208 -0.954,68.510002 -16.837,9.209 -4.268,-51.027002 -170.909,113.336002 -89.116,-73.893 -176.733997,123.336 c -3.707,-6.509 -7.85,-12.851 -11.959,-19.167 L 209.30667,98.342208 l 89.476,74.260002 155.369,-100.627002 c 0.167,0.049 -44.596,-15.591 -44.596,-15.591 1.322,-0.942 9.456,-10 10.879,-11.025 l 57.742,10.567 c 8.159,2.717 4.319,0.884 12.034,4.709 z"
     fill="#2a7fff"
     opacity="0.987"
     id="path6508"
     style="stroke:none;stroke-width:1.4487569;stroke-dasharray:none;fill:#ff8080;fill-opacity:1" />
  <g
     transform="matrix(0.836848,0,0,0.833356,-3.855188,0.714629)"
     class="F"
     id="g6530"
     style="stroke:none;fill:#ff2a2a">
    <g
       class="E"
       id="g6522"
       style="stroke:none;fill:#ff2a2a">
      <rect
         x="539.96997"
         y="146.03"
         width="100.68"
         height="35.27"
         rx="9.8999996"
         class="D"
         id="rect6512"
         style="stroke:none;fill:#ff2a2a" />
      <rect
         x="438.60999"
         y="421.35999"
         width="144.33"
         height="50.560001"
         rx="14.19"
         class="D"
         id="rect6514"
         style="stroke:none;fill:#ff2a2a" />
      <rect
         x="61.580002"
         y="304"
         width="131.42999"
         height="46.560001"
         rx="12.99"
         class="D"
         id="rect6516"
         style="stroke:none;fill:#ff2a2a" />
      <rect
         x="103.23"
         y="415.5"
         width="102.57"
         height="39.779999"
         rx="10.61"
         class="D"
         id="rect6518"
         style="stroke:none;fill:#ff2a2a" />
      <path
         d="m 408.46,242.81 q 0,-36.75 18.85,-57.22 18.85,-20.47 52.51,-20.47 34.5,0 53.16,20.11 18.66,20.11 18.67,56.35 0,26.31 -8.16,43.15 a 61,61 0 0 1 -23.57,26.2 q -15.4,9.33 -38.41,9.33 -23.37,0 -38.69,-8.09 -15.32,-8.09 -24.79,-25.55 -9.57,-17.5 -9.57,-43.81 z m 42.7,0.21 q 0,22.73 7.78,32.65 7.78,9.92 21.16,9.93 13.76,0 21.3,-9.73 7.54,-9.73 7.54,-34.9 0,-21.19 -7.87,-31 -7.87,-9.81 -21.35,-9.71 a 25.1,25.1 0 0 0 -20.69,9.9 q -7.86,9.93 -7.87,32.86 z m -320.22,26.41 40.86,-2.56 q 1.33,10 5.41,15.17 6.63,8.45 19,8.44 9.2,0 14.17,-4.32 4.97,-4.32 5,-10 0,-5.4 -4.74,-9.67 -4.74,-4.27 -22,-8.06 -28.25,-6.35 -40.29,-16.87 a 33.94,33.94 0 0 1 -12.13,-26.83 36.44,36.44 0 0 1 6.21,-20.24 q 6.21,-9.53 18.67,-15 12.46,-5.47 34.18,-5.45 26.64,0 40.62,9.91 13.98,9.91 16.64,31.52 l -40.51,2.39 q -1.62,-9.39 -6.78,-13.65 -5.16,-4.26 -14.27,-4.27 -7.48,0 -11.28,3.18 a 9.73,9.73 0 0 0 -3.79,7.73 7.73,7.73 0 0 0 3.13,6 q 3,2.74 14.41,5.12 28.16,6.06 40.34,12.27 12.18,6.21 17.72,15.41 a 39,39 0 0 1 5.52,20.54 44.07,44.07 0 0 1 -7.4,24.65 46.2,46.2 0 0 1 -20.66,17.11 q -13.27,5.83 -33.47,5.83 -35.44,0 -49.1,-13.65 -13.66,-13.65 -15.46,-34.7 z m 147.61,-93 h 115.09 v 29.68 h -72.05 v 22.08 h 66.83 v 28.35 h -66.83 v 27.4 h 74.13 v 31.47 H 278.55 Z"
         opacity="0.37"
         id="path6520"
         style="stroke:none;fill:#ff2a2a" />
    </g>
    <g
       class="H"
       id="g6528"
       style="stroke:none;fill:#ff2a2a">
      <path
         d="m 132.08,247.32 40.86,-2.56 q 1.32,10 5.4,15.17 6.65,8.44 19,8.44 9.19,0 14.17,-4.32 4.98,-4.32 5,-10 0,-5.4 -4.74,-9.67 -4.74,-4.27 -22,-8.06 -28.26,-6.35 -40.29,-16.87 a 34,34 0 0 1 -12.14,-26.83 36.44,36.44 0 0 1 6.21,-20.24 q 6.21,-9.52 18.68,-15 12.47,-5.48 34.17,-5.45 26.64,0 40.63,9.91 13.99,9.91 16.63,31.52 l -40.48,2.37 q -1.6,-9.39 -6.78,-13.65 -5.18,-4.26 -14.26,-4.27 -7.5,0 -11.28,3.18 a 9.73,9.73 0 0 0 -3.8,7.72 7.73,7.73 0 0 0 3.13,6 q 3,2.76 14.41,5.13 28.15,6.06 40.34,12.27 12.19,6.21 17.73,15.41 a 39.12,39.12 0 0 1 5.54,20.57 44.14,44.14 0 0 1 -7.39,24.65 46.29,46.29 0 0 1 -20.67,17.11 q -13.27,5.84 -33.46,5.83 -35.46,0 -49.11,-13.65 -13.65,-13.65 -15.5,-34.71 z m 147.6,-93 h 115.09 v 29.67 h -72.05 v 22.09 h 66.84 v 28.35 h -66.84 v 27.4 h 74.14 v 31.43 H 279.68 Z"
         id="path6524"
         style="stroke:none;fill:#ff2a2a" />
      <rect
         x="138.14999"
         y="358.59"
         width="397.62"
         height="46.869999"
         rx="14.43"
         id="rect6526"
         style="stroke:none;fill:#ff2a2a" />
    </g>
  </g>
  <path
     d="m 437.43067,298.80621 c -1.606,-0.63 -3.307,-0.949 -5.021,-0.942 h -308.57 c -7.597,0.004 -13.76,6.126 -13.783,13.693 v 15.001 c 0.019,7.569 6.183,13.696 13.783,13.7 h 308.604 c 7.576,-0.05 13.703,-6.156 13.749,-13.7 v -15.001 c -0.004,-5.642 -3.482,-10.704 -8.762,-12.75 z m 5.398,27.784 c -0.013,5.706 -4.656,10.329 -10.385,10.342 h -308.604 c -5.741,0 -10.4,-4.625 -10.419,-10.342 v -15.001 c 0.024,-5.713 4.682,-10.334 10.419,-10.334 h 308.604 c 5.727,0.014 10.367,4.631 10.385,10.334 z"
     class="D"
     id="path6532"
     style="fill:#ffffff;stroke:none;stroke-width:1.449" />
  <path
     d="m 123.68867,322.83221 c 0.684,0.422 1.459,0.654 2.251,0.675 1.239,0 1.816,-0.616 1.816,-1.391 0,-0.775 -0.485,-1.25 -1.741,-1.717 -1.674,-0.6 -2.511,-1.525 -2.511,-2.642 0,-1.508 1.221,-2.742 3.238,-2.742 a 4.71,4.71 0 0 1 2.31,0.576 l -0.427,1.242 a 3.65,3.65 0 0 0 -1.916,-0.542 c -1.012,0 -1.573,0.576 -1.573,1.275 0,0.699 0.561,1.117 1.782,1.583 1.632,0.608 2.46,1.425 2.46,2.816 0,1.666 -1.28,2.8 -3.506,2.8 a 5.4,5.4 0 0 1 -2.637,-0.641 z m 8.887,-2.626 a 2.99,2.99 0 0 0 0.847,2.341 3.01,3.01 0 0 0 2.332,0.893 c 0.892,0.031 1.781,-0.135 2.602,-0.483 l 0.293,1.217 c -0.993,0.414 -2.055,0.613 -3.122,0.583 -2.895,0 -4.619,-1.892 -4.619,-4.716 0,-2.824 1.674,-5 4.402,-5 3.063,0 3.874,2.684 3.874,4.4 a 7.23,7.23 0 0 1 -0.051,0.792 z m 5.021,-1.217 c 0,-1.083 -0.451,-2.758 -2.369,-2.758 -1.724,0 -2.511,1.575 -2.619,2.758 z m 8.896,5.576 -0.134,-1.175 h -0.059 a 3.51,3.51 0 0 1 -2.87,1.391 2.68,2.68 0 0 1 -2.025,-0.716 c -0.539,-0.496 -0.848,-1.214 -0.845,-1.968 0,-2.258 2.017,-3.492 5.641,-3.475 v -0.183 a 1.92,1.92 0 0 0 -0.534,-1.598 c -0.425,-0.427 -1.008,-0.634 -1.592,-0.568 -0.859,10e-4 -1.702,0.242 -2.444,0.699 l -0.394,-1.125 c 0.932,-0.558 2.001,-0.847 3.088,-0.833 2.87,0 3.565,1.95 3.565,3.816 v 3.5 a 13.03,13.03 0 0 0 0.15,2.233 z m -0.252,-4.767 c -1.858,-0.042 -3.975,0.292 -3.975,2.108 -0.035,0.436 0.122,0.865 0.431,1.176 a 1.51,1.51 0 0 0 1.175,0.441 c 1.017,0.03 1.935,-0.602 2.267,-1.559 a 1.79,1.79 0 0 0 0.1,-0.542 z m 4.394,-1.659 -0.075,-2.917 h 1.489 l 0.059,1.833 h 0.075 c 0.333,-1.17 1.382,-1.994 2.602,-2.041 a 1.74,1.74 0 0 1 0.485,0.058 v 1.601 a 2.4,2.4 0 0 0 -0.585,-0.058 2.39,2.39 0 0 0 -2.285,2.184 4.38,4.38 0 0 0 -0.075,0.792 v 5 h -1.674 z m 12.829,6.083 a 6.26,6.26 0 0 1 -2.694,0.542 c -2.828,0 -4.67,-1.916 -4.67,-4.775 -0.058,-1.356 0.456,-2.671 1.403,-3.591 0.957,-0.946 2.272,-1.442 3.618,-1.368 a 5.75,5.75 0 0 1 2.369,0.483 l -0.394,1.317 a 3.93,3.93 0 0 0 -1.975,-0.451 c -2.151,0 -3.348,1.583 -3.348,3.533 -0.083,0.906 0.223,1.805 0.845,2.472 a 3.23,3.23 0 0 0 2.411,1.027 4.9,4.9 0 0 0 2.092,-0.467 z m 1.991,-13.358 h 1.674 v 5.833 a 3.24,3.24 0 0 1 1.221,-1.2 3.6,3.6 0 0 1 1.749,-0.475 c 1.264,0 3.272,0.766 3.272,3.992 v 5.558 h -1.674 v -5.366 c 0,-1.5 -0.561,-2.775 -2.168,-2.775 -1.039,0.017 -1.955,0.685 -2.285,1.666 a 1.97,1.97 0 0 0 -0.118,0.833 v 5.634 h -1.674 z"
     opacity="0.56"
     id="path6534"
     style="fill:#ffffff;stroke:none;stroke-width:1.449;opacity:1" />
  <path
     d="m 446.19267,311.55721 v 15.001 a 13.51,13.51 0 0 1 -5.489,10.908 h -40.168 v -38.66 h 36.905 c 5.277,2.049 8.751,7.111 8.753,12.75 z"
     id="path6536"
     style="fill:#ffffff;stroke:none;stroke-width:1.449" />
  <g
     class="G H"
     id="g6544"
     transform="translate(-39.948327,-45.025792)"
     style="stroke:none;fill:#ff0800;fill-opacity:1">
    <path
       d="m 458.208,370.832 c -4.784,0.004 -9.099,-2.865 -10.932,-7.265 a 11.74,11.74 0 0 1 2.561,-12.836 c 3.383,-3.368 8.471,-4.376 12.89,-2.551 4.419,1.825 7.299,6.121 7.296,10.886 -0.014,6.493 -5.297,11.753 -11.817,11.768 z m 0,-20.267 c -3.453,-0.004 -6.568,2.066 -7.892,5.241 -1.324,3.175 -0.596,6.833 1.845,9.266 2.441,2.433 6.112,3.162 9.304,1.847 3.192,-1.315 5.271,-4.416 5.272,-7.855 0,-4.69 -3.817,-8.496 -8.528,-8.501 z"
       id="path6540"
       style="stroke:none;fill:#ff0800;fill-opacity:1" />
    <path
       d="m 462.381,367.314 2.783,-2.192 7.844,9.876 -2.783,2.192 z m 20.463,-179.578 q -15.281,-15.75 -43.441,-15.776 -27.508,0 -42.939,16.042 c -10.243,10.741 -15.406,25.676 -15.406,44.909 q 0,20.642 7.791,34.368 7.791,13.726 20.319,20.068 12.494,6.35 31.616,6.342 18.803,0 31.374,-7.351 c 8.301,-4.814 14.995,-11.956 19.248,-20.534 q 6.611,-13.251 6.637,-33.868 0.016,-28.384 -15.197,-44.201 z M 415.98,233.08 q 0,-18.025 6.369,-25.776 c 3.855,-4.835 9.701,-7.671 15.9,-7.717 a 5.48,5.48 0 0 1 1.046,-0.067 q 11.004,0 17.456,7.65 c 2.575,3.279 4.33,7.12 5.121,11.208 0.927,4.302 1.368,8.693 1.314,13.092 0,2.95 -0.1,5.667 -0.301,8.217 q -1.071,13.251 -5.858,19.167 -6.168,7.601 -17.424,7.617 -10.879,0 -17.29,-7.784 c -4.185,-5.167 -6.302,-13.559 -6.334,-25.276 z"
       id="path6542"
       style="stroke:none;fill:#ff0800;fill-opacity:1" />
  </g>
  <use
     xlink:href="#J"
     transform="matrix(0.836848,0,0,0.833356,-3.855188,0.714629)"
     class="E F"
     id="use6546"
     x="0"
     y="0"
     width="100%"
     height="100%"
     style="stroke:none" />
  <g
     transform="matrix(0.836848,0,0,0.833356,-5.503777,-39.069752)"
     class="F"
     id="g6554"
     style="stroke:none">
    <use
       xlink:href="#J"
       x="1.97"
       y="47.740002"
       fill="url(#L)"
       id="use6548"
       style="fill:url(#L);stroke:none"
       width="100%"
       height="100%" />
    <path
       d="m 506.89,283.07 q -1,15.89 -5.25,23 c -3.68,6.08 -8.87,9.15 -15.6,9.15 q -9.78,0 -15.48,-9.35 c -3.74,-6.2 -5.64,-16.27 -5.67,-30.32 q 0.67,-4 1.63,-7.73 a 25.16,25.16 0 0 0 6.88,-8.5 c 2.62,-5.2 4,-11.56 7.27,-16 a 26.11,26.11 0 0 0 3.23,-4.55 11.46,11.46 0 0 0 0.93,-3.79 76.65,76.65 0 0 0 -0.09,-8.29 33.79,33.79 0 0 1 3,-14.22 c 6.24,0.12 12.4,3.91 18.52,5.4 2.69,6 -2,13.73 -0.69,20.54 0.45,2.41 1.66,4.47 2.17,6.88 0.85,4.11 -0.45,8.14 -1.72,12.25 a 53.49,53.49 0 0 0 -1.45,5.67 c -1.21,6.61 0.36,13.41 2.32,19.86 z"
       fill="url(#M)"
       id="path6550"
       style="fill:url(#M);stroke:none" />
    <path
       d="m 486.64,243.89 1.3,-1.45 a 31.82,31.82 0 0 1 -7,20.75 c -2.17,2.68 -4.87,5.16 -5.71,8.51 A 39.79,39.79 0 0 0 492.39,246 c 0.7,-3.71 1,-7.77 3.36,-10.7 l 0.49,5.11 a 104.84,104.84 0 0 0 5.37,-12.24 c 0.3,-0.81 0.54,-1.85 -0.11,-2.42 a 2.24,2.24 0 0 0 -1.27,-0.41 c -4,-0.39 -8.44,-1.72 -10.5,2.34 -2.35,4.66 -2.89,11.11 -3.09,16.21 z"
       fill="url(#C)"
       id="path6552"
       style="fill:url(#C);stroke:none" />
  </g>
  <g
     transform="matrix(1.175439,0,0,1.237912,-103.31782,-100.62061)"
     stroke-width="0.996"
     id="g6564"
     style="stroke:none">
    <use
       xlink:href="#N"
       class="E"
       id="use6556"
       x="0"
       y="0"
       width="100%"
       height="100%"
       style="stroke:none" />
    <use
       xlink:href="#N"
       fill="url(#D)"
       id="use6558"
       style="fill:url(#D);stroke:none"
       x="0"
       y="0"
       width="100%"
       height="100%" />
    <use
       xlink:href="#O"
       class="E"
       id="use6560"
       x="0"
       y="0"
       width="100%"
       height="100%"
       style="stroke:none" />
    <use
       xlink:href="#O"
       fill="url(#E)"
       id="use6562"
       style="fill:url(#E);stroke:none"
       x="0"
       y="0"
       width="100%"
       height="100%" />
  </g>
  <g
     transform="matrix(0.836848,0,0,0.833356,-3.855188,0.714629)"
     class="F"
     id="g6570"
     style="stroke:none">
    <use
       xlink:href="#K"
       class="E"
       id="use6566"
       x="0"
       y="0"
       width="100%"
       height="100%"
       style="stroke:none" />
    <use
       xlink:href="#K"
       fill="url(#F)"
       id="use6568"
       style="fill:url(#F);stroke:none"
       x="0"
       y="0"
       width="100%"
       height="100%" />
  </g>
  <path
     d="m 432.33467,123.18521 c 3.473,5.366 7.047,11.034 7.482,17.393 0.327,4.741 -1.138,9.401 -2.578,13.925 -0.384,1.217 -1.012,2.642 -2.285,2.809 -1.448,0.183 -2.419,-1.391 -2.946,-2.742 -1.774,-4.558 -3.013,-9.466 -6.084,-13.284 a 7.372,7.342 0 0 1 -1.347,-2.017 6.109,6.083 0 0 1 0.075,-3.184 l 3.606,-17.5 c 1.833,1.034 2.929,2.816 4.075,4.6 z"
     class="E G"
     id="path6572"
     style="stroke:none" />
  <g
     transform="matrix(0.836848,0,0,0.833356,-5.503777,-39.069752)"
     class="F"
     id="g6578"
     style="stroke:none">
    <path
       d="m 523.17,194.88 c 4.14,6.43 8.41,13.23 8.93,20.87 0.39,5.68 -1.35,11.27 -3.08,16.71 -0.46,1.46 -1.21,3.17 -2.73,3.36 -1.72,0.22 -2.89,-1.67 -3.52,-3.29 -2.12,-5.47 -3.6,-11.35 -7.26,-15.93 a 8.59,8.59 0 0 1 -1.61,-2.42 7.19,7.19 0 0 1 0.08,-3.82 l 4.31,-21 c 2.2,1.24 3.5,3.38 4.88,5.52 z"
       fill="url(#G)"
       id="path6574"
       style="fill:url(#G);stroke:none" />
    <path
       d="m 495.72,248.4 a 33,33 0 0 0 -2.42,7.78 c -0.36,2.66 -0.06,5.37 -0.3,8 -0.47,5.42 -3.08,10.39 -4.53,15.64 -2.06,7.48 -1.71,15.38 -1.34,23.12 L 496,274.4 a 44.59,44.59 0 0 0 2,-8 62.5,62.5 0 0 0 -0.05,-9.28 93.07,93.07 0 0 1 1.1,-16.17 c -1.53,2.13 -2.34,4.99 -3.33,7.45 z"
       fill="url(#H)"
       id="path6576"
       style="fill:url(#H);stroke:none" />
  </g>
  <g
     class="G"
     id="g6586"
     transform="translate(-39.948327,-45.025792)"
     style="stroke:none">
    <ellipse
       cx="459.16486"
       cy="139.17752"
       rx="5.9920001"
       ry="5.967"
       class="E"
       id="ellipse6580"
       style="stroke:none" />
    <ellipse
       cx="459.16446"
       cy="138.899"
       fill="url(#I)"
       rx="4.8790002"
       ry="4.8590002"
       id="ellipse6582"
       style="fill:url(#I);stroke:none" />
    <rect
       x="407.69601"
       y="403.20901"
       width="116.087"
       height="40.493"
       rx="11.415"
       class="H"
       id="rect6584"
       style="stroke:none" />
  </g>
  <g
     transform="matrix(0.836848,0,0,0.833356,-3.855188,0.714629)"
     class="E F"
     id="g6592"
     style="stroke:none;fill:#ff0000">
    <rect
       x="458.41"
       y="442.26999"
       width="112.33"
       height="4.1799998"
       rx="2.0899999"
       class="D"
       id="rect6588"
       style="stroke:none;fill:#ff0000" />
    <rect
       x="458.41"
       y="453.82999"
       width="79.059998"
       height="3.95"
       rx="1.7"
       class="D"
       id="rect6590"
       style="stroke:none;fill:#ff0000" />
  </g>
  <rect
     x="37.26667"
     y="245.27921"
     width="116.087"
     height="40.493"
     rx="11.415"
     class="G H"
     id="rect6594"
     style="stroke:none" />
  <g
     transform="matrix(0.836848,0,0,0.833356,-3.855188,0.714629)"
     class="E F"
     id="g6600"
     style="stroke:none;fill:#ff0000">
    <rect
       x="63.509998"
       y="306.79001"
       width="112.33"
       height="4.1799998"
       rx="2.0899999"
       class="D"
       id="rect6596"
       style="stroke:none;fill:#ff0000" />
    <rect
       x="63.509998"
       y="318.35001"
       width="79.059998"
       height="3.95"
       rx="1.7"
       class="D"
       id="rect6598"
       style="stroke:none;fill:#ff0000" />
  </g>
  <rect
     x="80.524673"
     y="351.17422"
     width="84.253998"
     height="29.393"
     rx="8.2840004"
     class="G H"
     id="rect6602"
     style="stroke:none" />
  <g
     transform="matrix(0.836848,0,0,0.833356,-3.855188,0.714629)"
     class="E F"
     id="g6608"
     style="stroke:none;fill:#d40000">
    <rect
       x="111.26"
       y="430.20999"
       width="81.529999"
       height="3.03"
       rx="1.52"
       class="D"
       id="rect6604"
       style="stroke:none;fill:#d40000" />
    <rect
       x="111.26"
       y="438.60001"
       width="57.389999"
       height="2.8699999"
       rx="1.24"
       class="D"
       id="rect6606"
       style="stroke:none;fill:#d40000" />
  </g>
  <rect
     x="448.23669"
     y="115.26987"
     width="84.253998"
     height="29.393"
     rx="8.2840004"
     class="G H"
     id="rect6610"
     style="stroke:none" />
  <g
     transform="matrix(0.836848,0,0,0.833356,-3.855188,0.714629)"
     class="E F"
     id="g6618"
     style="stroke:none;fill:#ff0000">
    <rect
       x="553.71002"
       y="144.74001"
       width="81.529999"
       height="3.03"
       rx="1.52"
       class="D"
       id="rect6612"
       style="stroke:none;fill:#ff0000" />
    <rect
       x="553.71002"
       y="153.13"
       width="57.389999"
       height="2.8699999"
       rx="1.24"
       class="D"
       id="rect6614"
       style="stroke:none;fill:#ff0000" />
    <path
       d="m 216.01,365.39 h 1.51 v 29.48 h -1.51 z"
       class="D"
       id="path6616"
       style="stroke:none;fill:#ff0000" />
  </g>
</svg>
