<!--?xml version="1.0" encoding="UTF-8" standalone="no"?-->
<svg data-name="Layer 1" width="645.52063" height="506.94424" viewBox="0 0 645.52065 506.94425" version="1.1" id="svg1050" sodipodi:docname="AWS-Aruba-Local-SEO-Services.svg" inkscape:version="1.2.2 (732a01da63, 2022-12-09)" xmlns:inkscape="http://www.inkscape.org/namespaces/inkscape" xmlns:sodipodi="http://sodipodi.sourceforge.net/DTD/sodipodi-0.dtd" xmlns="http://www.w3.org/2000/svg" xmlns:svg="http://www.w3.org/2000/svg" style="">
  <defs id="defs1054">
    <linearGradient id="a" x1="46.869633" x2="854.4834" y1="666.05511" y2="666.05511" gradientTransform="scale(1.1514919,0.86843861)" gradientUnits="userSpaceOnUse">
      <stop offset=".03" stop-color="#4079d8" id="stop1225"></stop>
      <stop offset="1" stop-color="#4989f5" id="stop1227"></stop>
    </linearGradient>
  </defs>
  <sodipodi:namedview id="namedview1052" pagecolor="#ffffff" bordercolor="#666666" borderopacity="1.0" inkscape:pageshadow="2" inkscape:pageopacity="0.0" inkscape:pagecheckerboard="0" showgrid="false" inkscape:zoom="0.98564212" inkscape:cx="378.4335" inkscape:cy="-40.582681" inkscape:window-width="1366" inkscape:window-height="697" inkscape:window-x="-8" inkscape:window-y="-8" inkscape:window-maximized="1" inkscape:current-layer="svg1050" inkscape:showpageshadow="2" inkscape:deskcolor="#d1d1d1"></sodipodi:namedview>
  <path d="m 429.85411,506.94425 -0.13696,-0.0126 L 215.66732,487.60146 21.02447,505.17912 A 19.244357,18.708315 0 0 1 0.08265038,488.28139 q -0.0824200019,-0.8627 -0.0824900019,-1.73004 V 36.527263 A 19.158161,18.62452 0 0 1 17.464428,17.899463 L 215.66735,0 215.80431,0.01264 429.8541,19.342775 624.49602,1.765136 a 19.244366,18.708324 0 0 1 20.94195,16.897609 q 0.0824,0.862772 0.0825,1.7302 V 470.41664 a 19.158376,18.624729 0 0 1 -17.46418,18.62812 z" fill="#3f3d56" id="path1000" style="fill: rgb(255, 170, 170); stroke-width: 2.983; opacity: 0.395122; stroke: rgb(255, 0, 0); stroke-opacity: 1;" class="kCTcmdHo_0"></path>
  <path d="M 298.3795,166.48663 C 256.94512,137.15062 213.34942,109.3329 168.81376,83.810513 l -2.23531,-1.28077 V 169.09139 H 302.05833 Z M 169.53907,166.21319 V 87.573773 c 42.36723,24.363897 83.85333,50.800087 123.41531,78.639437 z m 338.53667,178.16734 q -26.87905,-27.16658 -55.14954,-53.09546 -7.79389,-7.15584 -15.68394,-14.19667 -48.15161,-43.00023 -99.47091,-81.79108 l -0.39972,-0.30219 H 166.57845 V 346.81979 H 510.48892 Z M 169.53907,343.94164 V 197.87333 h 166.81838 q 49.48412,37.42005 96.28834,79.028 8.12688,7.22061 16.14307,14.55648 28.02233,25.60156 54.73501,52.48383 z m 338.53667,0.43889 q -26.87905,-27.16658 -55.14954,-53.09546 -7.79389,-7.15584 -15.68394,-14.19667 -48.15161,-43.00023 -99.47091,-81.79108 l -0.39972,-0.30219 H 166.57845 V 346.81979 H 510.48892 Z M 169.53907,343.94164 V 197.87333 h 166.81838 q 49.48412,37.42005 96.28834,79.028 8.12688,7.22061 16.14307,14.55648 28.02233,25.60156 54.73501,52.48383 z M 298.3795,166.48663 C 256.94512,137.15062 213.34942,109.3329 168.81376,83.810513 l -2.23531,-1.28077 V 169.09139 H 302.05833 Z M 169.53907,166.21319 V 87.573773 c 42.36723,24.363897 83.85333,50.800087 123.41531,78.639437 z m 128.84043,0.27344 C 256.94512,137.15062 213.34942,109.3329 168.81376,83.810513 l -2.23531,-1.28077 V 169.09139 H 302.05833 Z M 169.53907,166.21319 V 87.573773 c 42.36723,24.363897 83.85333,50.800087 123.41531,78.639437 z m 338.53667,178.16734 q -26.87905,-27.16658 -55.14954,-53.09546 -7.79389,-7.15584 -15.68394,-14.19667 -48.15161,-43.00023 -99.47091,-81.79108 l -0.39972,-0.30219 H 166.57845 V 346.81979 H 510.48892 Z M 169.53907,343.94164 V 197.87333 h 166.81838 q 49.48412,37.42005 96.28834,79.028 8.12688,7.22061 16.14307,14.55648 28.02233,25.60156 54.73501,52.48383 z M 20.04054,372.72356 v 2.8782 h 116.93129 v 41.7338 H 20.04054 v 2.87821 h 119.89194 v -47.49021 z m 146.53791,73.39394 v 29.16331 l 2.96067,-0.2663 v -26.01888 h 455.94179 v -2.8782 z m 458.90246,-70.51574 v -2.8782 H 166.57845 v 47.49021 h 458.90246 v -2.87821 H 169.53909 V 375.60172 Z M 348.99228,166.21317 A 1444.627,1404.3876 0 0 0 169.53909,51.265358 V 22.123671 l -2.96068,0.266224 v 29.367269 l 2.27977,2.436773 A 1441.6643,1401.5075 0 0 1 347.58569,168.78919 l 0.39972,0.3022 h 277.4955 v -2.8782 z m -212.02048,0 H 20.04054 v 2.8782 H 139.93248 V 24.793181 l -2.96067,0.266232 z m 488.50911,28.78196 H 381.52994 l 3.19015,2.54718 q 45.05343,36.0386 88.47177,76.44486 6.17312,5.74193 12.30165,11.57751 30.50951,28.97982 59.82761,59.85202 l 2.44081,1.40314 h 77.71896 v -2.8782 h -77.53235 q -28.99973,-30.56645 -59.25771,-59.36272 -6.05053,-5.7636 -12.14586,-11.448 -42.4784,-39.62197 -86.76992,-75.25757 H 625.48091 Z M 20.04054,446.11747 v 2.87816 h 116.93129 v 28.95459 l 2.96067,-0.26622 v -31.56653 z m 0,-251.12234 v 2.8782 H 136.97183 V 343.94164 H 20.04054 v 2.8782 H 139.93248 V 194.99513 Z m 278.33895,-28.5085 C 256.94511,137.15062 213.34942,109.3329 168.81375,83.810513 l -2.23531,-1.28077 V 169.09139 H 302.05833 Z M 169.53906,166.21319 V 87.573773 c 42.36723,24.363897 83.85333,50.800087 123.41531,78.639437 z m 338.53667,178.16734 q -26.87905,-27.16658 -55.14954,-53.09546 -7.79388,-7.15584 -15.68393,-14.19667 -48.15161,-43.00023 -99.47091,-81.79108 l -0.39972,-0.30219 H 166.57845 V 346.81979 H 510.48892 Z M 169.53906,343.94164 V 197.87333 h 166.81839 q 49.48412,37.42005 96.28834,79.028 8.12688,7.22061 16.14307,14.55648 28.02233,25.60156 54.73501,52.48383 z M 298.3795,166.48663 C 256.94512,137.15062 213.34942,109.3329 168.81376,83.810513 l -2.23531,-1.28077 V 169.09139 H 302.05833 Z M 169.53907,166.21319 V 87.573773 c 42.36723,24.363897 83.85333,50.800087 123.41531,78.639437 z m 338.53667,178.16734 q -26.87905,-27.16658 -55.14954,-53.09546 -7.79389,-7.15584 -15.68394,-14.19667 -48.15161,-43.00023 -99.47091,-81.79108 l -0.39972,-0.30219 H 166.57845 V 346.81979 H 510.48892 Z M 169.53907,343.94164 V 197.87333 h 166.81838 q 49.48412,37.42005 96.28834,79.028 8.12688,7.22061 16.14307,14.55648 28.02233,25.60156 54.73501,52.48383 z" fill="#ffffff" id="path1002" style="stroke-width:0.882618" class="kCTcmdHo_1"></path>
  <path d="m 333.34421,272.39725 c 0,36.44666 -67.88338,117.63888 -67.88338,117.63888 0,0 -67.88339,-81.1922 -67.88339,-117.63888 a 67.883389,65.99253 0 0 1 135.76677,0 z" fill="#009cff" id="path1004" style="stroke-width:0.882618;fill:#ff0800;fill-opacity:1" class="kCTcmdHo_2"></path>
  <path d="m 296.49404,269.52801 a 31.032421,30.168028 0 1 1 -31.03242,-30.16802 31.018179,30.154183 0 0 1 31.03242,30.16802 z" fill="#ffffff" style="isolation: isolate; stroke-width: 1.283; stroke: rgb(255, 0, 0); stroke-opacity: 1;" id="path1006" class="kCTcmdHo_3"></path>
  <path fill="#009cff" id="circle1008" style="stroke-width: 1.383; fill: rgb(255, 8, 0); fill-opacity: 1; stroke: rgb(255, 0, 0); stroke-opacity: 1;" d="M247.161818,419.87616A18.299002,17.789291 0,1,1 283.759822,419.87616A18.299002,17.789291 0,1,1 247.161818,419.87616" class="kCTcmdHo_4"></path>
  <path fill="#ff6584" id="circle1010" style="fill:#ff0800;stroke-width:0.882618;fill-opacity:1" d="M411.01057,87.260696A27.05504,26.301435 0,1,1 465.12065,87.260696A27.05504,26.301435 0,1,1 411.01057,87.260696" class="kCTcmdHo_5"></path>
  <path d="m 522.90719,168.31206 h -132.7239 a 2.7068611,2.6314628 0 0 1 -0.49598,-0.0382 L 452.45962,62.571843 a 4.3951313,4.2727071 0 0 1 7.65073,0 l 42.12809,70.934267 2.01828,3.3942 z" fill="#ffffff" id="path1012" style="stroke-width:0.882618;stroke:none;stroke-opacity:1" class="kCTcmdHo_6"></path>
  <path opacity="0.2" style="isolation:isolate" id="polygon1014" transform="matrix(0.8951734,0,0,0.87023878,-1.6219109e-6,0)" d="M563.306,157.313L584.141,193.409L533.519,193.409L558.369,157.313L560.157,154.713L561.052,153.413Z" class="kCTcmdHo_7"></path>
  <path d="M 596.80691,168.31206 H 482.01167 l 22.24506,-31.41175 1.60083,-2.26281 28.98733,-40.935557 c 1.9004,-2.68289 6.47217,-2.84995 8.70646,-0.50603 a 5.2394499,5.0935076 0 0 1 0.41743,0.50603 z" fill="#ffffff" id="path1016" style="stroke-width:0.882618;stroke:none;stroke-opacity:1" class="kCTcmdHo_8"></path>
  <path fill="#ffffff" id="circle1018" style="stroke-width: 1.383; fill: rgb(255, 85, 85); stroke: rgb(255, 0, 0); stroke-opacity: 1;" d="M591.6321099999999,304.00476A13.69302,13.311607 0,1,1 619.01815,304.00476A13.69302,13.311607 0,1,1 591.6321099999999,304.00476" class="kCTcmdHo_9"></path>
  <path fill="#cbcbcb" id="polygon1020" transform="matrix(0.8951734,0,0,0.87023878,-1.6219109e-6,0)" d="M675.98,347.031L677.685,395.409L674.552,395.409Z" class="kCTcmdHo_10"></path>
  <path fill="#cbcbcb" id="polygon1022" transform="matrix(0.8951734,0,0,0.87023878,-1.6219109e-6,0)" d="M679.62,351.546L676.21,357.352L675.842,356.707L676.256,356.2Z" class="kCTcmdHo_11"></path>
  <path fill="#cbcbcb" id="polygon1024" transform="matrix(0.8951734,0,0,0.87023878,-1.6219109e-6,0)" d="M672.524,356.246L675.934,362.051L676.302,361.406L675.888,360.899Z" class="kCTcmdHo_12"></path>
  <path fill="#ffffff" id="circle1026" style="stroke-width: 1.583; fill: rgb(255, 42, 42);" d="M546.166713,284.88269A20.223427,19.660114 0,1,1 586.613567,284.88269A20.223427,19.660114 0,1,1 546.166713,284.88269" class="kCTcmdHo_13"></path>
  <path fill="#cbcbcb" id="polygon1028" transform="matrix(0.8951734,0,0,0.87023878,-1.6219109e-6,0)" d="M632.376,323.959L634.893,395.409L630.266,395.409Z" class="kCTcmdHo_14"></path>
  <path fill="#cbcbcb" id="polygon1030" transform="matrix(0.8951734,0,0,0.87023878,-1.6219109e-6,0)" d="M637.751,330.628L632.716,339.202L632.172,338.249L632.784,337.5Z" class="kCTcmdHo_15"></path>
  <path fill="#cbcbcb" id="polygon1032" transform="matrix(0.8951734,0,0,0.87023878,-1.6219109e-6,0)" d="M627.272,337.569L632.308,346.142L632.852,345.19L632.24,344.441Z" class="kCTcmdHo_16"></path>
  <path fill="#ffffff" id="circle1034" style="stroke-width: 0.883; fill: rgb(255, 42, 42); stroke: rgb(255, 0, 0); stroke-opacity: 1;" d="M83.17359499999999,304.00476A13.69302,13.311607 0,1,1 110.559635,304.00476A13.69302,13.311607 0,1,1 83.17359499999999,304.00476" class="kCTcmdHo_17"></path>
  <path fill="#cbcbcb" id="polygon1036" transform="matrix(0.8951734,0,0,0.87023878,-1.6219109e-6,0)" d="M107.98,347.031L109.685,395.409L106.552,395.409Z" class="kCTcmdHo_18"></path>
  <path fill="#cbcbcb" id="polygon1038" transform="matrix(0.8951734,0,0,0.87023878,-1.6219109e-6,0)" d="M111.62,351.546L108.21,357.352L107.842,356.707L108.256,356.2Z" class="kCTcmdHo_19"></path>
  <path fill="#cbcbcb" id="polygon1040" transform="matrix(0.8951734,0,0,0.87023878,-1.6219109e-6,0)" d="M104.524,356.246L107.934,362.051L108.302,361.406L107.888,360.899Z" class="kCTcmdHo_20"></path>
  <path fill="#ffffff" id="circle1042" style="stroke-width: 1.283; fill: rgb(255, 85, 85); stroke: rgb(255, 0, 0); stroke-opacity: 1;" d="M37.708233,284.88269A20.223427,19.660114 0,1,1 78.15508700000001,284.88269A20.223427,19.660114 0,1,1 37.708233,284.88269" class="kCTcmdHo_21"></path>
  <path fill="#cbcbcb" id="polygon1044" transform="matrix(0.8951734,0,0,0.87023878,-1.6219109e-6,0)" d="M64.376,323.959L66.893,395.409L62.266,395.409Z" class="kCTcmdHo_22"></path>
  <path fill="#cbcbcb" id="polygon1046" transform="matrix(0.8951734,0,0,0.87023878,-1.6219109e-6,0)" d="M69.751,330.628L64.716,339.202L64.172,338.249L64.784,337.5Z" class="kCTcmdHo_23"></path>
  <path fill="#cbcbcb" id="polygon1048" transform="matrix(0.8951734,0,0,0.87023878,-1.6219109e-6,0)" d="M59.272,337.569L64.308,346.142L64.852,345.19L64.24,344.441Z" class="kCTcmdHo_24"></path>
  <g fill="none" fill-rule="evenodd" id="g1256" transform="matrix(0.05694969,0,0,0.0550639,37.552914,69.746193)">
    <g fill-rule="nonzero" id="g1244">
      <path fill="#4989f5" height="696.14001" width="931" id="rect1230" d="M 89.450001,232.98 L 948.450001,232.98 A 36,36,0,0,1,984.450001,268.98 L 984.450001,893.12001 A 36,36,0,0,1,948.450001,929.12001 L 89.450001,929.12001 A 36,36,0,0,1,53.450001,893.12001 L 53.450001,268.98 A 36,36,0,0,1,89.450001,232.98" class="kCTcmdHo_25"></path>
      <path d="M 936.81,227.75 H 100.06 c -25.92,0 -46.09,200.6 -46.09,226.52 L 512.2,929.12 h 424.61 c 26,-0.071 47.059,-21.13 47.13,-47.13 V 274.87 c -0.077,-25.996 -21.134,-47.049 -47.13,-47.12 z" fill="url(#a)" id="path1232" style="fill:url(#a)" class="kCTcmdHo_26"></path>
      <path d="m 266.03,349.56 h 266 V 0.44 H 305.86 Z" fill="#3c4ba6" id="path1234" class="kCTcmdHo_27"></path>
      <path d="m 798.03,349.56 h -266 V 0.44 H 758.2 Z m 186.42,-282.94 0.33,1.19 C 984.7,67.39 984.54,67 984.45,66.62 Z" fill="#7babf7" id="path1236" class="kCTcmdHo_28"></path>
      <path d="m 984.78,67.8 -0.33,-1.19 C 976.017,27.993 941.837,0.455 902.31,0.43 H 758.2 L 798,349.56 h 266 z" fill="#3f51b5" id="path1238" class="kCTcmdHo_29"></path>
      <path d="m 79.61,66.62 -0.33,1.19 c 0.08,-0.42 0.24,-0.81 0.33,-1.19 z" fill="#7babf7" id="path1240" class="kCTcmdHo_30"></path>
      <path d="M 79.27,67.8 79.6,66.61 C 88.033,27.993 122.213,0.455 161.74,0.43 H 305.86 L 266,349.56 H 0 Z" fill="#7babf7" id="path1242" class="kCTcmdHo_31"></path>
    </g>
    <path d="m 266.48,349.47 c 0,73.412 -59.513,132.925 -132.925,132.925 C 60.143,482.395 0.63,422.882 0.63,349.47 Z" fill="#709be0" id="path1246" class="kCTcmdHo_32"></path>
    <path d="m 532.33,349.47 c 0,73.412 -59.513,132.925 -132.925,132.925 -73.412,0 -132.925,-59.513 -132.925,-132.925 z" fill="#3c4ba6" id="path1248" class="kCTcmdHo_33"></path>
    <path d="m 798.18,349.47 c 0,73.412 -59.513,132.925 -132.925,132.925 -73.412,0 -132.925,-59.513 -132.925,-132.925 z" fill="#709be0" id="path1250" class="kCTcmdHo_34"></path>
    <path d="m 1064,349.47 c 0,73.412 -59.513,132.925 -132.925,132.925 -73.412,0 -132.925,-59.513 -132.925,-132.925 z" fill="#3c4ba6" id="path1252" class="kCTcmdHo_35"></path>
    <path d="m 931.08,709.6 c -0.47,-6.33 -1.25,-12.11 -2.36,-19.49 h -145 c 0,20.28 0,42.41 -0.08,62.7 h 84 a 73.05,73.05 0 0 1 -30.75,46.89 c 0,0 0,-0.35 -0.06,-0.36 a 88,88 0 0 1 -34,13.27 99.85,99.85 0 0 1 -36.79,-0.16 91.9,91.9 0 0 1 -34.31,-14.87 95.72,95.72 0 0 1 -33.73,-43.1 c -0.52,-1.35 -1,-2.71 -1.49,-4.09 v -0.15 l 0.13,-0.1 A 93,93 0 0 1 696.59,690.3 96.27,96.27 0 0 1 718.9,654 c 23.587,-24.399 58.829,-33.576 91.32,-23.78 a 83,83 0 0 1 33.23,19.56 l 28.34,-28.34 c 5,-5.05 10.19,-9.94 15,-15.16 a 149.78,149.78 0 0 0 -49.64,-30.74 156.08,156.08 0 0 0 -103.83,-0.91 c -1.173,0.4 -2.34,0.817 -3.5,1.25 A 155.18,155.18 0 0 0 646,651 152.61,152.61 0 0 0 632.58,689.78 c -16.052,79.772 32.623,158.294 111.21,179.4 25.69,6.88 53,6.71 78.89,0.83 a 139.88,139.88 0 0 0 63.14,-32.81 c 18.64,-17.15 32,-40 39,-64.27 a 179,179 0 0 0 6.26,-63.33 z" fill="#ffffff" fill-rule="nonzero" id="path1254" class="kCTcmdHo_36"></path>
  </g>
<style data-made-with="vivus-instant">.kCTcmdHo_0{stroke-dasharray:2239 2241;stroke-dashoffset:2240;animation:kCTcmdHo_draw_0 5200ms ease-in-out 0ms infinite,kCTcmdHo_fade 5200ms linear 0ms infinite;}.kCTcmdHo_1{stroke-dasharray:19695 19697;stroke-dashoffset:19696;animation:kCTcmdHo_draw_1 5200ms ease-in-out 0ms infinite,kCTcmdHo_fade 5200ms linear 0ms infinite;}.kCTcmdHo_2{stroke-dasharray:486 488;stroke-dashoffset:487;animation:kCTcmdHo_draw_2 5200ms ease-in-out 0ms infinite,kCTcmdHo_fade 5200ms linear 0ms infinite;}.kCTcmdHo_3{stroke-dasharray:193 195;stroke-dashoffset:194;animation:kCTcmdHo_draw_3 5200ms ease-in-out 0ms infinite,kCTcmdHo_fade 5200ms linear 0ms infinite;}.kCTcmdHo_4{stroke-dasharray:114 116;stroke-dashoffset:115;animation:kCTcmdHo_draw_4 5200ms ease-in-out 0ms infinite,kCTcmdHo_fade 5200ms linear 0ms infinite;}.kCTcmdHo_5{stroke-dasharray:168 170;stroke-dashoffset:169;animation:kCTcmdHo_draw_5 5200ms ease-in-out 0ms infinite,kCTcmdHo_fade 5200ms linear 0ms infinite;}.kCTcmdHo_6{stroke-dasharray:389 391;stroke-dashoffset:390;animation:kCTcmdHo_draw_6 5200ms ease-in-out 0ms infinite,kCTcmdHo_fade 5200ms linear 0ms infinite;}.kCTcmdHo_7{stroke-dasharray:146 148;stroke-dashoffset:147;animation:kCTcmdHo_draw_7 5200ms ease-in-out 0ms infinite,kCTcmdHo_fade 5200ms linear 0ms infinite;}.kCTcmdHo_8{stroke-dasharray:309 311;stroke-dashoffset:310;animation:kCTcmdHo_draw_8 5200ms ease-in-out 0ms infinite,kCTcmdHo_fade 5200ms linear 0ms infinite;}.kCTcmdHo_9{stroke-dasharray:85 87;stroke-dashoffset:86;animation:kCTcmdHo_draw_9 5200ms ease-in-out 0ms infinite,kCTcmdHo_fade 5200ms linear 0ms infinite;}.kCTcmdHo_10{stroke-dasharray:100 102;stroke-dashoffset:101;animation:kCTcmdHo_draw_10 5200ms ease-in-out 0ms infinite,kCTcmdHo_fade 5200ms linear 0ms infinite;}.kCTcmdHo_11{stroke-dasharray:14 16;stroke-dashoffset:15;animation:kCTcmdHo_draw_11 5200ms ease-in-out 0ms infinite,kCTcmdHo_fade 5200ms linear 0ms infinite;}.kCTcmdHo_12{stroke-dasharray:14 16;stroke-dashoffset:15;animation:kCTcmdHo_draw_12 5200ms ease-in-out 0ms infinite,kCTcmdHo_fade 5200ms linear 0ms infinite;}.kCTcmdHo_13{stroke-dasharray:126 128;stroke-dashoffset:127;animation:kCTcmdHo_draw_13 5200ms ease-in-out 0ms infinite,kCTcmdHo_fade 5200ms linear 0ms infinite;}.kCTcmdHo_14{stroke-dasharray:148 150;stroke-dashoffset:149;animation:kCTcmdHo_draw_14 5200ms ease-in-out 0ms infinite,kCTcmdHo_fade 5200ms linear 0ms infinite;}.kCTcmdHo_15{stroke-dasharray:21 23;stroke-dashoffset:22;animation:kCTcmdHo_draw_15 5200ms ease-in-out 0ms infinite,kCTcmdHo_fade 5200ms linear 0ms infinite;}.kCTcmdHo_16{stroke-dasharray:21 23;stroke-dashoffset:22;animation:kCTcmdHo_draw_16 5200ms ease-in-out 0ms infinite,kCTcmdHo_fade 5200ms linear 0ms infinite;}.kCTcmdHo_17{stroke-dasharray:85 87;stroke-dashoffset:86;animation:kCTcmdHo_draw_17 5200ms ease-in-out 0ms infinite,kCTcmdHo_fade 5200ms linear 0ms infinite;}.kCTcmdHo_18{stroke-dasharray:100 102;stroke-dashoffset:101;animation:kCTcmdHo_draw_18 5200ms ease-in-out 0ms infinite,kCTcmdHo_fade 5200ms linear 0ms infinite;}.kCTcmdHo_19{stroke-dasharray:14 16;stroke-dashoffset:15;animation:kCTcmdHo_draw_19 5200ms ease-in-out 0ms infinite,kCTcmdHo_fade 5200ms linear 0ms infinite;}.kCTcmdHo_20{stroke-dasharray:14 16;stroke-dashoffset:15;animation:kCTcmdHo_draw_20 5200ms ease-in-out 0ms infinite,kCTcmdHo_fade 5200ms linear 0ms infinite;}.kCTcmdHo_21{stroke-dasharray:126 128;stroke-dashoffset:127;animation:kCTcmdHo_draw_21 5200ms ease-in-out 0ms infinite,kCTcmdHo_fade 5200ms linear 0ms infinite;}.kCTcmdHo_22{stroke-dasharray:148 150;stroke-dashoffset:149;animation:kCTcmdHo_draw_22 5200ms ease-in-out 0ms infinite,kCTcmdHo_fade 5200ms linear 0ms infinite;}.kCTcmdHo_23{stroke-dasharray:21 23;stroke-dashoffset:22;animation:kCTcmdHo_draw_23 5200ms ease-in-out 0ms infinite,kCTcmdHo_fade 5200ms linear 0ms infinite;}.kCTcmdHo_24{stroke-dasharray:21 23;stroke-dashoffset:22;animation:kCTcmdHo_draw_24 5200ms ease-in-out 0ms infinite,kCTcmdHo_fade 5200ms linear 0ms infinite;}.kCTcmdHo_25{stroke-dasharray:3193 3195;stroke-dashoffset:3194;animation:kCTcmdHo_draw_25 5200ms ease-in-out 0ms infinite,kCTcmdHo_fade 5200ms linear 0ms infinite;}.kCTcmdHo_26{stroke-dasharray:2912 2914;stroke-dashoffset:2913;animation:kCTcmdHo_draw_26 5200ms ease-in-out 0ms infinite,kCTcmdHo_fade 5200ms linear 0ms infinite;}.kCTcmdHo_27{stroke-dasharray:1193 1195;stroke-dashoffset:1194;animation:kCTcmdHo_draw_27 5200ms ease-in-out 0ms infinite,kCTcmdHo_fade 5200ms linear 0ms infinite;}.kCTcmdHo_28{stroke-dasharray:1196 1198;stroke-dashoffset:1197;animation:kCTcmdHo_draw_28 5200ms ease-in-out 0ms infinite,kCTcmdHo_fade 5200ms linear 0ms infinite;}.kCTcmdHo_29{stroke-dasharray:1170 1172;stroke-dashoffset:1171;animation:kCTcmdHo_draw_29 5200ms ease-in-out 0ms infinite,kCTcmdHo_fade 5200ms linear 0ms infinite;}.kCTcmdHo_30{stroke-dasharray:3 5;stroke-dashoffset:4;animation:kCTcmdHo_draw_30 5200ms ease-in-out 0ms infinite,kCTcmdHo_fade 5200ms linear 0ms infinite;}.kCTcmdHo_31{stroke-dasharray:1170 1172;stroke-dashoffset:1171;animation:kCTcmdHo_draw_31 5200ms ease-in-out 0ms infinite,kCTcmdHo_fade 5200ms linear 0ms infinite;}.kCTcmdHo_32{stroke-dasharray:684 686;stroke-dashoffset:685;animation:kCTcmdHo_draw_32 5200ms ease-in-out 0ms infinite,kCTcmdHo_fade 5200ms linear 0ms infinite;}.kCTcmdHo_33{stroke-dasharray:684 686;stroke-dashoffset:685;animation:kCTcmdHo_draw_33 5200ms ease-in-out 0ms infinite,kCTcmdHo_fade 5200ms linear 0ms infinite;}.kCTcmdHo_34{stroke-dasharray:684 686;stroke-dashoffset:685;animation:kCTcmdHo_draw_34 5200ms ease-in-out 0ms infinite,kCTcmdHo_fade 5200ms linear 0ms infinite;}.kCTcmdHo_35{stroke-dasharray:684 686;stroke-dashoffset:685;animation:kCTcmdHo_draw_35 5200ms ease-in-out 0ms infinite,kCTcmdHo_fade 5200ms linear 0ms infinite;}.kCTcmdHo_36{stroke-dasharray:1694 1696;stroke-dashoffset:1695;animation:kCTcmdHo_draw_36 5200ms ease-in-out 0ms infinite,kCTcmdHo_fade 5200ms linear 0ms infinite;}@keyframes kCTcmdHo_draw{100%{stroke-dashoffset:0;}}@keyframes kCTcmdHo_fade{0%{stroke-opacity:1;}92.3076923076923%{stroke-opacity:1;}100%{stroke-opacity:0;}}@keyframes kCTcmdHo_draw_0{15.384615384615385%{stroke-dashoffset: 2240}41.02564102564103%{ stroke-dashoffset: 0;}100%{ stroke-dashoffset: 0;}}@keyframes kCTcmdHo_draw_1{15.74074074074074%{stroke-dashoffset: 19696}41.38176638176639%{ stroke-dashoffset: 0;}100%{ stroke-dashoffset: 0;}}@keyframes kCTcmdHo_draw_2{16.096866096866098%{stroke-dashoffset: 487}41.737891737891744%{ stroke-dashoffset: 0;}100%{ stroke-dashoffset: 0;}}@keyframes kCTcmdHo_draw_3{16.45299145299145%{stroke-dashoffset: 194}42.0940170940171%{ stroke-dashoffset: 0;}100%{ stroke-dashoffset: 0;}}@keyframes kCTcmdHo_draw_4{16.809116809116812%{stroke-dashoffset: 115}42.45014245014246%{ stroke-dashoffset: 0;}100%{ stroke-dashoffset: 0;}}@keyframes kCTcmdHo_draw_5{17.165242165242166%{stroke-dashoffset: 169}42.80626780626781%{ stroke-dashoffset: 0;}100%{ stroke-dashoffset: 0;}}@keyframes kCTcmdHo_draw_6{17.52136752136752%{stroke-dashoffset: 390}43.16239316239316%{ stroke-dashoffset: 0;}100%{ stroke-dashoffset: 0;}}@keyframes kCTcmdHo_draw_7{17.877492877492877%{stroke-dashoffset: 147}43.51851851851852%{ stroke-dashoffset: 0;}100%{ stroke-dashoffset: 0;}}@keyframes kCTcmdHo_draw_8{18.233618233618234%{stroke-dashoffset: 310}43.87464387464388%{ stroke-dashoffset: 0;}100%{ stroke-dashoffset: 0;}}@keyframes kCTcmdHo_draw_9{18.58974358974359%{stroke-dashoffset: 86}44.230769230769226%{ stroke-dashoffset: 0;}100%{ stroke-dashoffset: 0;}}@keyframes kCTcmdHo_draw_10{18.945868945868945%{stroke-dashoffset: 101}44.586894586894594%{ stroke-dashoffset: 0;}100%{ stroke-dashoffset: 0;}}@keyframes kCTcmdHo_draw_11{19.301994301994302%{stroke-dashoffset: 15}44.943019943019955%{ stroke-dashoffset: 0;}100%{ stroke-dashoffset: 0;}}@keyframes kCTcmdHo_draw_12{19.65811965811966%{stroke-dashoffset: 15}45.2991452991453%{ stroke-dashoffset: 0;}100%{ stroke-dashoffset: 0;}}@keyframes kCTcmdHo_draw_13{20.014245014245017%{stroke-dashoffset: 127}45.65527065527066%{ stroke-dashoffset: 0;}100%{ stroke-dashoffset: 0;}}@keyframes kCTcmdHo_draw_14{20.370370370370367%{stroke-dashoffset: 149}46.01139601139601%{ stroke-dashoffset: 0;}100%{ stroke-dashoffset: 0;}}@keyframes kCTcmdHo_draw_15{20.726495726495727%{stroke-dashoffset: 22}46.36752136752137%{ stroke-dashoffset: 0;}100%{ stroke-dashoffset: 0;}}@keyframes kCTcmdHo_draw_16{21.082621082621085%{stroke-dashoffset: 22}46.72364672364672%{ stroke-dashoffset: 0;}100%{ stroke-dashoffset: 0;}}@keyframes kCTcmdHo_draw_17{21.43874643874644%{stroke-dashoffset: 86}47.079772079772084%{ stroke-dashoffset: 0;}100%{ stroke-dashoffset: 0;}}@keyframes kCTcmdHo_draw_18{21.7948717948718%{stroke-dashoffset: 101}47.43589743589744%{ stroke-dashoffset: 0;}100%{ stroke-dashoffset: 0;}}@keyframes kCTcmdHo_draw_19{22.15099715099715%{stroke-dashoffset: 15}47.79202279202279%{ stroke-dashoffset: 0;}100%{ stroke-dashoffset: 0;}}@keyframes kCTcmdHo_draw_20{22.50712250712251%{stroke-dashoffset: 15}48.14814814814815%{ stroke-dashoffset: 0;}100%{ stroke-dashoffset: 0;}}@keyframes kCTcmdHo_draw_21{22.863247863247864%{stroke-dashoffset: 127}48.50427350427351%{ stroke-dashoffset: 0;}100%{ stroke-dashoffset: 0;}}@keyframes kCTcmdHo_draw_22{23.219373219373217%{stroke-dashoffset: 149}48.86039886039886%{ stroke-dashoffset: 0;}100%{ stroke-dashoffset: 0;}}@keyframes kCTcmdHo_draw_23{23.575498575498575%{stroke-dashoffset: 22}49.21652421652421%{ stroke-dashoffset: 0;}100%{ stroke-dashoffset: 0;}}@keyframes kCTcmdHo_draw_24{23.93162393162393%{stroke-dashoffset: 22}49.572649572649574%{ stroke-dashoffset: 0;}100%{ stroke-dashoffset: 0;}}@keyframes kCTcmdHo_draw_25{24.28774928774929%{stroke-dashoffset: 3194}49.928774928774935%{ stroke-dashoffset: 0;}100%{ stroke-dashoffset: 0;}}@keyframes kCTcmdHo_draw_26{24.643874643874643%{stroke-dashoffset: 2913}50.28490028490028%{ stroke-dashoffset: 0;}100%{ stroke-dashoffset: 0;}}@keyframes kCTcmdHo_draw_27{25%{stroke-dashoffset: 1194}50.641025641025635%{ stroke-dashoffset: 0;}100%{ stroke-dashoffset: 0;}}@keyframes kCTcmdHo_draw_28{25.356125356125354%{stroke-dashoffset: 1197}50.99715099715101%{ stroke-dashoffset: 0;}100%{ stroke-dashoffset: 0;}}@keyframes kCTcmdHo_draw_29{25.71225071225071%{stroke-dashoffset: 1171}51.35327635327636%{ stroke-dashoffset: 0;}100%{ stroke-dashoffset: 0;}}@keyframes kCTcmdHo_draw_30{26.06837606837607%{stroke-dashoffset: 4}51.70940170940172%{ stroke-dashoffset: 0;}100%{ stroke-dashoffset: 0;}}@keyframes kCTcmdHo_draw_31{26.424501424501422%{stroke-dashoffset: 1171}52.06552706552707%{ stroke-dashoffset: 0;}100%{ stroke-dashoffset: 0;}}@keyframes kCTcmdHo_draw_32{26.780626780626783%{stroke-dashoffset: 685}52.42165242165242%{ stroke-dashoffset: 0;}100%{ stroke-dashoffset: 0;}}@keyframes kCTcmdHo_draw_33{27.136752136752136%{stroke-dashoffset: 685}52.77777777777778%{ stroke-dashoffset: 0;}100%{ stroke-dashoffset: 0;}}@keyframes kCTcmdHo_draw_34{27.492877492877493%{stroke-dashoffset: 685}53.13390313390314%{ stroke-dashoffset: 0;}100%{ stroke-dashoffset: 0;}}@keyframes kCTcmdHo_draw_35{27.84900284900285%{stroke-dashoffset: 685}53.49002849002849%{ stroke-dashoffset: 0;}100%{ stroke-dashoffset: 0;}}@keyframes kCTcmdHo_draw_36{28.205128205128204%{stroke-dashoffset: 1695}53.84615384615385%{ stroke-dashoffset: 0;}100%{ stroke-dashoffset: 0;}}</style></svg>
