<svg xmlns="http://www.w3.org/2000/svg" xmlns:svg="http://www.w3.org/2000/svg" id="svg1050" width="645.521" height="506.944" data-name="Layer 1" version="1.1" viewBox="0 0 645.521 506.944"><defs id="defs1054"><linearGradient id="a" x1="46.87" x2="854.483" y1="666.055" y2="666.055" gradientTransform="scale(1.1514919,0.86843861)" gradientUnits="userSpaceOnUse"><stop id="stop1225" offset=".03" stop-color="#4079d8"/><stop id="stop1227" offset="1" stop-color="#4989f5"/></linearGradient></defs><path id="path1000" fill="#3f3d56" d="m 429.85411,506.94425 -0.13696,-0.0126 L 215.66732,487.60146 21.02447,505.17912 A 19.244357,18.708315 0 0 1 0.08265038,488.28139 q -0.0824200019,-0.8627 -0.0824900019,-1.73004 V 36.527263 A 19.158161,18.62452 0 0 1 17.464428,17.899463 L 215.66735,0 215.80431,0.01264 429.8541,19.342775 624.49602,1.765136 a 19.244366,18.708324 0 0 1 20.94195,16.897609 q 0.0824,0.862772 0.0825,1.7302 V 470.41664 a 19.158376,18.624729 0 0 1 -17.46418,18.62812 z" style="fill:#1a1a1a;stroke-width:.882618"/><path id="path1002" fill="#fff" d="M 298.3795,166.48663 C 256.94512,137.15062 213.34942,109.3329 168.81376,83.810513 l -2.23531,-1.28077 V 169.09139 H 302.05833 Z M 169.53907,166.21319 V 87.573773 c 42.36723,24.363897 83.85333,50.800087 123.41531,78.639437 z m 338.53667,178.16734 q -26.87905,-27.16658 -55.14954,-53.09546 -7.79389,-7.15584 -15.68394,-14.19667 -48.15161,-43.00023 -99.47091,-81.79108 l -0.39972,-0.30219 H 166.57845 V 346.81979 H 510.48892 Z M 169.53907,343.94164 V 197.87333 h 166.81838 q 49.48412,37.42005 96.28834,79.028 8.12688,7.22061 16.14307,14.55648 28.02233,25.60156 54.73501,52.48383 z m 338.53667,0.43889 q -26.87905,-27.16658 -55.14954,-53.09546 -7.79389,-7.15584 -15.68394,-14.19667 -48.15161,-43.00023 -99.47091,-81.79108 l -0.39972,-0.30219 H 166.57845 V 346.81979 H 510.48892 Z M 169.53907,343.94164 V 197.87333 h 166.81838 q 49.48412,37.42005 96.28834,79.028 8.12688,7.22061 16.14307,14.55648 28.02233,25.60156 54.73501,52.48383 z M 298.3795,166.48663 C 256.94512,137.15062 213.34942,109.3329 168.81376,83.810513 l -2.23531,-1.28077 V 169.09139 H 302.05833 Z M 169.53907,166.21319 V 87.573773 c 42.36723,24.363897 83.85333,50.800087 123.41531,78.639437 z m 128.84043,0.27344 C 256.94512,137.15062 213.34942,109.3329 168.81376,83.810513 l -2.23531,-1.28077 V 169.09139 H 302.05833 Z M 169.53907,166.21319 V 87.573773 c 42.36723,24.363897 83.85333,50.800087 123.41531,78.639437 z m 338.53667,178.16734 q -26.87905,-27.16658 -55.14954,-53.09546 -7.79389,-7.15584 -15.68394,-14.19667 -48.15161,-43.00023 -99.47091,-81.79108 l -0.39972,-0.30219 H 166.57845 V 346.81979 H 510.48892 Z M 169.53907,343.94164 V 197.87333 h 166.81838 q 49.48412,37.42005 96.28834,79.028 8.12688,7.22061 16.14307,14.55648 28.02233,25.60156 54.73501,52.48383 z M 20.04054,372.72356 v 2.8782 h 116.93129 v 41.7338 H 20.04054 v 2.87821 h 119.89194 v -47.49021 z m 146.53791,73.39394 v 29.16331 l 2.96067,-0.2663 v -26.01888 h 455.94179 v -2.8782 z m 458.90246,-70.51574 v -2.8782 H 166.57845 v 47.49021 h 458.90246 v -2.87821 H 169.53909 V 375.60172 Z M 348.99228,166.21317 A 1444.627,1404.3876 0 0 0 169.53909,51.265358 V 22.123671 l -2.96068,0.266224 v 29.367269 l 2.27977,2.436773 A 1441.6643,1401.5075 0 0 1 347.58569,168.78919 l 0.39972,0.3022 h 277.4955 v -2.8782 z m -212.02048,0 H 20.04054 v 2.8782 H 139.93248 V 24.793181 l -2.96067,0.266232 z m 488.50911,28.78196 H 381.52994 l 3.19015,2.54718 q 45.05343,36.0386 88.47177,76.44486 6.17312,5.74193 12.30165,11.57751 30.50951,28.97982 59.82761,59.85202 l 2.44081,1.40314 h 77.71896 v -2.8782 h -77.53235 q -28.99973,-30.56645 -59.25771,-59.36272 -6.05053,-5.7636 -12.14586,-11.448 -42.4784,-39.62197 -86.76992,-75.25757 H 625.48091 Z M 20.04054,446.11747 v 2.87816 h 116.93129 v 28.95459 l 2.96067,-0.26622 v -31.56653 z m 0,-251.12234 v 2.8782 H 136.97183 V 343.94164 H 20.04054 v 2.8782 H 139.93248 V 194.99513 Z m 278.33895,-28.5085 C 256.94511,137.15062 213.34942,109.3329 168.81375,83.810513 l -2.23531,-1.28077 V 169.09139 H 302.05833 Z M 169.53906,166.21319 V 87.573773 c 42.36723,24.363897 83.85333,50.800087 123.41531,78.639437 z m 338.53667,178.16734 q -26.87905,-27.16658 -55.14954,-53.09546 -7.79388,-7.15584 -15.68393,-14.19667 -48.15161,-43.00023 -99.47091,-81.79108 l -0.39972,-0.30219 H 166.57845 V 346.81979 H 510.48892 Z M 169.53906,343.94164 V 197.87333 h 166.81839 q 49.48412,37.42005 96.28834,79.028 8.12688,7.22061 16.14307,14.55648 28.02233,25.60156 54.73501,52.48383 z M 298.3795,166.48663 C 256.94512,137.15062 213.34942,109.3329 168.81376,83.810513 l -2.23531,-1.28077 V 169.09139 H 302.05833 Z M 169.53907,166.21319 V 87.573773 c 42.36723,24.363897 83.85333,50.800087 123.41531,78.639437 z m 338.53667,178.16734 q -26.87905,-27.16658 -55.14954,-53.09546 -7.79389,-7.15584 -15.68394,-14.19667 -48.15161,-43.00023 -99.47091,-81.79108 l -0.39972,-0.30219 H 166.57845 V 346.81979 H 510.48892 Z M 169.53907,343.94164 V 197.87333 h 166.81838 q 49.48412,37.42005 96.28834,79.028 8.12688,7.22061 16.14307,14.55648 28.02233,25.60156 54.73501,52.48383 z" style="stroke-width:.882618"/><path id="path1004" fill="#009cff" d="m 333.34421,272.39725 c 0,36.44666 -67.88338,117.63888 -67.88338,117.63888 0,0 -67.88339,-81.1922 -67.88339,-117.63888 a 67.883389,65.99253 0 0 1 135.76677,0 z" style="stroke-width:.882618"/><path id="path1006" fill="#fff" d="m 296.49404,269.52801 a 31.032421,30.168028 0 1 1 -31.03242,-30.16802 31.018179,30.154183 0 0 1 31.03242,30.16802 z" style="isolation:isolate;stroke-width:.882618"/><ellipse id="circle1008" cx="265.461" cy="419.876" fill="#009cff" rx="18.299" ry="17.789" style="stroke-width:.882618"/><ellipse id="circle1010" cx="438.066" cy="87.261" fill="#ff6584" style="fill:#06f;stroke-width:.882618" rx="27.055" ry="26.301"/><path id="path1012" fill="#fff" d="m 522.90719,168.31206 h -132.7239 a 2.7068611,2.6314628 0 0 1 -0.49598,-0.0382 L 452.45962,62.571843 a 4.3951313,4.2727071 0 0 1 7.65073,0 l 42.12809,70.934267 2.01828,3.3942 z" style="stroke-width:.882618"/><polygon points="563.306 157.313 584.141 193.409 533.519 193.409 558.369 157.313 560.157 154.713 561.052 153.413" opacity=".2" style="isolation:isolate" id="polygon1014" transform="matrix(0.8951734,0,0,0.87023878,-1.6219109e-6,0)"/><path id="path1016" fill="#fff" d="M 596.80691,168.31206 H 482.01167 l 22.24506,-31.41175 1.60083,-2.26281 28.98733,-40.935557 c 1.9004,-2.68289 6.47217,-2.84995 8.70646,-0.50603 a 5.2394499,5.0935076 0 0 1 0.41743,0.50603 z" style="stroke-width:.882618"/><ellipse id="circle1018" cx="605.325" cy="304.005" fill="#fff" rx="13.693" ry="13.312" style="stroke-width:.882618"/><polygon id="polygon1020" fill="#cbcbcb" points="675.98 347.031 677.685 395.409 674.552 395.409" transform="matrix(0.8951734,0,0,0.87023878,-1.6219109e-6,0)"/><polygon id="polygon1022" fill="#cbcbcb" points="679.62 351.546 676.21 357.352 675.842 356.707 676.256 356.2" transform="matrix(0.8951734,0,0,0.87023878,-1.6219109e-6,0)"/><polygon id="polygon1024" fill="#cbcbcb" points="672.524 356.246 675.934 362.051 676.302 361.406 675.888 360.899" transform="matrix(0.8951734,0,0,0.87023878,-1.6219109e-6,0)"/><ellipse id="circle1026" cx="566.39" cy="284.883" fill="#fff" rx="20.223" ry="19.66" style="stroke-width:.882618"/><polygon id="polygon1028" fill="#cbcbcb" points="632.376 323.959 634.893 395.409 630.266 395.409" transform="matrix(0.8951734,0,0,0.87023878,-1.6219109e-6,0)"/><polygon id="polygon1030" fill="#cbcbcb" points="637.751 330.628 632.716 339.202 632.172 338.249 632.784 337.5" transform="matrix(0.8951734,0,0,0.87023878,-1.6219109e-6,0)"/><polygon id="polygon1032" fill="#cbcbcb" points="627.272 337.569 632.308 346.142 632.852 345.19 632.24 344.441" transform="matrix(0.8951734,0,0,0.87023878,-1.6219109e-6,0)"/><ellipse id="circle1034" cx="96.867" cy="304.005" fill="#fff" rx="13.693" ry="13.312" style="stroke-width:.882618"/><polygon id="polygon1036" fill="#cbcbcb" points="107.98 347.031 109.685 395.409 106.552 395.409" transform="matrix(0.8951734,0,0,0.87023878,-1.6219109e-6,0)"/><polygon id="polygon1038" fill="#cbcbcb" points="111.62 351.546 108.21 357.352 107.842 356.707 108.256 356.2" transform="matrix(0.8951734,0,0,0.87023878,-1.6219109e-6,0)"/><polygon id="polygon1040" fill="#cbcbcb" points="104.524 356.246 107.934 362.051 108.302 361.406 107.888 360.899" transform="matrix(0.8951734,0,0,0.87023878,-1.6219109e-6,0)"/><ellipse id="circle1042" cx="57.932" cy="284.883" fill="#fff" rx="20.223" ry="19.66" style="stroke-width:.882618"/><polygon id="polygon1044" fill="#cbcbcb" points="64.376 323.959 66.893 395.409 62.266 395.409" transform="matrix(0.8951734,0,0,0.87023878,-1.6219109e-6,0)"/><polygon id="polygon1046" fill="#cbcbcb" points="69.751 330.628 64.716 339.202 64.172 338.249 64.784 337.5" transform="matrix(0.8951734,0,0,0.87023878,-1.6219109e-6,0)"/><polygon id="polygon1048" fill="#cbcbcb" points="59.272 337.569 64.308 346.142 64.852 345.19 64.24 344.441" transform="matrix(0.8951734,0,0,0.87023878,-1.6219109e-6,0)"/><g id="g1256" fill="none" fill-rule="evenodd" transform="matrix(0.06171739,0,0,0.0550639,37.552914,69.746193)"><g id="g1244" fill-rule="nonzero"><rect id="rect1230" width="931" height="696.14" x="53.45" y="232.98" fill="#4989f5" rx="36.88"/><path id="path1232" fill="url(#a)" d="M 936.81,227.75 H 100.06 c -25.92,0 -46.09,200.6 -46.09,226.52 L 512.2,929.12 h 424.61 c 26,-0.071 47.059,-21.13 47.13,-47.13 V 274.87 c -0.077,-25.996 -21.134,-47.049 -47.13,-47.12 z" style="fill:url(#a)"/><path id="path1234" fill="#3c4ba6" d="m 266.03,349.56 h 266 V 0.44 H 305.86 Z"/><path id="path1236" fill="#7babf7" d="m 798.03,349.56 h -266 V 0.44 H 758.2 Z m 186.42,-282.94 0.33,1.19 C 984.7,67.39 984.54,67 984.45,66.62 Z"/><path id="path1238" fill="#3f51b5" d="m 984.78,67.8 -0.33,-1.19 C 976.017,27.993 941.837,0.455 902.31,0.43 H 758.2 L 798,349.56 h 266 z"/><path id="path1240" fill="#7babf7" d="m 79.61,66.62 -0.33,1.19 c 0.08,-0.42 0.24,-0.81 0.33,-1.19 z"/><path id="path1242" fill="#7babf7" d="M 79.27,67.8 79.6,66.61 C 88.033,27.993 122.213,0.455 161.74,0.43 H 305.86 L 266,349.56 H 0 Z"/></g><path id="path1246" fill="#709be0" d="m 266.48,349.47 c 0,73.412 -59.513,132.925 -132.925,132.925 C 60.143,482.395 0.63,422.882 0.63,349.47 Z"/><path id="path1248" fill="#3c4ba6" d="m 532.33,349.47 c 0,73.412 -59.513,132.925 -132.925,132.925 -73.412,0 -132.925,-59.513 -132.925,-132.925 z"/><path id="path1250" fill="#709be0" d="m 798.18,349.47 c 0,73.412 -59.513,132.925 -132.925,132.925 -73.412,0 -132.925,-59.513 -132.925,-132.925 z"/><path id="path1252" fill="#3c4ba6" d="m 1064,349.47 c 0,73.412 -59.513,132.925 -132.925,132.925 -73.412,0 -132.925,-59.513 -132.925,-132.925 z"/><path id="path1254" fill="#fff" fill-rule="nonzero" d="m 931.08,709.6 c -0.47,-6.33 -1.25,-12.11 -2.36,-19.49 h -145 c 0,20.28 0,42.41 -0.08,62.7 h 84 a 73.05,73.05 0 0 1 -30.75,46.89 c 0,0 0,-0.35 -0.06,-0.36 a 88,88 0 0 1 -34,13.27 99.85,99.85 0 0 1 -36.79,-0.16 91.9,91.9 0 0 1 -34.31,-14.87 95.72,95.72 0 0 1 -33.73,-43.1 c -0.52,-1.35 -1,-2.71 -1.49,-4.09 v -0.15 l 0.13,-0.1 A 93,93 0 0 1 696.59,690.3 96.27,96.27 0 0 1 718.9,654 c 23.587,-24.399 58.829,-33.576 91.32,-23.78 a 83,83 0 0 1 33.23,19.56 l 28.34,-28.34 c 5,-5.05 10.19,-9.94 15,-15.16 a 149.78,149.78 0 0 0 -49.64,-30.74 156.08,156.08 0 0 0 -103.83,-0.91 c -1.173,0.4 -2.34,0.817 -3.5,1.25 A 155.18,155.18 0 0 0 646,651 152.61,152.61 0 0 0 632.58,689.78 c -16.052,79.772 32.623,158.294 111.21,179.4 25.69,6.88 53,6.71 78.89,0.83 a 139.88,139.88 0 0 0 63.14,-32.81 c 18.64,-17.15 32,-40 39,-64.27 a 179,179 0 0 0 6.26,-63.33 z"/></g></svg>