<svg xmlns="http://www.w3.org/2000/svg" width="1176.606" height="873.979" xmlns:v="https://vecta.io/nano"><path d="M970.56 262.83C868.412 119.525 652.629 61.394 440.413 124.002c-112.192 33.099-220.366 99.418-273.975 227.833-95.831 229.555 105.378 302.87 236.947 326.236 63.619 11.299 123.538 30.278 178.293 56.118 98.508 46.489 272.874 87.683 404.357-105.965 95.299-140.356 52.567-269.939-15.474-365.395z" fill="#f2f2f2"/><g fill="#3f3d56"><path d="M378.339 291.182a26.302 26.517 0 0 0-1.719-6.635 2.979 3.004 0 0 0-1.515-1.881 3.121 3.146 0 0 0-1.503-.017l-7.716 1.19a2.958 2.982 0 0 0-1.76.69c-1.005 1.066-.015 2.781-.046 4.251-.035 1.653-1.491 2.995-3.071 3.439a11.609 11.704 0 0 1-4.88-.061l-10.789-1.69a17.789 17.934 0 0 0 8.162-5.491c1.42-1.696 2.175-4.862.123-5.665a5.037 5.078 0 0 0-1.874-.152c-4.888.038-8.735-4.076-13.311-5.809a14.718 14.838 0 0 0-16.564 4.978l5.747.279a2.551 2.572 0 0 1 1.531.412c1.26 1.043-.306 3.047-.129 4.681.231 2.123 3.026 2.576 5.133 2.79s4.781 1.941 3.767 3.816c-10.591 3.678-21.369-7.19-32.493-5.852-2.815.339-5.474 1.454-8.222 2.155-16.79 4.283-34.149-7.144-51.301-4.724a65.142 65.674 0 0 0-11.199 2.978c-2.334.773-4.769 1.608-6.466 3.4s-2.342 4.857-.735 6.731a37.577 37.884 0 0 1-13.169-1.262 7.378 7.438 0 0 1 3.793 6.555 78.132 78.771 0 0 0-20.016 6.153 33.712 33.988 0 0 0 4.143 5.564l-8.755 5.67c2.958.751 4.487 4.817 2.767 7.357 3.067-1.375 4.968-4.934 8.247-5.655 2.149-.473 4.335.413 6.373 1.246s4.278 1.64 6.388 1.015 3.666-3.383 2.326-5.14a109.168 110.06 0 0 1 27.73-4.368 3.478 3.506 0 0 1 2.1.402c1.223.855.901 2.702.835 4.201s1.093 3.468 2.421 2.793c-1.563 1.366-.227 3.939 1.273 5.376s3.307 3.42 2.389 5.289c-.24.488-.646.878-.877 1.37-.68 1.453.4 3.147 1.674 4.112s2.835 1.639 3.721 2.975.483 3.675-1.1 3.862l-4.499-5.76a11.714 11.809 0 0 0-3.039 5.807c4.771 3.932 5.489 11.936 1.494 16.667-2.041 2.418-4.944 3.887-7.478 5.773s-4.878 4.571-4.872 7.746c.011 5.485-.434 10.581 1.605 15.667a239.391 241.347 0 0 0 12.996 27.336c1.286 2.318 2.947 4.859 5.552 5.258q-4.937-12.118-8.889-24.613c1.716.007 3.699.144 4.705 1.546.833 1.161.654 2.739.913 4.147a12.743 12.847 0 0 0 1.625 3.851l15.719 28.228c1.303 2.34 2.798 4.852 5.288 5.8 1.592.606 3.434.492 4.9 1.364 1.149.684 1.922 1.897 3.093 2.541 3.311 1.821 7.916-1.671 11.01.503.885.622 1.448 1.609 2.263 2.321 2.858 2.495 7.546.826 10.845 2.687 2.126 1.2 3.228 3.599 4.362 5.773 2.841 5.446 7.437 10.781 13.526 11.215 1.912.136 3.866-.229 5.735.2s3.71 2.074 3.409 3.983c-.514 3.273 1.089 6.856.659 10.142-.785 5.984-9.204 8.613-9.927 14.605-.158 1.312.089 2.666-.22 3.95-.38 1.574-1.552 2.855-1.969 4.42-.789 2.965 1.317 5.915 3.632 7.909s5.075 3.714 6.34 6.506c1.337 2.951.68 6.392 1.115 9.606.95 7.018 6.962 12.22 13.149 15.575 1.885 1.022 3.909 2.012 5.13 3.785 1.593 2.314 1.434 5.365 1.966 8.13 1.302 6.772 6.957 12.352 7.118 19.248.114 4.902-2.588 9.348-4.203 13.973a32.323 32.587 0 0 0 2.639 27.026c1.208 2.056 2.652 3.994 3.506 6.223 1.525 3.977 1.03 8.499 2.436 12.52 1.858 5.317 6.965 9.708 6.476 15.324 2.318 4.854 7.438 7.239 12.586 8.683l9.226 2.589c1.767.496 3.613.995 5.411.636s3.516-1.865 3.469-3.713c-4.524-1.029-9.194-2.123-12.923-4.902s-6.284-7.729-4.869-12.182c.656-2.065 2.052-4.449.725-6.155-.76-.977-2.149-1.232-3.006-2.123-1.337-1.39-.878-3.725.084-5.402s2.35-3.174 2.738-5.071a5.248 5.291 0 0 0-2.46-5.504 13.045 13.152 0 0 0 4.567-2.954c1.201-1.383 1.756-3.514.811-5.086 2.805.359 6.117.534 7.959-1.629 1.471-1.728 1.37-4.311.788-6.51s-1.563-4.337-1.594-6.613a119.53 120.507 0 0 0 19.393-.663 12.575 12.677 0 0 0-5.896-7.444c2.915-.497 5.57-4.015 6.491-6.847s.686-5.917.117-8.841a4.706 4.744 0 0 1-.087-2.316c.328-1.055 1.356-1.698 2.306-2.249l14.468-8.377a8.427 8.496 0 0 0 2.314-1.722c1.516-1.795 1.291-4.505.515-6.729s-2.019-4.315-2.318-6.653c-.894-6.993 6.531-12.01 9.036-18.592.983-2.583 1.184-5.391 1.374-8.151.204-2.965.22-6.408-2.038-8.318-2.164-1.831-5.546-1.423-7.811-3.126-2.076-1.562-2.793-4.595-5.061-5.856-2.06-1.146-4.643-.417-6.934-.956-4.034-.949-6.572-5.636-10.692-6.07-2.324-.245-4.955.901-6.86-.464-1.679-1.203-1.746-3.62-2.065-5.671a15.708 15.836 0 0 0-12.678-12.823c-2.397-.387-5.005-.24-7.044-1.568-2.065-1.345-3.011-3.862-4.633-5.724-2.614-3.001-6.73-4.067-10.586-4.981l-15.685-3.717c-2.784-.66-6.373-1.01-7.868 1.449a11.273 11.365 0 0 0-.931 2.951 9.065 9.139 0 0 1-8.524 6.469 10.081 10.163 0 0 0-5.945-4.637c-1.59-.447-3.293-.497-4.81-1.154a6.756 6.811 0 0 1-2.932-9.449 8.41 8.479 0 0 0-1.437-10.199c-2.667-2.414-6.526-2.998-10.102-2.756-.937-2.061.63-4.386 2.317-5.883s3.737-2.97 4.105-5.206c.578-3.518-3.874-6.189-7.254-5.14s-5.538 4.359-6.964 7.622c-.818 1.872-1.514 3.843-2.805 5.422s-3.369 2.709-5.335 2.202c-2.783-.717-3.858-4.051-4.474-6.88-.826-3.795-1.658-7.644-1.485-11.526s1.471-7.868 4.311-10.496c4.627-4.282 11.725-3.863 17.969-3.179-1.475-1.676-1.111-4.5.468-6.077a6.853 6.909 0 0 1 6.212-1.539 8.56 8.63 0 0 1 4.812 2.901c1.774 2.181 2.279 5.126 3.62 7.602s4.357 4.587 6.826 3.259c2.132-1.147 2.471-4.128 1.94-6.505s-1.658-4.688-1.465-7.117c.367-4.634 5.132-7.424 9.337-9.333s9.02-4.475 9.686-9.076a8.207 8.275 0 0 1 .499-2.638 5.132 5.174 0 0 1 1.883-1.785c12.272-8.177 24.748-16.453 38.775-20.921.73-.232.815.026 1.559-.156 1.041-.606.351-2.284-.647-2.96s-2.332-1.194-2.585-2.379c-.186-.871.323-1.726.455-2.607.325-2.165-2.244-4.163-4.238-3.298-1.127-1.504 1.103-3.252 2.905-3.753a78.901 79.545 0 0 1 16.576-2.73 2.986 3.01 0 0 1 1.886.323c.942.658.821 2.166.154 3.104s-1.705 1.528-2.537 2.322a6.924 6.981 0 0 0-1.796 7.021c2.927 1.501 6.108 3.046 9.35 2.517s6.118-4.2 4.595-7.133c-1.419-2.731-5.68-3.347-6.413-6.339-.858-3.504 4.062-6.62 2.954-10.052-.485-1.503-1.971-2.388-3.112-3.473a9.348 9.425 0 0 1-2.046-10.45 11.794 11.89 0 0 1-10.344-3.263c-2.474-2.517-4.448-6.488-7.961-6.376-3.224.103-6.001 3.895-9.016 2.738-.742-.285-1.524-.864-2.242-.524a1.853 1.868 0 0 0-.836 1.4c-.766 3.693.552 7.9-1.444 11.091-2.172 3.472-7.197 3.954-9.83 7.085-1.43 1.7-1.983 3.99-3.297 5.782s-4.103 2.931-5.68 1.37a7.829 7.893 0 0 0-2.127-9.597 20.889 21.06 0 0 0-4.697-2.304 27.859 28.087 0 0 1-5.248-2.949 5.169 5.211 0 0 1-1.927-2.078 4.698 4.736 0 0 1 .132-3.286 13.329 13.438 0 0 1 10.607-8.863c2.1-.288 4.543-.187 5.933-1.799.735-.853 1.121-2.144 2.188-2.49a3.227 3.254 0 0 1 2.02.251l7.837 2.781a5.5 5.545 0 0 0 2.792.466 1.893 1.908 0 0 0 1.637-2.005c-.25-1.312-2.253-1.942-2.071-3.265a2.162 2.18 0 0 1 .656-1.112 28.018 28.247 0 0 1 22.222-8.847c.989 1.638-.575 3.577-1.877 4.975s-2.348 3.896-.774 4.972a4.316 4.351 0 0 0 2.087.474 18.219 18.368 0 0 1 5.554 1.698q4.062 1.782 7.968 3.9c-.23-1.731-.45-3.555.201-5.173s2.5-2.888 4.116-2.258c1.557.607 2.356 2.686 4.014 2.876 2.213.254 3.086-3.042 2.161-5.084s-2.754-3.753-2.907-5.993c-.103-1.511.467-3.385-.73-4.3a3.259 3.286 0 0 0-1.413-.499l-29.896-5.546c-1.775-.329-4.34-.077-4.419 1.741-.044 1.015.855 2.019.457 2.952-.425.996-1.821.905-2.838 1.257-1.578.547-2.37 2.436-2.218 4.111a11.347 11.439 0 0 0 1.873 4.633c-1.945-.82-4.889-.971-6.833-1.79zm-23.854-25.585a9.681 9.76 0 0 0-10.634 3.211c-.492.653-.906 1.554-.494 2.262.591 1.014 2.096.614 3.206.251a8.069 8.135 0 0 1 5.064-.122c1.042.361 1.975.998 3.021 1.345a3.043 3.067 0 0 0 3.102-.457c.718-.739.763-1.887.765-2.922a2.331 2.35 0 0 0-.594-1.931 3.045 3.07 0 0 0-1.373-.41 4.731 4.769 0 0 1-2.769-1.631m11.486-2.622a2.463 2.483 0 0 0-2.38 3.497 9.982 10.063 0 0 0 3.98.262 3.402 3.429 0 0 0 2.782-2.571 6.404 6.456 0 0 1-4.534-.873m36.319-5.369a45.782 46.157 0 0 0-10.205 3.495 7.668 7.73 0 0 1 4.897 7.764 4.01 4.043 0 0 0 .046 1.92c.375.916 1.461 1.26 2.416 1.495a15.927 16.058 0 0 0 5.299.682 5.398 5.442 0 0 0 4.386-2.702 19.102 19.258 0 0 1 .912-2.174c2.289-3.514 9.088.735 11.545-2.662.866-1.196.786-2.998 1.915-3.946a4.302 4.337 0 0 1 1.969-.757 138.243 139.373 0 0 1 14.953-2.147c2.378-.209 5.478-1.07 5.498-3.476a41.419 41.757 0 0 0-26.421 3.583c-2.945 1.487-6.841 4.616-9.678 2.644-1.062-.738-1.01-2.726-2.472-3.556-1.495-.849-3.473-.504-5.06-.164zm29.296 5.524l4.205.815a5.449 5.494 0 0 0-5.671 5.953c3.938 1.326 8.231.036 12.379.212s8.974 3.164 8.266 7.288c-.214 1.247-.929 2.493-.557 3.702.26.847 1.002 1.449 1.42 2.229.872 1.626.175 3.683-.926 5.161s-2.58 2.658-3.547 4.229c-2.403 3.907-1.038 8.958.394 13.323a11.651 11.746 0 0 0 2.24 4.51c2.121 2.274 5.577 2.471 8.673 2.517 2.253.033 4.834-.079 6.259-1.839 1.86-2.298.559-5.882 1.784-8.579 1.112-2.449 3.946-3.5 6.513-4.245 4.704-1.365 9.497-2.526 13.944-4.588 5.522-2.56 10.682-6.551 16.751-6.88 1.703-.092 3.447.11 5.088-.36s3.198-1.9 3.074-3.614c-.106-1.465-1.335-2.541-2.296-3.645s-1.715-2.802-.832-3.971l15.908-2.996c-1.128-3.098-2.006-7.178.585-9.195.935-.728 2.187-1.018 2.983-1.898 1.357-1.499.674-4.082-.892-5.357s-3.684-1.571-5.69-1.739c-6.975-.584-13.99-.198-20.979.188q-20.492 1.132-40.984 2.265c-2.75.152-5.925-.08-8.448.866-2.135.801-3.654 2.271-6.096 2.787-4.508.953-9.47.308-13.549 2.86zm75.332 33.509a1.692 1.706 0 0 0-1.224.28 1.545 1.558 0 0 0-.398.952 6.233 6.284 0 0 0 .905 4.498 4.369 4.404 0 0 0 3.999 1.933c1.893-.243 3.289-1.872 5.03-2.667 2.683-1.224 14.077-3.131 6.195-7.424-2.716-1.479-4.471-.173-6.612.801a15.045 15.168 0 0 1-7.894 1.628zm69.033-35.933a4.5 4.537 0 0 0-2.19 1.921 1.923 1.939 0 0 0 .721 2.572 2.87 2.894 0 0 0 1.074.172l3.742.113c1.59.048 3.575.389 4.003 1.934.317 1.147-.393 2.621.464 3.44a2.413 2.433 0 0 0 1.273.501 8.675 8.746 0 0 0 3.77.123c2.723-.736 1.292-2.412 2.15-3.903 1.312-2.283 1.085-.901 3.397-2.209 1.707-.966 3.914-2.719 2.489-5.181-2.478-4.282-17.235-1.321-20.892.519zm73.859-2.153l-2.173.292c-4.9.659-9.828 1.325-14.547 2.808a24.211 24.409 0 0 0 6.371 1.576 19.57 19.73 0 0 1 3.569.511c2.084.626 4.185 2.241 6.199 1.414 1.249-.513 1.656-1.824 2.69-2.519.714-.48 3.423-1.256 3.726-1.74 2.448-3.914-3.953-2.596-5.835-2.343zm9.541 9.957a40.752 41.085 0 0 0-8.019 5.92c-1.021.968-2.064 2.171-1.971 3.58.123 1.873 2.103 2.96 3.817 3.692l6.946 2.965c.843-1.197.072-2.85-.799-4.027s-1.906-2.538-1.521-3.954c.439-1.616 2.393-2.167 4.032-2.445 2.67-.454 9.873-.417 9.008-4.756-1.02-5.112-8.813-2.487-11.493-.976zm-1.396 289.284c-.661 1.93-.724 4.204.42 5.889 1.284 1.891 3.852 2.596 6.075 2.116a10.944 11.033 0 0 0 5.64-3.656 19.423 19.581 0 0 0 3.244-5.016 38.832 39.15 0 0 0 2.405-8.87l2.157-11.416c.482-2.551.463-10.374-4.188-7.825-1.271.696-4.213 6.193-5.545 7.752-2.4 2.81-2.718 5.536-3.981 8.939-1.583 4.263-4.763 7.816-6.226 12.086zm245.676 58.421a33.91 34.187 0 0 1-4.42-2.121 37.257 37.561 0 0 0-2.241 12.312l10.415-5.942c1.567-.894 3.343-2.136 3.309-3.95a1.24 1.25 0 0 0-.576-1.136 1.404 1.416 0 0 0-.73-.086c-1.544.13-2.952.896-4.409 1.429s-3.16.814-4.497.024m58.09 2.997a22.543 22.728 0 0 0-3.34 1.208c-2.39 1.226-4.016 3.555-6.167 5.169-2.058 1.545-4.536 2.394-6.968 3.219-.715.638-.387 1.922.39 2.482a4.831 4.87 0 0 0 2.751.623c2.527.056 5.189.081 7.402-1.15a23.344 23.535 0 0 0 3.485-2.789c2.588-2.177 5.695-3.613 8.772-5.001a10.068 10.15 0 0 0 3.057-1.843c1.933-1.92 2.069-4.882-.718-5.535-2.252-.528-6.519 2.917-8.664 3.616z"/><path d="M981.989 603.667a8.688 8.759 0 0 0-2.658-7.177c-.028 2.643-.108 5.459-1.583 7.645-1.051 1.557-2.698 2.609-3.849 4.093s-1.662 3.835-.312 5.137a5.06 5.101 0 0 0 2.999 1.041c2.688.319 5.799.497 7.684-1.461 1.029-1.068 1.529-2.651 2.784-3.437a3.387 3.415 0 0 0 1.222-.881c.518-.83-.305-1.925-1.232-2.224s-1.948-.159-2.879-.443-1.786-1.34-1.308-2.195m-44.013-97.011a12.082 12.18 0 0 1-4.311.256c-2.393-.443-4.255-2.262-6.187-3.752a27.29 27.513 0 0 0-15.945-5.617c-5.249-.1-10.548 1.334-15.703.334.337 1.889 1.94 3.305 3.65 4.147s3.598 1.266 5.317 2.091a12.695 12.799 0 0 1 6.149 6.45c.553 1.303.902 2.72 1.74 3.858 1.714 2.325 4.962 2.835 7.829 2.645 3.738-.248 7.642-1.332 11.119.072 2.66 1.074 4.564 3.422 6.786 5.247s5.35 3.18 7.9 1.863a13.061 13.167 0 0 1-9.037-12.67c2.502.232 9.707.142 9.319-4.143-.329-3.632-6.48-1.172-8.628-.78zm-32.725 29.549c.444-2.456 2.874-4.625 2.117-7.002-.523-1.644-2.414-2.456-4.126-2.496s-3.394.474-5.106.522a24.883 25.086 0 0 0-3.343.048c-3.398.563-5.493 4.154-8.695 5.431-1.947.776-4.135.628-6.16 1.165-4.597 1.218-7.506 5.598-10.719 9.129a38.254 38.566 0 0 1-19.417 11.416c-2.614.61-5.424 1.001-7.501 2.712-2.751 2.266-3.428 6.152-4.041 9.68a158.591 159.887 0 0 1-7.72 28.572l10.916 1.405c2.075.267 4.226.529 6.226-.091a18.073 18.221 0 0 0 4.095-2.199 40.879 41.213 0 0 1 15.971-5.812c2.858-.396 5.855-.468 8.538.603s4.984 3.5 5.209 6.4a6.706 6.761 0 0 1 6.702 1.643 11.65 11.745 0 0 1 3.2 6.44c.288 1.506.575 3.31 1.961 3.941 1.131.515 2.427-.04 3.664-.139 4.197-.339 7.679 4.595 11.804 3.745 4.424-.911 5.51-7.591 9.826-8.929 2.479-.768 5.956.166 7.143-2.159 1.046-2.049-1.041-4.413-.826-6.707.265-2.825 3.57-4.024 6.118-5.229 8.784-4.155 12.953-16.075 8.696-24.866-2.522-5.209-7.484-9.309-8.401-15.031-.705-4.402 1.016-9.536-1.768-13.001-1.416-1.763-3.814-2.736-4.657-4.839-.53-1.324-.317-2.826-.603-4.225s-1.496-2.862-2.866-2.499c-3.977 1.052-5.246 13.437-7.375 16.447-3.236 4.574-9.881 1.561-8.861-4.075zm-73.504-24.87c-1.359-.384-2.843-.763-4.145-.214s-2.063 2.476-1.017 3.433c8.176-.321 16.402-.64 24.508.479 9.34 1.29 18.583 4.484 27.964 3.544a142.315 143.477 0 0 0-16.313-3.816l-9.183-1.769a71.007 71.587 0 0 0-7.457-1.162c-5.239-.436-9.204.96-14.356-.496zm8.185-28.707c-.679-.057-1.519-.106-1.87.482-.335.562.048 1.305-.132 1.935-.246.861-1.365 1.081-2.246.964s-1.835-.398-2.615.03a2.217 2.235 0 0 0-.857 2.539 6.482 6.535 0 0 0 1.512 2.429 24.619 24.82 0 0 0 3.922 3.966c2.81 2.091 6.617 3.099 8.387 6.134a4.037 4.07 0 0 0 1.12 1.52c.85.543 1.958.13 2.872-.292l3.207-1.477a3.642 3.672 0 0 0 1.499-1.028c.733-1.002.283-2.427-.332-3.506s-1.402-2.197-1.27-3.435c.235-2.207 3.05-3.051 4.207-4.939 1.166-1.903.407-4.355.542-6.589.157-2.612 1.785-6.009-.834-7.96-2.226-1.658-4.353-.126-5.951 1.705-3.37 3.861-4.963 8.042-11.158 7.521zm19.464-39.023c1.095 2.113 3.377 3.374 4.571 5.432 1.294 2.231 1.146 5.113 2.55 7.275 1.44 2.218 4.338 3.396 5.146 5.919.882 2.755-1.119 6.102.476 8.509a3.543 3.572 0 0 0 5.197.481 3.812 3.843 0 0 0-.157-5.362c-.944-.868-2.3-1.243-3.088-2.257a4.697 4.736 0 0 1-.8-1.964 12.751 12.855 0 0 1 .201-6.161 2.719 2.742 0 0 0 .154-1.611c-.355-1.04-1.752-1.114-2.732-1.596-2.227-1.096-2.173-4.264-1.784-6.731-.259 1.643-6.063-1.151-6.67-2.082-1.207-1.848-.55-5.414-.789-7.456-2.606 1.266-3.612 5.02-2.273 7.604zm-58.468 32.514c-1.071-1.209-2.685-2.474-4.121-1.745-1.096.556-1.397 2.085-.968 3.243a7.081 7.139 0 0 0 2.337 2.809c2.993 2.488 6.215 4.734 8.826 7.627 4.672 5.177 7.147 12.161 12.229 16.93a6.859 6.915 0 0 0 3.851 2.101c1.48.139 3.143-.817 3.313-2.306.14-1.227-.708-2.325-1.537-3.234-1.974-2.165-4.135-4.157-5.998-6.419a5.35 5.394 0 0 1-1.533-3.228c-.009-1.218 1.092-2.492 2.262-2.191-1.423-.367-2.479-2.757-4.568-3.207-1.746-.376-2.168.714-4.246-.184-3.963-1.714-7.072-7.065-9.847-10.197zm93.114-117.715a32.814 33.082 0 0 1-3.348-1.206c-2.942-.89-6.835 1.29-6.443 4.362.261 2.041 2.145 3.417 3.185 5.187 1.543 2.625 1.132 5.955.321 8.895a6.897 6.954 0 0 1-1.113 2.531 8.503 8.572 0 0 1-2.637 1.912 35.265 35.553 0 0 0-10.319 8.838 2.526 2.547 0 0 0-.623 1.184c-.14 1.037.894 1.793 1.478 2.658 1.299 1.922.36 4.507.488 6.829a1.915 1.931 0 0 0 .807 1.694c.783.401 1.71-.28 2.134-1.055 1.408-2.572.347-6.699 2.989-7.939.5-.235 1.105-.333 1.439-.776.529-.702.019-1.741.287-2.58.402-1.26 2.111-1.316 3.423-1.26a19.427 19.586 0 0 0 6.673-.896 4.442 4.478 0 0 0 2.209-1.29c.79-.993.72-2.406.562-3.669a49.331 49.734 0 0 0-5.828-17.929c2.32.299 4.844.558 6.846-.661 1.121-.683 2.465-2.724 1.909-4.113-.879-2.197-2.468-.348-4.439-.715zm-297.435 34.63c.278 1.501.551 3.082.063 4.528s-2.023 2.654-3.473 2.211c-1.125-.344-1.775-1.484-2.574-2.354-4.443-4.835-14.466-2.036-17.211-8.018-1.12-2.442-.359-5.367-1.123-7.944a7.013 7.071 0 0 0-7.102-4.864 14.594 14.714 0 0 0-4.087 1.23 103.054 103.896 0 0 1-27.079 6.828 22.249 22.431 0 0 0-5.203.954c-3.815 1.394-6.422 4.96-8.277 8.599s-3.225 7.578-5.712 10.811c-2.614 3.398-6.277 5.777-9.694 8.35a9.89 9.971 0 0 0-3.198 3.379c-.741 1.533-.699 3.317-.641 5.021l.698 20.701c.09 2.663.203 5.42 1.385 7.803 1.476 2.975 4.392 4.924 6.415 7.553a14.674 14.793 0 0 1 3.044 9.447c-.043 1.37-.178 2.991.881 3.852a3.872 3.903 0 0 0 2.165.628l27.775 2.292c4.886.403 10.301 1.066 13.49 4.819 1.505 1.771 2.715 4.318 5.021 4.508.989.082 1.952-.328 2.941-.407 2.496-.199 4.689 1.711 6.072 3.814a16.785 16.922 0 0 1 2.696 10.858c-.227 2.4-.965 4.733-1.124 7.138-.605 9.152 7.09 17.103 7.239 26.274.088 5.395-2.452 10.435-4.929 15.218 3.997 6.104.724 14.233 2.315 21.37 1.51 6.771 7.109 12.071 8.504 18.866.639 3.111.676 6.939 3.397 8.542a7.743 7.806 0 0 0 3.843.776 50.669 51.083 0 0 0 23.074-5.296c3.365-1.683 6.851-4.196 7.439-7.936.474-3.016-1.043-6.39.501-9.017 1.82-3.096 6.481-2.851 9.159-5.232 4.344-3.862.957-11.228 2.716-16.791 1.582-5 7.028-7.657 9.727-12.145a21.407 21.581 0 0 0 2.26-6.176 87.386 88.1 0 0 0 2.3-15.752 93.653 94.418 0 0 1 .707-9.648c2.91-18.229 20.785-30.435 26.589-47.946.554-1.672.815-3.9-.661-4.846a4.226 4.261 0 0 0-2.81-.297l-12.804 1.627c-1.59.202-3.276.391-4.737-.275s-2.507-2.529-1.733-3.943c2.175-3.971-2.299-8.99-4.286-13.059a191.147 192.709 0 0 0-19.035-31.122 3.138 3.163 0 0 1-.835-1.827l3.634.122c-1.227-4.438-3.251-9.294-7.527-10.917-2.41-.915-5.078-.598-7.649-.457-7.364.406-15.259-.715-22.547-1.851zm22.553-100.001c1.927 2.063 4.086 4.25 6.874 4.61 4.925.635 8.465-4.499 10.719-8.958a4.342 4.377 0 0 0 4.531 4.05 8.944 9.017 0 0 0 3.408-1.343 67.133 67.681 0 0 1 31.804-8.289 3.435 3.463 0 0 1 2.623-3.807c2.261-.452 4.297 1.519 5.388 3.565s1.771 4.419 3.503 5.952 5.087 1.465 5.771-.753c.657-2.13-1.544-3.946-3.373-5.202s-3.756-3.58-2.525-5.433c9.342-2.085 18.742-4.178 28.302-4.592a11.851 11.948 0 0 0 4.764-.827c1.458-.721 2.617-2.358 2.225-3.947a10.788 10.876 0 0 1-11.258-4.281c13.264-1.104 27.372-2.044 39.128 4.248 1.411 3.053-5.779 5.593-3.855 8.347.614.878 1.843.981 2.908 1.001 8.169.153 16.385.303 24.462-.941 2.952-.454 5.933-1.096 8.896-.727 4.936.614 9.157 3.934 14.013 5.016 1.976.441 4.192.456 5.858-.703s2.382-3.798 1.017-5.304c4.572-4.518 12.16-3.398 18.192-1.235s11.746 5.651 18.129 6.133c4.578.346 9.219-.896 13.743-.107 2.843.496 5.488 1.771 8.266 2.554 5.254 1.481 10.813 1.169 16.268 1.24a113.989 114.92 0 0 1 40.621 8.138 12.077 12.176 0 0 1 4.516 2.69c1.204 1.299 1.817 3.318 1.008 4.898l-13.365-1.969c1.259 2.499 4.517 2.925 7.163 3.787s5.389 3.808 3.799 6.107c-2.867-.92-5.464 1.969-6.912 4.628s-3.213 5.842-6.217 6.004c-2.69.145-5.943-2.164-7.697-.102a52.495 52.924 0 0 1 6.185 9.969c1.732 3.638 2.966 8.223.625 11.497a2.956 2.98 0 0 1-1.58 1.235c-1.912.488-3.155-1.87-4.526-3.3-1.728-1.801-4.341-2.312-6.681-3.156s-4.805-2.507-4.988-5.006c-.114-1.555.7-3 1.3-4.437a16.958 17.096 0 0 0 1.288-7.668c-.131-2.109-.718-4.303-2.221-5.777s-4.097-1.941-5.71-.591c-.753.63-1.356 1.637-2.333 1.675-1.727.067-3.053-2.969-4.443-1.933a4.721 4.76 0 0 1-.642 3.183c-4.146 3.636-10.516 2.098-15.861 3.382a29.771 30.015 0 0 0-7.237 3.186 4.656 4.694 0 0 0-2.068 1.75c-.667 1.307.068 2.981 1.245 3.851a9.88 9.961 0 0 0 4.103 1.412c6.517 1.244 13.128 3.17 18.273 7.39s8.519 11.196 6.891 17.678l-12.851-12.38q.732 7.797.831 15.637a6.973 7.03 0 0 1-.407 3.008c-.916 2.04-3.399 2.727-5.575 3.177a4.367 4.403 0 0 0-3.352 5.641c.773 2.54 2.701 4.521 4.466 6.495s3.502 4.217 3.733 6.864-1.75 5.631-4.379 5.447c-1.993-.14-3.472-1.939-4.322-3.762s-1.356-3.854-2.634-5.403c-3.867-4.688-12.551-2.68-16.015-7.678a7.834 7.898 0 0 0-1.62 7.516c1.611-1.017 3.817-.072 5.028 1.406s1.782 3.372 2.733 5.032c1.283 2.24 3.325 4.225 3.504 6.805a22.064 22.244 0 0 0 .049 2.927c.318 1.563 1.629 2.686 2.537 3.993 2.114 3.04 2.01 7.217.647 10.667s-3.811 6.332-6.237 9.127c-4.236 4.881-8.558 9.734-13.58 13.788-1.433 1.157-2.962 2.294-3.855 3.911s-.938 3.887.433 5.117c-.981.05-2.741.536-3.722.586a86.543 87.25 0 0 1-.224-11.935c-3.872-1.875-8.042 3.146-7.542 7.447s3.586 7.753 5.783 11.475c1.607 2.721 2.801 5.895 2.264 9.015s-3.299 5.999-6.429 5.724c-4.978-.438-7.06-7.642-11.989-8.467a2.014 2.031 0 0 0-1.297.13c-.732.405-.859 1.392-.9 2.232-.202 4.125-.376 8.414 1.221 12.217 2.337 5.564 8.373 10.237 7.107 16.143-6.821-3.197-10.368-10.909-11.978-18.317s-1.879-15.185-4.765-22.188c-2.192 2.832-6.799.491-8.802-2.48-1.899-2.817-3.068-6.076-4.91-8.93s-4.664-5.411-8.038-5.568c-3.538-.165-6.607 2.283-9.305 4.596-2.219 1.902-4.497 3.879-5.794 6.508-1.887 3.826-1.394 8.336-1.485 12.607-.098 4.618-1.069 9.491-4.191 12.872s-8.885 4.558-12.328 1.511c-1.798-1.591-2.668-3.967-3.444-6.249a303.429 305.908 0 0 1-9.323-33.554c-.579 2.591-2.836 5.932-4.992 4.405a4.47 4.507 0 0 1-1.15-1.494c-4.022-6.873-11.471-10.995-18.997-13.467s-15.444-3.625-22.886-6.341a57.97 58.444 0 0 1-11.872-5.962 9.337 9.414 0 0 0-.571 9.629c1.651 2.947 5.387 4.652 8.585 3.622 1.653-.532 3.048-1.689 4.688-2.26s3.841-.291 4.558 1.302c.686 1.524-.351 3.369.164 4.96.784 2.424 4.41 2.611 5.679 4.817.944 1.641.167 3.821-1.18 5.146s-3.145 2.051-4.789 2.973c-5.336 2.992-9.131 8.098-13.794 12.072s-11.243 6.874-16.801 4.325c1.325-6.763-6.666-11.729-8.136-18.461-.484-2.216-.233-4.57-.924-6.729-1-3.127-3.752-5.276-6.009-7.646a29.764 30.007 0 0 1-8.164-21.832c.122-2.782.629-5.61 0-8.322s-2.856-5.337-5.616-5.214c-6.304.281-14.245.753-17.552-4.664-1.18-1.934-1.694-4.765.013-6.247 1.204-1.045 2.981-.947 4.562-.79l14.203 1.409c3.322.329 6.913.601 9.763-1.149s4.086-6.398 1.446-8.458c-1.929-1.505-5.384-1.423-5.945-3.816-.467-1.993 1.721-4.254.539-5.92-.847-1.194-2.752-.863-3.907.032s-1.992 2.205-3.284 2.882c-2.266 1.189-4.974.057-7.413-.712s-5.707-.834-6.89 1.449c-1.323 2.553 1.173 5.899-.139 8.458-1.736 3.383-7.613 1.457-10.05 4.367-2.797 3.339 1.903 8.318.96 12.584a7.77 7.833 0 0 1-7.655-.434 7.435 7.496 0 0 1-3.213-6.979c.233-1.919 1.226-3.878.561-5.691-.538-1.466-1.998-2.339-3.355-3.095l-13.802-7.689c-1.281 2.397.339 5.368 2.365 7.168s4.564 3.156 5.895 5.525a7.193 7.252 0 0 1-2.707 9.561 1.66 1.674 0 0 1-1.368.241 1.909 1.924 0 0 1-.887-1.203c-2.435-6.283-6.092-12.478-11.937-15.76s-14.245-2.607-18.078 2.922c-.91 1.313-1.522 2.81-2.315 4.199-4.214 7.376-13.248 10.869-21.688 10.641a4.307 4.342 0 0 1-2.366-.561c-1.364-.95-1.303-2.965-1.094-4.623l.886-7.036c.178-1.413.436-2.975 1.545-3.857 1.564-1.243 3.819-.459 5.81-.488a7.364 7.424 0 0 0 6.684-5.2 8.299 8.367 0 0 0-2.31-8.32c-.913-.864-2.138-1.95-1.656-3.115a2.554 2.575 0 0 1 1.791-1.216c3.577-1.047 7.356-1.322 10.873-2.557s6.928-3.764 7.761-7.423c.255-1.122.371-2.48 1.371-3.036a4.11 4.144 0 0 1 1.584-.326 7.708 7.771 0 0 0 6.612-8.102c1.686-1.187 4.047-.314 5.678.949s3.07 2.932 5.055 3.476c3.698 1.015 7.271-2.286 11.103-2.301 1.612-.006 3.28.568 4.796.017 1.537-.558 2.455-2.101 3.634-3.24s3.249-1.835 4.339-.607l-.928-6.927a13.507 13.617 0 0 0 10.992-2.004l-11.988-4.084a2.606 2.628 0 0 1-1.121-.604c-.872-.946-.006-2.421.703-3.496 1.695-2.573 1.98-6.811-.808-8.092-1.903-.874-4.087.175-5.914 1.202l-8.75 4.918c-.278 1.677 1.756 2.627 3.016 3.756a5.057 5.098 0 0 1-3.298 8.908 6.301 6.353 0 0 1 1.125 5.386l-5.887.427a2.55 2.571 0 0 1-1.909-.376c-.63-.564-.544-1.552-.69-2.388-.352-2.018-2.312-3.432-4.313-3.795s-4.047.102-6.028.561a3.597 3.627 0 0 1-2.591-.06 2.587 2.608 0 0 1-1.025-1.304c-.868-2.123-.057-4.618 1.338-6.433s3.304-3.142 5.019-4.654a29.252 29.491 0 0 0 8.698-13.601c3.241-1.369 6.596-3.229 9.837-4.598a30.1 30.346 0 0 1 16.179-3.16l10.975.211c3.249.063 6.587.143 9.591 1.392s5.645 3.95 5.852 7.22a2.198 2.216 0 0 1-.704 2.026 2.593 2.614 0 0 1-1.388.315c-3.03.107-4.322.869-7.353.976zm-87.478 34.677a3.211 3.238 0 0 0 .876-3.256 6.007 6.056 0 0 0-6.22 1.184 10.487 10.572 0 0 0-1.666 2.221c-1.442 2.372-2.718 5.205-1.882 7.857a2.214 2.232 0 0 0 1.013 1.397 2.664 2.686 0 0 0 1.181.187 39.593 39.916 0 0 0 4.753-.295c.968-.119 2.093-.395 2.468-1.303.492-1.194-.699-2.545-.352-3.79a4.107 4.141 0 0 1 1.014-1.464 1.92 1.936 0 0 0 .598-1.625c-.14-.584-1.027-.915-1.346-.408m7.802-11.473a13.298 13.406 0 0 0-4.307-.273 1.878 1.894 0 0 0-.918.21 1.531 1.544 0 0 0-.566.826 4.069 4.102 0 0 0 2.369 5.027 5.091 5.132 0 0 1 1.469.595c1.218.953.442 2.9.672 4.437.259 1.726 1.916 3.174 1.612 4.893-.239 1.354-1.674 2.426-1.443 3.781.242 1.419 2.028 1.846 3.453 1.96a4.342 4.378 0 0 0 2.446-.283 3.788 3.819 0 0 0 1.543-2.253 14.326 14.443 0 0 0 .722-5.438 5.115 5.157 0 0 0-.608-2.4 13.293 13.402 0 0 0-1.421-1.641c-2.728-3.2.144-7.972-5.023-9.441z"/></g><g fill="none" stroke="#00b0ff" stroke-miterlimit="10" stroke-width=".875"><path d="M899.579 567.695s-208.975-120.936-298.942-98.021c0 0-190.666 20.686-212.763 66.196 0 0-60.609-190.951-82.706-197.316" opacity=".8"/><path d="M387.875 535.87c35.04-94.202 350.712-198.589 350.712-198.589-44.825 11.457-137.949 132.393-137.949 132.393s-196.979-144.486-295.469-131.12c0 0 433.734 14.321 594.411 229.141" opacity=".8"/></g><g fill="#00b0ff"><ellipse cx="305.169" cy="338.554" rx="9.154" ry="9.229"/><ellipse cx="387.875" cy="535.87" rx="9.154" ry="9.229"/><ellipse cx="738.587" cy="337.281" rx="9.154" ry="9.229"/><ellipse cx="899.579" cy="567.695" rx="9.154" ry="9.229"/><ellipse cx="600.638" cy="469.673" rx="9.154" ry="9.229"/></g></svg>