<?xml version="1.0" encoding="UTF-8" standalone="no"?>
<svg
   xmlns:dc="http://purl.org/dc/elements/1.1/"
   xmlns:cc="http://creativecommons.org/ns#"
   xmlns:rdf="http://www.w3.org/1999/02/22-rdf-syntax-ns#"
   xmlns:svg="http://www.w3.org/2000/svg"
   xmlns="http://www.w3.org/2000/svg"
   xmlns:sodipodi="http://sodipodi.sourceforge.net/DTD/sodipodi-0.dtd"
   xmlns:inkscape="http://www.inkscape.org/namespaces/inkscape"
   id="e37c00f5-ff96-45aa-87ea-1a24b78ba7bd"
   data-name="Layer 1"
   width="900"
   height="673.979"
   viewBox="0 0 899.99998 673.97901"
   version="1.1"
   sodipodi:docname="CDN_connected_world_JunTechpc-Aruba.svg"
   inkscape:version="1.0.2-2 (e86c870879, 2021-01-15)">
  <metadata
     id="metadata154">
    <rdf:RDF>
      <cc:Work
         rdf:about="">
        <dc:format>image/svg+xml</dc:format>
        <dc:type
           rdf:resource="http://purl.org/dc/dcmitype/StillImage" />
        <dc:title>connected world</dc:title>
      </cc:Work>
    </rdf:RDF>
  </metadata>
  <defs
     id="defs152" />
  <sodipodi:namedview
     pagecolor="#ffffff"
     bordercolor="#666666"
     borderopacity="1"
     objecttolerance="10"
     gridtolerance="10"
     guidetolerance="10"
     inkscape:pageopacity="0"
     inkscape:pageshadow="2"
     inkscape:window-width="1920"
     inkscape:window-height="1001"
     id="namedview150"
     showgrid="false"
     inkscape:zoom="0.70710678"
     inkscape:cx="540.12411"
     inkscape:cy="313.09651"
     inkscape:window-x="-9"
     inkscape:window-y="-9"
     inkscape:window-maximized="1"
     inkscape:current-layer="e37c00f5-ff96-45aa-87ea-1a24b78ba7bd" />
  <title
     id="title83">connected world</title>
  <path
     d="M 829.13889,163.83475 C 726.99064,20.529612 511.20733,-37.601163 298.99138,25.007062 186.79918,58.106162 78.625197,124.42511 25.016807,252.83998 -70.813962,482.39545 130.39484,555.70987 261.9635,579.07606 c 63.61949,11.29863 123.53825,30.27783 178.29254,56.11805 98.50793,46.48888 272.87373,87.68295 404.3571,-105.9648 95.29929,-140.35614 52.56659,-269.93918 -15.47425,-365.39456 z"
     fill="#f2f2f2"
     id="path85"
     style="stroke-width:0.76803" />
  <path
     d="m 236.91765,192.18703 a 26.301808,26.516721 0 0 0 -1.71921,-6.6355 2.9792246,3.0035679 0 0 0 -1.5146,-1.88069 3.1209245,3.1464257 0 0 0 -1.50285,-0.017 l -7.71588,1.19029 a 2.957807,2.9819754 0 0 0 -1.76047,0.68963 c -1.00496,1.06551 -0.0154,2.78124 -0.0461,4.25122 -0.0346,1.65298 -1.49138,2.99471 -3.07112,3.43861 a 11.609304,11.704164 0 0 1 -4.87989,-0.061 l -10.78908,-1.69035 a 17.788874,17.934228 0 0 0 8.16204,-5.49122 c 1.41982,-1.6957 2.17518,-4.86155 0.12323,-5.66456 a 5.0372429,5.0784024 0 0 0 -1.87396,-0.15169 c -4.8882,0.0383 -8.73482,-4.07637 -13.31099,-5.80934 a 14.717585,14.837843 0 0 0 -16.56389,4.97815 l 5.74747,0.27937 a 2.5511034,2.5719486 0 0 1 1.53095,0.41163 c 1.25958,1.04335 -0.30641,3.04738 -0.12896,4.68114 0.23054,2.12261 3.02604,2.57581 5.13332,2.79045 2.10729,0.21464 4.78063,1.94076 3.76698,3.81564 -10.59146,3.67798 -21.36942,-7.18965 -32.49269,-5.85188 -2.81524,0.33859 -5.47359,1.45359 -8.22218,2.1547 -16.79038,4.2829 -34.14865,-7.14436 -51.30096,-4.72427 a 65.142043,65.674321 0 0 0 -11.198633,2.97763 c -2.33445,0.77276 -4.76944,1.60787 -6.46564,3.40005 -1.6962,1.79218 -2.34177,4.85714 -0.73488,6.73112 a 37.576807,37.883849 0 0 1 -13.16854,-1.26198 7.3775748,7.4378572 0 0 1 3.79295,6.5551 78.132189,78.77061 0 0 0 -20.01565,6.15291 33.712281,33.987746 0 0 0 4.14277,5.56377 l -8.75468,5.67036 c 2.95774,0.7513 4.48697,4.81739 2.76694,7.35688 3.06684,-1.3755 4.96753,-4.93381 8.24701,-5.65523 2.1485,-0.47263 4.33465,0.41347 6.37282,1.24586 2.03818,0.83239 4.27834,1.63954 6.38829,1.01481 2.10995,-0.62473 3.66622,-3.38296 2.3255,-5.14029 a 109.16752,110.05953 0 0 1 27.730133,-4.3678 3.47771,3.5061265 0 0 1 2.10014,0.40182 c 1.22252,0.85508 0.90087,2.702 0.83502,4.20061 -0.0659,1.4986 1.09268,3.46816 2.42121,2.79268 -1.56302,1.36643 -0.22684,3.93882 1.27272,5.37572 1.49955,1.4369 3.30695,3.41959 2.38888,5.28871 -0.2396,0.48783 -0.646,0.87815 -0.87655,1.3704 -0.6805,1.45299 0.39997,3.14692 1.67439,4.11183 1.27443,0.96491 2.83547,1.63928 3.72075,2.97543 0.88528,1.33615 0.48326,3.67496 -1.09977,3.86154 l -4.49948,-5.75957 a 11.713516,11.809227 0 0 0 -3.03949,5.80702 c 4.77133,3.93233 5.48901,11.93622 1.49449,16.66744 -2.04131,2.41777 -4.94419,3.88691 -7.47778,5.77277 -2.53359,1.88586 -4.877973,4.57132 -4.871603,7.74632 0.011,5.48536 -0.43356,10.58147 1.605283,15.66715 a 239.3914,241.34748 0 0 0 12.9962,27.33571 c 1.28569,2.31823 2.94732,4.85913 5.55188,5.2583 q -4.93748,-12.11817 -8.88942,-24.61343 c 1.716,0.007 3.69903,0.14413 4.70498,1.54571 0.83299,1.1606 0.65405,2.73856 0.91288,4.1472 a 12.742728,12.846849 0 0 0 1.62503,3.85142 l 15.71855,28.22824 c 1.30304,2.34008 2.79771,4.85192 5.28808,5.79958 1.59223,0.60589 3.43436,0.49175 4.89987,1.36405 1.14872,0.68373 1.9224,1.89743 3.09345,2.54149 3.31119,1.82108 7.91574,-1.67148 11.01014,0.50279 0.88479,0.6217 1.44766,1.60935 2.26292,2.32113 2.85794,2.49519 7.54616,0.82597 10.84535,2.68732 2.12627,1.19961 3.22822,3.59875 4.36234,5.77291 2.84083,5.44603 7.43744,10.78149 13.5256,11.21514 1.91241,0.13622 3.86587,-0.22934 5.73524,0.1995 1.86936,0.42883 3.70956,2.0736 3.40948,3.98263 -0.51444,3.27281 1.08948,6.85649 0.65872,10.14155 -0.78464,5.98383 -9.20351,8.61341 -9.92666,14.60511 -0.15833,1.31188 0.0895,2.666 -0.22034,3.95011 -0.37974,1.57383 -1.55213,2.85522 -1.96872,4.41953 -0.78947,2.96451 1.31723,5.91482 3.63157,7.90924 2.31433,1.99443 5.07491,3.71423 6.34018,6.50611 1.33737,2.95097 0.68046,6.39178 1.1154,9.60636 0.94951,7.01788 6.96189,12.22043 13.14946,15.57495 1.88522,1.02206 3.90942,2.01153 5.12961,3.78457 1.59262,2.31419 1.43396,5.36498 1.96576,8.13015 1.30243,6.772 6.95708,12.35184 7.11764,19.24806 0.11412,4.90161 -2.58846,9.34832 -4.20287,13.97324 a 32.322765,32.586876 0 0 0 2.63944,27.02584 c 1.20769,2.05591 2.65212,3.99428 3.50644,6.22308 1.52455,3.9773 1.02987,8.49856 2.43554,12.52012 1.85843,5.31686 6.965,9.70842 6.47625,15.32416 2.31837,4.85374 7.43777,7.23863 12.58558,8.68329 l 9.22604,2.58917 c 1.76656,0.49577 3.61254,0.99547 5.41136,0.6365 1.79882,-0.35897 3.51553,-1.86485 3.46909,-3.71296 -4.52432,-1.02868 -9.19375,-2.12256 -12.9233,-4.90207 -3.72956,-2.77951 -6.28437,-7.72913 -4.86932,-12.18205 0.65615,-2.06479 2.05209,-4.44915 0.72494,-6.15525 -0.75989,-0.97685 -2.1494,-1.23206 -3.00649,-2.12335 -1.33688,-1.39013 -0.87758,-3.72548 0.0835,-5.40183 0.96109,-1.67635 2.35024,-3.17442 2.7379,-5.07081 a 5.2479837,5.2908652 0 0 0 -2.45983,-5.50449 13.045067,13.151658 0 0 0 4.56652,-2.95401 c 1.20091,-1.38262 1.75563,-3.51418 0.81095,-5.08593 2.80534,0.35869 6.11732,0.53437 7.95887,-1.62915 1.47055,-1.72766 1.36955,-4.31057 0.78849,-6.51049 -0.58106,-2.19993 -1.56318,-4.33668 -1.59378,-6.61305 a 119.53017,120.50685 0 0 0 19.39281,-0.66296 12.574608,12.677355 0 0 0 -5.89605,-7.44444 c 2.91477,-0.49721 5.57018,-4.01526 6.49105,-6.84732 0.92087,-2.83205 0.68601,-5.91688 0.11684,-8.84147 a 4.7056612,4.7441113 0 0 1 -0.0872,-2.31634 c 0.32823,-1.05457 1.35579,-1.6981 2.30647,-2.24851 l 14.46784,-8.3769 a 8.4273551,8.4962154 0 0 0 2.31356,-1.72193 c 1.5158,-1.79504 1.29126,-4.50474 0.51512,-6.72852 -0.77614,-2.22379 -2.01937,-4.31491 -2.31833,-6.65299 -0.89418,-6.99257 6.53053,-12.0097 9.03624,-18.59203 0.98334,-2.58315 1.18375,-5.39098 1.37405,-8.15118 0.20438,-2.96457 0.21957,-6.40804 -2.03823,-8.31847 -2.16431,-1.83129 -5.54601,-1.42279 -7.81071,-3.1262 -2.07634,-1.56173 -2.79269,-4.59483 -5.06098,-5.85627 -2.05994,-1.14556 -4.64272,-0.41699 -6.93376,-0.95577 -4.03387,-0.94863 -6.5724,-5.63577 -10.69213,-6.06976 -2.32442,-0.24487 -4.95515,0.90077 -6.86025,-0.464 -1.67869,-1.20257 -1.74596,-3.61966 -2.0655,-5.67066 a 15.708138,15.83649 0 0 0 -12.67818,-12.82292 c -2.39661,-0.38748 -5.0053,-0.24033 -7.04414,-1.56814 -2.0645,-1.34453 -3.01109,-3.86179 -4.63277,-5.72377 -2.61363,-3.00092 -6.73001,-4.06711 -10.5861,-4.98104 l -15.68491,-3.71743 c -2.78437,-0.65992 -6.3734,-1.00984 -7.86758,1.44908 a 11.273332,11.365447 0 0 0 -0.93066,2.95097 9.0645573,9.1386241 0 0 1 -8.52446,6.46867 10.080834,10.163205 0 0 0 -5.94454,-4.63721 c -1.59047,-0.44686 -3.29288,-0.49656 -4.80977,-1.154 a 6.756214,6.8114192 0 0 1 -2.93157,-9.44876 8.4099687,8.4786868 0 0 0 -1.43711,-10.19869 c -2.6674,-2.41426 -6.52586,-2.99759 -10.10247,-2.75602 -0.93674,-2.06066 0.62952,-4.3856 2.31735,-5.88311 1.68782,-1.4975 3.73736,-2.96974 4.10489,-5.20599 0.57818,-3.51762 -3.87374,-6.18934 -7.25395,-5.14049 -3.38022,1.04885 -5.53766,4.35892 -6.96381,7.62177 -0.81827,1.87209 -1.51393,3.84347 -2.80466,5.42204 -1.29073,1.57857 -3.36929,2.70883 -5.33531,2.20223 -2.78333,-0.71718 -3.85829,-4.05102 -4.4743,-6.87992 -0.82649,-3.79549 -1.65779,-7.64362 -1.48461,-11.52557 0.17318,-3.88194 1.47124,-7.86781 4.31055,-10.49574 4.62678,-4.28235 11.72456,-3.86255 17.96878,-3.17944 -1.47524,-1.67574 -1.11065,-4.49987 0.46779,-6.07715 a 6.8534037,6.9094031 0 0 1 6.21173,-1.53852 8.5602127,8.6301585 0 0 1 4.81222,2.90075 c 1.77444,2.18106 2.27903,5.12591 3.62025,7.60159 1.34122,2.47567 4.35706,4.58724 6.82552,3.25906 2.1321,-1.14721 2.4705,-4.12784 1.93986,-6.50489 -0.53064,-2.37704 -1.65767,-4.68847 -1.46546,-7.11725 0.36678,-4.6344 5.13189,-7.42398 9.33682,-9.3326 4.20492,-1.90863 9.01983,-4.47548 9.68601,-9.07583 a 8.207443,8.2745063 0 0 1 0.49898,-2.6376 5.1320001,5.1739339 0 0 1 1.88272,-1.78498 c 12.2722,-8.17653 24.7485,-16.45287 38.77505,-20.92068 0.72973,-0.23245 0.8154,0.0259 1.5591,-0.15622 1.04085,-0.60648 0.35118,-2.28422 -0.64675,-2.96008 -0.99793,-0.67587 -2.33178,-1.19417 -2.58496,-2.379 -0.18611,-0.87096 0.32289,-1.72616 0.45513,-2.60707 0.3249,-2.16466 -2.24367,-4.16325 -4.23838,-3.29784 -1.12672,-1.50436 1.10273,-3.25235 2.90543,-3.75273 a 78.900772,79.545473 0 0 1 16.57593,-2.72991 2.9856728,3.0100688 0 0 1 1.88618,0.32345 c 0.94156,0.65754 0.82126,2.16569 0.15397,3.10423 -0.66728,0.93854 -1.70525,1.52782 -2.5368,2.32197 a 6.9244487,6.9810286 0 0 0 -1.7961,7.02143 c 2.92655,1.50081 6.10822,3.0458 9.34952,2.51707 3.24129,-0.52872 6.1182,-4.20032 4.59466,-7.13266 -1.41876,-2.73068 -5.68043,-3.34658 -6.4133,-6.33935 -0.85805,-3.50401 4.062,-6.62043 2.95372,-10.05231 -0.48546,-1.50328 -1.97148,-2.388 -3.11175,-3.47332 a 9.3481713,9.4245556 0 0 1 -2.04572,-10.45046 11.793801,11.890169 0 0 1 -10.34362,-3.26333 c -2.47409,-2.51726 -4.44789,-6.48819 -7.96114,-6.37556 -3.22399,0.10334 -6.00091,3.89538 -9.01552,2.73849 -0.74164,-0.28462 -1.52359,-0.8639 -2.24219,-0.52449 a 1.8528077,1.8679471 0 0 0 -0.83637,1.39966 c -0.76609,3.69263 0.55179,7.89992 -1.44445,11.09078 -2.1723,3.47229 -7.1969,3.95369 -9.8304,7.08483 -1.42955,1.6997 -1.98341,3.99003 -3.29742,5.78199 -1.314,1.79196 -4.10293,2.93127 -5.67984,1.36965 a 7.828628,7.892596 0 0 0 -2.12677,-9.59717 20.8892,21.059886 0 0 0 -4.69747,-2.30355 27.859367,28.087007 0 0 1 -5.24788,-2.9487 5.169129,5.2113661 0 0 1 -1.92653,-2.07824 4.6975991,4.7359833 0 0 1 0.13175,-3.28644 13.329025,13.437937 0 0 1 10.60714,-8.86349 c 2.09959,-0.28798 4.54323,-0.18651 5.93271,-1.79933 0.7352,-0.85338 1.12096,-2.14359 2.18812,-2.49019 a 3.227492,3.253864 0 0 1 2.02018,0.25082 l 7.83678,2.78095 a 5.5002976,5.5452407 0 0 0 2.79173,0.4655 1.8927591,1.9082249 0 0 0 1.63665,-2.00538 c -0.2504,-1.31206 -2.25294,-1.94168 -2.07072,-3.26509 a 2.1621534,2.1798204 0 0 1 0.65589,-1.11152 28.01788,28.246815 0 0 1 22.22168,-8.84695 c 0.98914,1.63779 -0.57521,3.57722 -1.87685,4.97536 -1.30164,1.39814 -2.34765,3.89628 -0.77352,4.97249 a 4.3160457,4.3513123 0 0 0 2.08661,0.47377 18.219114,18.367983 0 0 1 5.55387,1.69833 q 4.06208,1.78221 7.96824,3.89996 c -0.23003,-1.73103 -0.44957,-3.55466 0.20124,-5.17323 0.6508,-1.61857 2.50044,-2.88812 4.11603,-2.25778 1.55699,0.60749 2.3555,2.68596 4.01431,2.87638 2.21274,0.25402 3.08572,-3.04164 2.16144,-5.08438 -0.92428,-2.04274 -2.75402,-3.75319 -2.90675,-5.99314 -0.10304,-1.51115 0.46736,-3.38532 -0.72995,-4.30037 a 3.2588993,3.2855279 0 0 0 -1.41265,-0.49939 l -29.89572,-5.54631 c -1.77527,-0.32936 -4.34022,-0.0769 -4.41895,1.74117 -0.044,1.01485 0.85523,2.01884 0.45698,2.95192 -0.42506,0.99588 -1.82141,0.90483 -2.83845,1.25706 -1.57806,0.54653 -2.36993,2.43567 -2.21837,4.11093 a 11.346641,11.439355 0 0 0 1.8725,4.63276 c -1.94454,-0.81987 -4.88891,-0.97058 -6.83345,-1.79045 z"
     fill="#3f3d56"
     id="path87"
     style="stroke-width:0.76803" />
  <path
     d="m 213.06382,166.60188 a 9.6809156,9.7600187 0 0 0 -10.63417,3.21075 c -0.49225,0.65343 -0.90566,1.5542 -0.49357,2.26175 0.59083,1.01437 2.09627,0.61371 3.20617,0.25086 a 8.0692311,8.135165 0 0 1 5.06426,-0.1218 c 1.0422,0.36075 1.9746,0.99832 3.02135,1.34544 a 3.0426358,3.0674973 0 0 0 3.10225,-0.45705 c 0.71839,-0.73866 0.76347,-1.88703 0.76474,-2.92155 a 2.3305564,2.3495994 0 0 0 -0.59388,-1.93111 3.044984,3.0698647 0 0 0 -1.37342,-0.40955 4.7306203,4.7692744 0 0 1 -2.76859,-1.63089"
     fill="#3f3d56"
     id="path89"
     style="stroke-width:0.76803" />
  <path
     d="m 223.84358,163.57599 a 2.4626796,2.4828022 0 0 0 -2.38023,3.49675 9.9818396,10.063402 0 0 0 3.97983,0.26161 3.4016777,3.429473 0 0 0 2.78173,-2.57124 6.4039491,6.456276 0 0 1 -4.53432,-0.87307"
     fill="#3f3d56"
     id="path91"
     style="stroke-width:0.76803" />
  <path
     d="m 260.01101,158.52249 a 45.782483,46.156574 0 0 0 -10.20545,3.49514 7.6677747,7.7304284 0 0 1 4.89731,7.7644 4.010494,4.0432639 0 0 0 0.0464,1.9197 c 0.37481,0.91608 1.46092,1.25982 2.41577,1.49496 a 15.927431,16.057574 0 0 0 5.29855,0.68182 5.3975163,5.4416196 0 0 0 4.38582,-2.70201 19.101631,19.257711 0 0 1 0.91206,-2.17361 c 2.28876,-3.51422 9.08807,0.735 11.54541,-2.66154 0.86564,-1.19648 0.78646,-2.99751 1.91491,-3.9456 a 4.3019255,4.3370766 0 0 1 1.96853,-0.75739 138.24332,139.37291 0 0 1 14.95281,-2.147 c 2.37829,-0.20865 5.47821,-1.0696 5.49799,-3.47627 a 41.419013,41.757449 0 0 0 -26.42098,3.58339 c -2.94524,1.48722 -6.84061,4.61564 -9.67761,2.64394 -1.06223,-0.73824 -1.00964,-2.72613 -2.47163,-3.55626 -1.49471,-0.84871 -3.47329,-0.50353 -5.05996,-0.16367 z"
     fill="#3f3d56"
     id="path93"
     style="stroke-width:0.76803" />
  <path
     d="m 289.30644,164.04559 4.20504,0.81459 a 5.4490561,5.4935805 0 0 0 -5.67057,5.95345 c 3.93785,1.32624 8.23101,0.0357 12.37909,0.21195 4.14809,0.1763 8.97441,3.16355 8.26631,7.28792 -0.2141,1.24707 -0.92868,2.49331 -0.55709,3.7022 0.26044,0.84731 1.00165,1.44853 1.42002,2.2289 0.87181,1.62614 0.17503,3.68297 -0.9258,5.16119 -1.10083,1.47821 -2.58049,2.65767 -3.54677,4.2286 -2.40325,3.90715 -1.03784,8.95831 0.39377,13.3233 a 11.65064,11.745838 0 0 0 2.24025,4.51039 c 2.12099,2.27356 5.57742,2.47129 8.67292,2.51684 2.25302,0.0332 4.83395,-0.0791 6.25873,-1.83895 1.86011,-2.2976 0.55941,-5.88236 1.78408,-8.57891 1.11223,-2.44902 3.94597,-3.49967 6.51338,-4.24483 4.70353,-1.36514 9.49689,-2.52574 13.94358,-4.58776 5.52167,-2.5605 10.68204,-6.55077 16.751,-6.88037 1.70263,-0.0925 3.44745,0.11012 5.08752,-0.36019 1.64006,-0.4703 3.198,-1.89985 3.07384,-3.61432 -0.10609,-1.46489 -1.33542,-2.54058 -2.296,-3.64489 -0.96057,-1.1043 -1.71493,-2.8024 -0.8321,-3.97077 l 15.90753,-2.99552 c -1.1276,-3.0981 -2.00602,-7.17837 0.58507,-9.19496 0.93488,-0.7276 2.18662,-1.01841 2.98261,-1.89804 1.35667,-1.49922 0.67446,-4.08176 -0.89161,-5.35676 -1.56606,-1.275 -3.68357,-1.57098 -5.6896,-1.73897 -6.9751,-0.58402 -13.99024,-0.19811 -20.97883,0.1881 q -20.49183,1.13242 -40.98367,2.26483 c -2.75012,0.15198 -5.9253,-0.0802 -8.4476,0.8657 -2.13531,0.8008 -3.65354,2.27075 -6.09571,2.78721 -4.50836,0.95343 -9.46975,0.30825 -13.54939,2.86007 z"
     fill="#3f3d56"
     id="path95"
     style="stroke-width:0.76803" />
  <path
     d="m 364.63843,197.55509 a 1.6920309,1.7058566 0 0 0 -1.22399,0.27986 1.5452979,1.5579246 0 0 0 -0.39844,0.95153 6.2328842,6.2838133 0 0 0 0.90535,4.49768 4.3685263,4.4042217 0 0 0 3.99896,1.93291 c 1.89343,-0.24342 3.2888,-1.87197 5.02952,-2.66664 2.68288,-1.22369 14.07657,-3.13132 6.19502,-7.42419 -2.71614,-1.47942 -4.47124,-0.17344 -6.61201,0.80086 a 15.044952,15.167885 0 0 1 -7.89441,1.62799 z"
     fill="#3f3d56"
     id="path97"
     style="stroke-width:0.76803" />
  <path
     d="m 433.67159,161.62213 a 4.5000682,4.5368384 0 0 0 -2.18952,1.92144 1.9229884,1.9387012 0 0 0 0.72119,2.57183 2.870064,2.8935154 0 0 0 1.07359,0.17169 l 3.74207,0.11271 c 1.58971,0.0479 3.57543,0.38921 4.00261,1.93369 0.3172,1.14683 -0.39275,2.62051 0.46386,3.44006 a 2.4130674,2.4327847 0 0 0 1.27298,0.50055 8.6749648,8.7458482 0 0 0 3.77046,0.12268 c 2.72273,-0.73628 1.29207,-2.41163 2.14961,-3.9034 1.31208,-2.28252 1.08493,-0.9008 3.39686,-2.20897 1.70737,-0.96608 3.91365,-2.71859 2.48858,-5.18088 -2.47817,-4.28188 -17.23542,-1.32088 -20.89229,0.5186 z"
     fill="#3f3d56"
     id="path99"
     style="stroke-width:0.76803" />
  <path
     d="m 507.53062,159.46941 -2.17291,0.29233 c -4.89996,0.65922 -9.82769,1.32451 -14.54702,2.80798 a 24.211258,24.409089 0 0 0 6.37082,1.57605 19.569941,19.729848 0 0 1 3.56866,0.51142 c 2.08446,0.6256 4.18483,2.24109 6.19866,1.41354 1.24864,-0.51311 1.6561,-1.82384 2.69043,-2.5185 0.71421,-0.47966 3.4231,-1.25602 3.72593,-1.74015 2.44817,-3.91393 -3.95272,-2.59584 -5.83457,-2.34267 z"
     fill="#3f3d56"
     id="path101"
     style="stroke-width:0.76803" />
  <path
     d="m 517.07211,169.42588 a 40.751964,41.08495 0 0 0 -8.01872,5.92036 c -1.02094,0.96756 -2.06373,2.17094 -1.97113,3.5805 0.12304,1.87345 2.10252,2.96014 3.81747,3.69216 l 6.94634,2.965 c 0.84269,-1.19743 0.0715,-2.85036 -0.7995,-4.02708 -0.87091,-1.17673 -1.90585,-2.53817 -1.52107,-3.95419 0.43911,-1.61593 2.39341,-2.16659 4.0322,-2.44497 2.67013,-0.45358 9.87301,-0.4172 9.00754,-4.75552 -1.01977,-5.11185 -8.81281,-2.48668 -11.49313,-0.97626 z"
     fill="#3f3d56"
     id="path103"
     style="stroke-width:0.76803" />
  <path
     d="m 515.67526,458.70971 c -0.66129,1.93011 -0.72402,4.20382 0.41987,5.88899 1.28358,1.89095 3.8524,2.59582 6.07485,2.11629 a 10.943594,11.033014 0 0 0 5.64014,-3.65594 19.422741,19.581445 0 0 0 3.24412,-5.01558 38.832448,39.14975 0 0 0 2.40456,-8.87015 l 2.15674,-11.41628 c 0.48195,-2.55147 0.4633,-10.37384 -4.1882,-7.82522 -1.27072,0.69623 -4.21286,6.19337 -5.54454,7.75221 -2.40013,2.80952 -2.71768,5.53558 -3.98119,8.93922 -1.58262,4.26327 -4.76335,7.81638 -6.22635,12.08646 z"
     fill="#3f3d56"
     id="path105"
     style="stroke-width:0.76803" />
  <path
     d="m 761.35124,517.13087 a 33.910302,34.187384 0 0 1 -4.42001,-2.12134 37.256845,37.561272 0 0 0 -2.24066,12.31151 l 10.41495,-5.94163 c 1.56677,-0.89378 3.34251,-2.13572 3.30878,-3.95029 a 1.2395932,1.249722 0 0 0 -0.57575,-1.13633 1.4040875,1.4155603 0 0 0 -0.73018,-0.0864 c -1.54436,0.12975 -2.95243,0.89587 -4.40929,1.42862 -1.45686,0.53275 -3.16038,0.81435 -4.49706,0.0237"
     fill="#3f3d56"
     id="path107"
     style="stroke-width:0.76803" />
  <path
     d="m 816.29228,520.65834 a 22.543482,22.727686 0 0 0 -3.33999,1.20841 c -2.39005,1.226 -4.01594,3.55465 -6.16672,5.16943 -2.05815,1.54524 -4.5357,2.39364 -6.96797,3.21853 -0.71542,0.63761 -0.38666,1.92174 0.38996,2.48186 a 4.8306937,4.8701655 0 0 0 2.7507,0.62334 c 2.52688,0.0562 5.18893,0.0808 7.4022,-1.14966 a 23.343863,23.534606 0 0 0 3.48502,-2.78863 c 2.58777,-2.17679 5.69538,-3.61303 8.77162,-5.00099 a 10.06777,10.150034 0 0 0 3.05728,-1.84286 c 1.93301,-1.91998 2.06893,-4.88198 -0.71833,-5.53545 -2.25213,-0.52805 -6.51934,2.91662 -8.66377,3.61602 z"
     fill="#3f3d56"
     id="path109"
     style="stroke-width:0.76803" />
  <path
     d="m 840.56759,504.67183 a 8.6882742,8.7592664 0 0 0 -2.65822,-7.17693 c -0.0283,2.64328 -0.10808,5.45924 -1.58268,7.64501 -1.05068,1.55738 -2.69807,2.60943 -3.84911,4.0929 -1.15111,1.48347 -1.66208,3.8349 -0.31185,5.13661 a 5.0598001,5.1011439 0 0 0 2.9986,1.04124 c 2.68775,0.31897 5.79872,0.49675 7.68377,-1.46088 1.02896,-1.0685 1.52944,-2.65104 2.78428,-3.4366 a 3.3874274,3.4151062 0 0 0 1.22157,-0.88131 c 0.51815,-0.83042 -0.30513,-1.92482 -1.23189,-2.22403 -0.9267,-0.29921 -1.94801,-0.15855 -2.87936,-0.44273 -0.93136,-0.28417 -1.78592,-1.34004 -1.308,-2.19464"
     fill="#3f3d56"
     id="path111"
     style="stroke-width:0.76803" />
  <path
     d="m 797.42282,407.75903 a 12.081515,12.180233 0 0 1 -4.31097,0.25626 c -2.39272,-0.44349 -4.25505,-2.26152 -6.18684,-3.75247 a 27.28976,27.512746 0 0 0 -15.94504,-5.61661 c -5.24921,-0.0999 -10.5475,1.33411 -15.703,0.33359 0.33683,1.88878 1.93998,3.30541 3.65048,4.14743 1.7105,0.84201 3.59833,1.26574 5.31704,2.09062 a 12.695043,12.798775 0 0 1 6.14933,6.4496 c 0.55349,1.30267 0.90183,2.72029 1.74032,3.85774 1.71387,2.32492 4.96245,2.83543 7.82941,2.6453 3.7379,-0.24789 7.64193,-1.33172 11.11945,0.0723 2.66029,1.07406 4.5643,3.42151 6.78553,5.2468 2.22123,1.8253 5.34987,3.18 7.90047,1.86299 a 13.060533,13.167251 0 0 1 -9.03697,-12.67014 c 2.50164,0.23192 9.70688,0.14217 9.31876,-4.14318 -0.32883,-3.63177 -6.47995,-1.1722 -8.62797,-0.78022 z"
     fill="#3f3d56"
     id="path113"
     style="stroke-width:0.76803" />
  <path
     d="m 764.69743,437.30774 c 0.4442,-2.45604 2.87363,-4.62491 2.11683,-7.002 -0.52335,-1.6439 -2.41393,-2.45551 -4.12597,-2.49604 -1.71203,-0.0405 -3.39391,0.47361 -5.10574,0.52202 a 24.882514,25.08583 0 0 0 -3.34327,0.0479 c -3.39809,0.56314 -5.4926,4.15394 -8.69497,5.43071 -1.94721,0.77633 -4.13474,0.62792 -6.15988,1.16461 -4.59705,1.21828 -7.50576,5.59775 -10.71927,9.12872 a 38.253639,38.566211 0 0 1 -19.41656,11.41591 c -2.61378,0.61016 -5.42357,1.00053 -7.50116,2.71197 -2.75125,2.26636 -3.42848,6.15167 -4.04059,9.68 a 158.59131,159.88716 0 0 1 -7.72025,28.57221 l 10.91562,1.40505 c 2.07531,0.26714 4.22572,0.52855 6.22554,-0.0912 a 18.073024,18.220699 0 0 0 4.09476,-2.19897 40.878786,41.212808 0 0 1 15.97094,-5.81205 c 2.85848,-0.39565 5.8554,-0.46814 8.53789,0.60305 2.68248,1.07119 4.98379,3.50039 5.20861,6.40038 a 6.7058675,6.7606614 0 0 1 6.70226,1.64334 11.650044,11.745236 0 0 1 3.19984,6.44002 c 0.28753,1.50558 0.57521,3.30955 1.96096,3.94115 1.13054,0.51529 2.42742,-0.0397 3.66417,-0.13947 4.19668,-0.33854 7.67912,4.59485 11.804,3.74532 4.42394,-0.91112 5.51004,-7.59064 9.82582,-8.92862 2.47878,-0.76846 5.95561,0.16598 7.14252,-2.15855 1.04625,-2.04886 -1.04104,-4.41322 -0.8258,-6.7074 0.26504,-2.82489 3.57015,-4.02392 6.11815,-5.22925 8.78425,-4.15544 12.95264,-16.07487 8.69598,-24.86578 -2.52199,-5.2086 -7.48444,-9.3087 -8.40088,-15.03067 -0.70517,-4.40237 1.01627,-9.53601 -1.76786,-13.00125 -1.41631,-1.76279 -3.81423,-2.73581 -4.65701,-4.8392 -0.53047,-1.32401 -0.31729,-2.82622 -0.60275,-4.22485 -0.28547,-1.39863 -1.49587,-2.86163 -2.86575,-2.4991 -3.9767,1.05232 -5.24569,13.43735 -7.37474,16.44657 -3.2365,4.57421 -9.88064,1.56115 -8.86144,-4.07453 z"
     fill="#3f3d56"
     id="path115"
     style="stroke-width:0.76803" />
  <path
     d="m 691.19378,412.43852 c -1.35897,-0.38416 -2.84288,-0.7626 -4.14498,-0.21361 -1.3021,0.54899 -2.06252,2.47637 -1.01746,3.43273 8.17573,-0.32109 16.40153,-0.63994 24.50777,0.47942 9.33971,1.28969 18.58284,4.48431 27.96353,3.54446 a 142.31461,143.47747 0 0 0 -16.31256,-3.81622 l -9.18345,-1.76862 a 71.007058,71.587259 0 0 0 -7.45728,-1.16171 c -5.23911,-0.43622 -9.20445,0.95971 -14.35557,-0.49645 z"
     fill="#3f3d56"
     id="path117"
     style="stroke-width:0.76803" />
  <path
     d="m 699.37861,383.73131 c -0.67873,-0.0571 -1.51934,-0.10636 -1.87048,0.48198 -0.33547,0.56212 0.0485,1.3048 -0.13187,1.93515 -0.24646,0.86113 -1.3651,1.08112 -2.24646,0.96388 -0.88136,-0.11724 -1.83456,-0.39802 -2.61542,0.0304 a 2.2167757,2.2348891 0 0 0 -0.85708,2.53857 6.482299,6.5352661 0 0 0 1.51168,2.42944 24.618611,24.819771 0 0 0 3.92229,3.96635 c 2.80993,2.09111 6.61677,3.09882 8.38657,6.13435 a 4.0372048,4.0701929 0 0 0 1.12009,1.51983 c 0.84961,0.54257 1.95764,0.1298 2.87239,-0.29159 l 3.20651,-1.47709 a 3.6422425,3.6720034 0 0 0 1.49897,-1.02779 c 0.73257,-1.00211 0.28261,-2.42692 -0.33226,-3.50647 -0.61488,-1.07955 -1.40195,-2.19679 -1.26999,-3.43452 0.23526,-2.20684 3.04974,-3.05097 4.20701,-4.93914 1.16649,-1.90323 0.4071,-4.35547 0.54156,-6.58881 0.15734,-2.61172 1.78514,-6.00897 -0.83385,-7.96033 -2.22581,-1.65842 -4.35325,-0.12605 -5.95129,1.70487 -3.36996,3.86103 -4.96342,8.04245 -11.15837,7.5209 z"
     fill="#3f3d56"
     id="path119"
     style="stroke-width:0.76803" />
  <path
     d="m 718.84223,344.70824 c 1.09472,2.11317 3.37688,3.37424 4.57062,5.43219 1.29392,2.23064 1.1465,5.11271 2.55022,7.27481 1.44017,2.21826 4.33841,3.39596 5.14609,5.919 0.88177,2.75454 -1.1189,6.10249 0.47589,8.50929 a 3.5430258,3.571976 0 0 0 5.19719,0.48141 3.8122518,3.8434019 0 0 0 -0.15735,-5.36236 c -0.94424,-0.86795 -2.30009,-1.24302 -3.08847,-2.25683 a 4.6973237,4.7357057 0 0 1 -0.79993,-1.96357 12.750675,12.854861 0 0 1 0.20059,-6.16095 2.7194529,2.7416736 0 0 0 0.15369,-1.6115 c -0.35492,-1.04009 -1.75185,-1.11388 -2.73226,-1.59639 -2.22679,-1.09587 -2.17275,-4.26417 -1.7837,-6.7314 -0.25902,1.64258 -6.0626,-1.15114 -6.67032,-2.08156 -1.20727,-1.84833 -0.55021,-5.41376 -0.78921,-7.45626 -2.60638,1.2662 -3.61151,5.02039 -2.27305,7.60412 z"
     fill="#3f3d56"
     id="path121"
     style="stroke-width:0.76803" />
  <path
     d="m 660.3748,377.22184 c -1.07117,-1.20894 -2.6846,-2.47367 -4.12069,-1.74456 -1.09566,0.55624 -1.39705,2.08458 -0.96762,3.24308 a 7.080659,7.1385153 0 0 0 2.33675,2.80857 c 2.99275,2.4884 6.21543,4.73427 8.82631,7.62689 4.67234,5.17657 7.14746,12.1615 12.22883,16.93033 a 6.8588881,6.9149323 0 0 0 3.85057,2.10095 c 1.48042,0.13885 3.14285,-0.81651 3.31302,-2.30562 0.14017,-1.22664 -0.70802,-2.32456 -1.53693,-3.23355 -1.97387,-2.16458 -4.13479,-4.15701 -5.99838,-6.41876 a 5.3498317,5.3935454 0 0 1 -1.53324,-3.22831 c -0.009,-1.21782 1.09208,-2.49246 2.26243,-2.19087 -1.42337,-0.36679 -2.47898,-2.75749 -4.56805,-3.20689 -1.74587,-0.37556 -2.16822,0.71409 -4.24598,-0.18431 -3.9628,-1.71351 -7.07187,-7.06487 -9.84702,-10.19695 z"
     fill="#3f3d56"
     id="path123"
     style="stroke-width:0.76803" />
  <path
     d="m 753.48912,259.50664 a 32.814175,33.082301 0 0 1 -3.34787,-1.20569 c -2.94231,-0.89041 -6.83531,1.28994 -6.44312,4.36169 0.26059,2.04094 2.14463,3.41694 3.1851,5.18727 1.54301,2.62534 1.13165,5.95519 0.32081,8.89528 a 6.8974932,6.9538528 0 0 1 -1.11326,2.53091 8.5025919,8.5720668 0 0 1 -2.63656,1.91212 35.264785,35.552934 0 0 0 -10.31859,8.83782 2.5264274,2.5470709 0 0 0 -0.62314,1.18426 c -0.14032,1.03713 0.89373,1.79263 1.47835,2.65764 1.29865,1.92151 0.36001,4.50714 0.48839,6.82869 a 1.9150333,1.9306811 0 0 0 0.80691,1.69392 c 0.78273,0.40085 1.71024,-0.28004 2.13449,-1.05495 1.40791,-2.57158 0.34732,-6.69939 2.98851,-7.93929 0.49961,-0.23454 1.1053,-0.33342 1.4386,-0.77589 0.52879,-0.70192 0.0186,-1.74123 0.2866,-2.58022 0.40234,-1.25967 2.11126,-1.31622 3.42273,-1.26035 a 19.426887,19.585625 0 0 0 6.67322,-0.89568 4.4420344,4.4783304 0 0 0 2.20906,-1.28966 c 0.78955,-0.99341 0.71957,-2.40591 0.56181,-3.66891 a 49.330886,49.733971 0 0 0 -5.82825,-17.92924 c 2.32008,0.29879 4.84424,0.55755 6.84629,-0.66145 1.12107,-0.68259 2.46543,-2.72386 1.90941,-4.11323 -0.87929,-2.19712 -2.46771,-0.34775 -4.43949,-0.71504 z"
     fill="#3f3d56"
     id="path125"
     style="stroke-width:0.76803" />
  <path
     d="m 456.05394,294.13685 c 0.27766,1.50131 0.5506,3.08212 0.0626,4.52787 -0.48802,1.44575 -2.02323,2.65375 -3.4729,2.21076 -1.12506,-0.34379 -1.77495,-1.48427 -2.57383,-2.35377 -4.44272,-4.8354 -14.46618,-2.03587 -17.2107,-8.01806 -1.1201,-2.4415 -0.35889,-5.36652 -1.12289,-7.94383 a 7.0133697,7.0706762 0 0 0 -7.10241,-4.86435 14.594403,14.713655 0 0 0 -4.0871,1.23 103.05393,103.89598 0 0 1 -27.0788,6.8281 22.248739,22.430534 0 0 0 -5.20307,0.95444 c -3.81522,1.39446 -6.42205,4.96042 -8.27722,8.59928 -1.85517,3.63885 -3.22476,7.57829 -5.71198,10.81118 -2.61398,3.39766 -6.27694,5.77689 -9.69378,8.35036 a 9.8903944,9.9712092 0 0 0 -3.19785,3.37901 c -0.74075,1.53318 -0.69897,3.3165 -0.64147,5.02091 l 0.69833,20.70083 c 0.0898,2.66264 0.20261,5.42045 1.38466,7.80325 1.47606,2.97547 4.39198,4.92428 6.41486,7.55276 a 14.673541,14.793439 0 0 1 3.04412,9.44716 c -0.0431,1.37041 -0.17812,2.99129 0.88051,3.85196 a 3.8717926,3.9034291 0 0 0 2.16498,0.62772 l 27.77521,2.29184 c 4.88586,0.40314 10.30053,1.066 13.49042,4.81881 1.50547,1.77115 2.71484,4.31817 5.02078,4.50821 0.9891,0.0815 1.95152,-0.32783 2.94082,-0.40682 2.49594,-0.1993 4.6886,1.71057 6.07239,3.81423 a 16.784805,16.921954 0 0 1 2.69594,10.85832 c -0.2269,2.39969 -0.96489,4.73262 -1.12399,7.13787 -0.6054,9.15198 7.09008,17.10327 7.23925,26.27435 0.0877,5.39451 -2.45237,10.43482 -4.92884,15.21761 3.99691,6.10445 0.72403,14.23326 2.3153,21.36967 1.50966,6.77051 7.10909,12.07086 8.50437,18.86626 0.63875,3.11092 0.6757,6.93923 3.39668,8.54151 a 7.7427284,7.8059945 0 0 0 3.84349,0.77586 50.669207,51.083227 0 0 0 23.07362,-5.29589 c 3.36456,-1.68326 6.85148,-4.19611 7.43908,-7.93622 0.47386,-3.01616 -1.0433,-6.38989 0.50071,-9.01712 1.81972,-3.09646 6.48146,-2.85099 9.1589,-5.23167 4.34364,-3.86217 0.95654,-11.22788 2.71645,-16.79069 1.58194,-5.00029 7.02751,-7.65676 9.72684,-12.14458 a 21.40654,21.581454 0 0 0 2.26031,-6.1761 87.386207,88.100243 0 0 0 2.29976,-15.75203 93.653046,94.418288 0 0 1 0.70689,-9.64835 c 2.9103,-18.22853 20.78513,-30.43468 26.58854,-47.94623 0.55423,-1.67236 0.81451,-3.89993 -0.66121,-4.84623 a 4.2263216,4.260855 0 0 0 -2.81044,-0.29655 l -12.80374,1.6274 c -1.59033,0.20214 -3.27605,0.39107 -4.73654,-0.27488 -1.46048,-0.66594 -2.5072,-2.52864 -1.73252,-3.94336 2.17464,-3.97126 -2.29867,-8.98964 -4.286,-13.05943 a 191.14697,192.70884 0 0 0 -19.03451,-31.12154 3.1377143,3.1633527 0 0 1 -0.83451,-1.8267 l 3.63385,0.12199 c -1.22665,-4.43757 -3.25098,-9.29358 -7.52723,-10.91686 -2.40964,-0.91471 -5.07815,-0.59842 -7.64911,-0.45679 -7.36393,0.40558 -15.25864,-0.71532 -22.547,-1.85147 z"
     fill="#3f3d56"
     id="path127"
     style="stroke-width:0.76803" />
  <path
     d="m 478.60693,194.13585 c 1.92697,2.06306 4.0863,4.25042 6.87439,4.61 4.92451,0.63519 8.46519,-4.49883 10.71948,-8.95828 a 4.3417774,4.3772542 0 0 0 4.53065,4.04954 8.9439384,9.0170196 0 0 0 3.40768,-1.34315 67.132848,67.681393 0 0 1 31.80421,-8.28883 3.4346684,3.4627332 0 0 1 2.62288,-3.80675 c 2.26064,-0.45184 4.29699,1.51862 5.38751,3.5655 1.09052,2.04688 1.77051,4.41938 3.5031,5.9515 1.73259,1.53211 5.08702,1.46537 5.77138,-0.7533 0.65702,-2.13001 -1.54401,-3.94647 -3.37263,-5.20225 -1.82862,-1.25579 -3.75606,-3.58005 -2.52462,-5.43327 9.3421,-2.08485 18.74216,-4.17759 28.30157,-4.59198 a 11.851422,11.94826 0 0 0 4.76399,-0.82738 c 1.45784,-0.72124 2.61656,-2.35844 2.22454,-3.9472 a 10.788156,10.876307 0 0 1 -11.25812,-4.28115 c 13.26434,-1.10353 27.37237,-2.04414 39.12762,4.24828 1.41064,3.05303 -5.77891,5.59313 -3.85531,8.3468 0.6135,0.87824 1.84284,0.98124 2.90812,1.00118 8.16886,0.1529 16.38487,0.30284 24.46152,-0.94054 2.95155,-0.45437 5.9328,-1.09582 8.89611,-0.72735 4.93577,0.6137 9.15732,3.9339 14.01319,5.01641 1.97638,0.4406 4.19243,0.45552 5.85846,-0.7034 1.66602,-1.15893 2.38215,-3.79781 1.01689,-5.30439 4.57199,-4.51756 12.16007,-3.39791 18.19164,-1.23513 6.03157,2.16279 11.7456,5.65064 18.12943,6.13273 4.57778,0.34571 9.21918,-0.89571 13.74258,-0.10665 2.84252,0.49586 5.48801,1.77075 8.26617,2.55401 5.25442,1.4814 10.81271,1.16869 16.26826,1.23998 a 113.98854,114.91995 0 0 1 40.62148,8.13771 12.0774,12.176085 0 0 1 4.51573,2.68981 c 1.20351,1.29929 1.81728,3.31831 1.00838,4.89797 l -13.36507,-1.96877 c 1.25927,2.49919 4.51703,2.92507 7.16263,3.78724 2.6456,0.86217 5.38873,3.80768 3.79878,6.1073 -2.86658,-0.92019 -5.46422,1.96921 -6.91228,4.62769 -1.44797,2.65848 -3.21263,5.84233 -6.21666,6.00427 -2.69005,0.14502 -5.94342,-2.16424 -7.69684,-0.10239 a 52.494784,52.92372 0 0 1 6.18468,9.96852 c 1.7323,3.63844 2.96618,8.22299 0.62478,11.49655 a 2.9556194,2.9797699 0 0 1 -1.58023,1.2354 c -1.91218,0.48804 -3.15461,-1.87036 -4.52596,-3.2998 -1.72803,-1.8013 -4.34133,-2.3115 -6.68147,-3.15629 -2.34013,-0.84478 -4.80526,-2.50662 -4.98835,-5.00576 -0.11392,-1.5549 0.70037,-3.00032 1.30016,-4.43741 a 16.957759,17.096322 0 0 0 1.28846,-7.66811 c -0.1313,-2.10932 -0.71796,-4.30348 -2.22054,-5.77726 -1.50258,-1.47378 -4.09678,-1.94131 -5.70985,-0.59148 -0.75268,0.62983 -1.35588,1.63729 -2.33331,1.67496 -1.72704,0.0666 -3.05306,-2.96897 -4.44253,-1.93275 a 4.7211048,4.7596811 0 0 1 -0.64153,3.18327 c -4.1463,3.63555 -10.51601,2.09751 -15.86139,3.38178 a 29.77141,30.014673 0 0 0 -7.23655,3.18611 4.6561485,4.694194 0 0 0 -2.06846,1.75041 c -0.66724,1.30724 0.0684,2.98147 1.24451,3.85067 a 9.8801216,9.9608524 0 0 0 4.10344,1.41205 c 6.51666,1.24428 13.12839,3.17048 18.2733,7.39039 5.14491,4.21991 8.51882,11.19565 6.89074,17.67778 L 730.0725,240.5407 q 0.73216,7.7971 0.83098,15.63716 a 6.973273,7.0302519 0 0 1 -0.40736,3.00776 c -0.91616,2.04007 -3.39922,2.72657 -5.5751,3.17692 a 4.3670424,4.4027257 0 0 0 -3.35245,5.64087 c 0.77309,2.54045 2.70067,4.5211 4.46566,6.49467 1.76499,1.97357 3.50188,4.21662 3.73294,6.86371 0.23105,2.64708 -1.74986,5.63076 -4.3793,5.44671 -1.99331,-0.13953 -3.47216,-1.93853 -4.32238,-3.7615 -0.85021,-1.82297 -1.35611,-3.85372 -2.63359,-5.40268 -3.86658,-4.68832 -12.55144,-2.67965 -16.0153,-7.67777 a 7.8336612,7.8976703 0 0 0 -1.61992,7.51574 c 1.61145,-1.01704 3.81749,-0.0721 5.02822,1.4057 1.21072,1.47778 1.78189,3.37239 2.7327,5.03217 1.28302,2.23969 3.3249,4.2252 3.50398,6.80529 a 22.064127,22.244414 0 0 0 0.0488,2.92679 c 0.31812,1.5633 1.62875,2.6858 2.53747,3.9925 2.11445,3.04048 2.00997,7.21736 0.64711,10.66714 -1.36285,3.44979 -3.81133,6.33242 -6.23651,9.12719 -4.23588,4.88146 -8.55822,9.73429 -13.58,13.78808 -1.43294,1.15675 -2.9622,2.29415 -3.85465,3.91134 -0.89246,1.61719 -0.93822,3.88715 0.4332,5.11732 -0.98129,0.0496 -2.7411,0.53613 -3.72239,0.58568 a 86.543114,87.250261 0 0 1 -0.22441,-11.93543 c -3.87246,-1.8746 -8.04199,3.14567 -7.54228,7.44712 0.49971,4.30144 3.58565,7.75326 5.78273,11.47476 1.60669,2.72143 2.80075,5.8947 2.26435,9.01521 -0.5364,3.12051 -3.29933,5.99922 -6.42881,5.724 -4.97779,-0.43776 -7.05994,-7.64227 -11.98923,-8.46679 a 2.0141735,2.0306314 0 0 0 -1.29729,0.12985 c -0.73172,0.40486 -0.85891,1.39194 -0.89999,2.23241 -0.20167,4.12506 -0.37628,8.41409 1.22095,12.21731 2.33664,5.56388 8.37306,10.23688 7.1068,16.14252 -6.82137,-3.19674 -10.36799,-10.90897 -11.97827,-18.31695 -1.61029,-7.40798 -1.87866,-15.18495 -4.76521,-22.18813 -2.19186,2.83231 -6.7989,0.49092 -8.80154,-2.48038 -1.89861,-2.81696 -3.06757,-6.07556 -4.90961,-8.93045 -1.84203,-2.85488 -4.66388,-5.41124 -8.03845,-5.56822 -3.53807,-0.16461 -6.60655,2.28319 -9.30503,4.59602 -2.21895,1.90184 -4.49715,3.87852 -5.7942,6.50751 -1.88748,3.82564 -1.39374,8.33565 -1.4847,12.60744 -0.0983,4.61819 -1.06915,9.49076 -4.1912,12.87162 -3.12206,3.38087 -8.88469,4.55846 -12.32832,1.51144 -1.79781,-1.59076 -2.66828,-3.96745 -3.44363,-6.2488 a 303.4285,305.90782 0 0 1 -9.32277,-33.55404 c -0.57863,2.59149 -2.83577,5.93165 -4.99204,4.40512 a 4.4702978,4.5068248 0 0 1 -1.15007,-1.49391 c -4.02214,-6.87273 -11.47073,-10.99507 -18.99659,-13.4668 -7.52586,-2.47173 -15.44402,-3.62469 -22.88642,-6.34117 a 57.970176,58.443852 0 0 1 -11.87233,-5.96217 9.3373325,9.4136282 0 0 0 -0.57062,9.62932 c 1.65089,2.94704 5.38671,4.65216 8.58461,3.62206 1.65255,-0.53232 3.04812,-1.68891 4.68785,-2.26015 1.63973,-0.57124 3.84057,-0.29073 4.55758,1.30197 0.68632,1.52447 -0.35105,3.36866 0.16355,4.96039 0.78376,2.42429 4.41048,2.61107 5.67866,4.81716 0.94358,1.6414 0.1672,3.82104 -1.18006,5.14553 -1.34725,1.32448 -3.14478,2.05092 -4.78937,2.97291 -5.33618,2.99155 -9.13085,8.09837 -13.79436,12.07157 -4.66351,3.9732 -11.24318,6.87404 -16.801,4.32545 1.32482,-6.76321 -6.66621,-11.72857 -8.13629,-18.4612 -0.48387,-2.21598 -0.23304,-4.56996 -0.92384,-6.72948 -1.00017,-3.12664 -3.75163,-5.27639 -6.00882,-7.64582 a 29.763952,30.007154 0 0 1 -8.16381,-21.83175 c 0.12198,-2.78249 0.62904,-5.61032 2.7e-4,-8.32244 -0.62876,-2.71212 -2.85603,-5.33716 -5.61598,-5.21424 -6.30369,0.2807 -14.24499,0.75342 -17.55226,-4.66411 -1.18038,-1.93354 -1.69405,-4.76544 0.0125,-6.24681 1.2039,-1.04501 2.981,-0.94657 4.56201,-0.78977 l 14.20313,1.40861 c 3.3219,0.32945 6.91281,0.60134 9.7634,-1.1495 2.8506,-1.75083 4.08579,-6.39833 1.44624,-8.45819 -1.92861,-1.50508 -5.384,-1.42347 -5.94462,-3.81648 -0.46691,-1.99299 1.72118,-4.2543 0.53941,-5.91987 -0.84737,-1.19425 -2.75242,-0.86293 -3.90682,0.0324 -1.15439,0.89527 -1.99196,2.20453 -3.28392,2.88238 -2.26637,1.18913 -4.97435,0.0574 -7.41269,-0.71172 -2.43834,-0.76914 -5.7072,-0.83446 -6.88989,1.44873 -1.32268,2.55346 1.17322,5.89939 -0.13946,8.45807 -1.73551,3.38289 -7.61285,1.4571 -10.05023,4.36692 -2.79686,3.339 1.90319,8.31793 0.95997,12.58354 a 7.7697451,7.833232 0 0 1 -7.65477,-0.43358 7.4351956,7.4959489 0 0 1 -3.21312,-6.97943 c 0.23347,-1.91888 1.22578,-3.87765 0.5609,-5.69099 -0.53756,-1.46612 -1.99767,-2.33894 -3.35468,-3.09497 l -13.80225,-7.68931 c -1.28144,2.39657 0.33859,5.36767 2.36468,7.16772 2.02609,1.80006 4.56386,3.15579 5.89483,5.52476 a 7.1930551,7.2518298 0 0 1 -2.70667,9.56068 1.6604706,1.6740384 0 0 1 -1.36813,0.2406 1.9086845,1.9242805 0 0 1 -0.88729,-1.20292 c -2.43528,-6.28295 -6.09159,-12.47767 -11.93713,-15.75979 -5.84555,-3.28211 -14.245,-2.60729 -18.07826,2.92159 -0.91048,1.31322 -1.52155,2.81011 -2.31471,4.19852 -4.2139,7.37642 -13.24779,10.86943 -21.68808,10.64127 a 4.3067826,4.3419735 0 0 1 -2.36598,-0.56052 c -1.36407,-0.9498 -1.30264,-2.96524 -1.09382,-4.62327 l 0.88596,-7.0363 c 0.17792,-1.41294 0.43571,-2.9747 1.54496,-3.85671 1.56361,-1.24329 3.8192,-0.45868 5.81044,-0.48759 a 7.3636228,7.4237912 0 0 0 6.6838,-5.20043 8.2987811,8.3665907 0 0 0 -2.31038,-8.32026 c -0.91266,-0.86421 -2.13764,-1.94979 -1.65559,-3.11481 a 2.5541095,2.5749792 0 0 1 1.79112,-1.21598 c 3.57679,-1.04717 7.35615,-1.32165 10.87331,-2.55723 3.51716,-1.23559 6.92804,-3.76356 7.76097,-7.42344 0.25526,-1.12158 0.37147,-2.48024 1.37076,-3.03631 a 4.1104221,4.1440085 0 0 1 1.58413,-0.3263 7.7084298,7.7714156 0 0 0 6.61209,-8.10165 c 1.68559,-1.18743 4.04715,-0.31396 5.67784,0.949 1.63068,1.26297 3.07035,2.93156 5.05453,3.47599 3.6977,1.01461 7.2711,-2.28607 11.10327,-2.30137 1.61154,-0.006 3.2798,0.56803 4.79591,0.0172 1.53696,-0.55841 2.4548,-2.10088 3.63441,-3.24042 1.17961,-1.13955 3.24939,-1.8346 4.33863,-0.60702 l -0.92754,-6.92657 a 13.506706,13.61707 0 0 0 10.9922,-2.00356 l -11.9877,-4.08354 a 2.60633,2.6276265 0 0 1 -1.12099,-0.60427 c -0.87153,-0.94614 -0.006,-2.42052 0.70283,-3.49604 1.69539,-2.57292 1.97999,-6.81114 -0.80803,-8.09208 -1.90302,-0.87433 -4.08737,0.17518 -5.91393,1.20196 l -8.74952,4.91843 c -0.27804,1.67671 1.75576,2.62698 3.01605,3.75639 a 5.0568858,5.0982058 0 0 1 -3.29769,8.90826 6.3011067,6.3525933 0 0 1 1.12532,5.3858 l -5.88689,0.42685 a 2.550415,2.5712545 0 0 1 -1.90936,-0.37571 c -0.62962,-0.56376 -0.54423,-1.55167 -0.69016,-2.38779 -0.35222,-2.01807 -2.31226,-3.43249 -4.31262,-3.79516 -2.00037,-0.36267 -4.04679,0.10219 -6.0276,0.56121 a 3.5973804,3.6267748 0 0 1 -2.59098,-0.0603 2.5872378,2.6083783 0 0 1 -1.02504,-1.30436 c -0.86841,-2.12282 -0.0567,-4.61801 1.33804,-6.43339 1.39474,-1.81539 3.30405,-3.14249 5.01882,-4.6538 a 29.252195,29.491216 0 0 0 8.69816,-13.60146 c 3.24075,-1.36891 6.59584,-3.22885 9.83655,-4.59779 a 30.099626,30.345571 0 0 1 16.17885,-3.1603 l 10.97501,0.21135 c 3.24935,0.0626 6.58659,0.14275 9.59119,1.39164 3.00459,1.24889 5.64466,3.95006 5.85209,7.21988 a 2.1983184,2.216281 0 0 1 -0.70372,2.02618 2.592684,2.6138689 0 0 1 -1.38755,0.31531 c -3.0304,0.10737 -4.32246,0.86862 -7.35279,0.97595 z"
     fill="#3f3d56"
     id="path129"
     style="stroke-width:0.76803" />
  <path
     d="m 391.12896,228.81301 a 3.2114671,3.2377081 0 0 0 0.87572,-3.25631 6.0072199,6.0563051 0 0 0 -6.22019,1.18415 10.486743,10.57243 0 0 0 -1.66642,2.22102 c -1.44216,2.37209 -2.71774,5.2055 -1.88196,7.85708 a 2.2139532,2.2320435 0 0 0 1.01324,1.39716 2.6637673,2.685533 0 0 0 1.18102,0.18651 39.592908,39.916423 0 0 0 4.75287,-0.29492 c 0.96844,-0.11938 2.09328,-0.3951 2.46755,-1.30348 0.49198,-1.19406 -0.69881,-2.5454 -0.35167,-3.79013 a 4.1071101,4.1406694 0 0 1 1.01413,-1.46419 1.9200358,1.9357245 0 0 0 0.59809,-1.62507 c -0.14009,-0.58404 -1.02713,-0.91537 -1.34644,-0.40795"
     fill="#3f3d56"
     id="path131"
     style="stroke-width:0.76803" />
  <path
     d="m 399.3672,218.04501 a 13.297809,13.406466 0 0 0 -4.30697,-0.27267 1.8782334,1.8935805 0 0 0 -0.91773,0.21026 1.5311929,1.5437043 0 0 0 -0.56555,0.82568 4.0688109,4.1020573 0 0 0 2.36886,5.02692 5.0906873,5.1322834 0 0 1 1.46896,0.59514 c 1.21813,0.95284 0.44158,2.90044 0.67218,4.43734 0.25894,1.7258 1.91592,3.17442 1.61213,4.89277 -0.23934,1.35376 -1.67352,2.42572 -1.44263,3.781 0.24184,1.41946 2.02846,1.84599 3.45258,1.95966 a 4.3420757,4.3775549 0 0 0 2.44612,-0.28264 3.7875987,3.8185473 0 0 0 1.54327,-2.25325 14.325774,14.44283 0 0 0 0.72172,-5.43823 5.1149656,5.1567601 0 0 0 -0.60826,-2.4003 13.292914,13.40153 0 0 0 -1.42141,-1.64093 c -2.72847,-3.19971 0.14444,-7.97248 -5.02327,-9.44075 z"
     fill="#3f3d56"
     id="path133"
     style="stroke-width:0.76803" />
  <path
     d="m 758.1581,468.70002 c 0,0 -208.97499,-120.93559 -298.94156,-98.02148 0,0 -190.666,20.68635 -212.76306,66.19632 0,0 -60.60906,-190.95093 -82.70609,-197.31596"
     fill="none"
     stroke="#00b0ff"
     stroke-miterlimit="10"
     stroke-width="0.874592"
     opacity="0.8"
     id="path135" />
  <path
     d="M 246.45348,436.87486 C 281.4931,342.67241 597.16528,238.2859 597.16528,238.2859 552.33984,249.74295 459.21654,370.67854 459.21654,370.67854 c 0,0 -196.97946,-144.48621 -295.46917,-131.11964 0,0 433.73359,14.32132 594.41071,229.14112"
     fill="none"
     stroke="#00b0ff"
     stroke-miterlimit="10"
     stroke-width="0.874592"
     opacity="0.8"
     id="path137" />
  <ellipse
     cx="163.74736"
     cy="239.55888"
     fill="#00b0ff"
     id="circle139"
     rx="9.1544962"
     ry="9.2292976"
     style="stroke-width:0.76803" />
  <ellipse
     cx="246.45348"
     cy="436.87488"
     fill="#00b0ff"
     id="circle141"
     rx="9.1544962"
     ry="9.2292976"
     style="stroke-width:0.76803" />
  <ellipse
     cx="597.16522"
     cy="238.2859"
     fill="#00b0ff"
     id="circle143"
     rx="9.1544962"
     ry="9.2292976"
     style="stroke-width:0.76803" />
  <ellipse
     cx="758.15802"
     cy="468.70001"
     fill="#00b0ff"
     id="circle145"
     rx="9.1544962"
     ry="9.2292976"
     style="stroke-width:0.76803" />
  <ellipse
     cx="459.21649"
     cy="370.67856"
     fill="#00b0ff"
     id="circle147"
     rx="9.1544962"
     ry="9.2292976"
     style="stroke-width:0.76803" />
</svg>
