<!-- Animated using SVGANIMA - https://svganima.com -->
<svg width="466.53384" height="582.92749" viewBox="0 0 597.16332 746.14719" class="icon" version="1.1" id="svg214" sodipodi:docname="code-svgrepo-com.svg" inkscape:version="1.2.2 (732a01da63, 2022-12-09)" xmlns:inkscape="http://www.inkscape.org/namespaces/inkscape" xmlns:sodipodi="http://sodipodi.sourceforge.net/DTD/sodipodi-0.dtd" xmlns="http://www.w3.org/2000/svg" xmlns:svg="http://www.w3.org/2000/svg" preserveAspectRatio="xMidYMid">
  <defs id="defs218"></defs>
  <sodipodi:namedview id="namedview216" pagecolor="#ffffff" bordercolor="#000000" borderopacity="0.25" inkscape:showpageshadow="2" inkscape:pageopacity="0.0" inkscape:pagecheckerboard="0" inkscape:deskcolor="#d1d1d1" showgrid="false" inkscape:zoom="0.6175" inkscape:cx="269.63563" inkscape:cy="400" inkscape:window-width="1366" inkscape:window-height="697" inkscape:window-x="-8" inkscape:window-y="-8" inkscape:window-maximized="1" inkscape:current-layer="svg214"></sodipodi:namedview>
  <path d=" m 597.16331,271.29822 c 0,-4.88273 -2.97209,-10.56467 -6.63101,-12.67511 L 143.96894,0.8002081 c -3.67141,-2.122924 -6.6435,0.124878 -6.6435,5.007604 V 430.59246 c 0,4.88273 2.97209,10.56467 6.6435,12.6876 l 446.56336,257.8229 c 3.65892,2.11044 6.63101,-0.13736 6.63101,-5.02009 z " fill="#8095D1" id="path198" style="opacity:0.519038;fill:#f58e87;fill-opacity:1"></path>
  <path d=" m 520.52575,315.55494 c 0,-4.88272 -2.9721,-10.57715 -6.63102,-12.68759 L 67.31889,45.044447 c -3.65892,-2.110436 -6.63102,0.137366 -6.63102,5.020091 V 474.84919 c 0,4.88273 2.97209,10.56467 6.63102,12.67511 l 446.57584,257.8229 c 3.65892,2.12293 6.63102,-0.12488 6.63102,-5.02009 z " fill="#4463B9" id="path200" style="fill:#ffffff"></path>
  <path d=" m 187.9884,372.79897 -7.13053,3.18439 40.36054,82.4319 7.13052,-3.18439 z " fill="#F2F2F2" id="path202" style="fill:#ff0000"></path>
  <path d=" m 229.18562,354.40446 -48.32775,21.5789 5.85677,11.95081 48.31526,-21.59138 z " fill="#F2F2F2" id="path204" style="fill:#ff0000"></path>
  <path d=" m 336.93026,478.70792 7.13053,-3.18439 -40.36053,-82.41941 -7.13053,3.18439 z " fill="#F2F2F2" id="path206" style="fill:#ff0000"></path>
  <path d=" m 295.73305,497.11492 48.32774,-21.59139 -5.85677,-11.95081 -48.31526,21.59138 z " fill="#F2F2F2" id="path208" style="fill:#ff0000"></path>
  <path d=" m 520.52575,315.89212 c 0,-5.07005 -3.08449,-10.97677 -6.89326,-13.17462 L 66.85684,44.769716 c -3.40917,-1.960583 -6.16897,0.124878 -6.16897,4.670433 V 89.588393 L 520.52575,355.0788 Z " fill="#385593" id="path210" style="fill:#f65544;fill-opacity:1"></path>
  <path d=" m 219.57002,240.82801 c 0,-4.00858 -2.43512,-8.65404 -5.43219,-10.38984 L 90.32139,158.95806 c -2.99707,-1.7358 -5.43218,0.11239 -5.43218,4.10849 0,3.99609 2.43512,8.65403 5.43218,10.38984 l 123.81644,71.46762 c 2.99707,1.7358 5.43219,-0.0999 5.43219,-4.096 z m 52.62354,30.37031 c 0,-3.9961 -2.43511,-8.64155 -5.43218,-10.37736 l -33.30494,-19.23119 c -2.99707,-1.72332 -5.43219,0.11239 -5.43219,4.10848 0,4.00858 2.43512,8.65404 5.43219,10.38984 l 33.30494,19.21871 c 2.99707,1.7358 5.43218,-0.0999 5.43218,-4.10848 z m 15.68467,117.41019 -5.29482,-8.6915 -45.58044,83.4559 5.30731,8.6915 z " fill="#F2F2F2" id="path212" style="fill:#ff0000"></path>
  <path fill-rule="evenodd" clip-rule="evenodd" d=" m 35.98993,225.10778 c -9.88696,0 -17.20273,8.42184 -16.87524,17.55495 0.3142,8.77463 -0.094,20.13871 -3.03384,29.40663 C 13.13227,281.36398 8.1454,287.25196 0,288.00788 v 8.53433 c 8.1454,0.75591 13.13227,6.64389 16.08085,15.93939 2.93984,9.26704 3.34804,20.63156 3.03384,29.40619 -0.32749,9.1318 6.98828,17.55451 16.87668,17.55451 h 101.30717 c 9.8876,0 17.202,-8.42096 16.8742,-17.55451 -0.3141,-8.77463 0.094,-20.13915 3.0338,-29.40619 2.95,-9.2955 7.9237,-15.18348 16.0691,-15.93939 v -8.53433 c -8.1454,-0.75592 -13.1191,-6.6439 -16.0691,-15.93852 -2.94,-9.26617 -3.3479,-20.632 -3.0338,-29.40663 0.3278,-9.1318 -6.9866,-17.55495 -16.8742,-17.55495 H 35.98849 Z m 81.4852,82.69127 c 0,12.57652 -9.63919,20.20393 -25.6347,20.20393 H 64.61124 c -0.77887,0 -1.52591,-0.30201 -2.07663,-0.83776 -0.5508,-0.53619 -0.86025,-1.26278 -0.86025,-2.02088 v -65.73816 c 0,-0.7581 0.30945,-1.48513 0.86025,-2.02087 0.55072,-0.53619 1.29776,-0.83733 2.07663,-0.83733 H 91.6852 c 13.33718,0 22.09048,7.03126 22.09048,17.82633 0,7.57707 -5.88775,14.36103 -13.39059,15.54852 v 0.39393 c 10.21315,1.09032 17.09004,7.97276 17.09004,17.4801 z M 88.87164,265.60843 H 73.34542 v 21.34196 h 13.07653 c 10.10847,0 15.68289,-3.96121 15.68289,-11.04237 0,-6.63558 -4.79323,-10.29959 -13.2332,-10.29959 z M 73.34542,295.4195 v 23.51997 h 16.09731 c 10.52432,0 16.09947,-4.11047 16.09947,-11.83462 0,-7.72545 -5.73109,-11.68666 -16.77669,-11.68666 H 73.34542 Z " fill="#000000" id="path1413" style="fill:#8800aa;stroke-width:7.12244"></path>
  <g id="g2167" transform="translate(-31.51603,-82.915233)">
    <rect x="380.9425" y="681.50934" width="96.285019" height="87.993523" fill="#ffca28" id="rect1990" style="stroke-width:3.28735"></rect>
    <path d=" m 439.40126,752.60141 7.08899,-4.89313 c 0.5557,1.82067 4.07389,6.14457 8.51778,6.14457 4.4439,0 6.50715,-2.53157 6.50715,-4.2102 0,-4.5739 -4.53777,-6.18653 -6.71725,-6.96093 -0.35557,-0.12625 -0.64786,-0.23027 -0.848,-0.32102 -0.10282,-0.0466 -0.25791,-0.10868 -0.45701,-0.18795 -2.42398,-0.96592 -11.36713,-4.52978 -11.36713,-14.86052 0,-11.37845 10.52773,-12.68692 12.90872,-12.68692 1.55741,0 9.04632,0.19907 12.77599,7.50971 l -6.8775,5.00683 c -1.50755,-3.18616 -4.01268,-4.23853 -5.55461,-4.23853 -3.80911,0 -4.60277,2.91249 -4.60277,4.23853 0,3.72025 4.13854,5.38776 7.63265,6.79558 0.91436,0.36837 1.78437,0.7188 2.52473,1.08394 3.8091,1.87733 9.41702,4.9498 9.41702,14.62128 0,4.84435 -3.89542,12.68728 -13.70205,12.68728 -13.17316,0 -16.66487,-8.24931 -17.24671,-9.72852 z " fill="#3e3e3e" id="path1992" style="fill:#1a1a1a;stroke-width:3.512"></path>
    <path d=" m 405.01376,753.57272 7.38884,-4.89026 c 0.57874,1.81959 2.82872,5.1747 6.09278,5.1747 3.2644,0 4.93529,-3.49715 4.93529,-5.1747 v -32.9811 h 9.0869 v 32.9811 c 0.14718,4.54916 -2.27164,13.64747 -12.94689,13.64747 -9.81489,0 -13.89524,-6.08431 -14.55692,-8.75721 z " fill="#3e3e3e" id="path1994" style="fill:#1a1a1a;stroke-width:3.512"></path>
  </g>
  <g id="g2357" transform="matrix(0.89203778,0,0,0.90746095,-269.85463,132.8747)">
    <path d=" m 800.38866,431.08015 -12.8,-159.99999 h 153.6 l -12.8,159.99999 -64,19.2 z " fill="#1172b8" id="path2193" style="stroke-width:6.4"></path>
    <path d=" m 928.38866,283.88016 h -64 v 156.79999 l 51.2,-16 z " fill="#33aadd" id="path2195" style="stroke-width:6.4"></path>
    <path d=" m 886.78866,363.88016 h -64 l -3.2,-22.4 51.2,-16 h -51.2 l -3.2,-19.2 h 99.2 l -3.2,22.4 -41.6,16 h 38.4 l -6.4,60.79999 -38.4,12.8 -38.4,-12.8 -3.2,-31.99999 h 19.2 l 3.2,15.99999 19.2,6.4 19.2,-6.4 z " fill="#ffffff" id="path2197" style="stroke-width:6.4"></path>
  </g>
  <g id="g2570" transform="translate(-761.16785,132.6637)">
    <path d=" M 932.60653,295.19509 919.4216,442.90071 860.15441,459.33123 801.05061,442.9234 787.8793,295.19509 Z " fill="#e44d26" id="path2387" style="stroke-width:0.567313"></path>
    <path d=" m 860.24291,446.77205 47.89087,-13.27682 11.26683,-126.22148 h -59.1577 z " fill="#f16529" id="path2389" style="stroke-width:0.567313"></path>
    <path d=" m 834.61171,343.51087 h 25.6312 V 325.3926 h -45.43213 l 0.43343,4.86073 4.45341,49.92922 h 40.54529 V 362.06428 H 836.2677 Z m 4.08352,45.7311 h -18.18806 l 2.53816,28.44848 37.11419,10.30241 0.0834,-0.0227 v -18.85067 l -0.0794,0.0199 -20.17819,-5.44847 z " fill="#ebebeb" id="path2391" style="stroke-width:0.567313"></path>
    <path d=" m 860.18051,380.18255 h 22.31072 l -2.1036,23.49811 -20.20769,5.45415 v 18.84954 l 37.14369,-10.2939 0.27231,-3.06122 4.25825,-47.69968 0.44194,-4.86527 h -42.11562 z m 0,-36.71593 v 0.0443 h 43.76423 l 0.36308,-4.07217 0.826,-9.18537 0.43286,-4.86073 h -45.38617 v 18.07459 z " fill="#ffffff" id="path2395" style="stroke-width:0.567313"></path>
  </g>
<animate attributeType="auto" attributeName="viewBox" svganima:lock="skip" id="camera7117" keyTimes="0;1" keySplines="0 0 1 1" values="0 0 597.16332 746.14719;0 0 597.16332 746.14719" dur="10s" repeatCount="indefinite" calcMode="spline" fill="freeze" additive="replace" accumulate="none" begin="0s"></animate></svg>