<?xml version="1.0" encoding="UTF-8" standalone="no"?>
<!-- Uploaded to: SVG Repo, www.svgrepo.com, Generator: SVG Repo Mixer Tools -->

<svg
   width="800px"
   height="800px"
   viewBox="0 0 1024 1024"
   class="icon"
   version="1.1"
   id="svg214"
   sodipodi:docname="code-svgrepo-com.svg"
   inkscape:version="1.2.2 (732a01da63, 2022-12-09)"
   xmlns:inkscape="http://www.inkscape.org/namespaces/inkscape"
   xmlns:sodipodi="http://sodipodi.sourceforge.net/DTD/sodipodi-0.dtd"
   xmlns="http://www.w3.org/2000/svg"
   xmlns:svg="http://www.w3.org/2000/svg">
  <defs
     id="defs218" />
  <sodipodi:namedview
     id="namedview216"
     pagecolor="#ffffff"
     bordercolor="#000000"
     borderopacity="0.25"
     inkscape:showpageshadow="2"
     inkscape:pageopacity="0.0"
     inkscape:pagecheckerboard="0"
     inkscape:deskcolor="#d1d1d1"
     showgrid="false"
     inkscape:zoom="0.6175"
     inkscape:cx="391.09312"
     inkscape:cy="400"
     inkscape:window-width="1366"
     inkscape:window-height="697"
     inkscape:window-x="-8"
     inkscape:window-y="-8"
     inkscape:window-maximized="1"
     inkscape:current-layer="svg214" />
  <path
     d="M753.051804 271.298479c0-4.882726-2.972094-10.56467-6.631017-12.675107L299.857429 0.800467c-3.67141-2.122924-6.643504 0.124878-6.643504 5.007604v424.784653c0 4.882726 2.972094 10.56467 6.643504 12.687594l446.563358 257.822905c3.658922 2.110436 6.631016-0.137366 6.631017-5.020091V271.298479z"
     fill="#8095D1"
     id="path198"
     style="fill:#f58e87;fill-opacity:1" />
  <path
     d="M676.414239 315.555205c0-4.882726-2.972094-10.577158-6.631017-12.687594L223.207377 45.044706c-3.658922-2.110436-6.631016 0.137366-6.631017 5.020091v424.784653c0 4.882726 2.972094 10.56467 6.631017 12.675107l446.575845 257.822905c3.658922 2.122924 6.631016-0.124878 6.631017-5.020092V315.555205z"
     fill="#4463B9"
     id="path200"
     style="fill:#ffffff" />
  <path
     d="M343.876888 372.799233l-7.130528 3.184387 40.360536 82.431899 7.130528-3.184386-40.360536-82.4319z"
     fill="#F2F2F2"
     id="path202"
     style="fill:#ff0000" />
  <path
     d="M385.074106 354.404719l-48.327746 21.578901 5.856773 11.950814 48.315259-21.591388-5.844286-11.938327z"
     fill="#F2F2F2"
     id="path204"
     style="fill:#ff0000" />
  <path
     d="M492.818755 478.708177l7.130528-3.184386-40.360536-82.419412-7.130528 3.184387 40.360536 82.419411z"
     fill="#F2F2F2"
     id="path206"
     style="fill:#ff0000" />
  <path
     d="M451.621537 497.115179l48.327746-21.591388-5.856773-11.950815-48.315259 21.591388 5.844286 11.950815z"
     fill="#F2F2F2"
     id="path208"
     style="fill:#ff0000" />
  <path
     d="M676.414239 315.892376c0-5.070043-3.084484-10.976767-6.89326-13.174618L222.745328 44.769975c-3.409167-1.960583-6.168968 0.124878-6.168968 4.670433v40.148244l459.837879 265.490408v-39.186684z"
     fill="#385593"
     id="path210"
     style="fill:#961e33;fill-opacity:1" />
  <path
     d="M375.458508 240.828272c0-4.00858-2.435119-8.654038-5.432189-10.389841l-123.816434-71.480108c-2.99707-1.735803-5.432188 0.11239-5.432188 4.108483s2.435119 8.654038 5.432188 10.389841l123.816434 71.46762c2.99707 1.735803 5.432188-0.099902 5.432189-4.095995zM428.082054 271.198577c0-3.996093-2.435119-8.64155-5.432189-10.377354l-33.304935-19.231196c-2.99707-1.723315-5.432188 0.11239-5.432188 4.108483 0 4.00858 2.435119 8.654038 5.432188 10.389841l33.304935 19.218708c2.99707 1.735803 5.432188-0.099902 5.432189-4.108482zM443.766717 388.608775l-5.294822-8.691502-45.580433 83.455898 5.307311 8.691502 45.567944-83.455898z"
     fill="#F2F2F2"
     id="path212"
     style="fill:#ff0000" />
  <path
     fill-rule="evenodd"
     clip-rule="evenodd"
     d="m 797.15778,432.39549 c -9.88696,0 -17.20273,8.42184 -16.87524,17.55495 0.3142,8.77463 -0.094,20.13871 -3.03384,29.40663 -2.94858,9.29462 -7.93545,15.1826 -16.08085,15.93852 v 8.53433 c 8.1454,0.75591 13.13227,6.64389 16.08085,15.93939 2.93984,9.26704 3.34804,20.63156 3.03384,29.40619 -0.32749,9.1318 6.98828,17.55451 16.87668,17.55451 h 101.30717 c 9.8876,0 17.202,-8.42096 16.8742,-17.55451 -0.3141,-8.77463 0.094,-20.13915 3.0338,-29.40619 2.95,-9.2955 7.9237,-15.18348 16.0691,-15.93939 v -8.53433 c -8.1454,-0.75592 -13.1191,-6.6439 -16.0691,-15.93852 -2.94,-9.26617 -3.3479,-20.632 -3.0338,-29.40663 0.3278,-9.1318 -6.9866,-17.55495 -16.8742,-17.55495 H 797.15634 Z m 81.4852,82.69127 c 0,12.57652 -9.63919,20.20393 -25.6347,20.20393 h -27.22919 c -0.77887,0 -1.52591,-0.30201 -2.07663,-0.83776 -0.5508,-0.53619 -0.86025,-1.26278 -0.86025,-2.02088 v -65.73816 c 0,-0.7581 0.30945,-1.48513 0.86025,-2.02087 0.55072,-0.53619 1.29776,-0.83733 2.07663,-0.83733 h 27.07396 c 13.33718,0 22.09048,7.03126 22.09048,17.82633 0,7.57707 -5.88775,14.36103 -13.39059,15.54852 v 0.39393 c 10.21315,1.09032 17.09004,7.97276 17.09004,17.4801 z m -28.60349,-42.19062 h -15.52622 v 21.34196 h 13.07653 c 10.10847,0 15.68289,-3.96121 15.68289,-11.04237 0,-6.63558 -4.79323,-10.29959 -13.2332,-10.29959 z m -15.52622,29.81107 v 23.51997 h 16.09731 c 10.52432,0 16.09947,-4.11047 16.09947,-11.83462 0,-7.72545 -5.73109,-11.68666 -16.77669,-11.68666 h -15.42009 z"
     fill="#000000"
     id="path1413"
     style="fill:#8800aa;stroke-width:7.12244" />
  <g
     id="g2167"
     transform="translate(315.07692,-572.11336)">
    <rect
       x="380.9425"
       y="681.50934"
       width="96.285019"
       height="87.993523"
       fill="#ffca28"
       id="rect1990"
       style="stroke-width:3.28735" />
    <path
       d="m 439.40126,752.60141 7.08899,-4.89313 c 0.5557,1.82067 4.07389,6.14457 8.51778,6.14457 4.4439,0 6.50715,-2.53157 6.50715,-4.2102 0,-4.5739 -4.53777,-6.18653 -6.71725,-6.96093 -0.35557,-0.12625 -0.64786,-0.23027 -0.848,-0.32102 -0.10282,-0.0466 -0.25791,-0.10868 -0.45701,-0.18795 -2.42398,-0.96592 -11.36713,-4.52978 -11.36713,-14.86052 0,-11.37845 10.52773,-12.68692 12.90872,-12.68692 1.55741,0 9.04632,0.19907 12.77599,7.50971 l -6.8775,5.00683 c -1.50755,-3.18616 -4.01268,-4.23853 -5.55461,-4.23853 -3.80911,0 -4.60277,2.91249 -4.60277,4.23853 0,3.72025 4.13854,5.38776 7.63265,6.79558 0.91436,0.36837 1.78437,0.7188 2.52473,1.08394 3.8091,1.87733 9.41702,4.9498 9.41702,14.62128 0,4.84435 -3.89542,12.68728 -13.70205,12.68728 -13.17316,0 -16.66487,-8.24931 -17.24671,-9.72852 z"
       fill="#3e3e3e"
       id="path1992"
       style="fill:#1a1a1a;stroke-width:3.512" />
    <path
       d="m 405.01376,753.57272 7.38884,-4.89026 c 0.57874,1.81959 2.82872,5.1747 6.09278,5.1747 3.2644,0 4.93529,-3.49715 4.93529,-5.1747 v -32.9811 h 9.0869 v 32.9811 c 0.14718,4.54916 -2.27164,13.64747 -12.94689,13.64747 -9.81489,0 -13.89524,-6.08431 -14.55692,-8.75721 z"
       fill="#3e3e3e"
       id="path1994"
       style="fill:#1a1a1a;stroke-width:3.512" />
  </g>
  <g
     id="g2357"
     transform="matrix(0.89203778,0,0,0.90746095,76.738311,356.7454)">
    <path
       d="m 800.38866,431.08015 -12.8,-159.99999 h 153.6 l -12.8,159.99999 -64,19.2 z"
       fill="#1172b8"
       id="path2193"
       style="stroke-width:6.4" />
    <path
       d="m 928.38866,283.88016 h -64 v 156.79999 l 51.2,-16 z"
       fill="#33aadd"
       id="path2195"
       style="stroke-width:6.4" />
    <path
       d="m 886.78866,363.88016 h -64 l -3.2,-22.4 51.2,-16 h -51.2 l -3.2,-19.2 h 99.2 l -3.2,22.4 -41.6,16 h 38.4 l -6.4,60.79999 -38.4,12.8 -38.4,-12.8 -3.2,-31.99999 h 19.2 l 3.2,15.99999 19.2,6.4 19.2,-6.4 z"
       fill="#ffffff"
       id="path2197"
       style="stroke-width:6.4" />
  </g>
  <g
     id="g2570"
     transform="translate(-8.291498,-62.186235)">
    <path
       d="M 932.60653,295.19509 919.4216,442.90071 860.15441,459.33123 801.05061,442.9234 787.8793,295.19509 Z"
       fill="#e44d26"
       id="path2387"
       style="stroke-width:0.567313" />
    <path
       d="m 860.24291,446.77205 47.89087,-13.27682 11.26683,-126.22148 h -59.1577 z"
       fill="#f16529"
       id="path2389"
       style="stroke-width:0.567313" />
    <path
       d="m 834.61171,343.51087 h 25.6312 V 325.3926 h -45.43213 l 0.43343,4.86073 4.45341,49.92922 h 40.54529 V 362.06428 H 836.2677 Z m 4.08352,45.7311 h -18.18806 l 2.53816,28.44848 37.11419,10.30241 0.0834,-0.0227 v -18.85067 l -0.0794,0.0199 -20.17819,-5.44847 z"
       fill="#ebebeb"
       id="path2391"
       style="stroke-width:0.567313" />
    <path
       d="m 860.18051,380.18255 h 22.31072 l -2.1036,23.49811 -20.20769,5.45415 v 18.84954 l 37.14369,-10.2939 0.27231,-3.06122 4.25825,-47.69968 0.44194,-4.86527 h -42.11562 z m 0,-36.71593 v 0.0443 h 43.76423 l 0.36308,-4.07217 0.826,-9.18537 0.43286,-4.86073 h -45.38617 v 18.07459 z"
       fill="#ffffff"
       id="path2395"
       style="stroke-width:0.567313" />
  </g>
</svg>
