<!--?xml version="1.0" encoding="UTF-8" standalone="no"?-->
<!-- Generator: Adobe Illustrator 19.0.0, SVG Export Plug-In . SVG Version: 6.00 Build 0)  -->

<svg version="1.1" id="Layer_1" x="0px" y="0px" viewBox="0 0 503.44816 378.88801" xml:space="preserve" sodipodi:docname="Contact-us-JWS-Aruba.svg" inkscape:version="1.1.1 (3bf5ae0d25, 2021-09-20)" width="503.44815" height="378.888" xmlns:inkscape="http://www.inkscape.org/namespaces/inkscape" xmlns:sodipodi="http://sodipodi.sourceforge.net/DTD/sodipodi-0.dtd" xmlns="http://www.w3.org/2000/svg" xmlns:svg="http://www.w3.org/2000/svg" style=""><defs id="defs1359"></defs><sodipodi:namedview id="namedview1357" pagecolor="#ffffff" bordercolor="#666666" borderopacity="1.0" inkscape:pageshadow="2" inkscape:pageopacity="0.0" inkscape:pagecheckerboard="0" showgrid="false" inkscape:zoom="1" inkscape:cx="202.5" inkscape:cy="304.5" inkscape:window-width="1920" inkscape:window-height="1001" inkscape:window-x="-9" inkscape:window-y="-9" inkscape:window-maximized="1" inkscape:current-layer="Layer_1"></sodipodi:namedview>
<path style="fill: rgb(0, 102, 255); stroke: rgb(1, 72, 255); stroke-width: 1.88741; stroke-miterlimit: 4; stroke-opacity: 1;" id="circle1320" d="M92.18047999999999,193.55191A160.74071,160.74071 0,1,1 413.6619,193.55191A160.74071,160.74071 0,1,1 92.18047999999999,193.55191" class="rqNrdZLz_0"></path>
<path style="fill: rgb(255, 255, 255); stroke: rgb(9, 76, 249); stroke-width: 0.633471; stroke-miterlimit: 4; stroke-opacity: 1;" d="m 284.37318,224.75078 c 19.30154,-10.94809 32.2747,-31.70516 32.2747,-55.43655 0,-35.24904 -28.54096,-63.79 -63.79,-63.79 -35.24904,0 -63.72672,28.54096 -63.72672,63.72671 0,23.79468 13.03644,44.48847 32.2747,55.43656 -39.99532,10.18869 -72.45987,39.10935 -87.45811,76.95302 29.42691,32.33801 71.82703,52.6521 118.97341,52.6521 47.14637,0 89.54649,-20.31409 118.97342,-52.6521 -14.99824,-37.84367 -47.46279,-66.76433 -87.5214,-76.88974 z" id="path1322" class="rqNrdZLz_1"></path>
<path style="fill: rgb(50, 74, 94); stroke: rgb(1, 109, 247); stroke-width: 0.812981; stroke-miterlimit: 4; stroke-opacity: 1;" d="m 346.32795,148.17746 h -9.99882 c -9.42928,-37.27412 -43.2228,-64.992403 -83.40797,-64.992403 -40.18518,0 -73.97869,27.655003 -83.40796,64.992403 h -9.99883 c -3.41732,0 -6.2018,2.78447 -6.2018,6.2018 v 30.31291 c 0,3.41732 2.78448,6.20181 6.2018,6.20181 h 12.65675 c 3.8603,0 6.83464,-3.4806 6.13851,-7.21435 -1.26567,-6.58151 -1.70865,-13.47943 -1.1391,-20.56722 3.03761,-37.52725 33.92009,-67.650309 71.57391,-69.675385 43.79234,-2.404789 80.24377,32.591125 80.24377,75.877205 0,4.93612 -0.50628,9.6824 -1.39224,14.3654 -0.7594,3.79703 2.27822,7.27763 6.07524,7.27763 h 1.13911 c -2.65792,8.2269 -9.42928,23.54157 -24.23767,31.76844 -12.40363,6.89792 -28.0347,7.53077 -46.45026,1.77194 -0.94926,-4.24 -5.63226,-9.23942 -10.44183,-11.58091 -6.20179,-3.10092 -10.0621,-0.50627 -12.27703,3.92359 -2.21494,4.42986 -1.89851,9.04958 4.24,12.15048 5.4424,2.7212 13.66929,3.29075 17.08661,0.31641 8.79644,2.7212 17.02332,4.11346 24.68065,4.11346 9.49255,0 18.03587,-2.08838 25.56664,-6.32839 17.40302,-9.68241 24.55409,-27.65499 27.08544,-36.1983 h 6.26508 c 3.41732,0 6.2018,-2.78449 6.2018,-6.20181 v -30.31291 c 0,-3.41733 -2.78448,-6.2018 -6.2018,-6.2018 z" id="path1324" class="rqNrdZLz_2"></path>
<g id="g1326" transform="translate(-5.9538138,-126.03518)">
</g>
<g id="g1328" transform="translate(-5.9538138,-126.03518)">
</g>
<g id="g1330" transform="translate(-5.9538138,-126.03518)">
</g>
<g id="g1332" transform="translate(-5.9538138,-126.03518)">
</g>
<g id="g1334" transform="translate(-5.9538138,-126.03518)">
</g>
<g id="g1336" transform="translate(-5.9538138,-126.03518)">
</g>
<g id="g1338" transform="translate(-5.9538138,-126.03518)">
</g>
<g id="g1340" transform="translate(-5.9538138,-126.03518)">
</g>
<g id="g1342" transform="translate(-5.9538138,-126.03518)">
</g>
<g id="g1344" transform="translate(-5.9538138,-126.03518)">
</g>
<g id="g1346" transform="translate(-5.9538138,-126.03518)">
</g>
<g id="g1348" transform="translate(-5.9538138,-126.03518)">
</g>
<g id="g1350" transform="translate(-5.9538138,-126.03518)">
</g>
<g id="g1352" transform="translate(-5.9538138,-126.03518)">
</g>
<g id="g1354" transform="translate(-5.9538138,-126.03518)">
</g>
<g id="g18021" transform="matrix(0.11443337,0,0,0.11618958,286.94757,270.70936)" style="fill:#0066ff;stroke:#073efc;stroke-width:7.21357;stroke-miterlimit:4;stroke-dasharray:none;stroke-opacity:1"><g id="g153" transform="translate(-36.627986,-37.760576)" style="fill:#0066ff;stroke:#073efc;stroke-width:7.21357;stroke-miterlimit:4;stroke-dasharray:none;stroke-opacity:1">
</g><g id="g155" transform="translate(-36.627986,-37.760576)" style="fill:#0066ff;stroke:#073efc;stroke-width:7.21357;stroke-miterlimit:4;stroke-dasharray:none;stroke-opacity:1">
</g><g id="g157" transform="translate(-36.627986,-37.760576)" style="fill:#0066ff;stroke:#073efc;stroke-width:7.21357;stroke-miterlimit:4;stroke-dasharray:none;stroke-opacity:1">
</g><g id="g159" transform="translate(-36.627986,-37.760576)" style="fill:#0066ff;stroke:#073efc;stroke-width:7.21357;stroke-miterlimit:4;stroke-dasharray:none;stroke-opacity:1">
</g><g id="g161" transform="translate(-36.627986,-37.760576)" style="fill:#0066ff;stroke:#073efc;stroke-width:7.21357;stroke-miterlimit:4;stroke-dasharray:none;stroke-opacity:1">
</g><g id="g163" transform="translate(-36.627986,-37.760576)" style="fill:#0066ff;stroke:#073efc;stroke-width:7.21357;stroke-miterlimit:4;stroke-dasharray:none;stroke-opacity:1">
</g><g id="g165" transform="translate(-36.627986,-37.760576)" style="fill:#0066ff;stroke:#073efc;stroke-width:7.21357;stroke-miterlimit:4;stroke-dasharray:none;stroke-opacity:1">
</g><g id="g167" transform="translate(-36.627986,-37.760576)" style="fill:#0066ff;stroke:#073efc;stroke-width:7.21357;stroke-miterlimit:4;stroke-dasharray:none;stroke-opacity:1">
</g><g id="g169" transform="translate(-36.627986,-37.760576)" style="fill:#0066ff;stroke:#073efc;stroke-width:7.21357;stroke-miterlimit:4;stroke-dasharray:none;stroke-opacity:1">
</g><g id="g171" transform="translate(-36.627986,-37.760576)" style="fill:#0066ff;stroke:#073efc;stroke-width:7.21357;stroke-miterlimit:4;stroke-dasharray:none;stroke-opacity:1">
</g><g id="g173" transform="translate(-36.627986,-37.760576)" style="fill:#0066ff;stroke:#073efc;stroke-width:7.21357;stroke-miterlimit:4;stroke-dasharray:none;stroke-opacity:1">
</g><g id="g175" transform="translate(-36.627986,-37.760576)" style="fill:#0066ff;stroke:#073efc;stroke-width:7.21357;stroke-miterlimit:4;stroke-dasharray:none;stroke-opacity:1">
</g><g id="g177" transform="translate(-36.627986,-37.760576)" style="fill:#0066ff;stroke:#073efc;stroke-width:7.21357;stroke-miterlimit:4;stroke-dasharray:none;stroke-opacity:1">
</g><g id="g179" transform="translate(-36.627986,-37.760576)" style="fill:#0066ff;stroke:#073efc;stroke-width:7.21357;stroke-miterlimit:4;stroke-dasharray:none;stroke-opacity:1">
</g><g id="g181" transform="translate(-36.627986,-37.760576)" style="fill:#0066ff;stroke:#073efc;stroke-width:7.21357;stroke-miterlimit:4;stroke-dasharray:none;stroke-opacity:1">
</g><g transform="matrix(0.53103161,0,0,0.50471994,62.401925,69.409144)" style="fill:#0066ff;fill-opacity:1;stroke:#073efc;stroke-width:13.9337;stroke-miterlimit:4;stroke-dasharray:none;stroke-opacity:1" id="g263"><g style="fill:#0066ff;fill-opacity:1;stroke:#073efc;stroke-width:13.9337;stroke-miterlimit:4;stroke-dasharray:none;stroke-opacity:1" id="g261"><g style="fill:#0066ff;fill-opacity:1;stroke:#073efc;stroke-width:13.9337;stroke-miterlimit:4;stroke-dasharray:none;stroke-opacity:1" id="g259"><path style="fill: rgb(0, 102, 255); fill-opacity: 1; stroke: rgb(7, 62, 252); stroke-width: 13.9337; stroke-miterlimit: 4; stroke-opacity: 1;" id="polygon249" d="M136.7,367.7L182.1,288.9L136.7,210L45.4,210L0,288.9L45.4,367.7Z" class="rqNrdZLz_3"></path><path style="fill: rgb(0, 102, 255); fill-opacity: 1; stroke: rgb(7, 62, 252); stroke-width: 13.9337; stroke-miterlimit: 4; stroke-opacity: 1;" id="polygon251" d="M335.8,200.3L290,121.5L199.2,121.5L153.7,200.3L199.2,279.2L290,279.2Z" class="rqNrdZLz_4"></path><path style="fill: rgb(0, 102, 255); fill-opacity: 1; stroke: rgb(7, 62, 252); stroke-width: 13.9337; stroke-miterlimit: 4; stroke-opacity: 1;" id="polygon253" d="M290,298.6L199.2,298.6L153.7,377.4L199.2,456.6L290,456.6L335.8,377.4Z" class="rqNrdZLz_5"></path><path style="fill: rgb(0, 102, 255); fill-opacity: 1; stroke: rgb(7, 62, 252); stroke-width: 13.9337; stroke-miterlimit: 4; stroke-opacity: 1;" id="polygon255" d="M45.4,190.6L136.7,190.6L182.1,111.8L136.7,32.6L45.4,32.6L0,111.8Z" class="rqNrdZLz_6"></path><path style="fill: rgb(0, 102, 255); fill-opacity: 1; stroke: rgb(7, 62, 252); stroke-width: 13.9337; stroke-miterlimit: 4; stroke-opacity: 1;" id="polygon257" d="M443.8,32.6L352.5,32.6L307.1,111.4L352.5,190.6L443.8,190.6L489.2,111.8Z" class="rqNrdZLz_7"></path></g></g></g></g><style data-made-with="vivus-instant">.rqNrdZLz_0{stroke-dasharray:1011 1013;stroke-dashoffset:1012;animation:rqNrdZLz_draw_0 7200ms ease-in 0ms infinite,rqNrdZLz_fade 7200ms linear 0ms infinite;}.rqNrdZLz_1{stroke-dasharray:845 847;stroke-dashoffset:846;animation:rqNrdZLz_draw_1 7200ms ease-in 0ms infinite,rqNrdZLz_fade 7200ms linear 0ms infinite;}.rqNrdZLz_2{stroke-dasharray:907 909;stroke-dashoffset:908;animation:rqNrdZLz_draw_2 7200ms ease-in 0ms infinite,rqNrdZLz_fade 7200ms linear 0ms infinite;}.rqNrdZLz_3{stroke-dasharray:547 549;stroke-dashoffset:548;animation:rqNrdZLz_draw_3 7200ms ease-in 0ms infinite,rqNrdZLz_fade 7200ms linear 0ms infinite;}.rqNrdZLz_4{stroke-dasharray:547 549;stroke-dashoffset:548;animation:rqNrdZLz_draw_4 7200ms ease-in 0ms infinite,rqNrdZLz_fade 7200ms linear 0ms infinite;}.rqNrdZLz_5{stroke-dasharray:547 549;stroke-dashoffset:548;animation:rqNrdZLz_draw_5 7200ms ease-in 0ms infinite,rqNrdZLz_fade 7200ms linear 0ms infinite;}.rqNrdZLz_6{stroke-dasharray:548 550;stroke-dashoffset:549;animation:rqNrdZLz_draw_6 7200ms ease-in 0ms infinite,rqNrdZLz_fade 7200ms linear 0ms infinite;}.rqNrdZLz_7{stroke-dasharray:548 550;stroke-dashoffset:549;animation:rqNrdZLz_draw_7 7200ms ease-in 0ms infinite,rqNrdZLz_fade 7200ms linear 0ms infinite;}@keyframes rqNrdZLz_draw{100%{stroke-dashoffset:0;}}@keyframes rqNrdZLz_fade{0%{stroke-opacity:1;}94.44444444444444%{stroke-opacity:1;}100%{stroke-opacity:0;}}@keyframes rqNrdZLz_draw_0{11.11111111111111%{stroke-dashoffset: 1012}38.88888888888889%{ stroke-dashoffset: 0;}100%{ stroke-dashoffset: 0;}}@keyframes rqNrdZLz_draw_1{13.095238095238097%{stroke-dashoffset: 846}40.87301587301588%{ stroke-dashoffset: 0;}100%{ stroke-dashoffset: 0;}}@keyframes rqNrdZLz_draw_2{15.07936507936508%{stroke-dashoffset: 908}42.85714285714286%{ stroke-dashoffset: 0;}100%{ stroke-dashoffset: 0;}}@keyframes rqNrdZLz_draw_3{17.06349206349206%{stroke-dashoffset: 548}44.841269841269835%{ stroke-dashoffset: 0;}100%{ stroke-dashoffset: 0;}}@keyframes rqNrdZLz_draw_4{19.04761904761905%{stroke-dashoffset: 548}46.82539682539682%{ stroke-dashoffset: 0;}100%{ stroke-dashoffset: 0;}}@keyframes rqNrdZLz_draw_5{21.03174603174603%{stroke-dashoffset: 548}48.80952380952381%{ stroke-dashoffset: 0;}100%{ stroke-dashoffset: 0;}}@keyframes rqNrdZLz_draw_6{23.015873015873016%{stroke-dashoffset: 549}50.79365079365079%{ stroke-dashoffset: 0;}100%{ stroke-dashoffset: 0;}}@keyframes rqNrdZLz_draw_7{25%{stroke-dashoffset: 549}52.77777777777778%{ stroke-dashoffset: 0;}100%{ stroke-dashoffset: 0;}}</style></svg>
