<?xml version="1.0" encoding="UTF-8" standalone="no"?>
<!-- Generator: Adobe Illustrator 19.0.0, SVG Export Plug-In . SVG Version: 6.00 Build 0)  -->

<svg
   version="1.1"
   id="Layer_1"
   x="0px"
   y="0px"
   viewBox="0 0 503.44816 378.88801"
   xml:space="preserve"
   sodipodi:docname="Contact-us-JWS-Aruba.svg"
   inkscape:version="1.1.1 (3bf5ae0d25, 2021-09-20)"
   width="503.44815"
   height="378.888"
   xmlns:inkscape="http://www.inkscape.org/namespaces/inkscape"
   xmlns:sodipodi="http://sodipodi.sourceforge.net/DTD/sodipodi-0.dtd"
   xmlns="http://www.w3.org/2000/svg"
   xmlns:svg="http://www.w3.org/2000/svg"><defs
   id="defs1359" /><sodipodi:namedview
   id="namedview1357"
   pagecolor="#ffffff"
   bordercolor="#666666"
   borderopacity="1.0"
   inkscape:pageshadow="2"
   inkscape:pageopacity="0.0"
   inkscape:pagecheckerboard="0"
   showgrid="false"
   inkscape:zoom="1"
   inkscape:cx="202.5"
   inkscape:cy="304.5"
   inkscape:window-width="1920"
   inkscape:window-height="1001"
   inkscape:window-x="-9"
   inkscape:window-y="-9"
   inkscape:window-maximized="1"
   inkscape:current-layer="Layer_1" />
<circle
   style="fill:#0066ff;stroke:#0148ff;stroke-width:1.88741;stroke-miterlimit:4;stroke-dasharray:none;stroke-opacity:1"
   cx="252.92119"
   cy="193.55191"
   id="circle1320"
   r="160.74071" />
<path
   style="fill:#ffffff;stroke:#094cf9;stroke-width:0.633471;stroke-miterlimit:4;stroke-dasharray:none;stroke-opacity:1"
   d="m 284.37318,224.75078 c 19.30154,-10.94809 32.2747,-31.70516 32.2747,-55.43655 0,-35.24904 -28.54096,-63.79 -63.79,-63.79 -35.24904,0 -63.72672,28.54096 -63.72672,63.72671 0,23.79468 13.03644,44.48847 32.2747,55.43656 -39.99532,10.18869 -72.45987,39.10935 -87.45811,76.95302 29.42691,32.33801 71.82703,52.6521 118.97341,52.6521 47.14637,0 89.54649,-20.31409 118.97342,-52.6521 -14.99824,-37.84367 -47.46279,-66.76433 -87.5214,-76.88974 z"
   id="path1322" />
<path
   style="fill:#324a5e;stroke:#016df7;stroke-width:0.812981;stroke-miterlimit:4;stroke-dasharray:none;stroke-opacity:1"
   d="m 346.32795,148.17746 h -9.99882 c -9.42928,-37.27412 -43.2228,-64.992403 -83.40797,-64.992403 -40.18518,0 -73.97869,27.655003 -83.40796,64.992403 h -9.99883 c -3.41732,0 -6.2018,2.78447 -6.2018,6.2018 v 30.31291 c 0,3.41732 2.78448,6.20181 6.2018,6.20181 h 12.65675 c 3.8603,0 6.83464,-3.4806 6.13851,-7.21435 -1.26567,-6.58151 -1.70865,-13.47943 -1.1391,-20.56722 3.03761,-37.52725 33.92009,-67.650309 71.57391,-69.675385 43.79234,-2.404789 80.24377,32.591125 80.24377,75.877205 0,4.93612 -0.50628,9.6824 -1.39224,14.3654 -0.7594,3.79703 2.27822,7.27763 6.07524,7.27763 h 1.13911 c -2.65792,8.2269 -9.42928,23.54157 -24.23767,31.76844 -12.40363,6.89792 -28.0347,7.53077 -46.45026,1.77194 -0.94926,-4.24 -5.63226,-9.23942 -10.44183,-11.58091 -6.20179,-3.10092 -10.0621,-0.50627 -12.27703,3.92359 -2.21494,4.42986 -1.89851,9.04958 4.24,12.15048 5.4424,2.7212 13.66929,3.29075 17.08661,0.31641 8.79644,2.7212 17.02332,4.11346 24.68065,4.11346 9.49255,0 18.03587,-2.08838 25.56664,-6.32839 17.40302,-9.68241 24.55409,-27.65499 27.08544,-36.1983 h 6.26508 c 3.41732,0 6.2018,-2.78449 6.2018,-6.20181 v -30.31291 c 0,-3.41733 -2.78448,-6.2018 -6.2018,-6.2018 z"
   id="path1324" />
<g
   id="g1326"
   transform="translate(-5.9538138,-126.03518)">
</g>
<g
   id="g1328"
   transform="translate(-5.9538138,-126.03518)">
</g>
<g
   id="g1330"
   transform="translate(-5.9538138,-126.03518)">
</g>
<g
   id="g1332"
   transform="translate(-5.9538138,-126.03518)">
</g>
<g
   id="g1334"
   transform="translate(-5.9538138,-126.03518)">
</g>
<g
   id="g1336"
   transform="translate(-5.9538138,-126.03518)">
</g>
<g
   id="g1338"
   transform="translate(-5.9538138,-126.03518)">
</g>
<g
   id="g1340"
   transform="translate(-5.9538138,-126.03518)">
</g>
<g
   id="g1342"
   transform="translate(-5.9538138,-126.03518)">
</g>
<g
   id="g1344"
   transform="translate(-5.9538138,-126.03518)">
</g>
<g
   id="g1346"
   transform="translate(-5.9538138,-126.03518)">
</g>
<g
   id="g1348"
   transform="translate(-5.9538138,-126.03518)">
</g>
<g
   id="g1350"
   transform="translate(-5.9538138,-126.03518)">
</g>
<g
   id="g1352"
   transform="translate(-5.9538138,-126.03518)">
</g>
<g
   id="g1354"
   transform="translate(-5.9538138,-126.03518)">
</g>
<g
   id="g18021"
   transform="matrix(0.11443337,0,0,0.11618958,286.94757,270.70936)"
   style="fill:#0066ff;stroke:#073efc;stroke-width:7.21357;stroke-miterlimit:4;stroke-dasharray:none;stroke-opacity:1"><g
     id="g153"
     transform="translate(-36.627986,-37.760576)"
     style="fill:#0066ff;stroke:#073efc;stroke-width:7.21357;stroke-miterlimit:4;stroke-dasharray:none;stroke-opacity:1">
</g><g
     id="g155"
     transform="translate(-36.627986,-37.760576)"
     style="fill:#0066ff;stroke:#073efc;stroke-width:7.21357;stroke-miterlimit:4;stroke-dasharray:none;stroke-opacity:1">
</g><g
     id="g157"
     transform="translate(-36.627986,-37.760576)"
     style="fill:#0066ff;stroke:#073efc;stroke-width:7.21357;stroke-miterlimit:4;stroke-dasharray:none;stroke-opacity:1">
</g><g
     id="g159"
     transform="translate(-36.627986,-37.760576)"
     style="fill:#0066ff;stroke:#073efc;stroke-width:7.21357;stroke-miterlimit:4;stroke-dasharray:none;stroke-opacity:1">
</g><g
     id="g161"
     transform="translate(-36.627986,-37.760576)"
     style="fill:#0066ff;stroke:#073efc;stroke-width:7.21357;stroke-miterlimit:4;stroke-dasharray:none;stroke-opacity:1">
</g><g
     id="g163"
     transform="translate(-36.627986,-37.760576)"
     style="fill:#0066ff;stroke:#073efc;stroke-width:7.21357;stroke-miterlimit:4;stroke-dasharray:none;stroke-opacity:1">
</g><g
     id="g165"
     transform="translate(-36.627986,-37.760576)"
     style="fill:#0066ff;stroke:#073efc;stroke-width:7.21357;stroke-miterlimit:4;stroke-dasharray:none;stroke-opacity:1">
</g><g
     id="g167"
     transform="translate(-36.627986,-37.760576)"
     style="fill:#0066ff;stroke:#073efc;stroke-width:7.21357;stroke-miterlimit:4;stroke-dasharray:none;stroke-opacity:1">
</g><g
     id="g169"
     transform="translate(-36.627986,-37.760576)"
     style="fill:#0066ff;stroke:#073efc;stroke-width:7.21357;stroke-miterlimit:4;stroke-dasharray:none;stroke-opacity:1">
</g><g
     id="g171"
     transform="translate(-36.627986,-37.760576)"
     style="fill:#0066ff;stroke:#073efc;stroke-width:7.21357;stroke-miterlimit:4;stroke-dasharray:none;stroke-opacity:1">
</g><g
     id="g173"
     transform="translate(-36.627986,-37.760576)"
     style="fill:#0066ff;stroke:#073efc;stroke-width:7.21357;stroke-miterlimit:4;stroke-dasharray:none;stroke-opacity:1">
</g><g
     id="g175"
     transform="translate(-36.627986,-37.760576)"
     style="fill:#0066ff;stroke:#073efc;stroke-width:7.21357;stroke-miterlimit:4;stroke-dasharray:none;stroke-opacity:1">
</g><g
     id="g177"
     transform="translate(-36.627986,-37.760576)"
     style="fill:#0066ff;stroke:#073efc;stroke-width:7.21357;stroke-miterlimit:4;stroke-dasharray:none;stroke-opacity:1">
</g><g
     id="g179"
     transform="translate(-36.627986,-37.760576)"
     style="fill:#0066ff;stroke:#073efc;stroke-width:7.21357;stroke-miterlimit:4;stroke-dasharray:none;stroke-opacity:1">
</g><g
     id="g181"
     transform="translate(-36.627986,-37.760576)"
     style="fill:#0066ff;stroke:#073efc;stroke-width:7.21357;stroke-miterlimit:4;stroke-dasharray:none;stroke-opacity:1">
</g><g
     transform="matrix(0.53103161,0,0,0.50471994,62.401925,69.409144)"
     style="fill:#0066ff;fill-opacity:1;stroke:#073efc;stroke-width:13.9337;stroke-miterlimit:4;stroke-dasharray:none;stroke-opacity:1"
     id="g263"><g
       style="fill:#0066ff;fill-opacity:1;stroke:#073efc;stroke-width:13.9337;stroke-miterlimit:4;stroke-dasharray:none;stroke-opacity:1"
       id="g261"><g
         style="fill:#0066ff;fill-opacity:1;stroke:#073efc;stroke-width:13.9337;stroke-miterlimit:4;stroke-dasharray:none;stroke-opacity:1"
         id="g259"><polygon
           style="fill:#0066ff;fill-opacity:1;stroke:#073efc;stroke-width:13.9337;stroke-miterlimit:4;stroke-dasharray:none;stroke-opacity:1"
           id="polygon249"
           points="136.7,367.7 182.1,288.9 136.7,210 45.4,210 0,288.9 45.4,367.7 " /><polygon
           style="fill:#0066ff;fill-opacity:1;stroke:#073efc;stroke-width:13.9337;stroke-miterlimit:4;stroke-dasharray:none;stroke-opacity:1"
           id="polygon251"
           points="335.8,200.3 290,121.5 199.2,121.5 153.7,200.3 199.2,279.2 290,279.2 " /><polygon
           style="fill:#0066ff;fill-opacity:1;stroke:#073efc;stroke-width:13.9337;stroke-miterlimit:4;stroke-dasharray:none;stroke-opacity:1"
           id="polygon253"
           points="290,298.6 199.2,298.6 153.7,377.4 199.2,456.6 290,456.6 335.8,377.4 " /><polygon
           style="fill:#0066ff;fill-opacity:1;stroke:#073efc;stroke-width:13.9337;stroke-miterlimit:4;stroke-dasharray:none;stroke-opacity:1"
           id="polygon255"
           points="45.4,190.6 136.7,190.6 182.1,111.8 136.7,32.6 45.4,32.6 0,111.8 " /><polygon
           style="fill:#0066ff;fill-opacity:1;stroke:#073efc;stroke-width:13.9337;stroke-miterlimit:4;stroke-dasharray:none;stroke-opacity:1"
           id="polygon257"
           points="443.8,32.6 352.5,32.6 307.1,111.4 352.5,190.6 443.8,190.6 489.2,111.8 " /></g></g></g></g></svg>
