<svg xmlns="http://www.w3.org/2000/svg" width="500" height="500" style="width: 100%; height: 100%; content-visibility: visible;"><defs><filter id="a" filterUnits="objectBoundingBox" x="0%" y="0%" width="100%" height="100%"><feComponentTransfer in="SourceGraphic"><feFuncA type="table" tableValues="1.0 0.0"></feFuncA></feComponentTransfer></filter><filter id="b" filterUnits="objectBoundingBox" x="0%" y="0%" width="100%" height="100%"><feComponentTransfer in="SourceGraphic"><feFuncA type="table" tableValues="1.0 0.0"></feFuncA></feComponentTransfer></filter><mask id="e"><g filter="url(#a)"><path fill="red" d="M-1.94-157h3.88c33.734 0 60.747 27.969 59.574 61.682l-1.94 55.781C58.458-7.442 32.115 18 0 18c-32.115 0-58.458-25.442-59.574-57.537l-1.94-55.781C-62.687-129.031-35.674-157-1.94-157z" transform="translate(250 250)" display="block" class="ExFEsMnN_0"></path></g></mask><mask id="d"><g filter="url(#b)"><g display="block"><path stroke-linecap="round" stroke-linejoin="round" fill-opacity="0" stroke="#08A88A" stroke-width="0" d="M189.05 170.74c39.08-1.63 70.28-25.94 84.83-60.1 32.787 23.36 31.026 43.821 36.956 63.531 14.38-19.646 11.561-58.746 1.497-74.171-8.376-12.838-23.666-17-23.666-17-21.792-5.284-44.082 2.543-55.135 7.502-4.592 2.06-9.924 1.553-14.02-1.37l-15.879-11.331c-5.933-4.428-14.349-3.052-18.564 3.033-5.394 7.786-10.722 19.446-12.819 33.416-4.935 32.876 16.907 56.378 16.907 56.378" class="ExFEsMnN_1"></path><path fill="red" d="M-57.091 46.053c39.08-1.63 70.28-25.94 84.83-60.1 32.787 23.36 31.026 43.821 36.956 63.531 14.38-19.646 11.561-58.746 1.497-74.171-8.376-12.838-23.666-17-23.666-17-21.792-5.284-44.082 2.543-55.135 7.502-4.592 2.06-9.924 1.553-14.02-1.37l-15.879-11.331c-5.933-4.428-14.349-3.052-18.564 3.033-5.394 7.786-10.722 19.446-12.819 33.416-4.935 32.876 16.907 56.378 16.907 56.378" transform="translate(246.141 124.687)" class="ExFEsMnN_2"></path></g></g></mask><clipPath id="c"><path d="M0 0h500v500H0z" class="ExFEsMnN_3"></path></clipPath></defs><g clip-path="url(#c)"><g mask="url(#d)" display="block"><path stroke-linecap="round" stroke-linejoin="round" stroke="#FFF" stroke-width="12.04" d="M174.476 234.18s0 0 0 0c8.787 0 15.976-7.19 15.976-15.977v-30.906c0-8.787-7.189-15.977-15.976-15.977 0 0 0 0 0 0-8.787 0-15.976 7.19-15.976 15.977v30.906c0 8.787 7.189 15.977 15.976 15.977zm151.25.046s0 0 0 0c8.787 0 15.976-7.189 15.976-15.976v-30.907c0-8.787-7.189-15.976-15.976-15.976 0 0 0 0 0 0-8.787 0-15.976 7.189-15.976 15.976v30.907c0 8.787 7.189 15.976 15.976 15.976zm-167.271-46.881l.023-35.153c0-25.178 10.291-48.058 26.885-64.652C201.942 70.946 224.822 60.655 250 60.655c50.34 0 91.522 41.197 91.522 91.537l.023 35.403" fill="none" class="ExFEsMnN_4"></path></g><path stroke-linecap="round" stroke-linejoin="round" stroke="#2F80E8" stroke-width="12.04" d="M302.495 378.464s0 0 0 0c11.805 0 21.375-9.57 21.375-21.375v-21.375h-42.75v21.375c0 11.805 9.57 21.375 21.375 21.375z" fill="none" display="block" class="ExFEsMnN_5"></path><g mask="url(#e)" display="block"><path stroke-linecap="round" stroke-linejoin="round" stroke="#FFF" stroke-width="12.04" d="M283.87 257.845v18.94c0 18.63-15.25 33.87-33.88 33.87-18.63 0-33.87-15.24-33.87-33.87v-18.93" fill="none" class="ExFEsMnN_6"></path></g><path stroke-linecap="round" stroke-linejoin="round" stroke="#FFF" stroke-width="12.04" d="M283.88 276.69h7.62c45.84 0 83 37.16 83 83v27.76c0 7.62-5.71 14.03-13.28 14.9l-29.04 3.36a85.26 85.26 0 00-23.07 6.03c-18.91 7.91-39 11.88-59.11 11.92h-.3c-20.1 0-40.2-3.93-59.12-11.8l-.2-.08c-7.69-3.2-15.79-5.3-24.07-6.26l-27.53-3.17c-7.57-.87-13.28-7.28-13.28-14.9v-27.76c0-45.84 37.16-83 83-83h7.63M310.898 173.368l-1.324 37.095C308.458 242.558 282.115 268 250 268c0 0 0 0 0 0-32.115 0-58.458-25.442-59.574-57.537l-1.07-40.125" fill="none" display="block" class="ExFEsMnN_7"></path><path stroke-linecap="round" stroke-linejoin="round" stroke="#2F80E8" stroke-width="12.04" d="M189.05 170.74c39.08-1.63 70.28-25.94 84.83-60.1 32.787 23.36 31.026 43.821 36.956 63.531 14.38-19.646 11.561-58.746 1.497-74.171-8.376-12.838-23.666-17-23.666-17-21.792-5.284-44.082 2.543-55.135 7.502-4.592 2.06-9.924 1.553-14.02-1.37l-15.879-11.331c-5.933-4.428-14.349-3.052-18.564 3.033-5.394 7.786-10.722 19.446-12.819 33.416-4.935 32.876 16.907 56.378 16.907 56.378M256.748 236.321h7.514c3.102 0 5.639-2.538 5.639-5.64 0 0 0 0 0 0 0-3.102-2.537-5.64-5.639-5.64h-7.514c-3.102 0-5.639 2.538-5.639 5.64 0 0 0 0 0 0 0 3.102 2.537 5.64 5.639 5.64z" fill="none" display="block" class="ExFEsMnN_8"></path><path stroke-linecap="round" stroke-linejoin="round" stroke="#2F80E8" stroke-width="12.04" d="M269.31 230.681l15.539-2.263a45.281 45.281 0 0017.959-6.727c13.66-8.78 38.872-24.39 38.872-24.39" fill="none" display="block" class="ExFEsMnN_9"></path></g><style data-made-with="vivus-instant">.ExFEsMnN_0{stroke-dasharray:491 493;stroke-dashoffset:492;animation:ExFEsMnN_draw_0 7200ms ease-in-out 0ms infinite,ExFEsMnN_fade 7200ms linear 0ms infinite;}.ExFEsMnN_1{stroke-dasharray:502 504;stroke-dashoffset:503;animation:ExFEsMnN_draw_1 7200ms ease-in-out 0ms infinite,ExFEsMnN_fade 7200ms linear 0ms infinite;}.ExFEsMnN_2{stroke-dasharray:502 504;stroke-dashoffset:503;animation:ExFEsMnN_draw_2 7200ms ease-in-out 0ms infinite,ExFEsMnN_fade 7200ms linear 0ms infinite;}.ExFEsMnN_3{stroke-dasharray:2000 2002;stroke-dashoffset:2001;animation:ExFEsMnN_draw_3 7200ms ease-in-out 0ms infinite,ExFEsMnN_fade 7200ms linear 0ms infinite;}.ExFEsMnN_4{stroke-dasharray:683 685;stroke-dashoffset:684;animation:ExFEsMnN_draw_4 7200ms ease-in-out 0ms infinite,ExFEsMnN_fade 7200ms linear 0ms infinite;}.ExFEsMnN_5{stroke-dasharray:153 155;stroke-dashoffset:154;animation:ExFEsMnN_draw_5 7200ms ease-in-out 0ms infinite,ExFEsMnN_fade 7200ms linear 0ms infinite;}.ExFEsMnN_6{stroke-dasharray:145 147;stroke-dashoffset:146;animation:ExFEsMnN_draw_6 7200ms ease-in-out 0ms infinite,ExFEsMnN_fade 7200ms linear 0ms infinite;}.ExFEsMnN_7{stroke-dasharray:864 866;stroke-dashoffset:865;animation:ExFEsMnN_draw_7 7200ms ease-in-out 0ms infinite,ExFEsMnN_fade 7200ms linear 0ms infinite;}.ExFEsMnN_8{stroke-dasharray:552 554;stroke-dashoffset:553;animation:ExFEsMnN_draw_8 7200ms ease-in-out 0ms infinite,ExFEsMnN_fade 7200ms linear 0ms infinite;}.ExFEsMnN_9{stroke-dasharray:81 83;stroke-dashoffset:82;animation:ExFEsMnN_draw_9 7200ms ease-in-out 0ms infinite,ExFEsMnN_fade 7200ms linear 0ms infinite;}@keyframes ExFEsMnN_draw{100%{stroke-dashoffset:0;}}@keyframes ExFEsMnN_fade{0%{stroke-opacity:1;}94.44444444444444%{stroke-opacity:1;}100%{stroke-opacity:0;}}@keyframes ExFEsMnN_draw_0{11.11111111111111%{stroke-dashoffset: 492}38.88888888888889%{ stroke-dashoffset: 0;}100%{ stroke-dashoffset: 0;}}@keyframes ExFEsMnN_draw_1{12.654320987654321%{stroke-dashoffset: 503}40.4320987654321%{ stroke-dashoffset: 0;}100%{ stroke-dashoffset: 0;}}@keyframes ExFEsMnN_draw_2{14.19753086419753%{stroke-dashoffset: 503}41.9753086419753%{ stroke-dashoffset: 0;}100%{ stroke-dashoffset: 0;}}@keyframes ExFEsMnN_draw_3{15.740740740740744%{stroke-dashoffset: 2001}43.518518518518526%{ stroke-dashoffset: 0;}100%{ stroke-dashoffset: 0;}}@keyframes ExFEsMnN_draw_4{17.28395061728395%{stroke-dashoffset: 684}45.06172839506173%{ stroke-dashoffset: 0;}100%{ stroke-dashoffset: 0;}}@keyframes ExFEsMnN_draw_5{18.82716049382716%{stroke-dashoffset: 154}46.60493827160494%{ stroke-dashoffset: 0;}100%{ stroke-dashoffset: 0;}}@keyframes ExFEsMnN_draw_6{20.370370370370374%{stroke-dashoffset: 146}48.14814814814815%{ stroke-dashoffset: 0;}100%{ stroke-dashoffset: 0;}}@keyframes ExFEsMnN_draw_7{21.91358024691358%{stroke-dashoffset: 865}49.691358024691354%{ stroke-dashoffset: 0;}100%{ stroke-dashoffset: 0;}}@keyframes ExFEsMnN_draw_8{23.45679012345679%{stroke-dashoffset: 553}51.23456790123456%{ stroke-dashoffset: 0;}100%{ stroke-dashoffset: 0;}}@keyframes ExFEsMnN_draw_9{25%{stroke-dashoffset: 82}52.77777777777778%{ stroke-dashoffset: 0;}100%{ stroke-dashoffset: 0;}}</style></svg>