<svg xmlns="http://www.w3.org/2000/svg" xmlns:svg="http://www.w3.org/2000/svg" id="svg3443" width="728.069" height="469.104" version="1.1" viewBox="0 0 192.635 124.117"><defs id="defs3440"><linearGradient id="a" x1="513.254" x2="393.946" y1="698.292" y2="-254.971" gradientTransform="matrix(0.26458333,0,0,0.26458333,-47.933028,48.684508)" gradientUnits="userSpaceOnUse"><stop id="stop2820" stop-color="#fff"/><stop id="stop2822" offset="1" stop-color="#EEE"/></linearGradient><linearGradient id="b" x1="630.204" x2="522.451" y1="337.013" y2="-147.183" gradientTransform="matrix(0.26458333,0,0,0.26458333,-47.933028,48.684508)" gradientUnits="userSpaceOnUse"><stop id="stop2825" stop-color="#fff"/><stop id="stop2827" offset="1" stop-color="#EEE"/></linearGradient><linearGradient id="c" x1="689.111" x2="892.095" y1="289.809" y2="129.248" gradientTransform="matrix(0.26458333,0,0,0.26458333,-47.933028,48.684508)" gradientUnits="userSpaceOnUse"><stop id="stop2830" stop-color="#fff"/><stop id="stop2832" offset="1" stop-color="#EEE"/></linearGradient><linearGradient id="d" x1="220.113" x2="8.99" y1="386.339" y2="190.178" gradientTransform="matrix(0.26458333,0,0,0.26458333,-47.933028,48.684508)" gradientUnits="userSpaceOnUse"><stop id="stop2835" stop-color="#fff"/><stop id="stop2837" offset="1" stop-color="#EEE"/></linearGradient></defs><g id="layer1" transform="translate(24.803947,-58.346883)"><path id="path2780" fill="url(#a)" d="m 131.28487,146.96504 c -0.59346,15.05109 -32.728956,42.75164 -67.756614,28.09346 -16.290925,-6.81805 -14.052285,-15.38525 -25.737608,-28.05033 -6.965156,-7.54883 -17.409319,-13.74299 -19.51646,-23.96278 -1.820863,-8.82147 0.654844,-17.88689 5.770298,-23.45452 11.504612,-12.520877 33.04196,-19.812264 51.414362,3.34222 18.372666,23.15448 57.351612,5.21361 55.826022,44.03195 z" style="fill:url(#a);stroke-width:.264583"/><path id="path2782" fill="url(#b)" d="m 140.35611,100.85611 c -3.19855,5.70865 -10.20365,6.49287 -21.42649,5.40808 -8.44047,-0.8173 -16.1372,-1.44992 -24.5782,-6.05208 C 88.443274,96.993191 83.7665,92.638149 80.35311,88.40852 76.654235,83.826201 71.49142,78.596447 74.022425,73.400824 c 3.477948,-7.13687 23.591837,-13.147939 43.123115,-3.317875 21.45506,10.801086 26.3398,25.19389 23.21057,30.773161 z" style="fill:url(#b);stroke-width:.264583"/><path id="path2784" fill="url(#c)" d="m 159.3987,115.28807 c -6.51139,3.22977 -15.15348,-0.9234 -15.15348,-0.9234 0,0 1.92061,-9.38821 8.43545,-12.61374 6.51139,-3.230035 15.1503,0.91863 15.1503,0.91863 0,0 -1.92087,9.38848 -8.43227,12.61851 z" style="fill:url(#c);stroke-width:.264583"/><path id="path2786" fill="url(#d)" d="m -16.559266,137.51016 c 6.9421375,4.16084 16.90211239,0.31459 16.90211239,0.31459 0,0 -1.30227915,-10.59074 -8.24864989,-14.74682 -6.9424025,-4.16084 -16.8981435,-0.31935 -16.8981435,-0.31935 0,0 1.302279,10.59074 8.244681,14.75158 z" style="fill:url(#d);stroke-width:.264583"/><circle id="circle2788" cx="-147.973" cy="169.641" r="2" fill="#e1e4e5" transform="scale(-1,1)" style="stroke-width:.264583"/><circle id="circle2790" cx="5.322" cy="155.304" r="2.889" fill="#e1e4e5" transform="scale(-1,1)" style="stroke-width:.264583"/><circle id="circle2792" cx="-158.157" cy="149.868" r="2.199" fill="#e1e4e5" transform="scale(-1,1)" style="stroke-width:.264583"/><circle id="circle2794" cx="-134.826" cy="81.902" r="2.444" fill="#e1e4e5" transform="scale(-1,1)" style="stroke-width:.264583"/><circle id="circle2796" cx="109.33" cy="-18.225" r="2.195" fill="#e1e4e5" transform="matrix(0,1,1,0,0,0)" style="stroke-width:.264583"/><circle id="circle2798" cx="-58.02" cy="66.68" r="2.92" fill="#e1e4e5" transform="scale(-1,1)" style="stroke-width:.264583"/><ellipse id="ellipse2800" cx="-150.155" cy="137.69" fill="#e1e4e5" rx="2.246" ry="1.797" transform="scale(-1,1)" style="stroke-width:.264583"/><circle id="circle2802" cx="88.669" cy="87.832" r="4.568" fill="#e1e4e5" transform="matrix(0.25881906,0.96592582,0.96592582,-0.25881906,0,0)" style="stroke-width:.264583"/><path id="path2804" fill="#e1e4e5" d="m 11.295803,94.510605 h 0.03201 c 0.189442,2.684727 2.185988,2.726002 2.185988,2.726002 0,0 -2.201598,0.04313 -2.201598,3.145103 0,-3.101976 -2.2015982,-3.145103 -2.2015982,-3.145103 0,0 1.9957522,-0.04128 2.1851942,-2.726002 z M 7.95094,164.78553 h 0.030692 c 0.1820333,2.67652 2.098939,2.7178 2.098939,2.7178 0,0 -2.1140202,0.0429 -2.1140202,3.13584 0,-3.09298 -2.1137563,-3.13584 -2.1137563,-3.13584 0,0 1.9161125,-0.0413 2.0981455,-2.7178 z" style="stroke-width:.264583"/><path id="path2806" fill="#fff" stroke="#E1E4E5" stroke-width="5.866" d="M 71.193764,135.29824 H 0.10710264 c -5.18212914,0 -9.37921444,-4.19708 -9.37921444,-9.37921 V 85.298078 c 0,-5.182129 4.1970853,-9.37895 9.37921444,-9.37895 H 71.193764 c 5.182129,0 9.379215,4.196821 9.379215,9.37895 v 40.620952 c 0,5.18213 -4.197086,9.37921 -9.379215,9.37921 z" style="stroke:#d6dde0;stroke-width:1.552;stroke-miterlimit:4;stroke-dasharray:none;stroke-opacity:1"/><path id="path2808" fill="#fff" stroke="#E1E4E5" stroke-width="1.552" d="m 55.960644,91.151455 h 5.077618 c 2.374107,0 4.301331,1.927225 4.301331,4.301596 v 5.077619 c 0,2.37411 -1.927224,4.3016 -4.301331,4.3016 h -5.077618 c -2.374371,0 -4.301596,-1.92749 -4.301596,-4.3016 v -5.077619 c 0,-2.374371 1.927225,-4.301596 4.301596,-4.301596 z" style="stroke:#06c0fe;stroke-opacity:1"/><path id="path2810" stroke="#E1E4E5" stroke-linecap="round" stroke-linejoin="round" stroke-width="1.552" d="M 20.417577,105.60855 H 5.1847213 M 30.57255,120.84167 H 5.1847213" style="fill:#0055d4;stroke:#0799ff;stroke-opacity:1"/><path id="path2812" fill="#ee0707" fill-rule="evenodd" d="m 115.98014,125.37282 c -2.79161,-6.05578 -6.51457,-11.21806 -10.72197,-15.28736 -0.89085,-0.85725 -2.2352,-1.04378 -3.35836,-0.52599 l -4.239151,1.95422 c -3.473185,1.60099 -7.0612,0.27728 -8.459523,-2.7559 l -2.799027,-6.0714 c -1.86346,-4.042302 -0.09763,-8.829144 3.944938,-10.692604 l 3.370791,-1.557073 c 3.8354,-1.768211 8.308442,-1.445419 12.037222,0.789516 9.19083,5.512594 17.89086,15.243171 23.73444,27.918831 5.84359,12.67593 7.59222,25.61087 5.81528,36.17992 -0.72258,4.28678 -3.3819,7.89781 -7.2173,9.66576 l -3.36974,1.55337 c -4.0423,1.86346 -8.82914,0.0976 -10.6926,-3.94494 l -2.79903,-6.07113 c -1.39806,-3.03318 -0.073,-6.62517 2.95884,-8.01978 l 4.67757,-2.15318 c 1.12315,-0.51779 1.85816,-1.65973 1.78117,-2.89534 -0.36565,-5.84385 -1.87537,-12.03245 -4.66355,-18.08692 z" clip-rule="evenodd" style="fill:#0055d4;stroke-width:.264583"/><path id="path2814" fill="#ee0707" d="m 51.249264,118.26579 c 16.834942,-7.94742 36.92494,-0.74262 44.872137,16.09207 7.947429,16.83492 0.742854,36.92489 -16.092088,44.87231 -16.834945,7.94719 -36.924943,0.74262 -44.87214,-16.0923 -7.947427,-16.83492 -0.742622,-36.92489 16.092091,-44.87208 z" style="fill:#06f;stroke-width:.230413"/><path id="path2816" fill="#ee0707" d="m 55.231431,174.9651 c 0.413544,0.43286 0.224631,1.14962 -0.348456,1.32265 l -19.718602,5.9481 c -0.616215,0.186 -1.189302,-0.3929 -0.997479,-1.00727 l 6.259247,-20.02975 c 0.182298,-0.58314 0.923661,-0.75671 1.345936,-0.31485 z" style="fill:#06f;stroke-width:.264583"/><path id="path2818" fill="#fff" d="m 77.413589,149.6294 c 0.05027,2.86808 2.415381,5.1427 5.283729,5.09243 2.868084,-0.0503 5.142706,-2.41538 5.092436,-5.28373 -0.05027,-2.86834 -2.415382,-5.1427 -5.283729,-5.09243 -2.868348,0.0603 -5.142707,2.41538 -5.092436,5.28373 z m -18.025004,0.76438 c 0.291836,2.84797 2.84824,4.92125 5.696215,4.62941 2.848239,-0.29183 4.921514,-2.84824 4.629679,-5.69621 -0.291836,-2.84824 -2.84824,-4.92151 -5.696479,-4.62968 -2.847975,0.30189 -4.92125,2.84824 -4.629415,5.69648 z m -16.94815,0.31194 c 0.291836,2.84824 2.847975,4.92152 5.696215,4.62968 2.84824,-0.29183 4.921514,-2.84824 4.629414,-5.69648 -0.291835,-2.84797 -2.847974,-4.92125 -5.696214,-4.62941 -2.84824,0.29183 -4.921515,2.83818 -4.629415,5.69621 z" style="stroke-width:.264583"/></g></svg>