<svg xmlns="http://www.w3.org/2000/svg" width="500" height="500" style="width: 100%; height: 100%; content-visibility: visible;"><defs><clipPath id="a"><path d="M0 0h500v500H0z" class="gUXUKGmY_0"></path></clipPath></defs><g clip-path="url(#a)"><g display="block"><path stroke-linecap="round" stroke-linejoin="round" stroke="#FFF" stroke-width="12.6" d="M125.69 295.097v-78.53c0-68.626 55.633-124.259 124.259-124.259 0 0 0 0 0 0 68.626 0 124.009 55.633 124.009 124.259l.209 32.53m-15.798 102.826h-6.816c-8.748 0-15.839-7.091-15.839-15.839v-81.973c0-8.748 7.091-15.839 15.839-15.839h6.816c8.748 0 15.839 7.091 15.839 15.839v81.973c0 8.748-7.091 15.839-15.839 15.839zm-210.023 0h-6.817c-8.748 0-15.839-7.091-15.839-15.839v-81.973c0-8.748 7.091-15.839 15.839-15.839h6.817c8.748 0 15.839 7.091 15.839 15.839v81.973c0 8.748-7.091 15.839-15.839 15.839z" fill="none" class="gUXUKGmY_1"></path><path stroke-linecap="round" stroke-linejoin="round" stroke="#2F80E8" stroke-width="8.4" d="M394.722 274.195c11.476 0 20.778 9.302 20.778 20.778 0 11.476-9.302 20.779-20.778 20.779v-41.557zm-288.944 41.557c-11.476 0-20.778-9.303-20.778-20.779 0-11.476 9.302-20.778 20.778-20.778v41.557z" fill="none" class="gUXUKGmY_2"></path><path fill="#2F80E8" d="M394.722 274.195c11.476 0 20.778 9.302 20.778 20.778 0 11.476-9.302 20.779-20.778 20.779v-41.557zm-288.944 41.557c-11.476 0-20.778-9.303-20.778-20.779 0-11.476 9.302-20.778 20.778-20.778v41.557z" class="gUXUKGmY_3"></path></g><path stroke-linecap="round" stroke-linejoin="round" stroke="#2F80E8" stroke-width="12.6" d="M276.348 416.425v-4.133c0-5.304 4.301-9.605 9.605-9.605h23.22c5.304 0 9.605 4.301 9.605 9.605v4.133c0 5.304-4.301 9.605-9.605 9.605h-23.22c-5.304 0-9.605-4.301-9.605-9.605zm119.913-108.142l-24.475 71.99c-6.396 18.812-20.868 34.085-32.298 34.085h-20.71" fill="none" display="block" class="gUXUKGmY_4"></path></g><style data-made-with="vivus-instant">.gUXUKGmY_0{stroke-dasharray:2000 2002;stroke-dashoffset:2001;animation:gUXUKGmY_draw_0 7200ms ease-in-out 0ms infinite,gUXUKGmY_fade 7200ms linear 0ms infinite;}.gUXUKGmY_1{stroke-dasharray:1056 1058;stroke-dashoffset:1057;animation:gUXUKGmY_draw_1 7200ms ease-in-out 0ms infinite,gUXUKGmY_fade 7200ms linear 0ms infinite;}.gUXUKGmY_2{stroke-dasharray:214 216;stroke-dashoffset:215;animation:gUXUKGmY_draw_2 7200ms ease-in-out 0ms infinite,gUXUKGmY_fade 7200ms linear 0ms infinite;}.gUXUKGmY_3{stroke-dasharray:214 216;stroke-dashoffset:215;animation:gUXUKGmY_draw_3 7200ms ease-in-out 0ms infinite,gUXUKGmY_fade 7200ms linear 0ms infinite;}.gUXUKGmY_4{stroke-dasharray:262 264;stroke-dashoffset:263;animation:gUXUKGmY_draw_4 7200ms ease-in-out 0ms infinite,gUXUKGmY_fade 7200ms linear 0ms infinite;}@keyframes gUXUKGmY_draw{100%{stroke-dashoffset:0;}}@keyframes gUXUKGmY_fade{0%{stroke-opacity:1;}94.44444444444444%{stroke-opacity:1;}100%{stroke-opacity:0;}}@keyframes gUXUKGmY_draw_0{11.11111111111111%{stroke-dashoffset: 2001}38.88888888888889%{ stroke-dashoffset: 0;}100%{ stroke-dashoffset: 0;}}@keyframes gUXUKGmY_draw_1{14.583333333333334%{stroke-dashoffset: 1057}42.36111111111111%{ stroke-dashoffset: 0;}100%{ stroke-dashoffset: 0;}}@keyframes gUXUKGmY_draw_2{18.055555555555554%{stroke-dashoffset: 215}45.83333333333333%{ stroke-dashoffset: 0;}100%{ stroke-dashoffset: 0;}}@keyframes gUXUKGmY_draw_3{21.52777777777778%{stroke-dashoffset: 215}49.30555555555556%{ stroke-dashoffset: 0;}100%{ stroke-dashoffset: 0;}}@keyframes gUXUKGmY_draw_4{25%{stroke-dashoffset: 263}52.77777777777778%{ stroke-dashoffset: 0;}100%{ stroke-dashoffset: 0;}}</style></svg>