<svg xmlns="http://www.w3.org/2000/svg" xmlns:svg="http://www.w3.org/2000/svg" id="Capa_1" width="291.383" height="362.146" enable-background="new 0 0 512 512" version="1.1" viewBox="0 0 291.383 362.146"><g id="g999" transform="translate(-109.00454,10.435669)"><g id="g945"><path id="path943" fill="#b1e4f9" d="M 288.26,284.539 H 146.732 c -4.267,0 -7.726,-3.459 -7.726,-7.726 0,-4.267 3.459,-7.726 7.726,-7.726 H 288.26 c 4.267,0 7.726,3.459 7.726,7.726 0,4.267 -3.459,7.726 -7.726,7.726 z" style="fill:#f9f9f9"/></g><g id="g949"><path id="path947" fill="#b1e4f9" d="m 365.268,284.539 h -33.301 c -4.267,0 -7.726,-3.459 -7.726,-7.726 0,-4.267 3.459,-7.726 7.726,-7.726 h 33.301 c 4.267,0 7.726,3.459 7.726,7.726 0,4.267 -3.459,7.726 -7.726,7.726 z" style="fill:#fff"/></g><g id="g975" fill="#734d9d"><path id="path951" d="m 266.406,25.574 h -20.813 c -4.267,0 -7.726,3.459 -7.726,7.726 0,4.267 3.459,7.726 7.726,7.726 h 2.68 V 64.52 c 0,4.267 3.459,7.726 7.726,7.726 4.267,0 7.726,-3.459 7.726,-7.726 V 41.027 h 2.68 c 4.267,0 7.726,-3.459 7.726,-7.726 0,-4.267 -3.457,-7.727 -7.725,-7.727 z" style="fill:#59f"/><path id="path953" d="m 170.329,93.232 c 1.217,0.703 2.545,1.037 3.856,1.037 2.67,0 5.267,-1.386 6.698,-3.865 l 1.34,-2.321 20.346,11.747 c 1.217,0.703 2.545,1.037 3.856,1.037 2.67,0 5.267,-1.386 6.698,-3.865 2.134,-3.696 0.868,-8.421 -2.828,-10.554 L 189.95,74.701 191.29,72.38 c 2.134,-3.696 0.868,-8.421 -2.828,-10.554 -3.696,-2.135 -8.422,-0.867 -10.554,2.828 l -10.406,18.025 c -2.135,3.694 -0.869,8.42 2.827,10.553 z" style="fill:#59f"/><path id="path955" d="m 213.124,146.511 c -2.133,-3.696 -6.86,-4.962 -10.554,-2.828 l -20.346,11.747 -1.34,-2.321 c -2.134,-3.696 -6.859,-4.962 -10.554,-2.828 -3.696,2.133 -4.962,6.859 -2.828,10.554 l 5.202,9.01 c 0,0.001 0.001,0.001 0.001,0.002 0,0.001 10e-4,0.001 10e-4,0.002 l 5.202,9.011 c 1.431,2.479 4.028,3.865 6.698,3.865 1.311,0 2.639,-0.334 3.856,-1.037 3.696,-2.133 4.962,-6.859 2.828,-10.554 l -1.34,-2.321 20.346,-11.747 c 3.695,-2.134 4.962,-6.86 2.828,-10.555 z" style="fill:#59f"/><path id="path957" d="m 266.406,202.485 h -2.68 v -23.493 c 0,-4.267 -3.459,-7.726 -7.726,-7.726 -4.267,0 -7.726,3.459 -7.726,7.726 v 23.493 h -2.68 c -4.267,0 -7.726,3.459 -7.726,7.726 0,4.267 3.459,7.726 7.726,7.726 h 20.813 c 4.267,0 7.726,-3.459 7.726,-7.726 0,-4.267 -3.459,-7.726 -7.727,-7.726 z" style="fill:#59f"/><path id="path959" d="m 341.671,150.28 c -3.696,-2.134 -8.421,-0.868 -10.554,2.828 l -1.34,2.321 -20.346,-11.747 c -3.695,-2.134 -8.421,-0.869 -10.554,2.828 -2.134,3.695 -0.868,8.421 2.828,10.554 l 20.346,11.747 -1.34,2.321 c -2.134,3.696 -0.868,8.421 2.828,10.554 1.217,0.703 2.545,1.037 3.856,1.037 2.67,0 5.267,-1.386 6.698,-3.865 l 5.202,-9.011 c 0,-0.001 10e-4,-0.001 10e-4,-0.002 0,-0.001 0.001,-0.001 0.001,-0.002 l 5.202,-9.01 c 2.134,-3.694 0.868,-8.42 -2.828,-10.553 z" style="fill:#59f"/><path id="path961" d="m 298.876,97.002 c 1.431,2.479 4.028,3.865 6.698,3.865 1.311,0 2.639,-0.334 3.856,-1.037 l 20.346,-11.747 1.34,2.321 c 1.431,2.479 4.028,3.865 6.698,3.865 1.311,0 2.639,-0.334 3.856,-1.037 3.696,-2.133 4.962,-6.859 2.828,-10.554 L 334.092,64.653 c -2.134,-3.696 -6.859,-4.963 -10.554,-2.828 -3.696,2.133 -4.962,6.859 -2.828,10.554 l 1.34,2.321 -20.346,11.747 c -3.695,2.133 -4.962,6.859 -2.828,10.555 z" style="fill:#59f"/><path id="path963" d="m 220.691,76.052 c 1.431,2.479 4.028,3.865 6.698,3.865 1.311,0 2.639,-0.334 3.856,-1.037 3.695,-2.133 4.962,-6.859 2.828,-10.554 l -7.805,-13.519 c -2.134,-3.696 -6.86,-4.962 -10.554,-2.828 -3.695,2.133 -4.962,6.859 -2.828,10.554 z" style="fill:#80b3ff"/><path id="path965" d="m 198.764,114.03 h -15.61 c -4.267,0 -7.726,3.459 -7.726,7.726 0,4.267 3.459,7.726 7.726,7.726 h 15.61 c 4.267,0 7.726,-3.459 7.726,-7.726 0,-4.267 -3.459,-7.726 -7.726,-7.726 z" style="fill:#80b3ff"/><path id="path967" d="m 231.245,164.633 c -3.697,-2.135 -8.421,-0.868 -10.554,2.828 l -7.805,13.518 c -2.134,3.695 -0.868,8.421 2.828,10.554 1.217,0.703 2.545,1.037 3.856,1.037 2.67,0 5.267,-1.386 6.698,-3.865 l 7.805,-13.518 c 2.134,-3.695 0.868,-8.42 -2.828,-10.554 z" style="fill:#80b3ff"/><path id="path969" d="m 291.309,167.461 c -2.133,-3.696 -6.86,-4.962 -10.554,-2.828 -3.696,2.134 -4.962,6.859 -2.828,10.554 l 7.805,13.518 c 1.431,2.479 4.028,3.865 6.698,3.865 1.311,0 2.639,-0.334 3.856,-1.037 3.696,-2.134 4.962,-6.859 2.828,-10.554 z" style="fill:#80b3ff"/><path id="path971" d="m 313.236,114.03 c -4.267,0 -7.726,3.459 -7.726,7.726 0,4.267 3.459,7.726 7.726,7.726 h 15.61 c 4.267,0 7.726,-3.459 7.726,-7.726 0,-4.267 -3.459,-7.726 -7.726,-7.726 z" style="fill:#80b3ff"/><path id="path973" d="m 280.755,78.88 c 1.217,0.703 2.545,1.037 3.856,1.037 2.67,0 5.267,-1.386 6.698,-3.865 l 7.805,-13.519 c 2.134,-3.696 0.867,-8.421 -2.828,-10.554 -3.695,-2.134 -8.421,-0.868 -10.554,2.828 l -7.805,13.519 c -2.134,3.695 -0.868,8.42 2.828,10.554 z" style="fill:#80b3ff"/></g><g id="g979"><path id="path977" fill="#b1e4f9" d="m 365.268,251.238 h -176.91 c -4.267,0 -7.726,-3.459 -7.726,-7.726 0,-4.267 3.459,-7.726 7.726,-7.726 h 176.91 c 4.267,0 7.726,3.459 7.726,7.726 0,4.267 -3.459,7.726 -7.726,7.726 z" style="fill:#fff"/></g><g id="g983"><path id="path981" fill="#b1e4f9" d="m 180.033,317.84 h -33.301 c -4.267,0 -7.726,-3.459 -7.726,-7.726 0,-4.267 3.459,-7.726 7.726,-7.726 h 33.301 c 4.267,0 7.726,3.459 7.726,7.726 0,4.267 -3.459,7.726 -7.726,7.726 z" style="fill:#fff"/></g><g id="g987"><path id="path985" fill="#b1e4f9" d="M 365.268,317.84 H 222.699 c -4.267,0 -7.726,-3.459 -7.726,-7.726 0,-4.267 3.459,-7.726 7.726,-7.726 h 142.569 c 4.267,0 7.726,3.459 7.726,7.726 0,4.267 -3.459,7.726 -7.726,7.726 z" style="fill:#f9f9f9"/></g><g id="g997"><g id="g991"><circle id="circle989" cx="256" cy="121.756" r="57.69" fill="#ac80dd" style="fill:#80b3ff"/></g><g id="g995"><path id="path993" fill="#9d66d5" d="m 285.26,72.042 c 5.061,8.58 7.976,18.578 7.976,29.26 0,31.861 -25.829,57.69 -57.69,57.69 -10.683,0 -20.68,-2.915 -29.26,-7.976 10.034,17.01 28.536,28.43 49.714,28.43 31.861,0 57.69,-25.829 57.69,-57.69 0,-21.178 -11.419,-39.68 -28.43,-49.714 z" style="fill:#59f"/></g></g></g></svg>