<?xml version="1.0" encoding="UTF-8" standalone="no"?>
<!-- Generator: Adobe Illustrator 19.0.0, SVG Export Plug-In . SVG Version: 6.00 Build 0)  -->

<svg
   version="1.1"
   id="Layer_1"
   x="0px"
   y="0px"
   viewBox="0 0 508 508"
   style="enable-background:new 0 0 508 508;"
   xml:space="preserve"
   sodipodi:docname="customer-service-JunTech-Web-Solutions-Aruba.svg"
   inkscape:version="1.1 (c68e22c387, 2021-05-23)"
   xmlns:inkscape="http://www.inkscape.org/namespaces/inkscape"
   xmlns:sodipodi="http://sodipodi.sourceforge.net/DTD/sodipodi-0.dtd"
   xmlns="http://www.w3.org/2000/svg"
   xmlns:svg="http://www.w3.org/2000/svg"><defs
   id="defs1359" /><sodipodi:namedview
   id="namedview1357"
   pagecolor="#ffffff"
   bordercolor="#666666"
   borderopacity="1.0"
   inkscape:pageshadow="2"
   inkscape:pageopacity="0.0"
   inkscape:pagecheckerboard="0"
   showgrid="false"
   inkscape:zoom="1.5452756"
   inkscape:cx="254"
   inkscape:cy="254"
   inkscape:window-width="1920"
   inkscape:window-height="1003"
   inkscape:window-x="-9"
   inkscape:window-y="-9"
   inkscape:window-maximized="1"
   inkscape:current-layer="Layer_1" />
<ellipse
   style="fill:#2a7fff;stroke-width:0.851198"
   cx="252.4436"
   cy="282.2117"
   id="circle1320"
   rx="216.2041"
   ry="216.20409" />
<path
   style="fill:#ffffff;stroke-width:0.851198"
   d="m 294.74809,324.17575 c 25.96151,-14.72571 43.41106,-42.64498 43.41106,-74.56488 0,-47.41168 -38.38899,-85.80067 -85.80069,-85.80067 -47.41168,0 -85.71555,38.38899 -85.71555,85.71555 0,32.00502 17.53466,59.83917 43.41105,74.56488 -53.79566,13.70428 -97.46208,52.60399 -117.635452,103.50558 39.580662,43.49618 96.610882,70.81961 160.025072,70.81961 63.4142,0 120.44441,-27.32343 160.02509,-70.81961 -20.17338,-50.90159 -63.83979,-89.8013 -117.72058,-103.42046 z"
   id="path1322" />
<path
   style="fill:#324a5e;stroke-width:0.851198"
   d="m 378.08029,221.18089 h -13.4489 c -12.68285,-50.13551 -58.13677,-87.41795 -112.18781,-87.41795 -54.05102,0 -99.50495,37.19732 -112.18779,87.41795 h -13.44891 c -4.59646,0 -8.34173,3.74527 -8.34173,8.34174 v 40.77234 c 0,4.59646 3.74527,8.34173 8.34173,8.34173 h 17.02394 c 5.1923,0 9.19293,-4.68158 8.25661,-9.70365 -1.70239,-8.85245 -2.29823,-18.1305 -1.53215,-27.66391 4.08574,-50.47599 45.62417,-90.99298 96.27041,-93.71681 58.90285,-3.23455 107.93181,43.83665 107.93181,102.05854 0,6.63934 -0.68096,13.02332 -1.87264,19.32218 -1.02143,5.10719 3.06431,9.78877 8.1715,9.78877 h 1.53215 c -3.57503,11.06557 -12.68284,31.66454 -32.60086,42.7301 -16.68347,9.27805 -37.70803,10.12925 -62.47787,2.38335 -1.2768,-5.70302 -7.57566,-12.42748 -14.04476,-15.57691 -8.34173,-4.17087 -13.53403,-0.68096 -16.51322,5.27743 -2.97919,5.95838 -2.55359,12.17212 5.70302,16.34299 7.32029,3.66014 18.38586,4.42622 22.98232,0.42559 11.83164,3.66015 22.89721,5.53279 33.1967,5.53279 12.76795,0 24.25911,-2.80895 34.38836,-8.51198 23.40793,-13.02332 33.02646,-37.19731 36.43125,-48.68848 h 8.42684 c 4.59647,0 8.34174,-3.74527 8.34174,-8.34173 v -40.77234 c 0,-4.59647 -3.74527,-8.34174 -8.34174,-8.34174 z"
   id="path1324" />
<g
   id="g1326">
</g>
<g
   id="g1328">
</g>
<g
   id="g1330">
</g>
<g
   id="g1332">
</g>
<g
   id="g1334">
</g>
<g
   id="g1336">
</g>
<g
   id="g1338">
</g>
<g
   id="g1340">
</g>
<g
   id="g1342">
</g>
<g
   id="g1344">
</g>
<g
   id="g1346">
</g>
<g
   id="g1348">
</g>
<g
   id="g1350">
</g>
<g
   id="g1352">
</g>
<g
   id="g1354">
</g>
</svg>
