<!--?xml version="1.0" encoding="UTF-8" standalone="no"?-->
<!-- Created with Inkscape (http://www.inkscape.org/) -->

<svg width="220.90591mm" height="207.65558mm" viewBox="0 0 220.90591 207.65558" version="1.1" id="svg1114" inkscape:version="1.2.2 (732a01da63, 2022-12-09)" sodipodi:docname="drawingQZZZZZ.svg" xmlns:inkscape="http://www.inkscape.org/namespaces/inkscape" xmlns:sodipodi="http://sodipodi.sourceforge.net/DTD/sodipodi-0.dtd" xmlns="http://www.w3.org/2000/svg" xmlns:svg="http://www.w3.org/2000/svg" style="">
  <sodipodi:namedview id="namedview1116" pagecolor="#ffffff" bordercolor="#000000" borderopacity="0.25" inkscape:showpageshadow="2" inkscape:pageopacity="0.0" inkscape:pagecheckerboard="0" inkscape:deskcolor="#d1d1d1" inkscape:document-units="mm" showgrid="false" inkscape:zoom="1.8422839" inkscape:cx="438.58603" inkscape:cy="60.794103" inkscape:window-width="1366" inkscape:window-height="697" inkscape:window-x="-8" inkscape:window-y="-8" inkscape:window-maximized="1" inkscape:current-layer="layer1"></sodipodi:namedview>
  <defs id="defs1111"></defs>
  <g inkscape:label="Layer 1" inkscape:groupmode="layer" id="layer1" transform="translate(24.856188,-3.0957699)">
    <path d="m 196.04972,156.54351 c -5.43983,-1.05833 -14.05466,2.46592 -15.66333,7.75758 a 8.4666664,8.4666664 0 0 0 -4.07458,-8.21266 c -2.80459,-1.61925 -6.477,-2.76225 -9.05934,-0.81492 a 28.765499,28.765499 0 0 0 -9.5885,-28.69142 c -8.27616,-6.69924 -20.35175,-7.40832 -29.9085,-2.74108 A 20.499916,20.499916 0 0 0 115.75397,94.832101 87.312497,87.312497 0 0 0 74.320226,90.905684 c -8.053916,1.185334 -16.266583,3.704167 -22.119166,9.355666 -5.852583,5.6515 -7.408333,15.875 -3.471333,22.99758 a 26.130249,26.130249 0 0 0 -26.352499,6.23358 25.802166,25.802166 0 0 0 -5.74675,26.27842 8.7100831,8.7100831 0 0 0 -8.3079167,-0.3175 8.4666664,8.4666664 0 0 0 -4.6037498,6.80508 17.494249,17.494249 0 0 0 -28.5749995,0.97367 v 47.51916 H 194.80089 Z" style="opacity:0.5;fill:#ffffff;stroke-width:1.05833" id="path585" class="bCMaWCYY_0"></path>
    <path width="134.00616" height="20.849167" style="fill:#ffffff;stroke-width:1.05833" id="rect587" d="M 33.520230999999995,135.68376 L 147.526391,135.68376 A 10,10,0,0,1,157.526391,145.68376 L 157.526391,146.532927 A 10,10,0,0,1,147.526391,156.532927 L 33.520230999999995,156.532927 A 10,10,0,0,1,23.520231,146.532927 L 23.520231,145.68376 A 10,10,0,0,1,33.520230999999995,135.68376" class="bCMaWCYY_1"></path>
    <path d="m 33.299227,150.09826 a 6.1594998,6.1594998 0 1 1 6.1595,-6.1595 6.1700831,6.1700831 0 0 1 -6.1595,6.1595 z m 0,-9.144 a 2.9844999,2.9844999 0 1 0 2.9845,2.9845 2.9950832,2.9950832 0 0 0 -2.9845,-2.9845 z" style="fill:#263238;stroke-width:1.05833" id="path589" class="bCMaWCYY_2"></path>
    <path width="3.175" height="10.318749" transform="rotate(-44.96)" style="fill:#263238;stroke-width:1.05833" id="rect591" d="M-79.851486 129.94203 L-76.676486 129.94203 L-76.676486 140.26077899999999 L-79.851486 140.26077899999999 Z" class="bCMaWCYY_3"></path>
    <path d="m 63.85331,123.17426 1.4605,-3.24908 a 10.974916,10.974916 0 0 0 6.148916,1.94733 c 2.550583,0 3.58775,-0.85725 3.58775,-2.00025 0,-3.48191 -10.82675,-1.05833 -10.82675,-8.00099 0,-3.175 2.550583,-5.79967 7.84225,-5.79967 a 12.47775,12.47775 0 0 1 6.466416,1.651 l -1.333499,3.27025 a 10.4775,10.4775 0 0 0 -5.164667,-1.4605 c -2.550583,0 -3.534833,0.9525 -3.534833,2.11667 0,3.429 10.826749,1.05833 10.826749,7.89516 0,3.1115 -2.582333,5.7785 -7.905749,5.7785 a 13.23975,13.23975 0 0 1 -7.567083,-2.14842 z" style="fill:#ff1206;fill-opacity:1;stroke-width:1.05833;stroke:#ff0000;stroke-opacity:1" id="path603" class="bCMaWCYY_4"></path>
    <path d="m 96.703975,121.55501 v 3.45017 H 82.289476 V 106.3891 h 14.086416 v 3.46075 h -9.789583 v 4.04283 h 8.646583 v 3.35492 h -8.646583 v 4.30741 z" style="fill:#ff0400;fill-opacity:1;stroke-width:1.05833;stroke:#ff0000;stroke-opacity:1" id="path605" class="bCMaWCYY_5"></path>
    <path d="m 98.915892,115.70243 c 0,-5.53508 4.307418,-9.63083 10.181168,-9.63083 5.87375,0 10.19175,4.07458 10.19175,9.63083 0,5.55625 -4.33917,9.63083 -10.19175,9.63083 -5.85258,0 -10.181168,-4.09575 -10.181168,-9.63083 z m 16.012578,0 a 5.8314165,5.8314165 0 1 0 -5.85258,6.00075 5.6832498,5.6832498 0 0 0 5.85258,-6.00075 z" style="fill:#ff0c00;fill-opacity:1;stroke-width:1.05833;stroke:#ff0000;stroke-opacity:1" id="path607" class="bCMaWCYY_6"></path>
    <path width="52.810833" height="17.5895" style="opacity:1;fill:#ffffff;stroke-width:1.05833" id="rect609" d="M 40.230808,170.21718 L 85.041641,170.21718 A 4,4,0,0,1,89.041641,174.21718 L 89.041641,183.80668000000003 A 4,4,0,0,1,85.041641,187.80668000000003 L 40.230808,187.80668000000003 A 4,4,0,0,1,36.230808,183.80668000000003 L 36.230808,174.21718 A 4,4,0,0,1,40.230808,170.21718" class="bCMaWCYY_7"></path>
    <path width="52.810833" height="17.5895" style="opacity:1;fill:#ffffff;stroke-width:1.05833" id="rect611" d="M 105.0008,170.21718 L 149.811633,170.21718 A 4,4,0,0,1,153.811633,174.21718 L 153.811633,183.80668000000003 A 4,4,0,0,1,149.811633,187.80668000000003 L 105.0008,187.80668000000003 A 4,4,0,0,1,101.0008,183.80668000000003 L 101.0008,174.21718 A 4,4,0,0,1,105.0008,170.21718" class="bCMaWCYY_8"></path>
    <path d="M 61.366226,82.185018 87.602309,35.618353 a 1.0583333,1.0583333 0 0 1 1.8415,0 l 26.236081,46.566665 a 1.0583333,1.0583333 0 0 1 -0.92075,1.566333 H 62.29756 a 1.0583333,1.0583333 0 0 1 -0.931334,-1.566333 z" style="fill: rgb(64, 123, 255); stroke-width: 0.958; stroke: rgb(255, 0, 0); stroke-opacity: 1;" id="path613" class="bCMaWCYY_9"></path>
    <path d="M 61.366226,82.185018 87.602309,35.618353 a 1.0583333,1.0583333 0 0 1 1.8415,0 l 26.236081,46.566665 a 1.0583333,1.0583333 0 0 1 -0.92075,1.566333 H 62.29756 a 1.0583333,1.0583333 0 0 1 -0.931334,-1.566333 z" style="opacity: 1; fill: rgb(255, 0, 0); stroke-width: 0.958; stroke: rgb(255, 0, 0); stroke-opacity: 1;" id="path615" class="bCMaWCYY_10"></path>
    <path d="m 76.055893,90.725768 -1.280584,-5.228167 h -4.593166 l -1.27,5.228167 a 9.3344997,9.3344997 0 0 0 7.14375,0 z" style="fill: rgb(38, 50, 56); stroke-width: 0.958; stroke: rgb(255, 0, 0); stroke-opacity: 1;" id="path617" class="bCMaWCYY_11"></path>
    <path d="m 70.182143,85.497601 -0.296334,1.217084 a 9.1969164,9.1969164 0 0 0 5.185834,0 l -0.296334,-1.217084 z" style="opacity: 0.2; fill: rgb(255, 255, 255); stroke-width: 0.958; stroke: rgb(255, 0, 0); stroke-opacity: 1;" id="path619" class="bCMaWCYY_12"></path>
    <path d="m 69.568309,88.027018 c -0.08467,0.338666 -0.169333,0.66675 -0.243416,0.98425 a 10.583333,10.583333 0 0 0 6.35,0 l -0.232834,-0.98425 a 14.816666,14.816666 0 0 1 -5.87375,0 z" style="opacity: 0.4; fill: rgb(255, 255, 255); stroke-width: 0.958; stroke: rgb(255, 0, 0); stroke-opacity: 1;" id="path621" class="bCMaWCYY_13"></path>
    <path d="m 77.325892,85.127185 a 12.7,12.7 0 0 1 -9.694333,0 V 46.286352 a 16.499416,16.499416 0 0 1 4.847167,-11.705166 16.499416,16.499416 0 0 1 4.847167,11.705166 z" style="fill: rgb(64, 123, 255); stroke-width: 0.958; stroke: rgb(255, 0, 0); stroke-opacity: 1;" id="path623" class="bCMaWCYY_14"></path>
    <path d="m 67.631559,46.286352 v 36.607749 a 14.710833,14.710833 0 0 0 9.694333,0 V 46.286352 A 16.499416,16.499416 0 0 0 72.478726,34.581186 16.499416,16.499416 0 0 0 67.631559,46.286352 Z" style="fill: rgb(64, 123, 255); stroke-width: 0.958; stroke: rgb(255, 0, 0); stroke-opacity: 1;" id="path625" class="bCMaWCYY_15"></path>
    <path d="m 67.631559,46.286352 v 36.607749 a 14.710833,14.710833 0 0 0 9.694333,0 V 46.286352 A 16.499416,16.499416 0 0 0 72.478726,34.581186 16.499416,16.499416 0 0 0 67.631559,46.286352 Z" style="opacity: 0.4; fill: rgb(255, 255, 255); stroke-width: 0.958; stroke: rgb(255, 0, 0); stroke-opacity: 1;" id="path627" class="bCMaWCYY_16"></path>
    <path d="m 67.631559,46.286352 v 27.516666 a 17.642416,17.642416 0 0 0 9.694333,0 V 46.286352 A 16.499416,16.499416 0 0 0 72.478726,34.581186 16.499416,16.499416 0 0 0 67.631559,46.286352 Z" style="fill: rgb(64, 123, 255); stroke-width: 0.958; stroke: rgb(255, 0, 0); stroke-opacity: 1;" id="path629" class="bCMaWCYY_17"></path>
    <path d="m 67.631559,46.286352 v 27.516666 a 17.642416,17.642416 0 0 0 9.694333,0 V 46.286352 A 16.499416,16.499416 0 0 0 72.478726,34.581186 16.499416,16.499416 0 0 0 67.631559,46.286352 Z" style="opacity: 0.6; fill: rgb(255, 255, 255); stroke-width: 0.958; stroke: rgb(255, 0, 0); stroke-opacity: 1;" id="path631" class="bCMaWCYY_18"></path>
    <path d="m 67.631559,46.286352 v 14.393333 a 17.547166,17.547166 0 0 0 9.694333,0 V 46.286352 A 16.499416,16.499416 0 0 0 72.478726,34.581186 16.499416,16.499416 0 0 0 67.631559,46.286352 Z" style="fill: rgb(64, 123, 255); stroke-width: 0.958; stroke: rgb(255, 0, 0); stroke-opacity: 1;" id="path633" class="bCMaWCYY_19"></path>
    <path d="m 67.631559,46.286352 v 14.393333 a 17.547166,17.547166 0 0 0 9.694333,0 V 46.286352 A 16.499416,16.499416 0 0 0 72.478726,34.581186 16.499416,16.499416 0 0 0 67.631559,46.286352 Z" style="opacity: 0.8; fill: rgb(255, 255, 255); stroke-width: 0.958; stroke: rgb(255, 0, 0); stroke-opacity: 1;" id="path635" class="bCMaWCYY_20"></path>
    <path d="m 67.631559,46.286352 v 1.68275 a 17.642416,17.642416 0 0 0 9.694333,0 v -1.68275 A 16.499416,16.499416 0 0 0 72.478726,34.581186 16.499416,16.499416 0 0 0 67.631559,46.286352 Z" style="fill: rgb(64, 123, 255); stroke-width: 0.958; stroke: rgb(255, 0, 0); stroke-opacity: 1;" id="path637" class="bCMaWCYY_21"></path>
    <path d="m 67.631559,46.286352 v 1.68275 a 17.642416,17.642416 0 0 0 9.694333,0 v -1.68275 A 16.499416,16.499416 0 0 0 72.478726,34.581186 16.499416,16.499416 0 0 0 67.631559,46.286352 Z" style="opacity: 1; fill: rgb(255, 0, 0); fill-opacity: 1; stroke-width: 0.958; stroke: rgb(255, 0, 0); stroke-opacity: 1;" id="path639" class="bCMaWCYY_22"></path>
    <path d="m 107.24497,90.725768 -1.27,-5.228167 h -4.59316 l -1.28058,5.228167 a 9.3344997,9.3344997 0 0 0 7.14374,0 z" style="fill: rgb(38, 50, 56); stroke-width: 0.958; stroke: rgb(255, 0, 0); stroke-opacity: 1;" id="path641" class="bCMaWCYY_23"></path>
    <path d="m 101.38181,85.497601 -0.29633,1.217084 a 9.1969164,9.1969164 0 0 0 5.18583,0 l -0.29634,-1.217084 z" style="opacity: 0.2; fill: rgb(255, 255, 255); stroke-width: 0.958; stroke: rgb(255, 0, 0); stroke-opacity: 1;" id="path643" class="bCMaWCYY_24"></path>
    <path d="m 100.75739,88.027018 c -0.0741,0.338666 -0.15875,0.66675 -0.23283,0.98425 a 10.583333,10.583333 0 0 0 6.35,0 l -0.24342,-0.98425 a 14.816666,14.816666 0 0 1 -5.87375,0 z" style="opacity: 0.4; fill: rgb(255, 255, 255); stroke-width: 0.958; stroke: rgb(255, 0, 0); stroke-opacity: 1;" id="path645" class="bCMaWCYY_25"></path>
    <path d="m 108.52556,85.127185 a 12.7,12.7 0 0 1 -9.694335,0 V 46.286352 a 16.499416,16.499416 0 0 1 4.847165,-11.705166 16.499416,16.499416 0 0 1 4.84717,11.705166 z" style="fill: rgb(64, 123, 255); stroke-width: 0.958; stroke: rgb(255, 0, 0); stroke-opacity: 1;" id="path647" class="bCMaWCYY_26"></path>
    <path d="m 98.831225,46.286352 v 36.607749 a 14.710833,14.710833 0 0 0 9.694335,0 V 46.286352 a 16.499416,16.499416 0 0 0 -4.84717,-11.705166 16.499416,16.499416 0 0 0 -4.847165,11.705166 z" style="fill: rgb(64, 123, 255); stroke-width: 0.958; stroke: rgb(255, 0, 0); stroke-opacity: 1;" id="path649" class="bCMaWCYY_27"></path>
    <path d="m 98.831225,46.286352 v 36.607749 a 14.710833,14.710833 0 0 0 9.694335,0 V 46.286352 a 16.499416,16.499416 0 0 0 -4.84717,-11.705166 16.499416,16.499416 0 0 0 -4.847165,11.705166 z" style="opacity: 0.4; fill: rgb(255, 255, 255); stroke-width: 0.958; stroke: rgb(255, 0, 0); stroke-opacity: 1;" id="path651" class="bCMaWCYY_28"></path>
    <path d="m 98.831225,46.286352 v 27.516666 a 17.642416,17.642416 0 0 0 9.694335,0 V 46.286352 a 16.499416,16.499416 0 0 0 -4.84717,-11.705166 16.499416,16.499416 0 0 0 -4.847165,11.705166 z" style="fill: rgb(64, 123, 255); stroke-width: 0.958; stroke: rgb(255, 0, 0); stroke-opacity: 1;" id="path653" class="bCMaWCYY_29"></path>
    <path d="m 98.831225,46.286352 v 27.516666 a 17.642416,17.642416 0 0 0 9.694335,0 V 46.286352 a 16.499416,16.499416 0 0 0 -4.84717,-11.705166 16.499416,16.499416 0 0 0 -4.847165,11.705166 z" style="opacity: 0.6; fill: rgb(255, 255, 255); stroke-width: 0.958; stroke: rgb(255, 0, 0); stroke-opacity: 1;" id="path655" class="bCMaWCYY_30"></path>
    <path d="m 98.831225,46.286352 v 14.393333 a 17.547166,17.547166 0 0 0 9.694335,0 V 46.286352 a 16.499416,16.499416 0 0 0 -4.84717,-11.705166 16.499416,16.499416 0 0 0 -4.847165,11.705166 z" style="fill: rgb(64, 123, 255); stroke-width: 0.958; stroke: rgb(255, 0, 0); stroke-opacity: 1;" id="path657" class="bCMaWCYY_31"></path>
    <path d="m 98.831225,46.286352 v 14.393333 a 17.547166,17.547166 0 0 0 9.694335,0 V 46.286352 a 16.499416,16.499416 0 0 0 -4.84717,-11.705166 16.499416,16.499416 0 0 0 -4.847165,11.705166 z" style="opacity: 0.8; fill: rgb(255, 255, 255); stroke-width: 0.958; stroke: rgb(255, 0, 0); stroke-opacity: 1;" id="path659" class="bCMaWCYY_32"></path>
    <path d="m 98.831225,46.286352 v 1.68275 a 17.642416,17.642416 0 0 0 9.694335,0 v -1.68275 a 16.499416,16.499416 0 0 0 -4.84717,-11.705166 16.499416,16.499416 0 0 0 -4.847165,11.705166 z" style="fill: rgb(64, 123, 255); stroke-width: 0.958; stroke: rgb(255, 0, 0); stroke-opacity: 1;" id="path661" class="bCMaWCYY_33"></path>
    <path d="m 98.831225,46.286352 v 1.68275 a 17.642416,17.642416 0 0 0 9.694335,0 v -1.68275 a 16.499416,16.499416 0 0 0 -4.84717,-11.705166 16.499416,16.499416 0 0 0 -4.847165,11.705166 z" style="opacity: 1; fill: rgb(255, 0, 0); fill-opacity: 1; stroke-width: 0.958; stroke: rgb(255, 0, 0); stroke-opacity: 1;" id="path663" class="bCMaWCYY_34"></path>
    <path d="m 93.846475,93.720851 -2.116666,-8.466666 h -7.408333 l -2.06375,8.466666 a 14.975416,14.975416 0 0 0 11.588749,0 z" style="fill: rgb(38, 50, 56); stroke-width: 0.958; stroke: rgb(255, 0, 0); stroke-opacity: 1;" id="path665" class="bCMaWCYY_35"></path>
    <path d="m 84.374392,85.285935 c 0,0 -0.306916,1.27 -0.486833,1.968499 a 14.95425,14.95425 0 0 0 8.382,0 l -0.486834,-1.979083 z" style="opacity: 0.2; fill: rgb(255, 255, 255); stroke-width: 0.958; stroke: rgb(255, 0, 0); stroke-opacity: 1;" id="path667" class="bCMaWCYY_36"></path>
    <path d="m 83.368976,89.381684 -0.381,1.5875 a 17.208499,17.208499 0 0 0 10.181166,0 l -0.381,-1.5875 a 24.341666,24.341666 0 0 1 -9.419166,0 z" style="opacity: 0.4; fill: rgb(255, 255, 255); stroke-width: 0.958; stroke: rgb(255, 0, 0); stroke-opacity: 1;" id="path669" class="bCMaWCYY_37"></path>
    <path d="m 95.910225,84.661518 a 20.341166,20.341166 0 0 1 -15.663333,0 V 21.98702 A 26.638249,26.638249 0 0 1 88.078559,3.0957699 26.638249,26.638249 0 0 1 95.910225,21.98702 Z" style="fill: rgb(64, 123, 255); stroke-width: 0.958; stroke: rgb(255, 0, 0); stroke-opacity: 1;" id="path671" class="bCMaWCYY_38"></path>
    <path d="m 80.246892,21.98702 v 59.107915 a 23.928916,23.928916 0 0 0 15.663333,0 V 21.98702 A 26.638249,26.638249 0 0 0 88.078559,3.0957699 26.638249,26.638249 0 0 0 80.246892,21.98702 Z" style="fill: rgb(64, 123, 255); stroke-width: 0.958; stroke: rgb(255, 0, 0); stroke-opacity: 1;" id="path673" class="bCMaWCYY_39"></path>
    <path d="m 80.246892,21.98702 v 59.107915 a 23.928916,23.928916 0 0 0 15.663333,0 V 21.98702 A 26.638249,26.638249 0 0 0 88.078559,3.0957699 26.638249,26.638249 0 0 0 80.246892,21.98702 Z" style="opacity: 0.4; fill: rgb(255, 255, 255); stroke-width: 0.958; stroke: rgb(255, 0, 0); stroke-opacity: 1;" id="path675" class="bCMaWCYY_40"></path>
    <path d="m 80.246892,21.98702 v 44.386498 a 28.574999,28.574999 0 0 0 15.663333,0 V 21.98702 A 26.638249,26.638249 0 0 0 88.078559,3.0957699 26.638249,26.638249 0 0 0 80.246892,21.98702 Z" style="fill: rgb(64, 123, 255); stroke-width: 0.958; stroke: rgb(255, 0, 0); stroke-opacity: 1;" id="path677" class="bCMaWCYY_41"></path>
    <path d="m 80.246892,21.98702 v 44.386498 a 28.574999,28.574999 0 0 0 15.663333,0 V 21.98702 A 26.638249,26.638249 0 0 0 88.078559,3.0957699 26.638249,26.638249 0 0 0 80.246892,21.98702 Z" style="opacity: 0.6; fill: rgb(255, 255, 255); stroke-width: 0.958; stroke: rgb(255, 0, 0); stroke-opacity: 1;" id="path679" class="bCMaWCYY_42"></path>
    <path d="m 80.246892,21.98702 v 23.283332 a 28.574999,28.574999 0 0 0 15.663333,0 V 21.98702 A 26.638249,26.638249 0 0 0 88.078559,3.0957699 26.638249,26.638249 0 0 0 80.246892,21.98702 Z" style="fill: rgb(64, 123, 255); stroke-width: 0.958; stroke: rgb(255, 0, 0); stroke-opacity: 1;" id="path681" class="bCMaWCYY_43"></path>
    <path d="m 80.246892,21.98702 v 23.283332 a 28.574999,28.574999 0 0 0 15.663333,0 V 21.98702 A 26.638249,26.638249 0 0 0 88.078559,3.0957699 26.638249,26.638249 0 0 0 80.246892,21.98702 Z" style="opacity: 0.8; fill: rgb(255, 255, 255); stroke-width: 0.958; stroke: rgb(255, 0, 0); stroke-opacity: 1;" id="path683" class="bCMaWCYY_44"></path>
    <path d="m 80.246892,21.98702 v 2.719916 a 28.574999,28.574999 0 0 0 15.663333,0 V 21.98702 A 26.638249,26.638249 0 0 0 88.078559,3.0957699 26.638249,26.638249 0 0 0 80.246892,21.98702 Z" style="fill: rgb(64, 123, 255); stroke-width: 0.958; stroke: rgb(255, 0, 0); stroke-opacity: 1;" id="path685" class="bCMaWCYY_45"></path>
    <path d="m 80.246892,21.98702 v 2.719916 a 28.574999,28.574999 0 0 0 15.663333,0 V 21.98702 A 26.638249,26.638249 0 0 0 88.078559,3.0957699 26.638249,26.638249 0 0 0 80.246892,21.98702 Z" style="opacity: 1; fill: rgb(255, 0, 0); fill-opacity: 1; stroke-width: 0.958; stroke: rgb(255, 0, 0); stroke-opacity: 1;" id="path687" class="bCMaWCYY_46"></path>
    <path d="m 92.639975,34.528269 a 4.5614165,4.5614165 0 1 1 -4.561416,-4.550833 4.5614165,4.5614165 0 0 1 4.561416,4.550833 z" style="fill: rgb(255, 0, 0); stroke-width: 0.958; stroke: rgb(255, 0, 0); stroke-opacity: 1;" id="path689" class="bCMaWCYY_47"></path>
    <path style="fill: rgb(255, 255, 255); stroke-width: 0.958; stroke: rgb(255, 0, 0); stroke-opacity: 1;" id="circle695" d="M84.85064349999999,34.528275A3.2279165,3.2279165 0,1,1 91.3064765,34.528275A3.2279165,3.2279165 0,1,1 84.85064349999999,34.528275" class="bCMaWCYY_48"></path>
  </g>
<style data-made-with="vivus-instant">.bCMaWCYY_0{stroke-dasharray:658 660;stroke-dashoffset:659;animation:bCMaWCYY_draw 2000ms linear 0ms forwards;}.bCMaWCYY_1{stroke-dasharray:293 295;stroke-dashoffset:294;animation:bCMaWCYY_draw 2000ms linear 20ms forwards;}.bCMaWCYY_2{stroke-dasharray:58 60;stroke-dashoffset:59;animation:bCMaWCYY_draw 2000ms linear 41ms forwards;}.bCMaWCYY_3{stroke-dasharray:27 29;stroke-dashoffset:28;animation:bCMaWCYY_draw 2000ms linear 62ms forwards;}.bCMaWCYY_4{stroke-dasharray:95 97;stroke-dashoffset:96;animation:bCMaWCYY_draw 2000ms linear 83ms forwards;}.bCMaWCYY_5{stroke-dasharray:103 105;stroke-dashoffset:104;animation:bCMaWCYY_draw 2000ms linear 104ms forwards;}.bCMaWCYY_6{stroke-dasharray:100 102;stroke-dashoffset:101;animation:bCMaWCYY_draw 2000ms linear 125ms forwards;}.bCMaWCYY_7{stroke-dasharray:134 136;stroke-dashoffset:135;animation:bCMaWCYY_draw 2000ms linear 145ms forwards;}.bCMaWCYY_8{stroke-dasharray:134 136;stroke-dashoffset:135;animation:bCMaWCYY_draw 2000ms linear 166ms forwards;}.bCMaWCYY_9{stroke-dasharray:166 168;stroke-dashoffset:167;animation:bCMaWCYY_draw 2000ms linear 187ms forwards;}.bCMaWCYY_10{stroke-dasharray:166 168;stroke-dashoffset:167;animation:bCMaWCYY_draw 2000ms linear 208ms forwards;}.bCMaWCYY_11{stroke-dasharray:23 25;stroke-dashoffset:24;animation:bCMaWCYY_draw 2000ms linear 229ms forwards;}.bCMaWCYY_12{stroke-dasharray:13 15;stroke-dashoffset:14;animation:bCMaWCYY_draw 2000ms linear 250ms forwards;}.bCMaWCYY_13{stroke-dasharray:15 17;stroke-dashoffset:16;animation:bCMaWCYY_draw 2000ms linear 270ms forwards;}.bCMaWCYY_14{stroke-dasharray:114 116;stroke-dashoffset:115;animation:bCMaWCYY_draw 2000ms linear 291ms forwards;}.bCMaWCYY_15{stroke-dasharray:110 112;stroke-dashoffset:111;animation:bCMaWCYY_draw 2000ms linear 312ms forwards;}.bCMaWCYY_16{stroke-dasharray:110 112;stroke-dashoffset:111;animation:bCMaWCYY_draw 2000ms linear 333ms forwards;}.bCMaWCYY_17{stroke-dasharray:91 93;stroke-dashoffset:92;animation:bCMaWCYY_draw 2000ms linear 354ms forwards;}.bCMaWCYY_18{stroke-dasharray:91 93;stroke-dashoffset:92;animation:bCMaWCYY_draw 2000ms linear 375ms forwards;}.bCMaWCYY_19{stroke-dasharray:65 67;stroke-dashoffset:66;animation:bCMaWCYY_draw 2000ms linear 395ms forwards;}.bCMaWCYY_20{stroke-dasharray:65 67;stroke-dashoffset:66;animation:bCMaWCYY_draw 2000ms linear 416ms forwards;}.bCMaWCYY_21{stroke-dasharray:40 42;stroke-dashoffset:41;animation:bCMaWCYY_draw 2000ms linear 437ms forwards;}.bCMaWCYY_22{stroke-dasharray:40 42;stroke-dashoffset:41;animation:bCMaWCYY_draw 2000ms linear 458ms forwards;}.bCMaWCYY_23{stroke-dasharray:23 25;stroke-dashoffset:24;animation:bCMaWCYY_draw 2000ms linear 479ms forwards;}.bCMaWCYY_24{stroke-dasharray:13 15;stroke-dashoffset:14;animation:bCMaWCYY_draw 2000ms linear 500ms forwards;}.bCMaWCYY_25{stroke-dasharray:15 17;stroke-dashoffset:16;animation:bCMaWCYY_draw 2000ms linear 520ms forwards;}.bCMaWCYY_26{stroke-dasharray:114 116;stroke-dashoffset:115;animation:bCMaWCYY_draw 2000ms linear 541ms forwards;}.bCMaWCYY_27{stroke-dasharray:110 112;stroke-dashoffset:111;animation:bCMaWCYY_draw 2000ms linear 562ms forwards;}.bCMaWCYY_28{stroke-dasharray:110 112;stroke-dashoffset:111;animation:bCMaWCYY_draw 2000ms linear 583ms forwards;}.bCMaWCYY_29{stroke-dasharray:91 93;stroke-dashoffset:92;animation:bCMaWCYY_draw 2000ms linear 604ms forwards;}.bCMaWCYY_30{stroke-dasharray:91 93;stroke-dashoffset:92;animation:bCMaWCYY_draw 2000ms linear 625ms forwards;}.bCMaWCYY_31{stroke-dasharray:65 67;stroke-dashoffset:66;animation:bCMaWCYY_draw 2000ms linear 645ms forwards;}.bCMaWCYY_32{stroke-dasharray:65 67;stroke-dashoffset:66;animation:bCMaWCYY_draw 2000ms linear 666ms forwards;}.bCMaWCYY_33{stroke-dasharray:40 42;stroke-dashoffset:41;animation:bCMaWCYY_draw 2000ms linear 687ms forwards;}.bCMaWCYY_34{stroke-dasharray:40 42;stroke-dashoffset:41;animation:bCMaWCYY_draw 2000ms linear 708ms forwards;}.bCMaWCYY_35{stroke-dasharray:37 39;stroke-dashoffset:38;animation:bCMaWCYY_draw 2000ms linear 729ms forwards;}.bCMaWCYY_36{stroke-dasharray:20 22;stroke-dashoffset:21;animation:bCMaWCYY_draw 2000ms linear 750ms forwards;}.bCMaWCYY_37{stroke-dasharray:24 26;stroke-dashoffset:25;animation:bCMaWCYY_draw 2000ms linear 770ms forwards;}.bCMaWCYY_38{stroke-dasharray:184 186;stroke-dashoffset:185;animation:bCMaWCYY_draw 2000ms linear 791ms forwards;}.bCMaWCYY_39{stroke-dasharray:177 179;stroke-dashoffset:178;animation:bCMaWCYY_draw 2000ms linear 812ms forwards;}.bCMaWCYY_40{stroke-dasharray:177 179;stroke-dashoffset:178;animation:bCMaWCYY_draw 2000ms linear 833ms forwards;}.bCMaWCYY_41{stroke-dasharray:147 149;stroke-dashoffset:148;animation:bCMaWCYY_draw 2000ms linear 854ms forwards;}.bCMaWCYY_42{stroke-dasharray:147 149;stroke-dashoffset:148;animation:bCMaWCYY_draw 2000ms linear 875ms forwards;}.bCMaWCYY_43{stroke-dasharray:105 107;stroke-dashoffset:106;animation:bCMaWCYY_draw 2000ms linear 895ms forwards;}.bCMaWCYY_44{stroke-dasharray:105 107;stroke-dashoffset:106;animation:bCMaWCYY_draw 2000ms linear 916ms forwards;}.bCMaWCYY_45{stroke-dasharray:64 66;stroke-dashoffset:65;animation:bCMaWCYY_draw 2000ms linear 937ms forwards;}.bCMaWCYY_46{stroke-dasharray:64 66;stroke-dashoffset:65;animation:bCMaWCYY_draw 2000ms linear 958ms forwards;}.bCMaWCYY_47{stroke-dasharray:29 31;stroke-dashoffset:30;animation:bCMaWCYY_draw 2000ms linear 979ms forwards;}.bCMaWCYY_48{stroke-dasharray:21 23;stroke-dashoffset:22;animation:bCMaWCYY_draw 2000ms linear 1000ms forwards;}@keyframes bCMaWCYY_draw{100%{stroke-dashoffset:0;}}@keyframes bCMaWCYY_fade{0%{stroke-opacity:1;}94.44444444444444%{stroke-opacity:1;}100%{stroke-opacity:0;}}</style></svg>
