<?xml version="1.0" encoding="UTF-8" standalone="no"?>
<!-- Created with Inkscape (http://www.inkscape.org/) -->

<svg
   width="220.90591mm"
   height="207.65558mm"
   viewBox="0 0 220.90591 207.65558"
   version="1.1"
   id="svg1114"
   inkscape:version="1.2.2 (732a01da63, 2022-12-09)"
   sodipodi:docname="drawingQZZZZZ.svg"
   xmlns:inkscape="http://www.inkscape.org/namespaces/inkscape"
   xmlns:sodipodi="http://sodipodi.sourceforge.net/DTD/sodipodi-0.dtd"
   xmlns="http://www.w3.org/2000/svg"
   xmlns:svg="http://www.w3.org/2000/svg">
  <sodipodi:namedview
     id="namedview1116"
     pagecolor="#ffffff"
     bordercolor="#000000"
     borderopacity="0.25"
     inkscape:showpageshadow="2"
     inkscape:pageopacity="0.0"
     inkscape:pagecheckerboard="0"
     inkscape:deskcolor="#d1d1d1"
     inkscape:document-units="mm"
     showgrid="false"
     inkscape:zoom="0.23028549"
     inkscape:cx="438.58603"
     inkscape:cy="495.03769"
     inkscape:window-width="1366"
     inkscape:window-height="697"
     inkscape:window-x="-8"
     inkscape:window-y="-8"
     inkscape:window-maximized="1"
     inkscape:current-layer="layer1" />
  <defs
     id="defs1111" />
  <g
     inkscape:label="Layer 1"
     inkscape:groupmode="layer"
     id="layer1"
     transform="translate(24.856188,-3.0957699)">
    <path
       d="m 196.04972,156.54351 c -5.43983,-1.05833 -14.05466,2.46592 -15.66333,7.75758 a 8.4666664,8.4666664 0 0 0 -4.07458,-8.21266 c -2.80459,-1.61925 -6.477,-2.76225 -9.05934,-0.81492 a 28.765499,28.765499 0 0 0 -9.5885,-28.69142 c -8.27616,-6.69924 -20.35175,-7.40832 -29.9085,-2.74108 A 20.499916,20.499916 0 0 0 115.75397,94.832101 87.312497,87.312497 0 0 0 74.320226,90.905684 c -8.053916,1.185334 -16.266583,3.704167 -22.119166,9.355666 -5.852583,5.6515 -7.408333,15.875 -3.471333,22.99758 a 26.130249,26.130249 0 0 0 -26.352499,6.23358 25.802166,25.802166 0 0 0 -5.74675,26.27842 8.7100831,8.7100831 0 0 0 -8.3079167,-0.3175 8.4666664,8.4666664 0 0 0 -4.6037498,6.80508 17.494249,17.494249 0 0 0 -28.5749995,0.97367 v 47.51916 H 194.80089 Z"
       style="opacity:0.5;fill:#ffffff;stroke-width:1.05833"
       id="path585" />
    <rect
       x="23.520231"
       y="135.68376"
       width="134.00616"
       height="20.849167"
       rx="10.424583"
       style="fill:#ffffff;stroke-width:1.05833"
       id="rect587" />
    <path
       d="m 33.299227,150.09826 a 6.1594998,6.1594998 0 1 1 6.1595,-6.1595 6.1700831,6.1700831 0 0 1 -6.1595,6.1595 z m 0,-9.144 a 2.9844999,2.9844999 0 1 0 2.9845,2.9845 2.9950832,2.9950832 0 0 0 -2.9845,-2.9845 z"
       style="fill:#263238;stroke-width:1.05833"
       id="path589" />
    <rect
       x="-79.851486"
       y="129.94203"
       width="3.175"
       height="10.318749"
       transform="rotate(-44.96)"
       style="fill:#263238;stroke-width:1.05833"
       id="rect591" />
    <g
       style="opacity:0.1"
       id="g597"
       transform="matrix(1.0583333,0,0,1.0583333,-160.7991,-140.76348)">
      <polygon
         points="284.37,332.14 268.47,204.99 276.13,204.99 292.04,332.14 "
         style="fill:#ffffff"
         id="polygon593" />
      <polygon
         points="328.6,332.14 299.79,332.14 283.89,204.99 312.7,204.99 "
         style="fill:#ffffff"
         id="polygon595" />
    </g>
    <path
       d="m 63.85331,123.17426 1.4605,-3.24908 a 10.974916,10.974916 0 0 0 6.148916,1.94733 c 2.550583,0 3.58775,-0.85725 3.58775,-2.00025 0,-3.48191 -10.82675,-1.05833 -10.82675,-8.00099 0,-3.175 2.550583,-5.79967 7.84225,-5.79967 a 12.47775,12.47775 0 0 1 6.466416,1.651 l -1.333499,3.27025 a 10.4775,10.4775 0 0 0 -5.164667,-1.4605 c -2.550583,0 -3.534833,0.9525 -3.534833,2.11667 0,3.429 10.826749,1.05833 10.826749,7.89516 0,3.1115 -2.582333,5.7785 -7.905749,5.7785 a 13.23975,13.23975 0 0 1 -7.567083,-2.14842 z"
       style="fill:#ff1206;fill-opacity:1;stroke-width:1.05833"
       id="path603" />
    <path
       d="m 96.703975,121.55501 v 3.45017 H 82.289476 V 106.3891 h 14.086416 v 3.46075 h -9.789583 v 4.04283 h 8.646583 v 3.35492 h -8.646583 v 4.30741 z"
       style="fill:#ff0400;fill-opacity:1;stroke-width:1.05833"
       id="path605" />
    <path
       d="m 98.915892,115.70243 c 0,-5.53508 4.307418,-9.63083 10.181168,-9.63083 5.87375,0 10.19175,4.07458 10.19175,9.63083 0,5.55625 -4.33917,9.63083 -10.19175,9.63083 -5.85258,0 -10.181168,-4.09575 -10.181168,-9.63083 z m 16.012578,0 a 5.8314165,5.8314165 0 1 0 -5.85258,6.00075 5.6832498,5.6832498 0 0 0 5.85258,-6.00075 z"
       style="fill:#ff0c00;fill-opacity:1;stroke-width:1.05833"
       id="path607" />
    <rect
       x="36.230808"
       y="170.21718"
       width="52.810833"
       height="17.5895"
       rx="4.0745831"
       style="opacity:1;fill:#ffffff;stroke-width:1.05833"
       id="rect609" />
    <rect
       x="101.0008"
       y="170.21718"
       width="52.810833"
       height="17.5895"
       rx="4.0745831"
       style="opacity:1;fill:#ffffff;stroke-width:1.05833"
       id="rect611" />
    <path
       d="M 61.366226,82.185018 87.602309,35.618353 a 1.0583333,1.0583333 0 0 1 1.8415,0 l 26.236081,46.566665 a 1.0583333,1.0583333 0 0 1 -0.92075,1.566333 H 62.29756 a 1.0583333,1.0583333 0 0 1 -0.931334,-1.566333 z"
       style="fill:#407bff;stroke-width:1.05833"
       id="path613" />
    <path
       d="M 61.366226,82.185018 87.602309,35.618353 a 1.0583333,1.0583333 0 0 1 1.8415,0 l 26.236081,46.566665 a 1.0583333,1.0583333 0 0 1 -0.92075,1.566333 H 62.29756 a 1.0583333,1.0583333 0 0 1 -0.931334,-1.566333 z"
       style="opacity:1;fill:#ff0000;stroke-width:1.05833"
       id="path615" />
    <path
       d="m 76.055893,90.725768 -1.280584,-5.228167 h -4.593166 l -1.27,5.228167 a 9.3344997,9.3344997 0 0 0 7.14375,0 z"
       style="fill:#263238;stroke-width:1.05833"
       id="path617" />
    <path
       d="m 70.182143,85.497601 -0.296334,1.217084 a 9.1969164,9.1969164 0 0 0 5.185834,0 l -0.296334,-1.217084 z"
       style="opacity:0.2;fill:#ffffff;stroke-width:1.05833"
       id="path619" />
    <path
       d="m 69.568309,88.027018 c -0.08467,0.338666 -0.169333,0.66675 -0.243416,0.98425 a 10.583333,10.583333 0 0 0 6.35,0 l -0.232834,-0.98425 a 14.816666,14.816666 0 0 1 -5.87375,0 z"
       style="opacity:0.4;fill:#ffffff;stroke-width:1.05833"
       id="path621" />
    <path
       d="m 77.325892,85.127185 a 12.7,12.7 0 0 1 -9.694333,0 V 46.286352 a 16.499416,16.499416 0 0 1 4.847167,-11.705166 16.499416,16.499416 0 0 1 4.847167,11.705166 z"
       style="fill:#407bff;stroke-width:1.05833"
       id="path623" />
    <path
       d="m 67.631559,46.286352 v 36.607749 a 14.710833,14.710833 0 0 0 9.694333,0 V 46.286352 A 16.499416,16.499416 0 0 0 72.478726,34.581186 16.499416,16.499416 0 0 0 67.631559,46.286352 Z"
       style="fill:#407bff;stroke-width:1.05833"
       id="path625" />
    <path
       d="m 67.631559,46.286352 v 36.607749 a 14.710833,14.710833 0 0 0 9.694333,0 V 46.286352 A 16.499416,16.499416 0 0 0 72.478726,34.581186 16.499416,16.499416 0 0 0 67.631559,46.286352 Z"
       style="opacity:0.4;fill:#ffffff;stroke-width:1.05833"
       id="path627" />
    <path
       d="m 67.631559,46.286352 v 27.516666 a 17.642416,17.642416 0 0 0 9.694333,0 V 46.286352 A 16.499416,16.499416 0 0 0 72.478726,34.581186 16.499416,16.499416 0 0 0 67.631559,46.286352 Z"
       style="fill:#407bff;stroke-width:1.05833"
       id="path629" />
    <path
       d="m 67.631559,46.286352 v 27.516666 a 17.642416,17.642416 0 0 0 9.694333,0 V 46.286352 A 16.499416,16.499416 0 0 0 72.478726,34.581186 16.499416,16.499416 0 0 0 67.631559,46.286352 Z"
       style="opacity:0.6;fill:#ffffff;stroke-width:1.05833"
       id="path631" />
    <path
       d="m 67.631559,46.286352 v 14.393333 a 17.547166,17.547166 0 0 0 9.694333,0 V 46.286352 A 16.499416,16.499416 0 0 0 72.478726,34.581186 16.499416,16.499416 0 0 0 67.631559,46.286352 Z"
       style="fill:#407bff;stroke-width:1.05833"
       id="path633" />
    <path
       d="m 67.631559,46.286352 v 14.393333 a 17.547166,17.547166 0 0 0 9.694333,0 V 46.286352 A 16.499416,16.499416 0 0 0 72.478726,34.581186 16.499416,16.499416 0 0 0 67.631559,46.286352 Z"
       style="opacity:0.8;fill:#ffffff;stroke-width:1.05833"
       id="path635" />
    <path
       d="m 67.631559,46.286352 v 1.68275 a 17.642416,17.642416 0 0 0 9.694333,0 v -1.68275 A 16.499416,16.499416 0 0 0 72.478726,34.581186 16.499416,16.499416 0 0 0 67.631559,46.286352 Z"
       style="fill:#407bff;stroke-width:1.05833"
       id="path637" />
    <path
       d="m 67.631559,46.286352 v 1.68275 a 17.642416,17.642416 0 0 0 9.694333,0 v -1.68275 A 16.499416,16.499416 0 0 0 72.478726,34.581186 16.499416,16.499416 0 0 0 67.631559,46.286352 Z"
       style="opacity:1;fill:#ff0000;fill-opacity:1;stroke-width:1.05833"
       id="path639" />
    <path
       d="m 107.24497,90.725768 -1.27,-5.228167 h -4.59316 l -1.28058,5.228167 a 9.3344997,9.3344997 0 0 0 7.14374,0 z"
       style="fill:#263238;stroke-width:1.05833"
       id="path641" />
    <path
       d="m 101.38181,85.497601 -0.29633,1.217084 a 9.1969164,9.1969164 0 0 0 5.18583,0 l -0.29634,-1.217084 z"
       style="opacity:0.2;fill:#ffffff;stroke-width:1.05833"
       id="path643" />
    <path
       d="m 100.75739,88.027018 c -0.0741,0.338666 -0.15875,0.66675 -0.23283,0.98425 a 10.583333,10.583333 0 0 0 6.35,0 l -0.24342,-0.98425 a 14.816666,14.816666 0 0 1 -5.87375,0 z"
       style="opacity:0.4;fill:#ffffff;stroke-width:1.05833"
       id="path645" />
    <path
       d="m 108.52556,85.127185 a 12.7,12.7 0 0 1 -9.694335,0 V 46.286352 a 16.499416,16.499416 0 0 1 4.847165,-11.705166 16.499416,16.499416 0 0 1 4.84717,11.705166 z"
       style="fill:#407bff;stroke-width:1.05833"
       id="path647" />
    <path
       d="m 98.831225,46.286352 v 36.607749 a 14.710833,14.710833 0 0 0 9.694335,0 V 46.286352 a 16.499416,16.499416 0 0 0 -4.84717,-11.705166 16.499416,16.499416 0 0 0 -4.847165,11.705166 z"
       style="fill:#407bff;stroke-width:1.05833"
       id="path649" />
    <path
       d="m 98.831225,46.286352 v 36.607749 a 14.710833,14.710833 0 0 0 9.694335,0 V 46.286352 a 16.499416,16.499416 0 0 0 -4.84717,-11.705166 16.499416,16.499416 0 0 0 -4.847165,11.705166 z"
       style="opacity:0.4;fill:#ffffff;stroke-width:1.05833"
       id="path651" />
    <path
       d="m 98.831225,46.286352 v 27.516666 a 17.642416,17.642416 0 0 0 9.694335,0 V 46.286352 a 16.499416,16.499416 0 0 0 -4.84717,-11.705166 16.499416,16.499416 0 0 0 -4.847165,11.705166 z"
       style="fill:#407bff;stroke-width:1.05833"
       id="path653" />
    <path
       d="m 98.831225,46.286352 v 27.516666 a 17.642416,17.642416 0 0 0 9.694335,0 V 46.286352 a 16.499416,16.499416 0 0 0 -4.84717,-11.705166 16.499416,16.499416 0 0 0 -4.847165,11.705166 z"
       style="opacity:0.6;fill:#ffffff;stroke-width:1.05833"
       id="path655" />
    <path
       d="m 98.831225,46.286352 v 14.393333 a 17.547166,17.547166 0 0 0 9.694335,0 V 46.286352 a 16.499416,16.499416 0 0 0 -4.84717,-11.705166 16.499416,16.499416 0 0 0 -4.847165,11.705166 z"
       style="fill:#407bff;stroke-width:1.05833"
       id="path657" />
    <path
       d="m 98.831225,46.286352 v 14.393333 a 17.547166,17.547166 0 0 0 9.694335,0 V 46.286352 a 16.499416,16.499416 0 0 0 -4.84717,-11.705166 16.499416,16.499416 0 0 0 -4.847165,11.705166 z"
       style="opacity:0.8;fill:#ffffff;stroke-width:1.05833"
       id="path659" />
    <path
       d="m 98.831225,46.286352 v 1.68275 a 17.642416,17.642416 0 0 0 9.694335,0 v -1.68275 a 16.499416,16.499416 0 0 0 -4.84717,-11.705166 16.499416,16.499416 0 0 0 -4.847165,11.705166 z"
       style="fill:#407bff;stroke-width:1.05833"
       id="path661" />
    <path
       d="m 98.831225,46.286352 v 1.68275 a 17.642416,17.642416 0 0 0 9.694335,0 v -1.68275 a 16.499416,16.499416 0 0 0 -4.84717,-11.705166 16.499416,16.499416 0 0 0 -4.847165,11.705166 z"
       style="opacity:1;fill:#ff0000;fill-opacity:1;stroke-width:1.05833"
       id="path663" />
    <path
       d="m 93.846475,93.720851 -2.116666,-8.466666 h -7.408333 l -2.06375,8.466666 a 14.975416,14.975416 0 0 0 11.588749,0 z"
       style="fill:#263238;stroke-width:1.05833"
       id="path665" />
    <path
       d="m 84.374392,85.285935 c 0,0 -0.306916,1.27 -0.486833,1.968499 a 14.95425,14.95425 0 0 0 8.382,0 l -0.486834,-1.979083 z"
       style="opacity:0.2;fill:#ffffff;stroke-width:1.05833"
       id="path667" />
    <path
       d="m 83.368976,89.381684 -0.381,1.5875 a 17.208499,17.208499 0 0 0 10.181166,0 l -0.381,-1.5875 a 24.341666,24.341666 0 0 1 -9.419166,0 z"
       style="opacity:0.4;fill:#ffffff;stroke-width:1.05833"
       id="path669" />
    <path
       d="m 95.910225,84.661518 a 20.341166,20.341166 0 0 1 -15.663333,0 V 21.98702 A 26.638249,26.638249 0 0 1 88.078559,3.0957699 26.638249,26.638249 0 0 1 95.910225,21.98702 Z"
       style="fill:#407bff;stroke-width:1.05833"
       id="path671" />
    <path
       d="m 80.246892,21.98702 v 59.107915 a 23.928916,23.928916 0 0 0 15.663333,0 V 21.98702 A 26.638249,26.638249 0 0 0 88.078559,3.0957699 26.638249,26.638249 0 0 0 80.246892,21.98702 Z"
       style="fill:#407bff;stroke-width:1.05833"
       id="path673" />
    <path
       d="m 80.246892,21.98702 v 59.107915 a 23.928916,23.928916 0 0 0 15.663333,0 V 21.98702 A 26.638249,26.638249 0 0 0 88.078559,3.0957699 26.638249,26.638249 0 0 0 80.246892,21.98702 Z"
       style="opacity:0.4;fill:#ffffff;stroke-width:1.05833"
       id="path675" />
    <path
       d="m 80.246892,21.98702 v 44.386498 a 28.574999,28.574999 0 0 0 15.663333,0 V 21.98702 A 26.638249,26.638249 0 0 0 88.078559,3.0957699 26.638249,26.638249 0 0 0 80.246892,21.98702 Z"
       style="fill:#407bff;stroke-width:1.05833"
       id="path677" />
    <path
       d="m 80.246892,21.98702 v 44.386498 a 28.574999,28.574999 0 0 0 15.663333,0 V 21.98702 A 26.638249,26.638249 0 0 0 88.078559,3.0957699 26.638249,26.638249 0 0 0 80.246892,21.98702 Z"
       style="opacity:0.6;fill:#ffffff;stroke-width:1.05833"
       id="path679" />
    <path
       d="m 80.246892,21.98702 v 23.283332 a 28.574999,28.574999 0 0 0 15.663333,0 V 21.98702 A 26.638249,26.638249 0 0 0 88.078559,3.0957699 26.638249,26.638249 0 0 0 80.246892,21.98702 Z"
       style="fill:#407bff;stroke-width:1.05833"
       id="path681" />
    <path
       d="m 80.246892,21.98702 v 23.283332 a 28.574999,28.574999 0 0 0 15.663333,0 V 21.98702 A 26.638249,26.638249 0 0 0 88.078559,3.0957699 26.638249,26.638249 0 0 0 80.246892,21.98702 Z"
       style="opacity:0.8;fill:#ffffff;stroke-width:1.05833"
       id="path683" />
    <path
       d="m 80.246892,21.98702 v 2.719916 a 28.574999,28.574999 0 0 0 15.663333,0 V 21.98702 A 26.638249,26.638249 0 0 0 88.078559,3.0957699 26.638249,26.638249 0 0 0 80.246892,21.98702 Z"
       style="fill:#407bff;stroke-width:1.05833"
       id="path685" />
    <path
       d="m 80.246892,21.98702 v 2.719916 a 28.574999,28.574999 0 0 0 15.663333,0 V 21.98702 A 26.638249,26.638249 0 0 0 88.078559,3.0957699 26.638249,26.638249 0 0 0 80.246892,21.98702 Z"
       style="opacity:1;fill:#ff0000;fill-opacity:1;stroke-width:1.05833"
       id="path687" />
    <path
       d="m 92.639975,34.528269 a 4.5614165,4.5614165 0 1 1 -4.561416,-4.550833 4.5614165,4.5614165 0 0 1 4.561416,4.550833 z"
       style="fill:#ff0000;stroke-width:1.05833"
       id="path689" />
    <path
       d="m 88.078559,39.089686 a 4.5402499,4.5402499 0 0 1 -4.54025,-4.233333 c 0,0.116416 0,0.232833 0,0.338666 a 4.5614165,4.5614165 0 0 0 9.122833,0 c 0,-0.105833 0,-0.22225 0,-0.338666 a 4.5508332,4.5508332 0 0 1 -4.582583,4.233333 z"
       style="fill:#407bff;stroke-width:1.05833"
       id="path691" />
    <path
       d="m 88.078559,39.089686 a 4.5402499,4.5402499 0 0 1 -4.54025,-4.233333 c 0,0.116416 0,0.232833 0,0.338666 a 4.5614165,4.5614165 0 0 0 9.122833,0 c 0,-0.105833 0,-0.22225 0,-0.338666 a 4.5508332,4.5508332 0 0 1 -4.582583,4.233333 z"
       style="opacity:1;fill:#d40000;stroke-width:1.05833"
       id="path693" />
    <circle
       cx="88.07856"
       cy="34.528275"
       r="3.2279165"
       style="fill:#ffffff;stroke-width:1.05833"
       id="circle695" />
    <path
       d="m 87.909225,37.735019 1.322917,-6.201833 A 3.0479999,3.0479999 0 0 0 88.173809,31.32152 l -1.322917,6.191249 a 3.0162499,3.0162499 0 0 0 1.058333,0.22225 z"
       style="fill:#407bff;stroke-width:1.05833"
       id="path697" />
    <path
       d="m 89.115725,37.576269 1.143,-5.408083 a 3.1749999,3.1749999 0 0 0 -0.47625,-0.359833 l -1.259416,5.9055 a 3.7041665,3.7041665 0 0 0 0.592666,-0.137584 z"
       style="fill:#407bff;stroke-width:1.05833"
       id="path699" />
    <g
       style="opacity:0.7"
       id="g705"
       transform="matrix(1.0583333,0,0,1.0583333,-160.7991,-140.76348)">
      <path
         d="m 235,168.66 1.25,-5.86 a 2.88,2.88 0 0 0 -1,-0.2 l -1.25,5.85 a 2.85,2.85 0 0 0 1,0.21 z"
         style="fill:#ffffff"
         id="path701" />
      <path
         d="m 236.14,168.51 1.08,-5.11 a 3,3 0 0 0 -0.45,-0.34 l -1.19,5.58 a 3.5,3.5 0 0 0 0.56,-0.13 z"
         style="fill:#ffffff"
         id="path703" />
    </g>
  </g>
</svg>
