<svg xmlns="http://www.w3.org/2000/svg" width="500" height="500" style="width: 100%; height: 100%; content-visibility: visible;"><defs><clipPath id="a"><path d="M0 0h500v500H0z" class="pMYAEAUL_0"></path></clipPath></defs><g display="block" clip-path="url(#a)"><path stroke-linecap="round" stroke-linejoin="round" stroke="#2F80E8" stroke-width="12.04" d="M436.806 374.269H311.732V125.731h125.074v248.538zM219.511 189.875c0 15.506 12.571 28.077 28.077 28.077 15.506 0 28.077-12.571 28.077-28.077 0-15.506-12.571-28.077-28.077-28.077-15.506 0-28.077 12.571-28.077 28.077zm127.514 5.668h57.046m-57.046 58.396h57.046m-57.046 58.397h57.046" fill="none" class="pMYAEAUL_1"></path><path stroke-linecap="round" stroke-linejoin="round" stroke="#FFF" stroke-width="12.04" d="M311.732 374.269H63.194V125.731h248.538v248.538zm-73.344-43.859l-74.595-129.207-99.916 173.063m149.197.003l49.305-85.4 49.305 85.4" fill="none" class="pMYAEAUL_2"></path><path stroke-linecap="round" stroke-linejoin="round" stroke="#FFF" stroke-width="22.96" d="M382.613 195.543h.012m-16.034 58.397h.012m16.01 58.396h.012" fill="none" class="pMYAEAUL_3"></path></g><style data-made-with="vivus-instant">.pMYAEAUL_0{stroke-dasharray:2000 2002;stroke-dashoffset:2001;animation:pMYAEAUL_draw_0 7200ms ease-in-out 0ms infinite,pMYAEAUL_fade 7200ms linear 0ms infinite;}.pMYAEAUL_1{stroke-dasharray:1095 1097;stroke-dashoffset:1096;animation:pMYAEAUL_draw_1 7200ms ease-in-out 0ms infinite,pMYAEAUL_fade 7200ms linear 0ms infinite;}.pMYAEAUL_2{stroke-dasharray:1541 1543;stroke-dashoffset:1542;animation:pMYAEAUL_draw_2 7200ms ease-in-out 0ms infinite,pMYAEAUL_fade 7200ms linear 0ms infinite;}.pMYAEAUL_3{stroke-dasharray:1 3;stroke-dashoffset:2;animation:pMYAEAUL_draw_3 7200ms ease-in-out 0ms infinite,pMYAEAUL_fade 7200ms linear 0ms infinite;}@keyframes pMYAEAUL_draw{100%{stroke-dashoffset:0;}}@keyframes pMYAEAUL_fade{0%{stroke-opacity:1;}94.44444444444444%{stroke-opacity:1;}100%{stroke-opacity:0;}}@keyframes pMYAEAUL_draw_0{11.11111111111111%{stroke-dashoffset: 2001}38.88888888888889%{ stroke-dashoffset: 0;}100%{ stroke-dashoffset: 0;}}@keyframes pMYAEAUL_draw_1{15.740740740740739%{stroke-dashoffset: 1096}43.51851851851851%{ stroke-dashoffset: 0;}100%{ stroke-dashoffset: 0;}}@keyframes pMYAEAUL_draw_2{20.37037037037037%{stroke-dashoffset: 1542}48.148148148148145%{ stroke-dashoffset: 0;}100%{ stroke-dashoffset: 0;}}@keyframes pMYAEAUL_draw_3{25%{stroke-dashoffset: 2}52.77777777777778%{ stroke-dashoffset: 0;}100%{ stroke-dashoffset: 0;}}</style></svg>