<svg xmlns="http://www.w3.org/2000/svg" xmlns:xlink="http://www.w3.org/1999/xlink" viewBox="0 0 500 500" xmlns:v="https://vecta.io/nano"><style><![CDATA[.L{fill:#263238}.M{fill:#fff}.N{fill:#06f}.O{fill:#f5f5f5}.P{fill:#59f}.Q{fill:#455a64}.R{fill:#2a7fff}.S{opacity:.6}.T{fill:#eb996e}.U{fill:#ffbe9d}.V{fill:#ebebeb}]]></style><defs><linearGradient id="A" x1="-506.288" y1="135.105" x2="490.369" y2="244.6" gradientUnits="userSpaceOnUse"><stop offset="0" stop-color="#0684ff"/><stop offset="1" stop-color="#0684ff" stop-opacity="0"/></linearGradient><path id="B" d="M215.68,244.68a1.33,1.33,0,0,1,2.66,0,1.33,1.33,0,1,1-2.66,0Z"/><path id="C" d="M259.84,435.62a5.2,5.2,0,0,1-4.41-5.88L261.86,385a4.32,4.32,0,0,1,5-3.49l4.2.61a4.5,4.5,0,0,0,4.34-1.82l1.17-1.71a4.5,4.5,0,0,1,4.34-1.82l20,2.87a4.52,4.52,0,0,1,3.5,2.57l.76,1.7a4.52,4.52,0,0,0,3.49,2.57l25.45,3.66a4.31,4.31,0,0,1,3.81,4.75l-6.58,45.75a5.19,5.19,0,0,1-5.88,4.4Z"/><path id="D" d="M375.93,415.74a3.42,3.42,0,0,1-4.41-2l-10.6-27.7a2.82,2.82,0,0,1,1.75-3.59l2.6-1a3,3,0,0,0,1.91-2.43l.12-1.35a2.94,2.94,0,0,1,1.91-2.43l12.36-4.74a3,3,0,0,1,2.83.36l1,.73a3,3,0,0,0,2.82.36l15.76-6a2.84,2.84,0,0,1,3.71,1.51l10.84,28.33a3.41,3.41,0,0,1-2,4.41Z"/><path id="E" d="M119.5 172.28a1.37 1.37 0 0 1-1.18 1.51 1.3 1.3 0 0 1-1.53-1.09 1.37 1.37 0 0 1 1.18-1.51 1.31 1.31 0 0 1 1.53 1.09z"/></defs><path d="M452.43 345.3l-41.07-15.64a5.51 5.51 0 0 1-3.19-7.1l21.65-56.84a5.51 5.51 0 0 1 7.1-3.19l26.08 9.92 12.25 28.46-15.7 41.21a5.49 5.49 0 0 1-7.12 3.18z" fill="#e6e6e6"/><path d="M463,272.45l-6.1,16a5.12,5.12,0,0,0,3,6.6l15.39,5.86Z" class="P"/><path d="M453.68 286.49c-.08.2-4.4-1.25-9.64-3.25s-9.44-3.78-9.36-4 4.39 1.25 9.64 3.25 9.44 3.79 9.36 4z" class="N"/><path d="M462.51 300.21c-.08.2-7.15-2.3-15.78-5.59s-15.58-6.12-15.5-6.32 7.14 2.29 15.78 5.58 15.57 6.12 15.5 6.33zm-.07 8.62c-.07.21-7.77-2.53-17.18-6.12s-17-6.65-16.9-6.86 7.77 2.53 17.18 6.12 16.98 6.66 16.9 6.86z" class="R"/><path d="M459.73 316c-.08.21-7.77-2.53-17.18-6.12s-17-6.66-16.91-6.86 7.77 2.53 17.19 6.12 16.98 6.61 16.9 6.86zm-2.73 7.09c-.08.2-7.78-2.54-17.19-6.12s-17-6.66-16.9-6.87 7.77 2.54 17.18 6.12 17 6.66 16.91 6.87z" class="N"/><path d="M454.3 330.21c-.08.21-7.77-2.53-17.18-6.11s-17-6.66-16.91-6.87 7.77 2.53 17.19 6.12 16.98 6.65 16.9 6.86z" class="P"/><g class="O"><path d="M258 162.9l-.43-3.73-.59-3.91.59 3.91.43 3.73zm-10.06 15.46c-1.08-2.44-1.32-5.14-2-7.71a5.09 5.09 0 0 0-2.31-3.45 21.17 21.17 0 0 0-2.78-.63c-3.26-1-4.14-5.52-7.23-6.93a10.33 10.33 0 0 0-3.1-.65c-4.13-.49-8.41-1.92-11-5.16a20.46 20.46 0 0 0-2.55-3.14c-1.06-.85-2.7-1.22-3.73-.35q1.31 2.63 2.58 5.22a13.77 13.77 0 0 0 2.9 4.34 4.64 4.64 0 0 0 4.86 1 3.24 3.24 0 0 1 1.64-.57 1.76 1.76 0 0 1 1.06.68c2.25 2.49 1.52 6.62-.68 9.17s-5.42 3.85-8.54 5.09a6.69 6.69 0 0 1-3.49.68c-2.16-.4-3.31-2.76-3.94-4.87-1.41-4.67-2.09-9.74-5-13.68a16.67 16.67 0 0 1-2.63-3.82c-.6-1.57-.46-3.4-1.4-4.77s-3.05-2.29-3.19-4a3.19 3.19 0 0 1 2-2.83c1.12-.54 2.37-.69 3.52-1.16.45-.2 1-.53 1-1 0-.74-1-1-1.28-1.71s.51-1.49.84-2.23c.72-1.71-1.06-3.44-2.79-4.14s-3.78-1.2-4.58-2.87a10 10 0 0 1-.56-2.5 5.45 5.45 0 0 0-4.08-4.49c-2.14-.35-4.51 1.55-4.17 3.68.21 1.16 1.09 2.07 1.56 3.15s.34 2.69-.77 3c-1.83.56-3.59-2.79-5.13-1.63l1.87 6.45c-2.41 1.22-5.28-1-6.31-3.51s-1.07-5.35-2.29-7.76-4.51-4.21-6.6-2.51c-.11 3.11 4 4.36 5.8 6.87 1.31 1.82 1.12 4.76-.82 5.91s-5-.85-4.23-3c.26-.73.87-1.34.94-2.13.07-1-.75-1.76-1.5-2.39l-3.5-2.94a7.38 7.38 0 0 0-2.5-1.57c-2.4-.7-4.81 1.25-6.08 3.4s-2 4.69-3.75 6.48c-2.53 2.62-7.32 2.77-9.69 0s-1.17-7.87 2.33-8.86c1.33-.36 3-.33 3.7-1.5 1.22-2.07-2.27-4.72-1.06-6.81.92-1.61 3.36-.88 5.14-1.42s2.75-2.31 3.8-3.85 2.65-3 4.46-2.65a5.58 5.58 0 0 1 .19-3.17 2 2 0 0 1 2.67-1c-.89 1.47.18 3.51 1.73 4.24a9.35 9.35 0 0 0 5.07.36c1.71-.2 3.85-.83 4-2.54 0-.56-.16-1.15 0-1.67.75-2 4.52.76 6-.88.83-.85-.09-2.37-1.26-2.65s-2.35.14-3.54.18-2.63-.58-2.68-1.76 1.25-2 1.39-3.16c.23-2-3.08-2.45-4.25-.87s-.75 3.77-.4 5.7.54 4.22-.89 5.58c-.61.92-2.2.44-2.72-.54a7.92 7.92 0 0 1-.51-3.26c-.08-1.12-.57-2.37-1.65-2.67a6 6 0 0 0-2.32.26c-3 .37-5.14-3.55-4.19-6.45s3.7-4.77 6.37-6.25c2-1.08 4.37-2.1 6.31-1 .9.51 1.53 1.38 2.42 1.9 1.54.91 3.44.58 5.2.61a12.13 12.13 0 0 1 7.58 3c.78.71 1.52 1.9.91 2.75s-2.57 1.1-2.24 2.16a3.78 3.78 0 0 0 4.75-3 3.2 3.2 0 0 1 1.83 2.58 5.66 5.66 0 0 1 8.28.68 7.09 7.09 0 0 0 1.53 2c.7.46 1.92.23 2-.59a1.88 1.88 0 0 0-.14-.77l-1.28-3.52c1.63-.87 3.54.49 4.64 2 4.08 5.45 7 2.17 12.74 3.06 3.89.6 5.6 3.09 7.8 6.1 6.73 9.28 15.62 16.88 21.74 26.57.64 1 1.23 2 1.79 3.09-.1-.26-.19-.53-.3-.79a106.71 106.71 0 0 0-8.89-18.07c-.75-1.22-1.51-2.43-2.3-3.61l-1.5-2.2c-.64-.94-1.32-1.85-2-2.75-.54-.74-1.08-1.45-1.64-2.15-.38-.49-.78-1-1.19-1.46a20.36 20.36 0 0 0-1.36-1.64l-1.44-1.69c-.14-.18-.3-.35-.47-.53-.51-.59-1.05-1.16-1.59-1.74a.4.4 0 0 0-.15-.17c-.14-.16-.3-.32-.46-.47-.43-.49-.9-1-1.36-1.43-.75-.77-1.51-1.54-2.3-2.27-.64-.64-1.3-1.25-2-1.86l-1.8-1.61-1.8-1.53c-.61-.53-1.48-1.24-2.25-1.85h0a97.37 97.37 0 0 0-6.52-4.79c-.56-.39-1.1-.75-1.66-1.12s-1.13-.73-1.69-1.08-1.13-.72-1.71-1.05l-1.72-1c-.57-.31-.93-.54-1.4-.78a6.36 6.36 0 0 0-.71-.4c-1-.56-2-1.1-3-1.6-.5-.27-1-.53-1.53-.77s-1.31-.65-2-.94a1.38 1.38 0 0 0-.3-.14l-1.79-.82-2.57-1.08-2.94-1.17-3.32-1.19-3.38-1.09-3.41-1q-3.41-.91-6.89-1.62h-.12l-2.67-.48a.68.68 0 0 0-.17 0 22.7 22.7 0 0 0-1.19-.19 92.47 92.47 0 0 0-5-.7l-.61-.07c-.49-.07-1-.1-1.48-.15a91.88 91.88 0 0 0-3.37-.27l-3.53-.17-3.72-.07c-3.27 0-6.52.14-9.73.44-.76 0-1.51.12-2.26.2l-2.35.28-2.34.33-2.34.39c-.66.1-1.34.22-2 .36q-2.46.48-4.86 1c-.75.17-1.5.37-2.25.58l-2.24.61c-1.23.34-2.44.73-3.64 1.11h0l-2.92 1h-.07c-1 .35-2 .71-2.93 1.1h-.16l-2.65 1.08c-1.1.45-2.18.94-3.24 1.43l-2.67 1.27-2.81 1.43-.1.06c-.89.47-1.78 1-2.65 1.46a32 32 0 0 0-2.69 1.59h0c-.84.5-1.66 1-2.48 1.53-.31.19-.61.4-.92.61-.87.56-1.71 1.13-2.56 1.73l-3.07 2.21-2.62 2a110 110 0 0 0-13.7 13c-1.48 1.64-2.88 3.31-4.24 5q-1.72 2.19-3.33 4.48c-1 1.33-1.88 2.69-2.77 4.07a103.95 103.95 0 0 1 2.77-4.07l.84-.09a12.84 12.84 0 0 0 4.64-.75c1.31-.64 2.23-1.81 3.42-2.65 3-2.16 8-2.56 8.82-6.19.28-1.22-.06-2.54.4-3.71.85-2.18 3.76-2.49 6.1-2.46 1 0 2.16.14 2.61 1a2.53 2.53 0 0 1-.1 2 18.93 18.93 0 0 1-8 9.83c-3 1.85-7 3.28-7.83 6.73.42 1.17 2.55 1.08 2.72 2.3.12 1-1.13 1.48-1.59 2.35-.66 1.28.86 2.83 2.3 2.76s2.65-1.12 3.72-2.09c3.17-3 6.5-6.12 7.65-10.31.49-1.72.66-3.75 2.06-4.9a3.4 3.4 0 0 1 5.17 1.66c1.38-.77 3.53-1.34 4.24.09a7.42 7.42 0 0 1 .3 1.64c.45 2.23 3.5 3.24 3.82 5.49.36 2.59-3 3.94-5.57 4.34l-7.06 1.11a6.54 6.54 0 0 0-2.92.94 2.3 2.3 0 0 0-.88 2.74 6.92 6.92 0 0 0 1.22 1.26c2 2 .35 6-2.4 6.06-.94 0-1.87-.31-2.81-.35-2.79-.12-5 2.34-6.33 4.8s-2.31 5.26-4.55 6.94c-3.59 2.7-9.78 2.07-11.52 6.22-.7 1.67-.33 3.56 0 5.35s.4 3.77-.65 5.25-3.71 1.78-4.48.14a4.06 4.06 0 0 1-.1-2.32l1.22-7.74c.3-1.92.56-4.06-.58-5.63-1.58-2.2-5.14-2-7.2-.23s-2.89 4.52-3.46 7.15a31.22 31.22 0 0 1-2 6.94h0c-.37 2.16-.67 4.36-.89 6.57a106.82 106.82 0 0 0-.47 6.82 11 11 0 0 0 .89-.84c1.1-1.13 3.31-5.93 5.3-3.57a1.79 1.79 0 0 1 0 2.18c-.61.78-1.83 1-2.3 1.81-.57 1 .23 2.26 1.17 2.93s2.09 1.09 2.75 2.05c1.28 1.83.06 4.61 1.29 6.47 1.07 1.61 3.33 1.71 5.27 1.92l.66.1c.54-3.83 2.34-6.95 7.57-8.14 7.21-1.64 16.7 4.34 20.76 9.78 4.53 6.09 6.67 14.7 13.61 17.75 5 2.18 12 1.39 14.45 6.26 2.17 4.36-1.6 9.25-2.18 14.08-.36 3.19.68 6.37.93 9.56s-.72 6.93-3.63 8.28c-1.62.73-3.66.64-5 1.86-2.31 2.2-.41 6.73-2.73 8.93a12.19 12.19 0 0 1-3 1.55c-5.21 2.63-5.07 10.3-2.65 15.62.09.19.18.36.26.56a110.17 110.17 0 0 0 108.19 2.8h0a111.79 111.79 0 0 0 9.74-5.87 109.15 109.15 0 0 0 13.69-10.88 107.65 107.65 0 0 0 8.36-8.73c1.85-2.13 3.6-4.34 5.27-6.61.85-1.17 1.69-2.34 2.47-3.54a105.15 105.15 0 0 0 6.58-11 106.73 106.73 0 0 0 7.13-17.19 107.86 107.86 0 0 0 4.2-18.67c.33-2.47.59-5 .76-7.51a6.34 6.34 0 0 1-4.42 2c-2.59-.08-4.78-2.28-5.84-4.72zm-195.35 24.4c-.34-3.15.7-6.31.75-9.5l-.15-6.73a29.39 29.39 0 0 1-5.6-.78 1.73 1.73 0 0 1-1-.52 2 2 0 0 1-.22-1.17c-.14-2.48-2.53-4.11-4.67-5.35a18.52 18.52 0 0 0-3.4-1.68v.77a109.89 109.89 0 0 0 7 34.95 104.74 104.74 0 0 0 6.7 14.44l3.5 5.91 4.87 7 5.11 6.29a105.26 105.26 0 0 0 7.79 8l7.58 6.45c-6-16.14-11.68-32.61-22-46.35-2.65-3.6-5.75-7.26-6.26-11.73zm-14.34-30.94v2 1.61-1.61-2z"/><path d="M87 265.3l2.81 1.83 2 1.22-2-1.22L87 265.3z" class="S"/></g><path d="M180.33 258.39a9.4 9.4 0 0 1-2.05-.22 6.73 6.73 0 0 1-4.86-3.68 12.51 12.51 0 0 1-.85-4.8 18 18 0 0 0-.35-3.28 17.26 17.26 0 0 0-2.58-5.26 18.33 18.33 0 0 1-3.45-12.42v-.68c-.58-19.37-6-35.1-15.62-45.48a10.6 10.6 0 0 0-4.73-3.35 5.9 5.9 0 0 0-6.07 2.1 12.33 12.33 0 0 0-.91 1.49 8.46 8.46 0 0 1-1.59 2.27 4.55 4.55 0 0 1-3.88 1 7 7 0 0 1-4.84-3.34c-1.71-3-1.4-6.72-1.15-9.71l1-12c.16-1.86.37-4.4 1.87-6.14a10.26 10.26 0 0 1 4.47-2.56 13.32 13.32 0 0 0 3.44-1.65c1.93-1.45 2.79-3.73 3.7-6.14a24.77 24.77 0 0 1 1.75-4 7.41 7.41 0 0 1 6.9-3.39 3.19 3.19 0 0 1 2.53 1.69 7.59 7.59 0 0 1 4.49-4.11c4-1.15 8.84 2 13.53 5.05 4.29 2.79 8.33 5.41 11.51 4.83a24.71 24.71 0 0 0 2.4-.59 12.67 12.67 0 0 1 5.17-.71c4.63.65 7 5.67 8.53 10l7.53 21c.94 2.62 2.15 5.49 4.64 6.46a9.47 9.47 0 0 0 3.14.46 10.5 10.5 0 0 1 3.28.47 5.26 5.26 0 0 1 3.46 4.24c.64 3.48-1.1 8-4.05 10.58h0a48.76 48.76 0 0 1-4.42 3.25c-3.4 2.32-6.62 4.51-8 8.11a19.47 19.47 0 0 0-.93 6.15 18.93 18.93 0 0 1-1.07 6.63 19.15 19.15 0 0 1-3.27 4.77 29.54 29.54 0 0 0-2.19 2.79c-2.41 3.63-3.08 8.14-3.73 12.49l-.25 1.67c-.75 4.86-2.05 10.27-6 13.65a10.17 10.17 0 0 1-6.5 2.36z" class="V"/><path d="M38.32 169.22h0v.61 2-2c-.04-.21-.02-.4 0-.61zm-.08 6.2v1.61h0v-1.61z" class="O S"/><g class="V"><path d="M53.38 182.26l-.66-.1c-1.94-.21-4.2-.31-5.27-1.92-1.23-1.86 0-4.64-1.29-6.47-.66-1-1.81-1.37-2.75-2.05s-1.75-1.92-1.17-2.93c.47-.86 1.69-1 2.3-1.81a1.79 1.79 0 0 0 0-2.18c-2-2.36-4.2 2.44-5.3 3.57a11 11 0 0 1-.89.84h0v.61 2 2 1.61 1.61a18.13 18.13 0 0 1 3.39 1.68c2.15 1.23 4.54 2.87 4.68 5.35a2 2 0 0 0 .22 1.17 1.73 1.73 0 0 0 1 .52 29.39 29.39 0 0 0 5.6.78"/><path d="M53.19 186.53l.15 6.73c-.05 3.19-1.09 6.35-.74 9.5.5 4.47 3.6 8.13 6.31 11.72 10.28 13.74 16 30.21 22 46.35h0c1.11.89 2.25 1.73 3.4 2.55.9.65 1.82 1.29 2.75 1.92s1.86 1.23 2.81 1.83l2 1.22c-.08-.2-.17-.37-.26-.56-2.42-5.32-2.56-13 2.65-15.62a12.19 12.19 0 0 0 3-1.55c2.32-2.2.42-6.73 2.73-8.93 1.31-1.22 3.35-1.13 5-1.86 2.91-1.35 3.86-5.08 3.63-8.28s-1.29-6.37-.93-9.56c.58-4.83 4.35-9.72 2.18-14.08-2.42-4.87-9.48-4.08-14.45-6.26-7.04-3.05-9.18-11.65-13.71-17.75-4.06-5.44-13.55-11.42-20.76-9.78-5.23 1.19-7 4.31-7.57 8.14m-8.25-40.53c2.06-1.76 5.62-2 7.2.23 1.14 1.57.88 3.71.58 5.63l-1.22 7.74a4.06 4.06 0 0 0 .1 2.32c.77 1.64 3.45 1.32 4.48-.14s.93-3.47.65-5.25-.65-3.68 0-5.35c1.74-4.15 7.93-3.52 11.52-6.22 2.24-1.68 3.23-4.48 4.55-6.94s3.54-4.92 6.33-4.8c.94 0 1.87.39 2.81.35 2.75-.08 4.36-4.11 2.4-6.06a6.92 6.92 0 0 1-1.17-1.24 2.3 2.3 0 0 1 .88-2.74 6.54 6.54 0 0 1 2.92-.94l7.06-1.11c2.6-.4 5.93-1.75 5.57-4.34-.32-2.25-3.37-3.26-3.82-5.49a7.42 7.42 0 0 0-.3-1.64c-.71-1.43-2.86-.86-4.24-.09a3.4 3.4 0 0 0-5.17-1.65c-1.4 1.15-1.57 3.18-2.06 4.9-1.15 4.19-4.48 7.36-7.65 10.31-1.07 1-2.27 2-3.72 2.09s-3-1.48-2.3-2.76c.46-.87 1.71-1.37 1.59-2.35-.17-1.22-2.3-1.13-2.72-2.3.84-3.45 4.79-4.88 7.83-6.73a18.93 18.93 0 0 0 8-9.83 2.53 2.53 0 0 0 .1-2c-.45-.87-1.62-1-2.61-1-2.34 0-5.25.28-6.1 2.46-.46 1.17-.12 2.49-.4 3.71-.82 3.63-5.79 4-8.82 6.19-1.19.84-2.11 2-3.42 2.65a12.84 12.84 0 0 1-4.64.75l-.84.09c-1 1.33-1.88 2.69-2.77 4.07S54 117 53.15 118.39a109.49 109.49 0 0 0-9.55 21.3c-.85 2.61-1.61 5.26-2.26 7.95a110.66 110.66 0 0 0-1.66 8.18 31.22 31.22 0 0 0 2-6.94c.56-2.63 1.41-5.39 3.45-7.15zm92.41-51.09c1-1.37.73-3.33 1.41-4.91 1.12-2.62 4.61-3.56 5.82-6.15.46-1 .58-2.21 1.39-2.94s1.68-.75 2.4-1.3c1.63-1.25.95-4.08-.77-5.18-4.32-2.76-12.27.43-16 3.14-4.8 3.47-9.49 7.65-15.88 7.24-1.76-.11-3.59-.59-5.24 0s-2.67 3.1-1.25 4.14c.79.59 1.91.42 2.81.84 1.64.76 1.81 3.14 1 4.77S111 93.16 110 94.71a8.26 8.26 0 0 0-1.18 5 4.58 4.58 0 0 0 1.49 3.25c2 1.58 5 .22 6.69-1.68s2.85-4.37 5-5.68a12.36 12.36 0 0 1 3.58-1.24l8.33-2a6.1 6.1 0 0 0 3.63-1.72z"/></g><path d="M258.46 172.29l-.15-4.72.15 4.72v1.52l-.23 7.25.23-7.25c.03-.51.03-1.01 0-1.52zm-6.89-36.95l1.48 4.21-1.48-4.21h0z" class="O S"/><path d="M258.46 172.29l-.15-4.72-.36-4.67-.43-3.73-.59-3.91a106.48 106.48 0 0 0-2.57-11.44l-1.31-4.27-1.48-4.21h0 0l-1.79-3.09c-6.12-9.69-15-17.29-21.74-26.57-2.2-3-3.91-5.5-7.8-6.1-5.75-.89-8.66 2.39-12.74-3.06-1.1-1.47-3-2.83-4.64-2l1.28 3.52a1.88 1.88 0 0 1 .14.77c-.09.82-1.31 1-2 .59a7.09 7.09 0 0 1-1.53-2 5.66 5.66 0 0 0-8.28-.68 3.2 3.2 0 0 0-1.83-2.58 3.78 3.78 0 0 1-4.75 3c-.33-1.06 1.57-1.25 2.24-2.16s-.13-2-.91-2.75a12.13 12.13 0 0 0-7.58-3c-1.76 0-3.66.3-5.2-.61-.89-.52-1.52-1.39-2.42-1.9-1.94-1.1-4.36-.08-6.31 1-2.67 1.48-5.42 3.34-6.37 6.25s1.16 6.82 4.19 6.45a6 6 0 0 1 2.32-.26c1.08.3 1.57 1.55 1.65 2.67a7.92 7.92 0 0 0 .51 3.26c.52 1 2.11 1.46 2.72.54 1.43-1.36 1.25-3.64.89-5.58s-.75-4.11.4-5.7 4.48-1.08 4.25.87c-.14 1.15-1.44 2-1.39 3.16s1.5 1.81 2.68 1.76 2.39-.47 3.54-.18 2.09 1.8 1.26 2.65c-1.45 1.64-5.22-1.16-6 .88-.21.52 0 1.11 0 1.67-.14 1.71-2.28 2.34-4 2.54a9.35 9.35 0 0 1-5.07-.36c-1.55-.73-2.62-2.77-1.73-4.24a2 2 0 0 0-2.67 1 5.58 5.58 0 0 0-.19 3.17c-1.81-.4-3.43 1.13-4.46 2.65s-2 3.31-3.8 3.85-4.22-.19-5.14 1.42c-1.21 2.09 2.28 4.74 1.06 6.81-.7 1.17-2.37 1.14-3.7 1.5-3.5 1-4.72 6.12-2.33 8.86s7.16 2.58 9.69 0c1.76-1.79 2.48-4.32 3.75-6.48s3.68-4.1 6.08-3.4a7.38 7.38 0 0 1 2.5 1.57l3.5 2.94c.75.63 1.57 1.41 1.5 2.39-.07.79-.68 1.4-.94 2.13-.73 2.11 2.32 4.11 4.23 3s2.13-4.09.82-5.91c-1.81-2.51-5.91-3.76-5.8-6.87 2.09-1.7 5.38.09 6.6 2.51s1.26 5.27 2.29 7.76 3.9 4.73 6.31 3.51l-1.87-6.45c1.54-1.16 3.3 2.19 5.13 1.63 1.11-.34 1.25-2 .77-3s-1.35-2-1.56-3.15c-.34-2.13 2-4 4.17-3.68a5.45 5.45 0 0 1 4.08 4.49 10 10 0 0 0 .56 2.5c.8 1.67 2.87 2.18 4.58 2.87s3.51 2.43 2.79 4.14c-.33.74-1.11 1.46-.84 2.23s1.28 1 1.28 1.71c0 .48-.53.81-1 1-1.15.47-2.4.62-3.52 1.16a3.19 3.19 0 0 0-2 2.83c.14 1.74 2.21 2.58 3.19 4s.8 3.2 1.4 4.77a16.67 16.67 0 0 0 2.63 3.82c2.89 3.94 3.57 9 5 13.68.63 2.11 1.78 4.47 3.94 4.87a6.69 6.69 0 0 0 3.49-.68c3.12-1.24 6.36-2.56 8.54-5.09s2.93-6.68.68-9.17a1.76 1.76 0 0 0-1.06-.68 3.24 3.24 0 0 0-1.64.57 4.64 4.64 0 0 1-4.86-1 13.77 13.77 0 0 1-2.9-4.34q-1.28-2.59-2.58-5.22c1-.87 2.67-.5 3.73.35a20.46 20.46 0 0 1 2.55 3.14c2.59 3.24 6.87 4.67 11 5.16a10.33 10.33 0 0 1 3.1.65c3.09 1.41 4 6 7.23 6.93a21.17 21.17 0 0 1 2.78.63 5.09 5.09 0 0 1 2.31 3.45c.72 2.57 1 5.27 2 7.71s3.25 4.65 5.9 4.69a6.34 6.34 0 0 0 4.42-2h0c.14-2.41.23-4.81.23-7.25l-.05-1.49zM213.87 218c-1.64.32-2 1.28-2.86 2.5-1.16 1.58-2.82 3.17-3.88 4.73-1.79 2.65-.18 6.77-2.54 9-.48.46-1.1.75-1.53 1.25a2.79 2.79 0 0 0 .57 3.85 3.78 3.78 0 0 0 4.1.08 6.07 6.07 0 0 0 2.52-3.44 5.75 5.75 0 0 1 1.27-2.82c1.35-1.18 3.45-.3 5.22-.55 7.56-1.04 4.31-16-2.87-14.6z" class="V"/><path d="M211.68 442.9l-39.34 12.3a5.16 5.16 0 0 1-6.46-3.39l-17-54.45a5.16 5.16 0 0 1 3.39-6.46l24.94-7.8 25.51 13.9 12.34 39.47a5.16 5.16 0 0 1-3.38 6.43z" class="P"/><path d="M161.3 437.234l49.183-15.375h0l4.476 14.317a5.46 5.46 0 0 1-3.582 6.84l-38.875 12.153a5.33 5.33 0 0 1-6.678-3.497l-4.514-14.441-.01.003z" class="N"/><g class="M"><path d="M182.34 436.74l2.49 7.95-1.77.56-1-3.27-3.46 1.09 1 3.26-1.76.55-2.48-7.95 1.76-.55 1 3.13 3.46-1.08-1-3.14zm7.86 5.95a2.47 2.47 0 0 1-1.26.82 2.06 2.06 0 0 1-2.87-1.51l-.79-2.51-.9.28-.43-1.36.91-.28-.47-1.49 1.7-.53.46 1.49 1.46-.46.43 1.36-1.44.5.78 2.49a.72.72 0 0 0 1 .57 1.06 1.06 0 0 0 .61-.44zm9.85-6.6l1.09 3.5-1.69.53-1-3.22c-.31-1-.88-1.31-1.56-1.1s-1.14.92-.8 2l1 3.07-1.7.53-1-3.23c-.31-1-.86-1.32-1.56-1.1s-1.13.92-.79 2l1 3.06-1.7.53-1.91-6.11 1.62-.5.22.7a2.46 2.46 0 0 1 1.59-1.37 2.27 2.27 0 0 1 2.24.4 2.72 2.72 0 0 1 1.8-1.66c1.3-.42 2.57.11 3.15 1.97zm-.05-5.4l1.7-.53 2.63 8.42-1.7.53zm-25.59-20.94l-5.67 4.82 7.4.7.88 2.84-10.63-1.19-.92-2.95 8.06-7zm4.41-10.6l2.72-.85.21 23.42-2.73.85zm15.46 5.85l.92 3-8.06 7-.89-2.84 5.68-4.79-7.4-.73-.88-2.81z"/><path d="M177.18,383.1l4.8,15.33a4.79,4.79,0,0,0,6,3.14l14.74-4.6Z" fill="#acf"/></g><path d="M182.6 399.71a5.32 5.32 0 0 0 5.58 3.67 4.55 4.55 0 0 0 .52 0c2-.26 15.4-2 15.31-2.25l-1.29-4.13-14.72 4.58s-3.73 1.02-5.4-1.87z" class="P"/><path d="M95.87 129.64h298.69v224.44H95.87z" class="M"/><path d="M394.56 354.08v-1.05-3.07l-.05-11.93-.11-45.36-.22-163 .43.43-298.66.09h0l.52-.52v224.44l-.47-.47 215.58.23 61.23.13 16.25.06h4.19 1.07 0-1.05-4.13l-16.16.06-61.12.13-215.89.23h-.57v-.47l-.05-224.44v-.52h.55l298.66.1h.44v.42l-.22 163.3-.11 45.26v11.85 3c0 .66-.11 1.1-.11 1.1zm-1.5-196.95a6.09 6.09 0 0 1-.75.05h-2.22l-8.52.09-31.32.08c-26.46 0-63-.19-103.36-.52L143.53 156l-31.33-.25-8.51-.1-2.22-.06a3.29 3.29 0 0 1-.75 0 3.29 3.29 0 0 1 .75-.05h2.22l8.51-.09 31.33-.09 103.37.53 103.35.83 31.33.24 8.51.11h2.22a3.58 3.58 0 0 1 .75.06z" class="L"/><path d="M115.38 141a3.52 3.52 0 1 1-3.51-3.51 3.52 3.52 0 0 1 3.51 3.51z" fill="#acf"/><path d="M129.45 141a3.52 3.52 0 1 1-3.52-3.51 3.52 3.52 0 0 1 3.52 3.51z" class="P"/><circle cx="140" cy="141.04" r="3.52" class="R"/><path d="M147.93 287.41h61.38v45.95h-61.38z" fill="#acf"/><path d="M215.34 287.41h61.38v45.95h-61.38z" fill="#80b3ff"/><path d="M293.9 287.41h61.38v45.95H293.9z" class="P"/><path d="M460.81 177.91c-1.87-34.64-38.07-52.07-56.59-54.32L389.4 141c11.93-1.79 41.6 14.77 43.05 26.75s-7.68 27.29-19.7 28.39c-9.44.87-25.18-7.51-31.17-.17-15.14-13.48-41-12.37-54.92 2.36a37.84 37.84 0 0 0-50.36 31.44l55.75 32.36s23.23 20.82 39.07 8c5.41-4.38 7.47-10.67 8-16.74a8.39 8.39 0 0 0 3.16-.2c4-1.08 7-4.68 8.32-8.63.17-.51.3-1 .42-1.55 13.54 3 32-.4 42.89-7.2 15.8-9.81 27.9-39.27 26.9-57.9z" class="O"/><path d="M385.52 202.71s-.08-.08-.21-.27l-.55-.82-.93-1.32-1.36-1.72a35.9 35.9 0 0 0-10.83-8.72 34.52 34.52 0 0 0-9-3.27 32.53 32.53 0 0 0-11-.5 35.67 35.67 0 0 0-22 11.43c-.83.9-1.56 1.88-2.25 2.78l-.13.18-.19-.1a35.11 35.11 0 0 0-28.6-1 43.5 43.5 0 0 0-4.53 2.27 36.83 36.83 0 0 0-7.29 5.41 29.46 29.46 0 0 0-7.28 10.79c-.3.72-.5 1.37-.68 1.94a15 15 0 0 0-.41 1.45l-.24.9a1 1 0 0 1-.1.3s0-.11.05-.31l.19-.91a11.66 11.66 0 0 1 .37-1.47l.63-2a29.28 29.28 0 0 1 7.22-11 36.46 36.46 0 0 1 7.33-5.51 41.53 41.53 0 0 1 4.57-2.32 34.64 34.64 0 0 1 5.19-1.69 35.39 35.39 0 0 1 23.81 2.6l-.33.08a35.68 35.68 0 0 1 24.62-14.38 32.79 32.79 0 0 1 11.14.54 34.78 34.78 0 0 1 9.12 3.38 35.16 35.16 0 0 1 10.81 8.91 20.91 20.91 0 0 1 1.33 1.76 14.27 14.27 0 0 1 .9 1.35l.51.85a2.41 2.41 0 0 1 .12.39zm10.77-7.24c-.06.08-.78-.45-2.1-.94a11.21 11.21 0 0 0-2.38-.58 12.64 12.64 0 0 0-3 0 12.79 12.79 0 0 0-2.9.8 11.1 11.1 0 0 0-2.14 1.2c-1.14.83-1.69 1.53-1.76 1.47s.09-.21.33-.54a7.14 7.14 0 0 1 1.21-1.22 9.53 9.53 0 0 1 2.17-1.35 11 11 0 0 1 6.16-.85 9.59 9.59 0 0 1 2.46.72 6.68 6.68 0 0 1 1.49.86c.32.26.48.41.46.43zM412 216.54s-.57-.28-1.64-.66a12.15 12.15 0 0 0-4.75-.68 11.31 11.31 0 0 0-6.62 2.56 11.85 11.85 0 0 0-4.21 7.67l-.05.42-.34-.23a18.14 18.14 0 0 0-3.67-1.8 18.72 18.72 0 0 0-10.33-.65 18.52 18.52 0 0 0-7.61 3.81 19.44 19.44 0 0 0-3.84 4.33l-1.1 1.83a2.1 2.1 0 0 1 .2-.52 12.23 12.23 0 0 1 .73-1.42 18.47 18.47 0 0 1 11.51-8.49 18.75 18.75 0 0 1 14.39 2.48l-.4.19a12.21 12.21 0 0 1 4.43-8 11.56 11.56 0 0 1 6.9-2.55 11.79 11.79 0 0 1 4.83.84 8.69 8.69 0 0 1 1.19.59 1.66 1.66 0 0 1 .38.28zm43.22-58.87a5 5 0 0 1 .41.7l1.05 2.07a46.26 46.26 0 0 1 2.8 8.05A54.35 54.35 0 0 1 461 181a64.17 64.17 0 0 1-.38 7.46 71.57 71.57 0 0 1-1.28 7.92 82.49 82.49 0 0 1-10.46 26 47.72 47.72 0 0 1-5.1 6.83l-1.64 1.64a4.44 4.44 0 0 1-.62.52 5.6 5.6 0 0 1 .55-.6c.38-.37.89-.95 1.56-1.7a52.28 52.28 0 0 0 4.94-6.88 85.05 85.05 0 0 0 10.26-25.9 70.94 70.94 0 0 0 1.28-7.86 63.54 63.54 0 0 0 .41-7.41 56 56 0 0 0-1.39-12.46 50.85 50.85 0 0 0-2.63-8l-1-2.1a5.11 5.11 0 0 1-.28-.79zM427.56 159a5 5 0 0 1 .93 1 19.67 19.67 0 0 1 2.07 3 21.88 21.88 0 0 1-.74 22.94 19.72 19.72 0 0 1-2.25 2.85 5.52 5.52 0 0 1-1 .9 43.56 43.56 0 0 0 2.93-3.95 22.43 22.43 0 0 0 .73-22.56 38.61 38.61 0 0 0-2.67-4.18z" class="L"/><path d="M390.9 132.17a35.39 35.39 0 0 0 9.75 9.91 3.17 3.17 0 0 0 4.75-3.69v-.08a129.6 129.6 0 0 0 14.27 9.51 3.9 3.9 0 0 0 5.63-4.72 59.82 59.82 0 0 0-27.4-31.91z" class="R"/><path d="M396.66,132.65a6,6,0,0,0,1.57,1.78,2.06,2.06,0,0,0,2.24.14c1-.67.95-2.3,2-2.92s2.41.27,3.33,1.14l2.9,2.77c.71.68,1.67,1.41,2.58,1s1.07-1.82.85-2.88a15.64,15.64,0,0,0-9.31-11.15Z" opacity=".3"/><path d="M435.16,156.47a3.49,3.49,0,1,0,0-.25" class="R"/><path d="M251.3,35.81c-2.82,4.39,3.35,19.73,17.49,39.37a133.92,133.92,0,0,0,30,30.18l81.54,52.31,13.78-21.48,8-12.46,13.78-21.48-74-47.47A134.52,134.52,0,0,0,319,43a160.39,160.39,0,0,0-24.62-7.71c-23.55-5.17-40.27-3.87-43.08.52" class="O"/><path d="M364.75 69.47l.3-.1a61 61 0 0 1 52.4 6.52l9.77 6.27-25.93 10.75z" class="N"/><path d="M364.75 69.47l.19.12.53.33 2 1.29 7.61 4.79 26.29 16.76h-.14L424.86 83l2.29-1v.3l-5.75-3.7-5.61-3.53a61.68 61.68 0 0 0-11.28-5.3 58.75 58.75 0 0 0-10.93-2.72c-1.74-.31-3.44-.41-5.07-.58s-3.2-.18-4.7-.12a60.46 60.46 0 0 0-14 1.74c-1.64.35-2.86.79-3.71 1l-1.29.37.32-.12.87-.34 3.7-1.08a59 59 0 0 1 14.06-1.85c1.5-.07 3.08 0 4.72.1l5.09.56a59.19 59.19 0 0 1 11 2.7 62 62 0 0 1 11.35 5.31l5.62 3.54 5.77 3.72.28.18-.31.13-2.29 1-23.64 9.79h-.08-.07l-26.31-17-7.5-4.86-2-1.29-.5-.33z" class="L"/><path d="M329.2 124.9v.31a60.19 60.19 0 0 0 27.39 44.29l9.64 6.19-1-27.67z" class="N"/><path d="M329.2 124.9l.16.09.5.32 2 1.24 7.44 4.73 26.05 16.6.07.05v.07l.94 25.22.09 2.45v.33l-.28-.18-5.68-3.64-5.48-3.59a60.54 60.54 0 0 1-9.43-8 57.52 57.52 0 0 1-6.93-8.74c-1-1.44-1.79-2.94-2.61-4.34s-1.47-2.81-2-4.19a58.5 58.5 0 0 1-4.16-13.32c-.33-1.62-.43-2.9-.55-3.76l-.12-1c-.03-.26 0-.33 0-.33 0 .19.08.55.2 1.3l.61 3.75a59.92 59.92 0 0 0 4.21 13.29c.57 1.37 1.32 2.72 2 4.17s1.62 2.87 2.61 4.3a57.92 57.92 0 0 0 6.93 8.68 61 61 0 0 0 9.39 7.94l5.48 3.57 5.68 3.64-.27.15-.09-2.44-.91-25.23.07.13-25.84-16.68-7.43-4.82-2-1.29-.51-.34z" class="L"/><path d="M251.3 35.81c-2.31 3.31 1 13.34 9.12 26.76L282.35 33c-15.77-1.93-28.1-1.44-31.05 2.81z" class="N"/><path d="M367.37 149.38l34.87-55.07" class="O"/><path d="M402.24 94.31c.08.06-7.66 12.43-17.29 27.63l-17.58 27.44c-.08-.06 7.63-12.38 17.29-27.62l17.58-27.45z" class="L"/><path d="M369.68 151.21l34.87-55.06" class="O"/><path d="M404.55 96.15c.08 0-7.66 12.42-17.29 27.62l-17.58 27.44c-.08-.06 7.66-12.41 17.29-27.62l17.58-27.44z" class="L"/><path d="M372.32 152.84l34.87-55.07" class="O"/><path d="M407.19 97.77c.08.06-7.66 12.43-17.29 27.63l-17.58 27.44c-.08-.06 7.66-12.41 17.29-27.62l17.58-27.45z" class="L"/><path d="M374.95 154.47l34.88-55.07" class="O"/><path d="M409.83 99.4c.08.06-7.67 12.43-17.29 27.63L375 154.47c0-.05 7.66-12.41 17.29-27.62l17.54-27.45z" class="L"/><path d="M377.59 156.1l34.87-55.07" class="O"/><g class="L"><path d="M412.46 101c.08 0-7.66 12.42-17.29 27.63l-17.58 27.44c-.08-.05 7.66-12.41 17.29-27.62L412.46 101zm-65.36-3.88s.15 0 .42.18.65.36 1.15.64l4.11 2.54 13.38 8.64 13.28 8.79 4 2.71 1.07.75a1.57 1.57 0 0 1 .36.28 3 3 0 0 1-.4-.23l-1.11-.69-4.06-2.62-13.3-8.71-13.32-8.72-4-2.62-1.11-.7z"/><path d="M364.75 69.47c.08.06-7.74 12.41-17.46 27.58l-17.75 27.4c-.08-.05 7.74-12.4 17.46-27.58l17.75-27.4zm12.09 40.45a.84.84 0 0 1 0-.49 2 2 0 0 1 2.58-1.68 2.12 2.12 0 0 1 .37 4 2 2 0 0 1-2-.12 2.08 2.08 0 0 1-.86-1c-.1-.3-.08-.49-.06-.49s.05.17.19.44a2.07 2.07 0 0 0 .85.89 1.74 1.74 0 0 0 1.73 0 1.82 1.82 0 0 0-.32-3.39 1.74 1.74 0 0 0-1.68.36 2.08 2.08 0 0 0-.68 1c-.09.31-.09.48-.12.48zm-15.57-10.4s-.07-.17 0-.49a2 2 0 0 1 2.58-1.68 2.12 2.12 0 0 1 .37 4 2 2 0 0 1-2-.12 2.11 2.11 0 0 1-.85-1 1 1 0 0 1-.07-.49s.06.17.2.44a2.07 2.07 0 0 0 .85.89 1.72 1.72 0 0 0 1.72 0 1.82 1.82 0 0 0-.31-3.39 1.76 1.76 0 0 0-1.69.36 2.12 2.12 0 0 0-.67 1c-.1.31-.1.48-.13.48zm-29.99-7.24a1 1 0 0 1 0-.49 2.1 2.1 0 0 1 .64-1.19 2 2 0 0 1 2-.49 2.12 2.12 0 0 1 .36 4 2 2 0 0 1-2-.12 2.05 2.05 0 0 1-.85-1c-.11-.31-.09-.49-.07-.49a4 4 0 0 1 .19.44 2.19 2.19 0 0 0 .85.89 1.76 1.76 0 0 0 1.73 0 2 2 0 0 0 1-1.81 1.93 1.93 0 0 0-1.34-1.58 1.74 1.74 0 0 0-1.68.36 2.08 2.08 0 0 0-.68 1c-.12.31-.12.48-.15.48z"/><path d="M317.93 89c.06-.07 5.78 3.08 12.78 7s12.62 7.25 12.56 7.33-5.78-3.08-12.78-7-12.61-7.22-12.56-7.33z"/></g><path d="M364.3 147.41s-23.3-15.72-35.1-22.51c4.07 5.83 8.76 12.45 14.41 16.77a29.69 29.69 0 0 0 20.69 5.74z" opacity=".3"/><circle cx="307.51" cy="72.44" r="19.72" transform="matrix(.281839 -.959462 .959462 .281839 151.32 347.06)" class="M"/><path d="M327.2 73.57a1.34 1.34 0 0 1 0-.32v-.94a9.76 9.76 0 0 0-.09-1.52 14.93 14.93 0 0 0-.3-2.05 19.22 19.22 0 0 0-1.9-5.32 19.74 19.74 0 0 0-4.67-5.81 19.47 19.47 0 0 0-18.27-3.81 18.26 18.26 0 0 0-5.07 2.37 22.62 22.62 0 0 0-2.31 1.75 24.19 24.19 0 0 0-2 2.14 19.4 19.4 0 0 0-1.31 23A23 23 0 0 0 293 85.4a20.76 20.76 0 0 0 2.1 2 18.3 18.3 0 0 0 4.77 2.94A19.61 19.61 0 0 0 310 91.78a19.64 19.64 0 0 0 13.71-8.4 19 19 0 0 0 2.49-5.07 16.5 16.5 0 0 0 .54-2 9.67 9.67 0 0 0 .26-1.5l.13-.93a1.24 1.24 0 0 1 .06-.31 1.93 1.93 0 0 1 0 .32c0 .24-.05.55-.08.93a9.1 9.1 0 0 1-.21 1.52 14.87 14.87 0 0 1-.5 2 18.37 18.37 0 0 1-2.4 5.2 19.85 19.85 0 0 1-13.89 8.67 20 20 0 0 1-10.42-1.43 18.75 18.75 0 0 1-4.9-3 18.58 18.58 0 0 1-4-4.47 19.44 19.44 0 0 1-2.54-5.66 21.09 21.09 0 0 1-.67-6.36 20 20 0 0 1 4.56-11.56 20.73 20.73 0 0 1 2.09-2.2 23.75 23.75 0 0 1 2.37-1.79 18.84 18.84 0 0 1 5.2-2.41 20 20 0 0 1 10.51-.24 19.88 19.88 0 0 1 12.83 10.19A18.85 18.85 0 0 1 327 68.7a12.52 12.52 0 0 1 .26 2.08 9.23 9.23 0 0 1 .05 1.53v.94a1.34 1.34 0 0 1-.11.32zm-75.9-37.76a2.07 2.07 0 0 1 .13-.19 2.57 2.57 0 0 1 .45-.52 7.46 7.46 0 0 1 2.3-1.41 31.46 31.46 0 0 1 10.26-1.79 98.69 98.69 0 0 1 16.59.89 154.81 154.81 0 0 1 21.69 4.44q5.94 1.7 12.31 4a139 139 0 0 1 13 5.49 137.32 137.32 0 0 1 13.24 7.38l13.58 8.69L416 102l.22.14-.14.22-17.77 27.71-17.79 27.71-.13.22-.22-.14L319 118.63l-13.56-8.72-6.44-4.16c-2.11-1.42-4.06-3-6-4.51a143.31 143.31 0 0 1-19.09-19.11A172.67 172.67 0 0 1 261.16 64a110.1 110.1 0 0 1-7.75-14.69 32.19 32.19 0 0 1-2.81-10 7.31 7.31 0 0 1 .29-2.68 2.71 2.71 0 0 1 .29-.63 1.13 1.13 0 0 1 .12-.2 4.25 4.25 0 0 0-.36.84 7.46 7.46 0 0 0-.24 2.66 32.67 32.67 0 0 0 2.88 10 111.62 111.62 0 0 0 7.81 14.62 174.44 174.44 0 0 0 12.8 18 142.94 142.94 0 0 0 19.09 19l5.92 4.47 6.48 4.15 13.57 8.7 61.18 39.2-.36.08 17.78-27.71 17.77-27.71.08.36-61.13-39.25-13.57-8.7a137.87 137.87 0 0 0-13.18-7.39c-4.37-2.14-8.71-3.93-12.93-5.5s-8.32-2.93-12.27-4.06a154.79 154.79 0 0 0-21.62-4.5 99.31 99.31 0 0 0-16.54-1 31.94 31.94 0 0 0-10.23 1.7 7.75 7.75 0 0 0-2.31 1.35 6.35 6.35 0 0 0-.62.7z" class="L"/><path d="M332.05 262.17H158.38a20.53 20.53 0 0 1-20.53-20.53h0a20.53 20.53 0 0 1 20.53-20.53h173.67a20.53 20.53 0 0 1 20.53 20.53h0a20.53 20.53 0 0 1-20.53 20.53z" class="M"/><path d="M332.05 262.17l1.22-.09a9.22 9.22 0 0 0 1.5-.15 16.45 16.45 0 0 0 2.05-.39l1.22-.32 1.31-.48.7-.26.71-.35a12.23 12.23 0 0 0 1.47-.77 20.13 20.13 0 0 0 5.95-5.22 15.66 15.66 0 0 0 1.31-1.91 16.78 16.78 0 0 0 1.13-2.15 23.07 23.07 0 0 0 .92-2.38l.33-1.28.17-.65.1-.67.21-1.37.06-1.4v-.72-.72c0-.49 0-1-.09-1.47a21.72 21.72 0 0 0-1.59-5.92 20.71 20.71 0 0 0-9.06-9.81 20.25 20.25 0 0 0-7-2.23c-2.52-.28-5.17-.14-7.86-.17l-168.39.08a22.77 22.77 0 0 0-6 .89 22.21 22.21 0 0 0-5.42 2.61 21.89 21.89 0 0 0-4.38 4 21.07 21.07 0 0 0-3 5.11 21.38 21.38 0 0 0-1.4 5.72 21.89 21.89 0 0 0 .3 5.83 20.2 20.2 0 0 0 5.29 10.12 20.16 20.16 0 0 0 9.73 5.61 21.58 21.58 0 0 0 2.76.5l2.81.11h27.5l75.71.06 51 .08 13.88.05h3.61 1.23-1.23-3.61-13.88l-51 .09-75.71.05h-27.5c-.94 0-1.91-.07-2.86-.11a22.68 22.68 0 0 1-2.83-.51 20.66 20.66 0 0 1-10-5.74 21.52 21.52 0 0 1-3.46-4.78 22 22 0 0 1-2-5.6 22.59 22.59 0 0 1-.3-6 20.8 20.8 0 0 1 4.51-11.11 20.75 20.75 0 0 1 10.06-6.82 23 23 0 0 1 6.13-.92l168.39.07 7.9.2a20.26 20.26 0 0 1 7.15 2.28 21 21 0 0 1 9.17 10 21.79 21.79 0 0 1 1.59 6l.08 1.49v.73.72l-.07 1.43c-.02.43-.15.93-.22 1.38l-.1.68-.17.66-.34 1.29c-.33.82-.55 1.66-.94 2.41a17.88 17.88 0 0 1-1.16 2.17 16.6 16.6 0 0 1-1.33 1.91 20.28 20.28 0 0 1-6 5.24 15 15 0 0 1-1.49.76l-.72.34-.7.26-1.33.47-1.22.31a15 15 0 0 1-2.07.37 10.23 10.23 0 0 1-1.5.13z" class="L"/><circle cx="324.17" cy="240.52" r="9.14" transform="matrix(.707107 -.707107 .707107 .707107 -75.12 299.67)" class="M"/><g class="N"><path d="M324.17 250.15a9.64 9.64 0 1 1 9.63-9.63 9.64 9.64 0 0 1-9.63 9.63zm0-18.27a8.64 8.64 0 1 0 8.63 8.64 8.64 8.64 0 0 0-8.63-8.64z"/><path d="M331.272 246.345l.534-.846 7.737 4.885-.534.846z"/></g><g class="L"><path d="M166.69 245l.75-1.68a5.66 5.66 0 0 0 3.17 1c1.31 0 1.85-.43 1.85-1 0-1.8-5.58-.57-5.58-4.13 0-1.63 1.32-3 4-3a6.44 6.44 0 0 1 3.33.84l-.68 1.69a5.38 5.38 0 0 0-2.66-.75c-1.32 0-1.82.49-1.82 1.09 0 1.77 5.57.55 5.57 4.07 0 1.61-1.33 3-4.07 3a6.88 6.88 0 0 1-3.86-1.13zm16.52-2.17h-5.58a2 2 0 0 0 2.11 1.48 2.49 2.49 0 0 0 1.85-.71l1.14 1.23a3.85 3.85 0 0 1-3 1.19c-2.55 0-4.21-1.6-4.21-3.79a3.76 3.76 0 0 1 3.94-3.8 3.64 3.64 0 0 1 3.83 3.82 3.68 3.68 0 0 0-.08.58zm-5.6-1.25h3.63a1.84 1.84 0 0 0-3.63 0zm13.39.12v4.21h-2V245a2.43 2.43 0 0 1-2.25 1c-1.72 0-2.75-1-2.75-2.23s.92-2.21 3.16-2.21h1.7c0-.92-.55-1.45-1.7-1.45a3.55 3.55 0 0 0-2.12.68l-.77-1.49a5.63 5.63 0 0 1 3.18-.89c2.24.02 3.55 1.06 3.55 3.29zm-2.14 1.88v-.75h-1.46c-1 0-1.32.37-1.32.86s.45.89 1.21.89a1.57 1.57 0 0 0 1.56-1zm8.64-5.15v2h-.48a1.81 1.81 0 0 0-2 2.05v3.48h-2.14v-7.37h2v1a3 3 0 0 1 2.62-1.16zm.65 3.8a3.81 3.81 0 0 1 4.11-3.8 3.37 3.37 0 0 1 3.3 1.88l-1.65.89a1.85 1.85 0 0 0-1.66-1 2.045 2.045 0 0 0 0 4.09 1.81 1.81 0 0 0 1.66-1l1.65.91a3.41 3.41 0 0 1-3.3 1.86 3.81 3.81 0 0 1-4.11-3.83zm16.13-.54v4.22h-2.14V242c0-1.19-.55-1.74-1.5-1.74s-1.76.63-1.76 2v3.64h-2.14v-10.16h2.14v3.57a3.2 3.2 0 0 1 2.34-.88c1.78 0 3.06 1.01 3.06 3.26z"/><use xlink:href="#B"/><use xlink:href="#B" x="3.59"/><use xlink:href="#B" x="7.18"/></g><path d="M100.92 100.08l-32.24-17a4.55 4.55 0 0 1-1.9-6.16l23.56-44.66a4.58 4.58 0 0 1 6.17-1.91L117 41.15l7.21 24.67-17.12 32.35a4.58 4.58 0 0 1-6.17 1.91z" class="P"/><path d="M117,41.15l-6.64,12.56a4.26,4.26,0,0,0,1.77,5.74l12.08,6.37Z" fill="#e6e6e6"/><path d="M109.91 54.9a4.72 4.72 0 0 0 1.17 5.8l.35.29c1.43 1.12 10.83 8.45 11 8.21s1.78-3.38 1.78-3.38l-12.08-6.37s-3-1.7-2.22-4.55z" opacity=".2"/><path d="M107.89 51.77c-.09.16-3.49-1.47-7.61-3.65L93 43.89c.11-.17 3.5 1.47 7.62 3.65l7.27 4.23zM113.77 64c-.08.16-5.65-2.61-12.43-6.19S89.14 51.16 89.22 51s5.65 2.61 12.43 6.19 12.21 6.61 12.12 6.81zm-.92 7.06c-.08.16-6.14-2.87-13.53-6.78S86 57.09 86.09 56.93s6.15 2.87 13.54 6.77 13.31 7.2 13.22 7.36zm-2.95 5.59c-.09.16-6.15-2.87-13.54-6.77s-13.31-7.2-13.22-7.36 6.14 2.87 13.53 6.77 13.33 7.2 13.23 7.36zm-2.96 5.6c-.08.16-6.14-2.87-13.53-6.78s-13.31-7.19-13.23-7.35 6.15 2.88 13.54 6.77 13.28 7.2 13.22 7.36zM104 87.84c-.09.16-6.15-2.87-13.53-6.77s-13.32-7.2-13.23-7.36 6.14 2.87 13.53 6.77 13.31 7.2 13.23 7.36z" fill="#fafafa"/><use xlink:href="#C" class="Q"/><use xlink:href="#C" opacity=".3"/><path d="M306.11,386.13l-16.18-2.37-1.06-2.91a5.65,5.65,0,0,0-4.54-3.58L268.51,375a5,5,0,0,0-5.79,4l-.26,1.85-7,48.57a5.69,5.69,0,0,0,5,6.26L324.77,445a5.68,5.68,0,0,0,6.57-4.59l6.6-45.88a3.73,3.73,0,0,0-3.17-4.24Z" class="Q"/><path d="M280.848 400.591l38.257 5.499-2.314 16.095-38.257-5.499z" class="M"/><path d="M312.17 412.35c0 .14-5.92-.59-13.18-1.63s-13.13-2-13.1-2.15 5.92.59 13.18 1.63 13.12 2.01 13.1 2.15zm-.49 3.43c0 .14-5.92-.59-13.18-1.63s-13.13-2-13.11-2.15 5.92.59 13.18 1.63 13.13 2.01 13.11 2.15z" class="L"/><use xlink:href="#D" fill="#407bff"/><use xlink:href="#D" fill="#04a"/><path d="M386.65,372.57l-10,3.82-1.54-1.33a3.67,3.67,0,0,0-3.74-.6l-9.8,3.75a3.28,3.28,0,0,0-2,4.17l.44,1.14,11.51,30.08a3.75,3.75,0,0,0,4.88,2l39.81-15.24a3.73,3.73,0,0,0,2.31-4.74l-10.88-28.42a2.46,2.46,0,0,0-3.18-1.41Z" class="R"/><path d="M376.784 388.913l23.693-9.071 3.815 9.965-23.693 9.071z" class="M"/><path d="M398.5 385.67a71.49 71.49 0 0 1-8.05 3.36 71.42 71.42 0 0 1-8.23 2.87 76.21 76.21 0 0 1 8-3.36 73.8 73.8 0 0 1 8.28-2.87zm.81 2.13a75.36 75.36 0 0 1-8 3.35A73.27 73.27 0 0 1 383 394a71.49 71.49 0 0 1 8.05-3.36 72.17 72.17 0 0 1 8.26-2.84z" class="L"/><path d="M116.7,448.64l-.61,29.08,38.28.9c-.13-3.46-19.75-10.87-19.75-10.87l1.2-18.61Z" class="Q"/><path d="M122.82 465.91a1.48 1.48 0 0 0-1.12 1.66 1.5 1.5 0 0 0 1.73 1.07 1.41 1.41 0 1 0-.75-2.69m-6.59 11.77l.19-2.93 36.63 2s1.68.74 1.46 1.87z" class="M S"/><g class="L"><path d="M135.24 467.58c0 .18-.94.24-1.88.79s-1.44 1.27-1.61 1.2.13-1.09 1.28-1.73 2.26-.42 2.21-.26zm3.98 1.67c0 .17-.78.45-1.44 1.18s-.86 1.52-1 1.51-.28-1 .55-1.91 1.89-.95 1.89-.78zm2.16 4.59c-.17 0-.41-.85.09-1.81s1.39-1.32 1.47-1.17-.48.65-.88 1.44-.5 1.53-.68 1.54zM135 463.31c-.08.16-.94-.1-2-.06s-1.89.34-2 .19.72-.77 2-.8 2.11.54 2 .67zm-.78-4.31a3.8 3.8 0 0 1-1.92-.05 9.18 9.18 0 0 1-2-.63 9.48 9.48 0 0 1-1.08-.58 2.37 2.37 0 0 1-.57-.44.73.73 0 0 1-.06-.94 1 1 0 0 1 .83-.39 2.79 2.79 0 0 1 .71.11 7 7 0 0 1 1.19.42 6.57 6.57 0 0 1 1.73 1.14c.87.79 1.16 1.46 1.09 1.49s-.5-.5-1.39-1.17a7.91 7.91 0 0 0-1.68-.95 8.35 8.35 0 0 0-1.1-.34c-.4-.11-.74-.12-.85 0s0 .09 0 .21a1.88 1.88 0 0 0 .41.32 11.48 11.48 0 0 0 1 .57 10.09 10.09 0 0 0 1.84.71 13 13 0 0 1 1.85.52z"/><path d="M134 459.25a2.79 2.79 0 0 1-.46-1.76 5.52 5.52 0 0 1 .31-2 6 6 0 0 1 .52-1.09 1.61 1.61 0 0 1 1.25-.89.92.92 0 0 1 .79.53 2.06 2.06 0 0 1 .17.67 3.81 3.81 0 0 1 0 1.22 4.14 4.14 0 0 1-.86 1.85c-.78.92-1.56 1.11-1.58 1.05s.6-.41 1.2-1.3a4.1 4.1 0 0 0 .65-1.69 3.37 3.37 0 0 0 0-1.05c0-.38-.19-.7-.34-.66s-.53.27-.69.58a6 6 0 0 0-.5 1 6.1 6.1 0 0 0-.42 1.8c-.15 1.05.03 1.71-.04 1.74z"/></g><path d="M87.69,451.06,84,479.91l-38-4.72c.64-3.4,21.13-7.85,21.13-7.85l1.54-18.59Z" class="Q"/><path d="M79.11 467.24a1.48 1.48 0 0 1 .87 1.81 1.51 1.51 0 0 1-1.87.8 1.55 1.55 0 0 1-.91-1.92 1.59 1.59 0 0 1 2-.63m4.8 12.61l.25-2.93-36.52-3.42S46 474 46 475.19z" class="M S"/><g fill="#1a1a1a"><path d="M66.58 467.08c0 .18.9.37 1.75 1.05s1.24 1.47 1.42 1.42 0-1.09-1-1.89-2.19-.75-2.17-.58zm-4.17 1.06c-.07.17.7.57 1.24 1.39s.63 1.62.81 1.64.43-1-.26-2-1.77-1.17-1.79-1.03zm-2.81 4.23c.16.06.52-.78.16-1.8s-1.18-1.51-1.27-1.38.38.72.66 1.56.26 1.58.45 1.62zm7.83-9.48c.06.17.94 0 2 .23s1.82.61 1.93.47-.59-.86-1.82-1.08-2.19.23-2.11.38zm1.42-4.15a3.8 3.8 0 0 0 1.9.22 8.35 8.35 0 0 0 2.06-.33 8.06 8.06 0 0 0 1.16-.41 2.38 2.38 0 0 0 .63-.35.74.74 0 0 0 .2-.92 1.06 1.06 0 0 0-.77-.51 2.83 2.83 0 0 0-.72 0 6.54 6.54 0 0 0-1.23.24 6.65 6.65 0 0 0-1.89.87c-1 .66-1.35 1.28-1.29 1.32s.57-.43 1.54-.95a7.32 7.32 0 0 1 2.94-.88c.42-.05.76 0 .84.17s0 .1-.07.2a1.76 1.76 0 0 1-.46.25 8.44 8.44 0 0 1-1.07.42 11.23 11.23 0 0 1-1.92.44 12.27 12.27 0 0 0-1.85.22z"/><path d="M69.06 459a2.8 2.8 0 0 0 .71-1.68 5.62 5.62 0 0 0 0-2 5.37 5.37 0 0 0-.35-1.15 1.58 1.58 0 0 0-1.1-1.06.91.91 0 0 0-.86.4 2.59 2.59 0 0 0-.27.64 3.65 3.65 0 0 0-.15 1.21 4 4 0 0 0 .58 2c.63 1 1.38 1.33 1.41 1.27s-.54-.5-1-1.46a4.13 4.13 0 0 1-.39-1.77 3.35 3.35 0 0 1 .16-1c.1-.38.29-.67.44-.61s.47.35.59.67a6.43 6.43 0 0 1 .36 1 6.77 6.77 0 0 1 .15 1.84c-.1 1.05-.34 1.7-.28 1.7z"/><path d="M146.39 294.31l-59.59 1.91-13.66 100.31-8.66 68 25.2.89 6.73-37.17c1.84-10 5.2-24.78 6.11-33.17s15.65-67 15.65-67l-1.06 70.8c.03 2.8-2.92 66.46-2.92 66.46h25c1.29-11.49 4.36-57.47 5-66.76l5.51-76.29c.51-12.11-3.31-27.98-3.31-27.98z"/></g><path d="M142.46 294.77a11 11 0 0 1 0-4.27 10.47 10.47 0 0 1 0 4.27zm2.48 1.13a8.1 8.1 0 0 1 .45-5.4 20.54 20.54 0 0 1-.26 2.7 20.16 20.16 0 0 1-.19 2.7zm-22.26-4.47a2.37 2.37 0 0 0-1.26.71 1.73 1.73 0 0 0-.41 1.41 1.63 1.63 0 0 0 2.85.54 1.77 1.77 0 0 0 .14-1.46 2.26 2.26 0 0 0-.92-1.12s.17 0 .42.11a1.79 1.79 0 0 1 .78.9 2 2 0 0 1-.08 1.78 2 2 0 0 1-3.59-.68 2 2 0 0 1 .58-1.69 1.84 1.84 0 0 1 1.06-.55c.28-.03.43.03.43.05zM95.21 394.92a53.06 53.06 0 0 1-6.38-2.39 53.49 53.49 0 0 1-6.22-2.79 54.52 54.52 0 0 1 6.39 2.39 54.46 54.46 0 0 1 6.21 2.79z" class="Q"/><path d="M92,153.36c.19-3.47,2.33-5.61,5.32-7.38a10.82,10.82,0,0,1,10-.45c2.1,1,3.94,2.7,6.24,3,3.8.49,7.39-3,11.11-2.15a4.94,4.94,0,0,1-.36,9.68c2.49.36,3.89,3.51,3,5.84s-3.52,3.7-6,3.75a13.82,13.82,0,0,1-7.1-2.23c-2.17-1.26-4.2-2.78-6.47-3.86a10.76,10.76,0,0,0-7.29-1.07c-3.29.87-5.62,4-6.47,7.26s-.49,6.77,0,10.13,1.16,6.75.84,10.14a1.25,1.25,0,0,1-.48,1c-.5.28-1.08-.19-1.45-.63a49.82,49.82,0,0,1-9.38-17c-1.15-3.6-1.78-7.11-.41-10.63s6-6.87,8.94-5.44"/><path d="M88.77 170.12l5.55 34.27c1 6.4 5.2 12.59 15.24 10.49h0c8.58-2.48 7.94-8.65 6.82-16.26h0s9.44-2.45 8.59-12.05c-.4-4.64-2-14.12-3.59-22.68a17.93 17.93 0 0 0-19.44-14.61l-.93.09c-9.91 1.63-14.1 10.89-12.24 20.75z" class="U"/><path d="M116.38,198.62a23.28,23.28,0,0,1-12.84-2.43s3.76,7.12,13.23,5.3Z" class="T"/><g class="L"><use xlink:href="#E"/><path d="M119.8 168.8c-.15.2-1.27-.47-2.74-.31s-2.48 1-2.66.83.06-.41.49-.8a3.79 3.79 0 0 1 2.11-.89 3.53 3.53 0 0 1 2.2.48c.49.3.67.6.6.69z"/><use xlink:href="#E" x="-13.41" y="2.12"/><path d="M105.63 170.53c-.16.19-1.27-.47-2.74-.32s-2.48 1-2.66.84.06-.41.49-.8a3.79 3.79 0 0 1 2.11-.89 3.62 3.62 0 0 1 2.2.47c.49.3.67.61.6.7zm6.16 10.39a9.45 9.45 0 0 1 2.35-.68c.37-.07.72-.18.76-.45a2 2 0 0 0-.36-1.09l-1.4-2.75c-2-3.92-3.41-7.16-3.25-7.24a51.11 51.11 0 0 1 3.82 7l1.36 2.78a2.23 2.23 0 0 1 .34 1.45.94.94 0 0 1-.56.62 3.13 3.13 0 0 1-.63.15 10 10 0 0 1-2.43.21zm-6.64-16.2c-.1.42-1.59.38-3.3.76s-3.06 1-3.32.66c-.12-.17.08-.57.61-1a5.9 5.9 0 0 1 5-1.08c.7.18 1.05.47 1.01.66zm13.68-.13c-.23.37-1.28.12-2.5.23s-2.23.45-2.5.12c-.12-.16 0-.51.43-.87a3.63 3.63 0 0 1 4-.28c.49.3.67.63.57.8z"/></g><path d="M90.26 177.14c-.17-.06-6.78-1.29-5.91 5.24s7.25 4.32 7.23 4.13l-1.32-9.37z" class="U"/><path d="M89.26 184.3s-.1.09-.28.21a1.18 1.18 0 0 1-.85.13 2.85 2.85 0 0 1-1.64-2.36 3.7 3.7 0 0 1 .1-1.67 1.31 1.31 0 0 1 .74-1 .57.57 0 0 1 .71.22c.12.17.09.31.13.31s.12-.13 0-.39a.7.7 0 0 0-.31-.37.88.88 0 0 0-.65-.09 1.62 1.62 0 0 0-1 1.17 3.91 3.91 0 0 0-.15 1.88 3 3 0 0 0 2 2.6 1.23 1.23 0 0 0 1-.32c.21-.16.22-.31.2-.32z" class="T"/><path d="M120.6,155a12.49,12.49,0,0,0-4.49-4.23,21.49,21.49,0,0,0-12.82-3.19,17.48,17.48,0,0,0-11.73,5.84,18.42,18.42,0,0,0-4.11,9.77,27.15,27.15,0,0,0,1,10.63,8.08,8.08,0,0,0,2.21,4.09c.75.64,2,1,2.67.32a2.63,2.63,0,0,0,.61-1.59c.75-5.18,1.45-10.75-.89-15.43a15.17,15.17,0,0,1,4.09-4.6,7.8,7.8,0,0,1,5.87-1.41c3,.6,5.1,3.26,7.63,5a13.89,13.89,0,0,0,12.57,1.53Z"/><path d="M113.09,184.89a6.49,6.49,0,0,1-.49,1.8,2.25,2.25,0,0,1-1.35,1.22,2,2,0,0,1-1.83-.55,3.19,3.19,0,0,1-.84-1.77c-.1-.6,0-1.35.59-1.55a1.68,1.68,0,0,1,.74,0l3.34.61" class="T"/><path d="M112.39 187.68a4.74 4.74 0 0 1-1.68.14 2.36 2.36 0 0 1-1.47-.87 2.5 2.5 0 0 1-.46-2 2 2 0 0 1 .17-.51c.09-.16.07-.15.21-.15a4.52 4.52 0 0 1 .53.09l.55.1 1.9.32a6 6 0 0 0 1.77.15 5.32 5.32 0 0 0-1.69-.54l-1.88-.44-.54-.12c-.2 0-.35-.09-.61-.11a.76.76 0 0 0-.46.11 1 1 0 0 0-.28.34 2.49 2.49 0 0 0-.22.65 2.91 2.91 0 0 0 .61 2.44 2.69 2.69 0 0 0 1.82.93A2.48 2.48 0 0 0 112 188c.29-.16.41-.29.39-.32z" class="L"/><g class="U"><path d="M136.74,170.8l1.55-.42,24.13,23.45L182,196.19s-.2-5.91-7.55-13.45C167.85,176,152.5,168,147.3,163.86a8,8,0,0,0-2.25-1.34Z"/><path d="M136.73 159.64l-2.47-.7-5.82-2.76-6.62 2.47s.15 2.26 1.89 1.64l-6.94 2.29s.57 1.65.88 1.76-4.07.47-4.07.47 0 2.23 4.15 2.19 5.76-.75 5.76-.75l3.33.89-.13 2-4.54-.07.21 2.54a53.56 53.56 0 0 0 5.84.9s7 .1 8.9-.82l4.32-2.23 3.63-6.92z"/></g><g class="T"><path d="M130.48 160.81c0 .06-.39-.13-1-.41a16 16 0 0 1-2.35-1.25h.3l-.27.17a6.74 6.74 0 0 1-2.73 1c-.74.1-1.2 0-1.2 0a15 15 0 0 0 3.66-1.4l.25-.16.15-.1.15.11c.81.56 1.66 1 2.22 1.35s.87.64.82.69zm-2.13 3.53s-.45.16-1.12-.13-1.42-1-2.37-1.4h.24a10 10 0 0 1-1.34.76 9.49 9.49 0 0 1-3.74.92 3.42 3.42 0 0 1-1.58-.17 17 17 0 0 0 5.1-1.22 10.22 10.22 0 0 0 1.28-.71l.13-.07h.11c1.08.55 1.71 1.28 2.3 1.58s.99.36.99.44zm6.2 2.17c0 .08-.51-.07-1.3-.06a5.43 5.43 0 0 0-2.88.87 4.93 4.93 0 0 0-1.43 1.41l-.06.09h-.09a7.69 7.69 0 0 1-2.37.29 7.54 7.54 0 0 1 2.28-.73l-.15.1a4.74 4.74 0 0 1 1.53-1.61 5 5 0 0 1 3.18-.8c.86.1 1.32.39 1.29.44z"/><path d="M141.42 169.44a.82.82 0 0 1-.2.13l-.63.36-2.42 1.31a7.79 7.79 0 0 1-1.83.82 17.49 17.49 0 0 1-2.35.38c-1.7.17-3.64.24-5.79.24h0l-2.61-.27a16.81 16.81 0 0 1-2.86-.49h-.1v-.13l-.45-2.79-.05-.28h.28l4.32.18-.26.22c0-.61.09-1.29.13-2l.19.26-3.34-.89h.17a17.57 17.57 0 0 1-5 .76 11.72 11.72 0 0 1-2.63-.13 3.38 3.38 0 0 1-2.37-1.44 2 2 0 0 1-.26-.86v-.23h.25l3.08-.29.74-.1h.16 0v.05a.21.21 0 0 0-.06.22c0 .09.18.21.14.17a.55.55 0 0 1-.16-.1 1.59 1.59 0 0 1-.27-.38 11.6 11.6 0 0 1-.6-1.42l-.09-.25.25-.08 7-2.28.16.46a1.86 1.86 0 0 1-.88.1 1.32 1.32 0 0 1-.78-.45 2.73 2.73 0 0 1-.56-1.51v-.17l.18-.07 6.63-2.44h.08.08l5.81 2.79h0l2.43.7 2.12.75 3.36 1.22 2.11.78a3.77 3.77 0 0 1 .72.3 7 7 0 0 1-.75-.21l-2.14-.69-3.39-1.13-2.12-.71-2.44-.66h0l-5.84-2.73h.17l-6.62 2.49.16-.24a2.27 2.27 0 0 0 .45 1.23 1 1 0 0 0 1.12.2l.16.47-6.93 2.3.16-.33a8.84 8.84 0 0 0 .57 1.34 1.21 1.21 0 0 0 .16.25h0a.33.33 0 0 0-.06.12h0c.1-.26 0-.07.07-.12h.07a.27.27 0 0 1 .09.15.26.26 0 0 1-.07.24c-.08.08-.06.05-.08.06h-.09-.21l-.77.1-3.09.3.23-.25a1.56 1.56 0 0 0 .19.59 2.88 2.88 0 0 0 2 1.19 11.13 11.13 0 0 0 2.52.12 17.25 17.25 0 0 0 4.81-.7h.1.07l3.33.9h.2v.2c0 .69-.09 1.37-.13 2v.24h-.24l-4.31-.2.24-.27.43 2.8-.12-.16a18.62 18.62 0 0 0 2.72.47l2.59.29h0l5.75-.16a16.88 16.88 0 0 0 2.32-.32 8 8 0 0 0 1.8-.76l2.46-1.22.65-.3c-.11-.02-.04-.05-.03-.04zm-8.36-7.53a7.7 7.7 0 0 1-2.57 2.61 7.85 7.85 0 0 1-3.31 1.58c-.06-.14 1.4-.85 3-2l2.88-2.19z"/></g><g class="N"><path d="M181.79 195.46l-19.37-1.63-22.84 8.69-5 3.06L141.7 230s35.79-21.09 37.31-22.89a13 13 0 0 0 2.78-11.65z"/><path d="M78.39 213.41l-6.66 4.13 15.38 60.55L84.32 313c4 3.46 14 6.43 33 5.35S149 309 149 309l-1.82-35.91-4.33-40.52-4.85-27.71-14.64 1.06-5.71-3.38-2.56 1.28-3.28 9.1-8.54-6.18-10-4.81-3.65 6.81z"/></g><path d="M138 211.91a8 8 0 0 1 .52 1.34l1.2 3.76a123.1 123.1 0 0 1 3 12.66 123.69 123.69 0 0 1 1.58 12.9l.17 3.93a6.83 6.83 0 0 1 0 1.45 9.09 9.09 0 0 1-.17-1.44l-.34-3.91a158.09 158.09 0 0 0-1.73-12.84 161.33 161.33 0 0 0-2.8-12.65l-1-3.8a6.62 6.62 0 0 1-.43-1.4zm-28.92.48a4 4 0 0 1-1.38-.51 8.79 8.79 0 0 1-3-2.59l.36-.1a33.9 33.9 0 0 1-1.79 8.75l-.11.32-.28-.19-.7-.49-8.78-6.14-2.62-1.91a5.28 5.28 0 0 1-.92-.76 5.13 5.13 0 0 1 1 .59l2.71 1.78 8.86 6 .71.48-.4.13a36.63 36.63 0 0 0 1.88-8.61v-.54l.31.44a9.33 9.33 0 0 0 2.81 2.63l1.34.72zm13.69-5.39a31.89 31.89 0 0 1-3.25 3.69l-.18.19-.18-.2a22.41 22.41 0 0 0-2.17-2.21l-1.24-1-.61-.45a.69.69 0 0 0-.14-.02l-.09.15-.93 2.38a10.81 10.81 0 0 1-1 2.15 10.21 10.21 0 0 1 .64-2.28l.83-2.42a.71.71 0 0 1 .35-.43.64.64 0 0 1 .58.09l.64.46 1.28 1a18.68 18.68 0 0 1 2.2 2.29h-.36a32 32 0 0 1 3.63-3.39z" class="L"/><path d="M118.81 315.73A41.42 41.42 0 1 1 109 394h0a41.42 41.42 0 0 1 9.85-78.26zm14.77 78.68a38.61 38.61 0 1 0-23.45-2.93 38.61 38.61 0 0 0 23.45 2.93z" class="Q"/><g class="M"><path d="M126.38 399.87a43.62 43.62 0 1 1 14.94-2.66 43.32 43.32 0 0 1-14.94 2.66zm.09-80.11a36.66 36.66 0 1 0 6.74 72.69h0a36.8 36.8 0 0 0 26.47-20.55 36.68 36.68 0 0 0-33.21-52.14z"/><path d="M25.67 316l.37-.9c.78-1.93 2.5-3.06 3.84-2.51l60.54 24.63c.3.12.4.57.23 1l-2.58 6.34c-.18.43-.56.68-.86.56l-60.54-24.68c-1.34-.55-1.79-2.55-1-4.44z"/></g><g class="U"><path d="M82.21,246.24l-7.28,24.09,3.65,49.1-10.74,1.35S55.54,279,56.76,271.44,63,241.86,63,241.86Z"/><path d="M78.55 319.08l5 8.54 3.12 8-4.67-1.83s-2 9.66-2.81 9.91-3.06-.53-2.83-2.38a3.06 3.06 0 0 1-2.55.84c-1.42-.29-1.76-1.21-1.6-3 0 0-1.65 1.34-2.64.51a3 3 0 0 1-.89-2.3s-2.15.18-2.45-.93a18.52 18.52 0 0 1-.12-5.52l1.29-6.18.48-4z"/></g><path d="M77.38 335.75a9.22 9.22 0 0 0-.75 2.74 9.35 9.35 0 0 0-.31 2.83 9.1 9.1 0 0 0 .75-2.74 9.35 9.35 0 0 0 .31-2.83zM73 334.64a5.73 5.73 0 0 0-.67 2.18 6 6 0 0 0-.23 2.28 6.12 6.12 0 0 0 .67-2.19 6.19 6.19 0 0 0 .23-2.27zm-3.66-1.03a5.82 5.82 0 0 0-.34 1.89c-.17 1-.44 1.85-.31 1.9a3.08 3.08 0 0 0 .75-1.83 3.55 3.55 0 0 0-.1-1.96zM82.33 331a10.35 10.35 0 0 0-.8 2.68 11 11 0 0 0-.52 2.75 7.37 7.37 0 0 0 .95-2.64 7.65 7.65 0 0 0 .37-2.79z" class="T"/><path d="M56.17,287.66c0-.82-3.36-12.26-2.34-18.19s13.22-46,14.86-48.86a12.49,12.49,0,0,1,5.21-4.42,19.94,19.94,0,0,1,9.71,12.19c2.45,8.79,2.45,19.82,2.45,19.82l-9.81,24.33,1.17,13.82Z" class="N"/><path d="M85.44 247.4c-.1 0 .09-1.8 0-4.68a41.14 41.14 0 0 0-.49-5 40.65 40.65 0 0 0-3.72-11.75 41.55 41.55 0 0 0-2.5-4.39l-2.69-3.83a5.8 5.8 0 0 1 .88.91 27.4 27.4 0 0 1 2.08 2.68 37.2 37.2 0 0 1 2.62 4.38 38.62 38.62 0 0 1 3.77 11.9 38.46 38.46 0 0 1 .38 5.1 27.16 27.16 0 0 1-.17 3.43 6.59 6.59 0 0 1-.16 1.25zm-.63 5.09a18 18 0 0 1-1 3l-3 7.1-3.16 7a22.57 22.57 0 0 1-1.36 2.89 18 18 0 0 1 1-3l3-7.1 3.16-7a22.57 22.57 0 0 1 1.36-2.89zm-7.99 20.98a45.71 45.71 0 0 0-6.72-2.92 45.15 45.15 0 0 0-7.22-1.27 6.85 6.85 0 0 1 2.18-.12 21.57 21.57 0 0 1 5.19.89 21.09 21.09 0 0 1 4.82 2.13 6.82 6.82 0 0 1 1.75 1.29z" class="L"/><path d="M140.68 342.38c.09.11-7.79 7-17.61 15.41l-17.94 15c-.09-.12 7.79-7 17.61-15.4l17.94-15.01zm10.14 0c.1.11-6.54 6-14.83 13.09l-15.17 12.7c-.1-.11 6.55-6 14.83-13.09l15.17-12.7z" class="M"/><path d="M165.75 356.43s0-.21-.06-.63-.06-1.06-.12-1.87c0-.41 0-.87-.08-1.37l-.25-1.65-.3-1.91c-.11-.68-.34-1.38-.51-2.14a37.83 37.83 0 0 0-4.36-10.43 39.14 39.14 0 0 0-9.95-11.1l-1.69-1.26-1.84-1.12c-.62-.38-1.23-.8-1.91-1.11l-2-1-1-.49-1.09-.39-2.2-.8c-.75-.25-1.53-.41-2.3-.62a20.4 20.4 0 0 0-2.37-.54 36.24 36.24 0 0 0-4.94-.57c-.84 0-1.69-.11-2.55-.1l-2.58.14c-.44 0-.88 0-1.31.08l-1.3.2-2.63.43a41.21 41.21 0 0 0-5.21 1.53 40.79 40.79 0 0 0-5.09 2.24l-2.44 1.45-1.2.76-1.15.87a35.59 35.59 0 0 0-8.32 8.32l-.9 1.2-.79 1.29-.78 1.29a10 10 0 0 0-.73 1.33l-1.32 2.75-1.06 2.9a38.67 38.67 0 0 0 0 24.64l1.06 2.89c.35.96.89 1.84 1.33 2.76l.33.68.4.65.78 1.29.79 1.29.9 1.2a45 45 0 0 0 3.81 4.49 46 46 0 0 0 4.43 3.77l1.15.86c.39.29.81.5 1.21.76l2.43 1.45a40.11 40.11 0 0 0 5.1 2.24 41.21 41.21 0 0 0 5.21 1.53l2.63.43 1.3.2c.44.06.87.05 1.31.08l2.58.14 2.55-.1a36.24 36.24 0 0 0 4.94-.57 18.53 18.53 0 0 0 2.37-.54l2.3-.61 2.2-.81 1.09-.39 1-.49 2-1c.68-.31 1.28-.75 1.91-1.11l1.84-1.12 1.69-1.26a39 39 0 0 0 9.95-11.1 37.83 37.83 0 0 0 4.42-10.36c.17-.76.43-1.45.51-2.14l.3-1.91.25-1.64.08-1.38q.09-1.2.12-1.86c0-.42.06-.64.06-.64v.64l-.07 1.87q0 .62-.06 1.38c0 .5-.14 1.05-.22 1.65l-.28 1.92a22.1 22.1 0 0 1-.5 2.16 37 37 0 0 1-4.3 10.53 39.21 39.21 0 0 1-10 11.24l-1.7 1.28-1.85 1.14-1.92 1.13-2.05 1-1 .49-1.1.41-2.22.81c-.75.26-1.54.42-2.33.63a17.28 17.28 0 0 1-2.39.55 35.43 35.43 0 0 1-5 .59l-2.58.11-2.62-.13c-.43 0-.88 0-1.32-.08l-1.32-.2-2.66-.43a41 41 0 0 1-5.27-1.54 39.15 39.15 0 0 1-5.17-2.26l-2.46-1.46-1.23-.77-1.13-.89a43.51 43.51 0 0 1-4.49-3.81 42.66 42.66 0 0 1-3.88-4.58l-.92-1.21-.79-1.31-.8-1.31-.4-.65-.34-.7-1.38-2.79-1.08-2.93a39.22 39.22 0 0 1 0-25L90 341l1.34-2.79a11.8 11.8 0 0 1 .74-1.35l.8-1.31.8-1.3.91-1.21a45.1 45.1 0 0 1 3.88-4.58 43.51 43.51 0 0 1 4.49-3.81l1.17-.87a14 14 0 0 1 1.22-.78l2.46-1.46a40.51 40.51 0 0 1 5.17-2.26 41 41 0 0 1 5.27-1.54l2.66-.43 1.32-.2c.44-.05.88-.05 1.32-.08l2.62-.13 2.57.11a35.4 35.4 0 0 1 5 .59 21.25 21.25 0 0 1 2.39.55l2.33.63 2.22.81 1.09.41 1 .5 2 1a21.57 21.57 0 0 1 1.93 1.12l1.85 1.14 1.7 1.28a39.21 39.21 0 0 1 10 11.24 37 37 0 0 1 4.3 10.53c.17.76.42 1.47.5 2.16l.28 1.92.22 1.65.06 1.38.07 1.87.07.64zm-14.51 20.87a13.88 13.88 0 0 1 1-1.34 36.88 36.88 0 0 0 2.5-3.75 34.51 34.51 0 0 0 3-28.62 41 41 0 0 0-1.67-4.19 11 11 0 0 1-.69-1.51s.1.11.25.35l.62 1.07a30.42 30.42 0 0 1 1.83 4.16 33.4 33.4 0 0 1-3 28.93 31.64 31.64 0 0 1-2.66 3.69l-.83.92c-.19.21-.33.3-.35.29zm-2.07 3.59c.07.13-.24.44-.69.7s-.88.36-.95.24.24-.44.69-.7.88-.36.95-.24z" class="L"/><path d="M97.61 373.26a2 2 0 0 1-.24-.47l-.59-1.39a36.35 36.35 0 0 1-1.59-5.34 38.52 38.52 0 0 1 9.26-34.26 34.64 34.64 0 0 1 4.06-3.82c.5-.42.93-.7 1.21-.91s.43-.3.45-.28-.54.49-1.53 1.35a41.16 41.16 0 0 0-3.92 3.9A39.36 39.36 0 0 0 95.56 366a42 42 0 0 0 1.44 5.33l.61 1.93zm23.21-49.01a10.84 10.84 0 0 1-4.67.39 5.36 5.36 0 0 1 2.31-.46 5.48 5.48 0 0 1 2.36.07z" class="M"/><path d="M321.455 58.295c-3.778-3.778-8.8-5.858-14.142-5.858s-10.365 2.08-14.142 5.858-5.858 8.8-5.858 14.142 2.08 10.365 5.858 14.142 8.8 5.858 14.142 5.858 10.365-2.08 14.142-5.858 5.858-8.8 5.858-14.142-2.08-10.365-5.858-14.142zm-14.142 32.549c-10.149 0-18.406-8.257-18.406-18.406s8.257-18.406 18.406-18.406 18.406 8.257 18.406 18.406-8.257 18.406-18.406 18.406z" class="N"/><circle cy="72.502" cx="307.279" r="19.437"/><g stroke="#06f" transform="matrix(.059807 0 0 .056863 292.60954 58.21942)" fill="url(#A)" stroke-width="10.694"><path d="M45.4 367.7h91.3l45.4-78.8-45.4-78.9H45.4L0 288.9z"/><path d="M290 279.2l45.8-78.9-45.8-78.8h-90.8l-45.5 78.8 45.5 78.9z"/><path d="M335.8 377.4L290 298.6h-90.8l-45.5 78.8 45.5 79.2H290z"/><path d="M0 111.8l45.4 78.8h91.3l45.4-78.8-45.4-79.2H45.4z"/><path d="M489.2 111.8l-45.4-79.2h-91.3l-45.4 78.8 45.4 79.2h91.3z"/></g></svg>