<svg xmlns="http://www.w3.org/2000/svg" xmlns:xlink="http://www.w3.org/1999/xlink" width="1189" height="788.5" fill="none" xmlns:v="https://vecta.io/nano"><style><![CDATA[.B{fill:#000}.C{opacity:.3}.D{fill:#fff}.E{fill:#4d61fc}.F{opacity:.2}.G{stroke:#06f}.H{fill:#fc9d9d}.I{fill:#dadddf}.J{opacity:.15}.K{stroke-miterlimit:10}.L{stroke:#000}.M{stroke-width:1.449}.N{fill:#2a7fff}.O{fill:#f4f4f4}.P{fill:#5fd38d}.Q{fill:#b2b6bb}.R{stroke-linecap:round}]]></style><defs><linearGradient id="A" gradientUnits="userSpaceOnUse"><stop offset="0" stop-color="#2a7fff"/><stop offset="1" stop-color="#2a7fff" stop-opacity="0"/></linearGradient><linearGradient xlink:href="#A" id="B" x1="3783.117" y1="514.695" x2="2640.401" y2="427.979"/><linearGradient id="C" x1="-506.288" y1="135.105" x2="490.369" y2="244.6" gradientUnits="userSpaceOnUse"><stop offset="0" stop-color="#0684ff"/><stop offset="1" stop-color="#0684ff" stop-opacity="0"/></linearGradient><linearGradient xlink:href="#A" id="D" x1="3980.029" y1="530.045" x2="-538.384" y2="530.045"/><path id="E" d="M902.31 179.029H363.28a4.29 4.29 0 0 0-4.29 4.29v392.68a4.29 4.29 0 0 0 4.29 4.29h539.03a4.29 4.29 0 0 0 4.29-4.29v-392.68a4.29 4.29 0 0 0-4.29-4.29z"/><path id="F" d="M896.57 178.93H357.54a4.29 4.29 0 0 0-4.29 4.29V575.9a4.29 4.29 0 0 0 4.29 4.29h539.03a4.29 4.29 0 0 0 4.29-4.29V183.22a4.29 4.29 0 0 0-4.29-4.29z"/><path id="G" d="M896.22 580.878H357.9c-4.27 0-5.35-1-5.35-5.2v-392.24c0-4.19 1.08-5.2 5.35-5.2h538.32c4.27 0 5.35 1 5.35 5.2v392.24c0 4.18-1.08 5.2-5.35 5.2zM357.9 179.618c-3.5 0-3.94.39-3.94 3.82v392.24c0 3.42.44 3.82 3.94 3.82h538.32c3.49 0 3.94-.4 3.94-3.82v-392.24c0-3.43-.45-3.82-3.94-3.82z"/><path id="H" d="M371.54 200.719a4.85 4.85 0 1 0 0-9.7 4.85 4.85 0 0 0 0 9.7z"/><path id="I" d="M456.01 358.99a2.45 2.45 0 0 0 0-4.9 2.45 2.45 0 0 0 0 4.9z"/><path id="J" d="M526.91 278.359h-9.06c-5.346 0-9.68 4.334-9.68 9.68v23.8c0 5.346 4.334 9.68 9.68 9.68h9.06c5.346 0 9.68-4.334 9.68-9.68v-23.8c0-5.346-4.334-9.68-9.68-9.68z"/><path id="K" d="M569.14 293.09h-9.06c-5.346 0-9.68 4.334-9.68 9.68v9.06c0 5.346 4.334 9.68 9.68 9.68h9.06c5.346 0 9.68-4.334 9.68-9.68v-9.06c0-5.346-4.334-9.68-9.68-9.68z"/><path id="L" d="M758.23 408.039H495.88a3.19 3.19 0 0 0-3.19 3.19v50.46a3.19 3.19 0 0 0 3.19 3.19h262.35a3.19 3.19 0 0 0 3.19-3.19v-50.46a3.19 3.19 0 0 0-3.19-3.19z"/><path id="M" d="M743.42 418.75H580.03v3.18h163.39z"/><path id="N" d="M895.71 635.369l.5-7.42c.01-.127-.01-.256-.08-.365s-.17-.191-.29-.236l-20.13-6.32c-.15-.036-.31-.013-.44.066a.6.6 0 0 0-.27.355l-2.25 7.18-23.38 74.37a.57.57 0 0 0-.04.224.56.56 0 0 0 .05.221c.04.07.08.133.14.185.05.052.12.093.19.12l102.4 32.2a.58.58 0 0 0 .44-.07c.14-.08.23-.21.27-.36l23.19-73.781a.58.58 0 0 0-.02-.448.6.6 0 0 0-.32-.312l-79.6-25a.58.58 0 0 1-.29-.24c-.06-.112-.09-.242-.07-.369z"/><path id="O" d="M952.85 663.803l-52.81-36.84-1.49 2.14 52.81 36.841z"/><path id="P" d="M849.41 703.659l102.4 32.19a.59.59 0 0 0 .24.007c.09-.015.16-.047.23-.093s.13-.105.17-.175a.49.49 0 0 0 .09-.229l14.24-69.77c.04-.138.02-.285-.05-.411-.06-.127-.17-.223-.31-.269l-81.31-25.58a.57.57 0 0 1-.27-.202c-.06-.093-.1-.204-.1-.318l-.33-7.12c0-.114-.04-.225-.1-.318-.07-.092-.16-.163-.27-.202l-18.47-5.8c-.08-.019-.16-.021-.25-.006a.59.59 0 0 0-.22.092c-.07.046-.13.106-.17.175-.05.07-.08.148-.09.229l-15.74 77.11a.56.56 0 0 0 .03.402.62.62 0 0 0 .28.288z"/><path id="Q" d="M328.36 761.05c.068-.167.075-.352.018-.523s-.173-.315-.328-.407c-1.783-.876-3.743-1.331-5.73-1.331s-3.947.455-5.73 1.331c-.164.081-.29.224-.349.397a.69.69 0 0 0 .034.528c.081.164.224.29.397.349a.69.69 0 0 0 .528-.034c1.587-.755 3.322-1.146 5.08-1.146s3.493.391 5.08 1.146a.48.48 0 0 0 .3.07.83.83 0 0 0 .7-.38z"/><path id="R" d="M314.35 305.058s14.64 9.94 28.2 12.5c0 0 5.72-4.93 7.64-10.69l1.32 3.25c-1.331 4.984-4.17 9.434-8.13 12.74 0 0-20.54-4.92-29.9-13.84z"/><path id="S" d="M342.11 321.119a1 1 0 1 0 0-2 1 1 0 1 0 0 2z"/><path id="T" d="M152.52 566.609l-4.51 8.16c-.1.19-.24.4-.46.42s-.41-.2-.54-.4l-11.9-18.28 2.74-1.56z"/><path id="U" d="M1006.4 313.219a1.1 1.1 0 1 0 0-2.2 1.1 1.1 0 1 0 0 2.2z"/><path id="V" d="M165.899 381.005l-51.348 16.714.774 2.377 51.348-16.714z"/><path id="W" d="M146.57 351.898l23 11.05-16.69 5.38c-.241.066-.498.038-.721-.076a1 1 0 0 1-.479-.544z"/></defs><path d="M241.63 14.02L6.71 400.84A34.41 34.41 0 0 0 0 421.27L100 787h999l90-334.26c0-6.844-2.04-13.532-5.86-19.21L952.11 15.24c-3.15-4.691-7.41-8.534-12.39-11.192A34.45 34.45 0 0 0 923.52 0H269.37c-5.399.002-10.721 1.272-15.539 3.707s-8.998 5.967-12.201 10.313z" fill="#333"/><path d="M1141.51 788.5h-1086a1.53 1.53 0 0 1-1.229-1.5 1.53 1.53 0 0 1 1.229-1.5h1086c.35.07.66.257.88.53a1.5 1.5 0 0 1 .35.97 1.5 1.5 0 0 1-1.23 1.5z" class="Q"/><g fill="#ececec" class="G"><path d="M244.05 151.579a126.49 126.49 0 0 0-9.38 38.93h-.5l-33.72-.71h-.43v-1l.34-2.65c.528-4.59 1.391-9.136 2.58-13.6 1.951-7.331 4.69-14.429 8.17-21.17a.78.78 0 0 1 .85-.48l31.51.66zm-2.88 87.359h-.55l-31.28-.65c-.166.016-.333-.026-.472-.119a.72.72 0 0 1-.288-.391c-3.515-7.722-6.003-15.871-7.4-24.24a98.06 98.06 0 0 1-1.31-12.22c-.018-.138-.045-.275-.08-.41v-1h.52l33.53.7c.62 0 .59 0 .62.64l.49 8.36c.351 4.417.968 8.808 1.85 13.15a119.64 119.64 0 0 0 4.21 15.68c.1.14.1.3.16.5zm133.67 12.89l-.28.47c-2.787 4.068-5.886 7.913-9.27 11.5-4.075 4.416-8.588 8.407-13.47 11.91-9.432 6.838-20.042 11.883-31.3 14.88a98.64 98.64 0 0 1-13.32 2.53l-1.31.2h-.77l-.72-.49.85-.58a102.06 102.06 0 0 0 25.62-23.82 115.18 115.18 0 0 0 10.61-16.8c.058-.16.169-.295.315-.382a.74.74 0 0 1 .485-.098l32 .68z" class="M"/><path d="M344.21 192.779l-44.71-.93.82-39.07a4.51 4.51 0 0 1 .52 0l34.39.71c.152-.017.305.021.432.107a.64.64 0 0 1 .258.363 108.8 108.8 0 0 1 6.64 23.05 115.57 115.57 0 0 1 1.46 12.43l.19 3.34z" stroke-width="1.149"/><path d="M343.73 203.208l-.19 2.75-.79 6.51-1.66 8.92c-1.47 6.512-3.546 12.873-6.2 19-.043.18-.152.338-.306.441s-.341.146-.524.119l-35.2-.75h-.64l.8-37.86z" class="M"/><path d="M290.23 152.798l-.82 39.13-43.66-.92.26-2.92.88-6.54c.6-3.31 1.24-6.61 2-9.88 1.603-6.581 3.85-12.989 6.71-19.13a.69.69 0 0 1 .76-.46l33.29.71z" stroke-width="1.049"/><path d="M289.24 202.578l-.78 36.79v.56h-.59l-34.3-.71a.71.71 0 0 1-.478-.124c-.14-.097-.24-.241-.282-.406a99.91 99.91 0 0 1-5.53-19.84c-.58-3.49-1-7-1.37-10.53-.25-2.29-.26-4.62-.37-6.93v-.24a4.34 4.34 0 0 1 .51 0l42.63.88c.43-.01.57.09.56.55zm102.39-8.52l-36.64-.77a127.74 127.74 0 0 0-7.72-39.55h.57l33.58.69c.169-.016.338.024.481.114a.76.76 0 0 1 .309.386 96.51 96.51 0 0 1 7.9 24.68 106.22 106.22 0 0 1 1.49 13.78c.05.21.03.42.03.67z" class="M"/></g><path d="M391.45 203.908l-.18 2.56c-.983 10.99-3.894 21.72-8.6 31.7-.52 1.13-1.09 2.24-1.62 3.36a.53.53 0 0 1-.55.34l-33.67-.72h-.36l1.27-3.43c2.099-5.779 3.741-11.714 4.91-17.75a115.91 115.91 0 0 0 1.85-13.26l.24-3.14c0-.29.1-.42.4-.39a1.82 1.82 0 0 0 .33 0z" class="I"/><g fill="#ececec" class="G"><path d="M376.11 144.367l-.08.14h-.46l-32.05-.66c-.161.016-.322-.022-.459-.107a.74.74 0 0 1-.301-.363c-4.082-8.604-9.266-16.642-15.42-23.91-3.631-4.201-7.648-8.051-12-11.5-2.15-1.73-4.38-3.35-6.58-5l-.37-.29.45-.29c-.05-.21-.11-.42-.19-.7a95.88 95.88 0 0 1 38.384 13.985 95.87 95.87 0 0 1 29.076 28.695zm-95 148.001a4.23 4.23 0 0 1-.93.13c-3.512-.54-6.989-1.291-10.41-2.25a94.21 94.21 0 0 1-37.15-20.13 91.09 91.09 0 0 1-11.17-11.63 99.25 99.25 0 0 1-6.9-10l-.14-.31h.53l29.84.61a.74.74 0 0 1 .454.125c.133.091.234.222.286.375a115.09 115.09 0 0 0 10.59 18.13 113.22 113.22 0 0 0 12.56 14.5 98.91 98.91 0 0 0 12.16 10.2 2.14 2.14 0 0 1 .28.25zm3.58-190.25l-4.59 3.23c-5.293 3.939-10.225 8.34-14.74 13.15a102.2 102.2 0 0 0-15.63 21.33c-.26.49-.51 1-.8 1.47a.7.7 0 0 1-.207.188c-.08.048-.17.08-.263.092h-1.63l-29.17-.61c16.73-22.6 38.85-35.94 66.71-39.57l-.2.37zm44.96 148.791c-4.262 7.136-9.358 13.739-15.18 19.67-5.147 5.332-10.911 10.032-17.17 14l.72-34.29zm-41.46-.861l-.71 33.63a97.34 97.34 0 0 1-29.64-34.26zm42.72-106.779l-30.37-.63.67-32a92.71 92.71 0 0 1 16.74 14.62c4.928 5.541 9.271 11.576 12.96 18.01z" class="M"/><path d="M291.11 111.389l-.66 31.3-29.16-.57a92.27 92.27 0 0 1 29.82-30.73z" stroke-width="1.495"/></g><path d="M1038.59 461.899c18.22-21.7 14.67-50.35 3.11-65l-22.81 2c9.74 7.13 14.12 26.37 6.71 35.89s-24.69 14-34 6.27c-7.31-6-12.57-23.07-22-22.09-1.24-20.23-20.37-37.66-40.63-37a37.95 37.95 0 0 0-10.5-13.257c-4.46-3.57-9.66-6.086-15.23-7.36a37.83 37.83 0 0 0-16.91.006c-5.56 1.277-10.77 3.797-15.22 7.371l-1 76.39s13.51 21.87 39.8 19.07c6.92-.74 12.82-2.31 17.45-6.26a8.44 8.44 0 0 0 2.39 2.08c3.61 2.08 8.26 1.62 12-.26.47-.25.94-.52 1.39-.8 7.51 11.64 23 22.26 35.5 25.11 18.21 4.12 47.96-7.87 59.95-22.16z" class="D"/><path opacity=".04" d="M967.69 426.459a.97.97 0 0 1 0-.34l.19-1 .27-1.59.25-2.18c.39-4.661-.14-9.352-1.55-13.81-.96-3.078-2.34-6.006-4.11-8.7a32.2 32.2 0 0 0-7.45-8.09 35.61 35.61 0 0 0-23.66-7.39c-1.23 0-2.43.23-3.56.38h-.22l-.07-.2c-2.66-7.657-7.9-14.155-14.81-18.39-1.54-.93-3.14-1.745-4.8-2.44-1.57-.626-3.18-1.153-4.82-1.58-2.93-.809-5.96-1.245-9-1.3a29.46 29.46 0 0 0-12.77 2.53c-.63.262-1.25.563-1.85.9-.45.218-.89.461-1.31.73l-.8.47c-.09.062-.18.112-.28.15 0 0 .08-.07.25-.19l.77-.52a13.55 13.55 0 0 1 1.3-.78c.6-.346 1.21-.66 1.84-.94a29.03 29.03 0 0 1 12.86-2.71c3.07.034 6.12.454 9.08 1.25a41.96 41.96 0 0 1 4.88 1.57c1.68.697 3.31 1.519 4.87 2.46a35.45 35.45 0 0 1 15.07 18.62l-.29-.17a35.65 35.65 0 0 1 14.55.688c4.74 1.229 9.19 3.425 13.05 6.452 2.96 2.297 5.5 5.084 7.52 8.24a34.59 34.59 0 0 1 4.09 8.82 35.35 35.35 0 0 1 1.4 13.94c-.06.83-.2 1.56-.3 2.19a14.17 14.17 0 0 1-.32 1.58l-.24 1a2.05 2.05 0 0 1-.03.35zm12.74 2.449c-.1 0-.23-.87-.82-2.15-.35-.742-.78-1.443-1.29-2.09a12.04 12.04 0 0 0-2.14-2.11c-.81-.595-1.68-1.092-2.61-1.48a10.7 10.7 0 0 0-2.37-.65c-1.39-.22-2.28-.11-2.29-.21a1.78 1.78 0 0 1 .62-.14c.57-.068 1.15-.068 1.72 0 .85.08 1.69.272 2.49.57.98.38 1.91.891 2.76 1.52.83.643 1.57 1.393 2.21 2.23.51.691.92 1.444 1.24 2.24.22.533.37 1.09.45 1.66.05.38.07.6.03.61zm-3.67 26.051s-.2-.6-.69-1.63c-.7-1.454-1.69-2.752-2.9-3.82a11.27 11.27 0 0 0-6.49-2.86c-3.01-.276-6.02.611-8.4 2.48l-.32.26-.09-.4a17.05 17.05 0 0 0-1.34-3.86c-1.51-3.178-3.89-5.861-6.87-7.74a18.39 18.39 0 0 0-8.08-2.66 19.66 19.66 0 0 0-5.77.36c-1.35.31-2.07.58-2.08.53.16-.103.33-.18.51-.23.5-.196 1-.36 1.52-.49a18.42 18.42 0 0 1 7.28-.386 18.46 18.46 0 0 1 6.87 2.466c3.08 1.904 5.54 4.653 7.09 7.92.61 1.275 1.07 2.617 1.37 4l-.41-.15a12.2 12.2 0 0 1 8.76-2.53c2.49.249 4.84 1.301 6.68 3a11.64 11.64 0 0 1 2.84 4c.18.404.32.822.43 1.25a1.36 1.36 0 0 1 .09.49zm72.12-11.35c-.04.266-.11.528-.2.78l-.71 2.21a46.49 46.49 0 0 1-3.68 7.68c-2.19 3.623-4.8 6.978-7.77 10a62.68 62.68 0 0 1-5.53 5c-2.07 1.693-4.23 3.265-6.48 4.71a82.65 82.65 0 0 1-25.74 11.07c-2.76.665-5.58 1.083-8.42 1.25h-2.32c-.27 0-.54-.023-.81-.07.27-.023.54-.023.81 0 .53 0 1.31 0 2.3-.1a52.85 52.85 0 0 0 8.36-1.41 85.05 85.05 0 0 0 25.53-11.14c2.23-1.441 4.39-3.004 6.45-4.68 1.93-1.561 3.77-3.23 5.51-5a55.66 55.66 0 0 0 7.79-9.82c1.48-2.41 2.75-4.939 3.81-7.56.37-.94.6-1.68.8-2.17a5.19 5.19 0 0 1 .3-.75zm-20.58-18.49c.05.445.05.895 0 1.34-.11 1.209-.33 2.407-.64 3.58a21.85 21.85 0 0 1-6.12 10.236c-2.94 2.781-6.6 4.689-10.57 5.514-1.19.262-2.4.41-3.61.44-.44.032-.89.012-1.33-.06 1.63-.154 3.25-.397 4.86-.73 3.86-.903 7.41-2.814 10.3-5.536a22.44 22.44 0 0 0 6.11-9.964c.43-1.584.77-3.194 1-4.82z" class="B"/><use xlink:href="#E" class="E"/><use xlink:href="#E" opacity=".6" class="D"/><g class="E"><path opacity=".4" d="M362.38 178.318h540.43a4.27 4.27 0 0 1 4.29 4.29v29.69H358.11v-29.69a4.29 4.29 0 0 1 1.249-3.026c.801-.804 1.887-1.258 3.021-1.264z"/><use xlink:href="#F"/></g><use xlink:href="#F" opacity=".8" class="D"/><use xlink:href="#G" class="E"/><use xlink:href="#G" opacity=".6" class="D"/><path d="M356.8 178.318h540.43a4.27 4.27 0 0 1 4.29 4.29v29.69h-549v-29.69c0-1.136.451-2.225 1.253-3.03a4.29 4.29 0 0 1 3.027-1.26z" class="N"/><g class="D"><use xlink:href="#H"/><use xlink:href="#H" x="15.42"/><use xlink:href="#H" x="30.83"/><path d="M804.64 342.568H449.48c-7.439 0-13.47 6.031-13.47 13.47v1.42c0 7.44 6.031 13.47 13.47 13.47h355.16a13.47 13.47 0 0 0 13.47-13.47v-1.42c0-7.439-6.03-13.47-13.47-13.47z"/></g><path d="M804.64 342.568h-29.53v28.35h29.53c3.57 0 7-1.419 9.52-3.945a13.46 13.46 0 0 0 3.95-9.525v-1.41a13.46 13.46 0 0 0-3.95-9.525c-2.52-2.526-5.95-3.945-9.52-3.945z" fill="#0055d4"/><path d="M786.11 364.228c-.062-.07-.11-.151-.14-.239s-.042-.182-.036-.276a.71.71 0 0 1 .074-.267c.042-.083.101-.157.172-.218l5.61-5.09c.063-.059.137-.105.219-.134a.63.63 0 0 1 .254-.036c.086.006.171.029.248.069a.63.63 0 0 1 .199.161l.71.85c.063.069.111.15.142.238s.044.182.039.275-.03.184-.071.268a.71.71 0 0 1-.17.219l-5.65 5.07a.63.63 0 0 1-.221.129c-.082.028-.168.039-.254.032s-.169-.03-.246-.07-.144-.094-.199-.161zm12.34-16.048c.68.005 1.36.12 2 .34 1.39.485 2.56 1.444 3.31 2.709a6.31 6.31 0 0 1 .8 4.206c-.24 1.452-.99 2.772-2.1 3.73-1.12.957-2.54 1.49-4.01 1.505-.681-.006-1.356-.121-2-.34a6.24 6.24 0 0 1 2-12.15zm0 1.69c-1.074.006-2.11.391-2.928 1.087a4.56 4.56 0 0 0-.973 5.787c.545.925 1.399 1.628 2.411 1.986.48.161.983.245 1.49.25a4.58 4.58 0 0 0 2.65-.844c.77-.551 1.35-1.329 1.66-2.226.2-.566.28-1.164.24-1.761-.03-.597-.19-1.181-.45-1.719a4.62 4.62 0 0 0-1.07-1.415 4.53 4.53 0 0 0-1.54-.895h0c-.48-.168-.98-.253-1.49-.25z" class="D"/><g class="Q"><use xlink:href="#I"/><use xlink:href="#I" x="8.17"/><use xlink:href="#I" x="16.33"/><use xlink:href="#I" x="24.5"/><use xlink:href="#I" x="32.66"/><use xlink:href="#I" x="40.83"/></g><g class="D"><use xlink:href="#J"/><use xlink:href="#K"/><use xlink:href="#K" x="42.23"/><use xlink:href="#J" x="126.69"/><path d="M686.78 278.359h-.01c-5.346 0-9.68 4.334-9.68 9.68v23.8c0 5.346 4.334 9.68 9.68 9.68h.01c5.346 0 9.68-4.334 9.68-9.68v-23.8c0-5.346-4.334-9.68-9.68-9.68zm36.97 14.731h-3.8c-5.346 0-9.68 4.334-9.68 9.68v9.06c0 5.346 4.334 9.68 9.68 9.68h3.8c5.346 0 9.68-4.334 9.68-9.68v-9.06c0-5.346-4.334-9.68-9.68-9.68z"/><use xlink:href="#L"/></g><g class="I"><use xlink:href="#M"/><use xlink:href="#M" y="10.75"/><use xlink:href="#M" y="21.5"/><path d="M685.42 451H580.03v3.18h105.39z"/></g><path d="M564.67 411.959h-67.49v49h67.49z" class="O"/><path d="M497.18 447.179l19.91-11.349 13.89 7.82 21.85-15.051 11.84 9.551v22.81H497.3z" fill="#80b3ff"/><path d="M526.11 421.939a5.83 5.83 0 0 1-3.601 5.387 5.83 5.83 0 0 1-3.37.33c-1.131-.225-2.17-.782-2.985-1.598a5.83 5.83 0 0 1-1.593-2.988c-.224-1.131-.107-2.304.336-3.369a5.83 5.83 0 0 1 2.151-2.614c.96-.64 2.089-.98 3.242-.978a5.83 5.83 0 0 1 5.82 5.83z" fill="#59f"/><use xlink:href="#L" y="71" class="D"/><g class="I"><use xlink:href="#M" y="71"/><use xlink:href="#M" y="81.75"/><use xlink:href="#M" y="92.5"/><path d="M685.42 522H580.03v3.18h105.39z"/></g><path d="M564.67 482.959h-67.49v49h67.49z" class="O"/><path d="M543.098 510.325c1.608-6.736-2.548-13.501-9.285-15.109a12.54 12.54 0 0 0-15.109 9.284c-1.609 6.736 2.548 13.501 9.284 15.11s13.501-2.549 15.11-9.285z" fill="#f55"/><path d="M535.14 507.46l-3.27 1.89-3.28 1.89v-3.78-3.78l3.28 1.89z" class="O"/><use xlink:href="#N" class="E"/><use xlink:href="#N" class="B F"/><path d="M861.02 670.689l64.83 45.23 58.06-83.22-48.13-33.58-27.76 4.21z" class="I"/><path d="M935.78 599.119l-27.76 4.21 16.69 11.65z" class="B F"/><g class="B F"><path d="M967.91 642.22l-36.05-25.146-1.49 2.141 36.05 25.145zm-3.77 5.408l-36.04-25.146-1.49 2.141 36.04 25.146zm-3.74 5.389l-36.05-25.146-1.49 2.141 36.04 25.145zm-3.78 5.396l-52.81-36.841-1.49 2.141 52.81 36.84z" class="F"/><use xlink:href="#O" class="F"/><use xlink:href="#O" x="-3.75" y="5.383" class="F"/><path d="M945.33 674.594l-52.81-36.84-1.5 2.14 52.81 36.841zm-3.75 5.389l-52.81-36.841-1.5 2.141 52.81 36.84zm-3.77 5.385L885 648.527l-1.49 2.141 52.81 36.84zm-3.77 5.406l-52.81-36.841-1.49 2.141 52.8 36.841zm-3.76 5.391l-52.81-36.841-1.49 2.141 52.81 36.84z" class="F"/><use xlink:href="#O" x="-26.34" y="37.752" class="F"/></g><use xlink:href="#P" class="E"/><path d="M608.61 707.819l-85.25 20.14a1.2 1.2 0 0 1-1.44-.89l-26-110.1a1.19 1.19 0 0 1 .141-.899c.082-.133.189-.248.316-.339s.271-.157.423-.192l63.87-15.09 27.61 16.1 21.22 89.83a1.2 1.2 0 0 1-.89 1.44z" class="I"/><path d="M560.67 600.449l27.61 16.1-21.39 5.05a1.2 1.2 0 0 1-.904-.148c-.269-.167-.462-.433-.536-.742z" class="B F"/><path d="M518.493 713.834l88.281-20.853 3.257 13.791c.058.245.016.503-.116.718s-.345.367-.59.425l-86.432 20.416a.96.96 0 0 1-.37.013c-.123-.02-.241-.064-.348-.13s-.198-.151-.271-.252a.96.96 0 0 1-.154-.338z" fill="#06f"/><path d="M554.85 677.919l-4.41-.15-1.15-37.73 4.41.15zm-11.84-4.3l-18.08-7.64 12.43-15.96 3.48 2.71-8.9 11.43 12.79 5.39zm23.71-5.6l-3.36-2.87 9.02-10.551-13.06-6.229 1.9-3.98 18.25 8.709z" class="D"/><use xlink:href="#N" class="E"/><use xlink:href="#N" opacity=".862" fill="#0055d4"/><use xlink:href="#P" class="N"/><path d="M310.66 730.359l26.54-.08-4.15 38h-22.46z" class="H"/><path d="M310.66 768.51l.08-26.92 25.31-.08-.39 3.23-16.15 2.46c-.739.099-1.42.453-1.926 1s-.804 1.255-.844 2l-.54 11.69z" class="B J"/><path d="M310.11 759.819l-.08 2.23a17 17 0 0 1-1 5.54l-2.77 7.77a20.9 20.9 0 0 0-1.15 6.84v.39a2.86 2.86 0 0 0 .922 2.008c.279.257.607.455.963.585a2.88 2.88 0 0 0 1.115.167h27.61c.762.024 1.503-.251 2.064-.767a2.91 2.91 0 0 0 .936-1.993v-1a19.69 19.69 0 0 0-.92-5.93l-2.39-7.92a15.78 15.78 0 0 1-.77-5v-2.92a7.21 7.21 0 0 0-2-4.93l-.38-.46c-2.536-2.581-5.99-4.053-9.608-4.096a13.7 13.7 0 0 0-9.702 3.866l-.69.69c-1.284 1.332-2.047 3.082-2.15 4.93z" fill="#06f"/><path opacity=".6" d="M305.11 780.43h33.53a5.7 5.7 0 0 1 .08 1.16v1a2.86 2.86 0 0 1-.922 2.008 2.86 2.86 0 0 1-2.078.752h-27.61c-.762.024-1.503-.251-2.064-.767a2.91 2.91 0 0 1-.936-1.993z" class="B"/><g class="D"><use xlink:href="#Q"/><path d="M328.36 764.589a.75.75 0 0 0-.31-.93c-1.783-.876-3.743-1.331-5.73-1.331s-3.947.455-5.73 1.331a.68.68 0 0 0-.353.399.67.67 0 0 0-.032.27.68.68 0 0 0 .075.261c.038.082.093.156.161.216s.147.107.234.135.177.038.268.029.178-.036.257-.08c1.587-.755 3.323-1.147 5.08-1.147s3.493.392 5.08 1.147c.07.08.23.08.3.08a.83.83 0 0 0 .399-.099.82.82 0 0 0 .301-.281z"/><use xlink:href="#Q" y="7"/></g><path d="M391.44 732.119l26.06-.07.66 15a12.74 12.74 0 0 0 1.528 5.523c.921 1.702 2.218 3.171 3.792 4.297l19.11 13.65-47.9-1.18z" class="H"/><path d="M408.56 763.3l6.87 2.73-20.89 2.29-2.29-25.39h25.54l.15 3-15.28 2.22c-.793.116-1.511.533-2.006 1.164a3.13 3.13 0 0 0-.654 2.226v.3c.229 2.514 1.151 4.916 2.662 6.938s3.552 3.588 5.898 4.522z" class="B J"/><path d="M394.17 758.8l10.19 3.17a4.53 4.53 0 0 0 4.28-.88l8-6.87c.877-.757 1.99-1.186 3.148-1.213a5 5 0 0 1 3.202 1.063l18.16 14.1 14.32 4.73c2.059.689 3.849 2.006 5.121 3.766s1.96 3.873 1.969 6.044a2.3 2.3 0 0 1-2.29 2.29h-63.44c-.718.003-1.429-.137-2.093-.41a5.47 5.47 0 0 1-2.957-2.957c-.273-.664-.413-1.375-.41-2.093v-18.68a2.18 2.18 0 0 1 .241-.967c.154-.3.376-.559.647-.759s.585-.334.917-.392.672-.038.995.058z" fill="#06f"/><path opacity=".6" d="M391.44 780.42h70.86c.212.744.313 1.516.3 2.29a2.3 2.3 0 0 1-2.29 2.29h-63.48a5.47 5.47 0 0 1-5.39-4.58z" class="B"/><path d="M423.11 761.379l3.83-4.13c.107-.107.168-.253.168-.405s-.061-.297-.168-.405a.57.57 0 0 0-.405-.168c-.152 0-.298.061-.405.168l-3.84 4.13a.58.58 0 0 0 0 .81.57.57 0 0 0 .37.15c.16-.013.314-.065.45-.15zm3 2.359l3.84-4.13c.107-.107.168-.253.168-.405s-.061-.297-.168-.405a.57.57 0 0 0-.405-.167c-.152 0-.298.06-.405.167l-3.84 4.13a.58.58 0 0 0-.165.405c0 .152.059.297.165.405.099.097.232.151.37.15a.99.99 0 0 0 .44-.15zm3.05 2.381l3.84-4.14c.106-.108.165-.253.165-.404a.58.58 0 0 0-.165-.406.59.59 0 0 0-.82 0l-3.83 4.13c-.106.11-.166.258-.166.411a.59.59 0 0 0 .166.409.57.57 0 0 0 .37.141c.159.008.315-.042.44-.141z" class="D"/><path d="M408.31 469.449l11.91 273.44h-29.11l-25.65-219.77a3 3 0 0 0-3-2.65 3 3 0 0 0-2.95 2.71l-21.66 219.71h-28.74l3.65-266.13z" fill="#4d4d4d"/><path d="M323.36 475.949l-7.81 266.94h-6.46l3.65-266.13zm39.15 44.541a3 3 0 0 1 3 2.65l25.6 219.75h8l-24.27-216.77c-1.21-8.75-12.33-5.63-12.33-5.63z" class="C B"/><path d="M432.23 298.059l-45.88-35.76 11.76-12.45s58.11 28.61 70.87 48.21l-13.05 9.81zM262.66 451.548l19.32 53.8 14.25-3.99-7.72-54.37z" class="H"/><path d="M350.59 310.119l28.27-.18s17-4.32 24.12-5.21l29.25-6.7s26.64 5.31 36.73 0c0 0 5.81 14.26-9.4 21.82l-61.45 30.72 2.67 17.8s9.22 70.77 11.51 130.69c.014.335-.104.661-.329.91s-.537.4-.871.42l-99.84 7.41a1.29 1.29 0 0 1-.508-.066 1.28 1.28 0 0 1-.442-.258 1.3 1.3 0 0 1-.307-.409 1.32 1.32 0 0 1-.123-.497l-4.28-93.72-14.23-33.81-4.45 41.81 3.56 25.8-29.87 5.27-6.73-27.88c-.508-2.113-.673-4.294-.49-6.46l5.93-71.46s0-17.8 12.46-24l43.27-13.56z" class="E"/><g class="B"><path d="M337.85 742.89l.42-4.88H309.2l-.11 4.88zm52.76-4.88h29.38l.23 4.88h-29.08z" class="C"/><path d="M359.27 265.358a10.27 10.27 0 0 0 8.95-11.44 10.27 10.27 0 0 0-11.44-8.95c-.31 0-1.15-.11-1 .19 2.97 8.7 1.22 20.38 3.49 20.2z"/></g><path d="M315.04 308.55c0 .52 19.57 13.09 28.34 11.33 4.45-.89 7.31-9.22 7.21-9.73l-2.4-13.79v-7.15c.41-1.65 2.38-3.21 2.38-5.39.62-10.05 1.76-19.17 1.76-19.17s-32.85-22-34.92 3.63l-.83 3.73z" class="H"/><path d="M327.64 294.119c2.38 2.4 5.37 4.42 11.22 4.78 4.48 2.65 7.28 2.64 9.86 2.33l-.76-5.66c-2.8 3-14.57 3.78-19.55-2.25-.12-.19-.54-.16-.73 0a.85.85 0 0 0-.12.395c-.007.139.02.278.08.405z" class="B J"/><path d="M354.9 233.269s16.56 59.27-11 64.42c-23.86 4.44-28.46-32.93-28.46-32.93l-.1-24.32 18.15-8.32z" class="H"/><g class="B"><path d="M348.11 248.279c-3.11-3.7-8-6.21-12.94-5.71-5.57.56-9.75 5.37-8.71 11.84l.22 1.43a2.52 2.52 0 0 1-2.05 2.87h0c-.61.061-1.202.242-1.742.533s-1.017.685-1.403 1.161-.676 1.024-.85 1.612-.23 1.204-.165 1.814l.45 4.23c.017.246-.064.489-.225.676s-.389.303-.635.324c0 0-1.22.3-1.51-.71l-1-4.5 2.26-26 20.82-7.3 9.5 6.81z"/><path d="M315.8 270.058s1.5 4.95 2.67 2.67l-1.78 4.45z" class="J"/></g><path d="M349.18 284.12l-11.26-1.69a5.52 5.52 0 0 0 4.59 5.25c5.37.92 6.67-3.56 6.67-3.56z" class="D"/><path d="M336.84 263.119c-.45.037-.878.207-1.231.488a2.28 2.28 0 0 0-.752 1.089 2.27 2.27 0 0 0-.02 1.324c.124.434.375.821.719 1.112a2.28 2.28 0 0 0 1.216.525c.448.05.901-.033 1.302-.24a2.28 2.28 0 0 0 .95-.923c.218-.395.314-.846.276-1.295-.051-.602-.338-1.159-.8-1.549a2.28 2.28 0 0 0-1.66-.531z" class="B"/><path d="M338.063 265.087a.41.41 0 0 0-.066-.818.41.41 0 1 0 .066.818z" class="D"/><path d="M354.74 266.859a2.28 2.28 0 0 0 0-4.56 2.28 2.28 0 0 0 0 4.56z" class="B"/><path d="M355.661 264.163a.41.41 0 0 0 .375-.442.41.41 0 0 0-.442-.375.41.41 0 0 0-.375.441.41.41 0 0 0 .442.376z" class="D"/><g class="B"><path opacity=".25" d="M347.7 277.739l-2.89.33a.86.86 0 0 1-.47-.164c-.137-.099-.241-.237-.3-.396a.9.9 0 0 1 .56-.77l2.89-.34a1.34 1.34 0 0 0 1.13-1.44c-.17-.72-.84-1.29-1.45-1.13a.9.9 0 0 1-.77-.56c-.13-.3.26-.65.56-.78a2.74 2.74 0 0 1 3 2.26c.056.346.042.699-.042 1.04s-.237.659-.448.939-.477.513-.781.687a2.59 2.59 0 0 1-.989.324z"/><path d="M308.72 248.468c.3-6.58 3.31-11.71 8.89-13.41a15.4 15.4 0 0 1 7.26-.28c.217.053.443.06.663.023a1.64 1.64 0 0 0 .617-.242c.188-.121.348-.28.472-.466s.208-.395.248-.615c.363-2.191 1.444-4.198 3.073-5.706s3.715-2.432 5.927-2.624a9.68 9.68 0 0 1 4.555.681c1.442.59 2.72 1.52 3.725 2.709a1.6 1.6 0 0 0 1.18.598c.228.011.456-.028.668-.112s.403-.212.562-.376c0 0 6.18-5.8 15.29-1.14a14.14 14.14 0 0 1 6.571 7.741c1.157 3.305 1.046 6.921-.311 10.149-2.95 7.21-11.87 10-17.88 5.2-2.536-2.141-4.157-5.172-4.53-8.47-.456-2.269-.436-4.609.06-6.87l-2.89.24c-3.42.07-8.84-.12-13.85 1 .12.09.22.08.33.18l-8.74 3.73s-.86 24-2.32 23.89c-6.37-.81-9.92-9.88-9.57-15.83z"/><path opacity=".16" d="M291.37 362.12c-.108-.002-.212-.042-.293-.113s-.133-.17-.147-.277a36.41 36.41 0 0 0-4.574-13.68c-2.421-4.209-5.66-7.891-9.526-10.83-.049-.032-.09-.074-.123-.122s-.055-.103-.067-.16-.012-.116-.001-.173a.46.46 0 0 1 .066-.16c.032-.049.074-.09.122-.123s.103-.055.16-.067a.44.44 0 0 1 .173-.001.45.45 0 0 1 .16.066c3.973 3.009 7.302 6.785 9.791 11.103a37.31 37.31 0 0 1 4.699 14.037c.007.058.002.116-.014.172a.41.41 0 0 1-.079.154.43.43 0 0 1-.132.112c-.051.028-.107.046-.165.052z"/><path d="M311.23 507.799l12.13-.85-2-31-4-58.92a36.82 36.82 0 0 0-3.3-11.9l-20.45-43.44-3.56-8 .8 2.8c1.819 6.351 2.181 13.03 1.06 19.54l-.52 3 14.23 33.81 4.28 93.72c.005.169.044.336.113.49a1.3 1.3 0 0 0 .293.408c.124.115.269.204.428.263a1.27 1.27 0 0 0 .496.079zm86.88-157.231l61.47-30.69c15.21-7.56 9.4-21.82 9.4-21.82-1.312.658-2.703 1.142-4.14 1.44h0c1.79 12.1-19.35 20.37-19.35 20.37l-51 19.12z" class="C"/><path opacity=".16" d="M398.11 351.019c-.096-.002-.189-.033-.266-.091a.45.45 0 0 1-.164-.229c0-.16-4.9-16.46-6.64-19.94a.46.46 0 0 1-.067-.175.44.44 0 0 1 .011-.188.43.43 0 0 1 .086-.167c.04-.049.09-.089.146-.117s.119-.045.182-.047.127.008.185.031a.45.45 0 0 1 .157.104c.044.045.078.1.1.159 1.77 3.55 6.5 19.41 6.7 20.09a.45.45 0 0 1-.3.55zm-45.65 85.949a.44.44 0 0 1-.272-.091c-.078-.059-.134-.144-.158-.239a.45.45 0 0 1 .31-.54c.19-.05 18.57-5.15 27.19-21 .059-.103.155-.179.269-.212a.46.46 0 0 1 .341.032c.101.061.175.157.209.27a.47.47 0 0 1-.029.34c-8.82 16.21-27.56 21.4-27.75 21.45zm-75.35-15.669c-.088.001-.173-.024-.246-.072a.44.44 0 0 1-.164-.198.46.46 0 0 1 .24-.59c3.23-1.37 9.8-.08 10.08 0 .057.012.111.035.16.068s.089.075.121.123a.45.45 0 0 1 .065.161.44.44 0 0 1-.069.333c-.032.048-.074.09-.123.122s-.103.054-.161.065a.44.44 0 0 1-.173-.002c-.06 0-6.57-1.29-9.55 0-.06.011-.122.008-.18-.01z"/></g><path opacity=".5" d="M342.38 320.879s10.83 28.24 13.78 41.24" stroke-width="4" class="K L"/><path opacity=".1" d="M344.27 252.268s-2.88 7.57 15 5.12l-.4-3.16-6.61-3.74z" class="B"/><g fill="#21252b"><path d="M390.85 506.789a48.48 48.48 0 0 0-28.121-1.178c-9.283 2.397-17.648 7.493-24.036 14.644a48.48 48.48 0 0 0-7.52 53.339c4.162 8.638 10.792 15.848 19.051 20.718s17.777 7.182 27.35 6.643a48.47 48.47 0 0 0 26.432-9.671 48.48 48.48 0 0 0 19.246-41.457 48.47 48.47 0 0 0-16.106-33.43c-4.748-4.242-10.286-7.507-16.296-9.608zm-29.51 84.39a40.92 40.92 0 0 1-27.351-36.322c-.456-8.081 1.494-16.115 5.605-23.087s10.195-12.569 17.486-16.082a40.92 40.92 0 0 1 23.475-3.656c8.014 1.129 15.513 4.61 21.549 10.002s10.338 12.452 12.361 20.288a40.92 40.92 0 0 1-21.858 47.093c-9.776 4.71-21.023 5.345-31.267 1.764z"/><path d="M268.916 506.629l64.381 22.602-3.522 10.03-64.38-22.602a3.57 3.57 0 0 1-1.195-.706 3.56 3.56 0 0 1-.833-1.11c-.202-.421-.319-.878-.345-1.344a3.55 3.55 0 0 1 .195-1.374l1.165-3.318a3.56 3.56 0 0 1 4.534-2.178z"/></g><path d="M374.84 595.698c23.831 0 43.15-19.319 43.15-43.15s-19.319-43.15-43.15-43.15-43.15 19.319-43.15 43.15 19.319 43.15 43.15 43.15z" class="B C"/><path d="M333.92 552.549l58.19-36.92s14.45 7.08 20.68 21.32l-72.24 37.61s-7.19-10.85-6.63-22.01zm12.13 28.879l69.73-34.95s.51 10.07-1.7 17.17l-57.36 25.78c-.22.2-7.56-4.47-10.67-8z" class="C D"/><path d="M384.3 244.308l-4.19-1.19-10.9-3.3-9.59 1.62a1 1 0 0 0-.535.472c-.115.218-.145.47-.085.708.28 1.07 1 2.64 3.08 1.92l-7.11.53a1.26 1.26 0 0 0-1.1.95l-.17.65c-.25 1 2.31 2 3.38 2h.56l-6.31.26a1.11 1.11 0 0 0-.397.228 1.12 1.12 0 0 0-.273.367c-.065.14-.1.291-.103.445s.025.308.083.45c.33.81.77 1.77 1.08 1.88s-4.46.6-6.29.76c-.092.007-.181.035-.261.082s-.147.112-.197.19-.082.165-.093.257 0 .184.031.271c.39 1.11 1.81 3.05 6.93 3 7.15-.08 9.85-1.29 9.85-1.29l5.7 1.52-.28 3.43-7.75-.12.35 4.35c1.14.54 10 1.52 10 1.52s12 .18 15.21-1.38 5.59-2.83 5.59-2.83l8.89-11.57z" class="H"/><path d="M368.31 255.878s6.21-3.61 8.87-8.06m-17.34 12.901l10.9.2s4.78-5.25 9.84-4.06m-28.25-3.99s7.47-.15 10.38-2.15c0 0 1.58 2 5.6 1.86m-10.7-3.87a43.94 43.94 0 0 0 7.56-1.33c1.72 1.456 3.861 2.322 6.11 2.47m-10.06-4.97c2.294.091 4.582-.28 6.73-1.09l4.8 2.22" class="J K L R" stroke-width=".67"/><path d="M295.9 500.959l6.56 11.2 4.1 9.64-6.19-1.54s-2.65 12.66-3.69 13-4-.7-3.71-3.13c-.435.427-.963.75-1.541.942s-1.195.25-1.799.168c-1.86-.39-2.31-1.59-2.1-3.9 0 0-.88 1.75-3.46.66-1.57-.66-1.18-3-1.18-3s-2.82.24-3.21-1.22c-.406-2.393-.457-4.833-.15-7.24l1.68-8.1.64-5.23z" class="H"/><path d="M282.89 524.988c.485-1.629.796-3.305.93-5m3.62 7.231c.606-1.9.999-3.863 1.17-5.85m4.36 8.749c.671-2.392 1.136-4.838 1.39-7.31" class="J K L R" stroke-width=".66"/><g class="B"><path d="M268.16 450.58l15.66 53.48-3 13.08v7.62s-1.2.4-1.32-2.6l-.11-4.21.34-2.22 2-11.06-19.06-53.12z" class="J"/><path d="M259.31 346.119l-5.95 71.45c-.183 2.165-.018 4.346.49 6.459l6.72 27.88 7.59-1.339-8-29.281 5.83-82.739s.28-10.7 7.26-16.91l-1.47.459c-12.47 6.23-12.47 24.021-12.47 24.021z" class="C"/><path d="M361.18 259.189h-9.74-1.35-8.5-11.09a3.22 3.22 0 0 0-2.276.933c-.606.6-.949 1.415-.954 2.267v2.48a8.76 8.76 0 0 0 2.566 6.195c1.643 1.642 3.871 2.565 6.194 2.565s4.551-.923 6.194-2.565a8.76 8.76 0 0 0 2.566-6.195v-2.49a2.68 2.68 0 0 0-.145-1.043 2.66 2.66 0 0 0-.535-.907h3.43a2.71 2.71 0 0 0-.538.932 2.69 2.69 0 0 0-.132 1.068v2.49a8.76 8.76 0 0 0 2.566 6.195c1.643 1.642 3.871 2.565 6.194 2.565s4.551-.923 6.194-2.565a8.76 8.76 0 0 0 2.566-6.195v-2.49a3.4 3.4 0 0 0-.981-2.238 3.41 3.41 0 0 0-2.229-1.002zm-17.53 3.29v2.49a7.47 7.47 0 0 1-2.28 5.105c-1.393 1.342-3.251 2.092-5.185 2.092s-3.792-.75-5.185-2.092a7.47 7.47 0 0 1-2.28-5.105v-2.49c.02-.503.228-.98.584-1.335a2 2 0 0 1 1.336-.585h11.09a2.2 2.2 0 0 1 1.291.629c.349.348.57.803.629 1.291zm19.46 2.56a7.47 7.47 0 0 1-7.465 7.197c-1.934 0-3.792-.75-5.185-2.092a7.47 7.47 0 0 1-2.28-5.105v-2.49a1.94 1.94 0 0 1 1.91-1.92h1.35 9.74c.506.005.99.208 1.348.565a1.94 1.94 0 0 1 .572 1.345z"/></g><use xlink:href="#R" class="E"/><g class="B"><use xlink:href="#R" opacity=".5"/><path opacity=".5" d="M259.39 446.988l30.41-5 .65 4.66-29.88 5.27zm210.5-144.98l-.93-3.95c-10.09 5.31-36.73 0-36.73 0l-5.12 1.06c13.626 5.33 28.561 6.339 42.78 2.89z"/></g><g class="D"><use xlink:href="#S"/><use xlink:href="#S" x="5" y="14"/><use xlink:href="#S" x="9" y="26"/><use xlink:href="#S" x="13" y="37"/></g><path d="M388.25 263.789l8.06-14.57 4.35 1.92-9.15 15.18z" fill="#21252b"/><path opacity=".7" d="M344.86 293.119c-3.298-.862-6.702-1.256-10.11-1.17-2.13 0-3.94-1.11-5.61-2.44-8.03-6.39-9.03-27.39-9.03-27.39l-1.53 11.33c2.53 12.67 9.53 27.19 25.33 24.25 6.09-1.14 10-4.93 12.46-10.12l1.27-3.77c-1.42 2.934-3.429 5.545-5.9 7.67-.916.831-2.027 1.417-3.229 1.703a7.34 7.34 0 0 1-3.651-.063z" class="B"/><path d="M317.39 261.8a4.24 4.24 0 0 0-.876-1.611c-.406-.467-.909-.839-1.474-1.09a4.23 4.23 0 0 0-1.797-.366c-.618.01-1.227.156-1.783.427-5.24 2-3.43 12.76 3.9 14.66 4.51.56 3.67-2.07 3.07-5.66z" class="H"/><g class="B"><path opacity=".25" d="M311.11 262.208a2.92 2.92 0 0 1 1.218-.562c.445-.09.904-.076 1.342.042a3.25 3.25 0 0 1 1.111.615c.326.276.594.615.789.995.536.966.77 2.07.67 3.17l.08.93a.53.53 0 0 1-.013.247c-.024.081-.066.154-.123.215s-.129.107-.208.135-.163.037-.246.026a.54.54 0 0 1-.231-.088.53.53 0 0 1-.165-.184c-.04-.073-.063-.155-.065-.239s.015-.166.051-.242l-.08-.93c-.001-.911-.177-1.815-.52-2.66-.281-.503-.715-.902-1.24-1.14-.57-.081-1.15.04-1.64.34a.64.64 0 0 1-.395.046c-.133-.027-.254-.095-.345-.196-.28.02-.2-.3.01-.52z"/><path opacity=".7" d="M336.88 280.56c1.71-1 7.33-.6 7.33-.6s5.54 1.09 6.92 2.49a2.69 2.69 0 0 1 .81 1.327c.133.512.112 1.052-.06 1.553 0 0-.56-1.91-1.7-1.83-.57 0-5-.21-6-1.44a.37.37 0 0 0-.5-.07c-1.25.91-5.59-.12-6.16-.17-.88-.07-2.09 1.12-2.09 1.12-.035-.498.086-.995.346-1.421a2.41 2.41 0 0 1 1.104-.959z"/></g><path d="M170.79 671.94c-5.69-81.61-12-87-12.24-87.19l.39-.74c.28.13 6.86 4.16 12.69 87.87zm5.88-.011h-.84c3.74-59.62-.33-92.13-.37-92.45l.84-.11c0 .32 4.12 32.9.37 92.61m5.13 1.731c-4.54-37.18 7-65.5 7.14-65.78l.78.32c-.12.28-11.59 28.41-7.08 65.36zm4.74 4.54c-1.895-13.274-1.794-26.756.3-40l.83.16c-2.082 13.144-2.183 26.526-.3 39.7z" fill="#3f4249"/><path d="M189.11 608.598l3.67-.31c2.601-.21 5.125-.981 7.4-2.26 1.108-.659 2.261-1.24 3.45-1.74 4.53-1.82 9.59-1.49 14.47-1.74 7.982-.408 15.801-2.407 23-5.88.417-.195.766-.513 1-.91.75-1.37-.65-2.6-1.85-3.34-6.18-3.81-12.47-7.66-19.48-9.55s-14.95-1.57-20.93 2.54c-7 4.83-9.58 14.75-10.76 23.19" class="P"/><g class="B"><path d="M242.19 595.309c-.213-.081-.42-.178-.62-.29l-1.74-.91-6.42-3.28a59.92 59.92 0 0 0-9.94-3.83c-4.184-1.184-8.563-1.524-12.88-1-4.321.471-8.407 2.21-11.74 5-2.599 2.415-4.678 5.335-6.11 8.58-1.29 2.75-2.08 5.09-2.66 6.69l-.65 1.85a6.35 6.35 0 0 1-.26.64 3.16 3.16 0 0 1 .16-.67l.57-1.88c.707-2.305 1.552-4.566 2.53-6.77a26.09 26.09 0 0 1 6.12-8.78c3.392-2.889 7.572-4.696 12-5.19a32.66 32.66 0 0 1 13.06 1.1 57.2 57.2 0 0 1 10 3.95c2.73 1.36 4.88 2.58 6.36 3.42l1.69 1c.208.103.403.23.58.38" class="C"/><path d="M233.38 600.038c-.07.11-4.87-3-10.71-6.93s-10.51-7.22-10.44-7.33 4.87 3 10.71 6.93 10.52 7.22 10.44 7.33zm-5.11-14.52a18.55 18.55 0 0 1-7.06.58 24.59 24.59 0 0 1 3.52-.35 24.23 24.23 0 0 1 3.54-.23m-21-2.729c-.392.897-.922 1.727-1.57 2.46-.56.842-1.233 1.602-2 2.26a9.09 9.09 0 0 1 1.57-2.46 10.43 10.43 0 0 1 2-2.26m4.3 20.07a12.6 12.6 0 0 1-2.31-1.25l-5.26-3.52-5-3.84c-.718-.503-1.388-1.072-2-1.7.78.4 1.518.879 2.2 1.43l5.11 3.71 5.16 3.63c.749.452 1.459.967 2.12 1.54" class="C"/></g><g fill="#61656d"><path d="M199.04 725.089h-36.3l-6.76-49.81h49.81z"/><path d="M210.01 682.878h-58.25l-.84-10.97h59.94z"/></g><g class="B"><path d="M157.01 682.879h47.75l-5.72 42.21-5.74-.39 3.2-38.44-39.12-.66z" class="F"/><path d="M197.54 671.988l-1.69 10.89h14.16l.85-10.97z" class="F"/></g><path opacity=".008" d="M202.42 695.42h-43.19v.84h43.19zm0 3.379h-43.19v.84h43.19z" class="D"/><path d="M159.54 584.359c-3.5-2.65-7.19-3.17-11.57-3-4.39.29-8.687 1.4-12.67 3.27-6.85 3-13.29 7.42-17.38 13.68s-5.52 14.54-2.45 21.36a3 3 0 0 0 1.39 1.69 3.27 3.27 0 0 0 2.29-.18c7.79-2.54 15.64-5.11 22.8-9.09s13.68-9.51 17.53-16.75c.99-1.707 1.616-3.6 1.84-5.56.106-.98.002-1.97-.305-2.907s-.81-1.796-1.475-2.523" class="P"/><g class="B"><path d="M159.61 583.54a2.45 2.45 0 0 1-.57.23l-1.63.56-1.18.4-1.38.53-3.34 1.39-1.91.87-2 1c-1.41.69-2.84 1.58-4.36 2.47a75.7 75.7 0 0 0-9.23 6.85c-2.876 2.549-5.551 5.317-8 8.28-1.09 1.39-2.15 2.7-3 4-.44.65-.9 1.25-1.28 1.87l-1.11 1.79c-.73 1.12-1.27 2.2-1.8 3.13l-.71 1.3c-.21.4-.37.78-.54 1.12l-.76 1.55a2.95 2.95 0 0 1-.3.53 3.57 3.57 0 0 1 .21-.57l.68-1.59.51-1.14c.19-.41.43-.85.67-1.33.5-.94 1-2 1.74-3.18l1.09-1.81c.38-.63.83-1.24 1.27-1.9.86-1.33 1.92-2.65 3-4.07a66.91 66.91 0 0 1 17.3-15.22c1.54-.89 3-1.77 4.41-2.45.71-.35 1.38-.72 2.05-1l1.94-.85c1.22-.57 2.38-.94 3.37-1.32l1.41-.5 1.19-.36 1.67-.47a2.91 2.91 0 0 1 .59-.14m-27.3 14.808c-2.78 1.07-5.618 1.985-8.5 2.74a79.25 79.25 0 0 1-8.64 2.27c2.783-1.062 5.62-1.977 8.5-2.74 2.837-.913 5.721-1.67 8.64-2.27" class="C"/><path d="M131.96 617.119c-.15-.875-.214-1.763-.19-2.65v-6.4l.34-6.39c.031-.885.141-1.765.33-2.63a14.66 14.66 0 0 1 0 2.65l-.19 6.39-.16 6.38a15.56 15.56 0 0 1-.16 2.65m16.1-8.231c-.14 0-.57-4.59-1-10.27s-.6-10.29-.47-10.3.56 4.59 1 10.27.6 10.29.47 10.3z" class="C"/><path d="M128.03 587.87c.902-.109 1.813-.136 2.72-.08l6.56.15 6.55.28a14.44 14.44 0 0 1 2.72.27 16.37 16.37 0 0 1-2.72.08c-1.68 0-4-.06-6.57-.15l-6.55-.29a14.76 14.76 0 0 1-2.71-.26" class="C"/></g><use xlink:href="#T" class="E"/><use xlink:href="#T" class="P"/><path d="M176.67 581.31l-40.62-24c-.42-.25-.87-.53-1-1s.29-1.18.72-1.63c2.793-2.899 6.178-5.161 9.925-6.633a28 28 0 0 1 11.785-1.897 24.84 24.84 0 0 1 11.328 3.694c3.42 2.133 6.269 5.066 8.302 8.546 3.92 7 4.05 16.27-.45 22.92" fill="#87deaa"/><g class="B"><path d="M141.9 549.689a1.98 1.98 0 0 1 .53-.07l1.54-.07c1.89-.031 3.778.116 5.64.44a32.9 32.9 0 0 1 16.626 8.055 32.89 32.89 0 0 1 9.664 15.745 30.23 30.23 0 0 1 1 5.56c.07.67 0 .84.06 1.19-.032.314-.139.615-.31.88.119-.66.139-1.334.06-2-.238-1.858-.622-3.693-1.15-5.49a33.74 33.74 0 0 0-11.866-17.22 33.73 33.73 0 0 0-19.734-6.92h-2.07" class="C"/><path d="M171.17 564.769a9.47 9.47 0 0 1-2.05.93l-5.13 1.8-5.22 1.49c-.722.224-1.467.365-2.22.42.678-.324 1.389-.576 2.12-.75l5.18-1.62 5.16-1.66a10.39 10.39 0 0 1 2.16-.61m-6.39-17.189c.36 1.482.521 3.005.48 4.53.115 1.521.031 3.051-.25 4.55a28.12 28.12 0 0 1-.24-4.53 27.87 27.87 0 0 1 0-4.55m-29.08 9.308c.95-.426 1.937-.76 2.95-1l7.29-2 7.38-1.56c1.02-.223 2.057-.364 3.1-.42-.98.326-1.983.58-3 .76l-7.34 1.69-7.3 1.84a24.31 24.31 0 0 1-3.05.71" class="C"/></g><path d="M193.64 626.709c-3.5-.93-7.66 2.48-8.39 6s.61 7.17 2.17 10.44c3.324 7.334 8.268 13.82 14.46 18.97 6.243 5.132 14.039 8.001 22.12 8.14-1.48-6.86.39-14-.43-21-.721-6.153-3.51-11.878-7.91-16.239a27.34 27.34 0 0 0-16.31-7.761c-2.23-.24-4.82-.59-5.71 1.47" fill="#87deaa"/><g class="B"><path d="M224 670.229c-.177-.051-.346-.128-.5-.23a9.31 9.31 0 0 1-1.31-.88 13.79 13.79 0 0 1-3.45-4.61l-1.79-3.56-1.84-4.16c-.679-1.529-1.45-3.015-2.31-4.45-.951-1.523-2.017-2.971-3.19-4.33-2.39-2.81-5-5.24-7.19-7.57a48.99 48.99 0 0 1-5.48-6.58c-1.097-1.589-1.997-3.305-2.68-5.11a14.89 14.89 0 0 1-.47-1.5c-.055-.176-.092-.357-.11-.54.05 0 .25.71.76 2 .745 1.761 1.677 3.437 2.78 5a53.94 53.94 0 0 0 5.52 6.46c2.24 2.3 4.83 4.73 7.24 7.57a33.5 33.5 0 0 1 3.22 4.39c.867 1.453 1.642 2.959 2.32 4.51l1.84 4.18c.58 1.32 1.19 2.48 1.73 3.57.764 1.747 1.873 3.321 3.26 4.63 1 .88 1.72 1.21 1.69 1.25m-18.13-5.741a10.99 10.99 0 0 1 .32-2.36l1.33-5.57 1.78-5.45c.229-.758.548-1.487.95-2.17-.132.78-.343 1.544-.63 2.28l-1.63 5.47-1.46 5.52c-.149.779-.37 1.542-.66 2.28" class="C"/><path d="M223.34 647.668c-.839-.113-1.666-.304-2.47-.57l-5.9-1.45-6-1.22a14.71 14.71 0 0 1-2.47-.54 11.6 11.6 0 0 1 2.53.2l6 1.08 5.89 1.6c.82.214 1.615.516 2.37.9m-30.36 4.901a14.45 14.45 0 0 1 .38-2.73l1.45-6.47 1.9-6.36a14.52 14.52 0 0 1 1-2.56 16.34 16.34 0 0 1-.67 2.66l-1.76 6.38-1.58 6.42c-.163.906-.404 1.796-.72 2.66m22.38-19.589c0 .13-4.38-.22-9.75-.79-3.253-.261-6.491-.688-9.7-1.28 0-.13 4.38.22 9.75.79a94.78 94.78 0 0 1 9.7 1.28z" class="C"/></g><path d="M176.4 592.12c-.3-3.18-3.52-5.59-6.72-5.62-1.601.071-3.164.505-4.572 1.269s-2.625 1.838-3.558 3.141a25.38 25.38 0 0 0-3.92 8.7c-2.15 7.5-3.33 15.39-2.41 23.14s4.07 15.38 9.63 20.86c.9.89 2.08 1.78 3.32 1.51.669-.198 1.273-.571 1.75-1.08a51.81 51.81 0 0 0 12.657-17.869c2.897-6.79 4.31-14.121 4.143-21.501-.09-2.95-.47-6-2.11-8.47s-5.43-5.07-8.21-4.08" class="P"/><g class="B"><path d="M166.59 644.678c-.032-.181-.052-.365-.06-.55l-.07-1.56v-5.76l.5-8.52c.29-3.21.78-6.7 1.43-10.36s1.48-7.1 2.31-10.21a103.52 103.52 0 0 1 2.54-8.16c.82-2.29 1.51-4.14 2.05-5.39l.62-1.45c.066-.169.146-.333.24-.49a2.2 2.2 0 0 1-.15.53l-.53 1.47c-.49 1.27-1.14 3.13-1.91 5.43s-1.6 5.08-2.42 8.18-1.6 6.54-2.27 10.18-1.12 7.13-1.46 10.32-.52 6.06-.61 8.49-.13 4.38-.13 5.74v1.56a2.2 2.2 0 0 1 0 .55" class="C"/><path d="M168.74 618.119a11.72 11.72 0 0 1-1.62 1.77l-4.25 3.95-4.47 3.7c-.617.526-1.287.985-2 1.37a13.01 13.01 0 0 1 1.76-1.64l4.37-3.79 4.33-3.84a12 12 0 0 1 1.86-1.52m12.87 10.311a19.21 19.21 0 0 1-1.72-2.39l-4-5.85-4.09-5.81c-.613-.773-1.165-1.592-1.65-2.45a16.36 16.36 0 0 1 1.92 2.25l4.22 5.73 3.91 6a15.74 15.74 0 0 1 1.43 2.57m-6.75-32.62c.07.11-4.2 3-9.54 6.42s-9.73 6.13-9.81 6 4.2-3 9.55-6.42 9.73-6.13 9.8-6zm12.04 12.998c-4.417-3.861-8.617-7.964-12.58-12.29 2.263 1.879 4.419 3.882 6.46 6a75.75 75.75 0 0 1 6.12 6.32" class="C"/></g><path d="M208.01 698.478v26.17h-26.17v-26.17h-2.53v26.17h-26.17v-26.17h-2.53v88.64h2.53v-54.87h26.17v54.87h2.53v-54.87h26.17v54.87h2.54v-54.87-7.6-26.17z" fill="#3f4249"/><path d="M1032 358.12l-11.44 4.2-11.45 4.17-.48 11.46c-.5 12.23 4.77 23 15.26 30.66 5.66 4.14 11.64 7.17 15.78 5.65s6.72-7.7 8.35-14.52c3-12.66.06-24.26-8.25-33.25l-7.79-8.41z" class="E"/><path d="M1032.03 358.119l-11.44 4.21-11.48 4.22-.47 11.46c-.51 12.23 4.76 23 15.25 30.66 5.66 4.14 11.65 7.17 15.78 5.65s6.73-7.7 8.35-14.52c3-12.66.06-24.26-8.25-33.25l-7.78-8.42z" fill="#fe3a00"/><path d="M1029.83 358.879l-9.27 3.4-9.26 3.41-.38 9.28c-.41 9.9 3.86 18.6 12.35 24.82 4.59 3.36 9.43 5.81 12.78 4.58s5.44-6.24 6.76-11.76c2.44-10.25 0-19.64-6.68-26.92z" fill="#fc0"/><path d="M1027.65 359.68l-7.09 2.6-7.08 2.61-.29 7.09c-.31 7.58 3 14.24 9.45 19 3.5 2.57 7.21 4.44 9.77 3.5s4.16-4.77 5.17-9c1.87-7.84 0-15-5.11-20.59z" fill="#ffe680"/><path d="M1025.47 360.478l-4.91 1.8-4.9 1.81-.2 4.91a15.04 15.04 0 0 0 1.56 7.427c1.14 2.302 2.86 4.273 4.98 5.723 2.43 1.78 5 3.08 6.77 2.43s2.88-3.31 3.58-6.23c.67-2.477.69-5.084.07-7.574-.61-2.489-1.86-4.78-3.61-6.656l-3.34-3.61z" class="D"/><path d="M1029.18 316.219l26.29 15.69c.21.121.37.312.46.54l5.46 14.86c.02.053.03.11.02.167a.24.24 0 0 1-.06.158c-.03.047-.07.085-.12.11a.37.37 0 0 1-.17.035l-20-.25z" class="E"/><path d="M1032.58 318.249l10.88 29.58-2.35-.3-11.93-31.31z" class="B F"/><path d="M985.76 332.189l-9.86 29c-.09.229-.09.482 0 .71l5.46 14.86c.02.054.05.101.09.139.05.038.1.065.15.079a.35.35 0 0 0 .17 0 .31.31 0 0 0 .15-.078l15-13.12z" class="E"/><path d="M984.29 336.01l10.89 29.59 1.6-1.76-11.21-31.58z" class="B F"/><path d="M978 246.77c-3.56 1.34-6.63 13-6.9 30.71a97.77 97.77 0 0 0 4.41 30.76l25 66.22 17.45-6.59 10.11-3.82 17.45-6.6-22.7-60.08c-2.21-5.878-4.98-11.53-8.27-16.88-3.28-5.371-6.99-10.471-11.08-15.25-11.55-13.29-21.93-19.82-25.49-18.47" class="Q"/><path d="M978 246.769c-2.79.94-5.22 8.26-6.31 19.67l23.77-9.47c-8.35-8.01-13.87-11.41-17.46-10.2z" class="N"/><path opacity=".09" d="M1041.81 348.396l-44.77 16.471.25.685 44.77-16.471zm.51 1.379l-44.77 16.471.26.685 44.76-16.471zm.5 1.373l-44.76 16.471.25.685 44.77-16.471zm.51 1.373l-44.77 16.471.25.685 44.77-16.471zm.5 1.36l-44.77 16.47.25.686 44.77-16.471zm.5 1.373l-44.77 16.47.26.686 44.76-16.471zm.51 1.369l-44.76 16.471.25.685 44.76-16.471z" class="B"/><path d="M1013.28 331.849l8.66 23.51m-16.3-56.97l11.76 31.94" class="C K L" stroke-width=".73"/><path d="M1003.65 304.175a14.41 14.41 0 1 0-17.35-23.013c-6.35 4.79-7.62 13.826-2.83 20.181s13.83 7.623 20.18 2.832z" class="D"/><path d="M1000.38 307.298c-3.53 1.305-7.41 1.281-10.92-.066-3.52-1.347-6.42-3.927-8.17-7.256s-2.23-7.183-1.35-10.841 3.06-6.872 6.13-9.041 6.83-3.145 10.57-2.748a15.48 15.48 0 0 1 9.76 4.91c2.55 2.767 4.01 6.366 4.1 10.127a15.52 15.52 0 0 1-3.6 10.315h0c-1.73 2.076-3.98 3.662-6.52 4.6zm-10-27c-1.92.701-3.66 1.836-5.07 3.317-1.42 1.481-2.47 3.267-3.08 5.221s-.76 4.022-.45 6.044c.32 2.022 1.1 3.944 2.28 5.616s2.73 3.049 4.53 4.025a13.33 13.33 0 0 0 5.85 1.602 13.36 13.36 0 0 0 5.95-1.154c1.87-.837 3.52-2.093 4.82-3.671h0c1.69-2.02 2.74-4.496 3.03-7.115.28-2.618-.22-5.262-1.44-7.596a13.32 13.32 0 0 0-5.42-5.516c-2.31-1.262-4.95-1.809-7.57-1.573-1.17.104-2.32.359-3.43.76z" class="E"/><g stroke-width=".73" class="K L"><use xlink:href="#U" class="C"/><use xlink:href="#U" x="3.79" y="10.289" class="C"/><use xlink:href="#U" x="13.7" y="24.549" class="C"/><use xlink:href="#U" x="17.49" y="34.83" class="C"/><path d="M988.93 340.81l43.42-15.98" class="C"/></g><path d="M873.69 140.859l-8.07 73.91 12.01-10.68 10.24 11.03-2.69-72.57zm26.87-6.609L942 195.97l-15.59-3.89-3.95 14.53-31.3-65.53z" class="I"/><path d="M882.9 157.49c20.06 0 36.33-16.266 36.33-36.33s-16.27-36.33-36.33-36.33-36.33 16.265-36.33 36.33 16.27 36.33 36.33 36.33z" class="N"/><path d="M907.11 144.029c-.62 1.242-1.14 2.529-1.57 3.85-.67 2-1.31 3.83-2.38 4.58s-3 .66-4.93.63h-1.36l2.75 5.76c2.39.16 4.78-.423 6.83-1.67 2.59-1.81 3.62-4.77 4.51-7.39zm-21.42 12.24l-.81.5c-1.65 1-3.35 2.07-4.55 2s-2.81-1.36-4.4-2.71c-1.12-1.011-2.32-1.915-3.61-2.7l-.71 6.56.61.52c2.12 1.79 4.52 3.82 7.69 4.05a8.29 8.29 0 0 0 2.6-.23c1.2-.324 2.35-.805 3.42-1.43z" class="F B"/><path d="M882.51 161.938a8.29 8.29 0 0 1-2.6.23c-3.17-.23-5.57-2.26-7.69-4.05a14.79 14.79 0 0 0-3.39-2.43 15.05 15.05 0 0 0-4.19-.66c-2.75-.2-5.86-.43-8.26-2.46s-3.13-5-3.79-7.68c-.26-1.415-.73-2.785-1.38-4.07a14.19 14.19 0 0 0-2.9-2.87c-2.14-1.8-4.56-3.83-5.33-7s.43-6.06 1.49-8.64a14.82 14.82 0 0 0 1.23-3.9c-.02-1.437-.24-2.864-.66-4.24-.65-2.67-1.39-5.69-.21-8.57s3.84-4.55 6.18-6c1.25-.68 2.39-1.532 3.4-2.53a14.85 14.85 0 0 0 1.88-3.73c1-2.57 2.23-5.48 4.93-7.16s5.67-1.39 8.38-1.2c1.46.19 2.94.17 4.39-.06a15.94 15.94 0 0 0 3.92-2c2.31-1.43 4.93-3.05 8-2.83s5.57 2.26 7.68 4.06c.94 1.065 2.12 1.898 3.43 2.434 1.32.536 2.74.761 4.16.656 2.74.2 5.86.43 8.26 2.45s3.12 5 3.78 7.68c.27 1.415.74 2.785 1.39 4.07.82 1.091 1.8 2.057 2.9 2.87 2.13 1.8 4.55 3.84 5.33 7s-.43 6.07-1.49 8.65a14.38 14.38 0 0 0-1.24 3.89 15.31 15.31 0 0 0 .67 4.25c.65 2.66 1.38 5.68.21 8.56s-3.84 4.55-6.18 6a9.27 9.27 0 0 0-3.38 2.504c-.92 1.085-1.57 2.367-1.91 3.746-1 2.57-2.22 5.48-4.92 7.16s-5.68 1.39-8.39 1.2a9.8 9.8 0 0 0-4.39.069c-1.43.355-2.77 1.033-3.91 1.981-1.65 1.146-3.48 2.029-5.4 2.62zm-17.5-71.16a2.86 2.86 0 0 0-.77.31c-1.11.69-1.85 2.51-2.63 4.44a18.82 18.82 0 0 1-2.81 5.26c-1.38 1.479-2.99 2.731-4.76 3.71-1.76 1.09-3.42 2.12-3.9 3.3s0 3.13.47 5c.59 1.944.86 3.97.81 6a18.88 18.88 0 0 1-1.64 5.65c-.8 1.95-1.56 3.78-1.23 5.1s1.84 2.59 3.45 3.94c1.58 1.196 2.96 2.629 4.09 4.25a19.71 19.71 0 0 1 2.07 5.71c.47 1.9 1 3.87 1.92 4.68s2.92 1 5 1.12c2.02-.067 4.03.293 5.91 1.057 1.87.763 3.56 1.913 4.96 3.373 1.59 1.34 3.09 2.62 4.4 2.71s2.9-1 4.55-2a19.41 19.41 0 0 1 5.56-2.67 19.74 19.74 0 0 1 6.17-.22c1.93.14 3.93.28 5-.36s1.85-2.51 2.64-4.43c.65-1.894 1.6-3.673 2.81-5.27a19.17 19.17 0 0 1 4.76-3.71c1.76-1.09 3.41-2.12 3.9-3.3s0-3.13-.48-5c-.58-1.946-.85-3.97-.81-6 .25-1.962.8-3.872 1.65-5.66.8-1.94 1.55-3.78 1.23-5.1s-1.85-2.59-3.45-3.94a18.71 18.71 0 0 1-4.09-4.25 19.68 19.68 0 0 1-2.07-5.71c-.48-1.9-1-3.87-1.92-4.68s-2.92-1-5-1.11c-2.02-.045-4.03-.41-5.94-1.08a18.95 18.95 0 0 1-4.94-3.36c-1.59-1.34-3.08-2.61-4.39-2.71s-2.9 1-4.55 2c-1.71 1.173-3.59 2.074-5.57 2.67-2.03.394-4.11.465-6.16.21-1.41-.175-2.84-.151-4.24.07z" class="E"/><path d="M882.9 152.469c17.29 0 31.31-14.017 31.31-31.31s-14.02-31.31-31.31-31.31-31.31 14.018-31.31 31.31 14.02 31.31 31.31 31.31z" stroke="#fff" stroke-width="1.91" class="K"/><path d="M878.96 105.139l7.8 9.26 12.06-1.17-6.41 10.28 4.84 11.1-11.75-2.91-9.06 8.04-.87-12.08-10.44-6.14 11.22-4.56z" class="O"/><path d="M191.54 434.259L125 455.699a.93.93 0 0 1-.367.044c-.124-.009-.245-.043-.355-.1a.95.95 0 0 1-.468-.554l-27.7-85.97a1 1 0 0 1 .077-.72c.115-.222.308-.393.543-.48l49.84-16.06 23 11.05 22.54 70.15a.94.94 0 0 1-.037.718c-.106.225-.298.399-.533.482z" fill="#80b3ff"/><g class="D"><path d="M160.906 365.09l-51.3 16.74.775 2.375 51.3-16.74zm2.529 8.303l-51.348 16.714.774 2.378 51.348-16.714z"/><use xlink:href="#V"/><path d="M168.38 388.604l-51.349 16.714.774 2.377 51.348-16.713z"/><use xlink:href="#V" x="4.954" y="15.207"/><path d="M173.337 403.821l-51.348 16.714.773 2.377 51.349-16.714z"/><use xlink:href="#V" x="9.909" y="30.418"/><path d="M178.246 418.281l-51.3 16.74.775 2.375 51.3-16.74z"/></g><use xlink:href="#W" class="I"/><use xlink:href="#W" fill="#ccc"/><g transform="matrix(.161438 0 0 .152197 691.07656 41.790377)" stroke-width="4.84" class="G"><path d="M182.1 288.9L136.7 210H45.4L0 288.9l45.4 78.8h91.3z" fill="url(#C)"/><path d="M290 121.5h-90.8l-45.5 78.8 45.5 78.9H290l45.8-78.9z" fill="url(#C)"/><path d="M199.2 298.6l-45.5 78.8 45.5 79.2H290l45.8-79.2-45.8-78.8z" fill="url(#C)"/><path d="M136.7 190.6l45.4-78.8-45.4-79.2H45.4L0 111.8l45.4 78.8z" fill="url(#C)"/><path d="M352.5 32.6l-45.4 78.8 45.4 79.2h91.3l45.4-78.8-45.4-79.2z" fill="url(#C)"/></g><g transform="matrix(.050721 0 0 -.04769 486.65035 97.957757)" stroke="#0049f8" stroke-width="15.248"><path d="M220 1073c0-4 24-62 53-130l52-123h203 202V540 260l-331-2-332-3-33-115C16 77 0 19 0 13 0 3 102 0 475 0c462 0 476 1 495 20s20 33 20 540v520H605c-212 0-385-3-385-7z" fill="url(#D)"/><path d="M1220 539c0-349 3-539 10-537 5 1 145 122 310 268l309 265c5 0 144-120 311-267C2326 120 2466 0 2471 0s9 232 9 540v540h-135-135l-2-249-3-248-178 159-178 158-160-142-180-157c-19-13-19-8-19 233v246h-135-135z" fill="url(#D)"/><path d="M2720 1053c-20-26-21-35-18-299 3-251 4-274 22-293 19-21 24-21 493-21h473v-90-90h-439-439l-54-127-55-128 605-3c553-2 607-1 624 14 17 16 18 39 18 335 0 317 0 318-22 333-20 14-83 16-490 16h-468v60 60h439l448.712 6.132 56.494 107.438c41.258 69.288 79.745 141.212 79.745 141.212C3857.758 1077.269 3772 1080 3346 1080h-605z" fill="url(#B)"/></g><text xml:space="preserve" style="white-space:pre" x="0.707" y="209.304" transform="matrix(.443401 0 0 .3899 485.61668 31.229527)" font-size="38.667" font-family="Arial" class="D"><tspan x="0.707" y="209.304">JunTech Web Solutions Aruba </tspan></text></svg>