<svg xmlns="http://www.w3.org/2000/svg" xmlns:v="https://vecta.io/nano" xmlns:xlink="http://www.w3.org/1999/xlink" width="1265.041" height="964.298" fill="none"><style>.B{fill:#fff}.C{fill:#000}.D{fill:#4d61fc}.E{fill:#fc9d9d}.F{opacity:.15}.G{stroke-miterlimit:10}.H{fill:#b2b6bb}.I{fill:#2a7fff}.J{fill:#3f4249}.K{stroke-linecap:round}.L{stroke:#fff}.M{stroke:#263238}</style><path d="M1157.16 909.415l-1051.2-2c-.35-.04-.673-.21-.907-.47-.234-.27-.364-.61-.364-.96s.13-.69.364-.96c.234-.26.557-.43.907-.47l1051.21 2c.35.04.67.21.91.47.23.27.36.61.36.96s-.13.69-.36.96c-.24.26-.56.43-.91.47z" class="H"/><path fill="#a00" d="M512.81 182.605a59.54 59.54 0 0 1-45.47 2.724c-14.91-5.155-27.17-16.023-34.08-30.214h0c-6.9-14.196-7.88-30.552-2.72-45.47 5.15-14.918 16.03-27.177 30.22-34.08h0c7.03-3.419 14.66-5.42 22.46-5.889a59.55 59.55 0 0 1 23.01 3.157 59.53 59.53 0 0 1 20.05 11.721 59.65 59.65 0 0 1 14.03 18.501h0c6.9 14.196 7.88 30.552 2.72 45.47-5.15 14.918-16.02 27.177-30.22 34.08z"/><path d="M474.96 144.305c.22.006.44-.04.64-.136a1.44 1.44 0 0 0 .51-.412c.13-.175.23-.38.27-.598s.02-.442-.04-.654l-.68-3.3c-.2-1-.45-1.31-1.51-1.78-2.64-1.201-4.74-3.339-5.89-6-4.49-9.22-1.6-20.84 9.47-26.23 9.8-4.76 18.1-1.39 22 6.61 5.12 10.53 4.78 21.68-2.14 25-3.82 1.86-8.21.09-9.18-4.23-1.15-5.16-1.46-11.18-3.08-14.52-1.45-3-4.27-4.71-7.59-3.09-3.91 1.9-5.08 7.46-2.45 12.88a15.64 15.64 0 0 0 4 5.21l5 22.18c1.47 6.58 6.18 13.24 6.64 13.92.06.097.14.173.25.218.1.046.21.058.33.034a.5.5 0 0 0 .28-.163c.08-.083.13-.187.14-.299.13-.64 2-8.65.78-15.15l-2.31-11.29c2.44 1.81 7.18 2.13 11.13.22 11.73-5.71 14.49-20.28 7.53-34.61-5.27-10.83-19.34-16.45-33.29-9.67-17.35 8.43-20 25.12-15 35.49 2.97 6.34 8.07 10.75 14.19 10.37z" class="B"/><path d="M947.067 401.399a65.46 65.46 0 0 1-65.44-65.46h0c0-8.595 1.693-17.105 4.983-25.045s8.11-15.155 14.188-21.232 13.293-10.896 21.233-14.185a65.45 65.45 0 0 1 25.046-4.978h0c8.595 0 17.106 1.693 25.047 4.982a65.43 65.43 0 0 1 21.233 14.188 65.44 65.44 0 0 1 14.188 21.233c3.289 7.941 4.982 16.452 4.982 25.047h0c0 8.596-1.693 17.108-4.983 25.049a65.47 65.47 0 0 1-35.427 35.422 65.47 65.47 0 0 1-25.05 4.979z" class="I"/><path d="M930.947 321.359h-13.55v43.76h13.55zm-6.84-5.73c1.602.016 3.171-.444 4.511-1.323a8.08 8.08 0 0 0 3.011-3.609c.624-1.475.795-3.102.493-4.675a8.08 8.08 0 0 0-2.193-4.157 8.07 8.07 0 0 0-4.136-2.234c-1.569-.319-3.198-.163-4.679.446s-2.748 1.644-3.639 2.975-1.368 2.896-1.368 4.497a8.02 8.02 0 0 0 .586 3.086 8 8 0 0 0 1.729 2.623 8.02 8.02 0 0 0 2.605 1.755c.976.407 2.023.616 3.08.616zm28.49 26.52c0-6.16 2.83-9.82 8.25-9.82 5 0 7.38 3.52 7.38 9.82v23h13.49v-27.74c0-11.72-6.65-17.39-15.92-17.39-2.64-.037-5.244.611-7.557 1.882a15.25 15.25 0 0 0-5.643 5.368v-5.89h-13v43.76h13z" class="B"/><path d="M559.11 148.235h299.56c10.79 0 21.13 4.285 28.76 11.912s11.91 17.972 11.91 28.758v675.91c0 5.34-1.05 10.63-3.1 15.56-2.04 4.94-5.04 9.42-8.81 13.2-3.78 3.77-8.26 6.77-13.2 8.81-4.93 2.05-10.22 3.1-15.56 3.1H552.93c-5.596 0-10.963-2.22-14.92-6.18a21.1 21.1 0 0 1-6.18-14.92v-708.86a27.29 27.29 0 0 1 27.29-27.29z" class="J"/><path d="M559.11 148.235h299.56c10.79 0 21.13 4.285 28.76 11.912s11.91 17.972 11.91 28.758v675.91c0 5.34-1.05 10.63-3.1 15.56-2.04 4.94-5.04 9.42-8.81 13.2-3.78 3.77-8.26 6.77-13.2 8.81-4.93 2.05-10.22 3.1-15.56 3.1H557.91c-6.917 0-13.55-2.75-18.441-7.64a26.07 26.07 0 0 1-7.639-18.44v-703.88a27.29 27.29 0 0 1 27.29-27.29z" class="C" opacity=".3"/><path d="M870.12 158.725H525.24v728.08h344.88z" class="B"/><path d="M863.53 161.605h-334v85h334z" class="D"/><path fill="#dadddf" d="M838.37 785.225v-135a4.25 4.25 0 0 0-4.25-4.25h-276.5a4.25 4.25 0 0 0-4.25 4.25v47.49l285-.07zm-259.41-99.26c-2.615 0-5.171-.775-7.345-2.228s-3.868-3.517-4.869-5.933-1.262-5.074-.752-7.638 1.769-4.92 3.618-6.769a13.22 13.22 0 0 1 6.769-3.618c2.564-.51 5.223-.248 7.638.752s4.48 2.695 5.933 4.869 2.228 4.73 2.228 7.345a13.22 13.22 0 0 1-13.22 13.22z"/><path d="M838.35 697.655l-285 .07v184.67h14.17l86-114.94 61.59 83.15 41.78-44.48 66.32 76.26h15.18v-97.18zm-123.32 70.16c-3.639-.035-7.186-1.147-10.195-3.195s-5.344-4.94-6.712-8.312a18.43 18.43 0 0 1-.976-10.639c.731-3.566 2.502-6.834 5.087-9.395a18.44 18.44 0 0 1 20.074-3.917 18.43 18.43 0 0 1 8.246 6.792c2.019 3.029 3.096 6.587 3.096 10.226a18.52 18.52 0 0 1-1.442 7.086c-.942 2.244-2.317 4.281-4.046 5.993s-3.779 3.068-6.032 3.988-4.666 1.386-7.1 1.373z" class="H"/><path d="M715.11 850.625l-61.64-83.17-85.94 114.94 255.68.01-66.31-76.26z" class="B"/><path fill="#06f" d="M715.02 730.935a18.44 18.44 0 0 0-10.192 3.2 18.43 18.43 0 0 0-6.708 8.314c-1.367 3.373-1.705 7.074-.972 10.639s2.504 6.832 5.09 9.392 5.872 4.297 9.444 4.993 7.269.321 10.628-1.081a18.44 18.44 0 0 0 11.34-17.017c-.01-2.435-.501-4.843-1.443-7.088a18.51 18.51 0 0 0-4.049-5.995c-1.73-1.713-3.781-3.067-6.035-3.987s-4.668-1.384-7.103-1.37z"/><use class="H" xlink:href="#B"/><path stroke-width=".88" d="M602.41 668.445h114.51m-114.07 5.72l55.06.01" class="G K M"/><path d="M863.5 832.605h-334v59h334z" class="D"/><path d="M837.65 883.695H555.4c-14.22 0-25.74-11-25.74-24.53v-666.39c0-13.55 11.53-24.53 25.75-24.53h50.81a14.14 14.14 0 0 1 8.31 2.561c2.432 1.705 4.266 4.133 5.24 6.939l2.33 7.08a14.13 14.13 0 0 0 5.241 6.935c2.432 1.704 5.34 2.598 8.309 2.555h121.8a14.14 14.14 0 0 0 8.308-2.557c2.432-1.703 4.266-4.129 5.242-6.933l2.32-7.08a14.16 14.16 0 0 1 5.247-6.938c2.434-1.705 5.342-2.602 8.313-2.562h50.81c14.22 0 25.75 11 25.74 24.53v666.39c-.03 13.54-11.56 24.53-25.78 24.53zm-324.84-701.09v687.73c.011 9.2 3.671 18.03 10.177 24.54a34.78 34.78 0 0 0 24.533 10.18h298c9.22 0 18.06-3.66 24.58-10.18s10.19-15.36 10.19-24.58v-687.73a34.79 34.79 0 0 0-10.19-24.573c-6.52-6.517-15.36-10.177-24.58-10.177h-298a34.76 34.76 0 0 0-34.71 34.79z" class="J"/><g class="B"><use xlink:href="#C"/><path d="M833.03 227.285H810.1a.55.55 0 0 1-.55-.55c-.001-.073.012-.145.039-.212s.068-.129.119-.18.112-.092.18-.119.139-.04.212-.039h22.93a.55.55 0 0 1 .55.55.55.55 0 0 1-.55.55z"/><use y="15.07" xlink:href="#C"/></g><path stroke-width="1.84" d="M568.19 215.785l-8.67 7.56a1.27 1.27 0 0 0-.316.429c-.074.164-.113.341-.114.521v12.85c0 .224.088.438.245.598a.85.85 0 0 0 .595.252h5.19c.111 0 .222-.022.325-.065a.84.84 0 0 0 .276-.184c.079-.079.141-.173.184-.276a.84.84 0 0 0 .065-.325v-6.71c0-.224.088-.438.245-.598s.371-.249.595-.252h4.43a.85.85 0 0 1 .84.85v6.71a.84.84 0 0 0 .249.601.83.83 0 0 0 .276.184.84.84 0 0 0 .325.065h5.19a.85.85 0 0 0 .84-.85v-12.84a1.29 1.29 0 0 0-.43-1l-8.67-7.56c-.238-.192-.537-.294-.843-.287s-.599.123-.827.327z" class="G L"/><path fill="#dadddf" d="M836.54 273.76l-279.19-.584a3.1 3.1 0 0 0-3.106 3.093l-.69 329.349a3.1 3.1 0 0 0 3.094 3.107l279.189.585a3.1 3.1 0 0 0 3.107-3.094l.689-329.349a3.1 3.1 0 0 0-3.093-3.107z"/><path d="M839.52 325.225H553.57v202.76h285.95z" class="H"/><path d="M555.08 527.975l99.32-132.98 61.57 83.17 41.73-44.48 81.84 94.22z" class="B"/><path fill="#59f" d="M734.52 376.915c.036 3.69-1.026 7.308-3.05 10.393a18.61 18.61 0 0 1-8.319 6.937 18.62 18.62 0 0 1-10.772 1.134c-3.624-.698-6.958-2.457-9.58-5.054s-4.414-5.914-5.147-9.531a18.62 18.62 0 0 1 7.885-19.168 18.62 18.62 0 0 1 10.363-3.151 18.54 18.54 0 0 1 18.62 18.44z"/><use x=".88" y="-372.46" class="H" xlink:href="#B"/><g class="G M"><path d="M826.43 591.335l-5.75-5.73-5.47 5.46v-15.63h11.23z"/><path stroke-width=".5" d="M606.42 590.455l-2.69-1.2c-1.057.63-2.252.994-3.48 1.06-1.715.018-3.385-.552-4.73-1.617s-2.283-2.559-2.659-4.233a7.49 7.49 0 0 1 .596-4.963c.761-1.538 2.027-2.766 3.585-3.483a7.49 7.49 0 0 1 4.978-.451c1.663.424 3.129 1.405 4.154 2.78s1.548 3.061 1.48 4.775a7.49 7.49 0 0 1-1.854 4.642zm-6.28-14.56c-.981-.104-1.972.001-2.909.307a7 7 0 0 0-4.238 3.844c-.396.903-.596 1.88-.589 2.866a7 7 0 0 0 .634 2.855c.41.897 1.005 1.697 1.746 2.348s1.61 1.138 2.552 1.429a7.01 7.01 0 0 0 2.914.261c1.186-.073 2.337-.437 3.35-1.06l.11-.06 2 .88-.45-1.94.09-.1a6.94 6.94 0 0 0-1.369-10.533c-1.14-.73-2.468-1.112-3.821-1.097zm14.7.62l6.66 5.27 2.2 7.52 7.8-13.78zm15.25-.43l-8.46 5.2-5.48-4.27zm-6.39 11.85l-1.71-6.27 8.53-5.24z"/></g><path d="M581.73 578.085a4.33 4.33 0 0 0-1.567-2.532 4.34 4.34 0 0 0-5.591.189 4.34 4.34 0 0 0-1.392 2.633 4.33 4.33 0 0 0-4.211-3.721 4.33 4.33 0 0 0-2.827.986c-.796.655-1.332 1.571-1.512 2.585a5.81 5.81 0 0 0 1.07 4.21 16.98 16.98 0 0 0 3.06 3.22l4.57 4.06 4.38-4.13c1.136-.957 2.144-2.056 3-3.27a5.83 5.83 0 0 0 1.02-4.23z" class="D"/><g stroke-width=".88" class="G K M"><path d="M563.97 541.195l241.35.02m-241.35 7.03l241.35.01m-241.35 7.04l132.13.01m-94.24-260.52l114.51.01"/><path d="M602.3 300.515h55.05"/></g><path stroke-width=".45" d="M594.37 852.105h-20.85a.68.68 0 0 1-.365-.24c-.092-.12-.142-.26-.142-.41s.05-.29.142-.41a.68.68 0 0 1 .365-.24h20.88c.145.04.274.12.366.24s.142.26.142.41-.05.29-.142.41-.221.2-.366.24zm0 7.04h-20.85a.65.65 0 0 1-.353-.24.68.68 0 0 1-.136-.4c0-.15.048-.29.136-.41a.65.65 0 0 1 .353-.24h20.88c.141.04.264.12.353.24a.68.68 0 0 1 .136.41.68.68 0 0 1-.136.4c-.089.12-.212.2-.353.24zm0 7.05h-20.85a.58.58 0 0 1-.5-.64c-.017-.15.025-.3.118-.43a.58.58 0 0 1 .382-.22h20.88a.68.68 0 0 1 .365.24c.092.12.142.26.142.41s-.05.29-.142.41a.68.68 0 0 1-.365.24z" class="B L G"/><path stroke-width="1.8" d="M808.76 849.965l11.24 7.65-11.25 9.44m-104.16-12.15v13.5H686.6v-13.5m-2.7 1.8l11.7-8.1 11.69 8.1" class="K G L"/><g class="B"><path d="M801.68 182.335l-.68.68-.39.39a9.35 9.35 0 0 0-3.034-2.032c-1.135-.472-2.352-.714-3.581-.714s-2.446.242-3.581.714a9.35 9.35 0 0 0-3.034 2.032l-.38-.39-.67-.68h.05l.87-.77c.614-.505 1.285-.934 2-1.28a10.4 10.4 0 0 1 2.66-.89l1.33-.18h1.17l.9.07c.834.092 1.654.287 2.44.58.572.211 1.124.472 1.65.78a10.19 10.19 0 0 1 1.58 1.1l.72.65zm-12.16 3.27l-1-1.12a7.61 7.61 0 0 1 4.41-2.21c1.202-.182 2.43-.078 3.583.305a7.71 7.71 0 0 1 3.057 1.895l-1.14 1.13a6.29 6.29 0 0 0-8.88 0zm7.83 1l-1.08 1.08a3.14 3.14 0 0 0-1.044-.703c-.392-.162-.812-.242-1.236-.237-.422-.002-.84.081-1.229.242a3.18 3.18 0 0 0-1.041.698l-1.08-1.07c.438-.445.959-.799 1.535-1.041s1.194-.367 1.818-.368a4.71 4.71 0 0 1 1.819.362 4.73 4.73 0 0 1 1.538 1.037zm-2.38 2.1a1 1 0 0 1-.168.556c-.11.164-.266.292-.449.368s-.384.095-.578.057-.372-.134-.512-.274-.235-.318-.274-.512a1.01 1.01 0 0 1 .057-.578c.076-.182.204-.339.369-.449s.357-.168.555-.168c.265 0 .52.105.707.293s.293.442.293.707zm219.607 203.354c0-.56.166-1.107.477-1.572a2.84 2.84 0 0 1 1.27-1.043c.517-.215 1.086-.27 1.635-.161a2.83 2.83 0 0 1 1.449.775c.396.396.665.9.775 1.449s.053 1.118-.161 1.635-.577.959-1.043 1.27a2.83 2.83 0 0 1-2.655.262c-.343-.143-.655-.351-.918-.614s-.471-.575-.614-.918a2.83 2.83 0 0 1-.215-1.083zm8.91 0c0-.56.166-1.108.478-1.573a2.83 2.83 0 0 1 1.271-1.043 2.84 2.84 0 0 1 3.086.618c.395.397.664.902.772 1.452a2.83 2.83 0 0 1-2.787 3.376c-.749-.003-1.466-.302-1.995-.832a2.83 2.83 0 0 1-.825-1.998z"/><use xlink:href="#D"/><use x="8.939" xlink:href="#D"/><path d="M845.46 189.605h-17.94v-8.33h18zm-17.09-.91h16.15v-6.51h-16.15zm12.2-6.04h-11.61v5.51h11.61z"/><path d="M847.08 183.175h-1.6v4.46h1.6zm-90.42 39.69H636.4a3.87 3.87 0 0 0-3.87 3.87v.01a3.87 3.87 0 0 0 3.87 3.87h120.26a3.87 3.87 0 0 0 3.87-3.87v-.01a3.87 3.87 0 0 0-3.87-3.87z"/></g><path fill="green" d="M954.1 723.605c-4.71-1.797-9.01-4.504-12.67-7.965s-6.6-7.61-8.66-12.209c-2.05-4.598-3.18-9.557-3.32-14.592a38.31 38.31 0 0 1 2.51-14.754h0a38.33 38.33 0 0 1 7.96-12.693 38.49 38.49 0 0 1 12.22-8.674 38.37 38.37 0 0 1 14.61-3.332c5.04-.139 10.06.717 14.77 2.519h0c9.5 3.632 17.17 10.889 21.32 20.175 4.16 9.287 4.45 19.842.82 29.345h0a38.34 38.34 0 0 1-7.96 12.695c-3.46 3.667-7.62 6.615-12.22 8.676a38.35 38.35 0 0 1-14.61 3.331 38.34 38.34 0 0 1-14.77-2.522z"/><path fill-rule="evenodd" d="M987.81 694.245a20.62 20.62 0 0 0-.81-15.356c-2.23-4.824-6.24-8.6-11.19-10.544a20.67 20.67 0 0 0-15.38.109c-4.92 2.013-8.87 5.846-11.04 10.701-.12.28-.24.56-.34.84-1.34 3.485-1.68 7.271-1 10.94l-7.4 8.95 12 .68c2.32 2.723 5.3 4.799 8.65 6.026 3.36 1.227 6.98 1.563 10.5.976 3.53-.587 6.84-2.078 9.62-4.327a20.76 20.76 0 0 0 6.23-8.505c.05-.13.11-.32.16-.49zm-25.62 9.22c-3.18-1.206-5.93-3.321-7.91-6.08l-7-.39 4.31-5.21c-.97-3.505-.78-7.227.52-10.62a16.99 16.99 0 0 1 .68-1.53 17.34 17.34 0 0 1 9.32-8.389c4.04-1.539 8.51-1.516 12.53.066 4.03 1.582 7.32 4.608 9.23 8.486s2.31 8.331 1.11 12.487c-.13.449-.28.889-.46 1.32a17.34 17.34 0 0 1-9.13 9.532 17.33 17.33 0 0 1-13.2.328zm13.52-8.86l-2.65-2.77c-.37-.32-.66-.52-1.16-.17s-1.81 1.06-2.2 1.26-.68.14-1.07-.27c-1.18-1.086-2.17-2.368-2.92-3.79-.67-1.342-1.13-2.774-1.39-4.25-.09-.57.25-.73.58-.87s.68-.37 1-.55l.25-.16c.18-.138.36-.288.52-.45a.84.84 0 0 0 .24-.38.86.86 0 0 0 .03-.45l-.13-4c-.04-1-.49-1.08-.77-1.18s-.57-.27-.88-.39a1.83 1.83 0 0 0-1.49.1 5.65 5.65 0 0 0-1.93 1.31 5.54 5.54 0 0 0-1.22 1.98c-.2.543-.33 1.112-.37 1.69a11.68 11.68 0 0 0 .45 3.9c.11.39 1.28 6.45 5.36 10.17s4.34 3.09 5.24 3.34 3.23-.06 4-1a4.08 4.08 0 0 0 1.13-2.13c.03-.28-.24-.52-.62-.94z" class="B"/><path d="M154.01 501.665a32.72 32.72 0 0 1-12.524-2.492c-3.97-1.645-7.578-4.056-10.616-7.095a32.73 32.73 0 0 1-7.092-10.619c-1.644-3.97-2.489-8.226-2.488-12.524h0c0-8.678 3.447-17 9.583-23.137s14.459-9.583 23.137-9.583h0c4.298 0 8.554.847 12.525 2.491s7.579 4.056 10.619 7.095 5.45 6.648 7.095 10.619 2.491 8.227 2.491 12.525h0a32.72 32.72 0 0 1-2.492 12.524c-1.645 3.97-4.056 7.578-7.095 10.616a32.71 32.71 0 0 1-10.619 7.092c-3.97 1.644-8.226 2.489-12.524 2.488z" class="I"/><path d="M136.58 479.895c3.28 2.109 7.1 3.224 11 3.21 13.29 0 20.79-11.21 20.34-21.28 1.404-1.007 2.614-2.261 3.57-3.7a14.47 14.47 0 0 1-4.11 1.13c1.501-.907 2.621-2.328 3.15-4a14.38 14.38 0 0 1-4.55 1.73 7.16 7.16 0 0 0-4.099-2.246 7.15 7.15 0 0 0-4.611.761c-1.409.763-2.521 1.975-3.16 3.445s-.764 3.11-.36 4.66c-2.844-.143-5.626-.883-8.166-2.172a20.31 20.31 0 0 1-6.574-5.308 7.16 7.16 0 0 0-.754 5.173c.41 1.758 1.469 3.296 2.964 4.307-1.136-.037-2.247-.345-3.24-.9a7.17 7.17 0 0 0 5.74 7.11c-1.054.281-2.158.322-3.23.12.453 1.426 1.34 2.675 2.538 3.572a7.17 7.17 0 0 0 4.142 1.428 14.37 14.37 0 0 1-10.59 2.96z" class="B"/><path fill="#a08" d="M237.72 808.445a45.88 45.88 0 0 1-55.26-34h0a45.88 45.88 0 0 1 5.556-34.671c6.376-10.363 16.608-17.769 28.444-20.589h0a45.88 45.88 0 0 1 34.671 5.556c10.364 6.376 17.77 16.608 20.589 28.444h0c2.819 11.837.821 24.308-5.556 34.671s-16.607 17.769-28.444 20.589z"/><path d="M222.31 743.755l9.92-2.22c1.559-.341 3.164-.422 4.75-.24 1.151.161 2.256.558 3.246 1.168a8.42 8.42 0 0 1 2.504 2.372 14.2 14.2 0 0 1 1.92 4.35c.73 2.55.94 3.32 2.5 9.85s1.72 7.31 2.21 9.92a13.92 13.92 0 0 1 .24 4.75 8.32 8.32 0 0 1-1.16 3.25c-.61.991-1.421 1.842-2.38 2.5-1.324.887-2.793 1.537-4.34 1.92-2.55.73-3.32.94-9.85 2.5s-7.32 1.71-9.93 2.21a13.86 13.86 0 0 1-4.74.24 8.32 8.32 0 0 1-3.25-1.16c-.991-.61-1.842-1.421-2.5-2.38-.887-1.324-1.537-2.793-1.92-4.34-.74-2.55-.95-3.32-2.5-9.85l-2.22-9.93c-.345-1.556-.422-3.158-.23-4.74a7.65 7.65 0 0 1 1.16-3.25c.596-.998 1.405-1.852 2.37-2.5a14.12 14.12 0 0 1 4.35-1.93c2.55-.73 3.32-.94 9.85-2.49zm-1.05-4.41c-6.65 1.58-7.47 1.81-10.05 2.55a18.55 18.55 0 0 0-5.67 2.55c-1.476 1.015-2.724 2.328-3.662 3.853a12.85 12.85 0 0 0-1.788 5.007c-.264 2.07-.173 4.17.27 6.21.51 2.64.68 3.48 2.26 10.13s1.81 7.47 2.55 10.05a18.55 18.55 0 0 0 2.55 5.67c1.005 1.486 2.323 2.735 3.86 3.66a12.19 12.19 0 0 0 5 1.79 18.08 18.08 0 0 0 6.21-.28c2.64-.5 3.48-.67 10.13-2.25l10.05-2.55a18.55 18.55 0 0 0 5.67-2.55c1.474-1.018 2.719-2.331 3.658-3.856s1.548-3.23 1.792-5.004a18.14 18.14 0 0 0-.28-6.22c-.5-2.63-.67-3.47-2.25-10.12s-1.81-7.47-2.55-10a18.55 18.55 0 0 0-2.55-5.67c-1.018-1.474-2.331-2.719-3.856-3.658s-3.23-1.548-5.004-1.792c-2.074-.265-4.177-.173-6.22.27-2.63.51-3.47.68-10.12 2.26m2.84 11.85c-2.487.59-4.743 1.904-6.483 3.776s-2.885 4.218-3.292 6.741a12.91 12.91 0 0 0 5.979 13.054c2.176 1.341 4.701 2.006 7.255 1.912s5.023-.945 7.094-2.443a12.91 12.91 0 0 0 4.54-5.972c.89-2.396 1.049-5.002.457-7.488a12.93 12.93 0 0 0-5.794-8.005c-2.915-1.796-6.424-2.362-9.756-1.575zm4.93 20.73a8.4 8.4 0 0 1-4.863-.296c-1.555-.578-2.905-1.604-3.878-2.948a8.38 8.38 0 0 1-1.586-4.606c-.061-1.658.37-3.298 1.24-4.711a8.38 8.38 0 0 1 3.649-3.228 8.39 8.39 0 0 1 10.639 12.027 8.39 8.39 0 0 1-5.201 3.762zm10.95-25.03c.133.576.092 1.179-.117 1.732a2.99 2.99 0 0 1-1.057 1.378 3 3 0 0 1-3.322.118c-.503-.31-.904-.762-1.152-1.299a3 3 0 0 1-.239-1.72c.091-.584.353-1.128.753-1.564a3 3 0 0 1 1.494-.885 3.01 3.01 0 0 1 1.18-.051 3.02 3.02 0 0 1 1.109.409 2.99 2.99 0 0 1 .864.805c.232.323.398.689.487 1.077" class="B"/><path fill="#59f" d="M1097.59 370.695l4.61-.92 7.29-16-1.83-9.21s7-1.85 8.6 10.37 1.85 9 1.85 9 11.64-3.95 16.66-1.87c5.41 2.23 4.5 15.73 6.28 23.85.89 4.09-.87 8.41-4.49 10.13a6.76 6.76 0 0 1-1.59.55c-3.78.75-23.68 1.5-23.68 1.5l-8 1.58zm-10.83 2l6.21 29.07 7.9-1.56-6.13-29z"/><path fill="#0055d4" d="M1104.29 561.865a35 35 0 0 1-24.75-10.251c-6.56-6.564-10.25-15.466-10.25-24.749h0c0-9.283 3.69-18.185 10.25-24.749s15.47-10.251 24.75-10.251h0a35.02 35.02 0 0 1 24.75 10.251c6.56 6.564 10.25 15.466 10.25 24.749h0c0 9.283-3.69 18.185-10.25 24.749-6.57 6.564-15.47 10.251-24.75 10.251z"/><path d="M1098.95 548.005h8.57v-21.35h6l.63-7.15h-6.63v-4.08c0-1.68.34-2.35 2-2.35h4.61v-7.42h-5.9c-6.35 0-9.21 2.8-9.21 8.14v5.71h-4.5v7.23h4.43z" class="B"/><path d="M797.45 56.655l2.32 4.23 4.23 2.32-4.23 2.31-2.32 4.23-2.31-4.23-4.24-2.32 4.24-2.31z" class="I"/><path d="M1036.479 265.995l2.31 4.23 4.23 2.32-4.23 2.31-2.32 4.23-2.31-4.23-4.23-2.31 4.23-2.32zm-33.539 172.44l2.31 4.23 4.23 2.32-4.23 2.31-2.31 4.23-2.32-4.23-4.23-2.32 4.23-2.31z" class="D"/><path d="M820.93 112.705l2.32 4.23 4.23 2.31-4.23 2.32-2.32 4.23-2.31-4.23-4.23-2.32 4.23-2.31z" class="I"/><path fill="#59f" d="M312.29 86.915l2.97 5.43 5.44 2.98-5.44 2.97-2.98 5.44-2.97-5.44-5.44-2.97 5.44-2.98z"/><path d="M260.83 545.835l2.31 4.23 4.24 2.32-4.24 2.31-2.31 4.23-2.32-4.23-4.23-2.31 4.24-2.32zm172.43 224.18l2.31 4.24 4.23 2.31-4.23 2.31-2.31 4.24-2.32-4.24-4.23-2.31 4.23-2.32z" class="D"/><path d="M755.03 76.975l5.35 9.77 9.77 5.35-9.77 5.34-5.35 9.78-5.34-9.78-9.77-5.34 9.77-5.35z" class="I"/><path fill="#59f" d="M272.43 48.215l7.11 13.01 13.02 7.12-13.02 7.12-7.12 13.01-7.11-13.02-13.01-7.11 13.01-7.12z"/><path d="M967.69 470.725l5.34 9.77 9.78 5.35-9.78 5.34-5.34 9.78-5.34-9.78-9.78-5.34 9.78-5.35zm-663.48 8.62l5.33 9.75 9.75 5.33-9.75 5.33-5.33 9.75-5.33-9.75-9.75-5.33 9.75-5.33zm782.77 197.22l5.33 9.75 9.75 5.33-9.75 5.33-5.33 9.75-5.33-9.75-9.75-5.33 9.75-5.33z" class="D"/><path d="M270.29 260.135c-1.5.23-4.7 3.09-6.82 7.65l-.12.2c-1.54 3.09-5-4.2-5.88-7-.147-.434-.392-.828-.716-1.153a3.01 3.01 0 0 0-1.151-.719 3 3 0 0 0-1.35-.139c-.455.058-.89.219-1.273.471l-8.71 6.35-2.79.64c-.626.366-1.092.952-1.306 1.645s-.163 1.439.146 2.095l7.52 14.25 2.11 9.21 18.88-7.58-4-8.85c0-1.25 2.08-2.95 2.28-4.66.182-1.549.632-3.055 1.33-4.45.747-1.577 1.655-3.071 2.71-4.46.09-.08.19-.2.28-.27a1.9 1.9 0 0 0 .45-.58 1.7 1.7 0 0 0 .055-1.835 1.7 1.7 0 0 0-1.645-.815z" class="E"/><path fill="#04a" d="M259.25 234.015s-8.85 0-23.27-8.73-23.4-22.66-24.83-22.26-8.44-1.12-14.62 27.82-.07 34 2.32 33.38 17.67-8.78 28.11-9.9 24.71 1.28 24.71 1.28z"/><g class="J"><path d="M280.37 244.295l-1.65 6.12-.74 2.74a7.31 7.31 0 0 1-3.254 4.337c-1.6.975-3.514 1.299-5.346.903l-19.48-2.24 5.14-26.39 20.21 5.57a7.32 7.32 0 0 1 4.407 3.424c.96 1.679 1.216 3.669.713 5.536z"/><path d="M271.91 255.395l-3.23 12.58-3.06-.16-7.54 18.45-9.75-3.66s4.39-11.65 5.56-16.07-1.41-4.79-1.41-4.79l3.9-7.12zm-74.3-24.29c-3.23 15.65-3.07 28.92.37 29.63s8.85-11.41 12.08-27.06 3.07-28.92-.37-29.63-8.85 11.41-12.08 27.06z"/></g><path fill="#61656d" d="M282.9 252.005l-4.45-.59 1.74-6.44 4.19 1.46z"/><path d="M249.62 276.385s-2.1 5.32-7.1-2.06l-2.64-5.06 11.05 6.28zm5.42-19.34l15.05 5.45.92-3.59z" class="F C"/><path fill="#61656d" d="M277.11 247.055c0 .18-2.69-.23-5.93-.9s-5.85-1.35-5.81-1.53 2.69.23 5.94.9 5.84 1.36 5.8 1.53zm-1.09 4.03c0 .09-.62.08-1.61 0-.5 0-1.09-.09-1.74-.17s-1.35-.26-2.09-.41c-1.81-.292-3.574-.816-5.25-1.56 0-.19 2.45.29 5.38.93l2.06.46 1.7.3c.96.19 1.56.36 1.55.45z"/><path d="M210.94 225.655s-8.35-2.91-10.14 7.89 6.29 10.71 6.29 10.71c2.15-5.989 3.446-12.25 3.85-18.6z" class="B"/><path d="M215.14 211.465c.1.645.147 1.297.14 1.95l.12 5.36-.24 3.69c0 .66-.09 1.35-.14 2.06 0 .35-.05.71-.07 1.07s-.1.73-.15 1.1l-.7 4.64-.19 1.22-.26 1.22-.59 2.49-.59 2.49-.31 1.22-.38 1.17-1.45 4.47-.35 1.05-.42 1-.8 1.91-1.44 3.41-2.49 4.73a12.43 12.43 0 0 1-1 1.69c.207-.623.465-1.229.77-1.81l2.31-4.81 1.36-3.42.76-1.9.4-1c.13-.34.23-.7.34-1.05l1.41-4.45.37-1.17c.13-.4.2-.8.3-1.2l.58-2.47.59-2.48.27-1.21.19-1.21.73-4.6.16-1.09.09-1.07.17-2 .31-3.67.09-5.33a12.27 12.27 0 0 1 .11-2z" class="C" opacity=".3"/><g class="E"><path d="M250.1 258.225c-.511.382-.857.945-.965 1.574s.03 1.276.385 1.806l5 7.41c.437.665 1.001 1.236 1.66 1.68.319.22.694.346 1.081.364s.771-.074 1.109-.264c.326-.264.572-.613.711-1.008s.167-.822.079-1.232a6.86 6.86 0 0 0-1-2.31l-4.76-7.35a2.3 2.3 0 0 0-1.512-1.016 2.31 2.31 0 0 0-1.778.396z"/><path d="M246.79 261.095a2.49 2.49 0 0 0-.58 3.33l5 7.41a6.33 6.33 0 0 0 1.66 1.68 2.12 2.12 0 0 0 1.086.356 2.13 2.13 0 0 0 1.114-.256 2.25 2.25 0 0 0 .709-1.009c.138-.396.163-.822.071-1.231-.182-.827-.521-1.612-1-2.31l-4.76-7.35a2.3 2.3 0 0 0-1.512-1.016c-.308-.058-.624-.053-.93.016a2.31 2.31 0 0 0-.848.38z"/><path d="M244.3 264.515a2.11 2.11 0 0 0-.55 2.89l4.44 6.39a5.19 5.19 0 0 0 1.48 1.44c.292.218.645.338 1.01.344s.721-.103 1.02-.31.526-.504.648-.848a1.74 1.74 0 0 0 .032-1.066c-.161-.717-.46-1.397-.88-2l-4.24-6.33a2.1 2.1 0 0 0-.603-.592c-.239-.154-.507-.259-.788-.306a2.09 2.09 0 0 0-1.609.388z"/><path d="M240.41 266.355c-.449.321-.757.802-.86 1.344s.009 1.104.31 1.566l4.46 6.42a5.4 5.4 0 0 0 1.49 1.45 1.75 1.75 0 0 0 2.036.028 1.76 1.76 0 0 0 .684-1.918c-.16-.718-.459-1.397-.88-2l-4.26-6.37c-.162-.232-.369-.429-.608-.58a2.14 2.14 0 0 0-.785-.301c-.28-.048-.565-.039-.841.024s-.536.182-.766.347z"/></g><path d="M254.91 268.655c-.2.15-1.58-1.44-3.09-3.55s-2.56-3.92-2.36-4.06 1.57 1.45 3.08 3.55 2.57 3.92 2.37 4.06zm-2.71 4.35c-.2.13-1.72-1.72-3.38-4.14s-2.86-4.5-2.66-4.64 1.71 1.71 3.38 4.14 2.86 4.5 2.66 4.64zm-3.56 1.31c-.18.16-1.73-1.34-3.26-3.48s-2.44-4.09-2.24-4.21 1.45 1.59 3 3.7 2.68 3.83 2.5 3.99z" class="F C"/><path d="M270.96 287.375l-20.42 8.43-2.46-6.17 19.8-8.33z" class="B"/><path d="M374.59 890.085l-59.86 1.52 23.87-17a15.06 15.06 0 0 0 4.636-5.24c1.114-2.08 1.721-4.4 1.774-6.76l1.05-19 32.49.12z" class="E"/><path d="M367.95 868.195v-.35c.116-.99-.16-1.98-.77-2.76-.611-.79-1.505-1.3-2.49-1.43l-19.45-2.8.23-3.73h32.27l-2.92 31.68-26.08-2.91 8.61-3.38c2.899-1.2 5.416-3.17 7.283-5.69s3.013-5.51 3.317-8.63z" class="C F"/><path d="M482.32 888.925h-26.9l-5.01-45.54 31.79.12z" class="E"/><path d="M475.57 881.235l-.7-14c-.071-.88-.429-1.7-1.018-2.36a4.01 4.01 0 0 0-2.242-1.25l-19.34-2.92-.46-3.84 30.28.12.11 32.26z" class="C F"/><g fill="#21252b"><path d="M478.13 502.765l5.94 356.38h-34.94l-30.4-303.54c-.099-.952-.545-1.835-1.253-2.479a3.89 3.89 0 0 0-2.587-1.011c-.951-.007-1.867.351-2.561 1.001s-1.113 1.54-1.169 2.489l-32.38 303.51h-34.94l8-356.38z"/><path d="M485 859.145h-37.27l-.7-7.57h37.85z"/></g><path d="M485 859.145h-15.61l-.35-7.57h15.84zm-127.18-4.2l34.47-286.61c.532-4.451 2.673-8.554 6.019-11.536a18.37 18.37 0 0 1 12.151-4.654h4.31c-.951-.007-1.867.351-2.561 1.001a3.71 3.71 0 0 0-1.169 2.489l-32.14 301.88z" class="F C"/><path fill="#21252b" d="M379.6 859.145h-37.15l.58-7.57h37.38z"/><g class="C"><path d="M379.6 859.145h-22.13l.82-7.57h22.12zm98.53-356.38l6 348.57-15 .12-7.22-364.53z" class="F"/><path d="M390.39 251.155a12.37 12.37 0 0 1-11.86-12.86 12.37 12.37 0 0 1 3.974-8.593c2.412-2.225 5.608-3.4 8.886-3.267.37 0 1.37-.24 1.25.13-2.75 10.73.5 24.59-2.25 24.59z"/></g><g class="E"><path d="M445.52 300.205c0 .62-15.48 34.57-26.84 35.07-9.86.49-16.1-31.46-16-32.08l.84-16.59v-8.61c-.5-2-2.87-3.87-2.87-6.49-.75-12.11-2.13-23.09-2.13-23.09s39.57-26.46 42.06 4.37l1 4.49z"/><path d="M392.52 212.215s-14.1 72.76 19.47 76.25c29.08 3 30.95-42.31 30.95-42.31l-2.24-29.2-22.59-8.24z"/></g><g class="C"><path d="M402.12 229.605c3.37-4.74 9-8.23 15-8.11 6.74.13 12.23 5.49 11.61 13.36l-.13 1.74c-.053.793.204 1.575.717 2.182a3.06 3.06 0 0 0 2.033 1.068 5.59 5.59 0 0 1 2.143.468c.677.296 1.288.724 1.799 1.257a5.61 5.61 0 0 1 1.176 1.853 5.6 5.6 0 0 1 .372 2.162l-.13 5.12a1.12 1.12 0 0 0 .086.431 1.14 1.14 0 0 0 .245.365c.105.104.23.186.367.242a1.14 1.14 0 0 0 .432.082s1.5.25 1.74-1l.75-5.49-5.24-30.95-25.73-6.78-10.73 9.11z"/><path d="M441.52 257.395s-2-.13-3.62-2.75l4 6.87zm-10.44 24.08c-3.486 4.342-8.489 7.201-14 8a23.43 23.43 0 0 1-13.85 4.25l.37-8.24 1.12.62c4.214 2.145 9.039 2.77 13.66 1.768a20.52 20.52 0 0 0 11.7-7.268c.12-.25.62-.25.87-.12.106.139.175.304.197.478s0 .35-.067.512z" class="F"/></g><path d="M405.24 268.995l13.36-3.12c.068 1.527-.392 3.031-1.303 4.258s-2.216 2.104-3.697 2.482c-6.36 1.63-8.36-3.62-8.36-3.62z" class="B"/><path d="M417.1 246.285a2.75 2.75 0 0 1 1.529.464c.452.303.805.733 1.013 1.236s.261 1.056.155 1.59-.37 1.024-.756 1.408a2.75 2.75 0 0 1-1.411.75c-.534.105-1.087.049-1.589-.16s-.931-.564-1.232-1.018a2.75 2.75 0 0 1 .35-3.468c.515-.514 1.213-.802 1.941-.802z" class="C"/><path d="M415.85 248.785a.5.5 0 1 0 0-1 .5.5 0 1 0 0 1z" class="B"/><path d="M516.27 527.995l-1.64 15.55a6.84 6.84 0 0 0 1.2 4.62l10.79 15.34a.8.8 0 0 0 .665.355.8.8 0 0 0 .665-.355 4.44 4.44 0 0 0 .83-3c-.33-2 3.15 3.21 3.15 3.21l-1.9 8.59c-.061.256-.064.521-.01.778s.165.499.323.709a1.78 1.78 0 0 0 1.347.703c.403.008.8-.092 1.152-.289s.644-.484.848-.831c1.06-1.6 2.67-6.59 3.45-9.16.146-.478.165-.985.056-1.472s-.341-.938-.676-1.308h0c.636-.409 1.166-.964 1.547-1.617s.601-1.388.643-2.143c1.463-2.126 2.342-4.598 2.55-7.17.271-2.272.193-4.572-.23-6.82l-7.14-18.89z" class="E"/><g class="C"><path d="M520.64 546.695c-.17.08 1.14 3.33 3.37 7s4.5 6.37 4.64 6.25-1.84-3-4-6.61l-4.01-6.64zm10.56 5.85c-.16.11 1.09 2.48 2.8 5.31s3.24 5 3.4 5-1.09-2.47-2.8-5.31-3.24-5.1-3.4-5zm3.11-3.52c-.16.12 1 1.93 2.2 4.33l2.08 4.39c.19-.05-.24-2.24-1.45-4.7s-2.69-4.14-2.83-4.02zm2.83-3.73c-.16.11.73 1.59 1.71 3.47s1.7 3.44 1.89 3.37-.26-1.77-1.28-3.69-2.17-3.26-2.32-3.15z" opacity=".023"/><path d="M395.76 252.525a2.75 2.75 0 1 0 0-5.5 2.75 2.75 0 1 0 0 5.5z"/></g><path d="M394.63 249.405a.5.5 0 1 0 0-1 .5.5 0 1 0 0 1z" class="B"/><g class="C"><path d="M405.52 264.875l3.5.13a.8.8 0 0 0 .315-.039c.101-.033.195-.086.276-.156a.81.81 0 0 0 .279-.555c.008-.106-.005-.213-.038-.315a.81.81 0 0 0-.157-.275.8.8 0 0 0-.249-.195.82.82 0 0 0-.306-.085l-3.49-.13a1.61 1.61 0 0 1-1.071-.512c-.279-.301-.432-.698-.429-1.108.12-.87.87-1.62 1.62-1.5.203-.028.394-.113.55-.246a1.07 1.07 0 0 0 .33-.504c.12-.37-.38-.75-.75-.87a3.29 3.29 0 0 0-2.28.831c-.626.558-1.016 1.334-1.09 2.169a3.1 3.1 0 0 0 .151 1.239 3.09 3.09 0 0 0 .626 1.08c.279.314.619.569 1 .747a3.11 3.11 0 0 0 1.213.294z" opacity=".2"/><path d="M384.15 247.035l.13 3a10.55 10.55 0 0 0 .894 4.042c.562 1.276 1.372 2.427 2.381 3.388s2.2 1.711 3.501 2.21a10.55 10.55 0 0 0 4.082.692c1.393-.041 2.764-.357 4.034-.931s2.414-1.394 3.365-2.412 1.691-2.215 2.178-3.521a10.55 10.55 0 0 0 .655-4.088l-.13-3a3.32 3.32 0 0 0-.87-2.37l4.12-.12c-.278.324-.488.701-.617 1.108s-.174.837-.133 1.262l.12 3c.082 2.798 1.273 5.449 3.309 7.369s4.753 2.953 7.551 2.871a10.55 10.55 0 0 0 7.369-3.309 10.56 10.56 0 0 0 2.871-7.551l-.13-3a3.88 3.88 0 0 0-4-3.74l-13.23.38h-.08l-10.23.24h-1.62l-11.73.38a4.09 4.09 0 0 0-2.704 1.303c-.703.761-1.091 1.761-1.086 2.797zm27.21-3.12l13.35-.38c.61-.006 1.198.226 1.64.646a2.35 2.35 0 0 1 .73 1.604l.13 3c.032 1.182-.169 2.359-.591 3.463a9.02 9.02 0 0 1-1.872 2.973c-.813.858-1.787 1.548-2.867 2.03s-2.243.747-3.425.779-2.359-.169-3.463-.591a9.02 9.02 0 0 1-2.973-1.872 9 9 0 0 1-2.809-6.292l-.13-3a2.65 2.65 0 0 1 .733-1.573 2.66 2.66 0 0 1 1.547-.787zm-25.71 3.12c-.006-.61.226-1.198.646-1.64a2.35 2.35 0 0 1 1.604-.73l11.73-.38h1.62c.61-.006 1.198.226 1.64.646a2.35 2.35 0 0 1 .73 1.604l.13 3c.066 2.387-.818 4.703-2.459 6.437a9 9 0 0 1-6.291 2.813c-2.387.066-4.703-.818-6.437-2.459a9 9 0 0 1-2.813-6.291z"/></g><path d="M293.18 899.985v-1.28c0-1.01.199-2.01.586-2.94s.953-1.78 1.667-2.49a7.66 7.66 0 0 1 2.495-1.67c.933-.38 1.933-.58 2.942-.58h10.71a8.53 8.53 0 0 0 6.06-2.45l27.37-26 8.5 11.18c.665.87 1.519 1.58 2.497 2.08s2.056.77 3.153.79 2.184-.21 3.181-.66a7.39 7.39 0 0 0 2.579-1.98h0c.69-.82 1.545-1.48 2.509-1.94s2.013-.71 3.081-.74h5.71v28.19z" class="J"/><path d="M293.18 899.985v4.2h83.27v-4.66zm57.34-30.38l-18.52 15a5.16 5.16 0 0 1-3.501 1.13 5.15 5.15 0 0 1-3.369-1.48l-1.39-1.4 21.27-20.25a2.76 2.76 0 0 1 1.658.03 2.79 2.79 0 0 1 1.342.97l2.21 3.14c.285.35.468.78.53 1.23a2.52 2.52 0 0 1-.18 1.33z" class="C"/><path d="M458.91 868.315h-2.21a3.97 3.97 0 0 0-2.749 1c-.757.67-1.233 1.6-1.331 2.61l-.46 8.38a18.81 18.81 0 0 1-2 7.45l-.82 1.52c-1.481 2.92-2.239 6.16-2.21 9.43v1.52h42.62c-.013-4.16-1.27-8.21-3.61-11.65h0a18.88 18.88 0 0 1-3.14-8.62l-.93-8.38c-.2-.93-.716-1.76-1.459-2.36a4.15 4.15 0 0 0-2.621-.9h-1.47" class="J"/><path d="M489.54 900.105h-42.51v4.08h42.51zm-25.02-35.64h6.29c.75 0 1.493.15 2.177.46a5.33 5.33 0 0 1 1.792 1.32c.496.56.866 1.23 1.086 1.94.219.72.282 1.48.185 2.22l-1.4 11.42c-.23 1.7-1.065 3.26-2.35 4.39a7.17 7.17 0 0 1-4.65 1.78h0a7.01 7.01 0 0 1-4.715-1.79 7.03 7.03 0 0 1-2.285-4.5l-1.28-11.41a5.09 5.09 0 0 1 .157-2.19 5.04 5.04 0 0 1 1.064-1.92 4.94 4.94 0 0 1 1.775-1.29c.678-.3 1.414-.45 2.154-.43z" class="C"/><path stroke-linejoin="round" stroke-width="1.53" d="M456.35 872.035h22.59m-21.89 5.36h21.19m-20.61 5.24h20.03m-148.37-7.69l8.27 7.81m-3.85-11.88l8.5 8.03m-3.96-11.88l8.39 7.92" class="K L"/><path d="M537.23 524.845l-24.84 4.14-19.66-101.59-8.66-27.49-4 100c-.023.78-.35 1.52-.91 2.063s-1.309.847-2.09.847H351.76c-.344-.02-.67-.158-.924-.391s-.418-.548-.466-.889l-3.8-139.41-39.62 31.48c-1.841 1.621-4.032 2.795-6.401 3.43s-4.854.714-7.259.23h-.19a16 16 0 0 1-11.47-10.41l-31.64-90.47 21.35-9 31.76 60.44 35.63-35.92a26.15 26.15 0 0 1 17.63-8.8h.16l45.25-5.81h1c7 13.37 29.41 15.57 39.4 4.23l3.64-4.12 40.33 11.53c4.415 1.147 8.532 3.229 12.072 6.105s6.422 6.479 8.448 10.565l24.36 99.71z" class="D"/><g class="C"><path d="M449.42 225.945c-1-7.87-5.11-13.73-12-15.23a18.54 18.54 0 0 0-8.73.37 2.02 2.02 0 0 1-.785.074c-.264-.028-.519-.108-.752-.235s-.438-.3-.603-.508a2 2 0 0 1-.36-.701 12 12 0 0 0-11.59-9.11 11.66 11.66 0 0 0-5.401 1.259 11.65 11.65 0 0 0-4.209 3.611 1.91 1.91 0 0 1-1.351.837 1.9 1.9 0 0 1-.81-.069 1.91 1.91 0 0 1-.709-.398s-8-6.36-18.47.13a17 17 0 0 0-7.196 9.913c-1.083 4.084-.607 8.425 1.336 12.177 4.24 8.36 15.22 10.86 22 4.49 2.37-2.25 4.25-5.62 4.62-10.61.325-2.769.07-5.575-.75-8.24h3.5c4.11-.25 10.6-1 16.72-.12-.13.12-.25.12-.38.25l10.86 3.62s3.37 28.7 5.12 28.45c7.57-1.62 10.94-12.85 9.94-19.96z"/><path d="M303.1 347.745l2.91 5.51c.219.247.487.445.788.58a2.34 2.34 0 0 0 .957.206c.33 0 .656-.07.957-.206a2.34 2.34 0 0 0 .788-.58l-2.38-9.79zm43.59 14.33l4-1.87c.131-.07.281-.096.428-.073a.69.69 0 0 1 .387.196c.105.106.172.243.193.39a.69.69 0 0 1-.078.427l-4.54 10z" opacity=".2"/></g><path d="M440.31 242.785s1.13-5.36 6.87-3.74c6.49 1.87 5.36 15-3.25 18-5.36 1.13-4.61-2.12-4.24-6.49z" class="E"/><g class="C"><path d="M447.93 242.665c-.457-.296-.976-.482-1.517-.547a3.58 3.58 0 0 0-1.603.177 3.83 3.83 0 0 0-2.12 2.12c-.549 1.211-.723 2.559-.5 3.87v1.12c.033.164.13.309.27.402s.311.126.475.093.309-.13.402-.27.126-.311.093-.475v-1.12a8.5 8.5 0 0 1 .38-3.25c.283-.635.763-1.161 1.37-1.5a3 3 0 0 1 2 .25.76.76 0 0 0 .87-.25c.25 0 .13-.37-.12-.62z" opacity=".3"/><path d="M470.75 422.125l3.55-42.87a3.23 3.23 0 0 1 .858-1.902 3.22 3.22 0 0 1 1.841-.981 3.23 3.23 0 0 1 3.471 1.883l3.71 22.73-3.84 98.62c-.023.878-.391 1.712-1.023 2.321a3.35 3.35 0 0 1-2.357.939h-14.09l2.65-34.71z" opacity=".2"/></g><path d="M512.39 528.985l24.84-4.14 1.4 6.64-25.04 4.37z" class="B"/><path fill="#fafafa" d="M347.17 385.855s.19.27.69.74a14.71 14.71 0 0 0 2.6 1.89c4.136 2.269 8.661 3.741 13.34 4.34a81.82 81.82 0 0 0 22.74.18c8.45-1 17.21-3.06 26.44-4.89 16.15-3.337 32.74-3.98 49.1-1.9 12.52 1.62 19.51 4 19.66 3.77a5.35 5.35 0 0 0-1.21-.46c-.83-.26-2.06-.67-3.71-1.09a117.68 117.68 0 0 0-14.45-2.92 143.1 143.1 0 0 0-22.62-1.4 145.21 145.21 0 0 0-27.34 3c-9.32 1.85-18 3.91-26.21 4.94a81.79 81.79 0 0 1-22.08 0c-4.585-.544-9.043-1.869-13.18-3.92-2.59-1.33-3.61-2.34-3.77-2.28zm134.93 3.24a6.02 6.02 0 0 0 1.46 1.06 33.28 33.28 0 0 0 4.32 2.31c2.248 1.057 4.718 1.554 7.2 1.45 2.85-.15 5.73-1.55 8.35-3.28a60.36 60.36 0 0 1 7.42-4.67 10.85 10.85 0 0 1 6.76-1.1 7.6 7.6 0 0 1 4.12 2.07c.77.81 1 1.41 1.11 1.37s-.09-.68-.82-1.62a7.59 7.59 0 0 0-4.27-2.51 11.36 11.36 0 0 0-7.28 1 54.43 54.43 0 0 0-7.58 4.67c-2.58 1.7-5.26 3-7.88 3.21-2.351.126-4.701-.284-6.87-1.2l-6.04-2.76zm-168.97-52.08c-.117.593-.144 1.199-.08 1.8a33.39 33.39 0 0 0 .45 4.88c.349 2.458 1.289 4.795 2.74 6.81 1.7 2.3 4.46 3.92 7.35 5.16 2.749 1.015 5.423 2.225 8 3.62 2.037 1.133 3.662 2.884 4.64 5a7.64 7.64 0 0 1 .54 4.59c-.25 1.08-.61 1.63-.53 1.67a3.21 3.21 0 0 0 .9-1.57 7.63 7.63 0 0 0-.26-4.95 11.35 11.35 0 0 0-4.81-5.55 55.8 55.8 0 0 0-8.07-3.76c-2.84-1.21-5.42-2.72-7-4.81-1.396-1.893-2.346-4.078-2.78-6.39l-1.09-6.5z"/><defs><path id="B" d="M578.96 685.955c7.296 0 13.21-5.914 13.21-13.21s-5.914-13.21-13.21-13.21-13.21 5.914-13.21 13.21 5.914 13.21 13.21 13.21z"/><path id="C" d="M833.03 219.755H810.1c-.073.001-.145-.012-.212-.039s-.129-.068-.18-.119-.092-.113-.119-.18-.04-.139-.039-.212a.55.55 0 0 1 .55-.55h22.93c.134.018.257.084.347.186a.56.56 0 0 1 0 .738c-.09.102-.213.168-.347.186z"/><path id="D" d="M1032.347 392.059c0-.56.166-1.107.477-1.572s.753-.828 1.27-1.043 1.086-.27 1.635-.161 1.053.379 1.449.775.665.9.775 1.449.053 1.118-.161 1.635-.577.959-1.043 1.27-1.012.477-1.572.477a2.83 2.83 0 0 1-2.83-2.83z"/></defs></svg>