<svg xmlns="http://www.w3.org/2000/svg" width="500" height="500" style="width: 100%; height: 100%; content-visibility: visible;"><defs><clipPath id="a"><path d="M0 0h500v500H0z" class="tEIsblof_0"></path></clipPath></defs><g clip-path="url(#a)"><g display="block"><path stroke-linecap="round" stroke-linejoin="round" stroke="#FFF" stroke-width="12.04" d="M236.358 304.619c11.762-8.439 15.557-23.282 8.475-33.152-7.082-9.87-22.358-11.03-34.12-2.591M187.28 353.217c21.277-11.01 73.016-15.03 73.016-15.03l-73.713-102.74s-21.617 54.241-39.726 67.234l-33.47 24.014c-5.574 3.999-5.112 14.184-1.113 19.758M131.336 373.022c3.999 5.574 13.499 9.273 19.073 5.274l9.457-6.798M187.28 353.218l38.293 37.809-27.413 18.281-38.293-37.809" fill="none" class="tEIsblof_1"></path><path stroke-linecap="round" stroke-linejoin="round" stroke="#FFF" stroke-width="12.04" d="M112.274 346.453l-18.763 13.471 19.063 26.569 18.763-13.471" fill="none" class="tEIsblof_2"></path></g><g display="block"><path stroke-linecap="round" stroke-linejoin="round" stroke="#2F80E8" stroke-width="12.04" d="M226.689 116.91h-33.656" fill="none" class="tEIsblof_3"></path><path stroke-linecap="round" stroke-linejoin="round" stroke="#FFF" stroke-width="12.04" d="M226.689 143.545h-33.656m17.318 26.635h-17.318m55.463 26.738h-77.27V90.172h77.27v106.746z" fill="none" class="tEIsblof_4"></path></g><g display="block"><path stroke-linecap="round" stroke-linejoin="round" stroke="#2F80E8" stroke-width="12.04" d="M351.351 318.02l33.296 19.223-33.296 19.223V318.02z" fill="none" class="tEIsblof_5"></path><path stroke-linecap="round" stroke-linejoin="round" stroke="#FFF" stroke-width="12.04" d="M317.797 337.243c0 25.437 20.62 46.057 46.057 46.057s46.057-20.62 46.057-46.057-20.62-46.057-46.057-46.057-46.057 20.62-46.057 46.057z" fill="none" class="tEIsblof_6"></path></g><g display="block"><path stroke-linecap="round" stroke-linejoin="round" stroke="#2F80E8" stroke-width="12.04" d="M339.845 185.956s0 0 0 0c-6.089 0-11.026 4.936-11.026 11.025v35.781m-7.988-16.641h15.976" fill="none" class="tEIsblof_7"></path><path stroke-linecap="round" stroke-linejoin="round" stroke="#FFF" stroke-width="12.04" d="M362.492 253h-63.284c-6.6 0-12-5.4-12-12v-63.284c0-6.6 5.4-12 12-12h63.284c6.6 0 12 5.4 12 12V241c0 6.6-5.4 12-12 12z" fill="none" class="tEIsblof_8"></path></g></g><style data-made-with="vivus-instant">.tEIsblof_0{stroke-dasharray:2000 2002;stroke-dashoffset:2001;animation:tEIsblof_draw_0 7200ms ease-in-out 0ms infinite,tEIsblof_fade 7200ms linear 0ms infinite;}.tEIsblof_1{stroke-dasharray:593 595;stroke-dashoffset:594;animation:tEIsblof_draw_1 7200ms ease-in-out 0ms infinite,tEIsblof_fade 7200ms linear 0ms infinite;}.tEIsblof_2{stroke-dasharray:79 81;stroke-dashoffset:80;animation:tEIsblof_draw_2 7200ms ease-in-out 0ms infinite,tEIsblof_fade 7200ms linear 0ms infinite;}.tEIsblof_3{stroke-dasharray:34 36;stroke-dashoffset:35;animation:tEIsblof_draw_3 7200ms ease-in-out 0ms infinite,tEIsblof_fade 7200ms linear 0ms infinite;}.tEIsblof_4{stroke-dasharray:420 422;stroke-dashoffset:421;animation:tEIsblof_draw_4 7200ms ease-in-out 0ms infinite,tEIsblof_fade 7200ms linear 0ms infinite;}.tEIsblof_5{stroke-dasharray:116 118;stroke-dashoffset:117;animation:tEIsblof_draw_5 7200ms ease-in-out 0ms infinite,tEIsblof_fade 7200ms linear 0ms infinite;}.tEIsblof_6{stroke-dasharray:290 292;stroke-dashoffset:291;animation:tEIsblof_draw_6 7200ms ease-in-out 0ms infinite,tEIsblof_fade 7200ms linear 0ms infinite;}.tEIsblof_7{stroke-dasharray:70 72;stroke-dashoffset:71;animation:tEIsblof_draw_7 7200ms ease-in-out 0ms infinite,tEIsblof_fade 7200ms linear 0ms infinite;}.tEIsblof_8{stroke-dasharray:329 331;stroke-dashoffset:330;animation:tEIsblof_draw_8 7200ms ease-in-out 0ms infinite,tEIsblof_fade 7200ms linear 0ms infinite;}@keyframes tEIsblof_draw{100%{stroke-dashoffset:0;}}@keyframes tEIsblof_fade{0%{stroke-opacity:1;}94.44444444444444%{stroke-opacity:1;}100%{stroke-opacity:0;}}@keyframes tEIsblof_draw_0{11.11111111111111%{stroke-dashoffset: 2001}38.88888888888889%{ stroke-dashoffset: 0;}100%{ stroke-dashoffset: 0;}}@keyframes tEIsblof_draw_1{12.847222222222221%{stroke-dashoffset: 594}40.625%{ stroke-dashoffset: 0;}100%{ stroke-dashoffset: 0;}}@keyframes tEIsblof_draw_2{14.583333333333334%{stroke-dashoffset: 80}42.36111111111111%{ stroke-dashoffset: 0;}100%{ stroke-dashoffset: 0;}}@keyframes tEIsblof_draw_3{16.319444444444446%{stroke-dashoffset: 35}44.09722222222222%{ stroke-dashoffset: 0;}100%{ stroke-dashoffset: 0;}}@keyframes tEIsblof_draw_4{18.055555555555554%{stroke-dashoffset: 421}45.83333333333333%{ stroke-dashoffset: 0;}100%{ stroke-dashoffset: 0;}}@keyframes tEIsblof_draw_5{19.791666666666664%{stroke-dashoffset: 117}47.56944444444444%{ stroke-dashoffset: 0;}100%{ stroke-dashoffset: 0;}}@keyframes tEIsblof_draw_6{21.52777777777778%{stroke-dashoffset: 291}49.30555555555556%{ stroke-dashoffset: 0;}100%{ stroke-dashoffset: 0;}}@keyframes tEIsblof_draw_7{23.26388888888889%{stroke-dashoffset: 71}51.041666666666664%{ stroke-dashoffset: 0;}100%{ stroke-dashoffset: 0;}}@keyframes tEIsblof_draw_8{25%{stroke-dashoffset: 330}52.77777777777778%{ stroke-dashoffset: 0;}100%{ stroke-dashoffset: 0;}}</style></svg>