<svg xmlns="http://www.w3.org/2000/svg" xmlns:svg="http://www.w3.org/2000/svg" id="Layer_1" x="0" y="0" version="1.1" viewBox="0 0 455 455" xml:space="preserve" style="enable-background:new 0 0 455 455"><metadata id="metadata188"/><g id="g935" transform="matrix(0.69368242,0,0,0.69343915,48.588603,54.145154)" style="fill:#06f"><g id="g933" style="fill:#06f"><path id="path931" d="M 437.02,74.98 C 388.667,26.628 324.38,0 256,0 187.62,0 123.333,26.628 74.98,74.98 26.628,123.333 0,187.62 0,256 0,324.38 26.628,388.667 74.98,437.02 123.333,485.372 187.62,512 256,512 324.38,512 388.667,485.372 437.02,437.02 485.372,388.667 512,324.38 512,256 512,187.62 485.372,123.333 437.02,74.98 Z M 256,491.602 C 126.089,491.602 20.398,385.912 20.398,256 20.398,126.088 126.089,20.398 256,20.398 385.911,20.398 491.602,126.089 491.602,256 491.602,385.911 385.911,491.602 256,491.602 Z" style="fill:#0af;fill-opacity:1"/></g></g><ellipse style="stroke-width:.758468" id="circle151" cx="225.87" cy="232.234" rx="172.583" ry="172.52"/><g transform="matrix(0.46995301,0,0,0.47172109,113.89695,116.07462)" style="fill:#0662ff;fill-opacity:1;stroke:#06f;stroke-width:2.0264;stroke-miterlimit:4;stroke-dasharray:none;stroke-opacity:1" id="g263"><g style="fill:#0662ff;fill-opacity:1;stroke:#06f;stroke-width:2.0264;stroke-miterlimit:4;stroke-dasharray:none;stroke-opacity:1" id="g261"><g style="fill:#0662ff;fill-opacity:1;stroke:#06f;stroke-width:2.0264;stroke-miterlimit:4;stroke-dasharray:none;stroke-opacity:1" id="g259"><polygon style="fill:#0662ff;fill-opacity:1;stroke:#06f;stroke-width:2.0264;stroke-miterlimit:4;stroke-dasharray:none;stroke-opacity:1" id="polygon249" points="182.1 288.9 136.7 210 45.4 210 0 288.9 45.4 367.7 136.7 367.7"/><polygon style="fill:#0662ff;fill-opacity:1;stroke:#06f;stroke-width:2.0264;stroke-miterlimit:4;stroke-dasharray:none;stroke-opacity:1" id="polygon251" points="290 121.5 199.2 121.5 153.7 200.3 199.2 279.2 290 279.2 335.8 200.3"/><polygon style="fill:#0662ff;fill-opacity:1;stroke:#06f;stroke-width:2.0264;stroke-miterlimit:4;stroke-dasharray:none;stroke-opacity:1" id="polygon253" points="199.2 298.6 153.7 377.4 199.2 456.6 290 456.6 335.8 377.4 290 298.6"/><polygon style="fill:#0662ff;fill-opacity:1;stroke:#06f;stroke-width:2.0264;stroke-miterlimit:4;stroke-dasharray:none;stroke-opacity:1" id="polygon255" points="136.7 190.6 182.1 111.8 136.7 32.6 45.4 32.6 0 111.8 45.4 190.6"/><polygon style="fill:#0662ff;fill-opacity:1;stroke:#06f;stroke-width:2.0264;stroke-miterlimit:4;stroke-dasharray:none;stroke-opacity:1" id="polygon257" points="352.5 32.6 307.1 111.4 352.5 190.6 443.8 190.6 489.2 111.8 443.8 32.6"/></g></g></g></svg>