<svg xmlns="http://www.w3.org/2000/svg" xmlns:svg="http://www.w3.org/2000/svg" id="b0be4804-10ca-4842-b31b-b943f29dadcb" width="731.413" height="522.402" data-name="Layer 1" version="1.1" viewBox="0 0 731.413 522.402"><path id="path6568" fill="#ffb8b8" d="m 491.73276,266.65483 a 10.05577,10.05577 0 0 0 -6.36384,-14.04484 l -2.225,-35.66551 -14.83573,11.16844 4.38735,32.15633 a 10.11027,10.11027 0 0 0 19.03722,6.38559 z"/><polygon id="polygon6570" fill="#ffb8b8" points="683.237 425.28 670.203 470.736 681.988 474.115 700.63 430.267" transform="translate(-113.79713,-63.886111)"/><path id="path6572" fill="#2f2e41" d="m 587.7809,427.68876 -37.03822,-10.62015 4.10324,-14.31022 22.72801,6.51692 a 14.88686,14.88686 0 0 1 10.20697,18.41345 z" style="fill:#000"/><polygon id="polygon6574" fill="#ffb8b8" points="651.322 463.73 651.32 511.018 639.06 511.017 633.227 463.729" transform="translate(-113.79713,-63.886111)"/><path id="path6576" fill="#2f2e41" d="m 516.50546,443.6282 h 23.64387 v 14.88687 h -38.53072 v 0 a 14.88686,14.88686 0 0 1 14.88685,-14.88687 z" style="fill:#000"/><path id="path6578" fill="#2f2e41" d="m 503.61625,254.33313 c 0,0 -7,28 5,85 l 9,98 23,1 -3,-106 8,-44 20,61 -7,43 17,8 19,-59 c 0,0 -2,-82 -10,-92 z"/><circle id="circle6580" cx="532.659" cy="70.274" r="24.561" fill="#ffb8b8"/><path id="path6582" fill="#e6e6e6" d="m 519.61625,107.57243 c 0,0 -1.5,3.29851 16.5,1.2607 18,-2.03781 22,-8 22,-8 l 31.5,138.17854 -2,12.22691 -86,5.09455 v -17.32146 l 15,-91.7018 z"/><path id="path6584" fill="#2f2e41" d="m 526.97905,252.83992 -27.26221,-0.51465 -0.0879,-0.37988 a 143.23849,143.23849 0 0 1 0.99951,-57.22266 c 5.50586,-24.38183 -7.00513,-57.44824 -12.63965,-70.5332 a 7.0185,7.0185 0 0 1 2.83081,-8.76172 l 19.29785,-11.57812 a 9.82607,9.82607 0 0 1 14.57764,5.999 l 3.374,13.23633 c 15.5398,16.71 14.4502,50.9834 10.79224,76.81836 a 363.14376,363.14376 0 0 1 -11.7688,52.582 z" style="fill:#06f"/><path id="path6586" fill="#2f2e41" d="m 496.11625,112.83313 -2.35815,1.61347 a 29.60763,29.60763 0 0 0 -11.39587,14.98232 71.49867,71.49867 0 0 0 -2.746,10.90424 c -2,12 -11,63 -11,63 l -4,50 22,-5 10,-58 10,-36 z" style="fill:#2a7fff"/><path id="path6588" fill="#2f2e41" d="m 574.35356,253.07824 -0.20752,-0.57519 c -1.43018,-3.96387 -34.80371,-97.335 -19.04126,-130.25977 l -1.54422,-15.44136 a 10.03581,10.03581 0 0 1 13.01953,-10.565429 l 24.11792,7.646479 a 4.83558,4.83558 0 0 1 3.395,4.68652 c -0.0999,8.876 -0.59033,31.49805 -2.981,49.82813 -2.95581,22.66113 6.89673,79.28027 6.99658,79.84961 l 0.0591,0.33594 z" style="fill:#06f"/><path id="path6590" fill="#ffb8b8" d="m 563.7241,228.25211 a 10.05575,10.05575 0 0 1 12.0113,-9.66873 l 18.06206,-30.83409 8.2091,16.65663 -18.41059,26.72693 a 10.11027,10.11027 0 0 1 -19.87191,-2.88075 z"/><path id="path6592" fill="#2f2e41" d="m 587.11625,103.83313 1.29339,0.29847 a 9.89494,9.89494 0 0 1 7.05745,6.2142 l 22.14916,59.98733 -26,57 -9.5,-23.5 12,-26 -21.5,-27.5 z" style="fill:#2a7fff"/><path id="path6594" fill="#2f2e41" d="m 557.55411,73.669241 a 60.67581,60.67581 0 0 0 3.15352,-11.25447 20.28422,20.28422 0 0 0 -1.30963,-11.45969 24.91728,24.91728 0 0 0 -6.772,-8.11883 63.65743,63.65743 0 0 0 -6.05995,-4.56073 c -5.94235,-3.941 -7.23554,-0.355 -14.36319,-1.16163 -7.12765,-0.80663 -15.11474,-2.85661 -20.82775,1.39774 a 23.32228,23.32228 0 0 0 -8.40929,24.65242 c 1.59274,5.41955 0.32508,7.20585 5.2426,10.135 a 19.18083,19.18083 0 0 1 5.18857,-13.13077 19.94828,19.94828 0 0 1 12.93909,-6.1202 c 3.79026,-0.27467 7.56549,0.534 11.27656,1.33779 3.60068,0.77985 7.29829,1.59959 10.35056,3.62759 5.05843,3.36093 7.42988,9.36311 9.51482,14.99332"/><rect id="rect6596" width="413.116" height="2" x="32.201" y="300.879" fill="#e6e6e6" style="stroke-width:.973403"/><rect id="rect6598" width="413.116" height="2" x="32.201" y="222.879" fill="#e6e6e6" style="stroke-width:.973403"/><rect id="rect6600" width="413.116" height="2" x="32.201" y="144.879" fill="#e6e6e6" style="stroke-width:.973403"/><rect id="rect6602" width="1.895" height="312" x="361.746" y="67.879" fill="#e6e6e6" style="stroke-width:.973403"/><rect id="rect6604" width="1.895" height="312" x="279.123" y="67.879" fill="#e6e6e6" style="stroke-width:.973403"/><rect id="rect6606" width="1.895" height="312" x="196.5" y="67.879" fill="#e6e6e6" style="stroke-width:.973403"/><rect id="rect6608" width="1.895" height="312" x="113.877" y="67.879" fill="#e6e6e6" style="stroke-width:.973403"/><rect id="rect6610" width="165.815" height="78" x="114.635" y="145.879" fill="#00b0ff" style="stroke-width:.973403"/><path id="path6612" fill="#00b0ff" d="M 197.9412,217.94202" style="stroke-width:.973403"/><polygon id="polygon6614" fill="#00b0ff" points="178 153 87 150 87 234" transform="matrix(0.94751308,0,0,1,32.201022,67.878991)"/><path id="path6616" fill="#00b0ff" d="m 280.44944,220.87902 v 3 l -1.08029,1.01 -2.17909,2.04 c -42.38226,1.35 -76.61579,33.39 -78.16058,73.12 l -1.94222,1.82 -0.0189,0.01 v -84 z" style="stroke-width:.973403"/><path id="path6618" fill="#e6e6e6" d="m 279.97569,224.87902 c -0.19898,0 -0.4076,0 -0.60654,0.01 -45.08229,0.3 -81.72301,34.62 -82.28189,76.98 -0.0189,0.34 -0.0189,0.67 -0.0189,1.01 0,43.01 37.18989,78 82.9074,78 45.7175,0 82.90739,-34.99 82.90739,-78 0,-43.01 -37.18991,-78 -82.90741,-78 z m 0,154 c -44.6659,0 -81.01237,-34.09 -81.01237,-76 0,-0.95 0.0189,-1.89 0.0661,-2.83 1.54479,-39.73 35.77834,-71.77 78.16058,-73.12 0.91928,-0.04 1.84736,-0.05 2.78563,-0.05 44.66589,0 81.01237,34.09 81.01237,76 0,41.91 -36.34648,76 -81.01237,76 z" style="stroke-width:.973403"/><path id="path6620" fill="#e6e6e6" d="m 234.49506,301.8951 -4.73757,-0.0278 c 0.002,-0.44482 0.76086,-44.48047 49.22442,-47.53467 l 0.28221,4.99121 c -43.95329,2.77002 -44.75646,40.94776 -44.76906,42.57129 z" style="stroke-width:.973403"/><path id="path6622" fill="#e6e6e6" d="m 327.80613,300.87902 a 40.303464,42.53605 0 0 0 -13.24623,-30.11 50.631953,53.43668 0 0 0 -34.48939,-13.95 h -0.0948 c -26.02793,0 -47.27156,19.67 -47.83046,44.06 -0.0189,0.33 -0.0189,0.67 -0.0189,1 0,12.76 5.65685,24.29 14.73364,32.49 a 50.827681,53.64325 0 0 0 33.11577,12.57 h 0.0948 c 26.34068,-0.05 47.75457,-20.24 47.75457,-45.06 2e-5,-0.33 2e-5,-0.67 -0.019,-1 z" style="stroke-width:.973403"/><path id="path6624" fill="#00b0ff" d="m 314.55992,270.76902 -1.42127,1.33 -64.85746,60.94 -1.42127,1.33 c -9.07679,-8.2 -14.73364,-19.73 -14.73364,-32.49 0,-0.33 0,-0.67 0.0189,-1 0.55888,-24.39 21.80251,-44.06 47.83046,-44.06 h 0.0948 a 50.631953,53.43668 0 0 1 34.4894,13.95 z" style="stroke-width:.973403;fill:#2a7fff"/></svg>