<svg xmlns="http://www.w3.org/2000/svg" xmlns:v="https://vecta.io/nano" xmlns:xlink="http://www.w3.org/1999/xlink" width="762" height="689.787"><path fill="#ccc" d="M690.398 563.201H70.892A40.156 29.944 0 0 1 30.78 533.29V170.46a29.419 21.938 0 0 1 29.385-21.913h640.449a29.928 22.317 0 0 1 29.894 22.292V533.29a40.156 29.944 0 0 1-40.111 29.911z"/><path fill="#fff" d="M85.746 548.449h588.168a42.231 31.391 0 0 0 42.231-31.391V215.804a42.231 31.391 0 0 0-42.231-31.391H85.746a42.231 31.391 0 0 0-42.231 31.391v301.254a42.231 31.391 0 0 0 42.231 31.391z"/><path fill="#06f" d="M730.735 169.98h-700v-22.484a40.306 44.359 0 0 1 40.272-44.295h619.455a40.306 44.359 0 0 1 40.272 44.295z"/><g fill="#fff"><ellipse cx="67.693" cy="136.315" rx="6.997" ry="7.75"/><ellipse cx="94.251" cy="136.315" rx="6.997" ry="7.75"/><ellipse cx="120.808" cy="136.315" rx="6.997" ry="7.75"/></g><path fill="#e6e6e6" d="M617.649 235.357v86.117H147.165v-45.342l9.843-5.766c14.124-8.054 29.243-15.587 45.72-18.378a69.017 64.311 0 0 1 23.603-.275c8.268 1.272 16.181 3.927 24.016 6.59 7.727 2.636 15.473 5.354 23.554 6.883a68.963 64.262 0 0 0 23.888.439c15.128-2.114 29.341-7.78 43.495-12.905 14.243-5.153 28.918-10.022 44.332-10.663 15.217-.641 30.247 2.709 44.686 6.864 29.44 8.466 59.5 21.024 90.672 12.411 31.654-8.732 60.769-33.938 95.849-26.46a1.321 1.231 0 0 1 .827.485z"/><g fill="#00b0ff"><path d="M617.649 236.858a1.42 1.324 0 0 1-1.611.659 52.459 48.882 0 0 0-12.749-1.226c-34.505.567-61.035 26.451-94.774 30.323-30.42 3.487-59.051-10.297-87.653-17.5-14.861-3.743-30.184-5.73-45.477-3.185-15.175 2.517-29.417 8.301-43.719 13.436-13.771 4.942-28.082 9.537-42.992 9.766-16.393.256-31.156-6.041-46.361-10.837-7.907-2.499-16.02-4.476-24.398-4.668a73.807 68.775 0 0 0-24.045 3.469c-16.158 4.787-30.714 13.317-44.888 21.792a1.259 1.173 0 0 1-.835.211 1.521 1.418 0 0 1-.648-2.581l.648-.384 9.822-5.766c14.095-8.054 29.182-15.587 45.624-18.378a68.731 64.045 0 0 1 23.554-.275c8.251 1.272 16.148 3.927 23.966 6.59 7.711 2.636 15.441 5.354 23.505 6.883a68.678 63.996 0 0 0 23.839.439c15.097-2.114 29.28-7.78 43.404-12.905 14.213-5.153 28.858-10.022 44.239-10.663 15.185-.641 30.184 2.709 44.593 6.864 29.378 8.466 59.375 21.024 90.482 12.411 31.588-8.732 60.642-33.938 95.649-26.46a1.318 1.228 0 0 1 .825.485 1.513 1.41 0 0 1 0 1.501z"/><ellipse cx="211.992" cy="252.829" rx="6.876" ry="6.407"/><ellipse cx="385.845" cy="244.592" rx="6.876" ry="6.407"/><ellipse cx="598.005" cy="236.355" rx="6.876" ry="6.407"/></g><use fill="#ccc" xlink:href="#B"/><ellipse cx="160.946" cy="356.571" fill="#00b0ff" rx="18.827" ry="17.543"/><use x="168.334" fill="#e6e6e6" xlink:href="#B"/><ellipse cx="329.28" cy="356.571" fill="#00b0ff" rx="18.827" ry="17.543"/><use x="336.669" fill="#ccc" xlink:href="#B"/><g fill="#00b0ff"><ellipse cx="497.615" cy="356.571" rx="18.827" ry="17.543"/><use xlink:href="#C"/></g><use x="8.107" fill="#3f3d56" xlink:href="#C"/><use x="16.214" fill="#575a89" xlink:href="#C"/><g fill="#3f3d56"><use xlink:href="#D"/><use y="2.58" xlink:href="#D"/><use y="5.159" xlink:href="#D"/><path d="M298.696 403.41v8.973a28.452 26.92 0 0 1 20.119 45.954l6.706 6.345a37.936 35.893 0 0 0-26.825-61.273z"/></g><path fill="#575a89" d="M325.521 464.683l-6.706-6.345a28.445 26.913 0 0 1-37.332 2.395l-5.74 7.146a37.935 35.892 0 0 0 49.779-3.196z"/><path fill="#00b0ff" d="M270.244 439.303a28.452 26.92 0 0 1 28.452-26.919v-8.973a37.936 35.892 0 0 0-22.954 64.469l5.74-7.146a28.402 26.873 0 0 1-11.238-21.43z"/><path fill="#575a89" d="M428.138 447.486h19.399v29.203h-19.399z"/><path fill="#3f3d56" d="M456.159 427.612h19.399v49.077h-19.399z"/><g fill="#00b0ff"><path d="M484.18 404.493h19.399v72.196H484.18z"/><use xlink:href="#E"/></g><use x="8.107" fill="#3f3d56" xlink:href="#E"/><use x="16.214" fill="#575a89" xlink:href="#E"/><g fill="#3f3d56"><use xlink:href="#F"/><use y="2.565" xlink:href="#F"/><use y="5.13" xlink:href="#F"/></g><defs><path id="B" d="M205.798 352.443a4.984 4.644 0 0 0 0 9.288h69.77a4.984 4.644 0 0 0 0-9.288z"/><path id="C" d="M247.982 482.257h5.613v5.454h-5.613z"/><path id="D" d="M310.943 484.626h21.826v.86h-21.826z"/><path id="E" d="M414.731 483.711h5.613v5.423h-5.613z"/><path id="F" d="M477.692 486.067h21.826v.855h-21.826z"/></defs></svg>