<svg xmlns="http://www.w3.org/2000/svg" xmlns:xlink="http://www.w3.org/1999/xlink" width="618.898" height="661.865" xmlns:v="https://vecta.io/nano"><defs><path id="A" d="M216.824 135.464a2.819 2.717 0 0 1-1.571-3.284 1.355 1.306 0 0 0 .061-.301h0a1.414 1.363 0 0 0-2.54-.903h0a1.355 1.306 0 0 0-.156.268 2.819 2.717 0 0 1-3.407 1.514 1.355 1.306 0 0 0-.313-.059h0a1.414 1.363 0 0 0-.937 2.448h0a1.355 1.306 0 0 0 .278.151 2.819 2.717 0 0 1 1.571 3.284 1.355 1.306 0 0 0-.061.301h0a1.414 1.363 0 0 0 2.54.903h0a1.355 1.306 0 0 0 .156-.268 2.819 2.717 0 0 1 3.407-1.514 1.355 1.306 0 0 0 .313.059h0a1.414 1.363 0 0 0 .937-2.448h0a1.355 1.306 0 0 0-.278-.151z"/><path id="B" d="M362.749 121.297l-7.004-7.544 2.06-.794 4.944 4.368 7.004-9.927 2.472 1.986z"/></defs><path d="M310.584 115.655L146.25 216.55s0 208.096 164.335 321.603C474.919 424.646 474.919 216.55 474.919 216.55z" fill="#59f"/><path d="M313.392 113.93l-2.809 1.725v418.804l2.809 1.968c164.335-113.507 164.335-321.603 164.335-321.603z" fill="#80b3ff"/><path fill="#f9f9f9" d="M355.673 306.045l-53.894 68.152-43.888-48.938 12.909-5.152 30.98 28.333 38.404-55.273z" opacity=".7"/><g fill="#fff"><path d="M351.408 303.006l-48.166 62.681-35.602-39.698 10.471-4.178 25.13 22.983 35.602-52.234z"/><ellipse cx="400.019" cy="474.218" rx="3.656" ry="3.647"/><g transform="matrix(.794128 0 0 .822043 416.72794 103.84767)"><use xlink:href="#A" x="-117.393" y="99.834"/><ellipse cx="-32.776" cy="39.154" rx="4.604" ry="4.437"/></g><path d="M347.704 527.162h1.828v10.335h-1.828z"/><path d="M353.797 531.417v1.824h-10.359v-1.824zm98.957-365.412h1.828v10.335h-1.828z"/><path d="M458.847 170.261v1.824h-10.359v-1.824z"/><path opacity=".5" d="M240.615 132.72l-7.525 9.793-5.562-6.201 1.636-.653 3.926 3.591 5.562-8.16z"/></g><path fill="#00b0ff" d="M406.884 255.101l13.542-.524.675 17.371-13.542.524z"/><path d="M359.336 315.416s-18.754-8.94-18.454-1.219 18.904 12.8 18.904 12.8z" fill="#ffb9b9"/><path d="M369.625 380.742s-8.848 21.606-12.117 37.197-8.248 37.047-1.844 52.264 24.612 59.939 24.799 64.765-1.56 9.726 2.31 9.576 24.925-6.764 25.78-9.696-7.184-10.354-7.184-10.354l-19.85-62.057 20.71-40.429 14.938 60.314 2.926 75.276s14.359-4.422 16.444-.636c0 0 6.433-8.948 7.251-12.845s-3.038-78.171-3.038-78.171 13.181-84.598 2.54-84.187-52.318-25.039-73.667-1.016z" fill="#2c5aa0"/><path d="M382.623 540.684s-9.815 21.644-10.745 22.646-7.326 10.915-2.49 10.728 16.257-5.462 24.662-13.519 19.489-22.018 18.483-22.946-7.889-3.561-7.889-3.561zm39.218 12.014s-.592 9.689-2.377 13.624-1.56 9.726 3.277 9.538 17.337-2.603 17.337-2.603.743-5.828-.263-6.756-5.287-11.394-3.465-14.364-14.51.561-14.51.561z" fill="#b3b3b3"/><path d="M428.996 238.298s10.311 16.032 14.33 19.743-7.289 11.88-7.289 11.88l-20.238 2.716s.255-18.374-.788-20.267 13.985-14.073 13.985-14.073z" fill="#ffb9b9"/><path d="M411.405 259.276s4.169 7.571 8.039 7.421 23.883-8.656 24.738-11.589 6.629 21.007 6.629 21.007l-48.972 85.983-11.945-8.237 5.788-50.483 4.754-27.247z" fill="#fff"/><path d="M445.987 336.227c-1.954 4.077-3.173 8.329-3.004 12.681a11.51 11.51 0 0 0 .032.579c.464 8.932 3.762 19.262 4.945 26.775.858 5.389.614 9.323-2.547 10.247-7.663 2.229 1.117 3.822-28.532 13.669s-34.823 1.347-34.899-.583 4.199-16.594 3.194-17.521-14.06 12.142-18.004 10.362-.45-11.581-.45-11.581 8.885-20.641 8.698-25.466 13.46-27.584 13.46-27.584l9.282-60.284s3.569-7.87 8.369-9.023 8.781 1.593 8.781 1.593l-8.031 17.708-8.473 31.257 1.418 11.544s9.853-20.678 16.324-28.661 20.269-26.881 20.269-26.881 3.221-10.844.789-14.084c-2.432-3.25 10.143-3.736 15.505 9.587 2.841 7.061 7.455 17.593 10.346 27.397 2.575 8.687 3.792 16.807 1.24 21.448-3.9 7.091-13.71 16.41-18.71 26.82z" fill="#214478"/><path d="M464.699 309.407c-3.9 7.091-13.71 16.41-18.71 26.82-1.306-4.695-2.9-9.553-2.9-9.553s-6.112-32.626 11.967-41.058a12.099 12.072 0 0 1 8.403 2.343c2.575 8.687 3.792 16.807 1.24 21.448z" opacity=".15"/><path d="M392.929 307.351l-15.327 4.459-21.281.824-2.189 18.449 34.973 2.513s8.735-24.501 3.824-26.245z" fill="#214478"/><path d="M417.922 369.382s-20.504 3.394-15.825 9.55 22.845-.316 22.845-.316z" fill="#ffb9b9"/><path d="M443.016 349.487c.464 8.932 3.762 19.262 4.945 26.775-6.532 6.168-12.743 11.608-15.084 11.698-4.836.187-12.612-.478-15.477.598s-4.545-17.222-4.545-17.222 1.71-5.865 9.336-9.06c5.148-2.161 15.015-8.023 20.825-12.791z" opacity=".154"/><path d="M454.83 279.826s16.369-2.566 15.485 24.531 1.726 44.394-4.858 49.481-27.969 28.145-32.806 28.333-12.612-.478-15.477.598-4.545-17.222-4.545-17.222 1.71-5.865 9.336-9.06 25.592-14.521 25.442-18.382-4.545-17.222-4.545-17.222-6.112-32.626 11.967-41.058z" fill="#214478"/><ellipse cx="414.561" cy="240.79" fill="#ffb9b9" rx="21.297" ry="21.248"/><path d="M400.222 210.335a4.112 4.103 0 0 1-1.791.897 1.278 1.275 0 0 1-1.481-1.023c-.488 1.008-1.037 2.083-2.032 2.6s-2.533.084-2.676-1.027a4.696 4.685 0 0 1-1.081 2.276c-.617.587-1.737.736-2.275.076.436 2.376.167 4.818.303 7.229s.781 4.967 2.607 6.553c2.663 2.312 6.667 1.741 10.169 1.304a3.087 3.079 0 0 1 1.594.087c1.311.557 1.252 2.379 1.27 3.801a10.586 10.561 0 0 0 9.269 10.029 5.306 5.294 0 0 0 3.944-.96c.994-.841 1.502-2.211 2.642-2.843 1.853-1.028 4.102.471 5.456 2.098s2.691 3.628 4.79 3.927c2.776.394 4.891-2.429 5.929-5.028a29.383 29.315 0 0 0-.584-22.778c-5.798-12.608-25.603-14.603-36.053-7.214z" fill="#333"/><g fill="#fff"><use xlink:href="#B" x="-216.907" y="368.606" transform="matrix(.794128 0 0 .822043 82.957308 105.89829)"/><g opacity=".5"><path d="M168.278 386.49h1.828v10.335h-1.828z"/><path d="M174.371 390.746v1.824h-10.359v-1.824z"/></g><ellipse cx="157.845" cy="163.91" opacity=".5" rx="3.656" ry="3.647"/><path d="M114.881 263.187h1.828v10.335h-1.828z"/><path d="M120.973 267.442v1.824h-10.359v-1.824z"/></g></svg>