<?xml version="1.0" encoding="UTF-8" standalone="no"?>
<svg
   width="879.922"
   height="538.58502"
   version="1.1"
   id="svg3173"
   sodipodi:docname="JunTech-Responsive-Web-Design-Aruba.svg"
   inkscape:version="1.1 (c68e22c387, 2021-05-23)"
   xmlns:inkscape="http://www.inkscape.org/namespaces/inkscape"
   xmlns:sodipodi="http://sodipodi.sourceforge.net/DTD/sodipodi-0.dtd"
   xmlns:xlink="http://www.w3.org/1999/xlink"
   xmlns="http://www.w3.org/2000/svg"
   xmlns:svg="http://www.w3.org/2000/svg">
  <sodipodi:namedview
     id="namedview8557"
     pagecolor="#ffffff"
     bordercolor="#666666"
     borderopacity="1.0"
     inkscape:pageshadow="2"
     inkscape:pageopacity="0.0"
     inkscape:pagecheckerboard="0"
     showgrid="false"
     inkscape:zoom="0.5"
     inkscape:cx="599"
     inkscape:cy="63"
     inkscape:window-width="1920"
     inkscape:window-height="1003"
     inkscape:window-x="-9"
     inkscape:window-y="-9"
     inkscape:window-maximized="1"
     inkscape:current-layer="svg3173" />
  <style
     id="style2886">.U{opacity:.1}.V{fill:#ccc}.W{fill:#fff}.X{fill:#e6e6e6}.Y{fill:#72351c}.Z{fill:#fdb797}.a{fill:#00b0ff}.b{fill:#f55f44}.c{fill:#ffb8b8}.d{fill:#2f2e41}</style>
  <defs
     id="defs2903">
    <path
       id="B"
       d="m 330.788,367.848 a 4.989,5.109 0 0 0 0,10.216 h 89.831 a 4.989,5.109 0 0 0 0.163,-10.216 h -0.163 z" />
    <path
       id="C"
       d="m 298.683,382.433 a 9.228,9.45 0 1 1 9.228,-9.45 9.238,9.461 0 0 1 -9.228,9.45 z m 0,-17.182 a 7.55,7.732 0 1 0 7.55,7.732 7.558,7.741 0 0 0 -7.55,-7.732 z" />
    <path
       id="D"
       d="m 203.406,427.853 h 9.787 v 3.611 h -5.694 v 0.722 h 5.694 v 8.305 h -9.787 V 436.7 h 5.694 v -0.722 h -5.694 z" />
    <path
       id="E"
       d="m -517.557,222.888 a 0.172,0.146 0 0 0 0.135,0.146 2.696,2.295 0 0 1 1.041,0.443 c 0.572,0.381 -0.609,-0.762 -0.609,-0.762 l -0.396,0.075 -0.161,0.124 z" />
    <path
       id="F"
       d="m -517.557,230.641 0.604,-0.022 0.52,0.071 h -0.182 z" />
    <path
       id="G"
       d="m -513.487,228.156 h 0.604 l 0.52,0.044 h -0.182 z" />
    <path
       id="H"
       d="m -517.557,231.053 h 0.604 l 0.52,0.053 h -0.182 z" />
    <path
       id="I"
       d="m -513.451,228.156 h 0.604 l 0.52,0.044 h -0.172 z" />
    <linearGradient
       y2="215.689"
       x2="-515.21997"
       y1="240.20599"
       x1="-515.21997"
       id="A"
       gradientUnits="userSpaceOnUse">
      <stop
         offset="0"
         stop-color="gray"
         stop-opacity=".25"
         id="stop2888" />
      <stop
         offset=".54"
         stop-color="gray"
         stop-opacity=".12"
         id="stop2890" />
      <stop
         offset="1"
         stop-color="gray"
         stop-opacity=".1"
         id="stop2892" />
    </linearGradient>
    <linearGradient
       y2="215.689"
       x2="-515.21997"
       y1="240.20599"
       x1="-515.21997"
       id="A-3"
       gradientUnits="userSpaceOnUse">
      <stop
         offset="0"
         stop-color="gray"
         stop-opacity=".25"
         id="stop2888-1" />
      <stop
         offset=".54"
         stop-color="gray"
         stop-opacity=".12"
         id="stop2890-2" />
      <stop
         offset="1"
         stop-color="gray"
         stop-opacity=".1"
         id="stop2892-9" />
    </linearGradient>
  </defs>
  <path
     d="M 755.507,499.611 H 136.001 A 40.156,29.944 0 0 1 95.889,469.7 V 106.87 a 29.419,21.938 0 0 1 29.385,-21.913 h 640.449 a 29.928,22.317 0 0 1 29.894,22.292 V 469.7 a 40.156,29.944 0 0 1 -40.111,29.911 z"
     class="V"
     id="path2905" />
  <path
     d="m 150.855,484.859 h 588.168 a 42.231,31.391 0 0 0 42.231,-31.391 V 152.214 A 42.231,31.391 0 0 0 739.023,120.823 H 150.855 a 42.231,31.391 0 0 0 -42.231,31.391 v 301.254 a 42.231,31.391 0 0 0 42.231,31.391 z"
     class="W"
     id="path2907" />
  <path
     d="m 795.844,106.39 h -700 V 83.906 A 40.306,44.359 0 0 1 136.116,39.610996 H 755.571 A 40.306,44.359 0 0 1 795.843,83.906 Z"
     fill="#0066ff"
     id="path2909" />
  <g
     class="W"
     id="g2917"
     transform="translate(65.109,-113.59)">
    <ellipse
       ry="7.75"
       rx="6.9970002"
       cy="186.315"
       cx="67.693001"
       id="ellipse2911" />
    <ellipse
       ry="7.75"
       rx="6.9970002"
       cy="186.315"
       cx="94.250999"
       id="ellipse2913" />
    <ellipse
       ry="7.75"
       rx="6.9970002"
       cy="186.315"
       cx="120.808"
       id="ellipse2915" />
  </g>
  <g
     class="X"
     id="g2923"
     transform="translate(65.109,-113.59)">
    <path
       d="m 74.411,260.531 0.849,-1.224 163.83,158.565 -0.849,1.224 z"
       id="path2919" />
    <path
       d="m 71.492,415.463 169.277,-156.45 0.88,1.198 -169.277,156.45 z"
       id="path2921" />
  </g>
  <path
     fill="#1a1a1a"
     d="M 740.214,225.535 H 560.068 a 5.304,6.539 0 0 1 -5.298,-6.532 v -73.718 a 5.304,6.539 0 0 1 5.298,-6.532 h 180.145 a 5.304,6.539 0 0 1 5.298,6.532 v 73.718 a 5.304,6.539 0 0 1 -5.298,6.532 z M 560.069,140.619 a 3.789,4.671 0 0 0 -3.785,4.666 v 73.718 a 3.789,4.671 0 0 0 3.785,4.666 h 180.145 a 3.789,4.671 0 0 0 3.785,-4.666 v -73.718 a 3.789,4.671 0 0 0 -3.785,-4.666 z"
     id="path2925" />
  <path
     fill="#b3b3b3"
     d="m 622.769,334.46 h -76.448 a 5.305,6.54 0 0 1 -5.298,-6.532 V 254.21 a 5.304,6.539 0 0 1 5.298,-6.532 h 76.448 a 5.304,6.539 0 0 1 5.298,6.532 v 73.718 a 5.305,6.54 0 0 1 -5.298,6.532 z m -76.448,-84.916 a 3.789,4.671 0 0 0 -3.785,4.666 v 73.718 a 3.789,4.671 0 0 0 3.785,4.666 h 76.448 a 3.789,4.671 0 0 0 3.785,-4.666 V 254.21 a 3.789,4.671 0 0 0 -3.785,-4.666 z"
     id="path2927" />
  <path
     fill="#999999"
     d="M 303.35,305.507 H 142.397 a 4.739,5.49 0 0 1 -4.734,-5.484 V 148.831 a 4.739,5.49 0 0 1 4.734,-5.484 H 303.35 a 4.739,5.49 0 0 1 4.734,5.484 v 151.192 a 4.74,5.49 0 0 1 -4.734,5.484 z M 142.397,144.914 a 3.385,3.922 0 0 0 -3.381,3.917 v 151.192 a 3.385,3.922 0 0 0 3.381,3.917 H 303.35 a 3.385,3.922 0 0 0 3.381,-3.917 V 148.831 a 3.385,3.922 0 0 0 -3.381,-3.917 z"
     id="path2929" />
  <g
     class="W"
     id="g2935"
     transform="translate(65.109,-113.59)">
    <path
       d="m 507.622,420.591 h -38.379 a 0.759,0.759 0 0 1 -0.143,-0.01 l 18.152,-30.282 a 1.28,1.28 0 0 1 1.106,-0.621 1.28,1.28 0 0 1 1.106,0.621 l 12.766,21.294 z"
       id="path2931" />
    <ellipse
       cy="391.995"
       cx="503.97198"
       rx="5.6859999"
       ry="5.4759998"
       id="ellipse2933" />
  </g>
  <use
     xlink:href="#B"
     y="50"
     class="X"
     id="use2937"
     x="0"
     width="100%"
     height="100%"
     transform="translate(65.109,-113.59)" />
  <use
     xlink:href="#B"
     fill="#ececec"
     y="50"
     id="use2939"
     x="0"
     width="100%"
     height="100%"
     transform="translate(65.109,-113.59)" />
  <use
     xlink:href="#B"
     y="50"
     class="V"
     id="use2941"
     x="0"
     width="100%"
     height="100%"
     transform="translate(65.109,-113.59)" />
  <use
     xlink:href="#B"
     y="50"
     class="X"
     id="use2943"
     x="0"
     width="100%"
     height="100%"
     transform="translate(65.109,-113.59)" />
  <use
     xlink:href="#B"
     y="50"
     class="V"
     id="use2945"
     x="0"
     width="100%"
     height="100%"
     transform="translate(65.109,-113.59)" />
  <use
     xlink:href="#B"
     fill="#ececec"
     y="50"
     id="use2947"
     x="0"
     width="100%"
     height="100%"
     transform="translate(65.109,-113.59)" />
  <use
     xlink:href="#C"
     y="50"
     class="X"
     id="use2949"
     x="0"
     width="100%"
     height="100%"
     transform="translate(65.109,-113.59)" />
  <use
     xlink:href="#C"
     y="50"
     class="V"
     id="use2951"
     x="0"
     width="100%"
     height="100%"
     transform="translate(65.109,-113.59)" />
  <g
     transform="translate(65.109,-63.590004)"
     class="X"
     id="g2959">
    <use
       xlink:href="#C"
       y="53.237"
       id="use2953"
       x="0"
       width="100%"
       height="100%" />
    <use
       xlink:href="#C"
       y="79.869003"
       id="use2955"
       x="0"
       width="100%"
       height="100%" />
    <use
       xlink:href="#C"
       y="106.501"
       id="use2957"
       x="0"
       width="100%"
       height="100%" />
  </g>
  <use
     xlink:href="#C"
     y="50"
     class="V"
     id="use2961"
     x="0"
     width="100%"
     height="100%"
     transform="translate(65.109,-113.59)" />
  <g
     class="a"
     id="g2971"
     transform="translate(65.109,-113.59)">
    <ellipse
       cy="422.983"
       cx="298.68301"
       rx="4.1939998"
       ry="4.2950001"
       id="ellipse2963" />
    <ellipse
       cy="476.24701"
       cx="298.68301"
       rx="4.1939998"
       ry="4.2950001"
       opacity="0.843"
       id="ellipse2965" />
    <ellipse
       cy="502.879"
       cx="298.68301"
       rx="4.1939998"
       ry="4.2950001"
       id="ellipse2967" />
    <path
       d="m 526.18,436.661 h -61.547 c -5.239,-0.006 -9.485,-4.407 -9.491,-9.838 V 381.51 c 0.006,-5.431 4.252,-9.832 9.491,-9.838 h 61.547 c 5.239,0.006 9.485,4.407 9.491,9.838 v 45.313 c -0.006,5.431 -4.252,9.832 -9.491,9.838 z"
       id="path2969" />
  </g>
  <path
     d="m 568.541,287.298 h -16.106 a 4.602,4.77 0 0 1 0,-9.539 h 16.106 a 4.602,4.77 0 0 1 0,9.539 z m 9.518,16.098 h -35.087 a 4.602,4.77 0 0 1 0,-9.539 h 35.087 a 4.602,4.77 0 0 1 0,9.539 z"
     class="W"
     id="path2973" />
  <path
     fill-rule="evenodd"
     fill="#7952b3"
     d="m 595.813,362.804 c -5.827,0 -10.138,4.715 -9.945,9.828 0.185,4.912 -0.056,11.274 -1.788,16.463 -1.739,5.203 -4.677,8.5 -9.477,8.923 v 4.778 c 4.8,0.424 7.738,3.72 9.477,8.923 1.733,5.188 1.973,11.55 1.788,16.463 -0.193,5.112 4.118,9.828 9.946,9.828 h 59.702 c 5.826,0 10.137,-4.715 9.944,-9.828 -0.185,-4.912 0.056,-11.274 1.788,-16.463 1.739,-5.204 4.67,-8.5 9.47,-8.923 v -4.778 c -4.8,-0.424 -7.731,-3.719 -9.47,-8.923 -1.733,-5.188 -1.973,-11.55 -1.788,-16.463 0.193,-5.112 -4.117,-9.828 -9.944,-9.828 z m 48.02,46.294 c 0,7.04 -5.68,11.31 -15.107,11.31 h -16.047 a 1.731,1.6 0 0 1 -1.731,-1.6 v -36.802 a 1.731,1.6 0 0 1 1.731,-1.6 h 15.955 c 7.86,0 13.019,3.936 13.019,9.98 0,4.242 -3.47,8.039 -7.891,8.704 v 0.221 c 6.018,0.61 10.071,4.464 10.071,9.787 z m -16.856,-23.62 h -9.149 v 11.948 h 7.706 c 5.957,0 9.242,-2.218 9.242,-6.182 0,-3.715 -2.825,-5.766 -7.799,-5.766 z m -9.149,16.689 v 13.167 h 9.486 c 6.203,0 9.488,-2.301 9.488,-6.625 0,-4.324 -3.378,-6.543 -9.887,-6.543 h -9.087 z"
     id="path2975" />
  <path
     fill="#f7df1e"
     d="m 392.899,170.463 h 95.844 v 88.39 h -95.844 z"
     id="path2977" />
  <path
     d="m 409.484,228.822 7.336,-4.094 c 1.415,2.314 2.702,4.271 5.79,4.271 2.96,0 4.826,-1.068 4.826,-5.22 v -28.244 h 9.007 v 28.36 c 0,8.603 -5.468,12.52 -13.446,12.52 -7.205,0 -11.388,-3.442 -13.511,-7.596 m 31.848,-0.887 7.334,-3.916 c 1.93,2.908 4.44,5.043 8.879,5.043 3.732,0 6.112,-1.72 6.112,-4.094 0,-2.848 -2.445,-3.857 -6.562,-5.518 l -2.251,-0.89 c -6.498,-2.552 -10.81,-5.756 -10.81,-12.52 0,-6.23 5.148,-10.977 13.19,-10.977 5.726,0 9.843,1.84 12.803,6.646 l -7.013,4.153 c -1.544,-2.55 -3.216,-3.56 -5.79,-3.56 -2.638,0 -4.311,1.543 -4.311,3.56 0,2.492 1.673,3.501 5.533,5.044 l 2.252,0.89 c 7.656,3.026 11.967,6.111 11.967,13.053 0,7.476 -6.37,11.57 -14.926,11.57 -8.364,0 -13.768,-3.678 -16.405,-8.485"
     id="path2979" />
  <path
     fill="#e44d26"
     d="m 207.614,345.215 -5.917,61.482 -26.597,6.839 -26.524,-6.83 -5.911,-61.492 z"
     id="path2981" />
  <path
     fill="#f16529"
     d="m 175.141,408.308 21.491,-5.527 5.056,-52.539 H 175.14 Z"
     id="path2983" />
  <path
     d="m 163.638,365.326 h 11.502 v -7.542 h -20.388 l 2.193,22.806 h 18.195 v -7.542 h -10.759 z m 1.833,19.035 h -8.162 l 1.139,11.842 16.655,4.289 0.037,-0.01 v -7.847 l -0.036,0.009 -9.055,-2.268 -0.579,-6.015 z"
     fill="#ebebeb"
     id="path2985" />
  <path
     d="m 148.709,328.504 h 4.132 v 3.787 h 3.78 v -3.787 h 4.132 v 11.467 h -4.132 v -3.84 h -3.78 v 3.84 h -4.132 z m 17.478,3.803 h -3.638 v -3.803 h 11.409 v 3.803 h -3.639 v 7.664 h -4.132 z m 9.582,-3.803 h 4.309 l 2.65,4.029 2.648,-4.029 h 4.31 v 11.467 h -4.115 v -5.684 l -2.843,4.077 h -0.071 l -2.845,-4.077 v 5.684 h -4.043 z m 15.973,0 h 4.133 v 7.676 h 5.811 v 3.79 h -9.944 z"
     id="path2987" />
  <path
     d="m 175.112,380.591 h 10.012 l -0.944,9.781 -9.068,2.27 v 7.846 l 16.669,-4.285 2.231,-23.154 h -18.9 z m 0,-15.283 v 0.018 h 19.64 l 0.728,-7.542 h -20.368 v 7.523 z"
     class="W"
     id="path2989" />
  <path
     fill="#264de4"
     d="m 273.814,456.704 -26.359,-7.425 -5.874,-66.85 h 64.546 l -5.88,66.839 z"
     id="path2991" />
  <path
     fill="#2965f1"
     d="m 295.212,445.013 5.025,-57.117 h -26.384 v 63.125 z"
     id="path2993" />
  <path
     d="m 255.047,412.69 0.724,8.199 h 18.083 v -8.199 z m -1.455,-16.595 0.735,8.199 h 19.527 v -8.199 z m 20.262,37.888 -0.035,0.01 -8.999,-2.466 -0.575,-6.539 h -8.112 l 1.132,12.873 16.552,4.662 0.037,-0.01 z"
     fill="#ebebeb"
     id="path2995" />
  <path
     d="m 256.771,364.263 h 9.787 v 4.153 h -5.694 v 4.153 h 5.694 v 4.153 h -9.787 z"
     id="path2997" />
  <use
     xlink:href="#D"
     y="50"
     id="use2999"
     x="0"
     width="100%"
     height="100%"
     transform="translate(65.109,-113.59)" />
  <use
     xlink:href="#D"
     x="11.745"
     y="50"
     id="use3001"
     width="100%"
     height="100%"
     transform="translate(65.109,-113.59)" />
  <path
     d="m 292.609,412.69 1.459,-16.595 h -20.242 v 8.199 h 11.386 l -0.735,8.396 h -10.651 v 8.199 h 9.95 l -0.938,10.633 -9.012,2.468 v 8.53 l 16.565,-4.658 2.02,-22.97 z"
     class="W"
     id="path3003" />
  <g
     transform="matrix(0.97596,0,0,0.99474,1127.342,-25.972004)"
     id="g3161">
    <path
       d="m -476.187,252.618 -106.662,0.397 c -5.116,-3.695 -2.841,-16.255 -2.117,-14.791 26.705,-8.803 67.267,-13.879 108.779,14.394 z"
       class="a"
       id="path3005" />
    <path
       fill="#00c7ff"
       d="m -396.663,250.776 v 2.06 h -131.83 v -0.439 c 0,0 64.87,-45.657 131.83,-1.62 z"
       id="path3007" />
    <ellipse
       fill="#ffda00"
       cy="188.15601"
       cx="-566.32001"
       rx="7.4050002"
       ry="7.0879998"
       id="ellipse3009" />
    <g
       class="a"
       id="g3021">
      <path
         d="m -527.545,249.35 h -4.724 c 0,0 -1.476,-36.433 4.724,-47.677 h 1.181 c 0,0 -4.134,41.222 -1.181,47.677 z"
         opacity="0.775"
         id="path3011" />
      <path
         d="m -530.793,199.799 c 0,0 -3.838,7.496 -2.067,10.827 0,0 2.657,-6.871 5.754,-7.912 3.097,-1.041 6.345,7.912 6.345,7.912 0,0 1.772,-5.622 -1.476,-10.189 0,0 6.496,2.499 9.744,7.288 0,0 0.591,-3.101 -7.086,-9.578 0,0 6.791,1.249 11.22,4.164 0,0 1.476,-2.29 -7.677,-6.038 0,0 1.181,-2.707 8.267,-1.458 0,0 0,-3.544 -11.22,-2.915 0,0 0,-2.29 7.381,-1.874 0,0 0,-2.915 -8.562,-1.874 0,0 1.771,-1.874 2.953,-2.29 a 5.937,4.186 0 0 0 -4.134,0.833 c 0,0 0.295,-3.748 -4.134,-5.205 l -0.591,5.205 c 0,0 -4.963,-4.124 -3.838,-3.331 0.295,0.208 1.181,2.707 0.886,3.956 0,0 -5.026,-2.915 -11.22,0.208 0,0 7.677,0.416 8.858,2.29 0,0 -6.495,-0.833 -7.972,-0.208 0,0 5.026,1.249 4.724,2.082 0,0 -8.858,0 -10.051,2.29 0,0 9.153,0.833 9.744,1.458 0,0 -10.629,5.414 -11.22,6.871 0,0 10.924,-4.581 12.696,-4.581 1.772,0 -7.972,6.645 -7.381,8.329 0.025,-0.013 8.022,-6.676 10.058,-6.26 z"
         opacity="0.775"
         id="path3013" />
      <path
         d="m -469.279,247.985 h 3.606 c 0,0 1.131,-27.834 -3.606,-36.424 h -0.905 c 0,0 3.166,31.485 0.905,36.424 z"
         id="path3015" />
      <path
         d="m -466.798,210.13 c 0,0 2.934,5.728 1.577,8.271 0,0 -2.029,-5.25 -4.397,-6.043 -2.368,-0.793 -4.85,6.043 -4.85,6.043 0,0 -1.351,-4.293 1.131,-7.793 a 19.606,13.826 0 0 0 -7.444,5.569 c 0,0 -0.452,-2.388 5.415,-7.319 0,0 -5.189,0.952 -8.569,3.181 0,0 -1.131,-1.75 5.868,-4.612 0,0 -0.905,-2.069 -6.313,-1.112 0,0 0,-2.702 8.569,-2.215 0,0 0,-1.75 -5.654,-1.431 0,0 0,-2.215 6.54,-1.431 0,0 -1.351,-1.431 -2.255,-1.75 a 4.536,3.199 0 0 1 3.141,0.638 c 0,0 -0.226,-2.862 3.141,-3.987 l 0.452,3.987 2.934,-2.543 a 9.894,6.977 0 0 0 -0.678,3.021 c 0,0 3.832,-2.215 8.569,0.159 0,0 -5.868,0.319 -6.766,1.75 0,0 4.963,-0.638 6.087,-0.159 0,0 -3.832,0.952 -3.606,1.59 0,0 6.766,0 7.67,1.75 0,0 -6.992,0.638 -7.444,1.112 0,0 8.123,4.138 8.569,5.25 0,0 -8.343,-3.5 -9.7,-3.5 -1.357,0 6.087,5.09 5.654,6.362 0.031,-0.018 -6.056,-5.099 -7.639,-4.789 z m 40.696,32.415 h 2.236 c 0,0 0.697,-17.238 -2.236,-22.558 h -0.559 c 0,0 1.954,19.515 0.559,22.558 z"
         id="path3017" />
      <path
         d="m -424.563,219.101 c 0,0 1.815,3.544 0.98,5.121 0,0 -1.256,-3.252 -2.726,-3.743 -1.47,-0.491 -3.003,3.743 -3.003,3.743 0,0 -0.836,-2.658 0.697,-4.829 a 12.143,8.563 0 0 0 -4.611,3.447 c 0,0 -0.276,-1.48 3.355,-4.532 a 14.172,9.994 0 0 0 -5.308,1.971 c 0,0 -0.697,-1.085 3.631,-2.857 0,0 -0.559,-1.28 -3.914,-0.691 0,0 0,-1.675 5.308,-1.378 0,0 0,-1.085 -3.493,-0.886 0,0 0,-1.378 4.052,-0.886 a 6.138,4.328 0 0 0 -1.395,-1.085 2.808,1.98 0 0 1 1.954,0.394 c 0,0 -0.138,-1.772 1.954,-2.463 l 0.276,2.463 1.815,-1.577 a 6.125,4.319 0 0 0 -0.421,1.87 4.353,3.07 0 0 1 5.308,0.097 c 0,0 -3.631,0.195 -4.19,1.085 0,0 3.072,-0.394 3.769,-0.097 0,0 -2.375,0.589 -2.236,0.983 0,0 4.19,0 4.749,1.085 0,0 -4.328,0.394 -4.611,0.691 0,0 5.026,2.561 5.308,3.252 l -6.006,-2.166 c -0.836,0 3.769,3.154 3.493,3.938 0.013,0.005 -3.763,-3.15 -4.737,-2.95 z"
         id="path3019" />
    </g>
    <path
       fill="url(#A)"
       d="m -509.954,223.052 -0.39,-1.772 a 1.129,0.961 0 0 0 -0.354,-0.696 l -1.806,-0.753 a 2.045,1.741 0 0 1 -0.323,-0.443 l 0.031,-0.04 a 1.082,0.921 0 0 0 0.208,-0.359 0.718,0.611 0 0 0 0,-0.102 h 0.026 a 0.671,0.571 0 0 0 0.744,-0.443 v -0.04 a 0.671,0.571 0 0 1 -0.609,0.443 1.842,1.568 0 0 0 0.817,-1.302 v -0.066 a 0.666,0.567 0 0 0 0.307,-0.381 v -0.04 a 0.666,0.567 0 0 1 -0.317,0.354 1.832,1.559 0 0 0 -0.115,-0.443 h 0.047 a 0.671,0.571 0 0 0 0.671,-0.571 v -0.04 a 0.671,0.571 0 0 1 -0.666,0.532 h -0.083 v -0.027 a 1.098,0.935 0 0 0 0.77,-0.758 v -0.04 a 0.666,0.567 0 0 1 -0.135,0.306 0.671,0.571 0 0 0 -1.322,-0.168 l -0.12,-0.058 a 0.671,0.571 0 0 1 0.604,-0.416 h -0.047 a 0.671,0.571 0 0 0 -0.64,0.385 1.842,1.568 0 0 0 -2.321,0.567 c -0.14,0.089 -0.323,0.217 -0.317,0.328 a 1.275,1.085 0 0 0 -0.161,0.168 2.55,2.171 0 0 0 -0.208,1.183 1.473,1.254 0 0 1 -0.479,1.085 0.635,0.54 0 0 0 0.489,0 1.884,1.604 0 0 0 0.432,-0.217 0.968,0.824 0 0 0 0.307,-0.253 v -0.022 a 1.52,1.294 0 0 0 0.276,0.124 c 0.037,0.266 0.047,0.571 -0.094,0.673 l 0.026,-0.049 a 1.691,1.44 0 0 1 -1.171,0.284 1.462,1.245 0 0 0 -1.212,0.665 l -0.567,2.016 v 0.071 a 0.182,0.155 0 0 0 0.135,0.111 l 0.177,0.04 a 3.674,3.128 0 0 1 -0.12,1.023 10.268,8.741 0 0 0 -0.203,1.506 c 0.041,0.253 0.115,1.568 0.151,2.193 a 7.629,6.495 0 0 0 -0.151,0.647 l -0.838,4.279 -0.593,4.461 -0.109,0.598 c 0,0 -1.702,1.816 -1.202,2.073 0.5,0.257 1.27,0.368 2.004,-0.598 a 1.837,1.564 0 0 1 0.468,-0.598 0.687,0.585 0 0 0 0.234,-0.501 l -0.052,-0.443 0.088,0.027 h 0.052 c 0,0 0.838,-2.344 0.744,-3.987 0,0 1.561,-4.705 2.732,-5.445 v -0.031 l 0.109,-0.044 0.25,4.559 -0.255,5.024 -0.057,0.301 c 0,0 -1.702,1.816 -1.202,2.073 0.5,0.257 1.27,0.368 2.004,-0.598 a 1.837,1.564 0 0 1 0.468,-0.598 0.687,0.585 0 0 0 0.234,-0.501 l -0.078,-0.665 c 0.291,-0.846 1.041,-3.283 0.734,-4.696 l 0.52,-3.004 c 0.52,-0.501 0.453,-1.772 0.453,-1.772 0.411,-0.731 0.521,-3.597 0.521,-3.597 l 0.104,-1.418 a 1.384,1.178 0 0 1 0.234,0 h 0.083 v -0.027 a 0.156,0.133 0 0 0 0.037,-0.04 h 0.031 v -0.036 z m -1.457,2.88 -0.156,-0.292 h -0.042 v -0.036 a 0.203,0.173 0 0 1 0,-0.036 v -0.036 a 1.436,1.223 0 0 0 0.062,-0.146 0.651,0.554 0 0 0 0.099,-0.306 3.404,2.897 0 0 1 0.037,0.851 z m -0.156,-1.214 -0.104,-0.948 0.031,-0.075 0.14,1.205 z m -4.934,0.128 a 0.39,0.332 0 0 0 -0.094,0.257 v 0.031 a 1.265,1.077 0 0 0 0.047,0.284 l -0.161,0.594 v -1.134 a 2.946,2.507 0 0 0 0.281,-0.381 0.729,0.62 0 0 1 -0.073,0.35 z"
       id="path3023"
       style="fill:url(#A)" />
    <path
       d="m -515.449,217.528 a 2.456,2.091 0 0 0 -0.203,1.139 1.421,1.209 0 0 1 -0.463,1.046 0.614,0.523 0 0 0 0.473,0 1.816,1.546 0 0 0 0.416,-0.208 0.932,0.793 0 0 0 0.297,-0.244 1.103,0.939 0 0 0 0.068,-0.483 6.016,5.121 0 0 1 0.089,-0.864 c 0.031,-0.177 0.229,-0.66 0,-0.753 -0.229,-0.093 -0.578,0.235 -0.677,0.368 z"
       class="Y"
       id="path3025" />
    <path
       d="m -518.889,236.36 -0.161,0.886 c 0,0 -1.639,1.772 -1.155,1.998 0.484,0.226 1.223,0.354 1.931,-0.576 a 1.769,1.506 0 0 1 0.448,-0.576 0.661,0.563 0 0 0 0.224,-0.483 l -0.161,-1.351 z m 4.933,0.35 -0.161,0.886 c 0,0 -1.639,1.772 -1.155,1.998 0.484,0.226 1.223,0.354 1.931,-0.576 a 1.769,1.506 0 0 1 0.447,-0.576 0.661,0.563 0 0 0 0.224,-0.483 l -0.161,-1.351 z"
       fill="#333333"
       id="path3027" />
    <path
       fill="#4d8af0"
       d="m -516.511,226.118 c 0,0 -0.77,0.474 -1.041,2.122 l -0.807,4.124 c 0,0 -0.682,3.739 -0.557,4.457 l 1.364,0.399 c 0,0 0.807,-2.259 0.718,-3.832 0,0 1.639,-4.971 2.789,-5.316 l 0.245,4.39 -0.26,4.94 1.166,0.199 c 0,0 1.181,-3.145 0.807,-4.811 l 0.609,-3.544 c 0,0 0.697,-1.892 -0.271,-3.544 z"
       id="path3029" />
    <path
       d="m -514.164,228.138 v -0.075 c -1.15,0.35 -2.789,5.316 -2.789,5.316 a 12.044,12.044 0 0 1 -0.703,3.792 l 0.146,0.044 c 0,0 0.807,-2.259 0.718,-3.832 -0.005,0.004 1.494,-4.514 2.628,-5.245 z m 2.462,-2.414 h -0.156 a 4.523,4.523 0 0 1 0.26,3.513 l -0.609,3.544 c 0.359,1.577 -0.687,4.479 -0.796,4.785 l 0.151,0.027 c 0,0 1.181,-3.145 0.807,-4.811 l 0.609,-3.544 c 0,0 0.703,-1.883 -0.265,-3.513 z"
       class="U"
       id="path3031" />
    <use
       xlink:href="#E"
       class="b"
       id="use3033"
       x="0"
       y="0"
       width="100%"
       height="100%" />
    <use
       xlink:href="#E"
       class="U"
       id="use3035"
       x="0"
       y="0"
       width="100%"
       height="100%" />
    <path
       d="m -511.926,223.898 a 3.643,3.101 0 0 1 1.624,-0.545 0.151,0.128 0 0 0 0.151,-0.128 c 0,0 -1.363,-0.456 -1.775,0.673 z"
       class="b"
       id="path3037" />
    <path
       d="m -510.152,223.221 c 0,0 -1.363,-0.443 -1.775,0.673 0,0 1.004,-0.656 1.702,-0.549"
       class="U"
       id="path3039" />
    <ellipse
       cy="217.882"
       cx="-513.508"
       rx="1.775"
       ry="1.511"
       class="Y"
       id="ellipse3041" />
    <path
       d="m -514.731,218.941 c 0,0 0.25,0.886 0,1.068 -0.25,0.182 -0.755,0.518 -0.375,0.78 0.38,0.262 1.738,0.704 2.191,0.487 0.453,-0.217 0.968,-0.151 0.843,-0.594 -0.125,-0.443 -1.114,-0.35 -1.129,-2.552 z"
       class="Z"
       id="path3043" />
    <path
       d="m -517.245,222.623 a 6.495,5.529 0 0 1 -0.109,1.435 9.888,8.417 0 0 0 -0.198,1.449 c 0.052,0.319 0.161,2.428 0.161,2.428 0,0 -0.198,1.847 0.859,1.679 1.057,-0.168 -0.161,-2.109 -0.161,-2.109 l 0.052,-2.521 a 2.763,2.352 0 0 0 0.52,-1.13 c 0.078,-0.607 -1.124,-1.232 -1.124,-1.232 z"
       class="U"
       id="path3045" />
    <path
       d="m -517.26,222.623 a 6.495,5.529 0 0 1 -0.109,1.435 9.888,8.417 0 0 0 -0.198,1.449 c 0.052,0.319 0.161,2.428 0.161,2.428 0,0 -0.198,1.847 0.859,1.679 1.057,-0.168 -0.161,-2.109 -0.161,-2.109 l 0.052,-2.521 a 2.763,2.352 0 0 0 0.52,-1.13 c 0.073,-0.607 -1.124,-1.232 -1.124,-1.232 z"
       class="Z"
       id="path3047" />
    <path
       d="m -510.5,222.76 -0.146,1.971 c 0,0 -0.089,2.764 -0.484,3.464 0,0 0.109,1.94 -0.952,1.892 -1.061,-0.048 0.177,-2.122 0.177,-2.122 0,0 0.567,-2.157 0.276,-2.84 l -0.276,-2.366 z"
       class="U"
       id="path3049" />
    <path
       d="m -510.485,222.76 -0.146,1.971 c 0,0 -0.088,2.764 -0.484,3.464 0,0 0.109,1.94 -0.952,1.892 -1.061,-0.048 0.177,-2.122 0.177,-2.122 0,0 0.567,-2.157 0.276,-2.84 l -0.276,-2.366 z"
       class="Z"
       id="path3051" />
    <path
       d="m -513.925,220.851 c 0,0 0.859,0.337 1.327,-0.665 l 1.743,0.727 a 1.088,0.926 0 0 1 0.338,0.673 l 0.375,1.71 c 0,0 -1.275,-0.368 -1.671,0.642 l 0.109,0.961 a 1.218,1.037 0 0 1 -0.057,0.718 0.187,0.159 0 0 0 0,0.128 0.552,0.47 0 0 1 -0.52,0.611 10.58,9.006 0 0 0 -1.4,0.093 c -0.375,0.093 -1.509,-0.182 -1.884,0 -0.375,0.182 -1.166,-0.137 -1.166,-0.137 l 0.213,-0.78 c 0,0 -0.146,-0.381 0.037,-0.518 0.183,-0.137 0.073,-1.329 -0.089,-1.666 0,0 -0.645,-0.518 -1.041,-0.443 l 0.52,-1.971 a 1.405,1.196 0 0 1 1.166,-0.642 1.634,1.391 0 0 0 1.129,-0.275 c 0,0 -0.39,0.727 0.869,0.833 z"
       class="U"
       id="path3053" />
    <path
       d="m -513.836,220.815 c 0.234,0.053 0.859,0.111 1.233,-0.691 l 1.743,0.727 a 1.088,0.926 0 0 1 0.338,0.673 l 0.375,1.71 c 0,0 -1.275,-0.368 -1.671,0.642 l 0.109,0.961 0.073,0.19 a 0.64,0.545 0 0 1 -0.089,0.487 0.203,0.173 0 0 0 -0.036,0.177 0.552,0.47 0 0 1 -0.52,0.611 10.58,9.006 0 0 0 -1.4,0.093 c -0.375,0.093 -1.509,-0.182 -1.884,0 -0.375,0.182 -1.166,-0.137 -1.166,-0.137 l 0.213,-0.78 c 0,0 -0.146,-0.381 0.036,-0.518 0.182,-0.137 0.073,-1.329 -0.088,-1.666 0,0 -0.645,-0.518 -1.041,-0.443 l 0.52,-1.971 a 1.405,1.196 0 0 1 1.166,-0.642 1.634,1.391 0 0 0 1.129,-0.275 c 0,0 -0.422,0.656 0.687,0.797 z"
       class="U"
       id="path3055" />
    <path
       d="m -513.836,220.846 c 0.234,0.053 0.859,0.111 1.233,-0.691 l 1.743,0.727 a 1.088,0.926 0 0 1 0.338,0.673 l 0.375,1.71 c 0,0 -1.275,-0.368 -1.671,0.642 l 0.109,0.961 a 1.218,1.037 0 0 1 -0.057,0.718 0.187,0.159 0 0 0 0,0.128 0.552,0.47 0 0 1 -0.521,0.611 10.58,9.006 0 0 0 -1.4,0.093 c -0.375,0.093 -1.509,-0.182 -1.884,0 -0.375,0.182 -1.166,-0.137 -1.166,-0.137 l 0.213,-0.78 c 0,0 -0.146,-0.381 0.036,-0.518 0.182,-0.137 0.073,-1.329 -0.089,-1.666 0,0 -0.645,-0.518 -1.041,-0.443 l 0.52,-1.971 a 1.405,1.196 0 0 1 1.166,-0.642 1.634,1.391 0 0 0 1.129,-0.275 c 0,0 -0.422,0.656 0.687,0.797 z"
       class="b"
       id="path3057" />
    <path
       d="m -513.175,218.21 -1.525,0.811 a 4.954,4.217 0 0 1 0.089,0.443 1.468,1.249 0 0 0 0.546,0.089 1.561,1.329 0 0 0 0.989,-0.381 5.928,5.046 0 0 1 -0.099,-0.961 z"
       class="U"
       id="path3059" />
    <ellipse
       cy="218.201"
       cx="-514.09601"
       rx="1.473"
       ry="1.2539999"
       class="Z"
       id="ellipse3061" />
    <g
       class="Y"
       id="g3073">
      <ellipse
         cy="216.69099"
         cx="-511.92599"
         rx="0.64499998"
         ry="0.54900002"
         id="ellipse3063" />
      <path
         d="m -511.801,217.271 a 0.645,0.549 0 0 1 -0.645,-0.509 v 0.04 a 0.646,0.549 0 1 0 1.291,0 v -0.04 a 0.645,0.549 0 0 1 -0.645,0.509 z"
         id="path3065" />
      <path
         d="m -512.171,217.794 a 0.645,0.549 0 0 1 -0.52,-0.602 v 0.036 a 0.646,0.55 0 1 0 1.27,0.199 v -0.04 a 0.645,0.549 0 0 1 -0.749,0.408 z m -0.499,1.329 a 0.645,0.549 0 0 1 -0.52,-0.602 v 0.036 a 0.646,0.55 0 0 0 1.27,0.199 v -0.04 a 0.645,0.549 0 0 1 -0.749,0.408 z"
         id="path3067" />
      <path
         d="m -511.801,216.979 a 0.645,0.549 0 0 1 -0.645,-0.514 v 0.04 a 0.646,0.549 0 1 0 1.291,0 v -0.04 a 0.645,0.549 0 0 1 -0.645,0.514 z"
         id="path3069" />
      <path
         d="m -512.702,216.682 a 0.645,0.549 0 0 1 0.609,-0.545 h -0.047 a 0.646,0.55 0 0 0 0,1.099 h 0.047 a 0.645,0.549 0 0 1 -0.609,-0.554 z"
         id="path3071" />
    </g>
    <path
       d="m -512.051,221.865 a 2.326,1.98 0 0 1 0,0.824 c 0,0 -0.089,0.718 0.052,0.842 m -4.413,-1.498 a 2.326,1.98 0 0 1 0,0.824 c 0,0 -0.088,0.718 0.053,0.842 m -0.09,1.28 a 0.64,0.545 0 0 0 0.432,0 0.895,0.762 0 0 1 0.52,0 m -0.733,-1.081 a 3.721,3.168 0 0 0 1.488,-0.199 c 0,0 1.832,0.381 2.352,0.106"
       class="U"
       id="path3075" />
    <rect
       ry="0.29699999"
       rx="0.34900001"
       height="0.59399998"
       width="1.1289999"
       y="230.48199"
       x="-517.56201"
       class="Z"
       id="rect3077" />
    <g
       fill="#f0e4e4"
       id="g3101">
      <use
         xlink:href="#F"
         id="use3079"
         x="0"
         y="0"
         width="100%"
         height="100%" />
      <use
         xlink:href="#G"
         id="use3081"
         x="0"
         y="0"
         width="100%"
         height="100%" />
      <use
         xlink:href="#G"
         y="0.106"
         id="use3083"
         x="0"
         width="100%"
         height="100%" />
      <use
         xlink:href="#G"
         y="0.21699999"
         id="use3085"
         x="0"
         width="100%"
         height="100%" />
      <use
         xlink:href="#G"
         y="0.32300001"
         id="use3087"
         x="0"
         width="100%"
         height="100%" />
      <use
         xlink:href="#H"
         id="use3089"
         x="0"
         y="0"
         width="100%"
         height="100%" />
      <use
         xlink:href="#H"
         y="-0.052999999"
         id="use3091"
         x="0"
         width="100%"
         height="100%" />
      <use
         xlink:href="#H"
         y="-0.106"
         id="use3093"
         x="0"
         width="100%"
         height="100%" />
      <use
         xlink:href="#H"
         y="-0.15899999"
         id="use3095"
         x="0"
         width="100%"
         height="100%" />
      <use
         xlink:href="#F"
         y="-0.079999998"
         id="use3097"
         x="0"
         width="100%"
         height="100%" />
      <use
         xlink:href="#F"
         y="-0.17299999"
         id="use3099"
         x="0"
         width="100%"
         height="100%" />
    </g>
    <path
       d="m -513.846,217.399 a 3.56,3.03 0 0 0 0.208,1.382 1.931,1.644 0 0 1 -0.078,1.329 0.52,0.443 0 0 0 0.458,-0.097 1.775,1.511 0 0 0 0.333,-0.332 1.041,0.886 0 0 0 0.203,-0.346 1.608,1.369 0 0 0 -0.104,-0.585 8.847,7.531 0 0 1 -0.219,-1.032 c -0.031,-0.213 0,-0.824 -0.281,-0.886 -0.281,-0.062 -0.468,0.39 -0.52,0.567 z"
       class="U"
       id="path3103" />
    <path
       d="m -513.81,217.386 a 3.56,3.03 0 0 0 0.208,1.382 1.931,1.644 0 0 1 -0.078,1.329 0.52,0.443 0 0 0 0.458,-0.097 1.775,1.511 0 0 0 0.333,-0.332 1.041,0.886 0 0 0 0.203,-0.346 1.608,1.369 0 0 0 -0.104,-0.585 8.847,7.531 0 0 1 -0.219,-1.032 c -0.031,-0.213 0,-0.824 -0.281,-0.886 -0.281,-0.062 -0.468,0.385 -0.52,0.567 z"
       class="Y"
       id="path3105" />
    <path
       d="m -514.445,217.714 c 0.125,0.111 0.151,0.275 0.255,0.399 a 0.921,0.784 0 0 0 0.729,0.248 0.411,0.35 0 0 1 0.213,0.04 c 0.115,0.062 0.12,0.204 0.193,0.301 a 0.416,0.354 0 0 0 0.609,0 1.004,0.855 0 0 0 0.234,-0.545 4.007,3.411 0 0 0 0,-0.66 1.187,1.01 0 0 0 -0.328,-0.673 1.384,1.178 0 0 0 -0.578,-0.213 1.712,1.458 0 0 0 -0.89,-0.058 1.603,1.364 0 0 0 -0.406,0.173 q -0.265,0.146 -0.52,0.297 c -0.192,0.115 -0.557,0.346 -0.203,0.47 0.224,0.089 0.505,0.049 0.692,0.222 z"
       class="U"
       id="path3107" />
    <path
       d="m -514.409,217.696 c 0.125,0.111 0.151,0.275 0.255,0.399 a 0.921,0.784 0 0 0 0.729,0.248 0.411,0.35 0 0 1 0.213,0.04 c 0.115,0.062 0.12,0.204 0.192,0.301 a 0.416,0.354 0 0 0 0.609,0 1.004,0.855 0 0 0 0.234,-0.545 4.007,3.411 0 0 0 0,-0.66 1.187,1.01 0 0 0 -0.328,-0.673 1.384,1.178 0 0 0 -0.578,-0.213 1.712,1.458 0 0 0 -0.89,-0.058 1.603,1.364 0 0 0 -0.406,0.173 q -0.265,0.146 -0.52,0.297 c -0.192,0.115 -0.557,0.346 -0.203,0.47 0.224,0.089 0.52,0.053 0.692,0.221 z"
       class="Y"
       id="path3109" />
    <g
       fill="#f0e4e4"
       id="g3127">
      <use
         xlink:href="#I"
         id="use3111"
         x="0"
         y="0"
         width="100%"
         height="100%" />
      <use
         xlink:href="#I"
         y="0.106"
         id="use3113"
         x="0"
         width="100%"
         height="100%" />
      <use
         xlink:href="#I"
         y="0.21699999"
         id="use3115"
         x="0"
         width="100%"
         height="100%" />
      <use
         xlink:href="#I"
         y="0.32300001"
         id="use3117"
         x="0"
         width="100%"
         height="100%" />
      <use
         xlink:href="#G"
         x="-0.22400001"
         y="6.2020001"
         id="use3119"
         width="100%"
         height="100%" />
      <use
         xlink:href="#G"
         x="-0.22400001"
         y="6.3130002"
         id="use3121"
         width="100%"
         height="100%" />
      <use
         xlink:href="#G"
         x="-0.22400001"
         y="6.4190001"
         id="use3123"
         width="100%"
         height="100%" />
      <use
         xlink:href="#G"
         x="-0.22400001"
         y="6.5250001"
         id="use3125"
         width="100%"
         height="100%" />
    </g>
    <path
       d="m -473.903,386.096 -2.855,1.428 c 0,0 -11.422,5.235 -8.09,8.09 3.332,2.855 12.373,-2.855 12.373,-2.855 l 1.904,-2.38 z"
       class="c"
       id="path3129" />
    <path
       d="m -412.511,486.035 -7.138,-3.331 6.662,-56.632 -19.036,-16.181 1.428,-23.795 40.236,-0.711 -8.826,59.247 z"
       class="d"
       id="path3131" />
    <path
       d="m -420.602,484.132 c 0,0 8.09,-4.283 8.566,1.904 l -0.952,6.187 c 0,0 2.855,10.946 -6.663,8.566 -9.518,-2.38 -2.855,-9.518 -2.855,-9.518 z"
       id="path3133" />
    <path
       d="m -425.837,404.656 -6.187,5.235 c 0,0 0,32.361 4.283,37.12 4.283,4.759 31.41,29.03 32.361,29.982 0.951,0.952 5.235,-9.518 5.235,-9.518 l -25.699,-29.982 1.904,-18.56 z"
       class="d"
       id="path3135" />
    <path
       d="m -392.999,466.048 c 0,0 7.614,-1.428 7.614,3.807 a 115.23,115.23 0 0 0 0.952,12.373 c 0,0 1.904,16.657 -4.283,14.277 -6.187,-2.38 -8.566,-19.036 -8.566,-19.036 a 7.09,7.09 0 0 1 2.855,-3.331 c 1.904,-0.952 1.428,-8.09 1.428,-8.09 z"
       id="path3137" />
    <g
       class="c"
       id="g3143">
      <path
         d="m -415.366,332.319 -3.807,6.662 -10.47,-9.994 -0.952,-13.325 13.801,-0.952 z"
         id="path3139" />
      <circle
         cx="-425.36099"
         cy="309"
         r="11.422"
         id="circle3141" />
    </g>
    <path
       fill="#d0cde1"
       d="m -409.655,397.517 -23.32,-4.759 -1.903,-63.771 4.756,-6.699 9.521,9.555 4.759,-13.801 8.566,9.518 15.705,60.439 -11.898,7.139 -5.234,-7.615 z"
       id="path3145" />
    <g
       fill="#333333"
       id="g3151">
      <path
         d="m -436.306,327.084 -11.422,7.614 7.615,27.127 2.379,28.554 10.47,9.042 -2.855,-77.096 z"
         id="path3147" />
      <path
         d="m -457.246,362.776 -19.036,23.796 7.139,7.614 21.891,-21.416 8.091,-17.608 -5.235,-19.988 -3.332,-0.476 z"
         id="path3149" />
    </g>
    <path
       d="m -392.424,386.532 -0.649,3.126 c 0,0 -2.971,12.208 1.335,11.363 4.306,-0.845 5.428,-11.48 5.428,-11.48 l -0.688,-2.969 z"
       class="c"
       id="path3153" />
    <path
       fill="#333333"
       d="m -395.854,355.162 5.711,31.41 -5.711,6.186 -21.116,-71.444 0.384,-4.045 23.587,9.339 z"
       id="path3155" />
    <path
       d="m -424.763,289.817 3.353,-1.676 v 1.676 l 2.235,-1.118 v 2.794 c 0,0 8.382,6.146 6.705,13.41 -1.677,7.264 -1.676,7.823 -1.676,7.823 0,0 -2.119,-13.814 -10.501,-11.579 -8.382,2.235 -9.056,2.639 -11.291,8.785 l -0.606,2.636 c 0,0 -9.451,-21.635 11.782,-22.752 z"
       class="d"
       id="path3157" />
    <path
       fill="#333333"
       d="m -386.336,359.921 v 29.03 l -7.614,-1.428 -6.187,-43.783 3.807,-17.132 h 3.807 z"
       id="path3159" />
  </g>
  <path
     d="m 283.231,197.525 a 16.15,14.905 0 0 0 -12.896,5.918 10.633,9.814 0 0 0 -14.837,9.012 h 43.91 a 16.177,14.93 0 0 0 -16.178,-14.93 z"
     class="X"
     id="path3163" />
  <ellipse
     ry="24.042999"
     rx="26.052"
     cy="231.922"
     cx="187.036"
     class="a"
     id="ellipse3165" />
  <path
     fill="#3f3d56"
     d="m 333.307,281.472 a 12.193,11.656 0 0 1 -2.815,0.311 H 162.579 a 12.192,11.655 0 0 1 -5.913,-1.452 l 0.448,-0.614 18.734,-25.788 32.535,-44.776 a 3.189,3.048 0 0 1 5.24,0 l 43.428,59.768 30.909,-42.176 a 3.193,3.052 0 0 1 5.233,0 l 20.968,28.607 z"
     id="path3167" />
  <path
     d="m 248.655,222.455 a 19.925,18.389 0 0 0 -15.911,7.301 13.119,12.108 0 0 0 -18.305,11.119 h 54.175 a 19.959,18.42 0 0 0 -19.959,-18.42 z"
     class="V"
     id="path3169" />
  <path
     fill="#3f3d56"
     d="M 330.804,282.149 H 162.377 a 12.649,12.055 0 0 1 -12.661,-12.066 v -91.497 a 12.675,12.08 0 0 1 12.661,-12.066 h 168.427 a 12.675,12.08 0 0 1 12.661,12.066 v 91.497 a 12.646,12.052 0 0 1 -12.661,12.066 z M 162.377,167.251 a 11.907,11.348 0 0 0 -11.893,11.335 v 91.497 a 11.882,11.324 0 0 0 11.893,11.335 h 168.427 a 11.88,11.321 0 0 0 11.893,-11.335 v -91.497 a 11.907,11.348 0 0 0 -11.893,-11.335 z"
     id="path3171" />
  <use
     xlink:href="#B"
     fill="#ececec"
     y="50"
     id="use2947-7"
     x="0"
     width="100%"
     height="100%"
     transform="translate(66.694,-34.576004)" />
  <use
     xlink:href="#B"
     fill="#ececec"
     y="50"
     id="use2947-3"
     x="0"
     width="100%"
     height="100%"
     transform="translate(66.264,-58.688004)" />
  <use
     xlink:href="#B"
     fill="#ececec"
     y="50"
     id="use2947-8"
     x="0"
     width="100%"
     height="100%"
     transform="translate(67.555,-6.588004)" />
</svg>
