<svg xmlns="http://www.w3.org/2000/svg" xmlns:svg="http://www.w3.org/2000/svg" xmlns:xlink="http://www.w3.org/1999/xlink" id="Layer_1" width="721.285" height="171.779" x="0" y="0" version="1.1" viewBox="0 0 721.285 171.779" xml:space="preserve"><metadata id="metadata188"/><defs id="defs186"><linearGradient id="linearGradient5718"><stop style="stop-color:#2a7fff;stop-opacity:1" id="stop5714" offset="0"/><stop style="stop-color:#2a7fff;stop-opacity:0" id="stop5716" offset="1"/></linearGradient><linearGradient id="linearGradient8694" x1="-506.288" x2="490.369" y1="135.105" y2="244.6" gradientUnits="userSpaceOnUse" xlink:href="#linearGradient8692"/><linearGradient id="linearGradient8692"><stop style="stop-color:#0684ff;stop-opacity:1" id="stop943" offset="0"/><stop style="stop-color:#0684ff;stop-opacity:0" id="stop945" offset="1"/></linearGradient><linearGradient id="linearGradient2174" x1="-506.288" x2="490.369" y1="135.105" y2="244.6" gradientUnits="userSpaceOnUse" xlink:href="#linearGradient8692"/><linearGradient id="linearGradient2176" x1="-506.288" x2="490.369" y1="135.105" y2="244.6" gradientUnits="userSpaceOnUse" xlink:href="#linearGradient8692"/><linearGradient id="linearGradient2178" x1="-506.288" x2="490.369" y1="135.105" y2="244.6" gradientUnits="userSpaceOnUse" xlink:href="#linearGradient8692"/><linearGradient id="linearGradient2180" x1="-506.288" x2="490.369" y1="135.105" y2="244.6" gradientUnits="userSpaceOnUse" xlink:href="#linearGradient8692"/><linearGradient id="linearGradient2182" x1="-506.288" x2="490.369" y1="135.105" y2="244.6" gradientUnits="userSpaceOnUse" xlink:href="#linearGradient8692"/><linearGradient id="linearGradient2184" x1="-506.288" x2="490.369" y1="135.105" y2="244.6" gradientUnits="userSpaceOnUse" xlink:href="#linearGradient8692"/><linearGradient id="linearGradient2186" x1="-506.288" x2="490.369" y1="135.105" y2="244.6" gradientUnits="userSpaceOnUse" xlink:href="#linearGradient8692"/><linearGradient id="linearGradient5720" x1="3980.029" x2="-538.384" y1="530.045" y2="530.045" gradientUnits="userSpaceOnUse" xlink:href="#linearGradient5718"/><linearGradient id="linearGradient6344" x1="3980.029" x2="-538.384" y1="530.045" y2="530.045" gradientUnits="userSpaceOnUse" xlink:href="#linearGradient5718"/><linearGradient id="linearGradient6346" x1="3980.029" x2="-538.384" y1="530.045" y2="530.045" gradientUnits="userSpaceOnUse" xlink:href="#linearGradient5718"/><linearGradient id="linearGradient6348" x1="3783.117" x2="2640.401" y1="514.695" y2="427.979" gradientUnits="userSpaceOnUse" xlink:href="#linearGradient5718"/></defs><g transform="matrix(0.40966502,0,0,0.39034802,519.73335,-11.024132)" style="fill:url(#linearGradient8694);fill-opacity:1;stroke:#06f;stroke-width:4.84023;stroke-miterlimit:4;stroke-dasharray:none;stroke-opacity:1" id="g263"><g style="fill:url(#linearGradient2186);fill-opacity:1;stroke:#06f;stroke-width:4.84023;stroke-miterlimit:4;stroke-dasharray:none;stroke-opacity:1" id="g261"><g style="fill:url(#linearGradient2184);fill-opacity:1;stroke:#06f;stroke-width:4.84023;stroke-miterlimit:4;stroke-dasharray:none;stroke-opacity:1" id="g259"><polygon style="fill:url(#linearGradient2174);fill-opacity:1;stroke:#06f;stroke-width:4.84023;stroke-miterlimit:4;stroke-dasharray:none;stroke-opacity:1" id="polygon249" points="182.1 288.9 136.7 210 45.4 210 0 288.9 45.4 367.7 136.7 367.7"/><polygon style="fill:url(#linearGradient2176);fill-opacity:1;stroke:#06f;stroke-width:4.84023;stroke-miterlimit:4;stroke-dasharray:none;stroke-opacity:1" id="polygon251" points="290 121.5 199.2 121.5 153.7 200.3 199.2 279.2 290 279.2 335.8 200.3"/><polygon style="fill:url(#linearGradient2178);fill-opacity:1;stroke:#06f;stroke-width:4.84023;stroke-miterlimit:4;stroke-dasharray:none;stroke-opacity:1" id="polygon253" points="199.2 298.6 153.7 377.4 199.2 456.6 290 456.6 335.8 377.4 290 298.6"/><polygon style="fill:url(#linearGradient2180);fill-opacity:1;stroke:#06f;stroke-width:4.84023;stroke-miterlimit:4;stroke-dasharray:none;stroke-opacity:1" id="polygon255" points="136.7 190.6 182.1 111.8 136.7 32.6 45.4 32.6 0 111.8 45.4 190.6"/><polygon style="fill:url(#linearGradient2182);fill-opacity:1;stroke:#06f;stroke-width:4.84023;stroke-miterlimit:4;stroke-dasharray:none;stroke-opacity:1" id="polygon257" points="352.5 32.6 307.1 111.4 352.5 190.6 443.8 190.6 489.2 111.8 443.8 32.6"/></g></g></g><g id="g4505" fill="#000" stroke="none" transform="matrix(0.12870931,0,0,-0.12231395,0.98124763,133.03156)" style="fill:url(#linearGradient5720);fill-opacity:1;stroke:#0049f8;stroke-width:15.2475;stroke-miterlimit:4;stroke-dasharray:none;stroke-opacity:1"><path id="path4499" d="m 220,1073 c 0,-4 24,-62 53,-130 L 325,820 H 528 730 V 540 260 L 399,258 67,255 34,140 C 16,77 0,19 0,13 0,3 102,0 475,0 c 462,0 476,1 495,20 19,19 20,33 20,540 v 520 H 605 c -212,0 -385,-3 -385,-7 z" style="fill:url(#linearGradient6344);fill-opacity:1;stroke:#0049f8;stroke-width:15.2475;stroke-miterlimit:4;stroke-dasharray:none;stroke-opacity:1"/><path id="path4501" d="m 1220,539 c 0,-349 3,-539 10,-537 5,1 145,122 310,268 166,146 305,265 309,265 5,0 144,-120 311,-267 166,-148 306,-268 311,-268 5,0 9,232 9,540 v 540 h -135 -135 l -2,-249 -3,-248 -178,159 -178,158 -160,-142 c -88,-79 -169,-149 -180,-157 -19,-13 -19,-8 -19,233 v 246 h -135 -135 z" style="fill:url(#linearGradient6346);fill-opacity:1;stroke:#0049f8;stroke-width:15.2475;stroke-miterlimit:4;stroke-dasharray:none;stroke-opacity:1"/><path id="path4503" d="m 2720,1053 c -20,-26 -21,-35 -18,-299 3,-251 4,-274 22,-293 19,-21 24,-21 493,-21 h 473 V 350 260 H 3251 2812 L 2758,133 2703,5 3308,2 c 553,-2 607,-1 624,14 17,16 18,39 18,335 0,317 0,318 -22,333 -20,14 -83,16 -490,16 h -468 v 60 60 h 439 l 448.7118,6.13176 56.4938,107.43784 c 41.2576,69.2876 79.745,141.2115 79.745,141.2115 C 3857.7576,1077.2691 3772,1080 3346,1080 h -605 z" style="fill:url(#linearGradient6348);fill-opacity:1;stroke:#0049f8;stroke-width:15.2475;stroke-miterlimit:4;stroke-dasharray:none;stroke-opacity:1"/></g><text xml:space="preserve" style="font-style:normal;font-variant:normal;font-weight:400;font-stretch:normal;font-size:38.6667px;line-height:1.25;font-family:sans-serif;-inkscape-font-specification:sans-serif;white-space:pre;inline-size:600.632;fill:#fff;fill-opacity:1;stroke:none" id="text9140" x=".707" y="209.304" transform="translate(2.8284271,-38.110153)"><tspan id="tspan1175" x=".707" y="209.304">JunTech Web Solutions Aruba</tspan></text></svg>