<svg xmlns="http://www.w3.org/2000/svg" xmlns:xlink="http://www.w3.org/1999/xlink" height="785.81" width="1022.7" xmlns:v="https://vecta.io/nano"><defs><linearGradient gradientUnits="userSpaceOnUse" y2="392.703" x2="627.437" y1="720.827" x1="640.674" id="A"><stop stop-opacity=".25" stop-color="gray" offset="0"/><stop stop-opacity=".12" stop-color="gray" offset=".54"/><stop stop-opacity=".1" stop-color="gray" offset="1"/></linearGradient><path id="B" d="M665.781 475.45q3.2 4.91 6 10.06a37 37 0 0 1 3.17 7.17c1.16 4 1.13 8.27 2 12.35 1 4.8 3.34 9.38 3.34 14.3a20.56 20.56 0 0 1-4.22 11.76 55.82 55.82 0 0 1-8.82 9.1 187.62 187.62 0 0 1-12.48-61.21c-.1-2.9-.12-5.89.94-8.6.65-1.7 3.77-6.36 5.78-4.53.73.67.92 3.69 1.37 4.7a36.13 36.13 0 0 0 2.92 4.9z"/><path id="C" d="M625.311 576.7l2.48 17.62a26.84 26.84 0 0 1 .38 5.51c-.29 4.15-2.5 7.87-4.09 11.71s-2.56 8.44-.45 12c.65 1.11 1.56 2.06 2.15 3.21a12.92 12.92 0 0 1 1 5.63l.68 25a157.33 157.33 0 0 0 23.18-.13 1.29 1.29 0 0 0 .84-.26 1.36 1.36 0 0 0 .29-.91c.34-5.85-.68-11.71-.35-17.56.12-2.14.42-4.27.46-6.42.12-8.71-4.18-17.24-2.88-25.85a57 57 0 0 1 1.6-6.43c4.11-15 3.24-30.76 2.33-46.25a1.09 1.09 0 0 0-.2-.7 1.06 1.06 0 0 0-.54-.29 28.45 28.45 0 0 0-25.78 4.9c-1.09.88-3.84 1.73-4.56 2.78-1 1.46.31 2.92.89 4.47a56.89 56.89 0 0 1 2.57 11.97z"/><path id="D" d="M642.471 434.58c.44 3.84 4.16 6.37 7.71 7.89l-22.47 7.17c1.45-2.78.28-6.18-1.16-9a50.93 50.93 0 0 0-4-6.41c-.22-.31-.47-.7-.31-1.06a1.12 1.12 0 0 1 .63-.49c4.62-2.06 9.38-4.19 14.43-4.94 1.46-.21 4.22-.79 5.31.69s-.35 4.38-.14 6.15z"/></defs><ellipse opacity=".15" fill="#666" ry="39.371" rx="201.923" cy="614.652" cx="505.221"/><ellipse opacity=".209" fill="#4d4d4d" ry="20" rx="115" cy="711.36" cx="654.421"/><path fill="#d0d2d5" d="M416.571 609.5l8.61-75.39h156.49l11.51 75.39.88 5.72.17 1.14-178.19-2.29z"/><path opacity=".1" d="M416.041 614.07l.53-4.57h176.61l.88 5.72h-88.92z"/><path fill="#999" d="M386.341 610.65h236.45v5.71h-236.45z"/><path fill="#333" d="M848.381 81.31a14.87 14.87 0 0 0-14.8-14.92h-660.32a14.87 14.87 0 0 0-14.8 14.94v400.25h689.92z" opacity=".85"/><path fill="#999" d="M158.461 477.58v46.88a14.8 14.8 0 0 0 14.8 14.8h660.32a14.8 14.8 0 0 0 14.8-14.8v-46.88z"/><path fill="#fff" d="M187.021 91.49h636.23V451.3h-636.23z"/><path fill="#00b0ff" d="M506.851 521.47a15.4 15.4 0 0 0 12.13-5.89h0a16.06 16.06 0 0 0 1.2-1.76l-8.47-1.43 9.15.06a15.42 15.42 0 0 0 .29-12.21l-12.27 6.36 11.32-8.32a15.42 15.42 0 1 0-25.47 17.26h0a15.4 15.4 0 0 0 12.12 5.93z"/><path opacity=".1" d="M582.451 539.25h-60.18l71.09 71.4z"/><path opacity=".1" fill="#444053" d="M186.521 91.53h636.92v21.02h-636.92z"/><rect opacity=".3" fill="#00b0ff" rx=".58" height="12.79" width="191.9" y="95.19" x="407.661"/><path fill="#3f3d56" d="M593.861 102.91h-.47l-.17-.15a3.89 3.89 0 0 0 .9-2.49 3.78 3.78 0 1 0-3.77 3.81 3.9 3.9 0 0 0 2.49-.91l.17.15v.47l2.93 2.93.87-.88zm-3.51 0a2.64 2.64 0 1 1 2.63-2.64 2.62 2.62 0 0 1-2.63 2.64z"/><circle opacity=".8" fill="#fa5959" r="3.85" cy="102.04" cx="197.971"/><circle opacity=".8" fill="#fed253" r="3.85" cy="102.04" cx="208.561"/><circle opacity=".8" fill="#8ccf4d" r="3.85" cy="102.04" cx="219.161"/><path d="M495.657 194.909c-8.73-11.6-21.38-18.92-35.46-18.92s-26.73 7.32-35.46 18.92a38.39 38.39 0 0 0 8.4 12.65 38.28 38.28 0 0 0 62.52-12.65zm-75.53 6.79a9.17 9.17 0 0 1-1.76-1 7.06 7.06 0 0 1-1.94-2.51 7.18 7.18 0 1 0-11.72 1.74 8 8 0 0 0 1.7 1.37 4.94 4.94 0 0 1 1.91 2 14.44 14.44 0 0 0 3.32 4.36 29 29 0 0 0 4.55 3.2 66.31 66.31 0 0 0-3.74 19.56 27.05 27.05 0 0 0-7.62 1.23 12.29 12.29 0 0 0-3.53 1.76 8.48 8.48 0 0 0-.87-.06 7.19 7.19 0 1 0 6.73 9.72 4.59 4.59 0 0 1 3.71-3 16.75 16.75 0 0 1 1.85-.12 64.4 64.4 0 0 0 8.55 26.67c-4.24 3.29-6.85 6.88-7.95 10.86a3 3 0 0 0-.57.41 6.81 6.81 0 0 0-.84.78 7.18 7.18 0 1 0 12.05 2.35 4.71 4.71 0 0 1 1.17-5.08 20.16 20.16 0 0 1 1.7-1.46c8.11 9.47 17.76 15.54 29.81 16.26v-64.25c-15.93-.87-29.81-11.24-36.51-24.79zm99.83 31.72a7.93 7.93 0 0 0-.87.06 13.56 13.56 0 0 0-3.53-1.76 26.86 26.86 0 0 0-7.62-1.23 67.76 67.76 0 0 0-3.74-19.55 29 29 0 0 0 4.55-3.2 15.58 15.58 0 0 0 3.44-4.57 4.22 4.22 0 0 1 1.77-1.75 7.18 7.18 0 1 0-10-3.17 6.82 6.82 0 0 1-1.94 2.51 18.85 18.85 0 0 1-1.76 1.29c-6.7 13.54-20.57 23.62-36.48 24.49v64.31c12-.72 21.71-6.82 29.81-16.26.63.5 1.16.95 1.61 1.37a4.86 4.86 0 0 1 1.26 5.23 7.18 7.18 0 1 0 12.08-2.33 6.81 6.81 0 0 0-.84-.78c-.33-.26-.57-.41-.57-.41-1.1-4-3.7-7.57-8-10.86a64.4 64.4 0 0 0 8.55-26.67 15.9 15.9 0 0 1 1.77.12 4.8 4.8 0 0 1 3.85 3 7.18 7.18 0 0 0 13.85-2.18 7.29 7.29 0 0 0-7.19-7.66z" fill="#00b0ff"/><path fill="url(#A)" d="M719.791 699.7a9.56 9.56 0 0 0-2.17-2.41c-4.37-4.13-6.4-10.19-7.48-16.13s-1.39-12-3.12-17.81a58.74 58.74 0 0 0-3.52-8.67c-1-2.14-2.26-6.33-4.09-7.83a2.7 2.7 0 0 0-1.26-.61 14.85 14.85 0 0 0-3.62-4.82c-2.86-2.59-6.35-4.65-8.26-8a18 18 0 0 0-1.93-3.29c-1.29-1.42-3.33-2-4.52-3.5-1.55-1.94-1.2-4.72-1-7.19s0-5.43-2.14-6.73c-1.28-.79-2.93-.71-4.26-1.41-2-1-2.79-3.52-2.75-5.77s.74-4.44.92-6.69c.56-7.16-4.16-14.28-2.34-21.22.69-2.63 2.27-4.91 3.44-7.36a15.37 15.37 0 0 0 1-2.54 35.73 35.73 0 0 0 9.74 2.35c-5.51-12.36-4.11-26.72-6.68-40l.33-.45a20.84 20.84 0 0 0 4.22-11.86c0-4.94-2.31-9.56-3.35-14.4-.89-4.11-.85-8.41-2-12.45a37.65 37.65 0 0 0-3.16-7.22q-1.87-3.47-3.93-6.83-1.92-6.36-3.85-12.72c-1.8-5.95-3.65-12-7.15-17.14-1.28-1.88-1.67-5.7-3.64-6.84a8.81 8.81 0 0 0-5.2-.91c-2.78-1.56-5.22-3.81-5.57-6.89a6.68 6.68 0 0 1 .2-2h.34c4.4-.4 6.63-4.28 8.92-7.68 3.7-5.5 2.29-12.94 0-19.2a13 13 0 0 0-3-5.29c-3.21-3-8.29-2.34-12.43-3.79-1.39-.48-2.69-1.21-4.11-1.55-2.75-.64-5.63.26-8.15 1.53s-4.87 2.91-7.51 3.91-5.9 1.79-6.55 4.5a5 5 0 0 0 .22 2.73 10.18 10.18 0 0 0 3.09 4.46 17.81 17.81 0 0 0 10.87 24.82 51.01 51.01 0 0 1 2.12 3.73c1.16 2.24 2.14 4.88 1.74 7.28a22.45 22.45 0 0 0-2 2.45c-2.87 4-4.5 8.69-6 13.37a141.65 141.65 0 0 0-4.83 18.27c-2.44 5.19-5.42 10.15-7.19 15.6a35.21 35.21 0 0 1-9.38-1.26l-8.44-1.91c-2.94-.67-6-1.39-8.3-3.33-1.22-1-2.17-2.33-3.41-3.32s-3.73-2.15-5.09-1.33a4 4 0 0 0-.69.53c-1.24-2.51-2.42-5-3.86-7.43-2.07-3.4-5.15-6.51-9.05-7.16a9.21 9.21 0 0 0-6.79 1.58c-2.28 1.62-3.71 5-2 7.28a13.29 13.29 0 0 0 1.39 1.42 29.2 29.2 0 0 1 3.09 4.29 21.91 21.91 0 0 0 13.49 8.76l-.35 1c-.71 2.08-2.22 4.59-1.84 6.75l37.54 12.85a23.13 23.13 0 0 0 7.56 1.67 12.21 12.21 0 0 0 3-.4v1.92.08c.1 13.19-2 26.29-2.39 39.47-.07 2.41 0 5 1.52 6.88 1.7 2.06 4.72 2.47 7.35 2q.95-.16 1.86-.42a69.33 69.33 0 0 1 1.92 10.11l2.48 17.86a27.14 27.14 0 0 1 .39 5.54c-.29 4.19-2.5 7.94-4.1 11.81s-2.55 8.5-.45 12.12c.66 1.12 1.57 2.07 2.16 3.23a13.14 13.14 0 0 1 1 5.68q.23 8.08.44 16.18a1.83 1.83 0 0 0-1.26.25c-2.08 1.62-1.85 9.33-2 11.72-.16 4 0 8.08-.22 12.12a72.22 72.22 0 0 1-2.61 16.09 10.29 10.29 0 0 1-2.29 4.61 9.74 9.74 0 0 1-4.07 2.11 46.49 46.49 0 0 1-15.41 2.1c-2.11-.07-4.31-.27-6.27.53s-3.54 3-2.83 5c.61 1.68 2.46 2.48 4.13 3.11a65.53 65.53 0 0 1 11 5.06 29.74 29.74 0 0 0 4.25 2.41 21.91 21.91 0 0 0 4.38 1.08l17.73 3.06c3.63.62 8 1 10.31-2 1.25-1.62 1.43-3.82 1.37-5.88-.1-4-.9-8.07-.38-12.07a37.14 37.14 0 0 1 1.86-6.93q2.65-7.87 5.32-15.73c1.78-5.26 3.58-10.57 4.27-16.09.25-2 .23-4.28-1.3-5.53a3.54 3.54 0 0 0-1.32-.68c-.06-4.82-.69-9.65-.42-14.47.07-1.2.19-2.4.29-3.61a17.61 17.61 0 0 1 2.47 2.92c1.71 2.68 2.34 6.22 4.95 8 2.22 1.52 5.51 1.44 7.07 3.64a10.26 10.26 0 0 1 1.12 2.71 19.32 19.32 0 0 0 4 6.35 32 32 0 0 0 2.47 6.34q2.21 4.67 4.4 9.31a108.59 108.59 0 0 0 5 9.77 27.55 27.55 0 0 1 3.35 6.46c1.41 4.94-.89 10.36-4.53 14s-8.44 5.73-13.17 7.68a3.71 3.71 0 0 0-1.34.8 2.59 2.59 0 0 0-.61 1.74c0 2.31 1.9 4.29 4.08 5a15.26 15.26 0 0 0 6.83.25c12.78-1.55 25.52-4.67 36.82-10.88a13 13 0 0 0 4.39-3.39 5.13 5.13 0 0 0 .73-5.21z"/><use xlink:href="#B" fill="#2f2e41"/><use xlink:href="#B" fill="#009dff"/><path fill="#d0d2d5" d="M402.141 339.02c-7.91 7.9-8.86 11.38-13.61 12.95s-21.84 10.42-16.47 20.23l14.44 9.54.42.28 2.21 6.64-21.84 38.88s-36-16.46-39.53 7.89-1.29 31-2.24 44 .31 16.76-2.86 16.76-4.42-8.54-4.42-8.54-.2-.39-.55-1.12c-4.71-9.79-36.68-81.66 14.53-131.06 0 0 23.72-1.56 29.43-28.76 3.94-18.8 17.72-17.18 26.88-13.35a30.38 30.38 0 0 1 8.22 4.83 40.48 40.48 0 0 1 5.89 7c2.61 4.12 4.03 9.29-.5 13.83z"/><path opacity=".1" d="M386.921 382.02l2.21 6.64-21.84 38.88s-36-16.46-39.53 7.89-1.29 31-2.24 44 .31 16.76-2.86 16.76-4.42-8.54-4.42-8.54-.2-.39-.55-1.12c-1.59-12.16-9.65-83.29 19.57-79.51 0 0 23.71 11.08 27.5 6.66 3-3.5 16.32-23.63 21.74-31.89zm15.72-56.89l-14.44 16.41s-16.77 22.44-20.25 21.49a16.23 16.23 0 0 0-3.17-.37 6.16 6.16 0 0 1-4-10.38c5.72-6 16.26-17.39 16.95-19.92s7.4-13.62 10.76-19.05a30.38 30.38 0 0 1 8.22 4.83 40.48 40.48 0 0 1 5.93 6.99z"/><path fill="#454b69" d="M811.201 561.22c-2.45 4.9-15 23.28-20.49 31.31l-2.57 3.78s-1 6.64-17.39-1.59S369.271 424 369.271 424l-2.61-7.84 19-28.45 422.07 163.07s6.64 4.11 3.47 10.44z"/><path opacity=".1" d="M790.711 592.53l-2.57 3.78s-1 6.64-17.39-1.59S369.271 424 369.271 424l-2.61-7.84z"/><path fill="#fbbebe" d="M558.431 486.39c-3.91-.64-8.25-.33-11.29 2.21a9.29 9.29 0 0 0-3.24 6.16c-.26 2.77 1.35 6.06 4.13 6.27a13.17 13.17 0 0 0 2-.13 29.89 29.89 0 0 1 5.24.44 21.39 21.39 0 0 0 18.23-7.36c2.39-3-.76-4.3-3.58-4.9-3.86-.82-7.63-2.07-11.49-2.69z"/><use xlink:href="#C" fill="#3f3d56"/><use xlink:href="#C" opacity=".1"/><path fill="#3f3d56" d="M671.681 571.39c-1.17 2.43-2.74 4.69-3.44 7.3-1.82 6.89 2.89 14 2.33 21.06-.18 2.23-.87 4.4-.92 6.63s.77 4.71 2.75 5.74c1.33.68 3 .61 4.25 1.39 2.11 1.29 2.35 4.22 2.14 6.68s-.56 5.21 1 7.13c1.19 1.49 3.23 2.07 4.51 3.48a17.17 17.17 0 0 1 1.93 3.26c1.91 3.34 5.4 5.38 8.26 8s5.28 6.46 4 10.09c-.94 2.66-3.58 4.3-6.12 5.55a64.93 64.93 0 0 1-14.57 5.15 3.52 3.52 0 0 1-1.67.09 3.57 3.57 0 0 1-1.46-1c-2.95-2.89-6-5.92-7.36-9.81a10.07 10.07 0 0 0-1.12-2.68c-1.56-2.19-4.85-2.11-7.07-3.62-2.6-1.77-3.23-5.28-4.93-7.93s-4.19-4.23-6-6.56c-3.06-3.88-3.81-9.06-6-13.49-.93-1.88-2.12-3.64-2.86-5.6a30.58 30.58 0 0 1-1.37-7.24c-1.41-11.68-5-23.44-2.74-35 .5-2.54 1.27-5 1.59-7.62.55-4.53-.32-9.17.35-13.69a3.77 3.77 0 0 1 1.51-2.91 4 4 0 0 1 1.72-.35 117.28 117.28 0 0 1 17.78.4c3 .29 6.36.9 8.16 3.35 1.53 2.1 1.45 4.91 1.94 7.46.61 3.14 2.2 4.85 3.87 7.31s.77 4.89-.46 7.43z"/><path d="M648.611 652.65c1.58 0 3.33-.1 4.55.9 1.52 1.25 1.54 3.54 1.3 5.49-.7 5.48-2.49 10.75-4.28 16l-5.32 15.61a36.65 36.65 0 0 0-1.86 6.88c-.52 4 .28 8 .38 12 0 2-.13 4.22-1.38 5.83-2.26 2.91-6.67 2.57-10.3 2l-17.71-3a21.07 21.07 0 0 1-4.38-1.07 30.61 30.61 0 0 1-4.25-2.39 65.42 65.42 0 0 0-11-5c-1.66-.62-3.52-1.41-4.12-3.08-.71-2 .87-4.2 2.83-5s4.15-.6 6.27-.54a47 47 0 0 0 15.4-2.08 9.74 9.74 0 0 0 4.06-2.1 10 10 0 0 0 2.34-4.71 70.17 70.17 0 0 0 2.68-16c.21-4 .07-8 .23-12 .1-2.37-.13-10 1.95-11.63 1.59-1.22 8.13 2.15 10.28 2.64a50 50 0 0 0 12.33 1.25zm58.34 11.12c1.73 5.73 2 11.79 3.12 17.68s3.1 11.9 7.47 16a9.87 9.87 0 0 1 2.17 2.4 5.06 5.06 0 0 1-.75 5.23 13.13 13.13 0 0 1-4.39 3.37c-11.29 6.16-24 9.27-36.81 10.81a15.51 15.51 0 0 1-6.82-.25c-2.18-.74-4.11-2.7-4.07-5a2.55 2.55 0 0 1 .6-1.73 3.73 3.73 0 0 1 1.35-.79c4.72-1.94 9.51-4.05 13.16-7.63s5.94-9 4.53-13.86a27.42 27.42 0 0 0-3.37-6.41 108.35 108.35 0 0 1-5-9.69l-4.4-9.23c-1.29-2.7-2.59-5.48-2.81-8.46a40.6 40.6 0 0 0 16.22-2.6 25.51 25.51 0 0 0 6.67-4c1.7-1.42 3.25-4.07 5.54-2.22 1.84 1.48 3 5.65 4.08 7.76a57 57 0 0 1 3.51 8.62z"/><use xlink:href="#D" fill="#fbbebe"/><use xlink:href="#D" opacity=".1"/><circle fill="#fbbebe" r="17.62" cy="420.07" cx="629.411"/><path fill="#00aeff" d="M614.141 565.07c1.71 2.05 4.72 2.45 7.35 2 6.15-1 11.18-5.53 17.2-7.16 7.38-2 15.19.57 22.16 3.72s13.9 7 21.52 7.54c-6.89-15.36-2.95-33.84-9.54-49.33-1.61-3.79-3.86-7.44-4.22-11.54-.45-5.09 2.09-10 2.48-15.06.36-4.51-1-9-2.3-13.3q-2.41-7.92-4.82-15.84c-1.8-5.91-3.65-11.92-7.14-17-1.29-1.87-1.68-5.66-3.64-6.79-4.28-2.47-10.77.64-15.41.81s-8.87 3.47-11.58 7.2c-2.87 3.94-4.5 8.63-6 13.27a126.15 126.15 0 0 0-5.33 21.23c-.15 1.08-.28 2.16-.38 3.25-1 10.27.46 20.6.54 30.92v.07c.1 13.09-2 26.1-2.39 39.18-.04 2.39.02 5 1.5 6.83z"/><path opacity=".1" d="M615.061 519c3.45-.87 6.57-3.1 9.25-5.54a38.67 38.67 0 0 0 6.14-7 49.86 49.86 0 0 0 5.29-11.07 129.36 129.36 0 0 0 7-32.27c.26-3 .34-6.22-1.45-8.6a7.24 7.24 0 0 0-8.75-2.12c-2.36 1.15-3.89 3.48-5.31 5.71-2.81 4.42-5.64 8.9-7.45 13.82-.8 2.18-1.39 4.42-2.17 6.61a61 61 0 0 1-2.74 6.33c-.15 1.08-.28 2.16-.38 3.25-.93 10.27.49 20.56.57 30.88z"/><path fill="#009dff" d="M641.241 452.59c1.79 2.38 1.71 5.63 1.46 8.59a129.18 129.18 0 0 1-7 32.27 49.43 49.43 0 0 1-5.29 11.16 39.07 39.07 0 0 1-6.14 7c-3.4 3.1-7.54 5.87-12.15 5.91a23.16 23.16 0 0 1-7.56-1.65l-37.55-12.78c-.38-2.14 1.13-4.64 1.84-6.7l2-5.93c.57-1.64 1.23-3.41 2.72-4.3s3.85.33 5.09 1.32 2.18 2.29 3.4 3.3c2.31 1.92 5.36 2.64 8.3 3.3l8.43 1.89a35.2 35.2 0 0 0 9.38 1.25c2.35-7.18 6.82-13.5 9.35-20.62.78-2.18 1.37-4.43 2.18-6.61 1.8-4.92 4.64-9.39 7.45-13.82 1.41-2.22 2.94-4.55 5.31-5.71a7.23 7.23 0 0 1 8.78 2.13z"/><path fill="#1a1a1a" d="M635.031 424.05a8.89 8.89 0 0 0-1.06-3.3 2.77 2.77 0 0 0-3-1.32c-1.76.55-2.35 3.27-4.19 3.36-1.24.06-2.13-1.2-2.52-2.38s-.6-2.53-1.53-3.36a5.7 5.7 0 0 0-2.18-1c-4.27-1.35-8.68-3.84-10.1-8.09a4.84 4.84 0 0 1-.23-2.71c.65-2.69 4-3.5 6.55-4.47s5-2.63 7.5-3.89 5.4-2.15 8.15-1.51a42.47 42.47 0 0 1 4.11 1.53c4.14 1.44 9.21.77 12.42 3.76a12.83 12.83 0 0 1 3 5.24c2.24 6.22 3.66 13.6-.05 19.06-2.29 3.37-4.51 7.22-8.91 7.63-5.12.43-7.15-4.21-7.96-8.55z"/><path d="M627.211 418.29c-.39-1.18-.6-2.53-1.52-3.36a5.7 5.7 0 0 0-2.18-1c-4.28-1.35-8.68-3.84-10.11-8.09a4.93 4.93 0 0 1-.22-2.71 3.39 3.39 0 0 1 .53-1.19c-1.63.71-3.05 1.65-3.45 3.31a4.84 4.84 0 0 0 .23 2.71c1.42 4.25 5.83 6.74 10.1 8.09a5.7 5.7 0 0 1 2.18 1c.93.83 1.13 2.17 1.53 3.36s1.28 2.44 2.52 2.38 1.84-1.19 2.63-2.14c-1.09-.14-1.88-1.26-2.24-2.36zm18.72 12.16c-5.14.47-7.17-4.21-8-8.52a8.7 8.7 0 0 0-1-3.3 2.78 2.78 0 0 0-3-1.32 5.32 5.32 0 0 0-2.21 2 3 3 0 0 1 2.26 1.4 8.89 8.89 0 0 1 1.06 3.3c.81 4.31 2.84 9 8 8.52a8.25 8.25 0 0 0 5.28-2.74 7.46 7.46 0 0 1-2.39.66z" opacity=".1"/><path d="M747.889 261.771c-4.346-5.594-10.643-9.125-17.652-9.125s-13.306 3.53-17.652 9.125a19.111 18.514 0 0 0 4.182 6.101 19.056 18.461 0 0 0 31.123-6.101zm-37.599 3.274a4.565 4.422 0 0 1-.876-.482 3.514 3.405 0 0 1-.966-1.21 3.574 3.463 0 1 0-5.834.839 3.982 3.858 0 0 0 .846.661 2.459 2.382 0 0 1 .951.965 7.188 6.964 0 0 0 1.653 2.103 14.436 13.986 0 0 0 2.265 1.543 33.009 31.979 0 0 0-1.862 9.433 13.466 13.045 0 0 0-3.793.593 6.118 5.927 0 0 0-1.757.849 4.221 4.09 0 0 0-.433-.029 3.579 3.468 0 1 0 3.35 4.688 2.285 2.214 0 0 1 1.847-1.447 8.338 8.078 0 0 1 .921-.058 32.059 31.058 0 0 0 4.256 12.862c-2.111 1.587-3.41 3.318-3.958 5.237a1.493 1.447 0 0 0-.284.198 3.39 3.284 0 0 0-.418.376 3.574 3.463 0 1 0 5.999 1.133 2.345 2.271 0 0 1 .582-2.45l.846-.704c4.037 4.567 8.841 7.494 14.84 7.842v-30.986c-7.93-.42-14.84-5.421-18.175-11.955zm49.696 15.298a3.948 3.824 0 0 0-.433.029 6.75 6.54 0 0 0-1.757-.849 13.371 12.954 0 0 0-3.793-.593 33.731 32.678 0 0 0-1.862-9.428 14.436 13.986 0 0 0 2.265-1.543 7.756 7.514 0 0 0 1.712-2.204 2.101 2.035 0 0 1 .881-.844 3.574 3.463 0 1 0-4.978-1.529 3.395 3.289 0 0 1-.966 1.21 9.384 9.091 0 0 1-.876.622c-3.335 6.53-10.24 11.391-18.16 11.811v31.015c5.974-.347 10.807-3.289 14.84-7.842.314.241.577.458.801.661a2.419 2.344 0 0 1 .627 2.522 3.574 3.463 0 1 0 6.013-1.124 3.39 3.284 0 0 0-.418-.376c-.164-.125-.284-.198-.284-.198-.548-1.929-1.842-3.651-3.982-5.237a32.059 31.058 0 0 0 4.256-12.862 7.915 7.668 0 0 1 .881.058 2.389 2.315 0 0 1 1.917 1.447 3.574 3.463 0 0 0 6.895-1.051 3.629 3.516 0 0 0-3.579-3.694zm-202.534 76.683c-2.777-3.664-6.8-5.976-11.279-5.976s-8.502 2.312-11.279 5.976a12.211 12.126 0 0 0 2.672 3.996 12.176 12.091 0 0 0 19.886-3.996zm-24.024 2.144a2.917 2.896 0 0 1-.56-.316 2.246 2.23 0 0 1-.617-.793 2.284 2.268 0 1 0-3.728.55 2.545 2.527 0 0 0 .541.433 1.571 1.56 0 0 1 .608.632 4.593 4.561 0 0 0 1.056 1.377 9.224 9.16 0 0 0 1.447 1.011 21.091 20.944 0 0 0-1.19 6.178 8.604 8.544 0 0 0-2.424.389 3.909 3.882 0 0 0-1.123.556 2.697 2.678 0 0 0-.277-.019 2.287 2.271 0 1 0 2.141 3.07 1.46 1.45 0 0 1 1.18-.948 5.328 5.291 0 0 1 .588-.038 20.484 20.341 0 0 0 2.719 8.424c-1.349 1.039-2.179 2.173-2.529 3.43a.954.948 0 0 0-.181.13 2.166 2.151 0 0 0-.267.246 2.284 2.268 0 1 0 3.833.742 1.498 1.488 0 0 1 .372-1.605l.541-.461c2.58 2.991 5.649 4.908 9.482 5.136V367c-5.067-.275-9.482-3.55-11.613-7.83zm31.753 10.019a2.522 2.505 0 0 0-.277.019 4.313 4.283 0 0 0-1.123-.556 8.543 8.484 0 0 0-2.424-.389 21.552 21.402 0 0 0-1.19-6.175 9.224 9.16 0 0 0 1.447-1.011 4.956 4.921 0 0 0 1.094-1.443 1.342 1.333 0 0 1 .563-.553 2.284 2.268 0 1 0-3.181-1.001 2.169 2.154 0 0 1-.617.793 5.996 5.954 0 0 1-.56.407c-2.131 4.277-6.543 7.46-11.603 7.735v20.313c3.817-.227 6.905-2.154 9.482-5.136a8.45 8.45 0 0 1 .512.433 1.546 1.535 0 0 1 .401 1.652 2.284 2.268 0 1 0 3.842-.736 2.166 2.151 0 0 0-.267-.246c-.105-.082-.181-.13-.181-.13-.35-1.263-1.177-2.391-2.545-3.43a20.484 20.341 0 0 0 2.719-8.424 5.057 5.022 0 0 1 .563.038 1.527 1.516 0 0 1 1.225.948 2.284 2.268 0 0 0 4.405-.689 2.319 2.303 0 0 0-2.287-2.419z" fill="#00b0ff"/></svg>