<svg xmlns="http://www.w3.org/2000/svg" xmlns:v="https://vecta.io/nano" width="1440" height="560" preserveAspectRatio="none"><style>.B{fill:#488fdb}.C{fill:#2672c3}</style><g mask="url(#A)"><path fill="#0e2a47" d="M0 0h1440v560H0z"/><path d="M1036.09 150.15v3.73h15.74v-3.73zm9.14 1.87a6.6 6.6 0 1 0 13.2 0 6.6 6.6 0 1 0-13.2 0zm-13.84 25.51l-1.43 3.44 9.99 4.14 1.43-3.44zm2.67 5.86a6.6 6.6 0 1 0 13.2 0 6.6 6.6 0 1 0-13.2 0zm-17.49 17.63l-2.64 2.64 21.45 21.45 2.63-2.64zm13.52 22.77a6.6 6.6 0 1 0 13.2 0 6.6 6.6 0 1 0-13.2 0zm-36.21-6.73l-3.44 1.42 10.4 25.11 3.44-1.42zm2.08 25.82a6.6 6.6 0 1 0 13.2 0 6.6 6.6 0 1 0-13.2 0zm-29.17-19.69h-3.73v25.6h3.73zm-8.47 25.6a6.6 6.6 0 1 0 13.2 0 6.6 6.6 0 1 0-13.2 0zm-18.91-30.31l-3.44-1.42-5.61 13.52 3.45 1.43zm-13.92 12.81a6.6 6.6 0 1 0 13.2 0 6.6 6.6 0 1 0-13.2 0zm-9.57-27.63l-2.64-2.64-13.56 13.57 2.64 2.63zm-21.48 12.24a6.6 6.6 0 1 0 13.2 0 6.6 6.6 0 1 0-13.2 0zm5.45-34.93l-1.43-3.44-31.51 13.05 1.43 3.44zm-38.82 11.33a6.6 6.6 0 1 0 13.2 0 6.6 6.6 0 1 0-13.2 0zm32.68-38.42v-3.73h-27.28v3.73zm-33.88-1.86a6.6 6.6 0 1 0 13.2 0 6.6 6.6 0 1 0-13.2 0zm38.59-25.52l1.43-3.44-13.43-5.56-1.42 3.44zm-19.31-7.28a6.6 6.6 0 1 0 13.2 0 6.6 6.6 0 1 0-13.2 0zm34.13-16.21l2.64-2.63-18.17-18.18-2.64 2.64zm-23.45-19.49a6.6 6.6 0 1 0 13.2 0 6.6 6.6 0 1 0-13.2 0zm46.14 3.46l3.44-1.43-4.29-10.36-3.45 1.42zM926.8 75.9a6.6 6.6 0 1 0 13.2 0 6.6 6.6 0 1 0-13.2 0zm36.26 4.95h3.73V56.84h-3.73zm-4.74-24.01a6.6 6.6 0 1 0 13.2 0 6.6 6.6 0 1 0-13.2 0zm32.12 28.71l3.44 1.43 11.17-26.96-3.45-1.43zm6.29-26.24a6.6 6.6 0 1 0 13.2 0 6.6 6.6 0 1 0-13.2 0zm17.2 41.07l2.64 2.63 24.78-24.78-2.64-2.64zm19.5-23.47a6.6 6.6 0 1 0 13.2 0 6.6 6.6 0 1 0-13.2 0zm-3.47 46.15l1.43 3.44 25.29-10.47-1.42-3.45zm19.41-8.76a6.6 6.6 0 1 0 13.2 0 6.6 6.6 0 1 0-13.2 0zm-155.64 37.72a71.19 71.19 0 1 0 142.38 0 71.19 71.19 0 1 0-142.38 0z" class="B"/><g class="C"><path d="M963 223.18a70.194 70.194 0 0 1-58.82-108.29m0 0A142.387 142.387 0 0 0 963 223.18"/><path d="M1004.05 143.51a14.24 14.24 0 1 0 28.48 0 14.24 14.24 0 1 0-28.48 0zm-59.6 14.11a14.24 14.24 0 1 0 28.48 0 14.24 14.24 0 1 0-28.48 0zm47.52 47.14a7.83 7.83 0 1 0 15.66 0 7.83 7.83 0 1 0-15.66 0zm3.31-99.87a9.26 9.26 0 1 0 18.52 0 9.26 9.26 0 1 0-18.52 0zm-91.97 14.6a9.97 9.97 0 1 0 19.94 0 9.97 9.97 0 1 0-19.94 0zm99.08 58.23a6.41 6.41 0 1 0 12.82 0 6.41 6.41 0 1 0-12.82 0zm-94.52-13.15a11.39 11.39 0 1 0 22.78 0 11.39 11.39 0 1 0-22.78 0zm23.18 32.91a13.53 13.53 0 1 0 27.06 0 13.53 13.53 0 1 0-27.06 0zm33.28-109.01a7.12 7.12 0 1 0 14.24 0 7.12 7.12 0 1 0-14.24 0zm12.76 32.4a4.27 4.27 0 1 0 8.54 0 4.27 4.27 0 1 0-8.54 0z"/></g><path d="M1275.9 385.24v3.73h13.15v-3.73zm6.55 1.86a6.6 6.6 0 1 0 13.2 0 6.6 6.6 0 1 0-13.2 0zm-11.26 25.51l-1.43 3.45 18.86 7.81 1.43-3.44zm11.54 9.54a6.6 6.6 0 1 0 13.2 0 6.6 6.6 0 1 0-13.2 0zm-26.36 13.96l-2.64 2.63 22.93 22.93 2.64-2.63zm15.01 24.25a6.6 6.6 0 1 0 13.2 0 6.6 6.6 0 1 0-13.2 0zm-37.7-8.22l-3.44 1.43 4.38 10.57 3.44-1.43zm-3.94 11.28a6.6 6.6 0 1 0 13.2 0 6.6 6.6 0 1 0-13.2 0zm-23.15-5.15h-3.73v29.56h3.73zm-8.46 29.56a6.6 6.6 0 1 0 13.2 0 6.6 6.6 0 1 0-13.2 0zm-18.92-34.26l-3.44-1.43-5.45 13.16 3.44 1.42zm-13.77 12.44a6.6 6.6 0 1 0 13.2 0 6.6 6.6 0 1 0-13.2 0zm-9.72-27.27l-2.64-2.63-17.4 17.4 2.64 2.64zm-25.32 16.09a6.6 6.6 0 1 0 13.2 0 6.6 6.6 0 1 0-13.2 0zm9.29-38.77l-1.43-3.45-31.37 13 1.42 3.44zM1101 427.33a6.6 6.6 0 1 0 13.2 0 6.6 6.6 0 1 0-13.2 0zm32.56-38.36v-3.73h-18.76v3.73zm-25.36-1.87a6.6 6.6 0 1 0 13.2 0 6.6 6.6 0 1 0-13.2 0zm30.06-25.51l1.43-3.45-26.34-10.91-1.43 3.45zm-32.23-12.63a6.6 6.6 0 1 0 13.2 0 6.6 6.6 0 1 0-13.2 0zm47.05-10.87l2.64-2.63-21.81-21.81-2.63 2.64zm-27.09-23.12a6.6 6.6 0 1 0 13.2 0 6.6 6.6 0 1 0-13.2 0zm49.78 7.09l3.44-1.42-11.73-28.32-3.44 1.43zm-16.61-29.03a6.6 6.6 0 1 0 13.2 0 6.6 6.6 0 1 0-13.2 0zm43.7 22.9h3.73v-27.25h-3.73zm-4.73-27.25a6.6 6.6 0 1 0 13.2 0 6.6 6.6 0 1 0-13.2 0zm32.11 31.96l3.44 1.42 12-28.97-3.44-1.43zm7.12-28.26a6.6 6.6 0 1 0 13.2 0 6.6 6.6 0 1 0-13.2 0zm16.37 43.08l2.64 2.63 13.88-13.88-2.64-2.63zm8.6-12.56a6.6 6.6 0 1 0 13.2 0 6.6 6.6 0 1 0-13.2 0zm7.43 35.24l1.43 3.45 32.48-13.46-1.42-3.44zm26.6-11.73a6.6 6.6 0 1 0 13.2 0 6.6 6.6 0 1 0-13.2 0zm-162.82 40.69a71.19 71.19 0 1 0 142.38 0 71.19 71.19 0 1 0-142.38 0z" class="B"/><g class="C"><path d="M1275.14 376.6a70.194 70.194 0 0 1-96.39 76.79m0 0a142.387 142.387 0 0 0 96.39-76.79"/><path d="M1207.9 363.52a14.24 14.24 0 1 0 28.48 0 14.24 14.24 0 1 0-28.48 0zm-67.98 50.89a5.7 5.7 0 1 0 11.4 0 5.7 5.7 0 1 0-11.4 0zm60.94 31.73a11.39 11.39 0 1 0 22.78 0 11.39 11.39 0 1 0-22.78 0zm-9.79-52.81a8.54 8.54 0 1 0 17.08 0 8.54 8.54 0 1 0-17.08 0zm-50.25-35.45a3.56 3.56 0 1 0 7.12 0 3.56 3.56 0 1 0-7.12 0zm79.96 45.26a7.12 7.12 0 1 0 14.24 0 7.12 7.12 0 1 0-14.24 0zm-34.46-75.54a10.68 10.68 0 1 0 21.36 0 10.68 10.68 0 1 0-21.36 0zm-40.39 56.28a9.97 9.97 0 1 0 19.94 0 9.97 9.97 0 1 0-19.94 0zm14.82-35.01a7.83 7.83 0 1 0 15.66 0 7.83 7.83 0 1 0-15.66 0zm87.81 37.6a13.53 13.53 0 1 0 27.06 0 13.53 13.53 0 1 0-27.06 0z"/></g><path d="M214.12 500.92v1.86h9.31v-1.86zm6.01.93a3.3 3.3 0 1 0 6.6 0 3.3 3.3 0 1 0-6.6 0zm-8.36 12.76l-.71 1.72 8.66 3.59.71-1.73zm5 4.45a3.3 3.3 0 1 0 6.6 0 3.3 3.3 0 1 0-6.6 0zm-12.41 7.29l-1.32 1.32 7.53 7.53 1.32-1.31zm3.57 8.19a3.3 3.3 0 1 0 6.6 0 3.3 3.3 0 1 0-6.6 0zm-14.91-.17l-1.72.71 6.36 15.37 1.72-.71zm2.2 15.72a3.3 3.3 0 1 0 6.6 0 3.3 3.3 0 1 0-6.6 0zm-15.75-12.65h-1.86v12.21h1.86zm-4.23 12.21a3.3 3.3 0 1 0 6.6 0 3.3 3.3 0 1 0-6.6 0zm-9.46-14.57l-1.72-.71-4.07 9.84 1.72.71zm-8.23 9.49a3.3 3.3 0 1 0 6.6 0 3.3 3.3 0 1 0-6.6 0zm-3.51-16.9l-1.32-1.32-9.36 9.37 1.31 1.31zm-13.32 8.71a3.3 3.3 0 1 0 6.6 0 3.3 3.3 0 1 0-6.6 0zm5.3-20.05l-.71-1.72-15.02 6.22.72 1.72zm-18.67 5.36a3.3 3.3 0 1 0 6.6 0 3.3 3.3 0 1 0-6.6 0zm15.61-18.91v-1.86h-11.11v1.86zm-14.41-.93a3.3 3.3 0 1 0 6.6 0 3.3 3.3 0 1 0-6.6 0zm16.76-12.76l.71-1.72-11.7-4.85-.72 1.73zm-14.65-5.7a3.3 3.3 0 1 0 6.6 0 3.3 3.3 0 1 0-6.6 0zm22.06-6.04l1.32-1.32-7.6-7.6-1.32 1.32zm-10.24-8.26a3.3 3.3 0 1 0 6.6 0 3.3 3.3 0 1 0-6.6 0zm21.58.24l1.72-.71-5.29-12.78-1.72.72zm-7.73-13.13a3.3 3.3 0 1 0 6.6 0 3.3 3.3 0 1 0-6.6 0zm21.28 10.07h1.86v-11.3h-1.86zm-2.37-11.3a3.3 3.3 0 1 0 6.6 0 3.3 3.3 0 1 0-6.6 0zm16.06 13.65l1.72.71 6.61-15.95-1.72-.72zm4.17-15.6a3.3 3.3 0 1 0 6.6 0 3.3 3.3 0 1 0-6.6 0zm7.57 23.01l1.32 1.32 6.94-6.94-1.32-1.32zm4.3-6.28a3.3 3.3 0 1 0 6.6 0 3.3 3.3 0 1 0-6.6 0zm3.72 17.62l.71 1.72 5.56-2.29-.72-1.73zm2.61-1.44a3.3 3.3 0 1 0 6.6 0 3.3 3.3 0 1 0-6.6 0zm-70.73 15.92a35.6 35.6 0 1 0 71.2 0 35.6 35.6 0 1 0-71.2 0z" class="B"/><g class="C"><path d="M147.95 520.05A34.597 34.597 0 0 1 178 466.26m0 0a71.194 71.194 0 0 0-30.05 53.79"/><path d="M175.26 469.99a3.56 3.56 0 1 0 7.12 0 3.56 3.56 0 1 0-7.12 0zm-18.31 6.26a4.98 4.98 0 1 0 9.96 0 4.98 4.98 0 1 0-9.96 0zm11.37 56.32a4.27 4.27 0 1 0 8.54 0 4.27 4.27 0 1 0-8.54 0zm24.61-32.74a7.12 7.12 0 1 0 14.24 0 7.12 7.12 0 1 0-14.24 0zm-24.6 10.18a7.12 7.12 0 1 0 14.24 0 7.12 7.12 0 1 0-14.24 0zm28.17 6.98a2.85 2.85 0 1 0 5.7 0 2.85 2.85 0 1 0-5.7 0zm-15.37-25.29a3.2 3.2 0 1 0 6.4 0 3.2 3.2 0 1 0-6.4 0zm-34.37-5.19a1.42 1.42 0 1 0 2.84 0 1.42 1.42 0 1 0-2.84 0zm51.59-3.59a2.49 2.49 0 1 0 4.98 0 2.49 2.49 0 1 0-4.98 0zm-50.4 35.35a5.34 5.34 0 1 0 10.68 0 5.34 5.34 0 1 0-10.68 0z"/></g><path d="M300.02 168.97v3.72h12.07v-3.72zm5.47 1.86a6.6 6.6 0 1 0 13.2 0 6.6 6.6 0 1 0-13.2 0zm-10.17 25.51l-1.43 3.45 10 4.14 1.43-3.45zm2.68 5.87a6.6 6.6 0 1 0 13.2 0 6.6 6.6 0 1 0-13.2 0zm-17.5 17.63l-2.64 2.63 21.65 21.65 2.64-2.63zm13.73 22.97a6.6 6.6 0 1 0 13.2 0 6.6 6.6 0 1 0-13.2 0zm-36.42-6.94l-3.44 1.42 12.16 29.37 3.45-1.42zm3.85 30.08a6.6 6.6 0 1 0 13.2 0 6.6 6.6 0 1 0-13.2 0zM230.72 242h-3.73v18.16h3.73zm-8.47 18.16a6.6 6.6 0 1 0 13.2 0 6.6 6.6 0 1 0-13.2 0zm-18.91-22.87l-3.44-1.42-9.76 23.56 3.44 1.42zm-18.08 22.85a6.6 6.6 0 1 0 13.2 0 6.6 6.6 0 1 0-13.2 0zm-5.41-37.67l-2.64-2.63-11.83 11.83 2.64 2.63zm-19.75 10.51a6.6 6.6 0 1 0 13.2 0 6.6 6.6 0 1 0-13.2 0zm3.72-33.19l-1.43-3.45-23.43 9.71 1.43 3.44zm-30.75 7.98a6.6 6.6 0 1 0 13.2 0 6.6 6.6 0 1 0-13.2 0zm24.62-35.08v-3.72H128.8v3.72zm-35.49-1.86a6.6 6.6 0 1 0 13.2 0 6.6 6.6 0 1 0-13.2 0zm40.19-25.51l1.43-3.45-21.4-8.86-1.43 3.44zm-27.28-10.59a6.6 6.6 0 1 0 13.2 0 6.6 6.6 0 1 0-13.2 0zm42.1-12.91l2.64-2.63-12.26-12.26-2.64 2.63zm-17.54-13.58a6.6 6.6 0 1 0 13.2 0 6.6 6.6 0 1 0-13.2 0zm40.23-2.45l3.44-1.43-7.07-17.07-3.44 1.43zM187.95 88a6.6 6.6 0 1 0 13.2 0 6.6 6.6 0 1 0-13.2 0zm39.04 11.66h3.73V66.67h-3.73zm-4.74-32.99a6.6 6.6 0 1 0 13.2 0 6.6 6.6 0 1 0-13.2 0zm32.12 37.69l3.44 1.43 4.75-11.47-3.44-1.43zm-.13-10.76a6.6 6.6 0 1 0 13.2 0 6.6 6.6 0 1 0-13.2 0zm23.62 25.59l2.64 2.63 9.22-9.22-2.63-2.64zm3.95-7.91a6.6 6.6 0 1 0 13.2 0 6.6 6.6 0 1 0-13.2 0zm12.08 30.59l1.43 3.45 25.15-10.42-1.43-3.44zm19.26-8.69a6.6 6.6 0 1 0 13.2 0 6.6 6.6 0 1 0-13.2 0zm-155.49 37.65a71.19 71.19 0 1 0 142.38 0 71.19 71.19 0 1 0-142.38 0z" class="B"/><g class="C"><path d="M291.83 204.03a70.194 70.194 0 0 1-123.14 4.86m0 0a142.387 142.387 0 0 0 123.14-4.86"/><path d="M166.37 138.9a4.98 4.98 0 1 0 9.96 0 4.98 4.98 0 1 0-9.96 0zm64.4-34.52a4.27 4.27 0 1 0 8.54 0 4.27 4.27 0 1 0-8.54 0zm-25.89 49.69a14.24 14.24 0 1 0 28.48 0 14.24 14.24 0 1 0-28.48 0zm64.71-6a12.81 12.81 0 1 0 25.62 0 12.81 12.81 0 1 0-25.62 0zm-77.69 63.1a14.24 14.24 0 1 0 28.48 0 14.24 14.24 0 1 0-28.48 0zm-11.47-30.62a7.12 7.12 0 1 0 14.24 0 7.12 7.12 0 1 0-14.24 0zm69.45 18.69a14.24 14.24 0 1 0 28.48 0 14.24 14.24 0 1 0-28.48 0zm-10.47-72.08a5.7 5.7 0 1 0 11.4 0 5.7 5.7 0 1 0-11.4 0zm6.42 101.15a3.56 3.56 0 1 0 7.12 0 3.56 3.56 0 1 0-7.12 0zm2.75-61.22a4.98 4.98 0 1 0 9.96 0 4.98 4.98 0 1 0-9.96 0z"/></g><path d="M462.36 489.59v1.87h6.37v-1.87zm3.07.94a3.3 3.3 0 1 0 6.6 0 3.3 3.3 0 1 0-6.6 0zm-5.42 12.75l-.71 1.73 6.73 2.78.71-1.72zm3.08 3.65a3.3 3.3 0 1 0 6.6 0 3.3 3.3 0 1 0-6.6 0zm-10.49 8.1l-1.32 1.32 5.66 5.65 1.31-1.31zm1.7 6.32a3.3 3.3 0 1 0 6.6 0 3.3 3.3 0 1 0-6.6 0zm-13.04 1.7l-1.73.71 3.35 8.08 1.72-.71zm-.82 8.44a3.3 3.3 0 1 0 6.6 0 3.3 3.3 0 1 0-6.6 0zm-12.73-5.38h-1.87v8.01h1.87zm-4.23 8.01a3.3 3.3 0 1 0 6.6 0 3.3 3.3 0 1 0-6.6 0zm-9.46-10.36l-1.72-.71-6.11 14.73 1.73.71zm-10.26 14.38a3.3 3.3 0 1 0 6.6 0 3.3 3.3 0 1 0-6.6 0zm-1.49-21.79l-1.31-1.32-12.13 12.13 1.32 1.31zm-16.08 11.47a3.3 3.3 0 1 0 6.6 0 3.3 3.3 0 1 0-6.6 0zm8.07-22.81l-.72-1.73-12.48 5.17.72 1.73zm-16.14 4.3a3.3 3.3 0 1 0 6.6 0 3.3 3.3 0 1 0-6.6 0zm13.07-17.85v-1.87h-15.48v1.87zm-18.78-.93a3.3 3.3 0 1 0 6.6 0 3.3 3.3 0 1 0-6.6 0zm21.13-12.76l.72-1.72-9.96-4.13-.72 1.72zm-12.9-4.99a3.3 3.3 0 1 0 6.6 0 3.3 3.3 0 1 0-6.6 0zm20.32-6.76l1.31-1.31-3.46-3.47-1.32 1.32zm-6.11-4.12a3.3 3.3 0 1 0 6.6 0 3.3 3.3 0 1 0-6.6 0zm17.45-3.89l1.72-.72-5.04-12.17-1.73.71zm-7.48-12.54a3.3 3.3 0 1 0 6.6 0 3.3 3.3 0 1 0-6.6 0zm21.02 9.47h1.87v-15.92h-1.87zm-2.36-15.92a3.3 3.3 0 1 0 6.6 0 3.3 3.3 0 1 0-6.6 0zm16.05 18.27l1.73.72 2.31-5.58-1.73-.72zm-.12-5.22a3.3 3.3 0 1 0 6.6 0 3.3 3.3 0 1 0-6.6 0zm11.87 12.64l1.32 1.31 7.54-7.53-1.32-1.32zm4.9-6.88a3.3 3.3 0 1 0 6.6 0 3.3 3.3 0 1 0-6.6 0zm3.12 18.22l.71 1.72 12.89-5.34-.72-1.72zm9.94-4.48a3.3 3.3 0 1 0 6.6 0 3.3 3.3 0 1 0-6.6 0zm-78.06 18.96a35.6 35.6 0 1 0 71.2 0 35.6 35.6 0 1 0-71.2 0z" class="B"/><g class="C"><path d="M444.45 521.43a34.597 34.597 0 0 1-53.27-30.98m0 0a71.194 71.194 0 0 0 53.27 30.98"/><path d="M414.21 476.27a7.12 7.12 0 1 0 14.24 0 7.12 7.12 0 1 0-14.24 0zm24.17-14.84a2.85 2.85 0 1 0 5.7 0 2.85 2.85 0 1 0-5.7 0zm-21.57-1.81a2.49 2.49 0 1 0 4.98 0 2.49 2.49 0 1 0-4.98 0zm-2.67 47.27a7.12 7.12 0 1 0 14.24 0 7.12 7.12 0 1 0-14.24 0zm-11.52 1.23a2.14 2.14 0 1 0 4.28 0 2.14 2.14 0 1 0-4.28 0zm-8.29-5.92a1.42 1.42 0 1 0 2.84 0 1.42 1.42 0 1 0-2.84 0zm39.98 13.02a6.76 6.76 0 1 0 13.52 0 6.76 6.76 0 1 0-13.52 0zm15.24-29.68a6.05 6.05 0 1 0 12.1 0 6.05 6.05 0 1 0-12.1 0zm-.7-14.4a1.78 1.78 0 1 0 3.56 0 1.78 1.78 0 1 0-3.56 0zm-47.89-4.05a1.78 1.78 0 1 0 3.56 0 1.78 1.78 0 1 0-3.56 0z"/></g><path d="M812.64 410.52v3.73h13.32v-3.73zm6.72 1.86a6.6 6.6 0 1 0 13.2 0 6.6 6.6 0 1 0-13.2 0zm-11.43 25.52l-1.43 3.44 23.28 9.64 1.42-3.44zm15.96 11.36a6.6 6.6 0 1 0 13.2 0 6.6 6.6 0 1 0-13.2 0zm-30.78 12.13l-2.64 2.63 12.76 12.76 2.63-2.64zm4.84 14.07a6.6 6.6 0 1 0 13.2 0 6.6 6.6 0 1 0-13.2 0zm-27.53 1.96l-3.44 1.43 3.99 9.63 3.44-1.42zm-4.33 10.35a6.6 6.6 0 1 0 13.2 0 6.6 6.6 0 1 0-13.2 0zm-22.76-4.22h-3.73v11.83h3.73zm-8.46 11.83a6.6 6.6 0 1 0 13.2 0 6.6 6.6 0 1 0-13.2 0zm-18.92-16.53l-3.44-1.43-9.19 22.17 3.45 1.43zm-17.5 21.46a6.6 6.6 0 1 0 13.2 0 6.6 6.6 0 1 0-13.2 0zm-5.99-36.29l-2.64-2.63-21.68 21.68 2.64 2.63zm-29.6 20.37a6.6 6.6 0 1 0 13.2 0 6.6 6.6 0 1 0-13.2 0zm13.57-43.05L675 437.9l-23.58 9.76 1.43 3.45zm-30.89 8.04a6.6 6.6 0 1 0 13.2 0 6.6 6.6 0 1 0-13.2 0zm24.76-35.13v-3.73h-26.96v3.73zm-33.56-1.87a6.6 6.6 0 1 0 13.2 0 6.6 6.6 0 1 0-13.2 0zM675 386.87l1.43-3.45-31.9-13.21-1.43 3.44zm-37.79-14.94a6.6 6.6 0 1 0 13.2 0 6.6 6.6 0 1 0-13.2 0zm52.61-8.55l2.64-2.64-20.8-20.8-2.64 2.63zm-26.08-22.13a6.6 6.6 0 1 0 13.2 0 6.6 6.6 0 1 0-13.2 0zm48.77 6.09l3.44-1.42-13.25-32.01-3.45 1.43zm-18.14-32.71a6.6 6.6 0 1 0 13.2 0 6.6 6.6 0 1 0-13.2 0zm45.23 26.58h3.73v-30.83h-3.73zm-4.73-30.83a6.6 6.6 0 1 0 13.2 0 6.6 6.6 0 1 0-13.2 0zm32.11 35.54l3.44 1.42 11.25-27.16-3.44-1.43zm6.37-26.45a6.6 6.6 0 1 0 13.2 0 6.6 6.6 0 1 0-13.2 0zm17.12 41.27l2.64 2.64 7.76-7.77-2.63-2.63zm2.48-6.45a6.6 6.6 0 1 0 13.2 0 6.6 6.6 0 1 0-13.2 0zm13.55 29.13l1.43 3.45 25.04-10.37-1.43-3.45zm19.15-8.64a6.6 6.6 0 1 0 13.2 0 6.6 6.6 0 1 0-13.2 0zm-155.37 37.6a71.19 71.19 0 1 0 142.38 0 71.19 71.19 0 1 0-142.38 0z" class="B"/><g class="C"><path d="M812.59 409.19a70.194 70.194 0 0 1-103.79 66.45m0 0a142.387 142.387 0 0 0 103.79-66.45"/><path d="M757.94 469.53a8.54 8.54 0 1 0 17.08 0 8.54 8.54 0 1 0-17.08 0zm-74.32-21.95a14.24 14.24 0 1 0 28.48 0 14.24 14.24 0 1 0-28.48 0zm118.98-57.81a2.85 2.85 0 1 0 5.7 0 2.85 2.85 0 1 0-5.7 0zm-97.14-12.78a14.24 14.24 0 1 0 28.48 0 14.24 14.24 0 1 0-28.48 0zm51.14 20.85a14.24 14.24 0 1 0 28.48 0 14.24 14.24 0 1 0-28.48 0zm-73-1.7a6.41 6.41 0 1 0 12.82 0 6.41 6.41 0 1 0-12.82 0zm37.53 21.5a12.81 12.81 0 1 0 25.62 0 12.81 12.81 0 1 0-25.62 0zm14.37 31.83a4.98 4.98 0 1 0 9.96 0 4.98 4.98 0 1 0-9.96 0zm58.46.67a3.56 3.56 0 1 0 7.12 0 3.56 3.56 0 1 0-7.12 0zm-55.25-100.38a7.83 7.83 0 1 0 15.66 0 7.83 7.83 0 1 0-15.66 0z"/></g><path d="M1337.35 114.9v2.79h24.89v-2.79zm19.94 1.4a4.95 4.95 0 1 0 9.9 0 4.95 4.95 0 1 0-9.9 0zm-23.47 19.13l-1.07 2.58 14.66 6.07 1.07-2.58zm9.17 7.36a4.95 4.95 0 1 0 9.9 0 4.95 4.95 0 1 0-9.9 0zm-20.28 10.26l-1.98 1.98 13.88 13.88 1.98-1.98zm7.94 14.87a4.95 4.95 0 1 0 9.9 0 4.95 4.95 0 1 0-9.9 0zm-24.96-2.84l-2.58 1.07 7.41 17.89 2.59-1.07zm1.17 18.43a4.95 4.95 0 1 0 9.9 0 4.95 4.95 0 1 0-9.9 0zm-21.49-13.84h-2.79v21.01h2.79zm-6.35 21.01a4.95 4.95 0 1 0 9.9 0 4.95 4.95 0 1 0-9.9 0zm-14.18-24.53l-2.58-1.07-4.46 10.77 2.58 1.07zm-10.7 10.23a4.95 4.95 0 1 0 9.9 0 4.95 4.95 0 1 0-9.9 0zm-6.92-21.35l-1.98-1.98-15.55 15.56 1.97 1.97zm-21.49 14.57a4.95 4.95 0 1 0 9.9 0 4.95 4.95 0 1 0-9.9 0zm9.47-31.59l-1.07-2.58-19.62 8.13 1.07 2.58zm-25.1 6.84a4.95 4.95 0 1 0 9.9 0 4.95 4.95 0 1 0-9.9 0zm20.5-27.16v-2.79h-21.95v2.79zm-26.9-1.39a4.95 4.95 0 1 0 9.9 0 4.95 4.95 0 1 0-9.9 0zm30.43-19.14l1.07-2.58-22.76-9.43-1.07 2.59zm-27.17-10.72a4.95 4.95 0 1 0 9.9 0 4.95 4.95 0 1 0-9.9 0zm38.28-6.9l1.98-1.97-12.18-12.19-1.98 1.98zm-16.14-13.17a4.95 4.95 0 1 0 9.9 0 4.95 4.95 0 1 0-9.9 0zm33.16 1.15l2.58-1.07-5.44-13.13-2.58 1.07zm-9.1-13.67a4.95 4.95 0 1 0 9.9 0 4.95 4.95 0 1 0-9.9 0zm29.42 9.07h2.79v-6.95h-2.79zm-3.56-6.95a4.95 4.95 0 1 0 9.9 0 4.95 4.95 0 1 0-9.9 0zm24.09 10.48l2.58 1.07 5.35-12.91-2.58-1.07zm1.69-12.37a4.95 4.95 0 1 0 9.9 0 4.95 4.95 0 1 0-9.9 0zm15.93 23.49l1.98 1.97 10.96-10.96-1.98-1.97zm7-9.98a4.95 4.95 0 1 0 9.9 0 4.95 4.95 0 1 0-9.9 0zm5.02 26.99l1.07 2.58 20.01-8.28-1.07-2.59zm15.59-6.99a4.95 4.95 0 1 0 9.9 0 4.95 4.95 0 1 0-9.9 0zm-117.77 28.71a53.4 53.4 0 1 0 106.8 0 53.4 53.4 0 1 0-106.8 0z" class="B"/><g class="C"><path d="M1337.28 113.27a52.395 52.395 0 0 1-77.24 50.76m0 0a106.79 106.79 0 0 0 77.24-50.76"/><path d="M1263.62 87.83a10.68 10.68 0 1 0 21.36 0 10.68 10.68 0 1 0-21.36 0zm51.49 24.74a10.68 10.68 0 1 0 21.36 0 10.68 10.68 0 1 0-21.36 0zm4.07 29.01a5.34 5.34 0 1 0 10.68 0 5.34 5.34 0 1 0-10.68 0zm-43.74-26.49a6.41 6.41 0 1 0 12.82 0 6.41 6.41 0 1 0-12.82 0zm-15.56 43.81a7.48 7.48 0 1 0 14.96 0 7.48 7.48 0 1 0-14.96 0zm34.9-78.42a3.74 3.74 0 1 0 7.48 0 3.74 3.74 0 1 0-7.48 0zm-53.56 65.45a4.81 4.81 0 1 0 9.62 0 4.81 4.81 0 1 0-9.62 0zm60.9 7.62a4.81 4.81 0 1 0 9.62 0 4.81 4.81 0 1 0-9.62 0zM1236.65 128a3.2 3.2 0 1 0 6.4 0 3.2 3.2 0 1 0-6.4 0zm21.95-17.57a3.2 3.2 0 1 0 6.4 0 3.2 3.2 0 1 0-6.4 0z"/></g><path d="M574.92 95.21V98h9.63v-2.79zm4.68 1.4a4.95 4.95 0 1 0 9.9 0 4.95 4.95 0 1 0-9.9 0zm-8.21 19.13l-1.07 2.58 7.64 3.17 1.07-2.58zm2.15 4.46a4.95 4.95 0 1 0 9.9 0 4.95 4.95 0 1 0-9.9 0zm-13.27 13.16l-1.97 1.98 8.59 8.59 1.97-1.98zm2.66 9.58a4.95 4.95 0 1 0 9.9 0 4.95 4.95 0 1 0-9.9 0zm-19.67 2.44l-2.58 1.07 7.67 18.53 2.58-1.07zm1.43 19.06a4.95 4.95 0 1 0 9.9 0 4.95 4.95 0 1 0-9.9 0zm-21.75-14.46h-2.8v23.9h2.8zm-6.35 23.9a4.95 4.95 0 1 0 9.9 0 4.95 4.95 0 1 0-9.9 0zm-14.18-27.43l-2.59-1.07-9.27 22.38 2.59 1.07zM486.9 168.3a4.95 4.95 0 1 0 9.9 0 4.95 4.95 0 1 0-9.9 0zm-2.11-32.96l-1.98-1.98-15.2 15.2 1.98 1.97zm-21.14 14.2a4.95 4.95 0 1 0 9.9 0 4.95 4.95 0 1 0-9.9 0zm9.11-31.22l-1.07-2.58-17.86 7.4 1.07 2.58zm-23.34 6.11a4.95 4.95 0 1 0 9.9 0 4.95 4.95 0 1 0-9.9 0zM468.16 98v-2.79h-19.8V98zm-24.75-1.39a4.95 4.95 0 1 0 9.9 0 4.95 4.95 0 1 0-9.9 0zm28.28-19.14l1.07-2.58-17.97-7.45-1.07 2.59zm-22.38-8.73a4.95 4.95 0 1 0 9.9 0 4.95 4.95 0 1 0-9.9 0zm33.5-8.89l1.98-1.98-14.78-14.77-1.98 1.97zm-18.74-15.77a4.95 4.95 0 1 0 9.9 0 4.95 4.95 0 1 0-9.9 0zm35.75 3.75l2.59-1.07-7.32-17.66-2.58 1.07zm-10.97-18.19a4.95 4.95 0 1 0 9.9 0 4.95 4.95 0 1 0-9.9 0zm31.29 13.59h2.8v-21.1h-2.8zm-3.55-21.1a4.95 4.95 0 1 0 9.9 0 4.95 4.95 0 1 0-9.9 0zm24.09 24.63l2.58 1.07 3.21-7.76-2.58-1.07zm-.45-7.23a4.95 4.95 0 1 0 9.9 0 4.95 4.95 0 1 0-9.9 0zm18.07 18.34l1.97 1.98 5.36-5.36-1.97-1.98zm1.39-4.37a4.95 4.95 0 1 0 9.9 0 4.95 4.95 0 1 0-9.9 0zm10.63 21.39l1.07 2.58 14.66-6.07-1.07-2.59zm10.25-4.78a4.95 4.95 0 1 0 9.9 0 4.95 4.95 0 1 0-9.9 0zm-112.43 26.5a53.4 53.4 0 1 0 106.8 0 53.4 53.4 0 1 0-106.8 0z" class="B"/><g class="C"><path d="M566.5 67.81a52.395 52.395 0 0 1-42.39 82.13m0 0a106.79 106.79 0 0 0 42.39-82.13"/><path d="M513.77 56.54a10.68 10.68 0 1 0 21.36 0 10.68 10.68 0 1 0-21.36 0zm5.06 40.16a10.68 10.68 0 1 0 21.36 0 10.68 10.68 0 1 0-21.36 0zm-34.02 34.04a9.61 9.61 0 1 0 19.22 0 9.61 9.61 0 1 0-19.22 0zm55.65-4.71a10.68 10.68 0 1 0 21.36 0 10.68 10.68 0 1 0-21.36 0zm-55.85-55.77a10.68 10.68 0 1 0 21.36 0 10.68 10.68 0 1 0-21.36 0zm70.85 21.65a9.61 9.61 0 1 0 19.22 0 9.61 9.61 0 1 0-19.22 0zm-73.65-1.02a2.14 2.14 0 1 0 4.28 0 2.14 2.14 0 1 0-4.28 0zm69.05-23.99a5.87 5.87 0 1 0 11.74 0 5.87 5.87 0 1 0-11.74 0zm-37.8 72.59a3.2 3.2 0 1 0 6.4 0 3.2 3.2 0 1 0-6.4 0zm-33.86-28.31a2.67 2.67 0 1 0 5.34 0 2.67 2.67 0 1 0-5.34 0z"/></g></g><defs><mask id="A"><path fill="#fff" d="M0 0h1440v560H0z"/></mask></defs></svg>