<svg xmlns="http://www.w3.org/2000/svg" xmlns:xlink="http://www.w3.org/1999/xlink" width="762" height="689.787" xmlns:v="https://vecta.io/nano"><path d="M646.696 575.361H101.33a35.351 29.061 0 0 1-35.311-29.028V194.206a25.899 21.291 0 0 1 25.869-21.267h563.803a26.346 21.659 0 0 1 26.316 21.634v351.759a35.351 29.061 0 0 1-35.311 29.028z" fill="#ccc"/><path d="M117.233 558.695h514.499a36.941 30.101 0 0 0 36.942-30.101V239.724a36.941 30.101 0 0 0-36.942-30.101H117.233a36.941 30.101 0 0 0-36.942 30.101v288.871a36.941 30.101 0 0 0 36.942 30.101z" fill="#fff"/><path d="M681.649 194.235H66.272v-15.782a35.433 31.138 0 0 1 35.404-31.093h544.57a35.433 31.138 0 0 1 35.404 31.093z" fill="#06f"/><g fill="#fff"><ellipse cx="95.792" cy="170.851" rx="5.036" ry="5.508"/><ellipse cx="114.907" cy="170.851" rx="5.036" ry="5.508"/><ellipse cx="134.023" cy="170.851" rx="5.036" ry="5.508"/></g><path d="M334.738 526.585H279.31a12.26 12.371 0 0 1-12.246-12.357v-55.931a12.26 12.371 0 0 1 12.246-12.357h55.428a12.26 12.371 0 0 1 12.246 12.357v55.931a12.26 12.371 0 0 1-12.246 12.357zm-55.428-78.043a9.678 9.766 0 0 0-9.668 9.755v55.931a9.678 9.766 0 0 0 9.668 9.755h55.428a9.678 9.766 0 0 0 9.668-9.755v-55.931a9.678 9.766 0 0 0-9.668-9.755z" fill="#333"/><path d="M323.781 510.976h-33.515a3.871 3.906 0 0 1-3.867-3.902v-41.623a3.871 3.906 0 0 1 3.867-3.902h24.284a3.876 3.912 0 0 1 2.423.861l9.23 7.484a3.847 3.882 0 0 1 1.445 3.042v34.139a3.871 3.906 0 0 1-3.867 3.902zm-33.515-46.826a1.291 1.302 0 0 0-1.289 1.301v41.623a1.291 1.302 0 0 0 1.289 1.301h33.515a1.291 1.302 0 0 0 1.289-1.301v-34.139a1.282 1.294 0 0 0-.482-1.014l-9.231-7.485a1.292 1.303 0 0 0-.807-.286z" fill="#b3b3b3"/><g fill="#ccc"><use xlink:href="#B"/><use xlink:href="#B" y="7.804"/><use xlink:href="#B" y="15.609"/></g><use xlink:href="#C" fill="#999"/><g fill="#80b3ff"><use xlink:href="#D"/><path d="M438.505 464.989a3.872 3.907 0 0 1-2.049-.589l-19.259-12.145a1.289 1.301 0 0 1 1.367-2.206l19.259 12.145a1.296 1.308 0 0 0 1.366 0l19.257-12.145a1.289 1.301 0 0 1 1.367 2.206L440.555 464.4a3.873 3.908 0 0 1-2.051.589z"/></g><use xlink:href="#C" x="-262.962" fill="#59f"/><g fill="#999"><use xlink:href="#D" x="-262.962"/><path d="M187.869 475.865h-25.94a2.578 2.601 0 0 1-2.233-3.902l7.813-13.657a2.578 2.602 0 0 1 4.466 0l5.047 8.82 2.924-5.11a2.578 2.602 0 0 1 4.466 0l5.691 9.947a2.578 2.601 0 0 1-2.233 3.902zm0-2.601h0l-5.691-9.947-4.04 7.061a1.289 1.301 0 0 1-1.117.65h0a1.289 1.301 0 0 1-1.117-.65l-6.163-10.772-7.814 13.657z"/><ellipse ry="2.601" rx="2.578" cx="189.722" cy="455.054"/></g><path d="M695.692 384.419H282.774a22.437 22.613 0 0 1-22.412-22.588v-88.983a22.437 22.613 0 0 1 22.412-22.588h412.918a22.437 22.614 0 0 1 22.412 22.588v88.983a22.437 22.614 0 0 1-22.412 22.588z" fill="#fff"/><path d="M695.691 385.104H282.774a23.117 23.299 0 0 1-23.091-23.272v-88.983a23.117 23.299 0 0 1 23.091-23.272h412.918a23.117 23.299 0 0 1 23.091 23.272v88.983a23.117 23.299 0 0 1-23.091 23.272zm-412.918-132.79a20.397 20.558 0 0 0-20.374 20.534v88.983a20.397 20.558 0 0 0 20.374 20.534h412.918a20.397 20.558 0 0 0 20.374-20.534v-88.983a20.397 20.558 0 0 0-20.374-20.534z"/><path d="M645.435 362.516H333.03a22.437 22.613 0 0 1-22.412-22.588v-46.545a22.437 22.613 0 0 1 22.412-22.588h312.405a22.437 22.613 0 0 1 22.412 22.588v46.545a22.437 22.613 0 0 1-22.412 22.588z" fill="#e6e6e6"/><ellipse ry="27.013" rx="26.802" cx="400.258" cy="310.416" fill="#0af"/><path d="M626.021 359.79l-75.01-63.405a5.434 5.476 0 0 0-6.999.014l-46.11 39.282-55.127-46.597a5.433 5.475 0 0 0-6.998.014l-83.337 70.997a1.358 1.369 0 0 0 .879 2.414l113.35-.22-.267.227 158.749-.308a1.358 1.369 0 0 0 .87-2.418z" fill="#4d4d4d"/><path d="M598.67 526.69h-55.428a12.26 12.371 0 0 1-12.246-12.357v-55.931a12.26 12.371 0 0 1 12.246-12.357h55.428a12.26 12.371 0 0 1 12.246 12.357v55.931a12.26 12.371 0 0 1-12.246 12.357z" fill="#fff"/><use xlink:href="#C" x="132.451" y="24.811" fill="#ccc"/><path d="M589.003 503.928H552.91a3.871 3.906 0 0 1-3.867-3.902v-27.315a3.871 3.906 0 0 1 3.867-3.902h10.161a3.843 3.878 0 0 1 3.294 1.856l2.834 4.647h19.805a3.871 3.906 0 0 1 3.867 3.902v20.811a3.871 3.906 0 0 1-3.867 3.902z" fill="#06f"/><path fill-rule="evenodd" fill="#7952b3" d="M131.575 277.635c-5.257 0-9.147 4.896-8.973 10.206.167 5.101-.05 11.708-1.613 17.096-1.569 5.403-4.22 8.827-8.551 9.266v4.962c4.331.44 6.982 3.863 8.551 9.266 1.563 5.388 1.78 11.995 1.613 17.096-.174 5.309 3.716 10.206 8.974 10.206h53.869c5.257 0 9.147-4.896 8.972-10.206-.167-5.101.05-11.708 1.613-17.096 1.569-5.404 4.213-8.827 8.545-9.266v-4.962c-4.331-.44-6.976-3.863-8.545-9.266-1.563-5.387-1.78-11.995-1.613-17.096.174-5.309-3.715-10.206-8.972-10.206h-53.871zm43.329 48.074c0 7.311-5.125 11.745-13.631 11.745h-14.479a1.562 1.662 0 0 1-1.562-1.662v-38.218a1.562 1.662 0 0 1 1.562-1.662h14.396c7.092 0 11.747 4.088 11.747 10.364 0 4.405-3.131 8.348-7.12 9.039v.23c5.43.634 9.087 4.636 9.087 10.163zm-15.21-24.528h-8.256v12.408h6.953c5.375 0 8.339-2.303 8.339-6.42 0-3.858-2.549-5.988-7.037-5.988zm-8.256 17.331v13.674h8.559c5.597 0 8.561-2.389 8.561-6.88s-3.048-6.794-8.921-6.794h-8.2z"/><defs ><path id="B" d="M317.336 479.759h-20.624a1.289 1.301 0 0 1 0-2.601h20.624a1.289 1.301 0 0 1 0 2.601z"/><path id="C" d="M466.219 501.879h-55.428a12.26 12.371 0 0 1-12.246-12.357v-55.931a12.26 12.371 0 0 1 12.246-12.357h55.428a12.26 12.371 0 0 1 12.246 12.357v55.931a12.26 12.371 0 0 1-12.246 12.357zm-55.428-78.043a9.678 9.766 0 0 0-9.668 9.755v55.931a9.678 9.766 0 0 0 9.668 9.755h55.428a9.678 9.766 0 0 0 9.668-9.755v-55.931a9.678 9.766 0 0 0-9.668-9.755z"/><path id="D" d="M456.551 475.865h-36.093a3.871 3.906 0 0 1-3.867-3.902v-20.811a3.871 3.906 0 0 1 3.867-3.902h36.093a3.871 3.906 0 0 1 3.867 3.902v20.811a3.871 3.906 0 0 1-3.867 3.902zm-36.093-26.014a1.29 1.302 0 0 0-1.289 1.301v20.811a1.29 1.302 0 0 0 1.289 1.301h36.093a1.29 1.302 0 0 0 1.289-1.301v-20.811a1.29 1.302 0 0 0-1.289-1.301z"/></defs></svg>