<svg xmlns="http://www.w3.org/2000/svg" xmlns:svg="http://www.w3.org/2000/svg" xmlns:xlink="http://www.w3.org/1999/xlink" id="Layer_1" width="786.312" height="216.444" x="0" y="0" version="1.1" viewBox="0 0 786.312 216.444" xml:space="preserve"><metadata id="metadata188"/><defs id="defs186"><linearGradient id="linearGradient5718"><stop style="stop-color:#2a7fff;stop-opacity:1" id="stop5714" offset="0"/><stop style="stop-color:#2a7fff;stop-opacity:0" id="stop5716" offset="1"/></linearGradient><linearGradient id="linearGradient8694" x1="-506.288" x2="490.369" y1="135.105" y2="244.6" gradientUnits="userSpaceOnUse" xlink:href="#linearGradient8692"/><linearGradient id="linearGradient8692"><stop style="stop-color:#0684ff;stop-opacity:1" id="stop943" offset="0"/><stop style="stop-color:#0684ff;stop-opacity:0" id="stop945" offset="1"/></linearGradient><linearGradient id="linearGradient2174" x1="-506.288" x2="490.369" y1="135.105" y2="244.6" gradientUnits="userSpaceOnUse" xlink:href="#linearGradient8692"/><linearGradient id="linearGradient2176" x1="-506.288" x2="490.369" y1="135.105" y2="244.6" gradientUnits="userSpaceOnUse" xlink:href="#linearGradient8692"/><linearGradient id="linearGradient2178" x1="-506.288" x2="490.369" y1="135.105" y2="244.6" gradientUnits="userSpaceOnUse" xlink:href="#linearGradient8692"/><linearGradient id="linearGradient2180" x1="-506.288" x2="490.369" y1="135.105" y2="244.6" gradientUnits="userSpaceOnUse" xlink:href="#linearGradient8692"/><linearGradient id="linearGradient2182" x1="-506.288" x2="490.369" y1="135.105" y2="244.6" gradientUnits="userSpaceOnUse" xlink:href="#linearGradient8692"/><linearGradient id="linearGradient2184" x1="-506.288" x2="490.369" y1="135.105" y2="244.6" gradientUnits="userSpaceOnUse" xlink:href="#linearGradient8692"/><linearGradient id="linearGradient2186" x1="-506.288" x2="490.369" y1="135.105" y2="244.6" gradientUnits="userSpaceOnUse" xlink:href="#linearGradient8692"/><linearGradient id="linearGradient5720" x1="3980.029" x2="-538.384" y1="530.045" y2="530.045" gradientUnits="userSpaceOnUse" xlink:href="#linearGradient5718"/><linearGradient id="linearGradient6344" x1="3980.029" x2="-538.384" y1="530.045" y2="530.045" gradientUnits="userSpaceOnUse" xlink:href="#linearGradient5718"/><linearGradient id="linearGradient6346" x1="3980.029" x2="-538.384" y1="530.045" y2="530.045" gradientUnits="userSpaceOnUse" xlink:href="#linearGradient5718"/><linearGradient id="linearGradient6348" x1="3783.117" x2="2640.401" y1="514.695" y2="427.979" gradientUnits="userSpaceOnUse" xlink:href="#linearGradient5718"/></defs><g transform="matrix(0.53103161,0,0,0.50471994,525.04894,-15.23239)" style="fill:url(#linearGradient8694);fill-opacity:1;stroke:#06f;stroke-width:4.84023;stroke-miterlimit:4;stroke-dasharray:none;stroke-opacity:1" id="g263"><g style="fill:url(#linearGradient2186);fill-opacity:1;stroke:#06f;stroke-width:4.84023;stroke-miterlimit:4;stroke-dasharray:none;stroke-opacity:1" id="g261"><g style="fill:url(#linearGradient2184);fill-opacity:1;stroke:#06f;stroke-width:4.84023;stroke-miterlimit:4;stroke-dasharray:none;stroke-opacity:1" id="g259"><path style="fill:url(#linearGradient2174);fill-opacity:1;stroke:#06f;stroke-width:4.84023;stroke-miterlimit:4;stroke-opacity:1" id="polygon249" d="M0,288.9L45.4,367.7L136.7,367.7L182.1,288.9L136.7,210L45.4,210Z" class="xmCfIBCz_0"/><path style="fill:url(#linearGradient2176);fill-opacity:1;stroke:#06f;stroke-width:4.84023;stroke-miterlimit:4;stroke-opacity:1" id="polygon251" d="M199.2,279.2L290,279.2L335.8,200.3L290,121.5L199.2,121.5L153.7,200.3Z" class="xmCfIBCz_1"/><path style="fill:url(#linearGradient2178);fill-opacity:1;stroke:#06f;stroke-width:4.84023;stroke-miterlimit:4;stroke-opacity:1" id="polygon253" d="M290,456.6L335.8,377.4L290,298.6L199.2,298.6L153.7,377.4L199.2,456.6Z" class="xmCfIBCz_2"/><path style="fill:url(#linearGradient2180);fill-opacity:1;stroke:#06f;stroke-width:4.84023;stroke-miterlimit:4;stroke-opacity:1" id="polygon255" d="M45.4,32.6L0,111.8L45.4,190.6L136.7,190.6L182.1,111.8L136.7,32.6Z" class="xmCfIBCz_3"/><path style="fill:url(#linearGradient2182);fill-opacity:1;stroke:#06f;stroke-width:4.84023;stroke-miterlimit:4;stroke-opacity:1" id="polygon257" d="M443.8,190.6L489.2,111.8L443.8,32.6L352.5,32.6L307.1,111.4L352.5,190.6Z" class="xmCfIBCz_4"/></g></g></g><g id="g4505" fill="#000" stroke="none" transform="matrix(0.12870931,0,0,-0.12231395,0.98124763,171.14171)" style="fill:url(#linearGradient5720);fill-opacity:1;stroke:#0049f8;stroke-width:15.2475;stroke-miterlimit:4;stroke-dasharray:none;stroke-opacity:1"><path id="path4499" d="m 220,1073 c 0,-4 24,-62 53,-130 L 325,820 H 528 730 V 540 260 L 399,258 67,255 34,140 C 16,77 0,19 0,13 0,3 102,0 475,0 c 462,0 476,1 495,20 19,19 20,33 20,540 v 520 H 605 c -212,0 -385,-3 -385,-7 z" style="fill:url(#linearGradient6344);fill-opacity:1;stroke:#0049f8;stroke-width:15.2475;stroke-miterlimit:4;stroke-opacity:1" class="xmCfIBCz_5"/><path id="path4501" d="m 1220,539 c 0,-349 3,-539 10,-537 5,1 145,122 310,268 166,146 305,265 309,265 5,0 144,-120 311,-267 166,-148 306,-268 311,-268 5,0 9,232 9,540 v 540 h -135 -135 l -2,-249 -3,-248 -178,159 -178,158 -160,-142 c -88,-79 -169,-149 -180,-157 -19,-13 -19,-8 -19,233 v 246 h -135 -135 z" style="fill:url(#linearGradient6346);fill-opacity:1;stroke:#0049f8;stroke-width:15.2475;stroke-miterlimit:4;stroke-opacity:1" class="xmCfIBCz_6"/><path id="path4503" d="m 2720,1053 c -20,-26 -21,-35 -18,-299 3,-251 4,-274 22,-293 19,-21 24,-21 493,-21 h 473 V 350 260 H 3251 2812 L 2758,133 2703,5 3308,2 c 553,-2 607,-1 624,14 17,16 18,39 18,335 0,317 0,318 -22,333 -20,14 -83,16 -490,16 h -468 v 60 60 h 439 439 l 51,119 c 28,66 51,124 51,130 0,8 -178,11 -604,11 h -605 z" style="fill:url(#linearGradient6348);fill-opacity:1;stroke:#0049f8;stroke-width:15.2475;stroke-miterlimit:4;stroke-opacity:1" class="xmCfIBCz_7"/></g><style data-made-with="vivus-instant">@keyframes xmCfIBCz_fade{0%,94.44444444444444%{stroke-opacity:1}}@keyframes xmCfIBCz_draw_0{11.11111111111111%{stroke-dashoffset:548}38.88888888888889%{stroke-dashoffset:0}}@keyframes xmCfIBCz_draw_1{13.095238095238097%{stroke-dashoffset:548}40.87301587301588%{stroke-dashoffset:0}}@keyframes xmCfIBCz_draw_2{15.07936507936508%{stroke-dashoffset:548}42.85714285714286%{stroke-dashoffset:0}}@keyframes xmCfIBCz_draw_3{17.06349206349206%{stroke-dashoffset:549}44.841269841269835%{stroke-dashoffset:0}}@keyframes xmCfIBCz_draw_4{19.04761904761905%{stroke-dashoffset:549}46.82539682539682%{stroke-dashoffset:0}}@keyframes xmCfIBCz_draw_5{21.03174603174603%{stroke-dashoffset:4964}48.80952380952381%{stroke-dashoffset:0}}@keyframes xmCfIBCz_draw_6{23.015873015873016%{stroke-dashoffset:6260}50.79365079365079%{stroke-dashoffset:0}}@keyframes xmCfIBCz_draw_7{25%{stroke-dashoffset:8286}52.77777777777778%{stroke-dashoffset:0}}.xmCfIBCz_0{animation:xmCfIBCz_draw_0 7200ms ease-in-out 0ms infinite,xmCfIBCz_fade 7200ms linear 0ms infinite}.xmCfIBCz_0,.xmCfIBCz_1,.xmCfIBCz_2{stroke-dasharray:547 549;stroke-dashoffset:548}.xmCfIBCz_1{animation:xmCfIBCz_draw_1 7200ms ease-in-out 0ms infinite,xmCfIBCz_fade 7200ms linear 0ms infinite}.xmCfIBCz_2{animation:xmCfIBCz_draw_2 7200ms ease-in-out 0ms infinite,xmCfIBCz_fade 7200ms linear 0ms infinite}.xmCfIBCz_3,.xmCfIBCz_4{stroke-dasharray:548 550;stroke-dashoffset:549;animation:xmCfIBCz_draw_3 7200ms ease-in-out 0ms infinite,xmCfIBCz_fade 7200ms linear 0ms infinite}.xmCfIBCz_4{animation:xmCfIBCz_draw_4 7200ms ease-in-out 0ms infinite,xmCfIBCz_fade 7200ms linear 0ms infinite}.xmCfIBCz_5{stroke-dasharray:4963 4965;stroke-dashoffset:4964;animation:xmCfIBCz_draw_5 7200ms ease-in-out 0ms infinite,xmCfIBCz_fade 7200ms linear 0ms infinite}.xmCfIBCz_6{stroke-dasharray:6259 6261;stroke-dashoffset:6260;animation:xmCfIBCz_draw_6 7200ms ease-in-out 0ms infinite,xmCfIBCz_fade 7200ms linear 0ms infinite}.xmCfIBCz_7{stroke-dasharray:8285 8287;stroke-dashoffset:8286;animation:xmCfIBCz_draw_7 7200ms ease-in-out 0ms infinite,xmCfIBCz_fade 7200ms linear 0ms infinite}</style></svg>