<svg xmlns="http://www.w3.org/2000/svg" xmlns:svg="http://www.w3.org/2000/svg" id="svg157" width="601.231" height="472" version="1.1" viewBox="0 0 75.154 59"><g id="Blog-Seo-Web_Design-Browser-Web" data-name="Blog-Seo-Web Design-Browser-Web" transform="translate(-1.125,-2.875)"><path id="path90" fill="#ff6243" d="m 57,7 v 4 H 3 V 7 A 4,4 0 0 1 7,3 h 46 a 4,4 0 0 1 4,4 z" style="fill:#2a7fff"/><path id="path92" fill="#e6e7e8" d="m 57,11 v 38 a 4,4 0 0 1 -4,4 H 7 A 4,4 0 0 1 3,49 V 11 Z" style="fill:#fff"/><path id="path94" fill="#d8d7da" d="M 45,55.54 45.84,57 h -4.52 a 2.025,2.025 0 0 1 0.66,-2 2.977,2.977 0 0 1 0.29,-0.2 1.994,1.994 0 0 1 2.73,0.74 z"/><path id="path96" fill="#d8d7da" d="m 61,53 a 4,4 0 0 1 -4,4 H 47 V 47 a 2.006,2.006 0 0 1 2,-2 2.015,2.015 0 0 1 2,2 v 6 a 2.074,2.074 0 0 1 2,-2 2.015,2.015 0 0 1 2,2 v 1 a 2.006,2.006 0 0 1 2,-2 1.955,1.955 0 0 1 1.41,0.59 1.537,1.537 0 0 1 0.17,0.19 A 1.94,1.94 0 0 1 59,54 v 1 a 2.006,2.006 0 0 1 2,-2 z"/><path id="path98" fill="#ffc477" d="m 61,53 v 9 H 43.27 L 40.38,57 39.54,55.54 A 2,2 0 0 1 39.98,53 2.977,2.977 0 0 1 40.27,52.8 1.994,1.994 0 0 1 43,53.54 L 45,57 V 45 a 2.006,2.006 0 0 1 2,-2 2.015,2.015 0 0 1 2,2 v 6 a 2.074,2.074 0 0 1 2,-2 2.015,2.015 0 0 1 2,2 v 1 a 2.006,2.006 0 0 1 2,-2 1.955,1.955 0 0 1 1.41,0.59 1.537,1.537 0 0 1 0.17,0.19 A 1.94,1.94 0 0 1 57,52 v 1 a 2.006,2.006 0 0 1 2,-2 2.015,2.015 0 0 1 2,2 z"/><rect id="rect100" width="10" height="10" x="11" y="39" fill="#d8d7da" rx="1"/><rect id="rect102" width="10" height="10" x="11" y="19" fill="#d8d7da" rx="1"/><rect id="rect106" width="10" height="10" x="9" y="17" fill="#ffa733" rx="1" style="fill:#06f"/><path id="path108" fill="#c6c5ca" d="m 8,31 h 44 v 2 H 8 Z" style="fill:#b3b3b3"/><g id="g142" fill="#ffa733"><path id="path110" d="m 24,26 h 8 v 2 h -8 z" style="fill:#fff"/><path id="path112" d="m 34,26 h 4 v 2 h -4 z" style="fill:#fff"/><path id="path114" d="m 40,26 h 12 v 2 H 40 Z" style="fill:#fff"/><path id="path116" d="m 24,22 h 20 v 2 H 24 Z" style="fill:#fff"/><path id="path118" d="m 46,22 h 6 v 2 h -6 z" style="fill:#fff"/><path id="path120" d="m 24,18 h 10 v 2 H 24 Z" style="fill:#fff"/><path id="path122" d="m 36,18 h 10 v 2 H 36 Z" style="fill:#fff"/><path id="path124" d="m 48,18 h 4 v 2 h -4 z" style="fill:#fff"/><path id="path126" d="m 24,46 h 8 v 2 h -8 z" style="fill:#ccc"/><path id="path128" d="m 34,46 h 4 v 2 h -4 z" style="fill:#ccc"/><path id="path130" d="m 40,46 h 2 v 2 h -2 z" style="fill:#ccc"/><path id="path132" d="m 24,42 h 20 v 2 H 24 Z" style="fill:#ccc"/><path id="path134" d="m 50,42 h 2 v 2 h -2 z" style="fill:#ccc"/><path id="path136" d="m 24,38 h 10 v 2 H 24 Z" style="fill:#ccc"/><path id="path138" d="m 36,38 h 10 v 2 H 36 Z" style="fill:#ccc"/><path id="path140" d="m 48,38 h 4 v 2 h -4 z" style="fill:#ccc"/></g><path id="path144" fill="#ed1c24" d="M 6,6 H 8 V 8 H 6 Z" style="fill:#fff"/><path id="path146" fill="#ed1c24" d="m 10,6 h 2 v 2 h -2 z" style="fill:#fff"/><path id="path148" fill="#ed1c24" d="m 14,6 h 2 v 2 h -2 z" style="fill:#fff"/><rect id="rect150" width="2" height="5" x="56" y="51" fill="#ffb655" rx="1"/><rect id="rect152" width="2" height="5" x="52" y="50" fill="#ffb655" rx="1"/><rect id="rect154" width="2" height="5" x="48" y="50" fill="#ffb655" rx="1"/></g><polygon style="fill:#e09b2d" id="polygon660" points="131.998 512 96.246 472.668 120.624 445.844 180.742 512" transform="matrix(0.04203685,0,0,0.04725778,7.4587511,-0.0709834)"/><path style="fill:#fff;stroke-width:.0425889" id="path662" d="m 13.187952,16.945315 c 0.667671,0 1.208433,0.555065 1.208433,1.240394 0,0.684769 -0.540762,1.240393 -1.208433,1.240393 -0.667125,0 -1.208433,-0.555624 -1.208433,-1.240393 0,-0.685329 0.541308,-1.240394 1.208433,-1.240394 z"/><polygon style="fill:#f7b239" id="polygon664" points="9.902 461.6 48.036 419.644 96.246 472.668 131.998 512 9.902 512" transform="matrix(0.04203685,0,0,0.04725778,7.4587511,-0.0709834)"/><path style="fill:#ccc;stroke-width:.0988433" id="path1187" d="M 71.625185,24.760753 H 24.975912 c -0.568019,0 -1.028542,-0.497183 -1.028542,-1.110316 v -8.658635 c 0,-0.613237 0.460523,-1.110419 1.028542,-1.110419 h 46.649371 c 0.568008,0 1.028534,0.497182 1.028534,1.110419 v 8.658635 c -9.8e-5,0.613133 -0.460615,1.110316 -1.028632,1.110316 z"/><path style="fill:#2a7fff;stroke-width:.104606" id="path1189" d="m 62.778017,24.760753 h 8.46482 c 0.77917,0 1.41077,-0.608923 1.41077,-1.359883 v -8.159502 c 0,-0.751062 -0.63171,-1.359882 -1.41077,-1.359882 h -8.46482 c -0.77916,0 -1.41076,0.608922 -1.41076,1.359882 v 8.159502 c 0,0.75096 0.6317,1.359883 1.41076,1.359883 z"/><path style="fill:#fff;stroke-width:.104606" id="path1191" d="m 70.497017,21.399919 -1.88105,-1.813211 c -0.003,-0.0024 -0.006,-0.0029 -0.009,-0.0052 0.17655,-0.355042 0.28373,-0.747776 0.28373,-1.167007 0,-1.499763 -1.26576,-2.719869 -2.82164,-2.719869 -1.55588,0 -2.82164,1.220106 -2.82164,2.719869 0,1.499763 1.26576,2.719868 2.82164,2.719868 0.43502,0 0.84235,-0.103319 1.21067,-0.273497 0.003,0.0024 0.003,0.0056 0.005,0.0078 l 1.88105,1.813212 c 0.18369,0.177161 0.42427,0.265588 0.66496,0.265588 0.24068,0 0.48137,-0.08853 0.66494,-0.265588 0.36748,-0.354118 0.36748,-0.927712 0,-1.281932 z m -4.42706,-2.0788 c -0.51845,0 -0.94058,-0.406804 -0.94058,-0.906656 0,-0.499853 0.42202,-0.906658 0.94058,-0.906658 0.51855,0 0.94058,0.406805 0.94058,0.906658 0,0.499852 -0.42213,0.906656 -0.94058,0.906656 z"/><ellipse style="fill:#f2f2f2;stroke-width:.104606" id="circle1193" cx="56.194" cy="19.321" rx="2.351" ry="2.267"/><ellipse style="fill:#f9f9f9;stroke-width:.104606" id="circle1195" cx="49.611" cy="19.321" rx="2.351" ry="2.267"/><ellipse style="fill:#fff;stroke-width:.104606" id="circle1195-6" cx="43.085" cy="19.388" rx="2.351" ry="2.267"/><path id="path2484" fill="#fff" d="M 17.227364,44.197332 H 9.1312042 a 0.95300505,0.84742741 0 0 1 -0.95192,-0.846465 v -8.520458 a 0.71274958,0.63378838 0 0 1 0.71192,-0.633077 h 8.5647798 a 0.72413675,0.64391404 0 0 1 0.7233,0.643186 v 8.510349 a 0.9530007,0.84742354 0 0 1 -0.95192,0.846465 z" style="stroke-width:.0512941"/><path id="path2486" fill="#3f3d56" d="M 17.227364,44.197332 H 9.1312042 a 0.95300505,0.84742741 0 0 1 -0.95192,-0.846465 v -8.520458 a 0.71274958,0.63378838 0 0 1 0.71192,-0.633077 h 8.5647798 a 0.72413675,0.64391404 0 0 1 0.7233,0.643186 v 8.510349 a 0.9530007,0.84742354 0 0 1 -0.95192,0.846465 z M 8.8912042,34.294071 a 0.60382462,0.53693055 0 0 0 -0.60313,0.536338 v 8.520458 a 0.84408008,0.75056958 0 0 0 0.84313,0.749726 h 8.0961598 a 0.84408444,0.75057345 0 0 0 0.84313,-0.749726 v -8.510349 a 0.61521396,0.54705814 0 0 0 -0.61451,-0.546447 z" style="stroke-width:.0512941"/><ellipse id="circle2488" cx="13.15" cy="37.79" fill="#00b0ff" style="stroke-width:.0646609" rx="1.951" ry="2.023"/><path id="path2490" fill="#00b0ff" d="m 16.275104,42.64197 h -6.25 v -0.02065 a 2.172043,2.2529245 0 0 1 2.16958,-2.250375 h 1.91083 a 2.1720436,2.2529251 0 0 1 2.16959,2.250375 z" style="stroke-width:.0646609"/></svg>