<svg xmlns="http://www.w3.org/2000/svg" xmlns:svg="http://www.w3.org/2000/svg" xmlns:xlink="http://www.w3.org/1999/xlink" id="Layer_1" width="728.787" height="728.663" x="0" y="0" version="1.1" viewBox="0 0 728.787 728.663" xml:space="preserve"><metadata id="metadata188"/><defs id="defs186"><linearGradient id="linearGradient8694" x1="-506.288" x2="490.369" y1="135.105" y2="244.6" gradientUnits="userSpaceOnUse" xlink:href="#linearGradient8692"/><linearGradient id="linearGradient8692"><stop style="stop-color:#0684ff;stop-opacity:1" id="stop943" offset="0"/><stop style="stop-color:#0684ff;stop-opacity:0" id="stop945" offset="1"/></linearGradient><linearGradient id="linearGradient2174" x1="-506.288" x2="490.369" y1="135.105" y2="244.6" gradientUnits="userSpaceOnUse" xlink:href="#linearGradient8692"/><linearGradient id="linearGradient2176" x1="-506.288" x2="490.369" y1="135.105" y2="244.6" gradientUnits="userSpaceOnUse" xlink:href="#linearGradient8692"/><linearGradient id="linearGradient2178" x1="-506.288" x2="490.369" y1="135.105" y2="244.6" gradientUnits="userSpaceOnUse" xlink:href="#linearGradient8692"/><linearGradient id="linearGradient2180" x1="-506.288" x2="490.369" y1="135.105" y2="244.6" gradientUnits="userSpaceOnUse" xlink:href="#linearGradient8692"/><linearGradient id="linearGradient2182" x1="-506.288" x2="490.369" y1="135.105" y2="244.6" gradientUnits="userSpaceOnUse" xlink:href="#linearGradient8692"/><linearGradient id="linearGradient2184" x1="-506.288" x2="490.369" y1="135.105" y2="244.6" gradientUnits="userSpaceOnUse" xlink:href="#linearGradient8692"/><linearGradient id="linearGradient2186" x1="-506.288" x2="490.369" y1="135.105" y2="244.6" gradientUnits="userSpaceOnUse" xlink:href="#linearGradient8692"/></defs><ellipse style="stroke:#06f;stroke-width:11.7779;stroke-miterlimit:4;stroke-dasharray:none;stroke-opacity:1" id="circle151" cx="364.394" cy="364.331" rx="358.505" ry="358.442"/><g transform="matrix(1.1031092,0,0,1.0486466,93.461952,104.48692)" style="fill:url(#linearGradient8694);fill-opacity:1;stroke:#06f;stroke-width:6.30032;stroke-miterlimit:4;stroke-dasharray:none;stroke-opacity:1" id="g263"><g style="fill:url(#linearGradient2186);fill-opacity:1;stroke:#06f;stroke-width:6.30032;stroke-miterlimit:4;stroke-dasharray:none;stroke-opacity:1" id="g261"><g style="fill:url(#linearGradient2184);fill-opacity:1;stroke:#06f;stroke-width:6.30032;stroke-miterlimit:4;stroke-dasharray:none;stroke-opacity:1" id="g259"><polygon style="fill:url(#linearGradient2174);fill-opacity:1;stroke:#06f;stroke-width:6.30032;stroke-miterlimit:4;stroke-dasharray:none;stroke-opacity:1" id="polygon249" points="0 288.9 45.4 367.7 136.7 367.7 182.1 288.9 136.7 210 45.4 210"/><polygon style="fill:url(#linearGradient2176);fill-opacity:1;stroke:#06f;stroke-width:6.30032;stroke-miterlimit:4;stroke-dasharray:none;stroke-opacity:1" id="polygon251" points="199.2 279.2 290 279.2 335.8 200.3 290 121.5 199.2 121.5 153.7 200.3"/><polygon style="fill:url(#linearGradient2178);fill-opacity:1;stroke:#06f;stroke-width:6.30032;stroke-miterlimit:4;stroke-dasharray:none;stroke-opacity:1" id="polygon253" points="290 456.6 335.8 377.4 290 298.6 199.2 298.6 153.7 377.4 199.2 456.6"/><polygon style="fill:url(#linearGradient2180);fill-opacity:1;stroke:#06f;stroke-width:6.30032;stroke-miterlimit:4;stroke-dasharray:none;stroke-opacity:1" id="polygon255" points="45.4 32.6 0 111.8 45.4 190.6 136.7 190.6 182.1 111.8 136.7 32.6"/><polygon style="fill:url(#linearGradient2182);fill-opacity:1;stroke:#06f;stroke-width:6.30032;stroke-miterlimit:4;stroke-dasharray:none;stroke-opacity:1" id="polygon257" points="443.8 32.6 352.5 32.6 307.1 111.4 352.5 190.6 443.8 190.6 489.2 111.8" transform="matrix(1.0040867,0,0,0.99545187,-1.628588,0.50757183)"/></g></g></g></svg>