<?xml version="1.0" encoding="UTF-8" standalone="no"?>
<svg
   inkscape:version="1.1.1 (3bf5ae0d25, 2021-09-20)"
   sodipodi:docname="JunTech-Web-Solutions-JWS-Aruba.svg"
   xml:space="preserve"
   viewBox="0 0 450.6785 433.04339"
   y="0px"
   x="0px"
   id="Layer_1"
   version="1.1"
   inkscape:export-filename="C:\Users\juny1\OneDrive\Desktop\JunTechPC-Aruba-logo-icon-web.png"
   inkscape:export-xdpi="100"
   inkscape:export-ydpi="100"
   width="450.6785"
   height="433.0434"
   xmlns:inkscape="http://www.inkscape.org/namespaces/inkscape"
   xmlns:sodipodi="http://sodipodi.sourceforge.net/DTD/sodipodi-0.dtd"
   xmlns:xlink="http://www.w3.org/1999/xlink"
   xmlns="http://www.w3.org/2000/svg"
   xmlns:svg="http://www.w3.org/2000/svg"
   xmlns:rdf="http://www.w3.org/1999/02/22-rdf-syntax-ns#"
   xmlns:cc="http://creativecommons.org/ns#"
   xmlns:dc="http://purl.org/dc/elements/1.1/"><metadata
   id="metadata188"><rdf:RDF><cc:Work
       rdf:about=""><dc:format>image/svg+xml</dc:format><dc:type
         rdf:resource="http://purl.org/dc/dcmitype/StillImage" /></cc:Work></rdf:RDF></metadata><defs
   id="defs186"><linearGradient
     inkscape:collect="always"
     xlink:href="#linearGradient8692"
     id="linearGradient8694"
     x1="-506.28784"
     y1="135.10474"
     x2="490.36859"
     y2="244.60001"
     gradientUnits="userSpaceOnUse" /><linearGradient
     inkscape:collect="always"
     id="linearGradient8692"><stop
       style="stop-color:#0684ff;stop-opacity:1;"
       offset="0"
       id="stop943" /><stop
       style="stop-color:#0684ff;stop-opacity:0;"
       offset="1"
       id="stop945" /></linearGradient><linearGradient
     inkscape:collect="always"
     xlink:href="#linearGradient8692"
     id="linearGradient2174"
     gradientUnits="userSpaceOnUse"
     x1="-506.28784"
     y1="135.10474"
     x2="490.36859"
     y2="244.60001" /><linearGradient
     inkscape:collect="always"
     xlink:href="#linearGradient8692"
     id="linearGradient2176"
     gradientUnits="userSpaceOnUse"
     x1="-506.28784"
     y1="135.10474"
     x2="490.36859"
     y2="244.60001" /><linearGradient
     inkscape:collect="always"
     xlink:href="#linearGradient8692"
     id="linearGradient2178"
     gradientUnits="userSpaceOnUse"
     x1="-506.28784"
     y1="135.10474"
     x2="490.36859"
     y2="244.60001" /><linearGradient
     inkscape:collect="always"
     xlink:href="#linearGradient8692"
     id="linearGradient2180"
     gradientUnits="userSpaceOnUse"
     x1="-506.28784"
     y1="135.10474"
     x2="490.36859"
     y2="244.60001" /><linearGradient
     inkscape:collect="always"
     xlink:href="#linearGradient8692"
     id="linearGradient2182"
     gradientUnits="userSpaceOnUse"
     x1="-506.28784"
     y1="135.10474"
     x2="490.36859"
     y2="244.60001" /><linearGradient
     inkscape:collect="always"
     xlink:href="#linearGradient8692"
     id="linearGradient2184"
     gradientUnits="userSpaceOnUse"
     x1="-506.28784"
     y1="135.10474"
     x2="490.36859"
     y2="244.60001" /><linearGradient
     inkscape:collect="always"
     xlink:href="#linearGradient8692"
     id="linearGradient2186"
     gradientUnits="userSpaceOnUse"
     x1="-506.28784"
     y1="135.10474"
     x2="490.36859"
     y2="244.60001" /></defs><sodipodi:namedview
   inkscape:current-layer="Layer_1"
   inkscape:window-maximized="1"
   inkscape:window-y="-9"
   inkscape:window-x="-9"
   inkscape:cy="261.75"
   inkscape:cx="355.25"
   inkscape:zoom="2"
   showgrid="false"
   id="namedview184"
   inkscape:window-height="1003"
   inkscape:window-width="1920"
   inkscape:pageshadow="2"
   inkscape:pageopacity="0"
   guidetolerance="10"
   gridtolerance="10"
   objecttolerance="10"
   borderopacity="1"
   bordercolor="#666666"
   pagecolor="#ffffff"
   inkscape:document-rotation="0"
   inkscape:pagecheckerboard="0" />

<g
   id="g153"
   transform="translate(0.97406522,-15.792561)">
</g>
<g
   id="g155"
   transform="translate(0.97406522,-15.792561)">
</g>
<g
   id="g157"
   transform="translate(0.97406522,-15.792561)">
</g>
<g
   id="g159"
   transform="translate(0.97406522,-15.792561)">
</g>
<g
   id="g161"
   transform="translate(0.97406522,-15.792561)">
</g>
<g
   id="g163"
   transform="translate(0.97406522,-15.792561)">
</g>
<g
   id="g165"
   transform="translate(0.97406522,-15.792561)">
</g>
<g
   id="g167"
   transform="translate(0.97406522,-15.792561)">
</g>
<g
   id="g169"
   transform="translate(0.97406522,-15.792561)">
</g>
<g
   id="g171"
   transform="translate(0.97406522,-15.792561)">
</g>
<g
   id="g173"
   transform="translate(0.97406522,-15.792561)">
</g>
<g
   id="g175"
   transform="translate(0.97406522,-15.792561)">
</g>
<g
   id="g177"
   transform="translate(0.97406522,-15.792561)">
</g>
<g
   id="g179"
   transform="translate(0.97406522,-15.792561)">
</g>
<g
   id="g181"
   transform="translate(0.97406522,-15.792561)">
</g>
<g
   transform="matrix(0.69368242,0,0,0.69343915,49.562668,38.352593)"
   id="g935"
   style="fill:#0066ff"><g
     id="g933"
     style="fill:#0066ff" /></g><ellipse
   style="stroke:#0066ff;stroke-width:5.66929;stroke-miterlimit:4;stroke-dasharray:none;stroke-opacity:1"
   ry="172.52049"
   rx="172.5825"
   id="circle151"
   cy="216.44186"
   cx="227.02101" /><g
   transform="matrix(0.53103161,0,0,0.50471994,96.595736,91.377159)"
   style="fill:url(#linearGradient8694);fill-opacity:1;stroke:#0066ff;stroke-width:6.30032;stroke-miterlimit:4;stroke-dasharray:none;stroke-opacity:1"
   id="g263"><g
     style="fill:url(#linearGradient2186);fill-opacity:1;stroke:#0066ff;stroke-width:6.30032;stroke-miterlimit:4;stroke-dasharray:none;stroke-opacity:1"
     id="g261"><g
       style="fill:url(#linearGradient2184);fill-opacity:1;stroke:#0066ff;stroke-width:6.30032;stroke-miterlimit:4;stroke-dasharray:none;stroke-opacity:1"
       id="g259"><polygon
         style="fill:url(#linearGradient2174);fill-opacity:1;stroke:#0066ff;stroke-width:6.30032;stroke-miterlimit:4;stroke-dasharray:none;stroke-opacity:1"
         id="polygon249"
         points="136.7,367.7 182.1,288.9 136.7,210 45.4,210 0,288.9 45.4,367.7 " /><polygon
         style="fill:url(#linearGradient2176);fill-opacity:1;stroke:#0066ff;stroke-width:6.30032;stroke-miterlimit:4;stroke-dasharray:none;stroke-opacity:1"
         id="polygon251"
         points="335.8,200.3 290,121.5 199.2,121.5 153.7,200.3 199.2,279.2 290,279.2 " /><polygon
         style="fill:url(#linearGradient2178);fill-opacity:1;stroke:#0066ff;stroke-width:6.30032;stroke-miterlimit:4;stroke-dasharray:none;stroke-opacity:1"
         id="polygon253"
         points="290,298.6 199.2,298.6 153.7,377.4 199.2,456.6 290,456.6 335.8,377.4 " /><polygon
         style="fill:url(#linearGradient2180);fill-opacity:1;stroke:#0066ff;stroke-width:6.30032;stroke-miterlimit:4;stroke-dasharray:none;stroke-opacity:1"
         id="polygon255"
         points="45.4,190.6 136.7,190.6 182.1,111.8 136.7,32.6 45.4,32.6 0,111.8 " /><polygon
         style="fill:url(#linearGradient2182);fill-opacity:1;stroke:#0066ff;stroke-width:6.30032;stroke-miterlimit:4;stroke-dasharray:none;stroke-opacity:1"
         id="polygon257"
         points="307.1,111.4 352.5,190.6 443.8,190.6 489.2,111.8 443.8,32.6 352.5,32.6 "
         transform="matrix(1.0040867,0,0,0.99545187,-1.628588,0.50757183)" /></g></g></g><g
   transform="matrix(0.02689119,0,0,-0.03424314,274.77388,233.08604)"
   fill="#000000"
   stroke="none"
   id="g1489"
   style="mix-blend-mode:normal;fill:#1a1a1a;fill-opacity:1;stroke:#0077ff;stroke-width:41.35727584;stroke-miterlimit:4;stroke-dasharray:none;stroke-opacity:1"><path
     d="M 920,410 765,160 H 582 398 l 23,38 c 13,20 36,57 51,82 16,25 25,46 20,48 -5,1 -96,-35 -202,-82 L 98,162 60,102 C 39,69 17,33 11,21 L -1,0 h 483 l 483,1 200,321 c 110,177 202,325 203,330 2,4 -63,8 -145,8 h -148 z"
     id="path1483"
     style="fill:#1a1a1a;fill-opacity:1;stroke:#0077ff;stroke-width:41.35727584;stroke-miterlimit:4;stroke-dasharray:none;stroke-opacity:1" /><path
     d="M 1529,573 1333,488 1189,257 C 1110,131 1041,21 1037,13 1030,2 1140,0 1704,0 h 674 l 201,321 c 111,176 201,325 201,330 0,5 -62,9 -144,9 H 2492 L 2345,423 c -81,-131 -153,-244 -160,-251 -8,-9 -41,-12 -118,-10 l -107,3 146,235 c 80,129 148,241 151,248 7,16 -2,13 -224,-85 L 1860,487 1757,324 1655,160 h -113 -112 l 48,78 c 215,342 253,405 250,412 -2,5 -91,-30 -199,-77 z"
     id="path1485"
     style="fill:#1a1a1a;fill-opacity:1;stroke:#0077ff;stroke-width:41.35727584;stroke-miterlimit:4;stroke-dasharray:none;stroke-opacity:1" /><path
     d="m 2730,458 c -69,-111 -126,-205 -128,-210 -2,-4 175,-8 392,-8 h 396 l -26,-40 -27,-40 h -388 c -305,0 -389,-3 -389,-12 0,-7 21,-43 46,-81 l 46,-67 h 443 443 l 126,201 c 69,110 126,202 126,205 0,2 -178,4 -395,4 h -395 l 23,38 24,37 387,3 c 447,3 422,-6 340,108 l -45,64 h -437 -437 z"
     id="path1487"
     style="fill:#1a1a1a;fill-opacity:1;stroke:#0077ff;stroke-width:41.35727584;stroke-miterlimit:4;stroke-dasharray:none;stroke-opacity:1" /></g></svg>
