<svg xmlns="http://www.w3.org/2000/svg" xmlns:svg="http://www.w3.org/2000/svg" xmlns:xlink="http://www.w3.org/1999/xlink" xml:space="preserve" style="enable-background:new 0 0 455 455" id="Layer_1" x="0" y="0" version="1.1" viewBox="0 0 455 455"><metadata id="metadata188"/><defs id="defs186"><linearGradient id="linearGradient8694" x1="-506.288" x2="490.369" y1="135.105" y2="244.6" gradientUnits="userSpaceOnUse" xlink:href="#linearGradient8692"/><linearGradient id="linearGradient8692"><stop style="stop-color:#0684ff;stop-opacity:1" id="stop943" offset="0"/><stop style="stop-color:#0684ff;stop-opacity:0" id="stop945" offset="1"/></linearGradient><linearGradient id="linearGradient2174" x1="-506.288" x2="490.369" y1="135.105" y2="244.6" gradientUnits="userSpaceOnUse" xlink:href="#linearGradient8692"/><linearGradient id="linearGradient2176" x1="-506.288" x2="490.369" y1="135.105" y2="244.6" gradientUnits="userSpaceOnUse" xlink:href="#linearGradient8692"/><linearGradient id="linearGradient2178" x1="-506.288" x2="490.369" y1="135.105" y2="244.6" gradientUnits="userSpaceOnUse" xlink:href="#linearGradient8692"/><linearGradient id="linearGradient2180" x1="-506.288" x2="490.369" y1="135.105" y2="244.6" gradientUnits="userSpaceOnUse" xlink:href="#linearGradient8692"/><linearGradient id="linearGradient2182" x1="-506.288" x2="490.369" y1="135.105" y2="244.6" gradientUnits="userSpaceOnUse" xlink:href="#linearGradient8692"/><linearGradient id="linearGradient2184" x1="-506.288" x2="490.369" y1="135.105" y2="244.6" gradientUnits="userSpaceOnUse" xlink:href="#linearGradient8692"/><linearGradient id="linearGradient2186" x1="-506.288" x2="490.369" y1="135.105" y2="244.6" gradientUnits="userSpaceOnUse" xlink:href="#linearGradient8692"/></defs><g id="g935" transform="matrix(0.69368242,0,0,0.69343915,48.588603,54.145154)" style="fill:#06f"><g id="g933" style="fill:#06f"><path id="path931" d="M 437.02,74.98 C 388.667,26.628 324.38,0 256,0 187.62,0 123.333,26.628 74.98,74.98 26.628,123.333 0,187.62 0,256 0,324.38 26.628,388.667 74.98,437.02 123.333,485.372 187.62,512 256,512 324.38,512 388.667,485.372 437.02,437.02 485.372,388.667 512,324.38 512,256 512,187.62 485.372,123.333 437.02,74.98 Z M 256,491.602 C 126.089,491.602 20.398,385.912 20.398,256 20.398,126.088 126.089,20.398 256,20.398 385.911,20.398 491.602,126.089 491.602,256 491.602,385.911 385.911,491.602 256,491.602 Z" style="fill:#06f;fill-opacity:1"/></g></g><ellipse style="stroke-width:.758468" id="circle151" cx="225.87" cy="232.234" rx="172.583" ry="172.52"/><g transform="matrix(0.53103161,0,0,0.50471994,95.621671,105.4656)" style="fill:url(#linearGradient8694);fill-opacity:1;stroke:#06f;stroke-width:4.21968408;stroke-miterlimit:4;stroke-dasharray:none;stroke-opacity:1" id="g263"><g style="fill:url(#linearGradient2186);fill-opacity:1;stroke:#06f;stroke-width:4.21968408;stroke-miterlimit:4;stroke-dasharray:none;stroke-opacity:1" id="g261"><g style="fill:url(#linearGradient2184);fill-opacity:1;stroke:#06f;stroke-width:4.21968408;stroke-miterlimit:4;stroke-dasharray:none;stroke-opacity:1" id="g259"><polygon style="fill:url(#linearGradient2174);fill-opacity:1;stroke:#06f;stroke-width:4.21968408;stroke-miterlimit:4;stroke-dasharray:none;stroke-opacity:1" id="polygon249" points="45.4 367.7 136.7 367.7 182.1 288.9 136.7 210 45.4 210 0 288.9"/><polygon style="fill:url(#linearGradient2176);fill-opacity:1;stroke:#06f;stroke-width:4.21968408;stroke-miterlimit:4;stroke-dasharray:none;stroke-opacity:1" id="polygon251" points="290 279.2 335.8 200.3 290 121.5 199.2 121.5 153.7 200.3 199.2 279.2"/><polygon style="fill:url(#linearGradient2178);fill-opacity:1;stroke:#06f;stroke-width:4.21968408;stroke-miterlimit:4;stroke-dasharray:none;stroke-opacity:1" id="polygon253" points="335.8 377.4 290 298.6 199.2 298.6 153.7 377.4 199.2 456.6 290 456.6"/><polygon style="fill:url(#linearGradient2180);fill-opacity:1;stroke:#06f;stroke-width:4.21968408;stroke-miterlimit:4;stroke-dasharray:none;stroke-opacity:1" id="polygon255" points="0 111.8 45.4 190.6 136.7 190.6 182.1 111.8 136.7 32.6 45.4 32.6"/><polygon style="fill:url(#linearGradient2182);fill-opacity:1;stroke:#06f;stroke-width:4.21968408;stroke-miterlimit:4;stroke-dasharray:none;stroke-opacity:1" id="polygon257" points="489.2 111.8 443.8 32.6 352.5 32.6 307.1 111.4 352.5 190.6 443.8 190.6"/></g></g></g></svg>