<svg xmlns="http://www.w3.org/2000/svg" xmlns:v="https://vecta.io/nano" width="900" height="600" fill="none"><style>.B{stroke:#e6e2e2}.C{fill:#2a7fff}.D{fill:#e1e4e5}.E{stroke-linecap:round}.F{fill-rule:evenodd}.G{stroke-linejoin:round}</style><path fill="transparent" d="M0 0h900v600H0z"/><g fill="#fff" stroke-width="4" class="B"><path d="M695.814 485.589H202.062c-14.598 0-26.437-11.838-26.437-26.436V149.784c0-14.598 11.839-26.437 26.437-26.437h493.752c14.599 0 26.437 11.839 26.437 26.437v309.369c0 14.598-11.838 26.436-26.437 26.436z"/><path d="M722.251 149.784a8.34 8.34 0 0 1-8.34 8.339H183.965a8.34 8.34 0 0 1-8.34-8.339c0-14.598 11.839-26.437 26.437-26.437h493.752c14.599 0 26.437 11.839 26.437 26.437z"/></g><path fill="#59f" d="M202.115 148.089a6.107 6.107 0 1 0 0-12.213 6.107 6.107 0 0 0 0 12.213zm25.445 0a6.107 6.107 0 1 0 0-12.213 6.107 6.107 0 0 0 0 12.213zm24.428 0a6.107 6.107 0 1 0 0-12.213 6.107 6.107 0 0 0 0 12.213z" class="B"/><rect width="229.744" height="88.106" x="137" y="207.013" fill="#06f" class="B" rx="11.013"/><g fill="#fff" class="B"><rect width="140.06" height="10.345" x="203.051" y="234.07" rx="5.173"/><rect width="90.721" height="10.345" x="203.051" y="257.148" rx="5.173"/><circle cx="174.402" cy="250.782" r="16.712"/></g><rect width="206.559" height="192.859" x="486" y="307" class="B C" rx="11.013"/><g fill="#fff" class="B"><rect width="125.925" height="9.301" x="545.385" y="438.821" rx="4.651"/><rect width="81.148" height="9.485" x="545.017" y="419.764" rx="4.742" transform="rotate(270 545.017 419.764)"/><rect width="81.148" height="9.485" x="586.118" y="419.764" rx="4.742" transform="rotate(270 586.118 419.764)"/><rect width="81.148" height="9.485" x="627.219" y="419.764" rx="4.742" transform="rotate(270 627.219 419.764)"/><rect width="81.565" height="9.301" x="545.385" y="459.571" rx="4.651"/><rect width="52.694" height="8.431" x="566.094" y="419.764" rx="4.215" transform="rotate(270 566.094 419.764)"/><rect width="52.694" height="8.431" x="607.195" y="419.764" rx="4.215" transform="rotate(270 607.195 419.764)"/><rect width="52.694" height="8.431" x="648.296" y="419.764" rx="4.215" transform="rotate(270 648.296 419.764)"/><circle cx="519.628" cy="453.846" r="15.025"/><rect width="232.067" height="86.531" x="528.933" y="147.064" stroke-width="4" rx="18"/></g><rect width="143.915" height="10.63" x="594.802" y="172.866" class="B D" rx="5.315"/><rect width="93.218" height="10.63" x="594.802" y="196.58" class="B C" rx="5.315"/><path fill="#0055d4" d="M564.345 213.151c-12.513 0-22.658-10.289-22.658-22.978s10.145-22.977 22.658-22.977 22.658 10.288 22.658 22.977-10.145 22.978-22.658 22.978z" class="B F"/><path stroke-width="3.568" d="m572.323 186.344-9.571 10.212-5.747-6.126" class="B E G"/><g class="D B"><path d="M529.283 287.709c-1.706-.629-3.152-1.477-4.149-2.15a1.626 1.626 0 0 1-.316-2.415 1.63 1.63 0 0 1 2.142-.283c.826.556 2.038 1.272 3.45 1.792l.158.058c3.363 1.191 6.254.7 8.591-1.46l3.444-3.257c4.447-4.265 6.897-6.614 11.576-7.227 4.773-.625 7.908 2.927 10.674 6.062 1.985 2.249 3.861 4.373 5.782 4.281l.42-.02.253.128c.327.083 3.56.713 8.201-5.15 2.908-3.675 5.66-5.652 8.414-6.042 1.835-.261 3.398.202 4.743.887a1.622 1.622 0 0 1 .623 2.344 1.614 1.614 0 0 1-2.09.543c-1.988-1.041-4.71-1.3-9.134 4.289-5.651 7.139-10.196 6.654-11.581 6.282-3.324-.008-5.736-2.742-8.072-5.388-2.444-2.769-4.753-5.386-7.807-4.985-3.619.474-5.539 2.314-9.745 6.347a247.946 247.946 0 0 1-3.487 3.298c-3.276 3.027-7.421 3.754-11.99 2.103-.034-.014-.067-.025-.1-.037z"/><path d="M594.92 277.714c-1.706-.629-3.152-1.477-4.149-2.151a1.625 1.625 0 0 1-.316-2.414 1.63 1.63 0 0 1 2.142-.284c.826.557 2.038 1.273 3.45 1.793l.158.058c3.363 1.191 6.254.7 8.591-1.46l3.444-3.257c4.447-4.265 6.897-6.614 11.576-7.227 4.773-.625 7.908 2.927 10.674 6.062 1.985 2.249 3.861 4.373 5.782 4.281l.42-.02.253.128c.327.083 3.56.713 8.201-5.15 2.908-3.675 5.66-5.652 8.414-6.043 1.835-.26 3.398.203 4.743.888a1.622 1.622 0 0 1 .623 2.344 1.614 1.614 0 0 1-2.09.543c-1.988-1.041-4.71-1.3-9.134 4.289-5.651 7.139-10.196 6.654-11.581 6.282-3.324-.009-5.736-2.742-8.072-5.388-2.444-2.77-4.753-5.386-7.807-4.986-3.619.474-5.539 2.315-9.745 6.348a253.597 253.597 0 0 1-3.487 3.298c-3.276 3.027-7.421 3.754-11.99 2.103-.034-.014-.067-.025-.1-.037z"/></g><g stroke-width="5.5" class="G B"><path d="M227.999 332.342 216.76 343.57l-5.46-5.444m41.05-11.157h33.216m-32.957 16.479h54.93m-79.54 27.346-11.239 11.228-5.46-5.444m41.05-11.157h33.216M252.609 381.9h54.93m0 38.451H252.35m55.189-16.479h-54.93" class="E"/><path fill="#06f" d="M219.649 425.845a10.99 10.99 0 0 0 10.987-10.986 10.99 10.99 0 0 0-10.987-10.986 10.99 10.99 0 0 0-10.986 10.986 10.99 10.99 0 0 0 10.986 10.986z"/><path d="m370.272 332.342-11.239 11.228-5.46-5.444m41.049-11.157h33.217m-32.958 16.479h54.931m-79.54 27.346-11.239 11.228-5.46-5.444m41.049-11.157h33.217M394.881 381.9h54.931m-.001 38.451h-55.189m55.19-16.479h-54.931" class="E"/><path d="M361.922 425.845a10.99 10.99 0 0 0 10.986-10.986 10.99 10.99 0 0 0-10.986-10.986 10.99 10.99 0 0 0-10.986 10.986 10.99 10.99 0 0 0 10.986 10.986z" class="C"/></g><g class="D B"><circle cx="660.489" cy="261.218" r="6.16" transform="rotate(10.422 660.489 261.218)"/><path d="M512.74 242.705h-2.171a.948.948 0 0 1-.947-.947v-2.171a.95.95 0 0 1 .947-.947h2.171a.95.95 0 0 1 .947.947v2.171a.944.944 0 0 1-.947.947zm-7.526 0h-2.171a.95.95 0 0 1-.947-.947v-2.171a.95.95 0 0 1 .947-.947h2.171a.95.95 0 0 1 .947.947v2.171a.95.95 0 0 1-.947.947zm-7.531 0h-2.17a.951.951 0 0 1-.948-.947v-2.171a.95.95 0 0 1 .948-.947h2.17a.95.95 0 0 1 .948.947v2.171a.946.946 0 0 1-.948.947zm-7.526 0h-2.17a.951.951 0 0 1-.948-.947v-2.171a.95.95 0 0 1 .948-.947h2.17c.525 0 .952.427.952.947v2.171a.957.957 0 0 1-.952.947zm-7.526 0h-2.171a.952.952 0 0 1-.952-.947v-2.171a.95.95 0 0 1 .952-.947h2.171a.95.95 0 0 1 .947.947v2.171a.95.95 0 0 1-.947.947zm22.307-8.207h-2.17a.951.951 0 0 1-.948-.947v-2.175a.95.95 0 0 1 .948-.948h2.17a.95.95 0 0 1 .948.948v2.17a.947.947 0 0 1-.948.952zm-7.526 0h-2.171a.95.95 0 0 1-.947-.947v-2.175a.95.95 0 0 1 .947-.948h2.171a.95.95 0 0 1 .948.948v2.17a.947.947 0 0 1-.948.952zm-7.526 0h-2.171a.952.952 0 0 1-.952-.947v-2.175c0-.521.427-.948.952-.948h2.171a.95.95 0 0 1 .947.948v2.17a.952.952 0 0 1-.947.952zm7.797 17.024h-2.17a.951.951 0 0 1-.948-.948v-2.17a.95.95 0 0 1 .948-.948h2.17a.95.95 0 0 1 .948.948v2.17a.946.946 0 0 1-.948.948zm-7.526 0h-2.17a.951.951 0 0 1-.948-.948v-2.17a.95.95 0 0 1 .948-.948h2.17c.525 0 .952.427.952.948v2.17a.957.957 0 0 1-.952.948zm-15.356-42.541h-2.171a.948.948 0 0 1-.947-.947v-2.171a.95.95 0 0 1 .947-.947h2.171a.95.95 0 0 1 .947.947v2.171a.944.944 0 0 1-.947.947zm-7.526 0h-2.171a.952.952 0 0 1-.948-.947v-2.171a.95.95 0 0 1 .948-.947h2.171a.95.95 0 0 1 .947.947v2.171a.95.95 0 0 1-.947.947zm-7.531 0h-2.171a.95.95 0 0 1-.947-.947v-2.171a.95.95 0 0 1 .947-.947h2.171a.95.95 0 0 1 .948.947v2.171a.946.946 0 0 1-.948.947zm-7.526 0h-2.171a.95.95 0 0 1-.947-.947v-2.171a.95.95 0 0 1 .947-.947h2.171c.525 0 .952.427.952.947v2.171a.958.958 0 0 1-.952.947zm-7.526 0h-2.171a.952.952 0 0 1-.952-.947v-2.171a.95.95 0 0 1 .952-.947h2.171a.95.95 0 0 1 .947.947v2.171a.95.95 0 0 1-.947.947zm22.307-8.207h-2.171a.95.95 0 0 1-.947-.947v-2.175a.95.95 0 0 1 .947-.948h2.171a.95.95 0 0 1 .947.948v2.17a.946.946 0 0 1-.947.952zm-7.526 0h-2.171a.95.95 0 0 1-.947-.947v-2.175a.95.95 0 0 1 .947-.948h2.171a.95.95 0 0 1 .947.948v2.17a.946.946 0 0 1-.947.952zm-7.526 0h-2.171a.952.952 0 0 1-.952-.947v-2.175c0-.521.427-.948.952-.948h2.171a.95.95 0 0 1 .947.948v2.17a.952.952 0 0 1-.947.952zm7.797 17.024h-2.171a.952.952 0 0 1-.947-.948v-2.171a.95.95 0 0 1 .947-.947h2.171a.95.95 0 0 1 .948.947v2.171a.947.947 0 0 1-.948.948zm-7.526 0h-2.171a.952.952 0 0 1-.947-.948v-2.171a.95.95 0 0 1 .947-.947h2.171c.525 0 .952.427.952.947v2.171a.96.96 0 0 1-.952.948z" class="F"/></g><g class="B" transform="rotate(75 413.114 256.775)"><circle cx="413.114" cy="256.775" r="24.954" fill="url(#A)"/><circle cx="413.114" cy="256.775" r="17.824" fill="#fff"/></g><path d="M419.573 280.879a24.954 24.954 0 1 1 6.018-45.715l-3.743 6.484a17.456 17.456 0 0 0-16.459-.539 17.465 17.465 0 0 0-3.792 28.799 17.475 17.475 0 0 0 16.038 3.74l1.938 7.231z" class="B C"/><defs><linearGradient id="A" x1="414.179" x2="412.64" y1="309.71" y2="177.53" gradientUnits="userSpaceOnUse"><stop stop-color="#fff"/><stop offset="1" stop-color="#eee"/></linearGradient></defs></svg>