<?xml version="1.0" encoding="UTF-8" standalone="no"?>
<svg
   xmlns:dc="http://purl.org/dc/elements/1.1/"
   xmlns:cc="http://creativecommons.org/ns#"
   xmlns:rdf="http://www.w3.org/1999/02/22-rdf-syntax-ns#"
   xmlns:svg="http://www.w3.org/2000/svg"
   xmlns="http://www.w3.org/2000/svg"
   xmlns:xlink="http://www.w3.org/1999/xlink"
   xmlns:sodipodi="http://sodipodi.sourceforge.net/DTD/sodipodi-0.dtd"
   xmlns:inkscape="http://www.inkscape.org/namespaces/inkscape"
   height="537.34711"
   width="759.76367"
   version="1.1"
   id="svg867"
   sodipodi:docname="JunTechPC-Aruba-Static-Website-Design.svg"
   inkscape:version="1.0.2-2 (e86c870879, 2021-01-15)">
  <metadata
     id="metadata871">
    <rdf:RDF>
      <cc:Work
         rdf:about="">
        <dc:format>image/svg+xml</dc:format>
        <dc:type
           rdf:resource="http://purl.org/dc/dcmitype/StillImage" />
        <dc:title></dc:title>
      </cc:Work>
    </rdf:RDF>
  </metadata>
  <sodipodi:namedview
     pagecolor="#ffffff"
     bordercolor="#666666"
     borderopacity="1"
     objecttolerance="10"
     gridtolerance="10"
     guidetolerance="10"
     inkscape:pageopacity="0"
     inkscape:pageshadow="2"
     inkscape:window-width="1920"
     inkscape:window-height="1001"
     id="namedview869"
     showgrid="false"
     inkscape:zoom="0.70710678"
     inkscape:cx="220.55074"
     inkscape:cy="117.70453"
     inkscape:window-x="-9"
     inkscape:window-y="-9"
     inkscape:window-maximized="1"
     inkscape:current-layer="svg867" />
  <style
     id="style602"><![CDATA[.B{opacity:.1}.C{fill:#fff}.D{fill:#fdc2cc}.E{fill:#263238}.F{fill:#f5f5f5}.G{fill:#407bff}.H{fill:#e6e6f0}.I{fill:#565171}.J{fill:#ebebeb}.K{opacity:.05}.L{fill:#b45181}.M{fill:#c48c96}.N{fill:#916f6f}.O{font-family:Good Times}]]></style>
  <defs
     id="defs619">
    <linearGradient
       xlink:href="#B"
       id="A"
       x1="486.63699"
       y1="476.004"
       x2="486.63699"
       y2="309.48901"
       gradientTransform="translate(-1.1631304,-67.424919)" />
    <linearGradient
       id="B"
       gradientUnits="userSpaceOnUse">
      <stop
         offset="0"
         stop-color="gray"
         stop-opacity=".25"
         id="stop605" />
      <stop
         offset=".54"
         stop-color="gray"
         stop-opacity=".12"
         id="stop607" />
      <stop
         offset="1"
         stop-color="gray"
         stop-opacity=".1"
         id="stop609" />
    </linearGradient>
    <linearGradient
       id="C"
       x1="178.8"
       y1="496.681"
       x2="178.8"
       y2="302.298"
       xlink:href="#B"
       gradientTransform="translate(-1.1631304,-67.424919)" />
    <path
       id="D"
       d="m 267.531,342.093 c 0,0 21.239,4.191 25.228,8.853 0,0 3.631,2.548 0,7.186 -3.631,4.638 -8.712,15.124 -8.712,15.124 0,0 -3.631,10.181 -5.08,10.929 -1.449,0.748 -9.803,1.348 -10.53,-1.476 0,0 4.716,-6.138 4.716,-8.986 0,-2.848 7.805,-16.32 7.805,-16.32 0,0 -17.787,-1.648 -23.416,-0.6 -5.629,1.048 2.546,-16.359 9.988,-14.711 z" />
    <path
       id="E"
       d="m 257.55,297.045 19.421,-9.281 c 0,0 0.364,8.986 2.54,10.329 0,0 -7.984,1.967 -11.073,6.138 z" />
    <path
       id="F"
       d="m 456.15,353.799 c 0,0 4.949,13.772 7.835,15.478 2.886,1.706 20.416,10.378 25.574,8.337 0,0 1.24,5.105 -0.596,6.296 l -19.385,-0.679 c 0,0 -12.581,-1.362 -14.644,-6.463 -2.063,-5.101 -4.538,-13.772 -4.538,-13.772 z" />
    <path
       id="G"
       d="m 177.965,371.117 c 0,0 -22.885,2.622 -27.655,1.835 l -12.713,-9.965 c 0,0 -12.08,7.604 6.994,12.586 l 35.597,3.409 z" />
    <path
       id="H"
       d="m 203.474,487.046 a 17.53,14.46 0 0 1 -0.399,2.843 c 0,0 -26.379,1.574 -34.643,1.048 -3.977,-0.251 -5.665,-1.476 -5.963,-2.646 -0.364,1.348 1.079,3.123 5.963,3.443 8.264,0.526 34.643,-1.048 34.643,-1.048 a 18.365,15.149 0 0 0 0.399,-3.64 z" />
    <path
       id="I"
       d="m 200.546,478.876 c -1.658,1.687 -3.995,2.336 -6.44,2.435 -5.557,0.216 -11.675,-2.435 -11.675,-2.435 4.132,-2.882 -6.356,-28.316 -6.356,-28.316 -8.58,-3.409 -7.948,-11.012 -7.948,-11.012 l 2.779,-41.266 0.704,-10.368 8.902,-4.456 7.012,4.427 6.654,4.21 a 26.749,22.064 0 0 1 0.835,4.092 c 0.775,9.635 -8.461,11.903 -8.461,11.903 0,0 3.816,9.699 0.316,18.616 -3.5,8.917 2.54,16.782 2.54,16.782 0,0 11.442,27.268 9.54,28.842 -1.902,1.574 1.598,6.546 1.598,6.546 z" />
  </defs>
  <path
     fill="#cccccc"
     d="m 689.23487,495.77608 h -619.506 a 40.156,29.944 0 0 1 -40.112,-29.911 v -362.83 a 29.419,21.938 0 0 1 29.385,-21.912999 h 640.449 a 29.928,22.317 0 0 1 29.894,22.291999 v 362.451 a 40.156,29.944 0 0 1 -40.111,29.911 z"
     id="path621" />
  <path
     d="m 84.58287,481.02408 h 588.168 a 42.231,31.391 0 0 0 42.231,-31.391 v -301.254 a 42.231,31.391 0 0 0 -42.231,-31.391 h -588.168 a 42.231,31.391 0 0 0 -42.231,31.391 v 301.254 a 42.231,31.391 0 0 0 42.231,31.391 z"
     class="C"
     id="path623" />
  <path
     fill="#0066ff"
     d="m 729.57187,102.55508 h -700 V 82.971081 a 40.306,38.637 0 0 1 40.272,-38.581 h 619.455 a 40.306,38.637 0 0 1 40.272,38.581 z"
     id="path625" />
  <g
     class="C"
     id="g633"
     transform="translate(-1.1631304,-67.424919)">
    <ellipse
       ry="6.177"
       rx="5.8860002"
       cy="141.121"
       cx="66.332001"
       id="ellipse627" />
    <ellipse
       ry="6.177"
       rx="5.8860002"
       cy="141.121"
       cx="88.675003"
       id="ellipse629" />
    <ellipse
       ry="6.177"
       rx="5.8860002"
       cy="141.121"
       cx="111.019"
       id="ellipse631" />
  </g>
  <path
     d="m 401.91887,231.09508 c 0,0 28.699,-0.851 30.332,-11.352"
     fill="none"
     stroke="#535461"
     stroke-miterlimit="10"
     stroke-width="1.083"
     id="path635" />
  <path
     d="m 268.18087,314.94608 -1.997,2.395 2.385,2.695 c 0.209,0.3 6.35,-0.148 6.35,-0.148 l 0.543,-1.795 -0.906,-2.095 z"
     class="H"
     id="path637" />
  <path
     d="m 200.10487,303.12208 2.54,1.495 0.727,-1.643 -1.819,-3.148 -2.719,-2.543 -3.995,0.595 2.54,4.048 z"
     class="D"
     id="path639" />
  <use
     xlink:href="#D"
     class="I"
     id="use641"
     x="0"
     y="0"
     width="100%"
     height="100%"
     transform="translate(-1.1631304,-67.424919)" />
  <use
     xlink:href="#D"
     class="B"
     id="use643"
     x="0"
     y="0"
     width="100%"
     height="100%"
     transform="translate(-1.1631304,-67.424919)" />
  <path
     d="m 262.00987,278.71108 c -0.042,0.871 -0.155,1.849 -0.316,2.902 -1.163,7.624 -4.949,18.961 -4.949,18.961 0,0 -3.81,6.738 -4.901,11.081 -1.091,4.343 -8.533,5.41 -8.533,5.41 0,0 -20.333,1.967 -24.507,1.2 -4.174,-0.767 -10.733,2.248 -13.977,1.795 -3.244,-0.453 -5.265,-6.738 -5.265,-6.738 a 39.354,32.462 0 0 0 16.338,-2.843 c 8.348,-3.143 20.333,-1.648 20.333,-1.648 a 6.827,5.632 0 0 0 4.174,-2.843 c 1.27,-2.248 1.27,-15.872 0.906,-16.772 -2.385,-5.902 -2.188,-9.689 -1.503,-11.898 a 7.197,5.937 0 0 1 1.503,-2.626 z"
     class="I"
     id="path645" />
  <path
     d="m 262.00987,278.71108 c -0.042,0.871 -0.155,1.849 -0.316,2.902 -1.825,0.118 -6.941,0.231 -10.733,-1.702 -3.578,-1.81 -8.783,-2.425 -11.126,-2.617 a 7.197,5.937 0 0 1 1.503,-2.626 z"
     class="B"
     id="path647" />
  <path
     d="m 264.51987,276.83708 c -0.847,1.967 -2.147,4.274 -2.147,4.274 0,0 -6.714,0.748 -11.436,-1.648 -4.722,-2.396 -12.343,-2.695 -12.343,-2.695 1.234,-0.625 2.069,-2.523 2.588,-4.186 a 32.157,26.525 0 0 0 0.68,-2.853 c 0,0 22.324,3.743 23.255,4.343 0.346,0.236 -0.024,1.426 -0.596,2.764 z"
     class="H"
     id="path649" />
  <path
     d="m 304.30287,213.72808 -27.077,13.482 -2.689,1.338 v -6.586 l 1.866,-0.738 22.819,-8.996 c 0,0 1.091,-16.319 3.995,-13.772 2.904,2.547 1.085,15.272 1.085,15.272 z"
     class="D"
     id="path651" />
  <path
     d="m 277.22587,227.21008 -2.689,1.338 v -6.586 l 1.866,-0.738 a 58.757,48.467 0 0 0 0.823,5.986 z"
     class="B"
     id="path653" />
  <use
     xlink:href="#E"
     class="L"
     id="use655"
     x="0"
     y="0"
     width="100%"
     height="100%"
     transform="translate(-1.1631304,-67.424919)" />
  <use
     xlink:href="#E"
     class="B"
     id="use657"
     x="0"
     y="0"
     width="100%"
     height="100%"
     transform="translate(-1.1631304,-67.424919)" />
  <path
     d="m 304.12987,237.53408 c 0,0 -9.236,3.32 -15.354,4.54 a 12.057,9.945 0 0 1 -4.251,0.403 c -4.174,-0.6 1.091,-4.918 1.091,-4.918 l 2.194,-0.28 11.782,-1.515 c 0,0 1.27,-14.972 3.446,-13.772 2.176,1.2 1.091,15.542 1.091,15.542 z m -39.032,-13.477 c 0,0 -7.805,4.791 -4.901,10.781 2.904,5.99 -15.068,-3.595 -15.068,-3.595 0,0 5.808,-7.186 7.078,-12.577 1.27,-5.391 12.891,5.391 12.891,5.391 z"
     class="D"
     id="path659" />
  <path
     d="m 264.51987,276.83708 a 41.143,33.937 0 0 0 -10.494,-2.017 c -5.247,-0.492 -10.053,-1.323 -12.838,-2.238 a 32.157,26.525 0 0 0 0.68,-2.853 c 0,0 22.324,3.743 23.255,4.343 0.34,0.236 -0.03,1.426 -0.602,2.764 z m 24.25,-34.764 a 12.057,9.945 0 0 1 -4.251,0.403 c -4.174,-0.6 1.091,-4.918 1.091,-4.918 l 2.194,-0.28 c 0.918,1.166 1.854,2.986 0.966,4.796 z"
     class="B"
     id="path661" />
  <path
     d="m 252.39187,226.75208 c 0,0 -7.078,-0.148 -9.618,2.248 -2.54,2.396 -1.997,8.853 -1.997,8.853 0,0 -0.531,12.931 3.446,20.166 a 1.193,0.984 0 0 1 0.042,0.743 c -0.042,0.089 -0.042,0.034 -0.042,0.034 0,0 -2.54,9.434 -5.08,11.081 -2.54,1.647 5.444,3.595 14.907,4.491 9.463,0.896 13.249,3.143 13.249,3.143 0,0 1.634,-1.476 1.789,-4.791 0.155,-3.315 -2.522,-27.401 -2.522,-27.401 0,0 9.982,2.095 15.974,-0.448 0,0 2.725,1.2 5.265,-2.095 2.54,-3.295 -1.789,-6.886 -1.789,-6.886 0,0 -3.995,3.295 -15.068,-1.048 -11.073,-4.343 -15.115,-8.238 -18.556,-8.091 z"
     class="L"
     id="path663" />
  <path
     d="m 195.93087,297.58308 h -2.176 v 2.548 l 2.176,4.043 3.089,0.448 c 0.185,0 2.54,-0.448 2.54,-0.448 l 0.727,-1.048 c 0,0 -7.99,-2.553 -6.356,-5.543 z"
     class="H"
     id="path665" />
  <path
     d="m 266.36787,316.29308 -3.268,5.991 13.798,5.41 10.894,0.3 c 0,0 0.906,-2.095 -2.725,-3.143 l -2.904,-0.448 c 0,0 -3.81,-5.691 -4.174,-8.361 0,0 -3.631,0.6 -4.174,2.843 -0.007,-0.049 -5.086,2.046 -7.447,-2.592 z m -72.071,-19.31 -1.109,0.748 -4.878,3.295 11.252,12.296 c 0,0 6.35,2.248 9.26,0 0,0 1.789,-1.476 -2.176,-2.695 0,0 -3.089,0.448 -3.089,-2.095 0,-2.543 0.727,-5.238 1.789,-5.838 0,0 -2.725,-0.748 -3.446,-0.148 a 11.52,9.502 0 0 0 -1.455,1.648 c 0,0 -6.511,-2.12 -6.148,-7.21 z"
     class="L"
     id="path667" />
  <path
     d="m 251.84887,218.96608 a 22.062,18.198 0 0 1 -0.727,2.243 9.439,7.786 0 0 0 12.086,4.284 15.014,12.385 0 0 1 1.532,-1.136 c 0,0 -11.621,-10.781 -12.891,-5.391 z m -1.002,19.999 c 0,0 5.629,6.138 13.798,6.291"
     class="B"
     id="path669" />
  <path
     d="m 284.48887,244.97508 a 2.34,2.34 0 0 1 -0.334,-0.103 q -0.262,0.113 -0.537,0.211 c 0.295,-0.005 0.587,-0.041 0.871,-0.108 z m 1.932,-8.469 a 8.05,8.05 0 0 0 -0.632,-0.6 c 0,0 -1.193,0.984 -4.138,1.171 a 11.97,11.97 0 0 0 4.77,-0.571 z m -18.24,8.814 0.036,0.32 a 43.53,43.53 0 0 0 7.263,0.492 45.39,45.39 0 0 1 -7.298,-0.812 z m -12.522,29.058 c -9.439,-0.9 -17.423,-2.843 -14.907,-4.491 2.516,-1.648 5.08,-11.081 5.08,-11.081 0,0 0,0.054 0.042,-0.034 a 0.83,0.83 0 0 0 -0.042,-0.743 c -3.977,-7.255 -3.446,-20.166 -3.446,-20.166 0,0 -0.543,-6.438 1.998,-8.853 1.89,-1.785 6.297,-2.154 8.425,-2.228 a 4.56,4.56 0 0 0 -0.596,0 c 0,0 -7.078,-0.148 -9.618,2.248 -2.54,2.396 -1.998,8.853 -1.998,8.853 0,0 -0.531,12.931 3.446,20.166 a 0.83,0.83 0 0 1 0.042,0.743 c -0.042,0.089 -0.042,0.034 -0.042,0.034 0,0 -2.522,9.404 -5.086,11.052 -2.564,1.648 5.444,3.595 14.907,4.491 9.463,0.896 13.249,3.143 13.249,3.143 a 3.9,3.9 0 0 0 0.501,-0.605 c -1.842,-0.733 -5.635,-1.938 -11.955,-2.528 z"
     class="B"
     id="path671" />
  <ellipse
     cx="260.19687"
     cy="217.91908"
     rx="9.4390001"
     ry="7.7859998"
     class="D"
     id="ellipse673" />
  <path
     d="m 273.63087,214.43608 c -0.781,1.613 -3.113,2.223 -5.158,2.641 -2.922,0.59 -6.07,1.171 -8.867,0.256 a 1.938,1.599 0 0 0 -1.193,-0.192 1.586,1.308 0 0 0 -0.787,0.566 c -3.083,3.62 -2.582,8.445 -3.381,12.822 -0.25,1.362 -0.674,2.769 -1.789,3.787 -2.17,1.967 -6.267,1.894 -8.264,3.984 -1.318,1.377 -1.33,3.29 -1.318,5.046 q 0,2.808 -0.06,5.622 c -0.036,1.23 -0.107,2.503 -0.781,3.595 -1.145,1.849 -3.697,2.73 -6.052,3.443 -1.467,0.453 -2.981,0.91 -4.556,0.787 -1.575,-0.123 -3.148,-0.984 -3.351,-2.282 -0.28,-1.761 1.92,-2.99 3.435,-4.259 2.421,-2.021 3.417,-4.963 3.506,-7.806 a 10.137,8.361 0 0 0 -0.596,-3.379 c -0.555,-1.116 -1.544,-2.056 -2.141,-3.158 -1.837,-3.394 0.429,-7.319 3.142,-10.289 2.713,-2.97 6.046,-5.868 6.625,-9.552 a 16.058,13.245 0 0 1 0.411,-2.366 c 0.417,-1.072 1.407,-4.033 2.498,-4.712 a 12.981,10.708 0 0 1 5.963,-2.046 c 1.676,-0.202 3.387,-0.128 5.05,-0.393 1.944,-0.31 3.751,-1.072 5.694,-1.358 4.204,-0.615 8.765,3.413 10.608,6.591 0.507,0.974 1.837,1.662 1.359,2.651 z"
     class="B"
     id="path675" />
  <path
     d="m 273.63087,214.13608 c -0.781,1.613 -3.113,2.223 -5.158,2.641 -2.922,0.59 -6.07,1.171 -8.867,0.256 a 1.938,1.599 0 0 0 -1.193,-0.192 1.586,1.308 0 0 0 -0.787,0.566 c -3.083,3.62 -2.582,8.445 -3.381,12.822 -0.25,1.362 -0.674,2.769 -1.789,3.787 -2.17,1.967 -6.267,1.894 -8.264,3.984 -1.318,1.377 -1.33,3.29 -1.318,5.046 q 0,2.808 -0.06,5.622 c -0.036,1.23 -0.107,2.503 -0.781,3.595 -1.145,1.849 -3.697,2.73 -6.052,3.443 -1.467,0.452 -2.981,0.91 -4.556,0.787 -1.575,-0.123 -3.148,-0.984 -3.351,-2.282 -0.28,-1.761 1.92,-2.99 3.435,-4.259 2.421,-2.021 3.417,-4.963 3.506,-7.806 a 10.137,8.361 0 0 0 -0.596,-3.379 c -0.555,-1.116 -1.544,-2.056 -2.141,-3.158 -1.837,-3.394 0.429,-7.319 3.142,-10.289 2.713,-2.97 6.046,-5.868 6.625,-9.552 a 16.058,13.245 0 0 1 0.411,-2.366 c 0.417,-1.072 1.407,-4.033 2.498,-4.712 a 12.981,10.708 0 0 1 5.963,-2.046 c 1.676,-0.202 3.387,-0.128 5.05,-0.393 1.944,-0.31 3.751,-1.072 5.694,-1.357 4.204,-0.615 8.765,3.413 10.608,6.591 0.507,0.974 1.837,1.662 1.359,2.651 z"
     fill="#f569bc"
     id="path677" />
  <path
     d="m 304.95101,147.80708 h 133.969 v 129.43 h -133.969 z"
     fill="#f7df1e"
     id="path679" />
  <path
     d="m 318.03587,231.98408 12.009,-5.996 c 2.32,3.389 4.424,6.256 9.481,6.256 4.848,0 7.901,-1.564 7.901,-7.643 v -41.359 h 14.746 v 41.527 c 0,12.596 -8.944,18.331 -22.014,18.331 -11.794,0 -18.639,-5.041 -22.116,-11.121 m 52.138,-1.303 12.003,-5.735 c 3.16,4.259 7.269,7.378 14.537,7.378 6.112,0 10.005,-2.518 10.005,-5.996 0,-4.171 -4.001,-5.646 -10.733,-8.081 l -3.685,-1.303 c -10.637,-3.733 -17.697,-8.425 -17.697,-18.331 0,-9.124 8.425,-16.074 21.591,-16.074 9.373,0 16.099,2.695 20.959,9.729 l -11.478,6.084 c -2.528,-3.738 -5.265,-5.214 -9.481,-5.214 -4.317,0 -7.06,2.258 -7.06,5.214 0,3.649 2.737,5.125 9.057,7.378 l 3.685,1.303 c 12.522,4.427 19.594,8.947 19.594,19.113 0,10.949 -10.429,16.944 -24.447,16.944 -13.714,0 -22.539,-5.41 -26.832,-12.424"
     id="path681" />
  <path
     d="m 529.88487,400.42908 c 0,0 -6.124,0.354 -9.904,-5.056 a 21.991,18.139 0 0 0 -2.606,-3.054 12.522,10.329 0 0 1 -1.831,-5.484 c 0.209,-4.009 -4.86,-25.965 -4.86,-25.965 0,0 0.632,-8.361 -4.436,-13.59 -3.339,-3.443 -8.139,-13.28 -11.031,-19.635 a 1.592,1.313 0 0 0 0.68,0.295 l -0.119,-0.546 h 0.119 l -1.497,-6.783 a 37.494,30.927 0 0 1 -5.462,-6.827 l 0.34,-0.059 4.484,-0.777 c 0,0 7.286,-8.543 7.752,-12.744 h 0.596 0.841 a 175.304,144.603 0 0 1 20.19,0.871 v 0 c 0,-0.025 -0.048,-0.133 -0.107,-0.305 v 0 a 25.342,20.904 0 0 1 -0.656,-2.572 h 0.417 l 4.174,-0.226 c 0,0 14.364,-13.241 9.081,-15.68 -5.283,-2.439 -10.775,10.978 -10.775,10.978 l -1.789,0.266 -0.483,0.074 a 2.23,2.23 0 0 1 0.149,-0.167 c 0.054,-0.054 -23.445,-0.866 -27.065,-5.578 0,0 -10.351,-6.797 -10.775,-11.312 a 6.195,5.11 0 0 0 -3.721,-4.348 8.121,6.699 0 0 0 -4.108,-0.634 l -4.848,0.275 0.34,0.492 h -0.137 a 16.308,13.452 0 0 1 -0.763,-1.771 h 0.101 c -0.036,-0.123 -0.065,-0.246 -0.095,-0.369 a 11.407,9.409 0 0 0 8.401,-11.588 4.561,3.763 0 0 0 1.425,-0.034 c 1.789,-0.3 3.047,-1.795 3.095,-3.29 v -0.29 -0.059 a 6.13,5.056 0 0 0 -2.355,-3.886 c -0.966,-0.664 -2.123,-1.136 -2.981,-1.874 -1.043,-0.88 -1.616,-2.061 -2.427,-3.099 a 11.15,9.198 0 0 0 -5.724,-3.674 c -1.747,-0.492 -3.894,-0.541 -5.235,0.492 -0.692,0.536 -1.091,1.313 -1.866,1.766 -1.115,0.659 -2.63,0.462 -3.995,0.595 a 7.62,6.286 0 0 0 -5.742,3.546 9.904,8.17 0 0 0 -0.942,3.748 12.134,10.009 0 0 0 0.382,2.631 c 0.262,0.856 0.65,1.682 0.936,2.538 0.596,1.771 0.733,3.635 1.419,5.381 a 8.211,6.773 0 0 0 2.641,3.31 l -0.203,0.718 c -0.131,0 -3.423,0.605 -5.694,4.702 -1.789,3.231 -7.877,6.566 -10.554,7.914 a 4.4,3.63 0 0 0 -1.992,2.282 14.37,11.854 0 0 0 -0.34,2.897 c -0.048,2.1 0.483,5.007 2.528,8.691 4.645,8.361 8.026,12.021 8.026,12.021 a 64.37,64.37 0 0 0 0.274,5.263 c 0,2.012 -0.179,4.013 -0.698,5.017 -0.441,0.846 -0.596,3.005 -0.56,5.474 0,4.732 0.56,10.904 0.56,10.904 0,0 1.616,0.256 4.114,0.556 l 1.556,22.586 a 13.166,10.86 0 0 1 -2.981,7.545 20.237,16.693 0 0 1 -3.751,2.951 c -4.436,2.612 -13.941,30.145 -13.941,30.145 0,0 0.465,0 1.228,0.074 l -2.922,6.724 c 0,0 11.675,7.378 18.777,5.361 a 6.881,5.676 0 0 1 2.385,-0.275 c 1.401,0 4.4,-0.915 2.731,-2.12 a 108.235,89.28 0 0 1 -9.105,-7.811 4.842,3.994 0 0 1 0.656,0.32 v -0.054 l 0.101,0.054 c 0,0 0,-0.271 0.077,-0.713 l -0.101,-0.029 c 0.215,-1.81 0.894,-6.394 2.242,-6.925 1.687,-0.698 14.156,-21.086 14.156,-21.086 l 12.462,-26.486 c 0,0 9.928,14.116 18.377,16.551 v 5.902 c 0,0 4.645,17.426 6.338,19.339 1.693,1.913 0,9.581 0,9.581 a 5.79,4.776 0 0 0 1.139,0.826 l -1.354,6.315 c 0,0 9.719,-0.349 26.194,3.831 -0.012,0.025 6.326,-2.238 1.043,-5.027 z m -38.865,-91.13 -2.057,0.423 -0.405,0.084 -0.072,-0.334 a 4.174,3.443 0 0 1 -1.497,0.3 27.518,22.699 0 0 1 -1.252,-5.878 48.012,39.604 0 0 1 -1.258,-7.279 c 0,-1.269 0.256,-2.376 0.835,-3 l 0.686,0.044 0.477,0.374 0.036,0.025 0.244,0.182 v 0 l 0.256,0.187 0.042,0.029 0.274,0.202 0.048,0.034 0.28,0.197 v 0 l 0.316,0.216 0.072,0.049 0.334,0.221 v 0 l 0.328,0.216 0.077,0.049 0.364,0.226 0.077,0.044 0.346,0.212 0.06,0.034 0.394,0.231 0.095,0.054 0.417,0.236 h 0.036 l 0.405,0.221 0.096,0.054 0.435,0.231 0.096,0.049 0.405,0.207 0.077,0.039 0.465,0.226 0.113,0.054 0.483,0.221 h 0.036 l 0.471,0.207 0.113,0.049 0.501,0.207 0.101,0.039 0.465,0.177 0.089,0.034 0.525,0.187 0.125,0.044 0.543,0.182 v 0 c -3.369,3.059 -5.098,10.191 -5.098,10.191 z"
     fill="url(#A)"
     id="path683"
     style="fill:url(#A)" />
  <path
     d="m 438.91687,392.00808 -3.918,9.016 c 0,0 10.733,6.788 17.709,5.381 a 19.492,16.078 0 0 1 3.202,-0.428 c 1.443,-0.089 3.929,-0.959 2.385,-2.061 -4.949,-3.571 -11.55,-10.206 -11.55,-10.206 z m 65.167,-0.851 -1.854,8.676 c 0,0 9.487,-0.339 25.574,3.743 0,0 6.189,-2.213 1.032,-4.918 0,0 -5.963,0.339 -9.689,-4.918 -3.726,-5.257 -5.963,-4.594 -5.963,-4.594 z"
     fill="#4f4d59"
     id="path685" />
  <path
     d="m 454.98687,328.22008 1.789,26.402 a 13.237,10.919 0 0 1 -3.154,7.722 19.403,16.005 0 0 1 -3.405,2.622 c -4.329,2.553 -13.613,29.427 -13.613,29.427 0,0 10.518,0.492 13.404,2.213 0,0 0.596,-6.802 2.266,-7.486 1.67,-0.684 13.816,-20.584 13.816,-20.584 l 12.17,-25.856 c 0,0 9.689,13.772 17.942,16.162 v 5.784 c 0,0 4.538,17.013 6.189,18.882 1.651,1.869 0,9.345 0,9.345 0,0 4.77,4.918 15.67,-0.339 0,0 -3.506,-3.231 -3.297,-7.147 0.209,-3.916 -4.77,-25.345 -4.77,-25.345 0,0 0.596,-8.165 -4.329,-13.28 -4.925,-5.115 -13.112,-24.656 -13.112,-24.656 l -5.677,-10.073 z"
     class="M"
     id="path687" />
  <path
     d="m 438.60687,394.38908 c 0,0 9.278,-26.875 13.613,-29.427 a 18.66,18.66 0 0 0 3.578,-2.794 c 2.116,-2.113 3.182,-4.809 2.981,-7.545 l -1.819,-26.407 30.41,-15.464 -0.411,-0.733 -31.853,16.201 1.819,26.407 c 0.2,2.736 -0.865,5.432 -2.981,7.545 a 18.66,18.66 0 0 1 -3.578,2.794 c -4.323,2.548 -13.613,29.422 -13.613,29.422 0,0 10.518,0.492 13.404,2.213 0,0 0,-0.266 0.078,-0.694 -4.061,-1.151 -11.627,-1.52 -11.627,-1.52 z m 65.787,-1.53 c 0,0 1.652,-7.486 0,-9.345 -1.652,-1.859 -6.189,-18.882 -6.189,-18.882 v -5.794 c -8.246,-2.381 -17.942,-16.162 -17.942,-16.162 l -0.716,1.544 c 2.797,3.659 10.256,12.739 16.809,14.628 v 5.784 c 0,0 4.538,17.013 6.189,18.882 1.651,1.869 0,9.345 0,9.345 0,0 2.302,2.39 7.382,2.066 -3.798,-0.261 -5.533,-2.066 -5.533,-2.066 z"
     class="B"
     id="path689" />
  <path
     d="m 525.94287,298.62108 -4.049,0.221 -2.135,0.118 v -4.254 l 2.802,-0.418 1.735,-0.261 c 0,0 5.366,-13.098 10.518,-10.717 5.152,2.381 -8.873,15.311 -8.873,15.311 z"
     fill="#714b4f"
     id="path691" />
  <path
     d="m 460.98487,263.55708 c 0,0 -2.683,8.504 -3.506,13.772 -0.823,5.268 19.176,1.023 19.176,1.023 0,0 -7.632,-7.653 -3.297,-11.735 z"
     class="N"
     id="path693" />
  <path
     d="m 482.63587,298.97008 0.411,3.231 -6.392,-0.339 -6.392,-4.594 -6.392,-14.805 -4.114,-5.278 -3.095,-3.231 1.24,-3.935 1.521,1.008 c 3.142,1.967 10.506,6.104 15.891,4.963 a 6.416,5.292 0 0 0 0.733,-0.192 l 8.044,11.396 z"
     class="H"
     id="path695" />
  <path
     d="m 459.54287,269.02208 c 0,0 -3.297,0.492 -5.569,4.594 -1.741,3.138 -7.632,6.394 -10.262,7.707 a 4.4,3.63 0 0 0 -1.998,2.292 c -0.531,1.938 -0.733,5.553 2.153,10.752 4.538,8.165 7.835,11.735 7.835,11.735 0,0 0.823,8.165 -0.411,10.545 -1.234,2.38 0,15.478 0,15.478 0,0 21.651,3.404 28.872,0 7.221,-3.404 6.189,-16.501 6.189,-16.501 0,0 6.803,11.908 9.278,12.247 l -1.443,-6.635 c 0,0 -8.044,-7.147 -8.455,-16.329 0,0 -2.475,-8.337 -0.411,-10.545 0,0 34.852,2.381 36.915,0.339 0,0 -22.891,-0.851 -26.397,-5.445 0,0 -10.107,-6.635 -10.518,-11.057 a 5.927,4.889 0 0 0 -3.095,-4.009 8.074,6.66 0 0 0 -4.621,-0.851 l -4.657,0.266 c 0,0 8.044,11.735 7.632,13.28 -0.412,1.545 0.411,13.949 0.411,13.949 0,0 -9.308,-16.501 -13.404,-18.37 -4.096,-1.869 -8.873,-9.562 -8.873,-9.562 l 0.823,-3.886"
     class="B"
     id="path697" />
  <path
     d="m 482.63587,298.97008 0.411,3.231 -6.392,-0.339 -6.392,-4.594 -6.392,-14.805 -4.114,-5.278 -3.095,-3.231 1.24,-3.935 1.521,1.008 -0.286,1.343 c 0,0 4.77,7.683 8.867,9.557 4.097,1.874 13.404,18.371 13.404,18.371 0,0 -0.823,-12.419 -0.411,-13.949 0.28,-1.038 -3.333,-6.773 -5.682,-10.358 a 6.416,5.292 0 0 0 0.733,-0.192 l 8.044,11.396 z m 39.259,-0.128 -2.135,0.118 v -4.254 l 2.802,-0.418 c -0.978,1.067 -0.942,2.956 -0.668,4.555 z"
     class="B"
     id="path699" />
  <path
     d="m 459.54287,268.51508 c 0,0 -3.297,0.492 -5.569,4.594 -1.741,3.138 -7.632,6.394 -10.262,7.707 a 4.4,3.63 0 0 0 -1.998,2.292 c -0.531,1.938 -0.733,5.553 2.153,10.752 4.538,8.165 7.835,11.735 7.835,11.735 0,0 0.823,8.165 -0.411,10.545 -1.234,2.38 0,15.478 0,15.478 0,0 21.651,3.404 28.872,0 7.221,-3.404 6.189,-16.501 6.189,-16.501 0,0 6.798,11.888 9.278,12.252 l -1.443,-6.635 c 0,0 -8.044,-7.147 -8.455,-16.329 0,0 -2.475,-8.337 -0.411,-10.545 0,0 8.044,7.147 17.119,6.974 a 170.748,140.845 0 0 1 19.796,0.851 c 0,0 -2.063,-5.445 0,-7.486 0,0 -22.891,-0.851 -26.397,-5.445 0,0 -10.107,-6.635 -10.518,-11.057 a 5.927,4.889 0 0 0 -3.095,-4.009 8.074,6.66 0 0 0 -4.621,-0.851 l -4.657,0.266 c 0,0 8.044,11.735 7.632,13.28 -0.412,1.545 0.411,13.949 0.411,13.949 0,0 -9.308,-16.511 -13.404,-18.38 -4.096,-1.869 -8.873,-9.542 -8.873,-9.542 l 0.823,-3.886"
     class="M"
     id="path701" />
  <use
     xlink:href="#F"
     class="B"
     id="use703"
     x="0"
     y="0"
     width="100%"
     height="100%"
     transform="translate(-1.1631304,-67.424919)" />
  <g
     fill="#ba7855"
     id="g709"
     transform="translate(-1.1631304,-67.424919)">
    <ellipse
       cx="482.565"
       cy="368.51501"
       rx="0.72100002"
       ry="0.85100001"
       id="ellipse705" />
    <ellipse
       cx="484.62201"
       cy="374.46701"
       rx="0.72100002"
       ry="0.85100001"
       id="ellipse707" />
  </g>
  <path
     d="m 452.73887,331.43208 c 0,0 -1.24,-13.098 0,-15.478 1.24,-2.38 0.411,-10.545 0.411,-10.545 0,0 -3.297,-3.571 -7.835,-11.735 -2.892,-5.199 -2.683,-8.814 -2.153,-10.752 0.264,-0.955 0.984,-1.782 1.998,-2.292 2.63,-1.328 8.515,-4.569 10.262,-7.707 1.282,-2.302 2.886,-3.468 4.043,-4.048 l 0.078,-0.374 c 0,0 -3.297,0.492 -5.569,4.594 -1.741,3.138 -7.632,6.394 -10.262,7.707 -1.013,0.51 -1.734,1.337 -1.998,2.292 -0.531,1.938 -0.733,5.553 2.153,10.752 4.538,8.165 7.835,11.735 7.835,11.735 0,0 0.823,8.165 -0.411,10.545 -1.234,2.38 0,15.478 0,15.478 0,0 15.467,2.43 24.614,1.126 -9.236,0.91 -23.165,-1.298 -23.165,-1.298 z m 27.834,-45.058 c -0.28,1.048 0,7.21 0.233,10.988 l 1.622,2.794 c 0,0 -0.823,-12.419 -0.411,-13.949 0.394,-1.476 -6.851,-12.129 -7.573,-13.182 l -1.503,0.084 c 0,0 8.05,11.735 7.632,13.265 z m 23.308,14.288 c -9.075,0.172 -17.119,-6.974 -17.119,-6.974 a 2.54,2.54 0 0 0 -0.519,0.92 c 2.385,1.83 8.944,6.36 16.195,6.222 6.613,-0.033 13.223,0.251 19.796,0.851 l -0.107,-0.305 c -6.061,-0.517 -12.153,-0.755 -18.246,-0.713 z m -16.099,14.289 c 0,0 0.083,1.062 0.036,2.656 2.147,3.512 6.052,9.517 7.799,9.758 l -0.304,-1.397 c -2.999,-3.108 -7.531,-11.017 -7.531,-11.017 z"
     class="B"
     id="path711" />
  <path
     d="m 493.56587,313.23408 -4.383,0.762 -3.458,0.6 1.854,-4.254 1.294,-0.266 2.009,-0.413 c 0,0 2.886,-11.908 8.664,-11.057 5.778,0.851 -5.981,14.628 -5.981,14.628 z"
     class="N"
     id="path713" />
  <path
     d="m 489.18887,314.01108 -3.458,0.6 1.854,-4.254 1.294,-0.266 a 20.595,16.988 0 0 1 0.31,3.92 z"
     class="B"
     id="path715" />
  <use
     xlink:href="#F"
     y="-0.33899999"
     class="M"
     id="use717"
     x="0"
     width="100%"
     height="100%"
     transform="translate(-1.1631304,-67.424919)" />
  <path
     d="m 461.18787,263.92108 -0.978,3.271 a 11.132,9.183 0 0 0 12.289,4.673 c -0.495,-1.746 -0.388,-3.512 1.061,-4.879 z"
     class="B"
     id="path719" />
  <ellipse
     cx="469.8519"
     cy="262.55908"
     rx="11.138"
     ry="9.1879997"
     class="N"
     id="ellipse721" />
  <path
     d="m 479.52387,260.03108 a 5.963,4.918 0 0 0 2.48,0.128 4.084,3.369 0 0 0 3.017,-3.212 5.963,4.918 0 0 0 -2.296,-3.792 c -0.942,-0.649 -2.069,-1.107 -2.934,-1.83 -1.02,-0.861 -1.58,-2.012 -2.385,-3.025 a 10.882,8.976 0 0 0 -5.587,-3.586 c -1.705,-0.492 -3.798,-0.531 -5.11,0.492 -0.674,0.526 -1.067,1.279 -1.819,1.726 -1.091,0.639 -2.57,0.452 -3.9,0.58 a 7.436,6.133 0 0 0 -5.605,3.443 10.5,8.661 0 0 0 -0.549,5.902 c 0.256,0.836 0.638,1.643 0.912,2.459 0.596,1.731 0.716,3.546 1.383,5.253 0.667,1.707 2.045,3.379 4.132,3.891 a 13.064,10.776 0 0 1 1.33,-5.553 1.932,1.594 0 0 1 0.942,-0.866 2.278,1.879 0 0 1 1.133,0 11.329,9.345 0 0 0 7.543,-1.259 c 0.793,-0.393 2.027,-1.751 2.868,-1.884 1.085,-0.152 3.309,0.925 4.442,1.131 z"
     class="B"
     id="path723" />
  <path
     d="m 479.52387,259.69108 a 5.963,4.918 0 0 0 2.48,0.128 4.084,3.369 0 0 0 3.017,-3.212 5.963,4.918 0 0 0 -2.296,-3.792 c -0.942,-0.649 -2.069,-1.107 -2.934,-1.83 -1.02,-0.861 -1.58,-2.012 -2.385,-3.025 a 10.882,8.976 0 0 0 -5.587,-3.586 c -1.705,-0.492 -3.798,-0.531 -5.11,0.492 -0.674,0.526 -1.067,1.279 -1.819,1.726 -1.091,0.639 -2.57,0.452 -3.9,0.58 a 7.436,6.133 0 0 0 -5.605,3.443 10.5,8.661 0 0 0 -0.549,5.902 c 0.256,0.836 0.638,1.643 0.912,2.459 0.596,1.731 0.716,3.546 1.383,5.253 0.667,1.707 2.045,3.379 4.132,3.891 a 13.064,10.776 0 0 1 1.342,-5.548 1.932,1.594 0 0 1 0.942,-0.866 2.278,1.879 0 0 1 1.133,0 11.329,9.345 0 0 0 7.543,-1.259 c 0.793,-0.393 2.027,-1.751 2.868,-1.884 1.073,-0.157 3.297,0.92 4.43,1.126 z"
     fill="#483737"
     id="path725" />
  <path
     d="m 590.63887,229.36908 -9.087,83.958 -40.845,9.345 -40.731,-9.345 -9.075,-83.958 z"
     fill="#e44d26"
     id="path727" />
  <path
     d="m 540.76687,315.53108 33.004,-7.545 7.752,-71.751 h -40.756 z"
     fill="#f16529"
     id="path729" />
  <path
     d="m 523.10487,256.83408 h 17.662 v -10.299 h -31.304 l 0.298,2.764 3.071,28.38 h 27.941 v -10.299 h -16.523 z m 2.838,25.994 h -12.522 l 1.747,16.172 25.544,5.873 h 0.059 v -10.747 h -0.054 l -13.905,-3.099 z"
     class="J"
     id="path731" />
  <path
     d="m 540.72487,277.67808 h 15.372 l -1.449,13.359 -13.923,3.099 v 10.737 l 25.598,-5.853 0.185,-1.741 2.934,-27.116 0.304,-2.764 h -29.021 v 10.299 z m 0,-20.869 v 0.025 h 30.159 l 0.25,-2.317 0.596,-5.223 0.298,-2.764 h -31.304 v 10.275 z"
     class="C"
     id="path733" />
  <path
     d="m 222.47087,275.03708 c -1.163,-2.808 -2.838,-6.394 -4.174,-7.21 a 1.246,1.028 0 0 0 -0.262,-0.133 h -0.167 v -3.468 l -3.136,0.413 a 29.975,24.725 0 0 1 -1.139,-3.841 2.164,1.785 0 0 0 2.355,0.389 c -0.054,-0.069 -0.095,-0.143 -0.143,-0.216 l 0.143,-0.049 a 5.826,4.805 0 0 1 -0.757,-2.356 10.399,8.578 0 0 1 0.435,-2.223 c 0.561,-1.599 1.509,-3.094 2.039,-4.697 a 13.845,11.421 0 0 0 0.477,-3.177 14.036,11.578 0 0 0 -1.467,-5.238 3.709,3.059 0 0 0 -1.109,-1.195 14.311,11.804 0 0 0 -1.359,-0.546 7.34,6.055 0 0 1 -1.974,-1.623 17.733,14.628 0 0 0 -8.568,-4.717 5.015,4.136 0 0 0 -2.737,-0.177 c -2.105,0.492 -2.874,2.622 -4.579,3.748 -1.509,0.984 -3.578,1.097 -5.462,1.431 a 9.29,7.663 0 0 0 -5.086,2.199 5.521,4.555 0 0 0 -1.365,3.04 3.703,3.054 0 0 0 1.509,2.715 4.728,3.9 0 0 0 3.995,0.467 13.589,11.209 0 0 0 10.286,14.091 l 0.37,0.541 v 0 a 28.138,23.21 0 0 1 2.546,5.494 c -2.886,1.353 -6.04,2.617 -7.942,2.735 a 13.386,11.042 0 0 1 -0.411,1.815 12.146,10.019 0 0 1 -2.498,4.058 c -2.588,2.4 -14.233,20.549 -14.233,20.549 0,0 -0.37,0.723 -0.966,1.967 -7.233,0.733 -19.033,1.79 -22.33,1.244 l -12.939,-10.142 c 0,0 -4.174,2.631 -3.816,5.828 l -2.331,-1.83 c 0,0 -12.295,7.737 7.119,12.788 l 29.539,2.828 c -2.814,7.004 -5.438,15.154 -4.627,19.59 h 0.244 a 11.168,9.212 0 0 0 1.687,-0.108 l -0.054,0.787 -2.844,42.019 c 0,0 -0.65,7.737 8.085,11.209 0,0 10.679,25.886 6.47,28.822 0,0 0.501,0.216 1.342,0.521 l -8.783,6.394 c 0,0 -6.47,1.333 -10.029,1.067 a 2.57,2.12 0 0 0 -2.838,1.579 c 0,0.054 0,0.108 -0.036,0.167 v 0.069 0.172 0.064 0.148 0.064 c 0,0.059 0,0.113 0.042,0.172 v 0.064 q 0.03,0.093 0.071,0.182 v 0.059 c 0.03,0.059 0.065,0.118 0.101,0.177 v 0.039 c 0.042,0.059 0.084,0.118 0.131,0.177 l 0.042,0.049 q 0.077,0.094 0.173,0.187 l 0.048,0.049 c 0.065,0.064 0.137,0.123 0.215,0.187 h 0.036 l 0.238,0.167 0.054,0.034 0.292,0.172 0.071,0.039 0.34,0.162 h 0.054 l 0.364,0.148 h 0.054 l 0.423,0.143 0.089,0.029 0.471,0.128 h 0.077 l 0.507,0.108 h 0.042 l 0.596,0.094 h 0.113 l 0.596,0.074 h 0.113 l 0.686,0.054 c 1.33,0.084 3.124,0.113 5.2,0.108 v 0 0.064 0.148 0.064 c 0,0.059 0,0.113 0.042,0.172 v 0.064 q 0.03,0.094 0.071,0.182 v 0.059 c 0.03,0.059 0.065,0.118 0.101,0.177 v 0.039 c 0.042,0.059 0.083,0.118 0.131,0.177 l 0.042,0.049 q 0.077,0.094 0.173,0.187 l 0.048,0.049 c 0.065,0.064 0.137,0.123 0.215,0.187 h 0.03 l 0.239,0.167 0.054,0.034 0.292,0.172 0.071,0.039 0.334,0.162 h 0.054 l 0.364,0.148 h 0.054 l 0.423,0.143 0.089,0.029 0.471,0.128 h 0.077 l 0.507,0.108 h 0.042 l 0.596,0.094 h 0.113 l 0.596,0.074 h 0.113 l 0.686,0.054 c 8.413,0.536 35.264,-1.067 35.264,-1.067 v -0.064 0 -0.079 0 c 0.268,-1.033 1.556,-7.038 -3.023,-11.48 0.137,-0.118 0.268,-0.241 0.394,-0.369 0,0 -3.578,-5.071 -1.616,-6.669 1.962,-1.598 -9.475,-29.108 -9.475,-29.108 0,0 -6.148,-8.007 -2.588,-17.082 3.56,-9.075 -0.322,-18.946 -0.322,-18.946 0,0 8.497,-2.076 8.652,-10.698 v -0.802 a 3.435,2.833 0 0 0 0.537,0.029 2.51,2.071 0 0 0 0.358,0 c 0,0 -1.616,-4.805 0.322,-8.273 1.938,-3.468 6.148,-0.266 10.029,-14.411 2.808,-10.235 5.277,-22.005 6.434,-27.735 a 17.703,14.603 0 0 0 -0.71,-7.088 z m -73.83,30.003 -2.952,-2.312 c 0.978,0.334 2.063,0.659 3.274,0.984 l 11.12,1.077 c -4.961,0.369 -9.594,0.575 -11.442,0.266 z"
     fill="url(#C)"
     id="path735"
     style="fill:url(#C)" />
  <use
     xlink:href="#G"
     class="D"
     id="use737"
     x="0"
     y="0"
     width="100%"
     height="100%"
     transform="translate(-1.1631304,-67.424919)" />
  <use
     xlink:href="#G"
     class="K"
     id="use739"
     x="0"
     y="0"
     width="100%"
     height="100%"
     transform="translate(-1.1631304,-67.424919)" />
  <path
     d="m 132.00387,310.30708 -49.454,-11.312 -11.019,-101.96 h 121.096 l -11.031,101.945 z"
     fill="#264de4"
     id="path741" />
  <path
     d="m 172.15087,292.49308 9.427,-87.116 h -49.491 v 96.259 z"
     fill="#2965f1"
     id="path743" />
  <path
     d="m 96.82387,243.17508 1.359,12.503 h 33.928 v -12.503 z m -2.731,-25.31 1.377,12.503 h 36.635 v -12.503 h -38.041 z m 38.012,57.787 h -0.065 l -16.886,-3.763 -1.079,-9.975 h -15.247 l 2.123,19.635 31.054,7.127 h 0.071 z"
     class="J"
     id="path745" />
  <path
     d="m 167.26787,243.17508 2.737,-25.31 h -38 v 12.503 h 21.364 l -1.377,12.788 h -19.987 v 12.503 h 18.669 l -1.789,16.231 -16.88,3.772 v 13.009 l 31.078,-7.107 0.227,-2.115 3.578,-32.924 0.37,-3.359 z"
     class="C"
     id="path747" />
  <path
     d="m 185.07287,410.13808 -11.126,8.125 c 0,0 -6.356,1.313 -9.85,1.048 -3.494,-0.265 -5.086,4.456 3.178,4.982 8.264,0.526 34.643,-1.048 34.643,-1.048 0,0 2.54,-8.391 -5.086,-13.108 z"
     fill="#333333"
     id="path749" />
  <use
     xlink:href="#H"
     opacity="0.3"
     class="C"
     id="use751"
     x="0"
     y="0"
     width="100%"
     height="100%"
     transform="translate(-1.1631304,-67.424919)" />
  <path
     d="m 198.09487,261.50608 c 0,0 6.994,8.125 4.448,13.634 -2.546,5.509 13.351,-5.769 13.351,-5.769 0,0 -5.086,-7.373 -2.54,-15.242 z"
     class="D"
     id="path753" />
  <path
     d="m 196.18687,413.28608 -11.115,8.125 c 0,0 -6.356,1.313 -9.85,1.048 -3.494,-0.265 -5.086,4.456 3.178,4.982 8.264,0.526 34.643,-1.048 34.643,-1.048 0,0 2.54,-8.391 -5.086,-13.108 z"
     fill="#333333"
     id="path755" />
  <use
     xlink:href="#I"
     class="I"
     id="use757"
     x="0"
     y="0"
     width="100%"
     height="100%"
     transform="translate(-1.1631304,-67.424919)" />
  <use
     xlink:href="#I"
     class="K"
     id="use759"
     x="0"
     y="0"
     width="100%"
     height="100%"
     transform="translate(-1.1631304,-67.424919)" />
  <path
     d="m 210.49187,414.59408 c -5.402,5.504 -18.115,0 -18.115,0 a 2.027,1.672 0 0 0 0.555,-0.713 c 2.331,-5.228 -7.865,-30.224 -7.865,-30.224 -8.58,-3.409 -9.54,-11.534 -9.54,-11.534 l -2.248,-42.014 -0.292,-5.44 13.374,-4.21 4.108,-1.294 13.684,8.652 a 24.787,20.446 0 0 1 0.859,5.499 c -0.173,8.465 -8.503,10.511 -8.503,10.511 0,0 3.816,9.699 0.316,18.616 -3.5,8.917 2.558,16.757 2.558,16.757 0,0 11.442,27.268 9.54,28.842 -1.902,1.574 1.568,6.551 1.568,6.551 z"
     class="I"
     id="path761" />
  <path
     d="m 205.01187,333.31608 c -2.749,-0.325 -8.312,-3.054 -11.168,-4.535 l -1.789,-0.944 c 0,0 -2.862,-6.556 -10.488,-1.574 a 28.555,23.555 0 0 1 -8.288,3.866 19.391,15.995 0 0 1 -3.536,0.733 l 0.704,-10.368 8.902,-4.456 7.012,4.427 4.108,-1.294 13.684,8.647 a 24.787,20.446 0 0 1 0.859,5.499 z"
     class="B"
     id="path763" />
  <path
     d="m 222.21387,283.00508 c -1.133,5.627 -3.578,17.215 -6.32,27.243 -3.816,13.895 -7.948,10.747 -9.85,14.155 -1.902,3.408 -0.316,8.125 -0.316,8.125 -3.178,0.261 -13.667,-5.504 -13.667,-5.504 0,0 -2.862,-6.556 -10.488,-1.574 -7.626,4.982 -13.667,4.717 -13.667,4.717 -1.592,-8.652 10.172,-31.724 10.172,-31.724 0,0 11.442,-17.829 13.983,-20.166 a 11.925,9.837 0 0 0 2.457,-3.984 13.148,10.845 0 0 0 0.405,-1.78 c 4.132,-0.261 14.311,-6.03 14.311,-6.03 l 7.948,-1.048 v 3.409 a 1.193,0.984 0 0 1 0.262,0.133 c 1.306,0.821 2.981,4.323 4.096,7.083 a 17.393,14.347 0 0 1 0.674,6.945 z"
     fill="#e1a0a7"
     id="path765" />
  <path
     d="m 185.07287,307.62708 -4.108,-0.393 -31.489,-3.015 c -19.081,-4.982 -6.994,-12.586 -6.994,-12.586 l 12.713,9.965 c 3.667,0.605 18.055,-0.807 24.501,-1.476 l 3.154,-0.344 z"
     class="D"
     id="path767" />
  <path
     d="m 215.89387,272.23308 c 0,0 -8.264,-5.504 -20.685,12.321 -12.421,17.825 -15.259,14.942 -15.259,14.942 0,0 2.54,7.87 1.27,9.439 0,0 8.58,-0.526 11.758,0 3.178,0.526 22.885,-19.925 22.885,-19.925 0,0 10.202,-11.534 0.03,-16.777 z"
     class="B"
     id="path769" />
  <path
     d="m 215.57787,271.18608 c 0,0 -8.264,-5.504 -20.661,12.321 -12.397,17.825 -15.259,14.942 -15.259,14.942 0,0 9.85,8.912 13.029,9.439 3.179,0.527 22.885,-19.925 22.885,-19.925 0,0 10.178,-11.534 0.007,-16.777 z"
     class="B"
     id="path771" />
  <path
     d="m 180.95787,307.24808 c 0.131,-1.943 -0.757,-5.356 -1.27,-7.127 l 3.154,-0.344 2.224,7.87 z"
     class="B"
     id="path773" />
  <path
     d="m 215.89387,271.70708 c 0,0 -8.264,-5.504 -20.685,12.326 -12.421,17.83 -15.259,14.942 -15.259,14.942 0,0 2.54,7.87 1.27,9.439 0,0 8.58,-0.526 11.758,0 3.178,0.526 22.885,-19.925 22.885,-19.925 0,0 10.202,-11.539 0.03,-16.782 z"
     fill="#e1a0a7"
     id="path775" />
  <path
     d="m 213.69387,254.66508 -15.282,7.333 a 32.61,26.899 0 0 1 1.789,2.4 13.41,11.062 0 0 0 2.671,0.221 c 4.073,0 5.963,-3.527 8.425,-5.902 -0.179,-1.889 1.693,-1.938 2.397,-4.053 z"
     class="B"
     id="path777" />
  <ellipse
     cx="202.54286"
     cy="253.09608"
     rx="13.351"
     ry="11.012"
     class="D"
     id="ellipse779" />
  <path
     d="m 185.66887,244.18808 a 9.123,7.525 0 0 1 4.997,-2.164 c 1.854,-0.33 3.888,-0.428 5.366,-1.407 1.676,-1.107 2.427,-3.212 4.496,-3.684 a 4.931,4.068 0 0 1 2.689,0.177 17.417,14.367 0 0 1 8.419,4.633 7.209,5.946 0 0 0 1.944,1.599 14.072,11.608 0 0 1 1.336,0.536 3.643,3.005 0 0 1 1.085,1.176 13.822,11.401 0 0 1 0.966,8.002 c -0.519,1.579 -1.449,3.045 -2.003,4.618 -0.554,1.573 -0.692,3.354 0.316,4.761 -0.978,0.413 -2.212,-0.108 -2.826,-0.861 -0.614,-0.753 -0.799,-1.677 -1.121,-2.548 a 11.776,9.714 0 0 0 -3.446,-4.427 c -1.002,-0.728 -2.791,-1.22 -3.488,-0.28 -0.268,0.364 -0.25,0.831 -0.483,1.21 -0.453,0.743 -1.789,0.89 -2.641,0.492 a 4.049,3.34 0 0 1 -1.652,-2.021 c -1.306,-3.654 -3.542,-5.951 -8.276,-4.392 -1.789,0.58 -3.846,0.984 -5.545,0 -2.176,-1.318 -1.741,-3.93 -0.131,-5.42 z"
     class="B"
     id="path781" />
  <path
     d="m 185.66887,243.92308 a 9.123,7.525 0 0 1 4.997,-2.164 c 1.854,-0.33 3.888,-0.428 5.366,-1.407 1.676,-1.107 2.427,-3.212 4.496,-3.684 a 4.931,4.068 0 0 1 2.689,0.177 17.417,14.367 0 0 1 8.419,4.633 7.209,5.946 0 0 0 1.944,1.599 14.072,11.608 0 0 1 1.336,0.536 3.643,3.005 0 0 1 1.085,1.176 13.822,11.401 0 0 1 0.966,8.002 c -0.519,1.579 -1.449,3.045 -2.003,4.618 -0.554,1.573 -0.692,3.354 0.316,4.761 -0.978,0.413 -2.212,-0.108 -2.826,-0.861 -0.614,-0.753 -0.799,-1.677 -1.121,-2.548 a 11.776,9.714 0 0 0 -3.446,-4.427 c -1.002,-0.728 -2.791,-1.22 -3.488,-0.28 -0.268,0.364 -0.25,0.831 -0.483,1.21 -0.453,0.743 -1.789,0.89 -2.641,0.492 a 4.049,3.34 0 0 1 -1.652,-2.022 c -1.306,-3.654 -3.542,-5.951 -8.276,-4.392 -1.789,0.58 -3.846,0.984 -5.545,0 -2.176,-1.313 -1.741,-3.925 -0.131,-5.42 z"
     id="path783" />
  <path
     d="m 217.42587,268.95808 h -6.458 c 0,0 -12.713,5.243 -13.029,4.982 -0.215,-0.177 -2.182,0.128 -3.429,0.339 a 13.148,10.845 0 0 0 0.405,-1.78 c 4.132,-0.261 14.311,-6.03 14.311,-6.03 l 7.948,-1.048 v 3.409 a 1.193,0.984 0 0 1 0.25,0.128 z"
     class="K"
     id="path785" />
  <use
     xlink:href="#H"
     x="11.12"
     y="3.142"
     opacity="0.3"
     class="C"
     id="use787"
     width="100%"
     height="100%"
     transform="translate(-1.1631304,-67.424919)" />
  <path
     d="m 172.98587,324.67008 c -4.287,2.804 -8.079,3.935 -10.572,4.427 0,0.197 0.048,0.389 0.083,0.575 0,0 6.04,0.261 13.667,-4.717 1.182,-0.835 2.579,-1.437 4.084,-1.761 -1.664,-0.674 -4.037,-0.63 -7.263,1.476 z m 43.135,-49.156 c -1.139,-2.759 -2.791,-6.256 -4.096,-7.083 a 1.26,1.26 0 0 0 -0.262,-0.133 l -2.54,0.133 c 1.306,0.821 2.582,4.063 3.721,6.817 0.923,2.239 1.161,4.632 0.692,6.965 -1.133,5.627 -3.578,17.215 -6.32,27.243 -3.816,13.895 -7.948,10.747 -9.85,14.155 -1.562,2.794 -0.781,6.463 -0.441,7.697 a 9.38,9.38 0 0 0 3.303,0.694 c 0,0 -1.592,-4.717 0.316,-8.125 1.908,-3.408 6.04,-0.261 9.85,-14.155 2.761,-10.053 5.188,-21.641 6.32,-27.243 0.469,-2.333 0.231,-4.726 -0.692,-6.965 z"
     class="K"
     id="path789" />
  <path
     d="m 663.11587,467.27808 c -6.126,-2.781 -13.194,-2.238 -18.85,1.45 -1.499,-10.791 -7.646,-20.309 -16.729,-25.905 -9.083,-5.596 -20.134,-6.673 -30.074,-2.93 -1.766,-12.373 -9.266,-23.087 -20.105,-28.724 -10.839,-5.637 -23.663,-5.493 -34.38,0.388 -7.13,-5.795 -16.464,-7.86 -25.276,-5.592 -8.812,2.268 -16.105,8.613 -19.75,17.181 -9.562,-8.624 -22.963,-11.112 -34.846,-6.467 -11.883,4.645 -20.309,15.662 -21.908,28.648 a 30.886,31.641 0 0 0 -26.524,3.538 c -7.711,5.261 -15.747,21.369 -16.504,30.854 l 275.246,1.426 c -0.923,-6.694 -4.336,-11.074 -10.299,-13.864 z"
     fill="#ececec"
     id="path791" />
  <path
     d="m 379.55887,482.26808 c 7.391,-6.185 102.301,-19.65 144.65,-48.389 41.94,-28.624 66.093,-75.897 83.471,-124.37 l 35.166,12.369 c 0,0 -22.296,109.505 -83.233,160.103 z"
     class="G"
     id="path793" />
  <path
     d="m 457.21087,470.51808 c 33.886,-10.172 34.587,-12.783 71.129,-35.438 34.327,-25.519 56.392,-63.647 70.616,-106.862 l 35.668,14.47 c 0,0 -25.135,98.662 -75.011,139.293 h -146.198 z"
     opacity="0.6"
     class="C"
     id="path795" />
  <path
     d="m 600.50887,325.85008 c 0.257,0.094 0.151,1.13 -0.288,3.024 l -0.9,3.468 -0.636,2.19 -0.832,2.463 -2.059,5.752 -2.769,6.71 -3.496,7.591 -4.291,8.316 -1.173,2.198 -1.294,2.198 -2.671,4.528 -0.688,1.161 -0.757,1.146 -1.513,2.338 -3.125,4.746 c -2.27,3.117 -4.472,6.445 -7.046,9.64 -1.264,1.613 -2.505,3.297 -3.86,4.91 l -4.131,4.894 -1.052,1.247 -1.105,1.208 -2.202,2.416 -2.27,2.463 c -0.757,0.826 -1.566,1.559 -2.361,2.408 l -4.858,4.839 -5.131,4.738 a 221.34,221.34 0 0 1 -22.876,17.839 c -15.475,10.401 -32.086,18.887 -49.49,25.282 l -5.948,2.112 -5.865,1.831 -2.876,0.889 -2.86,0.78 -5.585,1.473 -5.441,1.208 c -1.778,0.429 -3.526,0.78 -5.297,1.067 l -5.078,0.865 c -0.832,0.133 -1.65,0.296 -2.467,0.405 l -2.414,0.296 c -3.194,0.382 -6.22,0.78 -9.081,0.966 -2.861,0.186 -15.541,-0.352 -18.091,-0.36 -17.167,4.69 -13.079,4.594 -15.215,4.55 -2.179,-0.045 13.617,-2.531 11.831,-2.624 l 0.853,2.723 -2.229,-0.849 c -1.689,-3.689 -2.626,1.288 -3.556,1.125 -2.195,-0.652 19.176,-6.813 28.254,-2.868 3.294,1.431 -17.893,-4.484 -16.097,-0.973 1.146,-0.118 -20.206,3.536 -19.056,3.467 l 20.634,-4.588 -7.95,4.687 c -3.67,-2.316 5.076,-5.431 7.214,-5.581 l 2.371,-0.191 c 2.474,-0.249 8.403,-2.56 11.195,-2.941 2.792,-0.381 5.04,-1.716 8.068,-2.23 l 2.338,-0.429 c 0.757,-0.148 1.574,-0.343 2.369,-0.522 l 4.904,-1.091 c 1.672,-0.335 3.345,-0.826 5.063,-1.27 l 5.244,-1.388 5.365,-1.629 2.747,-0.834 2.762,-0.951 5.638,-1.941 5.721,-2.206 a 250.33,250.33 0 0 0 47.674,-25.048 c 7.715,-5.239 15.119,-10.943 22.172,-17.083 l 5.017,-4.505 c 1.627,-1.52 3.186,-3.117 4.767,-4.598 0.757,-0.78 1.581,-1.496 2.323,-2.283 l 2.225,-2.338 2.21,-2.338 1.097,-1.138 1.044,-1.176 4.116,-4.637 c 1.354,-1.559 2.596,-3.117 3.867,-4.676 2.588,-3.016 4.843,-6.157 7.144,-9.103 1.127,-1.489 2.157,-3.024 3.208,-4.489 l 1.559,-2.182 0.757,-1.084 0.757,-1.091 2.808,-4.278 1.362,-2.065 1.256,-2.073 c 1.649,-2.735 3.299,-5.3 4.669,-7.84 1.37,-2.54 2.815,-4.856 3.95,-7.139 1.135,-2.283 2.844,-4.364 3.881,-6.297 1.037,-1.933 1.265,-3.772 2.075,-5.385 0.408,-0.78 0.757,-1.559 1.15,-2.283 0.393,-0.724 0.666,-1.395 0.961,-2.026 0.605,-1.255 -1.442,-3.918 -0.988,-4.697 0.9,-1.668 4.09,-0.93 4.348,-0.837 z m 1.907,16.623 a 42.04,42.04 0 0 0 -7.991,14.122 c -0.497,1.524 0.01,3.202 1.26,4.172 a 3.54,3.54 0 0 0 4.242,0.083 l 0.076,-0.055 a 157.55,157.55 0 0 0 -6.197,19.133 c -0.482,1.868 0.224,3.846 1.768,4.955 a 4.36,4.36 0 0 0 5.126,-0.022 c 13.491,-9.848 23.054,-24.403 26.917,-40.963 z"
     class="G"
     id="path797" />
  <path
     d="m 607.52187,345.48308 a 7.06,7.06 0 0 0 -1.513,2.338 2.382,2.44 0 0 0 0.522,2.595 c 1.037,0.904 2.815,0.358 3.784,1.317 0.969,0.959 0.424,2.813 -0.265,4.123 l -2.179,4.154 c -0.53,1.013 -1.052,2.338 -0.363,3.242 0.689,0.904 2.316,0.655 3.428,0.078 5.206,-2.788 8.751,-8.032 9.482,-14.028 z"
     opacity="0.3"
     id="path799" />
  <path
     d="m 667.53087,289.75308 0.205,0.304 c 11.749,18.092 14.894,40.697 8.551,61.459 l -3.973,13.023 -19.637,-26.084 z"
     class="G"
     id="path801" />
  <path
     d="m 667.53087,289.75308 -0.068,0.242 -0.212,0.709 -0.802,2.697 -3.027,10.093 -10.594,35.008 v -0.171 l 17.904,23.77 1.733,2.338 -0.341,0.07 q 1.196,-3.897 2.346,-7.677 l 2.21,-7.458 a 70.815,72.545 0 0 0 2.452,-14.433 68.455,70.128 0 0 0 -0.288,-13.249 c -0.181,-2.073 -0.575,-4.037 -0.885,-5.931 a 39.007,39.96 0 0 0 -1.271,-5.37 69.579,71.279 0 0 0 -6.168,-15.4 c -0.878,-1.746 -1.718,-3.001 -2.225,-3.897 l -0.795,-1.348 0.235,0.319 0.62,0.982 c 0.53,0.881 1.4,2.127 2.27,3.897 a 70.5,70.5 0 0 1 6.258,15.376 c 0.53,1.684 0.87,3.507 1.309,5.385 l 0.908,5.955 a 67.736,69.391 0 0 1 0.325,13.296 71.092,72.829 0 0 1 -2.437,14.519 l -2.21,7.466 -2.338,7.677 -0.114,0.374 -0.234,-0.312 -1.733,-2.338 -17.889,-23.786 -0.053,-0.078 v -0.094 l 10.821,-35.109 3.095,-9.999 0.825,-2.642 0.333,-0.686 a 1.131,1.159 0 0 1 0.038,-0.195 z"
     class="E"
     id="path803" />
  <path
     d="m 595.81587,266.56708 -0.341,0.133 c -19.413,7.816 -34.334,24.282 -40.568,44.765 l -3.912,12.844 30.171,-9.71 z"
     class="G"
     id="path805" />
  <path
     d="m 595.81587,266.56708 c 0,0 0,0.07 -0.061,0.218 -0.061,0.148 -0.114,0.39 -0.197,0.67 l -0.757,2.618 -2.981,9.875 -10.465,34.689 v 0.101 h -0.091 l -27.5,8.869 -2.671,0.857 -0.356,0.117 0.114,-0.374 2.27,-7.568 2.27,-7.326 a 70.328,72.047 0 0 1 5.978,-13.171 c 2.185,-3.767 4.72,-7.305 7.568,-10.568 1.294,-1.559 2.694,-2.938 3.996,-4.294 1.302,-1.356 2.657,-2.541 4.003,-3.601 a 66.09,66.09 0 0 1 13.492,-8.776 c 1.68,-0.889 3.027,-1.388 3.973,-1.793 l 1.044,-0.437 0.371,-0.124 -1.385,0.632 c -0.9,0.429 -2.27,0.951 -3.935,1.855 a 68.35,68.35 0 0 0 -13.387,8.885 c -1.332,1.067 -2.603,2.338 -3.973,3.608 -1.37,1.27 -2.679,2.72 -3.958,4.286 a 66.283,67.902 0 0 0 -7.484,10.545 73.06,73.06 0 0 0 -5.917,13.069 c -0.825,2.338 -1.513,4.839 -2.27,7.318 l -2.27,7.575 -0.242,-0.257 2.671,-0.857 27.507,-8.838 -0.121,0.124 10.594,-34.462 3.072,-9.929 0.825,-2.65 0.22,-0.694 c 0.013,-0.066 0.031,-0.131 0.053,-0.195 z"
     class="C"
     id="path807" />
  <path
     d="m 670.51987,150.64008 c -5.675,-1.831 -20.719,9.905 -38.116,32.015 -17.125,21.775 -24.216,43.324 -24.216,43.324 l -33.138,108.663 27.802,8.994 16.111,5.206 27.802,8.994 30.072,-98.602 c 2.952,-9.633 5.001,-19.533 6.122,-29.568 1.152,-10.059 1.519,-20.197 1.097,-30.317 -1.377,-28.306 -7.825,-46.869 -13.508,-48.709"
     class="F"
     id="path809" />
  <path
     d="m 670.51987,150.64008 0.25,0.094 0.31,0.124 0.401,0.234 a 8.615,8.825 0 0 1 2.232,2.182 c 1.672,2.221 3.466,5.985 5.033,11.083 a 113.643,116.42 0 0 1 3.973,19.086 c 0.507,3.787 0.915,7.855 1.203,12.197 0.288,4.342 0.461,8.939 0.408,13.778 -0.053,4.839 -0.303,9.913 -0.757,15.197 a 161.647,165.597 0 0 1 -2.164,16.413 c -1.077,5.836 -2.466,11.607 -4.162,17.286 q -2.671,8.776 -5.502,18.088 l -24.828,81.496 -0.053,0.195 -0.19,-0.062 -35.854,-11.597 -35.861,-11.604 -0.189,-0.055 0.061,-0.195 24.881,-81.496 q 2.838,-9.305 5.517,-18.081 1.339,-4.38 2.641,-8.635 c 0.93,-2.821 2.043,-5.51 3.179,-8.129 a 169.64,169.64 0 0 1 15.301,-27.565 198.653,203.508 0 0 1 16.081,-20.076 126.258,129.343 0 0 1 13.863,-13.35 c 4.079,-3.305 7.568,-5.409 10.193,-6.289 a 8.383,8.588 0 0 1 3.027,-0.507 l 0.454,0.039 0.325,0.078 0.249,0.07 -0.257,-0.047 -0.318,-0.07 -0.454,-0.039 a 8.637,8.849 0 0 0 -3.027,0.546 c -2.573,0.896 -6.054,3.016 -10.133,6.336 a 128.243,131.377 0 0 0 -13.75,13.343 199.972,204.859 0 0 0 -15.974,20.123 169.47,169.47 0 0 0 -15.233,27.534 c -1.128,2.618 -2.27,5.308 -3.155,8.105 l -2.633,8.635 q -2.671,8.776 -5.502,18.088 l -24.835,81.511 -0.129,-0.257 35.832,11.612 35.854,11.604 -0.249,0.133 24.874,-81.488 5.516,-18.073 c 1.69,-5.671 3.074,-11.434 4.147,-17.263 1.052,-5.627 1.718,-11.106 2.187,-16.366 a 191.28,191.28 0 0 0 0.757,-15.181 c 0.045,-4.839 -0.091,-9.423 -0.378,-13.755 -0.287,-4.332 -0.681,-8.401 -1.181,-12.181 -0.781,-6.458 -2.088,-12.838 -3.904,-19.071 -1.513,-5.097 -3.307,-8.861 -4.956,-11.083 -0.6,-0.86 -1.342,-1.605 -2.194,-2.198 l -0.393,-0.242 -0.303,-0.124 z"
     class="E"
     id="path811" />
  <path
     d="m 580.29487,317.41908 71.125,22.539"
     class="F"
     id="path813" />
  <path
     d="m 651.41987,339.95708 c 0,0.109 -15.982,-4.856 -35.62,-11.074 l -35.506,-11.464 c 0.061,-0.109 15.982,4.856 35.627,11.074 z"
     class="E"
     id="path815" />
  <path
     d="m 578.97787,320.61408 71.125,22.531"
     class="F"
     id="path817" />
  <path
     d="m 650.08887,343.14508 c 0,0.109 -15.982,-4.848 -35.62,-11.066 l -35.513,-11.464 c 0,-0.109 15.974,4.848 35.62,11.074 z"
     class="E"
     id="path819" />
  <path
     d="m 577.97187,324.10508 71.125,22.539"
     class="F"
     id="path821" />
  <path
     d="m 649.09687,346.64408 c 0,0.101 -15.982,-4.856 -35.62,-11.074 l -35.506,-11.464 c 0.061,-0.109 15.974,4.848 35.62,11.074 z"
     class="E"
     id="path823" />
  <path
     d="m 576.96487,327.59708 71.125,22.539"
     class="F"
     id="path825" />
  <path
     d="m 648.09087,350.13608 c 0,0.109 -15.982,-4.856 -35.619,-11.074 l -35.506,-11.464 c 0.061,-0.109 15.982,4.856 35.627,11.074 z"
     class="E"
     id="path827" />
  <path
     d="m 575.96687,331.09708 71.125,22.531"
     class="F"
     id="path829" />
  <path
     d="m 647.06187,353.62708 c -0.038,0.109 -15.982,-4.848 -35.62,-11.074 l -35.505,-11.456 c 0.061,-0.101 16.005,4.832 35.649,11.066 z"
     class="E"
     id="path831" />
  <path
     d="m 631.78387,278.25708 c 0,0.18 -0.029,0.358 -0.076,0.53 -0.046,0.358 -0.197,0.85 -0.363,1.504 l -1.552,5.456 -5.502,17.847 -5.706,17.784 -1.778,5.37 -0.507,1.457 a 2.502,2.563 0 0 1 -0.197,0.499 c 0.022,-0.18 0.063,-0.358 0.121,-0.53 l 0.439,-1.473 1.657,-5.409 5.592,-17.824 5.607,-17.808 1.68,-5.401 0.432,-1.473 a 4.83,4.83 0 0 1 0.151,-0.53 z"
     fill="#0044aa"
     id="path833" />
  <path
     d="m 667.53087,289.75308 c -0.038,0.101 -15.982,-4.949 -35.619,-11.285 l -35.506,-11.69 c 0.061,-0.133 15.974,4.941 35.62,11.277 z"
     class="J"
     id="path835" />
  <path
     d="m 626.62987,315.97008 a 1.019,1.044 0 0 1 0.537,-0.18 2.382,2.44 0 0 1 1.513,0.366 2.285,2.341 0 0 1 1.12,2.05 2.435,2.494 0 0 1 -1.569,2.374 2.412,2.471 0 0 1 -2.699,-0.721 2.292,2.348 0 0 1 -0.469,-2.338 2.345,2.402 0 0 1 0.9,-1.286 0.966,0.99 0 0 1 0.522,-0.234 c 0,0 -0.174,0.117 -0.424,0.358 a 2.39,2.448 0 0 0 -0.757,1.239 2.023,2.072 0 0 0 0.469,1.972 2.068,2.118 0 0 0 2.293,0.601 c 0.811,-0.312 1.348,-1.112 1.347,-2.004 0.025,-0.723 -0.319,-1.406 -0.908,-1.8 a 2.397,2.456 0 0 0 -1.339,-0.444 c -0.363,0.023 -0.537,0.086 -0.537,0.047 z m 6.757,-20.879 a 0.981,1.005 0 0 1 0.537,-0.18 2.405,2.463 0 0 1 1.513,0.366 2.285,2.341 0 0 1 1.112,2.05 2.435,2.494 0 0 1 -1.569,2.374 2.412,2.471 0 0 1 -2.699,-0.721 2.292,2.348 0 0 1 -0.469,-2.338 2.405,2.463 0 0 1 0.87,-1.239 0.989,1.013 0 0 1 0.522,-0.226 c 0,0 -0.166,0.117 -0.424,0.351 a 2.45,2.51 0 0 0 -0.757,1.247 2,2.049 0 0 0 0.461,1.972 2.262,2.318 0 0 0 2.27,0.6 c 0.79,-0.345 1.315,-1.128 1.347,-2.011 0.029,-0.72 -0.313,-1.401 -0.9,-1.793 a 2.502,2.563 0 0 0 -1.347,-0.452 c -0.265,-0.023 -0.461,0.039 -0.469,0 z m -10.775,-33.723 a 1.019,1.044 0 0 1 0.537,-0.18 2.382,2.44 0 0 1 1.513,0.366 2.285,2.341 0 0 1 1.12,2.05 2.435,2.494 0 0 1 -1.569,2.374 2.412,2.471 0 0 1 -2.699,-0.721 2.292,2.348 0 0 1 -0.469,-2.338 2.345,2.402 0 0 1 0.9,-1.286 0.966,0.99 0 0 1 0.522,-0.234 c 0,0 -0.166,0.117 -0.424,0.351 -0.367,0.328 -0.631,0.763 -0.757,1.247 a 2.023,2.072 0 0 0 0.469,1.972 2.068,2.118 0 0 0 2.293,0.601 c 0.811,-0.312 1.348,-1.112 1.347,-2.004 0.025,-0.723 -0.319,-1.406 -0.908,-1.8 a 2.397,2.456 0 0 0 -1.339,-0.444 c -0.303,0.023 -0.53,0.086 -0.537,0.047 z"
     fill="#2a7fff"
     id="path837" />
  <path
     d="m 621.43087,245.72708 c 0.098,0 -1.657,5.993 -3.92,13.311 l -4.298,13.194 c -0.106,-0.055 1.65,-5.993 3.92,-13.319 z"
     class="J"
     id="path839" />
  <path
     d="m 581.55187,313.32708 c 0,0 10.314,-31.306 14.264,-46.76 -5.214,6.422 -11.094,13.795 -14.159,21.541 a 34.265,35.102 0 0 0 -0.106,25.219 z"
     opacity="0.3"
     id="path841" />
  <path
     d="m 592.84187,396.52208 a 3.858,3.952 0 0 0 -2.903,4.659 c 0.427,2.108 2.414,3.476 4.469,3.076 2.055,-0.4 3.42,-2.421 3.069,-4.545 -0.351,-2.124 -2.287,-3.566 -4.355,-3.245"
     class="G"
     id="path843" />
  <path
     d="m 669.18787,193.52008 c -4.645,-4.784 -10.821,-7.419 -17.39,-7.419 -6.569,0 -12.745,2.635 -17.39,7.419 -4.645,4.784 -7.204,11.145 -7.204,17.91 0,6.765 2.558,13.126 7.204,17.91 4.646,4.784 10.821,7.419 17.39,7.419 6.569,0 12.745,-2.635 17.39,-7.419 4.645,-4.784 7.204,-11.145 7.204,-17.91 0,-6.765 -2.558,-13.126 -7.204,-17.91 z m -17.39,41.22 c -12.481,0 -22.634,-10.457 -22.634,-23.311 0,-12.854 10.154,-23.311 22.634,-23.311 12.48,0 22.634,10.457 22.634,23.311 0,12.854 -10.154,23.311 -22.634,23.311 z"
     fill="#00aaff"
     id="path845" />
  <ellipse
     ry="24.615"
     rx="23.902"
     cy="211.5121"
     cx="651.75586"
     id="ellipse847" />
  <path
     d="m 645.14587,209.07208 h -5.942 l -2.955,5.311 2.955,5.304 h 5.942 l 2.955,-5.304 z m 4.068,-5.957 -2.961,5.304 2.961,5.311 h 5.91 l 2.981,-5.311 -2.981,-5.304 z m -2.961,17.224 2.961,5.331 h 5.91 l 2.981,-5.331 -2.981,-5.304 h -5.91 z m 1.849,-17.876 -2.955,-5.331 h -5.942 l -2.955,5.331 2.955,5.304 h 5.942 z m 8.135,-0.027 2.955,5.331 h 5.942 l 2.955,-5.304 -2.955,-5.331 h -5.942 z"
     fill="#0662ff"
     stroke="#0066ff"
     stroke-width="0.134"
     id="path849" />
  <path
     d="m 261.24587,414.75008 c 0,7.122 5.773,12.894 12.894,12.894 h 74.211 c 7.122,0 12.895,-5.773 12.895,-12.894 v -74.211 c 0,-7.122 -5.773,-12.895 -12.894,-12.895 h -74.211 c -7.122,0 -12.895,5.773 -12.895,12.894 v 74.211 z"
     fill="#563d7c"
     id="path851" />
  <path
     d="m 302.71387,371.87708 v -14.161 h 12.465 c 1.188,0 2.332,0.099 3.434,0.297 1.102,0.198 2.078,0.551 2.926,1.06 0.848,0.509 1.526,1.216 2.035,2.12 0.509,0.904 0.763,2.064 0.763,3.477 0,2.544 -0.763,4.382 -2.29,5.512 -1.527,1.13 -3.477,1.696 -5.851,1.696 z m -13.314,-24.507 v 60.547 h 29.341 c 2.714,0 5.357,-0.339 7.929,-1.018 2.572,-0.679 4.862,-1.724 6.869,-3.137 2.007,-1.413 3.604,-3.237 4.791,-5.47 1.187,-2.233 1.781,-4.876 1.781,-7.929 0,-3.788 -0.919,-7.024 -2.756,-9.709 -1.837,-2.685 -4.622,-4.565 -8.353,-5.639 2.714,-1.3 4.763,-2.968 6.148,-5.003 1.385,-2.035 2.077,-4.579 2.077,-7.632 0,-2.827 -0.466,-5.201 -1.399,-7.123 -0.933,-1.922 -2.247,-3.462 -3.943,-4.621 -1.696,-1.159 -3.731,-1.993 -6.105,-2.502 -2.374,-0.509 -5.003,-0.763 -7.886,-0.763 z m 13.314,50.201 v -16.621 h 14.5 c 2.883,0 5.201,0.664 6.954,1.993 1.753,1.329 2.629,3.547 2.629,6.657 0,1.583 -0.269,2.883 -0.806,3.901 -0.537,1.018 -1.258,1.823 -2.163,2.417 -0.905,0.594 -1.95,1.018 -3.137,1.272 -1.187,0.254 -2.431,0.381 -3.731,0.381 z"
     class="C"
     id="path853" />
  <text
     xml:space="preserve"
     x="155.38087"
     y="457.36407"
     font-size="26.667px"
     fill="#000000"
     class="O"
     id="text857"><tspan
       x="155.38087"
       y="457.36407"
       id="tspan855">BOOTSTRAP</tspan></text>
  <text
     xml:space="preserve"
     x="93.259865"
     y="189.48509"
     font-size="29.333px"
     fill="#000000"
     class="O"
     id="text861"><tspan
       x="93.259865"
       y="189.48509"
       id="tspan859">CSS</tspan></text>
  <text
     xml:space="preserve"
     x="491.20288"
     y="220.49309"
     font-size="29.333px"
     fill="#000000"
     class="O"
     id="text865"><tspan
       x="491.20288"
       y="220.49309"
       id="tspan863">HTML</tspan></text>
</svg>
