<svg xmlns="http://www.w3.org/2000/svg" xmlns:xlink="http://www.w3.org/1999/xlink" width="634.387" height="584.35" xmlns:v="https://vecta.io/nano"><path d="M291.294 321.502a3.96 3.96 0 0 1-.209-.004l-13.564.001v-2h13.613c.315.011 6.746.193 12.671-6.997 8.83-10.715 16.081-37.24.481-102.756-20.975-88.096-3.481-165.923 5.014-195.295.849-2.946.262-6.12-1.583-8.568s-4.734-3.887-7.8-3.883H97.342c-3.124.004-6.058 1.498-7.9 4.021-3.599 4.95-8.537 14.46-11.627 31.655l-1.968-.354c3.157-17.569 8.256-27.358 11.978-32.478A11.8 11.8 0 0 1 97.341 0h202.575c3.695-.004 7.176 1.73 9.399 4.682s2.929 6.776 1.906 10.326c-8.451 29.22-25.855 106.644-4.989 194.277 15.818 66.437 8.214 93.537-.951 104.572-6.045 7.278-12.705 7.646-13.987 7.646z" fill="#2a7fff"/><path d="M254.794 358.002a3.96 3.96 0 0 1-.209-.004L241.02 358v-2h13.613c.317.01 6.746.193 12.671-6.997 8.83-10.715 16.081-37.24.481-102.756-20.975-88.096-3.481-165.923 5.014-195.295.849-2.946.262-6.12-1.583-8.568s-4.734-3.887-7.8-3.883H60.842c-3.124.004-6.058 1.498-7.9 4.021-3.599 4.95-8.537 14.46-11.627 31.655l-1.969-.354c3.157-17.569 8.256-27.358 11.978-32.478a11.8 11.8 0 0 1 9.517-4.845h202.575c3.695-.004 7.176 1.73 9.399 4.682s2.929 6.776 1.906 10.326c-8.451 29.22-25.855 106.644-4.989 194.277 15.818 66.437 8.214 93.537-.951 104.572-6.045 7.278-12.705 7.646-13.987 7.646z" fill="#ccc"/><path d="M218.294 394.502a3.96 3.96 0 0 1-.209-.004l-199.453.001a11.75 11.75 0 0 1-10.928-16.102c7.237-18.081 16.981-61.459.932-148.839-18.951-103.18-1.985-140.47 6.189-151.713A11.8 11.8 0 0 1 24.342 73h202.575c3.695-.004 7.176 1.73 9.399 4.682s2.929 6.776 1.906 10.326c-8.451 29.22-25.855 106.644-4.99 194.277 15.818 66.438 8.214 93.537-.951 104.572-6.045 7.278-12.705 7.646-13.987 7.646zM24.342 75c-3.124.004-6.058 1.498-7.9 4.021-8.023 11.035-24.651 47.757-5.84 150.176 15.332 83.474 7.896 127.614-1.042 149.944-1.224 2.993-.856 6.401.977 9.064 1.817 2.687 4.85 4.297 8.095 4.294h199.502c.315.015 6.746.193 12.671-6.997 8.83-10.715 16.081-37.24.481-102.756-20.975-88.096-3.481-165.923 5.014-195.295.849-2.946.262-6.12-1.583-8.568s-4.734-3.887-7.8-3.883z" fill="#3f3d56"/><use xlink:href="#B" fill="#59f"/><g fill="#ccc"><use xlink:href="#B" y="34"/><use xlink:href="#B" y="68"/></g><use xlink:href="#B" x="12" y="102" fill="#06f"/><use xlink:href="#B" x="12" y="136" fill="#ccc"/><path d="M108.461 129h-75a8 8 0 1 1 0-16h75a8 8 0 1 1 0 16z" fill="#00b0ff"/><path d="M98.777 353.822c1.614-6.835 9.198-9.075 15.398-8.825a65.73 65.73 0 0 1 11.611 1.837c3.984.891 7.929 1.947 11.855 3.066 7.198 2.053 14.323 4.536 21.64 6.141 6.091 1.336 12.711 2.12 18.786.275 5.839-1.773 10.793-6.126 12.382-12.145 1.497-5.672-.558-11.873-6.054-14.465-5.012-2.364-11.342-1.162-13.827 4.184-2.801 6.027-.002 12.599 4.432 16.96a49.67 49.67 0 0 0 8.238 6.257c3.001 2.045 6.34 3.541 9.864 4.418 5.785 1.236 12.676-.585 15.66-6.112a10.33 10.33 0 0 0 1.172-4.037c.177-1.922-2.825-1.91-3 0-.506 5.503-6.951 8.081-11.77 7.477-3.253-.539-6.36-1.745-9.125-3.542a53.47 53.47 0 0 1-7.558-5.333c-4.088-3.538-7.92-9.359-5.174-14.879 2.236-4.495 8.063-4.45 11.608-1.551 4.293 3.511 3.527 9.883.696 14.052-3.135 4.616-8.817 6.551-14.174 6.76-5.821.227-11.593-1.109-17.157-2.689l-20.702-6.008c-3.943-1.049-7.917-1.996-11.931-2.733-3.796-.837-7.695-1.106-11.57-.801-6.26.723-12.65 4.367-14.191 10.894-.443 1.877 2.449 2.679 2.893.798z" fill="#3f3d56"/><path d="M405.276 523.44a458.03 458.03 0 0 0 4.318 58.855l.293 2.055 184.402-1.03 1.591-2.065 4.816-7.13c7.12-11.817 10.379-25.653 7.113-35.199l-.058-.148a16.75 16.75 0 0 0-3.269-5.681c-7.447-8.383-22.504-6.985-36.168-.219 12.256-13.415 22.014-30.343 22.756-45.453.727-14.738-6.98-25.267-15.338-34.214l-.823-.871c-.133-.148-.274-.288-.407-.435-6.522-6.819-14.125-13.54-25.129-12.727-12.069.893-25.451 11.003-34.833 22.783-9.383 11.772-15.617 25.145-21.937 38.197-6.328 13.043-13.174 26.42-23.328 37.569 13.753-17.396 24.842-37.189 28.938-56.439s.491-37.738-11.766-46.804a28.67 28.67 0 0 0-12.558-5.067c-.529-.088-1.066-.159-1.612-.222-11.347-1.291-24.895 2.633-36.422 12.014-12.694 10.329-21.495 25.641-25.874 40.176s-4.845 28.529-4.704 42.057z" fill="#f2f2f2" stroke-width=".756" stroke="#05a1fb"/><path d="M525.923 583.701l3.526-.02q1.679-1.05 3.375-2.075l2.116-1.3q17.544-10.715 35.308-20.556 17.748-9.849 35.674-18.79a1.48 1.48 0 0 0 .85-1.69.44.44 0 0 0-.059-.124c-.167-.313-.539-.443-1.083-.176l-4.406 2.222q-17.975 9.094-35.796 19.097-17.808 9.998-35.414 20.879l-.741.458-3.35 2.075zm-45.465.254l2.18-.012 1.467-2.065q17.332-24.304 34.656-48.608 28.371-39.79 56.724-79.579a1.41 1.41 0 0 0 .245-.48c.162-.587-.27-.932-.823-.871-.472.067-.891.335-1.152.733q-15.906 22.314-31.804 44.611-28.223 39.591-56.438 79.173l-3.589 5.033-1.467 2.065zm-48.576-12.662c.111 3.675.354 7.291.672 10.873q.092 1.028.185 2.055l2.288-.013-.201-2.055c-.483-5.176-.826-10.41-.873-15.786a220.23 220.23 0 0 1 4.336-44.392 276.35 276.35 0 0 1 13.428-46.119 316.71 316.71 0 0 1 21.97-45.63 1.22 1.22 0 0 0 .202-.811c-.094-.652-.962-.845-1.612-.222a1.88 1.88 0 0 0-.328.415q-1.583 2.722-3.108 5.46c-8.215 14.68-15.247 29.992-21.028 45.79a275.09 275.09 0 0 0-12.518 46.189 217.27 217.27 0 0 0-3.412 44.246z" fill="#fff"/><path d="M209.005 354.533a2.5 2.5 0 0 1 1.362-4.41 41.29 41.29 0 0 1 16.193 1.66l53.315 16.466a5.5 5.5 0 1 1-3.246 10.51l-53.315-16.466a41.29 41.29 0 0 1-14.309-7.76z" fill="#3f3d56"/><path d="M427.552 422.932c-2.932-1.23-5.168-3.695-6.108-6.732s-.485-6.335 1.24-9.005l-9.139-47.792 23.291-1.816 1.406 46.747c4.39 3.268 5.643 9.303 2.915 14.047s-8.573 6.7-13.606 4.55z" fill="#ffb8b8"/><path d="M412.108 398.267l-23.723-110.482c-2.029-9.45 3.987-18.754 13.437-20.783s18.754 3.987 20.783 13.437l23.723 110.481c.519 2.429-1.027 4.82-3.455 5.345l-25.421 5.458a4.5 4.5 0 0 1-5.344-3.455z" fill="#00b0ff"/><path fill="#ffb8b8" d="M373.17 572.064h-12.259l-5.833-47.288 18.095.001-.003 47.287z"/><use xlink:href="#C" fill="#2f2e41"/><path fill="#ffb8b8" d="M414.17 571.064h-12.259l-5.833-47.288 18.095.001-.003 47.287z"/><g fill="#2f2e41"><use xlink:href="#C" x="41" y="-1"/><path d="M358.482 563.243a4.47 4.47 0 0 1-1.616-3.062l-14.253-156.779a4.5 4.5 0 0 1 4.313-4.904l71.48-2.681a4.5 4.5 0 0 1 4.666 4.662l-5.714 156.177a4.51 4.51 0 0 1-4.09 4.316l-14.413 1.311a4.5 4.5 0 0 1-4.897-4.183l-6.615-99.217c-.009-.385-.173-.75-.455-1.013s-.656-.402-1.041-.386h-.006c-.386-.015-.762.126-1.043.392s-.443.633-.449 1.019l-5.919 99.886a4.48 4.48 0 0 1-4.044 4.211l-12.591 1.26a4.47 4.47 0 0 1-3.313-1.008z"/></g><circle cx="385.977" cy="218.962" r="24.561" fill="#ffb8b8"/><path d="M338.679 404.463a4.46 4.46 0 0 1-1.053-3.679c4.534-27.562 1.979-68.074-.964-97.207a44.2 44.2 0 0 1 18.241-40.302l12.827-10.994a4.57 4.57 0 0 1 3.057-1.082l31.866.91c1.149.031 2.242.503 3.053 1.317l4.924 10.904.051.037a44.07 44.07 0 0 1 17.915 37.69l-4.69 96.937c-.124 2.336-2.009 4.192-4.347 4.28l-77.347 2.718-.149.002a4.49 4.49 0 0 1-3.384-1.532z" fill="#00b0ff"/><path d="M245.903 364.012c-.078-3.178 1.256-6.228 3.642-8.328s5.581-3.036 8.724-2.554l39.865-27.898 11.19 20.508-42.077 20.416c-1.185 5.343-6.178 8.956-11.624 8.409s-9.621-5.08-9.72-10.552z" fill="#ffb8b8"/><path d="M279.452 368.861c-1.181-.178-2.241-.821-2.945-1.785l-15.385-20.96a4.51 4.51 0 0 1 .965-6.291l91.095-66.863c7.792-5.719 18.744-4.039 24.463 3.753s4.039 18.744-3.753 24.463l-91.095 66.863a4.47 4.47 0 0 1-2.653.873 4.6 4.6 0 0 1-.692-.053z" fill="#00b0ff"/><path d="M387.234 240.827c3.257-3.994 2.901-10.077.286-14.518s-7.052-7.5-11.618-9.889-9.417-4.268-13.714-7.113-4.11-14.887-5.254-19.912l2.729.909c-1.049-1.342-1.385-5.307-2.434-6.649 3.084.305 5.455 3.232 8.538 3.537l-1.779-4.776c10.574-.652 17.149 6.696 27.723 6.044 5.239-.323 10.929-.527 15.236 2.473 3.743 2.607 5.637 7.12 6.881 11.509 2.669 9.423 3.084 19.979-1.526 28.62s-15.237 14.464-24.52 11.344z" fill="#2f2e41"/><path d="M252.387 584h381a1 1 0 1 0 0-2h-381a1 1 0 1 0 0 2z" fill="#3f3d56"/><defs ><path id="B" d="M192.461 163h-159a8 8 0 1 1 0-16h159a8 8 0 1 1 0 16z"/><path id="C" d="M352.154 568.561h23.644a0 0 0 0 1 0 0v14.887a0 0 0 0 1 0 0h-38.531a0 0 0 0 1 0 0h0a14.887 14.887 0 0 1 14.887-14.887z"/></defs></svg>