<svg xmlns="http://www.w3.org/2000/svg" height="522.402" width="731.413"  xmlns:v="https://vecta.io/nano"><g fill="#e6e6e6"><path d="M47 378.038h636v3.099H47zm0-120.862h636v3.099H47zm0-120.863h636v3.099H47z"/><path d="M554.341 17h2.917v483.45h-2.917zm-127.2 0h2.917v483.45h-2.917zm-127.2 0h2.917v483.45h-2.917zm-127.2 0h2.917v483.45h-2.917z"/></g><g fill="#2a7fff"><path d="M173.908 137.863h255.275v120.863H173.908z"/><path d="M173.908 249.428v130.16l132.743-125.511z"/><path d="M429.183 254.077v4.649l-1.663 1.565-3.355 3.161c-65.248 2.092-117.952 51.738-120.33 113.301l-2.99 2.82-.029.015v-130.16z"/></g><g fill="#e6e6e6"><path d="M428.454 260.275l-.934.015c-69.405.465-125.814 53.644-126.675 119.282-.029.527-.029 1.038-.029 1.565 0 66.645 57.255 120.863 127.638 120.863s127.638-54.218 127.638-120.863-57.255-120.863-127.638-120.863zm0 238.626c-68.764 0-124.72-52.823-124.72-117.764a87.44 87.44 0 0 1 .102-4.385c2.378-61.562 55.081-111.209 120.33-113.301 1.415-.062 2.844-.077 4.289-.077 68.764 0 124.72 52.823 124.72 117.764s-55.956 117.764-124.72 117.764zm-70.018-119.288l-7.294-.043c.002-.689 1.171-68.923 75.782-73.656l.434 7.734c-67.667 4.292-68.903 63.449-68.923 65.965z"/><path d="M502.09 378.038a62.048 65.91 0 0 0-20.393-46.656 77.949 82.801 0 0 0-53.097-21.616h-.146c-40.071 0-72.776 30.479-73.636 68.272-.029.511-.029 1.038-.029 1.55 0 19.772 8.709 37.638 22.683 50.344a78.25 83.121 0 0 0 50.982 19.477h.146c40.552-.077 73.519-31.362 73.519-69.821a27.39 27.39 0 0 0-.029-1.55z"/></g><path fill="#0aabff" d="M481.697 331.382l-2.188 2.061-99.849 94.428-2.188 2.061c-13.974-12.706-22.683-30.572-22.683-50.344 0-.511 0-1.038.029-1.55.86-37.793 33.565-68.272 73.636-68.272h.146a77.949 82.801 0 0 1 53.097 21.616z"/></svg>