<svg xmlns="http://www.w3.org/2000/svg" xmlns:svgjs="http://svgjs.com/svgjs" xmlns:xlink="http://www.w3.org/1999/xlink" width="1440" height="560" preserveAspectRatio="none" version="1.1" viewBox="0 0 1440 560"><g fill="none" mask="url(&quot;#SvgjsMask1016&quot;)"><rect width="1440" height="560" x="0" y="0" fill="rgba(0, 0, 0, 1)"/><path stroke="#224b75" stroke-width="2" d="M0 250.12L10 208.97L20 226.36L30 163.57L40 137.45L50 125.05L60 153.28L70 171.08L80 216.24L90 242.2L100 203.76L110 205.74L120 243.57L130 280.66L140 327.87L150 326.12L160 308.19L170 264.18L180 209.22L190 215.75L200 272.63L210 269.95L220 223.4L230 192.65L240 183.42L250 206.06L260 263.84L270 329.94L280 384.74L290 316.17L300 294.27L310 228.21L320 234.71L330 208.24L340 273.27L350 274.39L360 251.01L370 295.16L380 343.28L390 368.22L400 390.7L410 423.47L420 465.91L430 434.91L440 429.61L450 399.73L460 344.57L470 397L480 335.37L490 346L500 375.82L510 378.85L520 448.03L530 408.34L540 421.29L550 435.63L560 384.18L570 345.97L580 413.84L590 346.2L600 314.31L610 339.62L620 380.64L630 427.89L640 385.92L650 389.8L660 363.58L670 328.77L680 361.57L690 380.5L700 372.7L710 397.41L720 434.52L730 394.58L740 420.27L750 409.49L760 413.54L770 451.6L780 427.03L790 387.74L800 339.81L810 349.17L820 310.05L830 324.33L840 312.2L850 354.04L860 301.18L870 289.36L880 259.51L890 296.86L900 242.56L910 193.21L920 248.2L930 251.92L940 294.69L950 252.23L960 202.5L970 198.29L980 177.17L990 241.25L1000 171.68L1010 167.02L1020 219.36L1030 194.59L1040 164.84L1050 201.26L1060 135.58L1070 70L1080 94.35L1090 100.85L1100 31.37L1110 43.92L1120 21.35L1130 11.63L1140 70.89L1150 118.87L1160 163.99L1170 104.79L1180 64.59L1190 108.43L1200 49.62L1210 80.12L1220 117.69L1230 182.04L1240 166.72L1250 125.85L1260 184.58L1270 214.33L1280 170.52L1290 197.61L1300 176.03L1310 114.01L1320 92.23L1330 47.09L1340 3.08L1350 72.43L1360 119.04L1370 157.85L1380 139.2L1390 132.12L1400 121.68L1410 59.43L1420 129.14L1430 143.29L1440 90.57"/><path fill="url(#SvgjsLinearGradient1017)" d="M0 250.12L10 208.97L20 226.36L30 163.57L40 137.45L50 125.05L60 153.28L70 171.08L80 216.24L90 242.2L100 203.76L110 205.74L120 243.57L130 280.66L140 327.87L150 326.12L160 308.19L170 264.18L180 209.22L190 215.75L200 272.63L210 269.95L220 223.4L230 192.65L240 183.42L250 206.06L260 263.84L270 329.94L280 384.74L290 316.17L300 294.27L310 228.21L320 234.71L330 208.24L340 273.27L350 274.39L360 251.01L370 295.16L380 343.28L390 368.22L400 390.7L410 423.47L420 465.91L430 434.91L440 429.61L450 399.73L460 344.57L470 397L480 335.37L490 346L500 375.82L510 378.85L520 448.03L530 408.34L540 421.29L550 435.63L560 384.18L570 345.97L580 413.84L590 346.2L600 314.31L610 339.62L620 380.64L630 427.89L640 385.92L650 389.8L660 363.58L670 328.77L680 361.57L690 380.5L700 372.7L710 397.41L720 434.52L730 394.58L740 420.27L750 409.49L760 413.54L770 451.6L780 427.03L790 387.74L800 339.81L810 349.17L820 310.05L830 324.33L840 312.2L850 354.04L860 301.18L870 289.36L880 259.51L890 296.86L900 242.56L910 193.21L920 248.2L930 251.92L940 294.69L950 252.23L960 202.5L970 198.29L980 177.17L990 241.25L1000 171.68L1010 167.02L1020 219.36L1030 194.59L1040 164.84L1050 201.26L1060 135.58L1070 70L1080 94.35L1090 100.85L1100 31.37L1110 43.92L1120 21.35L1130 11.63L1140 70.89L1150 118.87L1160 163.99L1170 104.79L1180 64.59L1190 108.43L1200 49.62L1210 80.12L1220 117.69L1230 182.04L1240 166.72L1250 125.85L1260 184.58L1270 214.33L1280 170.52L1290 197.61L1300 176.03L1310 114.01L1320 92.23L1330 47.09L1340 3.08L1350 72.43L1360 119.04L1370 157.85L1380 139.2L1390 132.12L1400 121.68L1410 59.43L1420 129.14L1430 143.29L1440 90.57L1440 560L0 560z"/></g><defs><mask id="SvgjsMask1016"><rect width="1440" height="560" fill="#fff"/></mask><linearGradient id="SvgjsLinearGradient1017" x1="50%" x2="50%" y1="0%" y2="100%"><stop offset="0" stop-color="#224b75" stop-opacity=".65"/><stop offset=".8" stop-color="#508dcc" stop-opacity="0"/></linearGradient></defs></svg>