<svg xmlns="http://www.w3.org/2000/svg" xmlns:svg="http://www.w3.org/2000/svg" id="svg22469" width="963.78" height="755.906" version="1.1" viewBox="0 0 963.78 755.906"><defs id="defs22460"><style id="style22458">.cls-1{fill:#0593ff}.cls-2{fill:#d8e1ef}</style></defs><title id="title22462"/><g id="Hyper_Link" data-name="Hyper Link" transform="matrix(36.550304,0,0,35.390408,-100.5303,-190.4343)" style="stroke:#0069ff;stroke-opacity:1;stroke-width:.12511928;stroke-miterlimit:4;stroke-dasharray:none"><path id="path22464" d="m 18,21.74 a 5.23,5.23 0 0 1 -4.3,-8.23 1.0043904,1.0043904 0 0 1 1.64,1.16 3.19,3.19 0 0 0 0.37,4.12 3.23,3.23 0 0 0 4.58,0 l 6,-6 A 3.24,3.24 0 0 0 21.71,8.21 l -2.55,2.55 A 1.0040916,1.0040916 0 1 1 17.74,9.34 l 2.55,-2.55 a 5.25,5.25 0 0 1 7.42,7.42 l -6,6 A 5.24,5.24 0 0 1 18,21.74 Z" class="cls-1" style="stroke:#0069ff;stroke-opacity:1;stroke-width:.12511928;stroke-miterlimit:4;stroke-dasharray:none;fill:#fff"/><path id="path22466" d="M 8,26.74 A 5.24,5.24 0 0 1 4.29,17.79 l 6,-6 a 5.21,5.21 0 0 1 3.71,-1.53 5.31,5.31 0 0 1 3.71,1.53 5.22,5.22 0 0 1 0.59,6.7 1.0043904,1.0043904 0 0 1 -1.64,-1.16 3.19,3.19 0 0 0 -0.37,-4.12 3.27,3.27 0 0 0 -2.29,-1 3.21,3.21 0 0 0 -2.29,1 l -6,6 a 3.24,3.24 0 0 0 4.58,4.58 l 2.55,-2.55 a 1.0040916,1.0040916 0 1 1 1.42,1.42 l -2.55,2.55 A 5.24,5.24 0 0 1 8,26.74 Z" class="cls-2" style="stroke:#0069ff;stroke-opacity:1;stroke-width:.12511928;stroke-miterlimit:4;stroke-dasharray:none;fill:#ececec"/></g></svg>