<svg xmlns="http://www.w3.org/2000/svg" xmlns:xlink="http://www.w3.org/1999/xlink" width="446.63" height="329.274" xmlns:v="https://vecta.io/nano"><style><![CDATA[.E{opacity:.65}.F{fill:#178bc4}.G{fill:#1a1a1a}.H{fill:#f4ad7d}]]></style><defs><linearGradient gradientUnits="userSpaceOnUse" y2="195.217" x2="151.815" y1="193.097" x1="83.153" id="A"><stop stop-opacity="0" stop-color="#010101" offset="0"/><stop stop-color="#010101" offset=".95"/></linearGradient><linearGradient xlink:href="#A" y2="183.765" x2="185.844" y1="179.225" x1="88.601" id="B" gradientTransform="matrix(0.36112137,-0.69397807,0.73877198,0.33922552,-111.22347,114.20909)"/><linearGradient xlink:href="#A" y2="151.378" x2="256.549" y1="167.165" x1="95.193" id="C" gradientTransform="matrix(0.36112137,-0.69397807,0.73877198,0.33922552,-98.025402,112.95772)"/><linearGradient gradientUnits="userSpaceOnUse" y2="137.558" x2="341.064" y1="152.83" x1="106.582" id="D"><stop stop-opacity="0" stop-color="#010101" offset="0"/><stop stop-opacity=".36" stop-color="#010101" offset=".36"/><stop stop-color="#010101" offset=".95"/></linearGradient><linearGradient gradientUnits="userSpaceOnUse" y2="125.889" x2="237.116" y1="126.927" x1="109.011" id="E"><stop stop-opacity="0" stop-color="#fff" offset="0"/><stop stop-opacity=".22" stop-color="#fff" offset=".07"/><stop stop-opacity=".45" stop-color="#fff" offset=".16"/><stop stop-opacity=".65" stop-color="#fff" offset=".25"/><stop stop-opacity=".8" stop-color="#fff" offset=".33"/><stop stop-opacity=".91" stop-color="#fff" offset=".4"/><stop stop-opacity=".98" stop-color="#fff" offset=".46"/><stop stop-color="#fff" offset=".51"/></linearGradient><linearGradient xlink:href="#E" y2="111.556" x2="178.164" y1="114.03" x1="106.484" id="F" gradientTransform="matrix(0.36112137,-0.69397807,0.73877198,0.33922552,-46.836632,108.18398)"/><linearGradient xlink:href="#E" y2="258.935" x2="208.935" y1="93.392" x1="211.254" id="G"/><linearGradient xlink:href="#A" y2="303.946" x2="212.06" y1="254.324" x1="209.453" id="H"/><linearGradient xlink:href="#A" y2="195.981" x2="444.247" y1="186.997" x1="325.991" id="I"/><linearGradient xlink:href="#E" y2="94.38" x2="341.499" y1="93.561" x1="329.444" id="J"/><linearGradient xlink:href="#A" y2="88.131" x2="336.648" y1="87.853" x1="332.479" id="K"/><linearGradient xlink:href="#A" y2="287.941" x2="334.707" y1="263.439" x1="334.049" id="L"/><linearGradient xlink:href="#A" y2="294.754" x2="317.611" y1="271.071" x1="343.917" id="M"/><linearGradient xlink:href="#A" y2="169.169" x2="538.5" y1="175.294" x1="328.523" id="N"/><linearGradient xlink:href="#E" y2="97.75" x2="543.64" y1="100.88" x1="442.96" id="O"/><linearGradient xlink:href="#E" y2="97.75" x2="543.64" y1="100.87" x1="442.96" id="P"/><linearGradient xlink:href="#E" y2="85.868" x2="1404.606" y1="126.615" x1="8.053" id="Q"/><linearGradient xlink:href="#E" y2="267.247" x2="128.891" y1="113.282" x1="126.285" id="R"/><linearGradient xlink:href="#E" y2="232.657" x2="206.797" y1="128.067" x1="208.261" id="S"/><linearGradient xlink:href="#A" y2="67.279" x2="262.389" y1="277.185" x1="256.887" id="T"/><linearGradient xlink:href="#A" y2="84.157" x2="261.953" y1="294.063" x1="256.443" id="U"/><linearGradient xlink:href="#A" y2="83.748" x2="261.952" y1="293.646" x1="256.443" id="V"/><linearGradient xlink:href="#E" y2="189.594" x2="279.522" y1="160.538" x1="280.221" id="W"/><linearGradient xlink:href="#E" y2="236.01" x2="279.071" y1="186.334" x1="279.77" id="X"/><linearGradient xlink:href="#E" y2="141.917" x2="127.238" y1="135.482" x1="127.329" id="Y"/><linearGradient xlink:href="#A" y2="195.081" x2="161.973" y1="192.975" x1="93.313" id="Z" gradientTransform="matrix(0.64140148,-0.48664385,0.51805504,0.60251143,-105.31106,50.11887)"/><linearGradient xlink:href="#A" y2="187.793" x2="201.174" y1="183.247" x1="103.923" id="a" gradientTransform="matrix(0.64049694,-0.48444082,0.51570981,0.60166173,-98.247432,54.25148)"/><linearGradient xlink:href="#A" y2="159.55" x2="277.041" y1="175.336" x1="115.685" id="b" gradientTransform="matrix(0.64049694,-0.48444082,0.51570981,0.60166173,-91.175562,58.39182)"/><linearGradient xlink:href="#D" y2="149.872" x2="366.722" y1="165.158" x1="132.242" id="c" gradientTransform="matrix(0.64049694,-0.48444082,0.51570981,0.60166173,-84.103702,62.53215)"/><linearGradient xlink:href="#E" y2="33.89" x2="168.938" y1="87.119" x1="99.724" id="d"/><linearGradient xlink:href="#E" y2="135.838" x2="218.656" y1="138.31" x1="146.991" id="e" gradientTransform="matrix(0.64049694,-0.48444082,0.51570981,0.60166173,-63.792656,74.46651)"/><linearGradient xlink:href="#E" y2="198.542" x2="167.066" y1="198.133" x1="151.632" id="f"/><linearGradient xlink:href="#A" y2="147.031" x2="102.503" y1="142.743" x1="62.506" id="g"/><linearGradient xlink:href="#A" y2="115.284" x2="109.061" y1="88.71" x1="81.112" id="h"/><linearGradient xlink:href="#A" y2="274.44" x2="243.52" y1="367.84" x1="263.61" id="i"/><linearGradient xlink:href="#A" y2="310.141" x2="156.907" y1="258.279" x1="223.424" id="j"/><path id="k" d="M75.879 168.367l6.732-13.773 22.164 10.834-6.732 13.773z"/><path id="l" d="M450.65 99.23h13.75v2.38h-13.75z"/><path id="m" d="M249.25 246.71h-37.23v-35.47h37.23zm-33.48-3.75h29.73v-28h-29.73z"/><path id="n" d="M87.414 161.871l11.957-9.658 15.542 19.243-11.957 9.658z"/><path id="o" d="M98.68 152.43l11.941-9.614 15.472 19.215-11.941 9.614z"/><path id="p" d="M291.25 362.2c-.23 6-4.85 28.05-5 34.06 0 2 .53 5.07-.11 7-1.32 4.09-6 3.53-6.61 1.12l-.23-1.2c-2.17-11.68 1.32-24.93 0-40.18-.79-9.31-4.47-27.26-6.88-27.38-1.27 0-30.26 61.52-32.78 65.31-1.24 1.91-4.73 1.61-6.42 3.15s14.08-46.64 20.69-72.1a81.06 81.06 0 0 0 3-16.11c.18-3.15-.83-4.21 2.06-5.14 2-.64 4.77-.46 6.91-.61 2.33-.18 24-.22 24 1.32-.21 8.36 1.93 36.9 1.37 50.76z"/><linearGradient xlink:href="#A" id="q" gradientTransform="matrix(0.36112137,-0.69397807,0.73877198,0.33922552,-124.42154,115.46046)"/><linearGradient xlink:href="#D" id="r" gradientTransform="matrix(0.36112137,-0.69397807,0.73877198,0.33922552,-84.819112,111.71408)"/><linearGradient xlink:href="#E" id="s" gradientTransform="matrix(0.36112137,-0.69397807,0.73877198,0.33922552,-60.034701,109.43535)"/><linearGradient xlink:href="#E" id="t" x1="442.96" y1="100.87" x2="543.64" y2="97.74"/><linearGradient xlink:href="#E" id="u" x1="442.96" y1="100.88" x2="543.64" y2="97.75"/><linearGradient xlink:href="#E" id="v" x1="442.96" y1="100.87" x2="543.64" y2="97.75"/><path id="w" d="M262.981 304.105h38.254v29.678h-38.254z"/><path id="x" d="M256.024 245.028h3.314v3.267h-3.314z"/><path id="y" d="M159.246 180.212v45.652h-8.494v-45.652a4.21 3.955 0 0 1 2.837-3.739v-4.557a1.513 1.421 0 1 1 3.026 0v4.635a4.235 3.978 0 0 1 2.631 3.661z"/></defs><path opacity=".35" d="M100.678 279.939c-18.222 1.707-37.004 3.584-53.039 11.934-2.146 1.12-4.325 2.441-5.509 4.457-2.376 4.055.321 9.401 4.506 11.842s9.35 2.719 14.275 2.92c87.708 3.561 175.547 2.163 263.328.772 25.492-.402 51.386-.865 75.817-7.763 4.391-1.236 9.218-3.09 10.871-7.13 2.163-5.284-2.771-11.139-8.527-12.784s-11.899-.417-17.852.301c-20.673 2.495-41.527-1.321-62.109-4.372-40.293-5.963-82.099-10.814-122.911-11.718-13.913-.301-25.796 4.194-39.413 5.971-19.661 2.58-39.668 3.715-59.437 5.569z" class="F"/><path fill="#fff" d="M29.601 120.412L75.035 33.37l27.06 12.463-45.434 87.042z"/><use xlink:href="#k" transform="matrix(.82231 0 0 .772451 -22.266022 -12.326033)" class="F"/><path fill="url(#q)" d="M40.13 117.729l5.536-10.639 18.226 8.369-5.536 10.639z"/><use xlink:href="#k" x="6.733" y="-13.665" transform="matrix(.82231 0 0 .772451 -22.266022 -12.326033)" class="F"/><path fill="url(#B)" d="M45.667 107.174l5.536-10.639 18.226 8.369-5.536 10.639z"/><use xlink:href="#k" x="13.457" y="-27.334" transform="matrix(.82231 0 0 .772451 -22.266022 -12.326033)" class="F"/><path fill="url(#C)" d="M51.196 96.615l5.536-10.639 18.226 8.369-5.536 10.639z"/><use xlink:href="#k" x="20.201" y="-40.99" transform="matrix(.82231 0 0 .772451 -22.266022 -12.326033)" class="F"/><path fill="url(#r)" d="M56.741 86.067l5.536-10.639 18.226 8.369-5.536 10.639z"/><g transform="matrix(.82231 0 0 .772451 -22.266022 -12.326033)" class="F"><use xlink:href="#k" x="26.929" y="-54.668"/><use xlink:href="#k" x="33.662" y="-68.323"/><use xlink:href="#k" x="40.387" y="-81.993"/></g><path fill="url(#s)" d="M67.188 66.277l5.536-10.639 18.226 8.369-5.536 10.639z"/><path fill="url(#F)" d="M72.729 55.714l5.536-10.639 18.226 8.369-5.536 10.639z"/><use xlink:href="#w" x="-72.268" y="-66.327" class="F"/><use xlink:href="#w" fill="#999" x="-72.268" y="-66.327"/><rect rx="7.705" height="131.123" width="202.987" y="111.282" x="109.041" class="G"/><path fill="url(#G)" d="M305.885 122.822v108.313a7.203 6.767 0 0 1-7.195 6.79H121.466a7.212 6.774 0 0 1-7.195-6.79V122.822a7.212 6.774 0 0 1 7.195-6.79H298.69a7.203 6.767 0 0 1 7.195 6.79z" class="E"/><path d="M172.745 264.458h80.858v7.894h-80.858z" class="G"/><path fill="url(#H)" d="M190.754 260.372h38.254v4.187h-38.254z"/><path fill="#fff" d="M251.596 55.348v-7.547h-5.337a22.737 21.358 0 0 0-3.371-7.392L247 36.547l-5.649-5.361-4.112 3.8a23.082 21.683 0 0 0-9.045-3.715v-5.307h-8.026v5.191a21.75 20.431 0 0 0-9.045 3.221l-3.289-3.221-5.806 5.253 3.215 3.128a22.498 21.134 0 0 0-4.112 8.265h-5.756v7.547h5.559a22.696 21.32 0 0 0 4.046 9.687l-3.462 3.19 5.682 5.407 3.487-3.252a22.564 21.196 0 0 0 9.547 3.515v4.781h8.026v-4.897a23.025 21.629 0 0 0 8.527-3.368l4.169 4.063 5.806-5.253-4.235-4.117a22.498 21.134 0 0 0 4.112-9.717zm-27.885 9.949c-7.48-.008-13.536-5.712-13.527-12.738s6.08-12.715 13.56-12.707 13.536 5.712 13.527 12.738a13.519 12.699 0 0 1-13.56 12.707z"/><path fill="#2a7fff" d="M281.027 65.444l.362-4.465-3.166-.216a13.247 12.444 0 0 0-1.645-4.519l2.631-2.109-3.092-3.406-2.607 2.078a13.552 12.73 0 0 0-5.148-2.572l.255-3.144-4.745-.332-.247 3.09a12.992 12.205 0 0 0-5.485 1.545l-1.784-2.039-3.684 2.858 1.752 1.985a13.437 12.622 0 0 0-2.804 4.72l-3.396-.239-.354 4.457 3.199.232a13.412 12.599 0 0 0 1.932 5.894l-2.196 1.746 3.1 3.407 2.22-1.777a13.379 12.568 0 0 0 5.477 2.48l-.23 2.827 4.745.332.238-2.897a13.683 12.854 0 0 0 5.197-1.63l2.27 2.572 3.684-2.858-2.311-2.619a13.289 12.483 0 0 0 2.87-5.569zm-16.956 4.696c-4.417-.319-7.725-3.94-7.388-8.09s4.19-7.259 8.608-6.944 7.73 3.932 7.397 8.082a8.009 7.524 0 0 1-8.618 6.952z"/><path d="M342.018 102.483v178.436a7.162 6.728 0 0 1-7.138 6.705h-.822a7.138 6.705 0 0 1-7.105-6.705V102.483l7.162-17.689z" opacity=".984" class="F"/><path fill="url(#I)" d="M333.885 102.468h8.116v170.874h-8.116z"/><path fill="url(#J)" d="M342.075 102.746l-15.13-.263 7.162-17.697 2.747 6.18z" class="E"/><path fill="url(#K)" d="M336.853 90.966h-5.246l2.5-6.18z"/><path fill="url(#L)" d="M326.607 270.484h15.435v6.126h-15.435z"/><path fill="url(#M)" d="M342.018 275.404v5.538a7.162 6.728 0 0 1-7.138 6.705h-.822a7.138 6.705 0 0 1-7.105-6.705v-5.538z"/><path fill="#f9f9f9" d="M348.234 61.088h40.573v227.054h-40.573z"/><path fill="url(#N)" d="M348.234 60.678h21.306v227.464h-21.306z"/><g transform="matrix(.82231 0 0 .772451 -22.266022 -12.326033)"><use xlink:href="#l" fill="url(#t)" class="E"/><use xlink:href="#l" y="7.27" fill="url(#t)" class="E"/><use xlink:href="#l" y="14.53" fill="url(#u)" class="E"/><use xlink:href="#l" y="21.8" fill="url(#u)" class="E"/><use xlink:href="#l" y="29.07" fill="url(#u)" class="E"/><use xlink:href="#l" y="36.34" fill="url(#v)" class="E"/><use xlink:href="#l" y="43.61" fill="url(#v)" class="E"/><use xlink:href="#l" y="50.88" fill="url(#v)" class="E"/><use xlink:href="#l" y="58.15" fill="url(#v)" class="E"/><use xlink:href="#l" y="65.42" fill="url(#t)" class="E"/><use xlink:href="#l" y="72.69" fill="url(#t)" class="E"/><use xlink:href="#l" y="79.96" fill="url(#t)" class="E"/><use xlink:href="#l" y="87.23" fill="url(#t)" class="E"/><use xlink:href="#l" y="94.5" fill="url(#t)" class="E"/><use xlink:href="#l" y="101.77" fill="url(#t)" class="E"/><use xlink:href="#l" y="109.04" fill="url(#t)" class="E"/><use xlink:href="#l" y="116.3" fill="url(#u)" class="E"/><use xlink:href="#l" y="123.57" fill="url(#u)" class="E"/><use xlink:href="#l" y="130.84" fill="url(#v)" class="E"/><use xlink:href="#l" y="138.11" fill="url(#v)" class="E"/><use xlink:href="#l" y="145.38" fill="url(#v)" class="E"/><use xlink:href="#l" y="152.65" fill="url(#v)" class="E"/><use xlink:href="#l" y="159.92" fill="url(#v)" class="E"/><use xlink:href="#l" y="167.19" fill="url(#t)" class="E"/><use xlink:href="#l" y="174.46" fill="url(#t)" class="E"/><use xlink:href="#l" y="181.73" fill="url(#t)" class="E"/><use xlink:href="#l" y="189" fill="url(#t)" class="E"/><use xlink:href="#l" y="196.27" fill="url(#t)" class="E"/><use xlink:href="#l" y="203.54" fill="url(#t)" class="E"/><use xlink:href="#l" y="210.81" fill="url(#t)" class="E"/><g fill="url(#O)"><use xlink:href="#l" y="218.07" fill="url(#u)" class="E"/><use xlink:href="#l" y="225.34" class="E"/></g><g fill="url(#P)"><use xlink:href="#l" y="232.61" fill="url(#v)" class="E"/><use xlink:href="#l" y="239.88" fill="url(#v)" class="E"/><g fill="url(#v)"><use xlink:href="#l" y="247.15" class="E"/><use xlink:href="#l" y="254.42" class="E"/></g><use xlink:href="#l" y="261.69" class="E"/></g><use xlink:href="#l" y="268.96" fill="url(#t)" class="E"/><g fill="url(#t)"><use xlink:href="#l" y="276.23" class="E"/><use xlink:href="#l" y="283.5" class="E"/></g></g><path fill="url(#Q)" d="M305.885 122.822v2.379H114.287v-2.379a7.212 6.774 0 0 1 7.195-6.79H298.69a7.203 6.767 0 0 1 7.195 6.79z"/><path fill="url(#R)" d="M118.259 136.641h18.255v83.718h-18.255z"/><path fill="url(#S)" d="M164.053 142.218h86.943v77.322h-86.943z"/><use xlink:href="#x" fill="#ccc" x="-72.268" y="-66.327"/><use xlink:href="#x" y="-81.706" fill="url(#T)" x="-72.268"/><use xlink:href="#x" x="-109.28" fill="#e6e6e6" y="-66.327"/><use xlink:href="#x" x="-109.28" y="-81.706" fill="#f9f9f9"/><use xlink:href="#x" y="-98.592" fill="url(#U)" x="-72.268"/><use xlink:href="#x" x="-108.343" y="-98.592" fill="#fff"/><use xlink:href="#x" x="-90.005" y="-98.592" fill="url(#V)"/><use xlink:href="#x" x="-90.005" y="-66.057" fill="#e6e6e6"/><g transform="matrix(.82231 0 0 .772451 -22.266022 -12.326033)"><use xlink:href="#m" class="F"/><use xlink:href="#m" fill="#0055d4"/></g><path fill="url(#W)" d="M260.305 164.459h39.125v21.498h-39.125z"/><path fill="url(#X)" d="M259.853 193.038h39.125v36.753h-39.125z"/><path fill="url(#Y)" d="M117.93 136.432h18.691v4.596H117.93z" class="E"/><path fill="#fff" d="M38.349 111.004l80.461-60.705 18.872 22.073-80.461 60.705z"/><use xlink:href="#n" transform="matrix(.82231 0 0 .772451 -22.266022 -12.326033)" class="F"/><path fill="url(#Z)" d="M49.616 112.711l9.833-7.46 12.78 14.864-9.833 7.46z"/><use xlink:href="#o" transform="matrix(.82231 0 0 .772451 -22.266022 -12.326033)" class="F"/><path fill="url(#a)" d="M58.88 105.419l9.819-7.426 12.723 14.843-9.819 7.426z"/><use xlink:href="#o" x="11.899" y="-9.518" transform="matrix(.82231 0 0 .772451 -22.266022 -12.326033)" class="F"/><path fill="url(#b)" d="M68.664 98.066l9.819-7.426 12.723 14.843-9.819 7.426z"/><use xlink:href="#o" x="23.789" y="-19.03" transform="matrix(.82231 0 0 .772451 -22.266022 -12.326033)" class="F"/><path fill="url(#c)" d="M78.442 90.719l9.819-7.426 12.723 14.843-9.819 7.426z"/><g transform="matrix(.82231 0 0 .772451 -22.266022 -12.326033)" class="F"><use xlink:href="#n" x="47.515" y="-38.242"/><use xlink:href="#n" x="59.478" y="-47.985"/><use xlink:href="#o" x="59.473" y="-47.59"/></g><path fill="url(#d)" d="M119.344 84.477l-8.404 6.196-12.721-14.846 8.404-6.195z"/><path fill="url(#e)" d="M106.625 69.615l9.819-7.426 12.723 14.843-9.819 7.426z"/><use xlink:href="#y" x="-72.268" y="-66.327" class="F"/><use xlink:href="#y" fill="url(#f)" opacity=".941" x="-72.268" y="-66.327"/><g transform="matrix(.82231 0 0 .772451 -22.266022 -12.326033)" class="F"><rect rx="2.25" height="4.49" width="23.53" y="201.3" x="115.91"/><path d="M127.9 241.13h0c-4.09 0-7.49-6.13-7.49-10.22v-27.09h14.8v27.09c0 4.09-3.23 10.22-7.31 10.22z"/></g><rect fill="url(#g)" rx="1.85" height="3.468" width="19.349" y="143.168" x="73.048"/><path fill="url(#h)" d="M82.908 173.935h0c-3.363 0-6.159-4.735-6.159-7.894v-19.466h12.17v19.466c0 3.159-2.656 7.894-6.011 7.894z"/><path fill="#28353d" d="M161.463 196.089c-.312-1.506-.51-3.638.09-3.785 1.266-.324-.09 3.785-.09 3.785z"/><g transform="matrix(.82231 0 0 .772451 -22.266022 -12.326033)"><use xlink:href="#p" fill="#606161"/><use xlink:href="#p" fill="url(#i)"/></g><path d="M196.345 168.59c-.148-1.452-.872-2.24-1.579-2.24s-1.143.772-.995 2.24a2.36 2.217 0 0 0 2.039 2.132c.715 0 .691-.68.534-2.132zm13.124.085c.099-1.452.822-2.24 1.571-2.24s1.233.772 1.118 2.24a2.294 2.155 0 0 1-2.056 2.124c-.74 0-.748-.672-.633-2.124z" fill="#ffcd9c"/><path d="M210.489 174.839c-.099.772-3.495 4.156-7.36 4.156s-7.055-3.09-7.73-4.326 2.039-17.133 3.61-18.462 7.935-.456 8.47.247c1.283 1.661 3.429 15.302 3.01 18.384z" class="H"/><path d="M208.927 163.105c-.559.247-2.755-4.905-3.215-5.77s-.386-1.753.173-2.001 1.381.263 1.842 1.12 1.752 6.411 1.201 6.651zm-11.833-.386c-.584-.178.962-5.407 1.299-6.311s1.094-1.499 1.645-1.321.781 1.058.444 1.97-2.837 5.84-3.388 5.662z" fill="#ffcd9c"/><g class="H"><path d="M198.878 174.476h8.725l1.307 7.238c-4.753 2.24-7.524 1.993-11.233-.494z"/><path d="M202.332 175.851c0-.147.312-.27.691-.27s.691.124.691.27-.304.17-.691.17-.691-.015-.691-.17z"/></g><path d="M211.631 172.205c.326-1.777.86-14.499-.447-16.183s-9.133-2.773-10.319-2.51c-2.657.587-2.193 2.317-2.193 2.317a4.575 4.109 0 0 0-2.244.564c-.912.556-2.83 8.574-1.298 14.638.688 2.727 3.397 5.098 8.075 5.214 5.762.139 8.032-1.838 8.428-4.04z" class="G"/><path fill="#2a7fff" d="M187.111 180.593a8.174 7.678 0 0 0-3.799 1.228c-1.949 1.437-2.097 4.117-2.064 6.45a58.03 54.512 0 0 0 .715 9.656c.584 2.928 1.645 5.739 2.516 8.605a59.321 55.725 0 0 1 2.146 14.314c0 2.657-.049 5.577 1.719 7.655 1.932 2.256 5.353 2.696 8.429 2.858a140.15 140.15 0 0 0 13.116.1c2.927-.124 6.044-.394 8.363-2.078 1.85-1.344 6.184-46.818 2.821-47.969s-6.981-1.444-10.55-1.723c-8.001-.633-15.533-1.136-23.411.904z"/><path fill="url(#j)" d="M211.451 275.226c-.428 5.168-1.447 23.946-1.447 23.946l-2.599-.085c-1.784-9.022 1.085-19.257 0-31.037-.65-7.192-3.676-21.057-5.657-21.15.592-4.635 3.922-3.94 3.922-3.94a72.133 67.759 0 0 1 6.241 10.76c1.982 4.882-.025 16.314-.46 21.505z"/><path d="M162.483 299.172a2.607 2.449 0 0 0-.888 1.128 1.867 1.753 0 0 0 .107 1.105 3.388 3.182 0 0 0 2.36 1.723 9.933 9.331 0 0 0 3.084.1l3.289-.209a9.087 8.536 0 0 0 2.467-.378 3.034 2.85 0 0 0 1.826-1.483 4.243 3.986 0 0 0 .222-1.63c0-2.557-.954-4.635-3.931-4.009a19.596 18.407 0 0 0-8.536 3.654zm54.618 1.012a2.302 2.163 0 0 1 .781.996 1.645 1.545 0 0 1-.09.966 2.944 2.765 0 0 1-2.072 1.506 8.519 8.003 0 0 1-2.705.093l-2.862-.185a7.911 7.431 0 0 1-2.146-.324 2.648 2.487 0 0 1-1.595-1.305 3.774 3.546 0 0 1-.197-1.429c0-2.24.822-4.086 3.445-3.515a17.112 16.075 0 0 1 7.442 3.198z"/><path d="M221.072 181.397s12.54 7.107 16.306 16.09-12.335 30.635-12.335 30.635l-3.445-3.406s8.404-16.337 7.105-20.424-6.389-7.894-6.389-7.894zM184.2 195.579s-17.828 7.493-25.072 3.816.214-22.146.214-22.146l4.852 1.545s-4.054 9.416.584 10.814 18.535-7.786 18.535-7.786z" fill="#59f"/><path d="M217.767 227.265a3.651 3.43 0 0 0-1.176 1.275 3.289 3.09 0 0 0-.173 1.352 3.939 3.7 0 0 0 1.365 2.897 4.638 4.357 0 0 0 2.056.572 3.865 3.631 0 0 0 1.34 0 1.357 1.275 0 0 0 1.003-.772 3.289 3.09 0 0 0 .074-.772c.058-1.275 1.011-2.317 1.801-3.36a1.455 1.367 0 0 0 .354-.718 1.406 1.321 0 0 0-.312-.811c-.534-.726-1.858-2.062-2.919-1.947s-2.59 1.653-3.413 2.286zm-50.621-52.372a2.804 2.634 0 0 0 .444-1.012.954.896 0 0 0-.502-.919c-.567-.209-1.242.34-1.801.108a1.258 1.182 0 0 1-.46-.417 6.217 5.84 0 0 1-1.094-3.043 6.578 6.18 0 0 0-.164-1.73 1.307 1.228 0 0 0-1.398-.904c-.526.116-.822.618-1.151 1.02s-.987.881-1.414 1.383a7.277 6.836 0 0 0-1.209 3.468c-.23 1.545-.378 3.314.773 4.426.888.857 3.593 1.869 4.835 1.414 1.373-.51 2.45-2.68 3.141-3.793z" class="H"/></svg>