<svg xmlns="http://www.w3.org/2000/svg" xmlns:svg="http://www.w3.org/2000/svg" xmlns:xlink="http://www.w3.org/1999/xlink" id="Layer_1" width="377.555" height="385.727" x="0" y="0" version="1.1" viewBox="0 0 377.555 385.727" xml:space="preserve"><metadata id="metadata188"/><defs id="defs186"><linearGradient id="linearGradient8694" x1="-506.288" x2="490.369" y1="135.105" y2="244.6" gradientUnits="userSpaceOnUse" xlink:href="#linearGradient8692"/><linearGradient id="linearGradient8692"><stop style="stop-color:#0684ff;stop-opacity:1" id="stop943" offset="0"/><stop style="stop-color:#0684ff;stop-opacity:0" id="stop945" offset="1"/></linearGradient><linearGradient id="linearGradient2174" x1="-506.288" x2="490.369" y1="135.105" y2="244.6" gradientUnits="userSpaceOnUse" xlink:href="#linearGradient8692"/><linearGradient id="linearGradient2176" x1="-506.288" x2="490.369" y1="135.105" y2="244.6" gradientUnits="userSpaceOnUse" xlink:href="#linearGradient8692"/><linearGradient id="linearGradient2178" x1="-506.288" x2="490.369" y1="135.105" y2="244.6" gradientUnits="userSpaceOnUse" xlink:href="#linearGradient8692"/><linearGradient id="linearGradient2180" x1="-506.288" x2="490.369" y1="135.105" y2="244.6" gradientUnits="userSpaceOnUse" xlink:href="#linearGradient8692"/><linearGradient id="linearGradient2182" x1="-506.288" x2="490.369" y1="135.105" y2="244.6" gradientUnits="userSpaceOnUse" xlink:href="#linearGradient8692"/><linearGradient id="linearGradient2184" x1="-506.288" x2="490.369" y1="135.105" y2="244.6" gradientUnits="userSpaceOnUse" xlink:href="#linearGradient8692"/><linearGradient id="linearGradient2186" x1="-506.288" x2="490.369" y1="135.105" y2="244.6" gradientUnits="userSpaceOnUse" xlink:href="#linearGradient8692"/></defs><g transform="matrix(0.53103161,0,0,0.50471994,62.401925,69.409144)" style="fill:url(#linearGradient8694);fill-opacity:1;stroke:#06f;stroke-width:4.84023;stroke-miterlimit:4;stroke-dasharray:none;stroke-opacity:1" id="g263"><g style="fill:url(#linearGradient2186);fill-opacity:1;stroke:#06f;stroke-width:4.84023;stroke-miterlimit:4;stroke-dasharray:none;stroke-opacity:1" id="g261"><g style="fill:url(#linearGradient2184);fill-opacity:1;stroke:#06f;stroke-width:4.84023;stroke-miterlimit:4;stroke-dasharray:none;stroke-opacity:1" id="g259"><path style="fill:url(#linearGradient2174);fill-opacity:1;stroke:#06f;stroke-width:4.84023;stroke-miterlimit:4;stroke-opacity:1" id="polygon249" d="M136.7,367.7L182.1,288.9L136.7,210L45.4,210L0,288.9L45.4,367.7Z" class="bsBbRVrQ_0"/><path style="fill:url(#linearGradient2176);fill-opacity:1;stroke:#06f;stroke-width:4.84023;stroke-miterlimit:4;stroke-opacity:1" id="polygon251" d="M335.8,200.3L290,121.5L199.2,121.5L153.7,200.3L199.2,279.2L290,279.2Z" class="bsBbRVrQ_1"/><path style="fill:url(#linearGradient2178);fill-opacity:1;stroke:#06f;stroke-width:4.84023;stroke-miterlimit:4;stroke-opacity:1" id="polygon253" d="M290,298.6L199.2,298.6L153.7,377.4L199.2,456.6L290,456.6L335.8,377.4Z" class="bsBbRVrQ_2"/><path style="fill:url(#linearGradient2180);fill-opacity:1;stroke:#06f;stroke-width:4.84023;stroke-miterlimit:4;stroke-opacity:1" id="polygon255" d="M45.4,190.6L136.7,190.6L182.1,111.8L136.7,32.6L45.4,32.6L0,111.8Z" class="bsBbRVrQ_3"/><path style="fill:url(#linearGradient2182);fill-opacity:1;stroke:#06f;stroke-width:4.84023;stroke-miterlimit:4;stroke-opacity:1" id="polygon257" d="M443.8,32.6L352.5,32.6L307.1,111.4L352.5,190.6L443.8,190.6L489.2,111.8Z" class="bsBbRVrQ_4"/></g></g></g><g id="g1489" fill="#000" stroke="none" transform="matrix(0.02689119,0,0,-0.03424314,244.21115,211.2503)" style="mix-blend-mode:normal;fill:#1a1a1a;fill-opacity:1;stroke:#07f;stroke-width:41.3573;stroke-miterlimit:4;stroke-dasharray:none;stroke-opacity:1"><path id="path1483" d="M 920,410 765,160 H 582 398 l 23,38 c 13,20 36,57 51,82 16,25 25,46 20,48 -5,1 -96,-35 -202,-82 L 98,162 60,102 C 39,69 17,33 11,21 L -1,0 h 483 l 483,1 200,321 c 110,177 202,325 203,330 2,4 -63,8 -145,8 h -148 z" style="fill:#1a1a1a;fill-opacity:1;stroke:#07f;stroke-width:41.3573;stroke-miterlimit:4;stroke-opacity:1" class="bsBbRVrQ_5"/><path id="path1485" d="M 1529,573 1333,488 1189,257 C 1110,131 1041,21 1037,13 1030,2 1140,0 1704,0 h 674 l 201,321 c 111,176 201,325 201,330 0,5 -62,9 -144,9 H 2492 L 2345,423 c -81,-131 -153,-244 -160,-251 -8,-9 -41,-12 -118,-10 l -107,3 146,235 c 80,129 148,241 151,248 7,16 -2,13 -224,-85 L 1860,487 1757,324 1655,160 h -113 -112 l 48,78 c 215,342 253,405 250,412 -2,5 -91,-30 -199,-77 z" style="fill:#1a1a1a;fill-opacity:1;stroke:#07f;stroke-width:41.3573;stroke-miterlimit:4;stroke-opacity:1" class="bsBbRVrQ_6"/><path id="path1487" d="m 2730,458 c -69,-111 -126,-205 -128,-210 -2,-4 175,-8 392,-8 h 396 l -26,-40 -27,-40 h -388 c -305,0 -389,-3 -389,-12 0,-7 21,-43 46,-81 l 46,-67 h 443 443 l 126,201 c 69,110 126,202 126,205 0,2 -178,4 -395,4 h -395 l 23,38 24,37 387,3 c 447,3 422,-6 340,108 l -45,64 h -437 -437 z" style="fill:#1a1a1a;fill-opacity:1;stroke:#07f;stroke-width:41.3573;stroke-miterlimit:4;stroke-opacity:1" class="bsBbRVrQ_7"/></g><style data-made-with="vivus-instant">@keyframes bsBbRVrQ_fade{0%,94.44444444444444%{stroke-opacity:1}}@keyframes bsBbRVrQ_draw_0{11.11111111111111%{stroke-dashoffset:548}38.88888888888889%{stroke-dashoffset:0}}@keyframes bsBbRVrQ_draw_1{13.095238095238097%{stroke-dashoffset:548}40.87301587301588%{stroke-dashoffset:0}}@keyframes bsBbRVrQ_draw_2{15.07936507936508%{stroke-dashoffset:548}42.85714285714286%{stroke-dashoffset:0}}@keyframes bsBbRVrQ_draw_3{17.06349206349206%{stroke-dashoffset:549}44.841269841269835%{stroke-dashoffset:0}}@keyframes bsBbRVrQ_draw_4{19.04761904761905%{stroke-dashoffset:549}46.82539682539682%{stroke-dashoffset:0}}@keyframes bsBbRVrQ_draw_5{21.03174603174603%{stroke-dashoffset:3795}48.80952380952381%{stroke-dashoffset:0}}@keyframes bsBbRVrQ_draw_6{23.015873015873016%{stroke-dashoffset:6382}50.79365079365079%{stroke-dashoffset:0}}@keyframes bsBbRVrQ_draw_7{25%{stroke-dashoffset:6394}52.77777777777778%{stroke-dashoffset:0}}.bsBbRVrQ_0{animation:bsBbRVrQ_draw_0 7200ms linear 0ms infinite,bsBbRVrQ_fade 7200ms linear 0ms infinite}.bsBbRVrQ_0,.bsBbRVrQ_1,.bsBbRVrQ_2{stroke-dasharray:547 549;stroke-dashoffset:548}.bsBbRVrQ_1{animation:bsBbRVrQ_draw_1 7200ms linear 0ms infinite,bsBbRVrQ_fade 7200ms linear 0ms infinite}.bsBbRVrQ_2{animation:bsBbRVrQ_draw_2 7200ms linear 0ms infinite,bsBbRVrQ_fade 7200ms linear 0ms infinite}.bsBbRVrQ_3,.bsBbRVrQ_4{stroke-dasharray:548 550;stroke-dashoffset:549;animation:bsBbRVrQ_draw_3 7200ms linear 0ms infinite,bsBbRVrQ_fade 7200ms linear 0ms infinite}.bsBbRVrQ_4{animation:bsBbRVrQ_draw_4 7200ms linear 0ms infinite,bsBbRVrQ_fade 7200ms linear 0ms infinite}.bsBbRVrQ_5{stroke-dasharray:3794 3796;stroke-dashoffset:3795;animation:bsBbRVrQ_draw_5 7200ms linear 0ms infinite,bsBbRVrQ_fade 7200ms linear 0ms infinite}.bsBbRVrQ_6{stroke-dasharray:6381 6383;stroke-dashoffset:6382;animation:bsBbRVrQ_draw_6 7200ms linear 0ms infinite,bsBbRVrQ_fade 7200ms linear 0ms infinite}.bsBbRVrQ_7{stroke-dasharray:6393 6395;stroke-dashoffset:6394;animation:bsBbRVrQ_draw_7 7200ms linear 0ms infinite,bsBbRVrQ_fade 7200ms linear 0ms infinite}</style></svg>