<svg xmlns="http://www.w3.org/2000/svg" xmlns:xlink="http://www.w3.org/1999/xlink" height="689.787" width="762" xmlns:v="https://vecta.io/nano"><style><![CDATA[.J{opacity:.1}.K{fill:#fdc2cc}.L{fill:#fff}.M{fill:#e6e6f0}.N{opacity:.05}.O{fill:#565171}.P{fill:#00aad4}.Q{fill:#80b3ff}.R{fill:#714b4f}]]></style><defs><linearGradient gradientUnits="userSpaceOnUse" y2="286.038" x2="545.628" y1="481.86" x1="545.628" id="A"><stop stop-opacity=".25" stop-color="gray" offset="0"/><stop stop-opacity=".12" stop-color="gray" offset=".54"/><stop stop-opacity=".1" stop-color="gray" offset="1"/></linearGradient><path id="B" d="M310.382 324.381s22.804 4.928 27.087 10.411c0 0 3.899 2.996 0 8.451s-9.353 17.786-9.353 17.786-3.899 11.973-5.454 12.852-10.525 1.585-11.306-1.735c0 0 5.064-7.219 5.064-10.568s8.38-19.192 8.38-19.192-19.097-1.938-25.141-.706 2.734-19.238 10.723-17.3z"/><path id="C" d="M299.665 271.404l20.851-10.915s.39 10.568 2.727 12.147c0 0-8.572 2.314-11.889 7.219z"/><path id="D" d="M318.179 253.548c-.839 1.897-3.342 2.614-5.538 3.106-3.137.694-6.517 1.377-9.52.301a2.081 1.88 0 0 0-1.28-.226 1.703 1.539 0 0 0-.845.665c-3.31 4.257-2.772 9.931-3.63 15.079-.269 1.602-.724 3.256-1.921 4.454-2.33 2.314-6.728 2.227-8.873 4.685-1.415 1.62-1.428 3.87-1.415 5.935q0 3.303-.064 6.611c-.038 1.446-.115 2.944-.839 4.228-1.229 2.175-3.969 3.21-6.498 4.049-1.575.532-3.201 1.07-4.891.925s-3.38-1.157-3.598-2.684c-.301-2.071 2.062-3.517 3.688-5.009 2.599-2.377 3.668-5.836 3.764-9.179a10.883 9.833 0 0 0-.64-3.974c-.595-1.313-1.658-2.418-2.298-3.713-1.972-3.991.461-8.607 3.374-12.1s6.492-6.9 7.113-11.233a17.241 15.577 0 0 1 .442-2.782c.448-1.261 1.511-4.743 2.683-5.541a13.937 12.592 0 0 1 6.402-2.406c1.799-.237 3.636-.15 5.423-.463 2.087-.364 4.027-1.261 6.114-1.596 4.513-.723 9.411 4.014 11.389 7.751.544 1.145 1.972 1.955 1.46 3.118z"/><path id="E" d="M512.895 338.147s5.314 16.196 8.412 18.203 21.92 12.205 27.458 9.804c0 0 1.332 6.004-.64 7.404l-20.813-.798s-13.508-1.602-15.723-7.6-4.872-16.196-4.872-16.196z"/><path id="F" d="M216.567 377.699s-24.571 3.083-29.692 2.157l-13.649-11.719s-12.97 8.942 7.51 14.802l38.22 4.008z"/><path id="G" d="M240.811 504.424c-1.78 1.984-4.289 2.747-6.914 2.863-5.967.255-12.535-2.863-12.535-2.863 4.437-3.389-6.824-33.299-6.824-33.299-9.213-4.008-8.534-12.951-8.534-12.951l2.983-48.529.755-12.193 9.558-5.24 7.529 5.206 7.145 4.951a28.719 25.948 0 0 1 .896 4.812c.832 11.331-9.084 13.998-9.084 13.998s4.097 11.406.339 21.893 2.727 19.736 2.727 19.736 12.285 32.067 10.243 33.918 1.716 7.699 1.716 7.699z"/></defs><path fill="#ccc" d="M690.398 563.201H70.892A40.156 29.944 0 0 1 30.78 533.29V170.46a29.419 21.938 0 0 1 29.385-21.913h640.449a29.928 22.317 0 0 1 29.894 22.292V533.29a40.156 29.944 0 0 1-40.111 29.911z"/><path d="M85.746 548.449h588.168a42.231 31.391 0 0 0 42.231-31.391V215.804a42.231 31.391 0 0 0-42.231-31.391H85.746a42.231 31.391 0 0 0-42.231 31.391v301.254a42.231 31.391 0 0 0 42.231 31.391z" class="L"/><path fill="#06f" d="M730.735 169.98h-700v-22.484a40.306 44.359 0 0 1 40.272-44.295h619.455a40.306 44.359 0 0 1 40.272 44.295z"/><path d="M520.213 260.871s-14.533 6.941-29.148-20.597m-35.147 32.865s30.813-1.001 32.567-13.35" stroke-width="1.217" stroke-miterlimit="10" stroke="#535461" fill="none"/><path d="M312.328 371.747l-2.145 2.817 2.561 3.17c.224.353 6.818-.174 6.818-.174l.583-2.111-.973-2.464z" class="M"/><path d="M235.933 370.862l2.727 4.76 2.926 1.406 2.727 1.758.781-1.932-1.953-3.702-2.919-2.99z" class="K"/><use xlink:href="#B" class="O"/><g fill="#d400aa"><use xlink:href="#B" opacity=".882"/><path d="M305.702 329.136c-.045 1.024-.166 2.175-.339 3.413-1.248 8.965-5.314 22.298-5.314 22.298s-4.091 7.924-5.262 13.032-9.161 6.363-9.161 6.363-21.831 2.314-26.312 1.411-11.524 2.643-15.006 2.111-5.653-7.924-5.653-7.924a42.253 38.175 0 0 0 17.542-3.343c8.963-3.696 21.831-1.938 21.831-1.938a7.33 6.623 0 0 0 4.481-3.343c1.364-2.643 1.364-18.665.973-19.724-2.561-6.941-2.349-11.395-1.613-13.992a7.727 6.981 0 0 1 1.613-3.089z"/></g><path d="M305.702 329.136c-.045 1.024-.166 2.175-.339 3.413-1.959.139-7.452.272-11.524-2.001-3.841-2.129-9.43-2.852-11.946-3.077a7.727 6.981 0 0 1 1.613-3.089z" class="J"/><path d="M308.397 326.932c-.909 2.314-2.305 5.026-2.305 5.026s-7.209.879-12.279-1.938-13.252-3.17-13.252-3.17c1.325-.735 2.222-2.967 2.779-4.922a34.526 31.194 0 0 0 .73-3.355s23.969 4.402 24.968 5.107c.371.278-.025 1.677-.64 3.251z" class="M"/><path d="M351.111 252.715l-29.071 15.854-2.887 1.573v-7.745l2.004-.868 24.5-10.579s1.172-19.192 4.289-16.196 1.165 17.96 1.165 17.96z" class="K"/><path d="M322.039 268.57l-2.887 1.573v-7.745l2.004-.868a63.085 56.997 0 0 0 .884 7.039z" class="J"/><use xlink:href="#C" fill="#b45181"/><use xlink:href="#C" opacity=".861" class="P"/><path d="M350.925 280.711s-9.917 3.904-16.485 5.339a12.945 11.696 0 0 1-4.565.474c-4.481-.706 1.172-5.784 1.172-5.784l2.356-.33 12.65-1.782s1.364-17.607 3.7-16.196 1.171 18.278 1.171 18.278zm-41.907-15.849s-8.38 5.634-5.262 12.679-16.178-4.228-16.178-4.228 6.236-8.451 7.599-14.79 13.841 6.339 13.841 6.339z" class="K"/><path d="M308.397 326.932a44.174 39.911 0 0 0-11.267-2.372c-5.634-.578-10.794-1.556-13.784-2.632a34.526 31.194 0 0 0 .73-3.355s23.969 4.402 24.968 5.107c.365.278-.031 1.677-.647 3.251zm26.037-40.883a12.945 11.696 0 0 1-4.565.474c-4.481-.706 1.172-5.784 1.172-5.784l2.356-.33c.986 1.371 1.991 3.511 1.037 5.64z" class="J"/><path d="M295.375 268.032s-7.599-.174-10.327 2.643-2.145 10.411-2.145 10.411-.57 15.207 3.7 23.715a1.28 1.157 0 0 1 .045.873c-.045.104-.045.041-.045.041s-2.727 11.094-5.454 13.032 5.845 4.228 16.005 5.281 14.225 3.696 14.225 3.696 1.754-1.735 1.921-5.634-2.708-32.223-2.708-32.223 10.717 2.464 17.151-.526c0 0 2.926 1.411 5.653-2.464s-1.921-8.098-1.921-8.098-4.289 3.875-16.178-1.232-16.229-9.688-19.923-9.515z" class="P"/><path d="M237.104 370.515h-2.337v2.996l2.337 4.755 3.316.526c.198 0 2.727-.526 2.727-.526l.781-1.232s-8.579-3.002-6.824-6.519z" class="M"/><path d="M310.382 373.332l-3.508 7.045 14.814 6.363 11.696.353s.973-2.464-2.926-3.696l-3.118-.526s-4.091-6.692-4.481-9.833c0 0-3.899.706-4.481 3.343-.01-.058-5.461 2.406-7.996-3.048z" class="P"/><path fill="#b45181" d="M235.35 369.81l-1.191.879-5.237 3.875 12.081 14.46s6.818 2.643 9.942 0c0 0 1.921-1.735-2.337-3.17 0 0-3.316.526-3.316-2.464s.781-6.16 1.921-6.866c0 0-2.926-.879-3.7-.174a12.369 11.175 0 0 0-1.562 1.938s-6.991-2.493-6.6-8.48z"/><path d="M294.793 258.875a23.687 21.401 0 0 1-.781 2.638 10.134 9.156 0 0 0 12.977 5.038 16.12 14.564 0 0 1 1.645-1.336s-12.477-12.679-13.841-6.339zm-1.076 23.519s6.043 7.219 14.814 7.398m21.306-.33c-.123-.031-.243-.072-.359-.121q-.282.133-.576.249c.316-.006.631-.048.935-.127zm2.074-9.96a9.04 9.04 0 0 0-.679-.706s-1.28 1.157-4.443 1.377c1.742.156 3.5-.074 5.122-.671zm-19.584 10.365l.038.376a42.74 42.74 0 0 0 7.798.578 44.67 44.67 0 0 1-7.836-.954zm-13.444 34.173c-10.134-1.058-18.707-3.343-16.005-5.281s5.454-13.032 5.454-13.032 0 .064.045-.04c.112-.285.096-.599-.045-.873-4.27-8.532-3.7-23.715-3.7-23.715s-.583-7.571 2.145-10.411c2.029-2.1 6.76-2.533 9.046-2.62-.213-.015-.427-.015-.64 0 0 0-7.599-.174-10.326 2.643s-2.145 10.411-2.145 10.411-.57 15.207 3.7 23.715c.141.275.157.588.045.873-.045.104-.045.04-.045.04s-2.708 11.059-5.461 12.997 5.845 4.228 16.005 5.281 14.225 3.696 14.225 3.696a4.52 4.52 0 0 0 .538-.711c-1.978-.862-6.05-2.279-12.836-2.973z" class="J"/><ellipse cy="257.643" cx="303.755" rx="10.134" ry="9.156" class="K"/><use xlink:href="#D" class="J"/><use xlink:href="#D" y="-.353" fill="#f569bc"/><path fill="#f7df1e" d="M350.925 235.594h168.481v152.21H350.925z"/><path d="M380.066 334.333l12.894-7.051c2.49 3.985 4.75 7.357 10.179 7.357 5.205 0 8.483-1.839 8.483-8.989v-48.639h15.832v48.836c0 14.813-9.603 21.558-23.636 21.558-12.663 0-20.012-5.929-23.745-13.078m55.979-1.533l12.887-6.744c3.393 5.009 7.804 8.676 15.608 8.676 6.562 0 10.743-2.961 10.743-7.051 0-4.905-4.296-6.64-11.524-9.503l-3.957-1.533c-11.421-4.39-19.001-9.908-19.001-21.558 0-10.73 9.046-18.903 23.182-18.903 10.064 0 17.285 3.17 22.503 11.441l-12.324 7.155c-2.714-4.396-5.653-6.131-10.179-6.131-4.635 0-7.58 2.655-7.58 6.131 0 4.292 2.938 6.027 9.725 8.676l3.957 1.533c13.444 5.206 21.037 10.521 21.037 22.477 0 12.876-11.197 19.926-26.248 19.926-14.724 0-24.199-6.363-28.809-14.611" fill="#1a1a1a"/><path fill="url(#A)" d="M593.31 472.276s-6.575.416-10.634-5.946a23.61 21.332 0 0 0-2.798-3.592 13.444 12.147 0 0 1-1.965-6.449c.224-4.714-5.218-30.535-5.218-30.535s.679-9.833-4.763-15.982c-3.585-4.049-8.739-15.617-11.844-23.09a1.709 1.544 0 0 0 .73.347l-.128-.642h.128l-1.607-7.976a40.256 36.371 0 0 1-5.864-8.028l.365-.069 4.814-.914s7.823-10.047 8.323-14.987h.64.903a188.218 170.054 0 0 1 21.677 1.024h0c0-.029-.051-.156-.115-.359h0a27.208 24.583 0 0 1-.704-3.025h.448l4.481-.266s15.422-15.571 9.75-18.44-11.568 12.91-11.568 12.91l-1.921.312-.519.087c.052-.069.102-.133.16-.197s-25.173-1.018-29.058-6.559c0 0-11.114-7.994-11.568-13.304a6.652 6.01 0 0 0-3.995-5.113 8.719 7.878 0 0 0-4.411-.746l-5.205.324.365.578h-.147a17.509 15.82 0 0 1-.819-2.082h.109c-.038-.145-.07-.289-.102-.434a12.247 11.065 0 0 0 9.02-13.627 4.898 4.425 0 0 0 1.53-.041c1.921-.353 3.271-2.111 3.323-3.87v-.341-.069a6.581 5.946 0 0 0-2.529-4.569c-1.037-.781-2.279-1.336-3.201-2.204-1.12-1.035-1.735-2.424-2.606-3.644a11.972 10.816 0 0 0-6.146-4.321c-1.876-.578-4.181-.636-5.621.578-.743.63-1.172 1.544-2.004 2.077-1.197.775-2.823.544-4.289.7a8.182 7.392 0 0 0-6.165 4.17 10.634 9.607 0 0 0-1.011 4.408 13.028 11.771 0 0 0 .41 3.095c.282 1.006.698 1.978 1.005 2.985.64 2.082.788 4.274 1.524 6.328a8.816 7.965 0 0 0 2.836 3.893l-.218.844c-.141 0-3.675.711-6.114 5.53-1.921 3.8-8.457 7.722-11.331 9.307a4.725 4.269 0 0 0-2.138 2.684 15.429 13.94 0 0 0-.365 3.407c-.052 2.47.519 5.888 2.714 10.221 4.987 9.833 8.617 14.136 8.617 14.136s.275 3.014.295 6.189c0 2.366-.192 4.72-.749 5.9-.474.995-.64 3.534-.602 6.438 0 5.564.602 12.823.602 12.823s1.735.301 4.417.654l1.671 26.561a14.136 12.771 0 0 1-3.201 8.873 21.728 19.631 0 0 1-4.027 3.47c-4.763 3.071-14.968 35.451-14.968 35.451s.499 0 1.319.087l-3.137 7.907s12.535 8.676 20.16 6.305a7.388 6.675 0 0 1 2.561-.324c1.504 0 4.725-1.076 2.932-2.493a116.209 104.994 0 0 1-9.776-9.185 5.198 4.697 0 0 1 .704.376v-.064l.109.064s0-.318.083-.839l-.109-.035c.231-2.129.96-7.519 2.407-8.144 1.812-.821 15.198-24.797 15.198-24.797l13.38-31.148s10.659 16.601 19.731 19.464v6.941s4.987 20.493 6.805 22.743 0 11.268 0 11.268a6.216 5.616 0 0 0 1.223.972l-1.453 7.427s10.435-.411 28.124 4.506c-.013.029 6.793-2.632 1.12-5.911zm-41.728-107.169l-2.209.497-.435.098-.076-.393a4.481 4.049 0 0 1-1.607.353 29.545 26.694 0 0 1-1.344-6.912 51.549 46.574 0 0 1-1.351-8.561c0-1.492.275-2.794.896-3.528l.736.052.512.44.038.029.263.214h0l.275.22.045.035.294.237.052.041.301.231h0l.339.255.076.058.359.26h0l.352.255.083.058.391.266.083.052.371.249.064.041.422.272.102.064.448.278h.038l.435.26.102.064.467.272.102.058.435.243.083.046.499.266.122.064.519.26h.038l.506.243.122.058.538.243.109.046.499.208.096.041.563.22.135.052.582.214h0c-3.617 3.598-5.474 11.985-5.474 11.985z"/><path d="M495.642 462.373l-4.206 10.602s11.524 7.982 19.014 6.328a20.928 18.908 0 0 1 3.438-.503c1.549-.104 4.219-1.128 2.561-2.424-5.314-4.199-12.401-12.002-12.401-12.002zm69.967-1l-1.991 10.203s10.185-.399 27.458 4.402c0 0 6.645-2.603 1.107-5.784 0 0-6.402.399-10.403-5.784s-6.402-5.402-6.402-5.402z" fill="#333"/><path d="M512.895 387.359l1.921 31.049a14.212 12.841 0 0 1-3.387 9.081 20.832 18.822 0 0 1-3.656 3.083c-4.648 3.002-14.616 34.607-14.616 34.607s11.293.578 14.392 2.603c0 0 .64-7.999 2.433-8.803s14.833-24.207 14.833-24.207l13.066-30.407s10.403 16.196 19.264 19.007v6.802s4.872 20.007 6.645 22.205 0 10.99 0 10.99 5.122 5.784 16.824-.399c0 0-3.764-3.8-3.54-8.404s-5.122-29.806-5.122-29.806.64-9.602-4.648-15.617-14.078-28.996-14.078-28.996l-6.095-11.846z" class="Q"/><path d="M495.309 465.173s9.961-31.605 14.616-34.607a20.38 20.38 0 0 0 3.841-3.285c2.272-2.485 3.416-5.656 3.201-8.873l-1.953-31.055 32.65-18.185-.442-.862-34.199 19.053 1.953 31.055c.215 3.217-.929 6.388-3.201 8.873-1.123 1.236-2.414 2.34-3.841 3.285-4.641 2.996-14.616 34.601-14.616 34.601s11.293.578 14.392 2.603c0 0 0-.312.083-.816-4.36-1.353-12.484-1.787-12.484-1.787zm70.632-1.799s1.773-8.803 0-10.99-6.645-22.205-6.645-22.205v-6.814c-8.854-2.8-19.264-19.007-19.264-19.007l-.768 1.816c3.003 4.303 11.011 14.981 18.047 17.202v6.802s4.872 20.007 6.645 22.205 0 10.99 0 10.99 2.471 2.811 7.926 2.429c-4.078-.307-5.941-2.429-5.941-2.429z" fill="#06f" class="J"/><path d="M589.079 352.55l-4.347.26-2.292.139v-5.003l3.009-.492 1.863-.307s5.762-15.403 11.293-12.604-9.526 18.006-9.526 18.006zm-69.743-41.235s-2.881 10.001-3.764 16.196 20.589 1.203 20.589 1.203-8.195-9-3.54-13.801z" class="R"/><path d="M542.581 352.96l.442 3.8-6.863-.399-6.863-5.402-6.863-17.41-4.417-6.206-3.323-3.8 1.332-4.627 1.633 1.186c3.374 2.314 11.28 7.178 17.061 5.836a6.889 6.224 0 0 0 .787-.226l8.636 13.402z" class="M"/><path d="M517.786 317.741s-3.54.578-5.979 5.402c-1.869 3.69-8.195 7.519-11.018 9.064a4.725 4.269 0 0 0-2.145 2.695c-.57 2.279-.788 6.53 2.311 12.644 4.872 9.602 8.412 13.801 8.412 13.801s.884 9.602-.442 12.401 0 18.203 0 18.203 23.246 4.003 30.998 0 6.645-19.406 6.645-19.406 7.305 14.003 9.962 14.403l-1.549-7.803s-8.636-8.404-9.078-19.203c0 0-2.657-9.804-.442-12.401 0 0 37.42 2.8 39.635.399 0 0-24.577-1.001-28.342-6.403 0 0-10.851-7.803-11.293-13.003a6.364 5.749 0 0 0-3.323-4.714 8.668 7.832 0 0 0-4.962-1.001l-5 .312s8.636 13.801 8.194 15.617.442 16.404.442 16.404-9.994-19.406-14.392-21.604-9.526-11.244-9.526-11.244l.884-4.569" class="J"/><path d="M542.581 352.96l.442 3.8-6.863-.399-6.863-5.402-6.863-17.41-4.417-6.206-3.323-3.8 1.332-4.627 1.633 1.186-.307 1.579s5.122 9.035 9.52 11.239 14.392 21.604 14.392 21.604-.884-14.605-.442-16.404c.301-1.22-3.579-7.965-6.101-12.181a6.889 6.224 0 0 0 .787-.226l8.636 13.402zm42.151-.15l-2.292.139v-5.003l3.009-.492c-1.05 1.255-1.011 3.476-.717 5.356z" class="J"/><path fill="#59f" d="M517.786 317.145s-3.54.578-5.979 5.402c-1.869 3.69-8.195 7.519-11.018 9.064a4.725 4.269 0 0 0-2.145 2.695c-.57 2.279-.788 6.53 2.311 12.644 4.872 9.602 8.412 13.801 8.412 13.801s.884 9.602-.442 12.401 0 18.203 0 18.203 23.246 4.003 30.998 0 6.645-19.406 6.645-19.406 7.298 13.98 9.962 14.408l-1.549-7.803s-8.636-8.404-9.078-19.203c0 0-2.657-9.804-.442-12.401 0 0 8.636 8.404 18.38 8.202a183.327 165.635 0 0 1 21.255 1.001s-2.215-6.403 0-8.803c0 0-24.577-1.001-28.342-6.403 0 0-10.851-7.803-11.293-13.003a6.364 5.749 0 0 0-3.323-4.714 8.668 7.832 0 0 0-4.962-1.001l-5 .312s8.636 13.801 8.194 15.617.442 16.404.442 16.404-9.994-19.417-14.392-21.615-9.526-11.221-9.526-11.221l.884-4.569"/><use xlink:href="#E" class="J"/><g class="L"><ellipse ry="1.001" rx=".775" cy="355.453" cx="541.256"/><ellipse ry="1.001" rx=".775" cy="362.452" cx="543.464"/></g><path d="M510.481 391.136s-1.332-15.403 0-18.203.442-12.401.442-12.401-3.54-4.199-8.412-13.801c-3.105-6.114-2.881-10.365-2.311-12.644.283-1.123 1.057-2.095 2.145-2.695 2.823-1.562 9.142-5.373 11.018-9.064 1.376-2.707 3.099-4.078 4.341-4.76l.083-.44s-3.54.578-5.979 5.402c-1.869 3.69-8.195 7.519-11.018 9.064-1.088.6-1.862 1.572-2.145 2.695-.57 2.279-.787 6.53 2.311 12.644 4.872 9.602 8.412 13.801 8.412 13.801s.883 9.602-.442 12.401 0 18.203 0 18.203 16.607 2.857 26.427 1.325c-9.917 1.07-24.872-1.527-24.872-1.527zm29.885-52.989c-.301 1.232 0 8.48.25 12.922l1.741 3.285s-.883-14.605-.442-16.404c.423-1.735-7.356-14.264-8.131-15.502l-1.613.098s8.643 13.801 8.195 15.6zm25.025 16.803c-9.744.202-18.38-8.202-18.38-8.202-.259.326-.448.693-.557 1.082 2.561 2.152 9.603 7.479 17.388 7.317 7.1-.039 14.197.296 21.255 1.001l-.115-.359a194.94 194.94 0 0 0-19.59-.839zm-17.285 16.803a34.96 34.96 0 0 0 .038 3.123c2.305 4.13 6.498 11.192 8.374 11.476l-.327-1.643c-3.22-3.656-8.086-12.956-8.086-12.956z" class="J"/><path d="M554.316 369.734l-4.706.897-3.713.706 1.991-5.003 1.389-.312 2.157-.486s3.099-14.003 9.302-13.003-6.421 17.202-6.421 17.202z" class="R"/><path d="M549.617 370.648l-3.713.706 1.991-5.003 1.389-.312a22.112 19.978 0 0 1 .333 4.61z" class="J"/><use xlink:href="#E" y="-.399" fill="#59f"/><path d="M519.553 311.743l-1.05 3.846a11.952 10.799 0 0 0 13.194 5.495c-.531-2.053-.416-4.13 1.139-5.738z" class="J"/><ellipse cy="310.14" cx="528.855" rx="11.959" ry="10.805" class="R"/><path d="M539.239 307.167a6.402 5.784 0 0 0 2.663.15 4.385 3.962 0 0 0 3.239-3.777 6.402 5.784 0 0 0-2.465-4.46c-1.011-.764-2.221-1.301-3.15-2.152-1.095-1.012-1.697-2.366-2.561-3.557a11.684 10.556 0 0 0-5.999-4.217c-1.831-.578-4.078-.625-5.486.578-.723.619-1.146 1.504-1.953 2.03-1.172.752-2.759.532-4.187.683a7.983 7.213 0 0 0-6.018 4.049 11.274 10.186 0 0 0-.589 6.941c.275.983.685 1.932.98 2.892.64 2.036.768 4.17 1.485 6.177s2.196 3.974 4.437 4.575a14.027 12.673 0 0 1 1.428-6.53 2.074 1.874 0 0 1 1.011-1.018 2.446 2.21 0 0 1 1.216 0 12.164 10.99 0 0 0 8.098-1.481c.851-.463 2.177-2.059 3.079-2.215 1.165-.179 3.553 1.087 4.769 1.33z" class="J"/><path d="M539.239 306.768a6.402 5.784 0 0 0 2.663.15 4.385 3.962 0 0 0 3.239-3.777 6.402 5.784 0 0 0-2.465-4.46c-1.011-.764-2.221-1.301-3.15-2.152-1.095-1.012-1.697-2.366-2.561-3.557a11.684 10.556 0 0 0-5.999-4.217c-1.831-.578-4.078-.625-5.486.578-.723.619-1.146 1.504-1.953 2.03-1.172.752-2.759.532-4.187.683a7.983 7.213 0 0 0-6.018 4.049 11.274 10.186 0 0 0-.589 6.941c.275.983.685 1.932.98 2.892.64 2.036.768 4.17 1.485 6.177s2.196 3.974 4.437 4.575a14.027 12.673 0 0 1 1.44-6.525 2.074 1.874 0 0 1 1.011-1.018 2.446 2.21 0 0 1 1.216 0 12.164 10.99 0 0 0 8.099-1.481c.851-.463 2.177-2.059 3.079-2.215 1.152-.185 3.54 1.082 4.757 1.325z"/><path fill="#e44d26" d="M658.54 271.109l-9.757 98.735-43.854 10.99-43.732-10.99-9.744-98.735z"/><path fill="#f16529" d="M604.994 372.436l35.435-8.873 8.322-84.379h-43.757z"/><path fill="#ebebeb" d="M586.031 303.408h18.963v-12.112h-33.61l.32 3.251 3.297 33.375h30V315.81h-17.74zm3.047 30.569h-13.444l1.876 19.018 27.426 6.906H605v-12.638h-.058l-14.929-3.644z"/><path d="M561.422 244.271h6.812v6.079h6.229v-6.079h6.812v18.417h-6.812v-6.166h-6.229v6.166h-6.812zm28.809 6.108h-5.999v-6.108h18.809v6.108h-5.999v12.309h-6.805v-12.309h0zm15.8-6.108h7.106l4.372 6.472 4.366-6.472h7.106v18.417h-6.786v-9.127l-4.686 6.548h-.115l-4.693-6.548v9.127h-6.671zm26.338 0h6.812v12.326h9.603v6.085h-16.395v-18.411z" fill="#333"/><path d="M604.949 327.921h16.504l-1.556 15.71-14.949 3.644v12.627l27.484-6.883.198-2.048 3.15-31.888.327-3.251h-31.159v12.112zm0-24.542v.029h32.381l.269-2.724.64-6.143.32-3.251h-33.61v12.083z" class="L"/><use xlink:href="#F" class="K"/><use xlink:href="#F" class="N"/><path fill="#264de4" d="M168.469 385.479l-53.098-13.304L103.54 252.27h130.018l-11.844 119.888z"/><path fill="#2965f1" d="M211.573 364.529l10.121-102.449h-53.136v113.202z"/><path fill="#ebebeb" d="M130.697 306.531l1.46 14.703h36.427v-14.703zm-2.932-29.765l1.479 14.703h39.334v-14.703h-40.845zm40.813 67.958h-.07l-18.13-4.425-1.159-11.73h-16.37l2.279 23.09 33.341 8.381h.077z"/><path d="M134.141 219.671h19.712v7.45h-11.472v7.45h11.472v7.45h-19.712zm23.687 0h19.712v6.478h-11.498v1.296h11.472v14.9h-19.718v-6.802h11.472v-1.296h-11.472v-14.576zm23.687 0h19.712v6.478h-11.53v1.296h11.472v14.9h-19.718v-6.802h11.472v-1.296h-11.472v-14.576z" fill="#333"/><path d="M206.33 306.531l2.938-29.765h-40.8v14.703h22.938l-1.479 15.039h-21.459v14.703h20.045l-1.921 19.088-18.124 4.436v15.299l33.367-8.358.243-2.487 3.841-38.719.397-3.951z" class="L"/><path fill="#2a7fff" d="M225.446 502.88l-11.946 9.555s-6.824 1.544-10.576 1.232-5.461 5.24 3.412 5.859 37.195-1.232 37.195-1.232 2.727-9.868-5.461-15.415z" opacity=".826"/><path opacity=".3" d="M243.955 514.032a18.822 17.005 0 0 1-.429 3.343s-28.322 1.851-37.195 1.232c-4.27-.295-6.082-1.735-6.402-3.112-.391 1.585 1.159 3.673 6.402 4.049 8.873.619 37.195-1.232 37.195-1.232a19.718 17.815 0 0 0 .429-4.28z" class="L"/><path d="M239.428 328.089s7.51 9.555 4.776 16.034 14.334-6.785 14.334-6.785-5.461-8.67-2.727-17.925z" class="K"/><use xlink:href="#G" class="O"/><use xlink:href="#G" class="N"/><path d="M252.738 508.12c-5.8 6.472-19.449 0-19.449 0a2.177 1.967 0 0 0 .595-.839c2.503-6.149-8.444-35.544-8.444-35.544-9.213-4.008-10.243-13.564-10.243-13.564l-2.413-49.408-.314-6.397 14.36-4.951 4.411-1.521 14.692 10.174a26.613 24.045 0 0 1 .922 6.467c-.186 9.955-9.129 12.361-9.129 12.361s4.097 11.406.339 21.893 2.747 19.707 2.747 19.707 12.285 32.067 10.243 33.918 1.684 7.704 1.684 7.704z" class="O"/><path d="M246.855 412.537c-2.951-.382-8.924-3.592-11.991-5.333l-1.921-1.111s-3.073-7.71-11.261-1.851a30.659 27.7 0 0 1-8.899 4.546 20.819 18.81 0 0 1-3.796.862l.755-12.193 9.558-5.24 7.529 5.206 4.411-1.521 14.692 10.169a26.613 24.045 0 0 1 .922 6.467z" class="J"/><path d="M265.324 353.371c-1.216 6.617-3.841 20.245-6.786 32.038-4.097 16.34-8.534 12.638-10.576 16.647s-.339 9.555-.339 9.555c-3.412.307-14.673-6.472-14.673-6.472s-3.073-7.71-11.261-1.851-14.673 5.547-14.673 5.547c-1.709-10.174 10.922-37.308 10.922-37.308s12.285-20.968 15.013-23.715a12.804 11.568 0 0 0 2.637-4.685 14.116 12.754 0 0 0 .435-2.094c4.436-.307 15.365-7.091 15.365-7.091l8.534-1.232v4.008a1.28 1.157 0 0 1 .282.156c1.402.966 3.201 5.084 4.398 8.329a18.675 16.872 0 0 1 .724 8.167z" class="Q"/><path d="M225.446 382.327l-4.411-.463-33.809-3.546c-20.486-5.859-7.51-14.802-7.51-14.802l13.649 11.719c3.937.711 19.385-.949 26.306-1.735l3.387-.405z" class="K"/><path d="M258.538 340.704s-8.873-6.472-22.209 14.489-16.383 17.572-16.383 17.572 2.727 9.255 1.364 11.1c0 0 9.213-.619 12.625 0s24.571-23.432 24.571-23.432 10.954-13.564.031-19.73z" class="J"/><path d="M258.199 339.472s-8.873-6.472-22.183 14.489-16.383 17.572-16.383 17.572 10.576 10.481 13.988 11.1 24.571-23.432 24.571-23.432 10.928-13.564.01-19.73z" class="J"/><path d="M221.029 381.881c.141-2.285-.813-6.299-1.364-8.381l3.387-.405 2.388 9.255z" class="J"/><path d="M258.538 340.085s-8.873-6.472-22.209 14.495-16.383 17.572-16.383 17.572 2.727 9.255 1.364 11.1c0 0 9.213-.619 12.625 0s24.571-23.432 24.571-23.432 10.954-13.57.031-19.735z" class="Q"/><path d="M256.176 320.043l-16.408 8.624a35.012 31.634 0 0 1 1.921 2.823 14.398 13.009 0 0 0 2.868.26c4.373 0 6.402-4.147 9.046-6.941-.192-2.221 1.818-2.279 2.574-4.766z" class="J"/><ellipse cy="318.198" cx="244.204" rx="14.334" ry="12.951" class="K"/><path d="M226.087 307.723a9.795 8.85 0 0 1 5.365-2.545c1.991-.388 4.174-.503 5.762-1.654 1.799-1.301 2.606-3.777 4.827-4.332a5.294 4.783 0 0 1 2.887.208 18.7 16.895 0 0 1 9.04 5.449 7.74 6.993 0 0 0 2.087 1.88 15.109 13.651 0 0 1 1.434.63 3.912 3.534 0 0 1 1.165 1.382 14.84 13.408 0 0 1 1.037 9.411c-.557 1.857-1.556 3.58-2.151 5.431s-.743 3.945.339 5.599c-1.05.486-2.375-.127-3.035-1.012s-.858-1.972-1.204-2.996a12.644 11.424 0 0 0-3.7-5.206c-1.076-.856-2.996-1.434-3.745-.33-.288.428-.269.978-.518 1.423-.487.873-1.921 1.047-2.836.578a4.347 3.927 0 0 1-1.773-2.377c-1.402-4.298-3.803-6.999-8.886-5.165-1.921.683-4.129 1.157-5.954 0-2.337-1.55-1.869-4.622-.141-6.374z" class="J"/><path fill="#502d16" d="M226.087 307.41a9.795 8.85 0 0 1 5.365-2.545c1.991-.388 4.174-.503 5.762-1.654 1.799-1.301 2.606-3.777 4.827-4.332a5.294 4.783 0 0 1 2.887.208 18.7 16.895 0 0 1 9.04 5.449 7.74 6.993 0 0 0 2.087 1.88 15.109 13.651 0 0 1 1.434.63 3.912 3.534 0 0 1 1.165 1.382 14.84 13.408 0 0 1 1.037 9.411c-.557 1.857-1.556 3.58-2.151 5.431s-.743 3.945.339 5.599c-1.05.486-2.375-.127-3.035-1.012s-.858-1.972-1.204-2.996a12.644 11.424 0 0 0-3.7-5.206c-1.076-.856-2.996-1.434-3.745-.33-.288.428-.269.978-.518 1.423-.487.873-1.921 1.047-2.836.578a4.347 3.927 0 0 1-1.773-2.377c-1.402-4.298-3.803-6.999-8.886-5.165-1.921.683-4.129 1.157-5.954 0-2.337-1.544-1.869-4.616-.141-6.374z"/><path d="M260.183 336.852h-6.933s-13.649 6.166-13.988 5.859c-.23-.208-2.343.15-3.681.399a14.116 12.754 0 0 0 .435-2.094c4.437-.307 15.365-7.091 15.365-7.091l8.534-1.232v4.008a1.28 1.157 0 0 1 .269.15z" class="N"/><path d="M218.443 402.982c-4.603 3.297-8.675 4.627-11.351 5.206 0 .231.051.457.09.677 0 0 6.485.307 14.673-5.547 1.269-.982 2.768-1.69 4.385-2.071-1.786-.792-4.334-.74-7.798 1.735zm46.311-57.807c-1.223-3.245-2.996-7.357-4.398-8.329a1.31 1.31 0 0 0-.282-.156l-2.727.156c1.402.966 2.772 4.778 3.995 8.017a15.33 15.33 0 0 1 .743 8.19c-1.216 6.617-3.841 20.245-6.786 32.038-4.097 16.34-8.534 12.638-10.576 16.647-1.677 3.285-.839 7.6-.474 9.052 1.104.499 2.313.777 3.547.816 0 0-1.709-5.547.339-9.555s6.485-.307 10.576-16.647c2.964-11.823 5.57-25.45 6.786-32.038a15.33 15.33 0 0 0-.743-8.19z" class="N"/><g class="L"><ellipse ry="6.177" rx="5.886" cy="137.532" cx="66.045"/><ellipse ry="6.177" rx="5.886" cy="137.532" cx="88.388"/><ellipse ry="6.177" rx="5.886" cy="137.532" cx="110.732"/></g></svg>