<?xml version="1.0" encoding="UTF-8" standalone="no"?>
<svg
   xmlns:dc="http://purl.org/dc/elements/1.1/"
   xmlns:cc="http://creativecommons.org/ns#"
   xmlns:rdf="http://www.w3.org/1999/02/22-rdf-syntax-ns#"
   xmlns:svg="http://www.w3.org/2000/svg"
   xmlns="http://www.w3.org/2000/svg"
   xmlns:sodipodi="http://sodipodi.sourceforge.net/DTD/sodipodi-0.dtd"
   xmlns:inkscape="http://www.inkscape.org/namespaces/inkscape"
   inkscape:version="1.0 (4035a4fb49, 2020-05-01)"
   sodipodi:docname="JunTechPC-Aruba-Image Optimization.svg"
   version="1.1"
   viewBox="0 0 972.04819 599.5"
   height="599.5"
   width="972.04819"
   data-name="Layer 1"
   id="b93405e1-9335-481f-b653-44d6b753cbea">
  <metadata
     id="metadata44388">
    <rdf:RDF>
      <cc:Work
         rdf:about="">
        <dc:format>image/svg+xml</dc:format>
        <dc:type
           rdf:resource="http://purl.org/dc/dcmitype/StillImage" />
        <dc:title></dc:title>
      </cc:Work>
    </rdf:RDF>
  </metadata>
  <defs
     id="defs44386" />
  <sodipodi:namedview
     inkscape:current-layer="b93405e1-9335-481f-b653-44d6b753cbea"
     inkscape:window-maximized="1"
     inkscape:window-y="-9"
     inkscape:window-x="-9"
     inkscape:cy="299.75"
     inkscape:cx="486.02411"
     inkscape:zoom="1.2427367"
     showgrid="false"
     id="namedview44384"
     inkscape:window-height="1001"
     inkscape:window-width="1920"
     inkscape:pageshadow="2"
     inkscape:pageopacity="0"
     guidetolerance="10"
     gridtolerance="10"
     objecttolerance="10"
     borderopacity="1"
     bordercolor="#666666"
     pagecolor="#ffffff" />
  <path
     id="path44353"
     fill="#00b0ff"
     transform="translate(-113.9759 -150.25)"
     d="M549.69578,749.75a324.76793,324.76793,0,0,1-218.45434-84.19189,1.50012,1.50012,0,0,1,2.01416-2.22364A321.77222,321.77222,0,0,0,549.69578,746.75c112.2981,0,214.773-57.01709,274.12012-152.52a1.49979,1.49979,0,1,1,2.54785,1.583,325.28875,325.28875,0,0,1-276.668,153.937Z" />
  <polygon
     id="polygon44355"
     fill="#00b0ff"
     points="695.395 446.595 696.159 449.499 710.46 445.722 713.183 460.263 716.134 459.707 712.814 441.998 695.395 446.595" />
  <polygon
     id="polygon44357"
     fill="#00b0ff"
     points="233.884 511.537 233.964 514.539 219.176 514.914 220.632 529.636 217.643 529.929 215.875 511.998 233.884 511.537" />
  <path
     id="path44359"
     fill="#e6e6e6"
     d="m 377.101,239.22535 v 161.57657 a 4.06656,4.06656 0 0 1 -4.06522,4.06793 H 98.746776 a 3.42867,3.42867 0 0 1 -0.583,-0.0453 4.06416,4.06416 0 0 1 -3.48494,-4.02259 V 239.22535 a 4.06654,4.06654 0 0 1 4.06518,-4.06789 H 373.03307 a 4.06655,4.06655 0 0 1 4.06793,4.06521 z" />
  <circle
     id="circle44361"
     fill="#00b0ff"
     r="35.688259"
     cy="295.53952"
     cx="163.81908" />
  <path
     id="path44363"
     fill="#3f3d56"
     d="M 275.73346,405.51761 H 100.65757 a 3.5694,3.5694 0 0 1 -0.65425,-0.0518 l 82.80283,-143.42642 a 5.79764,5.79764 0 0 1 10.09208,0 l 55.57109,96.25026 2.6623,4.60558 z" />
  <polygon
     transform="translate(78.858216,2.414027)"
     id="polygon44365"
     style="isolation:isolate"
     opacity="0.2"
     points="137.1,403.103 166.443,360.481 168.556,357.411 169.611,355.875 172.274,360.481 196.875,403.103 " />
  <path
     id="path44367"
     fill="#3f3d56"
     d="M 373.21444,405.51761 H 221.78817 l 29.34345,-42.62243 2.11167,-3.0704 38.23713,-55.5452 c 2.50681,-3.64039 8.53745,-3.86709 11.48473,-0.68661 a 6.91157,6.91157 0 0 1 0.55064,0.68661 z" />
  <path
     id="path44369"
     fill="#3f3d56"
     d="m 392.53292,229.02096 a 13.03563,13.03563 0 0 0 -12.241,-8.60693 H 91.864246 a 13.001,13.001 0 0 0 -13.006,13.006 v 227.988 a 13.02447,13.02447 0 0 0 13.006,13.006 H 380.29196 a 13.02446,13.02446 0 0 0 13.006,-13.006 v -227.988 a 12.90708,12.90708 0 0 0 -0.76504,-4.39907 z m -0.76506,232.38707 a 11.48989,11.48989 0 0 1 -11.4759,11.4759 H 91.864246 a 11.48989,11.48989 0 0 1 -11.47593,-11.4759 v -227.988 a 11.48989,11.48989 0 0 1 11.47591,-11.4759 H 380.29196 a 11.48989,11.48989 0 0 1 11.4759,11.4759 z" />
  <path
     id="path44371"
     fill="#e6e6e6"
     transform="translate(-113.9759 -150.25)"
     d="M1060.38951,180.02225V435.74579a6.43607,6.43607,0,0,1-6.43394,6.43822h-434.111a5.42512,5.42512,0,0,1-.92269-.07176,6.43224,6.43224,0,0,1-5.51553-6.36646V180.02225a6.436,6.436,0,0,1,6.43386-6.43816h434.11107a6.43606,6.43606,0,0,1,6.43823,6.43391Z" />
  <circle
     id="circle44373"
     fill="#00b0ff"
     r="56.48299"
     cy="118.89939"
     cx="608.85716" />
  <path
     id="path44375"
     fill="#3f3d56"
     transform="translate(-113.9759 -150.25)"
     d="M899.95742,443.20921H622.8688a5.64951,5.64951,0,0,1-1.03547-.082L752.88347,216.12946a9.17579,9.17579,0,0,1,15.97251,0l87.9511,152.33308,4.21356,7.28916Z" />
  <polygon
     id="polygon44377"
     style="isolation:isolate"
     opacity="0.2"
     points="785.981 292.959 691.377 292.959 737.818 225.502 741.161 220.643 742.832 218.212 747.045 225.502 785.981 292.959" />
  <path
     id="path44379"
     fill="#3f3d56"
     transform="translate(-113.9759 -150.25)"
     d="M1054.23833,443.20921H814.57943l46.44121-67.45755,3.34209-4.85945,60.517-87.91012c3.96746-5.76155,13.512-6.12036,18.17662-1.08668a10.936,10.936,0,0,1,.87147,1.08668Z" />
  <path
     id="path44381"
     fill="#3f3d56"
     transform="translate(-113.9759 -150.25)"
     d="M1084.81325,163.872a20.6312,20.6312,0,0,0-19.37349-13.622H608.95181a20.57636,20.57636,0,0,0-20.58434,20.58434V531.66566A20.61353,20.61353,0,0,0,608.95181,552.25h456.488a20.61353,20.61353,0,0,0,20.58434-20.58434V170.83434A20.42794,20.42794,0,0,0,1084.81325,163.872Zm-1.21084,367.79367a18.18479,18.18479,0,0,1-18.16265,18.16265H608.95181a18.18479,18.18479,0,0,1-18.16265-18.16265V170.83434a18.18479,18.18479,0,0,1,18.16265-18.16265h456.488a18.18479,18.18479,0,0,1,18.16265,18.16265Z" />
</svg>
