<svg xmlns="http://www.w3.org/2000/svg" xmlns:svg="http://www.w3.org/2000/svg" id="Layer_1" width="395.498" height="365.678" data-name="Layer 1" version="1.1" viewBox="0 0 395.498 365.678"><metadata id="metadata12650"/><title id="title12639">wordpress</title><path id="path12641" fill="#00abe3" d="m 366.238,54.55735 c 0,-3.55266 -2.15718,-8.3911 -5.73422,-8.3911 H 210.6341 c -86.37281,0 -156.396097,70.48641 -156.396097,156.23766 0,85.75125 69.633287,155.76234 155.999997,155.76234 86.36672,0 156,-69.03609 156,-154.78125 z" style="stroke-width:.609375"/><path id="path12643" fill="#fff" d="m 253.333,114.88547 a 90.443438,90.443439 0 0 0 -36.12984,-9.8414 12.930938,12.930938 0 0 1 -1.88906,-0.38391 h -10.13392 c -3.04686,0.39609 -6.18515,0.68859 -9.24421,1.21875 -32.81485,5.48438 -56.97656,23.04046 -72.55218,52.34531 a 90.918746,90.918747 0 0 0 -10.25578,37.00735 15.532968,15.532969 0 0 1 -0.37782,1.88296 v 10.1461 c 0.37782,3.01031 0.67032,6.0389 1.17,9.01875 5.48438,33.22312 23.29642,57.56765 53.05219,73.125 a 90.687185,90.687185 0 0 0 36.31874,9.91453 15.234375,15.234375 0 0 1 1.88906,0.37172 h 10.13392 c 3.0103,-0.38391 6.045,-0.66422 9.02484,-1.1761 33.05859,-5.44172 57.34218,-23.15624 72.93609,-52.70484 A 90.687185,90.687185 0 0 0 307.3541,209.1375 c 0.0488,-0.60937 0.26812,-1.25531 0.3839,-1.87687 v -10.16438 c -0.3839,-3.00422 -0.65812,-6.0389 -1.15782,-9.02484 -5.51484,-33.30234 -23.37562,-57.67125 -53.24718,-73.18594 z m -81.87562,166.01812 c -19.20749,-9.75 -33.4364,-24.375 -41.88234,-44.31374 -9.84141,-23.22938 -9.40875,-46.56235 0.28031,-69.72469 h 0.54844 q 20.75532,56.86078 41.49843,113.72765 c -0.14016,0.1036 -0.2925,0.21328 -0.44484,0.31078 z m 13.91202,5.40516 c 8.76282,-25.4414 17.4586,-50.6939 26.1422,-75.9525 a 5.045625,5.045625 0 0 1 0.53015,0 c 9.03703,24.765 18.08015,49.50563 27.24515,74.61797 -17.81812,6.10594 -35.61796,6.55687 -53.9114,1.33453 z m 68.5547,-30.96234 c -10.6397,-31.6875 -21.13922,-62.83875 -31.6875,-94.29469 2.65078,-0.23156 5.07608,-0.43875 7.5014,-0.66422 a 24.222656,24.222656 0 0 0 2.70562,-0.31687 c 2.10844,-0.38391 3.24798,-1.82813 3.08344,-3.78422 -0.16453,-1.9561 -1.63922,-3.29062 -3.91218,-3.17484 -5.06391,0.26202 -10.13391,0.83484 -15.18563,0.81046 -9.53672,-0.0366 -19.07953,-0.40828 -28.64063,-0.65203 -0.90187,0 -1.82812,-0.18281 -2.7178,-0.15843 a 3.339375,3.339375 0 0 0 -3.44298,3.27234 c -0.17672,1.98046 0.83484,3.38203 2.89454,3.65625 2.4375,0.33515 4.875,0.60937 7.34906,0.71906 1.48688,0.067 2.29734,0.4875 2.83359,2.00485 4.07672,11.35265 8.26313,22.66874 12.35203,34.00312 a 4.4789062,4.4789063 0 0 1 0.22547,2.77266 q -9.14063,27.62296 -18.37265,55.19109 c -0.0792,0.24985 -0.17672,0.46313 -0.72516,0.81656 -10.56047,-31.38281 -21.11484,-62.76563 -31.7789,-94.52015 2.74218,-0.23156 5.10046,-0.43876 7.48921,-0.64594 0.77391,-0.0548 1.54781,-0.10969 2.32172,-0.24375 2.56547,-0.43266 3.65625,-1.71844 3.40031,-4.06453 -0.23156,-2.0536 -1.67578,-3.10172 -4.26562,-2.95547 -5.17969,0.28031 -10.35938,0.70078 -15.56343,0.89578 -4.12547,0.14625 -8.26312,0 -12.98578,0 12.76031,-18.67735 29.51811,-31.21828 51.05952,-36.66609 30.35297,-7.67204 57.34219,-0.53016 81.61969,19.90828 -1.40766,0.17062 -2.2486,0.24984 -3.09562,0.37781 a 15.429375,15.429375 0 0 0 -12.6811,17.30015 30.46875,30.46875 0 0 0 4.06453,11.1272 c 2.09625,3.65624 4.32657,7.23937 6.36187,10.96874 5.78906,10.6336 6.84328,21.78516 3.4125,33.35719 -4.34484,14.625 -8.7628,29.18907 -13.1503,43.78359 -0.0426,0.195 -0.15844,0.40219 -0.46314,1.1761 z m 43.13765,-40.82812 c -4.14985,27.61687 -18.64687,48.48796 -42.09563,63.23484 -0.1889,-0.0975 -0.36562,-0.17672 -0.54844,-0.27422 0.44485,-1.33453 0.8897,-2.68125 1.34672,-3.9975 8.33016,-24.0825 16.59328,-48.17719 25.02094,-72.22922 2.4375,-6.9164 4.875,-13.82062 5.99016,-21.10266 a 85.580623,85.580624 0 0 0 0.64594,-19.23796 c 9.11016,16.79437 12.49218,34.72828 9.6464,53.60062 z" style="stroke-width:.609375"/></svg>