<svg xmlns="http://www.w3.org/2000/svg" xmlns:xlink="http://www.w3.org/1999/xlink" viewBox="0 0 512 512" xmlns:v="https://vecta.io/nano"><path d="M429.202 204.621v149.206H124.294 95.71c-7.9 0-15.048-3.041-20.222-7.959s-8.372-11.715-8.372-19.225c0-15.012 57.178-202.045 57.178-202.045h304.908v29.475z" fill="#ccc"/><path d="M227.205 59.821v64.775V281.01h-44.798v-28.852-32.698-32.699-32.698-29.466-3.224-32.698-28.853z" fill="#f7b239"/><g fill="#b27214"><use xlink:href="#B"/><use xlink:href="#B" y="98.088"/><use xlink:href="#B" y="65.379"/><use xlink:href="#B" y="32.69"/><use xlink:href="#B" y="163.476"/><use xlink:href="#B" y="130.777"/></g><g fill="#f95428"><path d="M451.1 179.341h.337c0 8.665-2.071 17.311-6.214 25.28h-16.021-91.109v-.009c3.661-8.06-3.42-16.661-3.42-25.271z"/><path d="M334.673 179.341c0-8.601 7.081-17.201 3.42-25.261v-.009h91.109 16.021c4.143 7.959 6.214 16.624 6.214 25.271h-.337z"/></g><path d="M334.673 174.757h125.349v9.159H334.673z" fill="#e54728"/><path d="M472.902 154.071c4.143 7.959 6.214 16.624 6.214 25.271 0 8.665-2.071 17.311-6.214 25.28h-30.568c4.143-7.969 6.214-16.615 6.214-25.28 0-8.646-2.071-17.311-6.214-25.271z" fill="#2ba5f7"/><path d="M319.489 165.932c2.717 3.828 15.183 8.445 15.183 13.41 0 4.974-12.457 9.581-15.183 13.419l-21.051-13.419z" fill="#f95428"/><path d="M338.093 154.08c3.661 8.06 5.501 16.661 5.501 25.261 0 8.61-1.84 17.21-5.501 25.271v.009l-18.604-11.861c2.726-3.837 4.297-8.445 4.297-13.419a23.07 23.07 0 0 0-4.297-13.41l18.604-11.861z" fill="#f2f2f2"/><path d="M124.294 124.596v174.86H95.71c-15.79.001-28.594 12.173-28.594 27.186V97.411c0-3.746.8-7.328 2.245-10.579s3.545-6.182 6.127-8.646c5.173-4.918 12.322-7.959 20.222-7.959h28.584z" fill="#e6e6e6"/><path d="M423.066 385.417H259.296V352.87 229.718L388.831 352.87zM287.09 358.993h68.876L287.09 293.51z" fill="#2ba5f7"/><defs ><path id="B" d="M182.407 81.808h17.341v13.739h-17.341z"/></defs></svg>