<svg xmlns="http://www.w3.org/2000/svg" xmlns:svg="http://www.w3.org/2000/svg" xmlns:xlink="http://www.w3.org/1999/xlink" id="svg6403" width="571.223" height="382.472" version="1.1" viewBox="0 0 554.488 371.268"><metadata id="metadata6407"/><defs id="defs6357"><path id="A" d="m 142.806,254.967 h -41.037 c -3.333,0 -6.035,-2.603 -6.035,-5.814 0,-3.211 2.702,-5.814 6.035,-5.814 h 41.037 c 3.333,0 6.035,2.603 6.035,5.814 0,3.211 -2.702,5.814 -6.035,5.814 z"/><linearGradient id="B" x1="-506.288" x2="490.369" y1="135.105" y2="244.6" gradientUnits="userSpaceOnUse"><stop id="stop6352" offset="0" stop-color="#0684ff"/><stop id="stop6354" offset="1" stop-color="#0684ff" stop-opacity="0"/></linearGradient><linearGradient id="linearGradient6409" x1="-506.288" x2="490.369" y1="135.105" y2="244.6" gradientUnits="userSpaceOnUse" xlink:href="#B"/><linearGradient id="linearGradient6411" x1="-506.288" x2="490.369" y1="135.105" y2="244.6" gradientUnits="userSpaceOnUse" xlink:href="#B"/><linearGradient id="linearGradient6413" x1="-506.288" x2="490.369" y1="135.105" y2="244.6" gradientUnits="userSpaceOnUse" xlink:href="#B"/><linearGradient id="linearGradient6415" x1="-506.288" x2="490.369" y1="135.105" y2="244.6" gradientUnits="userSpaceOnUse" xlink:href="#B"/><linearGradient id="linearGradient6417" x1="-506.288" x2="490.369" y1="135.105" y2="244.6" gradientUnits="userSpaceOnUse" xlink:href="#B"/></defs><path id="path6359" fill="#ddeafb" d="M 452.21611,58.616199 V 297.88219 h -280.713 l -46.00202,-4.295 -45.729997,4.294 h -16.057 c -6.311,10e-4 -11.428,-4.929 -11.428,-11.01 V 58.616199 l 202.282017,-10.366 z"/><path id="path6361" fill="#cbe2ff" d="M 433.10511,51.484199 V 297.88219 h 19.111 V 58.616199 Z"/><path id="path6363" fill="#2a7fff" d="m 413.99311,28.5142 6.914,15.050999 -6.914,15.051 H 52.286093 v -19.092 c 0,-6.081 5.117,-11.009999 11.428,-11.009999 z"/><path id="path6365" fill="#59f" d="m 452.21611,39.524199 v 19.092 h -38.223 V 28.5142 h 26.794 c 6.311,0 11.428,4.928999 11.428,11.009999 z"/><path id="path6367" fill="#80b3ff" d="m 440.78811,28.5142 h -19.111 c 6.312,0 11.428,4.929999 11.428,11.010999 v 19.092 h 19.111 v -19.093 c 0,-6.081 -5.117,-11.009999 -11.428,-11.009999 z"/><path id="path6369" fill="#59f" d="m 171.50111,89.106199 v 88.538991 l -46.00002,5.603 -45.733997,-5.603 V 89.106199 c 0,-2.636 2.229,-4.775 4.965,-4.775 h 81.813017 c 2.736,0 4.957,2.14 4.957,4.775 z"/><path id="path6371" fill="#fff9df" d="m 171.50111,177.64419 v 35.281 c 0,3.132 -2.631,5.675 -5.882,5.675 H 85.657093 c -3.251,0 -5.89,-2.543 -5.89,-5.675 v -35.281 z"/><path id="path6373" fill="#2a7fff" d="M 171.36711,297.88219 H 79.634093 v -51.414 c 0,-2.64 2.221,-4.779 4.961,-4.779 h 81.810017 c 2.74,0 4.961,2.14 4.961,4.779 v 51.414 z m 127.178,-208.775991 v 38.039991 l -45.863,6.642 -45.863,-6.642 V 89.106199 c 0,-2.636 2.221,-4.775 4.957,-4.775 h 81.813 c 2.736,0 4.957,2.14 4.957,4.775 z"/><path id="path6375" fill="#80b3ff" d="m 298.54511,197.27319 v 38.04 l -43.977,4.483 -47.749,-4.483 v -38.04 c 0,-2.644 2.221,-4.783 4.957,-4.783 h 81.813 c 2.736,0 4.957,2.14 4.957,4.783 z"/><path id="path6377" fill="#59f" d="m 425.60511,89.106199 v 38.039991 l -45.919,6.642 -45.816,-6.642 V 89.106199 c 0,-2.636 2.221,-4.775 4.965,-4.775 h 81.805 c 2.744,0 4.965,2.14 4.965,4.775 z"/><path id="path6379" fill="#fff9df" d="m 298.54511,127.14619 v 35.281 c 0,3.132 -2.631,5.675 -5.882,5.675 h -79.962 c -3.251,0 -5.882,-2.543 -5.882,-5.675 v -35.281 z m 127.06,0 v 35.281 c 0,3.132 -2.639,5.675 -5.89,5.675 h -79.962 c -3.251,0 -5.882,-2.543 -5.882,-5.675 v -35.281 z m -127.06,108.167 v 35.281 c 0,3.132 -2.631,5.667 -5.882,5.667 h -79.962 c -3.251,0 -5.882,-2.535 -5.882,-5.667 v -35.281 z"/><path id="path6381" fill="#2a7fff" d="m 248.53311,261.60019 h -15.967 c -3.333,0 -6.035,-2.603 -6.035,-5.814 0,-3.211 2.702,-5.814 6.035,-5.814 h 15.967 c 3.333,0 6.035,2.603 6.035,5.814 0,3.211 -2.702,5.814 -6.035,5.814 z"/><g id="g6389" fill="#2a7fff" transform="translate(3.7510932,-50.649801)"><use id="use6383" width="100%" height="100%" x="0" y="0" xlink:href="#A"/><use id="use6385" width="100%" height="100%" x="127.046" y="-50.88" xlink:href="#A"/><path id="path6387" d="M 396.906,204.087 H 355.87 c -3.333,0 -6.035,-2.603 -6.035,-5.814 0,-3.211 2.702,-5.814 6.035,-5.814 h 41.037 c 3.333,0 6.035,2.603 6.035,5.814 0,3.211 -2.703,5.814 -6.036,5.814 z"/></g><g id="g6401" stroke="#06f" stroke-width="2.026" transform="matrix(0.456118,0,0,0.437403,311.05878,167.86586)"><path id="path6391" fill="url(#B)" d="M 136.7,367.7 182.1,288.9 136.7,210 H 45.4 L 0,288.9 45.4,367.7 Z" style="fill:url(#linearGradient6409)"/><path id="path6393" fill="url(#B)" d="M 335.8,200.3 290,121.5 h -90.8 l -45.5,78.8 45.5,78.9 H 290 Z" style="fill:url(#linearGradient6411)"/><path id="path6395" fill="url(#B)" d="m 290,298.6 h -90.8 l -45.5,78.8 45.5,79.2 H 290 l 45.8,-79.2 z" style="fill:url(#linearGradient6413)"/><path id="path6397" fill="url(#B)" d="m 45.4,190.6 h 91.3 L 182.1,111.8 136.7,32.6 H 45.4 L 0,111.8 Z" style="fill:url(#linearGradient6415)"/><path id="path6399" fill="url(#B)" d="m 443.8,32.6 h -91.3 l -45.4,78.8 45.4,79.2 h 91.3 l 45.4,-78.8 z" style="fill:url(#linearGradient6417)"/></g></svg>