<!--?xml version="1.0" encoding="UTF-8" standalone="no"?-->
<svg viewBox="0 0 963.77956 755.90552" version="1.1" id="svg22469" sodipodi:docname="JunTech-Aruba-link-building.svg" width="963.77954" height="755.90552" inkscape:version="1.1.1 (3bf5ae0d25, 2021-09-20)" xmlns:inkscape="http://www.inkscape.org/namespaces/inkscape" xmlns:sodipodi="http://sodipodi.sourceforge.net/DTD/sodipodi-0.dtd" xmlns="http://www.w3.org/2000/svg" xmlns:svg="http://www.w3.org/2000/svg" style="">
  <sodipodi:namedview id="namedview22471" pagecolor="#ffffff" bordercolor="#666666" borderopacity="1.0" inkscape:pageshadow="2" inkscape:pageopacity="0.0" inkscape:pagecheckerboard="0" showgrid="false" inkscape:zoom="0.5" inkscape:cx="419" inkscape:cy="357" inkscape:window-width="1920" inkscape:window-height="1003" inkscape:window-x="-9" inkscape:window-y="-9" inkscape:window-maximized="1" inkscape:current-layer="svg22469"></sodipodi:namedview>
  <defs id="defs22460">
    <style id="style22458">.cls-1{fill:#0593ff;}.cls-2{fill:#d8e1ef;}</style>
  </defs>
  <title id="title22462"></title>
  <g data-name="Hyper Link" id="Hyper_Link" transform="matrix(36.550304,0,0,35.390408,-100.5303,-190.4343)" style="stroke:#0069ff;stroke-opacity:1;stroke-width:0.12511928;stroke-miterlimit:4;stroke-dasharray:none">
    <path class="cls-1 hjTccYir_0" d="m 18,21.74 a 5.23,5.23 0 0 1 -4.3,-8.23 1.0043904,1.0043904 0 0 1 1.64,1.16 3.19,3.19 0 0 0 0.37,4.12 3.23,3.23 0 0 0 4.58,0 l 6,-6 A 3.24,3.24 0 0 0 21.71,8.21 l -2.55,2.55 A 1.0040916,1.0040916 0 1 1 17.74,9.34 l 2.55,-2.55 a 5.25,5.25 0 0 1 7.42,7.42 l -6,6 A 5.24,5.24 0 0 1 18,21.74 Z" id="path22464" style="stroke: rgb(0, 105, 255); stroke-opacity: 1; stroke-width: 0.125119; stroke-miterlimit: 4; fill: rgb(255, 255, 255);"></path>
    <path class="cls-2 hjTccYir_1" d="M 8,26.74 A 5.24,5.24 0 0 1 4.29,17.79 l 6,-6 a 5.21,5.21 0 0 1 3.71,-1.53 5.31,5.31 0 0 1 3.71,1.53 5.22,5.22 0 0 1 0.59,6.7 1.0043904,1.0043904 0 0 1 -1.64,-1.16 3.19,3.19 0 0 0 -0.37,-4.12 3.27,3.27 0 0 0 -2.29,-1 3.21,3.21 0 0 0 -2.29,1 l -6,6 a 3.24,3.24 0 0 0 4.58,4.58 l 2.55,-2.55 a 1.0040916,1.0040916 0 1 1 1.42,1.42 l -2.55,2.55 A 5.24,5.24 0 0 1 8,26.74 Z" id="path22466" style="stroke: rgb(0, 105, 255); stroke-opacity: 1; stroke-width: 0.125119; stroke-miterlimit: 4; fill: rgb(236, 236, 236);"></path>
  </g>
<style data-made-with="vivus-instant">.hjTccYir_0{stroke-dasharray:82 84;stroke-dashoffset:83;animation:hjTccYir_draw_0 7200ms linear 0ms infinite,hjTccYir_fade 7200ms linear 0ms infinite;}.hjTccYir_1{stroke-dasharray:83 85;stroke-dashoffset:84;animation:hjTccYir_draw_1 7200ms linear 0ms infinite,hjTccYir_fade 7200ms linear 0ms infinite;}@keyframes hjTccYir_draw{100%{stroke-dashoffset:0;}}@keyframes hjTccYir_fade{0%{stroke-opacity:1;}94.44444444444444%{stroke-opacity:1;}100%{stroke-opacity:0;}}@keyframes hjTccYir_draw_0{11.11111111111111%{stroke-dashoffset: 83}38.88888888888889%{ stroke-dashoffset: 0;}100%{ stroke-dashoffset: 0;}}@keyframes hjTccYir_draw_1{25%{stroke-dashoffset: 84}52.77777777777778%{ stroke-dashoffset: 0;}100%{ stroke-dashoffset: 0;}}</style></svg>
