<svg xmlns="http://www.w3.org/2000/svg" xmlns:xlink="http://www.w3.org/1999/xlink" width="759.523" height="640.549" xmlns:v="https://vecta.io/nano"><path d="M123.638 183.219c40.117 6.667 81.041 0 120.991-4.517l121.416-13.689c4.91-.561 12.055-3.203 14.943 2.204 1.627 3.025.532 9.582.654 13.059.319 9.582.289 19.165 0 28.747-.547 18.316-2.037 36.591-3.937 54.824-3.694 35.687-8.923 71.183-11.538 107.007-1.338 18.234-2.007 36.522-1.414 54.756.137 4.353.334 8.706.623 13.046.319 4.86 2.736 12.074-3.147 15.318-3.36 1.862-9.972 1.766-13.818 2.313a363.99 363.99 0 0 1-18.364 2.108c-40.877 3.682-82.287 2.149-123.317 1.93l-123.894-.575-30.221-.151c-2.736 0-12.602 1.478-14.29-1.451-.714-1.246 1.186-7.077 1.52-8.638q.699-3.86 1.52-7.707c3.527-18.001 7.692-35.893 11.888-53.77 9.015-38.329 18.242-76.85 21.951-116 1.839-19.644.623-39.465 2.873-59.068 1.049-9.103 2.295-29.418 15.749-30.225 11.401-.684 23.137 0 34.569 0a2.28 2.053 0 0 0 0-4.107c-10.793 0-21.602-.26-32.395-.068-7.175.123-12.161 1.656-15.582 7.597-8.741 15.25-7.844 35.591-8.118 52.237-.654 39.849-7.449 78.849-16.296 117.821l-13.682 58.794-5.898 28.213c-.851 4.49-5.153 14.387-1.368 18.508s15.43 1.903 20.644 1.93l36.271.192 69.502.356 134.855.178c21.434-.575 44.085-1.369 64.957-5.982 6.218-1.369 9.212-3.942 9.455-9.911.365-9.254-1.307-18.795-1.52-28.09-1.52-79.533 19.23-157.957 17.102-237.518-.137-5.407 2.128-19.041-4.439-22.313-2.949-1.478-6.78-.671-9.881-.342l-17.771 1.999-76.997 8.651-73.865 8.213c-26.101 2.738-52.461 4.367-78.471 0-2.873-.479-4.104 3.477-1.216 3.956z" fill="#f9f9f9"/><path d="M75.236 231.609l303.761-13.415c2.934-.137 2.949-4.244 0-4.107L75.236 227.503c-2.919.123-2.934 4.23 0 4.107z" fill="#dfdfdf"/><path d="M168.818 197.756a7.601 6.844 0 0 0 2.691 11.047c4.089 1.684 8.893.274 12.952-.643 6.081-1.369 12.161-2.587 18.409-3.587a251.057 226.074 0 0 1 41.182-3.45c6.294-.069 12.541.192 18.835.438 4.561.164 9.471.493 13.332-2.053 4.409-2.902 5.837-8.569 1.52-12.101-6.081-4.996-19.185-2.094-26.208-1.574a587.726 529.24 0 0 0-75.796 10.185c-2.858.548-1.657 4.517 1.216 3.956q24.733-4.805 49.847-7.721 12.344-1.369 24.733-2.313l11.675-.753c1.52-.082 3.132-.233 4.682-.192 4.819.096 5.381-.684 2.493 4.558-2.569 4.641-1.748 4.107-6.202 3.956-1.885 0-3.77-.192-5.655-.274q-5.792-.219-11.584-.233-12.329 0-24.596 1.068c-6.932.602-13.849 1.451-20.705 2.546-4.287.684-8.543 1.478-12.785 2.355l-5.625 1.232c-.897.219-1.809.411-2.706.616q-4.986 1.561-8.498-4.107c2.037-1.903-1.171-4.819-3.223-2.902zm55.061 58.425c-21.997-.767-45.757 4.586-60.245 20.533-11.34 12.471-17.801 33.867-5.792 47.911 12.906 15.058 41.212 12.402 58.284 5.982 18.06-6.844 37.822-20.958 43.249-38.617 6.765-22.053-15.202-38.726-38.08-38.973a2.282 2.055 0 0 0 0 4.107c13.043.137 25.843 5.174 31.924 16.112 6.37 11.526.882 23.627-7.601 32.854-13.59 14.688-34.842 25.763-56.49 25.448-12.997-.178-27.363-4.189-31.392-16.536-3.314-10.007-.79-20.944 4.986-29.815 12.496-19.165 37.928-25.653 61.248-24.832 2.934.096 2.934-4.011 0-4.107z" fill="#fff"/><g fill="#e6e6e6"><path d="M202.034 286.598a5.929 5.339 0 0 0-7.966 5.476c.456 5.339 6.993 6.844 11.903 6.53 4.241-.329 9.197-1.738 7.707-6.516a6.81 6.133 0 0 0-3.709-3.86 8.589 7.734 0 0 0-4.287-.479c-.562 0-5.716 1.697-3.527-.342l-3.588-.424a3.74 3.367 0 0 1 1.095 2.738 2.295 2.067 0 0 0 3.42 1.766 3.04 2.738 0 0 1 4.12 3.203 2.295 2.067 0 0 0 4.165 1.588c1.52-2.464 3.36-7.365 1.079-9.938-1.52-1.738-4.454-1.218-6.278-.205a21.997 19.808 0 0 0-3.132 2.423c-1.839 1.465-3.04 2.149-2.356-.657 1.14-5.106 6.552-9.172 11.493-11.211l-3.344-2.313a48.068 43.284 0 0 1-9.197 16.221l3.892 1.451a10.155 9.144 0 0 1 6.202-8.912h-2.235l1.186 1.752c-.441 2.587 3.952 3.696 4.393 1.081.578-3.381-1.794-7.775-6.187-6.119-5.245 1.971-7.966 7.378-7.859 12.197 0 1.643 2.584 2.916 3.907 1.465a53.601 48.267 0 0 0 10.352-18.056 2.311 2.081 0 0 0-3.36-2.313 25.493 22.956 0 0 0-11.067 8.679c-1.855 2.738-4.18 7.009-2.295 10.157a4.834 4.353 0 0 0 6.569 1.706l.044-.022a17.786 16.016 0 0 0 3.816-2.738c.562-.452 1.186-1.232 1.931-1.369.669-.411.638-.178-.106.726a8.285 7.461 0 0 1-1.323 3.997l4.165 1.574a7.601 6.844 0 0 0-10.808-7.844l3.436 1.78a8.285 7.46 0 0 0-1.718-4.832 2.311 2.081 0 0 0-3.572-.424c-2.311 2.177-2.752 5.941.152 7.953 2.174 1.492 3.238 0 5.625-.342 8.103-.945 3.375 2.341.517 2.45a10.778 9.705 0 0 1-3.816-.246q-4.758-1.451-.593-3.737c2.721.999 3.892-2.971 1.216-3.956z"/><path d="M198.37 294.099c1.87 5.476-5.853 7.283-9.516 9.172a21.191 19.083 0 0 0-6.582 5.188c-3.831 4.627-5.26 10.513-6.522 16.057-.578 2.587 3.816 3.682 4.408 1.095a51.686 46.543 0 0 1 3.846-11.814c2.736-4.901 6.658-6.543 11.766-9.062s8.802-6.42 6.993-11.731c-.851-2.519-5.26-1.437-4.393 1.095z"/><path d="M205.971 291.348a4.409 3.97 0 0 0-3.8 4.107c0 1.629 1.201 2.669 2.022 3.97a34.811 31.347 0 0 1 4.409 8.638c.73 2.943 1.444 8.213-.258 10.951-3.147 5.079-8.832 4.107-13.682 4.107-4.561 0-8.087 1.369-7.935-4.353.091-3.217 2.584-6.475 4.561-9.007l-4.165-.493a79.461 71.554 0 0 1 1.383 12.676c0 1.903 3.238 2.957 4.241 1.027a88.065 79.301 0 0 0 5.792-14.428l-4.485-.548.791 10.404a2.295 2.067 0 0 0 4.241 1.04 5.168 4.654 0 0 0 1.14-1.848c.152-.643-1.247-4.983-1.809-3.436l4.469.548.319-9.883-4.561.548a22.712 20.452 0 0 1 .851 8.624c-.289 2.286 3.983 2.806 4.561.548l2.858-13.278-4.165.479a10.079 9.076 0 0 1 .775 5.914c-.334 2.628 4.226 2.601 4.561 0a16.023 14.428 0 0 0-1.399-7.981 2.295 2.067 0 0 0-4.165.493l-2.873 13.278 4.485.548a24.871 22.396 0 0 0-1.019-9.706 2.28 2.053 0 0 0-4.469.534l-.319 9.883a2.291 2.063 0 0 0 4.485.548l.243-.671a2.311 2.081 0 0 0-.578-1.999c-4.728-4.627-5.685 2.738-7.327 4.777l4.256 1.04-.791-10.404c-.167-2.218-3.816-2.902-4.484-.548a81.726 73.593 0 0 1-5.321 13.456l4.256 1.04a85.951 77.398 0 0 0-1.52-13.771c-.395-1.889-3.147-1.807-4.165-.493-3.04 3.942-8.3 12.553-4.241 17.276 3.542 4.107 14.685 2.519 19.443 2.259 7.51-.383 10.231-4.668 11.052-11.047a30.038 27.048 0 0 0-.562-9.144c-.41-1.615-4.561-11.855-5.807-11.649 2.888-.479 1.657-4.449-1.216-3.97z"/><path d="M197.139 300.574l-12.45 14.798 3.937 2.067 9.121-11.882-4.165-1.588-4.545 15.619a2.295 2.067 0 0 0 4.165 1.588 80.134 72.16 0 0 1 6.947-8.802l-3.8-1.999a24.824 22.354 0 0 1-5.731 9.486l3.816 1.999a20.371 18.343 0 0 1 1.657-5.476c1.171-2.368-2.539-4.463-3.937-2.081a53.524 48.198 0 0 1-4.393 6.215l4.165.493.927-3.901-4.165-.493.669 3.422a2.295 2.067 0 0 0 3.816.903 45.392 40.875 0 0 0 9.121-12.389h-3.922a20.477 18.44 0 0 1 2.143 5.476c.547 2.464 4.18 1.547 4.469-.548a123.603 111.303 0 0 0 1.003-13.826h-4.561v8.61c0 2.231 4.059 2.888 4.485.548a17.421 15.688 0 0 1 2.235-5.886h-3.998a10.14 9.131 0 0 1 1.52 4.654 2.28 2.053 0 0 0 4.561 0l.578-2.738h-4.393c.441 2.423 2.113 16.071-3.831 14.469-1.003-.219-1.292-.164-.867.151l1.353-2.601 3.177-6.064-4.256-1.04c.274 2.82.562 6.844-1.323 9.254-1.52 1.958-6.202 2.738-8.589 1.588a15.202 13.689 0 0 1-3.968-3.751l-3.116 2.738c2.523 1.656 6.613 5.722 9.866 5.955 2.478.178 4.56-1.67 6.187-3.148a26.497 23.86 0 0 0 7.434-17.563 2.28 2.053 0 0 0-4.561 0v4.682a2.28 2.053 0 0 0 4.561 0v-11.485a2.28 2.053 0 0 0-4.561 0 54.725 49.279 0 0 1-.79 8.213l4.485.548a104.986 94.538 0 0 1-.502-9.842 2.28 2.053 0 0 0-4.469-.548c-.684 2.615-1.52 5.188-2.326 7.748l4.165-.493-.319-1.095c-.213-2.615-4.773-2.628-4.561 0a8.346 7.516 0 0 0 .942 3.176c.882 1.67 3.633 1.081 4.165-.493a119.51 119.51 0 0 0 2.326-7.748l-4.485-.548a104.985 94.538 0 0 0 .502 9.842c.228 2.108 3.998 3.012 4.469.548a62.825 56.573 0 0 0 .958-9.363h-4.561v11.485h4.561v-4.682h-4.561a21.921 19.74 0 0 1-5.549 14.072 18.676 16.817 0 0 1-1.915 1.697c-1.079.931-2.067.794-2.934-.424-2.159-.808-4.393-2.888-6.278-4.107s-4.469 1.191-3.132 2.806c3.496 4.189 8.711 8.857 15.202 6.844 6.826-2.177 7.753-10.499 7.236-15.975-.167-1.821-3.192-3.053-4.241-1.027l-4.561 8.665a8.502 7.656 0 0 0-1.368 3.614c.502 3.08 4.652 2.574 7.206 2.396 9.896-.671 8.331-13.306 7.19-19.657-.38-2.108-3.785-1.78-4.393 0a13.423 12.087 0 0 0-.745 3.888h4.561a18.075 16.276 0 0 0-2.143-6.721 2.295 2.067 0 0 0-3.937 0 22.165 19.959 0 0 0-2.706 6.844l4.561.548v-8.61a2.28 2.053 0 0 0-4.561 0 123.603 111.303 0 0 1-1.003 13.826l4.485-.548a26.102 23.504 0 0 0-2.6-6.406 2.295 2.067 0 0 0-3.937 0 41.592 37.453 0 0 1-8.407 11.553l3.816.903-.669-3.422c-.35-1.821-3.208-1.875-4.165-.493a10.003 9.007 0 0 0-1.383 7.064c.38 1.944 3.116 1.738 4.165.493a53.355 48.045 0 0 0 4.393-6.201l-3.937-2.081a25.934 23.353 0 0 0-2.128 6.447c-.274 1.807 2.113 3.696 3.816 1.999a30.403 27.378 0 0 0 6.902-11.307c.562-1.862-2.295-3.628-3.816-1.999a87.087 78.421 0 0 0-7.601 9.582l4.165 1.588 4.637-15.564a2.295 2.067 0 0 0-4.165-1.588l-9.121 11.896c-1.703 2.204 2.204 4.107 3.937 2.067l12.405-14.784c1.763-2.108-2.189-4.107-3.937-2.081z"/></g><path d="M391.082 349.978c18.242-10.048 32.745-25.037 48.858-37.576 17.482-13.593 35.831-26.255 54.726-38.247 36.697-23.271 75.233-44.092 113.739-64.858a2.28 2.053 0 0 0-2.295-3.545c-38.506 20.766-77.058 41.546-113.755 64.858-17.315 10.951-34.219 22.559-50.424 34.88-17.634 13.415-33.337 30.116-53.206 40.944-2.508 1.369-.213 4.928 2.295 3.545z" fill="#fff"/><g fill="#f2f2f2"><use xlink:href="#A"/><use xlink:href="#A" x="30.404" y="158.792"/></g><path d="M637.472 185.518l14.396 14.784a2.295 2.067 0 0 0 3.8-.917c3.04-7.2 2.463-14.661 3.177-22.231a81.284 73.195 0 0 1 6.461-22.683 85.023 76.562 0 0 1 34.022-35.112c2.508-1.369.213-4.928-2.295-3.545a89.265 80.382 0 0 0-34.402 34.031 87.366 78.672 0 0 0-7.601 21.724c-1.52 8.884-.137 18.193-3.785 26.721l3.816-.917-14.32-14.757c-1.946-1.985-5.153.931-3.223 2.902z" fill="#dcdcdc"/><path d="M398.425 365.98q117.616-3.231 235.293-1.369a2.282 2.055 0 0 0 0-4.107q-117.646-1.889-235.293 1.369c-2.934.082-2.949 4.189 0 4.107z" fill="#fff"/><path d="M650.105 325.488a471.132 424.249 0 0 1 77.027 34.852c2.493 1.369 4.789-2.149 2.295-3.545a476.163 428.779 0 0 0-78.046-35.263c-2.721-.972-3.907 2.998-1.201 3.956z" fill="#e6e6e6"/><path d="M698.781 306.885a186.221 167.69 0 0 0-44.708 102.024c-.122 2.642 4.439 2.642 4.561 0a181.113 163.09 0 0 1 43.371-99.122c1.9-1.999-1.307-4.914-3.223-2.902z" fill="#e0e0e0"/><path d="M90.787 351.073l169.91-1.999 19.534-.233 10.535-.123c4.941 0 8.27 3.696 8.179 8.213-.228 9.582-6.917 9.24-15.673 9.582l-21.115.862-85.981 3.409-46.213 1.848c-13.894.383-40.315-3.696-34.143-21.902.851-2.532-3.542-3.614-4.409-1.095-3.04 8.953 2.341 18.042 11.006 22.737 12.298 6.653 28.503 4.394 42.078 3.847l105.561-4.312 25.63-1.027c6.567-.274 15.703.931 21.738-1.821 7.084-3.217 8.331-15.989 3.861-21.369-2.295-2.738-5.518-2.984-9.121-3.107-9.455-.329-19.078.233-28.549.342l-52.628.63-120.261 1.369a2.282 2.055 0 0 0 0 4.107z" fill="#fff"/><path fill="#0099de" d="M602.011 425.978l21.954-2.274-49.352-26.774 14.413 50.236 8.688-18.302 14.49 17.497 4.298-2.886z"/><path fill="#00b0ff" d="M614.004 452.543h83.61v26.009h-83.61z"/><path fill="#80b3ff" d="M305.395 265.296l14.49-17.497-21.954-2.274 49.352-26.774-14.413 50.236-8.688-18.302-14.49 17.497z"/><path fill="#59f" d="M224.283 275.732h83.61v26.009h-83.61z"/><path d="M435.482 483.187H258.893c0-48.764 39.531-88.295 88.295-88.295s88.295 39.531 88.295 88.295zm0 0" fill="#d4e1f4"/><path d="M418.664 483.187H258.893c0-48.773 35.737-88.295 79.886-88.295s79.886 39.521 79.886 88.295zm0 0" fill="#fff"/><path d="M435.482 483.187c0 48.764-39.531 88.295-88.295 88.295s-88.295-39.531-88.295-88.295zm0 0" fill="#a4c2f7"/><path d="M418.664 483.187c0 48.773-35.759 88.295-79.886 88.295s-79.886-39.521-79.886-88.295zm0 0" fill="#fff"/><g fill="#06f"><path d="M284.12 466.37c0 2.321-1.882 4.203-4.205 4.203s-4.203-1.882-4.203-4.203 1.882-4.205 4.203-4.205 4.205 1.882 4.205 4.205zm0 0"/><use xlink:href="#B"/></g><g fill="#2a7fff"><use xlink:href="#C"/><use xlink:href="#B" x="33.635" y="-29.432"/></g><use xlink:href="#C" x="105.112" y="16.817" fill="#59f"/><g fill="#2a7fff"><use xlink:href="#B" x="105.112" y="-16.817"/><use xlink:href="#C" x="71.477" y="-12.615"/><path d="M351.393 407.505c0 2.323-1.884 4.205-4.205 4.205s-4.205-1.882-4.205-4.205 1.884-4.203 4.205-4.203 4.205 1.882 4.205 4.203zm-4.206-16.818c-51.087 0-92.5 41.413-92.5 92.5s41.413 92.5 92.5 92.5 92.5-41.413 92.5-92.5c-.058-51.062-41.438-92.442-92.5-92.5zm0 8.409c44.758.075 81.622 35.185 83.876 79.886h-60.687l45.559-17.082a4.21 4.21 0 0 0 2.469-5.412 4.21 4.21 0 0 0-5.412-2.467l-66.571 24.961h-36.827c1.436-12.94 9.427-24.23 21.154-29.884a37.81 37.81 0 0 1 36.557 2.059l-8.522 2.133c-2.059.516-3.411 2.485-3.151 4.59s2.046 3.69 4.169 3.692a4.04 4.04 0 0 0 1.02-.125l16.82-4.205c.11-.04.217-.089.323-.142.187-.065.368-.142.543-.235a4.07 4.07 0 0 0 .839-.568c.085-.077.198-.106.279-.191s.067-.117.114-.171c.25-.291.462-.612.626-.958.056-.123.139-.223.185-.345.179-.47.271-.966.273-1.469V440.55c0-2.323-1.882-4.205-4.204-4.205s-4.205 1.882-4.205 4.205v3.867a46.25 46.25 0 0 0-45.388-2.833 46.24 46.24 0 0 0-25.873 37.398h-37.841c2.254-44.701 39.117-79.811 83.876-79.886zm0 168.182c-44.758-.075-81.622-35.185-83.876-79.886h167.761c-2.256 44.704-39.123 79.814-83.885 79.886zm0 0"/></g><path d="M313.552 508.414c2.321 0 4.203 1.882 4.203 4.205s1.882 4.203 4.205 4.203 4.204-1.882 4.204-4.203c0-6.967-5.647-12.614-12.612-12.614a12.95 12.95 0 0 0-12.614 12.614c0 6.802 6.207 9.904 10.734 12.193 3.563 1.757 6.084 3.137 6.084 4.625a4.49 4.49 0 0 1-4.203 4.203c-2.323 0-4.205-1.882-4.205-4.203s-1.882-4.205-4.204-4.205-4.205 1.882-4.205 4.205c0 6.965 5.647 12.612 12.614 12.612 6.892-.173 12.439-5.72 12.612-12.612 0-6.804-6.205-9.906-10.734-12.193-3.561-1.757-6.084-3.137-6.084-4.625.142-2.261 1.944-4.063 4.205-4.205zm37.841 0c2.321 0 4.204-1.882 4.204-4.203s-1.882-4.205-4.204-4.205h-8.411a8.41 8.41 0 0 0-8.409 8.409v25.227a8.41 8.41 0 0 0 8.409 8.409h8.411c2.321 0 4.204-1.882 4.204-4.203s-1.882-4.205-4.204-4.205h-8.411v-8.409h8.411c2.321 0 4.204-1.882 4.204-4.203s-1.882-4.205-4.204-4.205h-8.411v-8.409zm27.328-8.409a14.72 14.72 0 0 0-14.716 14.716v12.614a14.72 14.72 0 0 0 14.716 14.714 14.72 14.72 0 0 0 14.716-14.714v-12.614a14.72 14.72 0 0 0-14.716-14.716zm6.307 27.33a6.31 6.31 0 0 1-6.307 6.305 6.31 6.31 0 0 1-6.307-6.305v-12.614a6.31 6.31 0 0 1 6.307-6.307 6.31 6.31 0 0 1 6.307 6.307zm0 0" fill="#06f"/><defs><path id="A" d="M667.283 145.533c-19.762 1.807-41.045 6.338-53.206 21.902-10.504 13.388-10.276 36.741-.41 50.485 11.204 15.619 34.098 16.18 51.884 11.129s36.195-13.908 36.028-33.045c-.091-10.267-4.211-20.958-8.756-30.266-3.922-8.035-10.869-15.058-21.389-14.168-2.904.246-2.934 4.353 0 4.107 14.092-1.177 18.622 13.894 21.967 23.408 3.04 8.884 5.853 19.397 1.079 28.227s-16.281 13.333-26.117 16.564c-10.641 3.477-22.331 5.599-33.444 2.738-22.012-5.544-28.093-30.663-21.754-48.486 7.297-20.533 33.14-26.57 54.194-28.487 2.888-.26 2.919-4.367 0-4.107z"/><path id="B" d="M292.529 445.346c0 2.323-1.882 4.205-4.203 4.205s-4.205-1.882-4.205-4.205 1.882-4.203 4.205-4.203 4.203 1.882 4.203 4.203zm0 0"/><path id="C" d="M305.143 428.529c0 2.323-1.882 4.205-4.205 4.205s-4.203-1.882-4.203-4.205 1.882-4.203 4.203-4.203 4.205 1.882 4.205 4.203zm0 0"/></defs></svg>