<svg xmlns="http://www.w3.org/2000/svg" xmlns:v="https://vecta.io/nano" width="601.231" height="472" viewBox="0 0 75.154 59"><style>@keyframes RJwCmwqL_fade{0%,94.44444444444444%{stroke-opacity:1}}@keyframes RJwCmwqL_draw_0{11.11111111111111%{stroke-dashoffset:122}38.88888888888889%{stroke-dashoffset:0}}@keyframes RJwCmwqL_draw_1{11.434108527131782%{stroke-dashoffset:190}39.21188630490956%{stroke-dashoffset:0}}@keyframes RJwCmwqL_draw_2{11.757105943152455%{stroke-dashoffset:13}39.53488372093023%{stroke-dashoffset:0}}@keyframes RJwCmwqL_draw_3{12.080103359173128%{stroke-dashoffset:58}39.85788113695091%{stroke-dashoffset:0}}@keyframes RJwCmwqL_draw_4{12.4031007751938%{stroke-dashoffset:91}40.18087855297157%{stroke-dashoffset:0}}@keyframes RJwCmwqL_draw_5{12.726098191214469%{stroke-dashoffset:40}40.50387596899225%{stroke-dashoffset:0}}@keyframes RJwCmwqL_draw_6{13.049095607235142%{stroke-dashoffset:40}40.826873385012924%{stroke-dashoffset:0}}@keyframes RJwCmwqL_draw_7{13.372093023255815%{stroke-dashoffset:40}41.14987080103359%{stroke-dashoffset:0}}@keyframes RJwCmwqL_draw_8{13.695090439276486%{stroke-dashoffset:93}41.47286821705426%{stroke-dashoffset:0}}@keyframes RJwCmwqL_draw_9{14.018087855297157%{stroke-dashoffset:21}41.79586563307493%{stroke-dashoffset:0}}@keyframes RJwCmwqL_draw_10{14.341085271317827%{stroke-dashoffset:13}42.11886304909561%{stroke-dashoffset:0}}@keyframes RJwCmwqL_draw_11{14.664082687338501%{stroke-dashoffset:29}42.441860465116285%{stroke-dashoffset:0}}@keyframes RJwCmwqL_draw_12{14.987080103359174%{stroke-dashoffset:45}42.764857881136955%{stroke-dashoffset:0}}@keyframes RJwCmwqL_draw_13{15.310077519379844%{stroke-dashoffset:17}43.087855297157624%{stroke-dashoffset:0}}@keyframes RJwCmwqL_draw_14{15.633074935400519%{stroke-dashoffset:25}43.41085271317829%{stroke-dashoffset:0}}@keyframes RJwCmwqL_draw_15{15.956072351421188%{stroke-dashoffset:25}43.73385012919896%{stroke-dashoffset:0}}@keyframes RJwCmwqL_draw_16{16.279069767441857%{stroke-dashoffset:13}44.05684754521964%{stroke-dashoffset:0}}@keyframes RJwCmwqL_draw_17{16.60206718346253%{stroke-dashoffset:21}44.37984496124031%{stroke-dashoffset:0}}@keyframes RJwCmwqL_draw_18{16.925064599483203%{stroke-dashoffset:13}44.70284237726098%{stroke-dashoffset:0}}@keyframes RJwCmwqL_draw_19{17.248062015503876%{stroke-dashoffset:9}45.025839793281655%{stroke-dashoffset:0}}@keyframes RJwCmwqL_draw_20{17.571059431524546%{stroke-dashoffset:45}45.348837209302324%{stroke-dashoffset:0}}@keyframes RJwCmwqL_draw_21{17.89405684754522%{stroke-dashoffset:9}45.671834625323%{stroke-dashoffset:0}}@keyframes RJwCmwqL_draw_22{18.217054263565892%{stroke-dashoffset:25}45.99483204134367%{stroke-dashoffset:0}}@keyframes RJwCmwqL_draw_23{18.540051679586565%{stroke-dashoffset:25}46.31782945736435%{stroke-dashoffset:0}}@keyframes RJwCmwqL_draw_24{18.863049095607234%{stroke-dashoffset:13}46.64082687338501%{stroke-dashoffset:0}}@keyframes RJwCmwqL_draw_25{19.186046511627904%{stroke-dashoffset:9}46.96382428940568%{stroke-dashoffset:0}}@keyframes RJwCmwqL_draw_26{19.509043927648577%{stroke-dashoffset:9}47.28682170542635%{stroke-dashoffset:0}}@keyframes RJwCmwqL_draw_27{19.832041343669253%{stroke-dashoffset:9}47.609819121447025%{stroke-dashoffset:0}}@keyframes RJwCmwqL_draw_28{20.155038759689923%{stroke-dashoffset:14}47.9328165374677%{stroke-dashoffset:0}}@keyframes RJwCmwqL_draw_29{20.478036175710592%{stroke-dashoffset:14}48.25581395348837%{stroke-dashoffset:0}}@keyframes RJwCmwqL_draw_30{20.801033591731265%{stroke-dashoffset:14}48.57881136950905%{stroke-dashoffset:0}}@keyframes RJwCmwqL_draw_31{21.124031007751938%{stroke-dashoffset:229}48.90180878552971%{stroke-dashoffset:0}}@keyframes RJwCmwqL_draw_32{21.44702842377261%{stroke-dashoffset:9}49.224806201550386%{stroke-dashoffset:0}}@keyframes RJwCmwqL_draw_33{21.77002583979328%{stroke-dashoffset:356}49.54780361757106%{stroke-dashoffset:0}}@keyframes RJwCmwqL_draw_34{22.09302325581395%{stroke-dashoffset:119}49.870801033591725%{stroke-dashoffset:0}}@keyframes RJwCmwqL_draw_35{22.416020671834623%{stroke-dashoffset:43}50.1937984496124%{stroke-dashoffset:0}}@keyframes RJwCmwqL_draw_36{22.739018087855296%{stroke-dashoffset:31}50.51679586563307%{stroke-dashoffset:0}}@keyframes RJwCmwqL_draw_37{23.06201550387597%{stroke-dashoffset:16}50.83979328165375%{stroke-dashoffset:0}}@keyframes RJwCmwqL_draw_38{23.385012919896642%{stroke-dashoffset:16}51.162790697674424%{stroke-dashoffset:0}}@keyframes RJwCmwqL_draw_39{23.70801033591731%{stroke-dashoffset:16}51.485788113695094%{stroke-dashoffset:0}}@keyframes RJwCmwqL_draw_40{24.031007751937985%{stroke-dashoffset:40}51.80878552971576%{stroke-dashoffset:0}}@keyframes RJwCmwqL_draw_41{24.354005167958658%{stroke-dashoffset:78}52.131782945736425%{stroke-dashoffset:0}}@keyframes RJwCmwqL_draw_42{24.677002583979327%{stroke-dashoffset:14}52.4547803617571%{stroke-dashoffset:0}}@keyframes RJwCmwqL_draw_43{25%{stroke-dashoffset:17}52.77777777777778%{stroke-dashoffset:0}}.A{animation:RJwCmwqL_draw_0 7200ms linear 0ms infinite,RJwCmwqL_fade 7200ms linear 0ms infinite}.B{animation:RJwCmwqL_draw_1 7200ms linear 0ms infinite,RJwCmwqL_fade 7200ms linear 0ms infinite}.C{animation:RJwCmwqL_draw_2 7200ms linear 0ms infinite,RJwCmwqL_fade 7200ms linear 0ms infinite}.D{animation:RJwCmwqL_draw_3 7200ms linear 0ms infinite,RJwCmwqL_fade 7200ms linear 0ms infinite}.E{animation:RJwCmwqL_draw_4 7200ms linear 0ms infinite,RJwCmwqL_fade 7200ms linear 0ms infinite}.F{animation:RJwCmwqL_draw_5 7200ms linear 0ms infinite,RJwCmwqL_fade 7200ms linear 0ms infinite}.G{animation:RJwCmwqL_draw_6 7200ms linear 0ms infinite,RJwCmwqL_fade 7200ms linear 0ms infinite}.H{animation:RJwCmwqL_draw_7 7200ms linear 0ms infinite,RJwCmwqL_fade 7200ms linear 0ms infinite}.I{animation:RJwCmwqL_draw_8 7200ms linear 0ms infinite,RJwCmwqL_fade 7200ms linear 0ms infinite}.J{animation:RJwCmwqL_draw_9 7200ms linear 0ms infinite,RJwCmwqL_fade 7200ms linear 0ms infinite}.K{animation:RJwCmwqL_draw_10 7200ms linear 0ms infinite,RJwCmwqL_fade 7200ms linear 0ms infinite}.L{animation:RJwCmwqL_draw_11 7200ms linear 0ms infinite,RJwCmwqL_fade 7200ms linear 0ms infinite}.M{animation:RJwCmwqL_draw_12 7200ms linear 0ms infinite,RJwCmwqL_fade 7200ms linear 0ms infinite}.N{animation:RJwCmwqL_draw_13 7200ms linear 0ms infinite,RJwCmwqL_fade 7200ms linear 0ms infinite}.O{animation:RJwCmwqL_draw_14 7200ms linear 0ms infinite,RJwCmwqL_fade 7200ms linear 0ms infinite}.P{animation:RJwCmwqL_draw_15 7200ms linear 0ms infinite,RJwCmwqL_fade 7200ms linear 0ms infinite}.Q{animation:RJwCmwqL_draw_16 7200ms linear 0ms infinite,RJwCmwqL_fade 7200ms linear 0ms infinite}.R{animation:RJwCmwqL_draw_17 7200ms linear 0ms infinite,RJwCmwqL_fade 7200ms linear 0ms infinite}.S{animation:RJwCmwqL_draw_18 7200ms linear 0ms infinite,RJwCmwqL_fade 7200ms linear 0ms infinite}.T{animation:RJwCmwqL_draw_19 7200ms linear 0ms infinite,RJwCmwqL_fade 7200ms linear 0ms infinite}.U{animation:RJwCmwqL_draw_20 7200ms linear 0ms infinite,RJwCmwqL_fade 7200ms linear 0ms infinite}.V{animation:RJwCmwqL_draw_21 7200ms linear 0ms infinite,RJwCmwqL_fade 7200ms linear 0ms infinite}.W{animation:RJwCmwqL_draw_22 7200ms linear 0ms infinite,RJwCmwqL_fade 7200ms linear 0ms infinite}.X{animation:RJwCmwqL_draw_23 7200ms linear 0ms infinite,RJwCmwqL_fade 7200ms linear 0ms infinite}.Y{animation:RJwCmwqL_draw_24 7200ms linear 0ms infinite,RJwCmwqL_fade 7200ms linear 0ms infinite}.Z{animation:RJwCmwqL_draw_25 7200ms linear 0ms infinite,RJwCmwqL_fade 7200ms linear 0ms infinite}.a{animation:RJwCmwqL_draw_26 7200ms linear 0ms infinite,RJwCmwqL_fade 7200ms linear 0ms infinite}.b{animation:RJwCmwqL_draw_27 7200ms linear 0ms infinite,RJwCmwqL_fade 7200ms linear 0ms infinite}.c{animation:RJwCmwqL_draw_28 7200ms linear 0ms infinite,RJwCmwqL_fade 7200ms linear 0ms infinite}.d{animation:RJwCmwqL_draw_29 7200ms linear 0ms infinite,RJwCmwqL_fade 7200ms linear 0ms infinite}.e{animation:RJwCmwqL_draw_30 7200ms linear 0ms infinite,RJwCmwqL_fade 7200ms linear 0ms infinite}.f{animation:RJwCmwqL_draw_31 7200ms linear 0ms infinite,RJwCmwqL_fade 7200ms linear 0ms infinite}.g{animation:RJwCmwqL_draw_32 7200ms linear 0ms infinite,RJwCmwqL_fade 7200ms linear 0ms infinite}.h{animation:RJwCmwqL_draw_33 7200ms linear 0ms infinite,RJwCmwqL_fade 7200ms linear 0ms infinite}.i{animation:RJwCmwqL_draw_34 7200ms linear 0ms infinite,RJwCmwqL_fade 7200ms linear 0ms infinite}.j{animation:RJwCmwqL_draw_35 7200ms linear 0ms infinite,RJwCmwqL_fade 7200ms linear 0ms infinite}.k{animation:RJwCmwqL_draw_36 7200ms linear 0ms infinite,RJwCmwqL_fade 7200ms linear 0ms infinite}.l{animation:RJwCmwqL_draw_37 7200ms linear 0ms infinite,RJwCmwqL_fade 7200ms linear 0ms infinite}.m{animation:RJwCmwqL_draw_38 7200ms linear 0ms infinite,RJwCmwqL_fade 7200ms linear 0ms infinite}.n{animation:RJwCmwqL_draw_39 7200ms linear 0ms infinite,RJwCmwqL_fade 7200ms linear 0ms infinite}.o{animation:RJwCmwqL_draw_40 7200ms linear 0ms infinite,RJwCmwqL_fade 7200ms linear 0ms infinite}.p{animation:RJwCmwqL_draw_41 7200ms linear 0ms infinite,RJwCmwqL_fade 7200ms linear 0ms infinite}.q{animation:RJwCmwqL_draw_42 7200ms linear 0ms infinite,RJwCmwqL_fade 7200ms linear 0ms infinite}.r{animation:RJwCmwqL_draw_43 7200ms linear 0ms infinite,RJwCmwqL_fade 7200ms linear 0ms infinite}.s{stroke:#0050ff}.t{fill:#fff}.u{stroke-width:.175}.v{stroke-dasharray:39 41}.w{stroke-dashoffset:40}.x{stroke-dasharray:8 10}.y{stroke-dashoffset:9}</style><g class="s u"><path fill="#2a7fff" stroke-dasharray="121 123" stroke-dashoffset="122" d="M57 7v4H3V7a4 4 0 0 1 4-4h46a4 4 0 0 1 4 4z" class="A" transform="translate(-1.125 -2.875)"/><path stroke-dasharray="189 191" stroke-dashoffset="190" d="M57 11v38a4 4 0 0 1-4 4H7a4 4 0 0 1-4-4V11z" class="B t" transform="translate(-1.125 -2.875)"/></g><g fill="#d8d7da"><path d="M 45,55.54 45.84,57 h -4.52 a 2.025,2.025 0 0 1 0.66,-2 2.977,2.977 0 0 1 0.29,-0.2 1.994,1.994 0 0 1 2.73,0.74 z" class="C" transform="translate(-1.125 -2.875)"/><path d="M61 53a4 4 0 0 1-4 4H47V47c.003-1.103.897-1.997 2-2 1.101.008 1.992.899 2 2v6c.038-1.088.912-1.962 2-2 1.101.008 1.992.899 2 2v1c.003-1.103.897-1.997 2-2 .531-.003 1.04.21 1.41.59.062.059.119.122.17.19A1.94 1.94 0 0 1 59 54v1c.003-1.103.897-1.997 2-2z" class="D" transform="translate(-1.125 -2.875)"/></g><g stroke-width=".188" class="s"><path fill="#ffc477" stroke-dasharray="90 92" stroke-dashoffset="91" d="M61 53v9H43.27l-2.89-5-.84-1.46a2 2 0 0 1 .44-2.54c.093-.072.189-.139.29-.2.46-.266 1.006-.337 1.519-.198s.948.476 1.211.938L45 57V45c.003-1.103.897-1.997 2-2 1.101.008 1.992.899 2 2v6c.038-1.088.912-1.962 2-2 1.101.008 1.992.899 2 2v1c.003-1.103.897-1.997 2-2 .531-.003 1.04.21 1.41.59.062.059.119.122.17.19A1.94 1.94 0 0 1 57 52v1c.003-1.103.897-1.997 2-2 1.101.008 1.992.899 2 2z" class="E" transform="translate(-1.125 -2.875)"/><g fill="#d8d7da" class="v w"><path d="M12 39h8a1 1 0 0 1 1 1v8a1 1 0 0 1-1 1h-8a1 1 0 0 1-1-1v-8a1 1 0 0 1 1-1" class="F" transform="translate(-1.125 -2.875)"/><path d="M12 19h8a1 1 0 0 1 1 1v8a1 1 0 0 1-1 1h-8a1 1 0 0 1-1-1v-8a1 1 0 0 1 1-1" class="G" transform="translate(-1.125 -2.875)"/></g></g><path fill="#06f" d="M10 17h8a1 1 0 0 1 1 1v8a1 1 0 0 1-1 1h-8a1 1 0 0 1-1-1v-8a1 1 0 0 1 1-1" class="H" transform="translate(-1.125 -2.875)"/><path fill="#b3b3b3" stroke-dasharray="92 94" stroke-dashoffset="93" d="M8 31h44v2H8z" class="I s u" transform="translate(-1.125 -2.875)"/><g class="t"><path d="M24 26h8v2h-8z" class="J" transform="translate(-1.125 -2.875)"/><path d="M34 26h4v2h-4z" class="K" transform="translate(-1.125 -2.875)"/><path d="M40 26h12v2H40z" class="L" transform="translate(-1.125 -2.875)"/><path d="M24 22h20v2H24z" class="M" transform="translate(-1.125 -2.875)"/><path d="M46 22h6v2h-6z" class="N" transform="translate(-1.125 -2.875)"/><path d="M24 18h10v2H24z" class="O" transform="translate(-1.125 -2.875)"/><path d="M36 18h10v2H36z" class="P" transform="translate(-1.125 -2.875)"/><path d="M48 18h4v2h-4z" class="Q" transform="translate(-1.125 -2.875)"/></g><g fill="#ccc"><path stroke-dasharray="20 22" stroke-dashoffset="21" d="M24 46h8v2h-8z" class="R s u" transform="translate(-1.125 -2.875)"/><path d="M34 46h4v2h-4z" class="S" transform="translate(-1.125 -2.875)"/><path d="M40 46h2v2h-2z" class="T s u x y" transform="translate(-1.125 -2.875)"/><path d="M24 42h20v2H24z" class="U" transform="translate(-1.125 -2.875)"/><path d="M50 42h2v2h-2z" class="V" transform="translate(-1.125 -2.875)"/><path d="M24 38h10v2H24z" class="W" transform="translate(-1.125 -2.875)"/><path stroke-dasharray="24 26" stroke-dashoffset="25" d="M36 38h10v2H36z" class="X s u" transform="translate(-1.125 -2.875)"/><path d="M48 38h4v2h-4z" class="Y" transform="translate(-1.125 -2.875)"/></g><g stroke-width=".163" class="s t x y"><path d="M6 6h2v2H6z" class="Z" transform="translate(-1.125 -2.875)"/><path d="M10 6h2v2h-2z" class="a" transform="translate(-1.125 -2.875)"/><path d="M14 6h2v2h-2z" class="b" transform="translate(-1.125 -2.875)"/></g><g fill="#ffb655"><path d="M57 51h0a1 1 0 0 1 1 1v3a1 1 0 0 1-1 1h0a1 1 0 0 1-1-1v-3a1 1 0 0 1 1-1" class="c" transform="translate(-1.125 -2.875)"/><path d="M53 50h0a1 1 0 0 1 1 1v3a1 1 0 0 1-1 1h0a1 1 0 0 1-1-1v-3a1 1 0 0 1 1-1" class="d" transform="translate(-1.125 -2.875)"/><path d="M49 50h0a1 1 0 0 1 1 1v3a1 1 0 0 1-1 1h0a1 1 0 0 1-1-1v-3a1 1 0 0 1 1-1" class="e" transform="translate(-1.125 -2.875)"/></g><path fill="#e09b2d" d="M131.998 512l-35.752-39.332 24.378-26.824L180.742 512z" class="f" transform="matrix(.042037 0 0 .047258 7.458751 -.070983)"/><path d="M13.188 16.945c.668 0 1.208.555 1.208 1.24s-.541 1.24-1.208 1.24-1.208-.556-1.208-1.24.541-1.24 1.208-1.24z" class="g t"/><path fill="#f7b239" d="M9.902 461.6l38.134-41.956 48.21 53.024L131.998 512H9.902z" class="h" transform="matrix(.042037 0 0 .047258 7.458751 -.070983)"/><path fill="#ccc" stroke-dasharray="118 120" stroke-dashoffset="119" stroke-width=".174" d="M71.625 24.761H24.976c-.568 0-1.029-.497-1.029-1.11v-8.659c0-.613.461-1.11 1.029-1.11h46.649c.568 0 1.029.497 1.029 1.11v8.659c0 .613-.461 1.11-1.029 1.11z" class="i s"/><path fill="#2a7fff" d="M62.778 24.761h8.465c.779 0 1.411-.609 1.411-1.36v-8.16c0-.751-.632-1.36-1.411-1.36h-8.465c-.779 0-1.411.609-1.411 1.36v8.16c0 .751.632 1.36 1.411 1.36z" class="j"/><path d="M70.497 21.4l-1.881-1.813c.168-.36.275-.753.275-1.172 0-1.5-1.266-2.72-2.822-2.72s-2.822 1.22-2.822 2.72 1.266 2.72 2.822 2.72c.435 0 .842-.103 1.211-.273l1.886 1.821c.184.177.424.266.665.266s.481-.089.665-.266c.367-.354.367-.928 0-1.282zm-4.427-2.079c-.518 0-.941-.407-.941-.907s.422-.907.941-.907.941.407.941.907-.422.907-.941.907z" class="k t"/><g class="s"><g stroke-dasharray="15 17" stroke-dashoffset="16" stroke-width=".105"><path fill="#f2f2f2" d="M53.843 19.321a2.351 2.267 0 1 1 4.703 0 2.351 2.267 0 1 1-4.703 0" class="l"/><path fill="#f9f9f9" d="M47.259 19.321a2.351 2.267 0 1 1 4.703 0 2.351 2.267 0 1 1-4.703 0" class="m"/><path d="M40.734 19.388a2.351 2.267 0 1 1 4.703 0 2.351 2.267 0 1 1-4.703 0" class="n t"/></g><path stroke-width=".051" d="M17.227 44.197H9.131a.953.847 0 0 1-.952-.846v-8.52a.713.634 0 0 1 .712-.633h8.565a.724.644 0 0 1 .723.643v8.51a.953.847 0 0 1-.952.846z" class="o t v w"/></g><path fill="#3f3d56" d="M17.227 44.197H9.131a.953.847 0 0 1-.952-.846v-8.52a.713.634 0 0 1 .712-.633h8.565a.724.644 0 0 1 .723.643v8.51a.953.847 0 0 1-.952.846zm-8.336-9.903a.604.537 0 0 0-.603.536v8.52a.844.751 0 0 0 .843.75h8.096a.844.751 0 0 0 .843-.75v-8.51a.615.547 0 0 0-.615-.546z" class="p"/><g fill="#00b0ff"><path d="M11.199 37.79a1.951 2.023 0 1 1 3.901 0 1.951 2.023 0 1 1-3.901 0" class="q"/><path d="M16.275 42.642h-6.25v-.021a2.172 2.253 0 0 1 2.17-2.25h1.911a2.172 2.253 0 0 1 2.17 2.25z" class="r"/></g></svg>