<svg xmlns="http://www.w3.org/2000/svg" xmlns:svg="http://www.w3.org/2000/svg" id="svg5308" width="500.636" height="413.826" version="1.1" viewBox="0 0 500.636 413.826"><metadata id="metadata5314"/><g id="g5306" transform="matrix(0.956787,0,0,0.94807,14.116322,-81.939211)"><path id="path5270" fill="#e0dede" d="m 305.13735,482.27547 h -180.353 v 0 c 27.085,-3.315 47.44,-26.315 47.44,-53.601 v -52.988 h 85.473 v 52.988 c 0,27.286 20.356,50.286 47.44,53.601 z"/><path id="path5272" fill="#e8e6e6" d="m 380.88235,394.86401 h -344.916 c -12.493,0 -22.621,-9.92023 -22.621,-22.15694 V 139.26933 c 0,-12.2367 10.128,-22.15693 22.621,-22.15693 h 344.916 c 12.493,0 22.621,9.92023 22.621,22.15693 v 233.43676 c 10e-4,12.23769 -10.127,22.15792 -22.621,22.15792 z m -14.205,99.47846 h -308.461 c -3.123,0 -5.654,-2.47908 -5.654,-5.53801 v -0.74343 c 0,-3.05893 2.531,-5.53801 5.654,-5.53801 h 308.461 c 3.123,0 5.654,2.47908 5.654,5.53801 v 0.74343 c 0,3.05795 -2.531,5.53801 -5.654,5.53801 z" style="stroke-width:.989689"/><path id="path5274" fill="#4384ec" d="m 13.39035,150.29396 v 196.72051 h 391 V 150.29396 c 0,-0.64725 -0.908,-1.5846 -0.944,-2.50268 h -390.044 z" style="stroke-width:.958165"/><path id="path5276" fill="#2666ce" d="m 13.39035,150.29396 v 196.43851 l 390.562,-196.48258 c 0,-0.64717 -0.47,-1.54035 -0.505,-2.45832 h -390.045 z" style="stroke-width:.958108"/><path id="path5278" fill="#d3cdcd" d="m 172.22435,392.78047 h 85.473 v 17.428 h -85.473 z"/><path id="path5280" fill="#2666ce" d="m 404.39035,347.01447 v -72 h -125.74 c -6.305,0 -11.26,5.215 -11.26,11.52 v 60.48 z"/><path id="path5282" fill="#d3cdcd" d="m 267.39035,347.01447 v 46 h 111.975 c 13.331,0 25.025,-11.042 25.025,-24.374 v -21.626 z m 17,128.066 c -7,-3.959 -13,-9.298 -17,-15.594 v 22.528 h 17 z"/><path id="path5284" fill="#e0dede" d="m 267.36435,482.25447 h 22.322 v 12.088 h -22.322 z"/><path id="path5286" fill="#d3cdcd" d="m 424.30535,494.34247 h -135.337 a 10.7,10.7 0 0 1 -10.699,-10.699 v -197.827 a 10.7,10.7 0 0 1 10.699,-10.699 h 135.337 a 10.7,10.7 0 0 1 10.699,10.699 v 197.827 a 10.7,10.7 0 0 1 -10.699,10.699 z"/><path id="path5288" fill="#4384ec" d="m 278.26935,293.99147 h 156.735 v 170.122 h -156.735 z"/><path id="path5290" fill="#2666ce" d="m 278.26935,464.11347 v -170.122 h 156.735 z"/><path id="path5292" fill="#e8e6e6" d="m 364.15235,482.27547 h -15.03 a 3.52,3.52 0 0 1 -3.521,-3.521 v -0.473 a 3.52,3.52 0 0 1 3.521,-3.521 h 15.03 a 3.52,3.52 0 0 1 3.521,3.521 v 0.473 c -0.001,1.945 -1.577,3.521 -3.521,3.521 z"/><path id="path5294" fill="#1d5ebc" d="m 404.00935,464.44147 v -73.808 a 11.42,11.42 0 0 1 11.417,-11.417 h 39.158 a 11.42,11.42 0 0 1 11.417,11.417 v 73.808 z"/><path id="path5296" fill="#c4bcbc" d="m 404.39035,482.92547 c 0,6.305 4.73,11.089 11.036,11.089 h 39.157 c 3.822,0 6.807,-1.558 8.807,-4.442 v -25.558 h -59 z"/><path id="path5298" fill="#e8e6e6" d="m 465.46635,494.34247 h -40.593 a 10.7,10.7 0 0 1 -10.699,-10.699 v -93.728 a 10.7,10.7 0 0 1 10.699,-10.699 h 40.593 a 10.7,10.7 0 0 1 10.699,10.699 v 93.728 a 10.7,10.7 0 0 1 -10.699,10.699 z"/><path id="path5300" fill="#4384ec" d="m 414.17335,389.12847 h 61.992 v 89.511 h -61.992 z"/><path id="path5302" fill="#2666ce" d="m 414.17335,478.63947 v -89.511 h 61.992 z"/><path id="path5304" fill="#fff" d="m 448.06835,489.78947 h -5.797 a 3.52,3.52 0 0 1 -3.521,-3.521 v -0.473 a 3.52,3.52 0 0 1 3.521,-3.521 h 5.797 a 3.52,3.52 0 0 1 3.521,3.521 v 0.473 c -0.001,1.945 -1.577,3.521 -3.521,3.521 z"/></g></svg>