<svg xmlns="http://www.w3.org/2000/svg" xmlns:svg="http://www.w3.org/2000/svg" id="Capa_1" width="512" height="512" enable-background="new 0 0 512 512" version="1.1" viewBox="0 0 512 512"><metadata id="metadata508"/><g style="fill:#1a1a1a" id="g501"><path style="fill:#1a1a1a" id="path487" d="m52.913 83.5c-12.391 0-22.472 10.093-22.472 22.5s10.081 22.5 22.472 22.5 22.471-10.093 22.471-22.5-10.08-22.5-22.471-22.5zm0 30c-4.12 0-7.472-3.364-7.472-7.5s3.352-7.5 7.472-7.5c4.119 0 7.471 3.364 7.471 7.5s-3.352 7.5-7.471 7.5z"/><path style="fill:#1a1a1a" id="path489" d="m117.788 83.5c-12.391 0-22.472 10.093-22.472 22.5s10.081 22.5 22.472 22.5 22.471-10.093 22.471-22.5-10.08-22.5-22.471-22.5zm0 30c-4.12 0-7.472-3.364-7.472-7.5s3.352-7.5 7.472-7.5c4.119 0 7.471 3.364 7.471 7.5s-3.352 7.5-7.471 7.5z"/><path style="fill:#1a1a1a" id="path491" d="m180.792 83.5c-12.391 0-22.472 10.093-22.472 22.5s10.081 22.5 22.472 22.5 22.471-10.093 22.471-22.5-10.08-22.5-22.471-22.5zm0 30c-4.12 0-7.472-3.364-7.472-7.5s3.352-7.5 7.472-7.5c4.119 0 7.471 3.364 7.471 7.5s-3.352 7.5-7.471 7.5z"/><path style="fill:#1a1a1a" id="path493" d="m479.856 106c0-12.407-10.081-22.5-22.472-22.5h-209.596c-12.391 0-22.472 10.093-22.472 22.5s10.081 22.5 22.472 22.5h209.597c12.39 0 22.471-10.093 22.471-22.5zm-22.471 7.5h-209.597c-4.12 0-7.472-3.364-7.472-7.5s3.352-7.5 7.472-7.5h209.597c4.12 0 7.472 3.364 7.472 7.5s-3.352 7.5-7.472 7.5z"/><path style="fill:#2a7fff" id="path495" d="m 405.0774,326.45498 c -2.382,-3.386 -7.059,-4.202 -10.449,-1.819 -3.388,2.383 -4.202,7.062 -1.818,10.45 l 18.771,26.684 c 2.389,3.244 1.518,8.196 -1.82,10.443 -3.26,2.39 -8.196,1.518 -10.455,-1.818 l -45.104,-64.112 c -2.338,-3.322 -6.158,-5.306 -10.22,-5.307 -0.002,0 -0.002,0 -0.004,0 -4.06,0 -7.88,1.982 -10.219,5.301 l -45.16,64.111 c -2.276,3.34 -7.201,4.219 -10.468,1.821 -3.38,-2.381 -4.191,-7.069 -1.809,-10.45 l 53.423,-75.843 c 3.031,-4.303 3.032,-10.086 0.005,-14.39 l -45.194,-64.25 c -2.379,-3.383 -1.563,-8.072 1.814,-10.448 3.389,-2.378 8.078,-1.563 10.457,1.816 l 36.952,52.531 c 2.337,3.322 6.158,5.307 10.22,5.308 h 0.004 c 4.062,0 7.882,-1.982 10.22,-5.302 l 37.009,-52.542 c 2.257,-3.342 7.203,-4.199 10.454,-1.806 3.345,2.252 4.203,7.2 1.813,10.447 l -45.264,64.263 c -3.031,4.303 -3.032,10.086 -0.004,14.39 l 14.431,20.514 c 2.383,3.387 7.06,4.204 10.449,1.819 3.388,-2.383 4.202,-7.062 1.818,-10.45 l -13.418,-19.074 44.25,-62.824 c 7.171,-9.742 4.592,-24.597 -5.441,-31.351 -9.74,-7.169 -24.592,-4.597 -31.352,5.433 l -34.964,49.639 -34.91,-49.626 c -7.133,-10.137 -21.191,-12.587 -31.35,-5.458 -10.146,7.138 -12.595,21.201 -5.459,31.349 l 44.183,62.812 -52.409,74.404 c -7.146,10.142 -4.709,24.205 5.436,31.354 9.774,7.166 24.54,4.575 31.357,-5.435 l 43.124,-61.22 43.061,61.207 c 6.776,10.015 21.58,12.616 31.349,5.458 10.036,-6.753 12.628,-21.608 5.459,-31.35 z"/><path style="fill:#2a7fff" id="path497" d="m 221.8152,179.18257 c -12.406,0 -22.5,10.093 -22.5,22.5 v 112.125 c 0,7.657 -2.182,16.583 -18.36,24.731 -4.956,2.496 -10.586,3.761 -16.797,3.761 -6.786,-0.009 -12.669,-1.665 -17.983,-5.06 -12.66,-8.088 -15.203,-14.917 -15.203,-23.315 v -52.183 c 0,-4.142 -3.357,-7.5 -7.5,-7.5 -4.143,0 -7.5,3.358 -7.5,7.5 v 52.184 c 0,15.293 6.617,26.046 22.127,35.956 7.794,4.979 16.312,7.406 26.122,7.419 8.513,0 16.413,-1.805 23.481,-5.364 17.908,-9.02 26.613,-21.491 26.613,-38.128 v -112.126 c 0,-4.136 3.364,-7.5 7.5,-7.5 4.136,0 7.5,3.364 7.5,7.5 v 112.125 c 0,22.538 -11.731,39.874 -34.867,51.525 -9.181,4.623 -19.351,6.967 -30.227,6.967 h -0.104 c -12.495,-0.017 -23.966,-3.307 -34.095,-9.779 -19.82,-12.663 -29.052,-28.104 -29.052,-48.596 v -112.242 c 0,-4.136 3.364,-7.5 7.5,-7.5 4.136,0 7.5,3.364 7.5,7.5 v 25.059 c 0,4.142 3.357,7.5 7.5,7.5 4.143,0 7.5,-3.358 7.5,-7.5 v -25.059 c 0,-12.407 -10.094,-22.5 -22.5,-22.5 -12.405999,0 -22.499999,10.093 -22.499999,22.5 v 112.243 c 0,25.382 12.104,45.985 35.975999,61.236 12.573,8.034 26.755,12.118 42.16,12.139 h 0.114 c 13.241,0 25.681,-2.883 36.974,-8.57 35.639,-17.949 43.12,-45.212 43.12,-64.922 v -112.126 c 0.001,-12.407 -10.093,-22.5 -22.499,-22.5 z"/><path style="stroke-width:.962922;fill:#1a1a1a" id="path499" d="M 474.5,54 H 37.5 C 16.822,54 0,69.59769 0,88.770738 V 393.82602 c 0,19.17304 16.822,34.77073 37.5,34.77073 h 437 c 20.678,0 37.5,-15.59769 37.5,-34.77073 V 88.770738 C 512,69.59769 495.178,54 474.5,54 Z m 0,360.68846 c -144.65462,-1.87678 -290.65507,-1.2578 -437,0 C 25.094533,414.79508 15,405.33003 15,393.82602 V 150.89446 h 423 c 4.143,0 7.5,-3.11361 7.5,-6.95415 0,-3.84054 -3.357,-6.95415 -7.5,-6.95415 H 15 V 88.770738 C 15,77.266724 25.094,67.908295 37.5,67.908295 h 437 c 12.406,0 22.5,9.358429 22.5,20.862443 v 48.215422 h -24 c -4.143,0 -7.5,3.11361 -7.5,6.95415 0,3.84054 3.357,6.95415 7.5,6.95415 h 24 v 242.93156 c 0,11.50401 -10.09521,21.02339 -22.5,20.86244 z"/></g></svg>