<svg xmlns="http://www.w3.org/2000/svg" xmlns:xlink="http://www.w3.org/1999/xlink" height="560.418" width="808.778" xmlns:v="https://vecta.io/nano"><path fill="#646389" d="M745.627 510.204H78.373A22.373 20.202 0 0 1 56 490.002h0q362.819-38.073 712 0h0a22.373 20.202 0 0 1-22.373 20.202z"/><path fill="#3f3d56" d="M768 491.19l-712-1.188 82.913-125.963V87.741a28.28 25.535 0 0 1 28.283-25.537h485.66a28.28 25.535 0 0 1 28.283 25.537v278.2z"/><path fill="#fff" d="M166.551 80.028a9.223 8.328 0 0 0-9.213 8.318v251.926a9.223 8.328 0 0 0 9.213 8.318h490.898a9.224 8.328 0 0 0 9.213-8.318V88.347a9.223 8.328 0 0 0-9.213-8.318z"/><path fill="#4d4b68" d="M169.777 381.864a3.959 3.575 0 0 0-3.587 2.075l-25.426 49.91a3.948 3.565 0 0 0 3.586 5.055h534.705a3.948 3.565 0 0 0 3.531-5.159l-27.638-49.91a3.928 3.547 0 0 0-3.531-1.97z"/><ellipse ry="5.347" rx="5.922" fill="#fff" cy="70.522" cx="410.026"/><path fill="#616086" d="M357.469 448.41a3.954 3.57 0 0 0-3.812 2.638l-6.378 21.39a3.948 3.565 0 0 0 3.812 4.492h121.295a3.947 3.564 0 0 0 3.73-4.731l-8.2-21.39a3.95 3.567 0 0 0-3.731-2.399z"/><path fill="#2f2e41" d="M681.138 359.88v4.753H138.518l.409-.594v-4.159z"/><g fill="#e6e6e6"><use xlink:href="#A"/><use xlink:href="#A" y="72.844"/><path d="M512.439 270.226H384.413v2.111h128.026a23.766 21.459 0 1 1 0 42.918H318.713a23.766 21.459 0 0 1 0-42.918h7.24v-2.111h-7.24a26.104 23.57 0 0 0 0 47.141h193.726a26.104 23.57 0 1 0 0-47.141z"/></g><g fill="#3f3d56"><path d="M340.404 118.96a6.953 6.278 0 0 0 0 12.555h30.499a6.953 6.278 0 1 0 .228-12.555q-.114-.002-.228 0z"/><use xlink:href="#B"/><use xlink:href="#B" y="71.788"/></g><g fill="#00b0ff"><use xlink:href="#C"/><use xlink:href="#C" y="72.843"/></g><use xlink:href="#C" y="145.687" fill="#e6e6e6"/><ellipse ry="12.571" rx="13.922" fill="#00b0ff" cy="147.614" cx="263.566"/><use xlink:href="#E" fill="#fff"/><ellipse ry="12.571" rx="13.922" fill="#00b0ff" cy="220.458" cx="263.566"/><use xlink:href="#E" y="72.844" fill="#fff"/><g fill="#e6e6e6"><ellipse ry="12.571" rx="13.922" cy="293.302" cx="263.566"/><ellipse ry="12.571" rx="13.922" cy="147.614" cx="568.727"/><ellipse ry="12.571" rx="13.922" cy="220.458" cx="568.727"/><ellipse ry="12.571" rx="13.922" cy="293.302" cx="568.727"/></g><g fill="#fff"><path d="M268.985 288.147l2.17 1.855-8.881 8.464-4.056-4.709 2.359-1.657 1.921 2.229zM564.05 144.623l1.159-1.046 7.785 7.029-1.159 1.046z"/><path d="M564.46 150.606l7.785-7.029 1.159 1.046-7.785 7.029zm-.41 66.861l1.159-1.046 7.785 7.029-1.159 1.046z"/><path d="M564.46 223.45l7.785-7.029 1.159 1.046-7.785 7.029zm-.41 66.86l1.159-1.046 7.785 7.029-1.159 1.046z"/><path d="M564.46 296.293l7.785-7.029 1.159 1.046-7.785 7.029z"/></g><path d="M266.244 288.266h0a10.053 9.077 0 0 0 1.861-13.707l-13.365-13.155-12.838 5.869 9.826 17.523a10.053 9.077 0 0 0 14.516 3.47zM93.473 327.333h0a10.053 9.077 0 0 0 8.518-11.47l-5.343-17.187H82.259v19.641a10.053 9.077 0 0 0 11.214 9.017zm99.104 115.223h-15.989v14.437l27.18-3.85zm-103.39 15.399l28.246 6.737c-5.202-9.744-8.406-18.366-6.395-24.06l-13.323-1.444z" fill="#ffb8b8"/><path fill="#575a88" d="M176.055 444h17.587l-1.599-185.745h-68.216L95.049 441.594l16.522 2.887 45.299-131.85z"/><path d="M181.792 462.836l26.885-7.985a5.229 4.721 0 0 0 3.043-6.596h0a5.229 4.721 0 0 0-5.029-2.599l-6.099.372-2.39-1.214a1.39 1.255 0 0 0-1.967 1.572l2.204 4.833-22.383-1.444-1.104 7.977a5.243 4.734 0 0 0 6.841 5.084zm-90.869 3.671l29.225 1.711a5.411 4.885 0 0 0 5.743-5.271h0a5.411 4.885 0 0 0-3.716-4.249l-6.014-1.77-1.775-2a1.439 1.299 0 0 0-2.561.823l.048 5.408-20.87-9.192-4.473 7.273a5.425 4.899 0 0 0 4.392 7.267z"/><g fill="#ffb8b8"><ellipse ry="17.805" rx="19.719" cy="136.51" cx="153.139"/><path d="M140.349 169.232h27.18v-23.579h-27.18c2.246 7.282 1.956 15.216 0 23.579z"/></g><g fill="#00b0ff"><path d="M120.097 260.661l74.611.962 7.461-71.173a24.616 22.227 0 0 0-16.7-21.046l-11.546-3.541-6.395-6.737c-8.074-1.576-16.859-1.194-26.114.481l-6.928 9.143-7.461 2.15a24.54 22.158 0 0 0-17.069 21.731c5.552 25.891 9.868 49.955 10.14 68.029z"/><path d="M79.594 298.676l18.653 1.925 21.317-77.474 2.132-50.045-.629.275a35.302 31.876 0 0 0-19.273 22.589zm163.078-28.872l14.389-6.256-42.205-71.11a55.179 49.823 0 0 0-28.142-22.725h0l7.994 45.233z"/></g><path fill="#1a1a1a" d="M140.952 152.535s19.336-1.035 19.755-4.055 3.242-9.909 6.586-9.531 12.613-9.689 10.628-13.747-11.354-19-30.482-12.113-16.936 24.157-14.951 28.215 8.464 11.231 8.464 11.231z"/><g fill="#00b0ff"><use xlink:href="#D"/><use xlink:href="#D" x="-43.128"/></g><path d="M627.386 98.966v16.89c0 .2.173.362.388.362h24.807c.214 0 .388-.162.388-.362V95.598c0-.105-.049-.205-.134-.274s-.198-.099-.31-.084l-24.807 3.368c-.191.026-.332.178-.332.358zm-2.714 36.78c.093 0 .184-.031.255-.089.084-.069.133-.168.133-.273v-16.633c0-.2-.173-.362-.388-.362h-18.596a.4.4 0 0 0-.274.106.35.35 0 0 0-.114.256l.001 14.256c0 .181.143.334.335.359l18.647 2.381zm-18.593-19.528h18.593c.214 0 .388-.162.388-.362v-16.47a.35.35 0 0 0-.133-.272.41.41 0 0 0-.307-.086l-18.61 2.358c-.193.024-.336.178-.336.359l.017 14.112c0 .2.174.362.388.362zm46.501 23.153a.4.4 0 0 0 .254-.089.35.35 0 0 0 .133-.273l.006-20.259a.35.35 0 0 0-.114-.256.4.4 0 0 0-.274-.106h-24.813c-.214 0-.388.162-.388.362v17.002c0 .18.142.333.334.358l24.807 3.257a.49.49 0 0 0 .054.003z" fill="#2a7fff"/><defs><path id="A" d="M512.439 124.538H384.413v2.111h128.026a23.766 21.459 0 0 1 0 42.918H318.713a23.766 21.459 0 0 1 0-42.918h7.24v-2.111h-7.24a26.104 23.57 0 0 0 0 47.141h193.726a26.104 23.57 0 1 0 0-47.141z"/><path id="B" d="M340.404 192.86a6.953 6.278 0 0 0 0 12.555h30.499a6.953 6.278 0 0 0 .228-12.555q-.114-.002-.228 0z"/><path id="C" d="M328.307 141.832a6.953 6.278 0 0 0 0 12.555h174.311a6.953 6.278 0 1 0 .228-12.555q-.114-.002-.228 0z"/><path id="D" d="M614.163 370.768a.963.869 0 0 0-.928.642l-1.553 5.209a.961.868 0 0 0 .928 1.094h29.537a.961.868 0 0 0 .908-1.152l-1.997-5.209a.962.869 0 0 0-.909-.584z"/><path id="E" d="M268.985 142.46l2.17 1.856-8.881 8.463-4.056-4.709 2.359-1.657 1.921 2.229z"/></defs></svg>