<svg xmlns="http://www.w3.org/2000/svg" xmlns:svg="http://www.w3.org/2000/svg" xmlns:xlink="http://www.w3.org/1999/xlink" id="Layer_1" width="450.678" height="433.043" x="0" y="0" version="1.1" viewBox="0 0 450.678 433.043" xml:space="preserve"><metadata id="metadata188"/><defs id="defs186"><linearGradient id="linearGradient8694" x1="-506.288" x2="490.369" y1="135.105" y2="244.6" gradientUnits="userSpaceOnUse" xlink:href="#linearGradient8692"/><linearGradient id="linearGradient8692"><stop style="stop-color:#0684ff;stop-opacity:1" id="stop943" offset="0"/><stop style="stop-color:#0684ff;stop-opacity:0" id="stop945" offset="1"/></linearGradient><linearGradient id="linearGradient2174" x1="-506.288" x2="490.369" y1="135.105" y2="244.6" gradientUnits="userSpaceOnUse" xlink:href="#linearGradient8692"/><linearGradient id="linearGradient2176" x1="-506.288" x2="490.369" y1="135.105" y2="244.6" gradientUnits="userSpaceOnUse" xlink:href="#linearGradient8692"/><linearGradient id="linearGradient2178" x1="-506.288" x2="490.369" y1="135.105" y2="244.6" gradientUnits="userSpaceOnUse" xlink:href="#linearGradient8692"/><linearGradient id="linearGradient2180" x1="-506.288" x2="490.369" y1="135.105" y2="244.6" gradientUnits="userSpaceOnUse" xlink:href="#linearGradient8692"/><linearGradient id="linearGradient2182" x1="-506.288" x2="490.369" y1="135.105" y2="244.6" gradientUnits="userSpaceOnUse" xlink:href="#linearGradient8692"/><linearGradient id="linearGradient2184" x1="-506.288" x2="490.369" y1="135.105" y2="244.6" gradientUnits="userSpaceOnUse" xlink:href="#linearGradient8692"/><linearGradient id="linearGradient2186" x1="-506.288" x2="490.369" y1="135.105" y2="244.6" gradientUnits="userSpaceOnUse" xlink:href="#linearGradient8692"/></defs><path style="stroke:#06f;stroke-width:5.66929;stroke-miterlimit:4;stroke-opacity:1" id="circle151" d="M54.26174,216.44186A172.5825,172.52049 0,1,1 399.42674,216.44186A172.5825,172.52049 0,1,1 54.26174,216.44186" class="ajlGPhKW_0"/><g transform="matrix(0.53103161,0,0,0.50471994,96.595736,91.377159)" style="fill:url(#linearGradient8694);fill-opacity:1;stroke:#06f;stroke-width:6.30032;stroke-miterlimit:4;stroke-dasharray:none;stroke-opacity:1" id="g263"><g style="fill:url(#linearGradient2186);fill-opacity:1;stroke:#06f;stroke-width:6.30032;stroke-miterlimit:4;stroke-dasharray:none;stroke-opacity:1" id="g261"><g style="fill:url(#linearGradient2184);fill-opacity:1;stroke:#06f;stroke-width:6.30032;stroke-miterlimit:4;stroke-dasharray:none;stroke-opacity:1" id="g259"><path style="fill:url(#linearGradient2174);fill-opacity:1;stroke:#06f;stroke-width:6.30032;stroke-miterlimit:4;stroke-opacity:1" id="polygon249" d="M136.7,367.7L182.1,288.9L136.7,210L45.4,210L0,288.9L45.4,367.7Z" class="ajlGPhKW_1"/><path style="fill:url(#linearGradient2176);fill-opacity:1;stroke:#06f;stroke-width:6.30032;stroke-miterlimit:4;stroke-opacity:1" id="polygon251" d="M335.8,200.3L290,121.5L199.2,121.5L153.7,200.3L199.2,279.2L290,279.2Z" class="ajlGPhKW_2"/><path style="fill:url(#linearGradient2178);fill-opacity:1;stroke:#06f;stroke-width:6.30032;stroke-miterlimit:4;stroke-opacity:1" id="polygon253" d="M290,298.6L199.2,298.6L153.7,377.4L199.2,456.6L290,456.6L335.8,377.4Z" class="ajlGPhKW_3"/><path style="fill:url(#linearGradient2180);fill-opacity:1;stroke:#06f;stroke-width:6.30032;stroke-miterlimit:4;stroke-opacity:1" id="polygon255" d="M45.4,190.6L136.7,190.6L182.1,111.8L136.7,32.6L45.4,32.6L0,111.8Z" class="ajlGPhKW_4"/><path style="fill:url(#linearGradient2182);fill-opacity:1;stroke:#06f;stroke-width:6.30032;stroke-miterlimit:4;stroke-opacity:1" id="polygon257" d="M307.1,111.4L352.5,190.6L443.8,190.6L489.2,111.8L443.8,32.6L352.5,32.6Z" class="ajlGPhKW_5" transform="matrix(1.0040867,0,0,0.99545187,-1.628588,0.50757183)"/></g></g></g><style data-made-with="vivus-instant">@keyframes ajlGPhKW_fade{0%,94.44444444444444%{stroke-opacity:1}}.ajlGPhKW_0{stroke-dasharray:1085 1087;stroke-dashoffset:1086;animation:ajlGPhKW_draw 2000ms linear 0ms forwards}.ajlGPhKW_1{animation:ajlGPhKW_draw 2000ms linear 200ms forwards}.ajlGPhKW_1,.ajlGPhKW_2,.ajlGPhKW_3{stroke-dasharray:547 549;stroke-dashoffset:548}.ajlGPhKW_2{animation:ajlGPhKW_draw 2000ms linear 400ms forwards}.ajlGPhKW_3{animation:ajlGPhKW_draw 2000ms linear 600ms forwards}.ajlGPhKW_4,.ajlGPhKW_5{stroke-dasharray:548 550;stroke-dashoffset:549;animation:ajlGPhKW_draw 2000ms linear 800ms forwards}.ajlGPhKW_5{animation:ajlGPhKW_draw 2000ms linear 1000ms forwards}</style></svg>