<!--?xml version="1.0" encoding="UTF-8" standalone="no"?-->
<!-- Created with Inkscape (http://www.inkscape.org/) -->

<svg width="246.00865mm" height="44.490604mm" viewBox="0 0 246.00865 44.490604" version="1.1" id="svg4944" inkscape:version="1.1.1 (3bf5ae0d25, 2021-09-20)" sodipodi:docname="JunTech-Web-Solutions-Aruba-logo.svg" xmlns:inkscape="http://www.inkscape.org/namespaces/inkscape" xmlns:sodipodi="http://sodipodi.sourceforge.net/DTD/sodipodi-0.dtd" xmlns:xlink="http://www.w3.org/1999/xlink" xmlns="http://www.w3.org/2000/svg" xmlns:svg="http://www.w3.org/2000/svg" style="">
  <sodipodi:namedview id="namedview4946" pagecolor="#ffffff" bordercolor="#666666" borderopacity="1.0" inkscape:pageshadow="2" inkscape:pageopacity="0.0" inkscape:pagecheckerboard="0" inkscape:document-units="mm" showgrid="false" inkscape:zoom="0.72337262" inkscape:cx="492.83038" inkscape:cy="151.37427" inkscape:window-width="1920" inkscape:window-height="1001" inkscape:window-x="-9" inkscape:window-y="-9" inkscape:window-maximized="1" inkscape:current-layer="layer1"></sodipodi:namedview>
  <defs id="defs4941">
    <linearGradient inkscape:collect="always" xlink:href="#linearGradient8692" id="linearGradient8694" x1="-506.28784" y1="135.10474" x2="490.36859" y2="244.60001" gradientUnits="userSpaceOnUse"></linearGradient>
    <linearGradient inkscape:collect="always" id="linearGradient8692">
      <stop style="stop-color:#0684ff;stop-opacity:1;" offset="0" id="stop943"></stop>
      <stop style="stop-color:#0684ff;stop-opacity:0;" offset="1" id="stop945"></stop>
    </linearGradient>
    <linearGradient inkscape:collect="always" xlink:href="#linearGradient5718" id="linearGradient5720" x1="3980.0288" y1="530.04456" x2="-538.38361" y2="530.04456" gradientUnits="userSpaceOnUse"></linearGradient>
    <linearGradient inkscape:collect="always" id="linearGradient5718">
      <stop style="stop-color:#2a7fff;stop-opacity:1;" offset="0" id="stop5714"></stop>
      <stop style="stop-color:#2a7fff;stop-opacity:0;" offset="1" id="stop5716"></stop>
    </linearGradient>
    <linearGradient inkscape:collect="always" xlink:href="#linearGradient5718" id="linearGradient6348" gradientUnits="userSpaceOnUse" x1="3783.1174" y1="514.69495" x2="2640.4011" y2="427.97873"></linearGradient>
    <linearGradient inkscape:collect="always" xlink:href="#linearGradient8692" id="linearGradient5834" gradientUnits="userSpaceOnUse" x1="-506.28784" y1="135.10474" x2="490.36859" y2="244.60001"></linearGradient>
    <linearGradient inkscape:collect="always" xlink:href="#linearGradient8692" id="linearGradient5836" gradientUnits="userSpaceOnUse" x1="-506.28784" y1="135.10474" x2="490.36859" y2="244.60001"></linearGradient>
    <linearGradient inkscape:collect="always" xlink:href="#linearGradient8692" id="linearGradient5838" gradientUnits="userSpaceOnUse" x1="-506.28784" y1="135.10474" x2="490.36859" y2="244.60001"></linearGradient>
    <linearGradient inkscape:collect="always" xlink:href="#linearGradient8692" id="linearGradient5840" gradientUnits="userSpaceOnUse" x1="-506.28784" y1="135.10474" x2="490.36859" y2="244.60001"></linearGradient>
    <linearGradient inkscape:collect="always" xlink:href="#linearGradient8692" id="linearGradient5842" gradientUnits="userSpaceOnUse" x1="-506.28784" y1="135.10474" x2="490.36859" y2="244.60001"></linearGradient>
    <linearGradient inkscape:collect="always" xlink:href="#linearGradient8692" id="linearGradient5844" gradientUnits="userSpaceOnUse" x1="-506.28784" y1="135.10474" x2="490.36859" y2="244.60001"></linearGradient>
    <linearGradient inkscape:collect="always" xlink:href="#linearGradient8692" id="linearGradient5846" gradientUnits="userSpaceOnUse" x1="-506.28784" y1="135.10474" x2="490.36859" y2="244.60001"></linearGradient>
    <linearGradient inkscape:collect="always" xlink:href="#linearGradient5718" id="linearGradient5848" gradientUnits="userSpaceOnUse" x1="3980.0288" y1="530.04456" x2="-538.38361" y2="530.04456"></linearGradient>
    <linearGradient inkscape:collect="always" xlink:href="#linearGradient5718" id="linearGradient5850" gradientUnits="userSpaceOnUse" x1="3980.0288" y1="530.04456" x2="-538.38361" y2="530.04456"></linearGradient>
  </defs>
  <g inkscape:label="Layer 1" inkscape:groupmode="layer" id="layer1" transform="translate(7.7888058,-108.77288)">
    <path d="m 219.76591,117.75915 c 2.87494,1.81172 6.0706,3.85032 6.99707,7.15708 a 5.8585092,5.438887 0 0 1 -0.59692,4.23177 c -0.73776,1.14165 -1.83689,2.03857 -2.90905,2.90293 -1.27368,1.02684 -2.55748,2.0361 -3.54567,3.31824 -0.45257,0.58715 0.5933,1.14701 1.04168,0.56528 1.83206,-2.37696 4.87663,-3.72341 6.48898,-6.27426 1.90687,-3.01679 0.63436,-6.59449 -1.72877,-9.03678 -1.47472,-1.52409 -3.32393,-2.68792 -5.13847,-3.83135 -0.64403,-0.40586 -1.24831,0.56409 -0.60885,0.96707 z" fill="#e6e7e8" id="path1475" style="stroke-width:0.387461" class="nSkLqEHa_0"></path>
    <path d="m 229.81922,117.75915 c 2.87491,1.81172 6.07052,3.85032 6.99703,7.15708 a 5.8585092,5.438887 0 0 1 -0.59693,4.23177 c -0.73775,1.14165 -1.83689,2.03857 -2.90901,2.90293 -1.27371,1.02684 -2.55747,2.0361 -3.54568,3.31824 -0.45255,0.58715 0.59332,1.14701 1.0417,0.56528 1.83206,-2.37696 4.87658,-3.72341 6.48893,-6.27426 1.90692,-3.01679 0.63441,-6.59449 -1.72875,-9.03678 -1.47474,-1.52409 -3.32395,-2.68792 -5.13844,-3.83135 -0.64408,-0.40586 -1.24832,0.56409 -0.6089,0.96707 z" fill="#e6e7e8" id="path1477" style="stroke-width:0.387461" class="nSkLqEHa_1"></path>
    <path d="m 10.665111,118.73548 c -2.8749248,1.81171 -6.0705648,3.8503 -6.9970358,7.15708 a 5.8585092,5.438887 0 0 0 0.596913,4.23175 c 0.73772,1.14167 1.83688,2.03858 2.909041,2.90294 1.273693,1.02684 2.557446,2.03611 3.5456658,3.31824 0.452546,0.58716 -0.593303,1.14701 -1.0416748,0.56527 -1.832072,-2.37694 -4.876638,-3.7234 -6.488999,-6.27425 -1.9068549,-3.01678 -0.634341,-6.5945 1.728789,-9.03677 1.474734,-1.52409 3.323937,-2.68792 5.1384258,-3.83136 0.644062,-0.40586 1.248339,0.5641 0.60889,0.96708 z" fill="#e6e7e8" id="path1479" style="stroke-width:0.387461" class="nSkLqEHa_2"></path>
    <path d="m 0.61184228,118.73548 c -2.87492408,1.81171 -6.07056408,3.8503 -6.99703308,7.15708 a 5.8585254,5.438902 0 0 0 0.59691,4.23175 c 0.73775,1.14167 1.836881,2.03858 2.909014,2.90294 1.273692,1.02684 2.55744704,2.03611 3.54566708,3.31824 0.45254502,0.58716 -0.59330304,1.14701 -1.04167504,0.56527 -1.83207204,-2.37694 -4.87663904,-3.7234 -6.48897504,-6.27425 -1.906879,-3.01678 -0.634365,-6.5945 1.728789,-9.03677 1.474709,-1.52409 3.323935,-2.68792 5.13842504,-3.83136 0.64406104,-0.40586 1.24833906,0.5641 0.60889104,0.96708 z" fill="#e6e7e8" id="path1481" style="stroke-width:0.387461" class="nSkLqEHa_3"></path>
    <g transform="matrix(0.10839054,0,0,0.10327958,158.31466,105.85608)" style="fill:url(#linearGradient8694);fill-opacity:1;stroke:#0066ff;stroke-width:4.84023;stroke-miterlimit:4;stroke-dasharray:none;stroke-opacity:1" id="g263">
      <g style="fill:url(#linearGradient5846);fill-opacity:1;stroke:#0066ff;stroke-width:4.84023;stroke-miterlimit:4;stroke-dasharray:none;stroke-opacity:1" id="g261">
        <g style="fill:url(#linearGradient5844);fill-opacity:1;stroke:#0066ff;stroke-width:4.84023;stroke-miterlimit:4;stroke-dasharray:none;stroke-opacity:1" id="g259">
          <path style="fill: url(&quot;#linearGradient5834&quot;); fill-opacity: 1; stroke: rgb(0, 102, 255); stroke-width: 4.84023; stroke-miterlimit: 4; stroke-opacity: 1;" id="polygon249" d="M0,288.9L45.4,367.7L136.7,367.7L182.1,288.9L136.7,210L45.4,210Z" class="nSkLqEHa_4"></path>
          <path style="fill: url(&quot;#linearGradient5836&quot;); fill-opacity: 1; stroke: rgb(0, 102, 255); stroke-width: 4.84023; stroke-miterlimit: 4; stroke-opacity: 1;" id="polygon251" d="M199.2,279.2L290,279.2L335.8,200.3L290,121.5L199.2,121.5L153.7,200.3Z" class="nSkLqEHa_5"></path>
          <path style="fill: url(&quot;#linearGradient5838&quot;); fill-opacity: 1; stroke: rgb(0, 102, 255); stroke-width: 4.84023; stroke-miterlimit: 4; stroke-opacity: 1;" id="polygon253" d="M290,456.6L335.8,377.4L290,298.6L199.2,298.6L153.7,377.4L199.2,456.6Z" class="nSkLqEHa_6"></path>
          <path style="fill: url(&quot;#linearGradient5840&quot;); fill-opacity: 1; stroke: rgb(0, 102, 255); stroke-width: 4.84023; stroke-miterlimit: 4; stroke-opacity: 1;" id="polygon255" d="M45.4,32.6L0,111.8L45.4,190.6L136.7,190.6L182.1,111.8L136.7,32.6Z" class="nSkLqEHa_7"></path>
          <path style="fill: url(&quot;#linearGradient5842&quot;); fill-opacity: 1; stroke: rgb(0, 102, 255); stroke-width: 4.84023; stroke-miterlimit: 4; stroke-opacity: 1;" id="polygon257" d="M443.8,190.6L489.2,111.8L443.8,32.6L352.5,32.6L307.1,111.4L352.5,190.6Z" class="nSkLqEHa_8"></path>
        </g>
      </g>
    </g>
    <g transform="matrix(0.03405434,0,0,-0.03236223,19.564783,143.97081)" fill="#000000" stroke="none" id="g4505" style="fill:url(#linearGradient5720);fill-opacity:1;stroke:#0049f8;stroke-width:15.2475;stroke-miterlimit:4;stroke-dasharray:none;stroke-opacity:1">
      <path d="m 220,1073 c 0,-4 24,-62 53,-130 L 325,820 H 528 730 V 540 260 L 399,258 67,255 34,140 C 16,77 0,19 0,13 0,3 102,0 475,0 c 462,0 476,1 495,20 19,19 20,33 20,540 v 520 H 605 c -212,0 -385,-3 -385,-7 z" id="path4499" style="fill: url(&quot;#linearGradient5848&quot;); fill-opacity: 1; stroke: rgb(0, 73, 248); stroke-width: 15.2475; stroke-miterlimit: 4; stroke-opacity: 1;" class="nSkLqEHa_9"></path>
      <path d="m 1220,539 c 0,-349 3,-539 10,-537 5,1 145,122 310,268 166,146 305,265 309,265 5,0 144,-120 311,-267 166,-148 306,-268 311,-268 5,0 9,232 9,540 v 540 h -135 -135 l -2,-249 -3,-248 -178,159 -178,158 -160,-142 c -88,-79 -169,-149 -180,-157 -19,-13 -19,-8 -19,233 v 246 h -135 -135 z" id="path4501" style="fill: url(&quot;#linearGradient5850&quot;); fill-opacity: 1; stroke: rgb(0, 73, 248); stroke-width: 15.2475; stroke-miterlimit: 4; stroke-opacity: 1;" class="nSkLqEHa_10"></path>
      <path d="m 2720,1053 c -20,-26 -21,-35 -18,-299 3,-251 4,-274 22,-293 19,-21 24,-21 493,-21 h 473 V 350 260 H 3251 2812 L 2758,133 2703,5 3308,2 c 553,-2 607,-1 624,14 17,16 18,39 18,335 0,317 0,318 -22,333 -20,14 -83,16 -490,16 h -468 v 60 60 h 439 l 448.7118,6.13176 56.4938,107.43784 c 41.2576,69.2876 79.745,141.2115 79.745,141.2115 C 3857.7576,1077.2691 3772,1080 3346,1080 h -605 z" id="path4503" style="fill: url(&quot;#linearGradient6348&quot;); fill-opacity: 1; stroke: rgb(0, 73, 248); stroke-width: 15.2475; stroke-miterlimit: 4; stroke-opacity: 1;" sodipodi:nodetypes="cccscccccccccscsccccccsscc" class="nSkLqEHa_11"></path>
    </g>
  </g>
<style data-made-with="vivus-instant">.nSkLqEHa_0{stroke-dasharray:53 55;stroke-dashoffset:54;animation:nSkLqEHa_draw_0 7200ms linear 0ms infinite,nSkLqEHa_fade 7200ms linear 0ms infinite;}.nSkLqEHa_1{stroke-dasharray:53 55;stroke-dashoffset:54;animation:nSkLqEHa_draw_1 7200ms linear 0ms infinite,nSkLqEHa_fade 7200ms linear 0ms infinite;}.nSkLqEHa_2{stroke-dasharray:53 55;stroke-dashoffset:54;animation:nSkLqEHa_draw_2 7200ms linear 0ms infinite,nSkLqEHa_fade 7200ms linear 0ms infinite;}.nSkLqEHa_3{stroke-dasharray:53 55;stroke-dashoffset:54;animation:nSkLqEHa_draw_3 7200ms linear 0ms infinite,nSkLqEHa_fade 7200ms linear 0ms infinite;}.nSkLqEHa_4{stroke-dasharray:547 549;stroke-dashoffset:548;animation:nSkLqEHa_draw_4 7200ms linear 0ms infinite,nSkLqEHa_fade 7200ms linear 0ms infinite;}.nSkLqEHa_5{stroke-dasharray:547 549;stroke-dashoffset:548;animation:nSkLqEHa_draw_5 7200ms linear 0ms infinite,nSkLqEHa_fade 7200ms linear 0ms infinite;}.nSkLqEHa_6{stroke-dasharray:547 549;stroke-dashoffset:548;animation:nSkLqEHa_draw_6 7200ms linear 0ms infinite,nSkLqEHa_fade 7200ms linear 0ms infinite;}.nSkLqEHa_7{stroke-dasharray:548 550;stroke-dashoffset:549;animation:nSkLqEHa_draw_7 7200ms linear 0ms infinite,nSkLqEHa_fade 7200ms linear 0ms infinite;}.nSkLqEHa_8{stroke-dasharray:548 550;stroke-dashoffset:549;animation:nSkLqEHa_draw_8 7200ms linear 0ms infinite,nSkLqEHa_fade 7200ms linear 0ms infinite;}.nSkLqEHa_9{stroke-dasharray:4963 4965;stroke-dashoffset:4964;animation:nSkLqEHa_draw_9 7200ms linear 0ms infinite,nSkLqEHa_fade 7200ms linear 0ms infinite;}.nSkLqEHa_10{stroke-dasharray:6259 6261;stroke-dashoffset:6260;animation:nSkLqEHa_draw_10 7200ms linear 0ms infinite,nSkLqEHa_fade 7200ms linear 0ms infinite;}.nSkLqEHa_11{stroke-dasharray:8352 8354;stroke-dashoffset:8353;animation:nSkLqEHa_draw_11 7200ms linear 0ms infinite,nSkLqEHa_fade 7200ms linear 0ms infinite;}@keyframes nSkLqEHa_draw{100%{stroke-dashoffset:0;}}@keyframes nSkLqEHa_fade{0%{stroke-opacity:1;}94.44444444444444%{stroke-opacity:1;}100%{stroke-opacity:0;}}@keyframes nSkLqEHa_draw_0{11.11111111111111%{stroke-dashoffset: 54}38.88888888888889%{ stroke-dashoffset: 0;}100%{ stroke-dashoffset: 0;}}@keyframes nSkLqEHa_draw_1{12.373737373737374%{stroke-dashoffset: 54}40.151515151515156%{ stroke-dashoffset: 0;}100%{ stroke-dashoffset: 0;}}@keyframes nSkLqEHa_draw_2{13.636363636363635%{stroke-dashoffset: 54}41.41414141414141%{ stroke-dashoffset: 0;}100%{ stroke-dashoffset: 0;}}@keyframes nSkLqEHa_draw_3{14.8989898989899%{stroke-dashoffset: 54}42.67676767676768%{ stroke-dashoffset: 0;}100%{ stroke-dashoffset: 0;}}@keyframes nSkLqEHa_draw_4{16.16161616161616%{stroke-dashoffset: 548}43.93939393939394%{ stroke-dashoffset: 0;}100%{ stroke-dashoffset: 0;}}@keyframes nSkLqEHa_draw_5{17.424242424242422%{stroke-dashoffset: 548}45.2020202020202%{ stroke-dashoffset: 0;}100%{ stroke-dashoffset: 0;}}@keyframes nSkLqEHa_draw_6{18.68686868686869%{stroke-dashoffset: 548}46.464646464646464%{ stroke-dashoffset: 0;}100%{ stroke-dashoffset: 0;}}@keyframes nSkLqEHa_draw_7{19.94949494949495%{stroke-dashoffset: 549}47.72727272727273%{ stroke-dashoffset: 0;}100%{ stroke-dashoffset: 0;}}@keyframes nSkLqEHa_draw_8{21.21212121212121%{stroke-dashoffset: 549}48.98989898989899%{ stroke-dashoffset: 0;}100%{ stroke-dashoffset: 0;}}@keyframes nSkLqEHa_draw_9{22.474747474747474%{stroke-dashoffset: 4964}50.252525252525245%{ stroke-dashoffset: 0;}100%{ stroke-dashoffset: 0;}}@keyframes nSkLqEHa_draw_10{23.737373737373737%{stroke-dashoffset: 6260}51.515151515151516%{ stroke-dashoffset: 0;}100%{ stroke-dashoffset: 0;}}@keyframes nSkLqEHa_draw_11{25%{stroke-dashoffset: 8353}52.77777777777778%{ stroke-dashoffset: 0;}100%{ stroke-dashoffset: 0;}}</style></svg>
