<svg xmlns="http://www.w3.org/2000/svg" width="1440" height="560" preserveAspectRatio="none" version="1.1" viewBox="0 0 144000 56000"><g fill="none" mask="url(&quot;#a&quot;)"><path d="M0 0h144000v56000H0" fill="rgba(0, 0, 0, 1)"/><path d="M103609 15015v373h1574v-373zm914 187a660 660 0 10 1320 0 660 660 0 10-1320 0zm-1384 2551-143 344 999 414 143-344zm267 586a660 660 0 10 1320 0 660 660 0 10-1320 0zm-1749 1763-264 264 2145 2145 263-264zm1352 2277a660 660 0 10 1320 0 660 660 0 10-1320 0zm-3621-673-344 142 1040 2511 344-142zm208 2582a660 660 0 10 1320 0 660 660 0 10-1320 0zm-2917-1969h-373v2560h373zm-847 2560a660 660 0 10 1320 0 660 660 0 10-1320 0zm-1891-3031-344-142-561 1352 345 143zm-1392 1281a660 660 0 10 1320 0 660 660 0 10-1320 0zm-957-2763-264-264-1356 1357 264 263zm-2148 1224a660 660 0 10 1320 0 660 660 0 10-1320 0zm545-3493-143-344-3151 1305 143 344zm-3882 1133a660 660 0 10 1320 0 660 660 0 10-1320 0zm3268-3842v-373h-2728v373zm-3388-186a660 660 0 10 1320 0 660 660 0 10-1320 0zm3859-2552 143-344-1343-556-142 344zm-1931-728a660 660 0 10 1320 0 660 660 0 10-1320 0zm3413-1621 264-263-1817-1818-264 264zm-2345-1949a660 660 0 10 1320 0 660 660 0 10-1320 0zm4614 346 344-143-429-1036-345 142zM92680 7590a660 660 0 10 1320 0 660 660 0 10-1320 0zm3626 495h373V5684h-373zm-474-2401a660 660 0 10 1320 0 660 660 0 10-1320 0zm3212 2871 344 143 1117-2696-345-143zm629-2624a660 660 0 10 1320 0 660 660 0 10-1320 0zm1720 4107 264 263 2478-2478-264-264zm1950-2347a660 660 0 10 1320 0 660 660 0 10-1320 0zm-347 4615 143 344 2529-1047-142-345zm1941-876a660 660 0 10 1320 0 660 660 0 10-1320 0zm-15564 3772a7119 7119 0 10 14238 0 7119 7119 0 10-14238 0" fill="#488fdb"/><path d="M96300 22318a7019.4 7019.4 0 01-5882-10829m0 0A14238.7 14238.7 0 00 96300 22318" fill="#2672c3" fill-rule="nonzero"/><path d="M100405 14351a1424 1424 0 10 2848 0 1424 1424 0 10-2848 0zm-5960 1411a1424 1424 0 10 2848 0 1424 1424 0 10-2848 0zm4752 4714a783 783 0 10 1566 0 783 783 0 10-1566 0zm331-9987a926 926 0 10 1852 0 926 926 0 10-1852 0zm-9197 1460a997 997 0 10 1994 0 997 997 0 10-1994 0zm9908 5823a641 641 0 10 1282 0 641 641 0 10-1282 0zm-9452-1315a1139 1139 0 10 2278 0 1139 1139 0 10-2278 0zm2318 3291a1353 1353 0 10 2706 0 1353 1353 0 10-2706 0zm3328-10901a712 712 0 10 1424 0 712 712 0 10-1424 0zm1276 3240a427 427 0 10 854 0 427 427 0 10-854 0" fill="#2672c3" fill-rule="nonzero"/><path d="M127590 38524v373h1315v-373zm655 186a660 660 0 10 1320 0 660 660 0 10-1320 0zm-1126 2551-143 345 1886 781 143-344zm1154 954a660 660 0 10 1320 0 660 660 0 10-1320 0zm-2636 1396-264 263 2293 2293 264-263zm1501 2425a660 660 0 10 1320 0 660 660 0 10-1320 0zm-3770-822-344 143 438 1057 344-143zm-394 1128a660 660 0 10 1320 0 660 660 0 10-1320 0zm-2315-515h-373v2956h373zm-846 2956a660 660 0 10 1320 0 660 660 0 10-1320 0zm-1892-3426-344-143-545 1316 344 142zm-1377 1244a660 660 0 10 1320 0 660 660 0 10-1320 0zm-972-2727-264-263-1740 1740 264 264zm-2532 1609a660 660 0 10 1320 0 660 660 0 10-1320 0zm929-3877-143-345-3137 1300 142 344zM110100 42733a660 660 0 10 1320 0 660 660 0 10-1320 0zm3256-3836v-373h-1876v373zm-2536-187a660 660 0 10 1320 0 660 660 0 10-1320 0zm3006-2551 143-345-2634-1091-143 345zm-3223-1263a660 660 0 10 1320 0 660 660 0 10-1320 0zm4705-1087 264-263-2181-2181-263 264zm-2709-2312a660 660 0 10 1320 0 660 660 0 10-1320 0zm4978 709 344-142-1173-2832-344 143zm-1661-2903a660 660 0 10 1320 0 660 660 0 10-1320 0zm4370 2290h373v-2725h-373zm-473-2725a660 660 0 10 1320 0 660 660 0 10-1320 0zm3211 3196 344 142 1200-2897-344-143zm712-2826a660 660 0 10 1320 0 660 660 0 10-1320 0zm1637 4308 264 263 1388-1388-264-263zm860-1256a660 660 0 10 1320 0 660 660 0 10-1320 0zm743 3524 143 345 3248-1346-142-344zm2660-1173a660 660 0 10 1320 0 660 660 0 10-1320 0zm-16282 4069a7119 7119 0 10 14238 0 7119 7119 0 10-14238 0" fill="#488fdb"/><path d="M127514 37660a7019.4 7019.4 0 01-9639 7679m0 0a14238.7 14238.7 0 00 9639-7679" fill="#2672c3" fill-rule="nonzero"/><path d="M120790 36352a1424 1424 0 10 2848 0 1424 1424 0 10-2848 0zm-6798 5089a570 570 0 10 1140 0 570 570 0 10-1140 0zm6094 3173a1139 1139 0 10 2278 0 1139 1139 0 10-2278 0zm-979-5281a854 854 0 10 1708 0 854 854 0 10-1708 0zm-5025-3545a356 356 0 10 712 0 356 356 0 10-712 0zm7996 4526a712 712 0 10 1424 0 712 712 0 10-1424 0zm-3446-7554a1068 1068 0 10 2136 0 1068 1068 0 10-2136 0zm-4039 5628a997 997 0 10 1994 0 997 997 0 10-1994 0zm1482-3501a783 783 0 10 1566 0 783 783 0 10-1566 0zm8781 3760a1353 1353 0 10 2706 0 1353 1353 0 10-2706 0" fill="#2672c3" fill-rule="nonzero"/><path d="M21412 50092v186h931v-186zm601 93a330 330 0 10 660 0 330 330 0 10-660 0zm-836 1276-71 172 866 359 71-173zm500 445a330 330 0 10 660 0 330 330 0 10-660 0zm-1241 729-132 132 753 753 132-131zm357 819a330 330 0 10 660 0 330 330 0 10-660 0zm-1491-17-172 71 636 1537 172-71zm220 1572a330 330 0 10 660 0 330 330 0 10-660 0zm-1575-1265h-186v1221h186zm-423 1221a330 330 0 10 660 0 330 330 0 10-660 0zm-946-1457-172-71-407 984 172 71zm-823 949a330 330 0 10 660 0 330 330 0 10-660 0zm-351-1690-132-132-936 937 131 131zm-1332 871a330 330 0 10 660 0 330 330 0 10-660 0zm530-2005-71-172-1502 622 72 172zm-1867 536a330 330 0 10 660 0 330 330 0 10-660 0zm1561-1891v-186h-1111v186zm-1441-93a330 330 0 10 660 0 330 330 0 10-660 0zm1676-1276 71-172-1170-485-72 173zm-1465-570a330 330 0 10 660 0 330 330 0 10-660 0zm2206-604 132-132-760-760-132 132zm-1024-826a330 330 0 10 660 0 330 330 0 10-660 0zm2158 24 172-71-529-1278-172 72zm-773-1313a330 330 0 10 660 0 330 330 0 10-660 0zm2128 1007h186v-1130h-186zm-237-1130a330 330 0 10 660 0 330 330 0 10-660 0zm1606 1365 172 71 661-1595-172-72zm417-1560a330 330 0 10 660 0 330 330 0 10-660 0zm757 2301 132 132 694-694-132-132zm430-628a330 330 0 10 660 0 330 330 0 10-660 0zm372 1762 71 172 556-229-72-173zm261-144a330 330 0 10 660 0 330 330 0 10-660 0zm-7073 1592a3560 3560 0 10 7120 0 3560 3560 0 10-7120 0" fill="#488fdb"/><path d="M14795 52005A3459.7 3459.7 0 01 17800 46626m0 0a7119.4 7119.4 0 00-3005 5379" fill="#2672c3" fill-rule="nonzero"/><path d="M17526 46999a356 356 0 10 712 0 356 356 0 10-712 0zm-1831 626a498 498 0 10 996 0 498 498 0 10-996 0zm1137 5632a427 427 0 10 854 0 427 427 0 10-854 0zm2461-3274a712 712 0 10 1424 0 712 712 0 10-1424 0zm-2460 1018a712 712 0 10 1424 0 712 712 0 10-1424 0zm2817 698a285 285 0 10 570 0 285 285 0 10-570 0zm-1537-2529a320 320 0 10 640 0 320 320 0 10-640 0zm-3437-519a142 142 0 10 284 0 142 142 0 10-284 0zm5159-359a249 249 0 10 498 0 249 249 0 10-498 0zm-5040 3535a534 534 0 10 1068 0 534 534 0 10-1068 0" fill="#2672c3" fill-rule="nonzero"/><path d="M30002 16897v372h1207v-372zm547 186a660 660 0 10 1320 0 660 660 0 10-1320 0zm-1017 2551-143 345 1000 414 143-345zm268 587a660 660 0 10 1320 0 660 660 0 10-1320 0zm-1750 1763-264 263 2165 2165 264-263zm1373 2297a660 660 0 10 1320 0 660 660 0 10-1320 0zm-3642-694-344 142 1216 2937 345-142zm385 3008a660 660 0 10 1320 0 660 660 0 10-1320 0zM23072 24200h-373v1816h373zm-847 1816a660 660 0 10 1320 0 660 660 0 10-1320 0zm-1891-2287-344-142-976 2356 344 142zm-1808 2285a660 660 0 10 1320 0 660 660 0 10-1320 0zm-541-3767-264-263-1183 1183 264 263zm-1975 1051a660 660 0 10 1320 0 660 660 0 10-1320 0zm372-3319-143-345-2343 971 143 344zm-3075 798a660 660 0 10 1320 0 660 660 0 10-1320 0zm2462-3508v-372H12880v372zm-3549-186a660 660 0 10 1320 0 660 660 0 10-1320 0zm4019-2551 143-345-2140-886-143 344zm-2728-1059a660 660 0 10 1320 0 660 660 0 10-1320 0zm4210-1291 264-263-1226-1226-264 263zm-1754-1358a660 660 0 10 1320 0 660 660 0 10-1320 0zm4023-245 344-143-707-1707-344 143zM18795 8800a660 660 0 10 1320 0 660 660 0 10-1320 0zm3904 1166h373V6667h-373zm-474-3299a660 660 0 10 1320 0 660 660 0 10-1320 0zm3212 3769 344 143 475-1147-344-143zm-13-1076a660 660 0 10 1320 0 660 660 0 10-1320 0zm2362 2559 264 263 922-922-263-264zm395-791a660 660 0 10 1320 0 660 660 0 10-1320 0zm1208 3059 143 345 2515-1042-143-344zm1926-869a660 660 0 10 1320 0 660 660 0 10-1320 0zm-15549 3765a7119 7119 0 10 14238 0 7119 7119 0 10-14238 0" fill="#488fdb"/><path d="M29183 20403a7019.4 7019.4 0 01-12314 486m0 0a14238.7 14238.7 0 00 12314-486" fill="#2672c3" fill-rule="nonzero"/><path d="M16637 13890a498 498 0 10 996 0 498 498 0 10-996 0zm6440-3452a427 427 0 10 854 0 427 427 0 10-854 0zm-2589 4969a1424 1424 0 10 2848 0 1424 1424 0 10-2848 0zm6471-600a1281 1281 0 10 2562 0 1281 1281 0 10-2562 0zm-7769 6310a1424 1424 0 10 2848 0 1424 1424 0 10-2848 0zm-1147-3062a712 712 0 10 1424 0 712 712 0 10-1424 0zm6945 1869a1424 1424 0 10 2848 0 1424 1424 0 10-2848 0zm-1047-7208a570 570 0 10 1140 0 570 570 0 10-1140 0zm642 10115a356 356 0 10 712 0 356 356 0 10-712 0zm275-6122a498 498 0 10 996 0 498 498 0 10-996 0" fill="#2672c3" fill-rule="nonzero"/><path d="M46236 48959v187h637v-187zm307 94a330 330 0 10 660 0 330 330 0 10-660 0zm-542 1275-71 173 673 278 71-172zm308 365a330 330 0 10 660 0 330 330 0 10-660 0zm-1049 810-132 132 566 565 131-131zm170 632a330 330 0 10 660 0 330 330 0 10-660 0zm-1304 170-173 71 335 808 172-71zm-82 844a330 330 0 10 660 0 330 330 0 10-660 0zm-1273-538h-187v801h187zm-423 801a330 330 0 10 660 0 330 330 0 10-660 0zm-946-1036-172-71-611 1473 173 71zm-1026 1438a330 330 0 10 660 0 330 330 0 10-660 0zm-149-2179-131-132-1213 1213 132 131zm-1608 1147a330 330 0 10 660 0 330 330 0 10-660 0zm807-2281-72-173-1248 517 72 173zm-1614 430a330 330 0 10 660 0 330 330 0 10-660 0zm1307-1785v-187h-1548v187zm-1878-93a330 330 0 10 660 0 330 330 0 10-660 0zm2113-1276 72-172-996-413-72 172zm-1290-499a330 330 0 10 660 0 330 330 0 10-660 0zm2032-676 131-131-346-347-132 132zm-611-412a330 330 0 10 660 0 330 330 0 10-660 0zm1745-389 172-72-504-1217-173 71zm-748-1254a330 330 0 10 660 0 330 330 0 10-660 0zm2102 947h187v-1592h-187zm-236-1592a330 330 0 10 660 0 330 330 0 10-660 0zm1605 1827 173 72 231-558-173-72zm-12-522a330 330 0 10 660 0 330 330 0 10-660 0zm1187 1264 132 131 754-753-132-132zm490-688a330 330 0 10 660 0 330 330 0 10-660 0zm312 1822 71 172 1289-534-72-172zm994-448a330 330 0 10 660 0 330 330 0 10-660 0zm-7806 1896a3560 3560 0 10 7120 0 3560 3560 0 10-7120 0" fill="#488fdb"/><path d="M44445 52143a3459.7 3459.7 0 01-5327-3098m0 0a7119.4 7119.4 0 00 5327 3098" fill="#2672c3" fill-rule="nonzero"/><path d="M41421 47627a712 712 0 10 1424 0 712 712 0 10-1424 0zm2417-1484a285 285 0 10 570 0 285 285 0 10-570 0zm-2157-181a249 249 0 10 498 0 249 249 0 10-498 0zm-267 4727a712 712 0 10 1424 0 712 712 0 10-1424 0zm-1152 123a214 214 0 10 428 0 214 214 0 10-428 0zm-829-592a142 142 0 10 284 0 142 142 0 10-284 0zm3998 1302a676 676 0 10 1352 0 676 676 0 10-1352 0zm1524-2968a605 605 0 10 1210 0 605 605 0 10-1210 0zm-70-1440a178 178 0 10 356 0 178 178 0 10-356 0zm-4789-405a178 178 0 10 356 0 178 178 0 10-356 0" fill="#2672c3" fill-rule="nonzero"/><path d="M81264 41052v373h1332v-373zm672 186a660 660 0 10 1320 0 660 660 0 10-1320 0zm-1143 2552-143 344 2328 964 142-344zm1596 1136a660 660 0 10 1320 0 660 660 0 10-1320 0zm-3078 1213-264 263 1276 1276 263-264zm484 1407a660 660 0 10 1320 0 660 660 0 10-1320 0zm-2753 196-344 143 399 963 344-142zm-433 1035a660 660 0 10 1320 0 660 660 0 10-1320 0zm-2276-422h-373v1183h373zm-846 1183a660 660 0 10 1320 0 660 660 0 10-1320 0zm-1892-1653-344-143-919 2217 345 143zm-1750 2146a660 660 0 10 1320 0 660 660 0 10-1320 0zm-599-3629-264-263-2168 2168 264 263zm-2960 2037a660 660 0 10 1320 0 660 660 0 10-1320 0zm1357-4305L67500 43790l-2358 976 143 345zm-3089 804a660 660 0 10 1320 0 660 660 0 10-1320 0zm2476-3513v-373h-2696v373zm-3356-187a660 660 0 10 1320 0 660 660 0 10-1320 0zM67500 38687l143-345-3190-1321-143 344zm-3779-1494a660 660 0 10 1320 0 660 660 0 10-1320 0zm5261-855 264-264-2080-2080-264 263zm-2608-2213a660 660 0 10 1320 0 660 660 0 10-1320 0zm4877 609 344-142-1325-3201-345 143zm-1814-3271a660 660 0 10 1320 0 660 660 0 10-1320 0zm4523 2658h373v-3083h-373zm-473-3083a660 660 0 10 1320 0 660 660 0 10-1320 0zm3211 3554 344 142 1125-2716-344-143zm637-2645a660 660 0 10 1320 0 660 660 0 10-1320 0zm1712 4127 264 264 776-777-263-263zm248-645a660 660 0 10 1320 0 660 660 0 10-1320 0zm1355 2913 143 345 2504-1037-143-345zm1915-864a660 660 0 10 1320 0 660 660 0 10-1320 0zm-15537 3760a7119 7119 0 10 14238 0 7119 7119 0 10-14238 0" fill="#488fdb"/><path d="M81259 40919a7019.4 7019.4 0 01-10379 6645m0 0a14238.7 14238.7 0 00 10379-6645" fill="#2672c3" fill-rule="nonzero"/><path d="M75794 46953a854 854 0 10 1708 0 854 854 0 10-1708 0zm-7432-2195a1424 1424 0 10 2848 0 1424 1424 0 10-2848 0zm11898-5781a285 285 0 10 570 0 285 285 0 10-570 0zm-9714-1278a1424 1424 0 10 2848 0 1424 1424 0 10-2848 0zm5114 2085a1424 1424 0 10 2848 0 1424 1424 0 10-2848 0zm-7300-170a641 641 0 10 1282 0 641 641 0 10-1282 0zm3753 2150a1281 1281 0 10 2562 0 1281 1281 0 10-2562 0zm1437 3183a498 498 0 10 996 0 498 498 0 10-996 0zm5846 67a356 356 0 10 712 0 356 356 0 10-712 0zm-5525-10038a783 783 0 10 1566 0 783 783 0 10-1566 0" fill="#2672c3" fill-rule="nonzero"/><path d="M133735 11490v279h2489v-279zm1994 140a495 495 0 10 990 0 495 495 0 10-990 0zm-2347 1913-107 258 1466 607 107-258zm917 736a495 495 0 10 990 0 495 495 0 10-990 0zm-2028 1026-198 198 1388 1388 198-198zm794 1487a495 495 0 10 990 0 495 495 0 10-990 0zm-2496-284-258 107 741 1789 259-107zm117 1843a495 495 0 10 990 0 495 495 0 10-990 0zm-2149-1384h-279v2101h279zm-635 2101a495 495 0 10 990 0 495 495 0 10-990 0zm-1418-2453-258-107-446 1077 258 107zm-1070 1023a495 495 0 10 990 0 495 495 0 10-990 0zm-692-2135-198-198-1555 1556 197 197zm-2149 1457a495 495 0 10 990 0 495 495 0 10-990 0zm947-3159-107-258-1962 813 107 258zm-2510 684a495 495 0 10 990 0 495 495 0 10-990 0zm2050-2716v-279h-2195v279zm-2690-139a495 495 0 10 990 0 495 495 0 10-990 0zm3043-1914 107-258-2276-943-107 259zm-2717-1072a495 495 0 10 990 0 495 495 0 10-990 0zm3828-690 198-197-1218-1219-198 198zm-1614-1317a495 495 0 10 990 0 495 495 0 10-990 0zm3316 115 258-107-544-1313-258 107zm-910-1367a495 495 0 10 990 0 495 495 0 10-990 0zm2942 907h279v-695h-279zm-356-695a495 495 0 10 990 0 495 495 0 10-990 0zm2409 1048 258 107 535-1291-258-107zm169-1237a495 495 0 10 990 0 495 495 0 10-990 0zm1593 2349 198 197 1096-1096-198-197zm700-998a495 495 0 10 990 0 495 495 0 10-990 0zm502 2699 107 258 2001-828-107-259zm1559-699a495 495 0 10 990 0 495 495 0 10-990 0zm-11777 2871a5340 5340 0 10 10680 0 5340 5340 0 10-10680 0" fill="#488fdb"/><path d="M133728 11327a5239.5 5239.5 0 01-7724 5076m0 0a10679 10679 0 00 7724-5076" fill="#2672c3" fill-rule="nonzero"/><path d="M126362 8783a1068 1068 0 10 2136 0 1068 1068 0 10-2136 0zm5149 2474a1068 1068 0 10 2136 0 1068 1068 0 10-2136 0zm407 2901a534 534 0 10 1068 0 534 534 0 10-1068 0zm-4374-2649a641 641 0 10 1282 0 641 641 0 10-1282 0zm-1556 4381a748 748 0 10 1496 0 748 748 0 10-1496 0zm3490-7842a374 374 0 10 748 0 374 374 0 10-748 0zm-5356 6545a481 481 0 10 962 0 481 481 0 10-962 0zm6090 762a481 481 0 10 962 0 481 481 0 10-962 0zM123665 12800a320 320 0 10 640 0 320 320 0 10-640 0zm2195-1757a320 320 0 10 640 0 320 320 0 10-640 0" fill="#2672c3" fill-rule="nonzero"/><path d="M57492 9521V9800h963v-279zm468 140a495 495 0 10 990 0 495 495 0 10-990 0zm-821 1913-107 258 764 317 107-258zm215 446a495 495 0 10 990 0 495 495 0 10-990 0zm-1327 1316-197 198 859 859 197-198zm266 958a495 495 0 10 990 0 495 495 0 10-990 0zm-1967 244-258 107 767 1853 258-107zm143 1906a495 495 0 10 990 0 495 495 0 10-990 0zm-2175-1446h-280v2390h280zm-635 2390a495 495 0 10 990 0 495 495 0 10-990 0zm-1418-2743-259-107-927 2238 259 107zM48690 16830a495 495 0 10 990 0 495 495 0 10-990 0zm-211-3296-198-198-1520 1520 198 197zm-2114 1420a495 495 0 10 990 0 495 495 0 10-990 0zm911-3122-107-258-1786 740 107 258zm-2334 611a495 495 0 10 990 0 495 495 0 10-990 0zM46816 9800v-279h-1980V9800zm-2475-139a495 495 0 10 990 0 495 495 0 10-990 0zm2828-1914 107-258-1797-745-107 259zm-2238-873a495 495 0 10 990 0 495 495 0 10-990 0zm3350-889 198-198-1478-1477-198 197zm-1874-1577a495 495 0 10 990 0 495 495 0 10-990 0zm3575 375 259-107-732-1766-258 107zm-1097-1819a495 495 0 10 990 0 495 495 0 10-990 0zm3129 1359h280v-2110h-280zm-355-2110a495 495 0 10 990 0 495 495 0 10-990 0zm2409 2463 258 107 321-776-258-107zm-45-723a495 495 0 10 990 0 495 495 0 10-990 0zm1807 1834 197 198 536-536-197-198zm139-437a495 495 0 10 990 0 495 495 0 10-990 0zm1063 2139 107 258 1466-607-107-259zm1025-478a495 495 0 10 990 0 495 495 0 10-990 0zm-11243 2650a5340 5340 0 10 10680 0 5340 5340 0 10-10680 0" fill="#488fdb"/><path d="M56650 6781a5239.5 5239.5 0 01-4239 8213m0 0a10679 10679 0 00 4239-8213" fill="#2672c3" fill-rule="nonzero"/><path d="M51377 5654a1068 1068 0 10 2136 0 1068 1068 0 10-2136 0zm506 4016a1068 1068 0 10 2136 0 1068 1068 0 10-2136 0zm-3402 3404a961 961 0 10 1922 0 961 961 0 10-1922 0zm5565-471a1068 1068 0 10 2136 0 1068 1068 0 10-2136 0zm-5585-5577a1068 1068 0 10 2136 0 1068 1068 0 10-2136 0zm7085 2165a961 961 0 10 1922 0 961 961 0 10-1922 0zm-7365-102a214 214 0 10 428 0 214 214 0 10-428 0zm6905-2399a587 587 0 10 1174 0 587 587 0 10-1174 0zm-3780 7259a320 320 0 10 640 0 320 320 0 10-640 0zm-3386-2831a267 267 0 10 534 0 267 267 0 10-534 0" fill="#2672c3" fill-rule="nonzero"/></g><defs><mask id="a"><path d="M0 0h144000v56000H0" fill="#fff"/></mask></defs></svg>
