<svg xmlns="http://www.w3.org/2000/svg" xmlns:xlink="http://www.w3.org/1999/xlink" version="1.1" width="256" height="256" viewBox="0 0 256 256" xml:space="preserve">
<desc>Created with Fabric.js 1.7.22</desc>
<defs>
</defs>
<g transform="translate(128 128) scale(0.72 0.72)" style="">
	<g style="stroke: none; stroke-width: 0; stroke-dasharray: none; stroke-linecap: butt; stroke-linejoin: miter; stroke-miterlimit: 10; fill: none; fill-rule: nonzero; opacity: 1;" transform="translate(-175.05 -175.05000000000004) scale(3.89 3.89)" >
	<path d="M 80.544 18.419 H 63.125 V 1 c 0 -0.552 -0.447 -1 -1 -1 H 9.457 c -0.552 0 -1 0.448 -1 1 v 88 c 0 0.553 0.448 1 1 1 h 71.087 c 0.553 0 1 -0.447 1 -1 V 19.419 C 81.544 18.867 81.097 18.419 80.544 18.419 z" style="stroke: none; stroke-width: 1; stroke-dasharray: none; stroke-linecap: butt; stroke-linejoin: miter; stroke-miterlimit: 10; fill: rgb(115,155,215); fill-rule: nonzero; opacity: 1;" transform=" matrix(1 0 0 1 0 0) " stroke-linecap="round" />
	<path d="M 81.251 18.712 L 62.832 0.293 c -0.286 -0.286 -0.715 -0.371 -1.09 -0.217 C 61.368 0.231 61.125 0.596 61.125 1 v 18.419 c 0 0.552 0.447 1 1 1 h 18.419 c 0.404 0 0.77 -0.244 0.924 -0.617 C 81.623 19.428 81.537 18.998 81.251 18.712 z" style="stroke: none; stroke-width: 1; stroke-dasharray: none; stroke-linecap: butt; stroke-linejoin: miter; stroke-miterlimit: 10; fill: rgb(140,180,235); fill-rule: nonzero; opacity: 1;" transform=" matrix(1 0 0 1 0 0) " stroke-linecap="round" />
	<path d="M 41.311 21.17 c -0.143 -0.224 -0.369 -0.381 -0.628 -0.438 c -3.803 -0.832 -6.886 -2.309 -9.426 -4.516 c -0.376 -0.327 -0.936 -0.327 -1.312 0 c -2.541 2.207 -5.624 3.684 -9.427 4.516 c -0.259 0.057 -0.485 0.214 -0.628 0.438 s -0.191 0.495 -0.134 0.754 c 1.856 8.421 5.326 14.279 10.313 17.409 c 0.163 0.102 0.347 0.153 0.532 0.153 s 0.369 -0.051 0.532 -0.153 c 4.987 -3.13 8.457 -8.987 10.313 -17.409 C 41.502 21.666 41.454 21.394 41.311 21.17 z" style="stroke: none; stroke-width: 1; stroke-dasharray: none; stroke-linecap: butt; stroke-linejoin: miter; stroke-miterlimit: 10; fill: rgb(255,209,100); fill-rule: nonzero; opacity: 1;" transform=" matrix(1 0 0 1 0 0) " stroke-linecap="round" />
	<path d="M 67.887 39.486 H 46.83 c -0.553 0 -1 -0.448 -1 -1 s 0.447 -1 1 -1 h 21.057 c 0.553 0 1 0.448 1 1 S 68.439 39.486 67.887 39.486 z" style="stroke: none; stroke-width: 1; stroke-dasharray: none; stroke-linecap: butt; stroke-linejoin: miter; stroke-miterlimit: 10; fill: rgb(255,255,255); fill-rule: nonzero; opacity: 1;" transform=" matrix(1 0 0 1 0 0) " stroke-linecap="round" />
	<path d="M 67.887 54.938 H 20.732 c -0.552 0 -1 -0.447 -1 -1 s 0.448 -1 1 -1 h 47.155 c 0.553 0 1 0.447 1 1 S 68.439 54.938 67.887 54.938 z" style="stroke: none; stroke-width: 1; stroke-dasharray: none; stroke-linecap: butt; stroke-linejoin: miter; stroke-miterlimit: 10; fill: rgb(255,255,255); fill-rule: nonzero; opacity: 1;" transform=" matrix(1 0 0 1 0 0) " stroke-linecap="round" />
	<path d="M 67.887 70.39 H 20.732 c -0.552 0 -1 -0.447 -1 -1 s 0.448 -1 1 -1 h 47.155 c 0.553 0 1 0.447 1 1 S 68.439 70.39 67.887 70.39 z" style="stroke: none; stroke-width: 1; stroke-dasharray: none; stroke-linecap: butt; stroke-linejoin: miter; stroke-miterlimit: 10; fill: rgb(255,255,255); fill-rule: nonzero; opacity: 1;" transform=" matrix(1 0 0 1 0 0) " stroke-linecap="round" />
</g>
</g>
</svg>