<svg xmlns="http://www.w3.org/2000/svg" height="495.158" width="856"  xmlns:v="https://vecta.io/nano"><path fill="#5d5b80" d="M618.983 480.419H48.291a19.14 19.14 0 0 1-19.136-19.136h0q310.313-36.064 608.963 0h0c0 5.075-2.016 9.942-5.605 13.531s-8.456 5.605-13.531 5.605z"/><path fill="#3f3d56" d="M638.118 462.409l-608.963-1.126 70.914-119.316V80.249a24.19 24.19 0 0 1 24.19-24.19h415.378a24.19 24.19 0 0 1 24.19 24.19v263.52z"/><path fill="#fff" d="M123.708 72.943a7.89 7.89 0 0 0-7.879 7.879v238.632a7.89 7.89 0 0 0 7.879 7.879h419.858a7.89 7.89 0 0 0 7.879-7.879V80.823a7.89 7.89 0 0 0-7.879-7.879z"/><path fill="#565577" d="M125.467 358.852c-1.318.002-2.515.769-3.068 1.965l-21.747 47.276c-.481 1.045-.397 2.264.224 3.233s1.692 1.555 2.843 1.555h457.325c1.17 0 2.257-.606 2.872-1.602s.671-2.239.147-3.286l-23.638-47.276a3.36 3.36 0 0 0-3.02-1.867z"/><circle fill="#fff" r="5.065" cy="63.938" cx="331.948"/><path fill="#585578" d="M286.997 421.887a3.38 3.38 0 0 0-3.26 2.499l-5.455 20.261c-.273 1.014-.059 2.098.58 2.932s1.63 1.323 2.68 1.323h103.742c1.092 0 2.117-.528 2.751-1.418s.797-2.031.439-3.063l-7.013-20.261a3.38 3.38 0 0 0-3.191-2.272z"/><path fill="#2f2e41" d="M563.827 338.028v4.502H99.732l.349-.562v-3.94h463.746z"/><path fill="#e6e6e6" d="M175.286 122.491a6.21 6.21 0 0 0-6.11 6.285v142.47a6.21 6.21 0 0 0 6.11 6.285h316.701a6.21 6.21 0 0 0 6.11-6.285v-142.47a6.21 6.21 0 0 0-6.11-6.285z"/><path fill="#00b0ff" d="M357.224 277.787H472.51a3.71 3.71 0 0 0 2.624-6.335l-73.785-73.785c-1.45-1.447-3.798-1.447-5.248 0l-18.348 18.348c-1.46 1.46-3.44 2.28-5.504 2.28s-4.044-.82-5.504-2.28l-57.47-57.47c-1.45-1.447-3.798-1.447-5.249 0L191.629 270.942a3.71 3.71 0 0 0 2.624 6.335h163.118z"/><path d="M182.887 174.065a1.02 1.02 0 0 1-1.018-1.018v-68.228a1.02 1.02 0 0 1 1.018-1.018h78.412a1.02 1.02 0 0 1 .885 1.528 1.02 1.02 0 0 1-.885.508h-77.393v67.21a1.02 1.02 0 0 1-1.018 1.018zm301.426 1.018a1.02 1.02 0 0 1-1.018-1.018v-67.21h-77.393a1.02 1.02 0 0 1-.882-1.527 1.02 1.02 0 0 1 .882-.509h78.412a1.02 1.02 0 0 1 1.018 1.018v68.228a1.02 1.02 0 0 1-1.018 1.018zM261.298 295.246h-78.412a1.02 1.02 0 0 1-1.018-1.018V226a1.02 1.02 0 0 1 1.528-.885 1.02 1.02 0 0 1 .508.885v67.21h77.393a1.02 1.02 0 0 1 .885 1.528 1.02 1.02 0 0 1-.885.508zm223.015 1.019h-78.412a1.02 1.02 0 0 1-.882-1.527 1.02 1.02 0 0 1 .882-.509h77.393v-67.21a1.02 1.02 0 0 1 1.018-1.018 1.02 1.02 0 0 1 1.018 1.018v68.228a1.02 1.02 0 0 1-1.018 1.018z" fill="#3f3d56"/><path d="M783.593 280.958h0a11.488 11.488 0 0 0 12.604-11.434v-24.479l-16.01-1.921-6.539 23.295a11.488 11.488 0 0 0 9.945 14.539zM645.125 292.34h0a11.488 11.488 0 0 0 10.137-13.668l-4.765-24.011-16.077 1.232-1.88 24.123a11.488 11.488 0 0 0 12.585 12.325z" fill="#ffb8b8"/><path fill="#2f2e41" d="M690.533 473.663l18.709.8c-4.002-75.62-2.755-139.587 8.187-182.028 13.617 48.456 18.3 112.044 18.66 182.954l20.404-1.725c8.721-83.969 13.144-161.603 3.842-219.011-29.185-16.956-61.502-17.007-97.338 1.921-.804 64.311 10.226 138.168 27.537 217.09z"/><path d="M693.949 469.771l-7.938 2.646s-16.759-4.41-12.349 7.056 16.759 9.703 16.759 9.703 14.995 11.467 21.169 2.646l-3.528-18.523zm55.925 0l7.938 2.646s16.759-4.41 12.349 7.056-16.759 9.703-16.759 9.703-14.995 11.467-21.169 2.646l3.528-18.523z"/><g fill="#ffb8b8"><circle r="26.256" cy="33.078" cx="686.05"/><path d="M682.848 85.59l39.704-10.887c-10.046-12.316-13.688-26.242-11.527-41.625h-28.177z"/></g><g fill="#2a7fff"><path d="M660.435 262.336c35.476-13.08 70.223-15.515 103.742 0-9.689-63.726-12.759-121.228-2.395-161.22a16.857 16.857 0 0 0-9.465-19.69l-35.528-15.688-33.94 5.123-28.651 20.795a16.805 16.805 0 0 0-5.757 19.799c15.097 38.03 17.865 89.683 11.995 150.881z"/><path d="M779.546 245.045l18.571 1.921-18.934-133.618a39.429 39.429 0 0 0-27.122-32.053l-2.613-.829 3.842 71.723zm-127.921 12.693l-18.032 4.84-2.485-134.93a39.429 39.429 0 0 1 21.699-35.947l2.449-1.232 7.575 71.425z"/></g><path fill="#1a1a1a" d="M711.9 52.932s21.527-26.097 1.511-45.177c-13.886-13.236-33.58-6.639-44.341-1.357a19.865 19.865 0 0 0-11.093 14.795c-.717 4.94.466 9.373 8.066 7.345 15.199-4.056 10.642 9.371 10.642 9.371s10.809-.171 10.642 9.371 24.574 5.653 24.574 5.653z"/><g transform="matrix(.100502 0 0 .099064 196.7989 132.05757)"><ellipse ry="177.52" rx="177.583" cy="231.52" cx="225.583"/><path d="M351.742 106.139C318.2 72.61 273.605 54.145 226.171 54.145s-92.029 18.465-125.57 51.994-52.012 78.109-52.012 125.526 18.471 91.996 52.012 125.526 78.136 51.994 125.57 51.994 92.029-18.465 125.57-51.994 52.012-78.109 52.012-125.526-18.471-91.996-52.012-125.526zm-125.57 288.902c-90.117 0-163.433-73.29-163.433-163.376S136.054 68.29 226.171 68.29s163.433 73.29 163.433 163.376-73.316 163.376-163.433 163.376zm-93.949-105.049h43.295l21.529-37.356-21.529-37.403h-43.295l-21.529 37.403zm115.99-41.954l21.719-37.403-21.719-37.356h-43.058l-21.576 37.356 21.576 37.403zm21.719 46.552l-21.719-37.356h-43.058l-21.576 37.356 21.576 37.545h43.058zM110.694 168.68l21.529 37.356h43.295l21.529-37.356-21.529-37.545h-43.295zm231.981 0l-21.529-37.545h-43.295l-21.529 37.356 21.529 37.545h43.295z" fill="#06f"/></g></svg>