<svg xmlns="http://www.w3.org/2000/svg" xmlns:xlink="http://www.w3.org/1999/xlink" height="451.386" width="700" xmlns:v="https://vecta.io/nano"><style><![CDATA[.c{opacity:.1}.d{fill:#fff}.e{fill:#fdc2cc}.f{fill:#263238}.g{fill:#f5f5f5}.h{fill:#407bff}.i{fill:#e6e6f0}.j{fill:#565171}.k{fill:#ebebeb}.l{opacity:.05}.m{fill:#b45181}.n{fill:#c48c96}.o{fill:#916f6f}.p{font-family:Good Times}]]></style><defs><linearGradient xlink:href="#B" id="A" x1="455.902" y1="364.189" x2="455.902" y2="197.674"/><linearGradient id="B" gradientUnits="userSpaceOnUse"><stop offset="0" stop-color="gray" stop-opacity=".25"/><stop offset=".54" stop-color="gray" stop-opacity=".12"/><stop offset="1" stop-color="gray" stop-opacity=".1"/></linearGradient><linearGradient id="C" x1="148.065" y1="384.866" x2="148.065" y2="190.483" xlink:href="#B"/><path id="D" d="M267.531 342.093s21.239 4.191 25.228 8.853c0 0 3.631 2.548 0 7.186s-8.712 15.124-8.712 15.124-3.631 10.181-5.08 10.929-9.803 1.348-10.53-1.476c0 0 4.716-6.138 4.716-8.986s7.805-16.32 7.805-16.32-17.787-1.648-23.416-.6 2.546-16.359 9.988-14.711z"/><path id="E" d="M257.55 297.045l19.421-9.281s.364 8.986 2.54 10.329c0 0-7.984 1.967-11.073 6.138z"/><path id="F" d="M456.15 353.799s4.949 13.772 7.835 15.478 20.416 10.378 25.574 8.337c0 0 1.24 5.105-.596 6.296l-19.385-.679s-12.581-1.362-14.644-6.463-4.538-13.772-4.538-13.772z"/><path id="G" d="M177.965 371.117s-22.885 2.622-27.655 1.835l-12.713-9.965s-12.08 7.604 6.994 12.586l35.597 3.409z"/><path id="H" d="M203.474 487.046a17.53 14.46 0 0 1-.399 2.843s-26.379 1.574-34.643 1.048c-3.977-.251-5.665-1.476-5.963-2.646-.364 1.348 1.079 3.123 5.963 3.443 8.264.526 34.643-1.048 34.643-1.048a18.365 15.149 0 0 0 .399-3.64z"/><path id="I" d="M200.546 478.876c-1.658 1.687-3.995 2.336-6.44 2.435-5.557.216-11.675-2.435-11.675-2.435 4.132-2.882-6.356-28.316-6.356-28.316-8.58-3.409-7.948-11.012-7.948-11.012l2.779-41.266.704-10.368 8.902-4.456 7.012 4.427 6.654 4.21a26.749 22.064 0 0 1 .835 4.092c.775 9.635-8.461 11.903-8.461 11.903s3.816 9.699.316 18.616 2.54 16.782 2.54 16.782 11.442 27.268 9.54 28.842 1.598 6.546 1.598 6.546z"/></defs><path fill="#ccc" d="M659.663 451.386H40.157A40.156 29.944 0 0 1 .045 421.475V58.645A29.419 21.938 0 0 1 29.43 36.732h640.449a29.928 22.317 0 0 1 29.894 22.292v362.451a40.156 29.944 0 0 1-40.111 29.911z"/><path d="M55.011 436.634h588.168a42.231 31.391 0 0 0 42.231-31.391V103.989a42.231 31.391 0 0 0-42.231-31.391H55.011a42.231 31.391 0 0 0-42.231 31.391v301.254a42.231 31.391 0 0 0 42.231 31.391z" class="d"/><path fill="#06f" d="M700 58.165H0V38.581A40.306 38.637 0 0 1 40.272 0h619.455a40.306 38.637 0 0 1 40.272 38.581z"/><g class="d"><ellipse ry="6.177" rx="5.886" cy="29.306" cx="35.597"/><ellipse ry="6.177" rx="5.886" cy="29.306" cx="57.94"/><ellipse ry="6.177" rx="5.886" cy="29.306" cx="80.284"/></g><path d="M372.347 186.705s28.699-.851 30.332-11.352" fill="none" stroke="#535461" stroke-miterlimit="10" stroke-width="1.083"/><path d="M238.609 270.556l-1.997 2.395 2.385 2.695c.209.3 6.35-.148 6.35-.148l.543-1.795-.906-2.095z" class="i"/><path d="M170.533 258.732l2.54 1.495.727-1.643-1.819-3.148-2.719-2.543-3.995.595 2.54 4.048z" class="e"/><use xlink:href="#D" x="-30.735" y="-111.815" class="j"/><use xlink:href="#D" x="-30.735" y="-111.815" class="c"/><path d="M232.438 234.321c-.042.871-.155 1.849-.316 2.902-1.163 7.624-4.949 18.961-4.949 18.961s-3.81 6.738-4.901 11.081-8.533 5.41-8.533 5.41-20.333 1.967-24.507 1.2-10.733 2.248-13.977 1.795-5.265-6.738-5.265-6.738a39.354 32.462 0 0 0 16.338-2.843c8.348-3.143 20.333-1.648 20.333-1.648a6.827 5.632 0 0 0 4.174-2.843c1.27-2.248 1.27-15.872.906-16.772-2.385-5.902-2.188-9.689-1.503-11.898a7.197 5.937 0 0 1 1.503-2.626z" class="j"/><path d="M232.438 234.321c-.042.871-.155 1.849-.316 2.902-1.825.118-6.941.231-10.733-1.702-3.578-1.81-8.783-2.425-11.126-2.617a7.197 5.937 0 0 1 1.503-2.626z" class="c"/><path d="M234.948 232.447c-.847 1.967-2.147 4.274-2.147 4.274s-6.714.748-11.436-1.648-12.343-2.695-12.343-2.695c1.234-.625 2.069-2.523 2.588-4.186a32.157 26.525 0 0 0 .68-2.853s22.324 3.743 23.255 4.343c.346.236-.024 1.426-.596 2.764z" class="i"/><path d="M274.731 169.338l-27.077 13.482-2.689 1.338v-6.586l1.866-.738 22.819-8.996s1.091-16.319 3.995-13.772 1.085 15.272 1.085 15.272z" class="e"/><path d="M247.654 182.82l-2.689 1.338v-6.586l1.866-.738a58.757 48.467 0 0 0 .823 5.986z" class="c"/><use xlink:href="#E" x="-30.735" y="-111.815" class="m"/><use xlink:href="#E" x="-30.735" y="-111.815" class="c"/><path d="M274.558 193.144s-9.236 3.32-15.354 4.54a12.057 9.945 0 0 1-4.251.403c-4.174-.6 1.091-4.918 1.091-4.918l2.194-.28 11.782-1.515s1.27-14.972 3.446-13.772 1.091 15.542 1.091 15.542zm-39.032-13.477s-7.805 4.791-4.901 10.781-15.068-3.595-15.068-3.595 5.808-7.186 7.078-12.577 12.891 5.391 12.891 5.391z" class="e"/><path d="M234.948 232.447a41.143 33.937 0 0 0-10.494-2.017c-5.247-.492-10.053-1.323-12.838-2.238a32.157 26.525 0 0 0 .68-2.853s22.324 3.743 23.255 4.343c.34.236-.03 1.426-.602 2.764zm24.25-34.764a12.057 9.945 0 0 1-4.251.403c-4.174-.6 1.091-4.918 1.091-4.918l2.194-.28c.918 1.166 1.854 2.986.966 4.796z" class="c"/><path d="M222.82 182.362s-7.078-.148-9.618 2.248-1.997 8.853-1.997 8.853-.531 12.931 3.446 20.166a1.193.984 0 0 1 .042.743c-.042.089-.042.034-.042.034s-2.54 9.434-5.08 11.081 5.444 3.595 14.907 4.491 13.249 3.143 13.249 3.143 1.634-1.476 1.789-4.791-2.522-27.401-2.522-27.401 9.982 2.095 15.974-.448c0 0 2.725 1.2 5.265-2.095s-1.789-6.886-1.789-6.886-3.995 3.295-15.068-1.048-15.115-8.238-18.556-8.091z" class="m"/><path d="M166.359 253.193h-2.176v2.548l2.176 4.043 3.089.448c.185 0 2.54-.448 2.54-.448l.727-1.048s-7.99-2.553-6.356-5.543z" class="i"/><path d="M236.796 271.903l-3.268 5.991 13.798 5.41 10.894.3s.906-2.095-2.725-3.143l-2.904-.448s-3.81-5.691-4.174-8.361c0 0-3.631.6-4.174 2.843-.007-.049-5.086 2.046-7.447-2.592zm-72.071-19.31l-1.109.748-4.878 3.295 11.252 12.296s6.35 2.248 9.26 0c0 0 1.789-1.476-2.176-2.695 0 0-3.089.448-3.089-2.095s.727-5.238 1.789-5.838c0 0-2.725-.748-3.446-.148a11.52 9.502 0 0 0-1.455 1.648s-6.511-2.12-6.148-7.21z" class="m"/><path d="M222.277 174.576a22.062 18.198 0 0 1-.727 2.243 9.439 7.786 0 0 0 12.086 4.284 15.014 12.385 0 0 1 1.532-1.136s-11.621-10.781-12.891-5.391zm-1.002 19.999s5.629 6.138 13.798 6.291m19.844-.281a2.34 2.34 0 0 1-.334-.103q-.262.113-.537.211c.295-.005.587-.041.871-.108zm1.932-8.469a8.05 8.05 0 0 0-.632-.6s-1.193.984-4.138 1.171a11.97 11.97 0 0 0 4.77-.571zm-18.24 8.814l.036.32a43.53 43.53 0 0 0 7.263.492 45.39 45.39 0 0 1-7.298-.812zm-12.522 29.058c-9.439-.9-17.423-2.843-14.907-4.491s5.08-11.081 5.08-11.081 0 .054.042-.034a.83.83 0 0 0-.042-.743c-3.977-7.255-3.446-20.166-3.446-20.166s-.543-6.438 1.998-8.853c1.89-1.785 6.297-2.154 8.425-2.228a4.56 4.56 0 0 0-.596 0s-7.078-.148-9.618 2.248-1.998 8.853-1.998 8.853-.531 12.931 3.446 20.166a.83.83 0 0 1 .042.743c-.042.089-.042.034-.042.034s-2.522 9.404-5.086 11.052 5.444 3.595 14.907 4.491 13.249 3.143 13.249 3.143a3.9 3.9 0 0 0 .501-.605c-1.842-.733-5.635-1.938-11.955-2.528z" class="c"/><ellipse cx="230.625" cy="173.529" rx="9.439" ry="7.786" class="e"/><path d="M244.059 170.046c-.781 1.613-3.113 2.223-5.158 2.641-2.922.59-6.07 1.171-8.867.256a1.938 1.599 0 0 0-1.193-.192 1.586 1.308 0 0 0-.787.566c-3.083 3.62-2.582 8.445-3.381 12.822-.25 1.362-.674 2.769-1.789 3.787-2.17 1.967-6.267 1.894-8.264 3.984-1.318 1.377-1.33 3.29-1.318 5.046q0 2.808-.06 5.622c-.036 1.23-.107 2.503-.781 3.595-1.145 1.849-3.697 2.73-6.052 3.443-1.467.453-2.981.91-4.556.787s-3.148-.984-3.351-2.282c-.28-1.761 1.92-2.99 3.435-4.259 2.421-2.021 3.417-4.963 3.506-7.806a10.137 8.361 0 0 0-.596-3.379c-.555-1.116-1.544-2.056-2.141-3.158-1.837-3.394.429-7.319 3.142-10.289s6.046-5.868 6.625-9.552a16.058 13.245 0 0 1 .411-2.366c.417-1.072 1.407-4.033 2.498-4.712a12.981 10.708 0 0 1 5.963-2.046c1.676-.202 3.387-.128 5.05-.393 1.944-.31 3.751-1.072 5.694-1.358 4.204-.615 8.765 3.413 10.608 6.591.507.974 1.837 1.662 1.359 2.651z" class="c"/><path d="M244.059 169.746c-.781 1.613-3.113 2.223-5.158 2.641-2.922.59-6.07 1.171-8.867.256a1.938 1.599 0 0 0-1.193-.192 1.586 1.308 0 0 0-.787.566c-3.083 3.62-2.582 8.445-3.381 12.822-.25 1.362-.674 2.769-1.789 3.787-2.17 1.967-6.267 1.894-8.264 3.984-1.318 1.377-1.33 3.29-1.318 5.046q0 2.808-.06 5.622c-.036 1.23-.107 2.503-.781 3.595-1.145 1.849-3.697 2.73-6.052 3.443-1.467.452-2.981.91-4.556.787s-3.148-.984-3.351-2.282c-.28-1.761 1.92-2.99 3.435-4.259 2.421-2.021 3.417-4.963 3.506-7.806a10.137 8.361 0 0 0-.596-3.379c-.555-1.116-1.544-2.056-2.141-3.158-1.837-3.394.429-7.319 3.142-10.289s6.046-5.868 6.625-9.552a16.058 13.245 0 0 1 .411-2.366c.417-1.072 1.407-4.033 2.498-4.712a12.981 10.708 0 0 1 5.963-2.046c1.676-.202 3.387-.128 5.05-.393 1.944-.31 3.751-1.072 5.694-1.357 4.204-.615 8.765 3.413 10.608 6.591.507.974 1.837 1.662 1.359 2.651z" fill="#f569bc"/><path d="M275.379 103.417h133.969v129.43H275.379z" fill="#f7df1e"/><path d="M288.464 187.594l12.009-5.996c2.32 3.389 4.424 6.256 9.481 6.256 4.848 0 7.901-1.564 7.901-7.643v-41.359h14.746v41.527c0 12.596-8.944 18.331-22.014 18.331-11.794 0-18.639-5.041-22.116-11.121m52.138-1.303l12.003-5.735c3.16 4.259 7.269 7.378 14.537 7.378 6.112 0 10.005-2.518 10.005-5.996 0-4.171-4.001-5.646-10.733-8.081l-3.685-1.303c-10.637-3.733-17.697-8.425-17.697-18.331 0-9.124 8.425-16.074 21.591-16.074 9.373 0 16.099 2.695 20.959 9.729l-11.478 6.084c-2.528-3.738-5.265-5.214-9.481-5.214-4.317 0-7.06 2.258-7.06 5.214 0 3.649 2.737 5.125 9.057 7.378l3.685 1.303c12.522 4.427 19.594 8.947 19.594 19.113 0 10.949-10.429 16.944-24.447 16.944-13.714 0-22.539-5.41-26.832-12.424"/><path d="M500.313 356.039s-6.124.354-9.904-5.056a21.991 18.139 0 0 0-2.606-3.054 12.522 10.329 0 0 1-1.831-5.484c.209-4.009-4.86-25.965-4.86-25.965s.632-8.361-4.436-13.59c-3.339-3.443-8.139-13.28-11.031-19.635a1.592 1.313 0 0 0 .68.295l-.119-.546h.119l-1.497-6.783a37.494 30.927 0 0 1-5.462-6.827l.34-.059 4.484-.777s7.286-8.543 7.752-12.744h.596.841a175.304 144.603 0 0 1 20.19.871h0c0-.025-.048-.133-.107-.305h0a25.342 20.904 0 0 1-.656-2.572h.417l4.174-.226s14.364-13.241 9.081-15.68-10.775 10.978-10.775 10.978l-1.789.266-.483.074a2.23 2.23 0 0 1 .149-.167c.054-.054-23.445-.866-27.065-5.578 0 0-10.351-6.797-10.775-11.312a6.195 5.11 0 0 0-3.721-4.348 8.121 6.699 0 0 0-4.108-.634l-4.848.275.34.492h-.137a16.308 13.452 0 0 1-.763-1.771h.101c-.036-.123-.065-.246-.095-.369a11.407 9.409 0 0 0 8.401-11.588 4.561 3.763 0 0 0 1.425-.034c1.789-.3 3.047-1.795 3.095-3.29v-.29-.059a6.13 5.056 0 0 0-2.355-3.886c-.966-.664-2.123-1.136-2.981-1.874-1.043-.88-1.616-2.061-2.427-3.099a11.15 9.198 0 0 0-5.724-3.674c-1.747-.492-3.894-.541-5.235.492-.692.536-1.091 1.313-1.866 1.766-1.115.659-2.63.462-3.995.595a7.62 6.286 0 0 0-5.742 3.546 9.904 8.17 0 0 0-.942 3.748 12.134 10.009 0 0 0 .382 2.631c.262.856.65 1.682.936 2.538.596 1.771.733 3.635 1.419 5.381a8.211 6.773 0 0 0 2.641 3.31l-.203.718c-.131 0-3.423.605-5.694 4.702-1.789 3.231-7.877 6.566-10.554 7.914a4.4 3.63 0 0 0-1.992 2.282 14.37 11.854 0 0 0-.34 2.897c-.048 2.1.483 5.007 2.528 8.691 4.645 8.361 8.026 12.021 8.026 12.021a64.37 64.37 0 0 0 .274 5.263c0 2.012-.179 4.013-.698 5.017-.441.846-.596 3.005-.56 5.474 0 4.732.56 10.904.56 10.904s1.616.256 4.114.556l1.556 22.586a13.166 10.86 0 0 1-2.981 7.545 20.237 16.693 0 0 1-3.751 2.951c-4.436 2.612-13.941 30.145-13.941 30.145a14.11 14.11 0 0 0 1.228.074l-2.922 6.724s11.675 7.378 18.777 5.361a6.881 5.676 0 0 1 2.385-.275c1.401 0 4.4-.915 2.731-2.12a108.235 89.28 0 0 1-9.105-7.811 4.842 3.994 0 0 1 .656.32v-.054l.101.054s0-.271.077-.713l-.101-.029c.215-1.81.894-6.394 2.242-6.925 1.687-.698 14.156-21.086 14.156-21.086l12.462-26.486s9.928 14.116 18.377 16.551v5.902s4.645 17.426 6.338 19.339 0 9.581 0 9.581a5.79 4.776 0 0 0 1.139.826l-1.354 6.315s9.719-.349 26.194 3.831c-.012.025 6.326-2.238 1.043-5.027zm-38.865-91.13l-2.057.423-.405.084-.072-.334a4.174 3.443 0 0 1-1.497.3 27.518 22.699 0 0 1-1.252-5.878 48.012 39.604 0 0 1-1.258-7.279c0-1.269.256-2.376.835-3l.686.044.477.374.036.025.244.182h0l.256.187.042.029.274.202.048.034.28.197h0l.316.216.072.049.334.221h0l.328.216.077.049.364.226.077.044.346.212.06.034.394.231.095.054.417.236h.036l.405.221.096.054.435.231.096.049.405.207.077.039.465.226.113.054.483.221h.036l.471.207.113.049.501.207.101.039.465.177.089.034.525.187.125.044.543.182h0c-3.369 3.059-5.098 10.191-5.098 10.191z" fill="url(#A)"/><path d="M409.345 347.618l-3.918 9.016s10.733 6.788 17.709 5.381a19.492 16.078 0 0 1 3.202-.428c1.443-.089 3.929-.959 2.385-2.061-4.949-3.571-11.55-10.206-11.55-10.206zm65.167-.851l-1.854 8.676s9.487-.339 25.574 3.743c0 0 6.189-2.213 1.032-4.918 0 0-5.963.339-9.689-4.918s-5.963-4.594-5.963-4.594z" fill="#4f4d59"/><path d="M425.415 283.83l1.789 26.402a13.237 10.919 0 0 1-3.154 7.722 19.403 16.005 0 0 1-3.405 2.622c-4.329 2.553-13.613 29.427-13.613 29.427s10.518.492 13.404 2.213c0 0 .596-6.802 2.266-7.486s13.816-20.584 13.816-20.584l12.17-25.856s9.689 13.772 17.942 16.162v5.784s4.538 17.013 6.189 18.882 0 9.345 0 9.345 4.77 4.918 15.67-.339c0 0-3.506-3.231-3.297-7.147s-4.77-25.345-4.77-25.345.596-8.165-4.329-13.28-13.112-24.656-13.112-24.656l-5.677-10.073z" class="n"/><path d="M409.035 349.999s9.278-26.875 13.613-29.427a18.66 18.66 0 0 0 3.578-2.794c2.116-2.113 3.182-4.809 2.981-7.545l-1.819-26.407 30.41-15.464-.411-.733-31.853 16.201 1.819 26.407c.2 2.736-.865 5.432-2.981 7.545a18.66 18.66 0 0 1-3.578 2.794c-4.323 2.548-13.613 29.422-13.613 29.422s10.518.492 13.404 2.213c0 0 0-.266.078-.694-4.061-1.151-11.627-1.52-11.627-1.52zm65.787-1.53s1.652-7.486 0-9.345-6.189-18.882-6.189-18.882v-5.794c-8.246-2.381-17.942-16.162-17.942-16.162l-.716 1.544c2.797 3.659 10.256 12.739 16.809 14.628v5.784s4.538 17.013 6.189 18.882 0 9.345 0 9.345 2.302 2.39 7.382 2.066c-3.798-.261-5.533-2.066-5.533-2.066z" class="c"/><path d="M496.371 254.231l-4.049.221-2.135.118v-4.254l2.802-.418 1.735-.261s5.366-13.098 10.518-10.717-8.873 15.311-8.873 15.311z" fill="#714b4f"/><path d="M431.413 219.167s-2.683 8.504-3.506 13.772 19.176 1.023 19.176 1.023-7.632-7.653-3.297-11.735z" class="o"/><path d="M453.064 254.58l.411 3.231-6.392-.339-6.392-4.594-6.392-14.805-4.114-5.278-3.095-3.231 1.24-3.935 1.521 1.008c3.142 1.967 10.506 6.104 15.891 4.963a6.416 5.292 0 0 0 .733-.192l8.044 11.396z" class="i"/><path d="M429.971 224.632s-3.297.492-5.569 4.594c-1.741 3.138-7.632 6.394-10.262 7.707a4.4 3.63 0 0 0-1.998 2.292c-.531 1.938-.733 5.553 2.153 10.752 4.538 8.165 7.835 11.735 7.835 11.735s.823 8.165-.411 10.545 0 15.478 0 15.478 21.651 3.404 28.872 0 6.189-16.501 6.189-16.501 6.803 11.908 9.278 12.247l-1.443-6.635s-8.044-7.147-8.455-16.329c0 0-2.475-8.337-.411-10.545 0 0 34.852 2.381 36.915.339 0 0-22.891-.851-26.397-5.445 0 0-10.107-6.635-10.518-11.057a5.927 4.889 0 0 0-3.095-4.009 8.074 6.66 0 0 0-4.621-.851l-4.657.266s8.044 11.735 7.632 13.28.411 13.949.411 13.949-9.308-16.501-13.404-18.37-8.873-9.562-8.873-9.562l.823-3.886" class="c"/><path d="M453.064 254.58l.411 3.231-6.392-.339-6.392-4.594-6.392-14.805-4.114-5.278-3.095-3.231 1.24-3.935 1.521 1.008-.286 1.343s4.77 7.683 8.867 9.557 13.404 18.371 13.404 18.371-.823-12.419-.411-13.949c.28-1.038-3.333-6.773-5.682-10.358a6.416 5.292 0 0 0 .733-.192l8.044 11.396zm39.259-.128l-2.135.118v-4.254l2.802-.418c-.978 1.067-.942 2.956-.668 4.555z" class="c"/><path d="M429.971 224.125s-3.297.492-5.569 4.594c-1.741 3.138-7.632 6.394-10.262 7.707a4.4 3.63 0 0 0-1.998 2.292c-.531 1.938-.733 5.553 2.153 10.752 4.538 8.165 7.835 11.735 7.835 11.735s.823 8.165-.411 10.545 0 15.478 0 15.478 21.651 3.404 28.872 0 6.189-16.501 6.189-16.501 6.798 11.888 9.278 12.252l-1.443-6.635s-8.044-7.147-8.455-16.329c0 0-2.475-8.337-.411-10.545 0 0 8.044 7.147 17.119 6.974a170.748 140.845 0 0 1 19.796.851s-2.063-5.445 0-7.486c0 0-22.891-.851-26.397-5.445 0 0-10.107-6.635-10.518-11.057a5.927 4.889 0 0 0-3.095-4.009 8.074 6.66 0 0 0-4.621-.851l-4.657.266s8.044 11.735 7.632 13.28.411 13.949.411 13.949-9.308-16.511-13.404-18.38-8.873-9.542-8.873-9.542l.823-3.886" class="n"/><use xlink:href="#F" x="-30.735" y="-111.815" class="c"/><g fill="#ba7855"><ellipse cx="451.83" cy="256.7" rx=".721" ry=".851"/><ellipse cx="453.887" cy="262.652" rx=".721" ry=".851"/></g><path d="M423.167 287.042s-1.24-13.098 0-15.478.411-10.545.411-10.545-3.297-3.571-7.835-11.735c-2.892-5.199-2.683-8.814-2.153-10.752.264-.955.984-1.782 1.998-2.292 2.63-1.328 8.515-4.569 10.262-7.707 1.282-2.302 2.886-3.468 4.043-4.048l.078-.374s-3.297.492-5.569 4.594c-1.741 3.138-7.632 6.394-10.262 7.707-1.013.51-1.734 1.337-1.998 2.292-.531 1.938-.733 5.553 2.153 10.752 4.538 8.165 7.835 11.735 7.835 11.735s.823 8.165-.411 10.545 0 15.478 0 15.478 15.467 2.43 24.614 1.126c-9.236.91-23.165-1.298-23.165-1.298zm27.834-45.058c-.28 1.048 0 7.21.233 10.988l1.622 2.794s-.823-12.419-.411-13.949c.394-1.476-6.851-12.129-7.573-13.182l-1.503.084s8.05 11.735 7.632 13.265zm23.308 14.288c-9.075.172-17.119-6.974-17.119-6.974a2.54 2.54 0 0 0-.519.92c2.385 1.83 8.944 6.36 16.195 6.222 6.613-.033 13.223.251 19.796.851l-.107-.305c-6.061-.517-12.153-.755-18.246-.713zm-16.099 14.289s.083 1.062.036 2.656c2.147 3.512 6.052 9.517 7.799 9.758l-.304-1.397c-2.999-3.108-7.531-11.017-7.531-11.017z" class="c"/><path d="M463.994 268.844l-4.383.762-3.458.6 1.854-4.254 1.294-.266 2.009-.413s2.886-11.908 8.664-11.057-5.981 14.628-5.981 14.628z" class="o"/><path d="M459.617 269.621l-3.458.6 1.854-4.254 1.294-.266a20.595 16.988 0 0 1 .31 3.92z" class="c"/><use xlink:href="#F" y="-112.154" x="-30.735" class="n"/><path d="M431.616 219.531l-.978 3.271a11.132 9.183 0 0 0 12.289 4.673c-.495-1.746-.388-3.512 1.061-4.879z" class="c"/><ellipse cx="440.28" cy="218.169" rx="11.138" ry="9.188" class="o"/><path d="M449.952 215.641a5.963 4.918 0 0 0 2.48.128 4.084 3.369 0 0 0 3.017-3.212 5.963 4.918 0 0 0-2.296-3.792c-.942-.649-2.069-1.107-2.934-1.83-1.02-.861-1.58-2.012-2.385-3.025a10.882 8.976 0 0 0-5.587-3.586c-1.705-.492-3.798-.531-5.11.492-.674.526-1.067 1.279-1.819 1.726-1.091.639-2.57.452-3.9.58a7.436 6.133 0 0 0-5.605 3.443 10.5 8.661 0 0 0-.549 5.902c.256.836.638 1.643.912 2.459.596 1.731.716 3.546 1.383 5.253s2.045 3.379 4.132 3.891a13.064 10.776 0 0 1 1.33-5.553 1.932 1.594 0 0 1 .942-.866 2.278 1.879 0 0 1 1.133 0 11.329 9.345 0 0 0 7.543-1.259c.793-.393 2.027-1.751 2.868-1.884 1.085-.152 3.309.925 4.442 1.131z" class="c"/><path d="M449.952 215.301a5.963 4.918 0 0 0 2.48.128 4.084 3.369 0 0 0 3.017-3.212 5.963 4.918 0 0 0-2.296-3.792c-.942-.649-2.069-1.107-2.934-1.83-1.02-.861-1.58-2.012-2.385-3.025a10.882 8.976 0 0 0-5.587-3.586c-1.705-.492-3.798-.531-5.11.492-.674.526-1.067 1.279-1.819 1.726-1.091.639-2.57.452-3.9.58a7.436 6.133 0 0 0-5.605 3.443 10.5 8.661 0 0 0-.549 5.902c.256.836.638 1.643.912 2.459.596 1.731.716 3.546 1.383 5.253s2.045 3.379 4.132 3.891a13.064 10.776 0 0 1 1.342-5.548 1.932 1.594 0 0 1 .942-.866 2.278 1.879 0 0 1 1.133 0 11.329 9.345 0 0 0 7.543-1.259c.793-.393 2.027-1.751 2.868-1.884 1.073-.157 3.297.92 4.43 1.126z" fill="#483737"/><path d="M561.067 184.979l-9.087 83.958-40.845 9.345-40.731-9.345-9.075-83.958z" fill="#e44d26"/><path d="M511.195 271.141l33.004-7.545 7.752-71.751h-40.756z" fill="#f16529"/><path d="M493.533 212.444h17.662v-10.299h-31.304l.298 2.764 3.071 28.38h27.941V222.99h-16.523zm2.838 25.994h-12.522l1.747 16.172 25.544 5.873h.059v-10.747h-.054l-13.905-3.099z" class="k"/><path d="M511.153 233.288h15.372l-1.449 13.359-13.923 3.099v10.737l25.598-5.853.185-1.741 2.934-27.116.304-2.764h-29.021v10.299zm0-20.869v.025h30.159l.25-2.317.596-5.223.298-2.764h-31.304v10.275z" class="d"/><path d="M192.899 230.647c-1.163-2.808-2.838-6.394-4.174-7.21a1.246 1.028 0 0 0-.262-.133h-.167v-3.468l-3.136.413a29.975 24.725 0 0 1-1.139-3.841 2.164 1.785 0 0 0 2.355.389c-.054-.069-.095-.143-.143-.216l.143-.049a5.826 4.805 0 0 1-.757-2.356 10.399 8.578 0 0 1 .435-2.223c.561-1.599 1.509-3.094 2.039-4.697a13.845 11.421 0 0 0 .477-3.177 14.036 11.578 0 0 0-1.467-5.238 3.709 3.059 0 0 0-1.109-1.195 14.311 11.804 0 0 0-1.359-.546 7.34 6.055 0 0 1-1.974-1.623 17.733 14.628 0 0 0-8.568-4.717 5.015 4.136 0 0 0-2.737-.177c-2.105.492-2.874 2.622-4.579 3.748-1.509.984-3.578 1.097-5.462 1.431a9.29 7.663 0 0 0-5.086 2.199 5.521 4.555 0 0 0-1.365 3.04 3.703 3.054 0 0 0 1.509 2.715 4.728 3.9 0 0 0 3.995.467 13.589 11.209 0 0 0 10.286 14.091l.37.541h0a28.138 23.21 0 0 1 2.546 5.494c-2.886 1.353-6.04 2.617-7.942 2.735a13.386 11.042 0 0 1-.411 1.815 12.146 10.019 0 0 1-2.498 4.058c-2.588 2.4-14.233 20.549-14.233 20.549s-.37.723-.966 1.967c-7.233.733-19.033 1.79-22.33 1.244l-12.939-10.142s-4.174 2.631-3.816 5.828l-2.331-1.83s-12.295 7.737 7.119 12.788l29.539 2.828c-2.814 7.004-5.438 15.154-4.627 19.59h.244a11.168 9.212 0 0 0 1.687-.108l-.054.787-2.844 42.019s-.65 7.737 8.085 11.209c0 0 10.679 25.886 6.47 28.822a26.99 26.99 0 0 0 1.342.521l-8.783 6.394s-6.47 1.333-10.029 1.067a2.57 2.12 0 0 0-2.838 1.579c0 .054 0 .108-.036.167v.069.172.064.148.064c0 .059 0 .113.042.172v.064q.03.093.071.182v.059c.03.059.065.118.101.177v.039c.042.059.084.118.131.177l.042.049q.077.094.173.187l.048.049c.065.064.137.123.215.187h.036l.238.167.054.034.292.172.071.039.34.162h.054l.364.148h.054l.423.143.089.029.471.128h.077l.507.108h.042l.596.094h.113l.596.074h.113l.686.054c1.33.084 3.124.113 5.2.108h0v.064.148.064c0 .059 0 .113.042.172v.064q.03.094.071.182v.059c.03.059.065.118.101.177v.039c.042.059.083.118.131.177l.042.049q.077.094.173.187l.048.049c.065.064.137.123.215.187h.03l.239.167.054.034.292.172.071.039.334.162h.054l.364.148h.054l.423.143.089.029.471.128h.077l.507.108h.042l.596.094h.113l.596.074h.113l.686.054c8.413.536 35.264-1.067 35.264-1.067v-.064h0v-.079h0c.268-1.033 1.556-7.038-3.023-11.48a6.56 6.56 0 0 0 .394-.369s-3.578-5.071-1.616-6.669-9.475-29.108-9.475-29.108-6.148-8.007-2.588-17.082-.322-18.946-.322-18.946 8.497-2.076 8.652-10.698v-.802a3.435 2.833 0 0 0 .537.029 2.51 2.071 0 0 0 .358 0s-1.616-4.805.322-8.273 6.148-.266 10.029-14.411c2.808-10.235 5.277-22.005 6.434-27.735a17.703 14.603 0 0 0-.71-7.088zm-73.83 30.003l-2.952-2.312c.978.334 2.063.659 3.274.984l11.12 1.077c-4.961.369-9.594.575-11.442.266z" fill="url(#C)"/><use xlink:href="#G" x="-30.735" y="-111.815" class="e"/><use xlink:href="#G" x="-30.735" y="-111.815" class="l"/><path d="M102.432 265.917l-49.454-11.312-11.019-101.96h121.096L152.024 254.59z" fill="#264de4"/><path d="M142.579 248.103l9.427-87.116h-49.491v96.259z" fill="#2965f1"/><path d="M67.252 198.785l1.359 12.503h33.928v-12.503zm-2.731-25.31l1.377 12.503h36.635v-12.503H64.492zm38.012 57.787h-.065l-16.886-3.763-1.079-9.975H69.256l2.123 19.635 31.054 7.127h.071z" class="k"/><path d="M137.696 198.785l2.737-25.31h-38v12.503h21.364l-1.377 12.788h-19.987v12.503h18.669l-1.789 16.231-16.88 3.772v13.009l31.078-7.107.227-2.115 3.578-32.924.37-3.359z" class="d"/><path d="M155.501 365.748l-11.126 8.125s-6.356 1.313-9.85 1.048-5.086 4.456 3.178 4.982 34.643-1.048 34.643-1.048 2.54-8.391-5.086-13.108z" fill="#333"/><use xlink:href="#H" opacity=".3" x="-30.735" y="-111.815" class="d"/><path d="M168.523 217.116s6.994 8.125 4.448 13.634 13.351-5.769 13.351-5.769-5.086-7.373-2.54-15.242z" class="e"/><path d="M166.615 368.896l-11.115 8.125s-6.356 1.313-9.85 1.048-5.086 4.456 3.178 4.982 34.643-1.048 34.643-1.048 2.54-8.391-5.086-13.108z" fill="#333"/><use xlink:href="#I" x="-30.735" y="-111.815" class="j"/><use xlink:href="#I" x="-30.735" y="-111.815" class="l"/><path d="M180.92 370.204c-5.402 5.504-18.115 0-18.115 0a2.027 1.672 0 0 0 .555-.713c2.331-5.228-7.865-30.224-7.865-30.224-8.58-3.409-9.54-11.534-9.54-11.534l-2.248-42.014-.292-5.44 13.374-4.21 4.108-1.294 13.684 8.652a24.787 20.446 0 0 1 .859 5.499c-.173 8.465-8.503 10.511-8.503 10.511s3.816 9.699.316 18.616 2.558 16.757 2.558 16.757 11.442 27.268 9.54 28.842 1.568 6.551 1.568 6.551z" class="j"/><path d="M175.44 288.926c-2.749-.325-8.312-3.054-11.168-4.535l-1.789-.944s-2.862-6.556-10.488-1.574a28.555 23.555 0 0 1-8.288 3.866 19.391 15.995 0 0 1-3.536.733l.704-10.368 8.902-4.456 7.012 4.427 4.108-1.294 13.684 8.647a24.787 20.446 0 0 1 .859 5.499z" class="c"/><path d="M192.642 238.615c-1.133 5.627-3.578 17.215-6.32 27.243-3.816 13.895-7.948 10.747-9.85 14.155s-.316 8.125-.316 8.125c-3.178.261-13.667-5.504-13.667-5.504s-2.862-6.556-10.488-1.574-13.667 4.717-13.667 4.717c-1.592-8.652 10.172-31.724 10.172-31.724s11.442-17.829 13.983-20.166a11.925 9.837 0 0 0 2.457-3.984 13.148 10.845 0 0 0 .405-1.78c4.132-.261 14.311-6.03 14.311-6.03l7.948-1.048v3.409a1.193.984 0 0 1 .262.133c1.306.821 2.981 4.323 4.096 7.083a17.393 14.347 0 0 1 .674 6.945z" fill="#e1a0a7"/><path d="M155.501 263.237l-4.108-.393-31.489-3.015c-19.081-4.982-6.994-12.586-6.994-12.586l12.713 9.965c3.667.605 18.055-.807 24.501-1.476l3.154-.344z" class="e"/><path d="M186.322 227.843s-8.264-5.504-20.685 12.321-15.259 14.942-15.259 14.942 2.54 7.87 1.27 9.439c0 0 8.58-.526 11.758 0s22.885-19.925 22.885-19.925 10.202-11.534.03-16.777z" class="c"/><path d="M186.006 226.796s-8.264-5.504-20.661 12.321-15.259 14.942-15.259 14.942 9.85 8.912 13.029 9.439S186 243.573 186 243.573s10.178-11.534.007-16.777z" class="c"/><path d="M151.386 262.858c.131-1.943-.757-5.356-1.27-7.127l3.154-.344 2.224 7.87z" class="c"/><path d="M186.322 227.317s-8.264-5.504-20.685 12.326-15.259 14.942-15.259 14.942 2.54 7.87 1.27 9.439c0 0 8.58-.526 11.758 0s22.885-19.925 22.885-19.925 10.202-11.539.03-16.782z" fill="#e1a0a7"/><path d="M184.122 210.275l-15.282 7.333a32.61 26.899 0 0 1 1.789 2.4 13.41 11.062 0 0 0 2.671.221c4.073 0 5.963-3.527 8.425-5.902-.179-1.889 1.693-1.938 2.397-4.053z" class="c"/><ellipse cx="172.971" cy="208.706" rx="13.351" ry="11.012" class="e"/><path d="M156.097 199.798a9.123 7.525 0 0 1 4.997-2.164c1.854-.33 3.888-.428 5.366-1.407 1.676-1.107 2.427-3.212 4.496-3.684a4.931 4.068 0 0 1 2.689.177 17.417 14.367 0 0 1 8.419 4.633 7.209 5.946 0 0 0 1.944 1.599 14.072 11.608 0 0 1 1.336.536 3.643 3.005 0 0 1 1.085 1.176 13.822 11.401 0 0 1 .966 8.002c-.519 1.579-1.449 3.045-2.003 4.618s-.692 3.354.316 4.761c-.978.413-2.212-.108-2.826-.861s-.799-1.677-1.121-2.548a11.776 9.714 0 0 0-3.446-4.427c-1.002-.728-2.791-1.22-3.488-.28-.268.364-.25.831-.483 1.21-.453.743-1.789.89-2.641.492a4.049 3.34 0 0 1-1.652-2.021c-1.306-3.654-3.542-5.951-8.276-4.392-1.789.58-3.846.984-5.545 0-2.176-1.318-1.741-3.93-.131-5.42z" class="c"/><path d="M156.097 199.533a9.123 7.525 0 0 1 4.997-2.164c1.854-.33 3.888-.428 5.366-1.407 1.676-1.107 2.427-3.212 4.496-3.684a4.931 4.068 0 0 1 2.689.177 17.417 14.367 0 0 1 8.419 4.633 7.209 5.946 0 0 0 1.944 1.599 14.072 11.608 0 0 1 1.336.536 3.643 3.005 0 0 1 1.085 1.176 13.822 11.401 0 0 1 .966 8.002c-.519 1.579-1.449 3.045-2.003 4.618s-.692 3.354.316 4.761c-.978.413-2.212-.108-2.826-.861s-.799-1.677-1.121-2.548a11.776 9.714 0 0 0-3.446-4.427c-1.002-.728-2.791-1.22-3.488-.28-.268.364-.25.831-.483 1.21-.453.743-1.789.89-2.641.492a4.049 3.34 0 0 1-1.652-2.022c-1.306-3.654-3.542-5.951-8.276-4.392-1.789.58-3.846.984-5.545 0-2.176-1.313-1.741-3.925-.131-5.42z"/><path d="M187.854 224.568h-6.458s-12.713 5.243-13.029 4.982c-.215-.177-2.182.128-3.429.339a13.148 10.845 0 0 0 .405-1.78c4.132-.261 14.311-6.03 14.311-6.03l7.948-1.048v3.409a1.193.984 0 0 1 .25.128z" class="l"/><use xlink:href="#H" x="-19.615" y="-108.673" opacity=".3" class="d"/><path d="M143.414 280.28c-4.287 2.804-8.079 3.935-10.572 4.427 0 .197.048.389.083.575 0 0 6.04.261 13.667-4.717 1.182-.835 2.579-1.437 4.084-1.761-1.664-.674-4.037-.63-7.263 1.476zm43.135-49.156c-1.139-2.759-2.791-6.256-4.096-7.083a1.26 1.26 0 0 0-.262-.133l-2.54.133c1.306.821 2.582 4.063 3.721 6.817.923 2.239 1.161 4.632.692 6.965-1.133 5.627-3.578 17.215-6.32 27.243-3.816 13.895-7.948 10.747-9.85 14.155-1.562 2.794-.781 6.463-.441 7.697a9.38 9.38 0 0 0 3.303.694s-1.592-4.717.316-8.125 6.04-.261 9.85-14.155c2.761-10.053 5.188-21.641 6.32-27.243.469-2.333.231-4.726-.692-6.965z" class="l"/><path d="M633.544 422.888c-6.126-2.781-13.194-2.238-18.85 1.45-1.499-10.791-7.646-20.309-16.729-25.905s-20.134-6.673-30.074-2.93c-1.766-12.373-9.266-23.087-20.105-28.724s-23.663-5.493-34.38.388c-7.13-5.795-16.464-7.86-25.276-5.592s-16.105 8.613-19.75 17.181c-9.562-8.624-22.963-11.112-34.846-6.467s-20.309 15.662-21.908 28.648a30.886 31.641 0 0 0-26.524 3.538c-7.711 5.261-15.747 21.369-16.504 30.854l275.246 1.426c-.923-6.694-4.336-11.074-10.299-13.864z" fill="#ececec"/><path d="M349.987 437.878c7.391-6.185 102.301-19.65 144.65-48.389 41.94-28.624 66.093-75.897 83.471-124.37l35.166 12.369s-22.296 109.505-83.233 160.103z" class="h"/><path d="M427.639 426.128c33.886-10.172 34.587-12.783 71.129-35.438 34.327-25.519 56.392-63.647 70.616-106.862l35.668 14.47s-25.135 98.662-75.011 139.293H383.843z" opacity=".6" class="d"/><path d="M570.937 281.46c.257.094.151 1.13-.288 3.024l-.9 3.468-.636 2.19-.832 2.463-2.059 5.752-2.769 6.71-3.496 7.591-4.291 8.316-1.173 2.198-1.294 2.198-2.671 4.528-.688 1.161-.757 1.146-1.513 2.338-3.125 4.746c-2.27 3.117-4.472 6.445-7.046 9.64-1.264 1.613-2.505 3.297-3.86 4.91l-4.131 4.894-1.052 1.247-1.105 1.208-2.202 2.416-2.27 2.463c-.757.826-1.566 1.559-2.361 2.408l-4.858 4.839-5.131 4.738a221.34 221.34 0 0 1-22.876 17.839c-15.475 10.401-32.086 18.887-49.49 25.282l-5.948 2.112-5.865 1.831-2.876.889-2.86.78-5.585 1.473-5.441 1.208a70.64 70.64 0 0 1-5.297 1.067l-5.078.865c-.832.133-1.65.296-2.467.405l-2.414.296c-3.194.382-6.22.78-9.081.966s-15.541-.352-18.091-.36c-17.167 4.69-13.079 4.594-15.215 4.55-2.179-.045 13.617-2.531 11.831-2.624l.853 2.723-2.229-.849c-1.689-3.689-2.626 1.288-3.556 1.125-2.195-.652 19.176-6.813 28.254-2.868 3.294 1.431-17.893-4.484-16.097-.973 1.146-.118-20.206 3.536-19.056 3.467l20.634-4.588-7.95 4.687c-3.67-2.316 5.076-5.431 7.214-5.581l2.371-.191c2.474-.249 8.403-2.56 11.195-2.941s5.04-1.716 8.068-2.23l2.338-.429c.757-.148 1.574-.343 2.369-.522l4.904-1.091c1.672-.335 3.345-.826 5.063-1.27l5.244-1.388 5.365-1.629 2.747-.834 2.762-.951 5.638-1.941 5.721-2.206a250.33 250.33 0 0 0 47.674-25.048 233.84 233.84 0 0 0 22.172-17.083l5.017-4.505c1.627-1.52 3.186-3.117 4.767-4.598.757-.78 1.581-1.496 2.323-2.283l2.225-2.338 2.21-2.338 1.097-1.138 1.044-1.176 4.116-4.637c1.354-1.559 2.596-3.117 3.867-4.676 2.588-3.016 4.843-6.157 7.144-9.103 1.127-1.489 2.157-3.024 3.208-4.489l1.559-2.182.757-1.084.757-1.091 2.808-4.278 1.362-2.065 1.256-2.073c1.649-2.735 3.299-5.3 4.669-7.84s2.815-4.856 3.95-7.139 2.844-4.364 3.881-6.297 1.265-3.772 2.075-5.385c.408-.78.757-1.559 1.15-2.283s.666-1.395.961-2.026c.605-1.255-1.442-3.918-.988-4.697.9-1.668 4.09-.93 4.348-.837zm1.907 16.623a42.04 42.04 0 0 0-7.991 14.122c-.497 1.524.01 3.202 1.26 4.172a3.54 3.54 0 0 0 4.242.083l.076-.055a157.55 157.55 0 0 0-6.197 19.133c-.482 1.868.224 3.846 1.768 4.955a4.36 4.36 0 0 0 5.126-.022c13.491-9.848 23.054-24.403 26.917-40.963z" class="h"/><path d="M577.95 301.093a7.06 7.06 0 0 0-1.513 2.338 2.382 2.44 0 0 0 .522 2.595c1.037.904 2.815.358 3.784 1.317s.424 2.813-.265 4.123l-2.179 4.154c-.53 1.013-1.052 2.338-.363 3.242s2.316.655 3.428.078c5.206-2.788 8.751-8.032 9.482-14.028z" opacity=".3"/><path d="M637.959 245.363l.205.304c11.749 18.092 14.894 40.697 8.551 61.459l-3.973 13.023-19.637-26.084z" class="h"/><path d="M637.959 245.363l-.068.242-.212.709-.802 2.697-3.027 10.093-10.594 35.008v-.171l17.904 23.77 1.733 2.338-.341.07q1.196-3.897 2.346-7.677l2.21-7.458a70.815 72.545 0 0 0 2.452-14.433 68.455 70.128 0 0 0-.288-13.249c-.181-2.073-.575-4.037-.885-5.931a39.007 39.96 0 0 0-1.271-5.37 69.579 71.279 0 0 0-6.168-15.4c-.878-1.746-1.718-3.001-2.225-3.897l-.795-1.348.235.319.62.982c.53.881 1.4 2.127 2.27 3.897a70.5 70.5 0 0 1 6.258 15.376c.53 1.684.87 3.507 1.309 5.385l.908 5.955a67.736 69.391 0 0 1 .325 13.296 71.092 72.829 0 0 1-2.437 14.519l-2.21 7.466-2.338 7.677-.114.374-.234-.312-1.733-2.338-17.889-23.786-.053-.078v-.094l10.821-35.109 3.095-9.999.825-2.642.333-.686a1.131 1.159 0 0 1 .038-.195z" class="f"/><path d="M566.244 222.177l-.341.133c-19.413 7.816-34.334 24.282-40.568 44.765l-3.912 12.844 30.171-9.71z" class="h"/><path d="M566.244 222.177s0 .07-.061.218-.114.39-.197.67l-.757 2.618-2.981 9.875-10.465 34.689v.101h-.091l-27.5 8.869-2.671.857-.356.117.114-.374 2.27-7.568 2.27-7.326a70.328 72.047 0 0 1 5.978-13.171 67.81 67.81 0 0 1 7.568-10.568c1.294-1.559 2.694-2.938 3.996-4.294a38.76 38.76 0 0 1 4.003-3.601 66.09 66.09 0 0 1 13.492-8.776c1.68-.889 3.027-1.388 3.973-1.793l1.044-.437.371-.124-1.385.632-3.935 1.855a68.35 68.35 0 0 0-13.387 8.885c-1.332 1.067-2.603 2.338-3.973 3.608s-2.679 2.72-3.958 4.286a66.283 67.902 0 0 0-7.484 10.545 73.06 73.06 0 0 0-5.917 13.069l-2.27 7.318-2.27 7.575-.242-.257 2.671-.857 27.507-8.838-.121.124 10.594-34.462 3.072-9.929.825-2.65.22-.694a1.48 1.48 0 0 1 .053-.195z" class="d"/><path d="M640.948 106.25c-5.675-1.831-20.719 9.905-38.116 32.015-17.125 21.775-24.216 43.324-24.216 43.324l-33.138 108.663 27.802 8.994 16.111 5.206 27.802 8.994 30.072-98.602c2.952-9.633 5.001-19.533 6.122-29.568a195.05 195.05 0 0 0 1.097-30.317c-1.377-28.306-7.825-46.869-13.508-48.709" class="g"/><path d="M640.948 106.25l.25.094.31.124.401.234a8.615 8.825 0 0 1 2.232 2.182c1.672 2.221 3.466 5.985 5.033 11.083a113.643 116.42 0 0 1 3.973 19.086 183.66 183.66 0 0 1 1.203 12.197c.288 4.342.461 8.939.408 13.778s-.303 9.913-.757 15.197a161.647 165.597 0 0 1-2.164 16.413c-1.077 5.836-2.466 11.607-4.162 17.286q-2.671 8.776-5.502 18.088l-24.828 81.496-.053.195-.19-.062-35.854-11.597-35.861-11.604-.189-.055.061-.195 24.881-81.496q2.838-9.305 5.517-18.081 1.339-4.38 2.641-8.635c.93-2.821 2.043-5.51 3.179-8.129a169.64 169.64 0 0 1 15.301-27.565 198.653 203.508 0 0 1 16.081-20.076 126.258 129.343 0 0 1 13.863-13.35c4.079-3.305 7.568-5.409 10.193-6.289a8.383 8.588 0 0 1 3.027-.507l.454.039.325.078.249.07-.257-.047-.318-.07-.454-.039a8.637 8.849 0 0 0-3.027.546c-2.573.896-6.054 3.016-10.133 6.336a128.243 131.377 0 0 0-13.75 13.343 199.972 204.859 0 0 0-15.974 20.123 169.47 169.47 0 0 0-15.233 27.534c-1.128 2.618-2.27 5.308-3.155 8.105l-2.633 8.635q-2.671 8.776-5.502 18.088l-24.835 81.511-.129-.257 35.832 11.612 35.854 11.604-.249.133 24.874-81.488 5.516-18.073c1.69-5.671 3.074-11.434 4.147-17.263 1.052-5.627 1.718-11.106 2.187-16.366a191.28 191.28 0 0 0 .757-15.181c.045-4.839-.091-9.423-.378-13.755s-.681-8.401-1.181-12.181c-.781-6.458-2.088-12.838-3.904-19.071-1.513-5.097-3.307-8.861-4.956-11.083a8.83 8.83 0 0 0-2.194-2.198l-.393-.242-.303-.124z" class="f"/><path d="M550.723 273.029l71.125 22.539" class="g"/><path d="M621.848 295.567c0 .109-15.982-4.856-35.62-11.074l-35.506-11.464c.061-.109 15.982 4.856 35.627 11.074z" class="f"/><path d="M549.406 276.224l71.125 22.531" class="g"/><path d="M620.517 298.755c0 .109-15.982-4.848-35.62-11.066l-35.513-11.464c0-.109 15.974 4.848 35.62 11.074z" class="f"/><path d="M548.4 279.715l71.125 22.539" class="g"/><path d="M619.525 302.254c0 .101-15.982-4.856-35.62-11.074l-35.506-11.464c.061-.109 15.974 4.848 35.62 11.074z" class="f"/><path d="M547.393 283.207l71.125 22.539" class="g"/><path d="M618.519 305.746c0 .109-15.982-4.856-35.619-11.074l-35.506-11.464c.061-.109 15.982 4.856 35.627 11.074z" class="f"/><path d="M546.395 286.707l71.125 22.531" class="g"/><path d="M617.49 309.237c-.038.109-15.982-4.848-35.62-11.074l-35.505-11.456c.061-.101 16.005 4.832 35.649 11.066z" class="f"/><path d="M602.212 233.867c0 .18-.029.358-.076.53-.046.358-.197.85-.363 1.504l-1.552 5.456-5.502 17.847-5.706 17.784-1.778 5.37-.507 1.457a2.502 2.563 0 0 1-.197.499 2.68 2.68 0 0 1 .121-.53l.439-1.473 1.657-5.409 5.592-17.824 5.607-17.808 1.68-5.401.432-1.473a4.83 4.83 0 0 1 .151-.53z" fill="#04a"/><path d="M637.959 245.363c-.038.101-15.982-4.949-35.619-11.285l-35.506-11.69c.061-.133 15.974 4.941 35.62 11.277z" class="k"/><path d="M597.058 271.58a1.019 1.044 0 0 1 .537-.18 2.382 2.44 0 0 1 1.513.366 2.285 2.341 0 0 1 1.12 2.05 2.435 2.494 0 0 1-1.569 2.374 2.412 2.471 0 0 1-2.699-.721 2.292 2.348 0 0 1-.469-2.338 2.345 2.402 0 0 1 .9-1.286.966.99 0 0 1 .522-.234s-.174.117-.424.358a2.39 2.448 0 0 0-.757 1.239 2.023 2.072 0 0 0 .469 1.972 2.068 2.118 0 0 0 2.293.601c.811-.312 1.348-1.112 1.347-2.004.025-.723-.319-1.406-.908-1.8a2.397 2.456 0 0 0-1.339-.444c-.363.023-.537.086-.537.047zm6.757-20.879a.981 1.005 0 0 1 .537-.18 2.405 2.463 0 0 1 1.513.366 2.285 2.341 0 0 1 1.112 2.05 2.435 2.494 0 0 1-1.569 2.374 2.412 2.471 0 0 1-2.699-.721 2.292 2.348 0 0 1-.469-2.338 2.405 2.463 0 0 1 .87-1.239.989 1.013 0 0 1 .522-.226s-.166.117-.424.351a2.45 2.51 0 0 0-.757 1.247 2 2.049 0 0 0 .461 1.972 2.262 2.318 0 0 0 2.27.6c.79-.345 1.315-1.128 1.347-2.011.029-.72-.313-1.401-.9-1.793a2.502 2.563 0 0 0-1.347-.452c-.265-.023-.461.039-.469 0zm-10.775-33.723a1.019 1.044 0 0 1 .537-.18 2.382 2.44 0 0 1 1.513.366 2.285 2.341 0 0 1 1.12 2.05 2.435 2.494 0 0 1-1.569 2.374 2.412 2.471 0 0 1-2.699-.721 2.292 2.348 0 0 1-.469-2.338 2.345 2.402 0 0 1 .9-1.286.966.99 0 0 1 .522-.234s-.166.117-.424.351c-.367.328-.631.763-.757 1.247a2.023 2.072 0 0 0 .469 1.972 2.068 2.118 0 0 0 2.293.601c.811-.312 1.348-1.112 1.347-2.004.025-.723-.319-1.406-.908-1.8a2.397 2.456 0 0 0-1.339-.444c-.303.023-.53.086-.537.047z" fill="#2a7fff"/><path d="M591.859 201.337c.098 0-1.657 5.993-3.92 13.311l-4.298 13.194c-.106-.055 1.65-5.993 3.92-13.319z" class="k"/><path d="M551.98 268.937s10.314-31.306 14.264-46.76c-5.214 6.422-11.094 13.795-14.159 21.541a34.265 35.102 0 0 0-.106 25.219z" opacity=".3"/><path d="M563.27 352.132a3.858 3.952 0 0 0-2.903 4.659c.427 2.108 2.414 3.476 4.469 3.076s3.42-2.421 3.069-4.545-2.287-3.566-4.355-3.245" class="h"/><path d="M639.616 149.13c-4.645-4.784-10.821-7.419-17.39-7.419s-12.745 2.635-17.39 7.419-7.204 11.145-7.204 17.91 2.558 13.126 7.204 17.91 10.821 7.419 17.39 7.419 12.745-2.635 17.39-7.419 7.204-11.145 7.204-17.91-2.558-13.126-7.204-17.91zm-17.39 41.22c-12.481 0-22.634-10.457-22.634-23.311s10.154-23.311 22.634-23.311 22.634 10.457 22.634 23.311-10.154 23.311-22.634 23.311z" fill="#0af"/><ellipse ry="24.615" rx="23.902" cy="167.122" cx="622.184"/><path d="M615.574 164.682h-5.942l-2.955 5.311 2.955 5.304h5.942l2.955-5.304zm4.068-5.957l-2.961 5.304 2.961 5.311h5.91l2.981-5.311-2.981-5.304zm-2.961 17.224l2.961 5.331h5.91l2.981-5.331-2.981-5.304h-5.91zm1.849-17.876l-2.955-5.331h-5.942l-2.955 5.331 2.955 5.304h5.942zm8.135-.027l2.955 5.331h5.942l2.955-5.304-2.955-5.331h-5.942z" fill="#0662ff" stroke="#06f" stroke-width=".134"/><path d="M231.674 370.36c0 7.122 5.773 12.894 12.894 12.894h74.211c7.122 0 12.895-5.773 12.895-12.894v-74.211c0-7.122-5.773-12.895-12.894-12.895h-74.211c-7.122 0-12.895 5.773-12.895 12.894v74.211z" fill="#563d7c"/><path d="M273.142 327.487v-14.161h12.465c1.188 0 2.332.099 3.434.297s2.078.551 2.926 1.06 1.526 1.216 2.035 2.12.763 2.064.763 3.477c0 2.544-.763 4.382-2.29 5.512s-3.477 1.696-5.851 1.696zm-13.314-24.507v60.547h29.341a30.93 30.93 0 0 0 7.929-1.018c2.572-.679 4.862-1.724 6.869-3.137s3.604-3.237 4.791-5.47 1.781-4.876 1.781-7.929c0-3.788-.919-7.024-2.756-9.709s-4.622-4.565-8.353-5.639c2.714-1.3 4.763-2.968 6.148-5.003s2.077-4.579 2.077-7.632c0-2.827-.466-5.201-1.399-7.123s-2.247-3.462-3.943-4.621-3.731-1.993-6.105-2.502-5.003-.763-7.886-.763zm13.314 50.201V336.56h14.5c2.883 0 5.201.664 6.954 1.993s2.629 3.547 2.629 6.657c0 1.583-.269 2.883-.806 3.901s-1.258 1.823-2.163 2.417-1.95 1.018-3.137 1.272-2.431.381-3.731.381z" class="d"/><text xml:space="preserve" x="125.809" y="412.974" font-size="26.667" fill="#000" class="p"><tspan x="125.809" y="412.974">BOOTSTRAP</tspan></text><text xml:space="preserve" x="63.688" y="145.095" font-size="29.333" fill="#000" class="p"><tspan x="63.688" y="145.095">CSS</tspan></text><text xml:space="preserve" x="461.631" y="176.103" font-size="29.333" fill="#000" class="p"><tspan x="461.631" y="176.103">HTML</tspan></text></svg>