<svg xmlns="http://www.w3.org/2000/svg" width="613.145" height="456.992" xmlns:v="https://vecta.io/nano"><style>.A{animation:AmUormvq_draw_0 7200ms linear 0ms infinite,AmUormvq_fade 7200ms linear 0ms infinite}.B{animation:AmUormvq_draw_1 7200ms linear 0ms infinite,AmUormvq_fade 7200ms linear 0ms infinite}.C{animation:AmUormvq_draw_2 7200ms linear 0ms infinite,AmUormvq_fade 7200ms linear 0ms infinite}.D{animation:AmUormvq_draw_3 7200ms linear 0ms infinite,AmUormvq_fade 7200ms linear 0ms infinite}.E{animation:AmUormvq_draw_4 7200ms linear 0ms infinite,AmUormvq_fade 7200ms linear 0ms infinite}.F{animation:AmUormvq_draw_5 7200ms linear 0ms infinite,AmUormvq_fade 7200ms linear 0ms infinite}.G{animation:AmUormvq_draw_6 7200ms linear 0ms infinite,AmUormvq_fade 7200ms linear 0ms infinite}.H{animation:AmUormvq_draw_7 7200ms linear 0ms infinite,AmUormvq_fade 7200ms linear 0ms infinite}.I{animation:AmUormvq_draw_8 7200ms linear 0ms infinite,AmUormvq_fade 7200ms linear 0ms infinite}.J{animation:AmUormvq_draw_9 7200ms linear 0ms infinite,AmUormvq_fade 7200ms linear 0ms infinite}.K{animation:AmUormvq_draw_10 7200ms linear 0ms infinite,AmUormvq_fade 7200ms linear 0ms infinite}.L{animation:AmUormvq_draw_11 7200ms linear 0ms infinite,AmUormvq_fade 7200ms linear 0ms infinite}.M{animation:AmUormvq_draw_12 7200ms linear 0ms infinite,AmUormvq_fade 7200ms linear 0ms infinite}.N{animation:AmUormvq_draw_13 7200ms linear 0ms infinite,AmUormvq_fade 7200ms linear 0ms infinite}.O{animation:AmUormvq_draw_14 7200ms linear 0ms infinite,AmUormvq_fade 7200ms linear 0ms infinite}.P{animation:AmUormvq_draw_15 7200ms linear 0ms infinite,AmUormvq_fade 7200ms linear 0ms infinite}.Q{animation:AmUormvq_draw_16 7200ms linear 0ms infinite,AmUormvq_fade 7200ms linear 0ms infinite}.R{animation:AmUormvq_draw_17 7200ms linear 0ms infinite,AmUormvq_fade 7200ms linear 0ms infinite}.S{animation:AmUormvq_draw_18 7200ms linear 0ms infinite,AmUormvq_fade 7200ms linear 0ms infinite}.T{animation:AmUormvq_draw_19 7200ms linear 0ms infinite,AmUormvq_fade 7200ms linear 0ms infinite}.U{animation:AmUormvq_draw_20 7200ms linear 0ms infinite,AmUormvq_fade 7200ms linear 0ms infinite}.V{animation:AmUormvq_draw_21 7200ms linear 0ms infinite,AmUormvq_fade 7200ms linear 0ms infinite}.W{animation:AmUormvq_draw_22 7200ms linear 0ms infinite,AmUormvq_fade 7200ms linear 0ms infinite}.X{animation:AmUormvq_draw_23 7200ms linear 0ms infinite,AmUormvq_fade 7200ms linear 0ms infinite}.Y{animation:AmUormvq_draw_24 7200ms linear 0ms infinite,AmUormvq_fade 7200ms linear 0ms infinite}.Z{animation:AmUormvq_draw_25 7200ms linear 0ms infinite,AmUormvq_fade 7200ms linear 0ms infinite}@keyframes AmUormvq_draw{100%{stroke-dashoffset:0}} @keyframes AmUormvq_fade{0%{stroke-opacity:1}94.44444444444444%{stroke-opacity:1}100%{stroke-opacity:0}} @keyframes AmUormvq_draw_0{11.11111111111111%{stroke-dashoffset:400}38.88888888888889%{stroke-dashoffset:0}100%{stroke-dashoffset:0}} @keyframes AmUormvq_draw_1{11.666666666666666%{stroke-dashoffset:382}39.44444444444444%{stroke-dashoffset:0}100%{stroke-dashoffset:0}} @keyframes AmUormvq_draw_2{12.222222222222221%{stroke-dashoffset:1497}40%{stroke-dashoffset:0}100%{stroke-dashoffset:0}} @keyframes AmUormvq_draw_3{12.777777777777777%{stroke-dashoffset:1446}40.55555555555556%{stroke-dashoffset:0}100%{stroke-dashoffset:0}} @keyframes AmUormvq_draw_4{13.333333333333334%{stroke-dashoffset:990}41.11111111111111%{stroke-dashoffset:0}100%{stroke-dashoffset:0}} @keyframes AmUormvq_draw_5{13.88888888888889%{stroke-dashoffset:938}41.66666666666667%{stroke-dashoffset:0}100%{stroke-dashoffset:0}} @keyframes AmUormvq_draw_6{14.444444444444443%{stroke-dashoffset:1076}42.22222222222222%{stroke-dashoffset:0}100%{stroke-dashoffset:0}} @keyframes AmUormvq_draw_7{15%{stroke-dashoffset:134}42.77777777777778%{stroke-dashoffset:0}100%{stroke-dashoffset:0}} @keyframes AmUormvq_draw_8{15.555555555555555%{stroke-dashoffset:134}43.333333333333336%{stroke-dashoffset:0}100%{stroke-dashoffset:0}} @keyframes AmUormvq_draw_9{16.11111111111111%{stroke-dashoffset:134}43.888888888888886%{stroke-dashoffset:0}100%{stroke-dashoffset:0}} @keyframes AmUormvq_draw_10{16.666666666666664%{stroke-dashoffset:134}44.44444444444444%{stroke-dashoffset:0}100%{stroke-dashoffset:0}} @keyframes AmUormvq_draw_11{17.22222222222222%{stroke-dashoffset:134}45%{stroke-dashoffset:0}100%{stroke-dashoffset:0}} @keyframes AmUormvq_draw_12{17.77777777777778%{stroke-dashoffset:134}45.55555555555556%{stroke-dashoffset:0}100%{stroke-dashoffset:0}} @keyframes AmUormvq_draw_13{18.333333333333332%{stroke-dashoffset:789}46.111111111111114%{stroke-dashoffset:0}100%{stroke-dashoffset:0}} @keyframes AmUormvq_draw_14{18.88888888888889%{stroke-dashoffset:167}46.666666666666664%{stroke-dashoffset:0}100%{stroke-dashoffset:0}} @keyframes AmUormvq_draw_15{19.444444444444446%{stroke-dashoffset:790}47.22222222222222%{stroke-dashoffset:0}100%{stroke-dashoffset:0}} @keyframes AmUormvq_draw_16{20%{stroke-dashoffset:268}47.77777777777778%{stroke-dashoffset:0}100%{stroke-dashoffset:0}} @keyframes AmUormvq_draw_17{20.555555555555554%{stroke-dashoffset:299}48.333333333333336%{stroke-dashoffset:0}100%{stroke-dashoffset:0}} @keyframes AmUormvq_draw_18{21.11111111111111%{stroke-dashoffset:299}48.888888888888886%{stroke-dashoffset:0}100%{stroke-dashoffset:0}} @keyframes AmUormvq_draw_19{21.666666666666668%{stroke-dashoffset:299}49.44444444444444%{stroke-dashoffset:0}100%{stroke-dashoffset:0}} @keyframes AmUormvq_draw_20{22.22222222222222%{stroke-dashoffset:299}50%{stroke-dashoffset:0}100%{stroke-dashoffset:0}} @keyframes AmUormvq_draw_21{22.77777777777778%{stroke-dashoffset:299}50.55555555555556%{stroke-dashoffset:0}100%{stroke-dashoffset:0}} @keyframes AmUormvq_draw_22{23.333333333333332%{stroke-dashoffset:224}51.11111111111111%{stroke-dashoffset:0}100%{stroke-dashoffset:0}} @keyframes AmUormvq_draw_23{23.88888888888889%{stroke-dashoffset:397}51.66666666666667%{stroke-dashoffset:0}100%{stroke-dashoffset:0}} @keyframes AmUormvq_draw_24{24.444444444444443%{stroke-dashoffset:237}52.22222222222223%{stroke-dashoffset:0}100%{stroke-dashoffset:0}} @keyframes AmUormvq_draw_25{25%{stroke-dashoffset:191}52.77777777777778%{stroke-dashoffset:0}100%{stroke-dashoffset:0}}</style><g fill="#f9f9f9" stroke="#0039ff" stroke-width="2.155"><path d="M449.404 88.516v10.437c0 1.986-1.364 3.646-3.242 4.239h-32.749a20.78 20.78 0 0 0 2.276-9.458c0-11.951-10.179-21.641-22.733-21.641s-22.733 9.69-22.733 21.641a20.78 20.78 0 0 0 2.276 9.458h-27.502a15.15 15.15 0 0 0-2.664.24h-1.12c-2.601 0-4.705-2.003-4.705-4.479V88.516c0-2.476 2.104-4.479 4.705-4.479h6.295c2.023 0 3.838-1.229 4.462-3.06.686-2.012 1.535-3.947 2.52-5.812.921-1.711.551-3.8-.876-5.159l-4.453-4.239c-1.833-1.745-1.833-4.591 0-6.336l7.758-7.385a4.89 4.89 0 0 1 6.656 0l4.453 4.239a4.85 4.85 0 0 0 5.419.834c1.959-.937 3.992-1.745 6.105-2.399 1.924-.593 3.215-2.321 3.215-4.247v-5.992c0-2.476 2.104-4.479 4.705-4.479h10.964c2.601 0 4.705 2.003 4.705 4.479v5.992c0 1.926 1.291 3.654 3.215 4.247 2.114.653 4.146 1.461 6.105 2.399a4.85 4.85 0 0 0 5.419-.834l4.453-4.239a4.89 4.89 0 0 1 6.656 0l7.758 7.385c1.833 1.745 1.833 4.591 0 6.336l-4.453 4.239c-1.427 1.359-1.797 3.448-.876 5.159.985 1.865 1.833 3.8 2.52 5.812.623 1.831 2.438 3.06 4.462 3.06h6.295c2.605 0 4.709 2.004 4.709 4.479z" class="A" stroke-dasharray="399 401" stroke-dashoffset="400"/><path d="M149.943 272.013v26.654l-44.96.078c-5.889 12.372-18.958 20.988-34.158 20.988h-5.879c-14.207 0-25.723-10.962-25.723-24.487H67.89l9.555-11.194-9.555-11.194H39.223c0-13.525 11.516-24.487 25.723-24.487h5.879c16.32 0 30.193 9.931 35.341 23.79z" class="B" stroke-dasharray="381 383" stroke-dashoffset="382"/></g><g stroke-width=".855"><path d="M576.777 121.074v273.852c0 12.279-10.463 22.239-23.362 22.239H151.26c-12.899-.001-23.362-9.96-23.362-22.24V121.074c0-12.279 10.463-22.239 23.362-22.239h402.155c12.899 0 23.362 9.959 23.362 22.239z" class="C" stroke-dasharray="1496 1498" stroke-dashoffset="1497" fill="#1a6fb0" stroke="#0d47f4"/><path d="M576.777 121.074v273.852c0 12.279-10.463 22.239-23.362 22.239H176.913c-12.899 0-23.362-9.96-23.362-22.239V121.074c0-12.279 10.463-22.239 23.362-22.239h376.503c12.899 0 23.362 9.959 23.362 22.239z" class="D" stroke-dasharray="1445 1447" stroke-dashoffset="1446" fill="#1e81ce" stroke="#0b40f9"/><path d="M576.777 121.074v32.705H127.898v-32.705c0-12.279 10.463-22.239 23.362-22.239h402.155c12.899 0 23.362 9.959 23.362 22.239z" class="E" stroke-dasharray="989 991" stroke-dashoffset="990" fill="#00479b" stroke="#0d47f4"/></g><path d="M576.777 121.074v32.705H153.551v-32.705c0-12.279 10.463-22.239 23.362-22.239h376.503c12.899 0 23.362 9.959 23.362 22.239z" class="F" fill="#1e81ce"/><g transform="matrix(.876717 0 0 .834595 127.89822 44.343253)"><path d="M512 91.938v39.187H29.26V91.938c0-14.713 11.934-26.647 26.647-26.647h429.446c14.713 0 26.647 11.933 26.647 26.647z" class="G" stroke-dasharray="1075 1077" stroke-dashoffset="1076" fill="#004fac" stroke="#0b40f9"/><path d="M83.074 156.727h-41.8a7.84 7.84 0 0 0-7.837 7.837 7.84 7.84 0 0 0 7.837 7.837h41.799a7.84 7.84 0 0 0 7.837-7.837 7.84 7.84 0 0 0-7.836-7.837z" class="H" fill="#acf"/><path d="M155.744 156.727h-41.799a7.84 7.84 0 0 0-7.837 7.837 7.84 7.84 0 0 0 7.837 7.837h41.799a7.84 7.84 0 0 0 7.837-7.837 7.84 7.84 0 0 0-7.837-7.837z" class="I" stroke-dasharray="133 135" stroke-dashoffset="134" fill="#004fac" stroke="#eeeff5"/><path d="M234.118 156.727h-41.799a7.84 7.84 0 0 0-7.837 7.837 7.84 7.84 0 0 0 7.837 7.837h41.799a7.84 7.84 0 0 0 7.837-7.837 7.84 7.84 0 0 0-7.837-7.837z" class="J" fill="#acf"/><path d="M312.492 156.727h-41.799a7.84 7.84 0 0 0-7.837 7.837 7.84 7.84 0 0 0 7.837 7.837h41.799a7.84 7.84 0 0 0 7.837-7.837 7.84 7.84 0 0 0-7.837-7.837z" class="K" fill="#004fac"/><path d="M390.866 156.727h-41.799a7.84 7.84 0 0 0-7.837 7.837 7.84 7.84 0 0 0 7.837 7.837h41.799a7.84 7.84 0 0 0 7.837-7.837 7.84 7.84 0 0 0-7.837-7.837z" class="L" fill="#acf"/><path d="M469.239 156.727H427.44a7.84 7.84 0 0 0-7.837 7.837 7.84 7.84 0 0 0 7.837 7.837h41.799a7.84 7.84 0 0 0 7.837-7.837 7.84 7.84 0 0 0-7.837-7.837z" class="M" stroke-dasharray="133 135" stroke-dashoffset="134" fill="#004fac" stroke="#f8f9fc"/><g fill="#fff"><path d="M411.765 92.52H42.537a7.84 7.84 0 0 0-7.837 7.837 7.84 7.84 0 0 0 7.837 7.837h369.228a7.84 7.84 0 0 0 7.837-7.837 7.84 7.84 0 0 0-7.837-7.837z" class="N"/><path d="M489.414 105.055l-5.568-4.931 5.568-4.931a7.84 7.84 0 0 0 .671-11.063c-2.87-3.242-7.823-3.542-11.063-.671l-6.995 6.196-6.995-6.196a7.84 7.84 0 0 0-11.063.671c-2.871 3.24-2.57 8.194.671 11.063l5.568 4.931-5.568 4.931a7.84 7.84 0 0 0-.671 11.063c1.549 1.749 3.703 2.641 5.87 2.641 1.848 0 3.701-.649 5.194-1.971l6.995-6.196 6.995 6.196c1.491 1.322 3.346 1.971 5.194 1.971a7.82 7.82 0 0 0 5.87-2.641 7.84 7.84 0 0 0-.673-11.063z" class="O" stroke-dasharray="166 168" stroke-dashoffset="167" stroke="#0d79f4"/></g></g><path d="M397.284 229.387v139.371c0 7.885-6.679 14.271-14.924 14.271H173.467c-3.939 0-7.521-1.463-10.187-3.855-2.913-2.602-4.727-6.298-4.727-10.416V229.387c0-7.875 6.679-14.271 14.915-14.271H382.36c8.245 0 14.924 6.396 14.924 14.271z" class="P" fill="#004fac"/><g transform="matrix(.876717 0 0 .834595 127.89822 44.343253)"><path d="M360.561 212.471h108.813a7.84 7.84 0 0 0 7.837-7.837 7.84 7.84 0 0 0-7.837-7.837H360.561a7.84 7.84 0 0 0-7.837 7.837 7.84 7.84 0 0 0 7.837 7.837z" class="Q" fill="#fff"/><path d="M469.374 230.236H345.021a7.84 7.84 0 0 0-7.837 7.837 7.84 7.84 0 0 0 7.837 7.837h124.353a7.84 7.84 0 0 0 7.837-7.837 7.84 7.84 0 0 0-7.837-7.837z" class="R" fill="#acf"/><path d="M469.374 263.675H345.021a7.84 7.84 0 0 0-7.837 7.837 7.84 7.84 0 0 0 7.837 7.837h124.353a7.84 7.84 0 0 0 7.837-7.837 7.84 7.84 0 0 0-7.837-7.837z" class="S" stroke-dasharray="298 300" stroke-dashoffset="299" fill="#fff" stroke="#0039ff"/><path d="M469.374 297.115H345.021a7.84 7.84 0 0 0-7.837 7.837 7.84 7.84 0 0 0 7.837 7.837h124.353a7.84 7.84 0 0 0 7.837-7.837 7.84 7.84 0 0 0-7.837-7.837z" class="T" fill="#acf"/><g fill="#fff"><path d="M469.374 330.554H345.021a7.84 7.84 0 0 0-7.837 7.837 7.84 7.84 0 0 0 7.837 7.837h124.353a7.84 7.84 0 0 0 7.837-7.837 7.84 7.84 0 0 0-7.837-7.837z" class="U" stroke-dasharray="298 300" stroke-dashoffset="299" stroke="#0039ff"/><path d="M469.374 363.994H345.021a7.84 7.84 0 0 0-7.837 7.837 7.84 7.84 0 0 0 7.837 7.837h124.353a7.84 7.84 0 0 0 7.837-7.837 7.84 7.84 0 0 0-7.837-7.837z" class="V"/></g><path d="M431.62 397.433h-86.599a7.84 7.84 0 0 0-7.837 7.837 7.84 7.84 0 0 0 7.837 7.837h86.599a7.84 7.84 0 0 0 7.837-7.837 7.84 7.84 0 0 0-7.837-7.837z" class="W" stroke-dasharray="223 225" stroke-dashoffset="224" fill="#acf" stroke="#f8f9fc"/></g><g stroke-width="2.155" stroke="#eeeff5"><path d="M300.438 382.279H173.467c-3.939 0-7.521-1.456-10.187-3.837l32.752-61.485.614-1.16 15.098-28.327c7.925-14.878 30.251-14.878 38.176 0l15.135 28.415.577 1.072z" class="X" stroke-dasharray="396 398" stroke-dashoffset="397" fill="#fff"/><path d="M367.601 287.537c-5.913 12.912-19.441 21.931-35.176 21.931-21.185 0-38.361-16.35-38.361-36.518 0-18.465 14.404-33.734 33.099-36.173a34.88 34.88 0 0 0-3.184 14.586c0 20.167 17.175 36.518 38.361 36.518a40.04 40.04 0 0 0 5.261-.345z" class="Y" stroke-dasharray="236 238" stroke-dashoffset="237" fill="#ffda44"/></g><path d="M265.055 315.884c-7.787 9.864-20.192 16.248-34.163 16.248-14.017 0-26.45-6.419-34.245-16.336l15.098-28.327c7.925-14.878 30.251-14.878 38.176 0z" class="Z" fill="#c2dff6"/></svg>