<?xml version="1.0" encoding="UTF-8" standalone="no"?>
<svg
   xmlns:dc="http://purl.org/dc/elements/1.1/"
   xmlns:cc="http://creativecommons.org/ns#"
   xmlns:rdf="http://www.w3.org/1999/02/22-rdf-syntax-ns#"
   xmlns:svg="http://www.w3.org/2000/svg"
   xmlns="http://www.w3.org/2000/svg"
   xmlns:xlink="http://www.w3.org/1999/xlink"
   xmlns:sodipodi="http://sodipodi.sourceforge.net/DTD/sodipodi-0.dtd"
   xmlns:inkscape="http://www.inkscape.org/namespaces/inkscape"
   viewBox="0 0 646.25948 520.92639"
   width="385"
   height="305.992"
   version="1.1"
   id="svg14179"
   sodipodi:docname="JunTechPC-Aruba-Search-Engine-Optimization-Services.svg"
   inkscape:version="1.0.2-2 (e86c870879, 2021-01-15)">
  <metadata
     id="metadata14183">
    <rdf:RDF>
      <cc:Work
         rdf:about="">
        <dc:format>image/svg+xml</dc:format>
        <dc:type
           rdf:resource="http://purl.org/dc/dcmitype/StillImage" />
        <dc:title></dc:title>
      </cc:Work>
    </rdf:RDF>
  </metadata>
  <sodipodi:namedview
     pagecolor="#ffffff"
     bordercolor="#666666"
     borderopacity="1"
     objecttolerance="10"
     gridtolerance="10"
     guidetolerance="10"
     inkscape:pageopacity="0"
     inkscape:pageshadow="2"
     inkscape:window-width="1920"
     inkscape:window-height="1001"
     id="namedview14181"
     showgrid="false"
     inkscape:zoom="1.4142136"
     inkscape:cx="57.001551"
     inkscape:cy="222.78694"
     inkscape:window-x="-9"
     inkscape:window-y="-9"
     inkscape:window-maximized="1"
     inkscape:current-layer="svg14179" />
  <style
     id="style14044"><![CDATA[.D{opacity:.24}.E{fill:#4fbefb}.F{fill:#fff}]]></style>
  <defs
     id="defs14069">
    <linearGradient
       id="A"
       x1="486.03"
       y1="221.36"
       x2="449.73999"
       y2="315.10001"
       gradientUnits="userSpaceOnUse">
      <stop
         offset="0"
         stop-color="#010101"
         stop-opacity="0"
         id="stop14046" />
      <stop
         offset=".95"
         stop-color="#010101"
         id="stop14048" />
    </linearGradient>
    <linearGradient
       id="B"
       x1="475.54001"
       y1="295.98001"
       x2="566.26001"
       y2="121.93"
       gradientUnits="userSpaceOnUse">
      <stop
         offset="0"
         stop-color="#fff"
         stop-opacity="0"
         id="stop14051" />
      <stop
         offset=".95"
         stop-color="#fff"
         id="stop14053" />
    </linearGradient>
    <linearGradient
       id="C"
       x1="485.73001"
       y1="265.76001"
       x2="502.35999"
       y2="169.38"
       xlink:href="#B" />
    <linearGradient
       id="D"
       x1="434.189"
       y1="201.57401"
       x2="443.06699"
       y2="184.589"
       xlink:href="#A" />
    <linearGradient
       id="E"
       x1="426.771"
       y1="167.692"
       x2="455.47699"
       y2="167.692"
       xlink:href="#B" />
    <linearGradient
       id="F"
       x1="462.82001"
       y1="158.03"
       x2="483.76001"
       y2="158.03"
       xlink:href="#A" />
    <linearGradient
       id="G"
       x1="447.78"
       y1="205.13"
       x2="468.73001"
       y2="205.13"
       gradientTransform="matrix(-0.97,-0.24,-0.24,0.97,1017.13,122.17)"
       xlink:href="#A" />
    <linearGradient
       id="H"
       x1="521.62"
       y1="265.17999"
       x2="281.23001"
       y2="322.26001"
       xlink:href="#B" />
    <linearGradient
       id="I"
       x1="439.55801"
       y1="164.737"
       x2="447.85901"
       y2="164.737"
       xlink:href="#A"
       gradientTransform="matrix(1.1754386,0,0,1.2379116,-63.369489,-55.594813)" />
    <path
       id="J"
       d="m 510.03,232.73 q -1.28,15.9 -7,23 -7.37,9.12 -20.82,9.14 -13,0 -20.66,-9.34 c -5,-6.2 -7.53,-16.27 -7.57,-30.33 a 79.16,79.16 0 0 1 2.17,-7.73 27.88,27.88 0 0 0 9.18,-8.5 c 3.51,-5.19 5.32,-11.55 9.71,-16 1.49,-1.49 3.22,-2.78 4.31,-4.56 a 9.14,9.14 0 0 0 1.25,-3.78 c 0.36,-2.66 -0.08,-5.56 -0.12,-8.3 a 26.72,26.72 0 0 1 3.94,-14.21 c 8.34,0.12 16.55,3.9 24.73,5.39 3.58,6 -2.66,13.74 -0.93,20.54 0.61,2.42 2.22,4.47 2.9,6.89 1.13,4.11 -0.6,8.13 -2.29,12.24 a 41.35,41.35 0 0 0 -1.94,5.68 c -1.6,6.62 0.5,13.4 3.14,19.87 z" />
    <path
       id="K"
       d="m 477.73,140.52 c -5.55,5.27 -11.31,10.86 -13.62,18.16 -1.73,5.43 -1.36,11.27 -1,17 0.11,1.53 0.43,3.37 1.86,3.92 1.62,0.62 3.2,-0.94 4.19,-2.36 3.36,-4.82 6.19,-10.19 10.84,-13.77 a 8.74,8.74 0 0 0 2.14,-2 7.17,7.17 0 0 0 0.81,-3.73 c 0.26,-7.1 0.74,-14.33 0.78,-21.37 -2.38,0.62 -4.16,2.39 -6,4.15 z" />
    <linearGradient
       xlink:href="#A"
       id="L" />
    <linearGradient
       xlink:href="#B"
       id="M" />
    <path
       id="N"
       d="m 428.352,192.762 c 0,0 -0.406,5.534 0.712,7.156 1.118,1.622 8.679,4.773 11.605,3.366 a 19.792,18.715 0 0 0 4.948,-3.528 l 1.474,-5.116 z" />
    <path
       id="O"
       d="m 426.771,183.822 c 0,0 3.225,-41.738 20.447,-46.309 17.222,-4.571 2.136,55.471 2.136,55.471 0,0 -22.583,16.285 -22.583,-9.162 z" />
  </defs>
  <path
     d="m 599.91873,251.00371 c -9.12963,30.53433 -25.94193,58.12613 -42.19354,85.54341 -7.48167,12.54995 -15.06325,25.6421 -16.6783,40.14299 -1.18014,10.76736 0.97914,21.66717 0.201,32.45062 -2.18397,30.80914 -28.64544,55.91028 -58.25239,65.15995 -29.60694,9.24967 -61.67525,5.53348 -92.05329,-0.83311 -30.37803,-6.36657 -60.41989,-15.30059 -91.42561,-16.34167 -22.30983,-0.74151 -44.48682,2.58352 -66.52982,6.00882 -26.72947,4.16681 -54.02669,8.33362 -80.64684,3.65803 -26.62016,-4.6756 -52.921776,-19.99228 -63.265628,-44.90154 -12.879288,-30.97625 1.673817,-67.01805 -6.276847,-99.61103 -2.326188,-9.65075 -6.510756,-18.52534 -11.457,-27.15111 -3.707328,-6.50894 -7.849581,-12.85077 -11.958908,-19.16659 -7.179581,-11.10901 -14.226334,-22.3505 -18.56958,-34.70113 -11.39,-32.38378 -1.657369,-71.07718 23.757964,-94.30288 C 110.59659,104.84101 181.44379,119.07451 234.4502,91.548314 292.92944,61.147677 341.56674,27.922132 410.85767,56.880598 c 19.17258,8.025377 36.52793,19.90933 55.77573,27.825778 16.1423,6.667391 33.39891,10.300661 50.01021,15.733854 l 1.49752,0.51621 a 188.15716,187.37154 0 0 1 23.86727,9.80055 c 21.75854,10.8342 41.00517,26.24249 52.43632,47.31794 15.24778,27.98422 14.57778,62.38455 5.47283,92.92755 z"
     opacity="0.501"
     fill="#aaccff"
     id="path14071"
     style="stroke-width:1.20628" />
  <path
     d="m 530.15998,105.65927 -0.95446,68.50974 -16.83698,9.20882 -4.26802,-51.02672 L 337.19175,245.68688 248.07588,171.79346 71.341639,295.1303 C 67.634312,288.62137 63.492068,282.27955 59.382731,275.96373 L 249.25485,143.36853 338.7304,217.62838 494.09987,117.00101 c 0.16692,0.0495 -44.59613,-15.5915 -44.59613,-15.5915 1.32236,-0.94205 9.45639,-9.999842 10.87869,-11.024836 l 57.74223,10.566816 c 8.15872,2.71722 4.31856,0.88387 12.03414,4.70902 z"
     fill="#2a7fff"
     opacity="0.987"
     id="path14073"
     style="stroke-width:1.20628" />
  <g
     transform="matrix(0.83684761,0,0,0.83335586,36.093139,45.740421)"
     id="g14093">
    <g
       class="E"
       id="g14085">
      <rect
         x="539.96997"
         y="146.03"
         width="100.68"
         height="35.27"
         rx="9.8999996"
         class="D"
         id="rect14075" />
      <rect
         x="438.60999"
         y="421.35999"
         width="144.33"
         height="50.560001"
         rx="14.19"
         class="D"
         id="rect14077" />
      <rect
         x="61.580002"
         y="304"
         width="131.42999"
         height="46.560001"
         rx="12.99"
         class="D"
         id="rect14079" />
      <rect
         x="103.23"
         y="415.5"
         width="102.57"
         height="39.779999"
         rx="10.61"
         class="D"
         id="rect14081" />
      <path
         d="m 408.46,242.81 q 0,-36.75 18.85,-57.22 18.85,-20.47 52.51,-20.47 34.5,0 53.16,20.11 18.66,20.11 18.67,56.35 0,26.31 -8.16,43.15 a 61,61 0 0 1 -23.57,26.2 q -15.4,9.33 -38.41,9.33 -23.37,0 -38.69,-8.09 -15.32,-8.09 -24.79,-25.55 -9.57,-17.5 -9.57,-43.81 z m 42.7,0.21 q 0,22.73 7.78,32.65 7.78,9.92 21.16,9.93 13.76,0 21.3,-9.73 7.54,-9.73 7.54,-34.9 0,-21.19 -7.87,-31 -7.87,-9.81 -21.35,-9.71 a 25.1,25.1 0 0 0 -20.69,9.9 q -7.86,9.93 -7.87,32.86 z m -320.22,26.41 40.86,-2.56 q 1.33,10 5.41,15.17 6.63,8.45 19,8.44 9.2,0 14.17,-4.32 4.97,-4.32 5,-10 0,-5.4 -4.74,-9.67 -4.74,-4.27 -22,-8.06 -28.25,-6.35 -40.29,-16.87 a 33.94,33.94 0 0 1 -12.13,-26.83 36.44,36.44 0 0 1 6.21,-20.24 q 6.21,-9.53 18.67,-15 12.46,-5.47 34.18,-5.45 26.64,0 40.62,9.91 13.98,9.91 16.64,31.52 l -40.51,2.39 q -1.62,-9.39 -6.78,-13.65 -5.16,-4.26 -14.27,-4.27 -7.48,0 -11.28,3.18 a 9.73,9.73 0 0 0 -3.79,7.73 7.73,7.73 0 0 0 3.13,6 q 3,2.74 14.41,5.12 28.16,6.06 40.34,12.27 12.18,6.21 17.72,15.41 a 39,39 0 0 1 5.52,20.54 44.07,44.07 0 0 1 -7.4,24.65 46.2,46.2 0 0 1 -20.66,17.11 q -13.27,5.83 -33.47,5.83 -35.44,0 -49.1,-13.65 -13.66,-13.65 -15.46,-34.7 z m 147.61,-93 h 115.09 v 29.68 h -72.05 v 22.08 h 66.83 v 28.35 h -66.83 v 27.4 h 74.13 v 31.47 H 278.55 Z"
         opacity="0.37"
         id="path14083" />
    </g>
    <g
       class="F"
       id="g14091">
      <path
         d="m 132.08,247.32 40.86,-2.56 q 1.32,10 5.4,15.17 6.65,8.44 19,8.44 9.19,0 14.17,-4.32 4.98,-4.32 5,-10 0,-5.4 -4.74,-9.67 -4.74,-4.27 -22,-8.06 -28.26,-6.35 -40.29,-16.87 a 34,34 0 0 1 -12.14,-26.83 36.44,36.44 0 0 1 6.21,-20.24 q 6.21,-9.52 18.68,-15 12.47,-5.48 34.17,-5.45 26.64,0 40.63,9.91 13.99,9.91 16.63,31.52 l -40.48,2.37 q -1.6,-9.39 -6.78,-13.65 -5.18,-4.26 -14.26,-4.27 -7.5,0 -11.28,3.18 a 9.73,9.73 0 0 0 -3.8,7.72 7.73,7.73 0 0 0 3.13,6 q 3,2.76 14.41,5.13 28.15,6.06 40.34,12.27 12.19,6.21 17.73,15.41 a 39.12,39.12 0 0 1 5.54,20.57 44.14,44.14 0 0 1 -7.39,24.65 46.29,46.29 0 0 1 -20.67,17.11 q -13.27,5.84 -33.46,5.83 -35.46,0 -49.11,-13.65 -13.65,-13.65 -15.5,-34.71 z m 147.6,-93 h 115.09 v 29.67 h -72.05 v 22.09 h 66.84 v 28.35 h -66.84 v 27.4 h 74.14 v 31.43 H 279.68 Z"
         id="path14087" />
      <rect
         x="138.14999"
         y="358.59"
         width="397.62"
         height="46.869999"
         rx="14.43"
         id="rect14089" />
    </g>
  </g>
  <g
     class="E"
     id="g14101"
     transform="matrix(1.1754386,0,0,1.2379116,-63.369489,-55.594813)">
    <path
       d="m 460.04,322.662 a 12.12,12.12 0 0 0 -4.272,-0.761 H 193.253 c -6.463,0.003 -11.706,4.949 -11.726,11.061 v 12.118 c 0.016,6.114 5.26,11.064 11.726,11.067 h 262.544 c 6.445,-0.04 11.658,-4.973 11.697,-11.067 v -12.118 c -0.003,-4.558 -2.962,-8.647 -7.454,-10.3 z m 4.592,22.444 c -0.011,4.609 -3.961,8.344 -8.835,8.354 H 193.253 c -4.884,0 -8.848,-3.736 -8.864,-8.354 v -12.118 c 0.02,-4.615 3.983,-8.348 8.864,-8.348 h 262.544 c 4.872,0.011 8.82,3.741 8.835,8.348 z"
       class="D"
       id="path14095" />
    <path
       d="m 193.125,342.07 a 3.99,3.99 0 0 0 1.915,0.545 c 1.054,0 1.545,-0.498 1.545,-1.124 0,-0.626 -0.413,-1.01 -1.481,-1.387 -1.424,-0.485 -2.136,-1.232 -2.136,-2.134 0,-1.218 1.039,-2.215 2.755,-2.215 0.686,-0.007 1.363,0.153 1.965,0.465 l -0.363,1.003 c -0.49,-0.287 -1.054,-0.438 -1.63,-0.438 -0.861,0 -1.338,0.465 -1.338,1.03 0,0.565 0.477,0.902 1.516,1.279 1.388,0.491 2.093,1.151 2.093,2.275 0,1.346 -1.089,2.262 -2.983,2.262 a 4.79,4.79 0 0 1 -2.243,-0.518 z m 7.561,-2.121 c -0.061,0.699 0.202,1.389 0.721,1.891 0.519,0.502 1.243,0.765 1.984,0.721 0.759,0.025 1.515,-0.109 2.214,-0.39 l 0.249,0.983 a 6.73,6.73 0 0 1 -2.656,0.471 c -2.463,0 -3.93,-1.528 -3.93,-3.81 0,-2.282 1.424,-4.039 3.745,-4.039 2.606,0 3.296,2.168 3.296,3.554 -0.002,0.214 -0.017,0.427 -0.043,0.64 z m 4.272,-0.983 c 0,-0.875 -0.384,-2.228 -2.015,-2.228 -1.467,0 -2.136,1.272 -2.228,2.228 z m 7.568,4.504 -0.114,-0.949 h -0.05 c -0.576,0.724 -1.484,1.142 -2.442,1.124 -0.635,0.043 -1.259,-0.166 -1.723,-0.578 a 2.1,2.1 0 0 1 -0.719,-1.59 c 0,-1.824 1.716,-2.821 4.799,-2.807 v -0.148 c 0.066,-0.473 -0.101,-0.949 -0.454,-1.291 a 1.7,1.7 0 0 0 -1.354,-0.459 4.12,4.12 0 0 0 -2.079,0.565 l -0.335,-0.909 c 0.793,-0.451 1.702,-0.684 2.627,-0.673 2.442,0 3.033,1.575 3.033,3.083 v 2.827 c -0.012,0.604 0.031,1.207 0.128,1.804 z m -0.214,-3.851 c -1.581,-0.034 -3.382,0.236 -3.382,1.703 -0.03,0.352 0.104,0.699 0.367,0.95 0.263,0.251 0.628,0.381 1,0.356 0.865,0.024 1.646,-0.486 1.929,-1.259 0.052,-0.141 0.081,-0.288 0.085,-0.438 z m 3.738,-1.34 -0.064,-2.356 h 1.267 l 0.05,1.481 h 0.064 c 0.283,-0.945 1.176,-1.611 2.214,-1.649 0.139,-0.003 0.278,0.013 0.413,0.047 v 1.293 c -0.163,-0.035 -0.331,-0.051 -0.498,-0.047 -1.025,0.041 -1.858,0.797 -1.944,1.764 -0.042,0.211 -0.063,0.425 -0.064,0.64 v 4.039 h -1.424 z m 10.914,4.914 c -0.72,0.305 -1.503,0.455 -2.292,0.438 -2.406,0 -3.973,-1.548 -3.973,-3.857 a 3.72,3.72 0 0 1 1.194,-2.901 c 0.814,-0.764 1.933,-1.165 3.078,-1.105 0.693,-0.007 1.38,0.126 2.015,0.39 l -0.335,1.064 c -0.517,-0.259 -1.096,-0.384 -1.68,-0.364 -1.83,0 -2.848,1.279 -2.848,2.854 -0.071,0.732 0.19,1.458 0.719,1.997 0.529,0.539 1.274,0.841 2.051,0.83 a 4.36,4.36 0 0 0 1.78,-0.377 z m 1.694,-10.791 h 1.424 v 4.712 c 0.248,-0.405 0.607,-0.74 1.039,-0.969 a 3.19,3.19 0 0 1 1.488,-0.384 c 1.075,0 2.784,0.619 2.784,3.225 v 4.49 h -1.424 v -4.335 c 0,-1.212 -0.477,-2.242 -1.844,-2.242 -0.884,0.014 -1.663,0.553 -1.944,1.346 -0.084,0.215 -0.118,0.445 -0.1,0.673 v 4.551 h -1.424 z"
       opacity="0.56"
       id="path14097" />
    <path
       d="m 467.494,332.962 v 12.118 c 0.012,3.472 -1.721,6.743 -4.67,8.812 h -34.173 v -31.23 h 31.397 c 4.489,1.655 7.445,5.744 7.447,10.3 z"
       id="path14099" />
  </g>
  <g
     class="F"
     id="g14107"
     transform="matrix(1.1754386,0,0,1.2379116,-63.369489,-55.594813)">
    <path
       d="m 443.73,344.473 c -4.07,0.003 -7.741,-2.314 -9.3,-5.869 -1.559,-3.555 -0.699,-7.648 2.179,-10.369 2.878,-2.721 7.207,-3.535 10.966,-2.061 3.759,1.474 6.21,4.945 6.207,8.794 -0.012,5.245 -4.506,9.494 -10.053,9.506 z m 0,-16.372 c -2.938,-0.003 -5.588,1.669 -6.714,4.234 -1.126,2.565 -0.507,5.52 1.57,7.485 2.077,1.965 5.2,2.554 7.915,1.492 2.715,-1.062 4.484,-3.567 4.485,-6.345 0,-3.789 -3.247,-6.863 -7.255,-6.867 z"
       id="path14103" />
    <path
       d="m 447.28,341.631 2.368,-1.771 6.673,7.978 -2.368,1.771 z m 17.409,-145.065 q -13,-12.723 -36.957,-12.744 -23.402,0 -36.53,12.959 c -8.714,8.677 -13.107,20.741 -13.107,36.278 q 0,16.675 6.628,27.763 6.628,11.088 17.286,16.211 10.629,5.13 26.897,5.123 15.997,0 26.691,-5.938 c 7.062,-3.889 12.757,-9.658 16.375,-16.588 q 5.624,-10.704 5.646,-27.359 0.014,-22.929 -12.929,-35.706 z m -56.884,36.629 q 0,-14.561 5.418,-20.822 c 3.28,-3.906 8.253,-6.197 13.527,-6.234 0.294,-0.045 0.592,-0.063 0.89,-0.054 q 9.362,0 14.851,6.18 c 2.191,2.649 3.684,5.752 4.357,9.054 0.789,3.475 1.164,7.022 1.118,10.576 0,2.383 -0.085,4.578 -0.256,6.638 q -0.911,10.704 -4.984,15.483 -5.247,6.14 -14.823,6.153 -9.255,0 -14.709,-6.288 c -3.56,-4.174 -5.361,-10.953 -5.389,-20.418 z"
       id="path14105" />
  </g>
  <use
     xlink:href="#J"
     transform="matrix(0.83684761,0,0,0.83335586,36.093139,45.740421)"
     class="E"
     id="use14109"
     x="0"
     y="0"
     width="100%"
     height="100%" />
  <g
     transform="matrix(0.83684761,0,0,0.83335586,34.44455,5.9560404)"
     id="g14117">
    <use
       xlink:href="#J"
       x="1.97"
       y="47.740002"
       fill="url(#L)"
       id="use14111"
       style="fill:url(#L)"
       width="100%"
       height="100%" />
    <path
       d="m 506.89,283.07 q -1,15.89 -5.25,23 c -3.68,6.08 -8.87,9.15 -15.6,9.15 q -9.78,0 -15.48,-9.35 c -3.74,-6.2 -5.64,-16.27 -5.67,-30.32 q 0.67,-4 1.63,-7.73 a 25.16,25.16 0 0 0 6.88,-8.5 c 2.62,-5.2 4,-11.56 7.27,-16 a 26.11,26.11 0 0 0 3.23,-4.55 11.46,11.46 0 0 0 0.93,-3.79 76.65,76.65 0 0 0 -0.09,-8.29 33.79,33.79 0 0 1 3,-14.22 c 6.24,0.12 12.4,3.91 18.52,5.4 2.69,6 -2,13.73 -0.69,20.54 0.45,2.41 1.66,4.47 2.17,6.88 0.85,4.11 -0.45,8.14 -1.72,12.25 a 53.49,53.49 0 0 0 -1.45,5.67 c -1.21,6.61 0.36,13.41 2.32,19.86 z"
       fill="url(#M)"
       id="path14113"
       style="fill:url(#M)" />
    <path
       d="m 486.64,243.89 1.3,-1.45 a 31.82,31.82 0 0 1 -7,20.75 c -2.17,2.68 -4.87,5.16 -5.71,8.51 A 39.79,39.79 0 0 0 492.39,246 c 0.7,-3.71 1,-7.77 3.36,-10.7 l 0.49,5.11 a 104.84,104.84 0 0 0 5.37,-12.24 c 0.3,-0.81 0.54,-1.85 -0.11,-2.42 a 2.24,2.24 0 0 0 -1.27,-0.41 c -4,-0.39 -8.44,-1.72 -10.5,2.34 -2.35,4.66 -2.89,11.11 -3.09,16.21 z"
       fill="url(#C)"
       id="path14115"
       style="fill:url(#C)" />
  </g>
  <use
     xlink:href="#N"
     class="E"
     id="use14119"
     transform="matrix(1.1754386,0,0,1.2379116,-63.369489,-55.594813)"
     x="0"
     y="0"
     width="100%"
     height="100%" />
  <use
     xlink:href="#N"
     fill="url(#D)"
     id="use14121"
     style="fill:url(#D)"
     transform="matrix(1.1754386,0,0,1.2379116,-63.369489,-55.594813)"
     x="0"
     y="0"
     width="100%"
     height="100%" />
  <use
     xlink:href="#O"
     class="E"
     id="use14123"
     transform="matrix(1.1754386,0,0,1.2379116,-63.369489,-55.594813)"
     x="0"
     y="0"
     width="100%"
     height="100%" />
  <use
     xlink:href="#O"
     fill="url(#E)"
     id="use14125"
     style="fill:url(#E)"
     transform="matrix(1.1754386,0,0,1.2379116,-63.369489,-55.594813)"
     x="0"
     y="0"
     width="100%"
     height="100%" />
  <g
     transform="matrix(0.83684761,0,0,0.83335586,36.093139,45.740421)"
     id="g14131">
    <use
       xlink:href="#K"
       class="E"
       id="use14127"
       x="0"
       y="0"
       width="100%"
       height="100%" />
    <use
       xlink:href="#K"
       fill="url(#F)"
       id="use14129"
       style="fill:url(#F)"
       x="0"
       y="0"
       width="100%"
       height="100%" />
  </g>
  <path
     d="m 472.28256,168.21094 c 3.47342,5.36635 7.04675,11.03351 7.48166,17.39266 0.32678,4.74121 -1.13782,9.40071 -2.57773,13.92528 -0.38437,1.21686 -1.01205,2.64169 -2.28505,2.80881 -1.44814,0.18322 -2.41906,-1.39141 -2.94565,-2.74198 -1.77374,-4.55799 -3.01266,-9.4663 -6.08407,-13.28403 a 7.3723507,7.3420537 0 0 1 -1.34705,-2.01655 6.1087541,6.0830977 0 0 1 0.0753,-3.1839 c 1.1966,-5.83305 2.23451,-11.7416 3.60625,-17.50036 1.83251,1.03364 2.92919,2.81624 4.07524,4.60007 z"
     class="E"
     id="path14133"
     style="stroke-width:1.20628" />
  <g
     transform="matrix(0.83684761,0,0,0.83335586,34.44455,5.9560404)"
     id="g14139">
    <path
       d="m 523.17,194.88 c 4.14,6.43 8.41,13.23 8.93,20.87 0.39,5.68 -1.35,11.27 -3.08,16.71 -0.46,1.46 -1.21,3.17 -2.73,3.36 -1.72,0.22 -2.89,-1.67 -3.52,-3.29 -2.12,-5.47 -3.6,-11.35 -7.26,-15.93 a 8.59,8.59 0 0 1 -1.61,-2.42 7.19,7.19 0 0 1 0.08,-3.82 l 4.31,-21 c 2.2,1.24 3.5,3.38 4.88,5.52 z"
       fill="url(#G)"
       id="path14135"
       style="fill:url(#G)" />
    <path
       d="m 495.72,248.4 a 33,33 0 0 0 -2.42,7.78 c -0.36,2.66 -0.06,5.37 -0.3,8 -0.47,5.42 -3.08,10.39 -4.53,15.64 -2.06,7.48 -1.71,15.38 -1.34,23.12 L 496,274.4 a 44.59,44.59 0 0 0 2,-8 62.5,62.5 0 0 0 -0.05,-9.28 93.07,93.07 0 0 1 1.1,-16.17 c -1.53,2.13 -2.34,4.99 -3.33,7.45 z"
       fill="url(#H)"
       id="path14137"
       style="fill:url(#H)" />
  </g>
  <ellipse
     cx="458.2243"
     cy="148.35112"
     rx="5.9923859"
     ry="5.9667339"
     class="E"
     id="ellipse14141"
     style="stroke-width:1.20628" />
  <ellipse
     cx="458.18204"
     cy="148.33502"
     fill="url(#I)"
     rx="4.8792453"
     ry="4.8588033"
     id="ellipse14143"
     style="fill:url(#I);stroke-width:1.20628" />
  <rect
     x="407.69574"
     y="403.20865"
     width="116.08749"
     height="40.493324"
     rx="11.414684"
     class="F"
     id="rect14145"
     style="stroke-width:1.20628" />
  <g
     transform="matrix(0.83684761,0,0,0.83335586,36.093139,45.740421)"
     class="E"
     id="g14151">
    <rect
       x="458.41"
       y="442.26999"
       width="112.33"
       height="4.1799998"
       rx="2.0899999"
       class="D"
       id="rect14147" />
    <rect
       x="458.41"
       y="453.82999"
       width="79.059998"
       height="3.95"
       rx="1.7"
       class="D"
       id="rect14149" />
  </g>
  <rect
     x="77.215317"
     y="290.3049"
     width="116.08749"
     height="40.493324"
     rx="11.414684"
     class="F"
     id="rect14153"
     style="stroke-width:1.20628" />
  <g
     transform="matrix(0.83684761,0,0,0.83335586,36.093139,45.740421)"
     class="E"
     id="g14159">
    <rect
       x="63.509998"
       y="306.79001"
       width="112.33"
       height="4.1799998"
       rx="2.0899999"
       class="D"
       id="rect14155" />
    <rect
       x="63.509998"
       y="318.35001"
       width="79.059998"
       height="3.95"
       rx="1.7"
       class="D"
       id="rect14157" />
  </g>
  <rect
     x="120.47263"
     y="396.19958"
     width="84.254257"
     height="29.392973"
     rx="8.2844906"
     class="F"
     id="rect14161"
     style="stroke-width:1.20628" />
  <g
     transform="matrix(0.83684761,0,0,0.83335586,36.093139,45.740421)"
     class="E"
     id="g14167">
    <rect
       x="111.26"
       y="430.20999"
       width="81.529999"
       height="3.03"
       rx="1.52"
       class="D"
       id="rect14163" />
    <rect
       x="111.26"
       y="438.60001"
       width="57.389999"
       height="2.8699999"
       rx="1.24"
       class="D"
       id="rect14165" />
  </g>
  <rect
     x="490.73581"
     y="158.30145"
     width="84.254257"
     height="29.392973"
     rx="8.2844906"
     class="F"
     id="rect14169"
     style="stroke-width:1.20628" />
  <g
     transform="matrix(0.83684761,0,0,0.83335586,36.093139,45.740421)"
     class="E"
     id="g14177">
    <rect
       x="553.71002"
       y="144.74001"
       width="81.529999"
       height="3.03"
       rx="1.52"
       class="D"
       id="rect14171" />
    <rect
       x="553.71002"
       y="153.13"
       width="57.389999"
       height="2.8699999"
       rx="1.24"
       class="D"
       id="rect14173" />
    <path
       d="m 216.01,365.39 h 1.51 v 29.48 h -1.51 z"
       class="D"
       id="path14175" />
  </g>
</svg>
