<svg xmlns="http://www.w3.org/2000/svg" xmlns:v="https://vecta.io/nano" xmlns:xlink="http://www.w3.org/1999/xlink" width="762" height="689.787"><style>.G{fill:#1784b9}.H{fill:#fff}.I{opacity:.24}</style><defs><linearGradient id="A" x1="512.36" x2="481.96" y1="362.489" y2="431.022" xlink:href="#B"/><linearGradient id="B" gradientUnits="userSpaceOnUse"><stop offset="0" stop-color="#010101" stop-opacity="0"/><stop offset=".95" stop-color="#010101"/></linearGradient><linearGradient id="C" x1="501.923" x2="577.919" y1="382.141" y2="254.895" xlink:href="#D"/><linearGradient id="D" gradientUnits="userSpaceOnUse"><stop offset="0" stop-color="#fff" stop-opacity="0"/><stop offset=".95" stop-color="#fff"/></linearGradient><linearGradient id="E" x1="510.459" x2="524.39" y1="360.048" y2="289.585" xlink:href="#D"/><linearGradient id="F" x1="516.532" x2="526.978" y1="330.665" y2="312.219" xlink:href="#B"/><linearGradient id="G" x1="507.803" x2="541.579" y1="293.869" y2="293.869" xlink:href="#D"/><linearGradient id="H" x1="492.918" x2="510.459" y1="316.189" y2="316.189" xlink:href="#B"/><linearGradient id="I" x1="447.78" x2="468.73" y1="205.13" y2="205.13" gradientTransform="matrix(-0.81256572,-0.17546132,-0.20104719,0.70915616,955.61085,255.07047)" xlink:href="#B"/><linearGradient id="J" x1="540.524" x2="339.15" y1="359.623" y2="401.354" xlink:href="#D"/><linearGradient id="K" x1="524.305" x2="534.072" y1="278.599" y2="278.599" xlink:href="#B"/><path id="L" d="M532.465 370.802q-1.072 11.624-5.864 16.815-6.174 6.668-17.441 6.682-10.89 0-17.307-6.828c-4.188-4.533-6.308-11.895-6.341-22.174a66.312 57.873 0 0 1 1.818-5.651 23.355 20.383 0 0 0 7.69-6.214c2.94-3.794 4.457-8.444 8.134-11.697 1.248-1.089 2.697-2.032 3.611-3.334a7.657 6.682 0 0 0 1.047-2.764c.302-1.945-.067-4.065-.101-6.068a22.383 19.535 0 0 1 3.3-10.389c6.986.088 13.864 2.851 20.716 3.941 2.999 4.387-2.228 10.045-.779 15.017.511 1.769 1.86 3.268 2.429 5.037.947 3.005-.503 5.944-1.918 8.949a34.639 30.231 0 0 0-1.625 4.153c-1.34 4.84.419 9.797 2.63 14.527z"/><path id="M" d="M509.663 321.095s-.478 6.01.838 7.771 10.211 5.183 13.655 3.655a23.288 20.324 0 0 0 5.822-3.831l1.734-5.556z"/><path id="N" d="M507.803 311.386s3.795-45.327 24.059-50.292 2.513 60.242 2.513 60.242-26.572 17.685-26.572-9.95z"/><path id="O" d="M505.408 303.388c-4.649 3.853-9.474 7.94-11.409 13.277-1.449 3.97-1.139 8.239-.838 12.429.092 1.119.36 2.464 1.558 2.866 1.357.453 2.681-.687 3.51-1.725 2.815-3.524 5.185-7.45 9.081-10.067a7.321 6.39 0 0 0 1.793-1.462 6.006 5.242 0 0 0 .678-2.727c.218-5.191.62-10.476.653-15.623-1.994.453-3.485 1.747-5.026 3.034z"/></defs><path fill="#ccc" d="M646.599 558.511H126.296a33.726 27.876 0 0 1-33.688-27.844V192.902a24.708 20.422 0 0 1 24.68-20.399H655.18a25.136 20.775 0 0 1 25.107 20.752v337.412a33.726 27.876 0 0 1-33.688 27.844z"/><path d="M141.468 542.525h490.854a35.244 28.873 0 0 0 35.244-28.873V236.563a35.244 28.873 0 0 0-35.244-28.873H141.468a35.244 28.873 0 0 0-35.244 28.873v277.089a35.244 28.873 0 0 0 35.244 28.873z" class="H"/><path fill="#06f" d="M679.945 192.93H92.849v-15.138a33.805 29.868 0 0 1 33.777-29.825h519.543a33.805 29.868 0 0 1 33.777 29.825z"/><g class="H"><ellipse cx="444.084" cy="389.475" rx="4.025" ry="3.863"/><ellipse cx="459.361" cy="389.475" rx="4.025" ry="3.863"/><ellipse cx="474.638" cy="389.475" rx="4.025" ry="3.863"/></g><path fill="#2a98ff" d="M599.782 253.221l-.955 60.103-16.854 8.079-4.272-44.765-171.083 99.428-89.206-64.826-176.913 108.201c-3.711-5.71-7.858-11.273-11.971-16.815l190.065-116.324 89.567 65.147 155.527-88.279c.168.044-44.641-13.679-44.641-13.679 1.324-.826 9.466-8.773 10.89-9.672l57.801 9.27c8.168 2.383 4.323.775 12.046 4.131z"/><g class="G"><rect width="84.339" height="25.786" x="557.546" y="307.416" class="I" rx="8.293"/><rect width="110.098" height="34.039" x="156.8" y="422.907" class="I" rx="10.882"/><path d="M447.38 378.171q0-26.868 15.791-41.833 15.791-14.965 43.987-14.965 28.901 0 44.532 14.702 15.631 14.702 15.64 41.197 0 19.235-6.836 31.546c-4.279 7.941-11.147 14.604-19.745 19.155q-12.901 6.821-32.176 6.821-19.577 0-32.41-5.915-12.834-5.915-20.767-18.679-8.017-12.794-8.017-32.029zm35.77.154q0 16.618 6.517 23.87 6.517 7.252 17.726 7.26 11.527 0 17.843-7.113 6.316-7.113 6.316-25.515 0-15.492-6.593-22.664-6.593-7.172-17.885-7.099c-6.776-.167-13.229 2.528-17.332 7.238q-6.584 7.26-6.593 24.024zm-268.247 19.308l34.228-1.872q1.114 7.311 4.532 11.091 5.554 6.178 15.916 6.17 7.707 0 11.87-3.158 4.163-3.158 4.188-7.311 0-3.948-3.971-7.07-3.971-3.122-18.429-5.893-23.665-4.642-33.751-12.333c-6.63-4.849-10.369-12.068-10.161-19.615.018-5.273 1.828-10.423 5.202-14.797q5.202-6.967 15.64-10.966 10.438-3.999 28.632-3.984 22.316 0 34.027 7.245 11.711 7.245 13.939 23.044l-33.935 1.747q-1.357-6.865-5.68-9.979-4.323-3.114-11.954-3.122-6.266 0-9.449 2.325c-2.008 1.35-3.181 3.439-3.175 5.651.055 1.736 1.022 3.354 2.622 4.387q2.513 2.003 12.071 3.743 23.59 4.43 33.793 8.97 10.203 4.54 14.844 11.266c3.106 4.535 4.707 9.734 4.624 15.017.034 6.412-2.124 12.686-6.199 18.021-4.224 5.572-10.247 9.925-17.307 12.509q-11.116 4.262-28.038 4.262-29.688 0-41.131-9.979-11.443-9.979-12.951-25.369zm123.652-67.991h96.411v21.699H374.61v16.142h55.983v20.726H374.61v20.032h62.098v23.007h-98.153z" opacity=".37"/></g><g class="H"><path d="M215.858 381.468l34.228-1.872q1.106 7.311 4.524 11.091 5.571 6.17 15.916 6.17 7.698 0 11.87-3.158 4.172-3.158 4.188-7.311 0-3.948-3.971-7.07-3.971-3.122-18.429-5.893-23.673-4.642-33.751-12.333a28.482 24.857 0 0 1-10.17-19.615 30.526 26.641 0 0 1 5.202-14.797q5.202-6.96 15.648-10.966 10.446-4.006 28.624-3.984 22.316 0 34.036 7.245 11.719 7.245 13.931 23.044l-33.91 1.733q-1.34-6.865-5.68-9.979-4.339-3.114-11.946-3.122-6.283 0-9.449 2.325a8.151 7.113 0 0 0-3.183 5.644 6.475 5.651 0 0 0 2.622 4.387q2.513 2.018 12.071 3.75 23.581 4.43 33.793 8.97 10.212 4.54 14.852 11.266a32.771 28.6 0 0 1 4.641 15.039 36.976 32.27 0 0 1-6.191 18.021 38.777 33.842 0 0 1-17.315 12.509q-11.116 4.27-28.029 4.262-29.705 0-41.139-9.979-11.435-9.979-12.984-25.376zm123.644-67.991h96.411v21.691h-60.356v16.15h55.992v20.726h-55.992v20.032h62.107v22.978h-98.161z"/><rect width="333.085" height="34.266" x="219.267" y="475.976" rx="12.088"/></g><path d="M545.274 475.326a15.33 15.33 0 0 0-5.026-.826H231.363c-7.605.004-13.774 5.375-13.797 12.012v13.16c.018 6.64 6.189 12.015 13.797 12.019H540.28c7.584-.044 13.718-5.401 13.763-12.019v-13.16c0-4.949-3.486-9.39-8.771-11.186zm5.403 24.375c-.013 5.006-4.66 9.061-10.396 9.073H231.363c-5.747 0-10.411-4.057-10.429-9.073v-13.16c.024-5.013 4.686-9.066 10.429-9.066H540.28c6.073-.82 10.377 4.063 10.396 9.066z" class="G" opacity=".553"/><path d="M231.213 496.403c.678.368 1.455.572 2.253.592 1.24 0 1.818-.541 1.818-1.221s-.486-1.097-1.742-1.506c-1.675-.526-2.513-1.338-2.513-2.318 0-1.323 1.223-2.405 3.242-2.405.807-.008 1.604.166 2.312.504l-.427 1.089a4.04 4.04 0 0 0-1.918-.475c-1.014 0-1.575.504-1.575 1.119s.561.98 1.784 1.389c1.634.534 2.463 1.25 2.463 2.471 0 1.462-1.282 2.456-3.51 2.456-.92.012-1.829-.182-2.639-.563zm8.896-2.303c-.072.76.237 1.509.848 2.053s1.463.83 2.335.783a6.89 6.89 0 0 0 2.605-.424l.293 1.067c-.988.362-2.053.537-3.125.512-2.898 0-4.624-1.66-4.624-4.138s1.675-4.387 4.406-4.387c3.066 0 3.879 2.354 3.879 3.86a6 6 0 0 1-.05.695zm5.026-1.067c0-.95-.452-2.42-2.371-2.42-1.726 0-2.513 1.382-2.622 2.42zm8.905 4.891l-.134-1.031h-.059c-.678.786-1.746 1.24-2.873 1.221-.747.047-1.482-.181-2.027-.628s-.852-1.073-.846-1.726c0-1.981 2.019-3.063 5.646-3.049v-.161c.078-.514-.119-1.031-.534-1.402s-1.003-.555-1.594-.499a5.16 5.16 0 0 0-2.446.614l-.394-.987c.933-.489 2.003-.742 3.091-.731 2.873 0 3.569 1.711 3.569 3.348v3.071a9.98 9.98 0 0 0 .151 1.959zm-.251-4.182c-1.86-.037-3.979.256-3.979 1.85-.035.382.122.759.431 1.031s.739.414 1.177.387c1.018.026 1.937-.527 2.27-1.367.062-.153.096-.313.101-.475zm4.398-1.455l-.075-2.559h1.491l.059 1.608h.075c.333-1.026 1.384-1.749 2.605-1.791.164-.003.327.014.486.051V491a2.78 2.78 0 0 0-.586-.051c-1.206.044-2.187.865-2.287 1.915a3.39 3.39 0 0 0-.075.695v4.387h-1.675zm12.842 5.337a7.03 7.03 0 0 1-2.697.475c-2.831 0-4.674-1.682-4.674-4.189-.064-1.176.447-2.321 1.405-3.15s2.274-1.265 3.621-1.2a6.45 6.45 0 0 1 2.371.424l-.394 1.155c-.608-.281-1.29-.417-1.977-.395-2.153 0-3.351 1.389-3.351 3.1-.083.795.224 1.583.846 2.169s1.499.913 2.413.902c.724 0 1.439-.139 2.094-.409zm1.993-11.719h1.675v5.118c.292-.44.715-.804 1.223-1.053a4.01 4.01 0 0 1 1.751-.417c1.265 0 3.275.673 3.275 3.502v4.876h-1.675v-4.708c0-1.316-.561-2.435-2.17-2.435-1.04.015-1.957.601-2.287 1.462a1.53 1.53 0 0 0-.117.731v4.942h-1.675z" opacity=".56"/><path fill="#0283ff" d="M551.103 487.484l-.43 14.001c.014 3.527-4.682 6.536-8.806 7.39l-33.529.049v-31.726h35.198c5.032 1.682 7.564 5.657 7.566 10.285z" opacity=".716"/><g class="H"><path d="M526.082 500.439a11.837 10.33 0 1 1 11.828-10.323 11.853 10.345 0 0 1-11.828 10.323zm0-17.78a8.545 7.457 0 1 0 8.536 7.457 8.545 7.457 0 0 0-8.536-7.457z"/><path d="M531.258 496.857l2.786-1.923 7.852 8.664-2.786 1.923zm21.161-171.631q-15.296-13.818-43.485-13.84-27.535 0-42.982 14.073c-10.253 9.424-15.422 22.525-15.422 39.398q0 18.109 7.799 30.15 7.799 12.041 20.339 17.605 12.507 5.571 31.648 5.564 18.823 0 31.405-6.448a48.972 42.739 0 0 0 19.267-18.014q6.618-11.624 6.643-29.711.017-24.901-15.213-38.777zm-66.932 39.779q0-15.813 6.375-22.613a20.515 17.904 0 0 1 15.916-6.77 5.453 4.759 0 0 1 1.047-.058q11.016 0 17.474 6.711a26.396 23.037 0 0 1 5.127 9.833 59.192 51.659 0 0 1 1.315 11.485c0 2.588-.101 4.971-.302 7.209q-1.072 11.624-5.864 16.815-6.174 6.668-17.441 6.682-10.89 0-17.307-6.828c-4.188-4.533-6.308-11.895-6.341-22.174z"/></g><use class="G" xlink:href="#L"/><use fill="url(#A)" xlink:href="#L"/><path fill="url(#C)" d="M528.185 372.703q-.838 11.617-4.398 16.815c-3.083 4.445-7.43 6.689-13.068 6.689q-8.193 0-12.967-6.836c-3.133-4.533-4.725-11.895-4.75-22.167q.561-2.924 1.365-5.651a21.076 18.394 0 0 0 5.763-6.214c2.195-3.802 3.351-8.451 6.09-11.697a21.872 19.089 0 0 0 2.706-3.326 9.6 8.378 0 0 0 .779-2.771 64.209 56.038 0 0 0-.075-6.061 28.306 24.703 0 0 1 2.513-10.396c5.227.088 10.387 2.859 15.514 3.948 2.253 4.387-1.675 10.038-.578 15.017.377 1.762 1.391 3.268 1.818 5.03.712 3.005-.377 5.951-1.441 8.956a44.808 39.106 0 0 0-1.215 4.145c-1.014 4.832.302 9.804 1.943 14.519z"/><path fill="url(#E)" d="M511.221 344.059l1.089-1.06a26.656 23.263 0 0 1-5.864 15.17c-1.818 1.959-4.08 3.772-4.783 6.222a33.332 29.09 0 0 0 14.375-18.789c.586-2.712.838-5.681 2.815-7.823l.41 3.736a87.824 76.647 0 0 0 4.498-8.949c.251-.592.452-1.353-.092-1.769a1.876 1.638 0 0 0-1.064-.3c-3.351-.285-7.07-1.257-8.796 1.711-1.969 3.407-2.421 8.122-2.589 11.851z"/><use class="G" xlink:href="#M"/><use x="1.349" y="-1.915" fill="url(#F)" xlink:href="#M"/><use class="G" xlink:href="#N"/><use fill="url(#G)" xlink:href="#N"/><use class="G" xlink:href="#O"/><use fill="url(#H)" xlink:href="#O"/><path d="M541.847 308.096c3.476 4.708 7.053 9.68 7.489 15.258.327 4.16-1.139 8.247-2.58 12.216-.385 1.067-1.014 2.318-2.287 2.464-1.449.161-2.421-1.221-2.949-2.405-1.776-3.999-3.016-8.305-6.09-11.654a7.38 6.441 0 0 1-1.349-1.769 6.115 5.337 0 0 1 .075-2.793c1.198-5.118 2.237-10.301 3.61-15.353 1.835.907 2.932 2.471 4.08 4.036z" class="G"/><path fill="url(#I)" d="M541.822 308.228c3.468 4.701 7.045 9.672 7.481 15.258.327 4.153-1.131 8.239-2.58 12.216-.385 1.067-1.014 2.318-2.287 2.456-1.441.161-2.421-1.221-2.949-2.405-1.776-3.999-3.016-8.298-6.082-11.646a7.196 6.28 0 0 1-1.349-1.769 6.023 5.257 0 0 1 .067-2.793c1.198-5.118 2.245-10.308 3.61-15.353 1.843.907 2.932 2.471 4.088 4.036z"/><path fill="url(#J)" d="M518.827 347.356a27.644 24.126 0 0 0-2.027 5.688c-.302 1.945-.05 3.926-.251 5.849-.394 3.962-2.58 7.596-3.795 11.434-1.726 5.469-1.432 11.244-1.123 16.903l7.43-20.865a37.353 32.599 0 0 0 1.675-5.849 52.356 45.693 0 0 0-.042-6.784 77.964 68.042 0 0 1 .921-11.822c-1.282 1.557-1.96 3.648-2.789 5.447z"/><ellipse cx="529.23" cy="278.733" class="G" rx="5.998" ry="5.235"/><ellipse cx="529.188" cy="278.599" fill="url(#K)" rx="4.884" ry="4.262"/><rect width="116.205" height="35.524" x="146.379" y="415.208" class="H" rx="11.426"/><rect width="94.098" height="3.056" x="158.417" y="424.946" fill="#1ca0e0" opacity=".753" rx="1.751"/><rect width="66.228" height="2.888" x="158.417" y="433.398" class="G I" rx="1.424"/><rect width="84.339" height="25.786" x="560.319" y="299.404" class="H" rx="8.293"/><rect width="68.297" height="2.215" x="569.056" y="306.473" class="G I" rx="1.273"/><rect width="48.075" height="2.098" x="569.056" y="312.607" fill="#1da6e9" opacity=".655" rx="1.039"/><path d="M284.49 480.948h1.265V502.5h-1.265z" class="G" opacity=".359"/><g class="H"><ellipse cx="121.013" cy="170.5" rx="4.805" ry="5.284"/><ellipse cx="139.25" cy="170.5" rx="4.805" ry="5.284"/><ellipse cx="157.487" cy="170.5" rx="4.805" ry="5.284"/></g></svg>