<?xml version="1.0" encoding="UTF-8" standalone="no"?>
<svg
   inkscape:version="1.1 (c68e22c387, 2021-05-23)"
   sodipodi:docname="JunTech-Web-Solutions-Aruba-Brand-logo-footer.svg"
   xml:space="preserve"
   style="enable-background:new 0 0 455 455;"
   viewBox="0 0 455 455"
   y="0px"
   x="0px"
   id="Layer_1"
   version="1.1"
   inkscape:export-filename="C:\Users\juny1\OneDrive\Desktop\JunTechPC-Aruba-logo-icon-web.png"
   inkscape:export-xdpi="100"
   inkscape:export-ydpi="100"
   xmlns:inkscape="http://www.inkscape.org/namespaces/inkscape"
   xmlns:sodipodi="http://sodipodi.sourceforge.net/DTD/sodipodi-0.dtd"
   xmlns:xlink="http://www.w3.org/1999/xlink"
   xmlns="http://www.w3.org/2000/svg"
   xmlns:svg="http://www.w3.org/2000/svg"
   xmlns:rdf="http://www.w3.org/1999/02/22-rdf-syntax-ns#"
   xmlns:cc="http://creativecommons.org/ns#"
   xmlns:dc="http://purl.org/dc/elements/1.1/"><metadata
   id="metadata188"><rdf:RDF><cc:Work
       rdf:about=""><dc:format>image/svg+xml</dc:format><dc:type
         rdf:resource="http://purl.org/dc/dcmitype/StillImage" /></cc:Work></rdf:RDF></metadata><defs
   id="defs186"><linearGradient
     inkscape:collect="always"
     xlink:href="#linearGradient8692"
     id="linearGradient8694"
     x1="-506.28784"
     y1="135.10474"
     x2="490.36859"
     y2="244.60001"
     gradientUnits="userSpaceOnUse" /><linearGradient
     inkscape:collect="always"
     id="linearGradient8692"><stop
       style="stop-color:#0684ff;stop-opacity:1;"
       offset="0"
       id="stop943" /><stop
       style="stop-color:#0684ff;stop-opacity:0;"
       offset="1"
       id="stop945" /></linearGradient><linearGradient
     inkscape:collect="always"
     xlink:href="#linearGradient8692"
     id="linearGradient2174"
     gradientUnits="userSpaceOnUse"
     x1="-506.28784"
     y1="135.10474"
     x2="490.36859"
     y2="244.60001" /><linearGradient
     inkscape:collect="always"
     xlink:href="#linearGradient8692"
     id="linearGradient2176"
     gradientUnits="userSpaceOnUse"
     x1="-506.28784"
     y1="135.10474"
     x2="490.36859"
     y2="244.60001" /><linearGradient
     inkscape:collect="always"
     xlink:href="#linearGradient8692"
     id="linearGradient2178"
     gradientUnits="userSpaceOnUse"
     x1="-506.28784"
     y1="135.10474"
     x2="490.36859"
     y2="244.60001" /><linearGradient
     inkscape:collect="always"
     xlink:href="#linearGradient8692"
     id="linearGradient2180"
     gradientUnits="userSpaceOnUse"
     x1="-506.28784"
     y1="135.10474"
     x2="490.36859"
     y2="244.60001" /><linearGradient
     inkscape:collect="always"
     xlink:href="#linearGradient8692"
     id="linearGradient2182"
     gradientUnits="userSpaceOnUse"
     x1="-506.28784"
     y1="135.10474"
     x2="490.36859"
     y2="244.60001" /><linearGradient
     inkscape:collect="always"
     xlink:href="#linearGradient8692"
     id="linearGradient2184"
     gradientUnits="userSpaceOnUse"
     x1="-506.28784"
     y1="135.10474"
     x2="490.36859"
     y2="244.60001" /><linearGradient
     inkscape:collect="always"
     xlink:href="#linearGradient8692"
     id="linearGradient2186"
     gradientUnits="userSpaceOnUse"
     x1="-506.28784"
     y1="135.10474"
     x2="490.36859"
     y2="244.60001" /></defs><sodipodi:namedview
   inkscape:current-layer="Layer_1"
   inkscape:window-maximized="1"
   inkscape:window-y="-9"
   inkscape:window-x="-9"
   inkscape:cy="227.49999"
   inkscape:cx="225.22784"
   inkscape:zoom="1.7604396"
   showgrid="false"
   id="namedview184"
   inkscape:window-height="1003"
   inkscape:window-width="1920"
   inkscape:pageshadow="2"
   inkscape:pageopacity="0"
   guidetolerance="10"
   gridtolerance="10"
   objecttolerance="10"
   borderopacity="1"
   bordercolor="#666666"
   pagecolor="#ffffff"
   inkscape:document-rotation="0"
   inkscape:pagecheckerboard="0" />

<g
   id="g153">
</g>
<g
   id="g155">
</g>
<g
   id="g157">
</g>
<g
   id="g159">
</g>
<g
   id="g161">
</g>
<g
   id="g163">
</g>
<g
   id="g165">
</g>
<g
   id="g167">
</g>
<g
   id="g169">
</g>
<g
   id="g171">
</g>
<g
   id="g173">
</g>
<g
   id="g175">
</g>
<g
   id="g177">
</g>
<g
   id="g179">
</g>
<g
   id="g181">
</g>
<g
   transform="matrix(0.69368242,0,0,0.69343915,48.588603,54.145154)"
   id="g935"
   style="fill:#0066ff"><g
     id="g933"
     style="fill:#0066ff"><path
       d="M 437.02,74.98 C 388.667,26.628 324.38,0 256,0 187.62,0 123.333,26.628 74.98,74.98 26.628,123.333 0,187.62 0,256 0,324.38 26.628,388.667 74.98,437.02 123.333,485.372 187.62,512 256,512 324.38,512 388.667,485.372 437.02,437.02 485.372,388.667 512,324.38 512,256 512,187.62 485.372,123.333 437.02,74.98 Z M 256,491.602 C 126.089,491.602 20.398,385.912 20.398,256 20.398,126.088 126.089,20.398 256,20.398 385.911,20.398 491.602,126.089 491.602,256 491.602,385.911 385.911,491.602 256,491.602 Z"
       id="path931"
       style="fill:#0066ff;fill-opacity:1" /></g></g><ellipse
   style="stroke-width:0.758468"
   ry="172.52049"
   rx="172.5825"
   id="circle151"
   cy="232.23442"
   cx="225.87018" /><g
   transform="matrix(0.53103161,0,0,0.50471994,95.621671,105.4656)"
   style="fill:url(#linearGradient8694);fill-opacity:1;stroke:#0066ff;stroke-width:4.21968408;stroke-miterlimit:4;stroke-dasharray:none;stroke-opacity:1"
   id="g263"><g
     style="fill:url(#linearGradient2186);fill-opacity:1;stroke:#0066ff;stroke-width:4.21968408;stroke-miterlimit:4;stroke-dasharray:none;stroke-opacity:1"
     id="g261"><g
       style="fill:url(#linearGradient2184);fill-opacity:1;stroke:#0066ff;stroke-width:4.21968408;stroke-miterlimit:4;stroke-dasharray:none;stroke-opacity:1"
       id="g259"><polygon
         style="fill:url(#linearGradient2174);fill-opacity:1;stroke:#0066ff;stroke-width:4.21968408;stroke-miterlimit:4;stroke-dasharray:none;stroke-opacity:1"
         id="polygon249"
         points="45.4,367.7 136.7,367.7 182.1,288.9 136.7,210 45.4,210 0,288.9 " /><polygon
         style="fill:url(#linearGradient2176);fill-opacity:1;stroke:#0066ff;stroke-width:4.21968408;stroke-miterlimit:4;stroke-dasharray:none;stroke-opacity:1"
         id="polygon251"
         points="290,279.2 335.8,200.3 290,121.5 199.2,121.5 153.7,200.3 199.2,279.2 " /><polygon
         style="fill:url(#linearGradient2178);fill-opacity:1;stroke:#0066ff;stroke-width:4.21968408;stroke-miterlimit:4;stroke-dasharray:none;stroke-opacity:1"
         id="polygon253"
         points="335.8,377.4 290,298.6 199.2,298.6 153.7,377.4 199.2,456.6 290,456.6 " /><polygon
         style="fill:url(#linearGradient2180);fill-opacity:1;stroke:#0066ff;stroke-width:4.21968408;stroke-miterlimit:4;stroke-dasharray:none;stroke-opacity:1"
         id="polygon255"
         points="0,111.8 45.4,190.6 136.7,190.6 182.1,111.8 136.7,32.6 45.4,32.6 " /><polygon
         style="fill:url(#linearGradient2182);fill-opacity:1;stroke:#0066ff;stroke-width:4.21968408;stroke-miterlimit:4;stroke-dasharray:none;stroke-opacity:1"
         id="polygon257"
         points="489.2,111.8 443.8,32.6 352.5,32.6 307.1,111.4 352.5,190.6 443.8,190.6 " /></g></g></g></svg>
