<?xml version="1.0" encoding="UTF-8" standalone="no"?>
<svg
   id="Capa_1"
   enable-background="new 0 0 512 512"
   height="512"
   viewBox="0 0 512 512"
   width="512"
   version="1.1"
   sodipodi:docname="SEO-JunTech-Web-Solutions-Aruba.svg"
   inkscape:version="1.1 (c68e22c387, 2021-05-23)"
   xmlns:inkscape="http://www.inkscape.org/namespaces/inkscape"
   xmlns:sodipodi="http://sodipodi.sourceforge.net/DTD/sodipodi-0.dtd"
   xmlns:xlink="http://www.w3.org/1999/xlink"
   xmlns="http://www.w3.org/2000/svg"
   xmlns:svg="http://www.w3.org/2000/svg">
  <defs
     id="defs59582">
    <rect
       x="205.45223"
       y="391.98981"
       width="75.006369"
       height="43.047134"
       id="rect90034" />
    <rect
       x="98.486624"
       y="317.63567"
       width="598.09427"
       height="190.45096"
       id="rect67328" />
    <linearGradient
       inkscape:collect="always"
       xlink:href="#linearGradient8692"
       id="linearGradient8694"
       x1="-506.28784"
       y1="135.10474"
       x2="490.36859"
       y2="244.60001"
       gradientUnits="userSpaceOnUse" />
    <linearGradient
       inkscape:collect="always"
       id="linearGradient8692">
      <stop
         style="stop-color:#0684ff;stop-opacity:1;"
         offset="0"
         id="stop943" />
      <stop
         style="stop-color:#0684ff;stop-opacity:0;"
         offset="1"
         id="stop945" />
    </linearGradient>
    <linearGradient
       inkscape:collect="always"
       xlink:href="#linearGradient8692"
       id="linearGradient65509"
       gradientUnits="userSpaceOnUse"
       x1="-506.28784"
       y1="135.10474"
       x2="490.36859"
       y2="244.60001" />
    <linearGradient
       inkscape:collect="always"
       xlink:href="#linearGradient8692"
       id="linearGradient65511"
       gradientUnits="userSpaceOnUse"
       x1="-506.28784"
       y1="135.10474"
       x2="490.36859"
       y2="244.60001" />
    <linearGradient
       inkscape:collect="always"
       xlink:href="#linearGradient8692"
       id="linearGradient65513"
       gradientUnits="userSpaceOnUse"
       x1="-506.28784"
       y1="135.10474"
       x2="490.36859"
       y2="244.60001" />
    <linearGradient
       inkscape:collect="always"
       xlink:href="#linearGradient8692"
       id="linearGradient65515"
       gradientUnits="userSpaceOnUse"
       x1="-506.28784"
       y1="135.10474"
       x2="490.36859"
       y2="244.60001" />
    <linearGradient
       inkscape:collect="always"
       xlink:href="#linearGradient8692"
       id="linearGradient65517"
       gradientUnits="userSpaceOnUse"
       x1="-506.28784"
       y1="135.10474"
       x2="490.36859"
       y2="244.60001" />
    <linearGradient
       inkscape:collect="always"
       xlink:href="#linearGradient8692"
       id="linearGradient65519"
       gradientUnits="userSpaceOnUse"
       x1="-506.28784"
       y1="135.10474"
       x2="490.36859"
       y2="244.60001" />
    <linearGradient
       inkscape:collect="always"
       xlink:href="#linearGradient8692"
       id="linearGradient65521"
       gradientUnits="userSpaceOnUse"
       x1="-506.28784"
       y1="135.10474"
       x2="490.36859"
       y2="244.60001" />
  </defs>
  <sodipodi:namedview
     id="namedview59580"
     pagecolor="#ffffff"
     bordercolor="#666666"
     borderopacity="1.0"
     inkscape:pageshadow="2"
     inkscape:pageopacity="0.0"
     inkscape:pagecheckerboard="0"
     showgrid="false"
     inkscape:zoom="1.5332031"
     inkscape:cx="256"
     inkscape:cy="256"
     inkscape:window-width="1920"
     inkscape:window-height="1003"
     inkscape:window-x="-9"
     inkscape:window-y="-9"
     inkscape:window-maximized="1"
     inkscape:current-layer="Capa_1" />
  <g
     id="g59577">
    <g
       id="g59559">
      <path
         d="m256 22c-135.31 0-245 109.69-245 245 0 23.156 3.226 45.556 9.23 66.79l1.551 1h44.669l.284-.522c11.226-20.65 32.786-33.478 56.266-33.478 8.746 0 17.23 1.739 25.219 5.169l1.192.512.191-1.283c3.943-26.451 27.114-46.397 53.897-46.397 8.887 0 17.715 2.195 25.53 6.349l1.47.781v-43.204h51v27.204l1.47-.781c7.815-4.153 16.644-6.349 25.53-6.349 30.052 0 54.5 24.448 54.5 54.5 0 1.482-.071 3.032-.218 4.738l-.123 1.43 1.384-.379c5.537-1.52 11.242-2.289 16.957-2.289 23.48 0 45.04 12.828 56.266 33.478l.284.522h52.669l1.551-1c6.004-21.234 9.23-43.634 9.23-66.79.001-135.311-109.689-245.001-244.999-245.001z"
         fill="#01d0fb"
         id="path59497" />
      <path
         d="m123 300.79c8.746 0 17.23 1.739 25.219 5.169l1.192.512.191-1.283c3.943-26.451 27.114-46.397 53.897-46.397 8.887 0 17.715 2.195 25.53 6.349l1.47.781v-43.204h51v27.204l1.47-.781c7.815-4.153 16.644-6.349 25.53-6.349 30.052 0 54.5 24.448 54.5 54.5 0 1.481-.071 3.031-.218 4.738l-.123 1.43 1.384-.379c5.537-1.52 11.242-2.289 16.957-2.289 22.027 0 42.364 11.29 54.064 29.736 7.073-19.875 10.937-41.257 10.937-63.527 0-104.766-85.234-190-190-190s-190 85.234-190 190c0 19.516 2.961 38.352 8.452 56.088 12.023-13.994 29.662-22.298 48.548-22.298z"
         fill="#01c0fa"
         id="path59499" />
      <path
         d="m123 300.79c8.746 0 17.23 1.739 25.219 5.169l1.192.512.191-1.283c3.943-26.451 27.114-46.397 53.897-46.397 8.887 0 17.715 2.195 25.53 6.349l1.47.781v-43.204h51v27.204l1.47-.781c7.815-4.153 16.644-6.349 25.53-6.349 30.052 0 54.5 24.448 54.5 54.5 0 1.481-.071 3.031-.218 4.738l-.123 1.43 1.384-.379c5.537-1.52 11.242-2.289 16.957-2.289 3.611 0 7.177.306 10.667.895 2.828-11.093 4.334-22.713 4.334-34.686 0-77.32-62.68-140-140-140s-140 62.68-140 140c0 11.678 1.439 23.018 4.133 33.862.952-.043 1.907-.072 2.867-.072z"
         fill="#08a9f1"
         id="path59501" />
      <path
         d="m363 297.29c0 1.481-.071 3.031-.218 4.738l-.123 1.43 1.384-.379c5.537-1.52 11.242-2.289 16.957-2.289 6.067 0 12.002.863 17.667 2.489.212-1.634.333-3.297.333-4.989 0-21.263-17.237-38.5-38.5-38.5-3.836 0-7.538.569-11.035 1.613 8.416 9.595 13.535 22.151 13.535 35.887z"
         fill="#c8effe"
         id="path59503"
         style="fill:#ffffff" />
      <path
         d="m123 300.79c8.746 0 17.23 1.739 25.219 5.169l1.192.512.191-1.283c2.055-13.786 9.34-25.796 19.63-34.145-5.32-4.52-12.205-7.252-19.733-7.252-16.845 0-30.5 13.655-30.5 30.5 0 2.265.254 4.469.723 6.593 1.089-.057 2.18-.094 3.278-.094z"
         fill="#c8effe"
         id="path59505"
         style="fill:#ffffff" />
      <g
         id="g59519">
        <g
           id="g59515">
          <g
             id="g59509">
            <circle
               cx="336.5"
               cy="221.29"
               fill="#c8effe"
               r="10.5"
               id="circle59507"
               style="fill:#ffffff" />
          </g>
          <g
             id="g59513">
            <circle
               cx="176.5"
               cy="235.29"
               fill="#c8effe"
               r="10.5"
               id="circle59511"
               style="fill:#ffffff" />
          </g>
        </g>
        <path
           d="m438.145 333.79c-11.01-20.253-32.472-34-57.145-34-5.965 0-11.735.819-17.222 2.324.137-1.591.222-3.197.222-4.824 0-30.652-24.848-55.5-55.5-55.5-9.397 0-18.243 2.344-26 6.466v-26.54h-53v42.54c-7.757-4.122-16.603-6.466-26-6.466-27.848 0-50.901 20.511-54.886 47.25-7.861-3.374-16.517-5.25-25.614-5.25-24.673 0-46.135 13.747-57.145 34h-45.625c29.076 102.847 123.615 178.21 235.77 178.21s206.694-75.363 235.77-178.21z"
           fill="#99e6fc"
           id="path59517"
           style="fill:#e6e6e6" />
      </g>
      <g
         id="g59557">
        <path
           d="m223.5 203.819v13.896c0 2.761 2.239 5 5 5h55c2.761 0 5-2.239 5-5v-13.896z"
           fill="#fff"
           id="path59521" />
        <path
           d="m248 217.715v-13.896h-24.5v13.896c0 2.761 2.239 5 5 5h24.5c-2.762 0-5-2.238-5-5z"
           fill="#eaf6ff"
           id="path59523"
           style="fill:#d7eef4" />
        <g
           id="g59539">
          <path
             d="m219 143.603h-.562c-3.544 0-6.824 1.872-8.626 4.923l-25.23 42.706c-1.973 3.339.435 7.558 4.313 7.558h30.105z"
             fill="#fe5694"
             id="path59525"
             style="fill:#0055d4" />
          <path
             d="m327.402 191.206-25.602-42.732c-1.81-3.021-5.073-4.87-8.594-4.87h-.206v55.187h30.105c3.892-.001 6.298-4.246 4.297-7.585z"
             fill="#fe5694"
             id="path59527"
             style="fill:#0055d4" />
          <path
             d="m292.418 58.823h-72.837l-1.582 1v139.996c0 2.761 2.239 5 5 5h66c2.761 0 5-2.239 5-5v-139.996z"
             fill="#e8edf2"
             id="path59529" />
          <path
             d="m242 199.819v-139.996h-24v139.996c0 2.761 2.239 5 5 5h24c-2.762 0-5-2.238-5-5z"
             fill="#d9e7ec"
             id="path59531" />
          <g
             id="g59535">
            <path
               d="m258.128.465c-1.352-.62-2.904-.62-4.256 0-21.232 9.743-35.872 36.768-35.872 59.358h76c0-22.59-14.64-49.615-35.872-59.358z"
               fill="#fe5694"
               id="path59533"
               style="fill:#0066ff" />
          </g>
          <path
             d="m268 6.563c-3.091-2.431-6.391-4.5-9.872-6.097-1.352-.62-2.904-.62-4.256 0-21.232 9.742-35.872 36.767-35.872 59.357h24c0-18.887 10.237-40.865 26-53.26z"
             fill="#fd3581"
             id="path59537"
             style="fill:#0055d4" />
        </g>
        <g
           id="g59543">
          <circle
             cx="256"
             cy="100.748"
             fill="#fff"
             r="27.5"
             id="circle59541" />
        </g>
        <g
           id="g59547" />
        <g
           id="g59553">
          <path
             d="m271.038 189.917h-30.076c-2.761 0-5-2.239-5-5v-8.034c0-2.761 2.239-5 5-5h30.076c2.761 0 5 2.239 5 5v8.034c0 2.761-2.239 5-5 5z"
             fill="#fff"
             id="path59551" />
        </g>
        <path
           d="m252.924 184.917v-8.034c0-2.761 2.239-5 5-5h-16.962c-2.761 0-5 2.239-5 5v8.034c0 2.761 2.239 5 5 5h16.962c-2.761 0-5-2.239-5-5z"
           fill="#eaf6ff"
           id="path59555"
           style="fill:#d7eef4" />
      </g>
    </g>
    <g
       fill="#08a9f1"
       id="g59575" />
  </g>
  <g
     transform="matrix(0.0859375,0,0,0.0859375,233.83694,78.769424)"
     id="g935"
     style="fill:#0066ff">
    <g
       id="g933"
       style="fill:#0066ff">
      <path
         d="M 437.02,74.98 C 388.667,26.628 324.38,0 256,0 187.62,0 123.333,26.628 74.98,74.98 26.628,123.333 0,187.62 0,256 0,324.38 26.628,388.667 74.98,437.02 123.333,485.372 187.62,512 256,512 324.38,512 388.667,485.372 437.02,437.02 485.372,388.667 512,324.38 512,256 512,187.62 485.372,123.333 437.02,74.98 Z M 256,491.602 C 126.089,491.602 20.398,385.912 20.398,256 20.398,126.088 126.089,20.398 256,20.398 385.911,20.398 491.602,126.089 491.602,256 491.602,385.911 385.911,491.602 256,491.602 Z"
         id="path931"
         style="fill:#0066ff;fill-opacity:1" />
    </g>
  </g>
  <ellipse
     style="stroke-width:0.0939799"
     ry="21.380362"
     rx="21.380547"
     id="circle151"
     cy="100.83993"
     cx="255.79967" />
  <g
     transform="matrix(0.06578735,0,0,0.06254964,239.66368,85.129544)"
     style="fill:url(#linearGradient8694);fill-opacity:1;stroke:#0066ff;stroke-width:4.94169;stroke-miterlimit:4;stroke-dasharray:none;stroke-opacity:1"
     id="g263">
    <g
       style="fill:url(#linearGradient65521);fill-opacity:1;stroke:#0066ff;stroke-width:4.94169;stroke-miterlimit:4;stroke-dasharray:none;stroke-opacity:1"
       id="g261">
      <g
         style="fill:url(#linearGradient65519);fill-opacity:1;stroke:#0066ff;stroke-width:4.94169;stroke-miterlimit:4;stroke-dasharray:none;stroke-opacity:1"
         id="g259">
        <polygon
           style="fill:url(#linearGradient65509);fill-opacity:1;stroke:#0066ff;stroke-width:4.94169;stroke-miterlimit:4;stroke-dasharray:none;stroke-opacity:1"
           id="polygon249"
           points="45.4,210 0,288.9 45.4,367.7 136.7,367.7 182.1,288.9 136.7,210 " />
        <polygon
           style="fill:url(#linearGradient65511);fill-opacity:1;stroke:#0066ff;stroke-width:4.94169;stroke-miterlimit:4;stroke-dasharray:none;stroke-opacity:1"
           id="polygon251"
           points="153.7,200.3 199.2,279.2 290,279.2 335.8,200.3 290,121.5 199.2,121.5 " />
        <polygon
           style="fill:url(#linearGradient65513);fill-opacity:1;stroke:#0066ff;stroke-width:4.94169;stroke-miterlimit:4;stroke-dasharray:none;stroke-opacity:1"
           id="polygon253"
           points="199.2,456.6 290,456.6 335.8,377.4 290,298.6 199.2,298.6 153.7,377.4 " />
        <polygon
           style="fill:url(#linearGradient65515);fill-opacity:1;stroke:#0066ff;stroke-width:4.94169;stroke-miterlimit:4;stroke-dasharray:none;stroke-opacity:1"
           id="polygon255"
           points="136.7,32.6 45.4,32.6 0,111.8 45.4,190.6 136.7,190.6 182.1,111.8 " />
        <polygon
           style="fill:url(#linearGradient65517);fill-opacity:1;stroke:#0066ff;stroke-width:4.94169;stroke-miterlimit:4;stroke-dasharray:none;stroke-opacity:1"
           id="polygon257"
           points="352.5,190.6 443.8,190.6 489.2,111.8 443.8,32.6 352.5,32.6 307.1,111.4 " />
      </g>
    </g>
  </g>
  <text
     xml:space="preserve"
     id="text67326"
     style="font-style:normal;font-variant:normal;font-weight:bold;font-stretch:normal;font-size:64px;line-height:1.25;font-family:'Century Gothic';-inkscape-font-specification:'Century Gothic Bold';text-align:center;white-space:pre;shape-inside:url(#rect67328);fill:#0044aa;fill-opacity:1;stroke:none"
     transform="translate(-138.92483,1.9566879)"
     x="251.12305"
     y="0"><tspan
       x="226.6582"
       y="375.73874"
       id="tspan102326">Boost Your 
</tspan><tspan
       x="328.42383"
       y="455.73874"
       id="tspan102328">SEO!</tspan></text>
  <text
     xml:space="preserve"
     id="text90032"
     style="fill:black;fill-opacity:1;line-height:1.25;stroke:none;font-family:sans-serif;font-style:normal;font-weight:normal;font-size:40px;white-space:pre;shape-inside:url(#rect90034)" />
</svg>
