<?xml version="1.0" encoding="UTF-8" standalone="no"?>
<svg
   inkscape:version="1.1.1 (3bf5ae0d25, 2021-09-20)"
   sodipodi:docname="JunTech-Web-Solutions-Aruba-logo-white-txt.svg"
   xml:space="preserve"
   viewBox="0 0 721.28497 171.77874"
   y="0px"
   x="0px"
   id="Layer_1"
   version="1.1"
   inkscape:export-filename="D:\Games\Juny Promo Material\JunTech-Web-Solutions-logo-Aruba-Services.png"
   inkscape:export-xdpi="100"
   inkscape:export-ydpi="100"
   width="721.28497"
   height="171.77875"
   xmlns:inkscape="http://www.inkscape.org/namespaces/inkscape"
   xmlns:sodipodi="http://sodipodi.sourceforge.net/DTD/sodipodi-0.dtd"
   xmlns:xlink="http://www.w3.org/1999/xlink"
   xmlns="http://www.w3.org/2000/svg"
   xmlns:svg="http://www.w3.org/2000/svg"
   xmlns:rdf="http://www.w3.org/1999/02/22-rdf-syntax-ns#"
   xmlns:cc="http://creativecommons.org/ns#"
   xmlns:dc="http://purl.org/dc/elements/1.1/"><metadata
   id="metadata188"><rdf:RDF><cc:Work
       rdf:about=""><dc:format>image/svg+xml</dc:format><dc:type
         rdf:resource="http://purl.org/dc/dcmitype/StillImage" /></cc:Work></rdf:RDF></metadata><defs
   id="defs186"><linearGradient
     inkscape:collect="always"
     id="linearGradient5718"><stop
       style="stop-color:#2a7fff;stop-opacity:1;"
       offset="0"
       id="stop5714" /><stop
       style="stop-color:#2a7fff;stop-opacity:0;"
       offset="1"
       id="stop5716" /></linearGradient><linearGradient
     inkscape:collect="always"
     xlink:href="#linearGradient8692"
     id="linearGradient8694"
     x1="-506.28784"
     y1="135.10474"
     x2="490.36859"
     y2="244.60001"
     gradientUnits="userSpaceOnUse" /><linearGradient
     inkscape:collect="always"
     id="linearGradient8692"><stop
       style="stop-color:#0684ff;stop-opacity:1;"
       offset="0"
       id="stop943" /><stop
       style="stop-color:#0684ff;stop-opacity:0;"
       offset="1"
       id="stop945" /></linearGradient><linearGradient
     inkscape:collect="always"
     xlink:href="#linearGradient8692"
     id="linearGradient2174"
     gradientUnits="userSpaceOnUse"
     x1="-506.28784"
     y1="135.10474"
     x2="490.36859"
     y2="244.60001" /><linearGradient
     inkscape:collect="always"
     xlink:href="#linearGradient8692"
     id="linearGradient2176"
     gradientUnits="userSpaceOnUse"
     x1="-506.28784"
     y1="135.10474"
     x2="490.36859"
     y2="244.60001" /><linearGradient
     inkscape:collect="always"
     xlink:href="#linearGradient8692"
     id="linearGradient2178"
     gradientUnits="userSpaceOnUse"
     x1="-506.28784"
     y1="135.10474"
     x2="490.36859"
     y2="244.60001" /><linearGradient
     inkscape:collect="always"
     xlink:href="#linearGradient8692"
     id="linearGradient2180"
     gradientUnits="userSpaceOnUse"
     x1="-506.28784"
     y1="135.10474"
     x2="490.36859"
     y2="244.60001" /><linearGradient
     inkscape:collect="always"
     xlink:href="#linearGradient8692"
     id="linearGradient2182"
     gradientUnits="userSpaceOnUse"
     x1="-506.28784"
     y1="135.10474"
     x2="490.36859"
     y2="244.60001" /><linearGradient
     inkscape:collect="always"
     xlink:href="#linearGradient8692"
     id="linearGradient2184"
     gradientUnits="userSpaceOnUse"
     x1="-506.28784"
     y1="135.10474"
     x2="490.36859"
     y2="244.60001" /><linearGradient
     inkscape:collect="always"
     xlink:href="#linearGradient8692"
     id="linearGradient2186"
     gradientUnits="userSpaceOnUse"
     x1="-506.28784"
     y1="135.10474"
     x2="490.36859"
     y2="244.60001" /><linearGradient
     inkscape:collect="always"
     xlink:href="#linearGradient5718"
     id="linearGradient5720"
     x1="3980.0288"
     y1="530.04456"
     x2="-538.38361"
     y2="530.04456"
     gradientUnits="userSpaceOnUse" /><linearGradient
     inkscape:collect="always"
     xlink:href="#linearGradient5718"
     id="linearGradient6344"
     gradientUnits="userSpaceOnUse"
     x1="3980.0288"
     y1="530.04456"
     x2="-538.38361"
     y2="530.04456" /><linearGradient
     inkscape:collect="always"
     xlink:href="#linearGradient5718"
     id="linearGradient6346"
     gradientUnits="userSpaceOnUse"
     x1="3980.0288"
     y1="530.04456"
     x2="-538.38361"
     y2="530.04456" /><linearGradient
     inkscape:collect="always"
     xlink:href="#linearGradient5718"
     id="linearGradient6348"
     gradientUnits="userSpaceOnUse"
     x1="3783.1174"
     y1="514.69495"
     x2="2640.4011"
     y2="427.97873" /></defs><sodipodi:namedview
   inkscape:current-layer="Layer_1"
   inkscape:window-maximized="1"
   inkscape:window-y="-9"
   inkscape:window-x="-9"
   inkscape:cy="65.407376"
   inkscape:cx="399.86887"
   inkscape:zoom="1.4142136"
   showgrid="false"
   id="namedview184"
   inkscape:window-height="1001"
   inkscape:window-width="1920"
   inkscape:pageshadow="2"
   inkscape:pageopacity="0"
   guidetolerance="10"
   gridtolerance="10"
   objecttolerance="10"
   borderopacity="1"
   bordercolor="#666666"
   pagecolor="#ffffff"
   inkscape:document-rotation="0"
   inkscape:pagecheckerboard="0" />

<g
   id="g153"
   transform="translate(426.01903,-160.51226)">
</g>
<g
   id="g155"
   transform="translate(426.01903,-160.51226)">
</g>
<g
   id="g157"
   transform="translate(426.01903,-160.51226)">
</g>
<g
   id="g159"
   transform="translate(426.01903,-160.51226)">
</g>
<g
   id="g161"
   transform="translate(426.01903,-160.51226)">
</g>
<g
   id="g163"
   transform="translate(426.01903,-160.51226)">
</g>
<g
   id="g165"
   transform="translate(426.01903,-160.51226)">
</g>
<g
   id="g167"
   transform="translate(426.01903,-160.51226)">
</g>
<g
   id="g169"
   transform="translate(426.01903,-160.51226)">
</g>
<g
   id="g171"
   transform="translate(426.01903,-160.51226)">
</g>
<g
   id="g173"
   transform="translate(426.01903,-160.51226)">
</g>
<g
   id="g175"
   transform="translate(426.01903,-160.51226)">
</g>
<g
   id="g177"
   transform="translate(426.01903,-160.51226)">
</g>
<g
   id="g179"
   transform="translate(426.01903,-160.51226)">
</g>
<g
   id="g181"
   transform="translate(426.01903,-160.51226)">
</g>
<g
   transform="matrix(0.40966502,0,0,0.39034802,519.73335,-11.024132)"
   style="fill:url(#linearGradient8694);fill-opacity:1;stroke:#0066ff;stroke-width:4.84023;stroke-miterlimit:4;stroke-dasharray:none;stroke-opacity:1"
   id="g263"><g
     style="fill:url(#linearGradient2186);fill-opacity:1;stroke:#0066ff;stroke-width:4.84023;stroke-miterlimit:4;stroke-dasharray:none;stroke-opacity:1"
     id="g261"><g
       style="fill:url(#linearGradient2184);fill-opacity:1;stroke:#0066ff;stroke-width:4.84023;stroke-miterlimit:4;stroke-dasharray:none;stroke-opacity:1"
       id="g259"><polygon
         style="fill:url(#linearGradient2174);fill-opacity:1;stroke:#0066ff;stroke-width:4.84023;stroke-miterlimit:4;stroke-dasharray:none;stroke-opacity:1"
         id="polygon249"
         points="182.1,288.9 136.7,210 45.4,210 0,288.9 45.4,367.7 136.7,367.7 " /><polygon
         style="fill:url(#linearGradient2176);fill-opacity:1;stroke:#0066ff;stroke-width:4.84023;stroke-miterlimit:4;stroke-dasharray:none;stroke-opacity:1"
         id="polygon251"
         points="290,121.5 199.2,121.5 153.7,200.3 199.2,279.2 290,279.2 335.8,200.3 " /><polygon
         style="fill:url(#linearGradient2178);fill-opacity:1;stroke:#0066ff;stroke-width:4.84023;stroke-miterlimit:4;stroke-dasharray:none;stroke-opacity:1"
         id="polygon253"
         points="199.2,298.6 153.7,377.4 199.2,456.6 290,456.6 335.8,377.4 290,298.6 " /><polygon
         style="fill:url(#linearGradient2180);fill-opacity:1;stroke:#0066ff;stroke-width:4.84023;stroke-miterlimit:4;stroke-dasharray:none;stroke-opacity:1"
         id="polygon255"
         points="136.7,190.6 182.1,111.8 136.7,32.6 45.4,32.6 0,111.8 45.4,190.6 " /><polygon
         style="fill:url(#linearGradient2182);fill-opacity:1;stroke:#0066ff;stroke-width:4.84023;stroke-miterlimit:4;stroke-dasharray:none;stroke-opacity:1"
         id="polygon257"
         points="352.5,32.6 307.1,111.4 352.5,190.6 443.8,190.6 489.2,111.8 443.8,32.6 " /></g></g></g><g
   transform="matrix(0.12870931,0,0,-0.12231395,0.98124763,133.03156)"
   fill="#000000"
   stroke="none"
   id="g4505"
   style="fill:url(#linearGradient5720);fill-opacity:1;stroke:#0049f8;stroke-width:15.2475;stroke-miterlimit:4;stroke-dasharray:none;stroke-opacity:1"><path
     d="m 220,1073 c 0,-4 24,-62 53,-130 L 325,820 H 528 730 V 540 260 L 399,258 67,255 34,140 C 16,77 0,19 0,13 0,3 102,0 475,0 c 462,0 476,1 495,20 19,19 20,33 20,540 v 520 H 605 c -212,0 -385,-3 -385,-7 z"
     id="path4499"
     style="fill:url(#linearGradient6344);fill-opacity:1;stroke:#0049f8;stroke-width:15.2475;stroke-miterlimit:4;stroke-dasharray:none;stroke-opacity:1" /><path
     d="m 1220,539 c 0,-349 3,-539 10,-537 5,1 145,122 310,268 166,146 305,265 309,265 5,0 144,-120 311,-267 166,-148 306,-268 311,-268 5,0 9,232 9,540 v 540 h -135 -135 l -2,-249 -3,-248 -178,159 -178,158 -160,-142 c -88,-79 -169,-149 -180,-157 -19,-13 -19,-8 -19,233 v 246 h -135 -135 z"
     id="path4501"
     style="fill:url(#linearGradient6346);fill-opacity:1;stroke:#0049f8;stroke-width:15.2475;stroke-miterlimit:4;stroke-dasharray:none;stroke-opacity:1" /><path
     d="m 2720,1053 c -20,-26 -21,-35 -18,-299 3,-251 4,-274 22,-293 19,-21 24,-21 493,-21 h 473 V 350 260 H 3251 2812 L 2758,133 2703,5 3308,2 c 553,-2 607,-1 624,14 17,16 18,39 18,335 0,317 0,318 -22,333 -20,14 -83,16 -490,16 h -468 v 60 60 h 439 l 448.7118,6.13176 56.4938,107.43784 c 41.2576,69.2876 79.745,141.2115 79.745,141.2115 C 3857.7576,1077.2691 3772,1080 3346,1080 h -605 z"
     id="path4503"
     style="fill:url(#linearGradient6348);fill-opacity:1;stroke:#0049f8;stroke-width:15.2475;stroke-miterlimit:4;stroke-dasharray:none;stroke-opacity:1"
     sodipodi:nodetypes="cccscccccccccscsccccccsscc" /></g><text
   xml:space="preserve"
   style="font-style:normal;font-variant:normal;font-weight:normal;font-stretch:normal;font-size:38.6667px;line-height:1.25;font-family:sans-serif;-inkscape-font-specification:sans-serif;white-space:pre;inline-size:600.632;fill:#ffffff;fill-opacity:1;stroke:none"
   x="0.70710695"
   y="209.30362"
   id="text9140"
   transform="translate(2.8284271,-38.110153)"><tspan
     x="0.70710695"
     y="209.30362"
     id="tspan1175">JunTech Web Solutions Aruba </tspan></text></svg>
