<?xml version="1.0" encoding="utf-8"?>
<!-- Generator: Adobe Illustrator 24.1.2, SVG Export Plug-In . SVG Version: 6.00 Build 0)  -->
<svg version="1.1" id="Warstwa_3" xmlns="http://www.w3.org/2000/svg" xmlns:xlink="http://www.w3.org/1999/xlink" x="0px" y="0px"
	 viewBox="0 0 430 430" style="enable-background:new 0 0 430 430;" xml:space="preserve">
<style type="text/css">
	.st0{fill:#121331;}
	.st1{fill:#08A88A;}
	.st2{fill:none;stroke:#08A88A;stroke-width:12.25;stroke-miterlimit:14;}
	.st3{fill-opacity:0;}
	.st4{fill:#131432;}
	.st5{fill:none;}
</style>
<g>
	<path class="st1" d="M96.56,160.36c-0.88,0-1.77-0.18-2.62-0.57L38.3,134.33c-3.16-1.45-4.56-5.19-3.11-8.35
		c1.45-3.16,5.19-4.55,8.35-3.11l55.64,25.46c3.16,1.45,4.56,5.19,3.11,8.35C101.23,159,98.94,160.36,96.56,160.36z M124.84,130.44
		c-1.61,0-3.22-0.61-4.45-1.85L79.02,87.23c-2.46-2.46-2.46-6.45,0-8.91c2.46-2.46,6.45-2.46,8.91,0l41.37,41.37
		c2.46,2.46,2.46,6.45,0,8.91C128.07,129.82,126.46,130.44,124.84,130.44z M154.19,102.51c-2.42,0-4.73-1.41-5.77-3.77L123.67,42.4
		c-1.4-3.19,0.05-6.9,3.23-8.3c3.19-1.4,6.9,0.05,8.3,3.23l24.75,56.34c1.4,3.19-0.05,6.9-3.23,8.3
		C155.9,102.34,155.04,102.51,154.19,102.51z"/>
	<path class="st1" d="M300.56,396.44c-2.42,0-4.73-1.41-5.77-3.77l-24.75-56.34c-1.4-3.19,0.05-6.9,3.23-8.3s6.9,0.05,8.3,3.23
		l24.75,56.34c1.4,3.19-0.05,6.9-3.23,8.3C302.27,396.27,301.41,396.44,300.56,396.44z M346.52,353.53c-1.61,0-3.22-0.61-4.45-1.85
		l-41.37-41.37c-2.46-2.46-2.46-6.45,0-8.91c2.46-2.46,6.45-2.46,8.91,0l41.37,41.37c2.46,2.46,2.46,6.45,0,8.91
		C349.75,352.91,348.13,353.53,346.52,353.53z M389.07,307.7c-0.88,0-1.77-0.18-2.62-0.57l-55.64-25.46
		c-3.16-1.45-4.56-5.19-3.11-8.35c1.45-3.16,5.19-4.55,8.35-3.11l55.64,25.46c3.16,1.45,4.56,5.19,3.11,8.35
		C393.75,306.33,391.46,307.7,389.07,307.7z"/>
	<path class="st0" d="M137.48,383.43c-0.52,0-1.04,0-1.56-0.01c-23.42-0.4-45.59-9.89-62.42-26.71l-0.28-0.28
		c-34.83-34.8-35.82-90.53-2.19-124.24l56.53-56.67c2.46-2.46,6.45-2.47,8.91-0.01c2.46,2.46,2.47,6.45,0.01,8.91l-56.53,56.67
		c-28.72,28.79-27.74,76.53,2.18,106.43l0.28,0.28c14.51,14.5,33.6,22.68,53.74,23.02c20.05,0.34,38.73-7.12,52.6-21.02l56.53-56.67
		c2.46-2.46,6.45-2.47,8.91-0.01c2.46,2.46,2.47,6.45,0.01,8.91l-56.53,56.67C181.71,374.68,160.39,383.43,137.48,383.43z
		 M298.88,255.42c-1.61,0-3.22-0.61-4.45-1.84c-2.46-2.46-2.47-6.45-0.01-8.91L350.95,188c28.72-28.79,27.74-76.53-2.18-106.43
		l-0.29-0.29c-14.51-14.5-33.59-22.67-53.73-23.02c-20.04-0.32-38.73,7.12-52.6,21.02l-56.53,56.67c-2.46,2.46-6.45,2.47-8.91,0.01
		c-2.46-2.46-2.47-6.45-0.01-8.91l56.53-56.67c16.31-16.35,38.22-25.13,61.74-24.72c23.42,0.4,45.59,9.89,62.42,26.71l0.29,0.29
		c34.83,34.8,35.81,90.53,2.19,124.24l-56.53,56.67C302.11,254.8,300.5,255.42,298.88,255.42z"/>
</g>
</svg>
