<svg xmlns="http://www.w3.org/2000/svg" xmlns:svg="http://www.w3.org/2000/svg" xmlns:xlink="http://www.w3.org/1999/xlink" id="svg1706" width="708.559" height="597.115" version="1.1" viewBox="0 0 187.473 157.987"><style id="style1402">.G{fill:#007cff}.H{fill:#fff}.I{opacity:.5}.J{fill:#1a2e35}</style><defs id="defs1456"><clipPath id="A"><path id="path1404" d="M0 500h500V0H0z"/></clipPath><clipPath id="B"><path id="path1407" d="M315.607 418.512h95.763V222.469h-95.763z"/></clipPath><clipPath id="C"><path id="path1410" d="M0 500h500V0H0z"/></clipPath><clipPath id="D"><path id="path1413" d="M203.102 429.668h95.764v-196.04h-95.764z"/></clipPath><clipPath id="E"><path id="path1416" d="M241.505 362.442h17.018v-17.018h-17.018z"/></clipPath><clipPath id="F"><path id="path1419" d="M289.295 418.915h9.642v-22.834h-9.642z"/></clipPath><clipPath id="G"><path id="path1422" d="M279.654 443.173h28.806v-30.002h-28.806z"/></clipPath><clipPath id="H"><path id="path1425" d="M0 500h500V0H0z"/></clipPath><clipPath id="I"><path id="path1428" d="M88.63 418.512h95.763V222.469H88.63z"/></clipPath><clipPath id="J"><path id="path1431" d="M126.576 317.841h17.018v-17.018h-17.018z"/></clipPath><clipPath id="K"><path id="path1434" d="M126.576 351.284h17.018v-17.018h-17.018z"/></clipPath><path id="L" d="M347.948 398.684v-1.48a1.97 1.97 0 0 1-.36.038c-1.182 0-1.928-.697-1.928-2.053v-3.22h-1.555v6.64h1.48v-.969c.448.696 1.257 1.044 2.363 1.044"/><path id="M" d="M383.477 232.881h-39.978c-5.436 0-9.843 4.407-9.843 9.844v.745c0 5.436 4.407 9.844 9.843 9.844h39.978c5.436 0 9.843-4.408 9.843-9.844v-.745c0-5.437-4.407-9.844-9.843-9.844"/><path id="N" d="M370.658 342.86a8.6 8.6 0 0 0-8.597-8.597 8.6 8.6 0 0 0-8.596 8.597 8.6 8.6 0 0 0 8.596 8.597 8.6 8.6 0 0 0 8.597-8.597"/><path id="O" d="M350.787 383.785l1.609-2.573 2.944-.735-1.95-2.325.211-3.028-2.814 1.137-2.814-1.137.211 3.028-1.95 2.325 2.944.735z"/><path id="P" d="M240.531 405.204v.771h-1.604c-1.057 0-1.343-.398-1.343-.883 0-.559.472-.92 1.268-.92.759 0 1.418.348 1.679 1.032m1.555 1.816v-3.893h-1.468v.808c-.373-.571-1.094-.895-2.089-.895-1.517 0-2.475.833-2.475 1.99 0 1.107.747 1.977 2.761 1.977h1.716v.1c0 .908-.547 1.442-1.654 1.442-.746 0-1.517-.248-2.014-.658l-.61 1.131c.709.547 1.741.821 2.811.821 1.915 0 3.022-.908 3.022-2.823"/><path id="Q" d="M257.631 406.447c0 1.269-.858 2.077-1.978 2.077s-1.977-.808-1.977-2.077.858-2.077 1.977-2.077 1.978.808 1.978 2.077m1.53 5.907v-9.227h-1.493v.858c-.522-.635-1.293-.945-2.201-.945-1.927 0-3.357 1.343-3.357 3.407s1.43 3.395 3.357 3.395c.858 0 1.617-.286 2.139-.895v3.407z"/><path id="R" d="M258.524 353.933a8.51 8.51 0 0 0-8.509-8.509 8.51 8.51 0 0 0-8.509 8.509 8.51 8.51 0 0 0 8.509 8.509 8.51 8.51 0 0 0 8.509-8.509"/><path id="S" d="M296.468 441.727h0a2.73 2.73 0 0 1 3.605-1.171c1.966.955 4.203-.67 3.901-2.835-.202-1.455.782-2.81 2.229-3.067 2.152-.382 3.007-3.011 1.49-4.586-1.019-1.058-1.019-2.733 0-3.791 1.517-1.574.662-4.204-1.49-4.586-1.447-.257-2.431-1.612-2.229-3.067.302-2.166-1.935-3.791-3.901-2.834a2.73 2.73 0 0 1-3.605-1.172c-1.029-1.929-3.793-1.929-4.822 0-.692 1.297-2.284 1.814-3.606 1.172-1.966-.957-4.202.668-3.901 2.834a2.73 2.73 0 0 1-2.228 3.067c-2.152.382-3.007 3.012-1.49 4.586 1.019 1.058 1.019 2.733 0 3.791-1.517 1.575-.662 4.204 1.49 4.586a2.73 2.73 0 0 1 2.228 3.067c-.301 2.165 1.935 3.79 3.901 2.835 1.322-.643 2.914-.125 3.606 1.171 1.029 1.929 3.793 1.929 4.822 0"/><path id="T" d="M184.393 408.894v-38.878H88.63v38.878a9.62 9.62 0 0 0 9.621 9.616h76.521a9.62 9.62 0 0 0 9.621-9.616"/><path id="U" d="M387.178 293.112h-49.434v2h49.434z"/><path id="V" d="M370.658 311.126a8.6 8.6 0 0 0-8.597-8.597 8.6 8.6 0 0 0-8.596 8.597 8.6 8.6 0 0 0 8.596 8.597 8.6 8.6 0 0 0 8.597-8.597"/><path id="W" d="M254.823 356.457l-7.333-7.333-2.285 2.285 7.333 7.333z"/><path id="X" d="M247.49 358.742l7.333-7.333-2.285-2.285-7.333 7.333z"/><path id="Y" d="M143.594 309.333a8.51 8.51 0 0 0-8.509-8.509 8.51 8.51 0 0 0-8.509 8.509 8.51 8.51 0 0 0 8.509 8.509 8.51 8.51 0 0 0 8.509-8.509"/><path id="Z" d="M58.031 134.649a7.779 7.779 0 0 1-.177 1.529s-11.705.847-15.372.564c-1.765-.135-2.514-.794-2.646-1.423-.161.725.479 1.68 2.646 1.852 3.667.283 15.372-.564 15.372-.564a8.149 8.149 0 0 0 .177-1.958z"/><path id="a" d="M370.658 277.1a8.6 8.6 0 0 0-8.597-8.597 8.6 8.6 0 0 0-8.596 8.597 8.6 8.6 0 0 0 8.596 8.597 8.6 8.6 0 0 0 8.597-8.597"/><path id="b" d="M139.894 311.856l-7.333-7.333-2.285 2.285 7.333 7.333z"/><path id="c" d="M132.561 314.141l7.333-7.333-2.285-2.285-7.333 7.333z"/><path id="d" d="M143.594 342.774a8.51 8.51 0 0 0-8.509-8.509 8.51 8.51 0 0 0-8.509 8.509 8.51 8.51 0 0 0 8.509 8.509 8.51 8.51 0 0 0 8.509-8.509"/></defs><g id="g1676" transform="matrix(.352778 0 0 -.352778 17.94141 236.46932)"><g id="g1520" clip-path="url(#A)"><path id="path1458" d="M392.741 222.47h-58.505c-10.289 0-18.629 8.34-18.629 18.628v158.786c0 10.288 8.34 18.628 18.629 18.628h58.505a18.63 18.63 0 0 0 18.628-18.628V241.098a18.63 18.63 0 0 0-18.628-18.628" class="G"/><g id="g1462" clip-path="url(#B)" opacity=".3"><path id="path1460" d="M392.949 418.512h-58.922c-10.174 0-18.42-8.247-18.42-18.42V240.889c0-10.172 8.246-18.419 18.42-18.419h58.922c10.173 0 18.42 8.247 18.42 18.419v159.203c0 10.173-8.247 18.42-18.42 18.42"/></g><path id="path1464" d="M411.37 408.894v-38.878h-95.763v38.878a9.62 9.62 0 0 0 9.621 9.616h76.521a9.62 9.62 0 0 0 9.621-9.616" class="G"/><g id="g1472" class="H"><path id="path1466" d="M341.07 397.577c0 1.095-.733 1.729-2.151 1.729h-1.891v-3.458h1.891c1.418 0 2.151.635 2.151 1.729m1.629 0c0-1.915-1.418-3.096-3.706-3.096h-1.965v-2.512h-1.616v8.705h3.581c2.288 0 3.706-1.169 3.706-3.097"/><use id="use1468" xlink:href="#L"/><path id="path1470" d="M350.199 395.824h3.768c-.124.958-.858 1.617-1.878 1.617-1.007 0-1.741-.647-1.89-1.617m5.223-1.032h-5.211c.187-.97.995-1.592 2.152-1.592.746 0 1.331.236 1.803.722l.833-.958c-.597-.709-1.529-1.082-2.674-1.082-2.226 0-3.668 1.43-3.668 3.407s1.455 3.395 3.432 3.395c1.94 0 3.358-1.355 3.358-3.432a6.65 6.65 0 0 0-.025-.46m12.623.982v-3.805h-1.555v3.606c0 1.181-.547 1.754-1.492 1.754-1.019 0-1.728-.672-1.728-1.99v-3.37h-1.555v3.606c0 1.181-.547 1.754-1.492 1.754-1.032 0-1.729-.672-1.729-1.99v-3.37h-1.554v6.64h1.48v-.845c.497.597 1.268.92 2.176.92.97 0 1.778-.36 2.239-1.107.534.684 1.43 1.107 2.486 1.107 1.605 0 2.724-.908 2.724-2.91m1.991 2.835h1.555v-6.641h-1.555zm-.212 2.028c0 .522.423.932.996.932s.994-.385.994-.895c0-.547-.41-.97-.994-.97-.573 0-.996.41-.996.933m10.235-2.028v-6.641h-1.48v.846c-.498-.609-1.281-.933-2.139-.933-1.704 0-2.86.933-2.86 2.935v3.793h1.554v-3.582c0-1.206.572-1.778 1.555-1.778 1.082 0 1.815.672 1.815 2.003v3.357zm13.146-2.835v-3.805h-1.555v3.606c0 1.181-.547 1.754-1.492 1.754-1.019 0-1.728-.672-1.728-1.99v-3.37h-1.555v3.606c0 1.181-.547 1.754-1.492 1.754-1.032 0-1.729-.672-1.729-1.99v-3.37H382.1v6.64h1.48v-.845c.497.597 1.268.92 2.176.92.97 0 1.778-.36 2.239-1.107.534.684 1.43 1.107 2.486 1.107 1.605 0 2.724-.908 2.724-2.91"/></g><use id="use1474" class="G" xlink:href="#M"/><path id="path1476" d="M345.751 241.169c0 .404-.321.656-.81.838l-.377-1.913c.754.153 1.187.544 1.187 1.075m-1.732 3.241l.405 2.011c-.796-.153-1.243-.586-1.257-1.117 0-.434.349-.685.852-.894m3.995-2.879c0-1.857-1.494-3.1-3.827-3.296l-.308-1.537h-1.397l.308 1.537c-1.328.126-2.501.544-3.213 1.076l.935 1.732c.741-.545 1.676-.894 2.641-.992l.475 2.361c-1.299.391-2.725.907-2.725 2.599 0 1.857 1.523 3.114 3.898 3.283l.307 1.536h1.397l-.307-1.551c.992-.097 1.9-.378 2.571-.796l-.852-1.732c-.601.404-1.328.643-2.082.727l-.489-2.459c1.285-.377 2.668-.88 2.668-2.488" class="H"/><path id="path1478" d="M337.744 294.112h49.434"/><use id="use1480" class="G" xlink:href="#U"/><path id="path1482" d="M337.744 326.952h49.434"/><path id="path1484" d="M387.178 325.952h-49.434v2h49.434z" class="G"/><path id="path1486" d="M337.744 358.604h49.434"/><g id="g1492" class="G"><path id="path1488" d="M387.178 357.604h-49.434v2h49.434z"/><use id="use1490" xlink:href="#N"/></g><g id="g1498" class="H"><path id="path1494" d="M368.215 344.72l-4.946-4.946-2.306-2.31-2.311 2.31 2.307 2.306 4.945 4.95z"/><path id="path1496" d="M363.269 339.774l-2.306-2.311-4.9 4.9 2.307 2.307 2.589-2.59z"/></g><use id="use1500" class="G" xlink:href="#V"/><g id="g1506" class="H"><path id="path1502" d="M368.215 312.985l-4.946-4.945-2.306-2.311-2.311 2.311 2.307 2.306 4.945 4.95z"/><path id="path1504" d="M363.269 308.04l-2.306-2.311-4.9 4.9 2.307 2.306 2.589-2.589z"/></g><use id="use1508" class="G" xlink:href="#a"/><g id="g1518" class="H"><path id="path1510" d="M368.215 278.96l-4.946-4.946-2.306-2.31-2.311 2.31 2.307 2.307 4.945 4.95z"/><path id="path1512" d="M363.269 274.014l-2.306-2.31-4.9 4.899 2.307 2.307 2.589-2.589z"/><use id="use1514" xlink:href="#O"/><path id="path1516" d="M362.062 383.785l1.609-2.573 2.944-.735-1.95-2.325.211-3.028-2.814 1.137-2.814-1.137.211 3.028-1.95 2.325 2.944.735zm11.274 0l1.608-2.573 2.945-.735-1.95-2.325.211-3.028-2.814 1.137-2.814-1.137.211 3.028-1.95 2.325 2.944.735z"/></g></g><g id="g1608" clip-path="url(#C)"><path id="path1522" d="M280.235 233.628H221.73c-10.289 0-18.629 8.34-18.629 18.628v158.786c0 10.288 8.34 18.628 18.629 18.628h58.505c10.288 0 18.628-8.34 18.628-18.628V252.256c0-10.288-8.34-18.628-18.628-18.628" class="G"/><g id="g1526" class="H I" clip-path="url(#D)"><path id="path1524" d="M279.613 429.669H222.35c-10.63 0-19.248-8.618-19.248-19.248v-157.54c0-10.633 8.62-19.253 19.253-19.253h57.258c10.633 0 19.252 8.62 19.252 19.253v157.535c0 10.633-8.619 19.253-19.252 19.253"/></g><path id="path1528" d="M298.865 420.052v-38.877h-95.763v38.877a9.62 9.62 0 0 0 9.621 9.616h76.521a9.62 9.62 0 0 0 9.621-9.616" class="G"/><g id="g1540" class="H"><path id="path1530" d="M222.846 404.047l.56 1.256c.696-.56 1.803-.958 2.873-.958 1.355 0 1.927.485 1.927 1.132 0 1.878-5.173.647-5.173 3.88 0 1.405 1.119 2.599 3.507 2.599 1.044 0 2.139-.274 2.897-.771l-.509-1.256c-.784.46-1.642.684-2.401.684-1.343 0-1.89-.523-1.89-1.181 0-1.853 5.161-.647 5.161-3.843 0-1.393-1.132-2.587-3.519-2.587-1.356 0-2.711.423-3.433 1.045m12.399-.559c-.373-.299-.933-.448-1.492-.448-1.455 0-2.289.771-2.289 2.239v3.196h-1.094v1.243h1.094v1.518h1.555v-1.518h1.778v-1.243h-1.778v-3.159c0-.647.323-.995.92-.995.324 0 .635.087.871.273z"/><use id="use1532" xlink:href="#P"/><path id="path1534" d="M250.617 406.932v-3.805h-1.555v3.606c0 1.181-.584 1.754-1.579 1.754-1.107 0-1.853-.672-1.853-2.002v-3.358h-1.555v6.64h1.48v-.857c.51.609 1.319.932 2.289.932 1.591 0 2.773-.908 2.773-2.91"/><use id="use1536" xlink:href="#Q"/><path id="path1538" d="M265.205 405.204v.771h-1.604c-1.057 0-1.343-.398-1.343-.883 0-.559.472-.92 1.268-.92.759 0 1.418.348 1.679 1.032m1.555 1.816v-3.893h-1.468v.808c-.373-.571-1.094-.895-2.089-.895-1.517 0-2.475.833-2.475 1.99 0 1.107.747 1.977 2.761 1.977h1.716v.1c0 .908-.547 1.442-1.654 1.442-.746 0-1.517-.248-2.014-.658l-.61 1.131c.709.547 1.741.821 2.811.821 1.915 0 3.022-.908 3.022-2.823m5.833 2.822v-1.48a1.97 1.97 0 0 1-.36.038c-1.182 0-1.928-.697-1.928-2.053v-3.22h-1.555v6.64h1.48v-.969c.448.696 1.257 1.044 2.363 1.044m6.23-3.395c0 1.269-.858 2.077-1.978 2.077s-1.977-.808-1.977-2.077.858-2.077 1.977-2.077 1.978.808 1.978 2.077m1.53 5.907v-9.227h-1.493v.858c-.522-.635-1.293-.945-2.201-.945-1.927 0-3.357 1.343-3.357 3.407s1.43 3.395 3.357 3.395c.858 0 1.617-.286 2.139-.895v3.407z"/></g><path id="path1542" d="M271.781 244.039h-39.978c-5.436 0-9.843 4.407-9.843 9.844v.745c0 5.436 4.407 9.844 9.843 9.844h39.978c5.436 0 9.843-4.408 9.843-9.844v-.745c0-5.437-4.407-9.844-9.843-9.844" class="G"/><path id="path1544" d="M226.047 305.271h49.434"/><path id="path1546" d="M275.481 304.271h-49.434v2h49.434z" class="G"/><path id="path1548" d="M226.047 338.11h49.434"/><path id="path1550" d="M275.481 337.11h-49.434v2h49.434z" class="G"/><path id="path1552" d="M226.047 369.763h49.434"/><g id="g1556" class="G"><path id="path1554" d="M275.481 368.763h-49.434v2h49.434zm-16.87-46.479a8.6 8.6 0 0 0-8.597-8.597 8.6 8.6 0 0 0-8.596 8.597 8.6 8.6 0 0 0 8.596 8.597 8.6 8.6 0 0 0 8.597-8.597"/></g><g id="g1562" class="H"><path id="path1558" d="M256.167 324.144l-4.945-4.946-2.307-2.31-2.31 2.31 2.306 2.306 4.946 4.95z"/><path id="path1560" d="M251.222 319.198l-2.307-2.311-4.899 4.9 2.307 2.307 2.588-2.59z"/></g><path id="path1564" d="M259.361 288.258a8.6 8.6 0 0 0-8.597-8.597 8.6 8.6 0 0 0-8.596 8.597 8.6 8.6 0 0 0 8.596 8.597 8.6 8.6 0 0 0 8.597-8.597" class="G"/><g id="g1570" class="H"><path id="path1566" d="M256.917 290.118l-4.946-4.945-2.306-2.311-2.31 2.311 2.306 2.306 4.945 4.95z"/><path id="path1568" d="M251.971 285.172l-2.307-2.311-4.899 4.9 2.307 2.306 2.589-2.589z"/></g><use id="use1572" class="J" xlink:href="#R"/><g id="g1582" class="H"><g id="g1576" class="I" clip-path="url(#E)"><use id="use1574" xlink:href="#R"/></g><use id="use1578" xlink:href="#W"/><use id="use1580" xlink:href="#X"/></g><g id="g1588" class="G"><path id="path1584" d="M289.3 418.912v-22.826l4.816 4.817v18.009z"/><path id="path1586" d="M298.933 418.912v-22.826l-4.817 4.817v18.009z"/></g><g id="g1592" clip-path="url(#F)" opacity=".3"><path id="path1590" d="M298.937 418.915v-22.833l-4.816 4.826-4.826-4.826v22.833z"/></g><g id="g1598" class="G"><use id="use1594" xlink:href="#S"/><use id="use1596" xlink:href="#S"/></g><g id="g1606" class="H"><g id="g1602" class="I" clip-path="url(#G)"><use id="use1600" xlink:href="#S"/></g><path id="path1604" d="M289.731 431.035h-1.238a1.13 1.13 0 0 1-1.116-1.06l-.299-5.713c-.031-.585.42-1.06 1.004-1.06h1.238a1.13 1.13 0 0 1 1.115 1.06l.299 5.713c.031.585-.419 1.06-1.003 1.06m9.889 0h-2.905l.809 1.902c.088.207.121.431.096.648l-.171 1.5a1.19 1.19 0 0 1-1.182 1.054h-1.447a7.29 7.29 0 0 0-1.567-4.146l-.889-1.122a1.8 1.8 0 0 1-.391-1.019l-.28-5.344a1.23 1.23 0 0 1 1.239-1.306h5.069c.445 0 .877.196 1.184.537l.473.525c.187.208.316.46.378.732l.967 4.311c.09.4.002.819-.24 1.149a1.42 1.42 0 0 1-1.143.579m-49.606-34.949l1.609-2.573 2.944-.735-1.95-2.325.211-3.028-2.814 1.137-2.814-1.137.211 3.028-1.95 2.325 2.945.735zm-15.653-143.789c0 .404-.322.656-.811.838l-.376-1.914c.753.154 1.187.545 1.187 1.076m-1.732 3.24l.404 2.012c-.796-.153-1.243-.586-1.256-1.117 0-.434.349-.685.852-.895m3.995-2.878c0-1.857-1.494-3.1-3.828-3.296l-.307-1.537h-1.397l.307 1.537c-1.327.125-2.5.544-3.213 1.076l.936 1.732c.74-.545 1.676-.894 2.64-.992l.475 2.36c-1.298.392-2.724.908-2.724 2.6 0 1.857 1.523 3.114 3.898 3.283l.307 1.536h1.397l-.307-1.552c.992-.096 1.9-.377 2.57-.796l-.851-1.731c-.602.404-1.328.643-2.083.726l-.488-2.458c1.285-.378 2.668-.881 2.668-2.488"/></g></g><g id="g1674" clip-path="url(#H)"><path id="path1610" d="M165.764 222.47h-58.505c-10.288 0-18.629 8.34-18.629 18.628v158.786c0 10.288 8.341 18.628 18.629 18.628h58.505c10.289 0 18.629-8.34 18.629-18.628V241.098c0-10.288-8.34-18.628-18.629-18.628" class="J"/><g id="g1614" class="H" clip-path="url(#I)" opacity=".7"><path id="path1612" d="M165.476 418.512h-57.928c-10.447 0-18.917-8.47-18.917-18.917V241.387a18.92 18.92 0 0 1 18.917-18.917h57.928a18.92 18.92 0 0 1 18.917 18.917v158.208a18.92 18.92 0 0 1-18.917 18.917"/></g><g id="g1620" class="G"><use id="use1616" xlink:href="#T"/><use id="use1618" xlink:href="#T"/></g><g id="g1624" class="H"><path id="path1622" d="M127.015 394.493c0 .871-.659 1.256-1.878 1.256h-2.611v-2.512h2.611c1.219 0 1.878.385 1.878 1.256m-4.489 4.912v-2.4h2.288c1.119 0 1.753.398 1.753 1.194 0 .808-.634 1.206-1.753 1.206zm6.118-5.074c0-1.492-1.169-2.362-3.407-2.362h-4.328v8.705h4.079c2.089 0 3.209-.883 3.209-2.264 0-.895-.448-1.554-1.12-1.915.933-.298 1.567-1.032 1.567-2.164m5.584-.286v.771h-1.604c-1.057 0-1.343-.398-1.343-.883 0-.559.472-.92 1.268-.92.759 0 1.418.348 1.679 1.032m1.555 1.816v-3.893h-1.468v.808c-.373-.571-1.094-.895-2.089-.895-1.517 0-2.475.833-2.475 1.99 0 1.107.747 1.977 2.761 1.977h1.716v.1c0 .908-.547 1.442-1.654 1.442-.746 0-1.517-.248-2.014-.658l-.61 1.131c.709.547 1.741.821 2.811.821 1.915 0 3.022-.908 3.022-2.823m1.231-3.233l.597 1.181c.584-.385 1.48-.659 2.313-.659.983 0 1.393.274 1.393.734 0 1.268-4.104.075-4.104 2.723 0 1.256 1.132 2.077 2.922 2.077.883 0 1.891-.211 2.487-.572l-.596-1.181c-.635.373-1.269.497-1.903.497-.945 0-1.393-.311-1.393-.746 0-1.343 4.104-.149 4.104-2.748 0-1.244-1.144-2.052-3.009-2.052-1.107 0-2.214.323-2.811.746m7.164 5.981h1.555v-6.641h-1.555zm-.211 2.028c0 .522.422.932.995.932s.994-.385.994-.895c0-.547-.41-.97-.994-.97-.573 0-.995.41-.995.933m3.258-5.348c0 1.99 1.492 3.395 3.594 3.395 1.293 0 2.325-.535 2.835-1.542l-1.194-.696c-.398.634-.994.92-1.653.92-1.144 0-2.015-.796-2.015-2.077 0-1.293.871-2.077 2.015-2.077.659 0 1.255.286 1.653.921l1.194-.697c-.51-.995-1.542-1.554-2.835-1.554-2.102 0-3.594 1.417-3.594 3.407"/></g><use id="use1626" class="J" xlink:href="#Y"/><g id="g1636" class="H"><g id="g1630" class="I" clip-path="url(#J)"><use id="use1628" xlink:href="#Y"/></g><use id="use1632" xlink:href="#b"/><use id="use1634" xlink:href="#c"/></g><path id="path1638" d="M144.081 277.887a8.6 8.6 0 0 0-8.597-8.596c-4.748 0-8.596 3.848-8.596 8.596a8.6 8.6 0 0 0 8.596 8.597 8.6 8.6 0 0 0 8.597-8.597" class="G"/><g id="g1644" class="H"><path id="path1640" d="M141.637 279.747l-4.946-4.946-2.306-2.31-2.311 2.31 2.307 2.307 4.945 4.949z"/><path id="path1642" d="M136.692 274.801l-2.307-2.31-4.899 4.899 2.307 2.307 2.589-2.589z"/></g><path id="path1646" d="M156.501 232.881h-39.978c-5.436 0-9.843 4.407-9.843 9.844v.745c0 5.436 4.407 9.844 9.843 9.844h39.978c5.437 0 9.843-4.408 9.843-9.844v-.745c0-5.437-4.406-9.844-9.843-9.844" class="G"/><path id="path1648" d="M117.348 240.8c0 .404-.322.656-.811.838l-.376-1.914c.753.154 1.187.545 1.187 1.076m-1.732 3.24l.404 2.012c-.796-.153-1.242-.586-1.256-1.117 0-.434.349-.685.852-.895m3.995-2.878c0-1.857-1.494-3.1-3.828-3.296l-.307-1.537h-1.397l.308 1.537c-1.328.126-2.501.544-3.214 1.076l.936 1.732c.74-.545 1.676-.894 2.64-.992l.475 2.361c-1.298.391-2.724.907-2.724 2.599 0 1.857 1.523 3.114 3.898 3.283l.307 1.536h1.397l-.307-1.551c.992-.097 1.9-.378 2.57-.796l-.851-1.732c-.602.404-1.328.643-2.083.727l-.488-2.459c1.285-.378 2.668-.88 2.668-2.488" class="H"/><path id="path1650" d="M110.767 294.112h49.434"/><path id="path1652" d="M160.201 293.112h-49.434v2h49.434z" class="G"/><path id="path1654" d="M110.767 326.952h49.434"/><path id="path1656" d="M160.201 325.952h-49.434v2h49.434z" class="G"/><path id="path1658" d="M110.767 358.604h49.434"/><path id="path1660" d="M160.201 357.604h-49.434v2h49.434z" class="G"/><use id="use1662" class="J" xlink:href="#d"/><g id="g1672" class="H"><g id="g1666" class="I" clip-path="url(#K)"><use id="use1664" xlink:href="#d"/></g><path id="path1668" d="M139.894 345.299l-7.333-7.333-2.285 2.285 7.333 7.333z"/><path id="path1670" d="M132.561 347.584l7.333-7.333-2.285-2.285-7.333 7.333z"/></g></g></g><path id="path1678" fill="#f7df1e" d="M130.754 27.474h56.72v53.01h-56.72z"/><path id="path1680" d="M136.255 64.156l5.329-3.225c1.029 1.823 1.963 3.366 4.207 3.366 2.151 0 3.506-.841 3.506-4.112V37.936h6.543v22.339c0 6.776-3.969 9.861-9.768 9.861-5.233 0-8.271-2.712-9.813-5.982m23.135-.701l5.326-3.085c1.402 2.291 3.225 3.969 6.451 3.969 2.712 0 4.44-1.355 4.44-3.225 0-2.244-1.775-3.037-4.763-4.347l-1.635-.701c-4.72-2.008-7.853-4.532-7.853-9.861 0-4.908 3.739-8.647 9.581-8.647 4.159 0 7.144 1.45 9.3 5.233l-5.093 3.273c-1.122-2.011-2.336-2.805-4.207-2.805-1.916 0-3.133 1.214-3.133 2.805 0 1.963 1.214 2.757 4.019 3.969l1.635.701c5.556 2.381 8.694 4.813 8.694 10.282 0 5.89-4.628 9.115-10.848 9.115-6.085 0-10.001-2.91-11.906-6.683" style="fill:#fff"/><path id="path1682" fill="#e44d26" d="M44.257 62.168l-4.032 45.164-18.124 5.027-18.074-5.027L0 62.168z"/><path id="path1684" fill="#f16529" d="M22.127 108.518l14.645-4.059 3.44-38.597H22.128z"/><path id="path1686" fill="#ebebeb" d="M14.29 76.943h7.837v-5.54H8.236l.132 1.487 1.363 15.266h12.398v-5.54h-7.332zm1.259 13.983H9.993l.775 8.7 11.335 3.159h.026v-5.781h-.024l-6.17-1.667z"/><path id="path1688" d="M4.119 49.892h2.815v2.781h2.574v-2.781h2.815v8.424H9.508v-2.82H6.934v2.82H4.119zm11.906 2.794h-2.479v-2.794h7.773v2.794H18.84v5.63h-2.813v-5.63h0zm6.53-2.794h2.937l1.807 2.961 1.804-2.961h2.937v8.424h-2.805v-4.175l-1.937 2.995h-.048l-1.939-2.995v4.175h-2.757zm10.885 0h2.815v5.638h3.969v2.783h-6.776v-8.422z" style="fill:#fff"/><path id="path1690" d="M22.108 88.156h6.821l-.643 7.186-6.178 1.667v5.776l11.359-3.149.082-.937 1.302-14.586.135-1.487H22.109v5.54zm0-11.226v.013h13.383l.111-1.246.265-2.81.132-1.487H22.108v5.527z" class="H"/><path id="path1692" fill="#264de4" d="M85.881 75.846L63.937 69.76l-4.89-54.848h53.734l-4.895 54.84z"/><path id="path1694" fill="#2965f1" d="M103.695 66.262l4.183-46.863h-21.96v51.782z"/><path id="path1696" fill="#ebebeb" d="M70.271 39.733l.603 6.726h15.055v-6.726zm-1.212-13.615l.611 6.726h16.256v-6.726h-16.88zm16.867 31.086h-.029l-7.493-2.024-.479-5.366H71.16l.942 10.562 13.779 3.834h.032z"/><path id="path1698" d="M71.694 0h8.147v3.408H75.1v3.408h4.741v3.408h-8.147zm9.79 0h8.147v2.963h-4.752v.593h4.741v6.816h-8.149V7.26h4.741v-.593h-4.741V0zm9.79 0h8.147v2.963h-4.765v.593h4.741v6.816h-8.15V7.26h4.741v-.593h-4.741V0z" style="fill:#fff"/><g id="g1704" stroke="#f4f7fb" stroke-width=".265" class="H" transform="matrix(1 0 0 .999839 59.09486 .016179)"><path id="path1700" d="M42.482 39.733l1.214-13.615H26.834v6.726h9.48l-.611 6.879h-8.869v6.726h8.284l-.794 8.731-7.49 2.029v6.998l13.79-3.823.101-1.138 1.587-17.711.164-1.807z"/><use id="use1702" opacity=".3" xlink:href="#Z"/></g></svg>