<svg xmlns="http://www.w3.org/2000/svg" width="500" height="500" style="width: 100%; height: 100%; content-visibility: visible;"><defs><clipPath id="a"><path d="M0 0h500v500H0z" class="OVOdqSdB_0"></path></clipPath></defs><g display="block" clip-path="url(#a)"><path stroke-linecap="round" stroke-linejoin="round" stroke="#2F80E8" stroke-width="12.04" d="M73.667 250.315c0 10.835 8.783 19.618 19.618 19.618 10.835 0 19.618-8.783 19.618-19.618 0-10.835-8.783-19.618-19.618-19.618-10.835 0-19.618 8.783-19.618 19.618zM112.903 250.315h43.831" fill="none" class="OVOdqSdB_1"></path><path stroke-linecap="round" stroke-linejoin="round" stroke="#FFF" stroke-width="12.04" d="M156.597 250c0 51.585 41.818 93.403 93.403 93.403 51.585 0 93.403-41.818 93.403-93.403 0-51.585-41.818-93.403-93.403-93.403-51.585 0-93.403 41.818-93.403 93.403zM139.353 119.886c1.041 10.803 10.643 18.716 21.446 17.675 10.803-1.041 18.716-10.643 17.675-21.446-1.041-10.803-10.643-18.716-21.446-17.675-10.803 1.041-18.716 10.643-17.675 21.446z" fill="none" class="OVOdqSdB_2"></path><path stroke-linecap="round" stroke-linejoin="round" stroke="#2F80E8" stroke-width="12.04" d="M312.423 102.503c2.877 18.612 20.297 31.368 38.909 28.491 18.612-2.877 31.367-20.297 28.49-38.909-2.877-18.612-20.296-31.368-38.908-28.491-18.612 2.877-31.368 20.297-28.491 38.909z" fill="none" class="OVOdqSdB_3"></path><path stroke-linecap="round" stroke-linejoin="round" stroke="#FFF" stroke-width="12.04" d="M109.977 369.172c0 14.644 11.872 26.516 26.516 26.516 14.644 0 26.515-11.872 26.515-26.516 0-14.644-11.871-26.515-26.515-26.515s-26.516 11.871-26.516 26.515zM374.054 250.315c0 13.644 11.06 24.704 24.704 24.704s24.704-11.06 24.704-24.704-11.06-24.704-24.704-24.704-24.704 11.06-24.704 24.704zM351.486 410.297c1.794 8.884 10.45 14.632 19.334 12.838 8.884-1.794 14.632-10.45 12.838-19.334-1.794-8.884-10.45-14.632-19.334-12.838-8.884 1.794-14.632 10.45-12.838 19.334zM169.772 134.552l27.422 36.719" fill="none" class="OVOdqSdB_4"></path><path stroke-linecap="round" stroke-linejoin="round" stroke="#2F80E8" stroke-width="12.04" d="M329.115 127.28l-47.996 84.325" fill="none" class="OVOdqSdB_5"></path><path stroke-linecap="round" stroke-linejoin="round" stroke="#FFF" stroke-width="12.04" d="M374.054 250.315h-30.651M359.56 392.73L300 301.68M153.468 348.686L209.97 280.5M253.65 241.951h-.289M249.88 298.5h-.29M301.499 260h-.289M226.667 203.331h-.29M197.333 243h-.29" fill="none" class="OVOdqSdB_6"></path></g><style data-made-with="vivus-instant">.OVOdqSdB_0{stroke-dasharray:2000 2002;stroke-dashoffset:2001;animation:OVOdqSdB_draw_0 7200ms ease-out 0ms infinite,OVOdqSdB_fade 7200ms linear 0ms infinite;}.OVOdqSdB_1{stroke-dasharray:168 170;stroke-dashoffset:169;animation:OVOdqSdB_draw_1 7200ms ease-out 0ms infinite,OVOdqSdB_fade 7200ms linear 0ms infinite;}.OVOdqSdB_2{stroke-dasharray:711 713;stroke-dashoffset:712;animation:OVOdqSdB_draw_2 7200ms ease-out 0ms infinite,OVOdqSdB_fade 7200ms linear 0ms infinite;}.OVOdqSdB_3{stroke-dasharray:215 217;stroke-dashoffset:216;animation:OVOdqSdB_draw_3 7200ms ease-out 0ms infinite,OVOdqSdB_fade 7200ms linear 0ms infinite;}.OVOdqSdB_4{stroke-dasharray:471 473;stroke-dashoffset:472;animation:OVOdqSdB_draw_4 7200ms ease-out 0ms infinite,OVOdqSdB_fade 7200ms linear 0ms infinite;}.OVOdqSdB_5{stroke-dasharray:98 100;stroke-dashoffset:99;animation:OVOdqSdB_draw_5 7200ms ease-out 0ms infinite,OVOdqSdB_fade 7200ms linear 0ms infinite;}.OVOdqSdB_6{stroke-dasharray:230 232;stroke-dashoffset:231;animation:OVOdqSdB_draw_6 7200ms ease-out 0ms infinite,OVOdqSdB_fade 7200ms linear 0ms infinite;}@keyframes OVOdqSdB_draw{100%{stroke-dashoffset:0;}}@keyframes OVOdqSdB_fade{0%{stroke-opacity:1;}94.44444444444444%{stroke-opacity:1;}100%{stroke-opacity:0;}}@keyframes OVOdqSdB_draw_0{11.11111111111111%{stroke-dashoffset: 2001}38.88888888888889%{ stroke-dashoffset: 0;}100%{ stroke-dashoffset: 0;}}@keyframes OVOdqSdB_draw_1{13.425925925925924%{stroke-dashoffset: 169}41.2037037037037%{ stroke-dashoffset: 0;}100%{ stroke-dashoffset: 0;}}@keyframes OVOdqSdB_draw_2{15.740740740740739%{stroke-dashoffset: 712}43.51851851851851%{ stroke-dashoffset: 0;}100%{ stroke-dashoffset: 0;}}@keyframes OVOdqSdB_draw_3{18.055555555555554%{stroke-dashoffset: 216}45.83333333333333%{ stroke-dashoffset: 0;}100%{ stroke-dashoffset: 0;}}@keyframes OVOdqSdB_draw_4{20.37037037037037%{stroke-dashoffset: 472}48.148148148148145%{ stroke-dashoffset: 0;}100%{ stroke-dashoffset: 0;}}@keyframes OVOdqSdB_draw_5{22.685185185185183%{stroke-dashoffset: 99}50.462962962962955%{ stroke-dashoffset: 0;}100%{ stroke-dashoffset: 0;}}@keyframes OVOdqSdB_draw_6{25%{stroke-dashoffset: 231}52.77777777777778%{ stroke-dashoffset: 0;}100%{ stroke-dashoffset: 0;}}</style></svg>