<svg xmlns="http://www.w3.org/2000/svg" xmlns:svg="http://www.w3.org/2000/svg" xmlns:xlink="http://www.w3.org/1999/xlink" id="svg1609" width="866.92" height="546.078" version="1.1" viewBox="0 0 229.373 144.483"><style id="style1343">.B{fill:#007cff}.C{fill:#fff}.D{opacity:.5}.E{fill:#1a2e35}</style><defs id="defs1387"><clipPath id="A"><path id="path1345" d="M 0,500 H 500 V 0 H 0 Z"/></clipPath><clipPath id="B"><path id="path1348" d="M 315.607,418.512 H 411.37 V 222.469 h -95.763 z"/></clipPath><clipPath id="C"><path id="path1351" d="M 0,500 H 500 V 0 H 0 Z"/></clipPath><clipPath id="D"><path id="path1354" d="m 203.102,429.668 h 95.764 v -196.04 h -95.764 z"/></clipPath><clipPath id="E"><path id="path1357" d="m 241.505,362.442 h 17.018 v -17.018 h -17.018 z"/></clipPath><clipPath id="F"><path id="path1360" d="m 289.295,418.915 h 9.642 v -22.834 h -9.642 z"/></clipPath><clipPath id="G"><path id="path1363" d="M 279.654,443.173 H 308.46 V 413.171 H 279.654 Z"/></clipPath><clipPath id="H"><path id="path1366" d="M 0,500 H 500 V 0 H 0 Z"/></clipPath><clipPath id="I"><path id="path1369" d="m 88.63,418.512 h 95.763 V 222.469 H 88.63 Z"/></clipPath><clipPath id="J"><path id="path1372" d="m 126.576,317.841 h 17.018 v -17.018 h -17.018 z"/></clipPath><clipPath id="K"><path id="path1375" d="m 126.576,351.284 h 17.018 v -17.018 h -17.018 z"/></clipPath><path id="L" d="m 347.948,398.684 v -1.48 a 1.97,1.97 0 0 1 -0.36,0.038 c -1.182,0 -1.928,-0.697 -1.928,-2.053 v -3.22 h -1.555 v 6.64 h 1.48 v -0.969 c 0.448,0.696 1.257,1.044 2.363,1.044"/><path id="M" d="m 383.477,232.881 h -39.978 c -5.436,0 -9.843,4.407 -9.843,9.844 v 0.745 c 0,5.436 4.407,9.844 9.843,9.844 h 39.978 c 5.436,0 9.843,-4.408 9.843,-9.844 v -0.745 c 0,-5.437 -4.407,-9.844 -9.843,-9.844"/><path id="N" d="m 370.658,342.86 a 8.6,8.6 0 0 0 -8.597,-8.597 8.6,8.6 0 0 0 -8.596,8.597 8.6,8.6 0 0 0 8.596,8.597 8.6,8.6 0 0 0 8.597,-8.597"/><path id="O" d="m 350.787,383.785 1.609,-2.573 2.944,-0.735 -1.95,-2.325 0.211,-3.028 -2.814,1.137 -2.814,-1.137 0.211,3.028 -1.95,2.325 2.944,0.735 z"/><path id="P" d="m 240.531,405.204 v 0.771 h -1.604 c -1.057,0 -1.343,-0.398 -1.343,-0.883 0,-0.559 0.472,-0.92 1.268,-0.92 0.759,0 1.418,0.348 1.679,1.032 m 1.555,1.816 v -3.893 h -1.468 v 0.808 c -0.373,-0.571 -1.094,-0.895 -2.089,-0.895 -1.517,0 -2.475,0.833 -2.475,1.99 0,1.107 0.747,1.977 2.761,1.977 h 1.716 v 0.1 c 0,0.908 -0.547,1.442 -1.654,1.442 -0.746,0 -1.517,-0.248 -2.014,-0.658 l -0.61,1.131 c 0.709,0.547 1.741,0.821 2.811,0.821 1.915,0 3.022,-0.908 3.022,-2.823"/><path id="Q" d="m 257.631,406.447 c 0,1.269 -0.858,2.077 -1.978,2.077 -1.12,0 -1.977,-0.808 -1.977,-2.077 0,-1.269 0.858,-2.077 1.977,-2.077 1.119,0 1.978,0.808 1.978,2.077 m 1.53,5.907 v -9.227 h -1.493 v 0.858 c -0.522,-0.635 -1.293,-0.945 -2.201,-0.945 -1.927,0 -3.357,1.343 -3.357,3.407 0,2.064 1.43,3.395 3.357,3.395 0.858,0 1.617,-0.286 2.139,-0.895 v 3.407 z"/><path id="R" d="m 258.524,353.933 a 8.51,8.51 0 0 0 -8.509,-8.509 8.51,8.51 0 0 0 -8.509,8.509 8.51,8.51 0 0 0 8.509,8.509 8.51,8.51 0 0 0 8.509,-8.509"/><path id="S" d="m 296.468,441.727 v 0 a 2.73,2.73 0 0 1 3.605,-1.171 c 1.966,0.955 4.203,-0.67 3.901,-2.835 -0.202,-1.455 0.782,-2.81 2.229,-3.067 2.152,-0.382 3.007,-3.011 1.49,-4.586 -1.019,-1.058 -1.019,-2.733 0,-3.791 1.517,-1.574 0.662,-4.204 -1.49,-4.586 -1.447,-0.257 -2.431,-1.612 -2.229,-3.067 0.302,-2.166 -1.935,-3.791 -3.901,-2.834 a 2.73,2.73 0 0 1 -3.605,-1.172 c -1.029,-1.929 -3.793,-1.929 -4.822,0 -0.692,1.297 -2.284,1.814 -3.606,1.172 -1.966,-0.957 -4.202,0.668 -3.901,2.834 a 2.73,2.73 0 0 1 -2.228,3.067 c -2.152,0.382 -3.007,3.012 -1.49,4.586 1.019,1.058 1.019,2.733 0,3.791 -1.517,1.575 -0.662,4.204 1.49,4.586 a 2.73,2.73 0 0 1 2.228,3.067 c -0.301,2.165 1.935,3.79 3.901,2.835 1.322,-0.643 2.914,-0.125 3.606,1.171 1.029,1.929 3.793,1.929 4.822,0"/><path id="T" d="M 184.393,408.894 V 370.016 H 88.63 v 38.878 a 9.62,9.62 0 0 0 9.621,9.616 h 76.521 a 9.62,9.62 0 0 0 9.621,-9.616"/><linearGradient id="a5312bde-8c7e-4767-9e17-08a43f21bf92" x1="889.13" x2="889.13" y1="701.85" y2="363.3" gradientUnits="userSpaceOnUse"><stop id="stop20329" offset="0" stop-color="gray" stop-opacity=".25"/><stop id="stop20331" offset=".54" stop-color="gray" stop-opacity=".12"/><stop id="stop20333" offset="1" stop-color="gray" stop-opacity=".1"/></linearGradient><linearGradient id="016d359d-0d48-4404-968f-1612e9b5c7a7" x1="376.53" x2="376.53" y1="777.06" y2="381.85" gradientTransform="matrix(0.26458348,0,0,0.26458348,-52.540992,-65.76487)" xlink:href="#a5312bde-8c7e-4767-9e17-08a43f21bf92"/><linearGradient id="linearGradient22820" x1="889.13" x2="889.13" y1="701.85" y2="363.3" gradientTransform="matrix(0.26458348,0,0,0.26458348,-52.540992,-65.76487)" gradientUnits="userSpaceOnUse" xlink:href="#a5312bde-8c7e-4767-9e17-08a43f21bf92"/><clipPath id="A-6"><path id="path1345-6" d="M 0,500 H 500 V 0 H 0 Z"/></clipPath><clipPath id="B-8"><path id="path1348-4" d="M 315.607,418.512 H 411.37 V 222.469 h -95.763 z"/></clipPath><clipPath id="C-9"><path id="path1351-6" d="M 0,500 H 500 V 0 H 0 Z"/></clipPath><clipPath id="D-2"><path id="path1354-0" d="m 203.102,429.668 h 95.764 v -196.04 h -95.764 z"/></clipPath><clipPath id="E-6"><path id="path1357-8" d="m 241.505,362.442 h 17.018 v -17.018 h -17.018 z"/></clipPath><clipPath id="F-8"><path id="path1360-7" d="m 289.295,418.915 h 9.642 v -22.834 h -9.642 z"/></clipPath><clipPath id="G-0"><path id="path1363-4" d="M 279.654,443.173 H 308.46 V 413.171 H 279.654 Z"/></clipPath><clipPath id="H-7"><path id="path1366-4" d="M 0,500 H 500 V 0 H 0 Z"/></clipPath><clipPath id="I-0"><path id="path1369-0" d="m 88.63,418.512 h 95.763 V 222.469 H 88.63 Z"/></clipPath><clipPath id="J-7"><path id="path1372-7" d="m 126.576,317.841 h 17.018 v -17.018 h -17.018 z"/></clipPath><clipPath id="K-0"><path id="path1375-8" d="m 126.576,351.284 h 17.018 v -17.018 h -17.018 z"/></clipPath></defs><g id="g1607" transform="matrix(0.352778,0,0,-0.352778,29.755008,222.96575)"><g id="g1451" clip-path="url(#A)"><path id="path1389" d="m 392.741,222.47 h -58.505 c -10.289,0 -18.629,8.34 -18.629,18.628 v 158.786 c 0,10.288 8.34,18.628 18.629,18.628 h 58.505 a 18.63,18.63 0 0 0 18.628,-18.628 V 241.098 A 18.63,18.63 0 0 0 392.741,222.47" class="B"/><g id="g1393" clip-path="url(#B)" opacity=".3"><path id="path1391" d="m 392.949,418.512 h -58.922 c -10.174,0 -18.42,-8.247 -18.42,-18.42 V 240.889 c 0,-10.172 8.246,-18.419 18.42,-18.419 h 58.922 c 10.173,0 18.42,8.247 18.42,18.419 v 159.203 c 0,10.173 -8.247,18.42 -18.42,18.42"/></g><path id="path1395" d="m 411.37,408.894 v -38.878 h -95.763 v 38.878 a 9.62,9.62 0 0 0 9.621,9.616 h 76.521 a 9.62,9.62 0 0 0 9.621,-9.616" class="B"/><g id="g1403" class="C"><path id="path1397" d="m 341.07,397.577 c 0,1.095 -0.733,1.729 -2.151,1.729 h -1.891 v -3.458 h 1.891 c 1.418,0 2.151,0.635 2.151,1.729 m 1.629,0 c 0,-1.915 -1.418,-3.096 -3.706,-3.096 h -1.965 v -2.512 h -1.616 v 8.705 h 3.581 c 2.288,0 3.706,-1.169 3.706,-3.097"/><use id="use1399" width="100%" height="100%" x="0" y="0" xlink:href="#L"/><path id="path1401" d="m 350.199,395.824 h 3.768 c -0.124,0.958 -0.858,1.617 -1.878,1.617 -1.007,0 -1.741,-0.647 -1.89,-1.617 m 5.223,-1.032 h -5.211 c 0.187,-0.97 0.995,-1.592 2.152,-1.592 0.746,0 1.331,0.236 1.803,0.722 l 0.833,-0.958 c -0.597,-0.709 -1.529,-1.082 -2.674,-1.082 -2.226,0 -3.668,1.43 -3.668,3.407 0,1.977 1.455,3.395 3.432,3.395 1.94,0 3.358,-1.355 3.358,-3.432 a 6.65,6.65 0 0 0 -0.025,-0.46 m 12.623,0.982 v -3.805 h -1.555 v 3.606 c 0,1.181 -0.547,1.754 -1.492,1.754 -1.019,0 -1.728,-0.672 -1.728,-1.99 v -3.37 h -1.555 v 3.606 c 0,1.181 -0.547,1.754 -1.492,1.754 -1.032,0 -1.729,-0.672 -1.729,-1.99 v -3.37 h -1.554 v 6.64 h 1.48 v -0.845 c 0.497,0.597 1.268,0.92 2.176,0.92 0.97,0 1.778,-0.36 2.239,-1.107 0.534,0.684 1.43,1.107 2.486,1.107 1.605,0 2.724,-0.908 2.724,-2.91 m 1.991,2.835 h 1.555 v -6.641 h -1.555 z m -0.212,2.028 c 0,0.522 0.423,0.932 0.996,0.932 0.573,0 0.994,-0.385 0.994,-0.895 0,-0.547 -0.41,-0.97 -0.994,-0.97 -0.573,0 -0.996,0.41 -0.996,0.933 m 10.235,-2.028 v -6.641 h -1.48 v 0.846 c -0.498,-0.609 -1.281,-0.933 -2.139,-0.933 -1.704,0 -2.86,0.933 -2.86,2.935 v 3.793 h 1.554 v -3.582 c 0,-1.206 0.572,-1.778 1.555,-1.778 1.082,0 1.815,0.672 1.815,2.003 v 3.357 z m 13.146,-2.835 v -3.805 h -1.555 v 3.606 c 0,1.181 -0.547,1.754 -1.492,1.754 -1.019,0 -1.728,-0.672 -1.728,-1.99 v -3.37 h -1.555 v 3.606 c 0,1.181 -0.547,1.754 -1.492,1.754 -1.032,0 -1.729,-0.672 -1.729,-1.99 v -3.37 H 382.1 v 6.64 h 1.48 v -0.845 c 0.497,0.597 1.268,0.92 2.176,0.92 0.97,0 1.778,-0.36 2.239,-1.107 0.534,0.684 1.43,1.107 2.486,1.107 1.605,0 2.724,-0.908 2.724,-2.91"/></g><use id="use1405" width="100%" height="100%" x="0" y="0" class="B" xlink:href="#M"/><path id="path1407" d="m 345.751,241.169 c 0,0.404 -0.321,0.656 -0.81,0.838 l -0.377,-1.913 c 0.754,0.153 1.187,0.544 1.187,1.075 m -1.732,3.241 0.405,2.011 c -0.796,-0.153 -1.243,-0.586 -1.257,-1.117 0,-0.434 0.349,-0.685 0.852,-0.894 m 3.995,-2.879 c 0,-1.857 -1.494,-3.1 -3.827,-3.296 l -0.308,-1.537 h -1.397 l 0.308,1.537 c -1.328,0.126 -2.501,0.544 -3.213,1.076 l 0.935,1.732 c 0.741,-0.545 1.676,-0.894 2.641,-0.992 l 0.475,2.361 c -1.299,0.391 -2.725,0.907 -2.725,2.599 0,1.857 1.523,3.114 3.898,3.283 l 0.307,1.536 h 1.397 l -0.307,-1.551 c 0.992,-0.097 1.9,-0.378 2.571,-0.796 l -0.852,-1.732 c -0.601,0.404 -1.328,0.643 -2.082,0.727 l -0.489,-2.459 c 1.285,-0.377 2.668,-0.88 2.668,-2.488" class="C"/><path id="path1409" d="m 337.744,294.112 h 49.434"/><path id="path1411" d="m 387.178,293.112 h -49.434 v 2 h 49.434 z" class="B"/><path id="path1413" d="m 337.744,326.952 h 49.434"/><path id="path1415" d="m 387.178,325.952 h -49.434 v 2 h 49.434 z" class="B"/><path id="path1417" d="m 337.744,358.604 h 49.434"/><g id="g1423" class="B"><path id="path1419" d="m 387.178,357.604 h -49.434 v 2 h 49.434 z"/><use id="use1421" width="100%" height="100%" x="0" y="0" xlink:href="#N"/></g><g id="g1429" class="C"><path id="path1425" d="m 368.215,344.72 -4.946,-4.946 -2.306,-2.31 -2.311,2.31 2.307,2.306 4.945,4.95 z"/><path id="path1427" d="m 363.269,339.774 -2.306,-2.311 -4.9,4.9 2.307,2.307 2.589,-2.59 z"/></g><path id="path1431" d="m 370.658,311.126 a 8.6,8.6 0 0 0 -8.597,-8.597 8.6,8.6 0 0 0 -8.596,8.597 8.6,8.6 0 0 0 8.596,8.597 8.6,8.6 0 0 0 8.597,-8.597" class="B"/><g id="g1437" class="C"><path id="path1433" d="m 368.215,312.985 -4.946,-4.945 -2.306,-2.311 -2.311,2.311 2.307,2.306 4.945,4.95 z"/><path id="path1435" d="m 363.269,308.04 -2.306,-2.311 -4.9,4.9 2.307,2.306 2.589,-2.589 z"/></g><path id="path1439" d="m 370.658,277.1 a 8.6,8.6 0 0 0 -8.597,-8.597 8.6,8.6 0 0 0 -8.596,8.597 8.6,8.6 0 0 0 8.596,8.597 8.6,8.6 0 0 0 8.597,-8.597" class="B"/><g id="g1449" class="C"><path id="path1441" d="m 368.215,278.96 -4.946,-4.946 -2.306,-2.31 -2.311,2.31 2.307,2.307 4.945,4.95 z"/><path id="path1443" d="m 363.269,274.014 -2.306,-2.31 -4.9,4.899 2.307,2.307 2.589,-2.589 z"/><use id="use1445" width="100%" height="100%" x="0" y="0" xlink:href="#O"/><path id="path1447" d="m 362.062,383.785 1.609,-2.573 2.944,-0.735 -1.95,-2.325 0.211,-3.028 -2.814,1.137 -2.814,-1.137 0.211,3.028 -1.95,2.325 2.944,0.735 z m 11.274,0 1.608,-2.573 2.945,-0.735 -1.95,-2.325 0.211,-3.028 -2.814,1.137 -2.814,-1.137 0.211,3.028 -1.95,2.325 2.944,0.735 z"/></g></g><g id="g1539" clip-path="url(#C)"><path id="path1453" d="M 280.235,233.628 H 221.73 c -10.289,0 -18.629,8.34 -18.629,18.628 v 158.786 c 0,10.288 8.34,18.628 18.629,18.628 h 58.505 c 10.288,0 18.628,-8.34 18.628,-18.628 V 252.256 c 0,-10.288 -8.34,-18.628 -18.628,-18.628" class="B"/><g id="g1457" class="D C" clip-path="url(#D)"><path id="path1455" d="M 279.613,429.669 H 222.35 c -10.63,0 -19.248,-8.618 -19.248,-19.248 v -157.54 c 0,-10.633 8.62,-19.253 19.253,-19.253 h 57.258 c 10.633,0 19.252,8.62 19.252,19.253 v 157.535 c 0,10.633 -8.619,19.253 -19.252,19.253"/></g><path id="path1459" d="m 298.865,420.052 v -38.877 h -95.763 v 38.877 a 9.62,9.62 0 0 0 9.621,9.616 h 76.521 a 9.62,9.62 0 0 0 9.621,-9.616" class="B"/><g id="g1471" class="C"><path id="path1461" d="m 222.846,404.047 0.56,1.256 c 0.696,-0.56 1.803,-0.958 2.873,-0.958 1.355,0 1.927,0.485 1.927,1.132 0,1.878 -5.173,0.647 -5.173,3.88 0,1.405 1.119,2.599 3.507,2.599 1.044,0 2.139,-0.274 2.897,-0.771 l -0.509,-1.256 c -0.784,0.46 -1.642,0.684 -2.401,0.684 -1.343,0 -1.89,-0.523 -1.89,-1.181 0,-1.853 5.161,-0.647 5.161,-3.843 0,-1.393 -1.132,-2.587 -3.519,-2.587 -1.356,0 -2.711,0.423 -3.433,1.045 m 12.399,-0.559 c -0.373,-0.299 -0.933,-0.448 -1.492,-0.448 -1.455,0 -2.289,0.771 -2.289,2.239 v 3.196 h -1.094 v 1.243 h 1.094 v 1.518 h 1.555 v -1.518 h 1.778 v -1.243 h -1.778 v -3.159 c 0,-0.647 0.323,-0.995 0.92,-0.995 0.324,0 0.635,0.087 0.871,0.273 z"/><use id="use1463" width="100%" height="100%" x="0" y="0" xlink:href="#P"/><path id="path1465" d="m 250.617,406.932 v -3.805 h -1.555 v 3.606 c 0,1.181 -0.584,1.754 -1.579,1.754 -1.107,0 -1.853,-0.672 -1.853,-2.002 v -3.358 h -1.555 v 6.64 h 1.48 v -0.857 c 0.51,0.609 1.319,0.932 2.289,0.932 1.591,0 2.773,-0.908 2.773,-2.91"/><use id="use1467" width="100%" height="100%" x="0" y="0" xlink:href="#Q"/><path id="path1469" d="m 265.205,405.204 v 0.771 h -1.604 c -1.057,0 -1.343,-0.398 -1.343,-0.883 0,-0.559 0.472,-0.92 1.268,-0.92 0.759,0 1.418,0.348 1.679,1.032 m 1.555,1.816 v -3.893 h -1.468 v 0.808 c -0.373,-0.571 -1.094,-0.895 -2.089,-0.895 -1.517,0 -2.475,0.833 -2.475,1.99 0,1.107 0.747,1.977 2.761,1.977 h 1.716 v 0.1 c 0,0.908 -0.547,1.442 -1.654,1.442 -0.746,0 -1.517,-0.248 -2.014,-0.658 l -0.61,1.131 c 0.709,0.547 1.741,0.821 2.811,0.821 1.915,0 3.022,-0.908 3.022,-2.823 m 5.833,2.822 v -1.48 a 1.97,1.97 0 0 1 -0.36,0.038 c -1.182,0 -1.928,-0.697 -1.928,-2.053 v -3.22 h -1.555 v 6.64 h 1.48 v -0.969 c 0.448,0.696 1.257,1.044 2.363,1.044 m 6.23,-3.395 c 0,1.269 -0.858,2.077 -1.978,2.077 -1.12,0 -1.977,-0.808 -1.977,-2.077 0,-1.269 0.858,-2.077 1.977,-2.077 1.119,0 1.978,0.808 1.978,2.077 m 1.53,5.907 v -9.227 h -1.493 v 0.858 c -0.522,-0.635 -1.293,-0.945 -2.201,-0.945 -1.927,0 -3.357,1.343 -3.357,3.407 0,2.064 1.43,3.395 3.357,3.395 0.858,0 1.617,-0.286 2.139,-0.895 v 3.407 z"/></g><path id="path1473" d="m 271.781,244.039 h -39.978 c -5.436,0 -9.843,4.407 -9.843,9.844 v 0.745 c 0,5.436 4.407,9.844 9.843,9.844 h 39.978 c 5.436,0 9.843,-4.408 9.843,-9.844 v -0.745 c 0,-5.437 -4.407,-9.844 -9.843,-9.844" class="B"/><path id="path1475" d="m 226.047,305.271 h 49.434"/><path id="path1477" d="m 275.481,304.271 h -49.434 v 2 h 49.434 z" class="B"/><path id="path1479" d="m 226.047,338.11 h 49.434"/><path id="path1481" d="m 275.481,337.11 h -49.434 v 2 h 49.434 z" class="B"/><path id="path1483" d="m 226.047,369.763 h 49.434"/><g id="g1487" class="B"><path id="path1485" d="m 275.481,368.763 h -49.434 v 2 h 49.434 z m -16.87,-46.479 a 8.6,8.6 0 0 0 -8.597,-8.597 8.6,8.6 0 0 0 -8.596,8.597 8.6,8.6 0 0 0 8.596,8.597 8.6,8.6 0 0 0 8.597,-8.597"/></g><g id="g1493" class="C"><path id="path1489" d="m 256.167,324.144 -4.945,-4.946 -2.307,-2.31 -2.31,2.31 2.306,2.306 4.946,4.95 z"/><path id="path1491" d="m 251.222,319.198 -2.307,-2.311 -4.899,4.9 2.307,2.307 2.588,-2.59 z"/></g><path id="path1495" d="m 259.361,288.258 a 8.6,8.6 0 0 0 -8.597,-8.597 8.6,8.6 0 0 0 -8.596,8.597 8.6,8.6 0 0 0 8.596,8.597 8.6,8.6 0 0 0 8.597,-8.597" class="B"/><g id="g1501" class="C"><path id="path1497" d="m 256.917,290.118 -4.946,-4.945 -2.306,-2.311 -2.31,2.311 2.306,2.306 4.945,4.95 z"/><path id="path1499" d="m 251.971,285.172 -2.307,-2.311 -4.899,4.9 2.307,2.306 2.589,-2.589 z"/></g><use id="use1503" width="100%" height="100%" x="0" y="0" class="E" xlink:href="#R"/><g id="g1507" class="D C" clip-path="url(#E)"><use id="use1505" width="100%" height="100%" x="0" y="0" xlink:href="#R"/></g><g id="g1513" class="C"><path id="path1509" d="m 254.823,356.457 -7.333,-7.333 -2.285,2.285 7.333,7.333 z"/><path id="path1511" d="m 247.49,358.742 7.333,-7.333 -2.285,-2.285 -7.333,7.333 z"/></g><g id="g1519" class="B"><path id="path1515" d="m 289.3,418.912 v -22.826 l 4.816,4.817 v 18.009 z"/><path id="path1517" d="m 298.933,418.912 v -22.826 l -4.817,4.817 v 18.009 z"/></g><g id="g1523" clip-path="url(#F)" opacity=".3"><path id="path1521" d="m 298.937,418.915 v -22.833 l -4.816,4.826 -4.826,-4.826 v 22.833 z"/></g><g id="g1529" class="B"><use id="use1525" width="100%" height="100%" x="0" y="0" xlink:href="#S"/><use id="use1527" width="100%" height="100%" x="0" y="0" xlink:href="#S"/></g><g id="g1533" class="D C" clip-path="url(#G)"><use id="use1531" width="100%" height="100%" x="0" y="0" xlink:href="#S"/></g><g id="g1537" class="C"><path id="path1535" d="m 289.731,431.035 h -1.238 a 1.13,1.13 0 0 1 -1.116,-1.06 l -0.299,-5.713 c -0.031,-0.585 0.42,-1.06 1.004,-1.06 h 1.238 a 1.13,1.13 0 0 1 1.115,1.06 l 0.299,5.713 c 0.031,0.585 -0.419,1.06 -1.003,1.06 m 9.889,0 h -2.905 l 0.809,1.902 c 0.088,0.207 0.121,0.431 0.096,0.648 l -0.171,1.5 a 1.19,1.19 0 0 1 -1.182,1.054 h -1.447 a 7.29,7.29 0 0 0 -1.567,-4.146 l -0.889,-1.122 a 1.8,1.8 0 0 1 -0.391,-1.019 l -0.28,-5.344 a 1.23,1.23 0 0 1 1.239,-1.306 h 5.069 c 0.445,0 0.877,0.196 1.184,0.537 l 0.473,0.525 c 0.187,0.208 0.316,0.46 0.378,0.732 l 0.967,4.311 c 0.09,0.4 0.002,0.819 -0.24,1.149 a 1.42,1.42 0 0 1 -1.143,0.579 m -49.606,-34.949 1.609,-2.573 2.944,-0.735 -1.95,-2.325 0.211,-3.028 -2.814,1.137 -2.814,-1.137 0.211,3.028 -1.95,2.325 2.945,0.735 z M 234.361,252.297 c 0,0.404 -0.322,0.656 -0.811,0.838 l -0.376,-1.914 c 0.753,0.154 1.187,0.545 1.187,1.076 m -1.732,3.24 0.404,2.012 c -0.796,-0.153 -1.243,-0.586 -1.256,-1.117 0,-0.434 0.349,-0.685 0.852,-0.895 m 3.995,-2.878 c 0,-1.857 -1.494,-3.1 -3.828,-3.296 l -0.307,-1.537 h -1.397 l 0.307,1.537 c -1.327,0.125 -2.5,0.544 -3.213,1.076 l 0.936,1.732 c 0.74,-0.545 1.676,-0.894 2.64,-0.992 l 0.475,2.36 c -1.298,0.392 -2.724,0.908 -2.724,2.6 0,1.857 1.523,3.114 3.898,3.283 l 0.307,1.536 h 1.397 l -0.307,-1.552 c 0.992,-0.096 1.9,-0.377 2.57,-0.796 l -0.851,-1.731 c -0.602,0.404 -1.328,0.643 -2.083,0.726 l -0.488,-2.458 c 1.285,-0.378 2.668,-0.881 2.668,-2.488"/></g></g><g id="g1605" clip-path="url(#H)"><path id="path1541" d="m 165.764,222.47 h -58.505 c -10.288,0 -18.629,8.34 -18.629,18.628 v 158.786 c 0,10.288 8.341,18.628 18.629,18.628 h 58.505 c 10.289,0 18.629,-8.34 18.629,-18.628 V 241.098 c 0,-10.288 -8.34,-18.628 -18.629,-18.628" class="E"/><g id="g1545" class="C" clip-path="url(#I)" opacity=".7"><path id="path1543" d="m 165.476,418.512 h -57.928 c -10.447,0 -18.917,-8.47 -18.917,-18.917 V 241.387 a 18.92,18.92 0 0 1 18.917,-18.917 h 57.928 a 18.92,18.92 0 0 1 18.917,18.917 v 158.208 a 18.92,18.92 0 0 1 -18.917,18.917"/></g><g id="g1551" class="B"><use id="use1547" width="100%" height="100%" x="0" y="0" xlink:href="#T"/><use id="use1549" width="100%" height="100%" x="0" y="0" xlink:href="#T"/></g><g id="g1555" class="C"><path id="path1553" d="m 127.015,394.493 c 0,0.871 -0.659,1.256 -1.878,1.256 h -2.611 v -2.512 h 2.611 c 1.219,0 1.878,0.385 1.878,1.256 m -4.489,4.912 v -2.4 h 2.288 c 1.119,0 1.753,0.398 1.753,1.194 0,0.808 -0.634,1.206 -1.753,1.206 z m 6.118,-5.074 c 0,-1.492 -1.169,-2.362 -3.407,-2.362 h -4.328 v 8.705 h 4.079 c 2.089,0 3.209,-0.883 3.209,-2.264 0,-0.895 -0.448,-1.554 -1.12,-1.915 0.933,-0.298 1.567,-1.032 1.567,-2.164 m 5.584,-0.286 v 0.771 h -1.604 c -1.057,0 -1.343,-0.398 -1.343,-0.883 0,-0.559 0.472,-0.92 1.268,-0.92 0.759,0 1.418,0.348 1.679,1.032 m 1.555,1.816 v -3.893 h -1.468 v 0.808 c -0.373,-0.571 -1.094,-0.895 -2.089,-0.895 -1.517,0 -2.475,0.833 -2.475,1.99 0,1.107 0.747,1.977 2.761,1.977 h 1.716 v 0.1 c 0,0.908 -0.547,1.442 -1.654,1.442 -0.746,0 -1.517,-0.248 -2.014,-0.658 l -0.61,1.131 c 0.709,0.547 1.741,0.821 2.811,0.821 1.915,0 3.022,-0.908 3.022,-2.823 m 1.231,-3.233 0.597,1.181 c 0.584,-0.385 1.48,-0.659 2.313,-0.659 0.983,0 1.393,0.274 1.393,0.734 0,1.268 -4.104,0.075 -4.104,2.723 0,1.256 1.132,2.077 2.922,2.077 0.883,0 1.891,-0.211 2.487,-0.572 l -0.596,-1.181 c -0.635,0.373 -1.269,0.497 -1.903,0.497 -0.945,0 -1.393,-0.311 -1.393,-0.746 0,-1.343 4.104,-0.149 4.104,-2.748 0,-1.244 -1.144,-2.052 -3.009,-2.052 -1.107,0 -2.214,0.323 -2.811,0.746 m 7.164,5.981 h 1.555 v -6.641 h -1.555 z m -0.211,2.028 c 0,0.522 0.422,0.932 0.995,0.932 0.573,0 0.994,-0.385 0.994,-0.895 0,-0.547 -0.41,-0.97 -0.994,-0.97 -0.573,0 -0.995,0.41 -0.995,0.933 m 3.258,-5.348 c 0,1.99 1.492,3.395 3.594,3.395 1.293,0 2.325,-0.535 2.835,-1.542 l -1.194,-0.696 c -0.398,0.634 -0.994,0.92 -1.653,0.92 -1.144,0 -2.015,-0.796 -2.015,-2.077 0,-1.293 0.871,-2.077 2.015,-2.077 0.659,0 1.255,0.286 1.653,0.921 l 1.194,-0.697 c -0.51,-0.995 -1.542,-1.554 -2.835,-1.554 -2.102,0 -3.594,1.417 -3.594,3.407"/></g><path id="path1557" d="m 143.594,309.333 a 8.51,8.51 0 0 0 -8.509,-8.509 8.51,8.51 0 0 0 -8.509,8.509 8.51,8.51 0 0 0 8.509,8.509 8.51,8.51 0 0 0 8.509,-8.509" class="E"/><g id="g1561" class="D C" clip-path="url(#J)"><path id="path1559" d="m 143.594,309.333 a 8.51,8.51 0 0 0 -8.509,-8.509 8.51,8.51 0 0 0 -8.509,8.509 8.51,8.51 0 0 0 8.509,8.509 8.51,8.51 0 0 0 8.509,-8.509"/></g><g id="g1567" class="C"><path id="path1563" d="m 139.894,311.856 -7.333,-7.333 -2.285,2.285 7.333,7.333 z"/><path id="path1565" d="m 132.561,314.141 7.333,-7.333 -2.285,-2.285 -7.333,7.333 z"/></g><path id="path1569" d="m 144.081,277.887 a 8.6,8.6 0 0 0 -8.597,-8.596 c -4.748,0 -8.596,3.848 -8.596,8.596 a 8.6,8.6 0 0 0 8.596,8.597 8.6,8.6 0 0 0 8.597,-8.597" class="B"/><g id="g1575" class="C"><path id="path1571" d="m 141.637,279.747 -4.946,-4.946 -2.306,-2.31 -2.311,2.31 2.307,2.307 4.945,4.949 z"/><path id="path1573" d="m 136.692,274.801 -2.307,-2.31 -4.899,4.899 2.307,2.307 2.589,-2.589 z"/></g><path id="path1577" d="m 156.501,232.881 h -39.978 c -5.436,0 -9.843,4.407 -9.843,9.844 v 0.745 c 0,5.436 4.407,9.844 9.843,9.844 h 39.978 c 5.437,0 9.843,-4.408 9.843,-9.844 v -0.745 c 0,-5.437 -4.406,-9.844 -9.843,-9.844" class="B"/><path id="path1579" d="m 117.348,240.8 c 0,0.404 -0.322,0.656 -0.811,0.838 l -0.376,-1.914 c 0.753,0.154 1.187,0.545 1.187,1.076 m -1.732,3.24 0.404,2.012 c -0.796,-0.153 -1.242,-0.586 -1.256,-1.117 0,-0.434 0.349,-0.685 0.852,-0.895 m 3.995,-2.878 c 0,-1.857 -1.494,-3.1 -3.828,-3.296 l -0.307,-1.537 h -1.397 l 0.308,1.537 c -1.328,0.126 -2.501,0.544 -3.214,1.076 l 0.936,1.732 c 0.74,-0.545 1.676,-0.894 2.64,-0.992 l 0.475,2.361 c -1.298,0.391 -2.724,0.907 -2.724,2.599 0,1.857 1.523,3.114 3.898,3.283 l 0.307,1.536 h 1.397 l -0.307,-1.551 c 0.992,-0.097 1.9,-0.378 2.57,-0.796 l -0.851,-1.732 c -0.602,0.404 -1.328,0.643 -2.083,0.727 l -0.488,-2.459 c 1.285,-0.378 2.668,-0.88 2.668,-2.488" class="C"/><path id="path1581" d="m 110.767,294.112 h 49.434"/><path id="path1583" d="m 160.201,293.112 h -49.434 v 2 h 49.434 z" class="B"/><path id="path1585" d="m 110.767,326.952 h 49.434"/><path id="path1587" d="m 160.201,325.952 h -49.434 v 2 h 49.434 z" class="B"/><path id="path1589" d="m 110.767,358.604 h 49.434"/><path id="path1591" d="m 160.201,357.604 h -49.434 v 2 h 49.434 z" class="B"/><path id="path1593" d="m 143.594,342.774 a 8.51,8.51 0 0 0 -8.509,-8.509 8.51,8.51 0 0 0 -8.509,8.509 8.51,8.51 0 0 0 8.509,8.509 8.51,8.51 0 0 0 8.509,-8.509" class="E"/><g id="g1597" class="D C" clip-path="url(#K)"><path id="path1595" d="m 143.594,342.774 a 8.51,8.51 0 0 0 -8.509,-8.509 8.51,8.51 0 0 0 -8.509,8.509 8.51,8.51 0 0 0 8.509,8.509 8.51,8.51 0 0 0 8.509,-8.509"/></g><g id="g1603" class="C"><path id="path1599" d="m 139.894,345.299 -7.333,-7.333 -2.285,2.285 7.333,7.333 z"/><path id="path1601" d="m 132.561,347.584 7.333,-7.333 -2.285,-2.285 -7.333,7.333 z"/></g></g></g><path id="path20401" fill="#e6e6f0" d="m 86.28861,69.564293 -0.88636,1.288522 c 0,0 0.96573,1.288521 1.05834,1.449917 0.0926,0.161396 2.81781,-0.07938 2.81781,-0.07938 l 0.24077,-0.965729 -0.40216,-1.127126 z" style="stroke-width:.264583;stroke:#f4f7fb;stroke-opacity:1"/><polygon id="polygon20403" fill="#fdc2cc" points="329.22 435.54 333.48 438.58 334.7 435.24 331.65 428.84 327.09 423.67 320.39 424.88 324.65 433.11" transform="matrix(0.26458348,0,0,0.26458348,-30.05404,-43.25675)" style="stroke:#f4f7fb;stroke-opacity:1;stroke-width:.69999999;stroke-miterlimit:4;stroke-dasharray:none"/><path id="path20405" fill="#565171" d="m 85.48427,47.897552 c 0,0 9.42447,2.254251 11.19453,4.762503 0,0 1.61131,1.370542 0,3.865564 -1.61131,2.495023 -3.86556,8.135942 -3.86556,8.135942 0,0 -1.61132,5.476879 -2.25425,5.879045 -0.64294,0.402167 -4.34976,0.724959 -4.67255,-0.79375 0,0 2.09286,-3.302002 2.09286,-4.83394 0,-1.531939 3.46339,-8.77888 3.46339,-8.77888 0,0 -7.89252,-0.886355 -10.39019,-0.322792 -2.49767,0.563563 1.12977,-8.800046 4.43177,-7.913692 z" style="stroke-width:.264583;stroke:#f4f7fb;stroke-opacity:1"/><path id="path20407" d="m 85.48427,47.897552 c 0,0 9.42447,2.254251 11.19453,4.762503 0,0 1.61131,1.370542 0,3.865564 -1.61131,2.495023 -3.86556,8.135942 -3.86556,8.135942 0,0 -1.61132,5.476879 -2.25425,5.879045 -0.64294,0.402167 -4.34976,0.724959 -4.67255,-0.79375 0,0 2.09286,-3.302002 2.09286,-4.83394 0,-1.531939 3.46339,-8.77888 3.46339,-8.77888 0,0 -7.89252,-0.886355 -10.39019,-0.322792 -2.49767,0.563563 1.12977,-8.800046 4.43177,-7.913692 z" opacity=".1" style="stroke-width:.264583;stroke:#f4f7fb;stroke-opacity:1"/><path id="path20409" fill="#565171" d="m 83.55017,50.072428 c -0.0185,0.468313 -0.0688,0.994834 -0.14023,1.561043 -0.51594,4.101044 -2.19604,10.199693 -2.19604,10.199693 0,0 -1.69069,3.624794 -2.17488,5.961066 -0.48419,2.336272 -3.78619,2.910418 -3.78619,2.910418 0,0 -9.0223,1.058334 -10.87438,0.645584 -1.85208,-0.41275 -4.7625,1.209146 -6.20184,0.96573 -1.43933,-0.243417 -2.33627,-3.624794 -2.33627,-3.624794 a 17.46251,17.46251 0 0 0 7.24959,-1.529293 c 3.70417,-1.690688 9.02229,-0.886354 9.02229,-0.886354 a 3.0294808,3.0294808 0 0 0 1.85209,-1.529293 c 0.56356,-1.209146 0.56356,-8.538109 0.40217,-9.022296 -1.05834,-3.175002 -0.97103,-5.212295 -0.66675,-6.400275 a 3.1935226,3.1935226 0 0 1 0.66675,-1.412876 z" style="stroke-width:.264583;stroke:#f4f7fb;stroke-opacity:1"/><path id="path20411" d="m 83.55017,50.072428 c -0.0185,0.468313 -0.0688,0.994834 -0.14023,1.561043 -0.80963,0.0635 -3.07975,0.124354 -4.7625,-0.915459 -1.5875,-0.973667 -3.89732,-1.304396 -4.93713,-1.407584 a 3.1935226,3.1935226 0 0 1 0.66675,-1.412876 z" opacity=".1" style="stroke-width:.264583;stroke:#f4f7fb;stroke-opacity:1"/><path id="path20413" fill="#e6e6f0" d="m 84.66407,49.064365 c -0.37571,1.058334 -0.95251,2.299231 -0.95251,2.299231 0,0 -2.97921,0.402167 -5.07471,-0.886355 -2.0955,-1.288521 -5.47687,-1.449917 -5.47687,-1.449917 0.54768,-0.336021 0.9181,-1.357314 1.14829,-2.251606 a 14.268987,14.268987 0 0 0 0.30162,-1.534584 c 0,0 9.90601,2.01348 10.31876,2.336272 0.15346,0.127 -0.0106,0.767292 -0.26458,1.486959 z" style="stroke-width:.264583;stroke:#f4f7fb;stroke-opacity:1"/><path id="path20415" fill="#fdc2cc" d="m 102.31708,15.115659 -12.01474,7.252234 -1.19327,0.719667 v -3.542773 l 0.82814,-0.396875 10.12561,-4.839232 c 0,0 0.48419,-8.77888 1.77271,-7.40834 1.28852,1.370545 0.48155,8.215319 0.48155,8.215319 z" style="stroke-width:.264583;stroke:#f4f7fb;stroke-opacity:1"/><path id="path20417" d="m 90.30234,22.367893 -1.19327,0.719667 v -3.542773 l 0.82814,-0.396875 a 26.072056,26.072056 0 0 0 0.36513,3.219981 z" opacity=".1" style="stroke-width:.264583;stroke:#f4f7fb;stroke-opacity:1"/><path id="path20419" fill="#b45181" d="m 81.05515,23.664352 8.61748,-4.992691 c 0,0 0.1614,4.833941 1.12713,5.556254 0,0 -3.54278,1.058333 -4.91332,3.302001 z" style="stroke-width:.264583;stroke:#f4f7fb;stroke-opacity:1"/><path id="path20421" d="m 81.05515,23.664352 8.61748,-4.992691 c 0,0 0.1614,4.833941 1.12713,5.556254 0,0 -3.54278,1.058333 -4.91332,3.302001 z" opacity=".1" style="stroke-width:.264583;stroke:#f4f7fb;stroke-opacity:1"/><path id="path20423" fill="#fdc2cc" d="m 102.24035,27.921499 c 0,0 -4.0984,1.785939 -6.81303,2.442106 a 5.349878,5.349878 0 0 1 -1.88648,0.216958 c -1.85208,-0.322791 0.48419,-2.645834 0.48419,-2.645834 l 0.97367,-0.150813 5.22817,-0.814917 c 0,0 0.56356,-8.053921 1.52929,-7.408337 0.96573,0.645584 0.48419,8.360837 0.48419,8.360837 z" style="stroke-width:.264583;stroke:#f4f7fb;stroke-opacity:1"/><path id="path20425" fill="#fdc2cc" d="m 84.92071,20.671913 c 0,0 -3.4634,2.577043 -2.17488,5.799669 1.28853,3.222627 -6.68602,-1.934105 -6.68602,-1.934105 0,0 2.57704,-3.865564 3.14061,-6.765399 0.56356,-2.899835 5.72029,2.899835 5.72029,2.899835 z" style="stroke-width:.264583;stroke:#f4f7fb;stroke-opacity:1"/><path id="path20427" d="M 84.66407,49.064365 A 18.25626,18.25626 0 0 0 80.0074,47.979573 c -2.32834,-0.264583 -4.46088,-0.71173 -5.69649,-1.203855 a 14.268987,14.268987 0 0 0 0.30163,-1.534584 c 0,0 9.906,2.01348 10.31875,2.336272 0.15082,0.127 -0.0132,0.767292 -0.26722,1.486959 z" opacity=".1" style="stroke-width:.264583;stroke:#f4f7fb;stroke-opacity:1"/><path id="path20429" d="m 95.42468,30.363605 a 5.349878,5.349878 0 0 1 -1.88648,0.216958 c -1.85209,-0.322791 0.48418,-2.645834 0.48418,-2.645834 l 0.97367,-0.150813 c 0.40746,0.627063 0.82285,1.606022 0.42863,2.579689 z" opacity=".1" style="stroke-width:.264583;stroke:#f4f7fb;stroke-opacity:1"/><path id="path20431" fill="#b45181" d="m 79.28244,22.12183 c 0,0 -3.14061,-0.07938 -4.26773,1.209147 -1.12713,1.288521 -0.88636,4.762502 -0.88636,4.762502 0,0 -0.23548,6.955899 1.52929,10.847922 a 0.52916696,0.52916696 0 0 1 0.0185,0.399521 c -0.0185,0.04763 -0.0185,0.01852 -0.0185,0.01852 0,0 -1.12712,5.074711 -2.25425,5.961066 -1.12712,0.886355 2.41565,1.934105 6.61459,2.415647 4.19894,0.481542 5.87904,1.690689 5.87904,1.690689 0,0 0.72496,-0.793751 0.79375,-2.577043 0.0688,-1.783293 -1.11918,-14.739946 -1.11918,-14.739946 0,0 4.42912,1.127126 7.08819,-0.240771 0,0 1.20914,0.645584 2.33627,-1.127126 1.12713,-1.772709 -0.79375,-3.704168 -0.79375,-3.704168 0,0 -1.77271,1.772709 -6.68602,-0.563563 -4.91332,-2.336272 -6.7072,-4.431773 -8.23384,-4.352397 z" style="stroke-width:.264583;stroke:#f4f7fb;stroke-opacity:1"/><path id="path20433" fill="#e6e6f0" d="m 55.20005,69.000731 h -0.96573 v 1.370542 l 0.96573,2.174876 c 0,0 1.28852,0.240771 1.37054,0.240771 0.082,0 1.12713,-0.240771 1.12713,-0.240771 l 0.32279,-0.563563 c 0,0 -3.54542,-1.373188 -2.82046,-2.981855 z" style="stroke-width:.18520843;stroke:#f4f7fb;stroke-opacity:1;stroke-miterlimit:4;stroke-dasharray:none"/><path id="path20435" fill="#b45181" d="m 85.48427,70.289252 -1.44991,3.222627 6.12246,2.910418 4.83394,0.161396 c 0,0 0.40217,-1.127126 -1.20915,-1.690688 l -1.28852,-0.240771 c 0,0 -1.69069,-3.061231 -1.85208,-4.497919 0,0 -1.61132,0.322791 -1.85209,1.529292 -0.003,-0.02646 -2.2569,1.100667 -3.30465,-1.394355 z" style="stroke-width:.264583;stroke:#f4f7fb;stroke-opacity:1"/><path id="path20437" fill="#b45181" d="m 54.47509,68.677939 -0.49213,0.402167 -2.16429,1.772709 4.99269,6.614587 c 0,0 2.81782,1.209146 4.10898,0 0,0 0.79375,-0.793751 -0.96573,-1.449918 0,0 -1.37054,0.240771 -1.37054,-1.127125 0,-1.367897 0.32279,-2.817814 0.79375,-3.140606 0,0 -1.20914,-0.402167 -1.52929,-0.07938 a 5.1117528,5.1117528 0 0 0 -0.64558,0.886355 c 0,0 -2.88926,-1.140355 -2.72786,-3.878794 z" style="stroke-width:.18520843;stroke:#f4f7fb;stroke-opacity:1;stroke-miterlimit:4;stroke-dasharray:none"/><path id="path20439" d="m 79.04167,17.933474 a 9.7895888,9.7895888 0 0 1 -0.3228,1.2065 4.1883565,4.1883565 0 0 0 5.36311,2.304522 6.662212,6.662212 0 0 1 0.67998,-0.611188 c 0,0 -5.15673,-5.799669 -5.72029,-2.899834 z" opacity=".1" style="stroke-width:.264583;stroke:#f4f7fb;stroke-opacity:1"/><path id="path20441" d="m 78.59717,28.691437 c 0,0 2.49766,3.302002 6.12246,3.384023" opacity=".1" style="stroke-width:.264583;stroke:#f4f7fb;stroke-opacity:1"/><g id="g20451" opacity=".1" transform="matrix(0.26458348,0,0,0.26458348,-30.05404,-43.25675)" style="stroke:#f4f7fb;stroke-opacity:1"><path id="path20443" d="m 552.06,369.22 a 3.44,3.44 0 0 1 -0.56,-0.21 q -0.44,0.23 -0.9,0.43 a 5.69,5.69 0 0 0 1.46,-0.22 z" transform="translate(-84.99,-85.07)" style="stroke:#f4f7fb;stroke-opacity:1"/><path id="path20445" d="m 555.3,352 a 15.06,15.06 0 0 0 -1.06,-1.22 c 0,0 -2,2 -6.94,2.38 a 16.8,16.8 0 0 0 8,-1.16 z" transform="translate(-84.99,-85.07)" style="stroke:#f4f7fb;stroke-opacity:1"/><path id="path20447" d="m 524.71,369.92 0.06,0.65 a 60.46,60.46 0 0 0 12.18,1 63.38,63.38 0 0 1 -12.24,-1.65 z" transform="translate(-84.99,-85.07)" style="stroke:#f4f7fb;stroke-opacity:1"/><path id="path20449" d="m 503.71,429 c -15.83,-1.83 -29.22,-5.78 -25,-9.13 4.22,-3.35 8.52,-22.53 8.52,-22.53 0,0 0,0.11 0.07,-0.07 a 2,2 0 0 0 -0.07,-1.51 c -6.67,-14.75 -5.78,-41 -5.78,-41 0,0 -0.91,-13.09 3.35,-18 3.17,-3.63 10.56,-4.38 14.13,-4.53 a 6.47,6.47 0 0 0 -1,0 c 0,0 -11.87,-0.3 -16.13,4.57 -4.26,4.87 -3.35,18 -3.35,18 0,0 -0.89,26.29 5.78,41 a 2,2 0 0 1 0.07,1.51 c -0.07,0.18 -0.07,0.07 -0.07,0.07 0,0 -4.23,19.12 -8.53,22.47 -4.3,3.35 9.13,7.31 25,9.13 15.87,1.82 22.22,6.39 22.22,6.39 a 7.8,7.8 0 0 0 0.84,-1.23 c -3.09,-1.49 -9.45,-3.94 -20.05,-5.14 z" transform="translate(-84.99,-85.07)" style="stroke:#f4f7fb;stroke-opacity:1"/></g><circle id="circle20453" cx="82.746" cy="17.37" r="4.188" fill="#fdc2cc" style="stroke-width:.264583;stroke:#f4f7fb;stroke-opacity:1"/><path id="path20455" d="m 88.7069,15.49666 c -0.3466,0.867833 -1.38112,1.195917 -2.28865,1.420813 -1.29646,0.3175 -2.69346,0.629709 -3.93435,0.137583 a 0.85989631,0.85989631 0 0 0 -0.52917,-0.103187 0.70379206,0.70379206 0 0 0 -0.34925,0.304271 c -1.3679,1.947334 -1.14565,4.542898 -1.50019,6.897691 -0.11112,0.732896 -0.29898,1.489605 -0.79375,2.037293 -0.96308,1.058333 -2.78077,1.018646 -3.66713,2.143126 -0.58473,0.740833 -0.59002,1.770063 -0.58473,2.714626 q 0,1.510772 -0.0265,3.024189 c -0.0159,0.661459 -0.0476,1.34673 -0.34661,1.934106 -0.508,0.994833 -1.64042,1.468438 -2.68552,1.852084 -0.65088,0.243417 -1.32292,0.489479 -2.02142,0.423334 -0.6985,-0.06615 -1.397,-0.529167 -1.48696,-1.227668 -0.12435,-0.947209 0.85196,-1.608667 1.524,-2.291293 1.07421,-1.087438 1.51607,-2.669647 1.55575,-4.19894 A 4.4979192,4.4979192 0 0 0 71.30784,28.747 c -0.24606,-0.600605 -0.68527,-1.105959 -0.94985,-1.698626 -0.81492,-1.825626 0.1905,-3.937002 1.39435,-5.535086 1.20386,-1.598084 2.68288,-3.156481 2.93952,-5.138211 a 7.1252331,7.1252331 0 0 1 0.18257,-1.272647 c 0.1852,-0.576792 0.62441,-2.169584 1.1086,-2.534709 a 5.7599824,5.7599824 0 0 1 2.64584,-1.100668 c 0.74348,-0.108479 1.50283,-0.06879 2.24102,-0.211667 0.86254,-0.166687 1.66423,-0.576792 2.52677,-0.73025 1.86531,-0.330729 3.88938,1.836209 4.70694,3.545419 0.2249,0.523875 0.81492,0.894292 0.60325,1.426105 z" opacity=".1" style="stroke-width:.264583;stroke:#f4f7fb;stroke-opacity:1"/><path id="path20457" fill="#f569bc" d="m 88.7069,15.335264 c -0.3466,0.867834 -1.38112,1.195917 -2.28865,1.420813 -1.29646,0.3175 -2.69346,0.629709 -3.93435,0.137583 a 0.85989631,0.85989631 0 0 0 -0.52917,-0.103187 0.70379206,0.70379206 0 0 0 -0.34925,0.304271 c -1.3679,1.947334 -1.14565,4.542898 -1.50019,6.897691 -0.11112,0.732896 -0.29898,1.489605 -0.79375,2.037293 -0.96308,1.058333 -2.78077,1.018646 -3.66713,2.143126 -0.58473,0.740833 -0.59002,1.770063 -0.58473,2.714626 q 0,1.510772 -0.0265,3.024189 c -0.0159,0.661459 -0.0476,1.34673 -0.34661,1.934106 -0.508,0.994834 -1.64042,1.468438 -2.68552,1.852084 -0.65088,0.243417 -1.32292,0.489479 -2.02142,0.423334 -0.6985,-0.06615 -1.397,-0.529167 -1.48696,-1.227668 -0.12435,-0.947209 0.85196,-1.608667 1.524,-2.291293 1.07421,-1.087438 1.51607,-2.669647 1.55575,-4.19894 a 4.4979192,4.4979192 0 0 0 -0.26458,-1.817688 c -0.24606,-0.600605 -0.68527,-1.105959 -0.94985,-1.698626 -0.81492,-1.825626 0.1905,-3.937002 1.39435,-5.535086 1.20386,-1.598084 2.68288,-3.156481 2.93952,-5.138211 a 7.1252331,7.1252331 0 0 1 0.18257,-1.272647 c 0.1852,-0.576792 0.62441,-2.169584 1.1086,-2.534709 a 5.7599824,5.7599824 0 0 1 2.64584,-1.100668 c 0.74348,-0.108479 1.50283,-0.06879 2.24102,-0.211666 0.86254,-0.166688 1.66423,-0.576792 2.52677,-0.730251 1.86531,-0.330729 3.88938,1.83621 4.70694,3.545419 0.2249,0.523875 0.81492,0.894292 0.60325,1.426105 z" style="stroke-width:.264583;stroke:#f4f7fb;stroke-opacity:1"/><path id="path20459" fill="#f7df1e" d="m 102.61453,3.9163917 h 59.63003 V 63.541425 h -59.63003 z" style="stroke-width:.226582"/><path id="path20461" d="m 108.38133,47.476865 5.32871,-3.225273 c 1.02923,1.822981 1.96321,3.365502 4.20688,3.365502 2.15106,0 3.50573,-0.841375 3.50573,-4.111627 V 21.256642 h 6.54315 v 22.338783 c 0,6.775983 -3.96875,9.861027 -9.76842,9.861027 -5.23347,0 -8.27088,-2.711981 -9.81341,-5.982233 m 23.13518,-0.701146 5.32607,-3.085043 c 1.40229,2.291293 3.22527,3.968752 6.45054,3.968752 2.71199,0 4.43972,-1.354668 4.43972,-3.225273 0,-2.243668 -1.77536,-3.037418 -4.76251,-4.347106 l -1.63512,-0.701147 c -4.72017,-2.008188 -7.85284,-4.532315 -7.85284,-9.861026 0,-4.908023 3.73856,-8.646588 9.58057,-8.646588 4.15925,0 7.14375,1.449917 9.30011,5.233461 l -5.09324,3.272898 c -1.12183,-2.010835 -2.33627,-2.804585 -4.20687,-2.804585 -1.91559,0 -3.13267,1.214438 -3.13267,2.804585 0,1.963209 1.21444,2.75696 4.01902,3.968752 l 1.63513,0.701146 c 5.55625,2.381252 8.69421,4.812774 8.69421,10.281714 0,5.889629 -4.62756,9.114901 -10.84792,9.114901 -6.08542,0 -10.00126,-2.910418 -11.90626,-6.683378" style="stroke-width:.264583"/><path id="path20463" fill="url(#a5312bde-8c7e-4767-9e17-08a43f21bf92)" d="m 202.4143,115.54889 c 0,0 -2.71728,0.19051 -4.39473,-2.71991 a 9.7578387,9.7578387 0 0 0 -1.15623,-1.64306 5.5562531,5.5562531 0 0 1 -0.81228,-2.9501 c 0.0926,-2.15637 -2.15635,-13.967365 -2.15635,-13.967365 0,0 0.28046,-4.497921 -1.9685,-7.310444 -1.48167,-1.852084 -3.61157,-7.143754 -4.8948,-10.562172 a 0.70643789,0.70643789 0 0 0 0.30163,0.15875 l -0.0529,-0.293688 h 0.0529 l -0.66411,-3.648606 a 16.637009,16.637009 0 0 1 -2.42358,-3.672419 l 0.15081,-0.03175 1.98967,-0.418042 c 0,0 3.23321,-4.595815 3.43959,-6.855358 h 0.26458 0.37306 a 77.787543,77.787543 0 0 1 8.9588,0.468313 v 0 c 0,-0.01323 -0.0212,-0.07144 -0.0476,-0.164042 v 0 a 11.244798,11.244798 0 0 1 -0.29104,-1.383771 h 0.18521 l 1.85208,-0.121709 c 0,0 6.37382,-7.122587 4.02961,-8.434921 -2.34421,-1.312334 -4.78102,5.905503 -4.78102,5.905503 l -0.79375,0.142875 -0.21432,0.03969 c 0.0212,-0.03175 0.0423,-0.06085 0.0661,-0.08996 0.0238,-0.02911 -10.40342,-0.465667 -12.00944,-3.000377 0,0 -4.59317,-3.656544 -4.78103,-6.08542 a 2.7490224,2.7490224 0 0 0 -1.651,-2.338918 3.603627,3.603627 0 0 0 -1.82298,-0.341313 l -2.15106,0.148167 0.15081,0.264583 h -0.0608 a 7.2363582,7.2363582 0 0 1 -0.33867,-0.9525 h 0.045 c -0.0159,-0.06615 -0.0291,-0.132292 -0.0423,-0.198438 a 5.061482,5.061482 0 0 0 3.72799,-6.233586 2.0240636,2.0240636 0 0 0 0.63235,-0.01852 c 0.79375,-0.161396 1.35202,-0.96573 1.37319,-1.770064 0,-0.05292 0,-0.105833 0,-0.156104 0,0 0,-0.02117 0,-0.03175 a 2.7199182,2.7199182 0 0 0 -1.04511,-2.09021 c -0.42862,-0.357187 -0.94191,-0.611187 -1.32291,-1.008063 -0.46302,-0.473604 -0.71702,-1.108604 -1.07686,-1.666876 a 4.9477111,4.9477111 0 0 0 -2.54,-1.976438 c -0.77523,-0.264584 -1.72773,-0.291042 -2.32304,0.264583 -0.30692,0.288396 -0.48419,0.706438 -0.82815,0.949855 -0.49477,0.354542 -1.16681,0.248709 -1.77271,0.320146 a 3.3813769,3.3813769 0 0 0 -2.54794,1.907647 4.3947316,4.3947316 0 0 0 -0.41804,2.016126 5.3842738,5.3842738 0 0 0 0.16933,1.415522 c 0.11642,0.460375 0.2884,0.904875 0.4154,1.36525 0.26458,0.952501 0.32544,1.955272 0.62971,2.894544 a 3.6433145,3.6433145 0 0 0 1.1721,1.780647 l -0.0899,0.386291 c -0.0582,0 -1.51871,0.325438 -2.52678,2.529418 -0.79375,1.738314 -3.49514,3.53219 -4.68312,4.257149 a 1.9526261,1.9526261 0 0 0 -0.88371,1.227667 6.3764619,6.3764619 0 0 0 -0.15082,1.558397 c -0.0212,1.129771 0.21432,2.69346 1.12184,4.67519 2.0611,4.497919 3.56129,6.46642 3.56129,6.46642 0,0 0.11377,1.37848 0.12171,2.831043 0,1.082147 -0.0794,2.159002 -0.30956,2.698752 -0.19579,0.455083 -0.26459,1.616605 -0.24871,2.944814 0,2.545293 0.24871,5.865816 0.24871,5.865816 0,0 0.71702,0.137583 1.82562,0.298979 l 0.69057,12.149673 a 5.8420032,5.8420032 0 0 1 -1.32292,4.058709 8.9799633,8.9799633 0 0 1 -1.66423,1.5875 c -1.9685,1.40494 -6.18596,16.216325 -6.18596,16.216325 0,0 0.20637,0 0.54504,0.0397 l -1.29646,3.61686 c 0,0 5.18054,3.96874 8.33173,2.88395 a 3.0532934,3.0532934 0 0 1 1.05834,-0.14817 c 0.62177,0 1.95262,-0.49212 1.21179,-1.14035 a 48.027193,48.027193 0 0 1 -4.04019,-4.20157 2.1484179,2.1484179 0 0 1 0.29104,0.17197 v -0.0291 l 0.045,0.0291 c 0,0 0,-0.14552 0.0344,-0.38365 l -0.045,-0.0159 c 0.0952,-0.97366 0.39687,-3.43958 0.99483,-3.72533 0.74877,-0.37571 6.28121,-11.342681 6.28121,-11.342681 l 5.5298,-14.247828 c 0,0 4.40531,7.593546 8.15446,8.903234 v 3.175 c 0,0 2.06111,9.374185 2.81252,10.403415 0.75142,1.02923 0,5.15409 0,5.15409 a 2.5691056,2.5691056 0 0 0 0.50536,0.4445 l -0.60061,3.39725 c 0,0 4.31271,-0.18785 11.62316,2.06111 -0.005,0.0132 2.80723,-1.20386 0.46302,-2.70404 z m -17.24555,-49.022015 -0.91282,0.227542 -0.17991,0.04498 c -0.0185,-0.113771 -0.0318,-0.179917 -0.0318,-0.179917 a 1.8520844,1.8520844 0 0 1 -0.66411,0.161396 12.210528,12.210528 0 0 1 -0.55562,-3.161772 21.304262,21.304262 0 0 1 -0.55827,-3.915836 c 0,-0.682625 0.11377,-1.277938 0.37041,-1.613959 l 0.30427,0.02381 0.21167,0.201084 0.0159,0.01323 0.10848,0.0979 v 0 l 0.11377,0.100542 0.0185,0.01588 0.1217,0.108479 0.0212,0.01852 0.12436,0.105833 v 0 l 0.14022,0.116417 0.0318,0.02646 0.14817,0.119063 v 0 l 0.14552,0.116416 0.0344,0.02646 0.16139,0.121708 0.0344,0.02381 0.15346,0.113771 0.0265,0.01852 0.17462,0.124355 0.0423,0.0291 0.18521,0.127 h 0.0159 l 0.17992,0.119062 0.0423,0.02911 0.19314,0.124354 0.0423,0.02646 0.17991,0.111125 0.0344,0.02117 0.20638,0.121708 0.0503,0.0291 0.21431,0.119062 h 0.0159 l 0.20902,0.111125 0.0503,0.02646 0.22225,0.111125 0.045,0.02117 0.20637,0.09525 0.0397,0.01852 0.23283,0.100542 0.0556,0.02381 0.24077,0.0979 v 0 c -1.49489,1.64571 -2.26218,5.48217 -2.26218,5.48217 z" style="fill:url(#linearGradient22820);stroke-width:.264583"/><path id="path20465" fill="#4f4d59" d="m 162.04944,111.01923 -1.73831,4.84982 c 0,0 4.7625,3.65125 7.85813,2.89454 a 8.649234,8.649234 0 0 1 1.42081,-0.23019 c 0.64029,-0.0476 1.74361,-0.51593 1.05833,-1.10861 -2.19604,-1.92087 -5.12498,-5.49009 -5.12498,-5.49009 z" style="stroke-width:.26458347;stroke:#f7f9fd;stroke-opacity:1;stroke-miterlimit:4;stroke-dasharray:none"/><path id="path20467" fill="#4f4d59" d="m 190.96577,110.5615 -0.82285,4.66726 c 0,0 4.20952,-0.18257 11.34798,2.01347 0,0 2.74638,-1.19063 0.45773,-2.64583 0,0 -2.64583,0.18257 -4.29948,-2.64584 -1.65365,-2.8284 -2.64584,-2.47121 -2.64584,-2.47121 z" style="stroke-width:.18520843;stroke:#0977fb;stroke-opacity:1;stroke-miterlimit:4;stroke-dasharray:none"/><path id="path20469" fill="#c48c96" d="m 169.17997,76.705401 0.79375,14.202842 a 5.8737533,5.8737533 0 0 1 -1.39965,4.153962 8.6095464,8.6095464 0 0 1 -1.51077,1.41023 c -1.92088,1.37319 -6.04044,15.830025 -6.04044,15.830025 0,0 4.66725,0.26458 5.94783,1.19063 0,0 0.26459,-3.6592 1.00542,-4.02696 0.74084,-0.36778 6.1304,-11.072825 6.1304,-11.072825 l 5.40015,-13.909149 c 0,0 4.29948,7.408337 7.96132,8.694209 v 3.11151 c 0,0 2.01348,9.151945 2.74637,10.157355 0.7329,1.00542 0,5.02709 0,5.02709 0,0 2.11667,2.64583 6.95326,-0.18256 0,0 -1.55575,-1.73831 -1.46315,-3.8444 0.0926,-2.10608 -2.11667,-13.633995 -2.11667,-13.633995 0,0 0.26459,-4.392081 -1.92087,-7.14375 -2.18546,-2.751668 -5.81819,-13.26357 -5.81819,-13.26357 l -2.51884,-5.418669 z" style="stroke-width:.26458347;stroke:#f7f9fd;stroke-opacity:1;stroke-miterlimit:4;stroke-dasharray:none"/><g id="g20475" opacity=".1" transform="matrix(0.26458348,0,0,0.26458348,-30.05404,-43.25675)" style="stroke:#f7f9fd;stroke-opacity:1;stroke-width:.99999998;stroke-miterlimit:4;stroke-dasharray:none"><path id="path20471" d="m 810.53,673 c 0,0 15.56,-54.64 22.83,-59.83 a 33,33 0 0 0 6,-5.68 22,22 0 0 0 5,-15.34 l -3.05,-53.69 51,-31.44 -0.69,-1.49 -53.42,32.94 3.05,53.69 a 22,22 0 0 1 -5,15.34 33,33 0 0 1 -6,5.68 C 823,618.36 807.42,673 807.42,673 c 0,0 17.64,1 22.48,4.5 0,0 0,-0.54 0.13,-1.41 -6.81,-2.34 -19.5,-3.09 -19.5,-3.09 z" transform="translate(-84.99,-85.07)" style="stroke:#f7f9fd;stroke-opacity:1;stroke-width:.99999998;stroke-miterlimit:4;stroke-dasharray:none"/><path id="path20473" d="m 920.86,669.89 c 0,0 2.77,-15.22 0,-19 -2.77,-3.78 -10.38,-38.39 -10.38,-38.39 v -11.78 c -13.83,-4.84 -30.09,-32.86 -30.09,-32.86 l -1.2,3.14 c 4.69,7.44 17.2,25.9 28.19,29.74 v 11.76 c 0,0 7.61,34.59 10.38,38.39 2.77,3.8 0,19 0,19 0,0 3.86,4.86 12.38,4.2 -6.37,-0.53 -9.28,-4.2 -9.28,-4.2 z" transform="translate(-84.99,-85.07)" style="stroke:#f7f9fd;stroke-opacity:1;stroke-width:.99999998;stroke-miterlimit:4;stroke-dasharray:none"/></g><path id="path20477" fill="#714b4f" d="m 200.6654,60.782768 -1.79652,0.119062 -0.94721,0.0635 v -2.288647 l 1.24354,-0.224896 0.76994,-0.140229 c 0,0 2.38125,-7.045858 4.66725,-5.765274 2.286,1.280584 -3.937,8.236484 -3.937,8.236484 z" style="stroke-width:.264583"/><path id="path20479" fill="#714b4f" d="m 171.84168,41.920611 c 0,0 -1.19063,4.574649 -1.55575,7.408338 -0.36513,2.833689 8.509,0.550333 8.509,0.550333 0,0 -3.38667,-4.116919 -1.46315,-6.312961 z" style="stroke-width:.26458347;stroke:#f7f9fd;stroke-opacity:1;stroke-miterlimit:4;stroke-dasharray:none"/><path id="path20481" fill="#e6e6f0" d="m 181.4487,60.970622 0.18256,1.738313 -2.83633,-0.182562 -2.83634,-2.47121 -2.83633,-7.963963 -1.82563,-2.83898 -1.37318,-1.738314 0.55033,-2.116668 c 0,0 0.25135,0.219605 0.67469,0.542396 1.39435,1.058334 4.66196,3.283481 7.05115,2.669648 a 2.8469182,2.8469182 0 0 0 0.32543,-0.103188 l 3.56924,6.130399 z" style="stroke-width:.26458347;stroke:#f7f9fd;stroke-opacity:1;stroke-miterlimit:4;stroke-dasharray:none"/><path id="path20483" d="m 171.20138,44.860134 c 0,0 -1.46314,0.264583 -2.47121,2.47121 -0.77258,1.688042 -3.38666,3.439585 -4.55348,4.146023 a 1.9526261,1.9526261 0 0 0 -0.88635,1.232959 c -0.23548,1.042459 -0.32544,2.987147 0.95514,5.783795 2.01348,4.392085 3.47663,6.312961 3.47663,6.312961 0,0 0.36513,4.392086 -0.18256,5.67267 -0.54769,1.280584 0,8.326442 0,8.326442 0,0 9.60702,1.830918 12.81113,0 3.20411,-1.830917 2.74638,-8.876775 2.74638,-8.876775 0,0 3.01889,6.405566 4.11692,6.588128 l -0.6403,-3.569231 c 0,0 -3.56923,-3.844398 -3.75179,-8.784171 0,0 -1.09802,-4.48469 -0.18256,-5.67267 0,0 15.4649,1.280584 16.38036,0.182562 0,0 -10.15736,-0.457729 -11.71311,-2.928939 0,0 -4.48469,-3.569231 -4.66725,-5.947836 a 2.6299598,2.6299598 0 0 0 -1.37319,-2.156356 3.5824603,3.5824603 0 0 0 -2.05052,-0.457729 l -2.0664,0.142875 c 0,0 3.56923,6.312962 3.38667,7.143754 -0.18256,0.830792 0.18256,7.503587 0.18256,7.503587 0,0 -4.13015,-8.876775 -5.94783,-9.882193 -1.81769,-1.005417 -3.93701,-5.143503 -3.93701,-5.143503 l 0.36513,-2.090209" opacity=".1" style="stroke-width:.26458347;stroke:#f7f9fd;stroke-opacity:1;stroke-miterlimit:4;stroke-dasharray:none"/><path id="path20485" d="m 181.4487,60.970622 0.18256,1.738313 -2.83633,-0.182562 -2.83634,-2.47121 -2.83633,-7.963963 -1.82563,-2.83898 -1.37318,-1.738314 0.55033,-2.116668 c 0,0 0.25135,0.219605 0.67469,0.542396 l -0.127,0.722313 c 0,0 2.11667,4.132794 3.93435,5.140857 1.81769,1.008063 5.94784,9.882193 5.94784,9.882193 0,0 -0.36512,-6.680733 -0.18256,-7.503587 0.12435,-0.558271 -1.47902,-3.643315 -2.52148,-5.572128 a 2.8469182,2.8469182 0 0 0 0.32543,-0.103188 l 3.56924,6.130399 z" opacity=".1" style="stroke-width:.26458347;stroke:#f7f9fd;stroke-opacity:1;stroke-miterlimit:4;stroke-dasharray:none"/><path id="path20487" d="m 198.86888,60.90183 -0.94721,0.0635 v -2.288647 l 1.24354,-0.224896 c -0.43391,0.574146 -0.41804,1.590147 -0.29633,2.450043 z" opacity=".1" style="stroke-width:.26458347;stroke:#f7f9fd;stroke-opacity:1;stroke-miterlimit:4;stroke-dasharray:none"/><path id="path20489" fill="#c48c96" d="m 171.20138,44.587613 c 0,0 -1.46314,0.264583 -2.47121,2.47121 -0.77258,1.688042 -3.38666,3.439585 -4.55348,4.146023 a 1.9526261,1.9526261 0 0 0 -0.88635,1.232959 c -0.23548,1.042459 -0.32544,2.987147 0.95514,5.783795 2.01348,4.392085 3.47663,6.312961 3.47663,6.312961 0,0 0.36513,4.392086 -0.18256,5.67267 -0.54769,1.280584 0,8.326442 0,8.326442 0,0 9.60702,1.830918 12.81113,0 3.20411,-1.830917 2.74638,-8.876775 2.74638,-8.876775 0,0 3.01625,6.394982 4.11692,6.590774 l -0.6403,-3.569231 c 0,0 -3.56923,-3.844398 -3.75179,-8.784172 0,0 -1.09802,-4.48469 -0.18256,-5.672669 0,0 3.56923,3.844398 7.59619,3.751793 a 75.766125,75.766125 0 0 1 8.78417,0.45773 c 0,0 -0.91546,-2.928939 0,-4.026961 0,0 -10.15736,-0.457729 -11.71311,-2.928939 0,0 -4.48469,-3.569231 -4.66725,-5.947837 a 2.6299598,2.6299598 0 0 0 -1.37319,-2.156355 3.5824603,3.5824603 0 0 0 -2.05052,-0.457729 l -2.0664,0.142875 c 0,0 3.56923,6.312962 3.38667,7.143754 -0.18256,0.830792 0.18256,7.503587 0.18256,7.503587 0,0 -4.13015,-8.882067 -5.94783,-9.887484 -1.81769,-1.005418 -3.93701,-5.13292 -3.93701,-5.13292 l 0.36513,-2.090209" style="stroke-width:.26458347;stroke:#f7f9fd;stroke-opacity:1;stroke-miterlimit:4;stroke-dasharray:none"/><path id="path20491" d="m 169.17997,54.194639 c 0,0 2.19604,7.408337 3.47662,8.326442 1.28059,0.918105 9.05934,5.582712 11.34799,4.48469 0,0 0.55033,2.746377 -0.26458,3.386669 0,0 -8.53282,-0.333376 -8.60161,-0.365126 0,0 -5.58272,-0.732896 -6.49817,-3.476626 -0.91546,-2.743731 -2.01348,-7.408338 -2.01348,-7.408338 z" opacity=".1" style="stroke-width:.26458347;stroke:#f7f9fd;stroke-opacity:1;stroke-miterlimit:4;stroke-dasharray:none"/><ellipse id="ellipse20493" cx="180.901" cy="62.111" fill="#ba7855" rx=".32" ry=".458" style="stroke-width:.26458347;stroke:#f7f9fd;stroke-opacity:1;stroke-miterlimit:4;stroke-dasharray:none"/><ellipse id="ellipse20495" cx="181.814" cy="65.312" fill="#ba7855" rx=".32" ry=".458" style="stroke-width:.26458347;stroke:#f7f9fd;stroke-opacity:1;stroke-miterlimit:4;stroke-dasharray:none"/><g id="g20505" opacity=".1" transform="matrix(0.26458348,0,0,0.26458348,-30.05404,-43.25675)" style="stroke:#f7f9fd;stroke-opacity:1;stroke-width:.99999998;stroke-miterlimit:4;stroke-dasharray:none"><path id="path20497" d="m 834.23,545 c 0,0 -2.08,-26.63 0,-31.47 2.08,-4.84 0.69,-21.44 0.69,-21.44 0,0 -5.53,-7.26 -13.14,-23.86 -4.85,-10.57 -4.5,-17.92 -3.61,-21.86 a 7.38,7.38 0 0 1 3.35,-4.66 c 4.41,-2.7 14.28,-9.29 17.21,-15.67 2.15,-4.68 4.84,-7.05 6.78,-8.23 l 0.13,-0.76 c 0,0 -5.53,1 -9.34,9.34 -2.92,6.38 -12.8,13 -17.21,15.67 a 7.38,7.38 0 0 0 -3.35,4.66 c -0.89,3.94 -1.23,11.29 3.61,21.86 7.61,16.6 13.14,23.86 13.14,23.86 0,0 1.38,16.6 -0.69,21.44 -2.07,4.84 0,31.47 0,31.47 0,0 25.94,4.94 41.28,2.29 -15.49,1.85 -38.85,-2.64 -38.85,-2.64 z" transform="translate(-84.99,-85.07)" style="stroke:#f7f9fd;stroke-opacity:1;stroke-width:.99999998;stroke-miterlimit:4;stroke-dasharray:none"/><path id="path20499" d="m 880.91,453.39 c -0.47,2.13 0,14.66 0.39,22.34 1.67,3.41 2.72,5.68 2.72,5.68 0,0 -1.38,-25.25 -0.69,-28.36 0.66,-3 -11.49,-24.66 -12.7,-26.8 l -2.52,0.17 c 0,0 13.5,23.86 12.8,26.97 z" transform="translate(-84.99,-85.07)" style="stroke:#f7f9fd;stroke-opacity:1;stroke-width:.99999998;stroke-miterlimit:4;stroke-dasharray:none"/><path id="path20501" d="m 920,482.44 c -15.22,0.35 -28.71,-14.18 -28.71,-14.18 a 5.54,5.54 0 0 0 -0.87,1.87 c 4,3.72 15,12.93 27.16,12.65 a 286.36,286.36 0 0 1 33.2,1.73 c 0,0 -0.07,-0.23 -0.18,-0.62 A 275.32,275.32 0 0 0 920,482.44 Z" transform="translate(-84.99,-85.07)" style="stroke:#f7f9fd;stroke-opacity:1;stroke-width:.99999998;stroke-miterlimit:4;stroke-dasharray:none"/><path id="path20503" d="m 893,511.49 c 0,0 0.14,2.16 0.06,5.4 3.6,7.14 10.15,19.35 13.08,19.84 l -0.51,-2.84 C 900.6,527.57 893,511.49 893,511.49 Z" transform="translate(-84.99,-85.07)" style="stroke:#f7f9fd;stroke-opacity:1;stroke-width:.99999998;stroke-miterlimit:4;stroke-dasharray:none"/></g><path id="path20507" fill="#714b4f" d="m 186.29852,68.643543 -1.94469,0.410104 -1.53459,0.322792 0.82286,-2.288647 0.57415,-0.142875 0.89164,-0.22225 c 0,0 1.28059,-6.405566 3.8444,-5.947837 2.56381,0.45773 -2.65377,7.868713 -2.65377,7.868713 z" style="stroke-width:.26458347;stroke:#f7f9fd;stroke-opacity:1;stroke-miterlimit:4;stroke-dasharray:none"/><path id="path20509" d="m 184.35647,69.061585 -1.53458,0.322792 0.82286,-2.288648 0.57414,-0.142875 a 9.1387134,9.1387134 0 0 1 0.13758,2.108731 z" opacity=".1" style="stroke-width:.26458347;stroke:#f7f9fd;stroke-opacity:1;stroke-miterlimit:4;stroke-dasharray:none"/><path id="path20511" fill="#c48c96" d="m 169.17997,54.012076 c 0,0 2.19604,7.408338 3.47662,8.326443 1.28059,0.918104 9.05934,5.582711 11.34799,4.484689 0,0 0.55033,2.746377 -0.26458,3.386669 0,0 -8.53282,-0.333375 -8.60161,-0.365125 0,0 -5.58272,-0.732896 -6.49817,-3.476627 -0.91546,-2.743731 -2.01348,-7.408338 -2.01348,-7.408338 z" style="stroke-width:.26458347;stroke:none;stroke-opacity:1;stroke-miterlimit:4;stroke-dasharray:none"/><path id="path20513" d="m 171.93163,42.116403 c 0,0 -0.1852,0.717021 -0.43391,1.75948 a 4.9397736,4.9397736 0 0 0 5.45306,2.513543 c -0.2196,-0.939271 -0.17198,-1.889126 0.47096,-2.624668 z" opacity=".1" style="stroke-width:.26458347;stroke:#f7f9fd;stroke-opacity:1;stroke-miterlimit:4;stroke-dasharray:none"/><circle id="circle20515" cx="175.776" cy="41.384" r="4.942" fill="#714b4f" style="stroke-width:.26458347;stroke:#f7f9fd;stroke-opacity:1;stroke-miterlimit:4;stroke-dasharray:none"/><path id="path20517" d="m 180.06758,40.023548 a 2.6458348,2.6458348 0 0 0 1.10066,0.06879 1.8123968,1.8123968 0 0 0 1.3388,-1.727731 2.6458348,2.6458348 0 0 0 -1.01865,-2.039938 c -0.41804,-0.34925 -0.9181,-0.595313 -1.30175,-0.984251 -0.45244,-0.463021 -0.70115,-1.082146 -1.05833,-1.627188 a 4.8286485,4.8286485 0 0 0 -2.47915,-1.928814 c -0.75671,-0.264583 -1.6854,-0.28575 -2.26748,0.264584 -0.29898,0.283104 -0.47361,0.687917 -0.80698,0.928688 -0.48419,0.343958 -1.14036,0.243417 -1.73038,0.312208 a 3.299356,3.299356 0 0 0 -2.48708,1.852085 4.6593151,4.6593151 0 0 0 -0.24342,3.175001 c 0.11377,0.449792 0.2831,0.883709 0.40481,1.322918 0.26459,0.931334 0.3175,1.907647 0.61384,2.825751 0.29633,0.918105 0.90752,1.817689 1.83356,2.092856 a 5.797024,5.797024 0 0 1 0.59002,-2.987148 0.85725048,0.85725048 0 0 1 0.41804,-0.465667 1.0107089,1.0107089 0 0 1 0.50271,0 5.0270861,5.0270861 0 0 0 3.34698,-0.677333 c 0.3519,-0.211667 0.89959,-0.941918 1.27265,-1.013355 0.48154,-0.08202 1.46844,0.497417 1.97115,0.608542 z" opacity=".1" style="stroke-width:.26458347;stroke:#f7f9fd;stroke-opacity:1;stroke-miterlimit:4;stroke-dasharray:none"/><path id="path20519" fill="#503f43" d="m 180.06758,39.840985 a 2.6458348,2.6458348 0 0 0 1.10066,0.06879 1.8123968,1.8123968 0 0 0 1.3388,-1.72773 2.6458348,2.6458348 0 0 0 -1.01865,-2.039939 c -0.41804,-0.34925 -0.9181,-0.595313 -1.30175,-0.98425 -0.45244,-0.463021 -0.70115,-1.082147 -1.05833,-1.627189 a 4.8286485,4.8286485 0 0 0 -2.47915,-1.928813 c -0.75671,-0.264584 -1.6854,-0.285751 -2.26748,0.264583 -0.29898,0.283104 -0.47361,0.687917 -0.80698,0.928688 -0.48419,0.343959 -1.14036,0.243417 -1.73038,0.312209 a 3.299356,3.299356 0 0 0 -2.48708,1.852084 4.6593151,4.6593151 0 0 0 -0.24342,3.175002 c 0.11377,0.449792 0.2831,0.883709 0.40481,1.322917 0.26459,0.931334 0.3175,1.907647 0.61384,2.825752 0.29633,0.918104 0.90752,1.817688 1.83356,2.092855 a 5.797024,5.797024 0 0 1 0.59531,-2.984502 0.85725048,0.85725048 0 0 1 0.41805,-0.465667 1.0107089,1.0107089 0 0 1 0.5027,0 5.0270861,5.0270861 0 0 0 3.34698,-0.677333 c 0.3519,-0.211667 0.89959,-0.941917 1.27265,-1.013355 0.47625,-0.08467 1.46315,0.494771 1.96586,0.605896 z" style="stroke-width:.26458347;stroke:#f7f9fd;stroke-opacity:1;stroke-miterlimit:4;stroke-dasharray:none"/><path id="path20521" fill="#e44d26" d="m 229.37271,23.529414 -4.03225,45.1644 -18.12397,5.027086 -18.0737,-5.027086 -4.02696,-45.1644 z" style="stroke-width:.264583"/><path id="path20523" fill="#f16529" d="m 207.24295,69.879148 14.64469,-4.058711 3.43959,-38.597438 h -18.08428 z" style="stroke-width:.264583"/><path id="path20525" fill="#ebebeb" d="m 199.40598,38.303755 h 7.83697 v -5.540378 h -13.89064 l 0.13229,1.486959 1.36261,15.266467 h 12.39838 v -5.540378 h -7.33161 z m 1.25942,13.983237 h -5.55625 l 0.77523,8.699505 11.33475,3.159127 h 0.0265 v -5.781149 h -0.0238 l -6.17009,-1.666876 z" style="stroke-width:.264583"/><path id="path20527" d="m 189.23539,11.252741 h 2.81517 v 2.780772 h 2.5744 v -2.780772 h 2.81517 v 8.424338 h -2.81517 v -2.82046 h -2.5744 v 2.82046 h -2.81517 z m 11.90626,2.794001 h -2.47915 v -2.794001 h 7.77347 v 2.794001 h -2.47915 v 5.630337 h -2.81252 v -5.630337 0 z m 6.52992,-2.794001 h 2.93688 l 1.8071,2.960689 1.80446,-2.960689 h 2.93688 v 8.424338 h -2.80459 v -4.175128 l -1.93675,2.995085 h -0.0476 l -1.9394,-2.995085 v 4.175128 h -2.75696 z m 10.88497,0 h 2.81516 v 5.638274 h 3.96876 v 2.783418 h -6.77599 v -8.421692 z" style="stroke-width:.264583"/><path id="path20529" fill="#fff" d="m 207.22442,49.516803 h 6.82097 l -0.64294,7.186087 -6.17803,1.666876 v 5.775858 l 11.35857,-3.148544 0.082,-0.936625 1.30176,-14.586488 0.13493,-1.486959 h -12.87726 v 5.540378 z m 0,-11.226277 v 0.01323 h 13.38264 l 0.11112,-1.246188 0.26459,-2.809877 0.13229,-1.486959 h -13.89064 v 5.527149 z" style="stroke-width:.264583"/><path id="path20531" fill="url(#016d359d-0d48-4404-968f-1612e9b5c7a7)" d="M 66.97666,56.872224 C 66.46072,55.361452 65.71724,53.432639 65.12458,52.99343 a 0.55297947,0.55297947 0 0 0 -0.11642,-0.07144 h -0.0741 v -1.865313 l -1.39171,0.22225 a 13.300612,13.300612 0 0 1 -0.50536,-2.066397 0.96043803,0.96043803 0 0 0 1.04511,0.209021 c -0.0238,-0.03704 -0.0423,-0.07673 -0.0635,-0.116417 l 0.0635,-0.02646 a 2.5849806,2.5849806 0 0 1 -0.33602,-1.267355 4.6143359,4.6143359 0 0 1 0.19314,-1.195917 c 0.24871,-0.859897 0.6694,-1.66423 0.90488,-2.526772 A 6.1436284,6.1436284 0 0 0 65.05576,42.57942 6.2282951,6.2282951 0 0 0 64.40489,39.761606 1.6457092,1.6457092 0 0 0 63.91276,39.118668 6.3500035,6.3500035 0 0 0 63.30951,38.824981 3.2570226,3.2570226 0 0 1 62.43374,37.951855 7.8687127,7.8687127 0 0 0 58.63168,35.4145 2.2251471,2.2251471 0 0 0 57.41724,35.31925 c -0.93398,0.264583 -1.27529,1.410229 -2.032,2.016126 -0.6694,0.529167 -1.5875,0.590021 -2.42359,0.769938 a 4.1222106,4.1222106 0 0 0 -2.25689,1.182688 2.450043,2.450043 0 0 0 -0.6059,1.635126 1.6430634,1.6430634 0 0 0 0.6694,1.4605 2.098147,2.098147 0 0 0 1.7727,0.251355 6.0298575,6.0298575 0 0 0 4.56407,7.580316 l 0.16404,0.291042 v 0 a 12.485694,12.485694 0 0 1 1.12977,2.955398 c -1.28058,0.727604 -2.68023,1.407584 -3.52425,1.471084 a 5.9398991,5.9398991 0 0 1 -0.18256,0.976313 5.3895655,5.3895655 0 0 1 -1.10861,2.182814 c -1.14829,1.291167 -6.3156,11.054297 -6.3156,11.054297 0,0 -0.16405,0.388938 -0.42863,1.058334 -3.2094,0.39423 -8.4455,0.963084 -9.90865,0.669397 l -5.74146,-5.455712 c 0,0 -1.85209,1.415522 -1.69334,3.135314 l -1.03452,-0.98425 c 0,0 -5.45571,4.161898 3.15913,6.87917 l 13.10746,1.521355 c -1.24883,3.767669 -2.413,8.151817 -2.05316,10.53836 h 0.10848 a 4.9556486,4.9556486 0 0 0 0.74877,-0.05821 l -0.0238,0.423334 -1.26206,22.603371 c 0,0 -0.28839,4.1619 3.58775,6.02985 0,0 4.73869,13.92502 2.87073,15.50458 0,0 0.22225,0.11642 0.59532,0.28046 l -3.89732,3.43958 c 0,0 -2.87073,0.71702 -4.45029,0.57416 a 1.1403548,1.1403548 0 0 0 -1.25942,0.84931 c 0,0.0291 0,0.0582 -0.0159,0.09 v 0.037 c 0,0.0291 0,0.0609 0,0.0926 0,0.0318 0,0.0238 0,0.0344 0,0.0106 0,0.0529 0,0.0794 v 0.0344 c 0,0.0318 0,0.0609 0.0185,0.0926 v 0.0344 q 0.0132,0.0503 0.0318,0.0979 v 0.0318 c 0.0132,0.0318 0.0291,0.0635 0.045,0.0952 v 0.0212 c 0.0185,0.0318 0.037,0.0635 0.0582,0.0953 l 0.0185,0.0264 q 0.0344,0.0503 0.0767,0.10055 l 0.0212,0.0265 c 0.0291,0.0344 0.0609,0.0661 0.0952,0.10055 h 0.0159 l 0.10583,0.09 0.0238,0.0185 0.12965,0.0926 0.0318,0.0212 0.15081,0.0873 h 0.0238 l 0.1614,0.0794 h 0.0238 l 0.18786,0.0767 0.0397,0.0159 0.20902,0.0688 h 0.0344 l 0.2249,0.0582 h 0.0185 l 0.26458,0.0503 h 0.0503 l 0.26458,0.0397 h 0.0503 l 0.30427,0.0291 c 0.59002,0.045 1.38641,0.0609 2.30716,0.0582 v 0 c 0,0 0,0.0238 0,0.0344 0,0.0106 0,0.0529 0,0.0794 v 0.0344 c 0,0.0318 0,0.0609 0.0185,0.0926 v 0.0344 q 0.0132,0.0503 0.0317,0.0979 v 0.0318 c 0.0132,0.0318 0.0291,0.0635 0.045,0.0952 v 0.0212 c 0.0185,0.0317 0.037,0.0635 0.0582,0.0952 l 0.0185,0.0265 q 0.0344,0.0503 0.0767,0.10054 l 0.0212,0.0265 c 0.0291,0.0344 0.0608,0.0661 0.0952,0.10054 h 0.0132 l 0.10583,0.09 0.0238,0.0185 0.12965,0.0926 0.0318,0.0212 0.14817,0.0873 h 0.0238 l 0.1614,0.0794 h 0.0238 l 0.18785,0.0767 0.0397,0.0159 0.20902,0.0688 h 0.0344 l 0.22489,0.0582 h 0.0185 l 0.26459,0.0503 h 0.0503 l 0.26458,0.0397 h 0.0503 l 0.30427,0.0291 c 3.73328,0.28839 15.64747,-0.57414 15.64747,-0.57414 v -0.0344 0 -0.0423 0 c 0.11906,-0.55563 0.69056,-3.78619 -1.34144,-6.17538 0.0609,-0.0635 0.11907,-0.12966 0.17463,-0.19844 0,0 -1.5875,-2.72785 -0.71702,-3.58775 0.87048,-0.8599 -4.20424,-15.65804 -4.20424,-15.65804 0,0 -2.72785,-4.30742 -1.14829,-9.18898 1.57957,-4.881571 -0.14287,-10.191765 -0.14287,-10.191765 0,0 3.77031,-1.11654 3.8391,-5.754691 0,-0.140229 0,-0.28575 0,-0.431271 a 1.5240008,1.5240008 0 0 0 0.23813,0.01588 1.1138965,1.1138965 0 0 0 0.15875,0 c 0,0 -0.71702,-2.58498 0.14287,-4.450294 0.8599,-1.865313 2.72786,-0.142875 4.4503,-7.752296 1.24619,-5.505982 2.34156,-11.837465 2.85485,-14.919862 A 7.8554835,7.8554835 0 0 0 66.97661,56.872653 Z M 34.21593,73.011816 32.90624,71.768274 c 0.43392,0.179917 0.91546,0.354542 1.45257,0.529167 l 4.93448,0.579438 c -2.20133,0.198437 -4.25715,0.309562 -5.07736,0.142875 z" style="fill:url(#016d359d-0d48-4404-968f-1612e9b5c7a7);stroke-width:.18520843;stroke:#f4f7fb;stroke-opacity:1;stroke-miterlimit:4;stroke-dasharray:none"/><path id="path20533" fill="#fdc2cc" d="m 46.71221,72.286857 c 0,0 -10.15471,1.41023 -12.27138,0.986897 l -5.64092,-5.360462 c 0,0 -5.36046,4.090461 3.10356,6.770692 l 15.79564,1.833563 z" style="stroke-width:.18520843;stroke:#f4f7fb;stroke-opacity:1;stroke-miterlimit:4;stroke-dasharray:none"/><path id="path20535" d="m 46.71221,72.286857 c 0,0 -10.15471,1.41023 -12.27138,0.986897 l -5.64092,-5.360462 c 0,0 -5.36046,4.090461 3.10356,6.770692 l 15.79564,1.833563 z" opacity=".05" style="stroke-width:.18520843;stroke:#f4f7fb;stroke-opacity:1;stroke-miterlimit:4;stroke-dasharray:none"/><path id="path20537" fill="#264de4" d="M 26.83405,75.845505 4.8895,69.760085 0,14.91193 h 53.73426 l -4.8948,54.840218 z" style="stroke-width:.264583"/><path id="path20539" fill="#2965f1" d="M 44.64846,66.262292 48.83152,19.399266 H 26.8711 v 51.781632 z" style="stroke-width:.264583;stroke:none;stroke-opacity:1"/><path id="path20541" fill="#ebebeb" d="m 11.22363,39.732506 0.60325,6.725712 h 15.0548 V 39.732506 Z M 10.01184,26.11704 10.62302,32.842752 H 26.87903 V 26.11704 H 9.9986101 Z m 16.86719,31.085913 h -0.0291 L 19.35692,55.17889 18.87803,49.813137 h -6.7654 l 0.94192,10.562172 13.7795,3.833815 h 0.0318 z" style="stroke-width:.264583"/><path id="path20543" d="m 12.64709,0 h 8.14652 v 3.40784 h -4.74133 v 3.40783 h 4.74133 v 3.407841 h -8.14652 z m 9.78959,0 h 8.14652 v 2.96334 h -4.75192 v 0.59267 h 4.74134 v 6.815668 H 22.42345 V 7.26018 h 4.74133 V 6.66751 H 22.42345 V 0 Z m 9.78959,0 h 8.14652 v 2.96334 h -4.76515 v 0.59267 h 4.74134 v 6.815668 H 32.19981 V 7.26018 h 4.74133 V 6.66751 H 32.19981 V 0 Z" style="stroke-width:.264583"/><path id="path20545" fill="#fff" d="M 42.48152,39.732506 43.69596,26.11704 H 26.83405 v 6.725712 h 9.48003 l -0.61119,6.879171 h -8.86884 v 6.725712 h 8.28411 l -0.79375,8.731255 -7.49036,2.029355 v 6.998233 l 13.79009,-3.823231 0.10055,-1.137709 1.5875,-17.711219 0.16404,-1.807105 z" style="stroke-width:.264583;stroke:#f4f7fb;stroke-opacity:1"/><path id="path20547" fill="#47465a" d="m 50.38198,129.548 -4.93712,4.37092 c 0,0 -2.82046,0.70644 -4.37092,0.56357 -1.55046,-0.14288 -2.2569,2.39712 1.41023,2.68023 3.66712,0.2831 15.3723,-0.56357 15.3723,-0.56357 0,0 1.12712,-4.51379 -2.2569,-7.05115 z" style="stroke-width:.26458347;stroke:#f4f7fb;stroke-opacity:1;stroke-miterlimit:4;stroke-dasharray:none"/><path id="path20549" d="m 50.38198,129.548 -4.93712,4.37092 c 0,0 -2.82046,0.70644 -4.37092,0.56357 -1.55046,-0.14288 -2.2569,2.39712 1.41023,2.68023 3.66712,0.2831 15.3723,-0.56357 15.3723,-0.56357 0,0 1.12712,-4.51379 -2.2569,-7.05115 z" opacity=".05" style="stroke-width:.26458347;stroke:#f4f7fb;stroke-opacity:1;stroke-miterlimit:4;stroke-dasharray:none"/><path id="path20551" fill="#fff" d="m 58.03109,134.64918 a 7.7787543,7.7787543 0 0 1 -0.17727,1.52929 c 0,0 -11.70517,0.84666 -15.3723,0.56356 -1.76477,-0.13493 -2.51354,-0.79375 -2.64583,-1.42346 -0.1614,0.72497 0.47889,1.6801 2.64583,1.85208 3.66713,0.28311 15.3723,-0.56355 15.3723,-0.56355 a 8.1491712,8.1491712 0 0 0 0.17727,-1.95792 z" opacity=".3" style="stroke-width:.26458347;stroke:#f4f7fb;stroke-opacity:1;stroke-miterlimit:4;stroke-dasharray:none"/><path id="path20553" fill="#fdc2cc" d="m 56.16049,49.593532 c 0,0 3.10356,4.370919 1.97379,7.334254 -1.12977,2.963335 5.92402,-3.103564 5.92402,-3.103564 0,0 -2.25689,-3.966106 -1.12712,-8.199442 z" style="stroke-width:.18520843;stroke:#f4f7fb;stroke-opacity:1;stroke-miterlimit:4;stroke-dasharray:none"/><path id="path20555" fill="#47465a" d="m 55.31382,131.24134 -4.93184,4.37092 c 0,0 -2.82046,0.70643 -4.37092,0.56356 -1.55045,-0.14288 -2.25689,2.39713 1.41023,2.68023 3.66713,0.2831 15.3723,-0.56356 15.3723,-0.56356 0,0 1.12713,-4.5138 -2.25689,-7.05115 z" style="stroke-width:.18520843;stroke:#f4f7fb;stroke-opacity:1;stroke-miterlimit:4;stroke-dasharray:none"/><path id="path20557" fill="#565171" d="m 56.73199,130.25444 c -0.73554,0.90752 -1.77271,1.25677 -2.8575,1.30969 -2.46592,0.11642 -5.18055,-1.30969 -5.18055,-1.30969 1.83356,-1.55046 -2.82046,-15.23207 -2.82046,-15.23207 -3.80736,-1.83355 -3.5269,-5.92402 -3.5269,-5.92402 l 1.23296,-22.198547 0.31221,-5.57742 3.95023,-2.397126 3.1115,2.381251 2.95276,2.264835 a 11.869215,11.869215 0 0 1 0.37041,2.201334 c 0.34396,5.183191 -3.75444,6.402921 -3.75444,6.402921 0,0 1.69334,5.217587 0.14023,10.014482 -1.5531,4.79691 1.12713,9.0276 1.12713,9.0276 0,0 5.07735,14.66849 4.23333,15.51515 -0.84402,0.84667 0.70909,3.52161 0.70909,3.52161 z" style="stroke-width:.26458347;stroke:#f4f7fb;stroke-opacity:1;stroke-miterlimit:4;stroke-dasharray:none"/><path id="path20559" d="m 56.73199,130.25444 c -0.73554,0.90752 -1.77271,1.25677 -2.8575,1.30969 -2.46592,0.11642 -5.18055,-1.30969 -5.18055,-1.30969 1.83356,-1.55046 -2.82046,-15.23207 -2.82046,-15.23207 -3.80736,-1.83355 -3.5269,-5.92402 -3.5269,-5.92402 l 1.23296,-22.198547 0.31221,-5.57742 3.95023,-2.397126 3.1115,2.381251 2.95276,2.264835 a 11.869215,11.869215 0 0 1 0.37041,2.201334 c 0.34396,5.183191 -3.75444,6.402921 -3.75444,6.402921 0,0 1.69334,5.217587 0.14023,10.014482 -1.5531,4.79691 1.12713,9.0276 1.12713,9.0276 0,0 5.07735,14.66849 4.23333,15.51515 -0.84402,0.84667 0.70909,3.52161 0.70909,3.52161 z" opacity=".05" style="stroke-width:.26458347;stroke:#f4f7fb;stroke-opacity:1;stroke-miterlimit:4;stroke-dasharray:none"/><path id="path20561" fill="#565171" d="m 61.66118,131.94513 c -2.39713,2.96069 -8.03805,0 -8.03805,0 a 0.89958383,0.89958383 0 0 0 0.24606,-0.38365 c 1.03453,-2.81252 -3.48985,-16.25864 -3.48985,-16.25864 -3.80736,-1.83356 -4.23334,-6.20449 -4.23334,-6.20449 l -0.99748,-22.600714 -0.12964,-2.926293 5.9346,-2.264835 1.82298,-0.695854 6.0722,4.654023 a 10.998735,10.998735 0 0 1 0.381,2.958043 c -0.0767,4.553485 -3.77297,5.654145 -3.77297,5.654145 0,0 1.69334,5.217594 0.14023,10.014495 -1.5531,4.79689 1.13507,9.01436 1.13507,9.01436 0,0 5.07735,14.6685 4.23333,15.51516 -0.84402,0.84666 0.69586,3.52425 0.69586,3.52425 z" style="stroke-width:.26458347;stroke:#f4f7fb;stroke-opacity:1;stroke-miterlimit:4;stroke-dasharray:none"/><path id="path20563" d="m 59.22966,88.22272 c -1.21973,-0.174625 -3.6883,-1.643063 -4.95565,-2.439459 -0.48419,-0.304271 -0.79375,-0.508001 -0.79375,-0.508001 0,0 -1.27,-3.526897 -4.65403,-0.846667 a 12.670903,12.670903 0 0 1 -3.67771,2.079626 8.6042548,8.6042548 0 0 1 -1.56898,0.39423 l 0.31221,-5.57742 3.95023,-2.397126 3.1115,2.381251 1.82298,-0.695855 6.0722,4.651378 a 10.998735,10.998735 0 0 1 0.381,2.958043 z" opacity=".1" style="stroke-width:.26458347;stroke:#f4f7fb;stroke-opacity:1;stroke-miterlimit:4;stroke-dasharray:none"/><path id="path20565" fill="#e1a0a7" d="m 66.86289,61.158476 c -0.50271,3.026835 -1.5875,9.260422 -2.80459,14.655279 -1.69333,7.474483 -3.52689,5.781149 -4.37092,7.614713 -0.84402,1.833563 -0.14022,4.370919 -0.14022,4.370919 -1.41023,0.140229 -6.06426,-2.960689 -6.06426,-2.960689 0,0 -1.27,-3.526898 -4.65402,-0.846667 -3.38402,2.68023 -6.06425,2.537355 -6.06425,2.537355 -0.70644,-4.654023 4.51379,-17.065634 4.51379,-17.065634 0,0 5.07736,-9.591152 6.20448,-10.847923 a 5.2916696,5.2916696 0 0 0 1.09009,-2.143126 5.8340657,5.8340657 0 0 0 0.17991,-0.957792 c 1.83357,-0.14023 6.35001,-3.243794 6.35001,-3.243794 l 3.52689,-0.563563 v 1.833564 a 0.52916696,0.52916696 0 0 1 0.11642,0.07144 c 0.57944,0.441855 1.32292,2.325689 1.81769,3.810002 a 7.7179001,7.7179001 0 0 1 0.29898,3.735919 z" style="stroke-width:.26458347;stroke:#f4f7fb;stroke-opacity:1;stroke-miterlimit:4;stroke-dasharray:none"/><path id="path20567" fill="#fdc2cc" d="M 50.38198,74.403525 48.559,74.191858 34.58635,72.569962 C 26.11968,69.889731 31.48279,65.79927 31.48279,65.79927 l 5.64092,5.360462 c 1.62718,0.325437 8.01158,-0.433917 10.87173,-0.793751 0.85725,-0.111125 1.39965,-0.185208 1.39965,-0.185208 z" style="stroke-width:.18520843;stroke:#f4f7fb;stroke-opacity:1;stroke-miterlimit:4;stroke-dasharray:none"/><path id="path20569" d="m 64.0583,55.364098 c 0,0 -3.66712,-2.960689 -9.1784,6.627816 -5.51127,9.588505 -6.77069,8.038046 -6.77069,8.038046 0,0 1.12713,4.233336 0.56356,5.077357 0,0 3.80736,-0.283104 5.21759,0 1.41023,0.283105 10.15471,-10.718277 10.15471,-10.718277 0,0 4.52703,-6.204482 0.0132,-9.024942 z" opacity=".1" style="stroke-width:.18520843;stroke:#f4f7fb;stroke-opacity:1;stroke-miterlimit:4;stroke-dasharray:none"/><path id="path20571" d="m 63.91807,54.800535 c 0,0 -3.66712,-2.960689 -9.16781,6.627816 -5.50069,9.588506 -6.77069,8.038046 -6.77069,8.038046 0,0 4.37091,4.794253 5.78114,5.077357 1.41023,0.283105 10.15472,-10.718276 10.15472,-10.718276 0,0 4.51644,-6.204483 0.003,-9.024943 z" opacity=".1" style="stroke-width:.18520843;stroke:#f4f7fb;stroke-opacity:1;stroke-miterlimit:4;stroke-dasharray:none"/><path id="path20573" d="m 48.55636,74.199796 c 0.0582,-1.045105 -0.33602,-2.881314 -0.56357,-3.833815 0.85726,-0.111125 1.39965,-0.185208 1.39965,-0.185208 l 0.9869,4.233336 z" opacity=".1" style="stroke-width:.18520843;stroke:#f4f7fb;stroke-opacity:1;stroke-miterlimit:4;stroke-dasharray:none"/><path id="path20575" fill="#e1a0a7" d="m 64.0583,55.080994 c 0,0 -3.66712,-2.960689 -9.1784,6.630462 -5.51127,9.591151 -6.77069,8.038046 -6.77069,8.038046 0,0 1.12713,4.233335 0.56356,5.077357 0,0 3.80736,-0.283105 5.21759,0 1.41023,0.283104 10.15471,-10.718277 10.15471,-10.718277 0,0 4.52703,-6.207128 0.0132,-9.027588 z" style="stroke-width:.18520843;stroke:#f4f7fb;stroke-opacity:1;stroke-miterlimit:4;stroke-dasharray:none"/><path id="path20577" d="m 63.08199,45.913176 -6.78127,3.94494 a 14.470071,14.470071 0 0 1 0.79375,1.291167 5.9504825,5.9504825 0 0 0 1.18533,0.119063 c 1.80711,0 2.64584,-1.897064 3.73857,-3.175002 -0.0794,-1.016001 0.75141,-1.042459 1.06362,-2.180168 z" opacity=".1" style="stroke-width:.26458347;stroke:#f4f7fb;stroke-opacity:1;stroke-miterlimit:4;stroke-dasharray:none"/><circle id="circle20579" cx="58.134" cy="45.069" r="5.924" fill="#fdc2cc" style="stroke-width:.26458347;stroke:#f4f7fb;stroke-opacity:1;stroke-miterlimit:4;stroke-dasharray:none"/><path id="path20581" d="m 50.64657,40.277548 a 4.0481272,4.0481272 0 0 1 2.21721,-1.164167 c 0.82285,-0.177271 1.72508,-0.230188 2.38125,-0.756709 0.74348,-0.595313 1.07685,-1.72773 1.99496,-1.98173 a 2.1881054,2.1881054 0 0 1 1.19327,0.09525 7.7284835,7.7284835 0 0 1 3.73592,2.492376 3.1988143,3.1988143 0 0 0 0.86254,0.859896 6.2441701,6.2441701 0 0 1 0.59267,0.288396 1.6166051,1.6166051 0 0 1 0.48154,0.632355 6.1330451,6.1330451 0 0 1 0.42862,4.304773 c -0.23018,0.849313 -0.64293,1.637772 -0.889,2.484439 -0.24606,0.846667 -0.30691,1.804459 0.14023,2.561168 -0.43391,0.22225 -0.9816,-0.05821 -1.25412,-0.463021 -0.27252,-0.404813 -0.35454,-0.90223 -0.49742,-1.370542 A 5.2255237,5.2255237 0 0 0 60.50495,45.87878 c -0.4445,-0.391583 -1.23825,-0.656167 -1.54782,-0.150812 -0.11906,0.195791 -0.11112,0.447146 -0.21431,0.650875 -0.20108,0.399521 -0.79375,0.478896 -1.1721,0.264583 a 1.7965218,1.7965218 0 0 1 -0.7329,-1.087438 c -0.57944,-1.965855 -1.57163,-3.20146 -3.67242,-2.36273 -0.79375,0.312208 -1.70656,0.529167 -2.46062,0 -0.96573,-0.709084 -0.77259,-2.114022 -0.0582,-2.91571 z" opacity=".1" style="stroke-width:.26458347;stroke:#f4f7fb;stroke-opacity:1;stroke-miterlimit:4;stroke-dasharray:none"/><path id="path20583" fill="#8f5a6a" d="m 50.64657,40.134673 a 4.0481272,4.0481272 0 0 1 2.21721,-1.164167 c 0.82285,-0.177271 1.72508,-0.230188 2.38125,-0.756709 0.74348,-0.595313 1.07685,-1.72773 1.99496,-1.98173 a 2.1881054,2.1881054 0 0 1 1.19327,0.09525 7.7284835,7.7284835 0 0 1 3.73592,2.492376 3.1988143,3.1988143 0 0 0 0.86254,0.859896 6.2441701,6.2441701 0 0 1 0.59267,0.288396 1.6166051,1.6166051 0 0 1 0.48154,0.632355 6.1330451,6.1330451 0 0 1 0.42862,4.304773 c -0.23018,0.849313 -0.64293,1.637772 -0.889,2.484439 -0.24606,0.846667 -0.30691,1.804459 0.14023,2.561168 -0.43391,0.22225 -0.9816,-0.05821 -1.25412,-0.463021 -0.27252,-0.404813 -0.35454,-0.90223 -0.49742,-1.370543 a 5.2255237,5.2255237 0 0 0 -1.52929,-2.381251 c -0.4445,-0.391583 -1.23825,-0.656167 -1.54782,-0.150812 -0.11906,0.195791 -0.11112,0.447146 -0.21431,0.650875 -0.20108,0.399521 -0.79375,0.478896 -1.1721,0.264583 a 1.7965218,1.7965218 0 0 1 -0.7329,-1.087438 c -0.57944,-1.965855 -1.57163,-3.20146 -3.67242,-2.36273 -0.79375,0.312208 -1.70656,0.529167 -2.46062,0 -0.96573,-0.706438 -0.77259,-2.111376 -0.0582,-2.91571 z" style="stroke-width:.26458347;stroke:#f4f7fb;stroke-opacity:1;stroke-miterlimit:4;stroke-dasharray:none"/><path id="path20585" d="m 64.73828,53.601972 h -2.86544 c 0,0 -5.64092,2.82046 -5.78114,2.680231 -0.0952,-0.09525 -0.96838,0.06879 -1.52136,0.182562 a 5.8340657,5.8340657 0 0 0 0.17992,-0.957792 c 1.83356,-0.140229 6.35,-3.243793 6.35,-3.243793 l 3.5269,-0.563563 v 1.833563 a 0.52916696,0.52916696 0 0 1 0.11112,0.06879 z" opacity=".05" style="stroke-width:.18520843;stroke:#f4f7fb;stroke-opacity:1;stroke-miterlimit:4;stroke-dasharray:none"/><path id="path20587" fill="#fff" d="m 62.96557,136.33986 a 7.7787543,7.7787543 0 0 1 -0.17727,1.52929 c 0,0 -11.70517,0.84667 -15.3723,0.56357 -1.76477,-0.13494 -2.51354,-0.79375 -2.64583,-1.42346 -0.1614,0.72496 0.47889,1.6801 2.64583,1.85208 3.66713,0.28311 15.3723,-0.56356 15.3723,-0.56356 a 8.1491712,8.1491712 0 0 0 0.17727,-1.95792 z" opacity=".3" style="stroke-width:.18520843;stroke:#f4f7fb;stroke-opacity:1;stroke-miterlimit:4;stroke-dasharray:none"/><g id="g20593" opacity=".05" transform="matrix(0.26458348,0,0,0.26458348,-30.05404,-43.25675)" style="stroke:#f4f7fb;stroke-opacity:1;stroke-width:.69999999;stroke-miterlimit:4;stroke-dasharray:none"><path id="path20589" d="m 378.06,565.48 c -7.19,5.7 -13.55,8 -17.73,9 0,0.4 0.08,0.79 0.14,1.17 0,0 10.13,0.53 22.92,-9.59 a 17.18,17.18 0 0 1 6.85,-3.58 c -2.79,-1.37 -6.77,-1.28 -12.18,3 z" transform="translate(-84.99,-85.07)" style="stroke:#f4f7fb;stroke-opacity:1;stroke-width:.69999999;stroke-miterlimit:4;stroke-dasharray:none"/><path id="path20591" d="m 450.4,465.54 c -1.91,-5.61 -4.68,-12.72 -6.87,-14.4 a 2,2 0 0 0 -0.44,-0.27 c 0,0 -4.41,0.15 -4.26,0.27 2.19,1.67 4.33,8.26 6.24,13.86 a 29.17,29.17 0 0 1 1.16,14.16 c -1.9,11.44 -6,35 -10.6,55.39 -6.4,28.25 -13.33,21.85 -16.52,28.78 -2.62,5.68 -1.31,13.14 -0.74,15.65 a 13.41,13.41 0 0 0 5.54,1.41 c 0,0 -2.67,-9.59 0.53,-16.52 3.2,-6.93 10.13,-0.53 16.52,-28.78 4.63,-20.44 8.7,-44 10.6,-55.39 a 29.17,29.17 0 0 0 -1.16,-14.16 z" transform="translate(-84.99,-85.07)" style="stroke:#f4f7fb;stroke-opacity:1;stroke-width:.69999999;stroke-miterlimit:4;stroke-dasharray:none"/></g></svg>