<svg xmlns="http://www.w3.org/2000/svg" xmlns:svg="http://www.w3.org/2000/svg" id="svg4071" width="389.298" height="331.019" version="1.1"><metadata id="metadata4077"/><g id="g4027" fill="#2f2e41" transform="translate(-49.701673,4.0186319)"><ellipse id="ellipse4017" cx="171.714" cy="300.46" rx="10.903" ry="4.089"/><ellipse id="ellipse4019" cx="197.882" cy="299.915" rx="10.903" ry="4.089"/><ellipse id="ellipse4021" cx="84.023" cy="313.254" rx="21.534" ry="6.76" transform="rotate(-29.963)"/><circle id="circle4023" cx="-210.907" cy="217.022" r="43.067" transform="rotate(-80.783)"/><path id="path4025" d="m 160.811,276.746 h 13.084 v 23.442 h -13.084 z m 26.167,0 h 13.084 v 23.442 h -13.084 z"/></g><circle id="circle4029" cx="131.825" cy="236.062" r="14.719" fill="#fff"/><circle id="circle4031" cx="131.825" cy="236.062" r="4.906" fill="#3f3d56"/><path id="path4033" fill="#e6e6e6" d="m 88.958331,206.91363 c -3.477,-15.574 7.639,-31.31 24.828999,-35.149 17.19,-3.839 33.944,5.675 37.422,21.249 3.478,15.574 -7.915,21.318 -25.105,25.156 -17.19,3.838 -33.667999,4.318 -37.144999,-11.256 z" style="fill:#06f"/><ellipse id="ellipse4035" cx="-169.847" cy="171.562" fill="#2f2e41" rx="6.76" ry="21.534" transform="rotate(-64.626)"/><path id="path4037" fill="#fff" d="m 109.58033,262.50163 c 0,4.215 10.853,12.539 22.897,12.539 12.044,0 23.335,-11.867 23.335,-16.082 0,-4.215 -11.292,0.818 -23.335,0.818 -12.043,0 -22.897,-1.489 -22.897,2.726 z"/><g id="g4049" fill="#2f2e41" transform="translate(-49.701673,4.0186319)"><ellipse id="ellipse4039" cx="330.609" cy="300.46" rx="10.903" ry="4.089"/><ellipse id="ellipse4041" cx="304.441" cy="299.915" rx="10.903" ry="4.089"/><ellipse id="ellipse4043" cx="-62.377" cy="351.165" rx="6.76" ry="21.534" transform="rotate(-60.037)"/><circle id="circle4045" cx="321.886" cy="242.946" r="43.067"/><path id="path4047" d="m 328.428,276.746 h 13.084 v 23.442 h -13.084 z m -26.167,0 h 13.084 v 23.442 h -13.084 z"/></g><circle id="circle4051" cx="262.094" cy="236.062" r="14.719" fill="#fff"/><ellipse id="ellipse4053" cx="15.027" cy="345.879" fill="#3f3d56" rx="4.921" ry="4.886" transform="rotate(-44.974)"/><path id="path4055" fill="#2a7fff" d="m 276.81634,218.16963 c -17.19,-3.838 -28.58201,-9.582 -25.105,-25.156 3.477,-15.574 20.232,-25.087 37.422,-21.249 17.19,3.838 28.306,19.575 24.829,35.149 -3.477,15.574 -19.956,15.094 -37.145,11.256 z" style="fill:#ccc"/><ellipse id="ellipse4057" cx="234.766" cy="330.316" fill="#2f2e41" rx="6.76" ry="21.534" transform="rotate(-14.875)"/><path id="path4059" fill="#fff" d="m 262.42734,259.77663 c -7.907,0 -15.32001,-5.033 -15.32001,-0.818 0,4.215 7.41301,16.082 15.32001,16.082 7.907,0 15.032,-8.323 15.032,-12.539 0,-4.216 -7.125,-2.726 -15.032,-2.726 z"/><path id="path4061" fill="#00b0ff" d="m 206.77033,175.55763 h -3.825 a 12.937,12.937 0 0 1 -12.923,-12.923 v -3.211 c 0,-7.953 1.507,-14.612 4.479,-19.792 a 104.114,104.114 0 0 1 12.542,-16.852 74.269,74.269 0 0 0 8.528,-10.279 17.29,17.29 0 0 0 2.693,-9.562 c 0,-7.978 -5.198,-11.856 -15.891,-11.856 a 64.526,64.526 0 0 0 -17.515,2.629 14.745,14.745 0 0 1 -18.792,-14.178 v -6.5 a 14.463,14.463 0 0 1 8.532,-13.256 78.083,78.083 0 0 1 31.81,-6.258 c 11.444,0 21.775,1.922 30.707,5.713 8.948,3.799 16.01701,9.157 21.01101,15.924 a 38.352,38.352 0 0 1 7.536,23.244 c 0,8.98 -2.452,16.801 -7.287,23.247 -4.782,6.38 -11.63801,13.364 -20.37601,20.76 a 145.204,145.204 0 0 0 -13.063,12.307 22.718,22.718 0 0 0 -5.431,10.111 12.888,12.888 0 0 1 -12.736,10.733 z m -2.127,60.772 h -0.504 a 23.951,23.951 0 0 1 0,-47.902 h 0.504 a 23.951,23.951 0 1 1 0,47.902 z" style="fill:#2a7fff;stroke:#0008ff;stroke-width:.7;stroke-miterlimit:4;stroke-dasharray:none;stroke-opacity:1"/></svg>