<svg xmlns="http://www.w3.org/2000/svg" xmlns:svgjs="http://svgjs.com/svgjs" xmlns:xlink="http://www.w3.org/1999/xlink" width="1440" height="560" preserveAspectRatio="none" version="1.1" viewBox="0 0 1440 560"><g fill="none" mask="url(&quot;#SvgjsMask1001&quot;)"><rect width="1440" height="560" x="0" y="0" fill="rgba(7, 24, 42, 1)"/><path fill="#488fdb" d="M245.81 210L245.81 213.72L257.32 213.72L257.32 210zM250.72 211.86 a6.6 6.6 0 1 0 13.2 0 a6.6 6.6 0 1 0 -13.2 0zM241.11 237.37L239.68 240.82L250.47 245.29L251.9 241.84zM244.58 243.56 a6.6 6.6 0 1 0 13.2 0 a6.6 6.6 0 1 0 -13.2 0zM226.28 260.87L223.65 263.5L231.77 271.62L234.4 268.98zM226.48 270.3 a6.6 6.6 0 1 0 13.2 0 a6.6 6.6 0 1 0 -13.2 0zM203.6 276.9L200.16 278.32L209.55 301.01L212.99 299.58zM204.67 300.29 a6.6 6.6 0 1 0 13.2 0 a6.6 6.6 0 1 0 -13.2 0zM176.51 283.03L172.78 283.03L172.78 307.72L176.51 307.72zM168.04 307.72 a6.6 6.6 0 1 0 13.2 0 a6.6 6.6 0 1 0 -13.2 0zM149.13 278.32L145.68 276.9L140.34 289.8L143.79 291.22zM135.46 290.51 a6.6 6.6 0 1 0 13.2 0 a6.6 6.6 0 1 0 -13.2 0zM125.64 263.5L123 260.87L111.42 272.45L114.05 275.08zM106.14 273.77 a6.6 6.6 0 1 0 13.2 0 a6.6 6.6 0 1 0 -13.2 0zM109.6 240.82L108.18 237.37L99.71 240.88L101.14 244.32zM93.83 242.6 a6.6 6.6 0 1 0 13.2 0 a6.6 6.6 0 1 0 -13.2 0zM103.47 213.72L103.47 210L76.72 210L76.72 213.72zM70.12 211.86 a6.6 6.6 0 1 0 13.2 0 a6.6 6.6 0 1 0 -13.2 0zM108.18 186.35L109.6 182.9L99.72 178.81L98.29 182.25zM92.4 180.53 a6.6 6.6 0 1 0 13.2 0 a6.6 6.6 0 1 0 -13.2 0zM123 162.85L125.64 160.22L115.59 150.18L112.96 152.81zM107.68 151.49 a6.6 6.6 0 1 0 13.2 0 a6.6 6.6 0 1 0 -13.2 0zM145.68 146.82L149.13 145.39L140.4 124.32L136.96 125.75zM132.08 125.03 a6.6 6.6 0 1 0 13.2 0 a6.6 6.6 0 1 0 -13.2 0zM172.78 140.69L176.51 140.69L176.51 121.91L172.78 121.91zM168.04 121.91 a6.6 6.6 0 1 0 13.2 0 a6.6 6.6 0 1 0 -13.2 0zM200.16 145.39L203.6 146.82L211.5 127.73L208.06 126.31zM203.18 127.02 a6.6 6.6 0 1 0 13.2 0 a6.6 6.6 0 1 0 -13.2 0zM223.65 160.22L226.28 162.85L247.43 141.71L244.79 139.08zM239.51 140.39 a6.6 6.6 0 1 0 13.2 0 a6.6 6.6 0 1 0 -13.2 0zM239.68 182.9L241.11 186.35L268.31 175.08L266.88 171.64zM260.99 173.36 a6.6 6.6 0 1 0 13.2 0 a6.6 6.6 0 1 0 -13.2 0zM103.45 211.86 a71.19 71.19 0 1 0 142.38 0 a71.19 71.19 0 1 0 -142.38 0z"/><path fill="#2672c3" fill-rule="nonzero" d="M136.59 151.69 A70.1936 70.1936 0 0 1 245.77 208.84M245.77 208.84 A142.3872 142.3872 0 0 0 136.59 151.69"/><path fill="#2672c3" fill-rule="nonzero" d="M175.87 269.04 a12.1 12.1 0 1 0 24.2 0 a12.1 12.1 0 1 0 -24.2 0zM212.87 187.22 a13.53 13.53 0 1 0 27.06 0 a13.53 13.53 0 1 0 -27.06 0zM149.29 169.2 a14.24 14.24 0 1 0 28.48 0 a14.24 14.24 0 1 0 -28.48 0zM153.91 243.36 a9.26 9.26 0 1 0 18.52 0 a9.26 9.26 0 1 0 -18.52 0zM116.64 172.19 a2.85 2.85 0 1 0 5.7 0 a2.85 2.85 0 1 0 -5.7 0zM227.45 228.55 a7.83 7.83 0 1 0 15.66 0 a7.83 7.83 0 1 0 -15.66 0zM199.06 158.57 a7.12 7.12 0 1 0 14.24 0 a7.12 7.12 0 1 0 -14.24 0zM128.51 189.31 a3.56 3.56 0 1 0 7.12 0 a3.56 3.56 0 1 0 -7.12 0zM106.87 208.5 a7.83 7.83 0 1 0 15.66 0 a7.83 7.83 0 1 0 -15.66 0zM181.15 144.39 a2.85 2.85 0 1 0 5.7 0 a2.85 2.85 0 1 0 -5.7 0z"/><path fill="#488fdb" d="M566.47 383.99L566.47 387.72L578.61 387.72L578.61 383.99zM572.01 385.86 a6.6 6.6 0 1 0 13.2 0 a6.6 6.6 0 1 0 -13.2 0zM561.76 411.37L560.34 414.81L587.55 426.08L588.97 422.64zM581.66 424.36 a6.6 6.6 0 1 0 13.2 0 a6.6 6.6 0 1 0 -13.2 0zM546.94 434.86L544.31 437.5L566.61 459.8L569.24 457.16zM561.32 458.48 a6.6 6.6 0 1 0 13.2 0 a6.6 6.6 0 1 0 -13.2 0zM524.26 450.89L520.81 452.32L534.24 484.75L537.69 483.32zM529.37 484.04 a6.6 6.6 0 1 0 13.2 0 a6.6 6.6 0 1 0 -13.2 0zM497.16 457.03L493.43 457.03L493.43 466.34L497.16 466.34zM488.7 466.34 a6.6 6.6 0 1 0 13.2 0 a6.6 6.6 0 1 0 -13.2 0zM469.79 452.32L466.34 450.89L459.77 466.75L463.22 468.17zM454.9 467.46 a6.6 6.6 0 1 0 13.2 0 a6.6 6.6 0 1 0 -13.2 0zM446.29 437.5L443.66 434.86L427.01 451.51L429.65 454.14zM421.73 452.83 a6.6 6.6 0 1 0 13.2 0 a6.6 6.6 0 1 0 -13.2 0zM430.26 414.81L428.83 411.37L409.03 419.57L410.45 423.02zM403.14 421.3 a6.6 6.6 0 1 0 13.2 0 a6.6 6.6 0 1 0 -13.2 0zM424.13 387.72L424.13 383.99L405.27 383.99L405.27 387.72zM398.67 385.86 a6.6 6.6 0 1 0 13.2 0 a6.6 6.6 0 1 0 -13.2 0zM428.83 360.34L430.26 356.9L400.85 344.72L399.43 348.16zM393.54 346.44 a6.6 6.6 0 1 0 13.2 0 a6.6 6.6 0 1 0 -13.2 0zM443.66 336.85L446.29 334.21L432.38 320.3L429.75 322.94zM424.47 321.62 a6.6 6.6 0 1 0 13.2 0 a6.6 6.6 0 1 0 -13.2 0zM466.34 320.82L469.79 319.39L460.36 296.64L456.92 298.07zM452.04 297.36 a6.6 6.6 0 1 0 13.2 0 a6.6 6.6 0 1 0 -13.2 0zM493.43 314.69L497.16 314.69L497.16 297.84L493.43 297.84zM488.7 297.84 a6.6 6.6 0 1 0 13.2 0 a6.6 6.6 0 1 0 -13.2 0zM520.81 319.39L524.26 320.82L529.48 308.2L526.04 306.77zM521.16 307.48 a6.6 6.6 0 1 0 13.2 0 a6.6 6.6 0 1 0 -13.2 0zM544.31 334.21L546.94 336.85L561.89 321.9L559.25 319.27zM553.97 320.58 a6.6 6.6 0 1 0 13.2 0 a6.6 6.6 0 1 0 -13.2 0zM560.34 356.9L561.76 360.34L572.51 355.89L571.08 352.45zM565.2 354.17 a6.6 6.6 0 1 0 13.2 0 a6.6 6.6 0 1 0 -13.2 0zM424.11 385.86 a71.19 71.19 0 1 0 142.38 0 a71.19 71.19 0 1 0 -142.38 0z"/><path fill="#2672c3" fill-rule="nonzero" d="M539.76 330.26 A70.1936 70.1936 0 0 1 521.36 452.11M521.36 452.11 A142.3872 142.3872 0 0 0 539.76 330.26"/><path fill="#2672c3" fill-rule="nonzero" d="M472.43 325.45 a8.54 8.54 0 1 0 17.08 0 a8.54 8.54 0 1 0 -17.08 0zM477.45 354.06 a5.7 5.7 0 1 0 11.4 0 a5.7 5.7 0 1 0 -11.4 0zM451.03 391.57 a14.24 14.24 0 1 0 28.48 0 a14.24 14.24 0 1 0 -28.48 0zM499.9 420.64 a14.24 14.24 0 1 0 28.48 0 a14.24 14.24 0 1 0 -28.48 0zM551.4 405.71 a5.7 5.7 0 1 0 11.4 0 a5.7 5.7 0 1 0 -11.4 0zM499.23 376.62 a14.24 14.24 0 1 0 28.48 0 a14.24 14.24 0 1 0 -28.48 0zM452.05 440.22 a4.27 4.27 0 1 0 8.54 0 a4.27 4.27 0 1 0 -8.54 0zM475.56 447.04 a8.54 8.54 0 1 0 17.08 0 a8.54 8.54 0 1 0 -17.08 0zM542.12 374.13 a8.54 8.54 0 1 0 17.08 0 a8.54 8.54 0 1 0 -17.08 0zM528.62 348.96 a5.7 5.7 0 1 0 11.4 0 a5.7 5.7 0 1 0 -11.4 0z"/><path fill="#488fdb" d="M917.93 110.45L917.93 113.71L941.6 113.71L941.6 110.45zM935.82 112.08 a5.78 5.78 0 1 0 11.56 0 a5.78 5.78 0 1 0 -11.56 0zM913.82 134.41L912.57 137.42L919.92 140.46L921.17 137.45zM914.77 138.96 a5.78 5.78 0 1 0 11.56 0 a5.78 5.78 0 1 0 -11.56 0zM900.85 154.96L898.54 157.27L911.93 170.66L914.24 168.35zM907.31 169.51 a5.78 5.78 0 1 0 11.56 0 a5.78 5.78 0 1 0 -11.56 0zM881 168.99L877.98 170.24L889.47 197.97L892.48 196.72zM885.2 197.35 a5.78 5.78 0 1 0 11.56 0 a5.78 5.78 0 1 0 -11.56 0zM857.29 174.35L854.03 174.35L854.03 183.9L857.29 183.9zM849.88 183.9 a5.78 5.78 0 1 0 11.56 0 a5.78 5.78 0 1 0 -11.56 0zM833.33 170.24L830.32 168.99L824.54 182.96L827.55 184.21zM820.26 183.58 a5.78 5.78 0 1 0 11.56 0 a5.78 5.78 0 1 0 -11.56 0zM812.78 157.27L810.47 154.96L801.87 163.57L804.17 165.87zM797.24 164.72 a5.78 5.78 0 1 0 11.56 0 a5.78 5.78 0 1 0 -11.56 0zM798.75 137.42L797.5 134.41L782.15 140.77L783.4 143.78zM776.99 142.27 a5.78 5.78 0 1 0 11.56 0 a5.78 5.78 0 1 0 -11.56 0zM793.39 113.71L793.39 110.45L781.04 110.45L781.04 113.71zM775.26 112.08 a5.78 5.78 0 1 0 11.56 0 a5.78 5.78 0 1 0 -11.56 0zM797.5 89.76L798.75 86.74L781.56 79.62L780.31 82.64zM775.15 81.13 a5.78 5.78 0 1 0 11.56 0 a5.78 5.78 0 1 0 -11.56 0zM810.47 69.2L812.78 66.89L791.23 45.34L788.92 47.65zM784.29 46.49 a5.78 5.78 0 1 0 11.56 0 a5.78 5.78 0 1 0 -11.56 0zM830.32 55.17L833.33 53.92L829.6 44.9L826.58 46.15zM822.31 45.52 a5.78 5.78 0 1 0 11.56 0 a5.78 5.78 0 1 0 -11.56 0zM854.03 49.81L857.29 49.81L857.29 34.11L854.03 34.11zM849.88 34.11 a5.78 5.78 0 1 0 11.56 0 a5.78 5.78 0 1 0 -11.56 0zM877.98 53.92L881 55.17L885.05 45.4L882.03 44.15zM877.76 44.77 a5.78 5.78 0 1 0 11.56 0 a5.78 5.78 0 1 0 -11.56 0zM898.54 66.89L900.85 69.2L910.06 59.99L907.75 57.68zM903.13 58.83 a5.78 5.78 0 1 0 11.56 0 a5.78 5.78 0 1 0 -11.56 0zM912.57 86.74L913.82 89.76L934.76 81.08L933.51 78.07zM928.36 79.58 a5.78 5.78 0 1 0 11.56 0 a5.78 5.78 0 1 0 -11.56 0zM793.37 112.08 a62.29 62.29 0 1 0 124.58 0 a62.29 62.29 0 1 0 -124.58 0z"/><path fill="#2672c3" fill-rule="nonzero" d="M802.58 79.48 A61.294399999999996 61.294399999999996 0 0 1 910.37 82.3M910.37 82.3 A124.58879999999999 124.58879999999999 0 0 0 802.58 79.48"/><path fill="#2672c3" fill-rule="nonzero" d="M866.19 126.57 a12.46 12.46 0 1 0 24.92 0 a12.46 12.46 0 1 0 -24.92 0zM869.66 70.25 a12.46 12.46 0 1 0 24.92 0 a12.46 12.46 0 1 0 -24.92 0zM847.02 118.27 a3.74 3.74 0 1 0 7.48 0 a3.74 3.74 0 1 0 -7.48 0zM847.17 165.43 a8.72 8.72 0 1 0 17.44 0 a8.72 8.72 0 1 0 -17.44 0zM900.67 139.71 a3.74 3.74 0 1 0 7.48 0 a3.74 3.74 0 1 0 -7.48 0zM807.57 130.61 a12.46 12.46 0 1 0 24.92 0 a12.46 12.46 0 1 0 -24.92 0zM813.96 67.23 a3.11 3.11 0 1 0 6.22 0 a3.11 3.11 0 1 0 -6.22 0zM891.02 98.7 a8.1 8.1 0 1 0 16.2 0 a8.1 8.1 0 1 0 -16.2 0zM830.98 79.76 a12.46 12.46 0 1 0 24.92 0 a12.46 12.46 0 1 0 -24.92 0zM862.12 98.7 a4.98 4.98 0 1 0 9.96 0 a4.98 4.98 0 1 0 -9.96 0z"/><path fill="#488fdb" d="M865.51 488.42L865.51 490.28L871.87 490.28L871.87 488.42zM868.57 489.35 a3.3 3.3 0 1 0 6.6 0 a3.3 3.3 0 1 0 -6.6 0zM863.16 502.11L862.44 503.83L867.23 505.81L867.94 504.09zM864.29 504.95 a3.3 3.3 0 1 0 6.6 0 a3.3 3.3 0 1 0 -6.6 0zM855.74 513.85L854.43 515.17L858.73 519.47L860.04 518.15zM856.08 518.81 a3.3 3.3 0 1 0 6.6 0 a3.3 3.3 0 1 0 -6.6 0zM844.4 521.87L842.68 522.58L848.48 536.59L850.2 535.87zM846.04 536.23 a3.3 3.3 0 1 0 6.6 0 a3.3 3.3 0 1 0 -6.6 0zM830.86 524.93L828.99 524.93L828.99 537.37L830.86 537.37zM826.62 537.37 a3.3 3.3 0 1 0 6.6 0 a3.3 3.3 0 1 0 -6.6 0zM817.17 522.58L815.45 521.87L813.66 526.18L815.38 526.9zM811.22 526.54 a3.3 3.3 0 1 0 6.6 0 a3.3 3.3 0 1 0 -6.6 0zM805.42 515.17L804.1 513.85L792.11 525.84L793.43 527.16zM789.47 526.5 a3.3 3.3 0 1 0 6.6 0 a3.3 3.3 0 1 0 -6.6 0zM797.4 503.83L796.69 502.11L783.54 507.55L784.26 509.27zM780.6 508.41 a3.3 3.3 0 1 0 6.6 0 a3.3 3.3 0 1 0 -6.6 0zM794.34 490.28L794.34 488.42L783.46 488.42L783.46 490.28zM780.16 489.35 a3.3 3.3 0 1 0 6.6 0 a3.3 3.3 0 1 0 -6.6 0zM796.69 476.59L797.4 474.87L789.22 471.48L788.51 473.2zM785.56 472.34 a3.3 3.3 0 1 0 6.6 0 a3.3 3.3 0 1 0 -6.6 0zM804.1 464.85L805.42 463.53L794.58 452.69L793.26 454.01zM790.62 453.35 a3.3 3.3 0 1 0 6.6 0 a3.3 3.3 0 1 0 -6.6 0zM815.45 456.83L817.17 456.12L814.17 448.88L812.45 449.6zM810.01 449.24 a3.3 3.3 0 1 0 6.6 0 a3.3 3.3 0 1 0 -6.6 0zM828.99 453.76L830.86 453.76L830.86 445.87L828.99 445.87zM826.62 445.87 a3.3 3.3 0 1 0 6.6 0 a3.3 3.3 0 1 0 -6.6 0zM842.68 456.12L844.4 456.83L849.34 444.9L847.62 444.19zM845.18 444.55 a3.3 3.3 0 1 0 6.6 0 a3.3 3.3 0 1 0 -6.6 0zM854.43 463.53L855.74 464.85L865.93 454.66L864.62 453.34zM861.98 454 a3.3 3.3 0 1 0 6.6 0 a3.3 3.3 0 1 0 -6.6 0zM862.44 474.87L863.16 476.59L877.98 470.45L877.27 468.73zM874.33 469.59 a3.3 3.3 0 1 0 6.6 0 a3.3 3.3 0 1 0 -6.6 0zM794.32 489.35 a35.6 35.6 0 1 0 71.2 0 a35.6 35.6 0 1 0 -71.2 0z"/><path fill="#2672c3" fill-rule="nonzero" d="M851.8 517.43 A34.5968 34.5968 0 0 1 794.68 494.33M794.68 494.33 A71.1936 71.1936 0 0 0 851.8 517.43"/><path fill="#2672c3" fill-rule="nonzero" d="M809.97 508.9 a7.12 7.12 0 1 0 14.24 0 a7.12 7.12 0 1 0 -14.24 0zM859.39 493.65 a2.85 2.85 0 1 0 5.7 0 a2.85 2.85 0 1 0 -5.7 0zM848.17 514.13 a2.85 2.85 0 1 0 5.7 0 a2.85 2.85 0 1 0 -5.7 0zM840.94 481.38 a7.12 7.12 0 1 0 14.24 0 a7.12 7.12 0 1 0 -14.24 0zM835.35 499.87 a5.34 5.34 0 1 0 10.68 0 a5.34 5.34 0 1 0 -10.68 0zM819.77 458.82 a4.27 4.27 0 1 0 8.54 0 a4.27 4.27 0 1 0 -8.54 0zM814.18 480.53 a7.12 7.12 0 1 0 14.24 0 a7.12 7.12 0 1 0 -14.24 0zM801.17 478.58 a2.85 2.85 0 1 0 5.7 0 a2.85 2.85 0 1 0 -5.7 0zM832.6 517.1 a4.27 4.27 0 1 0 8.54 0 a4.27 4.27 0 1 0 -8.54 0zM840.31 460.55 a3.56 3.56 0 1 0 7.12 0 a3.56 3.56 0 1 0 -7.12 0z"/><path fill="#488fdb" d="M1391.92 130.86L1391.92 134.59L1402.22 134.59L1402.22 130.86zM1395.62 132.73 a6.6 6.6 0 1 0 13.2 0 a6.6 6.6 0 1 0 -13.2 0zM1387.21 158.24L1385.79 161.68L1404.95 169.62L1406.38 166.18zM1399.06 167.9 a6.6 6.6 0 1 0 13.2 0 a6.6 6.6 0 1 0 -13.2 0zM1372.39 181.73L1369.76 184.37L1379.85 194.46L1382.48 191.82zM1374.56 193.14 a6.6 6.6 0 1 0 13.2 0 a6.6 6.6 0 1 0 -13.2 0zM1349.71 197.77L1346.26 199.19L1350.81 210.18L1354.26 208.75zM1345.93 209.46 a6.6 6.6 0 1 0 13.2 0 a6.6 6.6 0 1 0 -13.2 0zM1322.61 203.9L1318.89 203.9L1318.89 238.96L1322.61 238.96zM1314.15 238.96 a6.6 6.6 0 1 0 13.2 0 a6.6 6.6 0 1 0 -13.2 0zM1295.24 199.19L1291.79 197.77L1288.27 206.27L1291.71 207.69zM1283.39 206.98 a6.6 6.6 0 1 0 13.2 0 a6.6 6.6 0 1 0 -13.2 0zM1271.74 184.37L1269.11 181.73L1259.14 191.7L1261.77 194.34zM1253.85 193.02 a6.6 6.6 0 1 0 13.2 0 a6.6 6.6 0 1 0 -13.2 0zM1255.71 161.68L1254.28 158.24L1225.9 170L1227.33 173.44zM1220.02 171.72 a6.6 6.6 0 1 0 13.2 0 a6.6 6.6 0 1 0 -13.2 0zM1249.58 134.59L1249.58 130.86L1226.74 130.86L1226.74 134.59zM1220.14 132.73 a6.6 6.6 0 1 0 13.2 0 a6.6 6.6 0 1 0 -13.2 0zM1254.28 107.21L1255.71 103.77L1245.76 99.65L1244.33 103.09zM1238.45 101.37 a6.6 6.6 0 1 0 13.2 0 a6.6 6.6 0 1 0 -13.2 0zM1269.11 83.72L1271.74 81.09L1253.03 62.38L1250.4 65.01zM1245.11 63.69 a6.6 6.6 0 1 0 13.2 0 a6.6 6.6 0 1 0 -13.2 0zM1291.79 67.69L1295.24 66.26L1284.21 39.65L1280.77 41.08zM1275.89 40.37 a6.6 6.6 0 1 0 13.2 0 a6.6 6.6 0 1 0 -13.2 0zM1318.89 61.56L1322.61 61.56L1322.61 41.11L1318.89 41.11zM1314.15 41.11 a6.6 6.6 0 1 0 13.2 0 a6.6 6.6 0 1 0 -13.2 0zM1346.26 66.26L1349.71 67.69L1362.2 37.51L1358.76 36.09zM1353.88 36.8 a6.6 6.6 0 1 0 13.2 0 a6.6 6.6 0 1 0 -13.2 0zM1369.76 81.09L1372.39 83.72L1388.36 67.75L1385.73 65.11zM1380.45 66.43 a6.6 6.6 0 1 0 13.2 0 a6.6 6.6 0 1 0 -13.2 0zM1385.79 103.77L1387.21 107.21L1404.01 100.26L1402.58 96.81zM1396.7 98.53 a6.6 6.6 0 1 0 13.2 0 a6.6 6.6 0 1 0 -13.2 0zM1249.56 132.73 a71.19 71.19 0 1 0 142.38 0 a71.19 71.19 0 1 0 -142.38 0z"/><path fill="#2672c3" fill-rule="nonzero" d="M1252.52 153.05 A70.1936 70.1936 0 0 1 1337.11 63.44M1337.11 63.44 A142.3872 142.3872 0 0 0 1252.52 153.05"/><path fill="#2672c3" fill-rule="nonzero" d="M1260.32 151.14 a14.24 14.24 0 1 0 28.48 0 a14.24 14.24 0 1 0 -28.48 0zM1347.62 78.56 a7.12 7.12 0 1 0 14.24 0 a7.12 7.12 0 1 0 -14.24 0zM1350.06 110.11 a10.68 10.68 0 1 0 21.36 0 a10.68 10.68 0 1 0 -21.36 0zM1345.7 182.9 a9.97 9.97 0 1 0 19.94 0 a9.97 9.97 0 1 0 -19.94 0zM1289.1 194.65 a2.85 2.85 0 1 0 5.7 0 a2.85 2.85 0 1 0 -5.7 0zM1305.94 179.75 a12.81 12.81 0 1 0 25.62 0 a12.81 12.81 0 1 0 -25.62 0zM1276.72 111.31 a14.24 14.24 0 1 0 28.48 0 a14.24 14.24 0 1 0 -28.48 0zM1310.61 137.04 a12.1 12.1 0 1 0 24.2 0 a12.1 12.1 0 1 0 -24.2 0zM1315.94 95.91 a2.85 2.85 0 1 0 5.7 0 a2.85 2.85 0 1 0 -5.7 0zM1323.68 66.22 a4.27 4.27 0 1 0 8.54 0 a4.27 4.27 0 1 0 -8.54 0z"/><path fill="#488fdb" d="M1162.77 303.38L1162.77 305.24L1171.33 305.24L1171.33 303.38zM1168.03 304.31 a3.3 3.3 0 1 0 6.6 0 a3.3 3.3 0 1 0 -6.6 0zM1160.41 317.07L1159.7 318.79L1166.04 321.41L1166.75 319.69zM1163.09 320.55 a3.3 3.3 0 1 0 6.6 0 a3.3 3.3 0 1 0 -6.6 0zM1153 328.81L1151.68 330.13L1155.95 334.4L1157.27 333.08zM1153.31 333.74 a3.3 3.3 0 1 0 6.6 0 a3.3 3.3 0 1 0 -6.6 0zM1141.66 336.83L1139.94 337.54L1144.32 348.12L1146.04 347.41zM1141.88 347.76 a3.3 3.3 0 1 0 6.6 0 a3.3 3.3 0 1 0 -6.6 0zM1128.11 339.89L1126.25 339.89L1126.25 347.7L1128.11 347.7zM1123.88 347.7 a3.3 3.3 0 1 0 6.6 0 a3.3 3.3 0 1 0 -6.6 0zM1114.42 337.54L1112.7 336.83L1108.14 347.84L1109.86 348.56zM1105.7 348.2 a3.3 3.3 0 1 0 6.6 0 a3.3 3.3 0 1 0 -6.6 0zM1102.68 330.13L1101.36 328.81L1094.93 335.24L1096.25 336.56zM1092.29 335.9 a3.3 3.3 0 1 0 6.6 0 a3.3 3.3 0 1 0 -6.6 0zM1094.66 318.79L1093.95 317.07L1078.42 323.5L1079.13 325.22zM1075.47 324.36 a3.3 3.3 0 1 0 6.6 0 a3.3 3.3 0 1 0 -6.6 0zM1091.6 305.24L1091.6 303.38L1081.08 303.38L1081.08 305.24zM1077.78 304.31 a3.3 3.3 0 1 0 6.6 0 a3.3 3.3 0 1 0 -6.6 0zM1093.95 291.55L1094.66 289.83L1081.55 284.4L1080.84 286.12zM1077.89 285.26 a3.3 3.3 0 1 0 6.6 0 a3.3 3.3 0 1 0 -6.6 0zM1101.36 279.81L1102.68 278.49L1094.16 269.98L1092.85 271.29zM1090.2 270.63 a3.3 3.3 0 1 0 6.6 0 a3.3 3.3 0 1 0 -6.6 0zM1112.7 271.79L1114.42 271.08L1111.98 265.18L1110.26 265.9zM1107.82 265.54 a3.3 3.3 0 1 0 6.6 0 a3.3 3.3 0 1 0 -6.6 0zM1126.25 268.73L1128.11 268.73L1128.11 260.8L1126.25 260.8zM1123.88 260.8 a3.3 3.3 0 1 0 6.6 0 a3.3 3.3 0 1 0 -6.6 0zM1139.94 271.08L1141.66 271.79L1144.64 264.59L1142.92 263.88zM1140.48 264.24 a3.3 3.3 0 1 0 6.6 0 a3.3 3.3 0 1 0 -6.6 0zM1151.68 278.49L1153 279.81L1163.52 269.29L1162.21 267.97zM1159.56 268.63 a3.3 3.3 0 1 0 6.6 0 a3.3 3.3 0 1 0 -6.6 0zM1159.7 289.83L1160.41 291.55L1165.54 289.43L1164.83 287.71zM1161.88 288.57 a3.3 3.3 0 1 0 6.6 0 a3.3 3.3 0 1 0 -6.6 0zM1091.58 304.31 a35.6 35.6 0 1 0 71.2 0 a35.6 35.6 0 1 0 -71.2 0z"/><path fill="#2672c3" fill-rule="nonzero" d="M1135.66 269.74 A34.5968 34.5968 0 0 1 1152.93 328.89M1152.93 328.89 A71.1936 71.1936 0 0 0 1135.66 269.74"/><path fill="#2672c3" fill-rule="nonzero" d="M1127.81 315.81 a7.12 7.12 0 1 0 14.24 0 a7.12 7.12 0 1 0 -14.24 0zM1105.41 306.73 a7.12 7.12 0 1 0 14.24 0 a7.12 7.12 0 1 0 -14.24 0zM1133.48 296.28 a5.7 5.7 0 1 0 11.4 0 a5.7 5.7 0 1 0 -11.4 0zM1136.75 332.04 a2.49 2.49 0 1 0 4.98 0 a2.49 2.49 0 1 0 -4.98 0zM1152.61 313.73 a4.27 4.27 0 1 0 8.54 0 a4.27 4.27 0 1 0 -8.54 0zM1152.85 287.01 a2.49 2.49 0 1 0 4.98 0 a2.49 2.49 0 1 0 -4.98 0zM1116.79 276.28 a7.12 7.12 0 1 0 14.24 0 a7.12 7.12 0 1 0 -14.24 0zM1139.56 273.62 a1.78 1.78 0 1 0 3.56 0 a1.78 1.78 0 1 0 -3.56 0zM1108.96 325.58 a4.63 4.63 0 1 0 9.26 0 a4.63 4.63 0 1 0 -9.26 0zM1093.9 292.36 a2.85 2.85 0 1 0 5.7 0 a2.85 2.85 0 1 0 -5.7 0z"/><path fill="#488fdb" d="M505.99 64.96L505.99 66.82L516.91 66.82L516.91 64.96zM513.61 65.89 a3.3 3.3 0 1 0 6.6 0 a3.3 3.3 0 1 0 -6.6 0zM503.64 78.65L502.93 80.37L510.6 83.55L511.31 81.83zM507.65 82.69 a3.3 3.3 0 1 0 6.6 0 a3.3 3.3 0 1 0 -6.6 0zM496.23 90.4L494.91 91.71L503.18 99.98L504.5 98.66zM500.54 99.32 a3.3 3.3 0 1 0 6.6 0 a3.3 3.3 0 1 0 -6.6 0zM484.89 98.41L483.17 99.13L488.43 111.84L490.15 111.12zM485.99 111.48 a3.3 3.3 0 1 0 6.6 0 a3.3 3.3 0 1 0 -6.6 0zM471.34 101.48L469.48 101.48L469.48 116.64L471.34 116.64zM467.11 116.64 a3.3 3.3 0 1 0 6.6 0 a3.3 3.3 0 1 0 -6.6 0zM457.65 99.13L455.93 98.41L451.81 108.36L453.53 109.08zM449.37 108.72 a3.3 3.3 0 1 0 6.6 0 a3.3 3.3 0 1 0 -6.6 0zM445.91 91.71L444.59 90.4L437.26 97.72L438.58 99.04zM434.62 98.38 a3.3 3.3 0 1 0 6.6 0 a3.3 3.3 0 1 0 -6.6 0zM437.89 80.37L437.18 78.65L427.8 82.53L428.51 84.26zM424.86 83.39 a3.3 3.3 0 1 0 6.6 0 a3.3 3.3 0 1 0 -6.6 0zM434.82 66.82L434.82 64.96L427.37 64.96L427.37 66.82zM424.07 65.89 a3.3 3.3 0 1 0 6.6 0 a3.3 3.3 0 1 0 -6.6 0zM437.18 53.14L437.89 51.41L424.46 45.85L423.74 47.57zM420.8 46.71 a3.3 3.3 0 1 0 6.6 0 a3.3 3.3 0 1 0 -6.6 0zM444.59 41.39L445.91 40.07L441.87 36.04L440.56 37.36zM437.92 36.7 a3.3 3.3 0 1 0 6.6 0 a3.3 3.3 0 1 0 -6.6 0zM455.93 33.37L457.65 32.66L455.06 26.4L453.34 27.11zM450.9 26.75 a3.3 3.3 0 1 0 6.6 0 a3.3 3.3 0 1 0 -6.6 0zM469.48 30.31L471.34 30.31L471.34 20.76L469.48 20.76zM467.11 20.76 a3.3 3.3 0 1 0 6.6 0 a3.3 3.3 0 1 0 -6.6 0zM483.17 32.66L484.89 33.37L489.16 23.06L487.44 22.35zM485 22.71 a3.3 3.3 0 1 0 6.6 0 a3.3 3.3 0 1 0 -6.6 0zM494.91 40.07L496.23 41.39L500.4 37.22L499.08 35.9zM496.44 36.56 a3.3 3.3 0 1 0 6.6 0 a3.3 3.3 0 1 0 -6.6 0zM502.93 51.41L503.64 53.14L508.17 51.26L507.45 49.54zM504.51 50.4 a3.3 3.3 0 1 0 6.6 0 a3.3 3.3 0 1 0 -6.6 0zM434.81 65.89 a35.6 35.6 0 1 0 71.2 0 a35.6 35.6 0 1 0 -71.2 0z"/><path fill="#2672c3" fill-rule="nonzero" d="M466.89 101.31 A34.5968 34.5968 0 0 1 441.45 45.19M441.45 45.19 A71.1936 71.1936 0 0 0 466.89 101.31"/><path fill="#2672c3" fill-rule="nonzero" d="M479.92 41.05 a6.05 6.05 0 1 0 12.1 0 a6.05 6.05 0 1 0 -12.1 0zM442.62 47.04 a7.12 7.12 0 1 0 14.24 0 a7.12 7.12 0 1 0 -14.24 0zM435.16 65.63 a5.7 5.7 0 1 0 11.4 0 a5.7 5.7 0 1 0 -11.4 0zM463.59 72.74 a7.12 7.12 0 1 0 14.24 0 a7.12 7.12 0 1 0 -14.24 0zM483.37 81.29 a5.7 5.7 0 1 0 11.4 0 a5.7 5.7 0 1 0 -11.4 0zM478.83 59.42 a2.85 2.85 0 1 0 5.7 0 a2.85 2.85 0 1 0 -5.7 0zM467.69 53.93 a2.49 2.49 0 1 0 4.98 0 a2.49 2.49 0 1 0 -4.98 0zM499.26 65.68 a3.2 3.2 0 1 0 6.4 0 a3.2 3.2 0 1 0 -6.4 0zM451.34 77.67 a2.85 2.85 0 1 0 5.7 0 a2.85 2.85 0 1 0 -5.7 0zM462.66 89.22 a2.85 2.85 0 1 0 5.7 0 a2.85 2.85 0 1 0 -5.7 0z"/><path fill="#488fdb" d="M1326.4 489.12L1326.4 490.98L1336.19 490.98L1336.19 489.12zM1332.89 490.05 a3.3 3.3 0 1 0 6.6 0 a3.3 3.3 0 1 0 -6.6 0zM1324.05 502.81L1323.34 504.53L1332.68 508.4L1333.39 506.68zM1329.73 507.54 a3.3 3.3 0 1 0 6.6 0 a3.3 3.3 0 1 0 -6.6 0zM1316.64 514.55L1315.32 515.87L1322.27 522.82L1323.59 521.5zM1319.63 522.16 a3.3 3.3 0 1 0 6.6 0 a3.3 3.3 0 1 0 -6.6 0zM1305.3 522.57L1303.57 523.28L1305.33 527.53L1307.06 526.82zM1302.89 527.18 a3.3 3.3 0 1 0 6.6 0 a3.3 3.3 0 1 0 -6.6 0zM1291.75 525.63L1289.88 525.63L1289.88 543.09L1291.75 543.09zM1287.52 543.09 a3.3 3.3 0 1 0 6.6 0 a3.3 3.3 0 1 0 -6.6 0zM1278.06 523.28L1276.34 522.57L1273.77 528.77L1275.49 529.48zM1271.33 529.12 a3.3 3.3 0 1 0 6.6 0 a3.3 3.3 0 1 0 -6.6 0zM1266.31 515.87L1265 514.55L1256.78 522.77L1258.1 524.09zM1254.14 523.43 a3.3 3.3 0 1 0 6.6 0 a3.3 3.3 0 1 0 -6.6 0zM1258.3 504.53L1257.58 502.81L1245.56 507.79L1246.28 509.51zM1242.62 508.65 a3.3 3.3 0 1 0 6.6 0 a3.3 3.3 0 1 0 -6.6 0zM1255.23 490.98L1255.23 489.12L1243.75 489.12L1243.75 490.98zM1240.45 490.05 a3.3 3.3 0 1 0 6.6 0 a3.3 3.3 0 1 0 -6.6 0zM1257.58 477.29L1258.3 475.57L1243.58 469.48L1242.87 471.2zM1239.92 470.34 a3.3 3.3 0 1 0 6.6 0 a3.3 3.3 0 1 0 -6.6 0zM1265 465.55L1266.31 464.23L1258.4 456.32L1257.08 457.63zM1254.44 456.98 a3.3 3.3 0 1 0 6.6 0 a3.3 3.3 0 1 0 -6.6 0zM1276.34 457.53L1278.06 456.82L1271.73 441.53L1270 442.24zM1267.57 441.88 a3.3 3.3 0 1 0 6.6 0 a3.3 3.3 0 1 0 -6.6 0zM1289.88 454.47L1291.75 454.47L1291.75 444.36L1289.88 444.36zM1287.52 444.36 a3.3 3.3 0 1 0 6.6 0 a3.3 3.3 0 1 0 -6.6 0zM1303.57 456.82L1305.3 457.53L1311.54 442.45L1309.82 441.74zM1307.38 442.1 a3.3 3.3 0 1 0 6.6 0 a3.3 3.3 0 1 0 -6.6 0zM1315.32 464.23L1316.64 465.55L1320.03 462.15L1318.71 460.83zM1316.07 461.49 a3.3 3.3 0 1 0 6.6 0 a3.3 3.3 0 1 0 -6.6 0zM1323.34 475.57L1324.05 477.29L1339.2 471.02L1338.49 469.3zM1335.54 470.16 a3.3 3.3 0 1 0 6.6 0 a3.3 3.3 0 1 0 -6.6 0zM1255.22 490.05 a35.6 35.6 0 1 0 71.2 0 a35.6 35.6 0 1 0 -71.2 0z"/><path fill="#2672c3" fill-rule="nonzero" d="M1258.98 474.13 A34.5968 34.5968 0 0 1 1320.48 470.38M1320.48 470.38 A71.1936 71.1936 0 0 0 1258.98 474.13"/><path fill="#2672c3" fill-rule="nonzero" d="M1308 492.64 a7.12 7.12 0 1 0 14.24 0 a7.12 7.12 0 1 0 -14.24 0zM1288.84 468.2 a7.12 7.12 0 1 0 14.24 0 a7.12 7.12 0 1 0 -14.24 0zM1287.21 485.7 a3.92 3.92 0 1 0 7.84 0 a3.92 3.92 0 1 0 -7.84 0zM1294.37 506.95 a6.05 6.05 0 1 0 12.1 0 a6.05 6.05 0 1 0 -12.1 0zM1272.08 502.41 a7.12 7.12 0 1 0 14.24 0 a7.12 7.12 0 1 0 -14.24 0zM1281.97 520.16 a4.98 4.98 0 1 0 9.96 0 a4.98 4.98 0 1 0 -9.96 0zM1271.47 473.55 a5.34 5.34 0 1 0 10.68 0 a5.34 5.34 0 1 0 -10.68 0zM1262.24 507.93 a1.78 1.78 0 1 0 3.56 0 a1.78 1.78 0 1 0 -3.56 0zM1309.8 472.08 a3.56 3.56 0 1 0 7.12 0 a3.56 3.56 0 1 0 -7.12 0zM1281.25 459.7 a1.42 1.42 0 1 0 2.84 0 a1.42 1.42 0 1 0 -2.84 0z"/><path fill="#488fdb" d="M262.45 500.54L262.45 502.4L278.39 502.4L278.39 500.54zM275.09 501.47 a3.3 3.3 0 1 0 6.6 0 a3.3 3.3 0 1 0 -6.6 0zM260.1 514.23L259.39 515.95L269.73 520.23L270.44 518.51zM266.78 519.37 a3.3 3.3 0 1 0 6.6 0 a3.3 3.3 0 1 0 -6.6 0zM252.69 525.97L251.37 527.29L255.03 530.95L256.34 529.63zM252.39 530.29 a3.3 3.3 0 1 0 6.6 0 a3.3 3.3 0 1 0 -6.6 0zM241.35 533.99L239.62 534.7L245.57 549.05L247.29 548.34zM243.13 548.69 a3.3 3.3 0 1 0 6.6 0 a3.3 3.3 0 1 0 -6.6 0zM227.8 537.05L225.94 537.05L225.94 546.03L227.8 546.03zM223.57 546.03 a3.3 3.3 0 1 0 6.6 0 a3.3 3.3 0 1 0 -6.6 0zM214.11 534.7L212.39 533.99L208.7 542.89L210.43 543.6zM206.27 543.24 a3.3 3.3 0 1 0 6.6 0 a3.3 3.3 0 1 0 -6.6 0zM202.36 527.29L201.05 525.97L191.32 535.7L192.64 537.01zM188.68 536.35 a3.3 3.3 0 1 0 6.6 0 a3.3 3.3 0 1 0 -6.6 0zM194.35 515.95L193.64 514.23L183.7 518.34L184.42 520.06zM180.76 519.2 a3.3 3.3 0 1 0 6.6 0 a3.3 3.3 0 1 0 -6.6 0zM191.28 502.4L191.28 500.54L182.29 500.54L182.29 502.4zM178.99 501.47 a3.3 3.3 0 1 0 6.6 0 a3.3 3.3 0 1 0 -6.6 0zM193.64 488.71L194.35 486.99L188.27 484.47L187.56 486.2zM184.61 485.33 a3.3 3.3 0 1 0 6.6 0 a3.3 3.3 0 1 0 -6.6 0zM201.05 476.97L202.36 475.65L190.78 464.06L189.46 465.38zM186.82 464.72 a3.3 3.3 0 1 0 6.6 0 a3.3 3.3 0 1 0 -6.6 0zM212.39 468.95L214.11 468.24L208.63 455L206.91 455.71zM204.47 455.36 a3.3 3.3 0 1 0 6.6 0 a3.3 3.3 0 1 0 -6.6 0zM225.94 465.89L227.8 465.89L227.8 458.91L225.94 458.91zM223.57 458.91 a3.3 3.3 0 1 0 6.6 0 a3.3 3.3 0 1 0 -6.6 0zM239.62 468.24L241.35 468.95L243.14 464.63L241.42 463.91zM238.98 464.27 a3.3 3.3 0 1 0 6.6 0 a3.3 3.3 0 1 0 -6.6 0zM251.37 475.65L252.69 476.97L256.49 473.17L255.17 471.85zM252.53 472.51 a3.3 3.3 0 1 0 6.6 0 a3.3 3.3 0 1 0 -6.6 0zM259.39 486.99L260.1 488.71L267.13 485.8L266.42 484.08zM263.47 484.94 a3.3 3.3 0 1 0 6.6 0 a3.3 3.3 0 1 0 -6.6 0zM191.27 501.47 a35.6 35.6 0 1 0 71.2 0 a35.6 35.6 0 1 0 -71.2 0z"/><path fill="#2672c3" fill-rule="nonzero" d="M239.86 468.33 A34.5968 34.5968 0 0 1 249.13 529.24M249.13 529.24 A71.1936 71.1936 0 0 0 239.86 468.33"/><path fill="#2672c3" fill-rule="nonzero" d="M197.44 483.04 a3.2 3.2 0 1 0 6.4 0 a3.2 3.2 0 1 0 -6.4 0zM195.87 517.77 a3.92 3.92 0 1 0 7.84 0 a3.92 3.92 0 1 0 -7.84 0zM211 516.87 a1.42 1.42 0 1 0 2.84 0 a1.42 1.42 0 1 0 -2.84 0zM252.83 485.19 a2.49 2.49 0 1 0 4.98 0 a2.49 2.49 0 1 0 -4.98 0zM240.51 504.66 a7.12 7.12 0 1 0 14.24 0 a7.12 7.12 0 1 0 -14.24 0zM213.59 493.56 a7.12 7.12 0 1 0 14.24 0 a7.12 7.12 0 1 0 -14.24 0zM223.39 529.52 a7.12 7.12 0 1 0 14.24 0 a7.12 7.12 0 1 0 -14.24 0zM231.96 483.28 a4.63 4.63 0 1 0 9.26 0 a4.63 4.63 0 1 0 -9.26 0zM213.79 473.8 a5.34 5.34 0 1 0 10.68 0 a5.34 5.34 0 1 0 -10.68 0zM246.56 522.25 a3.2 3.2 0 1 0 6.4 0 a3.2 3.2 0 1 0 -6.4 0z"/></g><defs><mask id="SvgjsMask1001"><rect width="1440" height="560" fill="#fff"/></mask></defs></svg>