<?xml version="1.0" encoding="UTF-8" standalone="no"?>
<svg
   height="255.40663"
   width="257.69641"
   version="1.1"
   id="svg4071"
   sodipodi:docname="JWS-aruba-FAQs-Web-Design.svg"
   inkscape:version="1.1.1 (3bf5ae0d25, 2021-09-20)"
   xmlns:inkscape="http://www.inkscape.org/namespaces/inkscape"
   xmlns:sodipodi="http://sodipodi.sourceforge.net/DTD/sodipodi-0.dtd"
   xmlns="http://www.w3.org/2000/svg"
   xmlns:svg="http://www.w3.org/2000/svg"
   xmlns:rdf="http://www.w3.org/1999/02/22-rdf-syntax-ns#"
   xmlns:cc="http://creativecommons.org/ns#"
   xmlns:dc="http://purl.org/dc/elements/1.1/">
  <metadata
     id="metadata4077">
    <rdf:RDF>
      <cc:Work
         rdf:about="">
        <dc:format>image/svg+xml</dc:format>
        <dc:type
           rdf:resource="http://purl.org/dc/dcmitype/StillImage" />
      </cc:Work>
    </rdf:RDF>
  </metadata>
  <defs
     id="defs4075" />
  <sodipodi:namedview
     pagecolor="#ffffff"
     bordercolor="#666666"
     borderopacity="1"
     objecttolerance="10"
     gridtolerance="10"
     guidetolerance="10"
     inkscape:pageopacity="0"
     inkscape:pageshadow="2"
     inkscape:window-width="1920"
     inkscape:window-height="1001"
     id="namedview4073"
     showgrid="false"
     inkscape:zoom="2"
     inkscape:cx="144.25"
     inkscape:cy="134.25"
     inkscape:window-x="-9"
     inkscape:window-y="-9"
     inkscape:window-maximized="1"
     inkscape:current-layer="svg4071"
     inkscape:pagecheckerboard="0" />
  <g
     fill="#2f2e41"
     id="g4027"
     transform="matrix(0.70666565,0,0,0.70403163,-44.329032,0.402682)">
    <ellipse
       ry="4.0890002"
       rx="10.903"
       cy="300.45999"
       cx="171.714"
       id="ellipse4017" />
    <ellipse
       ry="4.0890002"
       rx="10.903"
       cy="299.91501"
       cx="197.882"
       id="ellipse4019" />
    <ellipse
       transform="rotate(-29.963)"
       ry="6.7600002"
       rx="21.534"
       cy="313.254"
       cx="84.023003"
       id="ellipse4021" />
    <circle
       transform="rotate(-80.783)"
       r="43.067001"
       cy="217.022"
       cx="-210.907"
       id="circle4023" />
    <path
       d="m 160.811,276.746 h 13.084 v 23.442 h -13.084 z m 26.167,0 h 13.084 v 23.442 h -13.084 z"
       id="path4025" />
  </g>
  <ellipse
     fill="#ffffff"
     cy="163.7683"
     cx="83.949867"
     id="circle4029"
     rx="10.401411"
     ry="10.362641"
     style="stroke-width:0.705347" />
  <ellipse
     fill="#3f3d56"
     cy="163.7683"
     cx="83.949867"
     id="circle4031"
     rx="3.466902"
     ry="3.4539793"
     style="stroke-width:0.705347" />
  <path
     fill="#e6e6e6"
     d="m 53.657229,143.24717 c -2.457076,-10.96459 5.39822,-22.04323 17.545801,-24.746 12.147583,-2.70278 23.987059,3.99537 26.444842,14.95996 2.457788,10.9646 -5.593258,15.00855 -17.740841,17.71062 -12.147583,2.70207 -23.792019,3.04001 -26.249095,-7.92458 z"
     id="path4033"
     style="fill:#0066ff;stroke-width:0.705347" />
  <ellipse
     fill="#2f2e41"
     transform="matrix(0.42983268,-0.90290856,0.90414778,0.42721984,0,0)"
     ry="15.206936"
     rx="4.7625289"
     cy="111.79847"
     cx="-121.39944"
     id="ellipse4035"
     style="stroke-width:0.70535" />
  <path
     fill="#ffffff"
     d="m 68.230088,182.38288 c 0,2.96749 7.669442,8.82784 16.180523,8.82784 8.511081,0 16.490039,-8.35473 16.490039,-11.32223 0,-2.96749 -7.979665,0.5759 -16.490039,0.5759 -8.510375,0 -16.180523,-1.04831 -16.180523,1.91919 z"
     id="path4037"
     style="stroke-width:0.705347" />
  <g
     fill="#2f2e41"
     id="g4049"
     transform="matrix(0.70666565,0,0,0.70403163,-44.329032,0.402682)">
    <ellipse
       ry="4.0890002"
       rx="10.903"
       cy="300.45999"
       cx="330.60901"
       id="ellipse4039" />
    <ellipse
       ry="4.0890002"
       rx="10.903"
       cy="299.91501"
       cx="304.44101"
       id="ellipse4041" />
    <ellipse
       transform="rotate(-60.037)"
       ry="21.534"
       rx="6.7600002"
       cy="351.16501"
       cx="-62.376999"
       id="ellipse4043" />
    <circle
       r="43.067001"
       cy="242.946"
       cx="321.88599"
       id="circle4045" />
    <path
       d="m 328.428,276.746 h 13.084 v 23.442 h -13.084 z m -26.167,0 h 13.084 v 23.442 h -13.084 z"
       id="path4047" />
  </g>
  <ellipse
     fill="#ffffff"
     cy="163.7683"
     cx="176.00648"
     id="circle4051"
     rx="10.401411"
     ry="10.362641"
     style="stroke-width:0.705347" />
  <ellipse
     fill="#3f3d56"
     transform="matrix(0.70874605,-0.7054637,0.70810551,0.70610664,0,0)"
     ry="3.4463336"
     rx="3.4710324"
     cy="235.75085"
     cx="5.8169699"
     id="ellipse4053"
     style="stroke-width:0.705349" />
  <path
     fill="#2a7fff"
     d="m 186.41003,151.17175 c -12.14758,-2.70207 -20.19793,-6.74602 -17.74084,-17.71062 2.45707,-10.96459 14.29726,-17.66203 26.44484,-14.95996 12.14758,2.70207 20.00288,13.78141 17.5458,24.746 -2.45708,10.96459 -14.10222,10.62665 -26.24909,7.92458 z"
     id="path4055"
     style="fill:#cccccc;stroke-width:0.705347" />
  <ellipse
     fill="#2f2e41"
     transform="matrix(0.96672523,-0.25581697,0.25760794,0.96624953,0,0)"
     ry="15.164362"
     rx="4.7758884"
     cy="227.90932"
     cx="157.58984"
     id="ellipse4057"
     style="stroke-width:0.705348" />
  <path
     fill="#ffffff"
     d="m 176.24182,180.46439 c -5.5876,0 -10.82613,-3.54339 -10.82613,-0.5759 0,2.9675 5.23853,11.32223 10.82613,11.32223 5.5876,0 10.6226,-5.85965 10.6226,-8.82784 0,-2.9682 -5.035,-1.9192 -10.6226,-1.9192 z"
     id="path4059"
     style="stroke-width:0.705347" />
  <path
     d="m 136.91092,121.17155 h -2.703 a 9.1421336,9.1080569 0 0 1 -9.13224,-9.09819 v -2.26065 c 0,-5.59917 1.06495,-10.287308 3.16516,-13.934192 a 73.573787,73.299548 0 0 1 8.863,-11.864341 52.483351,52.287722 0 0 0 6.02645,-7.236741 12.218249,12.172707 0 0 0 1.90305,-6.731949 c 0,-5.616765 -3.67325,-8.346999 -11.22963,-8.346999 a 45.598308,45.428342 0 0 0 -12.37724,1.850898 10.419785,10.380946 0 0 1 -13.27967,-9.98176 v -4.576204 a 10.220505,10.182409 0 0 1 6.02927,-9.332643 55.178574,54.972899 0 0 1 22.47904,-4.405831 c 8.08708,0 15.38764,1.353149 21.69958,4.022134 6.32324,2.674615 11.31867,6.446817 14.84776,11.210999 a 27.102041,27.00102 0 0 1 5.32543,16.36451 c 0,6.322204 -1.73274,11.828436 -5.14947,16.366622 -3.37927,4.491722 -8.22418,9.408679 -14.39903,14.615697 a 102.61068,102.22821 0 0 0 -9.23117,8.66451 16.054031,15.99419 0 0 0 -3.83791,7.11847 9.1075072,9.073559 0 0 1 -9.00009,7.55636 z m -1.50308,42.78541 h -0.35616 a 16.92535,16.862262 0 0 1 0,-33.72452 h 0.35616 a 16.92535,16.862262 0 1 1 0,33.72452 z"
     fill="#00b0ff"
     id="path4061"
     style="fill:#2a7fff;stroke:#0008ff;stroke-width:0.493743;stroke-miterlimit:4;stroke-dasharray:none;stroke-opacity:1" />
  <g
     fill="#f2f2f2"
     id="g4069"
     transform="translate(-112.25823,-49.142366)" />
</svg>
