<svg xmlns="http://www.w3.org/2000/svg" xmlns:xlink="http://www.w3.org/1999/xlink" width="430.318" height="294.27" viewBox="0 0 113.855 77.859" xmlns:v="https://vecta.io/nano"><style><![CDATA[.B{fill:#007cff}.C{fill:#fff}.D{opacity:.5}.E{fill:#1a2e35}]]></style><defs><clipPath id="A"><path d="M0 500h500V0H0z"/></clipPath><clipPath id="B"><path d="M315.607 418.512h95.763V222.469h-95.763z"/></clipPath><clipPath id="C"><path d="M0 500h500V0H0z"/></clipPath><clipPath id="D"><path d="M203.102 429.668h95.764v-196.04h-95.764z"/></clipPath><clipPath id="E"><path d="M241.505 362.442h17.018v-17.018h-17.018z"/></clipPath><clipPath id="F"><path d="M289.295 418.915h9.642v-22.834h-9.642z"/></clipPath><clipPath id="G"><path d="M279.654 443.173h28.806v-30.002h-28.806z"/></clipPath><clipPath id="H"><path d="M0 500h500V0H0z"/></clipPath><clipPath id="I"><path d="M88.63 418.512h95.763V222.469H88.63z"/></clipPath><clipPath id="J"><path d="M126.576 317.841h17.018v-17.018h-17.018z"/></clipPath><clipPath id="K"><path d="M126.576 351.284h17.018v-17.018h-17.018z"/></clipPath><path id="L" d="M347.948 398.684v-1.48a1.97 1.97 0 0 1-.36.038c-1.182 0-1.928-.697-1.928-2.053v-3.22h-1.555v6.64h1.48v-.969c.448.696 1.257 1.044 2.363 1.044"/><path id="M" d="M383.477 232.881h-39.978c-5.436 0-9.843 4.407-9.843 9.844v.745c0 5.436 4.407 9.844 9.843 9.844h39.978c5.436 0 9.843-4.408 9.843-9.844v-.745c0-5.437-4.407-9.844-9.843-9.844"/><path id="N" d="M370.658 342.86a8.6 8.6 0 0 0-8.597-8.597 8.6 8.6 0 0 0-8.596 8.597 8.6 8.6 0 0 0 8.596 8.597 8.6 8.6 0 0 0 8.597-8.597"/><path id="O" d="M350.787 383.785l1.609-2.573 2.944-.735-1.95-2.325.211-3.028-2.814 1.137-2.814-1.137.211 3.028-1.95 2.325 2.944.735z"/><path id="P" d="M240.531 405.204v.771h-1.604c-1.057 0-1.343-.398-1.343-.883 0-.559.472-.92 1.268-.92.759 0 1.418.348 1.679 1.032m1.555 1.816v-3.893h-1.468v.808c-.373-.571-1.094-.895-2.089-.895-1.517 0-2.475.833-2.475 1.99 0 1.107.747 1.977 2.761 1.977h1.716v.1c0 .908-.547 1.442-1.654 1.442-.746 0-1.517-.248-2.014-.658l-.61 1.131c.709.547 1.741.821 2.811.821 1.915 0 3.022-.908 3.022-2.823"/><path id="Q" d="M257.631 406.447c0 1.269-.858 2.077-1.978 2.077s-1.977-.808-1.977-2.077.858-2.077 1.977-2.077 1.978.808 1.978 2.077m1.53 5.907v-9.227h-1.493v.858c-.522-.635-1.293-.945-2.201-.945-1.927 0-3.357 1.343-3.357 3.407s1.43 3.395 3.357 3.395c.858 0 1.617-.286 2.139-.895v3.407z"/><path id="R" d="M258.524 353.933a8.51 8.51 0 0 0-8.509-8.509 8.51 8.51 0 0 0-8.509 8.509 8.51 8.51 0 0 0 8.509 8.509 8.51 8.51 0 0 0 8.509-8.509"/><path id="S" d="M296.468 441.727h0a2.73 2.73 0 0 1 3.605-1.171c1.966.955 4.203-.67 3.901-2.835-.202-1.455.782-2.81 2.229-3.067 2.152-.382 3.007-3.011 1.49-4.586-1.019-1.058-1.019-2.733 0-3.791 1.517-1.574.662-4.204-1.49-4.586-1.447-.257-2.431-1.612-2.229-3.067.302-2.166-1.935-3.791-3.901-2.834a2.73 2.73 0 0 1-3.605-1.172c-1.029-1.929-3.793-1.929-4.822 0-.692 1.297-2.284 1.814-3.606 1.172-1.966-.957-4.202.668-3.901 2.834a2.73 2.73 0 0 1-2.228 3.067c-2.152.382-3.007 3.012-1.49 4.586 1.019 1.058 1.019 2.733 0 3.791-1.517 1.575-.662 4.204 1.49 4.586a2.73 2.73 0 0 1 2.228 3.067c-.301 2.165 1.935 3.79 3.901 2.835 1.322-.643 2.914-.125 3.606 1.171 1.029 1.929 3.793 1.929 4.822 0"/><path id="T" d="M184.393 408.894v-38.878H88.63v38.878a9.62 9.62 0 0 0 9.621 9.616h76.521a9.62 9.62 0 0 0 9.621-9.616"/></defs><g transform="matrix(.352778 0 0 -.352778 -31.266755 156.34217)"><g clip-path="url(#A)"><path d="M392.741 222.47h-58.505c-10.289 0-18.629 8.34-18.629 18.628v158.786c0 10.288 8.34 18.628 18.629 18.628h58.505a18.63 18.63 0 0 0 18.628-18.628V241.098a18.63 18.63 0 0 0-18.628-18.628" class="B"/><g clip-path="url(#B)" opacity=".3"><path d="M392.949 418.512h-58.922c-10.174 0-18.42-8.247-18.42-18.42V240.889c0-10.172 8.246-18.419 18.42-18.419h58.922c10.173 0 18.42 8.247 18.42 18.419v159.203c0 10.173-8.247 18.42-18.42 18.42"/></g><path d="M411.37 408.894v-38.878h-95.763v38.878a9.62 9.62 0 0 0 9.621 9.616h76.521a9.62 9.62 0 0 0 9.621-9.616" class="B"/><g class="C"><path d="M341.07 397.577c0 1.095-.733 1.729-2.151 1.729h-1.891v-3.458h1.891c1.418 0 2.151.635 2.151 1.729m1.629 0c0-1.915-1.418-3.096-3.706-3.096h-1.965v-2.512h-1.616v8.705h3.581c2.288 0 3.706-1.169 3.706-3.097"/><use xlink:href="#L"/><path d="M350.199 395.824h3.768c-.124.958-.858 1.617-1.878 1.617-1.007 0-1.741-.647-1.89-1.617m5.223-1.032h-5.211c.187-.97.995-1.592 2.152-1.592.746 0 1.331.236 1.803.722l.833-.958c-.597-.709-1.529-1.082-2.674-1.082-2.226 0-3.668 1.43-3.668 3.407s1.455 3.395 3.432 3.395c1.94 0 3.358-1.355 3.358-3.432a6.65 6.65 0 0 0-.025-.46m12.623.982v-3.805h-1.555v3.606c0 1.181-.547 1.754-1.492 1.754-1.019 0-1.728-.672-1.728-1.99v-3.37h-1.555v3.606c0 1.181-.547 1.754-1.492 1.754-1.032 0-1.729-.672-1.729-1.99v-3.37h-1.554v6.64h1.48v-.845c.497.597 1.268.92 2.176.92.97 0 1.778-.36 2.239-1.107.534.684 1.43 1.107 2.486 1.107 1.605 0 2.724-.908 2.724-2.91m1.991 2.835h1.555v-6.641h-1.555zm-.212 2.028c0 .522.423.932.996.932s.994-.385.994-.895c0-.547-.41-.97-.994-.97-.573 0-.996.41-.996.933m10.235-2.028v-6.641h-1.48v.846c-.498-.609-1.281-.933-2.139-.933-1.704 0-2.86.933-2.86 2.935v3.793h1.554v-3.582c0-1.206.572-1.778 1.555-1.778 1.082 0 1.815.672 1.815 2.003v3.357zm13.146-2.835v-3.805h-1.555v3.606c0 1.181-.547 1.754-1.492 1.754-1.019 0-1.728-.672-1.728-1.99v-3.37h-1.555v3.606c0 1.181-.547 1.754-1.492 1.754-1.032 0-1.729-.672-1.729-1.99v-3.37H382.1v6.64h1.48v-.845c.497.597 1.268.92 2.176.92.97 0 1.778-.36 2.239-1.107.534.684 1.43 1.107 2.486 1.107 1.605 0 2.724-.908 2.724-2.91"/></g><use xlink:href="#M" class="B"/><path d="M345.751 241.169c0 .404-.321.656-.81.838l-.377-1.913c.754.153 1.187.544 1.187 1.075m-1.732 3.241l.405 2.011c-.796-.153-1.243-.586-1.257-1.117 0-.434.349-.685.852-.894m3.995-2.879c0-1.857-1.494-3.1-3.827-3.296l-.308-1.537h-1.397l.308 1.537c-1.328.126-2.501.544-3.213 1.076l.935 1.732c.741-.545 1.676-.894 2.641-.992l.475 2.361c-1.299.391-2.725.907-2.725 2.599 0 1.857 1.523 3.114 3.898 3.283l.307 1.536h1.397l-.307-1.551c.992-.097 1.9-.378 2.571-.796l-.852-1.732c-.601.404-1.328.643-2.082.727l-.489-2.459c1.285-.377 2.668-.88 2.668-2.488" class="C"/><path d="M337.744 294.112h49.434"/><path d="M387.178 293.112h-49.434v2h49.434z" class="B"/><path d="M337.744 326.952h49.434"/><path d="M387.178 325.952h-49.434v2h49.434z" class="B"/><path d="M337.744 358.604h49.434"/><g class="B"><path d="M387.178 357.604h-49.434v2h49.434z"/><use xlink:href="#N"/></g><g class="C"><path d="M368.215 344.72l-4.946-4.946-2.306-2.31-2.311 2.31 2.307 2.306 4.945 4.95z"/><path d="M363.269 339.774l-2.306-2.311-4.9 4.9 2.307 2.307 2.589-2.59z"/></g><path d="M370.658 311.126a8.6 8.6 0 0 0-8.597-8.597 8.6 8.6 0 0 0-8.596 8.597 8.6 8.6 0 0 0 8.596 8.597 8.6 8.6 0 0 0 8.597-8.597" class="B"/><g class="C"><path d="M368.215 312.985l-4.946-4.945-2.306-2.311-2.311 2.311 2.307 2.306 4.945 4.95z"/><path d="M363.269 308.04l-2.306-2.311-4.9 4.9 2.307 2.306 2.589-2.589z"/></g><path d="M370.658 277.1a8.6 8.6 0 0 0-8.597-8.597 8.6 8.6 0 0 0-8.596 8.597 8.6 8.6 0 0 0 8.596 8.597 8.6 8.6 0 0 0 8.597-8.597" class="B"/><g class="C"><path d="M368.215 278.96l-4.946-4.946-2.306-2.31-2.311 2.31 2.307 2.307 4.945 4.95z"/><path d="M363.269 274.014l-2.306-2.31-4.9 4.899 2.307 2.307 2.589-2.589z"/><use xlink:href="#O"/><path d="M362.062 383.785l1.609-2.573 2.944-.735-1.95-2.325.211-3.028-2.814 1.137-2.814-1.137.211 3.028-1.95 2.325 2.944.735zm11.274 0l1.608-2.573 2.945-.735-1.95-2.325.211-3.028-2.814 1.137-2.814-1.137.211 3.028-1.95 2.325 2.944.735z"/></g></g><g clip-path="url(#C)"><path d="M280.235 233.628H221.73c-10.289 0-18.629 8.34-18.629 18.628v158.786c0 10.288 8.34 18.628 18.629 18.628h58.505c10.288 0 18.628-8.34 18.628-18.628V252.256c0-10.288-8.34-18.628-18.628-18.628" class="B"/><g clip-path="url(#D)" class="D C"><path d="M279.613 429.669H222.35c-10.63 0-19.248-8.618-19.248-19.248v-157.54c0-10.633 8.62-19.253 19.253-19.253h57.258c10.633 0 19.252 8.62 19.252 19.253v157.535c0 10.633-8.619 19.253-19.252 19.253"/></g><path d="M298.865 420.052v-38.877h-95.763v38.877a9.62 9.62 0 0 0 9.621 9.616h76.521a9.62 9.62 0 0 0 9.621-9.616" class="B"/><g class="C"><path d="M222.846 404.047l.56 1.256c.696-.56 1.803-.958 2.873-.958 1.355 0 1.927.485 1.927 1.132 0 1.878-5.173.647-5.173 3.88 0 1.405 1.119 2.599 3.507 2.599 1.044 0 2.139-.274 2.897-.771l-.509-1.256c-.784.46-1.642.684-2.401.684-1.343 0-1.89-.523-1.89-1.181 0-1.853 5.161-.647 5.161-3.843 0-1.393-1.132-2.587-3.519-2.587-1.356 0-2.711.423-3.433 1.045m12.399-.559c-.373-.299-.933-.448-1.492-.448-1.455 0-2.289.771-2.289 2.239v3.196h-1.094v1.243h1.094v1.518h1.555v-1.518h1.778v-1.243h-1.778v-3.159c0-.647.323-.995.92-.995.324 0 .635.087.871.273z"/><use xlink:href="#P"/><path d="M250.617 406.932v-3.805h-1.555v3.606c0 1.181-.584 1.754-1.579 1.754-1.107 0-1.853-.672-1.853-2.002v-3.358h-1.555v6.64h1.48v-.857c.51.609 1.319.932 2.289.932 1.591 0 2.773-.908 2.773-2.91"/><use xlink:href="#Q"/><path d="M265.205 405.204v.771h-1.604c-1.057 0-1.343-.398-1.343-.883 0-.559.472-.92 1.268-.92.759 0 1.418.348 1.679 1.032m1.555 1.816v-3.893h-1.468v.808c-.373-.571-1.094-.895-2.089-.895-1.517 0-2.475.833-2.475 1.99 0 1.107.747 1.977 2.761 1.977h1.716v.1c0 .908-.547 1.442-1.654 1.442-.746 0-1.517-.248-2.014-.658l-.61 1.131c.709.547 1.741.821 2.811.821 1.915 0 3.022-.908 3.022-2.823m5.833 2.822v-1.48a1.97 1.97 0 0 1-.36.038c-1.182 0-1.928-.697-1.928-2.053v-3.22h-1.555v6.64h1.48v-.969c.448.696 1.257 1.044 2.363 1.044m6.23-3.395c0 1.269-.858 2.077-1.978 2.077s-1.977-.808-1.977-2.077.858-2.077 1.977-2.077 1.978.808 1.978 2.077m1.53 5.907v-9.227h-1.493v.858c-.522-.635-1.293-.945-2.201-.945-1.927 0-3.357 1.343-3.357 3.407s1.43 3.395 3.357 3.395c.858 0 1.617-.286 2.139-.895v3.407z"/></g><path d="M271.781 244.039h-39.978c-5.436 0-9.843 4.407-9.843 9.844v.745c0 5.436 4.407 9.844 9.843 9.844h39.978c5.436 0 9.843-4.408 9.843-9.844v-.745c0-5.437-4.407-9.844-9.843-9.844" class="B"/><path d="M226.047 305.271h49.434"/><path d="M275.481 304.271h-49.434v2h49.434z" class="B"/><path d="M226.047 338.11h49.434"/><path d="M275.481 337.11h-49.434v2h49.434z" class="B"/><path d="M226.047 369.763h49.434"/><g class="B"><path d="M275.481 368.763h-49.434v2h49.434zm-16.87-46.479a8.6 8.6 0 0 0-8.597-8.597 8.6 8.6 0 0 0-8.596 8.597 8.6 8.6 0 0 0 8.596 8.597 8.6 8.6 0 0 0 8.597-8.597"/></g><g class="C"><path d="M256.167 324.144l-4.945-4.946-2.307-2.31-2.31 2.31 2.306 2.306 4.946 4.95z"/><path d="M251.222 319.198l-2.307-2.311-4.899 4.9 2.307 2.307 2.588-2.59z"/></g><path d="M259.361 288.258a8.6 8.6 0 0 0-8.597-8.597 8.6 8.6 0 0 0-8.596 8.597 8.6 8.6 0 0 0 8.596 8.597 8.6 8.6 0 0 0 8.597-8.597" class="B"/><g class="C"><path d="M256.917 290.118l-4.946-4.945-2.306-2.311-2.31 2.311 2.306 2.306 4.945 4.95z"/><path d="M251.971 285.172l-2.307-2.311-4.899 4.9 2.307 2.306 2.589-2.589z"/></g><use xlink:href="#R" class="E"/><g clip-path="url(#E)" class="D C"><use xlink:href="#R"/></g><g class="C"><path d="M254.823 356.457l-7.333-7.333-2.285 2.285 7.333 7.333z"/><path d="M247.49 358.742l7.333-7.333-2.285-2.285-7.333 7.333z"/></g><g class="B"><path d="M289.3 418.912v-22.826l4.816 4.817v18.009z"/><path d="M298.933 418.912v-22.826l-4.817 4.817v18.009z"/></g><g clip-path="url(#F)" opacity=".3"><path d="M298.937 418.915v-22.833l-4.816 4.826-4.826-4.826v22.833z"/></g><g class="B"><use xlink:href="#S"/><use xlink:href="#S"/></g><g clip-path="url(#G)" class="D C"><use xlink:href="#S"/></g><g class="C"><path d="M289.731 431.035h-1.238a1.13 1.13 0 0 1-1.116-1.06l-.299-5.713c-.031-.585.42-1.06 1.004-1.06h1.238a1.13 1.13 0 0 1 1.115 1.06l.299 5.713c.031.585-.419 1.06-1.003 1.06m9.889 0h-2.905l.809 1.902c.088.207.121.431.096.648l-.171 1.5a1.19 1.19 0 0 1-1.182 1.054h-1.447a7.29 7.29 0 0 0-1.567-4.146l-.889-1.122a1.8 1.8 0 0 1-.391-1.019l-.28-5.344a1.23 1.23 0 0 1 1.239-1.306h5.069c.445 0 .877.196 1.184.537l.473.525c.187.208.316.46.378.732l.967 4.311c.09.4.002.819-.24 1.149a1.42 1.42 0 0 1-1.143.579m-49.606-34.949l1.609-2.573 2.944-.735-1.95-2.325.211-3.028-2.814 1.137-2.814-1.137.211 3.028-1.95 2.325 2.945.735zm-15.653-143.789c0 .404-.322.656-.811.838l-.376-1.914c.753.154 1.187.545 1.187 1.076m-1.732 3.24l.404 2.012c-.796-.153-1.243-.586-1.256-1.117 0-.434.349-.685.852-.895m3.995-2.878c0-1.857-1.494-3.1-3.828-3.296l-.307-1.537h-1.397l.307 1.537c-1.327.125-2.5.544-3.213 1.076l.936 1.732c.74-.545 1.676-.894 2.64-.992l.475 2.36c-1.298.392-2.724.908-2.724 2.6 0 1.857 1.523 3.114 3.898 3.283l.307 1.536h1.397l-.307-1.552c.992-.096 1.9-.377 2.57-.796l-.851-1.731c-.602.404-1.328.643-2.083.726l-.488-2.458c1.285-.378 2.668-.881 2.668-2.488"/></g></g><g clip-path="url(#H)"><path d="M165.764 222.47h-58.505c-10.288 0-18.629 8.34-18.629 18.628v158.786c0 10.288 8.341 18.628 18.629 18.628h58.505c10.289 0 18.629-8.34 18.629-18.628V241.098c0-10.288-8.34-18.628-18.629-18.628" class="E"/><g clip-path="url(#I)" opacity=".7" class="C"><path d="M165.476 418.512h-57.928c-10.447 0-18.917-8.47-18.917-18.917V241.387a18.92 18.92 0 0 1 18.917-18.917h57.928a18.92 18.92 0 0 1 18.917 18.917v158.208a18.92 18.92 0 0 1-18.917 18.917"/></g><g class="B"><use xlink:href="#T"/><use xlink:href="#T"/></g><g class="C"><path d="M127.015 394.493c0 .871-.659 1.256-1.878 1.256h-2.611v-2.512h2.611c1.219 0 1.878.385 1.878 1.256m-4.489 4.912v-2.4h2.288c1.119 0 1.753.398 1.753 1.194 0 .808-.634 1.206-1.753 1.206zm6.118-5.074c0-1.492-1.169-2.362-3.407-2.362h-4.328v8.705h4.079c2.089 0 3.209-.883 3.209-2.264 0-.895-.448-1.554-1.12-1.915.933-.298 1.567-1.032 1.567-2.164m5.584-.286v.771h-1.604c-1.057 0-1.343-.398-1.343-.883 0-.559.472-.92 1.268-.92.759 0 1.418.348 1.679 1.032m1.555 1.816v-3.893h-1.468v.808c-.373-.571-1.094-.895-2.089-.895-1.517 0-2.475.833-2.475 1.99 0 1.107.747 1.977 2.761 1.977h1.716v.1c0 .908-.547 1.442-1.654 1.442-.746 0-1.517-.248-2.014-.658l-.61 1.131c.709.547 1.741.821 2.811.821 1.915 0 3.022-.908 3.022-2.823m1.231-3.233l.597 1.181c.584-.385 1.48-.659 2.313-.659.983 0 1.393.274 1.393.734 0 1.268-4.104.075-4.104 2.723 0 1.256 1.132 2.077 2.922 2.077.883 0 1.891-.211 2.487-.572l-.596-1.181c-.635.373-1.269.497-1.903.497-.945 0-1.393-.311-1.393-.746 0-1.343 4.104-.149 4.104-2.748 0-1.244-1.144-2.052-3.009-2.052-1.107 0-2.214.323-2.811.746m7.164 5.981h1.555v-6.641h-1.555zm-.211 2.028c0 .522.422.932.995.932s.994-.385.994-.895c0-.547-.41-.97-.994-.97-.573 0-.995.41-.995.933m3.258-5.348c0 1.99 1.492 3.395 3.594 3.395 1.293 0 2.325-.535 2.835-1.542l-1.194-.696c-.398.634-.994.92-1.653.92-1.144 0-2.015-.796-2.015-2.077 0-1.293.871-2.077 2.015-2.077.659 0 1.255.286 1.653.921l1.194-.697c-.51-.995-1.542-1.554-2.835-1.554-2.102 0-3.594 1.417-3.594 3.407"/></g><path d="M143.594 309.333a8.51 8.51 0 0 0-8.509-8.509 8.51 8.51 0 0 0-8.509 8.509 8.51 8.51 0 0 0 8.509 8.509 8.51 8.51 0 0 0 8.509-8.509" class="E"/><g clip-path="url(#J)" class="D C"><path d="M143.594 309.333a8.51 8.51 0 0 0-8.509-8.509 8.51 8.51 0 0 0-8.509 8.509 8.51 8.51 0 0 0 8.509 8.509 8.51 8.51 0 0 0 8.509-8.509"/></g><g class="C"><path d="M139.894 311.856l-7.333-7.333-2.285 2.285 7.333 7.333z"/><path d="M132.561 314.141l7.333-7.333-2.285-2.285-7.333 7.333z"/></g><path d="M144.081 277.887a8.6 8.6 0 0 0-8.597-8.596c-4.748 0-8.596 3.848-8.596 8.596a8.6 8.6 0 0 0 8.596 8.597 8.6 8.6 0 0 0 8.597-8.597" class="B"/><g class="C"><path d="M141.637 279.747l-4.946-4.946-2.306-2.31-2.311 2.31 2.307 2.307 4.945 4.949z"/><path d="M136.692 274.801l-2.307-2.31-4.899 4.899 2.307 2.307 2.589-2.589z"/></g><path d="M156.501 232.881h-39.978c-5.436 0-9.843 4.407-9.843 9.844v.745c0 5.436 4.407 9.844 9.843 9.844h39.978c5.437 0 9.843-4.408 9.843-9.844v-.745c0-5.437-4.406-9.844-9.843-9.844" class="B"/><path d="M117.348 240.8c0 .404-.322.656-.811.838l-.376-1.914c.753.154 1.187.545 1.187 1.076m-1.732 3.24l.404 2.012c-.796-.153-1.242-.586-1.256-1.117 0-.434.349-.685.852-.895m3.995-2.878c0-1.857-1.494-3.1-3.828-3.296l-.307-1.537h-1.397l.308 1.537c-1.328.126-2.501.544-3.214 1.076l.936 1.732c.74-.545 1.676-.894 2.64-.992l.475 2.361c-1.298.391-2.724.907-2.724 2.599 0 1.857 1.523 3.114 3.898 3.283l.307 1.536h1.397l-.307-1.551c.992-.097 1.9-.378 2.57-.796l-.851-1.732c-.602.404-1.328.643-2.083.727l-.488-2.459c1.285-.378 2.668-.88 2.668-2.488" class="C"/><path d="M110.767 294.112h49.434"/><path d="M160.201 293.112h-49.434v2h49.434z" class="B"/><path d="M110.767 326.952h49.434"/><path d="M160.201 325.952h-49.434v2h49.434z" class="B"/><path d="M110.767 358.604h49.434"/><path d="M160.201 357.604h-49.434v2h49.434z" class="B"/><path d="M143.594 342.774a8.51 8.51 0 0 0-8.509-8.509 8.51 8.51 0 0 0-8.509 8.509 8.51 8.51 0 0 0 8.509 8.509 8.51 8.51 0 0 0 8.509-8.509" class="E"/><g clip-path="url(#K)" class="D C"><path d="M143.594 342.774a8.51 8.51 0 0 0-8.509-8.509 8.51 8.51 0 0 0-8.509 8.509 8.51 8.51 0 0 0 8.509 8.509 8.51 8.51 0 0 0 8.509-8.509"/></g><g class="C"><path d="M139.894 345.299l-7.333-7.333-2.285 2.285 7.333 7.333z"/><path d="M132.561 347.584l7.333-7.333-2.285-2.285-7.333 7.333z"/></g></g></g></svg>