<svg xmlns="http://www.w3.org/2000/svg" xmlns:xlink="http://www.w3.org/1999/xlink" width="555" height="350" fill="none" xmlns:v="https://vecta.io/nano"><style><![CDATA[.i{fill:#000}.j{opacity:.3}.k{fill:#fff}.l{fill:#4d61fc}.m{opacity:.2}.n{fill:#fc9d9d}.o{fill:#dadddf}.p{opacity:.15}.q{stroke-miterlimit:10}.r{stroke:#000}.s{stroke-width:.727}.t{fill:#2a7fff}.u{fill:#f4f4f4}.v{fill:#5fd38d}.w{fill:#b2b6bb}.x{stroke-linecap:round}]]></style><defs><path id="A" d="M902.31 179.029H363.28a4.29 4.29 0 0 0-4.29 4.29v392.68a4.29 4.29 0 0 0 4.29 4.29h539.03a4.29 4.29 0 0 0 4.29-4.29v-392.68a4.29 4.29 0 0 0-4.29-4.29z"/><path id="B" d="M896.57 178.93H357.54a4.29 4.29 0 0 0-4.29 4.29V575.9a4.29 4.29 0 0 0 4.29 4.29h539.03a4.29 4.29 0 0 0 4.29-4.29V183.22a4.29 4.29 0 0 0-4.29-4.29z"/><path id="C" d="M896.22 580.878H357.9c-4.27 0-5.35-1-5.35-5.2v-392.24c0-4.19 1.08-5.2 5.35-5.2h538.32c4.27 0 5.35 1 5.35 5.2v392.24c0 4.18-1.08 5.2-5.35 5.2zM357.9 179.618c-3.5 0-3.94.39-3.94 3.82v392.24c0 3.42.44 3.82 3.94 3.82h538.32c3.49 0 3.94-.4 3.94-3.82v-392.24c0-3.43-.45-3.82-3.94-3.82z"/><path id="D" d="M371.54 200.719a4.85 4.85 0 1 0 0-9.7 4.85 4.85 0 0 0 0 9.7z"/><path id="E" d="M456.01 358.99a2.45 2.45 0 0 0 0-4.9 2.45 2.45 0 0 0 0 4.9z"/><path id="F" d="M526.91 278.359h-9.06c-5.346 0-9.68 4.334-9.68 9.68v23.8c0 5.346 4.334 9.68 9.68 9.68h9.06c5.346 0 9.68-4.334 9.68-9.68v-23.8c0-5.346-4.334-9.68-9.68-9.68z"/><path id="G" d="M569.14 293.09h-9.06c-5.346 0-9.68 4.334-9.68 9.68v9.06c0 5.346 4.334 9.68 9.68 9.68h9.06c5.346 0 9.68-4.334 9.68-9.68v-9.06c0-5.346-4.334-9.68-9.68-9.68z"/><path id="H" d="M758.23 408.039H495.88a3.19 3.19 0 0 0-3.19 3.19v50.46a3.19 3.19 0 0 0 3.19 3.19h262.35a3.19 3.19 0 0 0 3.19-3.19v-50.46a3.19 3.19 0 0 0-3.19-3.19z"/><path id="I" d="M743.42 418.75H580.03v3.18h163.39z"/><path id="J" d="M895.71 635.369l.5-7.42c.01-.127-.01-.256-.08-.365a.59.59 0 0 0-.29-.236l-20.13-6.32c-.15-.036-.31-.013-.44.066a.6.6 0 0 0-.27.355l-2.25 7.18-23.38 74.37a.57.57 0 0 0-.04.224.56.56 0 0 0 .05.221c.04.07.08.133.14.185.05.052.12.093.19.12l102.4 32.2a.58.58 0 0 0 .44-.07c.14-.08.23-.21.27-.36l23.19-73.781a.58.58 0 0 0-.02-.448.6.6 0 0 0-.32-.312l-79.6-25a.58.58 0 0 1-.29-.24c-.06-.112-.09-.242-.07-.369z"/><path id="K" d="M952.85 663.803l-52.81-36.84-1.49 2.14 52.81 36.841z"/><path id="L" d="M849.41 703.659l102.4 32.19a.59.59 0 0 0 .24.007c.09-.015.16-.047.23-.093s.13-.105.17-.175a.49.49 0 0 0 .09-.229l14.24-69.77c.04-.138.02-.285-.05-.411-.06-.127-.17-.223-.31-.269l-81.31-25.58a.57.57 0 0 1-.27-.202c-.06-.093-.1-.204-.1-.318l-.33-7.12c0-.114-.04-.225-.1-.318-.07-.092-.16-.163-.27-.202l-18.47-5.8c-.08-.019-.16-.021-.25-.006a.59.59 0 0 0-.22.092c-.07.046-.13.106-.17.175-.05.07-.08.148-.09.229l-15.74 77.11a.56.56 0 0 0 .03.402.62.62 0 0 0 .28.288z"/><path id="M" d="M328.36 761.05c.068-.167.075-.352.018-.523s-.173-.315-.328-.407c-1.783-.876-3.743-1.331-5.73-1.331s-3.947.455-5.73 1.331c-.164.081-.29.224-.349.397a.69.69 0 0 0 .034.528c.081.164.224.29.397.349a.69.69 0 0 0 .528-.034c1.587-.755 3.322-1.146 5.08-1.146s3.493.391 5.08 1.146a.48.48 0 0 0 .3.07.83.83 0 0 0 .7-.38z"/><path id="N" d="M314.35 305.058s14.64 9.94 28.2 12.5c0 0 5.72-4.93 7.64-10.69l1.32 3.25c-1.331 4.984-4.17 9.434-8.13 12.74 0 0-20.54-4.92-29.9-13.84z"/><path id="O" d="M342.11 321.119a1 1 0 1 0 0-2 1 1 0 1 0 0 2z"/><path id="P" d="M152.52 566.609l-4.51 8.16c-.1.19-.24.4-.46.42s-.41-.2-.54-.4l-11.9-18.28 2.74-1.56z"/><path id="Q" d="M1006.4 313.219a1.1 1.1 0 1 0 0-2.2 1.1 1.1 0 1 0 0 2.2z"/><path id="R" d="M165.899 381.005l-51.348 16.714.774 2.377 51.348-16.714z"/><path id="S" d="M146.57 351.898l23 11.05-16.69 5.38c-.241.066-.498.038-.721-.076a1 1 0 0 1-.479-.544z"/></defs><path d="M554.373 350H.627a.78.756 0 0 1-.627-.741.78.756 0 0 1 .627-.741h553.746a.77.77 0 0 1 .449.262.765.741 0 0 1 .178.479.765.741 0 0 1-.627.741z" class="w"/><g fill="#ececec" stroke="#06f"><path d="M96.762 35.33c-2.638 6.124-4.253 12.617-4.783 19.233h-.255l-17.194-.351h-.219v-.494l.173-1.309c.269-2.268.709-4.514 1.316-6.719.995-3.622 2.391-7.129 4.166-10.459a.4.4 0 0 1 .433-.237l16.067.326zm-1.468 43.16h-.28l-15.95-.321a.38.38 0 0 1-.241-.059c-.071-.046-.122-.114-.147-.193a46.88 46.88 0 0 1-3.773-11.976c-.353-1.997-.576-4.013-.668-6.037a1.62 1.62 0 0 0-.041-.203v-.494h.265l17.097.346c.316 0 .301 0 .316.316l.25 4.13a52.62 52.62 0 0 0 .943 6.497 57.65 57.65 0 0 0 2.147 7.747c.051.069.051.148.082.247zm68.158 6.368l-.143.232a47.24 47.24 0 0 1-4.727 5.682c-2.078 2.182-4.379 4.153-6.868 5.884a49.1 49.1 0 0 1-15.96 7.351 51.74 51.74 0 0 1-6.792 1.25l-.668.099h-.393l-.367-.242.433-.287c5.021-3.165 9.44-7.146 13.064-11.768 2.047-2.611 3.857-5.388 5.41-8.3.03-.079.086-.146.161-.189s.162-.06.247-.048l16.317.336z" class="s"/><path d="M147.833 55.685l-22.797-.459.418-19.302c.088-.005.177-.005.265 0l17.535.351c.078-.008.156.01.22.053s.111.106.132.179a52.48 52.48 0 0 1 3.386 11.388 55.4 55.4 0 0 1 .744 6.141z" stroke-width=".577"/><path d="M147.589 60.837l-.097 1.359-.403 3.216-.846 4.407c-.75 3.217-1.808 6.36-3.161 9.387-.022.089-.078.167-.156.218a.39.39 0 0 1-.267.059l-17.948-.371h-.326l.408-18.705z" class="s"/><path d="M120.309 35.932l-.418 19.332-22.262-.455.133-1.443.449-3.231 1.02-4.881c.817-3.251 1.963-6.417 3.421-9.451.055-.157.219-.253.388-.227l16.974.351z" stroke-width=".527"/><path d="M119.804 60.526l-.398 18.176v.277h-.301l-17.489-.351a.37.37 0 0 1-.244-.061.35.35 0 0 1-.144-.201 48.17 48.17 0 0 1-2.82-9.802l-.699-5.202c-.127-1.131-.133-2.283-.189-3.424v-.119c.087-.005.173-.005.26 0l21.737.435c.219-.005.291.044.286.272zm52.208-4.209l-18.683-.38a61.39 61.39 0 0 0-3.936-19.54h.291l17.122.341a.4.4 0 0 1 .245.056c.073.045.128.112.158.191a46.63 46.63 0 0 1 4.028 12.193 50.91 50.91 0 0 1 .76 6.808c.025.104.015.208.015.331z" class="s"/></g><path d="M171.921 61.183l-.092 1.265c-.501 5.43-1.986 10.731-4.385 15.661-.265.558-.556 1.107-.826 1.66a.27.262 0 0 1-.28.168l-17.168-.356h-.184l.648-1.695c1.07-2.855 1.908-5.787 2.504-8.769a59.102 57.265 0 0 0 .943-6.551l.122-1.551c0-.143.051-.208.204-.193a.928.899 0 0 0 .168 0z" class="o"/><g fill="#ececec" stroke="#06f"><path d="M164.099 31.767l-.041.069h-.235l-16.342-.326c-.082.008-.164-.011-.234-.053a.37.37 0 0 1-.153-.179c-2.081-4.251-4.725-8.222-7.863-11.813-1.851-2.075-3.9-3.978-6.119-5.682-1.096-.855-2.233-1.655-3.355-2.47l-.189-.143.229-.143c-.025-.104-.056-.208-.097-.346 6.96.914 13.636 3.271 19.572 6.909s10.992 8.474 14.826 14.177zm-48.44 73.12a2.22 2.22 0 0 1-.474.064c-1.791-.267-3.564-.638-5.308-1.112-7.01-1.883-13.487-5.283-18.943-9.945-2.07-1.748-3.976-3.671-5.696-5.746-1.276-1.576-2.451-3.226-3.518-4.94l-.071-.153h.27l15.215.301c.082-.004.163.017.231.062a.37.37 0 0 1 .146.185c1.515 3.139 3.322 6.137 5.4 8.957 1.922 2.559 4.064 4.956 6.404 7.164a50.09 50.09 0 0 0 6.2 5.039 1.08 1.08 0 0 1 .143.124zm1.825-93.993l-2.34 1.596a56.35 56.35 0 0 0-7.516 6.497c-3.116 3.163-5.795 6.706-7.97 10.538-.133.242-.26.494-.408.726-.028.038-.064.069-.106.093s-.087.04-.134.045h-.831l-14.874-.301c8.531-11.166 19.809-17.756 34.015-19.55l-.102.183zm22.925 73.51c-2.173 3.526-4.772 6.788-7.74 9.718-2.624 2.634-5.563 4.956-8.755 6.917l.367-16.941zm-21.14-.425l-.362 16.615c-6.342-4.412-11.52-10.211-15.113-16.926zm21.783-52.754l-15.486-.311.342-15.81c3.134 2.067 6 4.492 8.536 7.223 2.513 2.738 4.727 5.719 6.608 8.898z" class="s"/><path d="M120.758 15.474l-.337 15.464-14.869-.282c3.77-6.146 8.978-11.347 15.205-15.182z" stroke-width=".751"/></g><path d="M501.894 188.643c9.29-10.721 7.48-24.875 1.586-32.113l-11.631.988c4.966 3.523 7.2 13.028 3.421 17.731s-12.589 6.917-17.336 3.098c-3.727-2.964-6.409-11.398-11.218-10.914-.632-9.995-10.387-18.606-20.717-18.28a19.351 18.749 0 0 0-5.354-6.55c-2.274-1.764-4.926-3.007-7.766-3.636a19.289 18.69 0 0 0-8.622.003 19.56 19.56 0 0 0-7.761 3.642l-.51 37.74s6.889 10.805 20.294 9.422c3.528-.366 6.537-1.141 8.898-3.093a4.304 4.17 0 0 0 1.219 1.028c1.841 1.028 4.212.8 6.119-.128a12.25 12.25 0 0 0 .709-.395c3.829 5.751 11.728 10.998 18.101 12.406 9.285 2.035 24.455-3.888 30.568-10.948z" class="k"/><path opacity=".04" d="M465.743 171.134a.495.479 0 0 1 0-.168l.097-.494.138-.786.127-1.077c.199-2.303-.071-4.62-.79-6.823a16.86 16.86 0 0 0-2.096-4.298 16.419 15.908 0 0 0-3.799-3.997 18.157 17.593 0 0 0-12.064-3.651c-.627 0-1.239.114-1.815.188h-.112l-.036-.099c-1.356-3.783-4.028-6.993-7.552-9.086-.785-.459-1.601-.862-2.447-1.205a21.23 21.23 0 0 0-2.458-.781 19.07 19.07 0 0 0-4.589-.642 15.022 14.555 0 0 0-6.511 1.25 9.06 9.06 0 0 0-.943.445 6.53 6.53 0 0 0-.668.361l-.408.232c-.046.031-.092.055-.143.074 0 0 .041-.035.127-.094l.393-.257a6.909 6.694 0 0 1 .663-.385 10.15 10.15 0 0 1 .938-.464 14.802 14.342 0 0 1 6.557-1.339 19.18 19.18 0 0 1 4.63.618 21.395 20.73 0 0 1 2.488.776c.857.344 1.688.75 2.483 1.215a18.076 17.514 0 0 1 7.684 9.199l-.148-.084a18.178 17.613 0 0 1 7.419.34c2.417.607 4.686 1.692 6.654 3.188a16.41 16.41 0 0 1 3.834 4.071 17.637 17.089 0 0 1 2.085 4.358 18.025 17.465 0 0 1 .714 6.887c-.031.41-.102.771-.153 1.082a7.225 7.001 0 0 1-.163.781l-.122.494a1.045 1.013 0 0 1-.015.173zm6.496 1.21c-.051 0-.117-.43-.418-1.062a5.33 5.33 0 0 0-.658-1.033 6.139 5.948 0 0 0-1.091-1.042c-.413-.294-.857-.54-1.331-.731a5.456 5.286 0 0 0-1.208-.321c-.709-.109-1.163-.054-1.168-.104a.908.879 0 0 1 .316-.069 3.83 3.83 0 0 1 .877 0c.433.04.862.134 1.27.282.5.188.974.44 1.407.751a6.1 6.1 0 0 1 1.127 1.102 4.95 4.95 0 0 1 .632 1.107c.112.263.189.539.229.82.026.188.036.296.015.301zm-1.871 12.87s-.102-.296-.352-.805c-.357-.718-.862-1.36-1.479-1.887a5.747 5.568 0 0 0-3.309-1.413c-1.535-.136-3.07.302-4.283 1.225l-.163.128-.046-.198a8.694 8.424 0 0 0-.683-1.907c-.77-1.57-1.983-2.896-3.503-3.824a9.377 9.086 0 0 0-4.12-1.314 10.025 9.713 0 0 0-2.942.178c-.688.153-1.055.287-1.061.262a.96.96 0 0 1 .26-.114c.255-.097.51-.178.775-.242a9.392 9.1 0 0 1 3.712-.191 9.413 9.12 0 0 1 3.503 1.218c1.57.941 2.825 2.299 3.615 3.913a8.81 8.81 0 0 1 .699 1.976l-.209-.074a6.221 6.027 0 0 1 4.467-1.25c1.27.123 2.468.643 3.406 1.482a5.935 5.751 0 0 1 1.448 1.976c.092.2.163.406.219.618a.693.672 0 0 1 .046.242zm36.774-5.607a2.01 2.01 0 0 1-.102.385l-.362 1.092a23.705 22.968 0 0 1-1.876 3.794c-1.117 1.79-2.447 3.447-3.962 4.94a31.96 30.967 0 0 1-2.82 2.47c-1.055.836-2.157 1.613-3.304 2.327a42.143 40.833 0 0 1-13.125 5.469c-1.407.329-2.845.535-4.293.618h-1.183a2.48 2.48 0 0 1-.413-.035 2.5 2.5 0 0 1 .413 0c.27 0 .668 0 1.173-.049a26.948 26.11 0 0 0 4.263-.697 43.367 42.019 0 0 0 13.018-5.504c1.137-.712 2.238-1.484 3.289-2.312.984-.771 1.922-1.596 2.81-2.47a28.381 27.499 0 0 0 3.972-4.852 24.86 24.86 0 0 0 1.943-3.735c.189-.464.306-.83.408-1.072a2.646 2.564 0 0 1 .153-.371zm-10.494-9.135c.026.22.026.442 0 .662-.056.597-.168 1.189-.326 1.769a11.141 10.795 0 0 1-3.121 5.057c-1.499 1.374-3.365 2.317-5.39 2.724-.607.129-1.224.203-1.841.217a3 3 0 0 1-.678-.03 23.51 23.51 0 0 0 2.478-.361 11.59 11.59 0 0 0 5.252-2.735 11.442 11.086 0 0 0 3.115-4.923c.219-.783.393-1.578.51-2.381z" class="i"/><g transform="matrix(.509895 0 0 .494049 -27.67761 -39.557448)"><use xlink:href="#A" class="l"/><use xlink:href="#A" opacity=".6" class="k"/><g class="l"><path opacity=".4" d="M362.38 178.318h540.43a4.27 4.27 0 0 1 4.29 4.29v29.69H358.11v-29.69a4.29 4.29 0 0 1 1.249-3.026c.801-.804 1.887-1.258 3.021-1.264z"/><use xlink:href="#B"/></g><use xlink:href="#B" opacity=".8" class="k"/><use xlink:href="#C" class="l"/><use xlink:href="#C" opacity=".6" class="k"/></g><path d="M154.253 48.54h275.563a2.177 2.11 0 0 1 2.187 2.119v14.668H152.071V50.66c0-.561.23-1.099.639-1.497a2.187 2.119 0 0 1 1.543-.623z" class="t"/><g transform="matrix(.509895 0 0 .494049 -27.67761 -39.557448)" class="k"><use xlink:href="#D"/><use xlink:href="#D" x="15.42"/><use xlink:href="#D" x="30.83"/><path d="M804.64 342.568H449.48c-7.439 0-13.47 6.031-13.47 13.47v1.42c0 7.44 6.031 13.47 13.47 13.47h355.16a13.47 13.47 0 0 0 13.47-13.47v-1.42c0-7.439-6.03-13.47-13.47-13.47z"/></g><path d="M382.604 129.688h-15.057v14.006h15.057c1.82 0 3.569-.701 4.854-1.949a6.863 6.65 0 0 0 2.014-4.706v-.697a6.863 6.65 0 0 0-2.014-4.706c-1.285-1.248-3.034-1.949-4.854-1.949z" fill="#0055d4"/><path d="M373.156 140.389c-.032-.035-.056-.075-.071-.118s-.021-.09-.018-.136a.362.351 0 0 1 .038-.132c.021-.041.051-.078.088-.108l2.861-2.515a.32.32 0 0 1 .112-.066.321.311 0 0 1 .13-.018c.044.003.087.014.126.034a.321.311 0 0 1 .101.079l.362.42a.34.34 0 0 1 .072.118c.016.043.022.09.02.136s-.015.091-.036.132a.362.351 0 0 1-.087.108l-2.881 2.505a.321.311 0 0 1-.113.064.33.33 0 0 1-.13.016c-.044-.003-.086-.015-.125-.035a.32.32 0 0 1-.101-.08zm6.292-7.928a3.3 3.3 0 0 1 1.02.168 3.16 3.16 0 0 1 1.688 1.338 3.217 3.117 0 0 1 .408 2.078c-.122.717-.505 1.37-1.071 1.843a3.26 3.26 0 0 1-2.045.744 3.35 3.35 0 0 1-1.02-.168 3.182 3.083 0 0 1 1.02-6.003zm0 .835a2.37 2.37 0 0 0-1.493.537 2.325 2.253 0 0 0-.496 2.859c.278.457.713.804 1.229.981a2.54 2.54 0 0 0 .76.124 2.335 2.263 0 0 0 1.351-.417c.393-.272.688-.657.846-1.1a2.11 2.11 0 0 0 .122-.87 2.16 2.16 0 0 0-.229-.849 2.356 2.283 0 0 0-.546-.699 2.31 2.238 0 0 0-.785-.442h0c-.245-.083-.5-.125-.76-.124z" class="k"/><g transform="matrix(.509895 0 0 .494049 -27.67761 -39.557448)"><g class="w"><use xlink:href="#E"/><use xlink:href="#E" x="8.17"/><use xlink:href="#E" x="16.33"/><use xlink:href="#E" x="24.5"/><use xlink:href="#E" x="32.66"/><use xlink:href="#E" x="40.83"/></g><g class="k"><use xlink:href="#F"/><use xlink:href="#G"/><use xlink:href="#G" x="42.23"/><use xlink:href="#F" x="126.69"/><path d="M686.78 278.359h-.01c-5.346 0-9.68 4.334-9.68 9.68v23.8c0 5.346 4.334 9.68 9.68 9.68h.01c5.346 0 9.68-4.334 9.68-9.68v-23.8c0-5.346-4.334-9.68-9.68-9.68zm36.97 14.731h-3.8c-5.346 0-9.68 4.334-9.68 9.68v9.06c0 5.346 4.334 9.68 9.68 9.68h3.8c5.346 0 9.68-4.334 9.68-9.68v-9.06c0-5.346-4.334-9.68-9.68-9.68z"/><use xlink:href="#H"/></g><g class="o"><use xlink:href="#I"/><use xlink:href="#I" y="10.75"/><use xlink:href="#I" y="21.5"/><path d="M685.42 451H580.03v3.18h105.39z"/></g></g><path d="M260.245 163.97h-34.413v24.208h34.413z" class="u"/><path d="M225.832 181.371l10.152-5.607 7.082 3.863 11.141-7.436 6.037 4.719v11.269h-34.352z" fill="#80b3ff"/><path d="M240.583 168.901a2.973 2.88 0 0 1-1.836 2.661 2.973 2.88 0 0 1-1.718.163 3 3 0 0 1-1.522-.789 2.973 2.88 0 0 1-.812-1.476c-.114-.559-.055-1.138.171-1.664a2.973 2.88 0 0 1 1.097-1.291 3.04 3.04 0 0 1 1.653-.483 2.973 2.88 0 0 1 2.968 2.88z" fill="#59f"/><g transform="matrix(.509895 0 0 .494049 -27.67761 -39.557448)"><use xlink:href="#H" y="71" class="k"/><g class="o"><use xlink:href="#I" y="71"/><use xlink:href="#I" y="81.75"/><use xlink:href="#I" y="92.5"/><path d="M685.42 522H580.03v3.18h105.39z"/></g></g><path d="M260.245 199.048h-34.413v24.208h34.413z" class="u"/><path d="M249.245 212.568c.82-3.328-1.299-6.67-4.734-7.465a6.394 6.195 0 0 0-7.704 4.587c-.82 3.328 1.299 6.67 4.734 7.465s6.884-1.259 7.705-4.587z" fill="#f55"/><path d="M245.188 211.153l-1.667.934-1.672.934v-1.868-1.868l1.672.934z" class="u"/><g transform="matrix(.509895 0 0 .494049 -27.67761 -39.557448)"><use xlink:href="#J" class="l"/><use xlink:href="#J" class="i m"/></g><path d="M411.352 291.796l33.057 22.346 29.605-41.115-24.541-16.59-14.155 2.08z" class="o"/><g class="i"><path d="M449.472 256.437l-14.155 2.08 8.51 5.756z" class="m"/><g transform="matrix(.509895 0 0 .494049 -27.67761 -39.557448)" class="m"><path d="M967.91 642.22l-36.05-25.146-1.49 2.141 36.05 25.145zm-3.77 5.408l-36.04-25.146-1.49 2.141 36.04 25.146zm-3.74 5.389l-36.05-25.146-1.49 2.141 36.04 25.145zm-3.78 5.396l-52.81-36.841-1.49 2.141 52.81 36.84z" class="m"/><use xlink:href="#K" class="m"/><use xlink:href="#K" x="-3.75" y="5.383" class="m"/><path d="M945.33 674.594l-52.81-36.84-1.5 2.14 52.81 36.841zm-3.75 5.389l-52.81-36.841-1.5 2.141 52.81 36.84zm-3.77 5.385L885 648.527l-1.49 2.141 52.81 36.84zm-3.77 5.406l-52.81-36.841-1.49 2.141 52.8 36.841zm-3.76 5.391l-52.81-36.841-1.49 2.141 52.81 36.84z" class="m"/><use xlink:href="#K" x="-26.34" y="37.752" class="m"/></g></g><use xlink:href="#L" transform="matrix(.509895 0 0 .494049 -27.67761 -39.557448)" class="l"/><path d="M282.65 310.14l-43.469 9.95a.612.593 0 0 1-.734-.44l-13.257-54.395a.607.588 0 0 1 .072-.444.59.59 0 0 1 .161-.167c.065-.045.138-.078.216-.095l32.567-7.455 14.078 7.954 10.82 44.38a.612.593 0 0 1-.454.711z" class="o"/><path d="M258.205 257.094l14.078 7.954-10.907 2.495a.612.593 0 0 1-.461-.073c-.137-.082-.236-.214-.273-.367z" class="i m"/><path d="M236.699 313.111l45.014-10.302 1.661 6.813a.46.46 0 0 1-.059.355c-.067.106-.176.181-.301.21l-44.071 10.087a.489.474 0 0 1-.189.006.5.5 0 0 1-.177-.064c-.055-.033-.101-.075-.138-.125a.489.474 0 0 1-.078-.167z" fill="#06f"/><path d="M255.238 295.368l-2.249-.074-.586-18.64 2.249.074zm-6.037-2.124l-9.219-3.775 6.338-7.885 1.774 1.339-4.538 5.647 6.522 2.663zm12.09-2.767l-1.713-1.418 4.599-5.213-6.659-3.077.969-1.966 9.306 4.303z" class="k"/><g transform="matrix(.509895 0 0 .494049 -27.67761 -39.557448)"><use xlink:href="#J" class="l"/><use xlink:href="#J" opacity=".862" fill="#0055d4"/><use xlink:href="#L" class="t"/></g><path d="M130.726 321.275l13.533-.039-2.116 18.774h-11.452z" class="n"/><path d="M130.726 340.124l.041-13.3 12.905-.039-.199 1.596-8.235 1.215a1.65 1.65 0 0 0-.982.494c-.258.27-.41.62-.43.988l-.275 5.775z" class="i p"/><path d="M130.446 335.83l-.041 1.102a8.668 8.399 0 0 1-.51 2.737l-1.412 3.839a10.657 10.326 0 0 0-.586 3.379v.193a1.458 1.413 0 0 0 .47.992c.142.127.31.225.491.289a1.468 1.423 0 0 0 .569.082h14.078c.389.012.766-.124 1.052-.379a1.484 1.438 0 0 0 .477-.985v-.494a10.04 9.728 0 0 0-.469-2.93l-1.219-3.913a8.046 7.796 0 0 1-.393-2.47v-1.443a3.676 3.562 0 0 0-1.02-2.436l-.194-.227c-1.293-1.275-3.054-2.002-4.899-2.024a6.986 6.768 0 0 0-4.947 1.91l-.352.341a3.76 3.76 0 0 0-1.096 2.436z" fill="#06f"/><path opacity=".6" d="M127.896 346.013h17.097a2.906 2.816 0 0 1 .041.573v.494a1.458 1.413 0 0 1-.47.992 1.458 1.413 0 0 1-1.06.372h-14.078c-.389.012-.766-.124-1.052-.379a1.484 1.438 0 0 1-.477-.985z" class="i"/><g transform="matrix(.509895 0 0 .494049 -27.67761 -39.557448)" class="k"><use xlink:href="#M"/><path d="M328.36 764.589a.75.75 0 0 0-.31-.93c-1.783-.876-3.743-1.331-5.73-1.331s-3.947.455-5.73 1.331a.68.68 0 0 0-.353.399.67.67 0 0 0-.032.27.68.68 0 0 0 .075.261c.038.082.093.156.161.216a.66.66 0 0 0 .502.164.66.66 0 0 0 .257-.08c1.587-.755 3.323-1.147 5.08-1.147s3.493.392 5.08 1.147c.07.08.23.08.3.08a.83.83 0 0 0 .399-.099.82.82 0 0 0 .301-.281z"/><use xlink:href="#M" y="7"/></g><path d="M171.916 322.145l13.288-.035.337 7.411a6.496 6.294 0 0 0 .779 2.729 6.36 6.36 0 0 0 1.934 2.123l9.744 6.744-24.424-.583z" class="n"/><path d="M180.645 337.55l3.503 1.349-10.652 1.131-1.168-12.544h13.023l.077 1.482-7.791 1.097c-.404.057-.77.263-1.023.575a1.596 1.546 0 0 0-.333 1.1v.148a6.63 6.63 0 0 0 1.357 3.428c.77.999 1.811 1.773 3.007 2.234z" class="i p"/><path d="M173.308 335.327l5.196 1.566a2.31 2.238 0 0 0 2.182-.435l4.079-3.394c.447-.374 1.015-.586 1.605-.599a2.549 2.47 0 0 1 1.633.525l9.26 6.966 7.302 2.337c1.05.34 1.963.991 2.611 1.861s.999 1.913 1.004 2.986a1.173 1.136 0 0 1-1.168 1.131h-32.348c-.366.001-.729-.068-1.067-.203a2.789 2.702 0 0 1-1.508-1.461c-.139-.328-.211-.679-.209-1.034v-9.229a1.112 1.077 0 0 1 .123-.478 1.09 1.09 0 0 1 .33-.375c.138-.099.298-.165.468-.194s.343-.019.507.029z" fill="#06f"/><path opacity=".6" d="M171.916 346.008h36.131c.108.368.16.749.153 1.131a1.173 1.136 0 0 1-1.168 1.131h-32.368a2.789 2.702 0 0 1-2.748-2.263z" class="i"/><path d="M188.064 336.601l1.953-2.04a.28.28 0 0 0 .086-.2.28.28 0 0 0-.086-.2.291.282 0 0 0-.207-.083c-.077 0-.152.03-.207.083l-1.958 2.04a.296.287 0 0 0 0 .4.291.282 0 0 0 .189.074c.082-.006.16-.032.229-.074zm1.53 1.165l1.958-2.04a.28.28 0 0 0 .086-.2.28.28 0 0 0-.086-.2.291.282 0 0 0-.207-.082c-.077 0-.152.03-.207.082l-1.958 2.04a.296.287 0 0 0-.084.2.28.28 0 0 0 .084.2c.05.048.118.075.189.074a.505.489 0 0 0 .224-.074zm1.555 1.176l1.958-2.045a.28.28 0 0 0 .084-.2.296.287 0 0 0-.084-.201.301.291 0 0 0-.418 0l-1.953 2.04c-.054.054-.085.127-.085.203a.301.291 0 0 0 .085.202.291.282 0 0 0 .189.07.34.34 0 0 0 .224-.07z" class="k"/><path d="M180.518 192.373l6.073 135.093h-14.843l-13.079-108.577a1.53 1.482 0 0 0-1.53-1.309 1.53 1.482 0 0 0-1.504 1.339L144.59 327.466h-14.654l1.861-131.481z" fill="#4d4d4d"/><path d="M137.202 195.585l-3.982 131.881h-3.294l1.861-131.481zm19.962 22.005a1.53 1.482 0 0 1 1.53 1.309l13.053 108.567h4.079l-12.375-107.095c-.617-4.323-6.287-2.781-6.287-2.781z" class="i j"/><path d="M192.714 107.698L169.32 90.031l5.996-6.151s29.63 14.135 36.136 23.818l-6.654 4.847zm-86.463 75.831l9.851 26.58 7.266-1.971-3.936-26.861z" class="n"/><path d="M151.087 113.656l14.415-.089s8.668-2.134 12.299-2.574l14.914-3.31s13.584 2.623 18.728 0c0 0 2.962 7.045-4.793 10.78l-31.333 15.177 1.361 8.794s4.701 34.964 5.869 64.567a.62.62 0 0 1-.168.45.66.66 0 0 1-.444.208l-50.908 3.661a.658.637 0 0 1-.259-.033.653.632 0 0 1-.225-.127.663.642 0 0 1-.157-.202.673.652 0 0 1-.063-.246l-2.182-46.302-7.256-16.704-2.269 20.656 1.815 12.746-15.231 2.604-3.432-13.774c-.259-1.044-.343-2.121-.25-3.192l3.024-35.305s0-8.794 6.353-11.857l22.063-6.699z" class="l"/><g class="i"><path d="M144.59 327.467l.214-2.411h-14.823l-.056 2.411zm26.902-2.411h14.981l.117 2.411h-14.828z" class="j"/><path d="M155.512 91.542c1.379-.163 2.634-.85 3.49-1.91a4.96 4.96 0 0 0 1.074-3.742c-.168-1.336-.877-2.552-1.971-3.382s-2.483-1.203-3.862-1.04c-.158 0-.586-.054-.51.094 1.514 4.298.622 10.069 1.78 9.98z"/></g><path d="M132.96 112.881c0 .257 9.979 6.467 14.45 5.598 2.269-.44 3.727-4.555 3.676-4.807l-1.224-6.813v-3.532c.209-.815 1.214-1.586 1.214-2.663.316-4.965.897-9.471.897-9.471s-16.75-10.869-17.806 1.793l-.423 1.843z" class="n"/><path d="M139.384 105.752c1.214 1.186 2.738 2.184 5.721 2.362 2.284 1.309 3.712 1.304 5.028 1.151l-.388-2.796c-1.428 1.482-7.429 1.868-9.968-1.112-.061-.094-.275-.079-.372 0a.433.42 0 0 0-.061.195c-.004.069.01.137.041.2z" class="i p"/><path d="M153.284 75.689s8.444 29.282-5.609 31.827c-12.166 2.194-14.512-16.269-14.512-16.269l-.051-12.015 9.255-4.11z" class="n"/><g class="i"><path d="M149.822 83.105c-1.586-1.828-4.079-3.068-6.598-2.821-2.84.277-4.971 2.653-4.441 5.85l.112.706c.108.67-.357 1.3-1.045 1.418h0c-.311.03-.613.12-.888.263a2.35 2.35 0 0 0-.715.574 2.28 2.28 0 0 0-.433.796 2.23 2.23 0 0 0-.084.896l.229 2.09c.009.122-.033.242-.115.334s-.198.15-.324.16c0 0-.622.148-.77-.351l-.51-2.223 1.152-12.845 10.616-3.607 4.844 3.364z"/><path d="M133.347 93.864s.765 2.446 1.361 1.319l-.908 2.199z" class="p"/></g><path d="M150.368 100.812l-5.741-.835a2.815 2.727 0 0 0 2.34 2.594c2.738.455 3.401-1.759 3.401-1.759z" class="k"/><path d="M144.075 90.436a1.18 1.18 0 0 0-.628.241 1.163 1.126 0 0 0-.383.538 1.157 1.121 0 0 0-.01.654 1.12 1.12 0 0 0 .367.549 1.163 1.126 0 0 0 .62.259c.228.025.459-.016.664-.119a1.163 1.126 0 0 0 .484-.456 1.1 1.1 0 0 0 .141-.64c-.026-.297-.172-.573-.408-.765a1.163 1.126 0 0 0-.846-.262z" class="i"/><path d="M144.699 91.408a.209.203 0 0 0-.034-.404.209.203 0 1 0 .034.404z" class="k"/><path d="M153.203 92.284a1.163 1.126 0 0 0 0-2.253 1.163 1.126 0 0 0 0 2.253z" class="i"/><path d="M153.672 90.952a.209.203 0 0 0 .191-.218.209.203 0 0 0-.225-.185.209.203 0 0 0-.191.218.209.203 0 0 0 .225.186z" class="k"/><g class="i"><path opacity=".25" d="M149.613 97.659l-1.474.163c-.086-.004-.17-.032-.24-.081s-.123-.117-.153-.196c.012-.169.123-.317.286-.38l1.474-.168c.355-.053.607-.364.576-.711-.087-.356-.428-.637-.739-.558-.175-.012-.327-.119-.393-.277-.066-.148.133-.321.286-.385.734-.078 1.405.411 1.53 1.117a1.25 1.25 0 0 1-.021.514 1.26 1.26 0 0 1-.228.464c-.108.138-.243.253-.398.339a1.35 1.35 0 0 1-.504.16z"/><path d="M129.737 83.198c.153-3.251 1.688-5.785 4.533-6.625 1.205-.332 2.474-.379 3.702-.138.111.026.226.03.338.011a.85.85 0 0 0 .315-.12c.096-.06.177-.138.241-.23s.106-.195.126-.304c.185-1.082.736-2.074 1.567-2.819s1.894-1.202 3.022-1.296a5.08 5.08 0 0 1 2.323.336 4.93 4.93 0 0 1 1.899 1.338c.147.178.367.286.602.295a.84.84 0 0 0 .341-.055.82.82 0 0 0 .287-.186s3.151-2.865 7.796-.563a7.05 7.05 0 0 1 3.351 3.824 6.78 6.78 0 0 1-.159 5.014c-1.504 3.562-6.052 4.94-9.117 2.569-1.293-1.058-2.12-2.555-2.31-4.185a8 8 0 0 1 .031-3.394l-1.474.119c-1.744.035-4.507-.059-7.062.494.061.044.112.04.168.089l-4.456 1.843s-.439 11.857-1.183 11.803c-3.248-.4-5.058-4.881-4.88-7.821z"/><path opacity=".16" d="M120.89 139.348c-.055-.001-.108-.021-.149-.056s-.068-.084-.075-.137a17.61 17.61 0 0 0-2.332-6.759c-1.234-2.079-2.886-3.899-4.857-5.351-.025-.016-.046-.037-.063-.06s-.028-.051-.034-.079a.21.21 0 0 1-.001-.085c.006-.028.017-.055.034-.079s.038-.044.062-.061a.23.23 0 0 1 .082-.033c.029-.006.059-.006.088 0s.057.017.082.033c2.026 1.487 3.723 3.352 4.992 5.485s2.083 4.491 2.396 6.935c.004.029.001.057-.007.085a.2.2 0 0 1-.04.076c-.018.023-.041.042-.067.055s-.055.023-.084.026z"/><path d="M131.017 211.32l6.185-.42-1.02-15.316-2.04-29.109c-.215-2.038-.784-4.025-1.683-5.879l-10.427-21.461-1.815-3.952.408 1.383a21.04 21.04 0 0 1 .54 9.654l-.265 1.482 7.256 16.704 2.182 46.302c.003.083.022.166.058.242s.087.144.149.202a.66.66 0 0 0 .218.13c.081.029.167.042.253.039zm44.3-77.68l31.343-15.162c7.756-3.735 4.793-10.78 4.793-10.78a8.79 8.79 0 0 1-2.111.711h0c.913 5.978-9.866 10.064-9.866 10.064l-26.005 9.446z" class="j"/><path opacity=".16" d="M175.317 133.863c-.049-.001-.096-.016-.136-.045s-.069-.068-.084-.113c0-.079-2.498-8.132-3.386-9.851-.017-.026-.029-.056-.034-.086a.21.21 0 0 1 .049-.175c.02-.024.046-.044.074-.058s.061-.022.093-.023.065.004.094.015a.23.23 0 0 1 .08.051c.022.022.04.049.051.079.903 1.754 3.314 9.589 3.416 9.925.033.116-.035.236-.153.272zm-23.277 42.463a.23.23 0 0 1-.139-.045c-.04-.029-.068-.071-.081-.118-.03-.116.04-.233.158-.267.097-.025 9.469-2.544 13.864-10.375.03-.051.079-.088.137-.105s.12-.011.174.016.089.078.107.133.012.116-.015.168c-4.497 8.009-14.053 10.573-14.15 10.597zm-38.421-7.741c-.045 0-.088-.012-.125-.036a.22.22 0 0 1-.084-.098c-.046-.113.008-.242.122-.291 1.647-.677 4.997-.04 5.14 0 .029.006.057.017.082.034s.045.037.062.061.028.051.033.08c.012.057-.001.116-.035.165-.016.024-.038.044-.063.06a.23.23 0 0 1-.082.032c-.029.005-.059.005-.088-.001-.031 0-3.35-.637-4.869 0-.031.005-.062.004-.092-.005z"/></g><path opacity=".5" d="M146.9 118.972s5.522 13.952 7.026 20.375" stroke-width="2.812" class="q r"/><path opacity=".1" d="M147.864 85.075s-1.469 3.74 7.648 2.53l-.204-1.561-3.37-1.848z" class="i"/><g fill="#21252b"><path d="M171.615 210.821c-4.615-1.564-9.605-1.766-14.339-.582s-8.999 3.702-12.256 7.235c-6.66 7.224-8.174 17.625-3.834 26.352 2.122 4.268 5.503 7.83 9.714 10.236s9.064 3.548 13.946 3.282 9.572-1.929 13.478-4.778c6.596-4.811 10.278-12.495 9.813-20.482-.368-6.343-3.322-12.284-8.212-16.516-2.421-2.096-5.245-3.709-8.309-4.747zm-15.047 41.693c-7.966-2.698-13.471-9.781-13.946-17.945-.233-3.992.762-7.962 2.858-11.406s5.198-6.21 8.916-7.945a21.46 21.46 0 0 1 11.97-1.806c4.086.558 7.91 2.278 10.988 4.941s5.271 6.152 6.303 10.023c2.488 9.338-2.178 19.08-11.145 23.266a21.48 21.48 0 0 1-15.943.872z"/><path d="M109.441 210.742l32.828 11.166-1.796 4.955-32.827-11.166c-.225-.077-.432-.195-.609-.349s-.322-.34-.425-.548a1.72 1.72 0 0 1-.176-.664c-.013-.23.021-.461.099-.679l.594-1.639c.332-.915 1.367-1.397 2.312-1.076z"/></g><path d="M163.451 254.746c12.151 0 22.002-9.545 22.002-21.318s-9.851-21.318-22.002-21.318-22.002 9.545-22.002 21.318 9.851 21.318 22.002 21.318z" class="i j"/><path d="M142.587 233.429l29.671-18.24s7.368 3.498 10.545 10.533l-36.835 18.581s-3.666-5.36-3.381-10.874zm6.185 14.268l35.555-17.267s.26 4.975-.867 8.483l-29.248 12.737c-.112.099-3.855-2.208-5.441-3.952z" class="j k"/><path d="M168.275 81.143l-2.136-.588-5.558-1.63-4.89.8a.51.494 0 0 0-.273.233.48.48 0 0 0-.043.35c.143.529.51 1.304 1.57.949l-3.625.262a.642.623 0 0 0-.561.469l-.087.321c-.127.494 1.178.988 1.723.988h.286l-3.217.128a.566.548 0 0 0-.202.113.571.553 0 0 0-.139.181.53.53 0 0 0-.053.22c-.002.076.013.152.042.222.168.4.393.874.551.929s-2.274.296-3.207.375a.31.31 0 0 0-.133.04c-.041.023-.075.055-.1.094s-.042.082-.047.127a.28.28 0 0 0 .016.134c.199.548.923 1.507 3.534 1.482 3.646-.04 5.022-.637 5.022-.637l2.906.751-.143 1.695-3.952-.059.178 2.149c.581.267 5.099.751 5.099.751s6.119.089 7.756-.682l2.85-1.398 4.533-5.716z" class="n"/><path d="M160.122 86.859s3.166-1.784 4.523-3.982m-8.842 6.374l5.558.099s2.437-2.594 5.017-2.006m-14.405-1.971s3.809-.074 5.293-1.062c0 0 .806.988 2.855.919m-5.456-1.912a22.405 21.709 0 0 0 3.855-.657 5.46 5.46 0 0 0 3.115 1.22m-5.13-2.455c1.17.045 2.336-.138 3.432-.539l2.447 1.097" stroke-width=".336" class="p q r x"/><path d="M123.2 207.941l3.345 5.533 2.091 4.763-3.156-.761s-1.351 6.255-1.882 6.423-2.04-.346-1.892-1.546c-.222.211-.491.371-.786.465s-.609.124-.917.083c-.948-.193-1.178-.786-1.071-1.927 0 0-.449.865-1.764.326-.801-.326-.602-1.482-.602-1.482s-1.438.119-1.637-.603c-.207-1.182-.233-2.388-.076-3.577l.857-4.002.326-2.584z" class="n"/><path d="M116.567 219.812a11.63 11.63 0 0 0 .474-2.47m1.846 3.572c.309-.939.509-1.909.597-2.89m2.223 4.322a20.92 20.92 0 0 0 .709-3.611" stroke-width=".331" class="p q r x"/><g class="i"><path d="M109.056 183.051l7.985 26.422-1.53 6.462v3.765s-.612.198-.673-1.285l-.056-2.08.173-1.097 1.02-5.464-9.719-26.244z" class="p"/><path d="M104.543 131.442l-3.034 35.3c-.093 1.07-.009 2.147.25 3.191l3.426 13.774 3.87-.662-4.079-14.466 2.973-40.877s.143-5.286 3.702-8.354l-.75.227c-6.358 3.078-6.358 11.868-6.358 11.868z" class="j"/><path d="M156.486 88.495h-4.966-.688-4.334-5.655a1.67 1.67 0 0 0-1.161.461c-.309.296-.484.699-.486 1.12v1.225a4.26 4.26 0 0 0 1.308 3.061c.838.811 1.974 1.267 3.158 1.267s2.321-.456 3.158-1.267a4.26 4.26 0 0 0 1.308-3.061v-1.23c.011-.175-.014-.35-.074-.515s-.152-.318-.273-.448h1.749a1.33 1.33 0 0 0-.274.46 1.29 1.29 0 0 0-.067.528v1.23a4.26 4.26 0 0 0 1.308 3.061c.838.811 1.974 1.267 3.158 1.267s2.321-.456 3.158-1.267a4.26 4.26 0 0 0 1.308-3.061v-1.23c-.02-.416-.198-.81-.5-1.106s-.708-.472-1.137-.495zm-8.938 1.625v1.23a3.64 3.64 0 0 1-1.163 2.522c-.71.663-1.658 1.034-2.644 1.034s-1.934-.371-2.644-1.034a3.64 3.64 0 0 1-1.163-2.522v-1.23a.97.97 0 0 1 .298-.66c.181-.176.425-.279.681-.289h5.655c.249.029.481.139.658.311a1.07 1.07 0 0 1 .321.638zm9.923 1.265c-.075 1.984-1.757 3.556-3.806 3.556-.986 0-1.934-.371-2.644-1.034a3.64 3.64 0 0 1-1.163-2.522v-1.23c.005-.52.438-.941.974-.949h.688 4.966c.258.002.505.103.687.279s.288.415.292.664z"/></g><g transform="matrix(.509895 0 0 .494049 -27.67761 -39.557448)"><use xlink:href="#N" class="l"/><g class="i"><use xlink:href="#N" opacity=".5"/><path opacity=".5" d="M259.39 446.988l30.41-5 .65 4.66-29.88 5.27zm210.5-144.98l-.93-3.95c-10.09 5.31-36.73 0-36.73 0l-5.12 1.06c13.626 5.33 28.561 6.339 42.78 2.89z"/></g><g class="k"><use xlink:href="#O"/><use xlink:href="#O" x="5" y="14"/><use xlink:href="#O" x="9" y="26"/><use xlink:href="#O" x="13" y="37"/></g></g><path d="M170.289 90.767l4.11-7.198 2.218.949-4.666 7.5z" fill="#21252b"/><path opacity=".7" d="M148.165 105.258c-1.682-.426-3.417-.621-5.155-.578-1.086 0-2.009-.548-2.861-1.205-4.094-3.157-4.604-13.532-4.604-13.532l-.78 5.598c1.29 6.26 4.859 13.433 12.916 11.981 3.105-.563 5.099-2.436 6.353-5l.648-1.863c-.724 1.45-1.748 2.74-3.008 3.789a3.78 3.78 0 0 1-1.646.841 3.743 3.626 0 0 1-1.862-.031z" class="i"/><path d="M134.158 89.785a2.162 2.095 0 0 0-.447-.796 2.15 2.15 0 0 0-.752-.539 2.157 2.09 0 0 0-.916-.181c-.315.005-.626.077-.909.211-2.672.988-1.749 6.304 1.989 7.243 2.3.277 1.871-1.023 1.565-2.796z" class="n"/><g class="i"><path opacity=".25" d="M130.956 89.986a1.51 1.51 0 0 1 .621-.278 1.54 1.54 0 0 1 .684.021c.208.064.4.167.566.304s.303.304.402.492a2.65 2.65 0 0 1 .342 1.566l.041.459c.008.041.005.082-.007.122s-.034.076-.063.106-.066.053-.106.067-.083.018-.125.013a.28.28 0 0 1-.118-.043c-.035-.023-.064-.055-.084-.091s-.032-.077-.033-.118.008-.082.026-.12l-.041-.459a3.41 3.41 0 0 0-.265-1.314c-.143-.249-.365-.446-.632-.563-.291-.04-.586.02-.836.168-.063.028-.133.036-.201.023s-.13-.047-.176-.097c-.143.01-.102-.148.005-.257z"/><path opacity=".7" d="M144.096 99.053c.872-.494 3.738-.296 3.738-.296s2.825.539 3.528 1.23c.201.174.345.402.413.656a1.29 1.29 0 0 1-.031.767s-.286-.944-.867-.904c-.291 0-2.549-.104-3.059-.711-.062-.075-.174-.09-.255-.035-.637.45-2.85-.059-3.141-.084-.449-.035-1.066.553-1.066.553a1.16 1.16 0 0 1 .176-.702 1.22 1.22 0 0 1 .563-.474z"/></g><path d="M59.407 292.414c-2.901-40.319-6.119-42.982-6.241-43.076l.199-.366c.143.064 3.498 2.055 6.471 43.412zm2.998-.005h-.428c1.907-29.455-.168-45.517-.189-45.675l.428-.054c0 .158 2.101 16.254.189 45.754m2.616.855c-2.315-18.369 3.569-32.36 3.641-32.499l.398.158c-.061.138-5.91 14.036-3.61 32.291zm2.417 2.243c-.966-6.558-.915-13.219.153-19.762l.423.079a63.81 63.81 0 0 0-.153 19.614z" fill="#3f4249"/><path d="M68.749 261.12l1.871-.153c1.326-.104 2.613-.485 3.773-1.117a14.42 14.42 0 0 1 1.759-.86c2.31-.899 4.89-.736 7.378-.86a31.37 31.37 0 0 0 11.728-2.905c.213-.096.391-.253.51-.45.382-.677-.331-1.285-.943-1.65-3.151-1.882-6.358-3.784-9.933-4.718s-7.623-.776-10.672 1.255c-3.569 2.386-4.885 7.287-5.486 11.457" class="v"/><g class="i"><path d="M95.814 254.554a2.41 2.41 0 0 1-.316-.143l-.887-.45-3.274-1.62c-1.628-.775-3.324-1.409-5.068-1.892a17.24 17.24 0 0 0-6.567-.494c-2.203.233-4.287 1.092-5.986 2.47-1.325 1.193-2.385 2.636-3.115 4.239-.658 1.359-1.061 2.515-1.356 3.305l-.331.914a3.08 3.08 0 0 1-.133.316 1.52 1.52 0 0 1 .082-.331l.291-.929a29.19 29.19 0 0 1 1.29-3.345c.72-1.639 1.782-3.116 3.121-4.338 1.73-1.427 3.861-2.32 6.119-2.564 2.235-.257 4.5-.072 6.659.543 1.759.494 3.466 1.147 5.099 1.951l3.243 1.69.862.494a1.46 1.46 0 0 1 .296.188" class="j"/><path d="M91.322 256.891c-.036.054-2.483-1.482-5.461-3.424l-5.323-3.621c.036-.054 2.483 1.482 5.461 3.424l5.323 3.621zm-2.606-7.174a9.75 9.75 0 0 1-3.6.287 12.93 12.93 0 0 1 1.795-.173c.598-.081 1.201-.119 1.805-.114m-10.708-1.348c-.2.443-.47.853-.801 1.215a5.5 5.5 0 0 1-1.02 1.117c.198-.444.468-.855.801-1.215a5.21 5.21 0 0 1 1.02-1.117m2.193 9.916c-.414-.166-.809-.373-1.178-.618l-2.682-1.739-2.549-1.897a7.11 7.11 0 0 1-1.02-.84c.398.198.774.434 1.122.706l2.606 1.833 2.631 1.793a7.81 7.81 0 0 1 1.081.761" class="j"/></g><g fill="#61656d"><path d="M73.812 318.672H55.303l-3.447-24.609h25.398z"/><path d="M79.405 297.818H49.704l-.428-5.42h30.563z"/></g><g class="i"><path d="M52.381 297.818h24.347l-2.917 20.854-2.927-.193 1.632-18.991-19.947-.326z" class="m"/><path d="M73.047 292.438l-.862 5.38h7.22l.433-5.42z" class="m"/></g><path opacity=".008" d="M75.535 304.014H53.513v.415h22.022zm0 1.669H53.513v.415h22.022z" class="k"/><path d="M53.671 249.144c-1.785-1.309-3.666-1.566-5.899-1.482-2.238.143-4.429.692-6.46 1.616-3.493 1.482-6.776 3.666-8.862 6.759s-2.815 7.183-1.249 10.553a1.53 1.482 0 0 0 .709.835 1.667 1.616 0 0 0 1.168-.089c3.972-1.255 7.975-2.525 11.626-4.491s6.975-4.698 8.938-8.275c.505-.843.824-1.779.938-2.747.054-.484.001-.973-.156-1.436s-.413-.887-.752-1.246" class="v"/><g class="i"><path d="M53.707 248.74c-.092.05-.189.088-.291.114l-.831.277-.602.198-.704.262-1.703.687-.974.43-1.02.494c-.719.341-1.448.781-2.223 1.22-1.655 1.011-3.228 2.142-4.706 3.384a37.31 37.31 0 0 0-4.079 4.091l-1.53 1.976-.653.924-.566.884c-.372.553-.648 1.087-.918 1.546l-.362.642-.275.553-.388.766c-.042.092-.093.18-.153.262a1.73 1.73 0 0 1 .107-.282l.347-.786.26-.563.342-.657.887-1.571.556-.894.648-.939c.439-.657.979-1.309 1.53-2.011 2.469-2.982 5.454-5.526 8.821-7.519.785-.44 1.53-.874 2.249-1.21.362-.173.704-.356 1.045-.494l.989-.42c.622-.282 1.214-.464 1.718-.652l.719-.247.607-.178.852-.232c.098-.033.198-.056.301-.069m-13.92 7.316a41.92 41.92 0 0 1-4.334 1.354c-1.446.454-2.916.828-4.405 1.121 1.419-.525 2.866-.977 4.334-1.354a43.04 43.04 0 0 1 4.405-1.121" class="j"/><path d="M39.608 265.33a6.48 6.48 0 0 1-.097-1.309v-3.162l.173-3.157c.016-.437.072-.872.168-1.299a7.02 7.02 0 0 1 0 1.309l-.097 3.157-.082 3.152a7.45 7.45 0 0 1-.082 1.309m8.209-4.067c-.071 0-.291-2.268-.51-5.074l-.24-5.089c.066-.005.286 2.268.51 5.074l.24 5.089z" class="j"/><path d="M37.604 250.879c.46-.054.924-.067 1.387-.04l3.345.074 3.34.138a7.59 7.59 0 0 1 1.387.133c-.46.05-.924.064-1.387.04-.857 0-2.04-.03-3.35-.074l-3.34-.143a7.76 7.76 0 0 1-1.382-.128" class="j"/></g><g transform="matrix(.509895 0 0 .494049 -27.67761 -39.557448)"><use xlink:href="#P" class="l"/><use xlink:href="#P" class="v"/></g><path d="M62.406 247.638l-20.712-11.857c-.214-.124-.444-.262-.51-.494s.148-.583.367-.805c1.424-1.432 3.15-2.55 5.061-3.277a14.277 13.833 0 0 1 6.009-.937 12.666 12.272 0 0 1 5.776 1.825c1.744 1.054 3.197 2.503 4.233 4.222 1.999 3.458 2.065 8.038-.229 11.324" fill="#87deaa"/><g class="i"><path d="M44.676 232.016a1.04 1.04 0 0 1 .27-.035l.785-.035a15.79 15.79 0 0 1 2.876.217c3.16.515 6.102 1.896 8.478 3.98s4.086 4.783 4.928 7.779c.258.898.429 1.818.51 2.747.036.331 0 .415.031.588-.016.155-.071.304-.158.435.061-.326.071-.659.031-.988a17.04 17.04 0 0 0-.586-2.712c-1.036-3.385-3.155-6.364-6.05-8.508s-6.419-3.341-10.062-3.419h-1.055" class="j"/><path d="M59.601 239.466c-.328.193-.679.347-1.045.459l-2.616.889-2.662.736a5.21 5.21 0 0 1-1.132.208c.346-.16.708-.285 1.081-.371l2.641-.8 2.631-.82a5.43 5.43 0 0 1 1.101-.301m-3.258-8.492a8.26 8.26 0 0 1 .245 2.238c.059.751.016 1.507-.127 2.248-.103-.742-.144-1.49-.122-2.238-.063-.748-.063-1.5 0-2.248m-14.828 4.599c.484-.21.988-.375 1.504-.494l3.717-.988 3.763-.771a10.18 10.18 0 0 1 1.581-.208c-.5.161-1.011.287-1.53.375l-3.743.835-3.722.909a12.73 12.73 0 0 1-1.555.351" class="j"/></g><path d="M71.058 270.067c-1.785-.459-3.906 1.225-4.278 2.964s.311 3.542 1.106 5.158c1.695 3.623 4.216 6.828 7.373 9.372 3.183 2.535 7.158 3.953 11.279 4.022-.755-3.389.199-6.917-.219-10.375-.368-3.04-1.79-5.868-4.033-8.023a13.941 13.507 0 0 0-8.316-3.834c-1.137-.119-2.458-.291-2.912.726" fill="#87deaa"/><g class="i"><path d="M86.539 291.569a.94.94 0 0 1-.255-.114 4.76 4.76 0 0 1-.668-.435c-.745-.631-1.345-1.407-1.759-2.278l-.913-1.759-.938-2.055c-.346-.755-.739-1.49-1.178-2.199-.485-.752-1.028-1.468-1.627-2.139-1.219-1.388-2.549-2.589-3.666-3.74-1.028-1.003-1.963-2.09-2.794-3.251a11.66 11.66 0 0 1-1.367-2.525 7.19 7.19 0 0 1-.24-.741c-.028-.087-.047-.176-.056-.267.025 0 .127.351.388.988a13.1 13.1 0 0 0 1.418 2.47c.85 1.134 1.791 2.201 2.815 3.192l3.692 3.74a16.59 16.59 0 0 1 1.642 2.169c.442.718.837 1.462 1.183 2.228l.938 2.065.882 1.764a7.01 7.01 0 0 0 1.662 2.287c.51.435.877.598.862.618m-9.244-2.836a5.27 5.27 0 0 1 .163-1.166l.678-2.752.908-2.693a4.84 4.84 0 0 1 .484-1.072c-.067.385-.175.763-.321 1.126l-.831 2.702-.744 2.727c-.076.385-.189.762-.337 1.126" class="j"/><path d="M86.202 280.422c-.428-.056-.849-.15-1.259-.282l-3.008-.716-3.059-.603a7.71 7.71 0 0 1-1.259-.267 6.1 6.1 0 0 1 1.29.099l3.059.534 3.003.79a6.14 6.14 0 0 1 1.208.445m-15.48 2.421a6.93 6.93 0 0 1 .194-1.349l.739-3.196.969-3.142a7.04 7.04 0 0 1 .51-1.265 7.87 7.87 0 0 1-.342 1.314l-.897 3.152-.806 3.172c-.083.448-.206.887-.367 1.314m11.411-9.678c0 .064-2.233-.109-4.971-.39a50.24 50.24 0 0 1-4.946-.632c0-.064 2.233.109 4.971.39a49.8 49.8 0 0 1 4.946.632z" class="j"/></g><path d="M62.268 252.979c-.153-1.571-1.795-2.762-3.426-2.777a5.52 5.52 0 0 0-2.331.627c-.718.377-1.338.908-1.814 1.552a12.941 12.539 0 0 0-1.999 4.298c-1.096 3.705-1.698 7.603-1.229 11.432s2.075 7.598 4.91 10.306c.459.44 1.061.879 1.693.746.341-.098.649-.282.892-.534a26.418 25.597 0 0 0 6.454-8.828c1.477-3.355 2.198-6.976 2.112-10.623-.046-1.457-.24-2.964-1.076-4.185s-2.769-2.505-4.186-2.016" class="v"/><g class="i"><path d="M57.266 278.945c-.016-.089-.027-.18-.031-.272l-.036-.771v-2.846l.255-4.209.729-5.118 1.178-5.044 1.295-4.031 1.045-2.663.316-.716c.034-.083.074-.165.122-.242a1.06 1.06 0 0 1-.076.262l-.27.726-.974 2.683-1.234 4.041-1.157 5.029-.744 5.099-.311 4.194-.066 2.836v.771c.012.09.012.182 0 .272" class="j"/><path d="M58.362 265.824a5.86 5.86 0 0 1-.826.874l-2.167 1.951-2.279 1.828c-.315.26-.656.487-1.02.677.273-.296.573-.568.897-.81l2.228-1.872 2.208-1.897c.289-.28.607-.532.948-.751m6.562 5.094c-.323-.371-.616-.766-.877-1.181l-2.04-2.89-2.085-2.87c-.313-.382-.594-.787-.841-1.21.36.341.688.713.979 1.112l2.152 2.831 1.994 2.964a7.71 7.71 0 0 1 .729 1.27m-3.442-16.116c.036.054-2.142 1.482-4.864 3.172l-5.002 2.964c-.041-.064 2.142-1.482 4.869-3.172l4.997-2.964zm6.139 6.422c-2.252-1.908-4.394-3.935-6.414-6.072 1.154.928 2.253 1.918 3.294 2.964a37.99 37.99 0 0 1 3.121 3.122" class="j"/></g><path d="M78.386 305.525v12.929H65.042v-12.929h-1.29v12.929H50.408v-12.929h-1.29v43.792h1.29v-27.108h13.344v27.108h1.29v-27.108h13.344v27.108h1.295v-27.108-3.755-12.929z" fill="#3f4249"/><path d="M498.534 137.371l-5.833 2.075-5.838 2.06-.245 5.662c-.255 6.042 2.432 11.363 7.781 15.148 2.886 2.045 5.935 3.542 8.046 2.791s3.426-3.804 4.258-7.174c1.53-6.255.031-11.986-4.207-16.427l-3.972-4.155z" class="l"/><path d="M498.549 137.371l-5.833 2.08-5.854 2.085-.24 5.662c-.26 6.042 2.427 11.363 7.776 15.148 2.886 2.045 5.94 3.542 8.046 2.791s3.432-3.804 4.258-7.174c1.53-6.255.031-11.986-4.207-16.427l-3.967-4.16z" fill="#fe3a00"/><path d="M497.428 137.746l-4.727 1.68-4.722 1.685-.194 4.585c-.209 4.891 1.968 9.189 6.297 12.262 2.34 1.66 4.808 2.87 6.516 2.263s2.774-3.083 3.447-5.81c1.244-5.064 0-9.703-3.406-13.3z" fill="#fc0"/><path d="M496.316 138.142l-3.615 1.285-3.61 1.289-.148 3.503c-.158 3.745 1.53 7.035 4.819 9.387 1.785 1.27 3.676 2.194 4.982 1.729s2.121-2.357 2.636-4.446c.954-3.873 0-7.411-2.606-10.172z" fill="#ffe680"/><path d="M495.205 138.536l-2.504.889-2.498.894-.102 2.426a7.669 7.43 0 0 0 .795 3.669c.581 1.137 1.458 2.111 2.539 2.827 1.239.879 2.549 1.522 3.452 1.201s1.468-1.635 1.825-3.078a7.22 7.22 0 0 0 .036-3.742c-.311-1.23-.948-2.362-1.841-3.288l-1.703-1.784z" class="k"/><path d="M497.096 116.67l13.405 7.752c.107.06.189.154.235.267l2.784 7.342c.01.026.015.054.01.083a.122.119 0 0 1-.031.078c-.015.023-.036.042-.061.054a.189.183 0 0 1-.087.017l-10.198-.124z" class="l"/><path d="M498.83 117.673l5.548 14.614-1.198-.148-6.083-15.469z" class="i m"/><path d="M474.957 124.56l-5.028 14.327c-.046.113-.046.238 0 .351l2.784 7.342a.18.18 0 0 0 .046.069c.026.019.051.032.077.039a.178.173 0 0 0 .087 0 .158.153 0 0 0 .077-.038l7.648-6.482z" class="l"/><path d="M474.207 126.448l5.553 14.619.816-.87-5.716-15.602z" class="i m"/><path d="M471 82.359c-1.815.662-3.381 6.423-3.518 15.172a49.852 48.303 0 0 0 2.249 15.197l12.747 32.716 8.898-3.256 5.155-1.887 8.898-3.261-11.575-29.682c-1.127-2.904-2.539-5.696-4.217-8.34a58.53 58.53 0 0 0-5.65-7.534c-5.889-6.566-11.182-9.792-12.997-9.125" class="w"/><path d="M471 82.358c-1.423.464-2.662 4.081-3.217 9.718l12.12-4.679c-4.258-3.957-7.072-5.637-8.903-5.039z" class="t"/><path opacity=".09" d="M503.536 132.567l-22.828 8.137.127.338 22.828-8.137zm.26.681l-22.828 8.137.133.338 22.823-8.137zm.255.678l-22.823 8.137.127.338 22.828-8.137zm.26.678l-22.828 8.137.127.338 22.828-8.137zm.255.672l-22.828 8.137.127.339 22.828-8.137zm.255.678l-22.828 8.137.133.339 22.823-8.137zm.26.676l-22.823 8.137.127.338 22.823-8.137z" class="i"/><path d="M488.989 124.392l4.416 11.615m-8.311-28.146l5.996 15.78" stroke-width=".366" class="j q r"/><path d="M484.079 110.72a7.348 7.119 0 1 0-8.847-11.37c-3.238 2.366-3.885 6.831-1.443 9.97s7.052 3.766 10.29 1.399z" class="k"/><path d="M482.411 112.263c-1.8.645-3.778.633-5.568-.033-1.795-.665-3.274-1.94-4.166-3.585a7.45 7.45 0 0 1-.688-5.356c.449-1.807 1.56-3.395 3.126-4.467a8.09 8.09 0 0 1 5.39-1.358 7.893 7.648 0 0 1 4.977 2.426 7.53 7.53 0 0 1 2.091 5.003 7.914 7.668 0 0 1-1.836 5.096h0c-.882 1.026-2.029 1.809-3.325 2.273zm-5.099-13.339c-.979.346-1.866.907-2.585 1.639a6.5 6.5 0 0 0-1.57 2.579c-.311.965-.388 1.987-.229 2.986a6.49 6.49 0 0 0 1.163 2.775 6.72 6.72 0 0 0 2.31 1.989 6.797 6.586 0 0 0 2.983.791 6.812 6.6 0 0 0 3.034-.57c.954-.414 1.795-1.034 2.458-1.814h0c.862-.998 1.397-2.221 1.545-3.515.143-1.293-.112-2.6-.734-3.753a6.792 6.581 0 0 0-2.764-2.725 6.97 6.97 0 0 0-3.86-.777c-.597.051-1.183.177-1.749.375z" class="l"/><g transform="matrix(.509895 0 0 .494049 -27.67761 -39.557448)" stroke-width=".73" class="q r"><use xlink:href="#Q" class="j"/><use xlink:href="#Q" x="3.79" y="10.289" class="j"/><use xlink:href="#Q" x="13.7" y="24.549" class="j"/><use xlink:href="#Q" x="17.49" y="34.83" class="j"/><path d="M988.93 340.81l43.42-15.98" class="j"/></g><path d="M417.813 30.034l-4.115 36.515 6.124-5.276 5.221 5.449-1.372-35.853zm13.701-3.265l21.13 30.493-7.949-1.922-2.014 7.179-15.96-32.375z" class="o"/><path d="M422.509 38.25c10.228 0 18.524-8.036 18.524-17.949s-8.296-17.949-18.524-17.949-18.524 8.036-18.524 17.949 8.296 17.949 18.524 17.949z" class="t"/><path d="M434.853 31.6c-.316.614-.581 1.249-.801 1.902-.342.988-.668 1.892-1.214 2.263s-1.53.326-2.514.311h-.693l1.402 2.846c1.219.079 2.437-.209 3.483-.825 1.321-.894 1.846-2.357 2.3-3.651zm-10.922 6.047l-.413.247c-.841.494-1.708 1.023-2.32.988s-1.433-.672-2.244-1.339a12.22 12.22 0 0 0-1.841-1.334l-.362 3.241.311.257c1.081.884 2.305 1.887 3.921 2.001a4.227 4.096 0 0 0 1.326-.114c.612-.16 1.198-.398 1.744-.706z" class="i m"/><path d="M422.31 40.448a4.227 4.096 0 0 1-1.326.114c-1.616-.114-2.84-1.117-3.921-2.001a7.541 7.307 0 0 0-1.729-1.201 7.674 7.435 0 0 0-2.136-.326c-1.402-.099-2.988-.212-4.212-1.215s-1.596-2.47-1.933-3.794a7.28 7.28 0 0 0-.704-2.011 7.235 7.011 0 0 0-1.479-1.418c-1.091-.889-2.325-1.892-2.718-3.458s.219-2.994.76-4.269a7.557 7.322 0 0 0 .627-1.927c-.01-.71-.122-1.415-.337-2.095-.331-1.319-.709-2.811-.107-4.234s1.958-2.248 3.151-2.964a7.69 7.69 0 0 0 1.734-1.25 7.572 7.337 0 0 0 .959-1.843c.51-1.27 1.137-2.707 2.514-3.537s2.891-.687 4.273-.593a8.09 8.09 0 0 0 2.238-.03 8.128 7.875 0 0 0 1.999-.988c1.178-.706 2.514-1.507 4.079-1.398s2.84 1.117 3.916 2.006a4.72 4.72 0 0 0 1.749 1.203c.673.265 1.397.376 2.121.324 1.397.099 2.988.212 4.212 1.21s1.591 2.47 1.927 3.794a7.46 7.46 0 0 0 .709 2.011c.418.539.918 1.016 1.479 1.418 1.086.889 2.32 1.897 2.718 3.458s-.219 2.999-.76 4.274a7.332 7.104 0 0 0-.632 1.922 7.806 7.564 0 0 0 .342 2.1c.331 1.314.704 2.806.107 4.229s-1.958 2.248-3.151 2.964a4.727 4.58 0 0 0-1.723 1.237 4.49 4.49 0 0 0-.974 1.851c-.51 1.27-1.132 2.707-2.509 3.537s-2.896.687-4.278.593a4.997 4.842 0 0 0-2.238.034 5.07 5.07 0 0 0-1.994.979c-.841.566-1.774 1.002-2.753 1.294zm-8.923-35.156a1.458 1.413 0 0 0-.393.153c-.566.341-.943 1.24-1.341 2.194a9.596 9.298 0 0 1-1.433 2.599c-.704.731-1.525 1.349-2.427 1.833-.897.539-1.744 1.047-1.989 1.63s0 1.546.24 2.47c.301.96.439 1.961.413 2.964a9.627 9.328 0 0 1-.836 2.791c-.408.963-.795 1.867-.627 2.52s.938 1.28 1.759 1.947c.806.591 1.509 1.299 2.085 2.1a10.05 9.738 0 0 1 1.055 2.821c.24.939.51 1.912.979 2.312s1.489.494 2.549.553a7.56 7.56 0 0 1 3.013.522 7.37 7.37 0 0 1 2.529 1.666c.811.662 1.576 1.294 2.244 1.339s1.479-.494 2.32-.988a9.897 9.589 0 0 1 2.835-1.319 10.065 9.753 0 0 1 3.146-.109c.984.069 2.004.138 2.549-.178s.943-1.24 1.346-2.189c.331-.936.816-1.815 1.433-2.604a9.775 9.471 0 0 1 2.427-1.833c.897-.539 1.739-1.047 1.989-1.63s0-1.546-.245-2.47c-.296-.961-.433-1.961-.413-2.964.127-.969.408-1.913.841-2.796.408-.958.79-1.867.627-2.52s-.943-1.28-1.759-1.947a9.54 9.244 0 0 1-2.085-2.1 10.035 9.723 0 0 1-1.055-2.821c-.245-.939-.51-1.912-.979-2.312s-1.489-.494-2.549-.548c-1.03-.022-2.055-.203-3.029-.534a9.663 9.362 0 0 1-2.519-1.66c-.811-.662-1.57-1.289-2.238-1.339s-1.479.494-2.32.988c-.872.58-1.831 1.025-2.84 1.319a10.32 10.32 0 0 1-3.141.104 8 8 0 0 0-2.162.035z" class="l"/><path d="M422.509 35.77c8.816 0 15.965-6.925 15.965-15.469s-7.149-15.469-15.965-15.469-15.965 6.926-15.965 15.469 7.149 15.469 15.965 15.469z" stroke="#fff" stroke-width="1.343" class="q"/><path d="M420.5 12.386l3.977 4.575 6.149-.578-3.268 5.079 2.468 5.484-5.991-1.438-4.62 3.972-.444-5.968-5.323-3.033 5.721-2.253z" class="u"/><path d="M69.988 174.988L36.059 185.58a.474.459 0 0 1-.187.022.47.47 0 0 1-.181-.049.484.469 0 0 1-.239-.274l-14.124-42.473a.51.494 0 0 1 .039-.356c.059-.11.157-.194.277-.237l25.413-7.934 11.728 5.459 11.493 34.658a.479.464 0 0 1-.019.355.47.47 0 0 1-.272.238z" fill="#80b3ff"/><g transform="matrix(.509895 0 0 .494049 -27.67761 -39.557448)"><g class="k"><path d="M160.906 365.09l-51.3 16.74.775 2.375 51.3-16.74zm2.529 8.303l-51.348 16.714.774 2.378 51.348-16.714z"/><use xlink:href="#R"/><path d="M168.38 388.604l-51.349 16.714.774 2.377 51.348-16.713z"/><use xlink:href="#R" x="4.954" y="15.207"/><path d="M173.337 403.821l-51.348 16.714.773 2.377 51.349-16.714z"/><use xlink:href="#R" x="9.909" y="30.418"/><path d="M178.246 418.281l-51.3 16.74.775 2.375 51.3-16.74z"/></g><use xlink:href="#S" class="o"/><use xlink:href="#S" fill="#ccc"/></g></svg>