<?xml version="1.0" encoding="UTF-8" standalone="no"?>
<!-- Created with Inkscape (http://www.inkscape.org/) -->

<svg
   version="1.1"
   id="svg824"
   xml:space="preserve"
   width="666.66663"
   height="509.66656"
   viewBox="0 0 666.66663 509.66657"
   sodipodi:docname="4579609.svg"
   inkscape:version="1.1.1 (3bf5ae0d25, 2021-09-20)"
   xmlns:inkscape="http://www.inkscape.org/namespaces/inkscape"
   xmlns:sodipodi="http://sodipodi.sourceforge.net/DTD/sodipodi-0.dtd"
   xmlns="http://www.w3.org/2000/svg"
   xmlns:svg="http://www.w3.org/2000/svg"><defs
     id="defs828"><clipPath
       clipPathUnits="userSpaceOnUse"
       id="clipPath852"><path
         d="M 0,500 H 500 V 0 H 0 Z"
         id="path850" /></clipPath><clipPath
       clipPathUnits="userSpaceOnUse"
       id="clipPath1102"><path
         d="M 0,500 H 500 V 0 H 0 Z"
         id="path1100" /></clipPath><clipPath
       clipPathUnits="userSpaceOnUse"
       id="clipPath1114"><path
         d="M 96.6899,440.974 H 436.235 V 122.862 H 96.6899 Z"
         id="path1112" /></clipPath><clipPath
       clipPathUnits="userSpaceOnUse"
       id="clipPath1130"><path
         d="M 0,500 H 500 V 0 H 0 Z"
         id="path1128" /></clipPath><clipPath
       clipPathUnits="userSpaceOnUse"
       id="clipPath1142"><path
         d="M 0,500 H 500 V 0 H 0 Z"
         id="path1140" /></clipPath><clipPath
       clipPathUnits="userSpaceOnUse"
       id="clipPath1150"><path
         d="M 252.109,346.242 H 442.128 V 139.479 H 252.109 Z"
         id="path1148" /></clipPath><clipPath
       clipPathUnits="userSpaceOnUse"
       id="clipPath1170"><path
         d="M 246.109,350.242 H 436.128 V 143.479 H 246.109 Z"
         id="path1168" /></clipPath><clipPath
       clipPathUnits="userSpaceOnUse"
       id="clipPath1186"><path
         d="M 92.7284,351.131 H 192.747 V 174.367 H 92.7284 Z"
         id="path1184" /></clipPath><clipPath
       clipPathUnits="userSpaceOnUse"
       id="clipPath1206"><path
         d="M 86.7284,357.131 H 186.747 V 180.367 H 86.7284 Z"
         id="path1204" /></clipPath><clipPath
       clipPathUnits="userSpaceOnUse"
       id="clipPath1226"><path
         d="m 392.412,401.601 h 8.976 v -9.075 h -8.976 z"
         id="path1224" /></clipPath><clipPath
       clipPathUnits="userSpaceOnUse"
       id="clipPath1242"><path
         d="m 406.449,401.601 h 8.976 v -9.075 h -8.976 z"
         id="path1240" /></clipPath><clipPath
       clipPathUnits="userSpaceOnUse"
       id="clipPath1258"><path
         d="m 420.486,401.601 h 8.976 v -9.075 h -8.976 z"
         id="path1256" /></clipPath><clipPath
       clipPathUnits="userSpaceOnUse"
       id="clipPath1274"><path
         d="M 94.8928,402.897 H 106.431 V 391.231 H 94.8928 Z"
         id="path1272" /></clipPath><clipPath
       clipPathUnits="userSpaceOnUse"
       id="clipPath1290"><path
         d="M 0,500 H 500 V 0 H 0 Z"
         id="path1288" /></clipPath><clipPath
       clipPathUnits="userSpaceOnUse"
       id="clipPath1298"><path
         d="M 72.6703,328.956 H 180.506 V 308.327 H 72.6703 Z"
         id="path1296" /></clipPath><clipPath
       clipPathUnits="userSpaceOnUse"
       id="clipPath1318"><path
         d="M 0,500 H 500 V 0 H 0 Z"
         id="path1316" /></clipPath><clipPath
       clipPathUnits="userSpaceOnUse"
       id="clipPath1332"><path
         d="M 56.8242,290.825 H 164.66 V 270.196 H 56.8242 Z"
         id="path1330" /></clipPath><clipPath
       clipPathUnits="userSpaceOnUse"
       id="clipPath1356"><path
         d="M 73.2289,250.902 H 181.065 V 230.273 H 73.2289 Z"
         id="path1354" /></clipPath><clipPath
       clipPathUnits="userSpaceOnUse"
       id="clipPath1376"><path
         d="m 166.725,245.918 h 8.66 v -10.161 h -8.66 z"
         id="path1374" /></clipPath><clipPath
       clipPathUnits="userSpaceOnUse"
       id="clipPath1396"><path
         d="M 0,500 H 500 V 0 H 0 Z"
         id="path1394" /></clipPath><clipPath
       clipPathUnits="userSpaceOnUse"
       id="clipPath1404"><path
         d="m 326.967,273.384 h 84.207 v -54.768 h -84.207 z"
         id="path1402" /></clipPath><clipPath
       clipPathUnits="userSpaceOnUse"
       id="clipPath1430"><path
         d="M 0,500 H 500 V 0 H 0 Z"
         id="path1428" /></clipPath><clipPath
       clipPathUnits="userSpaceOnUse"
       id="clipPath1442"><path
         d="m 367.448,166.885 h 43.2 v -35.498 h -43.2 z"
         id="path1440" /></clipPath><clipPath
       clipPathUnits="userSpaceOnUse"
       id="clipPath1462"><path
         d="m 285.15,210.33 h 34.82 v -45.65 h -34.82 z"
         id="path1460" /></clipPath><clipPath
       clipPathUnits="userSpaceOnUse"
       id="clipPath1494"><path
         d="M 0,500 H 500 V 0 H 0 Z"
         id="path1492" /></clipPath><clipPath
       clipPathUnits="userSpaceOnUse"
       id="clipPath1502"><path
         d="M 272.254,356.099 H 343.44 V 297.278 H 272.254 Z"
         id="path1500" /></clipPath><clipPath
       clipPathUnits="userSpaceOnUse"
       id="clipPath1516"><path
         d="m 274.576,330.481 h 66.542 V 299.6 h -66.542 z"
         id="path1514" /></clipPath><clipPath
       clipPathUnits="userSpaceOnUse"
       id="clipPath1532"><path
         d="m 312.896,345.288 h 9.749 v -9.749 h -9.749 z"
         id="path1530" /></clipPath><clipPath
       clipPathUnits="userSpaceOnUse"
       id="clipPath1596"><path
         d="M 0,500 H 500 V 0 H 0 Z"
         id="path1594" /></clipPath><clipPath
       clipPathUnits="userSpaceOnUse"
       id="clipPath1612"><path
         d="m 183.724,270.426 c -0.99,-1.2 -14.439,-11.041 -14.439,-11.041 v 0 l 2.379,-5.19 c 0,0 14.631,6.851 17.8,10.841 v 0 c 0.81,1.029 1.931,2.67 3.14,4.54 v 0 c 1.99,3.09 4.24,6.809 5.8,9.419 v 0 c 1.16,1.951 1.94,3.281 1.94,3.281 v 0 l -8.28,13.06 c -1.809,-1.391 -7.35,-23.711 -8.34,-24.91"
         id="path1610" /></clipPath><clipPath
       clipPathUnits="userSpaceOnUse"
       id="clipPath1620"><path
         d="m 192.598,288.496 h 5.806 v -18.92 h -5.806 z"
         id="path1618" /></clipPath><clipPath
       clipPathUnits="userSpaceOnUse"
       id="clipPath1636"><path
         d="M 0,500 H 500 V 0 H 0 Z"
         id="path1634" /></clipPath><clipPath
       clipPathUnits="userSpaceOnUse"
       id="clipPath1652"><path
         d="m 173.351,106.795 h 9.359 V 96.2817 h -9.359 z"
         id="path1650" /></clipPath><clipPath
       clipPathUnits="userSpaceOnUse"
       id="clipPath1672"><path
         d="m 213.806,106.406 h 7.996 v -9.8162 h -7.996 z"
         id="path1670" /></clipPath><clipPath
       clipPathUnits="userSpaceOnUse"
       id="clipPath1696"><path
         d="m 171.897,107.768 h 12.801 v -8.8211 h -12.801 z"
         id="path1694" /></clipPath><clipPath
       clipPathUnits="userSpaceOnUse"
       id="clipPath1716"><path
         d="m 210.865,104.885 h 13.344 v -6.8154 h -13.344 z"
         id="path1714" /></clipPath><clipPath
       clipPathUnits="userSpaceOnUse"
       id="clipPath1732"><path
         d="m 204.727,229.232 h 8.75 v -66.158 h -8.75 z"
         id="path1730" /></clipPath><clipPath
       clipPathUnits="userSpaceOnUse"
       id="clipPath1752"><path
         d="m 204.117,309.87 h 12.713 v -2.878 h -12.713 z"
         id="path1750" /></clipPath><clipPath
       clipPathUnits="userSpaceOnUse"
       id="clipPath1808"><path
         d="m 192.064,295.334 c 0,0 5.806,-15.782 6.671,-44.473 v 0 h 31.532 c 0,0 5.819,35.448 -4.18,51.342 v 0 c 0,0 -1.097,0.068 -2.957,0.068 v 0 c -6.078,0 -20.307,-0.727 -31.066,-6.937"
         id="path1806" /></clipPath><clipPath
       clipPathUnits="userSpaceOnUse"
       id="clipPath1816"><path
         d="m 224.177,299.004 h 7.994 v -21.015 h -7.994 z"
         id="path1814" /></clipPath><clipPath
       clipPathUnits="userSpaceOnUse"
       id="clipPath1832"><path
         d="M 0,500 H 500 V 0 H 0 Z"
         id="path1830" /></clipPath><clipPath
       clipPathUnits="userSpaceOnUse"
       id="clipPath4510"><path
         d="M 0,500 H 500 V 0 H 0 Z"
         id="path4508" /></clipPath><linearGradient
       x1="0"
       y1="0"
       x2="1"
       y2="0"
       gradientUnits="userSpaceOnUse"
       gradientTransform="matrix(40.424999,0,0,-40.424999,133.27809,170.45654)"
       spreadMethod="pad"
       id="linearGradient4540"><stop
         style="stop-opacity:1;stop-color:#dae2fd"
         offset="0"
         id="stop4536" /><stop
         style="stop-opacity:1;stop-color:#e8eefc"
         offset="1"
         id="stop4538" /></linearGradient><clipPath
       clipPathUnits="userSpaceOnUse"
       id="clipPath4510-9"><path
         d="M 0,500 H 500 V 0 H 0 Z"
         id="path4508-3" /></clipPath></defs><sodipodi:namedview
     id="namedview826"
     pagecolor="#ffffff"
     bordercolor="#666666"
     borderopacity="1.0"
     inkscape:pageshadow="2"
     inkscape:pageopacity="0.0"
     inkscape:pagecheckerboard="0"
     showgrid="false"
     inkscape:zoom="1.5807457"
     inkscape:cx="317.25532"
     inkscape:cy="154.04122"
     inkscape:window-width="1920"
     inkscape:window-height="1001"
     inkscape:window-x="-9"
     inkscape:window-y="-9"
     inkscape:window-maximized="1"
     inkscape:current-layer="g830" /><g
     id="g830"
     inkscape:groupmode="layer"
     inkscape:label="4579609"
     transform="matrix(1.3333333,0,0,-1.3333333,0,601.46128)"><path
       d="m 414.1048,111.05718 h 13.47713 v 0.13298 H 414.1048 Z"
       style="fill:#ececec;fill-opacity:1;fill-rule:nonzero;stroke:none;stroke-width:0.466162"
       id="path834" /><path
       d="m 375.75428,109.60773 h 3.53712 v 0.13352 h -3.53712 z"
       style="fill:#ececec;fill-opacity:1;fill-rule:nonzero;stroke:none;stroke-width:0.466162"
       id="path836" /><path
       d="m 405.8884,116.0165 h 7.8091 v 0.13351 h -7.8091 z"
       style="fill:#ececec;fill-opacity:1;fill-rule:nonzero;stroke:none;stroke-width:0.466162"
       id="path838" /><path
       d="m 122.32576,119.39667 h 21.31403 v 0.1682 h -21.31403 z"
       style="fill:#ececec;fill-opacity:1;fill-rule:nonzero;stroke:none;stroke-width:0.576194"
       id="path840" /><path
       d="m 148.03356,119.39667 h 3.12508 v 0.1682 h -3.12508 z"
       style="fill:#ececec;fill-opacity:1;fill-rule:nonzero;stroke:none;stroke-width:0.576194"
       id="path842" /><path
       d="m 201.0088,110.35343 h 81.75641 v 0.21025 H 201.0088 Z"
       style="fill:#ececec;fill-opacity:1;fill-rule:nonzero;stroke:none;stroke-width:0.85673"
       id="path844" /><g
       id="g1096"
       transform="translate(27.83948,-6.77003)"><g
         id="g1098"
         clip-path="url(#clipPath1102)"><g
           id="g1104"
           transform="translate(104.5557,398.375)"><path
             d="m 0,0 c 27.919,59.449 127.059,51.062 165.317,9.255 38.258,-41.806 50.696,-68.599 85.208,-52.983 34.513,15.617 78.518,11.44 81.043,-38.164 2.525,-49.604 -37.913,-108.263 -102.09,-125.615 -64.177,-17.351 -64.161,-78.759 -149.1,-66.368 -46.31,6.755 -47.365,56.86 -40.825,98.301 C 46.093,-134.133 -32.378,-68.943 0,0"
             style="fill:#007cff;fill-opacity:1;fill-rule:nonzero;stroke:none"
             id="path1106" /></g><g
           id="g1108"><g
             id="g1110" /><g
             id="g1122"><g
               clip-path="url(#clipPath1114)"
               opacity="0.899994"
               id="g1120"><g
                 transform="translate(104.5557,398.375)"
                 id="g1118"><path
                   d="m 0,0 c 27.919,59.449 127.059,51.062 165.317,9.255 38.258,-41.806 50.696,-68.599 85.208,-52.983 34.513,15.617 78.518,11.44 81.043,-38.164 2.525,-49.604 -37.913,-108.263 -102.09,-125.615 -64.177,-17.351 -64.161,-78.759 -149.1,-66.368 -46.31,6.755 -47.365,56.86 -40.825,98.301 C 46.093,-134.133 -32.378,-68.943 0,0"
                   style="fill:#ffffff;fill-opacity:1;fill-rule:nonzero;stroke:none"
                   id="path1116" /></g></g></g></g></g></g><g
       id="g1136"><g
         id="g1138"
         clip-path="url(#clipPath1142)"><g
           id="g1144"><g
             id="g1146" /><g
             id="g1158"><g
               clip-path="url(#clipPath1150)"
               opacity="0.5"
               id="g1156"><g
                 transform="translate(438.4741,139.4785)"
                 id="g1154"><path
                   d="m 0,0 h -182.711 c -2.018,0 -3.654,1.637 -3.654,3.654 V 203.11 c 0,2.018 1.636,3.654 3.654,3.654 H 0 c 2.018,0 3.654,-1.636 3.654,-3.654 V 3.654 C 3.654,1.637 2.018,0 0,0"
                   style="fill:#007cff;fill-opacity:1;fill-rule:nonzero;stroke:none"
                   id="path1152" /></g></g></g></g><g
           id="g1160"
           transform="translate(432.4741,143.4785)"><path
             d="m 0,0 h -182.711 c -2.018,0 -3.654,1.637 -3.654,3.654 V 203.11 c 0,2.018 1.636,3.654 3.654,3.654 H 0 c 2.018,0 3.654,-1.636 3.654,-3.654 V 3.654 C 3.654,1.637 2.018,0 0,0"
             style="fill:#007cff;fill-opacity:1;fill-rule:nonzero;stroke:none"
             id="path1162" /></g><g
           id="g1164"><g
             id="g1166" /><g
             id="g1178"><g
               clip-path="url(#clipPath1170)"
               opacity="0.800003"
               id="g1176"><g
                 transform="translate(432.4741,143.4785)"
                 id="g1174"><path
                   d="m 0,0 h -182.711 c -2.018,0 -3.654,1.637 -3.654,3.654 V 203.11 c 0,2.018 1.636,3.654 3.654,3.654 H 0 c 2.018,0 3.654,-1.636 3.654,-3.654 V 3.654 C 3.654,1.637 2.018,0 0,0"
                   style="fill:#ffffff;fill-opacity:1;fill-rule:nonzero;stroke:none"
                   id="path1172" /></g></g></g></g><g
           id="g1180"><g
             id="g1182" /><g
             id="g1194"><g
               clip-path="url(#clipPath1186)"
               opacity="0.5"
               id="g1192"><g
                 transform="translate(189.0933,174.3672)"
                 id="g1190"><path
                   d="m 0,0 h -92.711 c -2.018,0 -3.654,1.636 -3.654,3.654 V 173.11 c 0,2.018 1.636,3.654 3.654,3.654 H 0 c 2.018,0 3.654,-1.636 3.654,-3.654 V 3.654 C 3.654,1.636 2.018,0 0,0"
                   style="fill:#007cff;fill-opacity:1;fill-rule:nonzero;stroke:none"
                   id="path1188" /></g></g></g></g><g
           id="g1196"
           transform="translate(183.0933,180.3672)"><path
             d="m 0,0 h -92.711 c -2.018,0 -3.654,1.636 -3.654,3.654 V 173.11 c 0,2.018 1.636,3.654 3.654,3.654 H 0 c 2.018,0 3.654,-1.636 3.654,-3.654 V 3.654 C 3.654,1.636 2.018,0 0,0"
             style="fill:#007cff;fill-opacity:1;fill-rule:nonzero;stroke:none"
             id="path1198" /></g><g
           id="g1200"><g
             id="g1202" /><g
             id="g1214"><g
               clip-path="url(#clipPath1206)"
               opacity="0.800003"
               id="g1212"><g
                 transform="translate(183.0933,180.3672)"
                 id="g1210"><path
                   d="m 0,0 h -92.711 c -2.018,0 -3.654,1.636 -3.654,3.654 V 173.11 c 0,2.018 1.636,3.654 3.654,3.654 H 0 c 2.018,0 3.654,-1.636 3.654,-3.654 V 3.654 C 3.654,1.636 2.018,0 0,0"
                   style="fill:#ffffff;fill-opacity:1;fill-rule:nonzero;stroke:none"
                   id="path1208" /></g></g></g></g><g
           id="g1216"
           transform="translate(433.0732,385.436)"><path
             d="m 0,0 h -342.493 c -2.127,0 -3.852,1.724 -3.852,3.852 v 15.552 c 0,2.127 1.725,3.852 3.852,3.852 H 0 c 2.127,0 3.852,-1.725 3.852,-3.852 V 3.852 C 3.852,1.724 2.127,0 0,0"
             style="fill:#007cff;fill-opacity:1;fill-rule:nonzero;stroke:none"
             id="path1218" /></g><g
           id="g1220"><g
             id="g1222" /><g
             id="g1234"><g
               clip-path="url(#clipPath1226)"
               opacity="0.600006"
               id="g1232"><g
                 transform="translate(401.3882,397.064)"
                 id="g1230"><path
                   d="m 0,0 c 0,-2.506 -2.009,-4.538 -4.488,-4.538 -2.478,0 -4.488,2.032 -4.488,4.538 0,2.506 2.01,4.537 4.488,4.537 C -2.009,4.537 0,2.506 0,0"
                   style="fill:#ffffff;fill-opacity:1;fill-rule:nonzero;stroke:none"
                   id="path1228" /></g></g></g></g><g
           id="g1236"><g
             id="g1238" /><g
             id="g1250"><g
               clip-path="url(#clipPath1242)"
               opacity="0.600006"
               id="g1248"><g
                 transform="translate(415.4253,397.064)"
                 id="g1246"><path
                   d="m 0,0 c 0,-2.506 -2.009,-4.538 -4.488,-4.538 -2.479,0 -4.488,2.032 -4.488,4.538 0,2.506 2.009,4.537 4.488,4.537 C -2.009,4.537 0,2.506 0,0"
                   style="fill:#ffffff;fill-opacity:1;fill-rule:nonzero;stroke:none"
                   id="path1244" /></g></g></g></g><g
           id="g1252"><g
             id="g1254" /><g
             id="g1266"><g
               clip-path="url(#clipPath1258)"
               opacity="0.600006"
               id="g1264"><g
                 transform="translate(429.4619,397.064)"
                 id="g1262"><path
                   d="m 0,0 c 0,-2.506 -2.009,-4.538 -4.488,-4.538 -2.478,0 -4.488,2.032 -4.488,4.538 0,2.506 2.01,4.537 4.488,4.537 C -2.009,4.537 0,2.506 0,0"
                   style="fill:#ffffff;fill-opacity:1;fill-rule:nonzero;stroke:none"
                   id="path1260" /></g></g></g></g><g
           id="g1268"><g
             id="g1270" /><g
             id="g1280"><g
               clip-path="url(#clipPath1274)"
               opacity="0.600006"
               id="g1278"><path
                 d="M 106.432,391.231 H 94.893 v 11.666 h 11.539 z"
                 style="fill:#ffffff;fill-opacity:1;fill-rule:nonzero;stroke:none"
                 id="path1276" /></g></g></g></g></g><path
       d="M 180.506,308.327 H 72.67 v 20.629 h 107.836 z"
       style="fill:#007cff;fill-opacity:1;fill-rule:nonzero;stroke:none"
       id="path1282" /><g
       id="g1284"><g
         id="g1286"
         clip-path="url(#clipPath1290)"><g
           id="g1292"><g
             id="g1294" /><g
             id="g1304"><g
               clip-path="url(#clipPath1298)"
               opacity="0.199997"
               id="g1302"><path
                 d="M 180.506,308.327 H 72.67 v 20.629 h 107.836 z"
                 style="fill:#000000;fill-opacity:1;fill-rule:nonzero;stroke:none"
                 id="path1300" /></g></g></g></g></g><path
       d="M 88.193,314.334 H 79.58 v 8.613 h 8.613 z"
       style="fill:#ffffff;fill-opacity:1;fill-rule:nonzero;stroke:none"
       id="path1306" /><g
       id="g1308"
       transform="translate(81.4644,318.6226)"><path
         d="M 0,0 1.605,-2.067 4.844,2.105"
         style="fill:none;stroke:#007cff;stroke-width:1.5;stroke-linecap:round;stroke-linejoin:round;stroke-miterlimit:10;stroke-dasharray:none;stroke-opacity:1"
         id="path1310" /></g><g
       id="g1312"><g
         id="g1314"
         clip-path="url(#clipPath1318)"><g
           id="g1320"
           transform="translate(170.4966,323.9717)"><path
             d="m 0,0 c -2.025,0 -3.673,-1.647 -3.673,-3.673 h 1 C -2.673,-2.199 -1.474,-1 0,-1 1.474,-1 2.673,-2.199 2.673,-3.673 h 1 C 3.673,-1.647 2.025,0 0,0 m 4.33,-10.161 h -8.66 v 5.854 h 8.66 z"
             style="fill:#007cff;fill-opacity:1;fill-rule:nonzero;stroke:none"
             id="path1322" /></g><path
           d="M 164.66,270.196 H 56.824 v 20.629 H 164.66 Z"
           style="fill:#007cff;fill-opacity:1;fill-rule:nonzero;stroke:none"
           id="path1324" /><g
           id="g1326"><g
             id="g1328" /><g
             id="g1338"><g
               clip-path="url(#clipPath1332)"
               opacity="0.399994"
               id="g1336"><path
                 d="M 164.66,270.196 H 56.824 v 20.629 H 164.66 Z"
                 style="fill:#ffffff;fill-opacity:1;fill-rule:nonzero;stroke:none"
                 id="path1334" /></g></g></g><path
           d="m 72.347,276.204 h -8.613 v 8.613 h 8.613 z"
           style="fill:#ffffff;fill-opacity:1;fill-rule:nonzero;stroke:none"
           id="path1340" /><path
           d="m 158.98,275.68 h -8.66 v 5.854 h 8.66 z"
           style="fill:#ffffff;fill-opacity:1;fill-rule:nonzero;stroke:none"
           id="path1342" /><g
           id="g1344"
           transform="translate(158.3237,282.168)"><path
             d="M 0,0 H -1 C -1,1.474 -2.199,2.673 -3.673,2.673 -5.147,2.673 -6.347,1.474 -6.347,0 h -1 c 0,2.025 1.648,3.673 3.674,3.673 C -1.648,3.673 0,2.025 0,0"
             style="fill:#ffffff;fill-opacity:1;fill-rule:nonzero;stroke:none"
             id="path1346" /></g><path
           d="M 181.065,230.272 H 73.229 v 20.629 h 107.836 z"
           style="fill:#007cff;fill-opacity:1;fill-rule:nonzero;stroke:none"
           id="path1348" /><g
           id="g1350"><g
             id="g1352" /><g
             id="g1362"><g
               clip-path="url(#clipPath1356)"
               opacity="0.399994"
               id="g1360"><path
                 d="M 181.065,230.272 H 73.229 v 20.629 h 107.836 z"
                 style="fill:#ffffff;fill-opacity:1;fill-rule:nonzero;stroke:none"
                 id="path1358" /></g></g></g><path
           d="m 88.751,236.28 h -8.613 v 8.613 h 8.613 z"
           style="fill:#ffffff;fill-opacity:1;fill-rule:nonzero;stroke:none"
           id="path1364" /><g
           id="g1366"
           transform="translate(82.0229,240.5684)"><path
             d="M 0,0 1.605,-2.067 4.844,2.104"
             style="fill:none;stroke:#007cff;stroke-width:1.5;stroke-linecap:round;stroke-linejoin:round;stroke-miterlimit:10;stroke-dasharray:none;stroke-opacity:1"
             id="path1368" /></g><g
           id="g1370"><g
             id="g1372" /><g
             id="g1386"><g
               clip-path="url(#clipPath1376)"
               opacity="0.600006"
               id="g1384"><path
                 d="m 175.385,235.757 h -8.66 v 5.854 h 8.66 z"
                 style="fill:#ffffff;fill-opacity:1;fill-rule:nonzero;stroke:none"
                 id="path1378" /><g
                 transform="translate(174.7285,242.2441)"
                 id="g1382"><path
                   d="M 0,0 H -1 C -1,1.475 -2.199,2.674 -3.673,2.674 -5.147,2.674 -6.347,1.475 -6.347,0 h -1 c 0,2.025 1.648,3.674 3.674,3.674 C -1.648,3.674 0,2.025 0,0"
                   style="fill:#ffffff;fill-opacity:1;fill-rule:nonzero;stroke:none"
                   id="path1380" /></g></g></g></g></g></g><path
       d="m 411.174,218.615 h -84.207 v 54.769 h 84.207 z"
       style="fill:#007cff;fill-opacity:1;fill-rule:nonzero;stroke:none"
       id="path1388" /><g
       id="g1390"><g
         id="g1392"
         clip-path="url(#clipPath1396)"><g
           id="g1398"><g
             id="g1400" /><g
             id="g1410"><g
               clip-path="url(#clipPath1404)"
               opacity="0.5"
               id="g1408"><path
                 d="m 411.174,218.615 h -84.207 v 54.769 h 84.207 z"
                 style="fill:#ffffff;fill-opacity:1;fill-rule:nonzero;stroke:none"
                 id="path1406" /></g></g></g></g></g><path
       d="m 408.093,221.354 h -78.046 v 41.761 h 78.046 z"
       style="fill:#007cff;fill-opacity:1;fill-rule:nonzero;stroke:none"
       id="path1412" /><path
       d="m 394.139,255.079 h -57.732 v 1.797 h 57.732 z"
       style="fill:#ffffff;fill-opacity:1;fill-rule:nonzero;stroke:none"
       id="path1414" /><path
       d="m 364.107,249.577 h -27.7 v 1.796 h 27.7 z"
       style="fill:#ffffff;fill-opacity:1;fill-rule:nonzero;stroke:none"
       id="path1416" /><path
       d="m 371.295,244.075 h -34.888 v 1.796 h 34.888 z"
       style="fill:#ffffff;fill-opacity:1;fill-rule:nonzero;stroke:none"
       id="path1418" /><path
       d="m 348.703,238.573 h -12.296 v 1.796 h 12.296 z"
       style="fill:#ffffff;fill-opacity:1;fill-rule:nonzero;stroke:none"
       id="path1420" /><path
       d="m 344.37,233.07 h -7.962 v 1.797 h 7.962 z"
       style="fill:#ffffff;fill-opacity:1;fill-rule:nonzero;stroke:none"
       id="path1422" /><g
       id="g1424"><g
         id="g1426"
         clip-path="url(#clipPath1430)"><g
           id="g1432"
           transform="translate(413.5864,165.3779)"><path
             d="m 0,0 v -30.535 c 0,-1.739 -1.276,-3.17 -2.938,-3.412 -0.165,-0.032 -0.341,-0.044 -0.517,-0.044 h -39.229 c -1.903,0 -3.455,1.541 -3.455,3.456 V 0 c 0,0.539 0.121,1.057 0.352,1.508 0.551,1.155 1.739,1.958 3.103,1.958 h 15.372 c 0.749,0 1.453,0.242 2.037,0.66 0.572,0.407 1.023,1.002 1.254,1.717 0.473,1.43 1.793,2.387 3.29,2.387 h 8.187 c 1.496,0 2.828,-0.957 3.29,-2.387 0.462,-1.419 1.794,-2.377 3.29,-2.377 h 2.509 C -1.551,3.466 0,1.915 0,0"
             style="fill:#007cff;fill-opacity:1;fill-rule:nonzero;stroke:none"
             id="path1434" /></g><g
           id="g1436"><g
             id="g1438" /><g
             id="g1450"><g
               clip-path="url(#clipPath1442)"
               opacity="0.300003"
               id="g1448"><g
                 transform="translate(410.6484,163.9355)"
                 id="g1446"><path
                   d="m 0,0 v -32.505 c -0.017,-0.016 -0.027,-0.026 -0.044,-0.044 h -39.702 c -1.903,0 -3.455,1.541 -3.455,3.456 V 1.442 c 0,0.539 0.121,1.057 0.352,1.508 H -2.95 C -1.321,2.95 0,1.629 0,0"
                   style="fill:#ffffff;fill-opacity:1;fill-rule:nonzero;stroke:none"
                   id="path1444" /></g></g></g></g><g
           id="g1452"
           transform="translate(319.9702,210.3301)"><path
             d="m 0,0 v -38.19 l -7.46,-7.46 H -34.82 V 0 Z"
             style="fill:#007cff;fill-opacity:1;fill-rule:nonzero;stroke:none"
             id="path1454" /></g><g
           id="g1456"><g
             id="g1458" /><g
             id="g1470"><g
               clip-path="url(#clipPath1462)"
               opacity="0.399994"
               id="g1468"><g
                 transform="translate(319.9702,210.3301)"
                 id="g1466"><path
                   d="m 0,0 v -38.19 l -7.46,-7.46 H -34.82 V 0 Z"
                   style="fill:#ffffff;fill-opacity:1;fill-rule:nonzero;stroke:none"
                   id="path1464" /></g></g></g></g><g
           id="g1472"
           transform="translate(319.9702,172.1396)"><path
             d="M 0,0 H -7.46 V -7.46 Z"
             style="fill:#007cff;fill-opacity:1;fill-rule:nonzero;stroke:none"
             id="path1474" /></g><path
           d="m 315.747,202.582 h -26.255 v -1.433 h 26.255 z"
           style="fill:#007cff;fill-opacity:1;fill-rule:nonzero;stroke:none"
           id="path1476" /><path
           d="m 311.58,196.763 h -22.088 v 1.433 h 22.088 z"
           style="fill:#007cff;fill-opacity:1;fill-rule:nonzero;stroke:none"
           id="path1478" /><path
           d="m 315.747,193.808 h -26.255 v -1.433 h 26.255 z"
           style="fill:#007cff;fill-opacity:1;fill-rule:nonzero;stroke:none"
           id="path1480" /><path
           d="m 299.297,187.987 h -9.805 v 1.433 h 9.805 z"
           style="fill:#007cff;fill-opacity:1;fill-rule:nonzero;stroke:none"
           id="path1482" /><path
           d="m 295.841,183.601 h -6.35 v 1.433 h 6.35 z"
           style="fill:#007cff;fill-opacity:1;fill-rule:nonzero;stroke:none"
           id="path1484" /></g></g><path
       d="m 343.44,297.278 h -71.187 v 58.821 h 71.187 z"
       style="fill:#007cff;fill-opacity:1;fill-rule:nonzero;stroke:none"
       id="path1486" /><g
       id="g1488"><g
         id="g1490"
         clip-path="url(#clipPath1494)"><g
           id="g1496"><g
             id="g1498" /><g
             id="g1508"><g
               clip-path="url(#clipPath1502)"
               opacity="0.600006"
               id="g1506"><path
                 d="m 341.118,299.601 h -66.542 v 54.177 h 66.542 z m -68.864,-2.323 h 71.187 v 58.821 h -71.187 z"
                 style="fill:#ffffff;fill-opacity:1;fill-rule:nonzero;stroke:none"
                 id="path1504" /></g></g></g><g
           id="g1510"><g
             id="g1512" /><g
             id="g1524"><g
               clip-path="url(#clipPath1516)"
               opacity="0.300003"
               id="g1522"><g
                 transform="translate(274.5757,315.6553)"
                 id="g1520"><path
                   d="M 0,0 20.407,14.825 35.564,0 50.722,8.668 66.542,-1.073 V -16.055 H 0 Z"
                   style="fill:#ffffff;fill-opacity:1;fill-rule:nonzero;stroke:none"
                   id="path1518" /></g></g></g></g><g
           id="g1526"><g
             id="g1528" /><g
             id="g1540"><g
               clip-path="url(#clipPath1532)"
               opacity="0.600006"
               id="g1538"><g
                 transform="translate(322.645,340.4141)"
                 id="g1536"><path
                   d="m 0,0 c 0,-2.692 -2.183,-4.875 -4.875,-4.875 -2.692,0 -4.875,2.183 -4.875,4.875 0,2.692 2.183,4.875 4.875,4.875 C -2.183,4.875 0,2.692 0,0"
                   style="fill:#ffffff;fill-opacity:1;fill-rule:nonzero;stroke:none"
                   id="path1534" /></g></g></g></g></g></g><g
       id="g1542"
       transform="translate(348.0869,294.8345)"><path
         d="M 0,0 V -2 H -2"
         style="fill:none;stroke:#1a2e35;stroke-width:1;stroke-linecap:butt;stroke-linejoin:miter;stroke-miterlimit:10;stroke-dasharray:none;stroke-opacity:1"
         id="path1544" /></g><g
       id="g1546"
       transform="translate(342.9512,292.8345)"><path
         d="M 0,0 H -71.604"
         style="fill:none;stroke:#1a2e35;stroke-width:1;stroke-linecap:butt;stroke-linejoin:miter;stroke-miterlimit:10;stroke-dasharray:4.181, 3.136;stroke-dashoffset:0;stroke-opacity:1"
         id="path1548" /></g><g
       id="g1550"
       transform="translate(269.7793,292.8345)"><path
         d="M 0,0 H -2 V 2"
         style="fill:none;stroke:#1a2e35;stroke-width:1;stroke-linecap:butt;stroke-linejoin:miter;stroke-miterlimit:10;stroke-dasharray:none;stroke-opacity:1"
         id="path1552" /></g><g
       id="g1554"
       transform="translate(267.7793,297.7256)"><path
         d="M 0,0 V 59.269"
         style="fill:none;stroke:#1a2e35;stroke-width:1;stroke-linecap:butt;stroke-linejoin:miter;stroke-miterlimit:10;stroke-dasharray:3.855, 2.891;stroke-dashoffset:0;stroke-opacity:1"
         id="path1556" /></g><g
       id="g1558"
       transform="translate(267.7793,358.4395)"><path
         d="M 0,0 V 2 H 2"
         style="fill:none;stroke:#1a2e35;stroke-width:1;stroke-linecap:butt;stroke-linejoin:miter;stroke-miterlimit:10;stroke-dasharray:none;stroke-opacity:1"
         id="path1560" /></g><g
       id="g1562"
       transform="translate(272.9155,360.4395)"><path
         d="M 0,0 H 71.604"
         style="fill:none;stroke:#1a2e35;stroke-width:1;stroke-linecap:butt;stroke-linejoin:miter;stroke-miterlimit:10;stroke-dasharray:4.181, 3.136;stroke-dashoffset:0;stroke-opacity:1"
         id="path1564" /></g><g
       id="g1566"
       transform="translate(346.0869,360.4395)"><path
         d="M 0,0 H 2 V -2"
         style="fill:none;stroke:#1a2e35;stroke-width:1;stroke-linecap:butt;stroke-linejoin:miter;stroke-miterlimit:10;stroke-dasharray:none;stroke-opacity:1"
         id="path1568" /></g><g
       id="g1570"
       transform="translate(348.0869,355.5483)"><path
         d="M 0,0 V -59.268"
         style="fill:none;stroke:#1a2e35;stroke-width:1;stroke-linecap:butt;stroke-linejoin:miter;stroke-miterlimit:10;stroke-dasharray:3.855, 2.891;stroke-dashoffset:0;stroke-opacity:1"
         id="path1572" /></g><path
       d="m 349.664,358.863 h -3.153 v 3.153 h 3.153 z"
       style="fill:#1a2e35;fill-opacity:1;fill-rule:nonzero;stroke:none"
       id="path1574" /><path
       d="m 349.664,291.258 h -3.153 v 3.154 h 3.153 z"
       style="fill:#1a2e35;fill-opacity:1;fill-rule:nonzero;stroke:none"
       id="path1576" /><path
       d="m 269.356,291.258 h -3.154 v 3.154 h 3.154 z"
       style="fill:#1a2e35;fill-opacity:1;fill-rule:nonzero;stroke:none"
       id="path1578" /><path
       d="m 269.356,358.863 h -3.154 v 3.153 h 3.154 z"
       style="fill:#1a2e35;fill-opacity:1;fill-rule:nonzero;stroke:none"
       id="path1580" /><path
       d="m 309.424,358.863 h -3.153 v 3.153 h 3.153 z"
       style="fill:#1a2e35;fill-opacity:1;fill-rule:nonzero;stroke:none"
       id="path1582" /><path
       d="m 309.51,291.258 h -3.154 v 3.154 h 3.154 z"
       style="fill:#1a2e35;fill-opacity:1;fill-rule:nonzero;stroke:none"
       id="path1584" /><path
       d="m 349.664,325.061 h -3.153 v 3.153 h 3.153 z"
       style="fill:#1a2e35;fill-opacity:1;fill-rule:nonzero;stroke:none"
       id="path1586" /><path
       d="m 269.356,325.061 h -3.154 v 3.153 h 3.154 z"
       style="fill:#1a2e35;fill-opacity:1;fill-rule:nonzero;stroke:none"
       id="path1588" /><g
       id="g4504"
       transform="matrix(0.7854652,0,0,0.80126798,-11.223984,34.16838)"><g
         id="g4506"
         clip-path="url(#clipPath4510)"><g
           id="g4512"
           transform="translate(359.5811,325.0627)" /><g
           id="g4516"
           transform="translate(357.6006,320.7629)" /><g
           id="g4520"
           transform="translate(191.2198,136.7658)"><path
             d="m 0,0 h -72.421 c -3.919,0 -7.096,3.178 -7.096,7.097 v 56.561 c 0,3.919 3.177,7.096 7.096,7.096 H 0 c 3.919,0 7.096,-3.177 7.096,-7.096 V 7.097 C 7.096,3.178 3.919,0 0,0"
             style="fill:#497dff;fill-opacity:1;fill-rule:nonzero;stroke:none"
             id="path4522" /></g></g></g><g
       id="g4524"
       transform="translate(-42.870676,1.0700428)"><g
         id="g4526"><g
           id="g4532"><g
             id="g4534"><path
               d="m 138.059,186.31 c -2.636,0 -4.781,-2.146 -4.781,-4.782 v 0 -22.144 c 0,-2.636 2.145,-4.78 4.781,-4.78 v 0 h 30.864 c 2.636,0 4.781,2.144 4.781,4.78 v 0 22.144 c 0,2.636 -2.145,4.782 -4.781,4.782 v 0 z m 1.57,-3.964 h 27.118 l -7.884,-5.6 c -0.066,-0.028 -0.134,-0.052 -0.199,-0.089 v 0 c -0.184,-0.104 -0.337,-0.24 -0.473,-0.387 v 0 l -4.992,-3.547 z m 22.654,-8.031 7.457,5.296 v -18.335 c -2,3.488 -4.978,8.698 -7.457,13.039 m -25.042,4.866 6.799,-4.821 c -2.214,-3.879 -4.834,-8.461 -6.799,-11.891 v 0 z m 5.816,-14.53 c 1.607,2.812 3.213,5.621 4.231,7.405 v 0 l 4.766,-3.379 c 0.342,-0.244 0.745,-0.365 1.147,-0.365 v 0 c 0.4,0 0.803,0.122 1.146,0.366 v 0 l 4.689,3.33 c 1.021,-1.787 2.611,-4.57 4.205,-7.357 v 0 c 1.253,-2.192 2.505,-4.378 3.484,-6.085 v 0 h -27.153 c 0.98,1.708 2.231,3.893 3.485,6.085"
               style="fill:url(#linearGradient4540);stroke:none"
               id="path4542" /></g></g></g></g><ellipse
       cx="405.5643"
       cy="-87.699471"
       rx="46.771656"
       ry="4.2057519"
       fill="#d0cde1"
       id="ellipse8211"
       transform="scale(1,-1)"
       style="stroke-width:0.291153" /><path
       d="m 372.74666,120.34412 h 19.457 V 109.66406 H 380.88359 V 98.984024 h 11.32108 V 88.304618 h -19.45801 z m 23.34892,0 h 19.45751 v -9.28694 h -11.32058 v -1.85726 h 11.32058 V 87.839822 h -19.45701 v 9.752414 h 11.32058 v 1.857256 h -11.32159 v 20.894628 z m 23.34942,0 h 19.45752 v -9.28694 h -11.32059 v -1.85726 h 11.32059 V 87.839822 H 419.445 v 9.752414 h 11.32059 v 1.857256 h -11.32008 v 20.894628 z"
       fill="#3f3d56"
       id="path8213"
       style="fill:#2a7fff;stroke-width:0.349622" /><ellipse
       cx="126.70542"
       cy="-93.461258"
       rx="77.952759"
       ry="5.2982788"
       fill="#d0cde1"
       id="ellipse8209"
       transform="scale(1,-1)"
       style="stroke-width:0.37216" /><path
       d="m 63.496069,133.51731 h 9.734345 V 120.4047 h 8.904862 v 13.11261 h 9.734945 V 93.809027 h -9.73435 V 107.10564 H 73.23101 V 93.809027 h -9.734341 v 39.708283 z m 41.174551,-13.16822 h -8.568387 v 13.16822 h 26.878317 v -13.16822 h -8.57379 V 93.809027 h -9.73434 v 26.540063 z m 22.57553,13.16822 h 10.14998 l 6.24366,-13.95244 6.23766,13.95244 h 10.15419 V 93.809027 h -9.69477 v 19.681593 l -6.6971,-14.118448 h -0.16792 l -6.70128,14.118448 V 93.809027 h -9.52442 z m 37.62987,0 h 9.73734 v -26.5834 h 13.68927 V 93.809027 h -23.4272 v 39.708283 z"
       fill="#3f3d56"
       id="path8215"
       style="fill:#0066ff;stroke-width:0.432146" /></g></svg>
