<?xml version="1.0" encoding="UTF-8" standalone="no"?>
<svg
   data-name="Layer 1"
   width="1011.8458"
   height="852.56653"
   viewBox="0 0 1011.8458 852.56654"
   version="1.1"
   id="svg1050"
   sodipodi:docname="JWS-Aruba-Google-My-Business-Local-SEO.svg"
   inkscape:version="1.1.2 (0a00cf5339, 2022-02-04, custom)"
   xmlns:inkscape="http://www.inkscape.org/namespaces/inkscape"
   xmlns:sodipodi="http://sodipodi.sourceforge.net/DTD/sodipodi-0.dtd"
   xmlns:xlink="http://www.w3.org/1999/xlink"
   xmlns="http://www.w3.org/2000/svg"
   xmlns:svg="http://www.w3.org/2000/svg">
  <defs
     id="defs1054">
    <linearGradient
       id="a"
       x1="46.869633"
       x2="854.4834"
       y1="666.05511"
       y2="666.05511"
       gradientTransform="scale(1.1514919,0.86843861)"
       gradientUnits="userSpaceOnUse">
      <stop
         offset=".03"
         stop-color="#4079d8"
         id="stop1225" />
      <stop
         offset="1"
         stop-color="#4989f5"
         id="stop1227" />
    </linearGradient>
    <linearGradient
       inkscape:collect="always"
       xlink:href="#a"
       id="linearGradient1205"
       gradientUnits="userSpaceOnUse"
       gradientTransform="scale(1.1514919,0.86843861)"
       x1="46.869633"
       y1="666.05511"
       x2="854.4834"
       y2="666.05511" />
  </defs>
  <sodipodi:namedview
     id="namedview1052"
     pagecolor="#ffffff"
     bordercolor="#666666"
     borderopacity="1.0"
     inkscape:pageshadow="2"
     inkscape:pageopacity="0.0"
     inkscape:pagecheckerboard="0"
     showgrid="false"
     inkscape:zoom="1.0228734"
     inkscape:cx="502.01716"
     inkscape:cy="153.00036"
     inkscape:window-width="1920"
     inkscape:window-height="991"
     inkscape:window-x="-9"
     inkscape:window-y="-9"
     inkscape:window-maximized="1"
     inkscape:current-layer="g6902" />
  <path
     d="m 642.21398,784.58759 -0.17939,-0.0162 -280.36846,-24.78498 -254.94865,22.53794 A 25.206797,23.987657 0 0 1 79.287302,760.65822 q -0.107956,-1.10615 -0.108048,-2.21825 V 181.42256 a 25.093895,23.880215 0 0 1 22.875186,-23.88442 l 259.61172,-22.95055 0.1794,0.0162 280.3684,24.78495 254.94744,-22.53792 a 25.206809,23.987668 0 0 1 27.43035,21.66599 q 0.10797,1.10624 0.10808,2.21845 v 577.0169 a 25.094177,23.880483 0 0 1 -22.87507,23.88483 z"
     fill="#3f3d56"
     id="path1000"
     style="fill:#4d4d4d;stroke-width:1.14382" />
  <path
     d="M 470.00486,348.05546 C 415.73295,310.44105 358.63008,274.77339 300.29602,242.04878 l -2.92787,-1.64219 v 110.98867 h 177.45534 z m -168.75881,-0.3506 V 246.874 c 55.49379,31.23921 109.83344,65.13549 161.65283,100.83088 z M 744.67086,576.14964 Q 709.46392,541.31687 672.43445,508.07105 662.22579,498.89589 651.89118,489.8682 588.82086,434.73363 521.60141,384.9963 l -0.52357,-0.38746 H 297.36815 v 194.6684 H 747.83171 Z M 301.24605,575.5869 V 388.29924 h 218.50338 q 64.81569,47.97971 126.12116,101.3291 10.64482,9.2582 21.14466,18.66421 36.70443,32.82612 71.69344,67.29435 z m 443.42481,0.56274 Q 709.46392,541.31687 672.43445,508.07105 662.22579,498.89589 651.89118,489.8682 588.82086,434.73363 521.60141,384.9963 l -0.52357,-0.38746 H 297.36815 v 194.6684 H 747.83171 Z M 301.24605,575.5869 V 388.29924 h 218.50338 q 64.81569,47.97971 126.12116,101.3291 10.64482,9.2582 21.14466,18.66421 36.70443,32.82612 71.69344,67.29435 z M 470.00486,348.05546 C 415.73295,310.44105 358.63008,274.77339 300.29602,242.04878 l -2.92787,-1.64219 v 110.98867 h 177.45534 z m -168.75881,-0.3506 V 246.874 c 55.49379,31.23921 109.83344,65.13549 161.65283,100.83088 z m 168.75881,0.3506 C 415.73295,310.44105 358.63008,274.77339 300.29602,242.04878 l -2.92787,-1.64219 v 110.98867 h 177.45534 z m -168.75881,-0.3506 V 246.874 c 55.49379,31.23921 109.83344,65.13549 161.65283,100.83088 z M 744.67086,576.14964 Q 709.46392,541.31687 672.43445,508.07105 662.22579,498.89589 651.89118,489.8682 588.82086,434.73363 521.60141,384.9963 l -0.52357,-0.38746 H 297.36815 v 194.6684 H 747.83171 Z M 301.24605,575.5869 V 388.29924 h 218.50338 q 64.81569,47.97971 126.12116,101.3291 10.64482,9.2582 21.14466,18.66421 36.70443,32.82612 71.69344,67.29435 z M 105.4287,612.49086 v 3.69041 h 153.15987 v 53.51075 H 105.4287 v 3.69042 H 262.46652 V 612.49086 Z M 297.36815,706.596 v 37.39297 l 3.87797,-0.34145 v -33.36121 h 597.20531 v -3.6904 z m 601.08328,-90.41473 v -3.69041 H 297.36815 v 60.89158 h 601.08328 v -3.69042 H 301.24609 V 616.18121 Z M 536.29889,347.70484 a 1892.2129,1800.6949 0 0 0 -235.0528,-147.3852 v -37.36525 l -3.87798,0.34135 v 37.65449 l 2.98609,3.12441 a 1888.3322,1797.0021 0 0 1 234.1023,146.93314 l 0.52356,0.38748 h 363.47137 v -3.6904 z m -277.71035,0 H 105.4287 v 3.6904 H 262.46652 V 166.37721 l -3.87797,0.34136 z m 639.86289,36.904 h -319.5338 l 4.17855,3.26598 q 59.01224,46.20841 115.8828,98.017 8.08572,7.36226 16.11304,14.8446 39.96221,37.15769 78.36388,76.74179 l 3.19704,1.7991 H 898.45141 V 575.5869 H 796.89737 q -37.98466,-39.19206 -77.61741,-76.11441 -7.92515,-7.39005 -15.90899,-14.67854 -55.6394,-50.80299 -113.65367,-96.49468 H 898.45143 Z M 105.4287,706.59596 v 3.69035 h 153.15987 v 37.12536 l 3.87797,-0.34134 v -40.47437 z m 0,-321.98712 v 3.6904 H 258.58857 V 575.5869 H 105.4287 v 3.69041 H 262.46652 V 384.60884 Z M 470.00485,348.05546 C 415.73293,310.44105 358.63008,274.77339 300.29601,242.04878 l -2.92787,-1.64219 v 110.98867 h 177.45535 z m -168.75881,-0.3506 V 246.874 c 55.49378,31.23921 109.83344,65.13549 161.65283,100.83088 z M 744.67085,576.14964 Q 709.46391,541.31687 672.43444,508.07105 662.22579,498.89589 651.89118,489.8682 588.82086,434.73363 521.60141,384.9963 l -0.52357,-0.38746 H 297.36815 v 194.6684 H 747.83171 Z M 301.24604,575.5869 V 388.29924 h 218.50339 q 64.81569,47.97971 126.12116,101.3291 10.64482,9.2582 21.14466,18.66421 36.70443,32.82612 71.69344,67.29435 z M 470.00486,348.05546 C 415.73295,310.44105 358.63008,274.77339 300.29602,242.04878 l -2.92787,-1.64219 v 110.98867 h 177.45534 z m -168.75881,-0.3506 V 246.874 c 55.49379,31.23921 109.83344,65.13549 161.65283,100.83088 z M 744.67086,576.14964 Q 709.46392,541.31687 672.43445,508.07105 662.22579,498.89589 651.89118,489.8682 588.82086,434.73363 521.60141,384.9963 l -0.52357,-0.38746 H 297.36815 v 194.6684 H 747.83171 Z M 301.24605,575.5869 V 388.29924 h 218.50338 q 64.81569,47.97971 126.12116,101.3291 10.64482,9.2582 21.14466,18.66421 36.70443,32.82612 71.69344,67.29435 z"
     fill="#ffffff"
     id="path1002"
     style="stroke-width:1.14382" />
  <ellipse
     cx="652.96967"
     cy="246.4726"
     fill="#ff6584"
     id="circle1010"
     style="fill:#0066ff;stroke-width:1.14382"
     rx="35.437447"
     ry="33.723495" />
  <path
     d="M 764.09751,350.39601 H 590.25203 a 3.5455224,3.3740413 0 0 1 -0.64965,-0.0489 l 82.22093,-135.53039 a 5.7568659,5.478432 0 0 1 10.02114,0 l 55.18055,90.95138 2.6436,4.35201 z"
     fill="#ffffff"
     id="path1012"
     style="stroke-width:1.14382" />
  <polygon
     points="563.306,157.313 584.141,193.409 533.519,193.409 558.369,157.313 560.157,154.713 561.052,153.413 "
     opacity="0.2"
     style="isolation:isolate"
     id="polygon1014"
     transform="matrix(1.1725232,0,0,1.1158135,79.179042,134.58759)" />
  <path
     d="M 860.89343,350.39601 H 710.53141 l 29.1372,-40.2759 2.09681,-2.90136 37.96843,-52.48726 c 2.48918,-3.43997 8.47742,-3.65418 11.40395,-0.64882 a 6.8627781,6.5308561 0 0 1 0.54677,0.64882 z"
     fill="#ffffff"
     id="path1016"
     style="stroke-width:1.14382" />
  <ellipse
     cx="872.05084"
     cy="524.38013"
     fill="#ffffff"
     id="circle1018"
     rx="17.935501"
     ry="17.068039"
     style="stroke-width:1.14382" />
  <polygon
     points="675.98,347.031 677.685,395.409 674.552,395.409 "
     fill="#cbcbcb"
     id="polygon1020"
     transform="matrix(1.1725232,0,0,1.1158135,79.179042,134.58759)" />
  <polygon
     points="675.842,356.707 676.256,356.2 679.62,351.546 676.21,357.352 "
     fill="#cbcbcb"
     id="polygon1022"
     transform="matrix(1.1725232,0,0,1.1158135,79.179042,134.58759)" />
  <polygon
     points="676.302,361.406 675.888,360.899 672.524,356.246 675.934,362.051 "
     fill="#cbcbcb"
     id="polygon1024"
     transform="matrix(1.1725232,0,0,1.1158135,79.179042,134.58759)" />
  <ellipse
     cx="821.05273"
     cy="499.86197"
     fill="#ffffff"
     id="circle1026"
     rx="26.48921"
     ry="25.208046"
     style="stroke-width:1.14382" />
  <polygon
     points="632.376,323.959 634.893,395.409 630.266,395.409 "
     fill="#cbcbcb"
     id="polygon1028"
     transform="matrix(1.1725232,0,0,1.1158135,79.179042,134.58759)" />
  <polygon
     points="632.172,338.249 632.784,337.5 637.751,330.628 632.716,339.202 "
     fill="#cbcbcb"
     id="polygon1030"
     transform="matrix(1.1725232,0,0,1.1158135,79.179042,134.58759)" />
  <polygon
     points="632.852,345.19 632.24,344.441 627.272,337.569 632.308,346.142 "
     fill="#cbcbcb"
     id="polygon1032"
     transform="matrix(1.1725232,0,0,1.1158135,79.179042,134.58759)" />
  <ellipse
     cx="206.05763"
     cy="524.38013"
     fill="#ffffff"
     id="circle1034"
     rx="17.935501"
     ry="17.068039"
     style="stroke-width:1.14382" />
  <polygon
     points="107.98,347.031 109.685,395.409 106.552,395.409 "
     fill="#cbcbcb"
     id="polygon1036"
     transform="matrix(1.1725232,0,0,1.1158135,79.179042,134.58759)" />
  <polygon
     points="107.842,356.707 108.256,356.2 111.62,351.546 108.21,357.352 "
     fill="#cbcbcb"
     id="polygon1038"
     transform="matrix(1.1725232,0,0,1.1158135,79.179042,134.58759)" />
  <polygon
     points="108.302,361.406 107.888,360.899 104.524,356.246 107.934,362.051 "
     fill="#cbcbcb"
     id="polygon1040"
     transform="matrix(1.1725232,0,0,1.1158135,79.179042,134.58759)" />
  <ellipse
     cx="155.05956"
     cy="499.86197"
     fill="#ffffff"
     id="circle1042"
     rx="26.48921"
     ry="25.208046"
     style="stroke-width:1.14382" />
  <polygon
     points="64.376,323.959 66.893,395.409 62.266,395.409 "
     fill="#cbcbcb"
     id="polygon1044"
     transform="matrix(1.1725232,0,0,1.1158135,79.179042,134.58759)" />
  <polygon
     points="64.172,338.249 64.784,337.5 69.751,330.628 64.716,339.202 "
     fill="#cbcbcb"
     id="polygon1046"
     transform="matrix(1.1725232,0,0,1.1158135,79.179042,134.58759)" />
  <polygon
     points="64.852,345.19 64.24,344.441 59.272,337.569 64.308,346.142 "
     fill="#cbcbcb"
     id="polygon1048"
     transform="matrix(1.1725232,0,0,1.1158135,79.179042,134.58759)" />
  <g
     fill="none"
     fill-rule="evenodd"
     id="g1256"
     transform="matrix(0.08083917,0,0,0.07060251,128.3669,224.01562)">
    <g
       fill-rule="nonzero"
       id="g1244">
      <rect
         fill="#4989f5"
         height="696.14001"
         rx="36.880001"
         width="931"
         x="53.450001"
         y="232.98"
         id="rect1230" />
      <path
         d="M 936.81,227.75 H 100.06 c -25.92,0 -46.09,200.6 -46.09,226.52 L 512.2,929.12 h 424.61 c 26,-0.071 47.059,-21.13 47.13,-47.13 V 274.87 c -0.077,-25.996 -21.134,-47.049 -47.13,-47.12 z"
         fill="url(#a)"
         id="path1232"
         style="fill:url(#linearGradient1205)" />
      <path
         d="m 266.03,349.56 h 266 V 0.44 H 305.86 Z"
         fill="#3c4ba6"
         id="path1234" />
      <path
         d="m 798.03,349.56 h -266 V 0.44 H 758.2 Z m 186.42,-282.94 0.33,1.19 C 984.7,67.39 984.54,67 984.45,66.62 Z"
         fill="#7babf7"
         id="path1236" />
      <path
         d="m 984.78,67.8 -0.33,-1.19 C 976.017,27.993 941.837,0.455 902.31,0.43 H 758.2 L 798,349.56 h 266 z"
         fill="#3f51b5"
         id="path1238" />
      <path
         d="m 79.61,66.62 -0.33,1.19 c 0.08,-0.42 0.24,-0.81 0.33,-1.19 z"
         fill="#7babf7"
         id="path1240" />
      <path
         d="M 79.27,67.8 79.6,66.61 C 88.033,27.993 122.213,0.455 161.74,0.43 H 305.86 L 266,349.56 H 0 Z"
         fill="#7babf7"
         id="path1242" />
    </g>
    <path
       d="m 266.48,349.47 c 0,73.412 -59.513,132.925 -132.925,132.925 C 60.143,482.395 0.63,422.882 0.63,349.47 Z"
       fill="#709be0"
       id="path1246" />
    <path
       d="m 532.33,349.47 c 0,73.412 -59.513,132.925 -132.925,132.925 -73.412,0 -132.925,-59.513 -132.925,-132.925 z"
       fill="#3c4ba6"
       id="path1248" />
    <path
       d="m 798.18,349.47 c 0,73.412 -59.513,132.925 -132.925,132.925 -73.412,0 -132.925,-59.513 -132.925,-132.925 z"
       fill="#709be0"
       id="path1250" />
    <path
       d="m 1064,349.47 c 0,73.412 -59.513,132.925 -132.925,132.925 -73.412,0 -132.925,-59.513 -132.925,-132.925 z"
       fill="#3c4ba6"
       id="path1252" />
    <path
       d="m 931.08,709.6 c -0.47,-6.33 -1.25,-12.11 -2.36,-19.49 h -145 c 0,20.28 0,42.41 -0.08,62.7 h 84 a 73.05,73.05 0 0 1 -30.75,46.89 c 0,0 0,-0.35 -0.06,-0.36 a 88,88 0 0 1 -34,13.27 99.85,99.85 0 0 1 -36.79,-0.16 91.9,91.9 0 0 1 -34.31,-14.87 95.72,95.72 0 0 1 -33.73,-43.1 c -0.52,-1.35 -1,-2.71 -1.49,-4.09 v -0.15 l 0.13,-0.1 A 93,93 0 0 1 696.59,690.3 96.27,96.27 0 0 1 718.9,654 c 23.587,-24.399 58.829,-33.576 91.32,-23.78 a 83,83 0 0 1 33.23,19.56 l 28.34,-28.34 c 5,-5.05 10.19,-9.94 15,-15.16 a 149.78,149.78 0 0 0 -49.64,-30.74 156.08,156.08 0 0 0 -103.83,-0.91 c -1.173,0.4 -2.34,0.817 -3.5,1.25 A 155.18,155.18 0 0 0 646,651 152.61,152.61 0 0 0 632.58,689.78 c -16.052,79.772 32.623,158.294 111.21,179.4 25.69,6.88 53,6.71 78.89,0.83 a 139.88,139.88 0 0 0 63.14,-32.81 c 18.64,-17.15 32,-40 39,-64.27 a 179,179 0 0 0 6.26,-63.33 z"
       fill="#ffffff"
       fill-rule="nonzero"
       id="path1254" />
  </g>
  <path
     d="m 449.56147,371.15937 c -9.00117,-2.67726 -18.64539,-4.14215 -28.61103,-4.14215 -29.09314,0 -55.1323,12.37592 -72.54535,31.87433 l 44.73809,35.46082 z"
     fill="#1a73e8"
     id="path13786"
     style="stroke-width:5.20237" />
  <path
     d="m 348.40509,398.89155 a 94.378732,88.980407 0 0 0 -22.18162,57.38389 c 0,16.77065 3.53623,30.40944 9.37634,42.5833 l 57.54337,-64.50637 z"
     fill="#ea4335"
     id="path13788"
     style="stroke-width:5.20237" />
  <path
     d="m 420.95044,422.17851 a 36.240576,34.167668 0 0 1 27.64657,56.22207 l 56.36477,-63.193 a 94.748424,89.328953 0 0 0 -55.45384,-43.9977 l -56.31112,63.19302 a 36.111986,34.046434 0 0 1 27.75362,-12.22439"
     fill="#4285f4"
     id="path13790"
     style="stroke-width:5.20237" />
  <path
     d="m 420.95044,490.47342 c -19.9848,0 -36.21914,-15.30574 -36.21914,-34.14746 a 35.897672,33.844379 0 0 1 8.46552,-21.92307 l -57.59701,64.50637 c 9.85846,20.5592 26.19986,37.07728 43.02361,57.88904 l 69.97359,-78.39773 a 36.176281,34.107051 0 0 1 -27.64657,12.07285"
     fill="#fbbc04"
     id="path13792"
     style="stroke-width:5.20237" />
  <path
     d="m 447.20395,578.16574 c 31.6115,-46.57392 68.41994,-67.73928 68.41994,-121.89028 0,-14.85111 -3.85764,-28.8435 -10.66211,-41.16891 L 378.67695,556.79831 c 5.35788,6.61732 10.76929,13.63877 16.01999,21.41793 19.18115,27.98476 13.87693,44.75541 26.2535,44.75541 12.3767,0 7.07246,-16.82116 26.25351,-44.80591"
     fill="#34a853"
     id="path13794"
     style="stroke-width:5.20237" />
  <g
     id="g6902"
     transform="translate(2.1665878,-423.64899)">
    <path
       class="st0"
       d="m 142.9,486.6 v 10 h 23.8 c -0.7,5.6 -2.6,9.7 -5.4,12.6 -3.5,3.5 -8.9,7.3 -18.4,7.3 -14.7,0 -26.1,-11.8 -26.1,-26.5 0,-14.7 11.5,-26.5 26.1,-26.5 7.9,0 13.7,3.1 17.9,7.1 l 7,-7 c -5.9,-5.7 -13.8,-10.1 -24.9,-10.1 -20.1,0 -37,16.4 -37,36.4 0,20.1 16.9,36.4 37,36.4 10.9,0 19,-3.6 25.4,-10.2 6.6,-6.6 8.6,-15.8 8.6,-23.3 0,-2.3 -0.2,-4.5 -0.5,-6.2 z"
       id="path6870"
       style="fill:#2a7fff" />
    <path
       class="st1"
       d="m 206.7,516.3 c -7.1,0 -13.3,-5.9 -13.3,-14.3 0,-8.5 6.2,-14.3 13.3,-14.3 7.1,0 13.3,5.8 13.3,14.3 0,8.4 -6.2,14.3 -13.3,14.3 z m 0,-37.8 c -13,0 -23.6,9.9 -23.6,23.5 0,13.5 10.6,23.5 23.6,23.5 13,0 23.6,-10 23.6,-23.5 0,-13.6 -10.6,-23.5 -23.6,-23.5 z"
       id="path6872"
       style="fill:#ff0000" />
    <path
       class="st0"
       d="m 310.5,516.3 c -7.1,0 -12.6,-6.1 -12.6,-14.3 0,-8.3 5.4,-14.3 12.6,-14.3 7,0 12.6,6.1 12.6,14.3 0,8.3 -5.5,14.3 -12.6,14.3 z m 11.9,-32.5 H 322 c -2.3,-2.8 -6.8,-5.3 -12.4,-5.3 -11.7,0 -22,10.2 -22,23.5 0,13.2 10.2,23.5 22,23.5 5.6,0 10.1,-2.5 12.4,-5.3 h 0.4 v 3.3 c 0,9 -4.8,13.8 -12.6,13.8 -6.3,0 -10.2,-4.5 -11.9,-8.4 l -9,3.7 c 2.6,6.2 9.4,13.9 20.9,13.9 12.1,0 22.4,-7.1 22.4,-24.5 v -42.3 h -9.8 z"
       id="path6874"
       style="fill:#2a7fff" />
    <path
       class="st2"
       d="m 259.3,516.3 c -7.1,0 -13.3,-5.9 -13.3,-14.3 0,-8.5 6.2,-14.3 13.3,-14.3 7.1,0 13.3,5.8 13.3,14.3 0,8.4 -6.2,14.3 -13.3,14.3 z m 0,-37.8 c -13,0 -23.6,9.9 -23.6,23.5 0,13.5 10.6,23.5 23.6,23.5 13,0 23.6,-10 23.6,-23.5 0,-13.6 -10.6,-23.5 -23.6,-23.5 z"
       id="path6876"
       style="fill:#ffd42a" />
    <rect
       x="340.29999"
       y="454.39999"
       class="st3"
       width="10.2"
       height="71.099998"
       id="rect6878"
       style="fill:#00aa44" />
    <path
       class="st1"
       d="m 381.1,487.3 c 4.2,0 7.7,2.1 8.9,5.2 l -21.3,8.8 c 0.1,-9.9 7.1,-14 12.4,-14 z m 0.7,29 c -5.3,0 -9,-2.4 -11.4,-7.1 l 31.5,-13 -1.1,-2.7 c -1.9,-5.3 -7.9,-15 -20.1,-15 -12.1,0 -22.2,9.5 -22.2,23.5 0,13.2 10,23.5 23.3,23.5 10.8,0 17,-6.6 19.6,-10.4 l -8,-5.3 c -2.7,3.9 -6.3,6.5 -11.6,6.5 z"
       id="path6880"
       style="fill:#ff2a2a" />
    <polygon
       class="st4"
       points="480.6,462.6 458.4,501.4 458.1,501.4 435.9,462.6 427.7,462.6 427.7,526.3 435.9,526.3 435.9,488.5 435.5,477.8 435.9,477.8 455.8,512.8 460.6,512.8 480.6,477.8 481,477.8 480.6,488.5 480.6,526.3 488.8,526.3 488.8,462.6 "
       id="polygon6882"
       style="fill:#ffffff" />
    <polygon
       class="st4"
       points="516.6,514 503.6,482.7 494.7,482.7 512.7,523.6 502.5,545.6 511,545.6 538.3,482.7 529.4,482.7 516.8,514 "
       id="polygon6884"
       style="fill:#ffffff" />
    <path
       class="st4"
       d="m 589,497.6 c 3.1,0 5.8,1 7.8,3.1 2.1,2.1 3.1,4.5 3.1,7.3 0,2.9 -1,5.3 -3,7.4 -2.1,2.1 -4.6,3.1 -7.6,3.1 h -16.5 v -20.9 z m -0.9,-27.2 c 2.8,0 5.1,1 7,2.9 1.9,2 2.9,4.3 2.9,6.8 0,2.6 -1,4.8 -2.9,6.9 -2,2 -4.4,2.9 -7.3,2.9 h -14.9 v -19.5 z m 0.9,55.9 c 5.4,0 9.9,-1.7 13.6,-5.2 3.8,-3.4 5.7,-7.8 5.7,-13 0,-3.4 -1,-6.4 -2.9,-9 -2,-2.6 -4.6,-4.5 -7.8,-5.6 v -0.4 c 5.8,-2.6 8.6,-7 8.6,-13.3 0,-5 -1.8,-9.1 -5.4,-12.4 -3.6,-3.3 -8,-5 -13,-5 h -23.1 v 63.8 H 589 Z"
       id="path6886"
       style="fill:#ffffff" />
    <path
       class="st4"
       d="m 654.5,482.7 h -8.2 v 24.1 c 0,3.7 -1.1,6.8 -3.3,9.5 -2.2,2.6 -4.9,4 -8.2,4 -7,0 -10.6,-3.6 -10.8,-10.7 v -26.9 h -8.2 v 27.4 c 0,5.6 1.4,10 4.3,13 2.9,3.1 7,4.6 12.3,4.6 2.8,0 5.5,-0.7 8.1,-2.1 2.6,-1.4 4.5,-3.2 5.7,-5.3 h 0.4 v 6.1 h 7.8 v -43.7 z"
       id="path6888"
       style="fill:#ffffff" />
    <path
       class="st4"
       d="m 684.4,501.1 -6.6,-1.7 c -4.7,-1.1 -7,-2.9 -7,-5.3 0,-1.5 0.8,-2.9 2.5,-3.9 1.7,-1.1 3.6,-1.6 5.7,-1.6 2.3,0 4.4,0.5 6.3,1.6 1.9,1 3.2,2.5 4.1,4.3 l 7.3,-3 c -1.2,-3.1 -3.4,-5.6 -6.5,-7.4 -3.1,-1.8 -6.6,-2.8 -10.5,-2.8 -5,0 -9.2,1.2 -12.4,3.6 -3.2,2.4 -4.9,5.6 -4.9,9.6 0,6.1 4.2,10.2 12.7,12.3 l 7.5,1.9 c 4.3,1.3 6.4,3.4 6.4,6.1 0,1.5 -0.9,2.9 -2.6,4 -1.8,1.1 -3.9,1.7 -6.5,1.7 -2.4,0 -4.7,-0.7 -6.7,-2.2 -2,-1.5 -3.6,-3.5 -4.7,-6.1 l -7.3,3.1 c 1.4,3.7 3.8,6.8 7.1,9 3.3,2.3 7.2,3.4 11.6,3.4 5,0 9.2,-1.3 12.6,-3.9 3.3,-2.6 5,-5.8 5,-9.6 -0.1,-6.6 -4.4,-10.9 -13.1,-13.1 z"
       id="path6890"
       style="fill:#ffffff" />
    <path
       class="st4"
       d="m 704.8,482.7 v 43.6 h 8.2 v -43.6 z m 8.2,-19.2 c -1.1,-1.1 -2.5,-1.7 -4.1,-1.7 -1.6,0 -3,0.6 -4.1,1.7 -1.1,1.1 -1.7,2.5 -1.7,4.1 0,1.6 0.6,3 1.7,4.1 1.1,1.1 2.5,1.7 4.1,1.7 1.6,0 3,-0.6 4.1,-1.7 1.1,-1.1 1.7,-2.5 1.7,-4.1 0,-1.6 -0.6,-2.9 -1.7,-4.1 z"
       id="path6892"
       style="fill:#ffffff" />
    <path
       class="st4"
       d="m 723.7,526.3 h 8.2 v -24.1 c 0,-3.7 1.1,-6.8 3.3,-9.5 2.2,-2.6 4.9,-4 8.2,-4 7,0 10.6,3.6 10.8,10.7 v 26.9 h 8.2 v -27.4 c 0,-5.6 -1.4,-10 -4.3,-13 -2.9,-3.1 -7,-4.6 -12.3,-4.6 -2.8,0 -5.5,0.7 -8.1,2.1 -2.6,1.4 -4.5,3.2 -5.7,5.3 h -0.4 v -6.1 h -7.8 v 43.7 z"
       id="path6894"
       style="fill:#ffffff" />
    <path
       class="st4"
       d="m 782.9,491.6 c 2.2,-1.9 4.9,-2.9 8,-2.9 3.7,0 6.7,1 9,3 2.2,2 3.5,4.5 3.7,7.5 h -25 c 0.6,-3.1 2.1,-5.7 4.3,-7.6 z m 20.5,33 c 3.5,-2.1 6.2,-5 8.2,-8.6 l -7.3,-3.6 c -3,5.2 -7.1,7.8 -12.3,7.8 -3.8,0 -7.1,-1.3 -9.8,-3.9 -2.7,-2.6 -4.2,-6.1 -4.3,-10.3 h 34.3 l 0.1,-0.9 c 0,-7.5 -1.9,-13.4 -5.7,-17.6 -3.8,-4.2 -9,-6.3 -15.5,-6.3 -6.3,0 -11.5,2.2 -15.5,6.6 -4,4.4 -6.1,10 -6.1,16.6 0,6.7 2.1,12.3 6.2,16.7 4.2,4.4 9.4,6.6 15.9,6.6 4.4,0.1 8.3,-1 11.8,-3.1 z"
       id="path6896"
       style="fill:#ffffff" />
    <path
       class="st4"
       d="m 840.6,501.1 -6.6,-1.7 c -4.7,-1.1 -7,-2.9 -7,-5.3 0,-1.5 0.8,-2.9 2.5,-3.9 1.7,-1.1 3.6,-1.6 5.7,-1.6 2.3,0 4.4,0.5 6.3,1.6 1.9,1 3.2,2.5 4.1,4.3 l 7.3,-3 c -1.2,-3.1 -3.4,-5.6 -6.5,-7.4 -3.1,-1.8 -6.6,-2.8 -10.5,-2.8 -5,0 -9.2,1.2 -12.4,3.6 -3.2,2.4 -4.9,5.6 -4.9,9.6 0,6.1 4.2,10.2 12.7,12.3 l 7.5,1.9 c 4.3,1.3 6.4,3.4 6.4,6.1 0,1.5 -0.9,2.9 -2.6,4 -1.8,1.1 -3.9,1.7 -6.5,1.7 -2.4,0 -4.7,-0.7 -6.7,-2.2 -2,-1.5 -3.6,-3.5 -4.7,-6.1 l -7.3,3.1 c 1.4,3.7 3.8,6.8 7.1,9 3.3,2.3 7.2,3.4 11.6,3.4 5,0 9.2,-1.3 12.6,-3.9 3.3,-2.6 5,-5.8 5,-9.6 -0.1,-6.6 -4.5,-10.9 -13.1,-13.1 z"
       id="path6898"
       style="fill:#ffffff" />
    <path
       class="st4"
       d="m 881.1,501.1 -6.6,-1.7 c -4.7,-1.1 -7,-2.9 -7,-5.3 0,-1.5 0.8,-2.9 2.5,-3.9 1.7,-1.1 3.6,-1.6 5.7,-1.6 2.3,0 4.4,0.5 6.3,1.6 1.9,1 3.2,2.5 4.1,4.3 l 7.3,-3 c -1.2,-3.1 -3.4,-5.6 -6.5,-7.4 -3.1,-1.8 -6.6,-2.8 -10.5,-2.8 -5,0 -9.2,1.2 -12.4,3.6 -3.2,2.4 -4.9,5.6 -4.9,9.6 0,6.1 4.2,10.2 12.7,12.3 l 7.5,1.9 c 4.3,1.3 6.4,3.4 6.4,6.1 0,1.5 -0.9,2.9 -2.6,4 -1.8,1.1 -3.9,1.7 -6.5,1.7 -2.4,0 -4.7,-0.7 -6.7,-2.2 -2,-1.5 -3.6,-3.5 -4.7,-6.1 l -7.3,3.1 c 1.4,3.7 3.8,6.8 7.1,9 3.3,2.3 7.2,3.4 11.6,3.4 5,0 9.2,-1.3 12.6,-3.9 3.3,-2.6 5,-5.8 5,-9.6 -0.1,-6.6 -4.4,-10.9 -13.1,-13.1 z"
       id="path6900"
       style="fill:#ffffff" />
  </g>
  <ellipse
     cx="421.20068"
     cy="647.53857"
     fill="#009cff"
     id="circle1008"
     rx="18.299002"
     ry="17.789291"
     style="fill:#34a853;fill-opacity:1;stroke-width:0.882618" />
</svg>
