<svg xmlns="http://www.w3.org/2000/svg" xmlns:xlink="http://www.w3.org/1999/xlink" width="866.92" height="546.078" viewBox="0 0 229.373 144.483" xmlns:v="https://vecta.io/nano"><style><![CDATA[.I{fill:#007cff}.J{stroke-width:.265}.K{stroke:#f4f7fb}.L{opacity:.1}.M{fill:#fff}.N{stroke:#f7f9fd}.O{stroke-width:.185}.P{fill:#fdc2cc}.Q{opacity:.5}.R{opacity:.05}.S{fill:#1a2e35}.T{fill:#e6e6f0}.U{fill:#565171}.V{fill:#b45181}.W{fill:#c48c96}.X{fill:#714b4f}]]></style><defs><clipPath id="A"><path d="M0 500h500V0H0z"/></clipPath><clipPath id="B"><path d="M315.607 418.512h95.763V222.469h-95.763z"/></clipPath><clipPath id="C"><path d="M0 500h500V0H0z"/></clipPath><clipPath id="D"><path d="M203.102 429.668h95.764v-196.04h-95.764z"/></clipPath><clipPath id="E"><path d="M241.505 362.442h17.018v-17.018h-17.018z"/></clipPath><clipPath id="F"><path d="M289.295 418.915h9.642v-22.834h-9.642z"/></clipPath><clipPath id="G"><path d="M279.654 443.173h28.806v-30.002h-28.806z"/></clipPath><clipPath id="H"><path d="M0 500h500V0H0z"/></clipPath><clipPath id="I"><path d="M88.63 418.512h95.763V222.469H88.63z"/></clipPath><clipPath id="J"><path d="M126.576 317.841h17.018v-17.018h-17.018z"/></clipPath><clipPath id="K"><path d="M126.576 351.284h17.018v-17.018h-17.018z"/></clipPath><path id="L" d="M347.948 398.684v-1.48a1.97 1.97 0 0 1-.36.038c-1.182 0-1.928-.697-1.928-2.053v-3.22h-1.555v6.64h1.48v-.969c.448.696 1.257 1.044 2.363 1.044"/><path id="M" d="M383.477 232.881h-39.978c-5.436 0-9.843 4.407-9.843 9.844v.745c0 5.436 4.407 9.844 9.843 9.844h39.978c5.436 0 9.843-4.408 9.843-9.844v-.745c0-5.437-4.407-9.844-9.843-9.844"/><path id="N" d="M370.658 342.86a8.6 8.6 0 0 0-8.597-8.597 8.6 8.6 0 0 0-8.596 8.597 8.6 8.6 0 0 0 8.596 8.597 8.6 8.6 0 0 0 8.597-8.597"/><path id="O" d="M350.787 383.785l1.609-2.573 2.944-.735-1.95-2.325.211-3.028-2.814 1.137-2.814-1.137.211 3.028-1.95 2.325 2.944.735z"/><path id="P" d="M240.531 405.204v.771h-1.604c-1.057 0-1.343-.398-1.343-.883 0-.559.472-.92 1.268-.92.759 0 1.418.348 1.679 1.032m1.555 1.816v-3.893h-1.468v.808c-.373-.571-1.094-.895-2.089-.895-1.517 0-2.475.833-2.475 1.99 0 1.107.747 1.977 2.761 1.977h1.716v.1c0 .908-.547 1.442-1.654 1.442-.746 0-1.517-.248-2.014-.658l-.61 1.131c.709.547 1.741.821 2.811.821 1.915 0 3.022-.908 3.022-2.823"/><path id="Q" d="M257.631 406.447c0 1.269-.858 2.077-1.978 2.077s-1.977-.808-1.977-2.077.858-2.077 1.977-2.077 1.978.808 1.978 2.077m1.53 5.907v-9.227h-1.493v.858c-.522-.635-1.293-.945-2.201-.945-1.927 0-3.357 1.343-3.357 3.407s1.43 3.395 3.357 3.395c.858 0 1.617-.286 2.139-.895v3.407z"/><path id="R" d="M258.524 353.933a8.51 8.51 0 0 0-8.509-8.509 8.51 8.51 0 0 0-8.509 8.509 8.51 8.51 0 0 0 8.509 8.509 8.51 8.51 0 0 0 8.509-8.509"/><path id="S" d="M296.468 441.727h0a2.73 2.73 0 0 1 3.605-1.171c1.966.955 4.203-.67 3.901-2.835-.202-1.455.782-2.81 2.229-3.067 2.152-.382 3.007-3.011 1.49-4.586-1.019-1.058-1.019-2.733 0-3.791 1.517-1.574.662-4.204-1.49-4.586-1.447-.257-2.431-1.612-2.229-3.067.302-2.166-1.935-3.791-3.901-2.834a2.73 2.73 0 0 1-3.605-1.172c-1.029-1.929-3.793-1.929-4.822 0-.692 1.297-2.284 1.814-3.606 1.172-1.966-.957-4.202.668-3.901 2.834a2.73 2.73 0 0 1-2.228 3.067c-2.152.382-3.007 3.012-1.49 4.586 1.019 1.058 1.019 2.733 0 3.791-1.517 1.575-.662 4.204 1.49 4.586a2.73 2.73 0 0 1 2.228 3.067c-.301 2.165 1.935 3.79 3.901 2.835 1.322-.643 2.914-.125 3.606 1.171 1.029 1.929 3.793 1.929 4.822 0"/><path id="T" d="M184.393 408.894v-38.878H88.63v38.878a9.62 9.62 0 0 0 9.621 9.616h76.521a9.62 9.62 0 0 0 9.621-9.616"/><linearGradient id="U" gradientUnits="userSpaceOnUse"><stop offset="0" stop-color="gray" stop-opacity=".25"/><stop offset=".54" stop-color="gray" stop-opacity=".12"/><stop offset="1" stop-color="gray" stop-opacity=".1"/></linearGradient><linearGradient id="V" x1="47.083" y1="139.832" x2="47.083" y2="35.266" xlink:href="#U"/><linearGradient xlink:href="#U" id="W" x1="182.708" y1="119.933" x2="182.708" y2="30.358"/><path id="X" d="M387.178 293.112h-49.434v2h49.434z"/><path id="Y" d="M370.658 311.126a8.6 8.6 0 0 0-8.597-8.597 8.6 8.6 0 0 0-8.596 8.597 8.6 8.6 0 0 0 8.596 8.597 8.6 8.6 0 0 0 8.597-8.597"/><path id="Z" d="M254.823 356.457l-7.333-7.333-2.285 2.285 7.333 7.333z"/><path id="a" d="M247.49 358.742l7.333-7.333-2.285-2.285-7.333 7.333z"/><path id="b" d="M143.594 309.333a8.51 8.51 0 0 0-8.509-8.509 8.51 8.51 0 0 0-8.509 8.509 8.51 8.51 0 0 0 8.509 8.509 8.51 8.51 0 0 0 8.509-8.509"/><path id="c" d="M85.484 47.898s9.424 2.254 11.195 4.763c0 0 1.611 1.371 0 3.866s-3.866 8.136-3.866 8.136-1.611 5.477-2.254 5.879-4.35.725-4.673-.794c0 0 2.093-3.302 2.093-4.834s3.463-8.779 3.463-8.779-7.893-.886-10.39-.323 1.13-8.8 4.432-7.914z"/><path id="d" d="M81.055 23.664l8.617-4.993s.161 4.834 1.127 5.556c0 0-3.543 1.058-4.913 3.302z"/><path id="e" d="M88.707 15.497c-.347.868-1.381 1.196-2.289 1.421-1.296.317-2.693.63-3.934.138a.86.86 0 0 0-.529-.103.704.704 0 0 0-.349.304c-1.368 1.947-1.146 4.543-1.5 6.898-.111.733-.299 1.49-.794 2.037-.963 1.058-2.781 1.019-3.667 2.143-.585.741-.59 1.77-.585 2.715q0 1.511-.026 3.024c-.016.661-.048 1.347-.347 1.934-.508.995-1.64 1.468-2.686 1.852-.651.243-1.323.489-2.021.423s-1.397-.529-1.487-1.228c-.124-.947.852-1.609 1.524-2.291 1.074-1.087 1.516-2.67 1.556-4.199a4.498 4.498 0 0 0-.265-1.818c-.246-.601-.685-1.106-.95-1.699-.815-1.826.191-3.937 1.394-5.535s2.683-3.156 2.94-5.138a7.125 7.125 0 0 1 .183-1.273c.185-.577.624-2.17 1.109-2.535a5.76 5.76 0 0 1 2.646-1.101c.743-.108 1.503-.069 2.241-.212.863-.167 1.664-.577 2.527-.73 1.865-.331 3.889 1.836 4.707 3.545.225.524.815.894.603 1.426z"/><path id="f" d="M169.18 54.195s2.196 7.408 3.477 8.326 9.059 5.583 11.348 4.485c0 0 .55 2.746-.265 3.387l-8.602-.365s-5.583-.733-6.498-3.477-2.013-7.408-2.013-7.408z"/><path id="g" d="M46.712 72.287s-10.155 1.41-12.271.987l-5.641-5.36s-5.36 4.09 3.104 6.771l15.796 1.834z"/><path id="h" d="M50.382 129.548l-4.937 4.371s-2.82.706-4.371.564-2.257 2.397 1.41 2.68 15.372-.564 15.372-.564 1.127-4.514-2.257-7.051z"/><path id="i" d="M58.031 134.649a7.779 7.779 0 0 1-.177 1.529s-11.705.847-15.372.564c-1.765-.135-2.514-.794-2.646-1.423-.161.725.479 1.68 2.646 1.852 3.667.283 15.372-.564 15.372-.564a8.149 8.149 0 0 0 .177-1.958z"/><path id="j" d="M56.732 130.254c-.736.908-1.773 1.257-2.858 1.31-2.466.116-5.181-1.31-5.181-1.31 1.834-1.55-2.82-15.232-2.82-15.232-3.807-1.834-3.527-5.924-3.527-5.924L43.58 86.9l.312-5.577 3.95-2.397 3.111 2.381 2.953 2.265a11.869 11.869 0 0 1 .37 2.201c.344 5.183-3.754 6.403-3.754 6.403s1.693 5.218.14 10.014 1.127 9.028 1.127 9.028 5.077 14.668 4.233 15.515.709 3.522.709 3.522z"/></defs><g transform="matrix(.352778 0 0 -.352778 29.755008 222.96575)"><g clip-path="url(#A)"><path d="M392.741 222.47h-58.505c-10.289 0-18.629 8.34-18.629 18.628v158.786c0 10.288 8.34 18.628 18.629 18.628h58.505a18.63 18.63 0 0 0 18.628-18.628V241.098a18.63 18.63 0 0 0-18.628-18.628" class="I"/><g clip-path="url(#B)" opacity=".3"><path d="M392.949 418.512h-58.922c-10.174 0-18.42-8.247-18.42-18.42V240.889c0-10.172 8.246-18.419 18.42-18.419h58.922c10.173 0 18.42 8.247 18.42 18.419v159.203c0 10.173-8.247 18.42-18.42 18.42"/></g><path d="M411.37 408.894v-38.878h-95.763v38.878a9.62 9.62 0 0 0 9.621 9.616h76.521a9.62 9.62 0 0 0 9.621-9.616" class="I"/><g class="M"><path d="M341.07 397.577c0 1.095-.733 1.729-2.151 1.729h-1.891v-3.458h1.891c1.418 0 2.151.635 2.151 1.729m1.629 0c0-1.915-1.418-3.096-3.706-3.096h-1.965v-2.512h-1.616v8.705h3.581c2.288 0 3.706-1.169 3.706-3.097"/><use xlink:href="#L"/><path d="M350.199 395.824h3.768c-.124.958-.858 1.617-1.878 1.617-1.007 0-1.741-.647-1.89-1.617m5.223-1.032h-5.211c.187-.97.995-1.592 2.152-1.592.746 0 1.331.236 1.803.722l.833-.958c-.597-.709-1.529-1.082-2.674-1.082-2.226 0-3.668 1.43-3.668 3.407s1.455 3.395 3.432 3.395c1.94 0 3.358-1.355 3.358-3.432a6.65 6.65 0 0 0-.025-.46m12.623.982v-3.805h-1.555v3.606c0 1.181-.547 1.754-1.492 1.754-1.019 0-1.728-.672-1.728-1.99v-3.37h-1.555v3.606c0 1.181-.547 1.754-1.492 1.754-1.032 0-1.729-.672-1.729-1.99v-3.37h-1.554v6.64h1.48v-.845c.497.597 1.268.92 2.176.92.97 0 1.778-.36 2.239-1.107.534.684 1.43 1.107 2.486 1.107 1.605 0 2.724-.908 2.724-2.91m1.991 2.835h1.555v-6.641h-1.555zm-.212 2.028c0 .522.423.932.996.932s.994-.385.994-.895c0-.547-.41-.97-.994-.97-.573 0-.996.41-.996.933m10.235-2.028v-6.641h-1.48v.846c-.498-.609-1.281-.933-2.139-.933-1.704 0-2.86.933-2.86 2.935v3.793h1.554v-3.582c0-1.206.572-1.778 1.555-1.778 1.082 0 1.815.672 1.815 2.003v3.357zm13.146-2.835v-3.805h-1.555v3.606c0 1.181-.547 1.754-1.492 1.754-1.019 0-1.728-.672-1.728-1.99v-3.37h-1.555v3.606c0 1.181-.547 1.754-1.492 1.754-1.032 0-1.729-.672-1.729-1.99v-3.37H382.1v6.64h1.48v-.845c.497.597 1.268.92 2.176.92.97 0 1.778-.36 2.239-1.107.534.684 1.43 1.107 2.486 1.107 1.605 0 2.724-.908 2.724-2.91"/></g><use xlink:href="#M" class="I"/><path d="M345.751 241.169c0 .404-.321.656-.81.838l-.377-1.913c.754.153 1.187.544 1.187 1.075m-1.732 3.241l.405 2.011c-.796-.153-1.243-.586-1.257-1.117 0-.434.349-.685.852-.894m3.995-2.879c0-1.857-1.494-3.1-3.827-3.296l-.308-1.537h-1.397l.308 1.537c-1.328.126-2.501.544-3.213 1.076l.935 1.732c.741-.545 1.676-.894 2.641-.992l.475 2.361c-1.299.391-2.725.907-2.725 2.599 0 1.857 1.523 3.114 3.898 3.283l.307 1.536h1.397l-.307-1.551c.992-.097 1.9-.378 2.571-.796l-.852-1.732c-.601.404-1.328.643-2.082.727l-.489-2.459c1.285-.377 2.668-.88 2.668-2.488" class="M"/><path d="M337.744 294.112h49.434"/><use xlink:href="#X" class="I"/><path d="M337.744 326.952h49.434"/><path d="M387.178 325.952h-49.434v2h49.434z" class="I"/><path d="M337.744 358.604h49.434"/><g class="I"><path d="M387.178 357.604h-49.434v2h49.434z"/><use xlink:href="#N"/></g><g class="M"><path d="M368.215 344.72l-4.946-4.946-2.306-2.31-2.311 2.31 2.307 2.306 4.945 4.95z"/><path d="M363.269 339.774l-2.306-2.311-4.9 4.9 2.307 2.307 2.589-2.59z"/></g><use xlink:href="#Y" class="I"/><g class="M"><path d="M368.215 312.985l-4.946-4.945-2.306-2.311-2.311 2.311 2.307 2.306 4.945 4.95z"/><path d="M363.269 308.04l-2.306-2.311-4.9 4.9 2.307 2.306 2.589-2.589z"/></g><path d="M370.658 277.1a8.6 8.6 0 0 0-8.597-8.597 8.6 8.6 0 0 0-8.596 8.597 8.6 8.6 0 0 0 8.596 8.597 8.6 8.6 0 0 0 8.597-8.597" class="I"/><g class="M"><path d="M368.215 278.96l-4.946-4.946-2.306-2.31-2.311 2.31 2.307 2.307 4.945 4.95z"/><path d="M363.269 274.014l-2.306-2.31-4.9 4.899 2.307 2.307 2.589-2.589z"/><use xlink:href="#O"/><path d="M362.062 383.785l1.609-2.573 2.944-.735-1.95-2.325.211-3.028-2.814 1.137-2.814-1.137.211 3.028-1.95 2.325 2.944.735zm11.274 0l1.608-2.573 2.945-.735-1.95-2.325.211-3.028-2.814 1.137-2.814-1.137.211 3.028-1.95 2.325 2.944.735z"/></g></g><g clip-path="url(#C)"><path d="M280.235 233.628H221.73c-10.289 0-18.629 8.34-18.629 18.628v158.786c0 10.288 8.34 18.628 18.629 18.628h58.505c10.288 0 18.628-8.34 18.628-18.628V252.256c0-10.288-8.34-18.628-18.628-18.628" class="I"/><g clip-path="url(#D)" class="M Q"><path d="M279.613 429.669H222.35c-10.63 0-19.248-8.618-19.248-19.248v-157.54c0-10.633 8.62-19.253 19.253-19.253h57.258c10.633 0 19.252 8.62 19.252 19.253v157.535c0 10.633-8.619 19.253-19.252 19.253"/></g><path d="M298.865 420.052v-38.877h-95.763v38.877a9.62 9.62 0 0 0 9.621 9.616h76.521a9.62 9.62 0 0 0 9.621-9.616" class="I"/><g class="M"><path d="M222.846 404.047l.56 1.256c.696-.56 1.803-.958 2.873-.958 1.355 0 1.927.485 1.927 1.132 0 1.878-5.173.647-5.173 3.88 0 1.405 1.119 2.599 3.507 2.599 1.044 0 2.139-.274 2.897-.771l-.509-1.256c-.784.46-1.642.684-2.401.684-1.343 0-1.89-.523-1.89-1.181 0-1.853 5.161-.647 5.161-3.843 0-1.393-1.132-2.587-3.519-2.587-1.356 0-2.711.423-3.433 1.045m12.399-.559c-.373-.299-.933-.448-1.492-.448-1.455 0-2.289.771-2.289 2.239v3.196h-1.094v1.243h1.094v1.518h1.555v-1.518h1.778v-1.243h-1.778v-3.159c0-.647.323-.995.92-.995.324 0 .635.087.871.273z"/><use xlink:href="#P"/><path d="M250.617 406.932v-3.805h-1.555v3.606c0 1.181-.584 1.754-1.579 1.754-1.107 0-1.853-.672-1.853-2.002v-3.358h-1.555v6.64h1.48v-.857c.51.609 1.319.932 2.289.932 1.591 0 2.773-.908 2.773-2.91"/><use xlink:href="#Q"/><path d="M265.205 405.204v.771h-1.604c-1.057 0-1.343-.398-1.343-.883 0-.559.472-.92 1.268-.92.759 0 1.418.348 1.679 1.032m1.555 1.816v-3.893h-1.468v.808c-.373-.571-1.094-.895-2.089-.895-1.517 0-2.475.833-2.475 1.99 0 1.107.747 1.977 2.761 1.977h1.716v.1c0 .908-.547 1.442-1.654 1.442-.746 0-1.517-.248-2.014-.658l-.61 1.131c.709.547 1.741.821 2.811.821 1.915 0 3.022-.908 3.022-2.823m5.833 2.822v-1.48a1.97 1.97 0 0 1-.36.038c-1.182 0-1.928-.697-1.928-2.053v-3.22h-1.555v6.64h1.48v-.969c.448.696 1.257 1.044 2.363 1.044m6.23-3.395c0 1.269-.858 2.077-1.978 2.077s-1.977-.808-1.977-2.077.858-2.077 1.977-2.077 1.978.808 1.978 2.077m1.53 5.907v-9.227h-1.493v.858c-.522-.635-1.293-.945-2.201-.945-1.927 0-3.357 1.343-3.357 3.407s1.43 3.395 3.357 3.395c.858 0 1.617-.286 2.139-.895v3.407z"/></g><path d="M271.781 244.039h-39.978c-5.436 0-9.843 4.407-9.843 9.844v.745c0 5.436 4.407 9.844 9.843 9.844h39.978c5.436 0 9.843-4.408 9.843-9.844v-.745c0-5.437-4.407-9.844-9.843-9.844" class="I"/><path d="M226.047 305.271h49.434"/><path d="M275.481 304.271h-49.434v2h49.434z" class="I"/><path d="M226.047 338.11h49.434"/><path d="M275.481 337.11h-49.434v2h49.434z" class="I"/><path d="M226.047 369.763h49.434"/><g class="I"><path d="M275.481 368.763h-49.434v2h49.434zm-16.87-46.479a8.6 8.6 0 0 0-8.597-8.597 8.6 8.6 0 0 0-8.596 8.597 8.6 8.6 0 0 0 8.596 8.597 8.6 8.6 0 0 0 8.597-8.597"/></g><g class="M"><path d="M256.167 324.144l-4.945-4.946-2.307-2.31-2.31 2.31 2.306 2.306 4.946 4.95z"/><path d="M251.222 319.198l-2.307-2.311-4.899 4.9 2.307 2.307 2.588-2.59z"/></g><path d="M259.361 288.258a8.6 8.6 0 0 0-8.597-8.597 8.6 8.6 0 0 0-8.596 8.597 8.6 8.6 0 0 0 8.596 8.597 8.6 8.6 0 0 0 8.597-8.597" class="I"/><g class="M"><path d="M256.917 290.118l-4.946-4.945-2.306-2.311-2.31 2.311 2.306 2.306 4.945 4.95z"/><path d="M251.971 285.172l-2.307-2.311-4.899 4.9 2.307 2.306 2.589-2.589z"/></g><use xlink:href="#R" class="S"/><g class="M"><g clip-path="url(#E)" class="Q"><use xlink:href="#R"/></g><use xlink:href="#Z"/><use xlink:href="#a"/></g><g class="I"><path d="M289.3 418.912v-22.826l4.816 4.817v18.009z"/><path d="M298.933 418.912v-22.826l-4.817 4.817v18.009z"/></g><g clip-path="url(#F)" opacity=".3"><path d="M298.937 418.915v-22.833l-4.816 4.826-4.826-4.826v22.833z"/></g><g class="I"><use xlink:href="#S"/><use xlink:href="#S"/></g><g class="M"><g clip-path="url(#G)" class="Q"><use xlink:href="#S"/></g><path d="M289.731 431.035h-1.238a1.13 1.13 0 0 1-1.116-1.06l-.299-5.713c-.031-.585.42-1.06 1.004-1.06h1.238a1.13 1.13 0 0 1 1.115 1.06l.299 5.713c.031.585-.419 1.06-1.003 1.06m9.889 0h-2.905l.809 1.902c.088.207.121.431.096.648l-.171 1.5a1.19 1.19 0 0 1-1.182 1.054h-1.447a7.29 7.29 0 0 0-1.567-4.146l-.889-1.122a1.8 1.8 0 0 1-.391-1.019l-.28-5.344a1.23 1.23 0 0 1 1.239-1.306h5.069c.445 0 .877.196 1.184.537l.473.525c.187.208.316.46.378.732l.967 4.311c.09.4.002.819-.24 1.149a1.42 1.42 0 0 1-1.143.579m-49.606-34.949l1.609-2.573 2.944-.735-1.95-2.325.211-3.028-2.814 1.137-2.814-1.137.211 3.028-1.95 2.325 2.945.735zm-15.653-143.789c0 .404-.322.656-.811.838l-.376-1.914c.753.154 1.187.545 1.187 1.076m-1.732 3.24l.404 2.012c-.796-.153-1.243-.586-1.256-1.117 0-.434.349-.685.852-.895m3.995-2.878c0-1.857-1.494-3.1-3.828-3.296l-.307-1.537h-1.397l.307 1.537c-1.327.125-2.5.544-3.213 1.076l.936 1.732c.74-.545 1.676-.894 2.64-.992l.475 2.36c-1.298.392-2.724.908-2.724 2.6 0 1.857 1.523 3.114 3.898 3.283l.307 1.536h1.397l-.307-1.552c.992-.096 1.9-.377 2.57-.796l-.851-1.731c-.602.404-1.328.643-2.083.726l-.488-2.458c1.285-.378 2.668-.881 2.668-2.488"/></g></g><g clip-path="url(#H)"><path d="M165.764 222.47h-58.505c-10.288 0-18.629 8.34-18.629 18.628v158.786c0 10.288 8.341 18.628 18.629 18.628h58.505c10.289 0 18.629-8.34 18.629-18.628V241.098c0-10.288-8.34-18.628-18.629-18.628" class="S"/><g clip-path="url(#I)" opacity=".7" class="M"><path d="M165.476 418.512h-57.928c-10.447 0-18.917-8.47-18.917-18.917V241.387a18.92 18.92 0 0 1 18.917-18.917h57.928a18.92 18.92 0 0 1 18.917 18.917v158.208a18.92 18.92 0 0 1-18.917 18.917"/></g><g class="I"><use xlink:href="#T"/><use xlink:href="#T"/></g><g class="M"><path d="M127.015 394.493c0 .871-.659 1.256-1.878 1.256h-2.611v-2.512h2.611c1.219 0 1.878.385 1.878 1.256m-4.489 4.912v-2.4h2.288c1.119 0 1.753.398 1.753 1.194 0 .808-.634 1.206-1.753 1.206zm6.118-5.074c0-1.492-1.169-2.362-3.407-2.362h-4.328v8.705h4.079c2.089 0 3.209-.883 3.209-2.264 0-.895-.448-1.554-1.12-1.915.933-.298 1.567-1.032 1.567-2.164m5.584-.286v.771h-1.604c-1.057 0-1.343-.398-1.343-.883 0-.559.472-.92 1.268-.92.759 0 1.418.348 1.679 1.032m1.555 1.816v-3.893h-1.468v.808c-.373-.571-1.094-.895-2.089-.895-1.517 0-2.475.833-2.475 1.99 0 1.107.747 1.977 2.761 1.977h1.716v.1c0 .908-.547 1.442-1.654 1.442-.746 0-1.517-.248-2.014-.658l-.61 1.131c.709.547 1.741.821 2.811.821 1.915 0 3.022-.908 3.022-2.823m1.231-3.233l.597 1.181c.584-.385 1.48-.659 2.313-.659.983 0 1.393.274 1.393.734 0 1.268-4.104.075-4.104 2.723 0 1.256 1.132 2.077 2.922 2.077.883 0 1.891-.211 2.487-.572l-.596-1.181c-.635.373-1.269.497-1.903.497-.945 0-1.393-.311-1.393-.746 0-1.343 4.104-.149 4.104-2.748 0-1.244-1.144-2.052-3.009-2.052-1.107 0-2.214.323-2.811.746m7.164 5.981h1.555v-6.641h-1.555zm-.211 2.028c0 .522.422.932.995.932s.994-.385.994-.895c0-.547-.41-.97-.994-.97-.573 0-.995.41-.995.933m3.258-5.348c0 1.99 1.492 3.395 3.594 3.395 1.293 0 2.325-.535 2.835-1.542l-1.194-.696c-.398.634-.994.92-1.653.92-1.144 0-2.015-.796-2.015-2.077 0-1.293.871-2.077 2.015-2.077.659 0 1.255.286 1.653.921l1.194-.697c-.51-.995-1.542-1.554-2.835-1.554-2.102 0-3.594 1.417-3.594 3.407"/></g><use xlink:href="#b" class="S"/><g class="M"><g clip-path="url(#J)" class="Q"><use xlink:href="#b"/></g><path d="M139.894 311.856l-7.333-7.333-2.285 2.285 7.333 7.333z"/><path d="M132.561 314.141l7.333-7.333-2.285-2.285-7.333 7.333z"/></g><path d="M144.081 277.887a8.6 8.6 0 0 0-8.597-8.596c-4.748 0-8.596 3.848-8.596 8.596a8.6 8.6 0 0 0 8.596 8.597 8.6 8.6 0 0 0 8.597-8.597" class="I"/><g class="M"><path d="M141.637 279.747l-4.946-4.946-2.306-2.31-2.311 2.31 2.307 2.307 4.945 4.949z"/><path d="M136.692 274.801l-2.307-2.31-4.899 4.899 2.307 2.307 2.589-2.589z"/></g><path d="M156.501 232.881h-39.978c-5.436 0-9.843 4.407-9.843 9.844v.745c0 5.436 4.407 9.844 9.843 9.844h39.978c5.437 0 9.843-4.408 9.843-9.844v-.745c0-5.437-4.406-9.844-9.843-9.844" class="I"/><path d="M117.348 240.8c0 .404-.322.656-.811.838l-.376-1.914c.753.154 1.187.545 1.187 1.076m-1.732 3.24l.404 2.012c-.796-.153-1.242-.586-1.256-1.117 0-.434.349-.685.852-.895m3.995-2.878c0-1.857-1.494-3.1-3.828-3.296l-.307-1.537h-1.397l.308 1.537c-1.328.126-2.501.544-3.214 1.076l.936 1.732c.74-.545 1.676-.894 2.64-.992l.475 2.361c-1.298.391-2.724.907-2.724 2.599 0 1.857 1.523 3.114 3.898 3.283l.307 1.536h1.397l-.307-1.551c.992-.097 1.9-.378 2.57-.796l-.851-1.732c-.602.404-1.328.643-2.083.727l-.488-2.459c1.285-.378 2.668-.88 2.668-2.488" class="M"/><path d="M110.767 294.112h49.434"/><path d="M160.201 293.112h-49.434v2h49.434z" class="I"/><path d="M110.767 326.952h49.434"/><path d="M160.201 325.952h-49.434v2h49.434z" class="I"/><path d="M110.767 358.604h49.434"/><path d="M160.201 357.604h-49.434v2h49.434z" class="I"/><path d="M143.594 342.774a8.51 8.51 0 0 0-8.509-8.509 8.51 8.51 0 0 0-8.509 8.509 8.51 8.51 0 0 0 8.509 8.509 8.51 8.51 0 0 0 8.509-8.509" class="S"/><g class="M"><g clip-path="url(#K)" class="Q"><path d="M143.594 342.774a8.51 8.51 0 0 0-8.509-8.509 8.51 8.51 0 0 0-8.509 8.509 8.51 8.51 0 0 0 8.509 8.509 8.51 8.51 0 0 0 8.509-8.509"/></g><path d="M139.894 345.299l-7.333-7.333-2.285 2.285 7.333 7.333z"/><path d="M132.561 347.584l7.333-7.333-2.285-2.285-7.333 7.333z"/></g></g></g><g class="K"><path d="M86.289 69.564l-.886 1.289 1.058 1.45c.093.161 2.818-.079 2.818-.079l.241-.966-.402-1.127z" class="J T"/><path d="M57.052 71.98l1.127.804.323-.884-.807-1.693-1.207-1.368-1.773.32 1.127 2.178z" class="O P"/><g class="J"><use xlink:href="#c" class="U"/><use xlink:href="#c" class="L"/><path d="M83.55 50.072l-.14 1.561c-.516 4.101-2.196 10.2-2.196 10.2s-1.691 3.625-2.175 5.961-3.786 2.91-3.786 2.91-9.022 1.058-10.874.646-4.763 1.209-6.202.966-2.336-3.625-2.336-3.625a17.463 17.463 0 0 0 7.25-1.529c3.704-1.691 9.022-.886 9.022-.886a3.029 3.029 0 0 0 1.852-1.529c.564-1.209.564-8.538.402-9.022-1.058-3.175-.971-5.212-.667-6.4a3.194 3.194 0 0 1 .667-1.413z" class="U"/><path d="M83.55 50.072l-.14 1.561c-.81.063-3.08.124-4.763-.915-1.588-.974-3.897-1.304-4.937-1.408a3.194 3.194 0 0 1 .667-1.413z" class="L"/><path d="M84.664 49.064c-.376 1.058-.953 2.299-.953 2.299s-2.979.402-5.075-.886-5.477-1.45-5.477-1.45c.548-.336.918-1.357 1.148-2.252a14.269 14.269 0 0 0 .302-1.535s9.906 2.013 10.319 2.336c.153.127-.011.767-.265 1.487z" class="T"/><path d="M102.317 15.116l-12.015 7.252-1.193.72v-3.543l.828-.397 10.126-4.839s.484-8.779 1.773-7.408.482 8.215.482 8.215z" class="P"/><path d="M90.302 22.368l-1.193.72v-3.543l.828-.397a26.072 26.072 0 0 0 .365 3.22z" class="L"/><use xlink:href="#d" class="V"/><use xlink:href="#d" class="L"/><path d="M102.24 27.921s-4.098 1.786-6.813 2.442a5.35 5.35 0 0 1-1.886.217c-1.852-.323.484-2.646.484-2.646l.974-.151 5.228-.815s.564-8.054 1.529-7.408.484 8.361.484 8.361zm-17.319-7.249s-3.463 2.577-2.175 5.8-6.686-1.934-6.686-1.934 2.577-3.866 3.141-6.765 5.72 2.9 5.72 2.9z" class="P"/><path d="M84.664 49.064a18.256 18.256 0 0 0-4.657-1.085c-2.328-.265-4.461-.712-5.696-1.204a14.269 14.269 0 0 0 .302-1.535s9.906 2.013 10.319 2.336c.151.127-.013.767-.267 1.487zm10.761-18.7a5.35 5.35 0 0 1-1.886.217c-1.852-.323.484-2.646.484-2.646l.974-.151c.407.627.823 1.606.429 2.58z" class="L"/><path d="M79.282 22.122s-3.141-.079-4.268 1.209-.886 4.763-.886 4.763-.235 6.956 1.529 10.848a.529.529 0 0 1 .019.4c-.019.048-.019.019-.019.019s-1.127 5.075-2.254 5.961 2.416 1.934 6.615 2.416 5.879 1.691 5.879 1.691.725-.794.794-2.577-1.119-14.74-1.119-14.74 4.429 1.127 7.088-.241c0 0 1.209.646 2.336-1.127s-.794-3.704-.794-3.704-1.773 1.773-6.686-.564-6.707-4.432-8.234-4.352z" class="V"/></g><path d="M55.2 69.001h-.966v1.371l.966 2.175 1.371.241c.082 0 1.127-.241 1.127-.241l.323-.564s-3.545-1.373-2.82-2.982z" class="O T"/><g class="V"><path d="M85.484 70.289l-1.45 3.223 6.122 2.91 4.834.161s.402-1.127-1.209-1.691l-1.289-.241s-1.691-3.061-1.852-4.498c0 0-1.611.323-1.852 1.529-.003-.026-2.257 1.101-3.305-1.394z" class="J"/><path d="M54.475 68.678l-.492.402-2.164 1.773 4.993 6.615s2.818 1.209 4.109 0c0 0 .794-.794-.966-1.45 0 0-1.371.241-1.371-1.127s.323-2.818.794-3.141c0 0-1.209-.402-1.529-.079a5.112 5.112 0 0 0-.646.886s-2.889-1.14-2.728-3.879z" class="O"/></g><g class="J"><path d="M79.042 17.933a9.79 9.79 0 0 1-.323 1.206 4.188 4.188 0 0 0 5.363 2.305 6.662 6.662 0 0 1 .68-.611s-5.157-5.8-5.72-2.9zm-.445 10.758s2.498 3.302 6.122 3.384" class="L"/><path d="M93.525 31.925a.91.91 0 0 1-.148-.056q-.116.061-.238.114a1.52 1.52 0 0 0 .386-.058zm.857-4.557a4.1 4.1 0 0 0-.28-.323s-.529.529-1.836.63c.72.071 1.447-.034 2.117-.307zm-8.094 4.742l.016.172a16.05 16.05 0 0 0 3.223.265 16.77 16.77 0 0 1-3.238-.437zm-5.556 15.631c-4.188-.484-7.731-1.529-6.615-2.416s2.254-5.961 2.254-5.961 0 .029.019-.019a.53.53 0 0 0-.019-.4c-1.765-3.903-1.529-10.848-1.529-10.848s-.241-3.463.886-4.762c.839-.96 2.794-1.159 3.739-1.199a1.71 1.71 0 0 0-.265 0s-3.141-.079-4.268 1.209-.886 4.762-.886 4.762-.235 6.956 1.529 10.848a.53.53 0 0 1 .019.4c-.019.048-.019.019-.019.019s-1.119 5.059-2.257 5.945 2.416 1.934 6.615 2.416 5.879 1.691 5.879 1.691a2.05 2.05 0 0 0 .222-.325c-.818-.394-2.5-1.042-5.305-1.36z" class="L"/><circle cx="82.746" cy="17.37" r="4.188" class="P"/><use xlink:href="#e" class="L"/><use xlink:href="#e" y="-0.162" fill="#f569bc"/></g></g><path d="M102.615 3.916h59.63v59.625h-59.63z" fill="#f7df1e"/><path d="M108.381 47.477l5.329-3.225c1.029 1.823 1.963 3.366 4.207 3.366 2.151 0 3.506-.841 3.506-4.112V21.257h6.543v22.339c0 6.776-3.969 9.861-9.768 9.861-5.233 0-8.271-2.712-9.813-5.982m23.135-.701l5.326-3.085c1.402 2.291 3.225 3.969 6.451 3.969 2.712 0 4.44-1.355 4.44-3.225 0-2.244-1.775-3.037-4.763-4.347l-1.635-.701c-4.72-2.008-7.853-4.532-7.853-9.861 0-4.908 3.739-8.647 9.581-8.647 4.159 0 7.144 1.45 9.3 5.233l-5.093 3.273c-1.122-2.011-2.336-2.805-4.207-2.805-1.916 0-3.133 1.214-3.133 2.805 0 1.963 1.214 2.757 4.019 3.969l1.635.701c5.556 2.381 8.694 4.813 8.694 10.282 0 5.89-4.628 9.115-10.848 9.115-6.085 0-10.001-2.91-11.906-6.683"/><path d="M202.414 115.549s-2.717.191-4.395-2.72a9.758 9.758 0 0 0-1.156-1.643 5.556 5.556 0 0 1-.812-2.95c.093-2.156-2.156-13.967-2.156-13.967s.28-4.498-1.969-7.31c-1.482-1.852-3.612-7.144-4.895-10.562a.706.706 0 0 0 .302.159l-.053-.294h.053l-.664-3.649a16.637 16.637 0 0 1-2.424-3.672l.151-.032 1.99-.418s3.233-4.596 3.44-6.855h.265.373a77.788 77.788 0 0 1 8.959.468h0c0-.013-.021-.071-.048-.164h0a11.245 11.245 0 0 1-.291-1.384h.185l1.852-.122s6.374-7.123 4.03-8.435-4.781 5.906-4.781 5.906l-.794.143-.214.04c.021-.032.042-.061.066-.09s-10.403-.466-12.009-3c0 0-4.593-3.657-4.781-6.085a2.749 2.749 0 0 0-1.651-2.339 3.604 3.604 0 0 0-1.823-.341l-2.151.148.151.265h-.061a7.236 7.236 0 0 1-.339-.953h.045a5.2 5.2 0 0 1-.042-.198 5.061 5.061 0 0 0 3.728-6.234 2.024 2.024 0 0 0 .632-.019c.794-.161 1.352-.966 1.373-1.77v-.156-.032a2.72 2.72 0 0 0-1.045-2.09c-.429-.357-.942-.611-1.323-1.008-.463-.474-.717-1.109-1.077-1.667a4.948 4.948 0 0 0-2.54-1.976c-.775-.265-1.728-.291-2.323.265-.307.288-.484.706-.828.95-.495.355-1.167.249-1.773.32a3.381 3.381 0 0 0-2.548 1.908 4.395 4.395 0 0 0-.418 2.016 5.384 5.384 0 0 0 .169 1.416c.116.46.288.905.415 1.365.265.953.325 1.955.63 2.895a3.643 3.643 0 0 0 1.172 1.781l-.09.386c-.058 0-1.519.325-2.527 2.529-.794 1.738-3.495 3.532-4.683 4.257a1.953 1.953 0 0 0-.884 1.228 6.376 6.376 0 0 0-.151 1.558c-.021 1.13.214 2.693 1.122 4.675 2.061 4.498 3.561 6.466 3.561 6.466a41.91 41.91 0 0 0 .122 2.831c0 1.082-.079 2.159-.31 2.699-.196.455-.265 1.617-.249 2.945 0 2.545.249 5.866.249 5.866s.717.138 1.826.299l.691 12.15a5.842 5.842 0 0 1-1.323 4.059 8.98 8.98 0 0 1-1.664 1.588c-1.969 1.405-6.186 16.216-6.186 16.216s.206 0 .545.04l-1.296 3.617s5.181 3.969 8.332 2.884a3.053 3.053 0 0 1 1.058-.148c.622 0 1.953-.492 1.212-1.14a48.027 48.027 0 0 1-4.04-4.202 2.148 2.148 0 0 1 .291.172v-.029l.045.029s0-.146.034-.384l-.045-.016c.095-.974.397-3.44.995-3.725.749-.376 6.281-11.343 6.281-11.343l5.53-14.248s4.405 7.594 8.154 8.903v3.175s2.061 9.374 2.813 10.403 0 5.154 0 5.154a2.569 2.569 0 0 0 .505.445l-.601 3.397s4.313-.188 11.623 2.061c-.005.013 2.807-1.204.463-2.704zm-17.246-49.022l-.913.228-.18.045-.032-.18a1.852 1.852 0 0 1-.664.161 12.211 12.211 0 0 1-.556-3.162 21.304 21.304 0 0 1-.558-3.916c0-.683.114-1.278.37-1.614l.304.024.212.201.016.013.108.098h0l.114.101.018.016.122.108.021.019.124.106h0l.14.116.032.026.148.119h0l.146.116.034.026.161.122.034.024.153.114.026.019.175.124.042.029.185.127h.016l.18.119.042.029.193.124.042.026.18.111.034.021.206.122.05.029.214.119h.016l.209.111.05.026.222.111.045.021.206.095.04.019.233.101.056.024.241.098h0c-1.495 1.646-2.262 5.482-2.262 5.482z" fill="url(#W)"/><g fill="#4f4d59"><path d="M162.049 111.019l-1.738 4.85s4.762 3.651 7.858 2.895a8.649 8.649 0 0 1 1.421-.23c.64-.048 1.744-.516 1.058-1.109-2.196-1.921-5.125-5.49-5.125-5.49z" class="J N"/><path d="M190.966 110.562l-.823 4.667s4.21-.183 11.348 2.013c0 0 2.746-1.191.458-2.646 0 0-2.646.183-4.299-2.646s-2.646-2.471-2.646-2.471z" stroke="#0977fb" class="O"/></g><g class="N J"><path d="M169.18 76.705l.794 14.203a5.874 5.874 0 0 1-1.4 4.154 8.61 8.61 0 0 1-1.511 1.41c-1.921 1.373-6.04 15.83-6.04 15.83s4.667.265 5.948 1.191c0 0 .265-3.659 1.005-4.027s6.13-11.073 6.13-11.073l5.4-13.909s4.299 7.408 7.961 8.694v3.112s2.013 9.152 2.746 10.157 0 5.027 0 5.027 2.117 2.646 6.953-.183c0 0-1.556-1.738-1.463-3.844s-2.117-13.634-2.117-13.634.265-4.392-1.921-7.144-5.818-13.264-5.818-13.264l-2.519-5.419z" class="W"/><path d="M161.912 112.3s4.117-14.457 6.04-15.83a8.73 8.73 0 0 0 1.587-1.503 5.82 5.82 0 0 0 1.323-4.059l-.807-14.205 13.494-8.318-.183-.394-14.134 8.715.807 14.205a5.82 5.82 0 0 1-1.323 4.059 8.73 8.73 0 0 1-1.587 1.503c-1.918 1.371-6.04 15.827-6.04 15.827s4.667.265 5.948 1.191c0 0 0-.143.034-.373-1.802-.619-5.159-.818-5.159-.818zm29.191-.823s.733-4.027 0-5.027-2.746-10.157-2.746-10.157v-3.117c-3.659-1.281-7.961-8.694-7.961-8.694l-.317.831c1.241 1.968 4.551 6.853 7.459 7.869v3.111s2.013 9.152 2.746 10.157 0 5.027 0 5.027 1.021 1.286 3.276 1.111c-1.685-.14-2.455-1.111-2.455-1.111z" class="L"/></g><g class="X"><path d="M200.665 60.783l-1.797.119-.947.063v-2.289l1.244-.225.77-.14s2.381-7.046 4.667-5.765-3.937 8.236-3.937 8.236z"/><path d="M171.842 41.921l-1.556 7.408c-.365 2.834 8.509.55 8.509.55s-3.387-4.117-1.463-6.313z" class="J N"/></g><path d="M181.449 60.971l.183 1.738-2.836-.183-2.836-2.471-2.836-7.964-1.826-2.839-1.373-1.738.55-2.117.675.542c1.394 1.058 4.662 3.283 7.051 2.67a2.847 2.847 0 0 0 .325-.103l3.569 6.13z" class="J N T"/><path d="M171.201 44.86s-1.463.265-2.471 2.471c-.773 1.688-3.387 3.44-4.553 4.146a1.953 1.953 0 0 0-.886 1.233c-.235 1.042-.325 2.987.955 5.784 2.013 4.392 3.477 6.313 3.477 6.313s.365 4.392-.183 5.673 0 8.326 0 8.326 9.607 1.831 12.811 0 2.746-8.877 2.746-8.877 3.019 6.406 4.117 6.588l-.64-3.569s-3.569-3.844-3.752-8.784c0 0-1.098-4.485-.183-5.673 0 0 15.465 1.281 16.38.183 0 0-10.157-.458-11.713-2.929 0 0-4.485-3.569-4.667-5.948a2.63 2.63 0 0 0-1.373-2.156 3.582 3.582 0 0 0-2.051-.458l-2.066.143s3.569 6.313 3.387 7.144.183 7.504.183 7.504-4.13-8.877-5.948-9.882-3.937-5.144-3.937-5.144l.365-2.09" class="J L N"/><path d="M181.449 60.971l.183 1.738-2.836-.183-2.836-2.471-2.836-7.964-1.826-2.839-1.373-1.738.55-2.117.675.542-.127.722s2.117 4.133 3.934 5.141 5.948 9.882 5.948 9.882-.365-6.681-.183-7.504c.124-.558-1.479-3.643-2.521-5.572a2.847 2.847 0 0 0 .325-.103l3.569 6.13zm17.42-.069l-.947.063v-2.289l1.244-.225c-.434.574-.418 1.59-.296 2.45z" class="J L N"/><path d="M171.201 44.588s-1.463.265-2.471 2.471c-.773 1.688-3.387 3.44-4.553 4.146a1.953 1.953 0 0 0-.886 1.233c-.235 1.042-.325 2.987.955 5.784 2.013 4.392 3.477 6.313 3.477 6.313s.365 4.392-.183 5.673 0 8.326 0 8.326 9.607 1.831 12.811 0 2.746-8.877 2.746-8.877 3.016 6.395 4.117 6.591l-.64-3.569s-3.569-3.844-3.752-8.784c0 0-1.098-4.485-.183-5.673 0 0 3.569 3.844 7.596 3.752a75.766 75.766 0 0 1 8.784.458s-.915-2.929 0-4.027c0 0-10.157-.458-11.713-2.929 0 0-4.485-3.569-4.667-5.948a2.63 2.63 0 0 0-1.373-2.156 3.582 3.582 0 0 0-2.051-.458l-2.066.143s3.569 6.313 3.387 7.144.183 7.504.183 7.504-4.13-8.882-5.948-9.887-3.937-5.133-3.937-5.133l.365-2.09" class="J N W"/><use xlink:href="#f" class="J L N"/><g fill="#ba7855" class="J N"><ellipse cx="180.901" cy="62.111" rx=".32" ry=".458"/><ellipse cx="181.814" cy="65.312" rx=".32" ry=".458"/></g><path d="M168.182 78.433s-.55-7.046 0-8.326.183-5.673.183-5.673-1.463-1.921-3.477-6.313c-1.283-2.797-1.191-4.741-.955-5.784.117-.514.437-.958.886-1.233 1.167-.714 3.778-2.458 4.553-4.146.569-1.238 1.281-1.865 1.794-2.178l.034-.201s-1.463.265-2.471 2.471c-.773 1.688-3.387 3.44-4.553 4.146a1.95 1.95 0 0 0-.886 1.233c-.235 1.042-.325 2.987.955 5.784 2.013 4.392 3.477 6.313 3.477 6.313s.365 4.392-.183 5.673 0 8.326 0 8.326 6.863 1.307 10.922.606c-4.098.489-10.279-.698-10.279-.698zm12.351-24.239c-.124.564 0 3.879.103 5.911l.72 1.503-.183-7.504c.175-.794-3.04-6.525-3.36-7.091l-.667.045s3.572 6.313 3.387 7.136zm10.342 7.687c-4.027.093-7.596-3.752-7.596-3.752-.107.149-.185.317-.23.495 1.058.984 3.969 3.421 7.186 3.347a75.6 75.6 0 0 1 8.784.458l-.048-.164a72.97 72.97 0 0 0-8.096-.384zm-7.143 7.686s.037.571.016 1.429c.952 1.889 2.686 5.12 3.461 5.249l-.135-.751c-1.331-1.672-3.342-5.927-3.342-5.927z" class="J L N"/><g class="J N"><path d="M186.299 68.644l-1.945.41-1.535.323.823-2.289.574-.143.892-.222s1.281-6.406 3.844-5.948-2.654 7.869-2.654 7.869z" class="X"/><path d="M184.356 69.062l-1.535.323.823-2.289.574-.143a9.139 9.139 0 0 1 .138 2.109z" class="L"/></g><use xlink:href="#f" y="-0.183" class="W"/><g class="J N"><path d="M171.932 42.116l-.434 1.759a4.94 4.94 0 0 0 5.453 2.514c-.22-.939-.172-1.889.471-2.625z" class="L"/><circle cx="175.776" cy="41.384" r="4.942" class="X"/><path d="M180.068 40.024a2.646 2.646 0 0 0 1.101.069 1.812 1.812 0 0 0 1.339-1.728 2.646 2.646 0 0 0-1.019-2.04c-.418-.349-.918-.595-1.302-.984-.452-.463-.701-1.082-1.058-1.627a4.829 4.829 0 0 0-2.479-1.929c-.757-.265-1.685-.286-2.267.265-.299.283-.474.688-.807.929-.484.344-1.14.243-1.73.312a3.299 3.299 0 0 0-2.487 1.852 4.659 4.659 0 0 0-.243 3.175l.405 1.323c.265.931.317 1.908.614 2.826s.908 1.818 1.834 2.093a5.797 5.797 0 0 1 .59-2.987.857.857 0 0 1 .418-.466 1.011 1.011 0 0 1 .503 0 5.027 5.027 0 0 0 3.347-.677c.352-.212.9-.942 1.273-1.013.482-.082 1.468.497 1.971.609z" class="L"/><path d="M180.068 39.841a2.646 2.646 0 0 0 1.101.069 1.812 1.812 0 0 0 1.339-1.728 2.646 2.646 0 0 0-1.019-2.04c-.418-.349-.918-.595-1.302-.984-.452-.463-.701-1.082-1.058-1.627a4.829 4.829 0 0 0-2.479-1.929c-.757-.265-1.685-.286-2.267.265-.299.283-.474.688-.807.929-.484.344-1.14.243-1.73.312a3.299 3.299 0 0 0-2.487 1.852 4.659 4.659 0 0 0-.243 3.175l.405 1.323c.265.931.317 1.908.614 2.826s.908 1.818 1.834 2.093a5.797 5.797 0 0 1 .595-2.985.857.857 0 0 1 .418-.466 1.011 1.011 0 0 1 .503 0 5.027 5.027 0 0 0 3.347-.677c.352-.212.9-.942 1.273-1.013.476-.085 1.463.495 1.966.606z" fill="#503f43"/></g><path d="M229.373 23.529l-4.032 45.164-18.124 5.027-18.074-5.027-4.027-45.164z" fill="#e44d26"/><path d="M207.243 69.879l14.645-4.059 3.44-38.597h-18.084z" fill="#f16529"/><path d="M199.406 38.304h7.837v-5.54h-13.891l.132 1.487 1.363 15.266h12.398v-5.54h-7.332zm1.259 13.983h-5.556l.775 8.7 11.335 3.159h.026v-5.781h-.024l-6.17-1.667z" fill="#ebebeb"/><path d="M189.235 11.253h2.815v2.781h2.574v-2.781h2.815v8.424h-2.815v-2.82h-2.574v2.82h-2.815zm11.906 2.794h-2.479v-2.794h7.773v2.794h-2.479v5.63h-2.813v-5.63h0zm6.53-2.794h2.937l1.807 2.961 1.804-2.961h2.937v8.424h-2.805v-4.175l-1.937 2.995h-.048l-1.939-2.995v4.175h-2.757zm10.885 0h2.815v5.638h3.969v2.783h-6.776v-8.422z"/><path d="M207.224 49.517h6.821l-.643 7.186-6.178 1.667v5.776l11.359-3.149.082-.937 1.302-14.586.135-1.487h-12.877v5.54zm0-11.226v.013h13.383l.111-1.246.265-2.81.132-1.487h-13.891v5.527z" class="M"/><g class="K O"><path d="M66.977 56.872c-.516-1.511-1.259-3.44-1.852-3.879a.553.553 0 0 0-.116-.071h-.074v-1.865l-1.392.222a13.301 13.301 0 0 1-.505-2.066.96.96 0 0 0 1.045.209c-.024-.037-.042-.077-.064-.116l.064-.026a2.585 2.585 0 0 1-.336-1.267 4.614 4.614 0 0 1 .193-1.196c.249-.86.669-1.664.905-2.527a6.144 6.144 0 0 0 .212-1.709 6.228 6.228 0 0 0-.651-2.818 1.646 1.646 0 0 0-.492-.643 6.35 6.35 0 0 0-.603-.294 3.257 3.257 0 0 1-.876-.873 7.869 7.869 0 0 0-3.802-2.537 2.225 2.225 0 0 0-1.214-.095c-.934.265-1.275 1.41-2.032 2.016-.669.529-1.587.59-2.424.77a4.122 4.122 0 0 0-2.257 1.183 2.45 2.45 0 0 0-.606 1.635 1.643 1.643 0 0 0 .669 1.461 2.098 2.098 0 0 0 1.773.251 6.03 6.03 0 0 0 4.564 7.58l.164.291h0a12.486 12.486 0 0 1 1.13 2.955c-1.281.728-2.68 1.408-3.524 1.471a5.94 5.94 0 0 1-.183.976 5.39 5.39 0 0 1-1.109 2.183c-1.148 1.291-6.316 11.054-6.316 11.054l-.429 1.058c-3.209.394-8.445.963-9.909.669l-5.741-5.456s-1.852 1.416-1.693 3.135l-1.035-.984s-5.456 4.162 3.159 6.879l13.107 1.521c-1.249 3.768-2.413 8.152-2.053 10.538h.108a4.956 4.956 0 0 0 .749-.058l-.024.423-1.262 22.603s-.288 4.162 3.588 6.03c0 0 4.739 13.925 2.871 15.505 0 0 .222.116.595.28l-3.897 3.44s-2.871.717-4.45.574a1.14 1.14 0 0 0-1.259.849c0 .029 0 .058-.016.09v.037.093.034.079.034c0 .032 0 .061.019.093v.034q.013.05.032.098v.032c.013.032.029.064.045.095v.021c.019.032.037.064.058.095l.019.026q.034.05.077.101l.021.026c.029.034.061.066.095.101h.016l.106.09.024.018.13.093.032.021.151.087h.024l.161.079h.024l.188.077.04.016.209.069h.034l.225.058h.019l.265.05h.05l.265.04h.05l.304.029c.59.045 1.386.061 2.307.058h0v.034.079.034c0 .032 0 .061.019.093v.034q.013.05.032.098v.032c.013.032.029.064.045.095v.021c.019.032.037.064.058.095l.019.026q.034.05.077.101l.021.026c.029.034.061.066.095.101h.013l.106.09.024.018.13.093.032.021.148.087h.024l.161.079h.024l.188.077.04.016.209.069h.034l.225.058h.019l.265.05h.05l.265.04h.05l.304.029c3.733.288 15.647-.574 15.647-.574v-.034h0v-.042h0c.119-.556.691-3.786-1.341-6.175a3.11 3.11 0 0 0 .175-.198s-1.587-2.728-.717-3.588-4.204-15.658-4.204-15.658-2.728-4.307-1.148-9.189-.143-10.192-.143-10.192 3.77-1.117 3.839-5.755v-.431a1.524 1.524 0 0 0 .238.016 1.114 1.114 0 0 0 .159 0s-.717-2.585.143-4.45 2.728-.143 4.45-7.752c1.246-5.506 2.342-11.837 2.855-14.92a7.855 7.855 0 0 0-.315-3.813zm-32.761 16.14l-1.31-1.244c.434.18.915.355 1.453.529l4.934.579c-2.201.198-4.257.31-5.077.143z" fill="url(#V)"/><use xlink:href="#g" class="P"/><use xlink:href="#g" class="R"/></g><path d="M26.834 75.846L4.89 69.76 0 14.912h53.734l-4.895 54.84z" fill="#264de4"/><path d="M44.648 66.262l4.183-46.863h-21.96v51.782z" fill="#2965f1"/><path d="M11.224 39.733l.603 6.726h15.055v-6.726zm-1.212-13.615l.611 6.726h16.256v-6.726H9.999zm16.867 31.086h-.029l-7.493-2.024-.479-5.366h-6.765l.942 10.562 13.779 3.834h.032z" fill="#ebebeb"/><path d="M12.647 0h8.147v3.408h-4.741v3.408h4.741v3.408h-8.147zm9.79 0h8.147v2.963h-4.752v.593h4.741v6.816h-8.149V7.26h4.741v-.593h-4.741V0zm9.79 0h8.147v2.963h-4.765v.593h4.741v6.816H32.2V7.26h4.741v-.593H32.2V0z"/><g class="J K"><path d="M42.482 39.733l1.214-13.615H26.834v6.726h9.48l-.611 6.879h-8.869v6.726h8.284l-.794 8.731-7.49 2.029v6.998l13.79-3.823.101-1.138 1.587-17.711.164-1.807z" class="M"/><use xlink:href="#h" fill="#47465a"/><use xlink:href="#h" class="R"/><use xlink:href="#i" opacity=".3" class="M"/></g><g class="O K"><path d="M56.16 49.594s3.104 4.371 1.974 7.334 5.924-3.104 5.924-3.104-2.257-3.966-1.127-8.199z" class="P"/><path d="M55.314 131.241l-4.932 4.371s-2.82.706-4.371.564-2.257 2.397 1.41 2.68 15.372-.564 15.372-.564 1.127-4.514-2.257-7.051z" fill="#47465a"/></g><g class="J K"><use xlink:href="#j" class="U"/><use xlink:href="#j" class="R"/><path d="M61.661 131.945c-2.397 2.961-8.038 0-8.038 0a.9.9 0 0 0 .246-.384c1.035-2.813-3.49-16.259-3.49-16.259-3.807-1.834-4.233-6.204-4.233-6.204l-.997-22.601-.13-2.926 5.935-2.265 1.823-.696 6.072 4.654a10.999 10.999 0 0 1 .381 2.958c-.077 4.553-3.773 5.654-3.773 5.654s1.693 5.218.14 10.014 1.135 9.014 1.135 9.014 5.077 14.668 4.233 15.515.696 3.524.696 3.524z" class="U"/><path d="M59.23 88.223c-1.22-.175-3.688-1.643-4.956-2.439l-.794-.508s-1.27-3.527-4.654-.847a12.671 12.671 0 0 1-3.678 2.08 8.604 8.604 0 0 1-1.569.394l.312-5.577 3.95-2.397 3.111 2.381 1.823-.696 6.072 4.651a10.999 10.999 0 0 1 .381 2.958z" class="L"/><path d="M66.863 61.158c-.503 3.027-1.588 9.26-2.805 14.655-1.693 7.474-3.527 5.781-4.371 7.615s-.14 4.371-.14 4.371c-1.41.14-6.064-2.961-6.064-2.961s-1.27-3.527-4.654-.847-6.064 2.537-6.064 2.537c-.706-4.654 4.514-17.066 4.514-17.066s5.077-9.591 6.204-10.848a5.292 5.292 0 0 0 1.09-2.143 5.834 5.834 0 0 0 .18-.958c1.834-.14 6.35-3.244 6.35-3.244l3.527-.564v1.834a.529.529 0 0 1 .116.071c.579.442 1.323 2.326 1.818 3.81a7.718 7.718 0 0 1 .299 3.736z" fill="#e1a0a7"/></g><g class="O K"><path d="M50.382 74.404l-1.823-.212-13.973-1.622c-8.467-2.68-3.104-6.771-3.104-6.771l5.641 5.36c1.627.325 8.012-.434 10.872-.794l1.4-.185z" class="P"/><path d="M64.058 55.364s-3.667-2.961-9.178 6.628-6.771 8.038-6.771 8.038 1.127 4.233.564 5.077c0 0 3.807-.283 5.218 0s10.155-10.718 10.155-10.718 4.527-6.204.013-9.025z" class="L"/><path d="M63.918 54.801s-3.667-2.961-9.168 6.628-6.771 8.038-6.771 8.038 4.371 4.794 5.781 5.077 10.155-10.718 10.155-10.718 4.516-6.204.003-9.025z" class="L"/><path d="M48.556 74.2c.058-1.045-.336-2.881-.564-3.834l1.4-.185.987 4.233z" class="L"/><path d="M64.058 55.081s-3.667-2.961-9.178 6.63-6.771 8.038-6.771 8.038 1.127 4.233.564 5.077c0 0 3.807-.283 5.218 0s10.155-10.718 10.155-10.718 4.527-6.207.013-9.028z" fill="#e1a0a7"/></g><g class="J K"><path d="M63.082 45.913l-6.781 3.945a14.47 14.47 0 0 1 .794 1.291 5.95 5.95 0 0 0 1.185.119c1.807 0 2.646-1.897 3.739-3.175-.079-1.016.751-1.042 1.064-2.18z" class="L"/><circle cx="58.134" cy="45.069" r="5.924" class="P"/><path d="M50.647 40.278a4.048 4.048 0 0 1 2.217-1.164c.823-.177 1.725-.23 2.381-.757.743-.595 1.077-1.728 1.995-1.982a2.188 2.188 0 0 1 1.193.095 7.728 7.728 0 0 1 3.736 2.492 3.199 3.199 0 0 0 .863.86 6.244 6.244 0 0 1 .593.288 1.617 1.617 0 0 1 .482.632 6.133 6.133 0 0 1 .429 4.305c-.23.849-.643 1.638-.889 2.484s-.307 1.804.14 2.561c-.434.222-.982-.058-1.254-.463s-.355-.902-.497-1.371a5.226 5.226 0 0 0-1.529-2.381c-.444-.392-1.238-.656-1.548-.151-.119.196-.111.447-.214.651-.201.4-.794.479-1.172.265a1.797 1.797 0 0 1-.733-1.087c-.579-1.966-1.572-3.201-3.672-2.363-.794.312-1.707.529-2.461 0-.966-.709-.773-2.114-.058-2.916z" class="L"/><path d="M50.647 40.135a4.048 4.048 0 0 1 2.217-1.164c.823-.177 1.725-.23 2.381-.757.743-.595 1.077-1.728 1.995-1.982a2.188 2.188 0 0 1 1.193.095 7.728 7.728 0 0 1 3.736 2.492 3.199 3.199 0 0 0 .863.86 6.244 6.244 0 0 1 .593.288 1.617 1.617 0 0 1 .482.632 6.133 6.133 0 0 1 .429 4.305c-.23.849-.643 1.638-.889 2.484s-.307 1.804.14 2.561c-.434.222-.982-.058-1.254-.463s-.355-.902-.497-1.371a5.226 5.226 0 0 0-1.529-2.381c-.444-.392-1.238-.656-1.548-.151-.119.196-.111.447-.214.651-.201.4-.794.479-1.172.265a1.797 1.797 0 0 1-.733-1.087c-.579-1.966-1.572-3.201-3.672-2.363-.794.312-1.707.529-2.461 0-.966-.706-.773-2.111-.058-2.916z" fill="#8f5a6a"/></g><g class="O K"><path d="M64.738 53.602h-2.865l-5.781 2.68c-.095-.095-.968.069-1.521.183a5.834 5.834 0 0 0 .18-.958c1.834-.14 6.35-3.244 6.35-3.244l3.527-.564v1.834a.529.529 0 0 1 .111.069z" class="R"/><use xlink:href="#i" x="4.935" y="1.691" opacity=".3" class="M"/></g><path d="M47.487 83.852c-1.902 1.508-3.585 2.117-4.691 2.381 0 .106.021.209.037.31 0 0 2.68.14 6.064-2.537.524-.449 1.144-.773 1.812-.947-.738-.362-1.791-.339-3.223.794zm19.14-26.443c-.505-1.484-1.238-3.365-1.818-3.81a.53.53 0 0 0-.116-.071l-1.127.071c.579.442 1.146 2.185 1.651 3.667a7.72 7.72 0 0 1 .307 3.746c-.503 3.027-1.587 9.26-2.805 14.655-1.693 7.474-3.527 5.781-4.371 7.615-.693 1.503-.347 3.477-.196 4.141a3.55 3.55 0 0 0 1.466.373s-.706-2.537.14-4.371 2.68-.14 4.371-7.615c1.225-5.408 2.302-11.642 2.805-14.655a7.72 7.72 0 0 0-.307-3.746z" class="K O R"/></svg>