<?xml version="1.0" encoding="UTF-8" standalone="no"?>
<svg
   id="b0be4804-10ca-4842-b31b-b943f29dadcb"
   data-name="Layer 1"
   width="731.41339"
   height="522.40206"
   viewBox="0 0 731.41339 522.40206"
   version="1.1"
   sodipodi:docname="JWS-Aruba-Graphic-Branding-Design.svg"
   inkscape:version="1.1.2 (0a00cf5339, 2022-02-04, custom)"
   xmlns:inkscape="http://www.inkscape.org/namespaces/inkscape"
   xmlns:sodipodi="http://sodipodi.sourceforge.net/DTD/sodipodi-0.dtd"
   xmlns="http://www.w3.org/2000/svg"
   xmlns:svg="http://www.w3.org/2000/svg">
  <defs
     id="defs6629" />
  <sodipodi:namedview
     id="namedview6627"
     pagecolor="#ffffff"
     bordercolor="#666666"
     borderopacity="1.0"
     inkscape:pageshadow="2"
     inkscape:pageopacity="0.0"
     inkscape:pagecheckerboard="0"
     showgrid="false"
     inkscape:zoom="1.5026741"
     inkscape:cx="365.68142"
     inkscape:cy="275.1761"
     inkscape:window-width="1920"
     inkscape:window-height="991"
     inkscape:window-x="-9"
     inkscape:window-y="-9"
     inkscape:window-maximized="1"
     inkscape:current-layer="b0be4804-10ca-4842-b31b-b943f29dadcb" />
  <rect
     y="324.17081"
     width="394.48224"
     height="2"
     fill="#e6e6e6"
     id="rect6596"
     x="163.30064"
     style="fill:#ffffff;stroke-width:0.951197" />
  <rect
     y="246.17081"
     width="394.48224"
     height="2"
     fill="#e6e6e6"
     id="rect6598"
     x="163.30064"
     style="fill:#ffffff;stroke-width:0.951197" />
  <rect
     y="168.17081"
     width="394.48224"
     height="2"
     fill="#e6e6e6"
     id="rect6600"
     x="163.30064"
     style="fill:#ffffff;stroke-width:0.951197" />
  <rect
     x="477.98166"
     width="1.8095516"
     height="312"
     fill="#e6e6e6"
     id="rect6602"
     y="91.170799"
     style="fill:#ffffff;stroke-width:0.951197" />
  <rect
     x="399.08527"
     width="1.8095516"
     height="312"
     fill="#e6e6e6"
     id="rect6604"
     y="91.170799"
     style="fill:#ffffff;stroke-width:0.951197" />
  <rect
     x="320.18878"
     width="1.8095516"
     height="312"
     fill="#e6e6e6"
     id="rect6606"
     y="91.170799"
     style="fill:#ffffff;stroke-width:0.951197" />
  <rect
     x="241.29228"
     width="1.8095516"
     height="312"
     fill="#e6e6e6"
     id="rect6608"
     y="91.170799"
     style="fill:#ffffff;stroke-width:0.951197" />
  <rect
     x="242.01614"
     y="169.17081"
     width="158.33577"
     height="78"
     fill="#00b0ff"
     id="rect6610"
     style="stroke-width:0.951197" />
  <path
     d="M 321.56516,241.23383"
     fill="#00b0ff"
     id="path6612"
     style="stroke-width:0.951197" />
  <polygon
     points="178,153 87,150 87,234 "
     fill="#00b0ff"
     id="polygon6614"
     transform="matrix(0.90477581,0,0,1,163.30064,91.170801)" />
  <path
     d="m 400.35189,244.17083 v 3 l -1.03155,1.01 -2.08081,2.04 c -40.47062,1.35 -73.16006,33.39 -74.63517,73.12 l -1.85462,1.82 -0.018,0.01 v -84 z"
     fill="#00b0ff"
     id="path6616"
     style="stroke-width:0.951197" />
  <path
     d="m 399.89951,248.17083 c -0.19,0 -0.38921,0 -0.57917,0.01 -43.04887,0.3 -78.03692,34.62 -78.5706,76.98 -0.018,0.34 -0.018,0.67 -0.018,1.01 0,43.01 35.51246,78 79.16789,78 43.65543,0 79.16788,-34.99 79.16788,-78 0,-43.01 -35.51247,-78 -79.1679,-78 z m 0,154 c -42.65125,0 -77.35833,-34.09 -77.35833,-76 0,-0.95 0.0181,-1.89 0.0631,-2.83 1.47511,-39.73 34.16457,-71.77 74.63517,-73.12 0.87782,-0.04 1.76404,-0.05 2.65999,-0.05 42.65125,0 77.35833,34.09 77.35833,76 0,41.91 -34.70708,76 -77.35833,76 z"
     fill="#e6e6e6"
     id="path6618"
     style="stroke-width:0.951197;fill:#ffffff" />
  <path
     d="m 356.47027,325.18691 -4.52388,-0.0278 c 0.002,-0.44482 0.72654,-44.48047 47.00417,-47.53467 l 0.26948,4.99121 c -41.97079,2.77002 -42.73774,40.94776 -42.74977,42.57129 z"
     fill="#e6e6e6"
     id="path6620"
     style="stroke-width:0.951197" />
  <path
     d="m 445.57258,324.17083 a 38.485589,42.53605 0 0 0 -12.64877,-30.11 48.348215,53.43668 0 0 0 -32.93375,-13.95 h -0.0905 c -24.85395,0 -45.13939,19.67 -45.67308,44.06 -0.018,0.33 -0.018,0.67 -0.018,1 0,12.76 5.4017,24.29 14.06909,32.49 a 48.535115,53.64325 0 0 0 31.62209,12.57 h 0.0905 c 25.15259,-0.05 45.60061,-20.24 45.60061,-45.06 2e-5,-0.33 2e-5,-0.67 -0.0181,-1 z"
     fill="#e6e6e6"
     id="path6622"
     style="stroke-width:0.951197" />
  <path
     d="m 432.92383,294.06083 -1.35716,1.33 -61.93208,60.94 -1.35717,1.33 c -8.66738,-8.2 -14.06908,-19.73 -14.06908,-32.49 0,-0.33 0,-0.67 0.018,-1 0.53367,-24.39 20.81911,-44.06 45.67308,-44.06 h 0.0905 a 48.348215,53.43668 0 0 1 32.93377,13.95 z"
     fill="#00b0ff"
     id="path6624"
     style="fill:#2a7fff;stroke-width:0.951197" />
</svg>
