<?xml version="1.0" encoding="UTF-8" standalone="no"?>
<svg
   height="331.01865"
   width="389.29834"
   version="1.1"
   id="svg4071"
   sodipodi:docname="juntech-aruba-frequently-asked-questions.svg"
   inkscape:version="1.1 (c68e22c387, 2021-05-23)"
   xmlns:inkscape="http://www.inkscape.org/namespaces/inkscape"
   xmlns:sodipodi="http://sodipodi.sourceforge.net/DTD/sodipodi-0.dtd"
   xmlns="http://www.w3.org/2000/svg"
   xmlns:svg="http://www.w3.org/2000/svg"
   xmlns:rdf="http://www.w3.org/1999/02/22-rdf-syntax-ns#"
   xmlns:cc="http://creativecommons.org/ns#"
   xmlns:dc="http://purl.org/dc/elements/1.1/">
  <metadata
     id="metadata4077">
    <rdf:RDF>
      <cc:Work
         rdf:about="">
        <dc:format>image/svg+xml</dc:format>
        <dc:type
           rdf:resource="http://purl.org/dc/dcmitype/StillImage" />
      </cc:Work>
    </rdf:RDF>
  </metadata>
  <defs
     id="defs4075" />
  <sodipodi:namedview
     pagecolor="#ffffff"
     bordercolor="#666666"
     borderopacity="1"
     objecttolerance="10"
     gridtolerance="10"
     guidetolerance="10"
     inkscape:pageopacity="0"
     inkscape:pageshadow="2"
     inkscape:window-width="1920"
     inkscape:window-height="1003"
     id="namedview4073"
     showgrid="false"
     inkscape:zoom="2"
     inkscape:cx="206.75"
     inkscape:cy="187.75"
     inkscape:window-x="-9"
     inkscape:window-y="-9"
     inkscape:window-maximized="1"
     inkscape:current-layer="svg4071"
     inkscape:pagecheckerboard="0" />
  <g
     fill="#2f2e41"
     id="g4027"
     transform="translate(-49.701673,4.0186319)">
    <ellipse
       ry="4.0890002"
       rx="10.903"
       cy="300.45999"
       cx="171.714"
       id="ellipse4017" />
    <ellipse
       ry="4.0890002"
       rx="10.903"
       cy="299.91501"
       cx="197.882"
       id="ellipse4019" />
    <ellipse
       transform="rotate(-29.963)"
       ry="6.7600002"
       rx="21.534"
       cy="313.254"
       cx="84.023003"
       id="ellipse4021" />
    <circle
       transform="rotate(-80.783)"
       r="43.067001"
       cy="217.022"
       cx="-210.907"
       id="circle4023" />
    <path
       d="m 160.811,276.746 h 13.084 v 23.442 h -13.084 z m 26.167,0 h 13.084 v 23.442 h -13.084 z"
       id="path4025" />
  </g>
  <circle
     fill="#ffffff"
     r="14.719"
     cy="236.06163"
     cx="131.82533"
     id="circle4029" />
  <circle
     fill="#3f3d56"
     r="4.9060001"
     cy="236.06163"
     cx="131.82533"
     id="circle4031" />
  <path
     fill="#e6e6e6"
     d="m 88.958331,206.91363 c -3.477,-15.574 7.639,-31.31 24.828999,-35.149 17.19,-3.839 33.944,5.675 37.422,21.249 3.478,15.574 -7.915,21.318 -25.105,25.156 -17.19,3.838 -33.667999,4.318 -37.144999,-11.256 z"
     id="path4033"
     style="fill:#0066ff" />
  <ellipse
     fill="#2f2e41"
     transform="rotate(-64.626)"
     ry="21.534"
     rx="6.7600002"
     cy="171.56213"
     cx="-169.84737"
     id="ellipse4035" />
  <path
     fill="#ffffff"
     d="m 109.58033,262.50163 c 0,4.215 10.853,12.539 22.897,12.539 12.044,0 23.335,-11.867 23.335,-16.082 0,-4.215 -11.292,0.818 -23.335,0.818 -12.043,0 -22.897,-1.489 -22.897,2.726 z"
     id="path4037" />
  <g
     fill="#2f2e41"
     id="g4049"
     transform="translate(-49.701673,4.0186319)">
    <ellipse
       ry="4.0890002"
       rx="10.903"
       cy="300.45999"
       cx="330.60901"
       id="ellipse4039" />
    <ellipse
       ry="4.0890002"
       rx="10.903"
       cy="299.91501"
       cx="304.44101"
       id="ellipse4041" />
    <ellipse
       transform="rotate(-60.037)"
       ry="21.534"
       rx="6.7600002"
       cy="351.16501"
       cx="-62.376999"
       id="ellipse4043" />
    <circle
       r="43.067001"
       cy="242.946"
       cx="321.88599"
       id="circle4045" />
    <path
       d="m 328.428,276.746 h 13.084 v 23.442 h -13.084 z m -26.167,0 h 13.084 v 23.442 h -13.084 z"
       id="path4047" />
  </g>
  <circle
     fill="#ffffff"
     r="14.719"
     cy="236.06163"
     cx="262.09433"
     id="circle4051" />
  <ellipse
     fill="#3f3d56"
     transform="rotate(-44.974)"
     ry="4.8860002"
     rx="4.921"
     cy="345.87949"
     cx="15.027354"
     id="ellipse4053" />
  <path
     fill="#2a7fff"
     d="m 276.81634,218.16963 c -17.19,-3.838 -28.58201,-9.582 -25.105,-25.156 3.477,-15.574 20.232,-25.087 37.422,-21.249 17.19,3.838 28.306,19.575 24.829,35.149 -3.477,15.574 -19.956,15.094 -37.145,11.256 z"
     id="path4055"
     style="fill:#cccccc" />
  <ellipse
     fill="#2f2e41"
     transform="rotate(-14.875)"
     ry="21.534"
     rx="6.7600002"
     cy="330.31601"
     cx="234.7663"
     id="ellipse4057" />
  <path
     fill="#ffffff"
     d="m 262.42734,259.77663 c -7.907,0 -15.32001,-5.033 -15.32001,-0.818 0,4.215 7.41301,16.082 15.32001,16.082 7.907,0 15.032,-8.323 15.032,-12.539 0,-4.216 -7.125,-2.726 -15.032,-2.726 z"
     id="path4059" />
  <path
     d="m 206.77033,175.55763 h -3.825 a 12.937,12.937 0 0 1 -12.923,-12.923 v -3.211 c 0,-7.953 1.507,-14.612 4.479,-19.792 a 104.114,104.114 0 0 1 12.542,-16.852 74.269,74.269 0 0 0 8.528,-10.279 17.29,17.29 0 0 0 2.693,-9.562 c 0,-7.978 -5.198,-11.856 -15.891,-11.856 a 64.526,64.526 0 0 0 -17.515,2.629 14.745,14.745 0 0 1 -18.792,-14.178 v -6.5 a 14.463,14.463 0 0 1 8.532,-13.256 78.083,78.083 0 0 1 31.81,-6.258 c 11.444,0 21.775,1.922 30.707,5.713 8.948,3.799 16.01701,9.157 21.01101,15.924 a 38.352,38.352 0 0 1 7.536,23.244 c 0,8.98 -2.452,16.801 -7.287,23.247 -4.782,6.38 -11.63801,13.364 -20.37601,20.76 a 145.204,145.204 0 0 0 -13.063,12.307 22.718,22.718 0 0 0 -5.431,10.111 12.888,12.888 0 0 1 -12.736,10.733 z m -2.127,60.772 h -0.504 a 23.951,23.951 0 0 1 0,-47.902 h 0.504 a 23.951,23.951 0 1 1 0,47.902 z"
     fill="#00b0ff"
     id="path4061"
     style="fill:#2a7fff;stroke:#0008ff;stroke-width:0.7;stroke-miterlimit:4;stroke-dasharray:none;stroke-opacity:1" />
  <g
     fill="#f2f2f2"
     id="g4069"
     transform="translate(-49.701673,4.0186319)" />
</svg>
