<svg xmlns="http://www.w3.org/2000/svg" xmlns:svg="http://www.w3.org/2000/svg" xmlns:xlink="http://www.w3.org/1999/xlink" id="svg16460" width="666.184" height="561.115" version="1.1" viewBox="0 0 176.261 148.462"><style id="style15976">.I{fill:#007cff}.J{stroke-width:.265}.K{stroke:#f4f7fb}.M{fill:#fff}.Q{opacity:.5}.S{fill:#1a2e35}</style><defs id="defs16042"><clipPath id="A"><path id="path15978" d="M 0,500 H 500 V 0 H 0 Z"/></clipPath><clipPath id="B"><path id="path15981" d="M 315.607,418.512 H 411.37 V 222.469 h -95.763 z"/></clipPath><clipPath id="C"><path id="path15984" d="M 0,500 H 500 V 0 H 0 Z"/></clipPath><clipPath id="D"><path id="path15987" d="m 203.102,429.668 h 95.764 v -196.04 h -95.764 z"/></clipPath><clipPath id="E"><path id="path15990" d="m 241.505,362.442 h 17.018 v -17.018 h -17.018 z"/></clipPath><clipPath id="F"><path id="path15993" d="m 289.295,418.915 h 9.642 v -22.834 h -9.642 z"/></clipPath><clipPath id="G"><path id="path15996" d="M 279.654,443.173 H 308.46 V 413.171 H 279.654 Z"/></clipPath><clipPath id="H"><path id="path15999" d="M 0,500 H 500 V 0 H 0 Z"/></clipPath><clipPath id="I"><path id="path16002" d="m 88.63,418.512 h 95.763 V 222.469 H 88.63 Z"/></clipPath><clipPath id="J"><path id="path16005" d="m 126.576,317.841 h 17.018 v -17.018 h -17.018 z"/></clipPath><clipPath id="K"><path id="path16008" d="m 126.576,351.284 h 17.018 v -17.018 h -17.018 z"/></clipPath><path id="L" d="m 347.948,398.684 v -1.48 a 1.97,1.97 0 0 1 -0.36,0.038 c -1.182,0 -1.928,-0.697 -1.928,-2.053 v -3.22 h -1.555 v 6.64 h 1.48 v -0.969 c 0.448,0.696 1.257,1.044 2.363,1.044"/><path id="M" d="m 383.477,232.881 h -39.978 c -5.436,0 -9.843,4.407 -9.843,9.844 v 0.745 c 0,5.436 4.407,9.844 9.843,9.844 h 39.978 c 5.436,0 9.843,-4.408 9.843,-9.844 v -0.745 c 0,-5.437 -4.407,-9.844 -9.843,-9.844"/><path id="N" d="m 370.658,342.86 a 8.6,8.6 0 0 0 -8.597,-8.597 8.6,8.6 0 0 0 -8.596,8.597 8.6,8.6 0 0 0 8.596,8.597 8.6,8.6 0 0 0 8.597,-8.597"/><path id="O" d="m 350.787,383.785 1.609,-2.573 2.944,-0.735 -1.95,-2.325 0.211,-3.028 -2.814,1.137 -2.814,-1.137 0.211,3.028 -1.95,2.325 2.944,0.735 z"/><path id="P" d="m 240.531,405.204 v 0.771 h -1.604 c -1.057,0 -1.343,-0.398 -1.343,-0.883 0,-0.559 0.472,-0.92 1.268,-0.92 0.759,0 1.418,0.348 1.679,1.032 m 1.555,1.816 v -3.893 h -1.468 v 0.808 c -0.373,-0.571 -1.094,-0.895 -2.089,-0.895 -1.517,0 -2.475,0.833 -2.475,1.99 0,1.107 0.747,1.977 2.761,1.977 h 1.716 v 0.1 c 0,0.908 -0.547,1.442 -1.654,1.442 -0.746,0 -1.517,-0.248 -2.014,-0.658 l -0.61,1.131 c 0.709,0.547 1.741,0.821 2.811,0.821 1.915,0 3.022,-0.908 3.022,-2.823"/><path id="Q" d="m 257.631,406.447 c 0,1.269 -0.858,2.077 -1.978,2.077 -1.12,0 -1.977,-0.808 -1.977,-2.077 0,-1.269 0.858,-2.077 1.977,-2.077 1.119,0 1.978,0.808 1.978,2.077 m 1.53,5.907 v -9.227 h -1.493 v 0.858 c -0.522,-0.635 -1.293,-0.945 -2.201,-0.945 -1.927,0 -3.357,1.343 -3.357,3.407 0,2.064 1.43,3.395 3.357,3.395 0.858,0 1.617,-0.286 2.139,-0.895 v 3.407 z"/><path id="R" d="m 258.524,353.933 a 8.51,8.51 0 0 0 -8.509,-8.509 8.51,8.51 0 0 0 -8.509,8.509 8.51,8.51 0 0 0 8.509,8.509 8.51,8.51 0 0 0 8.509,-8.509"/><path id="S" d="m 296.468,441.727 v 0 a 2.73,2.73 0 0 1 3.605,-1.171 c 1.966,0.955 4.203,-0.67 3.901,-2.835 -0.202,-1.455 0.782,-2.81 2.229,-3.067 2.152,-0.382 3.007,-3.011 1.49,-4.586 -1.019,-1.058 -1.019,-2.733 0,-3.791 1.517,-1.574 0.662,-4.204 -1.49,-4.586 -1.447,-0.257 -2.431,-1.612 -2.229,-3.067 0.302,-2.166 -1.935,-3.791 -3.901,-2.834 a 2.73,2.73 0 0 1 -3.605,-1.172 c -1.029,-1.929 -3.793,-1.929 -4.822,0 -0.692,1.297 -2.284,1.814 -3.606,1.172 -1.966,-0.957 -4.202,0.668 -3.901,2.834 a 2.73,2.73 0 0 1 -2.228,3.067 c -2.152,0.382 -3.007,3.012 -1.49,4.586 1.019,1.058 1.019,2.733 0,3.791 -1.517,1.575 -0.662,4.204 1.49,4.586 a 2.73,2.73 0 0 1 2.228,3.067 c -0.301,2.165 1.935,3.79 3.901,2.835 1.322,-0.643 2.914,-0.125 3.606,1.171 1.029,1.929 3.793,1.929 4.822,0"/><path id="T" d="M 184.393,408.894 V 370.016 H 88.63 v 38.878 a 9.62,9.62 0 0 0 9.621,9.616 h 76.521 a 9.62,9.62 0 0 0 9.621,-9.616"/><linearGradient id="U" gradientUnits="userSpaceOnUse"><stop id="stop16020" offset="0" stop-color="gray" stop-opacity=".25"/><stop id="stop16022" offset=".54" stop-color="gray" stop-opacity=".12"/><stop id="stop16024" offset="1" stop-color="gray" stop-opacity=".1"/></linearGradient><linearGradient id="V" x1="47.083" x2="47.083" y1="139.832" y2="35.266" xlink:href="#U"/><linearGradient id="W" x1="182.708" x2="182.708" y1="119.933" y2="30.358" xlink:href="#U"/><path id="X" d="m 387.178,293.112 h -49.434 v 2 h 49.434 z"/><path id="Y" d="m 370.658,311.126 a 8.6,8.6 0 0 0 -8.597,-8.597 8.6,8.6 0 0 0 -8.596,8.597 8.6,8.6 0 0 0 8.596,8.597 8.6,8.6 0 0 0 8.597,-8.597"/><path id="Z" d="m 254.823,356.457 -7.333,-7.333 -2.285,2.285 7.333,7.333 z"/><path id="a" d="m 247.49,358.742 7.333,-7.333 -2.285,-2.285 -7.333,7.333 z"/><path id="b" d="m 143.594,309.333 a 8.51,8.51 0 0 0 -8.509,-8.509 8.51,8.51 0 0 0 -8.509,8.509 8.51,8.51 0 0 0 8.509,8.509 8.51,8.51 0 0 0 8.509,-8.509"/><path id="c" d="m 85.484,47.898 c 0,0 9.424,2.254 11.195,4.763 0,0 1.611,1.371 0,3.866 -1.611,2.495 -3.866,8.136 -3.866,8.136 0,0 -1.611,5.477 -2.254,5.879 -0.643,0.402 -4.35,0.725 -4.673,-0.794 0,0 2.093,-3.302 2.093,-4.834 0,-1.532 3.463,-8.779 3.463,-8.779 0,0 -7.893,-0.886 -10.39,-0.323 -2.497,0.563 1.13,-8.8 4.432,-7.914 z"/><path id="d" d="m 81.055,23.664 8.617,-4.993 c 0,0 0.161,4.834 1.127,5.556 0,0 -3.543,1.058 -4.913,3.302 z"/><path id="e" d="m 88.707,15.497 c -0.347,0.868 -1.381,1.196 -2.289,1.421 -1.296,0.317 -2.693,0.63 -3.934,0.138 a 0.86,0.86 0 0 0 -0.529,-0.103 0.704,0.704 0 0 0 -0.349,0.304 c -1.368,1.947 -1.146,4.543 -1.5,6.898 -0.111,0.733 -0.299,1.49 -0.794,2.037 -0.963,1.058 -2.781,1.019 -3.667,2.143 -0.585,0.741 -0.59,1.77 -0.585,2.715 q 0,1.511 -0.026,3.024 c -0.016,0.661 -0.048,1.347 -0.347,1.934 -0.508,0.995 -1.64,1.468 -2.686,1.852 -0.651,0.243 -1.323,0.489 -2.021,0.423 -0.698,-0.066 -1.397,-0.529 -1.487,-1.228 -0.124,-0.947 0.852,-1.609 1.524,-2.291 1.074,-1.087 1.516,-2.67 1.556,-4.199 a 4.498,4.498 0 0 0 -0.265,-1.818 c -0.246,-0.601 -0.685,-1.106 -0.95,-1.699 -0.815,-1.826 0.191,-3.937 1.394,-5.535 1.203,-1.598 2.683,-3.156 2.94,-5.138 a 7.125,7.125 0 0 1 0.183,-1.273 c 0.185,-0.577 0.624,-2.17 1.109,-2.535 a 5.76,5.76 0 0 1 2.646,-1.101 c 0.743,-0.108 1.503,-0.069 2.241,-0.212 0.863,-0.167 1.664,-0.577 2.527,-0.73 1.865,-0.331 3.889,1.836 4.707,3.545 0.225,0.524 0.815,0.894 0.603,1.426 z"/><path id="f" d="m 169.18,54.195 c 0,0 2.196,7.408 3.477,8.326 1.281,0.918 9.059,5.583 11.348,4.485 0,0 0.55,2.746 -0.265,3.387 l -8.602,-0.365 c 0,0 -5.583,-0.733 -6.498,-3.477 -0.915,-2.744 -2.013,-7.408 -2.013,-7.408 z"/><path id="g" d="m 46.712,72.287 c 0,0 -10.155,1.41 -12.271,0.987 L 28.8,67.914 c 0,0 -5.36,4.09 3.104,6.771 L 47.7,76.519 Z"/><path id="h" d="m 50.382,129.548 -4.937,4.371 c 0,0 -2.82,0.706 -4.371,0.564 -1.551,-0.142 -2.257,2.397 1.41,2.68 3.667,0.283 15.372,-0.564 15.372,-0.564 0,0 1.127,-4.514 -2.257,-7.051 z"/><path id="i" d="m 58.031,134.649 a 7.779,7.779 0 0 1 -0.177,1.529 c 0,0 -11.705,0.847 -15.372,0.564 -1.765,-0.135 -2.514,-0.794 -2.646,-1.423 -0.161,0.725 0.479,1.68 2.646,1.852 3.667,0.283 15.372,-0.564 15.372,-0.564 a 8.149,8.149 0 0 0 0.177,-1.958 z"/><path id="j" d="m 56.732,130.254 c -0.736,0.908 -1.773,1.257 -2.858,1.31 -2.466,0.116 -5.181,-1.31 -5.181,-1.31 1.834,-1.55 -2.82,-15.232 -2.82,-15.232 -3.807,-1.834 -3.527,-5.924 -3.527,-5.924 L 43.58,86.9 l 0.312,-5.577 3.95,-2.397 3.111,2.381 2.953,2.265 a 11.869,11.869 0 0 1 0.37,2.201 c 0.344,5.183 -3.754,6.403 -3.754,6.403 0,0 1.693,5.218 0.14,10.014 -1.553,4.796 1.127,9.028 1.127,9.028 0,0 5.077,14.668 4.233,15.515 -0.844,0.847 0.709,3.522 0.709,3.522 z"/></defs><g id="g16262" transform="matrix(0.352778,0,0,-0.352778,1.801796,226.94431)"><g id="g16106" clip-path="url(#A)"><path id="path16044" d="m 392.741,222.47 h -58.505 c -10.289,0 -18.629,8.34 -18.629,18.628 v 158.786 c 0,10.288 8.34,18.628 18.629,18.628 h 58.505 a 18.63,18.63 0 0 0 18.628,-18.628 V 241.098 A 18.63,18.63 0 0 0 392.741,222.47" class="I"/><g id="g16048" clip-path="url(#B)" opacity=".3"><path id="path16046" d="m 392.949,418.512 h -58.922 c -10.174,0 -18.42,-8.247 -18.42,-18.42 V 240.889 c 0,-10.172 8.246,-18.419 18.42,-18.419 h 58.922 c 10.173,0 18.42,8.247 18.42,18.419 v 159.203 c 0,10.173 -8.247,18.42 -18.42,18.42"/></g><path id="path16050" d="m 411.37,408.894 v -38.878 h -95.763 v 38.878 a 9.62,9.62 0 0 0 9.621,9.616 h 76.521 a 9.62,9.62 0 0 0 9.621,-9.616" class="I"/><g id="g16058" class="M"><path id="path16052" d="m 341.07,397.577 c 0,1.095 -0.733,1.729 -2.151,1.729 h -1.891 v -3.458 h 1.891 c 1.418,0 2.151,0.635 2.151,1.729 m 1.629,0 c 0,-1.915 -1.418,-3.096 -3.706,-3.096 h -1.965 v -2.512 h -1.616 v 8.705 h 3.581 c 2.288,0 3.706,-1.169 3.706,-3.097"/><use id="use16054" width="100%" height="100%" x="0" y="0" xlink:href="#L"/><path id="path16056" d="m 350.199,395.824 h 3.768 c -0.124,0.958 -0.858,1.617 -1.878,1.617 -1.007,0 -1.741,-0.647 -1.89,-1.617 m 5.223,-1.032 h -5.211 c 0.187,-0.97 0.995,-1.592 2.152,-1.592 0.746,0 1.331,0.236 1.803,0.722 l 0.833,-0.958 c -0.597,-0.709 -1.529,-1.082 -2.674,-1.082 -2.226,0 -3.668,1.43 -3.668,3.407 0,1.977 1.455,3.395 3.432,3.395 1.94,0 3.358,-1.355 3.358,-3.432 a 6.65,6.65 0 0 0 -0.025,-0.46 m 12.623,0.982 v -3.805 h -1.555 v 3.606 c 0,1.181 -0.547,1.754 -1.492,1.754 -1.019,0 -1.728,-0.672 -1.728,-1.99 v -3.37 h -1.555 v 3.606 c 0,1.181 -0.547,1.754 -1.492,1.754 -1.032,0 -1.729,-0.672 -1.729,-1.99 v -3.37 h -1.554 v 6.64 h 1.48 v -0.845 c 0.497,0.597 1.268,0.92 2.176,0.92 0.97,0 1.778,-0.36 2.239,-1.107 0.534,0.684 1.43,1.107 2.486,1.107 1.605,0 2.724,-0.908 2.724,-2.91 m 1.991,2.835 h 1.555 v -6.641 h -1.555 z m -0.212,2.028 c 0,0.522 0.423,0.932 0.996,0.932 0.573,0 0.994,-0.385 0.994,-0.895 0,-0.547 -0.41,-0.97 -0.994,-0.97 -0.573,0 -0.996,0.41 -0.996,0.933 m 10.235,-2.028 v -6.641 h -1.48 v 0.846 c -0.498,-0.609 -1.281,-0.933 -2.139,-0.933 -1.704,0 -2.86,0.933 -2.86,2.935 v 3.793 h 1.554 v -3.582 c 0,-1.206 0.572,-1.778 1.555,-1.778 1.082,0 1.815,0.672 1.815,2.003 v 3.357 z m 13.146,-2.835 v -3.805 h -1.555 v 3.606 c 0,1.181 -0.547,1.754 -1.492,1.754 -1.019,0 -1.728,-0.672 -1.728,-1.99 v -3.37 h -1.555 v 3.606 c 0,1.181 -0.547,1.754 -1.492,1.754 -1.032,0 -1.729,-0.672 -1.729,-1.99 v -3.37 H 382.1 v 6.64 h 1.48 v -0.845 c 0.497,0.597 1.268,0.92 2.176,0.92 0.97,0 1.778,-0.36 2.239,-1.107 0.534,0.684 1.43,1.107 2.486,1.107 1.605,0 2.724,-0.908 2.724,-2.91"/></g><use id="use16060" width="100%" height="100%" x="0" y="0" class="I" xlink:href="#M"/><path id="path16062" d="m 345.751,241.169 c 0,0.404 -0.321,0.656 -0.81,0.838 l -0.377,-1.913 c 0.754,0.153 1.187,0.544 1.187,1.075 m -1.732,3.241 0.405,2.011 c -0.796,-0.153 -1.243,-0.586 -1.257,-1.117 0,-0.434 0.349,-0.685 0.852,-0.894 m 3.995,-2.879 c 0,-1.857 -1.494,-3.1 -3.827,-3.296 l -0.308,-1.537 h -1.397 l 0.308,1.537 c -1.328,0.126 -2.501,0.544 -3.213,1.076 l 0.935,1.732 c 0.741,-0.545 1.676,-0.894 2.641,-0.992 l 0.475,2.361 c -1.299,0.391 -2.725,0.907 -2.725,2.599 0,1.857 1.523,3.114 3.898,3.283 l 0.307,1.536 h 1.397 l -0.307,-1.551 c 0.992,-0.097 1.9,-0.378 2.571,-0.796 l -0.852,-1.732 c -0.601,0.404 -1.328,0.643 -2.082,0.727 l -0.489,-2.459 c 1.285,-0.377 2.668,-0.88 2.668,-2.488" class="M"/><path id="path16064" d="m 337.744,294.112 h 49.434"/><use id="use16066" width="100%" height="100%" x="0" y="0" class="I" xlink:href="#X"/><path id="path16068" d="m 337.744,326.952 h 49.434"/><path id="path16070" d="m 387.178,325.952 h -49.434 v 2 h 49.434 z" class="I"/><path id="path16072" d="m 337.744,358.604 h 49.434"/><g id="g16078" class="I"><path id="path16074" d="m 387.178,357.604 h -49.434 v 2 h 49.434 z"/><use id="use16076" width="100%" height="100%" x="0" y="0" xlink:href="#N"/></g><g id="g16084" class="M"><path id="path16080" d="m 368.215,344.72 -4.946,-4.946 -2.306,-2.31 -2.311,2.31 2.307,2.306 4.945,4.95 z"/><path id="path16082" d="m 363.269,339.774 -2.306,-2.311 -4.9,4.9 2.307,2.307 2.589,-2.59 z"/></g><use id="use16086" width="100%" height="100%" x="0" y="0" class="I" xlink:href="#Y"/><g id="g16092" class="M"><path id="path16088" d="m 368.215,312.985 -4.946,-4.945 -2.306,-2.311 -2.311,2.311 2.307,2.306 4.945,4.95 z"/><path id="path16090" d="m 363.269,308.04 -2.306,-2.311 -4.9,4.9 2.307,2.306 2.589,-2.589 z"/></g><path id="path16094" d="m 370.658,277.1 a 8.6,8.6 0 0 0 -8.597,-8.597 8.6,8.6 0 0 0 -8.596,8.597 8.6,8.6 0 0 0 8.596,8.597 8.6,8.6 0 0 0 8.597,-8.597" class="I"/><g id="g16104" class="M"><path id="path16096" d="m 368.215,278.96 -4.946,-4.946 -2.306,-2.31 -2.311,2.31 2.307,2.307 4.945,4.95 z"/><path id="path16098" d="m 363.269,274.014 -2.306,-2.31 -4.9,4.899 2.307,2.307 2.589,-2.589 z"/><use id="use16100" width="100%" height="100%" x="0" y="0" xlink:href="#O"/><path id="path16102" d="m 362.062,383.785 1.609,-2.573 2.944,-0.735 -1.95,-2.325 0.211,-3.028 -2.814,1.137 -2.814,-1.137 0.211,3.028 -1.95,2.325 2.944,0.735 z m 11.274,0 1.608,-2.573 2.945,-0.735 -1.95,-2.325 0.211,-3.028 -2.814,1.137 -2.814,-1.137 0.211,3.028 -1.95,2.325 2.944,0.735 z"/></g></g><g id="g16194" clip-path="url(#C)"><path id="path16108" d="M 280.235,233.628 H 221.73 c -10.289,0 -18.629,8.34 -18.629,18.628 v 158.786 c 0,10.288 8.34,18.628 18.629,18.628 h 58.505 c 10.288,0 18.628,-8.34 18.628,-18.628 V 252.256 c 0,-10.288 -8.34,-18.628 -18.628,-18.628" class="I"/><g id="g16112" class="M Q" clip-path="url(#D)"><path id="path16110" d="M 279.613,429.669 H 222.35 c -10.63,0 -19.248,-8.618 -19.248,-19.248 v -157.54 c 0,-10.633 8.62,-19.253 19.253,-19.253 h 57.258 c 10.633,0 19.252,8.62 19.252,19.253 v 157.535 c 0,10.633 -8.619,19.253 -19.252,19.253"/></g><path id="path16114" d="m 298.865,420.052 v -38.877 h -95.763 v 38.877 a 9.62,9.62 0 0 0 9.621,9.616 h 76.521 a 9.62,9.62 0 0 0 9.621,-9.616" class="I"/><g id="g16126" class="M"><path id="path16116" d="m 222.846,404.047 0.56,1.256 c 0.696,-0.56 1.803,-0.958 2.873,-0.958 1.355,0 1.927,0.485 1.927,1.132 0,1.878 -5.173,0.647 -5.173,3.88 0,1.405 1.119,2.599 3.507,2.599 1.044,0 2.139,-0.274 2.897,-0.771 l -0.509,-1.256 c -0.784,0.46 -1.642,0.684 -2.401,0.684 -1.343,0 -1.89,-0.523 -1.89,-1.181 0,-1.853 5.161,-0.647 5.161,-3.843 0,-1.393 -1.132,-2.587 -3.519,-2.587 -1.356,0 -2.711,0.423 -3.433,1.045 m 12.399,-0.559 c -0.373,-0.299 -0.933,-0.448 -1.492,-0.448 -1.455,0 -2.289,0.771 -2.289,2.239 v 3.196 h -1.094 v 1.243 h 1.094 v 1.518 h 1.555 v -1.518 h 1.778 v -1.243 h -1.778 v -3.159 c 0,-0.647 0.323,-0.995 0.92,-0.995 0.324,0 0.635,0.087 0.871,0.273 z"/><use id="use16118" width="100%" height="100%" x="0" y="0" xlink:href="#P"/><path id="path16120" d="m 250.617,406.932 v -3.805 h -1.555 v 3.606 c 0,1.181 -0.584,1.754 -1.579,1.754 -1.107,0 -1.853,-0.672 -1.853,-2.002 v -3.358 h -1.555 v 6.64 h 1.48 v -0.857 c 0.51,0.609 1.319,0.932 2.289,0.932 1.591,0 2.773,-0.908 2.773,-2.91"/><use id="use16122" width="100%" height="100%" x="0" y="0" xlink:href="#Q"/><path id="path16124" d="m 265.205,405.204 v 0.771 h -1.604 c -1.057,0 -1.343,-0.398 -1.343,-0.883 0,-0.559 0.472,-0.92 1.268,-0.92 0.759,0 1.418,0.348 1.679,1.032 m 1.555,1.816 v -3.893 h -1.468 v 0.808 c -0.373,-0.571 -1.094,-0.895 -2.089,-0.895 -1.517,0 -2.475,0.833 -2.475,1.99 0,1.107 0.747,1.977 2.761,1.977 h 1.716 v 0.1 c 0,0.908 -0.547,1.442 -1.654,1.442 -0.746,0 -1.517,-0.248 -2.014,-0.658 l -0.61,1.131 c 0.709,0.547 1.741,0.821 2.811,0.821 1.915,0 3.022,-0.908 3.022,-2.823 m 5.833,2.822 v -1.48 a 1.97,1.97 0 0 1 -0.36,0.038 c -1.182,0 -1.928,-0.697 -1.928,-2.053 v -3.22 h -1.555 v 6.64 h 1.48 v -0.969 c 0.448,0.696 1.257,1.044 2.363,1.044 m 6.23,-3.395 c 0,1.269 -0.858,2.077 -1.978,2.077 -1.12,0 -1.977,-0.808 -1.977,-2.077 0,-1.269 0.858,-2.077 1.977,-2.077 1.119,0 1.978,0.808 1.978,2.077 m 1.53,5.907 v -9.227 h -1.493 v 0.858 c -0.522,-0.635 -1.293,-0.945 -2.201,-0.945 -1.927,0 -3.357,1.343 -3.357,3.407 0,2.064 1.43,3.395 3.357,3.395 0.858,0 1.617,-0.286 2.139,-0.895 v 3.407 z"/></g><path id="path16128" d="m 271.781,244.039 h -39.978 c -5.436,0 -9.843,4.407 -9.843,9.844 v 0.745 c 0,5.436 4.407,9.844 9.843,9.844 h 39.978 c 5.436,0 9.843,-4.408 9.843,-9.844 v -0.745 c 0,-5.437 -4.407,-9.844 -9.843,-9.844" class="I"/><path id="path16130" d="m 226.047,305.271 h 49.434"/><path id="path16132" d="m 275.481,304.271 h -49.434 v 2 h 49.434 z" class="I"/><path id="path16134" d="m 226.047,338.11 h 49.434"/><path id="path16136" d="m 275.481,337.11 h -49.434 v 2 h 49.434 z" class="I"/><path id="path16138" d="m 226.047,369.763 h 49.434"/><g id="g16142" class="I"><path id="path16140" d="m 275.481,368.763 h -49.434 v 2 h 49.434 z m -16.87,-46.479 a 8.6,8.6 0 0 0 -8.597,-8.597 8.6,8.6 0 0 0 -8.596,8.597 8.6,8.6 0 0 0 8.596,8.597 8.6,8.6 0 0 0 8.597,-8.597"/></g><g id="g16148" class="M"><path id="path16144" d="m 256.167,324.144 -4.945,-4.946 -2.307,-2.31 -2.31,2.31 2.306,2.306 4.946,4.95 z"/><path id="path16146" d="m 251.222,319.198 -2.307,-2.311 -4.899,4.9 2.307,2.307 2.588,-2.59 z"/></g><path id="path16150" d="m 259.361,288.258 a 8.6,8.6 0 0 0 -8.597,-8.597 8.6,8.6 0 0 0 -8.596,8.597 8.6,8.6 0 0 0 8.596,8.597 8.6,8.6 0 0 0 8.597,-8.597" class="I"/><g id="g16156" class="M"><path id="path16152" d="m 256.917,290.118 -4.946,-4.945 -2.306,-2.311 -2.31,2.311 2.306,2.306 4.945,4.95 z"/><path id="path16154" d="m 251.971,285.172 -2.307,-2.311 -4.899,4.9 2.307,2.306 2.589,-2.589 z"/></g><use id="use16158" width="100%" height="100%" x="0" y="0" class="S" xlink:href="#R"/><g id="g16168" class="M"><g id="g16162" class="Q" clip-path="url(#E)"><use id="use16160" width="100%" height="100%" x="0" y="0" xlink:href="#R"/></g><use id="use16164" width="100%" height="100%" x="0" y="0" xlink:href="#Z"/><use id="use16166" width="100%" height="100%" x="0" y="0" xlink:href="#a"/></g><g id="g16174" class="I"><path id="path16170" d="m 289.3,418.912 v -22.826 l 4.816,4.817 v 18.009 z"/><path id="path16172" d="m 298.933,418.912 v -22.826 l -4.817,4.817 v 18.009 z"/></g><g id="g16178" clip-path="url(#F)" opacity=".3"><path id="path16176" d="m 298.937,418.915 v -22.833 l -4.816,4.826 -4.826,-4.826 v 22.833 z"/></g><g id="g16184" class="I"><use id="use16180" width="100%" height="100%" x="0" y="0" xlink:href="#S"/><use id="use16182" width="100%" height="100%" x="0" y="0" xlink:href="#S"/></g><g id="g16192" class="M"><g id="g16188" class="Q" clip-path="url(#G)"><use id="use16186" width="100%" height="100%" x="0" y="0" xlink:href="#S"/></g><path id="path16190" d="m 289.731,431.035 h -1.238 a 1.13,1.13 0 0 1 -1.116,-1.06 l -0.299,-5.713 c -0.031,-0.585 0.42,-1.06 1.004,-1.06 h 1.238 a 1.13,1.13 0 0 1 1.115,1.06 l 0.299,5.713 c 0.031,0.585 -0.419,1.06 -1.003,1.06 m 9.889,0 h -2.905 l 0.809,1.902 c 0.088,0.207 0.121,0.431 0.096,0.648 l -0.171,1.5 a 1.19,1.19 0 0 1 -1.182,1.054 h -1.447 a 7.29,7.29 0 0 0 -1.567,-4.146 l -0.889,-1.122 a 1.8,1.8 0 0 1 -0.391,-1.019 l -0.28,-5.344 a 1.23,1.23 0 0 1 1.239,-1.306 h 5.069 c 0.445,0 0.877,0.196 1.184,0.537 l 0.473,0.525 c 0.187,0.208 0.316,0.46 0.378,0.732 l 0.967,4.311 c 0.09,0.4 0.002,0.819 -0.24,1.149 a 1.42,1.42 0 0 1 -1.143,0.579 m -49.606,-34.949 1.609,-2.573 2.944,-0.735 -1.95,-2.325 0.211,-3.028 -2.814,1.137 -2.814,-1.137 0.211,3.028 -1.95,2.325 2.945,0.735 z M 234.361,252.297 c 0,0.404 -0.322,0.656 -0.811,0.838 l -0.376,-1.914 c 0.753,0.154 1.187,0.545 1.187,1.076 m -1.732,3.24 0.404,2.012 c -0.796,-0.153 -1.243,-0.586 -1.256,-1.117 0,-0.434 0.349,-0.685 0.852,-0.895 m 3.995,-2.878 c 0,-1.857 -1.494,-3.1 -3.828,-3.296 l -0.307,-1.537 h -1.397 l 0.307,1.537 c -1.327,0.125 -2.5,0.544 -3.213,1.076 l 0.936,1.732 c 0.74,-0.545 1.676,-0.894 2.64,-0.992 l 0.475,2.36 c -1.298,0.392 -2.724,0.908 -2.724,2.6 0,1.857 1.523,3.114 3.898,3.283 l 0.307,1.536 h 1.397 l -0.307,-1.552 c 0.992,-0.096 1.9,-0.377 2.57,-0.796 l -0.851,-1.731 c -0.602,0.404 -1.328,0.643 -2.083,0.726 l -0.488,-2.458 c 1.285,-0.378 2.668,-0.881 2.668,-2.488"/></g></g><g id="g16260" clip-path="url(#H)"><path id="path16196" d="m 165.764,222.47 h -58.505 c -10.288,0 -18.629,8.34 -18.629,18.628 v 158.786 c 0,10.288 8.341,18.628 18.629,18.628 h 58.505 c 10.289,0 18.629,-8.34 18.629,-18.628 V 241.098 c 0,-10.288 -8.34,-18.628 -18.629,-18.628" class="S"/><g id="g16200" class="M" clip-path="url(#I)" opacity=".7"><path id="path16198" d="m 165.476,418.512 h -57.928 c -10.447,0 -18.917,-8.47 -18.917,-18.917 V 241.387 a 18.92,18.92 0 0 1 18.917,-18.917 h 57.928 a 18.92,18.92 0 0 1 18.917,18.917 v 158.208 a 18.92,18.92 0 0 1 -18.917,18.917"/></g><g id="g16206" class="I"><use id="use16202" width="100%" height="100%" x="0" y="0" xlink:href="#T"/><use id="use16204" width="100%" height="100%" x="0" y="0" xlink:href="#T"/></g><g id="g16210" class="M"><path id="path16208" d="m 127.015,394.493 c 0,0.871 -0.659,1.256 -1.878,1.256 h -2.611 v -2.512 h 2.611 c 1.219,0 1.878,0.385 1.878,1.256 m -4.489,4.912 v -2.4 h 2.288 c 1.119,0 1.753,0.398 1.753,1.194 0,0.808 -0.634,1.206 -1.753,1.206 z m 6.118,-5.074 c 0,-1.492 -1.169,-2.362 -3.407,-2.362 h -4.328 v 8.705 h 4.079 c 2.089,0 3.209,-0.883 3.209,-2.264 0,-0.895 -0.448,-1.554 -1.12,-1.915 0.933,-0.298 1.567,-1.032 1.567,-2.164 m 5.584,-0.286 v 0.771 h -1.604 c -1.057,0 -1.343,-0.398 -1.343,-0.883 0,-0.559 0.472,-0.92 1.268,-0.92 0.759,0 1.418,0.348 1.679,1.032 m 1.555,1.816 v -3.893 h -1.468 v 0.808 c -0.373,-0.571 -1.094,-0.895 -2.089,-0.895 -1.517,0 -2.475,0.833 -2.475,1.99 0,1.107 0.747,1.977 2.761,1.977 h 1.716 v 0.1 c 0,0.908 -0.547,1.442 -1.654,1.442 -0.746,0 -1.517,-0.248 -2.014,-0.658 l -0.61,1.131 c 0.709,0.547 1.741,0.821 2.811,0.821 1.915,0 3.022,-0.908 3.022,-2.823 m 1.231,-3.233 0.597,1.181 c 0.584,-0.385 1.48,-0.659 2.313,-0.659 0.983,0 1.393,0.274 1.393,0.734 0,1.268 -4.104,0.075 -4.104,2.723 0,1.256 1.132,2.077 2.922,2.077 0.883,0 1.891,-0.211 2.487,-0.572 l -0.596,-1.181 c -0.635,0.373 -1.269,0.497 -1.903,0.497 -0.945,0 -1.393,-0.311 -1.393,-0.746 0,-1.343 4.104,-0.149 4.104,-2.748 0,-1.244 -1.144,-2.052 -3.009,-2.052 -1.107,0 -2.214,0.323 -2.811,0.746 m 7.164,5.981 h 1.555 v -6.641 h -1.555 z m -0.211,2.028 c 0,0.522 0.422,0.932 0.995,0.932 0.573,0 0.994,-0.385 0.994,-0.895 0,-0.547 -0.41,-0.97 -0.994,-0.97 -0.573,0 -0.995,0.41 -0.995,0.933 m 3.258,-5.348 c 0,1.99 1.492,3.395 3.594,3.395 1.293,0 2.325,-0.535 2.835,-1.542 l -1.194,-0.696 c -0.398,0.634 -0.994,0.92 -1.653,0.92 -1.144,0 -2.015,-0.796 -2.015,-2.077 0,-1.293 0.871,-2.077 2.015,-2.077 0.659,0 1.255,0.286 1.653,0.921 l 1.194,-0.697 c -0.51,-0.995 -1.542,-1.554 -2.835,-1.554 -2.102,0 -3.594,1.417 -3.594,3.407"/></g><use id="use16212" width="100%" height="100%" x="0" y="0" class="S" xlink:href="#b"/><g id="g16222" class="M"><g id="g16216" class="Q" clip-path="url(#J)"><use id="use16214" width="100%" height="100%" x="0" y="0" xlink:href="#b"/></g><path id="path16218" d="m 139.894,311.856 -7.333,-7.333 -2.285,2.285 7.333,7.333 z"/><path id="path16220" d="m 132.561,314.141 7.333,-7.333 -2.285,-2.285 -7.333,7.333 z"/></g><path id="path16224" d="m 144.081,277.887 a 8.6,8.6 0 0 0 -8.597,-8.596 c -4.748,0 -8.596,3.848 -8.596,8.596 a 8.6,8.6 0 0 0 8.596,8.597 8.6,8.6 0 0 0 8.597,-8.597" class="I"/><g id="g16230" class="M"><path id="path16226" d="m 141.637,279.747 -4.946,-4.946 -2.306,-2.31 -2.311,2.31 2.307,2.307 4.945,4.949 z"/><path id="path16228" d="m 136.692,274.801 -2.307,-2.31 -4.899,4.899 2.307,2.307 2.589,-2.589 z"/></g><path id="path16232" d="m 156.501,232.881 h -39.978 c -5.436,0 -9.843,4.407 -9.843,9.844 v 0.745 c 0,5.436 4.407,9.844 9.843,9.844 h 39.978 c 5.437,0 9.843,-4.408 9.843,-9.844 v -0.745 c 0,-5.437 -4.406,-9.844 -9.843,-9.844" class="I"/><path id="path16234" d="m 117.348,240.8 c 0,0.404 -0.322,0.656 -0.811,0.838 l -0.376,-1.914 c 0.753,0.154 1.187,0.545 1.187,1.076 m -1.732,3.24 0.404,2.012 c -0.796,-0.153 -1.242,-0.586 -1.256,-1.117 0,-0.434 0.349,-0.685 0.852,-0.895 m 3.995,-2.878 c 0,-1.857 -1.494,-3.1 -3.828,-3.296 l -0.307,-1.537 h -1.397 l 0.308,1.537 c -1.328,0.126 -2.501,0.544 -3.214,1.076 l 0.936,1.732 c 0.74,-0.545 1.676,-0.894 2.64,-0.992 l 0.475,2.361 c -1.298,0.391 -2.724,0.907 -2.724,2.599 0,1.857 1.523,3.114 3.898,3.283 l 0.307,1.536 h 1.397 l -0.307,-1.551 c 0.992,-0.097 1.9,-0.378 2.57,-0.796 l -0.851,-1.732 c -0.602,0.404 -1.328,0.643 -2.083,0.727 l -0.488,-2.459 c 1.285,-0.378 2.668,-0.88 2.668,-2.488" class="M"/><path id="path16236" d="m 110.767,294.112 h 49.434"/><path id="path16238" d="m 160.201,293.112 h -49.434 v 2 h 49.434 z" class="I"/><path id="path16240" d="m 110.767,326.952 h 49.434"/><path id="path16242" d="m 160.201,325.952 h -49.434 v 2 h 49.434 z" class="I"/><path id="path16244" d="m 110.767,358.604 h 49.434"/><path id="path16246" d="m 160.201,357.604 h -49.434 v 2 h 49.434 z" class="I"/><path id="path16248" d="m 143.594,342.774 a 8.51,8.51 0 0 0 -8.509,-8.509 8.51,8.51 0 0 0 -8.509,8.509 8.51,8.51 0 0 0 8.509,8.509 8.51,8.51 0 0 0 8.509,-8.509" class="S"/><g id="g16258" class="M"><g id="g16252" class="Q" clip-path="url(#K)"><path id="path16250" d="m 143.594,342.774 a 8.51,8.51 0 0 0 -8.509,-8.509 8.51,8.51 0 0 0 -8.509,8.509 8.51,8.51 0 0 0 8.509,8.509 8.51,8.51 0 0 0 8.509,-8.509"/></g><path id="path16254" d="m 139.894,345.299 -7.333,-7.333 -2.285,2.285 7.333,7.333 z"/><path id="path16256" d="m 132.561,347.584 7.333,-7.333 -2.285,-2.285 -7.333,7.333 z"/></g></g></g><path id="path16316" fill="#f7df1e" d="m 50.849244,4.190382 h 59.630006 v 59.625 H 50.849244 Z"/><path id="path16318" d="m 57.67358,44.047209 5.329,-3.225 c 1.029,1.823 1.963,3.366 4.207,3.366 2.151,0 3.506,-0.841 3.506,-4.112 v -22.249 h 6.543008 v 22.339 c 0,6.776 -3.969,9.861 -9.768008,9.861 -5.233,0 -8.271,-2.712 -9.813,-5.982 m 23.135008,-0.701 5.326,-3.085 c 1.402,2.291 3.225,3.969 6.451,3.969 2.712,0 4.44,-1.355 4.44,-3.225 0,-2.244 -1.775,-3.037 -4.763,-4.347 l -1.635,-0.701 c -4.72,-2.008 -7.853,-4.532 -7.853,-9.861 0,-4.908 3.739,-8.647 9.581,-8.647 4.159,0 7.144,1.45 9.300002,5.233 l -5.093002,3.273 c -1.122,-2.011 -2.336,-2.805 -4.207,-2.805 -1.916,0 -3.133,1.214 -3.133,2.805 0,1.963 1.214,2.757 4.019,3.969 l 1.635,0.701 c 5.556002,2.381 8.694002,4.813 8.694002,10.282 0,5.89 -4.628002,9.115 -10.848002,9.115 -6.085,0 -10.001,-2.91 -11.906,-6.683"/><path id="path16376" fill="#e44d26" d="m 44.257,29.095059 -4.032,45.164 -18.124,5.027 -18.074,-5.027 L 0,29.095059 Z"/><path id="path16378" fill="#f16529" d="m 22.127,75.445059 14.645,-4.059 3.44,-38.597 H 22.128 Z"/><path id="path16380" fill="#ebebeb" d="m 14.29,43.870059 h 7.837 v -5.54 H 8.236 l 0.132,1.487 1.363,15.266 h 12.398 v -5.54 h -7.332 z m 1.259,13.983 H 9.993 l 0.775,8.7 11.335,3.159 h 0.026 v -5.781 h -0.024 l -6.17,-1.667 z"/><path id="path16382" d="m 4.119,16.819059 h 2.815 v 2.781 h 2.574 v -2.781 h 2.815 v 8.424 H 9.508 v -2.82 H 6.934 v 2.82 H 4.119 Z m 11.906,2.794 h -2.479 v -2.794 h 7.773 v 2.794 H 18.84 v 5.63 h -2.813 v -5.63 0 z m 6.53,-2.794 h 2.937 l 1.807,2.961 1.804,-2.961 h 2.937 v 8.424 h -2.805 v -4.175 l -1.937,2.995 H 27.25 l -1.939,-2.995 v 4.175 h -2.757 z m 10.885,0 h 2.815 v 5.638 h 3.969 v 2.783 h -6.776 v -8.422 z"/><path id="path16384" d="m 22.108,55.083059 h 6.821 l -0.643,7.186 -6.178,1.667 v 5.776 l 11.359,-3.149 0.082,-0.937 1.302,-14.586 0.135,-1.487 H 22.109 v 5.54 z m 0,-11.226 v 0.013 h 13.383 l 0.111,-1.246 0.265,-2.81 0.132,-1.487 H 22.108 v 5.527 z" class="M"/><path id="path16394" fill="#264de4" d="m 144.88305,75.845799 -21.944,-6.086 -4.89,-54.848001 h 53.734 l -4.895,54.840001 z"/><path id="path16396" fill="#2965f1" d="m 162.69705,66.261799 4.183,-46.863 h -21.96 v 51.782 z"/><path id="path16398" fill="#ebebeb" d="m 129.27305,39.732799 0.603,6.726 h 15.055 v -6.726 z m -1.212,-13.615 0.611,6.726 h 16.256 v -6.726 h -16.88 z m 16.867,31.086 h -0.029 l -7.493,-2.024 -0.479,-5.366 h -6.765 l 0.942,10.562 13.779,3.834 h 0.032 z"/><path id="path16400" d="m 130.69605,-2.0179209e-4 h 8.147 V 3.4077983 h -4.741 v 3.4079999 h 4.741 v 3.4079998 h -8.147 z m 9.79,0 h 8.147 V 2.9627982 h -4.752 v 0.5930001 h 4.741 v 6.8159997 h -8.149 V 7.2597982 h 4.741 v -0.593 h -4.741 V -2.0179209e-4 Z m 9.79,0 h 8.147 V 2.9627982 h -4.765 v 0.5930001 h 4.741 v 6.8159997 h -8.15 V 7.2597982 h 4.741 v -0.593 h -4.741 V -2.0179209e-4 Z"/><g id="g16410" class="J K" transform="matrix(1,0,0,0.99983918,118.09405,0.00399821)"><path id="path16402" d="M 42.482,39.733 43.696,26.118 H 26.834 v 6.726 h 9.48 l -0.611,6.879 h -8.869 v 6.726 h 8.284 l -0.794,8.731 -7.49,2.029 v 6.998 l 13.79,-3.823 0.101,-1.138 1.587,-17.711 0.164,-1.807 z" class="M"/><use id="use16408" width="100%" height="100%" x="0" y="0" class="M" opacity=".3" xlink:href="#i"/></g></svg>