<svg xmlns="http://www.w3.org/2000/svg" xmlns:xlink="http://www.w3.org/1999/xlink" height="737.008" width="1077.952" xmlns:v="https://vecta.io/nano"><style><![CDATA[.H{animation:exzGzYuY_draw_0 7200ms linear 0ms infinite,exzGzYuY_fade 7200ms linear 0ms infinite}.O{animation:exzGzYuY_draw_1 7200ms linear 0ms infinite,exzGzYuY_fade 7200ms linear 0ms infinite}.Q{animation:exzGzYuY_draw_2 7200ms linear 0ms infinite,exzGzYuY_fade 7200ms linear 0ms infinite}.S{animation:exzGzYuY_draw_3 7200ms linear 0ms infinite,exzGzYuY_fade 7200ms linear 0ms infinite}.T{animation:exzGzYuY_draw_4 7200ms linear 0ms infinite,exzGzYuY_fade 7200ms linear 0ms infinite}.d{animation:exzGzYuY_draw_5 7200ms linear 0ms infinite,exzGzYuY_fade 7200ms linear 0ms infinite}.g{animation:exzGzYuY_draw_6 7200ms linear 0ms infinite,exzGzYuY_fade 7200ms linear 0ms infinite}.h{animation:exzGzYuY_draw_7 7200ms linear 0ms infinite,exzGzYuY_fade 7200ms linear 0ms infinite}.j{animation:exzGzYuY_draw_8 7200ms linear 0ms infinite,exzGzYuY_fade 7200ms linear 0ms infinite}.k{animation:exzGzYuY_draw_9 7200ms linear 0ms infinite,exzGzYuY_fade 7200ms linear 0ms infinite}.l{animation:exzGzYuY_draw_10 7200ms linear 0ms infinite,exzGzYuY_fade 7200ms linear 0ms infinite}.m{animation:exzGzYuY_draw_11 7200ms linear 0ms infinite,exzGzYuY_fade 7200ms linear 0ms infinite}.n{animation:exzGzYuY_draw_12 7200ms linear 0ms infinite,exzGzYuY_fade 7200ms linear 0ms infinite}.o{animation:exzGzYuY_draw_13 7200ms linear 0ms infinite,exzGzYuY_fade 7200ms linear 0ms infinite}.AB{animation:exzGzYuY_draw_14 7200ms linear 0ms infinite,exzGzYuY_fade 7200ms linear 0ms infinite}.Ax{animation:exzGzYuY_draw_15 7200ms linear 0ms infinite,exzGzYuY_fade 7200ms linear 0ms infinite}.BD{animation:exzGzYuY_draw_16 7200ms linear 0ms infinite,exzGzYuY_fade 7200ms linear 0ms infinite}.BH{animation:exzGzYuY_draw_17 7200ms linear 0ms infinite,exzGzYuY_fade 7200ms linear 0ms infinite}.Bf{animation:exzGzYuY_draw_18 7200ms linear 0ms infinite,exzGzYuY_fade 7200ms linear 0ms infinite}.CC{animation:exzGzYuY_draw_19 7200ms linear 0ms infinite,exzGzYuY_fade 7200ms linear 0ms infinite}.CE{animation:exzGzYuY_draw_20 7200ms linear 0ms infinite,exzGzYuY_fade 7200ms linear 0ms infinite}.CF{animation:exzGzYuY_draw_21 7200ms linear 0ms infinite,exzGzYuY_fade 7200ms linear 0ms infinite}.CG{animation:exzGzYuY_draw_22 7200ms linear 0ms infinite,exzGzYuY_fade 7200ms linear 0ms infinite}.CH{animation:exzGzYuY_draw_23 7200ms linear 0ms infinite,exzGzYuY_fade 7200ms linear 0ms infinite}.CI{animation:exzGzYuY_draw_24 7200ms linear 0ms infinite,exzGzYuY_fade 7200ms linear 0ms infinite}.CJ{animation:exzGzYuY_draw_25 7200ms linear 0ms infinite,exzGzYuY_fade 7200ms linear 0ms infinite}.CK{animation:exzGzYuY_draw_26 7200ms linear 0ms infinite,exzGzYuY_fade 7200ms linear 0ms infinite}.CL{animation:exzGzYuY_draw_27 7200ms linear 0ms infinite,exzGzYuY_fade 7200ms linear 0ms infinite}.CM{animation:exzGzYuY_draw_28 7200ms linear 0ms infinite,exzGzYuY_fade 7200ms linear 0ms infinite}.CN{animation:exzGzYuY_draw_29 7200ms linear 0ms infinite,exzGzYuY_fade 7200ms linear 0ms infinite}.CO{animation:exzGzYuY_draw_30 7200ms linear 0ms infinite,exzGzYuY_fade 7200ms linear 0ms infinite}.CP{animation:exzGzYuY_draw_31 7200ms linear 0ms infinite,exzGzYuY_fade 7200ms linear 0ms infinite}.CQ{animation:exzGzYuY_draw_32 7200ms linear 0ms infinite,exzGzYuY_fade 7200ms linear 0ms infinite}.CR{animation:exzGzYuY_draw_33 7200ms linear 0ms infinite,exzGzYuY_fade 7200ms linear 0ms infinite}.CT{animation:exzGzYuY_draw_34 7200ms linear 0ms infinite,exzGzYuY_fade 7200ms linear 0ms infinite}.CU{animation:exzGzYuY_draw_35 7200ms linear 0ms infinite,exzGzYuY_fade 7200ms linear 0ms infinite}.CV{animation:exzGzYuY_draw_36 7200ms linear 0ms infinite,exzGzYuY_fade 7200ms linear 0ms infinite}.CX{animation:exzGzYuY_draw_37 7200ms linear 0ms infinite,exzGzYuY_fade 7200ms linear 0ms infinite}.CY{animation:exzGzYuY_draw_38 7200ms linear 0ms infinite,exzGzYuY_fade 7200ms linear 0ms infinite}.CZ{animation:exzGzYuY_draw_39 7200ms linear 0ms infinite,exzGzYuY_fade 7200ms linear 0ms infinite}.Ca{animation:exzGzYuY_draw_40 7200ms linear 0ms infinite,exzGzYuY_fade 7200ms linear 0ms infinite}.Cb{animation:exzGzYuY_draw_41 7200ms linear 0ms infinite,exzGzYuY_fade 7200ms linear 0ms infinite}.Cc{animation:exzGzYuY_draw_42 7200ms linear 0ms infinite,exzGzYuY_fade 7200ms linear 0ms infinite}.Cd{animation:exzGzYuY_draw_43 7200ms linear 0ms infinite,exzGzYuY_fade 7200ms linear 0ms infinite}.Ce{animation:exzGzYuY_draw_44 7200ms linear 0ms infinite,exzGzYuY_fade 7200ms linear 0ms infinite}.Cf{animation:exzGzYuY_draw_45 7200ms linear 0ms infinite,exzGzYuY_fade 7200ms linear 0ms infinite}.Cg{animation:exzGzYuY_draw_46 7200ms linear 0ms infinite,exzGzYuY_fade 7200ms linear 0ms infinite}.Ch{animation:exzGzYuY_draw_47 7200ms linear 0ms infinite,exzGzYuY_fade 7200ms linear 0ms infinite}.Ci{animation:exzGzYuY_draw_48 7200ms linear 0ms infinite,exzGzYuY_fade 7200ms linear 0ms infinite}.Cj{animation:exzGzYuY_draw_49 7200ms linear 0ms infinite,exzGzYuY_fade 7200ms linear 0ms infinite}.Ck{animation:exzGzYuY_draw_50 7200ms linear 0ms infinite,exzGzYuY_fade 7200ms linear 0ms infinite}.Cl{animation:exzGzYuY_draw_51 7200ms linear 0ms infinite,exzGzYuY_fade 7200ms linear 0ms infinite}.Cm{animation:exzGzYuY_draw_52 7200ms linear 0ms infinite,exzGzYuY_fade 7200ms linear 0ms infinite}.Co{animation:exzGzYuY_draw_53 7200ms linear 0ms infinite,exzGzYuY_fade 7200ms linear 0ms infinite}.Cp{animation:exzGzYuY_draw_54 7200ms linear 0ms infinite,exzGzYuY_fade 7200ms linear 0ms infinite}.Cr{animation:exzGzYuY_draw_55 7200ms linear 0ms infinite,exzGzYuY_fade 7200ms linear 0ms infinite}.Cs{animation:exzGzYuY_draw_56 7200ms linear 0ms infinite,exzGzYuY_fade 7200ms linear 0ms infinite}.Ct{animation:exzGzYuY_draw_57 7200ms linear 0ms infinite,exzGzYuY_fade 7200ms linear 0ms infinite}.Cu{animation:exzGzYuY_draw_58 7200ms linear 0ms infinite,exzGzYuY_fade 7200ms linear 0ms infinite}.Cv{animation:exzGzYuY_draw_59 7200ms linear 0ms infinite,exzGzYuY_fade 7200ms linear 0ms infinite}.Cw{animation:exzGzYuY_draw_60 7200ms linear 0ms infinite,exzGzYuY_fade 7200ms linear 0ms infinite}.Cx{animation:exzGzYuY_draw_61 7200ms linear 0ms infinite,exzGzYuY_fade 7200ms linear 0ms infinite}.Cy{animation:exzGzYuY_draw_62 7200ms linear 0ms infinite,exzGzYuY_fade 7200ms linear 0ms infinite}.Cz{animation:exzGzYuY_draw_63 7200ms linear 0ms infinite,exzGzYuY_fade 7200ms linear 0ms infinite}.DA{animation:exzGzYuY_draw_64 7200ms linear 0ms infinite,exzGzYuY_fade 7200ms linear 0ms infinite}.DB{animation:exzGzYuY_draw_65 7200ms linear 0ms infinite,exzGzYuY_fade 7200ms linear 0ms infinite}.DC{animation:exzGzYuY_draw_66 7200ms linear 0ms infinite,exzGzYuY_fade 7200ms linear 0ms infinite}.DD{animation:exzGzYuY_draw_67 7200ms linear 0ms infinite,exzGzYuY_fade 7200ms linear 0ms infinite}.DE{animation:exzGzYuY_draw_68 7200ms linear 0ms infinite,exzGzYuY_fade 7200ms linear 0ms infinite}.DF{animation:exzGzYuY_draw_69 7200ms linear 0ms infinite,exzGzYuY_fade 7200ms linear 0ms infinite}.DG{animation:exzGzYuY_draw_70 7200ms linear 0ms infinite,exzGzYuY_fade 7200ms linear 0ms infinite}.DH{animation:exzGzYuY_draw_71 7200ms linear 0ms infinite,exzGzYuY_fade 7200ms linear 0ms infinite}.DI{animation:exzGzYuY_draw_72 7200ms linear 0ms infinite,exzGzYuY_fade 7200ms linear 0ms infinite}.DJ{animation:exzGzYuY_draw_73 7200ms linear 0ms infinite,exzGzYuY_fade 7200ms linear 0ms infinite}.DK{animation:exzGzYuY_draw_74 7200ms linear 0ms infinite,exzGzYuY_fade 7200ms linear 0ms infinite}.DL{animation:exzGzYuY_draw_75 7200ms linear 0ms infinite,exzGzYuY_fade 7200ms linear 0ms infinite}.DM{animation:exzGzYuY_draw_76 7200ms linear 0ms infinite,exzGzYuY_fade 7200ms linear 0ms infinite}.DN{animation:exzGzYuY_draw_77 7200ms linear 0ms infinite,exzGzYuY_fade 7200ms linear 0ms infinite}.DP{animation:exzGzYuY_draw_78 7200ms linear 0ms infinite,exzGzYuY_fade 7200ms linear 0ms infinite}.DQ{animation:exzGzYuY_draw_79 7200ms linear 0ms infinite,exzGzYuY_fade 7200ms linear 0ms infinite}.DR{animation:exzGzYuY_draw_80 7200ms linear 0ms infinite,exzGzYuY_fade 7200ms linear 0ms infinite}.DS{animation:exzGzYuY_draw_81 7200ms linear 0ms infinite,exzGzYuY_fade 7200ms linear 0ms infinite}.DT{animation:exzGzYuY_draw_82 7200ms linear 0ms infinite,exzGzYuY_fade 7200ms linear 0ms infinite}.DV{animation:exzGzYuY_draw_83 7200ms linear 0ms infinite,exzGzYuY_fade 7200ms linear 0ms infinite}.DW{animation:exzGzYuY_draw_84 7200ms linear 0ms infinite,exzGzYuY_fade 7200ms linear 0ms infinite}.DX{animation:exzGzYuY_draw_85 7200ms linear 0ms infinite,exzGzYuY_fade 7200ms linear 0ms infinite}.DZ{animation:exzGzYuY_draw_86 7200ms linear 0ms infinite,exzGzYuY_fade 7200ms linear 0ms infinite}.Da{animation:exzGzYuY_draw_87 7200ms linear 0ms infinite,exzGzYuY_fade 7200ms linear 0ms infinite}.Dd{animation:exzGzYuY_draw_88 7200ms linear 0ms infinite,exzGzYuY_fade 7200ms linear 0ms infinite}.Dg{animation:exzGzYuY_draw_89 7200ms linear 0ms infinite,exzGzYuY_fade 7200ms linear 0ms infinite}.Dh{animation:exzGzYuY_draw_90 7200ms linear 0ms infinite,exzGzYuY_fade 7200ms linear 0ms infinite}.Di{animation:exzGzYuY_draw_91 7200ms linear 0ms infinite,exzGzYuY_fade 7200ms linear 0ms infinite}.Dj{animation:exzGzYuY_draw_92 7200ms linear 0ms infinite,exzGzYuY_fade 7200ms linear 0ms infinite}.Dk{animation:exzGzYuY_draw_93 7200ms linear 0ms infinite,exzGzYuY_fade 7200ms linear 0ms infinite}.Dl{animation:exzGzYuY_draw_94 7200ms linear 0ms infinite,exzGzYuY_fade 7200ms linear 0ms infinite}.Dm{animation:exzGzYuY_draw_95 7200ms linear 0ms infinite,exzGzYuY_fade 7200ms linear 0ms infinite}.Dn{animation:exzGzYuY_draw_96 7200ms linear 0ms infinite,exzGzYuY_fade 7200ms linear 0ms infinite}.Do{animation:exzGzYuY_draw_97 7200ms linear 0ms infinite,exzGzYuY_fade 7200ms linear 0ms infinite}.Dp{animation:exzGzYuY_draw_98 7200ms linear 0ms infinite,exzGzYuY_fade 7200ms linear 0ms infinite}.Dq{animation:exzGzYuY_draw_99 7200ms linear 0ms infinite,exzGzYuY_fade 7200ms linear 0ms infinite}.Dr{animation:exzGzYuY_draw_100 7200ms linear 0ms infinite,exzGzYuY_fade 7200ms linear 0ms infinite}.Ds{animation:exzGzYuY_draw_101 7200ms linear 0ms infinite,exzGzYuY_fade 7200ms linear 0ms infinite}.Dt{animation:exzGzYuY_draw_102 7200ms linear 0ms infinite,exzGzYuY_fade 7200ms linear 0ms infinite}.Du{animation:exzGzYuY_draw_103 7200ms linear 0ms infinite,exzGzYuY_fade 7200ms linear 0ms infinite}.Dv{animation:exzGzYuY_draw_104 7200ms linear 0ms infinite,exzGzYuY_fade 7200ms linear 0ms infinite}.Dw{animation:exzGzYuY_draw_105 7200ms linear 0ms infinite,exzGzYuY_fade 7200ms linear 0ms infinite}.Dx{animation:exzGzYuY_draw_106 7200ms linear 0ms infinite,exzGzYuY_fade 7200ms linear 0ms infinite}.Dy{animation:exzGzYuY_draw_107 7200ms linear 0ms infinite,exzGzYuY_fade 7200ms linear 0ms infinite}@keyframes exzGzYuY_draw{100%{stroke-dashoffset:0}} @keyframes exzGzYuY_fade{0%{stroke-opacity:1}94.44444444444444%{stroke-opacity:1}100%{stroke-opacity:0}} @keyframes exzGzYuY_draw_0{11.11111111111111%{stroke-dashoffset:152}38.88888888888889%{stroke-dashoffset:0}100%{stroke-dashoffset:0}} @keyframes exzGzYuY_draw_1{11.240913811007267%{stroke-dashoffset:60}39.018691588785046%{stroke-dashoffset:0}100%{stroke-dashoffset:0}} @keyframes exzGzYuY_draw_2{11.370716510903426%{stroke-dashoffset:114}39.148494288681206%{stroke-dashoffset:0}100%{stroke-dashoffset:0}} @keyframes exzGzYuY_draw_3{11.500519210799585%{stroke-dashoffset:110}39.27829698857736%{stroke-dashoffset:0}100%{stroke-dashoffset:0}} @keyframes exzGzYuY_draw_4{11.630321910695743%{stroke-dashoffset:92}39.40809968847353%{stroke-dashoffset:0}100%{stroke-dashoffset:0}} @keyframes exzGzYuY_draw_5{11.7601246105919%{stroke-dashoffset:237}39.53790238836968%{stroke-dashoffset:0}100%{stroke-dashoffset:0}} @keyframes exzGzYuY_draw_6{11.889927310488059%{stroke-dashoffset:3429}39.66770508826583%{stroke-dashoffset:0}100%{stroke-dashoffset:0}} @keyframes exzGzYuY_draw_7{12.019730010384217%{stroke-dashoffset:3163}39.79750778816199%{stroke-dashoffset:0}100%{stroke-dashoffset:0}} @keyframes exzGzYuY_draw_8{12.149532710280374%{stroke-dashoffset:2294}39.927310488058154%{stroke-dashoffset:0}100%{stroke-dashoffset:0}} @keyframes exzGzYuY_draw_9{12.279335410176532%{stroke-dashoffset:39}40.05711318795431%{stroke-dashoffset:0}100%{stroke-dashoffset:0}} @keyframes exzGzYuY_draw_10{12.40913811007269%{stroke-dashoffset:39}40.186915887850475%{stroke-dashoffset:0}100%{stroke-dashoffset:0}} @keyframes exzGzYuY_draw_11{12.53894080996885%{stroke-dashoffset:39}40.31671858774663%{stroke-dashoffset:0}100%{stroke-dashoffset:0}} @keyframes exzGzYuY_draw_12{12.668743509865005%{stroke-dashoffset:55}40.44652128764278%{stroke-dashoffset:0}100%{stroke-dashoffset:0}} @keyframes exzGzYuY_draw_13{12.798546209761163%{stroke-dashoffset:39}40.576323987538935%{stroke-dashoffset:0}100%{stroke-dashoffset:0}} @keyframes exzGzYuY_draw_14{12.928348909657322%{stroke-dashoffset:39}40.7061266874351%{stroke-dashoffset:0}100%{stroke-dashoffset:0}} @keyframes exzGzYuY_draw_15{13.058151609553478%{stroke-dashoffset:299}40.835929387331255%{stroke-dashoffset:0}100%{stroke-dashoffset:0}} @keyframes exzGzYuY_draw_16{13.187954309449637%{stroke-dashoffset:78}40.965732087227416%{stroke-dashoffset:0}100%{stroke-dashoffset:0}} @keyframes exzGzYuY_draw_17{13.317757009345794%{stroke-dashoffset:101}41.09553478712357%{stroke-dashoffset:0}100%{stroke-dashoffset:0}} @keyframes exzGzYuY_draw_18{13.447559709241952%{stroke-dashoffset:156}41.22533748701972%{stroke-dashoffset:0}100%{stroke-dashoffset:0}} @keyframes exzGzYuY_draw_19{13.57736240913811%{stroke-dashoffset:30}41.35514018691589%{stroke-dashoffset:0}100%{stroke-dashoffset:0}} @keyframes exzGzYuY_draw_20{13.707165109034266%{stroke-dashoffset:213}41.48494288681204%{stroke-dashoffset:0}100%{stroke-dashoffset:0}} @keyframes exzGzYuY_draw_21{13.836967808930426%{stroke-dashoffset:114}41.61474558670821%{stroke-dashoffset:0}100%{stroke-dashoffset:0}} @keyframes exzGzYuY_draw_22{13.966770508826585%{stroke-dashoffset:291}41.74454828660436%{stroke-dashoffset:0}100%{stroke-dashoffset:0}} @keyframes exzGzYuY_draw_23{14.096573208722743%{stroke-dashoffset:42}41.87435098650052%{stroke-dashoffset:0}100%{stroke-dashoffset:0}} @keyframes exzGzYuY_draw_24{14.226375908618898%{stroke-dashoffset:203}42.00415368639667%{stroke-dashoffset:0}100%{stroke-dashoffset:0}} @keyframes exzGzYuY_draw_25{14.356178608515059%{stroke-dashoffset:385}42.13395638629284%{stroke-dashoffset:0}100%{stroke-dashoffset:0}} @keyframes exzGzYuY_draw_26{14.485981308411214%{stroke-dashoffset:87}42.26375908618899%{stroke-dashoffset:0}100%{stroke-dashoffset:0}} @keyframes exzGzYuY_draw_27{14.615784008307372%{stroke-dashoffset:258}42.39356178608516%{stroke-dashoffset:0}100%{stroke-dashoffset:0}} @keyframes exzGzYuY_draw_28{14.74558670820353%{stroke-dashoffset:258}42.523364485981304%{stroke-dashoffset:0}100%{stroke-dashoffset:0}} @keyframes exzGzYuY_draw_29{14.875389408099688%{stroke-dashoffset:837}42.653167185877464%{stroke-dashoffset:0}100%{stroke-dashoffset:0}} @keyframes exzGzYuY_draw_30{15.005192107995846%{stroke-dashoffset:764}42.78296988577362%{stroke-dashoffset:0}100%{stroke-dashoffset:0}} @keyframes exzGzYuY_draw_31{15.134994807892005%{stroke-dashoffset:1188}42.912772585669785%{stroke-dashoffset:0}100%{stroke-dashoffset:0}} @keyframes exzGzYuY_draw_32{15.264797507788163%{stroke-dashoffset:206}43.042575285565945%{stroke-dashoffset:0}100%{stroke-dashoffset:0}} @keyframes exzGzYuY_draw_33{15.394600207684322%{stroke-dashoffset:558}43.1723779854621%{stroke-dashoffset:0}100%{stroke-dashoffset:0}} @keyframes exzGzYuY_draw_34{15.524402907580479%{stroke-dashoffset:599}43.30218068535825%{stroke-dashoffset:0}100%{stroke-dashoffset:0}} @keyframes exzGzYuY_draw_35{15.654205607476637%{stroke-dashoffset:82}43.431983385254405%{stroke-dashoffset:0}100%{stroke-dashoffset:0}} @keyframes exzGzYuY_draw_36{15.784008307372796%{stroke-dashoffset:98}43.56178608515057%{stroke-dashoffset:0}100%{stroke-dashoffset:0}} @keyframes exzGzYuY_draw_37{15.913811007268949%{stroke-dashoffset:152}43.691588785046726%{stroke-dashoffset:0}100%{stroke-dashoffset:0}} @keyframes exzGzYuY_draw_38{16.043613707165107%{stroke-dashoffset:540}43.82139148494289%{stroke-dashoffset:0}100%{stroke-dashoffset:0}} @keyframes exzGzYuY_draw_39{16.173416407061268%{stroke-dashoffset:250}43.951194184839046%{stroke-dashoffset:0}100%{stroke-dashoffset:0}} @keyframes exzGzYuY_draw_40{16.30321910695742%{stroke-dashoffset:555}44.0809968847352%{stroke-dashoffset:0}100%{stroke-dashoffset:0}} @keyframes exzGzYuY_draw_41{16.43302180685358%{stroke-dashoffset:6}44.21079958463135%{stroke-dashoffset:0}100%{stroke-dashoffset:0}} @keyframes exzGzYuY_draw_42{16.56282450674974%{stroke-dashoffset:6}44.34060228452752%{stroke-dashoffset:0}100%{stroke-dashoffset:0}} @keyframes exzGzYuY_draw_43{16.692627206645895%{stroke-dashoffset:579}44.47040498442367%{stroke-dashoffset:0}100%{stroke-dashoffset:0}} @keyframes exzGzYuY_draw_44{16.822429906542055%{stroke-dashoffset:79}44.600207684319834%{stroke-dashoffset:0}100%{stroke-dashoffset:0}} @keyframes exzGzYuY_draw_45{16.952232606438216%{stroke-dashoffset:23}44.73001038421599%{stroke-dashoffset:0}100%{stroke-dashoffset:0}} @keyframes exzGzYuY_draw_46{17.082035306334372%{stroke-dashoffset:57}44.85981308411215%{stroke-dashoffset:0}100%{stroke-dashoffset:0}} @keyframes exzGzYuY_draw_47{17.211838006230533%{stroke-dashoffset:103}44.98961578400831%{stroke-dashoffset:0}100%{stroke-dashoffset:0}} @keyframes exzGzYuY_draw_48{17.341640706126686%{stroke-dashoffset:142}45.11941848390447%{stroke-dashoffset:0}100%{stroke-dashoffset:0}} @keyframes exzGzYuY_draw_49{17.471443406022846%{stroke-dashoffset:142}45.24922118380063%{stroke-dashoffset:0}100%{stroke-dashoffset:0}} @keyframes exzGzYuY_draw_50{17.601246105919007%{stroke-dashoffset:560}45.37902388369678%{stroke-dashoffset:0}100%{stroke-dashoffset:0}} @keyframes exzGzYuY_draw_51{17.73104880581516%{stroke-dashoffset:364}45.508826583592935%{stroke-dashoffset:0}100%{stroke-dashoffset:0}} @keyframes exzGzYuY_draw_52{17.86085150571132%{stroke-dashoffset:387}45.638629283489095%{stroke-dashoffset:0}100%{stroke-dashoffset:0}} @keyframes exzGzYuY_draw_53{17.990654205607477%{stroke-dashoffset:369}45.768431983385256%{stroke-dashoffset:0}100%{stroke-dashoffset:0}} @keyframes exzGzYuY_draw_54{18.120456905503634%{stroke-dashoffset:1029}45.898234683281416%{stroke-dashoffset:0}100%{stroke-dashoffset:0}} @keyframes exzGzYuY_draw_55{18.250259605399794%{stroke-dashoffset:680}46.02803738317757%{stroke-dashoffset:0}100%{stroke-dashoffset:0}} @keyframes exzGzYuY_draw_56{18.38006230529595%{stroke-dashoffset:441}46.15784008307373%{stroke-dashoffset:0}100%{stroke-dashoffset:0}} @keyframes exzGzYuY_draw_57{18.509865005192104%{stroke-dashoffset:474}46.28764278296988%{stroke-dashoffset:0}100%{stroke-dashoffset:0}} @keyframes exzGzYuY_draw_58{18.639667705088264%{stroke-dashoffset:443}46.417445482866036%{stroke-dashoffset:0}100%{stroke-dashoffset:0}} @keyframes exzGzYuY_draw_59{18.769470404984425%{stroke-dashoffset:152}46.5472481827622%{stroke-dashoffset:0}100%{stroke-dashoffset:0}} @keyframes exzGzYuY_draw_60{18.899273104880578%{stroke-dashoffset:105}46.67705088265836%{stroke-dashoffset:0}100%{stroke-dashoffset:0}} @keyframes exzGzYuY_draw_61{19.029075804776742%{stroke-dashoffset:152}46.80685358255452%{stroke-dashoffset:0}100%{stroke-dashoffset:0}} @keyframes exzGzYuY_draw_62{19.158878504672895%{stroke-dashoffset:393}46.93665628245067%{stroke-dashoffset:0}100%{stroke-dashoffset:0}} @keyframes exzGzYuY_draw_63{19.288681204569055%{stroke-dashoffset:149}47.06645898234683%{stroke-dashoffset:0}100%{stroke-dashoffset:0}} @keyframes exzGzYuY_draw_64{19.418483904465216%{stroke-dashoffset:326}47.19626168224299%{stroke-dashoffset:0}100%{stroke-dashoffset:0}} @keyframes exzGzYuY_draw_65{19.54828660436137%{stroke-dashoffset:171}47.32606438213915%{stroke-dashoffset:0}100%{stroke-dashoffset:0}} @keyframes exzGzYuY_draw_66{19.67808930425753%{stroke-dashoffset:191}47.45586708203531%{stroke-dashoffset:0}100%{stroke-dashoffset:0}} @keyframes exzGzYuY_draw_67{19.807892004153686%{stroke-dashoffset:183}47.585669781931465%{stroke-dashoffset:0}100%{stroke-dashoffset:0}} @keyframes exzGzYuY_draw_68{19.937694704049843%{stroke-dashoffset:38}47.71547248182762%{stroke-dashoffset:0}100%{stroke-dashoffset:0}} @keyframes exzGzYuY_draw_69{20.067497403946003%{stroke-dashoffset:191}47.84527518172378%{stroke-dashoffset:0}100%{stroke-dashoffset:0}} @keyframes exzGzYuY_draw_70{20.19730010384216%{stroke-dashoffset:61}47.97507788161994%{stroke-dashoffset:0}100%{stroke-dashoffset:0}} @keyframes exzGzYuY_draw_71{20.327102803738317%{stroke-dashoffset:123}48.1048805815161%{stroke-dashoffset:0}100%{stroke-dashoffset:0}} @keyframes exzGzYuY_draw_72{20.456905503634477%{stroke-dashoffset:157}48.23468328141225%{stroke-dashoffset:0}100%{stroke-dashoffset:0}} @keyframes exzGzYuY_draw_73{20.586708203530634%{stroke-dashoffset:157}48.36448598130841%{stroke-dashoffset:0}100%{stroke-dashoffset:0}} @keyframes exzGzYuY_draw_74{20.71651090342679%{stroke-dashoffset:84}48.494288681204566%{stroke-dashoffset:0}100%{stroke-dashoffset:0}} @keyframes exzGzYuY_draw_75{20.84631360332295%{stroke-dashoffset:296}48.62409138110073%{stroke-dashoffset:0}100%{stroke-dashoffset:0}} @keyframes exzGzYuY_draw_76{20.976116303219108%{stroke-dashoffset:1001}48.753894080996886%{stroke-dashoffset:0}100%{stroke-dashoffset:0}} @keyframes exzGzYuY_draw_77{21.10591900311526%{stroke-dashoffset:1114}48.88369678089304%{stroke-dashoffset:0}100%{stroke-dashoffset:0}} @keyframes exzGzYuY_draw_78{21.23572170301142%{stroke-dashoffset:948}49.0134994807892%{stroke-dashoffset:0}100%{stroke-dashoffset:0}} @keyframes exzGzYuY_draw_79{21.365524402907578%{stroke-dashoffset:1288}49.14330218068535%{stroke-dashoffset:0}100%{stroke-dashoffset:0}} @keyframes exzGzYuY_draw_80{21.49532710280374%{stroke-dashoffset:92}49.27310488058151%{stroke-dashoffset:0}100%{stroke-dashoffset:0}} @keyframes exzGzYuY_draw_81{21.625129802699895%{stroke-dashoffset:263}49.402907580477674%{stroke-dashoffset:0}100%{stroke-dashoffset:0}} @keyframes exzGzYuY_draw_82{21.754932502596052%{stroke-dashoffset:528}49.532710280373834%{stroke-dashoffset:0}100%{stroke-dashoffset:0}} @keyframes exzGzYuY_draw_83{21.884735202492212%{stroke-dashoffset:254}49.66251298026999%{stroke-dashoffset:0}100%{stroke-dashoffset:0}} @keyframes exzGzYuY_draw_84{22.01453790238837%{stroke-dashoffset:509}49.79231568016615%{stroke-dashoffset:0}100%{stroke-dashoffset:0}} @keyframes exzGzYuY_draw_85{22.144340602284526%{stroke-dashoffset:814}49.9221183800623%{stroke-dashoffset:0}100%{stroke-dashoffset:0}} @keyframes exzGzYuY_draw_86{22.274143302180686%{stroke-dashoffset:1629}50.05192107995846%{stroke-dashoffset:0}100%{stroke-dashoffset:0}} @keyframes exzGzYuY_draw_87{22.403946002076843%{stroke-dashoffset:117}50.18172377985463%{stroke-dashoffset:0}100%{stroke-dashoffset:0}} @keyframes exzGzYuY_draw_88{22.533748701973%{stroke-dashoffset:233}50.31152647975078%{stroke-dashoffset:0}100%{stroke-dashoffset:0}} @keyframes exzGzYuY_draw_89{22.66355140186916%{stroke-dashoffset:117}50.44132917964694%{stroke-dashoffset:0}100%{stroke-dashoffset:0}} @keyframes exzGzYuY_draw_90{22.793354101765317%{stroke-dashoffset:233}50.571131879543096%{stroke-dashoffset:0}100%{stroke-dashoffset:0}} @keyframes exzGzYuY_draw_91{22.923156801661474%{stroke-dashoffset:117}50.70093457943925%{stroke-dashoffset:0}100%{stroke-dashoffset:0}} @keyframes exzGzYuY_draw_92{23.052959501557634%{stroke-dashoffset:233}50.830737279335416%{stroke-dashoffset:0}100%{stroke-dashoffset:0}} @keyframes exzGzYuY_draw_93{23.18276220145379%{stroke-dashoffset:117}50.96053997923157%{stroke-dashoffset:0}100%{stroke-dashoffset:0}} @keyframes exzGzYuY_draw_94{23.31256490134995%{stroke-dashoffset:233}51.09034267912773%{stroke-dashoffset:0}100%{stroke-dashoffset:0}} @keyframes exzGzYuY_draw_95{23.442367601246108%{stroke-dashoffset:117}51.22014537902388%{stroke-dashoffset:0}100%{stroke-dashoffset:0}} @keyframes exzGzYuY_draw_96{23.572170301142265%{stroke-dashoffset:233}51.349948078920036%{stroke-dashoffset:0}100%{stroke-dashoffset:0}} @keyframes exzGzYuY_draw_97{23.701973001038425%{stroke-dashoffset:173}51.47975077881619%{stroke-dashoffset:0}100%{stroke-dashoffset:0}} @keyframes exzGzYuY_draw_98{23.83177570093458%{stroke-dashoffset:233}51.60955347871236%{stroke-dashoffset:0}100%{stroke-dashoffset:0}} @keyframes exzGzYuY_draw_99{23.961578400830735%{stroke-dashoffset:138}51.73935617860851%{stroke-dashoffset:0}100%{stroke-dashoffset:0}} @keyframes exzGzYuY_draw_100{24.091381100726895%{stroke-dashoffset:92}51.86915887850467%{stroke-dashoffset:0}100%{stroke-dashoffset:0}} @keyframes exzGzYuY_draw_101{24.221183800623052%{stroke-dashoffset:164}51.998961578400824%{stroke-dashoffset:0}100%{stroke-dashoffset:0}} @keyframes exzGzYuY_draw_102{24.35098650051921%{stroke-dashoffset:40}52.12876427829699%{stroke-dashoffset:0}100%{stroke-dashoffset:0}} @keyframes exzGzYuY_draw_103{24.48078920041537%{stroke-dashoffset:480}52.258566978193144%{stroke-dashoffset:0}100%{stroke-dashoffset:0}} @keyframes exzGzYuY_draw_104{24.610591900311526%{stroke-dashoffset:244}52.388369678089305%{stroke-dashoffset:0}100%{stroke-dashoffset:0}} @keyframes exzGzYuY_draw_105{24.740394600207683%{stroke-dashoffset:289}52.518172377985465%{stroke-dashoffset:0}100%{stroke-dashoffset:0}} @keyframes exzGzYuY_draw_106{24.870197300103843%{stroke-dashoffset:601}52.647975077881625%{stroke-dashoffset:0}100%{stroke-dashoffset:0}} @keyframes exzGzYuY_draw_107{25%{stroke-dashoffset:563}52.77777777777778%{stroke-dashoffset:0}100%{stroke-dashoffset:0}}.EA{opacity:.1}.EB{fill:#fff}.EC{fill:#fdc2cc}.ED{fill:#263238}.EE{fill:#f5f5f5}.EF{stroke-dasharray:232 234}.EG{stroke-dashoffset:233}.EH{stroke:#0050ff}.EI{stroke-width:1.586}.EJ{fill:#407bff}.EK{stroke-dasharray:116 118}.EL{stroke-dashoffset:117}.EM{fill:#e6e6f0}.EN{fill:#565171}.EO{fill:#ebebeb}.EP{opacity:.05}.EQ{stroke-dasharray:91 93}.ER{stroke-dashoffset:92}.ES{fill:#b45181}.ET{fill:#c48c96}.EU{fill:#916f6f}.EV{font-family:Good Times}]]></style><defs><linearGradient xlink:href="#B" id="A" x1="702.058" y1="594.636" x2="702.058" y2="322.755"/><linearGradient id="B" gradientUnits="userSpaceOnUse"><stop offset="0" stop-color="gray" stop-opacity=".25"/><stop offset=".54" stop-color="gray" stop-opacity=".12"/><stop offset="1" stop-color="gray" stop-opacity=".1"/></linearGradient><linearGradient id="C" x1="228.01" y1="628.396" x2="228.01" y2="311.014" xlink:href="#B"/><path id="D" d="M267.531 342.093s21.239 4.191 25.228 8.853c0 0 3.631 2.548 0 7.186s-8.712 15.124-8.712 15.124-3.631 10.181-5.08 10.929-9.803 1.348-10.53-1.476c0 0 4.716-6.138 4.716-8.986s7.805-16.32 7.805-16.32-17.787-1.648-23.416-.6 2.546-16.359 9.988-14.711z" class="H" stroke-dasharray="151 153" stroke-dashoffset="152"/><path id="E" d="M257.55 297.045l19.421-9.281s.364 8.986 2.54 10.329c0 0-7.984 1.967-11.073 6.138z" class="O" stroke-dasharray="59 61" stroke-dashoffset="60"/><path id="F" d="M456.15 353.799s4.949 13.772 7.835 15.478 20.416 10.378 25.574 8.337c0 0 1.24 5.105-.596 6.296l-19.385-.679s-12.581-1.362-14.644-6.463-4.538-13.772-4.538-13.772z" class="Q" stroke-dasharray="113 115" stroke-dashoffset="114"/><path id="G" d="M177.965 371.117s-22.885 2.622-27.655 1.835l-12.713-9.965s-12.08 7.604 6.994 12.586l35.597 3.409z" class="S" stroke-dasharray="109 111" stroke-dashoffset="110"/><path id="H" d="M203.474 487.046a17.53 14.46 0 0 1-.399 2.843s-26.379 1.574-34.643 1.048c-3.977-.251-5.665-1.476-5.963-2.646-.364 1.348 1.079 3.123 5.963 3.443 8.264.526 34.643-1.048 34.643-1.048a18.365 15.149 0 0 0 .399-3.64z" class="T EQ ER"/><path id="I" d="M200.546 478.876c-1.658 1.687-3.995 2.336-6.44 2.435-5.557.216-11.675-2.435-11.675-2.435 4.132-2.882-6.356-28.316-6.356-28.316-8.58-3.409-7.948-11.012-7.948-11.012l2.779-41.266.704-10.368 8.902-4.456 7.012 4.427 6.654 4.21a26.749 22.064 0 0 1 .835 4.092c.775 9.635-8.461 11.903-8.461 11.903s3.816 9.699.316 18.616 2.54 16.782 2.54 16.782 11.442 27.268 9.54 28.842 1.598 6.546 1.598 6.546z" class="d" stroke-dasharray="236 238" stroke-dashoffset="237"/></defs><g class="EH EI"><path fill="#ccc" d="M1015.835 737.008H61.839A61.837 48.892 0 0 1 .069 688.17V95.754A45.303 35.82 0 0 1 45.32 59.975h986.247a46.087 36.438 0 0 1 46.035 36.398V688.17a61.837 48.892 0 0 1-61.768 48.838z" class="g" stroke-dasharray="3428 3430" stroke-dashoffset="3429"/><path d="M84.713 712.921h905.738a65.033 51.254 0 0 0 65.033-51.254V169.79a65.033 51.254 0 0 0-65.033-51.254H84.713A65.033 51.254 0 0 0 19.68 169.79v491.877a65.033 51.254 0 0 0 65.033 51.254z" class="h EB" stroke-dasharray="3162 3164" stroke-dashoffset="3163"/></g><path fill="#06f" d="M1077.952 94.97H0V62.994A62.068 63.085 0 0 1 62.016 0h953.918a62.068 63.085 0 0 1 62.016 62.994z" class="j"/><g transform="scale(1.5399307 1.6327664)" class="EB"><path d="M29.710999800000003,29.306A5.8860002,6.177 0,1,1 41.4830002,29.306A5.8860002,6.177 0,1,1 29.710999800000003,29.306" class="k"/><path d="M52.0539988,29.306A5.8860002,6.177 0,1,1 63.8259992,29.306A5.8860002,6.177 0,1,1 52.0539988,29.306" class="l"/><path d="M74.3979968,29.306A5.8860002,6.177 0,1,1 86.1699972,29.306A5.8860002,6.177 0,1,1 74.3979968,29.306" class="m"/></g><path d="M573.389 304.846s44.194-1.389 46.709-18.535" fill="none" stroke="#535461" stroke-miterlimit="10" stroke-width="1.717" class="n" stroke-dasharray="54 56" stroke-dashoffset="55"/><path d="M367.441 441.755l-3.075 3.91 3.673 4.4c.322.49 9.779-.242 9.779-.242l.836-2.931-1.395-3.421z" class="o EM"/><path d="M262.609 422.449l3.911 2.441 1.12-2.683-2.801-5.14-4.187-4.152-6.152.971 3.911 6.609z" class="AB EC"/><g transform="scale(1.5399307 1.6327664)"><use xlink:href="#D" x="-30.735" y="-111.815" class="EN"/><use xlink:href="#D" x="-30.735" y="-111.815" class="EA"/></g><path d="M357.938 382.591c-.065 1.422-.239 3.019-.487 4.738-1.791 12.448-7.621 30.959-7.621 30.959s-5.867 11.002-7.547 18.093-13.14 8.833-13.14 8.833-31.311 3.212-37.739 1.959-16.528 3.67-21.524 2.931-8.108-11.002-8.108-11.002a60.602 53.003 0 0 0 25.159-4.642c12.855-5.132 31.311-2.691 31.311-2.691a10.513 9.196 0 0 0 6.428-4.642c1.956-3.67 1.956-25.915 1.395-27.385-3.673-9.637-3.369-15.82-2.315-19.427a11.083 9.694 0 0 1 2.315-4.288z" class="Ax EN"/><path d="M357.938 382.591c-.065 1.422-.239 3.019-.487 4.738-2.81.193-10.689.377-16.528-2.779-5.51-2.955-13.525-3.959-17.133-4.273a11.083 9.694 0 0 1 2.315-4.288z" class="BD EA"/><path d="M361.804 379.532c-1.304 3.212-3.306 6.978-3.306 6.978s-10.339 1.221-17.611-2.691-19.007-4.4-19.007-4.4c1.9-1.02 3.186-4.119 3.985-6.835a49.52 43.309 0 0 0 1.047-4.658s34.377 6.111 35.811 7.091c.533.385-.037 2.328-.918 4.513z" class="BH EM"/><path d="M423.067 276.489l-41.697 22.013-4.141 2.185v-10.753l2.874-1.205 35.14-14.688s1.68-26.645 6.152-22.486 1.671 24.936 1.671 24.936z" class="Bf EC"/><path d="M381.37 298.502l-4.141 2.185v-10.753l2.874-1.205a90.482 79.135 0 0 0 1.267 9.774z" class="CC EA"/><g transform="scale(1.5399307 1.6327664)"><use xlink:href="#E" x="-30.735" y="-111.815" class="ES"/><use xlink:href="#E" x="-30.735" y="-111.815" class="EA"/></g><path d="M422.8 315.359s-14.223 5.421-23.644 7.413a18.567 16.238 0 0 1-6.546.658c-6.428-.98 1.68-8.03 1.68-8.03l3.379-.457 18.143-2.474s1.956-24.446 5.307-22.486 1.68 25.376 1.68 25.376zm-60.107-22.005s-12.019 7.823-7.547 17.603-23.204-5.87-23.204-5.87 8.944-11.733 10.9-20.535 19.851 8.802 19.851 8.802z" class="CE EC"/><path d="M361.804 379.532a63.357 55.411 0 0 0-16.16-3.293c-8.08-.803-15.481-2.16-19.77-3.654a49.52 43.309 0 0 0 1.047-4.658s34.377 6.111 35.811 7.091c.524.385-.046 2.328-.927 4.513zm37.343-56.761a18.567 16.238 0 0 1-6.546.658c-6.428-.98 1.68-8.03 1.68-8.03l3.379-.457c1.414 1.904 2.855 4.875 1.488 7.831z" class="CF EA"/><path d="M343.127 297.755s-10.9-.242-14.811 3.67-3.075 14.455-3.075 14.455-.818 21.113 5.307 32.926a1.837 1.607 0 0 1 .065 1.213c-.065.145-.065.055-.065.055s-3.911 15.404-7.823 18.093 8.383 5.87 22.956 7.333 20.403 5.132 20.403 5.132 2.516-2.41 2.755-7.823-3.884-44.739-3.884-44.739 15.372 3.421 24.599-.731c0 0 4.196 1.959 8.108-3.421s-2.755-11.243-2.755-11.243-6.152 5.38-23.204-1.711-23.276-13.451-28.575-13.211z" class="CG ES"/><path d="M256.181 413.405h-3.351v4.16l3.351 6.601 4.757.731c.285 0 3.911-.731 3.911-.731l1.12-1.711s-12.304-4.168-9.788-9.05z" class="CH EM"/><path d="M364.649 443.954l-5.032 9.782 21.248 8.833 16.776.49s1.395-3.421-4.196-5.132l-4.472-.731s-5.867-9.292-6.428-13.652c0 0-5.591.98-6.428 4.642-.011-.08-7.832 3.341-11.468-4.232zm-110.984-31.529l-1.708 1.221-7.512 5.38 17.327 20.076s9.779 3.67 14.26 0c0 0 2.755-2.41-3.351-4.4 0 0-4.757.731-4.757-3.421s1.12-8.552 2.755-9.532c0 0-4.196-1.221-5.307-.242a17.74 15.515 0 0 0-2.241 2.691s-10.026-3.461-9.467-11.772z" class="CI ES"/><path d="M342.291 285.042a33.974 29.713 0 0 1-1.12 3.662 14.535 12.713 0 0 0 18.612 6.995 23.121 20.222 0 0 1 2.359-1.855s-17.896-17.603-19.851-8.802zm-1.543 32.654s8.668 10.022 21.248 10.272m30.558-.459a3.603 3.821 0 0 1-.514-.168q-.403.185-.827.345c.454-.008.904-.067 1.341-.176zm2.975-13.828a12.396 13.144 0 0 0-.973-.98s-1.837 1.607-6.372 1.912a18.433 19.544 0 0 0 7.345-.932zm-28.088 14.391l.055.522a67.033 71.074 0 0 0 11.185.803 69.897 74.111 0 0 1-11.238-1.326zm-19.283 47.445c-14.535-1.469-26.83-4.642-22.956-7.333s7.823-18.093 7.823-18.093 0 .088.065-.055a1.278 1.355 0 0 0-.065-1.213c-6.124-11.846-5.307-32.926-5.307-32.926s-.836-10.512 3.077-14.455c2.91-2.914 9.697-3.517 12.974-3.638a7.022 7.445 0 0 0-.918 0s-10.9-.242-14.811 3.67-3.077 14.455-3.077 14.455-.818 21.113 5.307 32.926a1.278 1.355 0 0 1 .065 1.213c-.065.145-.065.055-.065.055s-3.884 15.355-7.832 18.045 8.383 5.87 22.956 7.333 20.403 5.132 20.403 5.132a6.006 6.368 0 0 0 .772-.988c-2.837-1.197-8.678-3.164-18.41-4.128z" class="CJ EA"/><path class="CK EC" d="M340.611 283.332a14.535 12.713 0 1 1 29.071 0 14.535 12.713 0 1 1-29.071 0"/><path d="M375.834 277.645c-1.203 2.634-4.794 3.63-7.943 4.312-4.5.963-9.347 1.912-13.655.418a2.984 2.611 0 0 0-1.837-.313 2.442 2.136 0 0 0-1.212.924c-4.748 5.911-3.976 13.789-5.207 20.935-.385 2.224-1.038 4.521-2.755 6.183-3.342 3.212-9.651 3.092-12.726 6.505-2.03 2.248-2.048 5.372-2.03 8.239q0 4.585-.092 9.179c-.055 2.008-.165 4.087-1.203 5.87-1.763 3.019-5.693 4.457-9.32 5.622-2.259.74-4.591 1.486-7.016 1.285s-4.848-1.607-5.16-3.726c-.431-2.875 2.957-4.882 5.29-6.954 3.728-3.3 5.262-8.103 5.399-12.745a15.61 13.652 0 0 0-.918-5.517c-.855-1.822-2.378-3.357-3.297-5.156-2.829-5.542.661-11.95 4.838-16.8s9.31-9.581 10.202-15.596a24.728 21.626 0 0 1 .633-3.863c.642-1.75 2.167-6.585 3.847-7.694a19.99 17.484 0 0 1 9.183-3.341c2.581-.33 5.216-.209 7.777-.642 2.994-.506 5.776-1.75 8.768-2.217 6.474-1.004 13.497 5.573 16.336 10.762.781 1.59 2.829 2.714 2.093 4.328z" class="CL EA"/><path d="M375.834 277.156c-1.203 2.634-4.794 3.63-7.943 4.312-4.5.963-9.347 1.912-13.655.418a2.984 2.611 0 0 0-1.837-.313 2.442 2.136 0 0 0-1.212.924c-4.748 5.911-3.976 13.789-5.207 20.935-.385 2.224-1.038 4.521-2.755 6.183-3.342 3.212-9.651 3.092-12.726 6.505-2.03 2.248-2.048 5.372-2.03 8.239q0 4.585-.092 9.179c-.055 2.008-.165 4.087-1.203 5.87-1.763 3.019-5.693 4.457-9.32 5.622-2.259.738-4.591 1.486-7.016 1.285s-4.848-1.607-5.16-3.726c-.431-2.875 2.957-4.882 5.29-6.954 3.728-3.3 5.262-8.103 5.399-12.745a15.61 13.652 0 0 0-.918-5.517c-.855-1.822-2.378-3.357-3.297-5.156-2.829-5.542.661-11.95 4.838-16.8s9.31-9.581 10.202-15.596a24.728 21.626 0 0 1 .633-3.863c.642-1.75 2.167-6.585 3.847-7.694a19.99 17.484 0 0 1 9.183-3.341c2.581-.33 5.216-.209 7.777-.642 2.994-.506 5.776-1.75 8.768-2.216 6.474-1.004 13.497 5.573 16.336 10.762.781 1.59 2.829 2.714 2.093 4.328z" fill="#f569bc" class="CM"/><path d="M424.065 168.856h206.303v211.329H424.065z" fill="#f7df1e" class="CN"/><path d="M444.215 306.297l18.493-9.79c3.573 5.533 6.813 10.215 14.6 10.215 7.466 0 12.167-2.554 12.167-12.479v-67.53h22.708v67.804c0 20.566-13.773 29.93-33.9 29.93-18.162 0-28.703-8.231-34.057-18.158m80.289-2.127l18.484-9.364c4.866 6.954 11.194 12.047 22.386 12.047 9.412 0 15.407-4.111 15.407-9.79 0-6.81-6.161-9.219-16.528-13.194l-5.675-2.127c-16.38-6.095-27.252-13.756-27.252-29.93 0-14.897 12.974-26.245 33.249-26.245 14.434 0 24.791 4.4 32.275 15.885l-17.675 9.934c-3.893-6.103-8.108-8.513-14.6-8.513-6.648 0-10.872 3.687-10.872 8.513 0 5.958 4.215 8.368 13.947 12.047l5.675 2.127c19.283 7.228 30.173 14.608 30.173 31.207 0 17.877-16.06 27.666-37.647 27.666-21.119 0-34.708-8.833-41.319-20.285" class="CO"/><path d="M770.447 581.329s-9.431.578-15.251-8.255a33.865 29.617 0 0 0-4.013-4.986 19.283 16.865 0 0 1-2.82-8.954c.322-6.546-7.484-42.395-7.484-42.395s.973-13.652-6.831-22.189c-5.142-5.622-12.534-21.683-16.987-32.059a2.452 2.144 0 0 0 1.047.482l-.183-.891h.183l-2.305-11.075a57.738 50.497 0 0 1-8.411-11.147l.524-.096 6.905-1.269s11.22-13.949 11.938-20.808h.918 1.295a269.956 236.103 0 0 1 31.091 1.422h0c0-.041-.074-.217-.165-.498h0a39.025 34.131 0 0 1-1.01-4.199h.642l6.428-.369s22.12-21.619 13.984-25.602-16.593 17.925-16.593 17.925l-2.755.434-.744.121a3.434 3.641 0 0 1 .229-.273c.083-.088-36.104-1.414-41.678-9.108 0 0-15.94-11.098-16.593-18.47a9.54 8.343 0 0 0-5.73-7.099 12.506 10.938 0 0 0-6.326-1.035l-7.466.449.524.803h-.211a25.113 21.964 0 0 1-1.175-2.892h.156c-.055-.201-.1-.402-.146-.602a17.566 15.363 0 0 0 12.937-18.921 7.024 6.144 0 0 0 2.194-.055c2.755-.49 4.692-2.931 4.766-5.372v-.474-.096a9.44 8.255 0 0 0-3.627-6.345c-1.488-1.084-3.269-1.855-4.591-3.06-1.606-1.437-2.489-3.365-3.737-5.06a17.17 15.018 0 0 0-8.815-5.999c-2.69-.803-5.996-.883-8.062.803-1.066.875-1.68 2.144-2.874 2.883-1.717 1.076-4.05.754-6.152.971a11.734 10.264 0 0 0-8.842 5.79 15.251 13.34 0 0 0-1.451 6.12 18.686 16.342 0 0 0 .588 4.296c.403 1.398 1.001 2.746 1.441 4.144.918 2.892 1.129 5.935 2.185 8.786a12.644 11.059 0 0 0 4.067 5.404l-.313 1.172c-.202 0-5.271.988-8.768 7.677-2.755 5.275-12.13 10.721-16.252 12.922a6.776 5.927 0 0 0-3.068 3.726 22.129 19.355 0 0 0-.524 4.73c-.074 3.429.744 8.175 3.893 14.19 7.153 13.652 12.359 19.627 12.359 19.627a99.125 105.101 0 0 0 .422 8.593c0 3.285-.276 6.552-1.075 8.192-.679 1.381-.918 4.906-.862 8.938 0 7.726.862 17.804.862 17.804s2.489.418 6.335.908l2.396 36.878a20.275 17.732 0 0 1-4.591 12.319 31.164 27.256 0 0 1-5.776 4.818c-6.831 4.265-21.468 49.22-21.468 49.22a21.728 23.038 0 0 0 1.891.121l-4.5 10.979s17.979 12.047 28.915 8.753a10.596 9.268 0 0 1 3.673-.449c2.157 0 6.776-1.494 4.206-3.461a166.674 145.773 0 0 1-14.021-12.754 7.456 6.521 0 0 1 1.01.522v-.088l.156.088s0-.442.119-1.164l-.156-.047c.331-2.955 1.377-10.44 3.453-11.307 2.598-1.14 21.799-34.429 21.799-34.429l19.191-43.245s15.288 23.048 28.299 27.024v9.637s7.153 28.453 9.76 31.576 0 15.644 0 15.644a8.916 7.798 0 0 0 1.754 1.349l-2.085 10.311s14.967-.57 40.337 6.255c-.019.041 9.742-3.654 1.606-8.208zm-59.849-148.794l-3.168.691-.624.137-.111-.545a6.428 5.622 0 0 1-2.305.49 42.376 37.062 0 0 1-1.928-9.597 73.935 64.664 0 0 1-1.937-11.885c0-2.072.394-3.879 1.286-4.898l1.056.072.735.611.055.041.376.297h0l.394.305.065.047.422.33.074.055.431.322h0l.487.353.111.08.514.361h0l.505.353.119.08.561.369.119.072.533.346.092.055.607.377.146.088.642.385h.055l.624.361.148.088.67.377.148.08.624.338.119.064.716.369.174.088.744.361h.055l.725.338.174.08.771.338.156.064.716.289.137.055.808.305.192.072.836.297h0c-5.188 4.995-7.851 16.64-7.851 16.64z" fill="url(#A)" class="CP"/><path d="M630.363 567.579L624.33 582.3s16.528 11.083 27.271 8.786a30.016 26.252 0 0 1 4.931-.699c2.222-.145 6.05-1.566 3.673-3.365-7.621-5.831-17.786-16.664-17.786-16.664zm100.353-1.389l-2.855 14.166s14.609-.554 39.382 6.111c0 0 9.531-3.613 1.589-8.03 0 0-9.183.554-14.92-8.03s-9.183-7.501-9.183-7.501z" fill="#4f4d59" class="CQ EH EI" stroke-dasharray="205 207" stroke-dashoffset="206"/><path d="M655.11 463.428l2.755 43.108a20.384 17.828 0 0 1-4.857 12.608 29.879 26.132 0 0 1-5.243 4.281c-6.666 4.168-20.963 48.047-20.963 48.047s16.197.803 20.641 3.613c0 0 .918-11.106 3.489-12.223s21.276-33.609 21.276-33.609l18.741-42.217s14.92 22.486 27.629 26.389v9.444s6.988 27.778 9.531 30.83 0 15.258 0 15.258 7.345 8.03 24.131-.554c0 0-5.399-5.275-5.077-11.669s-7.345-41.382-7.345-41.382.918-13.332-6.666-21.683-20.192-40.257-20.192-40.257l-8.742-16.447z" class="CR ET"/><path d="M629.886 571.467s14.287-43.881 20.963-48.047a28.735 30.467 0 0 0 5.51-4.562c3.258-3.45 4.9-7.852 4.591-12.319l-2.801-43.116 46.829-25.249-.633-1.197-49.051 26.452 2.801 43.116c.308 4.467-1.332 8.869-4.591 12.319a28.735 30.467 0 0 1-5.51 4.562c-6.657 4.16-20.963 48.039-20.963 48.039s16.197.803 20.641 3.613c0 0 0-.434.12-1.133-6.254-1.879-17.905-2.482-17.905-2.482zm101.307-2.498s2.544-12.223 0-15.258-9.531-30.83-9.531-30.83v-9.46c-12.698-3.888-27.629-26.389-27.629-26.389l-1.103 2.521c4.307 5.974 15.794 20.8 25.885 23.884v9.444s6.988 27.778 9.531 30.83 0 15.258 0 15.258 3.545 3.902 11.368 3.373c-5.849-.426-8.52-3.373-8.52-3.373z" class="CT EA"/><path d="M764.377 415.1l-6.235.361-3.288.193v-6.946l4.315-.683 2.672-.426s8.263-21.386 16.197-17.498-13.664 24.999-13.664 24.999z" fill="#714b4f" class="CU"/><path d="M664.346 357.849s-4.132 13.885-5.399 22.486 29.53 1.67 29.53 1.67-11.753-12.496-5.077-19.161z" class="CV EU"/><path d="M697.687 415.67l.633 5.275-9.843-.554-9.843-7.501-9.843-24.173-6.335-8.618-4.766-5.275 1.91-6.425 2.342 1.646c4.838 3.212 16.179 9.966 24.471 8.103a9.88 8.641 0 0 0 1.129-.313l12.387 18.607z" class="CX EM"/><path d="M662.126 366.772s-5.077.803-8.576 7.501c-2.681 5.124-11.753 10.44-15.803 12.584a6.776 5.927 0 0 0-3.077 3.742c-.818 3.164-1.129 9.067 3.315 17.556 6.988 13.332 12.065 19.161 12.065 19.161s1.267 13.332-.633 17.218 0 25.272 0 25.272 33.341 5.558 44.461 0 9.531-26.942 9.531-26.942 10.476 19.443 14.287 19.996l-2.222-10.833s-12.387-11.669-13.02-26.661c0 0-3.811-13.612-.633-17.218 0 0 53.67 3.888 56.847.554 0 0-35.251-1.389-40.65-8.89 0 0-15.564-10.833-16.197-18.053a9.127 7.983 0 0 0-4.766-6.546 12.433 10.874 0 0 0-7.116-1.389l-7.171.434s12.387 19.161 11.753 21.683.633 22.775.633 22.775-14.334-26.942-20.641-29.994-13.664-15.613-13.664-15.613l1.267-6.345" class="CY EA"/><path d="M697.687 415.67l.633 5.275-9.843-.554-9.843-7.501-9.843-24.173-6.335-8.618-4.766-5.275 1.91-6.425 2.342 1.646-.44 2.193s7.345 12.545 13.655 15.604 20.641 29.996 20.641 29.996-1.267-20.277-.633-22.775c.431-1.695-5.133-11.059-8.75-16.912a9.88 8.641 0 0 0 1.129-.313l12.387 18.607zm60.456-.209l-3.288.193v-6.946l4.315-.683c-1.506 1.742-1.451 4.826-1.029 7.437z" class="CZ EA"/><path d="M662.126 365.944s-5.077.803-8.576 7.501c-2.681 5.124-11.753 10.44-15.803 12.584a6.776 5.927 0 0 0-3.077 3.742c-.818 3.164-1.129 9.067 3.315 17.556 6.988 13.332 12.065 19.161 12.065 19.161s1.267 13.332-.633 17.218 0 25.272 0 25.272 33.341 5.558 44.461 0 9.531-26.942 9.531-26.942 10.468 19.41 14.287 20.005l-2.222-10.833s-12.387-11.669-13.02-26.661c0 0-3.811-13.612-.633-17.218 0 0 12.387 11.669 26.362 11.387a262.94 229.967 0 0 1 30.484 1.389s-3.177-8.89 0-12.223c0 0-35.251-1.389-40.65-8.89 0 0-15.564-10.833-16.197-18.053a9.127 7.983 0 0 0-4.766-6.546 12.433 10.874 0 0 0-7.116-1.389l-7.171.434s12.387 19.161 11.753 21.683.633 22.775.633 22.775-14.334-26.959-20.641-30.01-13.664-15.58-13.664-15.58l1.267-6.345" class="Ca ET"/><use xlink:href="#F" x="-30.735" y="-111.815" transform="scale(1.5399307 1.6327664)" class="EA"/><g transform="scale(1.5399307 1.6327664)" fill="#ba7855"><path d="M451.109 256.7c0-.47.323-.851.721-.851s.721.381.721.851-.323.851-.721.851-.721-.381-.721-.851" class="Cb"/><path d="M453.166 262.652c0-.47.323-.851.721-.851s.721.381.721.851-.323.851-.721.851-.721-.381-.721-.851" class="Cc"/></g><path d="M651.648 468.673s-1.91-21.386 0-25.272.633-17.218.633-17.218-5.077-5.831-12.065-19.161c-4.453-8.489-4.132-14.391-3.315-17.556.407-1.559 1.515-2.91 3.077-3.742 4.05-2.168 13.113-7.46 15.803-12.584 1.974-3.759 4.444-5.662 6.226-6.609l.12-.611s-5.077.803-8.576 7.501c-2.681 5.124-11.753 10.44-15.803 12.584-1.56.833-2.67 2.183-3.077 3.742-.818 3.164-1.129 9.067 3.315 17.556 6.988 13.332 12.065 19.161 12.065 19.161s1.267 13.332-.633 17.218 0 25.272 0 25.272 23.818 3.968 37.904 1.839c-14.223 1.486-35.672-2.119-35.672-2.119zm42.862-73.569c-.431 1.711 0 11.772.359 17.941l2.498 4.562s-1.267-20.277-.633-22.775c.607-2.41-10.55-19.804-11.662-21.523l-2.315.137s12.396 19.161 11.753 21.659zm35.893 23.329c-13.975.281-26.362-11.387-26.362-11.387a3.911 4.147 0 0 0-.799 1.502c3.673 2.988 13.773 10.384 24.939 10.159 10.184-.054 20.363.41 30.484 1.389l-.165-.498a288.59 288.59 0 0 0-28.098-1.164zm-24.791 23.331s.128 1.734.055 4.337c3.306 5.734 9.32 15.539 12.01 15.933l-.468-2.281c-4.618-5.075-11.597-17.988-11.597-17.988z" class="Cd EA"/><path d="M714.519 438.959l-6.75 1.244-5.325.98 2.855-6.946 1.993-.434 3.094-.674s4.444-19.443 13.342-18.053-9.21 23.884-9.21 23.884z" class="Ce EU"/><path d="M707.778 440.228l-5.325.98 2.855-6.946 1.993-.434a31.715 27.737 0 0 1 .477 6.4z" class="Cf EA"/><use xlink:href="#F" y="-112.154" x="-30.735" transform="scale(1.5399307 1.6327664)" class="ET"/><path d="M664.659 358.443l-1.506 5.341a17.143 14.994 0 0 0 18.924 7.63c-.762-2.851-.597-5.734 1.634-7.966z" class="Cg EA"/><path class="Ch EU" d="M660.849 356.219a17.152 15.002 0 1 1 34.303 0 17.152 15.002 0 1 1-34.303 0"/><path d="M692.895 352.091a9.183 8.03 0 0 0 3.819.209 6.289 5.501 0 0 0 4.646-5.244 9.183 8.03 0 0 0-3.536-6.191c-1.451-1.06-3.186-1.807-4.518-2.988-1.571-1.406-2.433-3.285-3.673-4.939a16.758 14.656 0 0 0-8.604-5.855c-2.626-.803-5.849-.867-7.869.803-1.038.859-1.643 2.088-2.801 2.818-1.68 1.043-3.958.738-6.006.947a11.451 10.014 0 0 0-8.631 5.622 16.169 14.141 0 0 0-.845 9.637c.394 1.365.982 2.683 1.404 4.015.918 2.826 1.103 5.79 2.13 8.577s3.149 5.517 6.363 6.353a20.118 17.595 0 0 1 2.048-9.067 2.975 2.603 0 0 1 1.451-1.414 3.508 3.068 0 0 1 1.745 0 17.446 15.258 0 0 0 11.616-2.056c1.221-.642 3.121-2.859 4.417-3.076 1.671-.248 5.096 1.51 6.84 1.847z" class="Ci EA"/><path d="M692.895 351.536a9.183 8.03 0 0 0 3.819.209 6.289 5.501 0 0 0 4.646-5.244 9.183 8.03 0 0 0-3.536-6.191c-1.451-1.06-3.186-1.807-4.518-2.988-1.571-1.406-2.433-3.285-3.673-4.939a16.758 14.656 0 0 0-8.604-5.855c-2.626-.803-5.849-.867-7.869.803-1.038.859-1.643 2.088-2.801 2.818-1.68 1.043-3.958.738-6.006.947a11.451 10.014 0 0 0-8.631 5.622 16.169 14.141 0 0 0-.845 9.637c.394 1.365.982 2.683 1.404 4.015.918 2.826 1.103 5.79 2.13 8.577s3.149 5.517 6.363 6.353a20.118 17.595 0 0 1 2.067-9.059 2.975 2.603 0 0 1 1.451-1.414 3.508 3.068 0 0 1 1.745 0 17.446 15.258 0 0 0 11.616-2.056c1.221-.642 3.121-2.859 4.417-3.076 1.652-.256 5.077 1.502 6.822 1.838z" fill="#483737" class="Cj"/><path d="M864.004 302.027l-13.993 137.084-62.898 15.258-62.723-15.258-13.975-137.084z" fill="#e44d26" class="Ck"/><path d="M787.205 442.71l50.824-12.319 11.938-117.153h-62.761z" fill="#f16529" class="Cl"/><path d="M760.007 346.871h27.198v-16.816h-48.206l.459 4.513 4.729 46.338h43.027V364.09H761.77zm4.37 42.442h-19.283l2.69 26.405 39.336 9.589h.091V407.76h-.083l-21.413-5.06z" class="Cm EO"/><path d="M787.14 380.905h23.672l-2.231 21.812-21.44 5.06v17.531l39.419-9.557.285-2.843 4.518-44.274.468-4.513h-44.69v16.816zm0-34.074v.041h46.443l.385-3.783.918-8.528.459-4.513h-48.206v16.777z" class="Co EB"/><path d="M297.051 376.593c-1.791-4.585-4.37-10.44-6.428-11.772a1.919 1.678 0 0 0-.403-.217h-.257v-5.662l-4.829.674a46.159 40.37 0 0 1-1.754-6.271 3.332 2.914 0 0 0 3.627.635c-.083-.113-.146-.233-.22-.353l.22-.08a8.972 7.845 0 0 1-1.166-3.847 16.014 14.006 0 0 1 .67-3.63c.864-2.611 2.324-5.052 3.14-7.669a21.32 18.648 0 0 0 .735-5.187 21.614 18.904 0 0 0-2.259-8.552 5.712 4.995 0 0 0-1.708-1.951 22.038 19.273 0 0 0-2.093-.891 11.303 9.886 0 0 1-3.04-2.65 27.308 23.884 0 0 0-13.194-7.702 7.723 6.753 0 0 0-4.215-.289c-3.242.803-4.426 4.281-7.051 6.12-2.324 1.607-5.51 1.791-8.411 2.336a14.306 12.512 0 0 0-7.832 3.59 8.502 7.437 0 0 0-2.102 4.964 5.702 4.986 0 0 0 2.324 4.433 7.281 6.368 0 0 0 6.152.762 20.926 18.302 0 0 0 15.84 23.007l.57.883h0a43.331 37.897 0 0 1 3.921 8.97c-4.444 2.209-9.301 4.273-12.23 4.466a20.614 18.029 0 0 1-.633 2.963 18.704 16.359 0 0 1-3.847 6.626c-3.985 3.919-21.918 33.552-21.918 33.552s-.57 1.18-1.488 3.212c-11.138 1.197-29.309 2.923-34.387 2.031l-19.925-16.56s-6.428 4.296-5.876 9.516l-3.59-2.988s-18.933 12.633 10.963 20.88l45.488 4.617c-4.333 11.436-8.374 24.743-7.125 31.986h.376a17.198 15.041 0 0 0 2.598-.176l-.083 1.285-4.38 68.607s-1.001 12.633 12.45 18.302c0 0 16.445 42.266 9.963 47.06a41.563 44.068 0 0 0 2.067.851l-13.525 10.44s-9.963 2.176-15.444 1.742a3.958 3.461 0 0 0-4.37 2.578c0 .088 0 .176-.055.273v.113.281.105.242.105a.45.45 0 0 0 .065.281v.105q.046.152.109.297v.096a4.42 4.42 0 0 0 .156.289v.064c.065.096.129.193.202.289l.065.08q.119.153.266.305l.074.08c.1.105.211.201.331.305h.055l.367.273.083.056.45.281.109.064.524.264h.083l.561.242h.083l.651.233.137.047.725.209h.119l.781.176h.065l.918.153h.174l.918.121h.174l1.056.088c2.048.137 4.811.184 8.008.176h0v.104.242.104c0 .096 0 .185.065.281v.105q.046.153.109.297v.096a4.43 4.43 0 0 0 .156.289v.064c.065.096.128.193.202.289l.065.08q.119.153.266.305l.074.08c.1.105.211.201.331.305h.046l.368.273.083.056.45.281.109.064.514.265h.083l.561.242h.083l.651.233.137.047.725.209h.119l.781.176h.065l.918.153h.174l.918.121h.174l1.056.088c12.955.875 54.304-1.742 54.304-1.742v-.104h0v-.129h0c.413-1.687 2.396-11.491-4.655-18.744a10.102 10.711 0 0 0 .607-.602s-5.51-8.28-2.489-10.889-14.591-47.527-14.591-47.527-9.468-13.074-3.985-27.891-.496-30.934-.496-30.934 13.085-3.39 13.323-17.467v-1.309a5.29 4.626 0 0 0 .827.047 3.865 3.381 0 0 0 .551 0s-2.489-7.845.496-13.508 9.467-.434 15.444-23.53c4.324-16.711 8.126-35.929 9.908-45.285a27.261 23.843 0 0 0-1.093-11.573zm-113.693 48.988l-4.546-3.775c1.506.545 3.177 1.076 5.042 1.607l17.124 1.758c-7.64.602-14.774.939-17.62.434z" fill="url(#C)" class="Cp"/><g transform="scale(1.5399307 1.6327664)"><use xlink:href="#G" x="-30.735" y="-111.815" class="EC"/><use xlink:href="#G" x="-30.735" y="-111.815" class="EP"/></g><path d="M157.738 434.18l-76.156-18.47-16.968-166.477h186.479l-16.987 166.452z" fill="#264de4" class="Cr"/><path d="M219.562 405.094l14.517-142.24h-76.213v157.168z" fill="#2965f1" class="Cs"/><path d="M103.563 324.569l2.093 20.414h52.247v-20.414zm-4.206-41.325l2.12 20.414h56.415v-20.414H99.313zm58.536 94.353h-.1l-26.003-6.144-1.662-16.287h-23.479l3.269 32.059 47.821 11.637h.109z" class="Ct EO"/><path d="M212.042 324.569l4.215-41.325H157.74v20.414h32.899l-2.12 20.88H157.74v20.414h28.749l-2.755 26.501-25.994 6.159v21.241l47.858-11.604.35-3.453 5.51-53.757.57-5.484z" class="Cu EB"/><path d="M239.461 597.181l-17.133 13.266s-9.788 2.144-15.168 1.711-7.832 7.276 4.894 8.134 53.348-1.711 53.348-1.711 3.911-13.701-7.832-21.402z" fill="#333" class="Cv"/><use xlink:href="#H" opacity=".3" x="-30.735" y="-111.815" transform="scale(1.5399307 1.6327664)" class="EB"/><path d="M259.514 354.5s10.77 13.266 6.85 22.261 20.56-9.419 20.56-9.419-7.832-12.038-3.911-24.887z" class="Cw EC"/><path d="M256.576 602.321l-17.116 13.266s-9.788 2.144-15.168 1.711-7.832 7.276 4.894 8.134 53.348-1.711 53.348-1.711 3.911-13.701-7.832-21.402z" fill="#333" class="Cx"/><g transform="scale(1.5399307 1.6327664)"><use xlink:href="#I" x="-30.735" y="-111.815" class="EN"/><use xlink:href="#I" x="-30.735" y="-111.815" class="EP"/></g><path d="M278.604 604.457c-8.319 8.987-27.896 0-27.896 0a3.121 2.73 0 0 0 .855-1.164c3.59-8.536-12.112-49.349-12.112-49.349-13.213-5.566-14.691-18.832-14.691-18.832l-3.462-68.599-.45-8.882 20.595-6.874 6.326-2.113 21.072 14.127a38.17 33.384 0 0 1 1.323 8.979c-.266 13.821-13.094 17.162-13.094 17.162s5.876 15.836.487 30.396 3.939 27.36 3.939 27.36 17.62 44.522 14.691 47.092 2.415 10.696 2.415 10.696z" class="Cy EN"/><path d="M270.165 471.749c-4.233-.531-12.8-4.986-17.198-7.405l-2.755-1.541s-4.407-10.704-16.151-2.57a43.973 38.46 0 0 1-12.763 6.312 29.861 26.116 0 0 1-5.445 1.197l1.084-16.929 13.708-7.276 10.798 7.228 6.326-2.113 21.072 14.119a38.17 33.384 0 0 1 1.323 8.979z" class="Cz EA"/><path d="M296.655 389.603c-1.745 9.188-5.51 28.108-9.732 44.481-5.876 22.687-12.239 17.547-15.168 23.112s-.487 13.266-.487 13.266c-4.894.426-21.046-8.987-21.046-8.987s-4.407-10.704-16.151-2.57-21.046 7.702-21.046 7.702c-2.452-14.127 15.664-51.798 15.664-51.798s17.62-29.111 21.533-32.926a18.364 16.062 0 0 0 3.784-6.505 20.247 17.707 0 0 0 .624-2.906c6.363-.426 22.038-9.846 22.038-9.846l12.239-1.711v5.566a1.837 1.607 0 0 1 .403.217c2.011 1.341 4.591 7.058 6.308 11.565a26.784 23.425 0 0 1 1.038 11.34z" fill="#e1a0a7" class="DA"/><path d="M239.461 429.805l-6.326-.642-48.491-4.923c-29.383-8.134-10.77-20.55-10.77-20.55l19.577 16.271c5.647.988 27.803-1.318 37.73-2.41l4.857-.562z" class="DB EC"/><path d="M286.923 372.014s-12.726-8.987-31.853 20.117-23.498 24.397-23.498 24.397 3.911 12.85 1.956 15.412c0 0 13.213-.859 18.107 0s35.241-32.533 35.241-32.533 15.71-18.832.046-27.393z" class="DC EA"/><path d="M286.436 370.305s-12.726-8.987-31.817 20.117-23.498 24.397-23.498 24.397 15.168 14.551 20.064 15.412 35.241-32.533 35.241-32.533 15.673-18.832.011-27.393z" class="DD EA"/><path d="M233.124 429.186c.202-3.172-1.166-8.745-1.956-11.637l4.857-.562 3.425 12.85z" class="DE EA"/><path d="M286.923 371.156s-12.726-8.987-31.853 20.125-23.498 24.397-23.498 24.397 3.911 12.85 1.956 15.412c0 0 13.213-.859 18.107 0s35.241-32.533 35.241-32.533 15.71-18.84.046-27.401z" fill="#e1a0a7" class="DF"/><path d="M283.535 343.33l-23.533 11.973a50.217 43.92 0 0 1 2.755 3.919 20.65 18.062 0 0 0 4.113.361c6.272 0 9.183-5.759 12.974-9.637-.276-3.084 2.607-3.164 3.691-6.618z" class="DG EA"/><path class="DH EC" d="M245.804 340.768a20.56 17.98 0 1 1 41.119 0 20.56 17.98 0 1 1-41.119 0"/><path d="M240.379 326.223a14.049 12.287 0 0 1 7.695-3.533c2.855-.539 5.987-.699 8.263-2.297 2.581-1.807 3.737-5.244 6.924-6.015a7.593 6.642 0 0 1 4.141.289 26.821 23.458 0 0 1 12.965 7.565 11.101 9.708 0 0 0 2.994 2.611 21.67 18.953 0 0 1 2.057.875 5.61 4.906 0 0 1 1.671 1.92 21.285 18.615 0 0 1 1.488 13.065c-.799 2.578-2.231 4.972-3.084 7.54s-1.066 5.476.487 7.774c-1.506.674-3.406-.176-4.352-1.406s-1.23-2.738-1.726-4.16a18.134 15.861 0 0 0-5.307-7.228c-1.543-1.189-4.298-1.992-5.371-.457-.413.594-.385 1.357-.744 1.976-.698 1.213-2.755 1.453-4.067.803a6.235 5.453 0 0 1-2.544-3.3c-2.011-5.966-5.454-9.717-12.744-7.171-2.755.947-5.923 1.607-8.539 0-3.351-2.152-2.681-6.417-.202-8.85z" class="DI EA"/><path d="M240.379 325.791a14.049 12.287 0 0 1 7.695-3.533c2.855-.539 5.987-.699 8.263-2.297 2.581-1.807 3.737-5.244 6.924-6.015a7.593 6.642 0 0 1 4.141.289 26.821 23.458 0 0 1 12.965 7.565 11.101 9.708 0 0 0 2.994 2.611 21.67 18.953 0 0 1 2.057.875 5.61 4.906 0 0 1 1.671 1.92 21.285 18.615 0 0 1 1.488 13.065c-.799 2.578-2.231 4.972-3.084 7.54s-1.066 5.476.487 7.774c-1.506.674-3.406-.176-4.352-1.406s-1.23-2.738-1.726-4.16a18.134 15.861 0 0 0-5.307-7.228c-1.543-1.189-4.298-1.992-5.371-.457-.413.594-.385 1.357-.744 1.976-.698 1.213-2.755 1.453-4.067.803a6.235 5.453 0 0 1-2.544-3.301c-2.011-5.966-5.454-9.717-12.744-7.171-2.755.947-5.923 1.607-8.539 0-3.351-2.144-2.681-6.409-.202-8.85z" class="DJ"/><path d="M289.282 366.667h-9.945s-19.577 8.561-20.064 8.134c-.331-.289-3.36.209-5.28.554a20.247 17.707 0 0 0 .624-2.906c6.363-.426 22.038-9.846 22.038-9.846l12.239-1.711v5.566a1.837 1.607 0 0 1 .385.209z" class="DK EP"/><use xlink:href="#H" x="-19.615" y="-108.673" opacity=".3" transform="scale(1.5399307 1.6327664)" class="EB"/><path d="M220.848 457.632c-6.602 4.578-12.441 6.425-16.28 7.228 0 .322.074.635.128.939 0 0 9.301.426 21.046-7.702 1.82-1.363 3.971-2.346 6.289-2.875-2.562-1.1-6.217-1.029-11.185 2.41zm66.425-80.26c-1.754-4.505-4.298-10.215-6.308-11.565a1.94 2.057 0 0 0-.403-.217l-3.911.217c2.011 1.341 3.976 6.634 5.73 11.131 1.421 3.656 1.788 7.563 1.066 11.372-1.745 9.188-5.51 28.108-9.732 44.481-5.876 22.687-12.239 17.547-15.168 23.112-2.405 4.562-1.203 10.553-.679 12.567a14.445 15.315 0 0 0 5.086 1.133s-2.452-7.702.487-13.266 9.301-.426 15.168-23.112c4.252-16.414 7.989-35.335 9.732-44.481.722-3.809.356-7.716-1.066-11.372z" class="DL EP"/><path d="M975.614 690.477c-9.434-4.541-20.318-3.654-29.028 2.368-2.308-17.619-11.774-33.16-25.761-42.297s-31.005-10.895-46.312-4.784c-2.72-20.202-14.269-37.696-30.96-46.9s-36.439-8.969-52.943.634c-10.98-9.462-25.353-12.834-38.923-9.13s-24.801 14.063-30.414 28.053c-14.725-14.081-35.361-18.143-53.66-10.559s-31.274 25.572-33.737 46.775a47.562 51.662 0 0 0-40.845 5.777c-11.874 8.59-24.249 34.891-25.415 50.377l423.86 2.328c-1.421-10.93-6.677-18.081-15.86-22.637z" fill="#ececec" class="DM EH EI" stroke-dasharray="1000 1002" stroke-dashoffset="1001"/><path d="M538.956 714.952c11.382-10.099 157.536-32.084 222.751-79.008 64.585-46.736 101.779-123.922 128.54-203.067l54.153 20.196s-34.334 178.796-128.173 261.411z" class="DN EJ"/><g class="EH EI"><path d="M658.534 695.767c52.182-16.609 53.262-20.872 109.534-57.862 52.861-41.667 86.84-103.921 108.744-174.481l54.926 23.626s-38.706 161.092-115.512 227.433H591.092z" opacity=".6" class="DP EB" stroke-dasharray="947 949" stroke-dashoffset="948"/><path d="M879.203 459.558c.396.153.233 1.845-.443 4.937l-1.386 5.662-.979 3.576-1.281 4.022-3.171 9.392-4.264 10.956-5.384 12.394-6.608 13.578-1.806 3.589-1.993 3.589-4.113 7.393-1.059 1.896-1.166 1.871-2.33 3.817-4.812 7.749c-3.496 5.089-6.887 10.523-10.85 15.74-1.946 2.634-3.858 5.383-5.944 8.017l-6.361 7.991-1.62 2.036-1.702 1.972-3.391 3.945-3.496 4.021c-1.166 1.349-2.412 2.545-3.636 3.932l-7.481 7.901-7.901 7.736a340.848 361.397 0 0 1-35.227 29.127c-23.83 16.982-49.41 30.838-76.211 41.28l-9.16 3.448-9.032 2.99-4.429 1.452-4.404 1.274-8.601 2.405-8.379 1.972a108.781 115.339 0 0 1-8.157 1.742l-7.82 1.412-3.799.661-3.717.483c-4.919.624-9.578 1.274-13.984 1.577s-23.932-.575-27.859-.588c-26.436 7.658-20.141 7.501-23.43 7.429-3.356-.073 20.969-4.133 18.219-4.284l1.314 4.446-3.433-1.386c-2.601-6.023-4.044 2.103-5.476 1.837-3.38-1.065 29.53-11.124 43.509-4.683 5.073 2.336-27.554-7.321-24.788-1.589 1.765-.193-31.116 5.773-29.345 5.661l31.775-7.491-12.242 7.653c-5.652-3.781 7.817-8.868 11.109-9.112l3.651-.312c3.81-.407 12.94-4.18 17.24-4.802s7.761-2.802 12.424-3.641l3.6-.7c1.166-.242 2.424-.56 3.648-.852l7.552-1.781c2.575-.547 5.151-1.349 7.797-2.074l8.075-2.266 8.262-2.66 4.23-1.362 4.253-1.553 8.682-3.169 8.81-3.602a385.491 408.73 0 0 0 73.415-40.898 360.097 381.806 0 0 0 34.143-27.893l7.726-7.356c2.505-2.482 4.906-5.089 7.341-7.507 1.166-1.274 2.435-2.443 3.577-3.728l3.426-3.817 3.403-3.817 1.689-1.858 1.608-1.92 6.338-7.571c2.085-2.545 3.998-5.089 5.955-7.635 3.985-4.924 7.458-10.053 11.001-14.863 1.736-2.431 3.322-4.937 4.94-7.329l2.401-3.563 1.166-1.77 1.166-1.781 4.324-6.985 2.097-3.372 1.934-3.385c2.539-4.466 5.08-8.654 7.19-12.801s4.335-7.929 6.083-11.656 4.38-7.125 5.976-10.282 1.948-6.159 3.195-8.792l1.771-3.728c.605-1.182 1.026-2.278 1.48-3.308.932-2.049-2.221-6.397-1.521-7.669 1.386-2.723 6.298-1.518 6.696-1.367zm2.937 27.141a64.739 68.641 0 0 0-12.306 23.058c-.765 2.488.015 5.228 1.94 6.812a5.451 5.78 0 0 0 6.532.136l.117-.09a242.616 257.242 0 0 0-9.543 31.24c-.742 3.05.345 6.28 2.723 8.09a6.714 7.119 0 0 0 7.894-.036c20.775-16.079 35.502-39.844 41.45-66.883z" class="DQ EJ" stroke-dasharray="1287 1289" stroke-dashoffset="1288"/><path d="M890.003 491.615a10.872 11.527 0 0 0-2.33 3.817 3.668 3.984 0 0 0 .804 4.237c1.597 1.476 4.335.585 5.827 2.15s.653 4.593-.408 6.732l-3.356 6.783c-.816 1.654-1.62 3.817-.559 5.293s3.566 1.069 5.279.127c8.017-4.552 13.476-13.114 14.602-22.904z" opacity=".3" class="DR EQ ER"/><path d="M982.413 400.62l.316.496c18.093 29.54 22.936 66.449 13.168 100.348l-6.118 21.264-30.24-42.589z" class="DS EJ" stroke-dasharray="262 264" stroke-dashoffset="263"/><path d="M982.413 400.62l-.105.395-.326 1.158-1.235 4.404-4.661 16.48-16.314 57.16v-.279l27.571 38.811 2.669 3.817-.525.114q1.842-6.363 3.613-12.535l3.403-12.177a109.05 118.449 0 0 0 3.776-23.566 105.416 114.503 0 0 0-.443-21.633c-.279-3.385-.885-6.591-1.363-9.684a60.068 65.245 0 0 0-1.957-8.768 107.147 116.382 0 0 0-9.498-25.145c-1.352-2.851-2.646-4.9-3.426-6.363l-1.224-2.201.362.521.955 1.603c.816 1.438 2.156 3.473 3.496 6.363a108.565 115.11 0 0 1 9.637 25.105c.816 2.75 1.34 5.726 2.016 8.792l1.398 9.723a104.309 113.299 0 0 1 .5 21.709 109.477 118.913 0 0 1-3.753 23.706l-3.403 12.19-3.6 12.535-.176.611-.36-.509-2.669-3.817-27.548-38.837-.082-.127v-.153l16.664-57.325 4.766-16.326 1.27-4.314.513-1.12a1.742 1.892 0 0 1 .058-.318z" class="DT ED" stroke-dasharray="527 529" stroke-dashoffset="528"/></g><path d="M871.977 362.763l-.525.217c-29.895 12.762-52.872 39.647-62.472 73.091l-6.024 20.971 46.461-15.854z" class="DV EJ"/><g class="EH"><g class="EI"><path d="M871.977 362.763s0 .114-.094.356-.176.637-.303 1.094l-1.166 4.275-4.591 16.124-16.115 56.639v.165h-.14l-42.348 14.481-4.113 1.399-.548.191.176-.611 3.496-12.357 3.496-11.962a108.3 117.636 0 0 1 9.206-21.505 104.423 110.718 0 0 1 11.654-17.255c1.993-2.545 4.149-4.797 6.154-7.011a59.688 63.286 0 0 1 6.164-5.88 101.774 107.91 0 0 1 20.777-14.329c2.587-1.452 4.661-2.266 6.118-2.928l1.608-.714.571-.202-2.133 1.032-6.06 3.029a105.254 111.6 0 0 0-20.615 14.507c-2.051 1.742-4.008 3.817-6.118 5.891s-4.125 4.441-6.095 6.998a102.071 110.868 0 0 0-11.525 17.218 112.507 119.29 0 0 0-9.112 21.339l-3.496 11.949-3.496 12.368-.373-.42 4.113-1.399 42.359-14.43-.186.202 16.314-56.268 4.731-16.212 1.27-4.327.339-1.133a2.279 2.416 0 0 1 .082-.318z" class="DW EB" stroke-dasharray="508 510" stroke-dashoffset="509"/><path d="M987.016 173.481c-8.739-2.99-31.906 16.173-58.696 52.273-26.371 35.553-37.291 70.738-37.291 70.738l-51.03 177.421 42.813 14.685 24.81 8.5 42.813 14.685 46.309-160.994c4.546-15.728 7.701-31.893 9.428-48.278a300.363 318.471 0 0 0 1.689-49.501c-2.12-46.217-12.05-76.526-20.801-79.53" class="DX EE" stroke-dasharray="813 815" stroke-dashoffset="814"/><path d="M987.016 173.481l.385.153.477.202.617.382a13.267 14.409 0 0 1 3.437 3.563c2.575 3.626 5.337 9.772 7.75 18.096a175.002 190.087 0 0 1 6.118 31.163 282.824 299.874 0 0 1 1.853 19.915c.443 7.089.71 14.595.628 22.496s-.467 16.186-1.166 24.813a248.925 270.381 0 0 1-3.332 26.799 283.58 283.58 0 0 1-6.409 28.224q-4.113 14.329-8.473 29.533l-38.233 133.064-.082.318-.293-.101-55.213-18.935-55.223-18.947-.291-.09.094-.318 38.315-133.064q4.37-15.193 8.496-29.522 2.062-7.152 4.067-14.099c1.432-4.606 3.146-8.997 4.895-13.273a261.234 276.982 0 0 1 23.562-45.007 305.912 332.281 0 0 1 24.764-32.779 194.429 211.187 0 0 1 21.348-21.797c6.281-5.396 11.654-8.832 15.697-10.268a12.909 14.022 0 0 1 4.661-.828l.699.064.5.127.384.114-.396-.077-.49-.114-.699-.064a13.3 14.448 0 0 0-4.661.891c-3.962 1.463-9.323 4.924-15.604 10.345a197.485 214.508 0 0 0-21.174 21.786 307.943 334.487 0 0 0-24.599 32.856 260.972 276.705 0 0 0-23.458 44.957c-1.737 4.275-3.496 8.667-4.858 13.234l-4.055 14.099q-4.113 14.329-8.473 29.533l-38.244 133.088-.199-.42 55.179 18.96L950.53 511.5l-.383.217 38.304-133.051 8.494-29.509c2.602-9.259 4.734-18.669 6.386-28.186 1.62-9.188 2.646-18.134 3.368-26.722a294.558 312.316 0 0 0 1.166-24.787c.069-7.901-.14-15.386-.582-22.459s-1.049-13.717-1.819-19.889a205.41 205.41 0 0 0-6.012-31.138c-2.33-8.322-5.092-14.468-7.632-18.096a13.598 14.417 0 0 0-3.379-3.589l-.605-.395-.467-.202z" class="DZ ED" stroke-dasharray="1628 1630" stroke-dashoffset="1629"/><path d="M848.075 445.793l109.528 36.801" class="Da EE EK EL"/><path d="M957.603 482.592c0 .178-24.611-7.929-54.852-18.081l-54.677-18.718c.094-.178 24.611 7.929 54.863 18.081z" class="Dd ED EF EG"/><path d="M846.047 451.009l109.528 36.788" class="Dg EE EK EL"/><path d="M955.553 487.797c0 .178-24.611-7.916-54.852-18.068l-54.688-18.718c0-.178 24.599 7.916 54.852 18.081z" class="Dh ED EF EG"/><path d="M844.498 456.709l109.528 36.801" class="Di EE EK EL"/><path d="M954.026 493.51c0 .165-24.611-7.929-54.852-18.081l-54.677-18.718c.094-.178 24.599 7.916 54.852 18.081z" class="Dj ED EF EG"/><path d="M842.947 462.411l109.528 36.801" class="Dk EE EK EL"/><path d="M952.476 499.212c0 .178-24.611-7.929-54.851-18.081l-54.677-18.718c.094-.178 24.611 7.929 54.863 18.081z" class="Dl ED EF EG"/><path d="M841.41 468.126l109.528 36.788" class="Dm EE EK EL"/><path d="M950.892 504.912c-.058.178-24.611-7.916-54.852-18.081l-54.675-18.705c.094-.165 24.647 7.89 54.897 18.068z" class="Dn ED EF EG"/><path d="M927.365 381.85c0 .294-.045.585-.117.865-.071.585-.303 1.388-.559 2.456l-2.39 8.908-8.473 29.14-8.787 29.037-2.738 8.768-.781 2.379a3.853 4.185 0 0 1-.303.815 4.127 4.376 0 0 1 .186-.865l.676-2.405 2.552-8.832 8.611-29.102 8.634-29.076 2.587-8.819.665-2.405a7.438 7.886 0 0 1 .233-.865z" fill="#04a" class="Do" stroke-dasharray="172 174" stroke-dashoffset="173"/><path d="M982.413 400.62c-.058.165-24.611-8.081-54.851-18.426l-54.677-19.087c.094-.217 24.599 8.067 54.852 18.413z" class="Dp EF EG EO"/><path d="M919.428 443.427a1.569 1.705 0 0 1 .827-.294 3.668 3.984 0 0 1 2.33.598 3.519 3.822 0 0 1 1.725 3.347 3.75 4.072 0 0 1-2.416 3.876 3.714 4.035 0 0 1-4.156-1.177 3.53 3.834 0 0 1-.722-3.817 3.611 3.922 0 0 1 1.386-2.1 1.488 1.616 0 0 1 .804-.382s-.268.191-.653.585a3.68 3.997 0 0 0-1.166 2.023 3.115 3.383 0 0 0 .722 3.22 3.185 3.458 0 0 0 3.531.981c1.249-.509 2.076-1.816 2.074-3.272.038-1.18-.491-2.296-1.398-2.939a3.691 4.01 0 0 0-2.062-.725c-.559.038-.827.14-.827.077zm10.405-34.091a1.511 1.641 0 0 1 .827-.294 3.704 4.022 0 0 1 2.33.598 3.519 3.822 0 0 1 1.712 3.347 3.75 4.072 0 0 1-2.416 3.876 3.714 4.035 0 0 1-4.156-1.177 3.53 3.834 0 0 1-.722-3.817 3.704 4.022 0 0 1 1.34-2.023 1.523 1.654 0 0 1 .804-.369s-.256.191-.653.573a3.773 4.098 0 0 0-1.166 2.036 3.08 3.346 0 0 0 .71 3.22 3.483 3.785 0 0 0 3.496.98c1.217-.563 2.025-1.842 2.074-3.283.045-1.176-.482-2.288-1.386-2.928a3.853 4.185 0 0 0-2.074-.738c-.408-.038-.71.064-.722 0zm-16.593-55.062a1.569 1.705 0 0 1 .827-.294 3.668 3.984 0 0 1 2.33.598 3.519 3.822 0 0 1 1.725 3.347 3.75 4.072 0 0 1-2.416 3.876 3.714 4.035 0 0 1-4.156-1.177 3.53 3.834 0 0 1-.722-3.817 3.611 3.922 0 0 1 1.386-2.1 1.488 1.616 0 0 1 .804-.382s-.256.191-.653.573c-.565.536-.972 1.246-1.166 2.036a3.115 3.383 0 0 0 .722 3.22 3.185 3.458 0 0 0 3.531.981c1.249-.509 2.076-1.816 2.074-3.272.038-1.18-.491-2.296-1.398-2.939a3.691 4.01 0 0 0-2.062-.725c-.467.038-.816.14-.827.077z" fill="#2a7fff" class="Dq" stroke-dasharray="137 139" stroke-dashoffset="138"/><path d="M911.422 328.736c.151 0-2.552 9.785-6.037 21.734l-6.619 21.543c-.163-.09 2.541-9.785 6.037-21.747z" class="Dr EO EQ ER"/><path d="M850.011 439.111s15.883-51.115 21.966-76.348c-8.029 10.486-17.084 22.524-21.804 35.171a52.766 57.313 0 0 0-.163 41.177z" opacity=".3" class="Ds" stroke-dasharray="163 165" stroke-dashoffset="164"/><path d="M867.397 574.949a5.941 6.453 0 0 0-4.47 7.607c.658 3.442 3.717 5.675 6.882 5.022s5.267-3.953 4.726-7.421-3.522-5.822-6.706-5.298" class="Dt EJ" stroke-dasharray="39 41" stroke-dashoffset="40"/><path d="M984.964 243.494c-7.153-7.811-16.664-12.113-26.779-12.113s-19.626 4.302-26.779 12.113-11.094 18.197-11.094 29.243 3.939 21.432 11.094 29.243 16.664 12.113 26.779 12.113 19.626-4.302 26.779-12.113 11.094-18.197 11.094-29.243-3.939-21.432-11.094-29.243zm-26.779 67.303c-19.22 0-34.855-17.074-34.855-38.061s15.636-38.061 34.855-38.061 34.855 17.074 34.855 38.061-15.636 38.061-34.855 38.061z" fill="#0af" class="Du" stroke-dasharray="479 481" stroke-dashoffset="480"/><path d="M921.313 272.871a36.807 40.191 0 1 1 73.615 0 36.807 40.191 0 1 1-73.615 0" class="Dv" stroke-dasharray="243 245" stroke-dashoffset="244"/></g><path d="M947.941 268.887h-9.15l-4.551 8.672 4.551 8.66h9.15l4.55-8.66zm6.264-9.726l-4.56 8.66 4.56 8.672h9.101l4.591-8.672-4.591-8.66zm-4.56 28.123l4.56 8.704h9.101l4.591-8.704-4.591-8.66h-9.101zm2.847-29.187l-4.55-8.704h-9.15l-4.551 8.704 4.551 8.66h9.15zm12.527-.044l4.55 8.704h9.15l4.55-8.66-4.55-8.704h-9.15z" fill="#0662ff" stroke-width=".157" class="Dw" stroke-dasharray="288 290" stroke-dashoffset="289"/></g><path d="M356.762 604.711c0 11.629 8.89 21.053 19.856 21.053h114.28c10.967 0 19.857-9.426 19.857-21.053V483.542c0-11.629-8.89-21.055-19.856-21.055h-114.28c-10.967 0-19.857 9.426-19.857 21.053V604.71z" fill="#563d7c" class="Dx"/><path d="M420.62 534.71v-23.122h19.195c1.829 0 3.591.162 5.288.485s3.2.9 4.506 1.731 2.35 1.985 3.134 3.461 1.175 3.37 1.175 5.677c0 4.154-1.175 7.155-3.526 9s-5.354 2.769-9.01 2.769zm-20.503-40.014v98.859H445.3a47.63 50.501 0 0 0 12.21-1.662c3.961-1.109 7.487-2.815 10.578-5.122s5.55-5.285 7.378-8.931 2.743-7.961 2.743-12.946c0-6.185-1.415-11.469-4.244-15.853s-7.118-7.454-12.863-9.207c4.179-2.123 7.335-4.846 9.467-8.169s3.198-7.476 3.198-12.461c0-4.616-.718-8.492-2.154-11.63s-3.46-5.653-6.072-7.545-5.745-3.254-9.401-4.085-7.704-1.246-12.144-1.246zm20.503 81.966v-27.138h22.329c4.44 0 8.009 1.084 10.709 3.254s4.048 5.791 4.048 10.869c0 2.585-.414 4.707-1.241 6.369s-1.937 2.977-3.331 3.946-3.003 1.662-4.831 2.077-3.744.622-5.745.622z" class="Dy EB"/><text xml:space="preserve" x="199.491" y="654.84" font-size="42.285" fill="#000" transform="scale(.97115504 1.0297017)" class="EV"><tspan x="199.491" y="654.84">BOOTSTRAP</tspan></text><text xml:space="preserve" x="100.988" y="230.073" font-size="46.513" fill="#000" transform="scale(.97115504 1.0297017)" class="EV"><tspan x="100.988" y="230.073">CSS</tspan></text><text xml:space="preserve" x="731.994" y="279.241" font-size="46.513" fill="#000" transform="scale(.97115504 1.0297017)" class="EV"><tspan x="731.994" y="279.241">HTML</tspan></text></svg>