<svg xmlns="http://www.w3.org/2000/svg" xmlns:svg="http://www.w3.org/2000/svg" id="svg3451" width="514.022" height="387.925" version="1.1"><metadata id="metadata3457"/><g id="g3439" transform="matrix(0.80545545,0,0.00457338,0.77334536,53.160954,-18.709148)"><g id="g3423" transform="matrix(1,0,2.34e-4,0.958735,-0.095236,16.772045)"><path id="path3419" fill="#d8eafb" d="M 4.977,107.353 0,116.317 v 259.162 c 0,17.102 13.864,30.966 30.966,30.966 h 450.068 c 17.102,0 30.966,-13.864 30.966,-30.966 V 116.317 l -4.977,-8.965 H 4.977 Z" opacity=".55"/><path id="path3421" fill="#fff" d="m 461.295,107.353 v 217.421 c 0,17.102 -13.864,30.966 -30.966,30.966 H 0 v 19.739 c 0,17.102 13.864,30.966 30.966,30.966 h 450.068 c 17.102,0 30.966,-13.864 30.966,-30.966 V 116.317 l -4.977,-8.965 h -45.728 z"/></g><path id="path3425" fill="#59f" d="m 200.129,423.744 v -13.379 a 2.62,2.62 0 0 1 2.621,-2.621 h 18.672 a 2.62,2.62 0 0 0 2.621,-2.621 v -25.406 a 2.62,2.62 0 0 0 -2.621,-2.621 H 202.75 a 2.62,2.62 0 0 1 -2.621,-2.621 v -17.753 a 2.62,2.62 0 0 0 -2.621,-2.621 H 155.46 a 2.62,2.62 0 0 0 -2.621,2.621 v 95.323 a 2.62,2.62 0 0 0 2.621,2.621 h 65.962 a 2.62,2.62 0 0 0 2.621,-2.621 v -23.061 a 2.62,2.62 0 0 0 -2.621,-2.621 H 202.75 a 2.62,2.62 0 0 1 -2.621,-2.619 z"/><path id="path3427" fill="#2a7fff" d="m 221.422,426.365 h -13.43 v 11.836 a 2.62,2.62 0 0 1 -2.621,2.621 h -52.532 v 11.225 a 2.62,2.62 0 0 0 2.621,2.621 h 65.962 a 2.62,2.62 0 0 0 2.621,-2.621 v -23.061 a 2.62,2.62 0 0 0 -2.621,-2.621 z m 0,-49.268 h -13.43 v 30.647 h 13.43 a 2.62,2.62 0 0 0 2.621,-2.621 v -25.406 c -0.001,-1.446 -1.174,-2.62 -2.621,-2.62 z"/><path id="path3429" fill="#59f" d="m 214.789,227.752 c 0,-44.552 -36.644,-80.544 -81.436,-79.483 -43.499,1.031 -78.388,37.521 -77.561,81.024 0.681,35.826 25.069,65.831 58.123,75.036 v 159.825 c 0,5.497 4.456,9.954 9.954,9.954 h 22.829 c 5.497,0 9.954,-4.456 9.954,-9.954 V 304.33 c 33.527,-9.337 58.137,-40.073 58.137,-76.578 z m -79.506,32.475 c -17.935,0 -32.474,-14.539 -32.474,-32.474 0,-17.935 14.539,-32.474 32.474,-32.474 17.935,0 32.474,14.539 32.474,32.474 0,17.935 -14.539,32.474 -32.474,32.474 z"/><path id="path3431" fill="#2a7fff" d="m 181.511,163.087 c 9.331,13.029 14.841,28.98 14.841,46.228 0,31.626 -18.472,58.923 -45.212,71.725 -7.909,3.787 -12.926,11.792 -12.926,20.561 v 138.804 a 15.27,15.27 0 0 1 -15.266,15.266 h -9.033 v 8.483 c 0,5.497 4.456,9.954 9.954,9.954 h 22.829 c 5.497,0 9.954,-4.456 9.954,-9.954 V 304.33 c 33.527,-9.337 58.138,-40.073 58.138,-76.577 -0.001,-26.663 -13.138,-50.242 -33.279,-64.666 z"/><g id="g3437" fill="#fff"><path id="path3433" d="m 300.704,306.455 h -0.043 c -3.172,-0.018 -5.986,-2.039 -7.017,-5.039 L 254.446,187.352 c -1.34,-3.899 0.735,-8.146 4.634,-9.486 3.899,-1.34 8.147,0.734 9.486,4.634 l 32.266,93.893 33.846,-94.972 a 7.47,7.47 0 0 1 9.538,-4.526 c 3.884,1.384 5.91,5.654 4.526,9.538 l -41.006,115.064 c -1.059,2.974 -3.876,4.958 -7.032,4.958 z"/><path id="path3435" d="m 380.963,306.455 h -0.031 A 7.47,7.47 0 0 1 373.897,301.4 L 334.645,186.336 a 7.47,7.47 0 0 1 4.655,-9.476 c 3.901,-1.333 8.144,0.751 9.477,4.655 l 32.282,94.632 32.888,-93.827 c 1.364,-3.891 5.626,-5.942 9.514,-4.575 3.888,1.367 5.94,5.623 4.576,9.514 l -40.029,114.198 c -1.05,2.996 -3.875,4.998 -7.045,4.998 z"/></g></g><path id="path3441" fill="#06f" d="M 467.71488,82.712002 H 54.206945 V 71.0051 A 23.809263,23.09828 0 0 1 77.996878,47.940075 H 443.92495 A 23.809263,23.09828 0 0 1 467.71488,71.0051 Z" style="stroke-width:.789237"/><g id="g3449" fill="#fff" transform="matrix(0.80545545,0,0,0.77334536,54.331791,-18.709148)"><ellipse id="ellipse3443" cx="24.473" cy="108.715" rx="4.201" ry="5.284"/><ellipse id="ellipse3445" cx="40.42" cy="108.715" rx="4.201" ry="5.284"/><ellipse id="ellipse3447" cx="56.368" cy="108.715" rx="4.201" ry="5.284"/></g></svg>