<svg xmlns="http://www.w3.org/2000/svg" width="512" height="512"  xmlns:v="https://vecta.io/nano"><g transform="matrix(1 0 .005678 1 -1.453633 0)"><g transform="matrix(1 0 .000234 .958735 -.095236 16.772045)"><path fill="#d8eafb" d="M4.977 107.353L0 116.317v259.162c0 17.102 13.864 30.966 30.966 30.966h450.068c17.102 0 30.966-13.864 30.966-30.966V116.317l-4.977-8.965H4.977z" opacity=".55"/><path fill="#fff" d="M461.295 107.353v217.421c0 17.102-13.864 30.966-30.966 30.966H0v19.739c0 17.102 13.864 30.966 30.966 30.966h450.068c17.102 0 30.966-13.864 30.966-30.966V116.317l-4.977-8.965h-45.728z"/></g><path fill="#59f" d="M200.129 423.744v-13.379a2.62 2.62 0 0 1 2.621-2.621h18.672a2.62 2.62 0 0 0 2.621-2.621v-25.406a2.62 2.62 0 0 0-2.621-2.621H202.75a2.62 2.62 0 0 1-2.621-2.621v-17.753a2.62 2.62 0 0 0-2.621-2.621H155.46a2.62 2.62 0 0 0-2.621 2.621v95.323a2.62 2.62 0 0 0 2.621 2.621h65.962a2.62 2.62 0 0 0 2.621-2.621v-23.061a2.62 2.62 0 0 0-2.621-2.621H202.75a2.62 2.62 0 0 1-2.621-2.619z"/><path d="M221.422 426.365h-13.43v11.836a2.62 2.62 0 0 1-2.621 2.621h-52.532v11.225a2.62 2.62 0 0 0 2.621 2.621h65.962a2.62 2.62 0 0 0 2.621-2.621v-23.061a2.62 2.62 0 0 0-2.621-2.621zm0-49.268h-13.43v30.647h13.43a2.62 2.62 0 0 0 2.621-2.621v-25.406c-.001-1.446-1.174-2.62-2.621-2.62z" fill="#2a7fff"/><path fill="#59f" d="M214.789 227.752c0-44.552-36.644-80.544-81.436-79.483-43.499 1.031-78.388 37.521-77.561 81.024.681 35.826 25.069 65.831 58.123 75.036v159.825c0 5.497 4.456 9.954 9.954 9.954h22.829c5.497 0 9.954-4.456 9.954-9.954V304.33c33.527-9.337 58.137-40.073 58.137-76.578zm-79.506 32.475c-17.935 0-32.474-14.539-32.474-32.474s14.539-32.474 32.474-32.474 32.474 14.539 32.474 32.474-14.539 32.474-32.474 32.474z"/><path fill="#2a7fff" d="M181.511 163.087c9.331 13.029 14.841 28.98 14.841 46.228 0 31.626-18.472 58.923-45.212 71.725-7.909 3.787-12.926 11.792-12.926 20.561v138.804a15.27 15.27 0 0 1-15.266 15.266h-9.033v8.483c0 5.497 4.456 9.954 9.954 9.954h22.829c5.497 0 9.954-4.456 9.954-9.954V304.33c33.527-9.337 58.138-40.073 58.138-76.577-.001-26.663-13.138-50.242-33.279-64.666z"/><g fill="#fff"><path d="M300.704 306.455h-.043c-3.172-.018-5.986-2.039-7.017-5.039l-39.198-114.064c-1.34-3.899.735-8.146 4.634-9.486s8.147.734 9.486 4.634l32.266 93.893 33.846-94.972a7.47 7.47 0 0 1 9.538-4.526c3.884 1.384 5.91 5.654 4.526 9.538l-41.006 115.064c-1.059 2.974-3.876 4.958-7.032 4.958z"/><path d="M380.963 306.455h-.031a7.47 7.47 0 0 1-7.035-5.055l-39.252-115.064a7.47 7.47 0 0 1 4.655-9.476c3.901-1.333 8.144.751 9.477 4.655l32.282 94.632 32.888-93.827c1.364-3.891 5.626-5.942 9.514-4.575s5.94 5.623 4.576 9.514l-40.029 114.198c-1.05 2.996-3.875 4.998-7.045 4.998z"/></g></g><path fill="#06f" d="M513.229 131.146H-.155v-15.138a29.56 29.868 0 0 1 29.536-29.825h454.312a29.56 29.868 0 0 1 29.536 29.825z"/><g fill="#fff"><ellipse ry="5.284" rx="4.201" cy="108.715" cx="24.473"/><ellipse ry="5.284" rx="4.201" cy="108.715" cx="40.42"/><ellipse ry="5.284" rx="4.201" cy="108.715" cx="56.368"/></g></svg>