<?xml version="1.0" encoding="UTF-8" standalone="no"?>
<svg
   width="514.02222"
   height="387.92499"
   version="1.1"
   id="svg3451"
   sodipodi:docname="keyword-research-AWS Aruba.svg"
   inkscape:version="1.2.2 (732a01da63, 2022-12-09)"
   xmlns:inkscape="http://www.inkscape.org/namespaces/inkscape"
   xmlns:sodipodi="http://sodipodi.sourceforge.net/DTD/sodipodi-0.dtd"
   xmlns="http://www.w3.org/2000/svg"
   xmlns:svg="http://www.w3.org/2000/svg"
   xmlns:rdf="http://www.w3.org/1999/02/22-rdf-syntax-ns#"
   xmlns:cc="http://creativecommons.org/ns#"
   xmlns:dc="http://purl.org/dc/elements/1.1/">
  <metadata
     id="metadata3457">
    <rdf:RDF>
      <cc:Work
         rdf:about="">
        <dc:format>image/svg+xml</dc:format>
        <dc:type
           rdf:resource="http://purl.org/dc/dcmitype/StillImage" />
      </cc:Work>
    </rdf:RDF>
  </metadata>
  <defs
     id="defs3455" />
  <sodipodi:namedview
     pagecolor="#ffffff"
     bordercolor="#666666"
     borderopacity="1"
     objecttolerance="10"
     gridtolerance="10"
     guidetolerance="10"
     inkscape:pageopacity="0"
     inkscape:pageshadow="2"
     inkscape:window-width="1366"
     inkscape:window-height="697"
     id="namedview3453"
     showgrid="false"
     inkscape:zoom="1.5644531"
     inkscape:cx="256.95881"
     inkscape:cy="180.25468"
     inkscape:window-x="-8"
     inkscape:window-y="-8"
     inkscape:window-maximized="1"
     inkscape:current-layer="svg3451"
     inkscape:showpageshadow="2"
     inkscape:pagecheckerboard="0"
     inkscape:deskcolor="#d1d1d1" />
  <g
     transform="matrix(0.80545545,0,0.00457314,0.74143326,53.160951,-5.7385648)"
     id="g3423"
     style="fill:#ffffff">
    <path
       fill="#d8eafb"
       d="M 4.977,107.353 0,116.317 v 259.162 c 0,17.102 13.864,30.966 30.966,30.966 h 450.068 c 17.102,0 30.966,-13.864 30.966,-30.966 V 116.317 l -4.977,-8.965 H 4.977 Z"
       opacity="0.55"
       id="path3419"
       style="fill:#ffffff" />
    <path
       fill="#ffffff"
       d="m 461.295,107.353 v 217.421 c 0,17.102 -13.864,30.966 -30.966,30.966 H 0 v 19.739 c 0,17.102 13.864,30.966 30.966,30.966 h 450.068 c 17.102,0 30.966,-13.864 30.966,-30.966 V 116.317 l -4.977,-8.965 h -45.728 z"
       id="path3421"
       style="fill:#ffffff" />
  </g>
  <path
     fill="#5599ff"
     d="m 216.29389,308.99131 -0.0612,-10.34659 a 2.1107265,2.025749 3.9700205 0 1 2.09911,-2.02694 h 15.03947 a 2.1107265,2.025749 3.9700205 0 0 2.09911,-2.02694 l -0.11619,-19.64761 a 2.1107265,2.025749 3.9700205 0 0 -2.12309,-2.02694 h -15.03946 a 2.1107265,2.025749 3.9700205 0 1 -2.12309,-2.02693 l -0.0812,-13.7292 a 2.1107265,2.025749 3.9700205 0 0 -2.12308,-2.02694 H 179.9965 a 2.1107265,2.025749 3.9700205 0 0 -2.09912,2.02694 l 0.43595,73.7176 a 2.1107265,2.025749 3.9700205 0 0 2.12309,2.02693 h 53.12945 a 2.1107265,2.025749 3.9700205 0 0 2.09911,-2.02693 l -0.10546,-17.83412 a 2.1107265,2.025749 3.9700205 0 0 -2.12309,-2.02694 h -15.03946 a 2.1107265,2.025749 3.9700205 0 1 -2.12308,-2.02539 z"
     id="path3425"
     style="stroke-width:0.789237;fill:#ff5555" />
  <path
     d="m 233.45644,311.01825 h -10.81727 l 0.0541,9.15331 a 2.1107265,2.025749 3.9700205 0 1 -2.09911,2.02694 h -42.31218 l 0.0513,8.6808 a 2.1107265,2.025749 3.9700205 0 0 2.12309,2.02694 h 53.12945 a 2.1107265,2.025749 3.9700205 0 0 2.09911,-2.02694 l -0.10546,-17.83412 a 2.1107265,2.025749 3.9700205 0 0 -2.12309,-2.02693 z m -0.22532,-38.10118 h -10.81727 l 0.14016,23.70071 h 10.81727 a 2.1107265,2.025749 3.9700205 0 0 2.09911,-2.02694 l -0.11619,-19.64761 c -0.007,-1.11826 -0.95759,-2.02616 -2.12308,-2.02616 z"
     fill="#2a7fff"
     id="path3427"
     style="stroke-width:0.789237;fill:#ff0000" />
  <path
     fill="#5599ff"
     d="m 227.20552,157.4218 c -0.20375,-34.45408 -29.88347,-62.288324 -65.95657,-61.467805 -35.0318,0.797319 -62.966449,29.016695 -62.101382,62.659535 0.712362,27.70587 20.493032,50.9101 47.158652,58.02874 l 0.73094,123.59992 c 0.0251,4.25108 3.63464,7.69788 8.06303,7.69788 h 18.38774 c 4.42759,0 7.99713,-3.44602 7.97198,-7.69788 l -0.73093,-123.59914 c 26.9618,-7.22073 46.64349,-30.99027 46.47654,-59.22125 z m -63.89002,25.11439 c -14.44584,0 -26.22285,-11.24366 -26.30488,-25.11361 -0.082,-13.86995 11.56201,-25.11362 26.00785,-25.11362 14.44584,0 26.22285,11.24367 26.30487,25.11362 0.082,13.86995 -11.562,25.11361 -26.00784,25.11361 z"
     id="path3429"
     style="stroke-width:0.789237;fill:#ff5555" />
  <path
     fill="#2a7fff"
     d="m 200.10584,107.41343 c 7.57529,10.07591 12.0863,22.41155 12.16518,35.75021 0.14464,24.45782 -14.6089,45.56782 -36.08823,55.46819 -6.35302,2.92866 -10.35738,9.11929 -10.31728,15.90076 l 0.6348,107.34343 a 12.301829,11.80656 3.9700205 0 1 -12.22626,11.80589 h -7.27568 l 0.0388,6.56028 c 0.0251,4.25108 3.63464,7.69788 8.06303,7.69788 h 18.38774 c 4.42759,0 7.99713,-3.44602 7.97198,-7.69788 l -0.73093,-123.59914 c 26.9618,-7.22073 46.6443,-30.99027 46.47735,-59.22047 -0.12274,-20.61971 -10.81185,-38.85442 -27.10049,-50.00915 z"
     id="path3431"
     style="stroke-width:0.789237;fill:#ff0000" />
  <g
     fill="#ffffff"
     id="g3437"
     transform="matrix(0.80545545,0,0.00457338,0.77334536,53.160954,-18.709148)">
    <path
       d="m 300.704,306.455 h -0.043 c -3.172,-0.018 -5.986,-2.039 -7.017,-5.039 L 254.446,187.352 c -1.34,-3.899 0.735,-8.146 4.634,-9.486 3.899,-1.34 8.147,0.734 9.486,4.634 l 32.266,93.893 33.846,-94.972 a 7.47,7.47 0 0 1 9.538,-4.526 c 3.884,1.384 5.91,5.654 4.526,9.538 l -41.006,115.064 c -1.059,2.974 -3.876,4.958 -7.032,4.958 z"
       id="path3433" />
    <path
       d="m 380.963,306.455 h -0.031 A 7.47,7.47 0 0 1 373.897,301.4 L 334.645,186.336 a 7.47,7.47 0 0 1 4.655,-9.476 c 3.901,-1.333 8.144,0.751 9.477,4.655 l 32.282,94.632 32.888,-93.827 c 1.364,-3.891 5.626,-5.942 9.514,-4.575 3.888,1.367 5.94,5.623 4.576,9.514 l -40.029,114.198 c -1.05,2.996 -3.875,4.998 -7.045,4.998 z"
       id="path3435" />
  </g>
  <path
     fill="#0066ff"
     d="M 467.71488,82.712002 H 54.206945 V 71.0051 A 23.809263,23.09828 0 0 1 77.996878,47.940075 H 443.92495 A 23.809263,23.09828 0 0 1 467.71488,71.0051 Z"
     id="path3441"
     style="stroke-width:0.789237;fill:#ff0000" />
  <g
     fill="#ffffff"
     id="g3449"
     transform="matrix(0.80545545,0,0,0.77334536,54.331791,-18.709148)">
    <ellipse
       ry="5.2839999"
       rx="4.2010002"
       cy="108.715"
       cx="24.473"
       id="ellipse3443" />
    <ellipse
       ry="5.2839999"
       rx="4.2010002"
       cy="108.715"
       cx="40.419998"
       id="ellipse3445" />
    <ellipse
       ry="5.2839999"
       rx="4.2010002"
       cy="108.715"
       cx="56.368"
       id="ellipse3447" />
  </g>
</svg>
