<svg xmlns="http://www.w3.org/2000/svg" width="500" height="500" style="width: 100%; height: 100%; content-visibility: visible;"><defs><clipPath id="a"><path d="M0 0h500v500H0z" class="fVueKBvA_0"></path></clipPath></defs><g clip-path="url(#a)"><path stroke-linecap="round" stroke-linejoin="round" stroke="#2F80E8" stroke-width="12.4656" d="M188.804 319.539h-54.849l-46.873 89.973h325.132l-46.878-89.973h-50.392s0 0 0 0h-4.63" fill="none" display="block" class="fVueKBvA_1"></path><path stroke-linecap="round" stroke-linejoin="round" stroke="#FFF" stroke-width="12.4656" d="M168.028 228.37c-3.133-5.46-5.915-11.138-7.912-17.112-3.15-9.434-4.85-19.526-4.85-30.02 0-54.407 45.86-98.109 101.064-94.556 46.801 3.015 84.855 40.785 88.226 87.565.878 12.21-.568 23.973-3.926 34.89-2.086 6.793-5.126 13.25-8.662 19.411L250.05 371.233 168.028 228.37z" fill="none" display="block" class="fVueKBvA_2"></path><path stroke-linecap="round" stroke-linejoin="round" stroke="#2F80E8" stroke-width="12.4656" d="M294.634 181.243c0 24.626-19.966 44.592-44.592 44.592-24.626 0-44.592-19.966-44.592-44.592 0-24.626 19.966-44.592 44.592-44.592 24.626 0 44.592 19.966 44.592 44.592z" fill="none" display="block" class="fVueKBvA_3"></path></g><style data-made-with="vivus-instant">.fVueKBvA_0{stroke-dasharray:2000 2002;stroke-dashoffset:2001;animation:fVueKBvA_draw_0 7200ms ease-in-out 0ms infinite,fVueKBvA_fade 7200ms linear 0ms infinite;}.fVueKBvA_1{stroke-dasharray:638 640;stroke-dashoffset:639;animation:fVueKBvA_draw_1 7200ms ease-in-out 0ms infinite,fVueKBvA_fade 7200ms linear 0ms infinite;}.fVueKBvA_2{stroke-dasharray:726 728;stroke-dashoffset:727;animation:fVueKBvA_draw_2 7200ms ease-in-out 0ms infinite,fVueKBvA_fade 7200ms linear 0ms infinite;}.fVueKBvA_3{stroke-dasharray:281 283;stroke-dashoffset:282;animation:fVueKBvA_draw_3 7200ms ease-in-out 0ms infinite,fVueKBvA_fade 7200ms linear 0ms infinite;}@keyframes fVueKBvA_draw{100%{stroke-dashoffset:0;}}@keyframes fVueKBvA_fade{0%{stroke-opacity:1;}94.44444444444444%{stroke-opacity:1;}100%{stroke-opacity:0;}}@keyframes fVueKBvA_draw_0{11.11111111111111%{stroke-dashoffset: 2001}38.88888888888889%{ stroke-dashoffset: 0;}100%{ stroke-dashoffset: 0;}}@keyframes fVueKBvA_draw_1{15.740740740740739%{stroke-dashoffset: 639}43.51851851851851%{ stroke-dashoffset: 0;}100%{ stroke-dashoffset: 0;}}@keyframes fVueKBvA_draw_2{20.37037037037037%{stroke-dashoffset: 727}48.148148148148145%{ stroke-dashoffset: 0;}100%{ stroke-dashoffset: 0;}}@keyframes fVueKBvA_draw_3{25%{stroke-dashoffset: 282}52.77777777777778%{ stroke-dashoffset: 0;}100%{ stroke-dashoffset: 0;}}</style></svg>