<svg xmlns="http://www.w3.org/2000/svg" width="500" height="500" style="width: 100%; height: 100%; content-visibility: visible;"><defs><clipPath id="a"><path d="M0 0h500v500H0z" class="urCSdzDw_0"></path></clipPath></defs><g clip-path="url(#a)"><path stroke-linecap="round" stroke-linejoin="round" stroke="#FFF" stroke-width="12.74" d="M139.158 255.138c-3.77-11.666-5.978-24.07-5.978-37.006 0-67.063 56.525-120.928 124.572-116.546 57.69 3.714 104.59 50.274 108.745 107.933 1.085 15.05-.823 29.509-4.84 43.001C342.902 315.475 250.01 408.2 250.01 408.2s-87.437-80.619-110.852-153.062z" fill="none" display="block" class="urCSdzDw_1"></path><path stroke-linecap="round" stroke-linejoin="round" stroke="#2F80E8" stroke-width="12.74" d="M304.963 218.14c0 30.355-24.608 54.96-54.964 54.96-30.355 0-54.964-24.605-54.964-54.96 0-30.356 24.609-54.964 54.964-54.964 30.356 0 54.964 24.608 54.964 54.963z" fill="none" display="block" class="urCSdzDw_2"></path></g><style data-made-with="vivus-instant">.urCSdzDw_0{stroke-dasharray:2000 2002;stroke-dashoffset:2001;animation:urCSdzDw_draw_0 7200ms ease 0ms infinite,urCSdzDw_fade 7200ms linear 0ms infinite;}.urCSdzDw_1{stroke-dasharray:824 826;stroke-dashoffset:825;animation:urCSdzDw_draw_1 7200ms ease 0ms infinite,urCSdzDw_fade 7200ms linear 0ms infinite;}.urCSdzDw_2{stroke-dasharray:346 348;stroke-dashoffset:347;animation:urCSdzDw_draw_2 7200ms ease 0ms infinite,urCSdzDw_fade 7200ms linear 0ms infinite;}@keyframes urCSdzDw_draw{100%{stroke-dashoffset:0;}}@keyframes urCSdzDw_fade{0%{stroke-opacity:1;}94.44444444444444%{stroke-opacity:1;}100%{stroke-opacity:0;}}@keyframes urCSdzDw_draw_0{11.11111111111111%{stroke-dashoffset: 2001}38.88888888888889%{ stroke-dashoffset: 0;}100%{ stroke-dashoffset: 0;}}@keyframes urCSdzDw_draw_1{18.055555555555554%{stroke-dashoffset: 825}45.83333333333333%{ stroke-dashoffset: 0;}100%{ stroke-dashoffset: 0;}}@keyframes urCSdzDw_draw_2{25%{stroke-dashoffset: 347}52.77777777777778%{ stroke-dashoffset: 0;}100%{ stroke-dashoffset: 0;}}</style></svg>