<svg xmlns="http://www.w3.org/2000/svg" width="500" height="500" style="width: 100%; height: 100%; content-visibility: visible;"><defs><clipPath id="a"><path d="M0 0h500v500H0z" class="YlhZsgQk_0"></path></clipPath></defs><g clip-path="url(#a)"><path stroke-linecap="round" stroke-linejoin="round" stroke="#FFF" stroke-width="12.04" d="M324.731 410.119H175.269c-6.6 0-12-5.4-12-12V101.881c0-6.6 5.4-12 12-12h149.462c6.6 0 12 5.4 12 12v296.238c0 6.6-5.4 12-12 12z" fill="none" display="block" class="YlhZsgQk_1"></path><g display="block"><path fill="#FFF" d="M203.236 89.88c5.735 0 10.791 2.203 12.438 5.42l3.03 5.917c1.292 2.524 5.259 4.253 9.76 4.253h43.072c4.501 0 8.468-1.729 9.76-4.253l3.03-5.917c1.647-3.217 6.703-5.42 12.438-5.42" class="YlhZsgQk_2"></path><path stroke-linecap="round" stroke-linejoin="round" stroke="#FFF" stroke-width="12.04" d="M203.236 89.88c5.735 0 10.791 2.203 12.438 5.42l3.03 5.917c1.292 2.524 5.259 4.253 9.76 4.253h43.072c4.501 0 8.468-1.729 9.76-4.253l3.03-5.917c1.647-3.217 6.703-5.42 12.438-5.42" fill="none" class="YlhZsgQk_3"></path></g><path stroke-linecap="round" stroke-linejoin="round" stroke="#2F80E8" stroke-width="12.04" d="M210.258 390.47h79.484M290.03 230.043h-80.06v-66.832h80.06v66.832z" fill="none" display="block" class="YlhZsgQk_4"></path><path stroke-linecap="round" stroke-linejoin="round" stroke="#FFF" stroke-width="12.04" d="M209.97 265.549h80.06m-80.06 33.416h80.06m-80.06 33.416h80.06" fill="none" display="block" class="YlhZsgQk_5"></path></g><style data-made-with="vivus-instant">.YlhZsgQk_0{stroke-dasharray:2000 2002;stroke-dashoffset:2001;animation:YlhZsgQk_draw_0 7200ms ease 0ms infinite,YlhZsgQk_fade 7200ms linear 0ms infinite;}.YlhZsgQk_1{stroke-dasharray:967 969;stroke-dashoffset:968;animation:YlhZsgQk_draw_1 7200ms ease 0ms infinite,YlhZsgQk_fade 7200ms linear 0ms infinite;}.YlhZsgQk_2{stroke-dasharray:107 109;stroke-dashoffset:108;animation:YlhZsgQk_draw_2 7200ms ease 0ms infinite,YlhZsgQk_fade 7200ms linear 0ms infinite;}.YlhZsgQk_3{stroke-dasharray:107 109;stroke-dashoffset:108;animation:YlhZsgQk_draw_3 7200ms ease 0ms infinite,YlhZsgQk_fade 7200ms linear 0ms infinite;}.YlhZsgQk_4{stroke-dasharray:374 376;stroke-dashoffset:375;animation:YlhZsgQk_draw_4 7200ms ease 0ms infinite,YlhZsgQk_fade 7200ms linear 0ms infinite;}.YlhZsgQk_5{stroke-dasharray:241 243;stroke-dashoffset:242;animation:YlhZsgQk_draw_5 7200ms ease 0ms infinite,YlhZsgQk_fade 7200ms linear 0ms infinite;}@keyframes YlhZsgQk_draw{100%{stroke-dashoffset:0;}}@keyframes YlhZsgQk_fade{0%{stroke-opacity:1;}94.44444444444444%{stroke-opacity:1;}100%{stroke-opacity:0;}}@keyframes YlhZsgQk_draw_0{11.11111111111111%{stroke-dashoffset: 2001}38.88888888888889%{ stroke-dashoffset: 0;}100%{ stroke-dashoffset: 0;}}@keyframes YlhZsgQk_draw_1{13.88888888888889%{stroke-dashoffset: 968}41.66666666666667%{ stroke-dashoffset: 0;}100%{ stroke-dashoffset: 0;}}@keyframes YlhZsgQk_draw_2{16.666666666666664%{stroke-dashoffset: 108}44.44444444444444%{ stroke-dashoffset: 0;}100%{ stroke-dashoffset: 0;}}@keyframes YlhZsgQk_draw_3{19.444444444444446%{stroke-dashoffset: 108}47.22222222222222%{ stroke-dashoffset: 0;}100%{ stroke-dashoffset: 0;}}@keyframes YlhZsgQk_draw_4{22.22222222222222%{stroke-dashoffset: 375}50%{ stroke-dashoffset: 0;}100%{ stroke-dashoffset: 0;}}@keyframes YlhZsgQk_draw_5{25%{stroke-dashoffset: 242}52.77777777777778%{ stroke-dashoffset: 0;}100%{ stroke-dashoffset: 0;}}</style></svg>