<svg xmlns="http://www.w3.org/2000/svg" xmlns:xlink="http://www.w3.org/1999/xlink" width="1039.828" height="619.229" xmlns:v="https://vecta.io/nano"><path d="M627.82 526c-2.774 0-5.577-.044-8.328-.13l.063-1.998c3.95.123 7.981.157 11.95.103l.027 2q-1.853.025-3.712.025zm15.745-.464l-.117-1.996c3.956-.233 7.963-.562 11.909-.975l.209 1.988c-3.977.417-8.014.748-12.001.982zm-36.096-.312a264.89 264.89 0 0 1-11.982-1.192l.244-1.984a263.65 263.65 0 0 0 11.891 1.183zm60.039-2.199l-.3-1.977c3.931-.597 7.892-1.289 11.77-2.06l.39 1.961c-3.908.776-7.898 1.475-11.859 2.075zm-83.935-.731a263.66 263.66 0 0 1-11.823-2.283l.424-1.955c3.875.842 7.822 1.604 11.733 2.266zm107.548-3.962l-.48-1.941a261.87 261.87 0 0 0 11.532-3.134l.568 1.918c-3.823 1.134-7.732 2.196-11.62 3.157zm-131.076-1.146a260.9 260.9 0 0 1-11.562-3.363l.603-1.906a258.77 258.77 0 0 0 11.474 3.336zm154.158-5.701l-.656-1.889a260.52 260.52 0 0 0 11.194-4.184l.742 1.857a262.26 262.26 0 0 1-11.28 4.215zm-177.146-1.566c-3.754-1.38-7.532-2.869-11.228-4.426l.776-1.844c3.667 1.545 7.416 3.022 11.142 4.393zm199.475-7.368l-.828-1.82c3.596-1.634 7.21-3.378 10.742-5.184l.91 1.781a262.83 262.83 0 0 1-10.824 5.223zm-221.71-1.994a262.85 262.85 0 0 1-10.766-5.437l.942-1.764c3.508 1.874 7.102 3.689 10.684 5.396zm243.109-8.944l-.99-1.736a263.48 263.48 0 0 0 10.229-6.148l1.068 1.689a262.45 262.45 0 0 1-10.308 6.195zm-264.376-2.418c-3.433-2.042-6.87-4.195-10.216-6.399l1.101-1.67c3.32 2.188 6.731 4.324 10.138 6.351zm284.699-10.439l-1.145-1.639c3.247-2.269 6.487-4.645 9.631-7.061l1.219 1.586c-3.167 2.435-6.433 4.828-9.705 7.113zm-304.826-2.816a265.59 265.59 0 0 1-9.585-7.302l1.248-1.562c3.108 2.481 6.309 4.919 9.512 7.245zm323.903-11.846l-1.289-1.529a264.59 264.59 0 0 0 8.953-7.91l1.357 1.469c-2.937 2.716-5.972 5.397-9.021 7.971zm-342.728-3.186c-3.006-2.633-5.993-5.371-8.877-8.14l1.385-1.443a262.91 262.91 0 0 0 8.81 8.079zm360.401-13.161l-1.424-1.404a264.73 264.73 0 0 0 8.201-8.695l1.486 1.338a265.72 265.72 0 0 1-8.264 8.762zm-377.773-3.512c-2.758-2.9-5.482-5.898-8.097-8.91l1.511-1.311a262.75 262.75 0 0 0 8.035 8.842zm393.893-14.38l-1.545-1.27c2.521-3.067 5.002-6.232 7.378-9.409l1.602 1.197a263.04 263.04 0 0 1-7.435 9.481zm-409.671-3.797a264.06 264.06 0 0 1-7.25-9.604l1.623-1.168a263.76 263.76 0 0 0 7.195 9.532zm424.1-15.497l-1.654-1.123c2.23-3.284 4.415-6.664 6.492-10.048l1.705 1.047a265.42 265.42 0 0 1-6.543 10.124zm-438.151-4.029a265.47 265.47 0 0 1-6.34-10.22l1.723-1.016c2.013 3.415 4.129 6.827 6.292 10.142zm450.766-16.511l-1.75-.967a262.08 262.08 0 0 0 5.546-10.606l1.793.887a263.6 263.6 0 0 1-5.589 10.687zm-462.971-4.205c-1.865-3.525-3.674-7.143-5.375-10.75l1.809-.854c1.689 3.58 3.483 7.17 5.334 10.668zm473.651-17.416l-1.832-.803a260.78 260.78 0 0 0 4.549-11.078l1.867.717a263.04 263.04 0 0 1-4.584 11.164zm-483.902-4.315a262.32 262.32 0 0 1-4.364-11.19l1.88-.684c1.352 3.718 2.809 7.453 4.33 11.104zm492.551-18.216l-1.898-.629a258.81 258.81 0 0 0 3.5-11.426l1.926.541a262.39 262.39 0 0 1-3.527 11.514zm-500.767-4.383c-1.19-3.812-2.308-7.705-3.323-11.574l1.935-.508a260.86 260.86 0 0 0 3.298 11.486zm507.286-18.795l-1.948-.453a260.32 260.32 0 0 0 2.434-11.698l1.967.361a261.69 261.69 0 0 1-2.452 11.79zm-513.394-4.494c-.834-3.906-1.589-7.886-2.243-11.83l1.973-.328c.65 3.915 1.399 7.864 2.227 11.74zm517.752-19.184l-1.982-.271c.538-3.917.992-7.911 1.351-11.872l1.992.18c-.361 3.992-.819 8.017-1.36 11.964zm-521.694-4.566a266.03 266.03 0 0 1-1.151-11.984l1.995-.146a262.76 262.76 0 0 0 1.143 11.895zm523.869-19.409l-1.998-.09A267.85 267.85 0 0 0 888.82 263h2a268.88 268.88 0 0 1-.27 12.036zm-525.626-4.602L364.82 263q0-2.309.04-4.608l2 .035q-.04 2.282-.04 4.573l.103 7.38zm523.882-10.225a266.46 266.46 0 0 0-.394-11.946l1.996-.111a269.09 269.09 0 0 1 .397 12.036zm-521.471-13.723l-1.996-.125a265.92 265.92 0 0 1 1.023-11.997l1.988.215c-.426 3.935-.768 7.94-1.016 11.906zm520.142-10.135a262.44 262.44 0 0 0-1.477-11.858l1.979-.292c.584 3.956 1.085 7.975 1.488 11.948zm-517.569-13.618l-1.977-.306c.613-3.957 1.325-7.944 2.116-11.854l1.96.396c-.785 3.88-1.492 7.837-2.1 11.763zm514.074-10.016c-.763-3.901-1.623-7.829-2.559-11.672l1.943-.473a265.33 265.33 0 0 1 2.578 11.761zm-509.337-13.401l-1.94-.486a262.29 262.29 0 0 1 3.197-11.609l1.915.575c-1.141 3.801-2.208 7.677-3.172 11.521zm503.685-9.813a260.24 260.24 0 0 0-3.622-11.387l1.891-.65a261.6 261.6 0 0 1 3.651 11.475zm-496.8-13.1l-1.887-.663a262.09 262.09 0 0 1 4.265-11.291l1.854.75a259.64 259.64 0 0 0-4.233 11.204zm489.033-9.495c-1.459-3.681-3.021-7.375-4.645-10.979l1.824-.821c1.636 3.633 3.21 7.355 4.68 11.063zm-480.057-12.703l-1.817-.835a263.14 263.14 0 0 1 5.284-10.842l1.777.917c-1.822 3.53-3.586 7.15-5.244 10.76zm470.269-9.036c-1.79-3.531-3.687-7.069-5.637-10.515l1.74-.985c1.966 3.473 3.876 7.038 5.68 10.596zm-459.292-12.229l-1.733-.998a264.22 264.22 0 0 1 6.254-10.306l1.686 1.076a262.15 262.15 0 0 0-6.206 10.228zm447.542-8.535c-2.113-3.364-4.326-6.716-6.577-9.962l1.643-1.14c2.269 3.271 4.499 6.648 6.628 10.038zm-434.668-11.623l-1.635-1.152c2.306-3.27 4.716-6.529 7.166-9.687l1.58 1.226c-2.431 3.135-4.824 6.369-7.112 9.614zm421.064-7.992a263.19 263.19 0 0 0-7.462-9.327l1.533-1.285c2.561 3.056 5.09 6.217 7.519 9.398zM429.009 93.891l-1.522-1.297c2.587-3.039 5.284-6.064 8.015-8.991l1.462 1.364a265 265 0 0 0-7.955 8.923zm391.07-7.408c-2.687-2.924-5.474-5.823-8.282-8.614l1.41-1.419a266.89 266.89 0 0 1 8.345 8.679zM445.313 76.419l-1.398-1.43a265.34 265.34 0 0 1 8.795-8.221l1.332 1.492a262.92 262.92 0 0 0-8.729 8.159zm357.818-6.78a264.08 264.08 0 0 0-9.035-7.828l1.275-1.541c3.073 2.543 6.137 5.197 9.104 7.888zm-340-9.132l-1.263-1.551c3.093-2.519 6.29-5.003 9.502-7.384l1.191 1.606c-3.188 2.363-6.361 4.829-9.431 7.329zM784.713 54.4c-3.177-2.392-6.445-4.739-9.715-6.976l1.129-1.65c3.295 2.253 6.588 4.618 9.789 7.029zm-302.399-8.11l-1.116-1.659c3.311-2.228 6.719-4.409 10.13-6.484l1.039 1.709a263.39 263.39 0 0 0-10.053 6.435zm282.659-5.391c-3.38-2.092-6.851-4.131-10.315-6.062l.973-1.747a265 265 0 0 1 10.396 6.107zm-262.271-7.01l-.96-1.755a264.28 264.28 0 0 1 10.674-5.527l.879 1.797a261.59 261.59 0 0 0-10.593 5.485zm241.37-4.634c-3.559-1.773-7.204-3.486-10.835-5.091l.809-1.829c3.659 1.617 7.333 3.343 10.919 5.13zm-219.948-5.844l-.795-1.835c3.66-1.586 7.404-3.108 11.128-4.522l.71 1.87a260.22 260.22 0 0 0-11.043 4.487zm198.052-3.834a260.27 260.27 0 0 0-11.266-4.072l.637-1.896c3.801 1.276 7.62 2.656 11.352 4.104zm-175.743-4.637l-.623-1.9c3.801-1.246 7.679-2.419 11.525-3.486l.535 1.927a259.54 259.54 0 0 0-11.437 3.46zm153.064-2.974c-3.814-1.087-7.705-2.1-11.563-3.01l.459-1.946a262.67 262.67 0 0 1 11.653 3.032zM569.454 8.55l-.445-1.95c3.896-.89 7.866-1.701 11.797-2.41l.355 1.968a260.66 260.66 0 0 0-11.707 2.392zm106.788-2.067A260.7 260.7 0 0 0 664.45 4.55l.277-1.98c3.96.556 7.958 1.211 11.883 1.948zm-83.275-2.176l-.265-1.982a264.04 264.04 0 0 1 11.967-1.319l.174 1.992c-3.951.345-7.946.785-11.876 1.31zm59.616-1.147a263.13 263.13 0 0 0-11.919-.849l.098-1.998c3.999.194 8.039.482 12.009.856zm-35.814-.929l-.084-1.998A270.13 270.13 0 0 1 627.82 0l.905.001-.006 2-.899-.001c-3.686.001-7.404.079-11.052.23z" fill="#3f3d56"/><path d="M884 481.271a12 12 0 1 1 12-12 12.014 12.014 0 0 1-12 12zm0-22a10 10 0 1 0 10 10 10.011 10.011 0 0 0-10-10z" fill="#2f2e41"/><path d="M564.803 173.409v65.68a2.296 2.296 0 0 1-2.29 2.29h-1.63v342.15a35.702 35.702 0 0 1-35.7 35.7h-213.79a35.693 35.693 0 0 1-35.69-35.7v-330.15h-1.18a1.618 1.618 0 0 1-1.62-1.61v-37.38a1.62 1.62 0 0 1 1.62-1.62h1.18v-14.08h-1.19a1.696 1.696 0 0 1-1.69-1.7v-36.87a1.694 1.694 0 0 1 1.69-1.69h1.19v-19.22h-1.21a1.498 1.498 0 0 1-1.5-1.5v-20.12a1.507 1.507 0 0 1 1.5-1.51h1.21v-40.74a35.691 35.691 0 0 1 35.69-35.69h213.79a35.7 35.7 0 0 1 35.7 35.69v95.78h1.63a2.296 2.296 0 0 1 2.29 2.29z" fill="#3f3d56"/><g fill="#e6e8ec"><rect x="391.306" y="57.956" width="39.823" height="8.086" rx="2.542"/><circle cx="441.738" cy="61.999" r="4.587"/></g><path d="M543.788 82.399v504.09a22.65 22.65 0 0 1-22.65 22.64h-204.65a22.611 22.611 0 0 1-22.65-22.64V82.399a22.649 22.649 0 0 1 22.65-22.65h30.63v3.93a18.65 18.65 0 0 0 18.65 18.65h104.08a18.65 18.65 0 0 0 18.65-18.65v-3.93h32.64a22.643 22.643 0 0 1 22.65 22.65z" fill="#00b0ff"/><path opacity=".2" d="M303.828 225h232v113h-232z"/><path fill="#f2f2f2" d="M667.828 96h232v113h-232z"/><path fill="#3f3d56" d="M303.828 396.279h232v113h-232z"/><circle cx="511.828" cy="121.279" r="20" fill="#fff"/><path d="M502.828 120.636v1.286h8.357v8.357h1.285v-8.357h8.358v-1.286h-8.358v-8.357h-1.285v8.357zm139-39.636h232v113h-232z" fill="#3f3d56"/><use xlink:href="#B" fill="#fff"/><use xlink:href="#C" fill="#00b0ff"/><use xlink:href="#B" x="-348.158" y="317" fill="#fff"/><use xlink:href="#C" x="-348.158" y="317" fill="#00b0ff"/><path d="M452.485 473.87c-6.073 22.45-26.875 36.354-26.875 36.354s-10.955-22.495-4.882-44.945 26.875-36.354 26.875-36.354 10.955 22.495 4.882 44.945z" fill="#fff"/><path d="M443.561 469.045c-16.665 16.223-18.7 41.16-18.7 41.16s24.984-1.364 41.648-17.587 18.7-41.16 18.7-41.16-24.984 1.364-41.648 17.587z" fill="#00b0ff"/><path d="M693.828 336.561h-19.741V316.82h19.741zm-18.223-1.519h16.704v-16.704h-16.704z" fill="#3f3d56"/><path d="M175.472 458.641l-13.465-14.436 14.436-13.465 13.465 14.436zm-11.319-14.362l11.394 12.215 12.215-11.394-11.394-12.215z" fill="#2f2e41"/><circle cx="186.138" cy="137.956" r="10.079" fill="#3f3d56"/><path d="M186.138 167.072a29.116 29.116 0 1 1 29.116-29.116 29.149 29.149 0 0 1-29.116 29.116zm0-55.992a26.876 26.876 0 1 0 26.876 26.876 26.907 26.907 0 0 0-26.876-26.876z" fill="#2f2e41"/><path fill="#3f3d56" d="M353.828 207h232v113h-232z"/><path fill="#fff" d="M468.975 245.744h2v74.411h-2z"/><circle cx="469.975" cy="246.744" r="10.523" fill="#00b0ff"/><path d="M469.975 291.605s-1.503-32.332-32.32-28.574" fill="#fff"/><path d="M792.033 514.395l-128.691 40.261-160.088-101.019-.007-.007-.525-.324-.086-.058-1.273-.798-15.242-9.591.115-.755a6.905 6.905 0 0 1 1.567-3.199 7.695 7.695 0 0 1 .906-.906h.007l.453-.359q.237-.183.496-.345c2.948-1.977 7.391-2.818 12.021-3.07a57.215 57.215 0 0 1 28.851 6.255c17.995 9.102 56.674 27.011 62.706 16.04 7.908-14.379-81.96-174.704-81.96-174.704-7.398-19.016-1.984-25.228 1.409-27.183l.295-.165a8.366 8.366 0 0 1 1.114-.474 5.15 5.15 0 0 1 .611-.18 1.391 1.391 0 0 1 .165-.036l11.92 15.846.18.237.64.856.194.259 72.261 96.037c110.718-59.673 148.822 99.934 148.822 99.934z" fill="#fbbebe"/><path d="M527.814 270.974a3.125 3.125 0 0 1-2.897 1.761 4.592 4.592 0 0 1-1.179-.158c-2.674-.719-5.773-3.652-8.088-7.657-2.258-3.911-3.185-7.844-2.66-10.454a8.366 8.366 0 0 1 1.114-.474 5.15 5.15 0 0 1 .611-.18c-.927 1.819-.374 5.953 2.186 10.389 2.092 3.631 4.925 6.377 7.204 6.981a1.957 1.957 0 0 0 2.696-1.56l.18.237.64.856zm-25.092 182.332l-.086-.058-1.273-.798c.007-2.049-1.546-5.406-4.975-8.778-2.897-2.825-6.262-4.68-8.584-4.767a7.695 7.695 0 0 1 .906-.906h.007a7.67 7.67 0 0 1 .453-.359 18.745 18.745 0 0 1 8.225 5.004c3.767 3.703 5.838 7.923 5.327 10.662z" fill="#3f3d56"/><defs ><path id="B" d="M745.394 156.87c6.073 22.45 26.875 36.354 26.875 36.354s10.955-22.495 4.882-44.945-26.875-36.354-26.875-36.354-10.955 22.495-4.882 44.945z"/><path id="C" d="M754.318 152.045c16.665 16.223 18.7 41.16 18.7 41.16s-24.984-1.364-41.648-17.587-18.7-41.16-18.7-41.16 24.984 1.364 41.648 17.587z"/></defs></svg>