<svg xmlns="http://www.w3.org/2000/svg" xmlns:v="https://vecta.io/nano" width="120" height="60"><radialGradient id="A" cx="52.528" cy="-49.92" r="104.617" gradientTransform="matrix(.32798653 0 0 .32881934 6.709406 12.101607)" gradientUnits="userSpaceOnUse"><stop offset="0" stop-color="#20c6b7"/><stop offset="1" stop-color="#4d9abf"/></radialGradient><path fill="#0e1e25" d="M50.212 25.179l.081 1.456c.928-1.126 2.147-1.689 3.655-1.689 2.614 0 3.944 1.503 3.99 4.508v8.326H55.12v-8.163c0-.8-.172-1.391-.516-1.776s-.907-.576-1.688-.576c-1.137 0-1.985.517-2.54 1.549v8.967h-2.819v-12.6h2.657zm16.127 12.834c-1.786 0-3.235-.564-4.344-1.694s-1.665-2.634-1.665-4.513v-.349c0-1.257.241-2.382.725-3.371s1.162-1.76 2.036-2.312 1.848-.826 2.924-.826c1.709 0 3.03.547 3.961 1.642s1.398 2.643 1.398 4.647v1.141h-8.203c.086 1.04.431 1.863 1.039 2.468s1.371.908 2.292.908c1.291 0 2.343-.523 3.156-1.572l1.52 1.456c-.503.753-1.174 1.337-2.012 1.752s-1.781.623-2.825.623zm-.336-10.795c-.774 0-1.398.272-1.873.815s-.779 1.3-.911 2.271h5.372v-.21c-.062-.947-.314-1.663-.754-2.148s-1.052-.727-1.833-.727zm11.091-5.101v3.063h2.216v2.096h-2.216v7.034c0 .481.095.828.284 1.042s.528.32 1.015.32c.332-.001.663-.04.986-.117v2.19c-.642.179-1.26.268-1.856.268-2.165 0-3.248-1.199-3.248-3.598v-7.139h-2.067v-2.096h2.065v-3.063h2.819zm7.368 15.663h-2.819V19.893h2.819zm6.068 0h-2.819v-12.6h2.819zm-2.993-15.873c0-.434.137-.795.411-1.083s.667-.431 1.178-.431.905.144 1.184.431.417.649.417 1.083a1.46 1.46 0 0 1-.417 1.065c-.279.284-.673.425-1.184.425s-.902-.142-1.178-.425-.411-.639-.411-1.065zm7.054 15.873V27.275h-1.914v-2.096h1.914v-1.153c0-1.398.386-2.476 1.16-3.238s1.856-1.141 3.248-1.141c.495 0 1.021.07 1.578.209l-.069 2.213a5.53 5.53 0 0 0-1.079-.093c-1.346 0-2.019.694-2.019 2.084v1.118h2.552v2.096h-2.552V37.78h-2.819zm11.822-4.052l2.552-8.548h3.005l-4.988 14.51c-.766 2.119-2.065 3.179-3.898 3.179-.41 0-.863-.07-1.357-.21v-2.19l.534.035c.711 0 1.247-.13 1.607-.39s.644-.696.853-1.31l.406-1.083-4.408-12.542h3.04z"/><path fill="url(#A)" d="M31.63 24.751l-.012-.005c-.007-.003-.014-.005-.021-.012-.021-.022-.03-.053-.025-.083l.691-4.229 3.239 3.245-3.369 1.435c-.009.004-.019.006-.029.005h-.013c-.004-.003-.009-.006-.018-.015-.125-.14-.275-.255-.442-.341zm4.699-.258l3.464 3.469c.719.721 1.079 1.081 1.211 1.498a1.69 1.69 0 0 1 .048.187l-8.278-3.511c-.046-.019-.085-.034-.085-.068s.039-.05.072-.064l.011-.004zm4.582 6.267c-.179.336-.527.685-1.117 1.277l-3.905 3.91-5.077-1.059c-.045-.007-.092-.015-.092-.055-.039-.422-.251-.808-.585-1.068-.021-.021-.015-.053-.009-.082l.955-5.872c.005-.045.013-.097.054-.097.411-.051.785-.266 1.037-.595.008-.009.013-.019.024-.024.029-.013.063 0 .092.013l8.623 3.653zm-5.92 6.086l-6.422 6.431 1.101-6.774c.001-.009.003-.018.005-.026.009-.021.032-.03.055-.039l.011-.004c.241-.103.454-.261.621-.463.021-.025.047-.049.08-.054.009-.001.017-.001.026 0l4.522.931zm-7.781 7.792l-.724.725-8.002-11.582c-.021-.03-.035-.047-.032-.066 0-.014.01-.027.02-.038l.009-.012.067-.11.018-.031.003-.003c.013-.021.024-.042.046-.054s.045-.005.065-.001l8.866 1.831c.025.004.048.014.068.03.012.012.014.024.017.038a1.57 1.57 0 0 0 .919 1.052c.025.013.014.04.003.07-.006.013-.01.026-.013.04l-1.327 8.11zm-1.512 1.513c-.533.529-.848.809-1.204.922s-.727.111-1.078 0c-.416-.132-.777-.492-1.496-1.213l-8.036-8.048 2.099-3.26c.01-.016.02-.03.036-.042.022-.016.055-.009.081 0a2.17 2.17 0 0 0 1.464-.074c.024-.009.048-.015.067.002.009.008.018.018.025.029l8.042 11.686zm-12.588-9.115l-1.844-1.846 3.641-1.555c.009-.004.019-.006.029-.006.03 0 .048.03.064.058l.116.165.012.014c.011.015.004.03-.007.045l-2.011 3.126zm-2.659-2.663l-2.332-2.336-.885-.933 7.119 1.477c.044.007.092.015.092.056s-.053.065-.097.082l-.021.009zm-3.624-4.47c.008-.15.035-.299.08-.443.132-.417.491-.777 1.212-1.498l2.985-2.989 4.134 5.984c.024.032.051.068.023.095-.13.144-.261.302-.353.473-.01.022-.025.041-.045.055-.012.007-.024.004-.038.002h-.002l-7.997-1.68zm5.076-5.73l4.011-4.019 5.021 2.133c.027.011.051.021.063.048.007.016.003.037 0 .054-.129.589.047 1.204.467 1.636.027.027 0 .065-.023.098l-.012.019-4.075 6.321c-.011.018-.021.033-.038.045s-.052.007-.077.001a2.03 2.03 0 0 0-.485-.066 2.67 2.67 0 0 0-.466.056h-.001c-.018.003-.034.006-.048-.004s-.029-.028-.04-.046L11.9 24.173zm4.824-4.831l5.195-5.203c.719-.72 1.079-1.081 1.496-1.213.351-.111.727-.111 1.078 0 .416.132.777.492 1.496 1.213l1.126 1.128-3.695 5.731c-.009.017-.022.031-.037.043-.022.015-.054.009-.08 0a1.87 1.87 0 0 0-1.716.331c-.024.025-.06.011-.09-.003l-4.773-2.027zm11.176-3.29l3.412 3.417-.822 5.099v.013c-.001.012-.003.023-.007.034-.009.018-.027.021-.045.027-.176.053-.341.136-.49.244-.006.005-.012.01-.018.015-.01.011-.02.021-.036.022s-.026-.002-.038-.006l-5.209-2.217c-.033-.013-.072-.03-.072-.064a1.97 1.97 0 0 0-.277-.819c-.025-.041-.053-.084-.031-.126zm-3.514 7.701l4.874 2.067c.027.013.056.024.068.052.005.017.005.034 0 .051-.014.072-.027.153-.027.235v.137c0 .034-.035.048-.067.062l-.01.003-10.855 4.629c-.015 0-.031 0-.046-.015-.027-.027 0-.064.024-.098l.012-.018 4.012-6.221c.023-.038.05-.08.093-.08l.04.006.253.024a1.81 1.81 0 0 0 1.51-.803c.008-.014.018-.026.03-.036.024-.018.06-.009.088.003zm-5.582 8.22l10.974-4.687s.016 0 .031.015c.06.06.111.1.16.138l.024.015c.022.013.045.027.046.05 0 .009 0 .014-.002.022l-.944 5.806c-.006.045-.012.096-.055.096-.509.034-.968.318-1.227.758l-.004.007c-.012.021-.024.04-.045.051s-.043.005-.063.001l-8.751-1.808c-.009-.002-.136-.464-.146-.465z" transform="matrix(.969765 0 0 .969765 1.414238 .907056)"/></svg>