<svg xmlns="http://www.w3.org/2000/svg" xmlns:v="https://vecta.io/nano" xmlns:xlink="http://www.w3.org/1999/xlink" width="1602.494" height="935.551" preserveAspectRatio="xMidYMid meet" viewBox="0 0 1201.871 701.663"><style>.B{stroke-width:2.026}</style><defs><path id="A" d="M136.7 210H45.4L0 288.9l45.4 78.8h91.3l45.4-78.8z"/><path id="B" d="M199.2 121.5l-45.5 78.8 45.5 78.9H290l45.8-78.9-45.8-78.8z"/><path id="C" d="M153.7 377.4l45.5 79.2H290l45.8-79.2-45.8-78.8h-90.8z"/><path id="D" d="M182.1 111.8l-45.4-79.2H45.4L0 111.8l45.4 78.8h91.3z"/><path id="E" d="M307.1 111.4l45.4 79.2h91.3l45.4-78.8-45.4-79.2h-91.3z"/><path id="F" d="M136.7 367.7l45.4-78.8-45.4-78.9H45.4L0 288.9l45.4 78.8z"/><path id="G" d="M335.8 200.3L290 121.5h-90.8l-45.5 78.8 45.5 78.9H290z"/><path id="H" d="M290 298.6h-90.8l-45.5 78.8 45.5 79.2H290l45.8-79.2z"/><path id="I" d="M45.4 190.6h91.3l45.4-78.8-45.4-79.2H45.4L0 111.8z"/><path id="J" d="M443.8 32.6h-91.3l-45.4 78.8 45.4 79.2h91.3l45.4-78.8z"/><path id="K" d="M182.1 288.9L136.7 210H45.4L0 288.9l45.4 78.8h91.3z"/><path id="L" d="M290 121.5h-90.8l-45.5 78.8 45.5 78.9H290l45.8-78.9z"/><path id="M" d="M199.2 298.6l-45.5 78.8 45.5 79.2H290l45.8-79.2-45.8-78.8z"/><path id="N" d="M136.7 190.6l45.4-78.8-45.4-79.2H45.4L0 111.8l45.4 78.8z"/><path id="O" d="M352.5 32.6l-45.4 78.8 45.4 79.2h91.3l45.4-78.8-45.4-79.2z"/><path id="P" d="M136.7 32.6H45.4L0 111.8l45.4 78.8h91.3l45.4-78.8z"/><path id="Q" d="M45.4 32.6L0 111.8l45.4 78.8h91.3l45.4-78.8-45.4-79.2z"/><path id="R" d="M0 111.8l45.4 78.8h91.3l45.4-78.8-45.4-79.2H45.4z"/><path id="S" d="M352.5 190.6h91.3l45.4-78.8-45.4-79.2h-91.3l-45.4 78.8z"/><path id="T" d="M489.2 111.8l-45.4-79.2h-91.3l-45.4 78.8 45.4 79.2h91.3z"/><path id="U" d="M443.8 190.6l45.4-78.8-45.4-79.2h-91.3l-45.4 78.8 45.4 79.2z"/><linearGradient id="V" x1="-506.288" x2="490.369" y1="135.105" y2="244.6" gradientUnits="userSpaceOnUse"><stop offset="0" stop-color="#0684ff"/><stop offset="1" stop-color="#0684ff" stop-opacity="0"/></linearGradient><clipPath id="W"><path fill="#0684ff" stroke="#2178ff" stroke-width=".716" d="M41.017 10.19h1201.871v701.663H41.017z"/></clipPath></defs><g stroke="#06f" clip-path="url(#W)" transform="translate(-41.017 -10.19)"><path stroke-width="1.185" d="M.592.592h1276.839v718.486H.592z"/><g class="B" transform="matrix(.398274 0 0 .37854 1081.8431 542.54557)"><use fill="url(#V)" xlink:href="#A"/><use fill="url(#V)" xlink:href="#B"/><use fill="url(#V)" xlink:href="#C"/><use fill="url(#V)" xlink:href="#D"/><use fill="url(#V)" xlink:href="#E"/></g><g class="B" transform="matrix(.398274 0 0 .37854 65.827016 95.541084)"><use fill="url(#V)" xlink:href="#F"/><use fill="url(#V)" xlink:href="#G"/><use fill="url(#V)" xlink:href="#H"/><use fill="url(#V)" xlink:href="#I"/><use fill="url(#V)" xlink:href="#J"/></g><g class="B" transform="matrix(.398274 0 0 .37854 4.771658 196.23271)"><use fill="url(#V)" xlink:href="#F"/><use fill="url(#V)" xlink:href="#G"/><use fill="url(#V)" xlink:href="#H"/><use fill="url(#V)" xlink:href="#I"/><use fill="url(#V)" xlink:href="#J"/></g><g class="B" transform="matrix(.398274 0 0 .37854 120.27103 326.63972)"><use fill="url(#V)" xlink:href="#A"/><use fill="url(#V)" xlink:href="#B"/><use fill="url(#V)" xlink:href="#C"/><use fill="url(#V)" xlink:href="#D"/><use fill="url(#V)" xlink:href="#E"/></g><g class="B" transform="matrix(.398274 0 0 .37854 -2.038823 393.79271)"><use fill="url(#V)" xlink:href="#F"/><use fill="url(#V)" xlink:href="#G"/><use fill="url(#V)" xlink:href="#H"/><use fill="url(#V)" xlink:href="#I"/><use fill="url(#V)" xlink:href="#J"/></g><g class="B" transform="matrix(.398274 0 0 .37854 59.175844 494.33292)"><use fill="url(#V)" xlink:href="#A"/><use fill="url(#V)" xlink:href="#B"/><use fill="url(#V)" xlink:href="#C"/><use fill="url(#V)" xlink:href="#D"/><use fill="url(#V)" xlink:href="#E"/></g><g class="B" transform="matrix(.398274 0 0 .37854 181.13301 561.70359)"><use fill="url(#V)" xlink:href="#A"/><use fill="url(#V)" xlink:href="#B"/><use fill="url(#V)" xlink:href="#C"/><use fill="url(#V)" xlink:href="#D"/><use fill="url(#V)" xlink:href="#E"/></g><g class="B" transform="matrix(.398274 0 0 .37854 4.572521 -5.150543)"><use fill="url(#V)" xlink:href="#F"/><use fill="url(#V)" xlink:href="#G"/><use fill="url(#V)" xlink:href="#H"/><use fill="url(#V)" xlink:href="#I"/><use fill="url(#V)" xlink:href="#J"/></g><g class="B" transform="matrix(.398274 0 0 .37854 1020.5886 441.85394)"><use fill="url(#V)" xlink:href="#F"/><use fill="url(#V)" xlink:href="#G"/><use fill="url(#V)" xlink:href="#H"/><use fill="url(#V)" xlink:href="#I"/><use fill="url(#V)" xlink:href="#J"/></g><g class="B" transform="matrix(.398274 0 0 .37854 843.83473 538.87373)"><use fill="url(#V)" xlink:href="#F"/><use fill="url(#V)" xlink:href="#G"/><use fill="url(#V)" xlink:href="#H"/><use fill="url(#V)" xlink:href="#I"/><use fill="url(#V)" xlink:href="#J"/></g><g class="B" transform="matrix(.398274 0 0 .37854 1081.644 341.16231)"><use fill="url(#V)" xlink:href="#F"/><use fill="url(#V)" xlink:href="#G"/><use fill="url(#V)" xlink:href="#H"/><use fill="url(#V)" xlink:href="#I"/><use fill="url(#V)" xlink:href="#J"/></g><g class="B" transform="matrix(.398274 0 0 .37854 1020.3895 240.47068)"><use fill="url(#V)" xlink:href="#F"/><use fill="url(#V)" xlink:href="#G"/><use fill="url(#V)" xlink:href="#H"/><use fill="url(#V)" xlink:href="#J"/></g><g class="B" transform="matrix(.398274 0 0 .37854 1081.644 79.969741)"><use fill="url(#V)" xlink:href="#F"/><use fill="url(#V)" xlink:href="#G"/><use fill="url(#V)" xlink:href="#H"/><use fill="url(#V)" xlink:href="#I"/><use fill="url(#V)" xlink:href="#J"/></g><g class="B" transform="matrix(.398274 0 0 .37854 1081.644 12.930316)"><use fill="url(#V)" xlink:href="#F"/><use fill="url(#V)" xlink:href="#G"/><use fill="url(#V)" xlink:href="#H"/><use fill="url(#V)" xlink:href="#I"/><use fill="url(#V)" xlink:href="#J"/></g><g class="B" transform="matrix(.398274 0 0 .37854 904.89013 -16.898632)"><use fill="url(#V)" xlink:href="#F"/><use fill="url(#V)" xlink:href="#G"/><use fill="url(#V)" xlink:href="#H"/><use fill="url(#V)" xlink:href="#I"/><use fill="url(#V)" xlink:href="#J"/></g><g class="B" transform="matrix(.398274 0 0 .37854 1142.8985 -87.761311)"><use fill="url(#V)" xlink:href="#F"/><use fill="url(#V)" xlink:href="#H"/></g><use fill="url(#V)" class="B" transform="matrix(.398274 0 0 .37854 1197.1434 143.45089)" xlink:href="#K"/><g class="B" transform="matrix(.398274 0 0 .37854 188.13687 28.388097)"><use fill="url(#V)" xlink:href="#K"/><use fill="url(#V)" xlink:href="#L"/><use fill="url(#V)" xlink:href="#M"/><use fill="url(#V)" xlink:href="#N"/><use fill="url(#V)" xlink:href="#O"/></g><g class="B" transform="matrix(.398274 0 0 .37854 310.44672 -38.76489)"><use fill="url(#V)" xlink:href="#K"/><use fill="url(#V)" xlink:href="#L"/><use fill="url(#V)" xlink:href="#M"/><use fill="url(#V)" xlink:href="#N"/><use fill="url(#V)" xlink:href="#O"/></g><g class="B"><use fill="url(#V)" transform="matrix(.398274 0 0 .37854 59.919911 628.95157)" xlink:href="#P"/><use fill="url(#V)" transform="matrix(.398274 0 0 .37854 -1.756007 596.22986)" xlink:href="#P"/><use fill="url(#V)" transform="matrix(.398274 0 0 .37854 363.42069 596.04361)" xlink:href="#Q"/><use fill="url(#V)" transform="matrix(.398274 0 0 .37854 783.36413 641.0455)" xlink:href="#P"/><use fill="url(#V)" transform="matrix(.398274 0 0 .37854 723.37566 676.32926)" xlink:href="#P"/><use fill="url(#V)" transform="matrix(.398274 0 0 .37854 422.96301 631.04511)" xlink:href="#Q"/><use fill="url(#V)" transform="matrix(.398274 0 0 .37854 362.21503 665.27611)" xlink:href="#D"/><use fill="url(#V)" transform="matrix(.398274 0 0 .37854 1202.9916 475.42922)" xlink:href="#I"/><use fill="url(#V)" transform="matrix(.398274 0 0 .37854 843.65517 16.997166)" xlink:href="#R"/><use fill="url(#V)" transform="matrix(.398274 0 0 .37854 964.71909 606.44375)" xlink:href="#I"/><use fill="url(#V)" transform="matrix(.398274 0 0 .37854 789.21116 46.97753)" xlink:href="#I"/><use fill="url(#V)" transform="matrix(.398274 0 0 .37854 -56.519821 228.95206)" xlink:href="#R"/><use fill="url(#V)" transform="matrix(.398274 0 0 .37854 -62.625561 427.491)" xlink:href="#Q"/><use fill="url(#V)" transform="matrix(.398274 0 0 .37854 241.32471 393.28941)" xlink:href="#I"/><use fill="url(#V)" transform="matrix(.398274 0 0 .37854 1135.0538 244.40897)" xlink:href="#S"/><use fill="url(#V)" transform="matrix(.398274 0 0 .37854 1136.2473 -17.050048)" xlink:href="#E"/><use fill="url(#V)" transform="matrix(.398274 0 0 .37854 1136.088 109.95011)" xlink:href="#E"/><use fill="url(#V)" transform="matrix(.398274 0 0 .37854 1136.088 371.14267)" xlink:href="#E"/><use fill="url(#V)" transform="matrix(.398274 0 0 .37854 1136.2871 572.52593)" xlink:href="#S"/><use fill="url(#V)" transform="matrix(.398274 0 0 .37854 1075.0326 673.21756)" xlink:href="#E"/><use fill="url(#V)" transform="matrix(.398274 0 0 .37854 900.0906 645.09956)" xlink:href="#S"/><use fill="url(#V)" transform="matrix(.398274 0 0 .37854 1136.088 176.84834)" xlink:href="#S"/><use fill="url(#V)" transform="matrix(.398274 0 0 .37854 1136.088 311.33336)" xlink:href="#S"/><use fill="url(#V)" transform="matrix(.398274 0 0 .37854 1135.384 640.1067)" xlink:href="#T"/><use fill="url(#V)" transform="matrix(.398274 0 0 .37854 -178.79269 363.96376)" xlink:href="#E"/><use fill="url(#V)" transform="matrix(.398274 0 0 .37854 -176.55366 296.69159)" xlink:href="#U"/><use fill="url(#V)" transform="matrix(.398274 0 0 .37854 546.62179 646.3489)" xlink:href="#S"/><use fill="url(#V)" transform="matrix(.398274 0 0 .37854 355.09717 661.02547)" xlink:href="#S"/><use fill="url(#V)" transform="matrix(.398274 0 0 .37854 660.70586 572.99046)" xlink:href="#J"/><use fill="url(#V)" transform="matrix(.398274 0 0 .37854 666.9013 -12.983198)" xlink:href="#S"/><use fill="url(#V)" transform="matrix(.398274 0 0 .37854 1020.2227 307.84464)" xlink:href="#T"/><use fill="url(#V)" transform="matrix(.398274 0 0 .37854 -178.50987 626.21022)" xlink:href="#S"/><use fill="url(#V)" transform="matrix(.398274 0 0 .37854 -184.28603 562.72517)" xlink:href="#T"/><use fill="url(#V)" transform="matrix(.398274 0 0 .37854 -183.25608 495.01334)" xlink:href="#T"/><use fill="url(#V)" transform="matrix(.398274 0 0 .37854 -179.57688 94.807356)" xlink:href="#U"/><use fill="url(#V)" transform="matrix(.398274 0 0 .37854 -178.26411 162.54591)" xlink:href="#S"/><use fill="url(#V)" transform="matrix(.398274 0 0 .37854 65.827017 -41.817765)" xlink:href="#O"/><use fill="url(#V)" transform="matrix(.398274 0 0 .37854 309.70411 27.727918)" xlink:href="#O"/><use fill="url(#V)" transform="matrix(.398274 0 0 .37854 612.45729 16.84575)" xlink:href="#E"/><use fill="url(#V)" transform="matrix(.398274 0 0 .37854 -172.18135 -35.130907)" xlink:href="#S"/></g></g></svg>