<svg xmlns="http://www.w3.org/2000/svg" xmlns:svg="http://www.w3.org/2000/svg" id="Layer_1" x="0" y="0" version="1.1" viewBox="0 0 512 512" style="enable-background:new 0 0 512 512" xml:space="preserve"><path style="fill:#e4eaf6;stroke-width:.828047" id="path889" d="M 456.0219,145.26945 H 56.423245 c -4.865662,0 -8.810506,-4.07333 -8.810506,-9.09663 V 65.234009 c 0,-5.024145 3.944844,-9.09748 8.810506,-9.09748 H 456.02271 c 4.86566,0 8.81051,4.073335 8.81051,9.09748 v 70.938811 c -8.1e-4,5.0233 -3.94566,9.09663 -8.81132,9.09663 z"/><path style="fill:#18bdf6;stroke-width:.828047" id="path891" d="m 389.30098,145.26945 h 64.74076 c 5.95923,0 10.78984,-4.9888 10.78984,-11.14129 V 67.278671 c 0,-6.153337 -4.83143,-11.141301 -10.78984,-11.141301 h -64.74076 c -5.95924,0 -10.78986,4.988806 -10.78986,11.141301 v 66.849489 c 0,6.15249 4.83144,11.14129 10.78986,11.14129 z"/><path style="fill:#fff;stroke-width:.828047" id="path893" d="m 448.33755,117.73469 -14.38673,-14.85535 c -0.0187,-0.0194 -0.044,-0.0244 -0.0619,-0.0429 1.35025,-2.908808 2.17003,-6.126415 2.17003,-9.561109 0,-12.28732 -9.6808,-22.283442 -21.58053,-22.283442 -11.89973,0 -21.58052,9.996122 -21.58052,22.283442 0,12.287329 9.68079,22.283449 21.58052,22.283449 3.32717,0 6.44246,-0.84648 9.25951,-2.24072 0.018,0.0193 0.0229,0.0454 0.0416,0.0639 l 14.38675,14.85535 c 1.40485,1.45146 3.24486,2.17592 5.08568,2.17592 1.84081,0 3.68163,-0.7253 5.08567,-2.17592 2.81053,-2.90123 2.81053,-7.60059 0,-10.50266 z m -33.85916,-17.03128 c -3.96522,0 -7.19378,-3.33288 -7.19378,-7.428092 0,-4.095213 3.22775,-7.428095 7.19378,-7.428095 3.96603,0 7.19378,3.332882 7.19378,7.428095 0,4.095212 -3.22856,7.428092 -7.19378,7.428092 z"/><circle style="fill:#2a7fff;stroke-width:.828047" id="circle895" cx="338.947" cy="100.703" rx="17.984" ry="18.569"/><circle style="fill:#80b3ff;stroke-width:.828047" id="circle897" cx="288.593" cy="100.703" rx="17.984" ry="18.569"/><path style="fill:#e4eaf6;stroke-width:.828047" id="path899" d="M 456.0219,264.11392 H 56.423245 c -4.865662,0 -8.810506,-4.07334 -8.810506,-9.09748 v -70.93881 c 0,-5.02415 3.944844,-9.09748 8.810506,-9.09748 H 456.02271 c 4.86566,0 8.81051,4.07333 8.81051,9.09748 v 70.93881 c -8.1e-4,5.02414 -3.94566,9.09748 -8.81132,9.09748 z"/><path style="fill:#06f;stroke-width:.828047" id="path901" d="M 112.35349,249.25773 H 69.193263 c -3.97255,0 -7.193779,-3.32615 -7.193779,-7.4281 v -44.56688 c 0,-4.10194 3.221229,-7.42809 7.193779,-7.42809 h 43.161047 c 3.97255,0 7.19378,3.32615 7.19378,7.42809 v 44.56688 c -8.2e-4,4.10279 -3.22205,7.4281 -7.1946,7.4281 z"/><path style="fill:#c7cfe2;stroke-width:.828047" id="path903" d="M 400.09164,241.83047 H 141.1278 c -3.97256,0 -7.19378,-3.32615 -7.19378,-7.42809 v 0 c 0,-4.10194 3.22122,-7.42809 7.19378,-7.42809 h 258.96384 c 3.97256,0 7.19378,3.32615 7.19378,7.42809 v 0 c -8.1e-4,4.10194 -3.22122,7.42809 -7.19378,7.42809 z"/><path style="fill:#28beff;stroke-width:.828047" id="path905" d="M 284.99606,212.11894 H 141.1278 c -3.97256,0 -7.19378,-3.32615 -7.19378,-7.4281 v 0 c 0,-4.10194 3.22122,-7.42809 7.19378,-7.42809 h 143.86826 c 3.97256,0 7.19378,3.32615 7.19378,7.42809 v 0 c 0,4.10279 -3.22122,7.4281 -7.19378,7.4281 z"/><path style="fill:#2a7fff;stroke-width:.828047" id="path907" d="M 112.35349,353.24684 H 69.193263 c -3.97255,0 -7.193779,-3.32615 -7.193779,-7.42809 v -44.56689 c 0,-4.10194 3.221229,-7.42809 7.193779,-7.42809 h 43.161047 c 3.97255,0 7.19378,3.32615 7.19378,7.42809 v 44.56689 c -8.2e-4,4.10194 -3.22205,7.42809 -7.1946,7.42809 z"/><path style="fill:#c7cfe2;stroke-width:.828047" id="path909" d="M 400.09164,345.81875 H 141.1278 c -3.97256,0 -7.19378,-3.32615 -7.19378,-7.4281 v 0 c 0,-4.10194 3.22122,-7.42809 7.19378,-7.42809 h 258.96384 c 3.97256,0 7.19378,3.32615 7.19378,7.42809 v 0 c -8.1e-4,4.10195 -3.22122,7.4281 -7.19378,7.4281 z"/><path style="fill:#28beff;stroke-width:.828047" id="path911" d="M 284.99606,316.10805 H 141.1278 c -3.97256,0 -7.19378,-3.32615 -7.19378,-7.42809 v 0 c 0,-4.10195 3.22122,-7.4281 7.19378,-7.4281 h 143.86826 c 3.97256,0 7.19378,3.32615 7.19378,7.4281 v 0 c 0,4.10194 -3.22122,7.42809 -7.19378,7.42809 z"/><path style="fill:#59f;stroke-width:.828047" id="path913" d="M 112.35349,457.23511 H 69.193263 c -3.97255,0 -7.193779,-3.32615 -7.193779,-7.42809 v -44.56688 c 0,-4.10195 3.221229,-7.4281 7.193779,-7.4281 h 43.161047 c 3.97255,0 7.19378,3.32615 7.19378,7.4281 v 44.56688 c -8.2e-4,4.10194 -3.22205,7.42809 -7.1946,7.42809 z"/><path style="fill:#c7cfe2;stroke-width:.828047" id="path915" d="M 400.09164,449.80702 H 141.1278 c -3.97256,0 -7.19378,-3.32615 -7.19378,-7.4281 v 0 c 0,-4.10194 3.22122,-7.42809 7.19378,-7.42809 h 258.96384 c 3.97256,0 7.19378,3.32615 7.19378,7.42809 v 0 c -8.1e-4,4.10279 -3.22122,7.4281 -7.19378,7.4281 z"/><path style="fill:#28beff;stroke-width:.828047" id="path917" d="M 284.99606,420.09632 H 141.1278 c -3.97256,0 -7.19378,-3.32615 -7.19378,-7.42809 v 0 c 0,-4.10194 3.22122,-7.42809 7.19378,-7.42809 h 143.86826 c 3.97256,0 7.19378,3.32615 7.19378,7.42809 v 0 c 0,4.10194 -3.22122,7.42809 -7.19378,7.42809 z"/></svg>