<svg xmlns="http://www.w3.org/2000/svg" width="624.45" height="428.76" xmlns:v="https://vecta.io/nano"><path d="M309.14 2.49h-4.27q-2.041-1.26-4.1-2.49l-2.57-1.56q-21.315-12.855-42.89-24.65-21.555-11.805-43.32-22.51a1.789 1.789 0 0 1-1.04-2.04.516.516 0 0 1 .07-.15c.2-.38.65-.54 1.31-.22l5.35 2.66q21.825 10.89 43.47 22.88 21.63 11.985 43.02 25.04l.9.55 4.07 2.49zm55.05 0h-2.64L359.76 0q-21.149-29.31-42.29-58.62-34.62-47.985-69.22-95.97a1.7 1.7 0 0 1-.3-.58c-.2-.71.32-1.13.99-1.06a2.006 2.006 0 0 1 1.4.88q19.41 26.91 38.81 53.8 34.44 47.745 68.87 95.48L362.4 0l1.79 2.49zm58.73-15.66c-.11 4.45-.38 8.83-.74 13.17q-.105 1.245-.21 2.49h-2.77l.23-2.49c.55-6.27.93-12.61.95-19.12a266.656 266.656 0 0 0-5.55-53.72 334.665 334.665 0 0 0-16.57-55.75 383.492 383.492 0 0 0-26.91-55.1 1.476 1.476 0 0 1-.25-.98c.11-.79 1.16-1.03 1.95-.28a2.293 2.293 0 0 1 .4.5q1.935 3.285 3.8 6.59a383.227 383.227 0 0 1 25.77 55.3 333.082 333.082 0 0 1 15.47 55.84 263.074 263.074 0 0 1 4.43 53.55z" fill="#fff"/><path d="M615.72 0h-607A8.728 8.728 0 0 0 0 8.72v411.32a8.728 8.728 0 0 0 8.72 8.72h607a8.712 8.712 0 0 0 6.63-3.06 2.046 2.046 0 0 0 .19-.24 8.167 8.167 0 0 0 1.25-2.11 8.507 8.507 0 0 0 .66-3.31V8.72A8.73 8.73 0 0 0 615.72 0zm6.24 420.04a6.175 6.175 0 0 1-1.03 3.42 6.446 6.446 0 0 1-2.36 2.12 6.184 6.184 0 0 1-2.85.69h-607a6.238 6.238 0 0 1-6.23-6.23V8.72a6.238 6.238 0 0 1 6.23-6.23h607a6.239 6.239 0 0 1 6.24 6.23z" fill="#4d4d4d"/><path fill="#3f3d56" d="M1.243 34.949h621.957v2.493H1.243z"/><circle cx="22.432" cy="18.696" r="7.478" fill="#06f"/><circle cx="43.932" cy="18.696" r="7.478" fill="#0055d4"/><circle cx="65.433" cy="18.696" r="7.478" fill="#ccc"/><path d="M276.977 246.87c-7.479-4.869-11.199-16.184-9.367-26.531s8.734-19.261 17.008-23.104a26.649 26.649 0 0 1 25.228 1.793c7.587 4.639 18.317 7.18 21.92 16.462 2.769 7.133-.743 21.617-4.469 28.546-3.221 5.988-9.341 8.727-15.091 9.918a45.34 45.34 0 0 1-36.669-8.461z" fill="#1a1a1a"/><path fill="#ffb8b8" d="M266.306 313.5l-1.15 2h-17.63l1.19-2 3.08-5.19 7.18-12.12 8.13 3.25 5.97 2.39-5.98 10.31z"/><path d="M246.206 315.5l-3.22-2-.4-.25 20.21-36.83a13.731 13.731 0 0 1 8.25-6.62 13.575 13.575 0 0 1 6.78-.25 13.354 13.354 0 0 1 3.74 1.4 13.089 13.089 0 0 1 1.39.88 13.349 13.349 0 0 1 4.1 4.62 13.817 13.817 0 0 1-.42 13.95l-7.79 12.45-6.66 10.65-1.25 2z" fill="#2f2e41"/><circle cx="298.13" cy="235.38" r="24.561" fill="#ffb8b8"/><path d="M322.786 315.5h-55.21l.25-.71q-.21-.645-.39-1.29l-.34-1.36a30.194 30.194 0 0 1 .01-12.7c3.05-14.98 15.22-27.15 15.22-27.15.21-.16.42-.31.63-.46a27.785 27.785 0 0 1 5.85-3.28c9.04-3.75 18.52-2.24 24.89-.3a49.669 49.669 0 0 1 6.49 2.47c.74.35 1.14.57 1.14.57l.63 19.21.76 23z" fill="#2a7fff"/><path d="M348.326 313.5l-4.22-21.46-4.26-21.64a4.519 4.519 0 0 0-3.65-3.57l-8.92-1.54-8.3-1.43a4.459 4.459 0 0 0-4.31 1.65 4.41 4.41 0 0 0-.97 2.74 4.521 4.521 0 0 0 .37 1.79c4.33 10.1 4.41 26.09 3.31 43.46l-.14 2h31.49zm-59.52-44.95a4.527 4.527 0 0 0-7.15-2.48l-3.83 3.48-15.68 14.28a4.345 4.345 0 0 0-1.12 1.59l-9.23 22.89q-.975 2.52-2.01 5.19l-.76 2h25.84l.63-2 3.35-10.65 8.21-26.4q.915-3 1.67-5.54a4.528 4.528 0 0 0 .08-2.36z" fill="#2f2e41"/><path fill="#ffb8b8" d="M355.566 314.94l-.61-1.44-9.41-22.33-1.44.87-11.56 6.99 5.93 14.47.82 2h9.43 5.4 1.67z"/><path d="M344.586 273.46a13.821 13.821 0 0 0-17.31-8.17 12.41 12.41 0 0 0-1.27.5 13.647 13.647 0 0 0-5.82 4.93 13.205 13.205 0 0 0-1.43 2.77 13.742 13.742 0 0 0 .31 10.57l2.89 6.44 10.34 23 .9 2h20.93l1.44-.56 3.74-1.44.52-.2zm-27.166-66.288a4.063 4.063 0 0 0 4.622-1.754 5.851 5.851 0 0 0 .338-5.143 10.736 10.736 0 0 0-3.195-4.215 12.406 12.406 0 0 0-5.617-2.908 7.461 7.461 0 0 0-6.053 1.331 5.377 5.377 0 0 0-1.826 5.722c.636 1.844 2.358 3.08 4.079 4a27.094 27.094 0 0 0 11.038 3.138z" fill="#2f2e41"/><path d="M322.198 234.647c-3.949.544-3.442-1.465-5.023-5.124s-3.698-8.002-7.667-8.373c-3.252-.304-5.932 2.296-8.567 4.227-4.696 3.441-11.025 5.126-16.469 3.061s-9.227-8.553-7.161-13.996a11.943 11.943 0 0 1 6.906-6.529 24.028 24.028 0 0 1 9.623-1.337 49.647 49.647 0 0 1 20.864 5.341c4.472 2.272 8.826 5.523 10.522 10.244s2.813 11.355-2.038 12.632zm-6.796-40.46c-1.952-3.397-.341-8.059 2.853-10.329s7.477-2.493 11.288-1.582a22.166 22.166 0 0 1 15.9 15.411c1.617 5.941.656 12.322 2.025 18.326a24.049 24.049 0 0 0 30.222 17.725c4.102-1.205 8.271-4.133 8.674-8.389a23.518 23.518 0 0 1-13.928 23.549c-5.285 2.205-11.18 2.348-16.905 2.201-3.731-.096-7.546-.32-10.988-1.764a19.667 19.667 0 0 1-10.333-11.204 31.129 31.129 0 0 1-1.375-15.435c.563-4.028 1.684-7.977 1.997-12.032s-.281-8.386-2.781-11.594-7.276-4.847-10.83-2.87c-1.429.795-2.581 2.093-4.133 2.605s-3.752-.388-3.611-2.017z" fill="#1a1a1a"/><path d="M483.006 315.5l.19-2 5.64-58.68a35.917 35.917 0 0 1 5.93-3.77c11.61-5.85 22.81-3.05 28.87-.63a31.591 31.591 0 0 1 4.64 2.27l3.3 60.81.11 2z" fill="#06f"/><circle cx="509.419" cy="214.642" r="24.561" fill="#ffb8b8"/><path d="M529.347 229.618a13.369 13.369 0 0 0-10.145-22.564c-3.396.114-6.596 1.503-9.838 2.523a32.535 32.535 0 0 1-15.285 1.376 20.41 20.41 0 0 1-13.016-7.686c-3.039-4.177-3.986-9.969-1.84-14.667 2.478-5.423 8.268-8.412 13.714-10.84a25.063 25.063 0 0 1 6.962-2.288 8.929 8.929 0 0 1 6.926 1.746c1.53 1.316 2.427 3.295 4.093 4.436 1.875 1.284 4.31 1.25 6.571 1.477a25.205 25.205 0 0 1 12.208 45.54z" fill="#333"/><path d="M498.426 261.21l-3.66-10.16-.229-.633a2.104 2.104 0 0 0-3.146-1.037l-4.155 2.77s-26.65 0-28.79 15.99l-.1.83a.155.155 0 0 1-.01.04c-.27 1.05-5.3 20.49-9.62 44.49l-.36 2h57.91 0c1.884-24.109.83-46.525-7.84-54.29zm69.08 52.29c-3.16-24.62-7.68-44.53-7.68-44.53l-.11-.83c-2.13-15.99-28.78-15.99-28.78-15.99l-4.153-2.769a2.104 2.104 0 0 0-3.147 1.039l-3.89 10.79c-8.67 7.765-9.725 30.181-7.84 54.289v.001h55.85l-.25-2z" fill="#241c1c"/><path d="M98.426 257.44l-5.94 56.06-.21 2h-16.07l.58-2c4.56-15.64 10.77-38.47 10.1-44.52-1.05-9.44 6.3-12.59 6.3-12.59l.46.09z" fill="#06f"/><circle cx="124.343" cy="215.575" r="24.561" fill="#a0616a"/><g fill="#06f"><path d="M156.136 303.6a40.266 40.266 0 0 0-3.03 7.16l-.83 2.74-.53 2h-64.78l.26-2 6.42-57.02.06-.62c38.82-20.46 67.15 6.3 67.15 6.3a13.72 13.72 0 0 0 .1.56c.62 3.74 3.78 25.58-4.82 40.88z"/><path d="M153.106 310.76l-4.32-9.26 1.05-36.72 11.12-2.06.39-.07a29.445 29.445 0 0 1 12.62 14.72c2.16 5.4 6.27 21.64 9.74 36.13l.48 2h-28.87l-.93-2z"/></g><path d="M192.616 150.5H50.596a11.504 11.504 0 0 0-11.49 11.49v142.02a11.504 11.504 0 0 0 11.49 11.49h142.02a11.497 11.497 0 0 0 11.49-11.49V161.99a11.497 11.497 0 0 0-11.49-11.49zm9.49 153.51a9.498 9.498 0 0 1-9.49 9.49H50.596a9.505 9.505 0 0 1-9.49-9.49V161.99a9.505 9.505 0 0 1 9.49-9.49h142.02a9.498 9.498 0 0 1 9.49 9.49zm-109.62 9.49l-.21 2h59.47l.53-2zm290.74-163h-142.02a11.504 11.504 0 0 0-11.49 11.49v142.02a11.504 11.504 0 0 0 11.49 11.49h142.02a11.497 11.497 0 0 0 11.49-11.49V161.99a11.497 11.497 0 0 0-11.49-11.49zm9.49 153.51a9.498 9.498 0 0 1-9.49 9.49h-142.02a9.505 9.505 0 0 1-9.49-9.49V161.99a9.505 9.505 0 0 1 9.49-9.49h142.02a9.498 9.498 0 0 1 9.49 9.49zm-125.28 9.49q.18.645.39 1.29l-.25.71h49.66l.14-2zm306.41-163h-142.02a11.497 11.497 0 0 0-11.49 11.49v142.02a11.497 11.497 0 0 0 11.49 11.49h142.02a11.504 11.504 0 0 0 11.49-11.49V161.99a11.504 11.504 0 0 0-11.49-11.49zm9.49 153.51a9.504 9.504 0 0 1-9.49 9.49h-142.02a9.498 9.498 0 0 1-9.49-9.49V161.99a9.498 9.498 0 0 1 9.49-9.49h142.02a9.504 9.504 0 0 1 9.49 9.49zm-76.92 9.49l-.15 2h43.09l.25-2z" fill="#3f3d56"/><path d="M477.221 373.5h-330a8 8 0 1 1 0-16h330a8 8 0 1 1 0 16z" fill="#b3b3b3"/><path d="M384.721 108.5h-145a8 8 0 0 1 0-16h145a8 8 0 0 1 0 16z" fill="#06f"/><path d="M136.091 236.974a4.853 4.853 0 0 0 6.346.407c5.789-4.291 10.87-9.632 13.878-16.147 3.446-7.465 3.831-16.625-.324-23.72-3.512-5.998-9.714-9.868-15.896-13.046a28.271 28.271 0 0 0-7.674-2.958 10.937 10.937 0 0 0-7.952 1.283 6.868 6.868 0 0 0-3.101 7.091 25.847 25.847 0 0 0-11.032-7.406 14.267 14.267 0 0 0-8.425-.611c-3.923 1.113-6.786 4.598-8.353 8.362a16.724 16.724 0 0 0-1.262 9.125 11.147 11.147 0 0 0 4.871 7.635c3.243 2.007 7.381 1.862 11.105 1.042s7.33-2.246 11.126-2.606 8.024.586 10.335 3.62c1.627 2.137 2.045 4.928 2.41 7.589l1.9 13.839a16.881 16.881 0 0 0 1.51 5.783 3.333 3.333 0 0 0 .538.718z" fill="#333"/><g transform="matrix(.105088 0 0 .104151 566.99044 53.587992)" stroke="#06f"><ellipse ry="172.52" rx="172.583" cy="194.474" cx="189.242" stroke-width="5.669"/><g transform="matrix(.531032 0 0 .50472 58.993685 69.409144)" fill="#00a"><path d="M45.4 367.7h91.3l45.4-78.8-45.4-78.9H45.4L0 288.9zM290 279.2l45.8-78.9-45.8-78.8h-90.8l-45.5 78.8 45.5 78.9zm45.8 98.2L290 298.6h-90.8l-45.5 78.8 45.5 79.2H290zM0 111.8l45.4 78.8h91.3l45.4-78.8-45.4-79.2H45.4z" stroke-width="6.3"/><path d="M352.312 32.959l-45.586 78.442 45.586 78.84h91.673l45.586-78.442-45.586-78.84z" stroke-width="6.299"/></g></g></svg>