<svg xmlns="http://www.w3.org/2000/svg" xmlns:xlink="http://www.w3.org/1999/xlink" id="visual" width="900" height="600" version="1.1" viewBox="0 0 900 600"><rect width="900" height="600" fill="#000"/><g><g><path fill="none" stroke="#0357f8" stroke-width="2" d="M0 -94.6L81.9 -47.3L81.9 47.3L0 94.6L-81.9 47.3L-81.9 -47.3Z" transform="translate(85 19)"/></g><g><path fill="none" stroke="#0357f8" stroke-width="2" d="M0 -92L79.7 -46L79.7 46L0 92L-79.7 46L-79.7 -46Z" transform="translate(368 535)"/></g><g><path fill="none" stroke="#0357f8" stroke-width="2" d="M0 -70L60.6 -35L60.6 35L0 70L-60.6 35L-60.6 -35Z" transform="translate(342 38)"/></g><g><path fill="none" stroke="#0357f8" stroke-width="2" d="M0 -60L52 -30L52 30L0 60L-52 30L-52 -30Z" transform="translate(736 398)"/></g><g><path fill="none" stroke="#0357f8" stroke-width="2" d="M0 -91L78.8 -45.5L78.8 45.5L0 91L-78.8 45.5L-78.8 -45.5Z" transform="translate(68 393)"/></g><g><path fill="none" stroke="#0357f8" stroke-width="2" d="M0 -75L65 -37.5L65 37.5L0 75L-65 37.5L-65 -37.5Z" transform="translate(390 328)"/></g><g><path fill="none" stroke="#0357f8" stroke-width="2" d="M0 -60L52 -30L52 30L0 60L-52 30L-52 -30Z" transform="translate(834 45)"/></g><g><path fill="none" stroke="#0357f8" stroke-width="2" d="M0 -84L72.7 -42L72.7 42L0 84L-72.7 42L-72.7 -42Z" transform="translate(594 79)"/></g><g><path fill="none" stroke="#0357f8" stroke-width="2" d="M0 -54L46.8 -27L46.8 27L0 54L-46.8 27L-46.8 -27Z" transform="translate(897 276)"/></g><g><path fill="none" stroke="#0357f8" stroke-width="2" d="M0 -57L49.4 -28.5L49.4 28.5L0 57L-49.4 28.5L-49.4 -28.5Z" transform="translate(214 215)"/></g><g><path fill="none" stroke="#0357f8" stroke-width="2" d="M0 -58L50.2 -29L50.2 29L0 58L-50.2 29L-50.2 -29Z" transform="translate(645 567)"/></g><g><path fill="none" stroke="#0357f8" stroke-width="2" d="M0 -48L41.6 -24L41.6 24L0 48L-41.6 24L-41.6 -24Z" transform="translate(838 572)"/></g><g><path fill="none" stroke="#0357f8" stroke-width="2" d="M0 -71L61.5 -35.5L61.5 35.5L0 71L-61.5 35.5L-61.5 -35.5Z" transform="translate(172 555)"/></g></g></svg>