<svg xmlns="http://www.w3.org/2000/svg" width="1440" height="655" preserveAspectRatio="none" xmlns:v="https://vecta.io/nano"><g mask="url(#A)" fill="none"><path fill="rgba(0, 3, 6, 1)" d="M0 0h1440v655H0z"/><g stroke="#132e65" stroke-width="1.5"><path d="M-108.49 553.69h0"/><path d="M-108.49 553.69l28.38 121.84m-28.38-121.84l149.85-24.67"/><path d="M-80.11 675.53h0"/><path d="M-80.11 675.53L60.43 642.6m-140.54 32.93L41.36 529.02M-80.11 675.53L80 804.18"/><path d="M-80.11 675.53l271.06 30.83"/><path d="M-80.11 675.53L192.2 796.98M107.51 392.1h0"/><path d="M107.51 392.1l93.93 108.97M107.51 392.1L41.36 529.02"/><path d="M107.51 392.1l244.43-28.67M107.51 392.1L60.43 642.6M41.36 529.02h0"/><path d="M41.36 529.02L60.43 642.6M41.36 529.02l160.08-27.95"/><path d="M60.43 642.6h0"/><path d="M60.43 642.6l130.52 63.76M60.43 642.6L80 804.18"/><path d="M60.43 642.6l-168.92-88.91M80 804.18h0"/><path d="M80 804.18l112.2-7.2M80 804.18l110.95-97.82m10.49-205.29h0"/><path d="M201.44 501.07l147.15 36.48M190.95 706.36h0"/><path d="M190.95 706.36l1.25 90.62"/><path d="M192.2 796.98h0"/><path d="M192.2 796.98L60.43 642.6M192.2 796.98l208.21 43.87"/><path d="M192.2 796.98l9.24-295.91m150.5-137.64h0"/><path d="M351.94 363.43l-3.35 174.12m3.35-174.12l-150.5 137.64"/><path d="M351.94 363.43l157.18 184.81m-160.53-10.69h0"/><path d="M348.59 537.55l160.53 10.69"/><path d="M348.59 537.55l156.92 100.43m-105.1 202.87h0"/><path d="M400.41 840.85l114.13-42.74m-5.42-249.87h0"/><path d="M509.12 548.24l-3.61 89.74m3.61-89.74l130.54 13.45"/><path d="M509.12 548.24l5.42 249.87m-9.03-160.13h0"/><path d="M505.51 637.98l134.15-76.29m-134.15 76.29l9.03 160.13"/><path d="M514.54 798.11h0"/><path d="M514.54 798.11L691.1 787.9m-176.56 10.21l125.12-236.42M514.54 798.11L348.59 537.55m355.19-183.58h0"/><path d="M703.78 353.97l88.36 54.88m-88.36-54.88l134.89-113.62M639.66 561.69h0"/><path d="M639.66 561.69l158.21 76.21m-106.77 150h0"/><path d="M691.1 787.9l149.43 5.09M691.1 787.9l106.77-150m40.8-397.55h0"/><path d="M838.67 240.35l125.53-4.98m-125.53 4.98l-46.53 168.5"/><path d="M792.14 408.85h0"/><path d="M792.14 408.85l151.25-24.95m-151.25 24.95l49.49 146.33"/><path d="M841.63 555.18h0"/><path d="M841.63 555.18l-43.76 82.72m43.76-82.72l102.86-55.55"/><path d="M797.87 637.9h0"/><path d="M797.87 637.9l42.66 155.09M797.87 637.9l146.62-138.27"/><path d="M797.87 637.9l202.94 60.25m-160.28 94.84h0"/><path d="M840.53 792.99l119.1 52.82m1.85-921.11h0"/><path d="M961.48-75.3l134.43 4.64M961.48-75.3l-15.2 137.24"/><path d="M961.48-75.3l167.11 173.54m-182.31-36.3h0"/><path d="M946.28 61.94l17.92 173.43M946.28 61.94l182.31 36.3"/><path d="M946.28 61.94l149.63-132.6M964.2 235.37h0"/><path d="M964.2 235.37L943.39 383.9m20.81-148.53l164.21-17.28"/><path d="M964.2 235.37l164.39-137.13M943.39 383.9h0"/><path d="M943.39 383.9l1.1 115.73m-1.1-115.73L838.67 240.35"/><path d="M944.49 499.63h0"/><path d="M944.49 499.63l-152.35-90.78m152.35 90.78l194.82-3.3m-194.82 3.3l56.32 198.52"/><path d="M1000.81 698.15h0"/><path d="M1000.81 698.15l96.28-18.58M959.63 845.81h0"/><path d="M959.63 845.81l41.18-147.66"/><path d="M959.63 845.81l137.46-166.24M959.63 845.81L797.87 637.9m161.76 207.91L691.1 787.9m268.53 57.91l310.55 11.81M1095.91-70.66h0"/><path d="M1095.91-70.66l32.68 168.9m-32.68-168.9l182.43-3.56"/><path d="M1128.59 98.24h0"/><path d="M1128.59 98.24l-.18 119.85m.18-119.85l136.53 5.68"/><path d="M1128.41 218.09h0"/><path d="M1128.41 218.09l26.3 133.4m-26.3-133.4l146.87-3.22m-146.87 3.22l136.71-114.17m-136.71 114.17L946.28 61.94"/><path d="M1154.71 351.49h0"/><path d="M1154.71 351.49l119.13 60.93m-119.13-60.93l-15.4 144.84"/><path d="M1154.71 351.49l84.89 148.29m-84.89-148.29l120.57-136.62m-135.97 281.46h0"/><path d="M1139.31 496.33l100.29 3.45m-142.51 179.79h0"/><path d="M1097.09 679.57l42.22-183.24m139.03-570.55h0"/><path d="M1278.34-74.22l168.02-27.36m-168.02 27.36l-13.22 178.14m13.22-178.14l126.7 148.82m-126.7-148.82L1128.59 98.24"/><path d="M1265.12 103.92h0"/><path d="M1265.12 103.92l10.16 110.95m-10.16-110.95l139.92-29.32"/><path d="M1275.28 214.87h0"/><path d="M1275.28 214.87l130.8 29.65m-132.24 167.9h0"/><path d="M1273.84 412.42l-34.24 87.36m34.24-87.36l-134.53 83.91m134.53-83.91l160.82-73.01m-160.82 73.01l146.03 130.42"/><path d="M1239.6 499.78h0"/><path d="M1239.6 499.78l180.27 43.06m-180.27-43.06l52.49 191.4"/><path d="M1239.6 499.78l-142.51 179.79m195 11.61h0"/><path d="M1292.09 691.18l126.51-30.52m-126.51 30.52l-21.91 166.44m21.91-166.44l-195-11.61m195 11.61l127.78-148.34m-149.69 314.78h0m176.18-959.2h0"/><path d="M1446.36-101.58l104.21 16.88m-104.21-16.88L1405.04 74.6"/><path d="M1405.04 74.6h0"/><path d="M1405.04 74.6l1.04 169.92"/><path d="M1406.08 244.52h0"/><path d="M1406.08 244.52l28.58 94.89m-28.58-94.89l138.45 112.93m-138.45-112.93l-140.96-140.6m169.54 235.49h0m-14.79 203.43h0"/><path d="M1419.87 542.84l-1.27 117.82m1.27-117.82l155.38-40.95m-155.38 40.95l142.72 100.6m-143.99 17.22h0"/><path d="M1418.6 660.66l143.99-17.22m-143.99 17.22l150.45 153.15M1550.57-84.7h0"/><path d="M1550.57-84.7l40.51 180.08M1550.57-84.7L1405.04 74.6"/><path d="M1550.57-84.7l-272.23 10.48m312.74 169.6h0"/><path d="M1591.08 95.38l16.54 156.55m-16.54-156.55L1405.04 74.6"/><path d="M1591.08 95.38l-185 149.14m185-149.14l-144.72-196.96m144.72 196.96l-46.55 262.07m63.09-105.52h0"/><path d="M1607.62 251.93l-63.09 105.52m63.09-105.52l-172.96 87.48"/><path d="M1607.62 251.93l-201.54-7.41m201.54 7.41l-32.37 249.96m-30.72-144.44h0"/><path d="M1544.53 357.45l-109.87-18.04m109.87 18.04l30.72 144.44"/><path d="M1575.25 501.89h0"/><path d="M1575.25 501.89l-12.66 141.55m12.66-141.55l-140.59-162.48"/><path d="M1575.25 501.89L1418.6 660.66m143.99-17.22h0"/><path d="M1562.59 643.44l6.46 170.37"/><path d="M1569.05 813.81h0"/><path d="M1569.05 813.81l-298.87 43.81m298.87-43.81l-276.96-122.63m276.96 122.63l-149.18-270.97m149.18 270.97l6.2-311.92"/></g><g fill="#132e65"><circle r="5" cx="-108.49" cy="553.69"/><circle r="5" cx="-80.11" cy="675.53"/><circle r="5" cx="107.51" cy="392.1"/><circle r="5" cx="41.36" cy="529.02"/><circle r="5" cx="60.43" cy="642.6"/><circle r="5" cx="80" cy="804.18"/><circle r="5" cx="201.44" cy="501.07"/><circle r="5" cx="190.95" cy="706.36"/><circle r="5" cx="192.2" cy="796.98"/><circle r="5" cx="351.94" cy="363.43"/><circle r="5" cx="348.59" cy="537.55"/><circle r="5" cx="400.41" cy="840.85"/><circle r="5" cx="509.12" cy="548.24"/><circle r="5" cx="505.51" cy="637.98"/><circle r="5" cx="514.54" cy="798.11"/><circle r="5" cx="703.78" cy="353.97"/><circle r="5" cx="639.66" cy="561.69"/><circle r="5" cx="691.1" cy="787.9"/><circle r="5" cx="838.67" cy="240.35"/><circle r="5" cx="792.14" cy="408.85"/><circle r="5" cx="841.63" cy="555.18"/><circle r="5" cx="797.87" cy="637.9"/><circle r="5" cx="840.53" cy="792.99"/><circle r="5" cx="961.48" cy="-75.3"/><circle r="5" cx="946.28" cy="61.94"/><circle r="5" cx="964.2" cy="235.37"/><circle r="5" cx="943.39" cy="383.9"/><circle r="5" cx="944.49" cy="499.63"/><circle r="5" cx="1000.81" cy="698.15"/><circle r="5" cx="959.63" cy="845.81"/><circle r="5" cx="1095.91" cy="-70.66"/><circle r="5" cx="1128.59" cy="98.24"/><circle r="5" cx="1128.41" cy="218.09"/><circle r="5" cx="1154.71" cy="351.49"/><circle r="5" cx="1139.31" cy="496.33"/><circle r="5" cx="1097.09" cy="679.57"/><circle r="5" cx="1278.34" cy="-74.22"/><circle r="5" cx="1265.12" cy="103.92"/><circle r="5" cx="1275.28" cy="214.87"/><circle r="5" cx="1273.84" cy="412.42"/><circle r="5" cx="1239.6" cy="499.78"/><circle r="5" cx="1292.09" cy="691.18"/><circle r="5" cx="1270.18" cy="857.62"/><circle r="5" cx="1446.36" cy="-101.58"/><circle r="5" cx="1405.04" cy="74.6"/><circle r="5" cx="1406.08" cy="244.52"/><circle r="5" cx="1434.66" cy="339.41"/><circle r="5" cx="1419.87" cy="542.84"/><circle r="5" cx="1418.6" cy="660.66"/><circle r="5" cx="1550.57" cy="-84.7"/><circle r="5" cx="1591.08" cy="95.38"/><circle r="5" cx="1607.62" cy="251.93"/><circle r="5" cx="1544.53" cy="357.45"/><circle r="5" cx="1575.25" cy="501.89"/><circle r="5" cx="1562.59" cy="643.44"/><circle r="5" cx="1569.05" cy="813.81"/></g><g stroke-width="1.5" stroke="#2448e3"><path d="M-104.8 801.22h0"/><path d="M-104.8 801.22l21.83-92.16m-21.83 92.16l166.77 52.9"/><path d="M-104.8 801.22L42.74 524.59"/><path d="M-104.8 801.22l300.13-153.96M-104.8 801.22l343.61 41.82"/><path d="M-104.8 801.22l451.1-89.04M61.97 854.12h0"/><path d="M61.97 854.12l176.84-11.08M61.97 854.12L-82.97 709.06"/><path d="M61.97 854.12l133.36-206.86m809.01-146.77h0"/><path d="M1004.34 500.49l-44.28-128.93m44.28 128.93l-19.66 157.6"/><path d="M1004.34 500.49l153.65-89.67m-153.65 89.67L816.95 514.2"/><path d="M1004.34 500.49l125.84 187.21m-125.84-187.21L805.91 663.31m178.77-5.22h0"/><path d="M984.68 658.09l145.5 29.61m32.32-458.08h0"/><path d="M1162.5 229.62l131.08-14.61m-131.08 14.61l-4.51 181.2"/><path d="M1162.5 229.62l109.46-191.84m-113.97 373.04h0"/><path d="M1157.99 410.82l131.67 142.95m128.68-502.84h0"/><path d="M1418.34 50.93l-30.18-140.95m30.18 140.95l-146.38-13.15m265.93 610.02h0"/><path d="M1537.89 647.8l-127.08 43.94m127.08-43.94l50.63-129.53"/><path d="M1537.89 647.8l-137.71-85.67m137.71 85.67l14.57 184.15"/><path d="M1537.89 647.8l-103.06 196.09m103.06-196.09L1559 404.33M-82.97 709.06h0"/><path d="M-82.97 709.06L42.74 524.59M-82.97 709.06l278.3-61.8"/><path d="M-82.97 709.06l321.78 133.98M42.74 524.59h0"/><path d="M42.74 524.59l152.59 122.67M42.74 524.59l19.23 329.53M42.74 524.59l338.81 18.91"/><path d="M42.74 524.59L346.3 712.18m-150.97-64.92h0"/><path d="M195.33 647.26l150.97 64.92m-150.97-64.92l43.48 195.78"/><path d="M195.33 647.26L381.55 543.5M195.33 647.26l176.58 195.7m-133.1.08h0"/><path d="M238.81 843.04l133.1-.08m-133.1.08L346.3 712.18m35.25-168.68h0"/><path d="M381.55 543.5l145.5 1.95m-145.5-1.95L346.3 712.18"/><path d="M381.55 543.5L538.48 658.15"/><path d="M381.55 543.5l127.46 253.44M346.3 712.18h0"/><path d="M346.3 712.18l25.61 130.78M346.3 712.18l162.71 84.76M346.3 712.18l192.18-54.03M371.91 842.96h0"/><path d="M371.91 842.96l137.1-46.02m-137.1 46.02l166.57-184.81m-11.43-112.7h0"/><path d="M527.05 545.45l11.43 112.7"/><path d="M538.48 658.15h0"/><path d="M538.48 658.15l100.15 39.48m-100.15-39.48l-29.47 138.79"/><path d="M538.48 658.15l147.5-120.83M509.01 796.94h0"/><path d="M685.98 537.32h0"/><path d="M685.98 537.32l130.97-23.12m-130.97 23.12l-158.93 8.13m158.93-8.13l-47.35 160.31m47.35-160.31l119.93 125.99"/><path d="M685.98 537.32l-10.24 256.75m-37.11-96.44h0"/><path d="M638.63 697.63l37.11 96.44"/><path d="M675.74 794.07h0"/><path d="M675.74 794.07l-166.73 2.87m166.73-2.87l130.17-130.76m11.04-149.11h0"/><path d="M816.95 514.2l-11.04 149.11m11.04-149.11l143.11-142.64"/><path d="M805.91 663.31h0"/><path d="M805.91 663.31l-167.28 34.32m167.28-34.32l178.77-5.22"/><path d="M805.91 663.31l134.11 149.82m20.04-441.57h0"/><path d="M960.06 371.56l197.93 39.26m-197.93-39.26l202.44-141.94M960.06 371.56l24.62 286.53m-24.62-286.53L685.98 537.32m254.04 275.81h0"/><path d="M940.02 813.13l44.66-155.04m-44.66 155.04l214.31-19.64"/><path d="M940.02 813.13l190.16-125.43M940.02 813.13l-264.28-19.06"/><path d="M940.02 813.13l314.1 22.05M1130.18 687.7h0"/><path d="M1130.18 687.7l24.15 105.79m-24.15-105.79l141.08-13.11"/><path d="M1154.33 793.49h0"/><path d="M1154.33 793.49l99.79 41.69m-99.79-41.69l116.93-118.9m-116.93 118.9l-169.65-135.4m287.28-620.31h0"/><path d="M1271.96 37.78l116.2-127.8m-116.2 127.8l21.62 177.23"/><path d="M1293.58 215.01h0"/><path d="M1293.58 215.01l124.76-164.08m-128.68 502.84h0"/><path d="M1289.66 553.77l110.52 8.36m-110.52-8.36l-18.4 120.82"/><path d="M1289.66 553.77l99.67-150.56m-99.67 150.56l121.15 137.97m-121.15-137.97L1130.18 687.7m141.08-13.11h0"/><path d="M1271.26 674.59l139.55 17.15m-139.55-17.15l-17.14 160.59m0 0h0m134.04-925.2h0"/><path d="M1388.16-90.02l200.35 20.18"/><path d="M1388.16-90.02l203.92 155.77m-202.75 337.46h0"/><path d="M1389.33 403.21l10.85 158.92m-10.85-158.92l169.67 1.12"/><path d="M1400.18 562.13h0"/><path d="M1400.18 562.13l10.63 129.61"/><path d="M1410.81 691.74h0"/><path d="M1410.81 691.74l24.02 152.15"/><path d="M1434.83 843.89h0"/><path d="M1434.83 843.89l117.63-11.94m-117.63 11.94l-180.71-8.71m334.39-905.02h0"/><path d="M1588.51-69.84l3.57 135.59m-3.57-135.59L1418.34 50.93"/><path d="M1592.08 65.75h0"/><path d="M1592.08 65.75l-47.7 163.1m47.7-163.1l-173.74-14.82"/><path d="M1592.08 65.75l-320.12-27.97m320.12 27.97l-298.5 149.26m250.8 13.84h0M1559 404.33h0"/><path d="M1559 404.33l29.52 113.94M1559 404.33l-14.62-175.48"/><path d="M1559 404.33l-158.82 157.8m188.34-43.86h0"/><path d="M1588.52 518.27l-188.34 43.86m188.34-43.86l-199.19-115.06m163.13 428.74h0"/><path d="M1552.46 831.95l-141.65-140.21m141.65 140.21l-298.34 3.23m298.34-3.23l-152.28-269.82m152.28 269.82l36.06-313.68"/></g><g fill="url(#B)"><circle r="25" cx="-104.8" cy="801.22"/><circle r="25" cx="61.97" cy="854.12"/><circle r="25" cx="1004.34" cy="500.49"/><circle r="25" cx="984.68" cy="658.09"/><circle r="25" cx="1162.5" cy="229.62"/><circle r="25" cx="1157.99" cy="410.82"/><circle r="25" cx="1418.34" cy="50.93"/><circle r="25" cx="1537.89" cy="647.8"/></g><g fill="#8b9ad9"><circle r="5" cx="-82.97" cy="709.06"/><circle r="5" cx="42.74" cy="524.59"/><circle r="5" cx="195.33" cy="647.26"/><circle r="5" cx="238.81" cy="843.04"/><circle r="5" cx="381.55" cy="543.5"/><circle r="5" cx="346.3" cy="712.18"/><circle r="5" cx="371.91" cy="842.96"/><circle r="5" cx="527.05" cy="545.45"/><circle r="5" cx="538.48" cy="658.15"/><circle r="5" cx="509.01" cy="796.94"/><circle r="5" cx="685.98" cy="537.32"/><circle r="5" cx="638.63" cy="697.63"/><circle r="5" cx="675.74" cy="794.07"/><circle r="5" cx="816.95" cy="514.2"/><circle r="5" cx="805.91" cy="663.31"/><circle r="5" cx="960.06" cy="371.56"/><circle r="5" cx="940.02" cy="813.13"/><circle r="5" cx="1130.18" cy="687.7"/><circle r="5" cx="1154.33" cy="793.49"/><circle r="5" cx="1271.96" cy="37.78"/><circle r="5" cx="1293.58" cy="215.01"/><circle r="5" cx="1289.66" cy="553.77"/><circle r="5" cx="1271.26" cy="674.59"/><circle r="5" cx="1254.12" cy="835.18"/><circle r="5" cx="1388.16" cy="-90.02"/><circle r="5" cx="1389.33" cy="403.21"/><circle r="5" cx="1400.18" cy="562.13"/><circle r="5" cx="1410.81" cy="691.74"/><circle r="5" cx="1434.83" cy="843.89"/><circle r="5" cx="1588.51" cy="-69.84"/><circle r="5" cx="1592.08" cy="65.75"/><circle r="5" cx="1544.38" cy="228.85"/><circle r="5" cx="1559" cy="404.33"/><circle r="5" cx="1588.52" cy="518.27"/><circle r="5" cx="1552.46" cy="831.95"/></g></g><defs><mask id="A"><path fill="#fff" d="M0 0h1440v655H0z"/></mask><radialGradient id="B"><stop stop-color="#fff" offset=".1"/><stop stop-color="#1735b3" offset=".2"/><stop stop-color="rgba(23, 53, 179, 0)" offset="1"/></radialGradient></defs></svg>