<svg xmlns="http://www.w3.org/2000/svg" version="1.1" xmlns:xlink="http://www.w3.org/1999/xlink" xmlns:svgjs="http://svgjs.com/svgjs" width="1440" height="655" preserveAspectRatio="none" viewBox="0 0 1440 655"><g mask="url(&quot;#SvgjsMask1681&quot;)" fill="none"><rect width="1440" height="655" x="0" y="0" fill="rgba(0, 3, 6, 1)"></rect><path d="M-108.49 553.69L-108.49 553.69" stroke="#132e65" stroke-width="1.5"></path><path d="M-108.49 553.69L-80.11 675.53" stroke="#132e65" stroke-width="1.5"></path><path d="M-108.49 553.69L41.36 529.02" stroke="#132e65" stroke-width="1.5"></path><path d="M-80.11 675.53L-80.11 675.53" stroke="#132e65" stroke-width="1.5"></path><path d="M-80.11 675.53L60.43 642.6" stroke="#132e65" stroke-width="1.5"></path><path d="M-80.11 675.53L41.36 529.02" stroke="#132e65" stroke-width="1.5"></path><path d="M-80.11 675.53L80 804.18" stroke="#132e65" stroke-width="1.5"></path><path d="M-80.11 675.53L190.95 706.36" stroke="#132e65" stroke-width="1.5"></path><path d="M-80.11 675.53L192.2 796.98" stroke="#132e65" stroke-width="1.5"></path><path d="M107.51 392.1L107.51 392.1" stroke="#132e65" stroke-width="1.5"></path><path d="M107.51 392.1L201.44 501.07" stroke="#132e65" stroke-width="1.5"></path><path d="M107.51 392.1L41.36 529.02" stroke="#132e65" stroke-width="1.5"></path><path d="M107.51 392.1L351.94 363.43" stroke="#132e65" stroke-width="1.5"></path><path d="M107.51 392.1L60.43 642.6" stroke="#132e65" stroke-width="1.5"></path><path d="M41.36 529.02L41.36 529.02" stroke="#132e65" stroke-width="1.5"></path><path d="M41.36 529.02L60.43 642.6" stroke="#132e65" stroke-width="1.5"></path><path d="M41.36 529.02L201.44 501.07" stroke="#132e65" stroke-width="1.5"></path><path d="M60.43 642.6L60.43 642.6" stroke="#132e65" stroke-width="1.5"></path><path d="M60.43 642.6L190.95 706.36" stroke="#132e65" stroke-width="1.5"></path><path d="M60.43 642.6L80 804.18" stroke="#132e65" stroke-width="1.5"></path><path d="M60.43 642.6L-108.49 553.69" stroke="#132e65" stroke-width="1.5"></path><path d="M80 804.18L80 804.18" stroke="#132e65" stroke-width="1.5"></path><path d="M80 804.18L192.2 796.98" stroke="#132e65" stroke-width="1.5"></path><path d="M80 804.18L190.95 706.36" stroke="#132e65" stroke-width="1.5"></path><path d="M201.44 501.07L201.44 501.07" stroke="#132e65" stroke-width="1.5"></path><path d="M201.44 501.07L348.59 537.55" stroke="#132e65" stroke-width="1.5"></path><path d="M190.95 706.36L190.95 706.36" stroke="#132e65" stroke-width="1.5"></path><path d="M190.95 706.36L192.2 796.98" stroke="#132e65" stroke-width="1.5"></path><path d="M192.2 796.98L192.2 796.98" stroke="#132e65" stroke-width="1.5"></path><path d="M192.2 796.98L60.43 642.6" stroke="#132e65" stroke-width="1.5"></path><path d="M192.2 796.98L400.41 840.85" stroke="#132e65" stroke-width="1.5"></path><path d="M192.2 796.98L201.44 501.07" stroke="#132e65" stroke-width="1.5"></path><path d="M351.94 363.43L351.94 363.43" stroke="#132e65" stroke-width="1.5"></path><path d="M351.94 363.43L348.59 537.55" stroke="#132e65" stroke-width="1.5"></path><path d="M351.94 363.43L201.44 501.07" stroke="#132e65" stroke-width="1.5"></path><path d="M351.94 363.43L509.12 548.24" stroke="#132e65" stroke-width="1.5"></path><path d="M348.59 537.55L348.59 537.55" stroke="#132e65" stroke-width="1.5"></path><path d="M348.59 537.55L509.12 548.24" stroke="#132e65" stroke-width="1.5"></path><path d="M348.59 537.55L505.51 637.98" stroke="#132e65" stroke-width="1.5"></path><path d="M400.41 840.85L400.41 840.85" stroke="#132e65" stroke-width="1.5"></path><path d="M400.41 840.85L514.54 798.11" stroke="#132e65" stroke-width="1.5"></path><path d="M509.12 548.24L509.12 548.24" stroke="#132e65" stroke-width="1.5"></path><path d="M509.12 548.24L505.51 637.98" stroke="#132e65" stroke-width="1.5"></path><path d="M509.12 548.24L639.66 561.69" stroke="#132e65" stroke-width="1.5"></path><path d="M509.12 548.24L514.54 798.11" stroke="#132e65" stroke-width="1.5"></path><path d="M505.51 637.98L505.51 637.98" stroke="#132e65" stroke-width="1.5"></path><path d="M505.51 637.98L639.66 561.69" stroke="#132e65" stroke-width="1.5"></path><path d="M505.51 637.98L514.54 798.11" stroke="#132e65" stroke-width="1.5"></path><path d="M514.54 798.11L514.54 798.11" stroke="#132e65" stroke-width="1.5"></path><path d="M514.54 798.11L691.1 787.9" stroke="#132e65" stroke-width="1.5"></path><path d="M514.54 798.11L639.66 561.69" stroke="#132e65" stroke-width="1.5"></path><path d="M514.54 798.11L348.59 537.55" stroke="#132e65" stroke-width="1.5"></path><path d="M703.78 353.97L703.78 353.97" stroke="#132e65" stroke-width="1.5"></path><path d="M703.78 353.97L792.14 408.85" stroke="#132e65" stroke-width="1.5"></path><path d="M703.78 353.97L838.67 240.35" stroke="#132e65" stroke-width="1.5"></path><path d="M639.66 561.69L639.66 561.69" stroke="#132e65" stroke-width="1.5"></path><path d="M639.66 561.69L797.87 637.9" stroke="#132e65" stroke-width="1.5"></path><path d="M691.1 787.9L691.1 787.9" stroke="#132e65" stroke-width="1.5"></path><path d="M691.1 787.9L840.53 792.99" stroke="#132e65" stroke-width="1.5"></path><path d="M691.1 787.9L797.87 637.9" stroke="#132e65" stroke-width="1.5"></path><path d="M838.67 240.35L838.67 240.35" stroke="#132e65" stroke-width="1.5"></path><path d="M838.67 240.35L964.2 235.37" stroke="#132e65" stroke-width="1.5"></path><path d="M838.67 240.35L792.14 408.85" stroke="#132e65" stroke-width="1.5"></path><path d="M792.14 408.85L792.14 408.85" stroke="#132e65" stroke-width="1.5"></path><path d="M792.14 408.85L943.39 383.9" stroke="#132e65" stroke-width="1.5"></path><path d="M792.14 408.85L841.63 555.18" stroke="#132e65" stroke-width="1.5"></path><path d="M841.63 555.18L841.63 555.18" stroke="#132e65" stroke-width="1.5"></path><path d="M841.63 555.18L797.87 637.9" stroke="#132e65" stroke-width="1.5"></path><path d="M841.63 555.18L944.49 499.63" stroke="#132e65" stroke-width="1.5"></path><path d="M797.87 637.9L797.87 637.9" stroke="#132e65" stroke-width="1.5"></path><path d="M797.87 637.9L840.53 792.99" stroke="#132e65" stroke-width="1.5"></path><path d="M797.87 637.9L944.49 499.63" stroke="#132e65" stroke-width="1.5"></path><path d="M797.87 637.9L1000.81 698.15" stroke="#132e65" stroke-width="1.5"></path><path d="M840.53 792.99L840.53 792.99" stroke="#132e65" stroke-width="1.5"></path><path d="M840.53 792.99L959.63 845.81" stroke="#132e65" stroke-width="1.5"></path><path d="M961.48 -75.3L961.48 -75.3" stroke="#132e65" stroke-width="1.5"></path><path d="M961.48 -75.3L1095.91 -70.66" stroke="#132e65" stroke-width="1.5"></path><path d="M961.48 -75.3L946.28 61.94" stroke="#132e65" stroke-width="1.5"></path><path d="M961.48 -75.3L1128.59 98.24" stroke="#132e65" stroke-width="1.5"></path><path d="M946.28 61.94L946.28 61.94" stroke="#132e65" stroke-width="1.5"></path><path d="M946.28 61.94L964.2 235.37" stroke="#132e65" stroke-width="1.5"></path><path d="M946.28 61.94L1128.59 98.24" stroke="#132e65" stroke-width="1.5"></path><path d="M946.28 61.94L1095.91 -70.66" stroke="#132e65" stroke-width="1.5"></path><path d="M964.2 235.37L964.2 235.37" stroke="#132e65" stroke-width="1.5"></path><path d="M964.2 235.37L943.39 383.9" stroke="#132e65" stroke-width="1.5"></path><path d="M964.2 235.37L1128.41 218.09" stroke="#132e65" stroke-width="1.5"></path><path d="M964.2 235.37L1128.59 98.24" stroke="#132e65" stroke-width="1.5"></path><path d="M943.39 383.9L943.39 383.9" stroke="#132e65" stroke-width="1.5"></path><path d="M943.39 383.9L944.49 499.63" stroke="#132e65" stroke-width="1.5"></path><path d="M943.39 383.9L838.67 240.35" stroke="#132e65" stroke-width="1.5"></path><path d="M944.49 499.63L944.49 499.63" stroke="#132e65" stroke-width="1.5"></path><path d="M944.49 499.63L792.14 408.85" stroke="#132e65" stroke-width="1.5"></path><path d="M944.49 499.63L1139.31 496.33" stroke="#132e65" stroke-width="1.5"></path><path d="M944.49 499.63L1000.81 698.15" stroke="#132e65" stroke-width="1.5"></path><path d="M1000.81 698.15L1000.81 698.15" stroke="#132e65" stroke-width="1.5"></path><path d="M1000.81 698.15L1097.09 679.57" stroke="#132e65" stroke-width="1.5"></path><path d="M959.63 845.81L959.63 845.81" stroke="#132e65" stroke-width="1.5"></path><path d="M959.63 845.81L1000.81 698.15" stroke="#132e65" stroke-width="1.5"></path><path d="M959.63 845.81L1097.09 679.57" stroke="#132e65" stroke-width="1.5"></path><path d="M959.63 845.81L797.87 637.9" stroke="#132e65" stroke-width="1.5"></path><path d="M959.63 845.81L691.1 787.9" stroke="#132e65" stroke-width="1.5"></path><path d="M959.63 845.81L1270.18 857.62" stroke="#132e65" stroke-width="1.5"></path><path d="M1095.91 -70.66L1095.91 -70.66" stroke="#132e65" stroke-width="1.5"></path><path d="M1095.91 -70.66L1128.59 98.24" stroke="#132e65" stroke-width="1.5"></path><path d="M1095.91 -70.66L1278.34 -74.22" stroke="#132e65" stroke-width="1.5"></path><path d="M1128.59 98.24L1128.59 98.24" stroke="#132e65" stroke-width="1.5"></path><path d="M1128.59 98.24L1128.41 218.09" stroke="#132e65" stroke-width="1.5"></path><path d="M1128.59 98.24L1265.12 103.92" stroke="#132e65" stroke-width="1.5"></path><path d="M1128.41 218.09L1128.41 218.09" stroke="#132e65" stroke-width="1.5"></path><path d="M1128.41 218.09L1154.71 351.49" stroke="#132e65" stroke-width="1.5"></path><path d="M1128.41 218.09L1275.28 214.87" stroke="#132e65" stroke-width="1.5"></path><path d="M1128.41 218.09L1265.12 103.92" stroke="#132e65" stroke-width="1.5"></path><path d="M1128.41 218.09L946.28 61.94" stroke="#132e65" stroke-width="1.5"></path><path d="M1154.71 351.49L1154.71 351.49" stroke="#132e65" stroke-width="1.5"></path><path d="M1154.71 351.49L1273.84 412.42" stroke="#132e65" stroke-width="1.5"></path><path d="M1154.71 351.49L1139.31 496.33" stroke="#132e65" stroke-width="1.5"></path><path d="M1154.71 351.49L1239.6 499.78" stroke="#132e65" stroke-width="1.5"></path><path d="M1154.71 351.49L1275.28 214.87" stroke="#132e65" stroke-width="1.5"></path><path d="M1139.31 496.33L1139.31 496.33" stroke="#132e65" stroke-width="1.5"></path><path d="M1139.31 496.33L1239.6 499.78" stroke="#132e65" stroke-width="1.5"></path><path d="M1097.09 679.57L1097.09 679.57" stroke="#132e65" stroke-width="1.5"></path><path d="M1097.09 679.57L1139.31 496.33" stroke="#132e65" stroke-width="1.5"></path><path d="M1278.34 -74.22L1278.34 -74.22" stroke="#132e65" stroke-width="1.5"></path><path d="M1278.34 -74.22L1446.36 -101.58" stroke="#132e65" stroke-width="1.5"></path><path d="M1278.34 -74.22L1265.12 103.92" stroke="#132e65" stroke-width="1.5"></path><path d="M1278.34 -74.22L1405.04 74.6" stroke="#132e65" stroke-width="1.5"></path><path d="M1278.34 -74.22L1128.59 98.24" stroke="#132e65" stroke-width="1.5"></path><path d="M1265.12 103.92L1265.12 103.92" stroke="#132e65" stroke-width="1.5"></path><path d="M1265.12 103.92L1275.28 214.87" stroke="#132e65" stroke-width="1.5"></path><path d="M1265.12 103.92L1405.04 74.6" stroke="#132e65" stroke-width="1.5"></path><path d="M1275.28 214.87L1275.28 214.87" stroke="#132e65" stroke-width="1.5"></path><path d="M1275.28 214.87L1406.08 244.52" stroke="#132e65" stroke-width="1.5"></path><path d="M1273.84 412.42L1273.84 412.42" stroke="#132e65" stroke-width="1.5"></path><path d="M1273.84 412.42L1239.6 499.78" stroke="#132e65" stroke-width="1.5"></path><path d="M1273.84 412.42L1139.31 496.33" stroke="#132e65" stroke-width="1.5"></path><path d="M1273.84 412.42L1434.66 339.41" stroke="#132e65" stroke-width="1.5"></path><path d="M1273.84 412.42L1419.87 542.84" stroke="#132e65" stroke-width="1.5"></path><path d="M1239.6 499.78L1239.6 499.78" stroke="#132e65" stroke-width="1.5"></path><path d="M1239.6 499.78L1419.87 542.84" stroke="#132e65" stroke-width="1.5"></path><path d="M1239.6 499.78L1292.09 691.18" stroke="#132e65" stroke-width="1.5"></path><path d="M1239.6 499.78L1097.09 679.57" stroke="#132e65" stroke-width="1.5"></path><path d="M1292.09 691.18L1292.09 691.18" stroke="#132e65" stroke-width="1.5"></path><path d="M1292.09 691.18L1418.6 660.66" stroke="#132e65" stroke-width="1.5"></path><path d="M1292.09 691.18L1270.18 857.62" stroke="#132e65" stroke-width="1.5"></path><path d="M1292.09 691.18L1097.09 679.57" stroke="#132e65" stroke-width="1.5"></path><path d="M1292.09 691.18L1419.87 542.84" stroke="#132e65" stroke-width="1.5"></path><path d="M1270.18 857.62L1270.18 857.62" stroke="#132e65" stroke-width="1.5"></path><path d="M1446.36 -101.58L1446.36 -101.58" stroke="#132e65" stroke-width="1.5"></path><path d="M1446.36 -101.58L1550.57 -84.7" stroke="#132e65" stroke-width="1.5"></path><path d="M1446.36 -101.58L1405.04 74.6" stroke="#132e65" stroke-width="1.5"></path><path d="M1405.04 74.6L1405.04 74.6" stroke="#132e65" stroke-width="1.5"></path><path d="M1405.04 74.6L1406.08 244.52" stroke="#132e65" stroke-width="1.5"></path><path d="M1406.08 244.52L1406.08 244.52" stroke="#132e65" stroke-width="1.5"></path><path d="M1406.08 244.52L1434.66 339.41" stroke="#132e65" stroke-width="1.5"></path><path d="M1406.08 244.52L1544.53 357.45" stroke="#132e65" stroke-width="1.5"></path><path d="M1406.08 244.52L1265.12 103.92" stroke="#132e65" stroke-width="1.5"></path><path d="M1434.66 339.41L1434.66 339.41" stroke="#132e65" stroke-width="1.5"></path><path d="M1419.87 542.84L1419.87 542.84" stroke="#132e65" stroke-width="1.5"></path><path d="M1419.87 542.84L1418.6 660.66" stroke="#132e65" stroke-width="1.5"></path><path d="M1419.87 542.84L1575.25 501.89" stroke="#132e65" stroke-width="1.5"></path><path d="M1419.87 542.84L1562.59 643.44" stroke="#132e65" stroke-width="1.5"></path><path d="M1418.6 660.66L1418.6 660.66" stroke="#132e65" stroke-width="1.5"></path><path d="M1418.6 660.66L1562.59 643.44" stroke="#132e65" stroke-width="1.5"></path><path d="M1418.6 660.66L1569.05 813.81" stroke="#132e65" stroke-width="1.5"></path><path d="M1550.57 -84.7L1550.57 -84.7" stroke="#132e65" stroke-width="1.5"></path><path d="M1550.57 -84.7L1591.08 95.38" stroke="#132e65" stroke-width="1.5"></path><path d="M1550.57 -84.7L1405.04 74.6" stroke="#132e65" stroke-width="1.5"></path><path d="M1550.57 -84.7L1278.34 -74.22" stroke="#132e65" stroke-width="1.5"></path><path d="M1591.08 95.38L1591.08 95.38" stroke="#132e65" stroke-width="1.5"></path><path d="M1591.08 95.38L1607.62 251.93" stroke="#132e65" stroke-width="1.5"></path><path d="M1591.08 95.38L1405.04 74.6" stroke="#132e65" stroke-width="1.5"></path><path d="M1591.08 95.38L1406.08 244.52" stroke="#132e65" stroke-width="1.5"></path><path d="M1591.08 95.38L1446.36 -101.58" stroke="#132e65" stroke-width="1.5"></path><path d="M1591.08 95.38L1544.53 357.45" stroke="#132e65" stroke-width="1.5"></path><path d="M1607.62 251.93L1607.62 251.93" stroke="#132e65" stroke-width="1.5"></path><path d="M1607.62 251.93L1544.53 357.45" stroke="#132e65" stroke-width="1.5"></path><path d="M1607.62 251.93L1434.66 339.41" stroke="#132e65" stroke-width="1.5"></path><path d="M1607.62 251.93L1406.08 244.52" stroke="#132e65" stroke-width="1.5"></path><path d="M1607.62 251.93L1575.25 501.89" stroke="#132e65" stroke-width="1.5"></path><path d="M1544.53 357.45L1544.53 357.45" stroke="#132e65" stroke-width="1.5"></path><path d="M1544.53 357.45L1434.66 339.41" stroke="#132e65" stroke-width="1.5"></path><path d="M1544.53 357.45L1575.25 501.89" stroke="#132e65" stroke-width="1.5"></path><path d="M1575.25 501.89L1575.25 501.89" stroke="#132e65" stroke-width="1.5"></path><path d="M1575.25 501.89L1562.59 643.44" stroke="#132e65" stroke-width="1.5"></path><path d="M1575.25 501.89L1434.66 339.41" stroke="#132e65" stroke-width="1.5"></path><path d="M1575.25 501.89L1418.6 660.66" stroke="#132e65" stroke-width="1.5"></path><path d="M1562.59 643.44L1562.59 643.44" stroke="#132e65" stroke-width="1.5"></path><path d="M1562.59 643.44L1569.05 813.81" stroke="#132e65" stroke-width="1.5"></path><path d="M1569.05 813.81L1569.05 813.81" stroke="#132e65" stroke-width="1.5"></path><path d="M1569.05 813.81L1270.18 857.62" stroke="#132e65" stroke-width="1.5"></path><path d="M1569.05 813.81L1292.09 691.18" stroke="#132e65" stroke-width="1.5"></path><path d="M1569.05 813.81L1419.87 542.84" stroke="#132e65" stroke-width="1.5"></path><path d="M1569.05 813.81L1575.25 501.89" stroke="#132e65" stroke-width="1.5"></path><circle r="5" cx="-108.49" cy="553.69" fill="#132e65"></circle><circle r="5" cx="-80.11" cy="675.53" fill="#132e65"></circle><circle r="5" cx="107.51" cy="392.1" fill="#132e65"></circle><circle r="5" cx="41.36" cy="529.02" fill="#132e65"></circle><circle r="5" cx="60.43" cy="642.6" fill="#132e65"></circle><circle r="5" cx="80" cy="804.18" fill="#132e65"></circle><circle r="5" cx="201.44" cy="501.07" fill="#132e65"></circle><circle r="5" cx="190.95" cy="706.36" fill="#132e65"></circle><circle r="5" cx="192.2" cy="796.98" fill="#132e65"></circle><circle r="5" cx="351.94" cy="363.43" fill="#132e65"></circle><circle r="5" cx="348.59" cy="537.55" fill="#132e65"></circle><circle r="5" cx="400.41" cy="840.85" fill="#132e65"></circle><circle r="5" cx="509.12" cy="548.24" fill="#132e65"></circle><circle r="5" cx="505.51" cy="637.98" fill="#132e65"></circle><circle r="5" cx="514.54" cy="798.11" fill="#132e65"></circle><circle r="5" cx="703.78" cy="353.97" fill="#132e65"></circle><circle r="5" cx="639.66" cy="561.69" fill="#132e65"></circle><circle r="5" cx="691.1" cy="787.9" fill="#132e65"></circle><circle r="5" cx="838.67" cy="240.35" fill="#132e65"></circle><circle r="5" cx="792.14" cy="408.85" fill="#132e65"></circle><circle r="5" cx="841.63" cy="555.18" fill="#132e65"></circle><circle r="5" cx="797.87" cy="637.9" fill="#132e65"></circle><circle r="5" cx="840.53" cy="792.99" fill="#132e65"></circle><circle r="5" cx="961.48" cy="-75.3" fill="#132e65"></circle><circle r="5" cx="946.28" cy="61.94" fill="#132e65"></circle><circle r="5" cx="964.2" cy="235.37" fill="#132e65"></circle><circle r="5" cx="943.39" cy="383.9" fill="#132e65"></circle><circle r="5" cx="944.49" cy="499.63" fill="#132e65"></circle><circle r="5" cx="1000.81" cy="698.15" fill="#132e65"></circle><circle r="5" cx="959.63" cy="845.81" fill="#132e65"></circle><circle r="5" cx="1095.91" cy="-70.66" fill="#132e65"></circle><circle r="5" cx="1128.59" cy="98.24" fill="#132e65"></circle><circle r="5" cx="1128.41" cy="218.09" fill="#132e65"></circle><circle r="5" cx="1154.71" cy="351.49" fill="#132e65"></circle><circle r="5" cx="1139.31" cy="496.33" fill="#132e65"></circle><circle r="5" cx="1097.09" cy="679.57" fill="#132e65"></circle><circle r="5" cx="1278.34" cy="-74.22" fill="#132e65"></circle><circle r="5" cx="1265.12" cy="103.92" fill="#132e65"></circle><circle r="5" cx="1275.28" cy="214.87" fill="#132e65"></circle><circle r="5" cx="1273.84" cy="412.42" fill="#132e65"></circle><circle r="5" cx="1239.6" cy="499.78" fill="#132e65"></circle><circle r="5" cx="1292.09" cy="691.18" fill="#132e65"></circle><circle r="5" cx="1270.18" cy="857.62" fill="#132e65"></circle><circle r="5" cx="1446.36" cy="-101.58" fill="#132e65"></circle><circle r="5" cx="1405.04" cy="74.6" fill="#132e65"></circle><circle r="5" cx="1406.08" cy="244.52" fill="#132e65"></circle><circle r="5" cx="1434.66" cy="339.41" fill="#132e65"></circle><circle r="5" cx="1419.87" cy="542.84" fill="#132e65"></circle><circle r="5" cx="1418.6" cy="660.66" fill="#132e65"></circle><circle r="5" cx="1550.57" cy="-84.7" fill="#132e65"></circle><circle r="5" cx="1591.08" cy="95.38" fill="#132e65"></circle><circle r="5" cx="1607.62" cy="251.93" fill="#132e65"></circle><circle r="5" cx="1544.53" cy="357.45" fill="#132e65"></circle><circle r="5" cx="1575.25" cy="501.89" fill="#132e65"></circle><circle r="5" cx="1562.59" cy="643.44" fill="#132e65"></circle><circle r="5" cx="1569.05" cy="813.81" fill="#132e65"></circle><path d="M-104.8 801.22L-104.8 801.22" stroke="hsl(228.5, 77.2%, 51.5%)" stroke-width="1.5"></path><path d="M-104.8 801.22L-82.97 709.06" stroke="hsl(228.5, 77.2%, 51.5%)" stroke-width="1.5"></path><path d="M-104.8 801.22L61.97 854.12" stroke="hsl(228.5, 77.2%, 51.5%)" stroke-width="1.5"></path><path d="M-104.8 801.22L42.74 524.59" stroke="hsl(228.5, 77.2%, 51.5%)" stroke-width="1.5"></path><path d="M-104.8 801.22L195.33 647.26" stroke="hsl(228.5, 77.2%, 51.5%)" stroke-width="1.5"></path><path d="M-104.8 801.22L238.81 843.04" stroke="hsl(228.5, 77.2%, 51.5%)" stroke-width="1.5"></path><path d="M-104.8 801.22L346.3 712.18" stroke="hsl(228.5, 77.2%, 51.5%)" stroke-width="1.5"></path><path d="M61.97 854.12L61.97 854.12" stroke="hsl(228.5, 77.2%, 51.5%)" stroke-width="1.5"></path><path d="M61.97 854.12L238.81 843.04" stroke="hsl(228.5, 77.2%, 51.5%)" stroke-width="1.5"></path><path d="M61.97 854.12L-82.97 709.06" stroke="hsl(228.5, 77.2%, 51.5%)" stroke-width="1.5"></path><path d="M61.97 854.12L195.33 647.26" stroke="hsl(228.5, 77.2%, 51.5%)" stroke-width="1.5"></path><path d="M1004.34 500.49L1004.34 500.49" stroke="hsl(228.5, 77.2%, 51.5%)" stroke-width="1.5"></path><path d="M1004.34 500.49L960.06 371.56" stroke="hsl(228.5, 77.2%, 51.5%)" stroke-width="1.5"></path><path d="M1004.34 500.49L984.68 658.09" stroke="hsl(228.5, 77.2%, 51.5%)" stroke-width="1.5"></path><path d="M1004.34 500.49L1157.99 410.82" stroke="hsl(228.5, 77.2%, 51.5%)" stroke-width="1.5"></path><path d="M1004.34 500.49L816.95 514.2" stroke="hsl(228.5, 77.2%, 51.5%)" stroke-width="1.5"></path><path d="M1004.34 500.49L1130.18 687.7" stroke="hsl(228.5, 77.2%, 51.5%)" stroke-width="1.5"></path><path d="M1004.34 500.49L805.91 663.31" stroke="hsl(228.5, 77.2%, 51.5%)" stroke-width="1.5"></path><path d="M984.68 658.09L984.68 658.09" stroke="hsl(228.5, 77.2%, 51.5%)" stroke-width="1.5"></path><path d="M984.68 658.09L1130.18 687.7" stroke="hsl(228.5, 77.2%, 51.5%)" stroke-width="1.5"></path><path d="M1162.5 229.62L1162.5 229.62" stroke="hsl(228.5, 77.2%, 51.5%)" stroke-width="1.5"></path><path d="M1162.5 229.62L1293.58 215.01" stroke="hsl(228.5, 77.2%, 51.5%)" stroke-width="1.5"></path><path d="M1162.5 229.62L1157.99 410.82" stroke="hsl(228.5, 77.2%, 51.5%)" stroke-width="1.5"></path><path d="M1162.5 229.62L1271.96 37.78" stroke="hsl(228.5, 77.2%, 51.5%)" stroke-width="1.5"></path><path d="M1157.99 410.82L1157.99 410.82" stroke="hsl(228.5, 77.2%, 51.5%)" stroke-width="1.5"></path><path d="M1157.99 410.82L1289.66 553.77" stroke="hsl(228.5, 77.2%, 51.5%)" stroke-width="1.5"></path><path d="M1418.34 50.93L1418.34 50.93" stroke="hsl(228.5, 77.2%, 51.5%)" stroke-width="1.5"></path><path d="M1418.34 50.93L1388.16 -90.02" stroke="hsl(228.5, 77.2%, 51.5%)" stroke-width="1.5"></path><path d="M1418.34 50.93L1271.96 37.78" stroke="hsl(228.5, 77.2%, 51.5%)" stroke-width="1.5"></path><path d="M1537.89 647.8L1537.89 647.8" stroke="hsl(228.5, 77.2%, 51.5%)" stroke-width="1.5"></path><path d="M1537.89 647.8L1410.81 691.74" stroke="hsl(228.5, 77.2%, 51.5%)" stroke-width="1.5"></path><path d="M1537.89 647.8L1588.52 518.27" stroke="hsl(228.5, 77.2%, 51.5%)" stroke-width="1.5"></path><path d="M1537.89 647.8L1400.18 562.13" stroke="hsl(228.5, 77.2%, 51.5%)" stroke-width="1.5"></path><path d="M1537.89 647.8L1552.46 831.95" stroke="hsl(228.5, 77.2%, 51.5%)" stroke-width="1.5"></path><path d="M1537.89 647.8L1434.83 843.89" stroke="hsl(228.5, 77.2%, 51.5%)" stroke-width="1.5"></path><path d="M1537.89 647.8L1559 404.33" stroke="hsl(228.5, 77.2%, 51.5%)" stroke-width="1.5"></path><path d="M-82.97 709.06L-82.97 709.06" stroke="hsl(228.5, 77.2%, 51.5%)" stroke-width="1.5"></path><path d="M-82.97 709.06L42.74 524.59" stroke="hsl(228.5, 77.2%, 51.5%)" stroke-width="1.5"></path><path d="M-82.97 709.06L195.33 647.26" stroke="hsl(228.5, 77.2%, 51.5%)" stroke-width="1.5"></path><path d="M-82.97 709.06L238.81 843.04" stroke="hsl(228.5, 77.2%, 51.5%)" stroke-width="1.5"></path><path d="M42.74 524.59L42.74 524.59" stroke="hsl(228.5, 77.2%, 51.5%)" stroke-width="1.5"></path><path d="M42.74 524.59L195.33 647.26" stroke="hsl(228.5, 77.2%, 51.5%)" stroke-width="1.5"></path><path d="M42.74 524.59L61.97 854.12" stroke="hsl(228.5, 77.2%, 51.5%)" stroke-width="1.5"></path><path d="M42.74 524.59L381.55 543.5" stroke="hsl(228.5, 77.2%, 51.5%)" stroke-width="1.5"></path><path d="M42.74 524.59L346.3 712.18" stroke="hsl(228.5, 77.2%, 51.5%)" stroke-width="1.5"></path><path d="M195.33 647.26L195.33 647.26" stroke="hsl(228.5, 77.2%, 51.5%)" stroke-width="1.5"></path><path d="M195.33 647.26L346.3 712.18" stroke="hsl(228.5, 77.2%, 51.5%)" stroke-width="1.5"></path><path d="M195.33 647.26L238.81 843.04" stroke="hsl(228.5, 77.2%, 51.5%)" stroke-width="1.5"></path><path d="M195.33 647.26L381.55 543.5" stroke="hsl(228.5, 77.2%, 51.5%)" stroke-width="1.5"></path><path d="M195.33 647.26L371.91 842.96" stroke="hsl(228.5, 77.2%, 51.5%)" stroke-width="1.5"></path><path d="M238.81 843.04L238.81 843.04" stroke="hsl(228.5, 77.2%, 51.5%)" stroke-width="1.5"></path><path d="M238.81 843.04L371.91 842.96" stroke="hsl(228.5, 77.2%, 51.5%)" stroke-width="1.5"></path><path d="M238.81 843.04L346.3 712.18" stroke="hsl(228.5, 77.2%, 51.5%)" stroke-width="1.5"></path><path d="M381.55 543.5L381.55 543.5" stroke="hsl(228.5, 77.2%, 51.5%)" stroke-width="1.5"></path><path d="M381.55 543.5L527.05 545.45" stroke="hsl(228.5, 77.2%, 51.5%)" stroke-width="1.5"></path><path d="M381.55 543.5L346.3 712.18" stroke="hsl(228.5, 77.2%, 51.5%)" stroke-width="1.5"></path><path d="M381.55 543.5L538.48 658.15" stroke="hsl(228.5, 77.2%, 51.5%)" stroke-width="1.5"></path><path d="M381.55 543.5L509.01 796.94" stroke="hsl(228.5, 77.2%, 51.5%)" stroke-width="1.5"></path><path d="M346.3 712.18L346.3 712.18" stroke="hsl(228.5, 77.2%, 51.5%)" stroke-width="1.5"></path><path d="M346.3 712.18L371.91 842.96" stroke="hsl(228.5, 77.2%, 51.5%)" stroke-width="1.5"></path><path d="M346.3 712.18L509.01 796.94" stroke="hsl(228.5, 77.2%, 51.5%)" stroke-width="1.5"></path><path d="M346.3 712.18L538.48 658.15" stroke="hsl(228.5, 77.2%, 51.5%)" stroke-width="1.5"></path><path d="M371.91 842.96L371.91 842.96" stroke="hsl(228.5, 77.2%, 51.5%)" stroke-width="1.5"></path><path d="M371.91 842.96L509.01 796.94" stroke="hsl(228.5, 77.2%, 51.5%)" stroke-width="1.5"></path><path d="M371.91 842.96L538.48 658.15" stroke="hsl(228.5, 77.2%, 51.5%)" stroke-width="1.5"></path><path d="M527.05 545.45L527.05 545.45" stroke="hsl(228.5, 77.2%, 51.5%)" stroke-width="1.5"></path><path d="M527.05 545.45L538.48 658.15" stroke="hsl(228.5, 77.2%, 51.5%)" stroke-width="1.5"></path><path d="M538.48 658.15L538.48 658.15" stroke="hsl(228.5, 77.2%, 51.5%)" stroke-width="1.5"></path><path d="M538.48 658.15L638.63 697.63" stroke="hsl(228.5, 77.2%, 51.5%)" stroke-width="1.5"></path><path d="M538.48 658.15L509.01 796.94" stroke="hsl(228.5, 77.2%, 51.5%)" stroke-width="1.5"></path><path d="M538.48 658.15L685.98 537.32" stroke="hsl(228.5, 77.2%, 51.5%)" stroke-width="1.5"></path><path d="M509.01 796.94L509.01 796.94" stroke="hsl(228.5, 77.2%, 51.5%)" stroke-width="1.5"></path><path d="M685.98 537.32L685.98 537.32" stroke="hsl(228.5, 77.2%, 51.5%)" stroke-width="1.5"></path><path d="M685.98 537.32L816.95 514.2" stroke="hsl(228.5, 77.2%, 51.5%)" stroke-width="1.5"></path><path d="M685.98 537.32L527.05 545.45" stroke="hsl(228.5, 77.2%, 51.5%)" stroke-width="1.5"></path><path d="M685.98 537.32L638.63 697.63" stroke="hsl(228.5, 77.2%, 51.5%)" stroke-width="1.5"></path><path d="M685.98 537.32L805.91 663.31" stroke="hsl(228.5, 77.2%, 51.5%)" stroke-width="1.5"></path><path d="M685.98 537.32L675.74 794.07" stroke="hsl(228.5, 77.2%, 51.5%)" stroke-width="1.5"></path><path d="M638.63 697.63L638.63 697.63" stroke="hsl(228.5, 77.2%, 51.5%)" stroke-width="1.5"></path><path d="M638.63 697.63L675.74 794.07" stroke="hsl(228.5, 77.2%, 51.5%)" stroke-width="1.5"></path><path d="M675.74 794.07L675.74 794.07" stroke="hsl(228.5, 77.2%, 51.5%)" stroke-width="1.5"></path><path d="M675.74 794.07L509.01 796.94" stroke="hsl(228.5, 77.2%, 51.5%)" stroke-width="1.5"></path><path d="M675.74 794.07L805.91 663.31" stroke="hsl(228.5, 77.2%, 51.5%)" stroke-width="1.5"></path><path d="M816.95 514.2L816.95 514.2" stroke="hsl(228.5, 77.2%, 51.5%)" stroke-width="1.5"></path><path d="M816.95 514.2L805.91 663.31" stroke="hsl(228.5, 77.2%, 51.5%)" stroke-width="1.5"></path><path d="M816.95 514.2L960.06 371.56" stroke="hsl(228.5, 77.2%, 51.5%)" stroke-width="1.5"></path><path d="M805.91 663.31L805.91 663.31" stroke="hsl(228.5, 77.2%, 51.5%)" stroke-width="1.5"></path><path d="M805.91 663.31L638.63 697.63" stroke="hsl(228.5, 77.2%, 51.5%)" stroke-width="1.5"></path><path d="M805.91 663.31L984.68 658.09" stroke="hsl(228.5, 77.2%, 51.5%)" stroke-width="1.5"></path><path d="M805.91 663.31L940.02 813.13" stroke="hsl(228.5, 77.2%, 51.5%)" stroke-width="1.5"></path><path d="M960.06 371.56L960.06 371.56" stroke="hsl(228.5, 77.2%, 51.5%)" stroke-width="1.5"></path><path d="M960.06 371.56L1157.99 410.82" stroke="hsl(228.5, 77.2%, 51.5%)" stroke-width="1.5"></path><path d="M960.06 371.56L1162.5 229.62" stroke="hsl(228.5, 77.2%, 51.5%)" stroke-width="1.5"></path><path d="M960.06 371.56L984.68 658.09" stroke="hsl(228.5, 77.2%, 51.5%)" stroke-width="1.5"></path><path d="M960.06 371.56L685.98 537.32" stroke="hsl(228.5, 77.2%, 51.5%)" stroke-width="1.5"></path><path d="M940.02 813.13L940.02 813.13" stroke="hsl(228.5, 77.2%, 51.5%)" stroke-width="1.5"></path><path d="M940.02 813.13L984.68 658.09" stroke="hsl(228.5, 77.2%, 51.5%)" stroke-width="1.5"></path><path d="M940.02 813.13L1154.33 793.49" stroke="hsl(228.5, 77.2%, 51.5%)" stroke-width="1.5"></path><path d="M940.02 813.13L1130.18 687.7" stroke="hsl(228.5, 77.2%, 51.5%)" stroke-width="1.5"></path><path d="M940.02 813.13L675.74 794.07" stroke="hsl(228.5, 77.2%, 51.5%)" stroke-width="1.5"></path><path d="M940.02 813.13L1254.12 835.18" stroke="hsl(228.5, 77.2%, 51.5%)" stroke-width="1.5"></path><path d="M1130.18 687.7L1130.18 687.7" stroke="hsl(228.5, 77.2%, 51.5%)" stroke-width="1.5"></path><path d="M1130.18 687.7L1154.33 793.49" stroke="hsl(228.5, 77.2%, 51.5%)" stroke-width="1.5"></path><path d="M1130.18 687.7L1271.26 674.59" stroke="hsl(228.5, 77.2%, 51.5%)" stroke-width="1.5"></path><path d="M1154.33 793.49L1154.33 793.49" stroke="hsl(228.5, 77.2%, 51.5%)" stroke-width="1.5"></path><path d="M1154.33 793.49L1254.12 835.18" stroke="hsl(228.5, 77.2%, 51.5%)" stroke-width="1.5"></path><path d="M1154.33 793.49L1271.26 674.59" stroke="hsl(228.5, 77.2%, 51.5%)" stroke-width="1.5"></path><path d="M1154.33 793.49L984.68 658.09" stroke="hsl(228.5, 77.2%, 51.5%)" stroke-width="1.5"></path><path d="M1271.96 37.78L1271.96 37.78" stroke="hsl(228.5, 77.2%, 51.5%)" stroke-width="1.5"></path><path d="M1271.96 37.78L1388.16 -90.02" stroke="hsl(228.5, 77.2%, 51.5%)" stroke-width="1.5"></path><path d="M1271.96 37.78L1293.58 215.01" stroke="hsl(228.5, 77.2%, 51.5%)" stroke-width="1.5"></path><path d="M1293.58 215.01L1293.58 215.01" stroke="hsl(228.5, 77.2%, 51.5%)" stroke-width="1.5"></path><path d="M1293.58 215.01L1418.34 50.93" stroke="hsl(228.5, 77.2%, 51.5%)" stroke-width="1.5"></path><path d="M1289.66 553.77L1289.66 553.77" stroke="hsl(228.5, 77.2%, 51.5%)" stroke-width="1.5"></path><path d="M1289.66 553.77L1400.18 562.13" stroke="hsl(228.5, 77.2%, 51.5%)" stroke-width="1.5"></path><path d="M1289.66 553.77L1271.26 674.59" stroke="hsl(228.5, 77.2%, 51.5%)" stroke-width="1.5"></path><path d="M1289.66 553.77L1389.33 403.21" stroke="hsl(228.5, 77.2%, 51.5%)" stroke-width="1.5"></path><path d="M1289.66 553.77L1410.81 691.74" stroke="hsl(228.5, 77.2%, 51.5%)" stroke-width="1.5"></path><path d="M1289.66 553.77L1130.18 687.7" stroke="hsl(228.5, 77.2%, 51.5%)" stroke-width="1.5"></path><path d="M1271.26 674.59L1271.26 674.59" stroke="hsl(228.5, 77.2%, 51.5%)" stroke-width="1.5"></path><path d="M1271.26 674.59L1410.81 691.74" stroke="hsl(228.5, 77.2%, 51.5%)" stroke-width="1.5"></path><path d="M1271.26 674.59L1254.12 835.18" stroke="hsl(228.5, 77.2%, 51.5%)" stroke-width="1.5"></path><path d="M1254.12 835.18L1254.12 835.18" stroke="hsl(228.5, 77.2%, 51.5%)" stroke-width="1.5"></path><path d="M1388.16 -90.02L1388.16 -90.02" stroke="hsl(228.5, 77.2%, 51.5%)" stroke-width="1.5"></path><path d="M1388.16 -90.02L1588.51 -69.84" stroke="hsl(228.5, 77.2%, 51.5%)" stroke-width="1.5"></path><path d="M1388.16 -90.02L1592.08 65.75" stroke="hsl(228.5, 77.2%, 51.5%)" stroke-width="1.5"></path><path d="M1389.33 403.21L1389.33 403.21" stroke="hsl(228.5, 77.2%, 51.5%)" stroke-width="1.5"></path><path d="M1389.33 403.21L1400.18 562.13" stroke="hsl(228.5, 77.2%, 51.5%)" stroke-width="1.5"></path><path d="M1389.33 403.21L1559 404.33" stroke="hsl(228.5, 77.2%, 51.5%)" stroke-width="1.5"></path><path d="M1400.18 562.13L1400.18 562.13" stroke="hsl(228.5, 77.2%, 51.5%)" stroke-width="1.5"></path><path d="M1400.18 562.13L1410.81 691.74" stroke="hsl(228.5, 77.2%, 51.5%)" stroke-width="1.5"></path><path d="M1410.81 691.74L1410.81 691.74" stroke="hsl(228.5, 77.2%, 51.5%)" stroke-width="1.5"></path><path d="M1410.81 691.74L1434.83 843.89" stroke="hsl(228.5, 77.2%, 51.5%)" stroke-width="1.5"></path><path d="M1434.83 843.89L1434.83 843.89" stroke="hsl(228.5, 77.2%, 51.5%)" stroke-width="1.5"></path><path d="M1434.83 843.89L1552.46 831.95" stroke="hsl(228.5, 77.2%, 51.5%)" stroke-width="1.5"></path><path d="M1434.83 843.89L1254.12 835.18" stroke="hsl(228.5, 77.2%, 51.5%)" stroke-width="1.5"></path><path d="M1588.51 -69.84L1588.51 -69.84" stroke="hsl(228.5, 77.2%, 51.5%)" stroke-width="1.5"></path><path d="M1588.51 -69.84L1592.08 65.75" stroke="hsl(228.5, 77.2%, 51.5%)" stroke-width="1.5"></path><path d="M1588.51 -69.84L1418.34 50.93" stroke="hsl(228.5, 77.2%, 51.5%)" stroke-width="1.5"></path><path d="M1592.08 65.75L1592.08 65.75" stroke="hsl(228.5, 77.2%, 51.5%)" stroke-width="1.5"></path><path d="M1592.08 65.75L1544.38 228.85" stroke="hsl(228.5, 77.2%, 51.5%)" stroke-width="1.5"></path><path d="M1592.08 65.75L1418.34 50.93" stroke="hsl(228.5, 77.2%, 51.5%)" stroke-width="1.5"></path><path d="M1592.08 65.75L1271.96 37.78" stroke="hsl(228.5, 77.2%, 51.5%)" stroke-width="1.5"></path><path d="M1592.08 65.75L1293.58 215.01" stroke="hsl(228.5, 77.2%, 51.5%)" stroke-width="1.5"></path><path d="M1544.38 228.85L1544.38 228.85" stroke="hsl(228.5, 77.2%, 51.5%)" stroke-width="1.5"></path><path d="M1559 404.33L1559 404.33" stroke="hsl(228.5, 77.2%, 51.5%)" stroke-width="1.5"></path><path d="M1559 404.33L1588.52 518.27" stroke="hsl(228.5, 77.2%, 51.5%)" stroke-width="1.5"></path><path d="M1559 404.33L1544.38 228.85" stroke="hsl(228.5, 77.2%, 51.5%)" stroke-width="1.5"></path><path d="M1559 404.33L1400.18 562.13" stroke="hsl(228.5, 77.2%, 51.5%)" stroke-width="1.5"></path><path d="M1588.52 518.27L1588.52 518.27" stroke="hsl(228.5, 77.2%, 51.5%)" stroke-width="1.5"></path><path d="M1588.52 518.27L1400.18 562.13" stroke="hsl(228.5, 77.2%, 51.5%)" stroke-width="1.5"></path><path d="M1588.52 518.27L1389.33 403.21" stroke="hsl(228.5, 77.2%, 51.5%)" stroke-width="1.5"></path><path d="M1552.46 831.95L1552.46 831.95" stroke="hsl(228.5, 77.2%, 51.5%)" stroke-width="1.5"></path><path d="M1552.46 831.95L1410.81 691.74" stroke="hsl(228.5, 77.2%, 51.5%)" stroke-width="1.5"></path><path d="M1552.46 831.95L1254.12 835.18" stroke="hsl(228.5, 77.2%, 51.5%)" stroke-width="1.5"></path><path d="M1552.46 831.95L1400.18 562.13" stroke="hsl(228.5, 77.2%, 51.5%)" stroke-width="1.5"></path><path d="M1552.46 831.95L1588.52 518.27" stroke="hsl(228.5, 77.2%, 51.5%)" stroke-width="1.5"></path><circle r="25" cx="-104.8" cy="801.22" fill="url(#SvgjsRadialGradient1682)"></circle><circle r="25" cx="61.97" cy="854.12" fill="url(#SvgjsRadialGradient1682)"></circle><circle r="25" cx="1004.34" cy="500.49" fill="url(#SvgjsRadialGradient1682)"></circle><circle r="25" cx="984.68" cy="658.09" fill="url(#SvgjsRadialGradient1682)"></circle><circle r="25" cx="1162.5" cy="229.62" fill="url(#SvgjsRadialGradient1682)"></circle><circle r="25" cx="1157.99" cy="410.82" fill="url(#SvgjsRadialGradient1682)"></circle><circle r="25" cx="1418.34" cy="50.93" fill="url(#SvgjsRadialGradient1682)"></circle><circle r="25" cx="1537.89" cy="647.8" fill="url(#SvgjsRadialGradient1682)"></circle><circle r="5" cx="-82.97" cy="709.06" fill="#8b9ad9"></circle><circle r="5" cx="42.74" cy="524.59" fill="#8b9ad9"></circle><circle r="5" cx="195.33" cy="647.26" fill="#8b9ad9"></circle><circle r="5" cx="238.81" cy="843.04" fill="#8b9ad9"></circle><circle r="5" cx="381.55" cy="543.5" fill="#8b9ad9"></circle><circle r="5" cx="346.3" cy="712.18" fill="#8b9ad9"></circle><circle r="5" cx="371.91" cy="842.96" fill="#8b9ad9"></circle><circle r="5" cx="527.05" cy="545.45" fill="#8b9ad9"></circle><circle r="5" cx="538.48" cy="658.15" fill="#8b9ad9"></circle><circle r="5" cx="509.01" cy="796.94" fill="#8b9ad9"></circle><circle r="5" cx="685.98" cy="537.32" fill="#8b9ad9"></circle><circle r="5" cx="638.63" cy="697.63" fill="#8b9ad9"></circle><circle r="5" cx="675.74" cy="794.07" fill="#8b9ad9"></circle><circle r="5" cx="816.95" cy="514.2" fill="#8b9ad9"></circle><circle r="5" cx="805.91" cy="663.31" fill="#8b9ad9"></circle><circle r="5" cx="960.06" cy="371.56" fill="#8b9ad9"></circle><circle r="5" cx="940.02" cy="813.13" fill="#8b9ad9"></circle><circle r="5" cx="1130.18" cy="687.7" fill="#8b9ad9"></circle><circle r="5" cx="1154.33" cy="793.49" fill="#8b9ad9"></circle><circle r="5" cx="1271.96" cy="37.78" fill="#8b9ad9"></circle><circle r="5" cx="1293.58" cy="215.01" fill="#8b9ad9"></circle><circle r="5" cx="1289.66" cy="553.77" fill="#8b9ad9"></circle><circle r="5" cx="1271.26" cy="674.59" fill="#8b9ad9"></circle><circle r="5" cx="1254.12" cy="835.18" fill="#8b9ad9"></circle><circle r="5" cx="1388.16" cy="-90.02" fill="#8b9ad9"></circle><circle r="5" cx="1389.33" cy="403.21" fill="#8b9ad9"></circle><circle r="5" cx="1400.18" cy="562.13" fill="#8b9ad9"></circle><circle r="5" cx="1410.81" cy="691.74" fill="#8b9ad9"></circle><circle r="5" cx="1434.83" cy="843.89" fill="#8b9ad9"></circle><circle r="5" cx="1588.51" cy="-69.84" fill="#8b9ad9"></circle><circle r="5" cx="1592.08" cy="65.75" fill="#8b9ad9"></circle><circle r="5" cx="1544.38" cy="228.85" fill="#8b9ad9"></circle><circle r="5" cx="1559" cy="404.33" fill="#8b9ad9"></circle><circle r="5" cx="1588.52" cy="518.27" fill="#8b9ad9"></circle><circle r="5" cx="1552.46" cy="831.95" fill="#8b9ad9"></circle></g><defs><mask id="SvgjsMask1681"><rect width="1440" height="655" fill="#ffffff"></rect></mask><radialGradient id="SvgjsRadialGradient1682"><stop stop-color="#ffffff" offset="0.1"></stop><stop stop-color="#1735b3" offset="0.2"></stop><stop stop-color="rgba(23, 53, 179, 0)" offset="1"></stop></radialGradient></defs></svg>