<svg id="visual" viewBox="0 0 900 600" width="900" height="600" xmlns="http://www.w3.org/2000/svg" xmlns:xlink="http://www.w3.org/1999/xlink" version="1.1"><rect width="900" height="600" fill="#000000"></rect><g><g transform="translate(602 76)"><path d="M0 -88.8L76.9 -44.4L76.9 44.4L0 88.8L-76.9 44.4L-76.9 -44.4Z" fill="none" stroke="#1849f2" stroke-width="2"></path></g><g transform="translate(121 330)"><path d="M0 -63L54.6 -31.5L54.6 31.5L0 63L-54.6 31.5L-54.6 -31.5Z" fill="none" stroke="#1849f2" stroke-width="2"></path></g><g transform="translate(727 596)"><path d="M0 -53L45.9 -26.5L45.9 26.5L0 53L-45.9 26.5L-45.9 -26.5Z" fill="none" stroke="#1849f2" stroke-width="2"></path></g><g transform="translate(430 312)"><path d="M0 -56L48.5 -28L48.5 28L0 56L-48.5 28L-48.5 -28Z" stroke="#1849f2" fill="none" stroke-width="2"></path></g><g transform="translate(859 155)"><path d="M0 -60L52 -30L52 30L0 60L-52 30L-52 -30Z" stroke="#1849f2" fill="none" stroke-width="2"></path></g><g transform="translate(245 101)"><path d="M0 -82L71 -41L71 41L0 82L-71 41L-71 -41Z" stroke="#1849f2" fill="none" stroke-width="2"></path></g><g transform="translate(86 560)"><path d="M0 -57L49.4 -28.5L49.4 28.5L0 57L-49.4 28.5L-49.4 -28.5Z" stroke="#1849f2" fill="none" stroke-width="2"></path></g><g transform="translate(725 361)"><path d="M0 -55L47.6 -27.5L47.6 27.5L0 55L-47.6 27.5L-47.6 -27.5Z" stroke="#1849f2" fill="none" stroke-width="2"></path></g><g transform="translate(537 579)"><path d="M0 -59L51.1 -29.5L51.1 29.5L0 59L-51.1 29.5L-51.1 -29.5Z" stroke="#1849f2" fill="none" stroke-width="2"></path></g><g transform="translate(300 505)"><path d="M0 -62L53.7 -31L53.7 31L0 62L-53.7 31L-53.7 -31Z" stroke="#1849f2" fill="none" stroke-width="2"></path></g><g transform="translate(6 65)"><path d="M0 -83L71.9 -41.5L71.9 41.5L0 83L-71.9 41.5L-71.9 -41.5Z" stroke="#1849f2" fill="none" stroke-width="2"></path></g><g transform="translate(423 13)"><path d="M0 -54L46.8 -27L46.8 27L0 54L-46.8 27L-46.8 -27Z" stroke="#1849f2" fill="none" stroke-width="2"></path></g><g transform="translate(882 507)"><path d="M0 -49L42.4 -24.5L42.4 24.5L0 49L-42.4 24.5L-42.4 -24.5Z" stroke="#1849f2" fill="none" stroke-width="2"></path></g></g></svg>