<?xml version="1.0" encoding="UTF-8" standalone="no"?>
<svg
   data-name="Layer 1"
   width="610.10242"
   height="318.63879"
   viewBox="0 0 610.10243 318.6388"
   version="1.1"
   id="svg2983"
   sodipodi:docname="Request-Proposal-JWS-Aruba.svg"
   inkscape:version="1.1.1 (3bf5ae0d25, 2021-09-20)"
   xmlns:inkscape="http://www.inkscape.org/namespaces/inkscape"
   xmlns:sodipodi="http://sodipodi.sourceforge.net/DTD/sodipodi-0.dtd"
   xmlns="http://www.w3.org/2000/svg"
   xmlns:svg="http://www.w3.org/2000/svg">
  <defs
     id="defs2987" />
  <sodipodi:namedview
     id="namedview2985"
     pagecolor="#ffffff"
     bordercolor="#666666"
     borderopacity="1.0"
     inkscape:pageshadow="2"
     inkscape:pageopacity="0.0"
     inkscape:pagecheckerboard="0"
     showgrid="false"
     inkscape:zoom="0.9451929"
     inkscape:cx="489.31811"
     inkscape:cy="126.42922"
     inkscape:window-width="1920"
     inkscape:window-height="1001"
     inkscape:window-x="-9"
     inkscape:window-y="-9"
     inkscape:window-maximized="1"
     inkscape:current-layer="svg2983" />
  <path
     d="m 524.28808,120.60842 h -0.12466 l -71.4901,30.52657 -97.81319,41.767 a 3.15484,3.15484 0 0 1 -2.41645,0.0125 l -100.91441,-41.86665 -73.2464,-30.38956 -0.1119,-0.0498 h -0.12467 a 4.364,4.364 0 0 0 -4.35916,4.35916 V 314.2797 a 4.364,4.364 0 0 0 4.35916,4.35916 h 346.24178 a 4.364,4.364 0 0 0 4.35916,-4.35916 V 124.96758 a 4.364,4.364 0 0 0 -4.35916,-4.35916 z"
     fill="#ffffff"
     id="path2907" />
  <path
     d="m 524.59889,121.85391 a 0.62087,0.62087 0 0 1 -0.35546,-0.1116 L 352.01996,1.8009646 a 3.12331,3.12331 0 0 0 -3.56736,0.006 L 177.46974,121.74109 a 0.62286,0.62286 0 0 1 -0.71532,-1.01986 L 347.73742,0.78723462 a 4.373,4.373 0 0 1 4.99436,-0.008 L 524.95522,120.72023 a 0.62286,0.62286 0 0 1 -0.35638,1.13388 z"
     fill="#3f3d56"
     id="path2909" />
  <polygon
     points="763.237,142.174 607.241,234.65 522.549,215.346 435.67,133.57 598.834,12.645 "
     fill="#e6e6e6"
     id="polygon2911"
     transform="translate(-248.43006,-7.4641154)" />
  <path
     d="m 281.26831,284.30499 h -80.6073 a 3.7659241,3.7659241 0 0 1 -0.0111,-7.53184 h 80.61843 a 3.7659241,3.7659241 0 0 1 0.0111,7.53184 z"
     fill="#2ea5fd"
     id="path2913" />
  <path
     d="m 229.58108,268.11382 h -28.9201 a 3.76592,3.76592 0 0 1 -0.0111,-7.53183 h 28.9312 a 3.76592,3.76592 0 1 1 0.0111,7.53183 z"
     fill="#2ea5fd"
     id="path2915" />
  <path
     d="m 352.69908,193.45912 a 4.7102,4.7102 0 0 1 -1.78672,-0.35 L 250.2838,151.35534 V 20.659035 a 4.36425,4.36425 0 0 1 4.35915,-4.35916 h 193.04849 a 4.36426,4.36426 0 0 1 4.35916,4.35916 V 151.44656 l -0.18913,0.0809 -97.32152,41.56129 a 4.74288,4.74288 0 0 1 -1.84087,0.37038 z"
     fill="#ffffff"
     id="path2917" />
  <path
     d="m 352.69908,193.77018 a 5.0265,5.0265 0 0 1 -1.90531,-0.37279 L 249.97243,151.56331 V 20.659005 a 4.67581,4.67581 0 0 1 4.67052,-4.67052 h 193.04849 a 4.67582,4.67582 0 0 1 4.67053,4.67052 V 151.65212 l -97.69978,41.72279 a 5.05005,5.05005 0 0 1 -1.96311,0.39527 z m -101.48122,-43.03879 100.05086,41.51452 a 3.81,3.81 0 0 0 2.90695,-0.0173 l 96.94082,-41.3987 V 20.659005 a 3.42912,3.42912 0 0 0 -3.42505,-3.425 H 254.64295 a 3.42912,3.42912 0 0 0 -3.42505,3.425 z"
     fill="#3f3d56"
     id="path2919" />
  <path
     d="m 523.35387,120.60842 h -0.12466 l -71.49013,30.52657 -97.81319,41.767 a 3.15484,3.15484 0 0 1 -2.41645,0.0125 l -100.91436,-41.8667 -73.2464,-30.38956 -0.1119,-0.0498 h -0.1247 a 4.364,4.364 0 0 0 -4.35916,4.35916 v 189.31206 a 4.364,4.364 0 0 0 4.35916,4.35916 h 346.24179 a 4.364,4.364 0 0 0 4.35916,-4.35916 V 124.96758 a 4.364,4.364 0 0 0 -4.35916,-4.35916 z m 3.11369,193.67122 a 3.11492,3.11492 0 0 1 -3.11369,3.11369 H 177.11208 a 3.11494,3.11494 0 0 1 -3.11369,-3.11369 V 124.96758 a 3.12057,3.12057 0 0 1 2.99541,-3.11368 l 73.60128,30.53901 100.4352,41.67357 a 4.43441,4.43441 0 0 0 3.38765,-0.0187 l 97.32115,-41.56143 71.73946,-30.63244 a 3.12378,3.12378 0 0 1 2.989,3.11368 z"
     fill="#3f3d56"
     id="path2921" />
  <path
     d="m 337.03296,65.154575 h -68.50108 a 4.9819,4.9819 0 0 1 0,-9.96379 h 68.50108 a 4.9819,4.9819 0 0 1 0,9.96379 z"
     fill="#2ea5fd"
     id="path2923" />
  <path
     d="m 301.53695,43.981515 h -33.00507 a 4.981895,4.981895 0 0 1 0,-9.96379 h 33.00507 a 4.981895,4.981895 0 0 1 0,9.96379 z"
     fill="#2ea5fd"
     id="path2925" />
  <path
     d="M 402.40074,114.97353 H 297.78091 a 4.9819,4.9819 0 0 1 0,-9.96379 h 104.61983 a 4.9819,4.9819 0 0 1 0,9.96379 z"
     fill="#cccccc"
     id="path2927" />
  <path
     d="M 402.40074,138.01481 H 297.78091 a 4.9819,4.9819 0 0 1 0,-9.9638 h 104.61983 a 4.9819,4.9819 0 0 1 0,9.9638 z"
     fill="#cccccc"
     id="path2929" />
  <circle
     cx="529.79248"
     cy="139.21956"
     fill="#2ea5fd"
     id="circle2931"
     style="stroke-width:0.894454"
     r="42.371498" />
  <polygon
     points="796.382,117.107 765.339,149.875 751.161,131.644 759.406,125.231 766.119,133.863 788.798,109.922 "
     fill="#ffffff"
     id="polygon2933"
     transform="translate(-244.59906,9.4788846)" />
  <path
     d="m 90.631715,77.967894 a 1.99891,1.99891 0 0 0 -2.99778,1.99087 l 1.54384,11.323328 a 1.29955,1.29955 0 0 1 -0.0336,0.49905 1.22138,1.22138 0 0 1 -0.23734,0.43608 l -8.64673,10.243628 a 1.95391,1.95391 0 0 0 -0.12721,2.41351 l 0.009,0.0131 a 1.95123,1.95123 0 0 0 2.28266,0.752 l 6.24446,-2.1195 a 1.20226,1.20226 0 0 1 1.20761,0.27169 1.16219,1.16219 0 0 1 0.37242,0.85434 l 0.24409,22.24892 a 1.984,1.984 0 0 0 0.87415,1.62894 2.004,2.004 0 0 0 1.83248,0.2134 l 46.607105,-17.82452 a 1.99756,1.99756 0 0 0 0.30651,-3.58642 l -0.63455,-0.37689 -48.847215,-28.981576 z m -2.20874,1.88208 a 1.20067,1.20067 0 0 1 1.8019,-1.19268 l 48.831615,28.972936 0.65006,0.38537 a 1.20112,1.20112 0 0 1 -0.18261,2.151 l -46.607065,17.82454 a 1.19819,1.19819 0 0 1 -1.62406,-1.10553 l -0.244,-22.24873 a 1.91512,1.91512 0 0 0 -0.1118,-0.646 l 47.450315,5.45193 a 0.79968,0.79968 0 0 0 0.47957,-1.49692 0.69588,0.69588 0 0 0 -0.125,-0.0544 L 89.981085,91.615042 a 1.97024,1.97024 0 0 0 -0.0143,-0.44177 l -1.54385,-11.323288 z"
     fill="#f1f1f1"
     id="path2965" />
  <path
     d="m 90.631715,77.967894 a 1.99891,1.99891 0 0 0 -2.99778,1.99087 l 1.54384,11.323328 a 1.29955,1.29955 0 0 1 -0.0336,0.49905 1.22138,1.22138 0 0 1 -0.23734,0.43608 l -8.64673,10.243628 a 1.95391,1.95391 0 0 0 -0.12721,2.41351 l 0.009,0.0131 a 1.95123,1.95123 0 0 0 2.28266,0.752 l 6.24446,-2.1195 a 1.20226,1.20226 0 0 1 1.20761,0.27169 1.16219,1.16219 0 0 1 0.37242,0.85434 l 0.24409,22.24892 a 1.984,1.984 0 0 0 0.87415,1.62894 2.004,2.004 0 0 0 1.83248,0.2134 l 46.607105,-17.82452 a 1.99756,1.99756 0 0 0 0.30651,-3.58642 l -0.63455,-0.37689 -48.847215,-28.981576 z m -2.20874,1.88208 a 1.20067,1.20067 0 0 1 1.8019,-1.19268 l 48.831615,28.972936 0.65006,0.38537 a 1.20112,1.20112 0 0 1 -0.18261,2.151 l -46.607065,17.82453 a 1.19819,1.19819 0 0 1 -1.62405,-1.10553 l -0.24405,-22.24875 a 1.91516,1.91516 0 0 0 -0.1118,-0.646 1.94312,1.94312 0 0 0 -0.5119,-0.78227 c -0.0315,-0.0315 -0.0663,-0.0608 -0.10123,-0.0902 l -0.002,-0.003 a 1.99249,1.99249 0 0 0 -1.90795,-0.35062 l -6.24773,2.12177 a 1.16242,1.16242 0 0 1 -1.36924,-0.45629 l -0.005,-0.007 a 1.15986,1.15986 0 0 1 0.0771,-1.44692 l 8.64685,-10.243468 a 1.88917,1.88917 0 0 0 0.23875,-0.3498 l 0.003,-0.002 a 1.91585,1.91585 0 0 0 0.15205,-0.37685 1.857,1.857 0 0 0 0.0709,-0.389 1.97017,1.97017 0 0 0 -0.0143,-0.44176 l -1.54386,-11.323318 z"
     fill="#e5e5e5"
     id="path2967" />
  <path
     d="m 89.981065,91.615022 48.760755,16.276418 a 0.69687,0.69687 0 0 1 0.125,0.0544 0.79969,0.79969 0 0 1 -0.47957,1.49693 l -47.450325,-5.452 -0.83795,-0.0954 0.0928,-0.79248 0.1298,0.0122 0.002,0.003 48.154005,5.5288 -48.719655,-16.266188 -0.003,0.002 -0.21056,-0.0727 0.25288,-0.75767 z"
     fill="#e5e5e5"
     id="path2969" />
  <path
     d="m 590.26939,15.257623 -48.84721,28.98155 -0.63455,0.37689 a 1.99756,1.99756 0 0 0 0.30651,3.58642 l 46.6071,17.82452 a 2.004,2.004 0 0 0 1.83248,-0.2134 1.984,1.984 0 0 0 0.87415,-1.62894 l 0.24409,-22.24892 a 1.16219,1.16219 0 0 1 0.37242,-0.85434 1.20226,1.20226 0 0 1 1.20761,-0.27169 l 6.24446,2.1195 a 1.95123,1.95123 0 0 0 2.28266,-0.752 l 0.009,-0.0131 a 1.95391,1.95391 0 0 0 -0.12721,-2.41351 l -8.64673,-10.24363 a 1.22138,1.22138 0 0 1 -0.23734,-0.43608 1.29956,1.29956 0 0 1 -0.0336,-0.49905 l 1.54385,-11.32334 a 1.99891,1.99891 0 0 0 -2.99778,-1.99086 z m 2.20877,1.88208 -1.54385,11.3233 a 1.97024,1.97024 0 0 0 -0.0143,0.44177 l -48.76076,16.2764 a 0.69588,0.69588 0 0 0 -0.125,0.0544 0.79968,0.79968 0 0 0 0.47957,1.49692 l 47.45031,-5.45193 a 1.91512,1.91512 0 0 0 -0.1118,0.646 l -0.244,22.24873 a 1.19819,1.19819 0 0 1 -1.62406,1.10553 l -46.60706,-17.82454 a 1.20112,1.20112 0 0 1 -0.18261,-2.151 l 0.65006,-0.38537 48.83158,-28.97294 a 1.20067,1.20067 0 0 1 1.8019,1.19267 z"
     fill="#f1f1f1"
     id="path2971" />
  <path
     d="m 590.26939,15.257623 -48.84721,28.98155 -0.63455,0.37689 a 1.99756,1.99756 0 0 0 0.30651,3.58642 l 46.6071,17.82452 a 2.004,2.004 0 0 0 1.83248,-0.2134 1.984,1.984 0 0 0 0.87415,-1.62894 l 0.24409,-22.24892 a 1.16219,1.16219 0 0 1 0.37242,-0.85434 1.20226,1.20226 0 0 1 1.20761,-0.27169 l 6.24446,2.1195 a 1.95123,1.95123 0 0 0 2.28266,-0.752 l 0.009,-0.0131 a 1.95391,1.95391 0 0 0 -0.12721,-2.41351 l -8.64673,-10.24363 a 1.22138,1.22138 0 0 1 -0.23734,-0.43608 1.29956,1.29956 0 0 1 -0.0336,-0.49905 l 1.54385,-11.32334 a 1.99891,1.99891 0 0 0 -2.99778,-1.99086 z m 2.20877,1.88208 -1.54386,11.32333 a 1.97017,1.97017 0 0 0 -0.0143,0.44176 1.857,1.857 0 0 0 0.0709,0.389 1.91585,1.91585 0 0 0 0.15205,0.37685 l 0.003,0.002 a 1.88917,1.88917 0 0 0 0.23875,0.3498 l 8.64685,10.24347 a 1.15986,1.15986 0 0 1 0.0771,1.44692 l -0.005,0.007 a 1.16242,1.16242 0 0 1 -1.36924,0.45629 l -6.24773,-2.12177 a 1.99249,1.99249 0 0 0 -1.908,0.35062 l -0.002,0.003 c -0.0349,0.0294 -0.0697,0.0587 -0.10123,0.0903 a 1.94312,1.94312 0 0 0 -0.5119,0.78227 1.91516,1.91516 0 0 0 -0.1118,0.646 l -0.24405,22.24875 a 1.19819,1.19819 0 0 1 -1.624,1.10553 l -46.60706,-17.82448 a 1.20112,1.20112 0 0 1 -0.18261,-2.151 l 0.65006,-0.38537 48.83158,-28.97294 a 1.20067,1.20067 0 0 1 1.8019,1.19267 z"
     fill="#e5e5e5"
     id="path2973" />
  <path
     d="m 591.10396,28.842493 0.25288,0.75767 -0.21056,0.0727 -0.003,-0.002 -48.71965,16.26619 48.154,-5.5288 0.002,-0.003 0.1298,-0.0122 0.0928,0.79248 -0.83795,0.0954 -47.45032,5.452 a 0.79969,0.79969 0 0 1 -0.47957,-1.49693 0.69687,0.69687 0 0 1 0.125,-0.0544 l 48.76074,-16.2764 z"
     fill="#e5e5e5"
     id="path2975" />
  <polygon
     points="369.608,244.215 206.272,104.506 96.539,104.506 96.539,102.448 207.032,102.448 370.946,242.651 "
     fill="#2f2e41"
     id="polygon1737"
     transform="matrix(0.52568332,0,0,0.55978457,-1.2092964e-4,116.59086)"
     style="fill:#2a7fff" />
  <circle
     cx="50.74868"
     cy="174.51576"
     fill="#2ea5fd"
     id="circle1739"
     rx="8.655612"
     ry="9.2171049"
     style="stroke-width:0.542467;fill:#2a7fff" />
  <path
     d="M 81.608619,205.51834 H 2.5774691 a 2.5774688,2.74467 0 1 1 0,-5.48934 H 81.608619 a 2.5774688,2.74467 0 1 1 0,5.48934 z"
     fill="#2ea5fd"
     id="path1741"
     style="stroke-width:0.542467" />
  <path
     d="M 81.608619,216.36389 H 2.5774691 a 2.5775938,2.7448031 0 0 1 0,-5.4896 H 81.608619 a 2.5775938,2.7448031 0 0 1 0,5.4896 z"
     fill="#2ea5fd"
     id="path1743"
     style="stroke-width:0.542467;fill:#2a7fff" />
  <path
     d="M 36.835569,227.20944 H 2.5774691 a 2.5775936,2.7448029 0 0 1 0,-5.4896 H 36.835569 a 2.5775936,2.7448029 0 0 1 0,5.4896 z"
     fill="#2ea5fd"
     id="path1745"
     style="stroke-width:0.542467" />
  <circle
     cx="47.604401"
     cy="175.15688"
     fill="#2ea5fd"
     id="circle4779"
     style="fill:#2a7fff;stroke-width:0.39267"
     r="6.4654999" />
</svg>
