<svg xmlns="http://www.w3.org/2000/svg" xmlns:svg="http://www.w3.org/2000/svg" id="svg2103" width="1033.181" height="575.245" data-name="Layer 1" version="1.1" viewBox="0 0 1033.181 575.245"><path id="path2083" fill="#2ea5fd" d="m 803.93184,568.19453 c -0.98047,1.37 -1.97021,2.73 -2.95019,4.08 a 16.82838,16.82838 0 0 1 -9.58008,2.97 h -527 a 16.90383,16.90383 0 0 1 -9.21,-2.72 c -0.91016,-1.2 -1.81006,-2.41 -2.72022,-3.62006 l 0.91016,-0.5 266.79006,-147.87994 a 16.01919,16.01919 0 0 1 15.47021,-0.02 l 267.38967,147.19 z"/><path id="path2085" fill="#3f3d56" d="M 791.40157,257.24453 560.18326,123.71417 a 64.023,64.023 0 0 0 -63.98147,-0.0315 L 264.40157,257.24453 a 17.0241,17.0241 0 0 0 -17,17 v 284 a 17.01984,17.01984 0 0 0 17,17 h 527 a 17.02879,17.02879 0 0 0 17,-17 v -284 a 17.02408,17.02408 0 0 0 -17,-17 z m 15,301 a 15.03649,15.03649 0 0 1 -15,15 h -527 a 15.02706,15.02706 0 0 1 -15,-15 v -284 a 15.01828,15.01828 0 0 1 15,-15 L 496.20179,125.68264 a 64.023,64.023 0 0 1 63.98147,0.0315 l 231.21831,133.53039 a 15.01828,15.01828 0 0 1 15,15 z"/><path id="path2087" fill="#fff" d="m 528.20137,417.92471 a 15.36345,15.36345 0 0 1 -5.116,-0.8584 l -0.30249,-0.10694 -0.0613,-0.67236 c -0.18848,0.0928 -0.37866,0.18164 -0.56909,0.26563 l -0.20118,0.0884 -0.20141,-0.0889 c -0.42139,-0.18506 -0.83985,-0.39453 -1.24365,-0.62207 L 336.40157,312.47695 V 101.24453 a 18.5208,18.5208 0 0 1 18.5,-18.500004 h 346 a 18.5208,18.5208 0 0 1 18.5,18.500004 v 211.50244 l -0.25488,0.14356 -183.25,103.04 a 15.75694,15.75694 0 0 1 -7.69532,1.99418 z"/><path id="path2089" fill="#3f3d56" d="m 528.20137,418.42471 a 15.85649,15.85649 0 0 1 -5.282,-0.88672 l -0.60547,-0.21338 -0.0259,-0.28565 -0.33691,0.14795 -0.40234,-0.17676 c -0.43653,-0.19189 -0.86963,-0.40869 -1.28784,-0.64453 L 335.90157,312.76992 V 101.24453 a 19.02154,19.02154 0 0 1 19,-19.000004 h 346 a 19.02162,19.02162 0 0 1 19,19.000004 v 211.79492 l -183.76,103.32666 a 16.2527,16.2527 0 0 1 -7.9402,2.0586 z m -4.01342,-2.57666 a 14.49247,14.49247 0 0 0 10.97436,-1.22559 L 717.90157,311.86953 v -210.625 a 17.01917,17.01917 0 0 0 -17,-17.000004 h -346 a 17.01909,17.01909 0 0 0 -17,17.000004 v 210.35449 l 11.98962,6.7334 171.35047,96.29053 q 0.34973,0.197 0.71,0.3706 0.36035,-0.17358 0.70923,-0.37011 l 1.34668,-0.75879 z"/><path id="path2091" fill="#3f3d56" d="m 803.97139,264.62453 -72.56982,40.8 -12.5,7.03 -183.25,103.04 a 15.24213,15.24213 0 0 1 -7.4502,1.93 14.91079,14.91079 0 0 1 -4.9497,-0.83 12.05366,12.05366 0 0 1 -1.3003,-0.5 q -0.61449,-0.27 -1.1997,-0.6 l -171.3501,-96.29 -12.5,-7.02 -84.91992,-47.72 a 1.011,1.011 0 0 1 -0.37988,-1.37 0.99933,0.99933 0 0 1 1.35986,-0.38 l 83.93994,47.17 12.5,7.02 172.33008,96.84 a 13.07441,13.07441 0 0 0 1.77978,0.83 c 0.26026,0.1 0.53028,0.19 0.8003,0.27 a 13.26424,13.26424 0 0 0 10.35984,-1.1 l 184.23,-103.58 12.5,-7.03 71.58984,-40.25 a 0.99849887,0.99849887 0 1 1 0.98,1.74 z"/><path id="path2093" fill="#2ea5fd" d="m 411.47637,148.24453 h -28 a 8,8 0 0 1 0,-16 h 28 a 8,8 0 0 1 0,16 z"/><path id="path2095" fill="#e6e6e6" d="m 444.47637,175.24453 h -61 a 8,8 0 0 1 0,-16 h 61 a 8,8 0 0 1 0,16 z"/><path id="path2097" fill="#2ea5fd" d="m 614.90157,247.24453 h -173 a 8,8 0 0 1 0,-16 h 173 a 8,8 0 0 1 0,16 z"/><path id="path2099" fill="#e6e6e6" d="m 630.90157,278.24453 h -206 a 8,8 0 0 1 0,-16 h 206 a 8,8 0 0 1 0,16 z"/><path id="path2101" fill="#e6e6e6" d="m 630.90157,308.24453 h -206 a 8,8 0 0 1 0,-16 h 206 a 8,8 0 0 1 0,16 z"/><polygon id="polygon1747" fill="#2f2e41" points="687.319 17.494 577.586 17.494 414.25 157.203 412.912 155.639 576.826 15.436 687.319 15.436" transform="translate(228.99591,89.857316)"/><circle id="circle1749" cx="916.315" cy="106.323" r="16.465" fill="#2ea5fd"/><path id="path1751" fill="#2ea5fd" d="M 1028.2709,161.12851 H 877.93102 a 4.90308,4.90308 0 1 1 0,-9.80615 h 150.33988 a 4.90308,4.90308 0 1 1 0,9.80615 z"/><path id="path1753" fill="#2ea5fd" d="M 1028.2709,180.50302 H 877.93102 a 4.90332,4.90332 0 0 1 0,-9.80664 h 150.33988 a 4.90332,4.90332 0 1 1 0,9.80664 z"/><path id="path1755" fill="#2ea5fd" d="m 943.09977,199.87754 h -65.1687 a 4.903325,4.903325 0 0 1 0,-9.80665 h 65.1687 a 4.903325,4.903325 0 1 1 0,9.80665 z"/><polygon id="polygon1737" fill="#2f2e41" points="96.539 102.448 207.032 102.448 370.946 242.651 369.608 244.215 206.272 104.506 96.539 104.506" transform="translate(0,-87.011664)"/><circle id="circle1739" cx="96.539" cy="16.465" r="16.465" fill="#2ea5fd"/><path id="path1741" fill="#2ea5fd" d="M 155.24317,71.848525 H 4.90332 a 4.90308,4.90308 0 1 1 0,-9.80616 h 150.33985 a 4.90308,4.90308 0 1 1 0,9.80616 z"/><path id="path1743" fill="#2ea5fd" d="M 155.24317,91.223035 H 4.90332 a 4.90332,4.90332 0 0 1 0,-9.806641 h 150.33985 a 4.90332,4.90332 0 0 1 0,9.806641 z"/><path id="path1745" fill="#2ea5fd" d="M 70.07202,110.59754 H 4.90332 a 4.90332,4.90332 0 0 1 0,-9.80664 h 65.1687 a 4.90332,4.90332 0 0 1 0,9.80664 z"/></svg>