<!--?xml version="1.0" encoding="UTF-8" standalone="no"?-->
<svg viewBox="0 0 500.63647 413.82648" version="1.1" id="svg5308" sodipodi:docname="Responsive-Website-Design-JWS-Aruba.svg" width="500.63647" height="413.82648" inkscape:version="1.1.1 (3bf5ae0d25, 2021-09-20)" xmlns:inkscape="http://www.inkscape.org/namespaces/inkscape" xmlns:sodipodi="http://sodipodi.sourceforge.net/DTD/sodipodi-0.dtd" xmlns="http://www.w3.org/2000/svg" xmlns:svg="http://www.w3.org/2000/svg" xmlns:rdf="http://www.w3.org/1999/02/22-rdf-syntax-ns#" xmlns:cc="http://creativecommons.org/ns#" xmlns:dc="http://purl.org/dc/elements/1.1/" style="">
  <metadata id="metadata5314">
    <rdf:rdf>
      <cc:work rdf:about="">
        <dc:format>image/svg+xml</dc:format>
        <dc:type rdf:resource="http://purl.org/dc/dcmitype/StillImage"></dc:type>
      </cc:work>
    </rdf:rdf>
  </metadata>
  <defs id="defs5312"></defs>
  <sodipodi:namedview pagecolor="#ffffff" bordercolor="#666666" borderopacity="1" objecttolerance="10" gridtolerance="10" guidetolerance="10" inkscape:pageopacity="0" inkscape:pageshadow="2" inkscape:window-width="1920" inkscape:window-height="1003" id="namedview5310" showgrid="false" inkscape:zoom="1.602" inkscape:cx="248.12734" inkscape:cy="255.61798" inkscape:window-x="-9" inkscape:window-y="-9" inkscape:window-maximized="1" inkscape:current-layer="g5306" inkscape:pagecheckerboard="0"></sodipodi:namedview>
  <g transform="matrix(0.956787,0,0,0.94807,14.116322,-81.939211)" id="g5306">
    <path fill="#e0dede" d="m 305.13735,482.27547 h -180.353 v 0 c 27.085,-3.315 47.44,-26.315 47.44,-53.601 v -52.988 h 85.473 v 52.988 c 0,27.286 20.356,50.286 47.44,53.601 z" id="path5270" style="stroke:#0882f9;stroke-opacity:1" class="AGRBXPlO_0"></path>
    <path d="m 380.88235,394.86401 h -344.916 c -12.493,0 -22.621,-9.92023 -22.621,-22.15694 V 139.26933 c 0,-12.2367 10.128,-22.15693 22.621,-22.15693 h 344.916 c 12.493,0 22.621,9.92023 22.621,22.15693 v 233.43676 c 10e-4,12.23769 -10.127,22.15792 -22.621,22.15792 z m -14.205,99.47846 h -308.461 c -3.123,0 -5.654,-2.47908 -5.654,-5.53801 v -0.74343 c 0,-3.05893 2.531,-5.53801 5.654,-5.53801 h 308.461 c 3.123,0 5.654,2.47908 5.654,5.53801 v 0.74343 c 0,3.05795 -2.531,5.53801 -5.654,5.53801 z" fill="#e8e6e6" id="path5272" style="stroke-width:0.989689;stroke:#0882f9;stroke-opacity:1" class="AGRBXPlO_1"></path>
    <path fill="#4384ec" d="m 13.39035,150.29396 v 196.72051 h 391 V 150.29396 c 0,-0.64725 -0.908,-1.5846 -0.944,-2.50268 h -390.044 z" id="path5274" style="stroke-width:0.958165;stroke:#0882f9;stroke-opacity:1" class="AGRBXPlO_2"></path>
    <path fill="#2666ce" d="m 13.39035,150.29396 v 196.43851 l 390.562,-196.48258 c 0,-0.64717 -0.47,-1.54035 -0.505,-2.45832 h -390.045 z" id="path5276" style="stroke-width:0.958108;stroke:#0882f9;stroke-opacity:1" class="AGRBXPlO_3"></path>
    <path fill="#d3cdcd" d="m 172.22435,392.78047 h 85.473 v 17.428 h -85.473 z" id="path5278" style="stroke:#0882f9;stroke-opacity:1" class="AGRBXPlO_4"></path>
    <path fill="#2666ce" d="m 404.39035,347.01447 v -72 h -125.74 c -6.305,0 -11.26,5.215 -11.26,11.52 v 60.48 z" id="path5280" style="stroke:#0882f9;stroke-opacity:1" class="AGRBXPlO_5"></path>
    <path d="m 267.39035,347.01447 v 46 h 111.975 c 13.331,0 25.025,-11.042 25.025,-24.374 v -21.626 z m 17,128.066 c -7,-3.959 -13,-9.298 -17,-15.594 v 22.528 h 17 z" fill="#d3cdcd" id="path5282" style="stroke:#0882f9;stroke-opacity:1" class="AGRBXPlO_6"></path>
    <path fill="#e0dede" d="m 267.36435,482.25447 h 22.322 v 12.088 h -22.322 z" id="path5284" style="stroke:#0882f9;stroke-opacity:1" class="AGRBXPlO_7"></path>
    <path fill="#d3cdcd" d="m 424.30535,494.34247 h -135.337 a 10.7,10.7 0 0 1 -10.699,-10.699 v -197.827 a 10.7,10.7 0 0 1 10.699,-10.699 h 135.337 a 10.7,10.7 0 0 1 10.699,10.699 v 197.827 a 10.7,10.7 0 0 1 -10.699,10.699 z" id="path5286" style="stroke:#0882f9;stroke-opacity:1" class="AGRBXPlO_8"></path>
    <path fill="#4384ec" d="m 278.26935,293.99147 h 156.735 v 170.122 h -156.735 z" id="path5288" style="stroke:#0882f9;stroke-opacity:1" class="AGRBXPlO_9"></path>
    <path fill="#2666ce" d="m 278.26935,464.11347 v -170.122 h 156.735 z" id="path5290" style="stroke:#0882f9;stroke-opacity:1" class="AGRBXPlO_10"></path>
    <path fill="#e8e6e6" d="m 364.15235,482.27547 h -15.03 a 3.52,3.52 0 0 1 -3.521,-3.521 v -0.473 a 3.52,3.52 0 0 1 3.521,-3.521 h 15.03 a 3.52,3.52 0 0 1 3.521,3.521 v 0.473 c -0.001,1.945 -1.577,3.521 -3.521,3.521 z" id="path5292" style="stroke:#0882f9;stroke-opacity:1" class="AGRBXPlO_11"></path>
    <path fill="#1d5ebc" d="m 404.00935,464.44147 v -73.808 a 11.42,11.42 0 0 1 11.417,-11.417 h 39.158 a 11.42,11.42 0 0 1 11.417,11.417 v 73.808 z" id="path5294" style="stroke:#0882f9;stroke-opacity:1" class="AGRBXPlO_12"></path>
    <path fill="#c4bcbc" d="m 404.39035,482.92547 c 0,6.305 4.73,11.089 11.036,11.089 h 39.157 c 3.822,0 6.807,-1.558 8.807,-4.442 v -25.558 h -59 z" id="path5296" style="stroke:#0882f9;stroke-opacity:1" class="AGRBXPlO_13"></path>
    <path fill="#e8e6e6" d="m 465.46635,494.34247 h -40.593 a 10.7,10.7 0 0 1 -10.699,-10.699 v -93.728 a 10.7,10.7 0 0 1 10.699,-10.699 h 40.593 a 10.7,10.7 0 0 1 10.699,10.699 v 93.728 a 10.7,10.7 0 0 1 -10.699,10.699 z" id="path5298" style="stroke:#0882f9;stroke-opacity:1" class="AGRBXPlO_14"></path>
    <path fill="#4384ec" d="m 414.17335,389.12847 h 61.992 v 89.511 h -61.992 z" id="path5300" style="stroke:#0882f9;stroke-opacity:1" class="AGRBXPlO_15"></path>
    <path fill="#2666ce" d="m 414.17335,478.63947 v -89.511 h 61.992 z" id="path5302" style="stroke:#0882f9;stroke-opacity:1" class="AGRBXPlO_16"></path>
    <path fill="#ffffff" d="m 448.06835,489.78947 h -5.797 a 3.52,3.52 0 0 1 -3.521,-3.521 v -0.473 a 3.52,3.52 0 0 1 3.521,-3.521 h 5.797 a 3.52,3.52 0 0 1 3.521,3.521 v 0.473 c -0.001,1.945 -1.577,3.521 -3.521,3.521 z" id="path5304" style="stroke:#0882f9;stroke-opacity:1" class="AGRBXPlO_17"></path>
  </g>
<style data-made-with="vivus-instant">.AGRBXPlO_0{stroke-dasharray:529 531;stroke-dashoffset:530;animation:AGRBXPlO_draw_0 7200ms linear 0ms infinite,AGRBXPlO_fade 7200ms linear 0ms infinite;}.AGRBXPlO_1{stroke-dasharray:1951 1953;stroke-dashoffset:1952;animation:AGRBXPlO_draw_1 7200ms linear 0ms infinite,AGRBXPlO_fade 7200ms linear 0ms infinite;}.AGRBXPlO_2{stroke-dasharray:1180 1182;stroke-dashoffset:1181;animation:AGRBXPlO_draw_2 7200ms linear 0ms infinite,AGRBXPlO_fade 7200ms linear 0ms infinite;}.AGRBXPlO_3{stroke-dasharray:1029 1031;stroke-dashoffset:1030;animation:AGRBXPlO_draw_3 7200ms linear 0ms infinite,AGRBXPlO_fade 7200ms linear 0ms infinite;}.AGRBXPlO_4{stroke-dasharray:206 208;stroke-dashoffset:207;animation:AGRBXPlO_draw_4 7200ms linear 0ms infinite,AGRBXPlO_fade 7200ms linear 0ms infinite;}.AGRBXPlO_5{stroke-dasharray:414 416;stroke-dashoffset:415;animation:AGRBXPlO_draw_5 7200ms linear 0ms infinite,AGRBXPlO_fade 7200ms linear 0ms infinite;}.AGRBXPlO_6{stroke-dasharray:426 428;stroke-dashoffset:427;animation:AGRBXPlO_draw_6 7200ms linear 0ms infinite,AGRBXPlO_fade 7200ms linear 0ms infinite;}.AGRBXPlO_7{stroke-dasharray:69 71;stroke-dashoffset:70;animation:AGRBXPlO_draw_7 7200ms linear 0ms infinite,AGRBXPlO_fade 7200ms linear 0ms infinite;}.AGRBXPlO_8{stroke-dasharray:734 736;stroke-dashoffset:735;animation:AGRBXPlO_draw_8 7200ms linear 0ms infinite,AGRBXPlO_fade 7200ms linear 0ms infinite;}.AGRBXPlO_9{stroke-dasharray:654 656;stroke-dashoffset:655;animation:AGRBXPlO_draw_9 7200ms linear 0ms infinite,AGRBXPlO_fade 7200ms linear 0ms infinite;}.AGRBXPlO_10{stroke-dasharray:559 561;stroke-dashoffset:560;animation:AGRBXPlO_draw_10 7200ms linear 0ms infinite,AGRBXPlO_fade 7200ms linear 0ms infinite;}.AGRBXPlO_11{stroke-dasharray:54 56;stroke-dashoffset:55;animation:AGRBXPlO_draw_11 7200ms linear 0ms infinite,AGRBXPlO_fade 7200ms linear 0ms infinite;}.AGRBXPlO_12{stroke-dasharray:285 287;stroke-dashoffset:286;animation:AGRBXPlO_draw_12 7200ms linear 0ms infinite,AGRBXPlO_fade 7200ms linear 0ms infinite;}.AGRBXPlO_13{stroke-dasharray:171 173;stroke-dashoffset:172;animation:AGRBXPlO_draw_13 7200ms linear 0ms infinite,AGRBXPlO_fade 7200ms linear 0ms infinite;}.AGRBXPlO_14{stroke-dasharray:336 338;stroke-dashoffset:337;animation:AGRBXPlO_draw_14 7200ms linear 0ms infinite,AGRBXPlO_fade 7200ms linear 0ms infinite;}.AGRBXPlO_15{stroke-dasharray:304 306;stroke-dashoffset:305;animation:AGRBXPlO_draw_15 7200ms linear 0ms infinite,AGRBXPlO_fade 7200ms linear 0ms infinite;}.AGRBXPlO_16{stroke-dasharray:261 263;stroke-dashoffset:262;animation:AGRBXPlO_draw_16 7200ms linear 0ms infinite,AGRBXPlO_fade 7200ms linear 0ms infinite;}.AGRBXPlO_17{stroke-dasharray:35 37;stroke-dashoffset:36;animation:AGRBXPlO_draw_17 7200ms linear 0ms infinite,AGRBXPlO_fade 7200ms linear 0ms infinite;}@keyframes AGRBXPlO_draw{100%{stroke-dashoffset:0;}}@keyframes AGRBXPlO_fade{0%{stroke-opacity:1;}94.44444444444444%{stroke-opacity:1;}100%{stroke-opacity:0;}}@keyframes AGRBXPlO_draw_0{11.11111111111111%{stroke-dashoffset: 530}38.88888888888889%{ stroke-dashoffset: 0;}100%{ stroke-dashoffset: 0;}}@keyframes AGRBXPlO_draw_1{11.928104575163399%{stroke-dashoffset: 1952}39.70588235294118%{ stroke-dashoffset: 0;}100%{ stroke-dashoffset: 0;}}@keyframes AGRBXPlO_draw_2{12.745098039215685%{stroke-dashoffset: 1181}40.52287581699346%{ stroke-dashoffset: 0;}100%{ stroke-dashoffset: 0;}}@keyframes AGRBXPlO_draw_3{13.562091503267974%{stroke-dashoffset: 1030}41.33986928104576%{ stroke-dashoffset: 0;}100%{ stroke-dashoffset: 0;}}@keyframes AGRBXPlO_draw_4{14.37908496732026%{stroke-dashoffset: 207}42.15686274509803%{ stroke-dashoffset: 0;}100%{ stroke-dashoffset: 0;}}@keyframes AGRBXPlO_draw_5{15.196078431372548%{stroke-dashoffset: 415}42.97385620915033%{ stroke-dashoffset: 0;}100%{ stroke-dashoffset: 0;}}@keyframes AGRBXPlO_draw_6{16.013071895424837%{stroke-dashoffset: 427}43.790849673202615%{ stroke-dashoffset: 0;}100%{ stroke-dashoffset: 0;}}@keyframes AGRBXPlO_draw_7{16.83006535947712%{stroke-dashoffset: 70}44.6078431372549%{ stroke-dashoffset: 0;}100%{ stroke-dashoffset: 0;}}@keyframes AGRBXPlO_draw_8{17.64705882352941%{stroke-dashoffset: 735}45.42483660130719%{ stroke-dashoffset: 0;}100%{ stroke-dashoffset: 0;}}@keyframes AGRBXPlO_draw_9{18.4640522875817%{stroke-dashoffset: 655}46.24183006535948%{ stroke-dashoffset: 0;}100%{ stroke-dashoffset: 0;}}@keyframes AGRBXPlO_draw_10{19.28104575163399%{stroke-dashoffset: 560}47.05882352941176%{ stroke-dashoffset: 0;}100%{ stroke-dashoffset: 0;}}@keyframes AGRBXPlO_draw_11{20.098039215686274%{stroke-dashoffset: 55}47.875816993464056%{ stroke-dashoffset: 0;}100%{ stroke-dashoffset: 0;}}@keyframes AGRBXPlO_draw_12{20.915032679738562%{stroke-dashoffset: 286}48.69281045751634%{ stroke-dashoffset: 0;}100%{ stroke-dashoffset: 0;}}@keyframes AGRBXPlO_draw_13{21.732026143790847%{stroke-dashoffset: 172}49.509803921568626%{ stroke-dashoffset: 0;}100%{ stroke-dashoffset: 0;}}@keyframes AGRBXPlO_draw_14{22.54901960784314%{stroke-dashoffset: 337}50.326797385620914%{ stroke-dashoffset: 0;}100%{ stroke-dashoffset: 0;}}@keyframes AGRBXPlO_draw_15{23.366013071895424%{stroke-dashoffset: 305}51.143790849673195%{ stroke-dashoffset: 0;}100%{ stroke-dashoffset: 0;}}@keyframes AGRBXPlO_draw_16{24.183006535947708%{stroke-dashoffset: 262}51.96078431372548%{ stroke-dashoffset: 0;}100%{ stroke-dashoffset: 0;}}@keyframes AGRBXPlO_draw_17{25%{stroke-dashoffset: 36}52.77777777777778%{ stroke-dashoffset: 0;}100%{ stroke-dashoffset: 0;}}</style></svg>
