<svg xmlns="http://www.w3.org/2000/svg" viewBox="0 0 500 500"  xmlns:v="https://vecta.io/nano"><g transform="matrix(.956787 0 0 .94807 16.294962 4.218702)"><path fill="#e0dede" d="M307.747 430.261H127.394h0c27.085-3.315 47.44-26.315 47.44-53.601v-52.988h85.473v52.988c0 27.286 20.356 50.286 47.44 53.601z"/><path d="M383.492 340.766H38.576c-12.493 0-22.621-10.128-22.621-22.621V79.818c0-12.493 10.128-22.621 22.621-22.621h344.916c12.493 0 22.621 10.128 22.621 22.621v238.326c.001 12.494-10.127 22.622-22.621 22.622zm-14.205 101.562H60.826c-3.123 0-5.654-2.531-5.654-5.654v-.759c0-3.123 2.531-5.654 5.654-5.654h308.461c3.123 0 5.654 2.531 5.654 5.654v.759c0 3.122-2.531 5.654-5.654 5.654z" fill="#e8e6e6"/><path fill="#4384ec" d="M16 80.726V295h391V80.726c0-.705-.908-1.726-.944-2.726H16.012L16 80.726z"/><path fill="#2666ce" d="M16 80.726v213.992l390.562-214.04c0-.705-.47-1.678-.505-2.678H16.012L16 80.726z"/><path fill="#d3cdcd" d="M174.834 340.766h85.473v17.428h-85.473z"/><path fill="#2666ce" d="M407 295v-72H281.26c-6.305 0-11.26 5.215-11.26 11.52V295z"/><path d="M270 295v46h111.975C395.306 341 407 329.958 407 316.626V295zm17 128.066c-7-3.959-13-9.298-17-15.594V430h17z" fill="#d3cdcd"/><path fill="#e0dede" d="M269.974 430.24h22.322v12.088h-22.322z"/><path fill="#d3cdcd" d="M426.915 442.328H291.578a10.7 10.7 0 0 1-10.699-10.699V233.802a10.7 10.7 0 0 1 10.699-10.699h135.337a10.7 10.7 0 0 1 10.699 10.699v197.827a10.7 10.7 0 0 1-10.699 10.699z"/><path fill="#4384ec" d="M280.879 241.977h156.735v170.122H280.879z"/><path fill="#2666ce" d="M280.879 412.099V241.977h156.735z"/><path fill="#e8e6e6" d="M366.762 430.261h-15.03a3.52 3.52 0 0 1-3.521-3.521v-.473a3.52 3.52 0 0 1 3.521-3.521h15.03a3.52 3.52 0 0 1 3.521 3.521v.473c-.001 1.945-1.577 3.521-3.521 3.521z"/><path fill="#1d5ebc" d="M406.619 412.427v-73.808a11.42 11.42 0 0 1 11.417-11.417h39.158a11.42 11.42 0 0 1 11.417 11.417v73.808z"/><path fill="#c4bcbc" d="M407 430.911c0 6.305 4.73 11.089 11.036 11.089h39.157c3.822 0 6.807-1.558 8.807-4.442V412h-59z"/><path fill="#e8e6e6" d="M468.076 442.328h-40.593a10.7 10.7 0 0 1-10.699-10.699v-93.728a10.7 10.7 0 0 1 10.699-10.699h40.593a10.7 10.7 0 0 1 10.699 10.699v93.728a10.7 10.7 0 0 1-10.699 10.699z"/><path fill="#4384ec" d="M416.783 337.114h61.992v89.511h-61.992z"/><path fill="#2666ce" d="M416.783 426.625v-89.511h61.992z"/><path fill="#fff" d="M450.678 437.775h-5.797a3.52 3.52 0 0 1-3.521-3.521v-.473a3.52 3.52 0 0 1 3.521-3.521h5.797a3.52 3.52 0 0 1 3.521 3.521v.473c-.001 1.945-1.577 3.521-3.521 3.521z"/></g></svg>