<?xml version="1.0" encoding="UTF-8" standalone="no"?>
<!-- Generator: Adobe Illustrator 19.0.0, SVG Export Plug-In . SVG Version: 6.00 Build 0)  -->

<svg
   version="1.1"
   id="Layer_1"
   x="0px"
   y="0px"
   viewBox="0 0 512 512"
   style="enable-background:new 0 0 512 512;"
   xml:space="preserve"
   sodipodi:docname="Search-Organic-Traffic.svg"
   inkscape:version="1.1 (c68e22c387, 2021-05-23)"
   xmlns:inkscape="http://www.inkscape.org/namespaces/inkscape"
   xmlns:sodipodi="http://sodipodi.sourceforge.net/DTD/sodipodi-0.dtd"
   xmlns="http://www.w3.org/2000/svg"
   xmlns:svg="http://www.w3.org/2000/svg"><defs
   id="defs952" /><sodipodi:namedview
   id="namedview950"
   pagecolor="#ffffff"
   bordercolor="#666666"
   borderopacity="1.0"
   inkscape:pageshadow="2"
   inkscape:pageopacity="0.0"
   inkscape:pagecheckerboard="0"
   showgrid="false"
   inkscape:zoom="1.5332031"
   inkscape:cx="256"
   inkscape:cy="256"
   inkscape:window-width="1920"
   inkscape:window-height="1003"
   inkscape:window-x="-9"
   inkscape:window-y="-9"
   inkscape:window-maximized="1"
   inkscape:current-layer="Layer_1" />
<path
   style="fill:#e4eaf6;stroke-width:0.828047"
   d="M 456.0219,145.26945 H 56.423245 c -4.865662,0 -8.810506,-4.07333 -8.810506,-9.09663 V 65.234009 c 0,-5.024145 3.944844,-9.09748 8.810506,-9.09748 H 456.02271 c 4.86566,0 8.81051,4.073335 8.81051,9.09748 v 70.938811 c -8.1e-4,5.0233 -3.94566,9.09663 -8.81132,9.09663 z"
   id="path889" />
<path
   style="fill:#18bdf6;stroke-width:0.828047"
   d="m 389.30098,145.26945 h 64.74076 c 5.95923,0 10.78984,-4.9888 10.78984,-11.14129 V 67.278671 c 0,-6.153337 -4.83143,-11.141301 -10.78984,-11.141301 h -64.74076 c -5.95924,0 -10.78986,4.988806 -10.78986,11.141301 v 66.849489 c 0,6.15249 4.83144,11.14129 10.78986,11.14129 z"
   id="path891" />
<path
   style="fill:#ffffff;stroke-width:0.828047"
   d="m 448.33755,117.73469 -14.38673,-14.85535 c -0.0187,-0.0194 -0.044,-0.0244 -0.0619,-0.0429 1.35025,-2.908808 2.17003,-6.126415 2.17003,-9.561109 0,-12.28732 -9.6808,-22.283442 -21.58053,-22.283442 -11.89973,0 -21.58052,9.996122 -21.58052,22.283442 0,12.287329 9.68079,22.283449 21.58052,22.283449 3.32717,0 6.44246,-0.84648 9.25951,-2.24072 0.018,0.0193 0.0229,0.0454 0.0416,0.0639 l 14.38675,14.85535 c 1.40485,1.45146 3.24486,2.17592 5.08568,2.17592 1.84081,0 3.68163,-0.7253 5.08567,-2.17592 2.81053,-2.90123 2.81053,-7.60059 0,-10.50266 z m -33.85916,-17.03128 c -3.96522,0 -7.19378,-3.33288 -7.19378,-7.428092 0,-4.095213 3.22775,-7.428095 7.19378,-7.428095 3.96603,0 7.19378,3.332882 7.19378,7.428095 0,4.095212 -3.22856,7.428092 -7.19378,7.428092 z"
   id="path893" />
<circle
   style="fill:#2a7fff;stroke-width:0.828047"
   cx="338.94696"
   cy="100.70341"
   id="circle895"
   rx="17.983633"
   ry="18.569395" />
<circle
   style="fill:#80b3ff;stroke-width:0.828047"
   cx="288.59293"
   cy="100.70341"
   id="circle897"
   rx="17.983633"
   ry="18.569395" />
<path
   style="fill:#e4eaf6;stroke-width:0.828047"
   d="M 456.0219,264.11392 H 56.423245 c -4.865662,0 -8.810506,-4.07334 -8.810506,-9.09748 v -70.93881 c 0,-5.02415 3.944844,-9.09748 8.810506,-9.09748 H 456.02271 c 4.86566,0 8.81051,4.07333 8.81051,9.09748 v 70.93881 c -8.1e-4,5.02414 -3.94566,9.09748 -8.81132,9.09748 z"
   id="path899" />
<path
   style="fill:#0066ff;stroke-width:0.828047"
   d="M 112.35349,249.25773 H 69.193263 c -3.97255,0 -7.193779,-3.32615 -7.193779,-7.4281 v -44.56688 c 0,-4.10194 3.221229,-7.42809 7.193779,-7.42809 h 43.161047 c 3.97255,0 7.19378,3.32615 7.19378,7.42809 v 44.56688 c -8.2e-4,4.10279 -3.22205,7.4281 -7.1946,7.4281 z"
   id="path901" />
<path
   style="fill:#c7cfe2;stroke-width:0.828047"
   d="M 400.09164,241.83047 H 141.1278 c -3.97256,0 -7.19378,-3.32615 -7.19378,-7.42809 v 0 c 0,-4.10194 3.22122,-7.42809 7.19378,-7.42809 h 258.96384 c 3.97256,0 7.19378,3.32615 7.19378,7.42809 v 0 c -8.1e-4,4.10194 -3.22122,7.42809 -7.19378,7.42809 z"
   id="path903" />
<path
   style="fill:#28beff;stroke-width:0.828047"
   d="M 284.99606,212.11894 H 141.1278 c -3.97256,0 -7.19378,-3.32615 -7.19378,-7.4281 v 0 c 0,-4.10194 3.22122,-7.42809 7.19378,-7.42809 h 143.86826 c 3.97256,0 7.19378,3.32615 7.19378,7.42809 v 0 c 0,4.10279 -3.22122,7.4281 -7.19378,7.4281 z"
   id="path905" />
<path
   style="fill:#2a7fff;stroke-width:0.828047"
   d="M 112.35349,353.24684 H 69.193263 c -3.97255,0 -7.193779,-3.32615 -7.193779,-7.42809 v -44.56689 c 0,-4.10194 3.221229,-7.42809 7.193779,-7.42809 h 43.161047 c 3.97255,0 7.19378,3.32615 7.19378,7.42809 v 44.56689 c -8.2e-4,4.10194 -3.22205,7.42809 -7.1946,7.42809 z"
   id="path907" />
<path
   style="fill:#c7cfe2;stroke-width:0.828047"
   d="M 400.09164,345.81875 H 141.1278 c -3.97256,0 -7.19378,-3.32615 -7.19378,-7.4281 v 0 c 0,-4.10194 3.22122,-7.42809 7.19378,-7.42809 h 258.96384 c 3.97256,0 7.19378,3.32615 7.19378,7.42809 v 0 c -8.1e-4,4.10195 -3.22122,7.4281 -7.19378,7.4281 z"
   id="path909" />
<path
   style="fill:#28beff;stroke-width:0.828047"
   d="M 284.99606,316.10805 H 141.1278 c -3.97256,0 -7.19378,-3.32615 -7.19378,-7.42809 v 0 c 0,-4.10195 3.22122,-7.4281 7.19378,-7.4281 h 143.86826 c 3.97256,0 7.19378,3.32615 7.19378,7.4281 v 0 c 0,4.10194 -3.22122,7.42809 -7.19378,7.42809 z"
   id="path911" />
<path
   style="fill:#5599ff;stroke-width:0.828047"
   d="M 112.35349,457.23511 H 69.193263 c -3.97255,0 -7.193779,-3.32615 -7.193779,-7.42809 v -44.56688 c 0,-4.10195 3.221229,-7.4281 7.193779,-7.4281 h 43.161047 c 3.97255,0 7.19378,3.32615 7.19378,7.4281 v 44.56688 c -8.2e-4,4.10194 -3.22205,7.42809 -7.1946,7.42809 z"
   id="path913" />
<path
   style="fill:#c7cfe2;stroke-width:0.828047"
   d="M 400.09164,449.80702 H 141.1278 c -3.97256,0 -7.19378,-3.32615 -7.19378,-7.4281 v 0 c 0,-4.10194 3.22122,-7.42809 7.19378,-7.42809 h 258.96384 c 3.97256,0 7.19378,3.32615 7.19378,7.42809 v 0 c -8.1e-4,4.10279 -3.22122,7.4281 -7.19378,7.4281 z"
   id="path915" />
<path
   style="fill:#28beff;stroke-width:0.828047"
   d="M 284.99606,420.09632 H 141.1278 c -3.97256,0 -7.19378,-3.32615 -7.19378,-7.42809 v 0 c 0,-4.10194 3.22122,-7.42809 7.19378,-7.42809 h 143.86826 c 3.97256,0 7.19378,3.32615 7.19378,7.42809 v 0 c 0,4.10194 -3.22122,7.42809 -7.19378,7.42809 z"
   id="path917" />
<g
   id="g919">
</g>
<g
   id="g921">
</g>
<g
   id="g923">
</g>
<g
   id="g925">
</g>
<g
   id="g927">
</g>
<g
   id="g929">
</g>
<g
   id="g931">
</g>
<g
   id="g933">
</g>
<g
   id="g935">
</g>
<g
   id="g937">
</g>
<g
   id="g939">
</g>
<g
   id="g941">
</g>
<g
   id="g943">
</g>
<g
   id="g945">
</g>
<g
   id="g947">
</g>
</svg>
