<?xml version="1.0" encoding="UTF-8" standalone="no"?>
<!-- Generator: Adobe Illustrator 19.0.0, SVG Export Plug-In . SVG Version: 6.00 Build 0)  -->

<svg
   version="1.1"
   id="Layer_1"
   x="0px"
   y="0px"
   viewBox="0 0 675.9176 512"
   xml:space="preserve"
   sodipodi:docname="Search-Experience-Optimization-SXO.svg"
   inkscape:version="1.1 (c68e22c387, 2021-05-23)"
   width="675.9176"
   height="512"
   xmlns:inkscape="http://www.inkscape.org/namespaces/inkscape"
   xmlns:sodipodi="http://sodipodi.sourceforge.net/DTD/sodipodi-0.dtd"
   xmlns="http://www.w3.org/2000/svg"
   xmlns:svg="http://www.w3.org/2000/svg"><defs
   id="defs729" /><sodipodi:namedview
   id="namedview727"
   pagecolor="#ffffff"
   bordercolor="#666666"
   borderopacity="1.0"
   inkscape:pageshadow="2"
   inkscape:pageopacity="0.0"
   inkscape:pagecheckerboard="0"
   showgrid="false"
   inkscape:zoom="1"
   inkscape:cx="360.5"
   inkscape:cy="255.5"
   inkscape:window-width="1920"
   inkscape:window-height="1003"
   inkscape:window-x="-9"
   inkscape:window-y="-9"
   inkscape:window-maximized="1"
   inkscape:current-layer="Layer_1"><inkscape:grid
     type="xygrid"
     id="grid1424"
     originx="-9.902"
     originy="0" /></sodipodi:namedview>
<rect
   x="245.3511"
   y="223.67795"
   style="fill:#f9f9f9;stroke-width:0.81634"
   width="151.38167"
   height="235.32204"
   id="rect652" />
<rect
   x="245.3511"
   style="fill:#2a7fff;stroke-width:0.81634"
   width="151.38167"
   height="148.06853"
   id="rect654"
   y="45.633057" />
<path
   style="fill:#2a7fff;stroke-width:0.81634"
   d="M 215.39239,310.93147 V 459 H 64 V 418.30919 310.93147 Z"
   id="path656" />
<rect
   x="64"
   style="fill:#f9f9f9;stroke-width:0.81634"
   width="151.3924"
   height="235.33255"
   id="rect658"
   y="45.633057" />
<polygon
   style="fill:#e09b2d"
   points="131.998,512 96.246,472.668 120.624,445.844 180.742,512 "
   id="polygon660"
   transform="matrix(0.82542251,0,0,0.80735732,55.826666,45.633054)" />
<path
   style="fill:#ffffff;stroke-width:0.81634"
   d="m 168.3235,336.34143 c 13.11019,0 23.72842,10.38584 23.72842,23.2091 0,12.81276 -10.61823,23.20911 -23.72842,23.20911 -13.09946,0 -23.72842,-10.39635 -23.72842,-23.20911 0,-12.82326 10.62896,-23.2091 23.72842,-23.2091 z"
   id="path662" />
<polygon
   style="fill:#f7b239"
   points="131.998,512 9.902,512 9.902,461.6 48.036,419.644 96.246,472.668 "
   id="polygon664"
   transform="matrix(0.82542251,0,0,0.80735732,55.826666,45.633054)" />
<polygon
   style="fill:#ffffff"
   points="311.759,53.494 311.759,131.821 292.654,131.821 292.654,150.927 311.759,150.927 330.864,150.927 349.968,150.927 349.968,131.821 330.864,131.821 330.864,53.494 358.564,53.494 358.564,76.419 377.67,76.419 377.67,34.388 330.864,34.388 311.759,34.388 264.953,34.388 264.953,76.419 284.058,76.419 284.058,53.494 "
   id="polygon666"
   transform="matrix(0.82542251,0,0,0.80735732,55.826666,45.633054)" />
<g
   id="g692"
   transform="matrix(0.82542251,0,0,0.80735732,55.826666,45.633054)">
	<rect
   x="74.863998"
   y="34.708"
   style="fill:#808080"
   width="84.059998"
   height="15.284"
   id="rect668" />
	<rect
   x="44.297001"
   y="76.064003"
   style="fill:#808080"
   width="114.627"
   height="15.284"
   id="rect670" />
	<rect
   x="44.297001"
   y="117.422"
   style="fill:#808080"
   width="114.627"
   height="15.284"
   id="rect672" />
	<rect
   x="44.297001"
   y="158.77901"
   style="fill:#808080"
   width="114.627"
   height="15.284"
   id="rect674" />
	<rect
   x="44.297001"
   y="200.136"
   style="fill:#808080"
   width="114.627"
   height="15.284"
   id="rect676" />
	<rect
   x="44.297001"
   y="241.493"
   style="fill:#808080"
   width="57.313999"
   height="15.284"
   id="rect678" />
	<rect
   x="294.56799"
   y="255.22301"
   style="fill:#808080"
   width="84.059998"
   height="15.284"
   id="rect680" />
	<rect
   x="263.99899"
   y="296.57999"
   style="fill:#808080"
   width="114.627"
   height="15.284"
   id="rect682" />
	<rect
   x="263.99899"
   y="337.93701"
   style="fill:#808080"
   width="114.627"
   height="15.284"
   id="rect684" />
	<rect
   x="263.99899"
   y="379.29401"
   style="fill:#808080"
   width="114.627"
   height="15.284"
   id="rect686" />
	<rect
   x="263.99899"
   y="420.651"
   style="fill:#808080"
   width="114.627"
   height="15.284"
   id="rect688" />
	<rect
   x="263.99899"
   y="462.00699"
   style="fill:#808080"
   width="57.313999"
   height="15.284"
   id="rect690" />
</g>
<polygon
   style="fill:#f9f9f9"
   points="449.867,461.329 475.982,512 502.098,461.329 483.625,461.329 483.625,50.673 502.098,50.673 475.982,0.001 449.867,50.673 468.34,50.673 468.34,461.329 "
   id="polygon694"
   transform="matrix(0.82542251,0,0,0.80735732,55.826666,45.633054)" />
<g
   id="g696"
   transform="translate(-9.902)">
</g>
<g
   id="g698"
   transform="translate(-9.902)">
</g>
<g
   id="g700"
   transform="translate(-9.902)">
</g>
<g
   id="g702"
   transform="translate(-9.902)">
</g>
<g
   id="g704"
   transform="translate(-9.902)">
</g>
<g
   id="g706"
   transform="translate(-9.902)">
</g>
<g
   id="g708"
   transform="translate(-9.902)">
</g>
<g
   id="g710"
   transform="translate(-9.902)">
</g>
<g
   id="g712"
   transform="translate(-9.902)">
</g>
<g
   id="g714"
   transform="translate(-9.902)">
</g>
<g
   id="g716"
   transform="translate(-9.902)">
</g>
<g
   id="g718"
   transform="translate(-9.902)">
</g>
<g
   id="g720"
   transform="translate(-9.902)">
</g>
<g
   id="g722"
   transform="translate(-9.902)">
</g>
<g
   id="g724"
   transform="translate(-9.902)">
</g>
<path
   style="fill:#e4eaf6;stroke-width:0.81634"
   d="M 612.99232,294.28873 H 208.22493 c -4.9286,0 -8.92447,-3.90841 -8.92447,-8.72833 v -68.06668 c 0,-4.82074 3.99587,-8.72916 8.92447,-8.72916 h 404.76821 c 4.9286,0 8.92447,3.90842 8.92447,8.72916 v 68.06668 c -8.3e-4,4.81992 -3.9967,8.72833 -8.92529,8.72833 z"
   id="path1187" /><path
   style="fill:#2a7fff;stroke-width:0.81634"
   d="m 545.40837,294.28873 h 65.57817 c 6.03631,0 10.92942,-4.78682 10.92942,-10.69021 v -64.14293 c 0,-5.9042 -4.89393,-10.69022 -10.92942,-10.69022 h -65.57817 c -6.03631,0 -10.92942,4.78682 -10.92942,10.69022 v 64.14293 c 0,5.90339 4.89393,10.69021 10.92942,10.69021 z"
   id="path1189" /><path
   style="fill:#ffffff;stroke-width:0.81634"
   d="m 605.20858,267.86878 -14.57283,-14.2539 c -0.019,-0.0186 -0.0446,-0.0234 -0.0627,-0.0412 1.36772,-2.79103 2.1981,-5.87837 2.1981,-9.17399 0,-11.78984 -9.80602,-21.38125 -21.85967,-21.38125 -12.05364,0 -21.85966,9.59141 -21.85966,21.38125 0,11.78983 9.80602,21.38123 21.85966,21.38123 3.3702,0 6.52579,-0.8122 9.37928,-2.14998 0.0182,0.0186 0.0231,0.0436 0.0421,0.0613 l 14.57284,14.2539 c 1.42303,1.39269 3.28683,2.08783 5.15146,2.08783 1.86463,0 3.72926,-0.69595 5.15146,-2.08783 2.84688,-2.78377 2.84688,-7.29286 0,-10.07743 z m -34.29713,-16.34173 c -4.0165,0 -7.28683,-3.19794 -7.28683,-7.12734 0,-3.92942 3.2695,-7.12736 7.28683,-7.12736 4.01733,0 7.28683,3.19794 7.28683,7.12736 0,3.9294 -3.27032,7.12734 -7.28683,7.12734 z"
   id="path1191" /><ellipse
   style="fill:#f2f2f2;stroke-width:0.81634"
   cx="494.40302"
   cy="251.52707"
   id="circle1193"
   rx="18.216249"
   ry="17.81757" /><ellipse
   style="fill:#f9f9f9;stroke-width:0.81634"
   cx="443.39771"
   cy="251.52707"
   id="circle1195"
   rx="18.216249"
   ry="17.81757" /><ellipse
   style="fill:#ffffff;stroke-width:0.81634"
   cx="392.84296"
   cy="252.05325"
   id="circle1195-6"
   rx="18.216249"
   ry="17.81757" /></svg>
