<?xml version="1.0" encoding="UTF-8" standalone="no"?>
<!-- Generator: Adobe Illustrator 19.0.0, SVG Export Plug-In . SVG Version: 6.00 Build 0)  -->

<svg
   version="1.1"
   id="Layer_1"
   x="0px"
   y="0px"
   viewBox="0 0 512 512"
   style="enable-background:new 0 0 512 512;"
   xml:space="preserve"
   sodipodi:docname="Search-Experience-Optimization-SXO.svg"
   inkscape:version="1.1 (c68e22c387, 2021-05-23)"
   xmlns:inkscape="http://www.inkscape.org/namespaces/inkscape"
   xmlns:sodipodi="http://sodipodi.sourceforge.net/DTD/sodipodi-0.dtd"
   xmlns="http://www.w3.org/2000/svg"
   xmlns:svg="http://www.w3.org/2000/svg"><defs
   id="defs729" /><sodipodi:namedview
   id="namedview727"
   pagecolor="#ffffff"
   bordercolor="#666666"
   borderopacity="1.0"
   inkscape:pageshadow="2"
   inkscape:pageopacity="0.0"
   inkscape:pagecheckerboard="0"
   showgrid="false"
   inkscape:zoom="1.5332031"
   inkscape:cx="371.44459"
   inkscape:cy="256"
   inkscape:window-width="1920"
   inkscape:window-height="1003"
   inkscape:window-x="-9"
   inkscape:window-y="-9"
   inkscape:window-maximized="1"
   inkscape:current-layer="Layer_1"><inkscape:grid
     type="xygrid"
     id="grid1424" /></sodipodi:namedview>
<rect
   x="229.609"
   y="220.528"
   style="fill:#f9f9f9"
   width="183.399"
   height="291.472"
   id="rect652" />
<rect
   x="229.609"
   style="fill:#2a7fff"
   width="183.399"
   height="183.399"
   id="rect654" />
<path
   style="fill:#2a7fff"
   d="M193.314,328.601V512H9.902v-50.4V328.601H193.314z"
   id="path656" />
<rect
   x="9.902"
   style="fill:#f9f9f9"
   width="183.412"
   height="291.485"
   id="rect658" />
<polygon
   style="fill:#E09B2D;"
   points="120.624,445.844 180.742,512 131.998,512 96.246,472.668 "
   id="polygon660" />
<path
   style="fill:#ffffff"
   d="M136.29,360.074c15.883,0,28.747,12.864,28.747,28.747c0,15.87-12.864,28.747-28.747,28.747  c-15.87,0-28.747-12.877-28.747-28.747C107.543,372.938,120.42,360.074,136.29,360.074z"
   id="path662" />
<polygon
   style="fill:#F7B239;"
   points="96.246,472.668 131.998,512 9.902,512 9.902,461.6 48.036,419.644 "
   id="polygon664" />
<polygon
   style="fill:#ffffff"
   points="330.864,34.388 311.759,34.388 264.953,34.388 264.953,76.419 284.058,76.419   284.058,53.494 311.759,53.494 311.759,131.821 292.654,131.821 292.654,150.927 311.759,150.927 330.864,150.927 349.968,150.927   349.968,131.821 330.864,131.821 330.864,53.494 358.564,53.494 358.564,76.419 377.67,76.419 377.67,34.388 "
   id="polygon666" />
<g
   id="g692">
	<rect
   x="74.864"
   y="34.708"
   style="fill:#808080;"
   width="84.06"
   height="15.284"
   id="rect668" />
	<rect
   x="44.297"
   y="76.064"
   style="fill:#808080;"
   width="114.627"
   height="15.284"
   id="rect670" />
	<rect
   x="44.297"
   y="117.422"
   style="fill:#808080;"
   width="114.627"
   height="15.284"
   id="rect672" />
	<rect
   x="44.297"
   y="158.779"
   style="fill:#808080;"
   width="114.627"
   height="15.284"
   id="rect674" />
	<rect
   x="44.297"
   y="200.136"
   style="fill:#808080;"
   width="114.627"
   height="15.284"
   id="rect676" />
	<rect
   x="44.297"
   y="241.493"
   style="fill:#808080;"
   width="57.314"
   height="15.284"
   id="rect678" />
	<rect
   x="294.568"
   y="255.223"
   style="fill:#808080;"
   width="84.06"
   height="15.284"
   id="rect680" />
	<rect
   x="263.999"
   y="296.58"
   style="fill:#808080;"
   width="114.627"
   height="15.284"
   id="rect682" />
	<rect
   x="263.999"
   y="337.937"
   style="fill:#808080;"
   width="114.627"
   height="15.284"
   id="rect684" />
	<rect
   x="263.999"
   y="379.294"
   style="fill:#808080;"
   width="114.627"
   height="15.284"
   id="rect686" />
	<rect
   x="263.999"
   y="420.651"
   style="fill:#808080;"
   width="114.627"
   height="15.284"
   id="rect688" />
	<rect
   x="263.999"
   y="462.007"
   style="fill:#808080;"
   width="57.314"
   height="15.284"
   id="rect690" />
</g>
<polygon
   style="fill:#f9f9f9"
   points="483.625,50.673 502.098,50.673 475.982,0.001 449.867,50.673 468.34,50.673 468.34,461.329   449.867,461.329 475.982,512 502.098,461.329 483.625,461.329 "
   id="polygon694" />
<g
   id="g696">
</g>
<g
   id="g698">
</g>
<g
   id="g700">
</g>
<g
   id="g702">
</g>
<g
   id="g704">
</g>
<g
   id="g706">
</g>
<g
   id="g708">
</g>
<g
   id="g710">
</g>
<g
   id="g712">
</g>
<g
   id="g714">
</g>
<g
   id="g716">
</g>
<g
   id="g718">
</g>
<g
   id="g720">
</g>
<g
   id="g722">
</g>
<g
   id="g724">
</g>
<path
   style="fill:#e4eaf6"
   d="m 675.00661,307.98715 h -490.376 c -5.971,0 -10.812,-4.841 -10.812,-10.811 v -84.308 c 0,-5.971 4.841,-10.812 10.812,-10.812 h 490.377 c 5.971,0 10.812,4.841 10.812,10.812 v 84.308 c -10e-4,5.97 -4.842,10.811 -10.813,10.811 z"
   id="path1187" /><path
   style="fill:#2a7fff"
   d="m 593.12861,307.98715 h 79.448 c 7.313,0 13.241,-5.929 13.241,-13.241 v -79.448 c 0,-7.313 -5.929,-13.241 -13.241,-13.241 h -79.448 c -7.313,0 -13.241,5.929 -13.241,13.241 v 79.448 c 0,7.312 5.929,13.241 13.241,13.241 z"
   id="path1189" /><path
   style="fill:#ffffff"
   d="m 665.57661,275.26315 -17.655,-17.655 c -0.023,-0.023 -0.054,-0.029 -0.076,-0.051 1.657,-3.457 2.663,-7.281 2.663,-11.363 0,-14.603 -11.88,-26.483 -26.483,-26.483 -14.603,0 -26.483,11.88 -26.483,26.483 0,14.603 11.88,26.483 26.483,26.483 4.083,0 7.906,-1.006 11.363,-2.663 0.022,0.023 0.028,0.054 0.051,0.076 l 17.655,17.655 c 1.724,1.725 3.982,2.586 6.241,2.586 2.259,0 4.518,-0.862 6.241,-2.586 3.449,-3.448 3.449,-9.033 0,-12.482 z m -41.551,-20.241 c -4.866,0 -8.828,-3.961 -8.828,-8.828 0,-4.867 3.961,-8.828 8.828,-8.828 4.867,0 8.828,3.961 8.828,8.828 0,4.867 -3.962,8.828 -8.828,8.828 z"
   id="path1191" /><circle
   style="fill:#f2f2f2"
   cx="531.33557"
   cy="255.02216"
   r="22.069"
   id="circle1193" /><circle
   style="fill:#f9f9f9"
   cx="469.5426"
   cy="255.02216"
   r="22.069"
   id="circle1195" /><circle
   style="fill:#ffffff"
   cx="408.2955"
   cy="255.6739"
   r="22.069"
   id="circle1195-6" /></svg>
