<svg xmlns="http://www.w3.org/2000/svg" xmlns:svg="http://www.w3.org/2000/svg" id="Layer_1" x="0" y="0" version="1.1" viewBox="0 0 512 512" style="enable-background:new 0 0 512 512" xml:space="preserve"><rect x="229.609" y="220.528" style="fill:#f9f9f9" id="rect652" width="183.399" height="291.472"/><rect x="229.609" style="fill:#2a7fff" id="rect654" width="183.399" height="183.399"/><path style="fill:#2a7fff" id="path656" d="M193.314,328.601V512H9.902v-50.4V328.601H193.314z"/><rect x="9.902" style="fill:#f9f9f9" id="rect658" width="183.412" height="291.485"/><polygon style="fill:#e09b2d" id="polygon660" points="120.624 445.844 180.742 512 131.998 512 96.246 472.668"/><path style="fill:#fff" id="path662" d="M136.29,360.074c15.883,0,28.747,12.864,28.747,28.747c0,15.87-12.864,28.747-28.747,28.747 c-15.87,0-28.747-12.877-28.747-28.747C107.543,372.938,120.42,360.074,136.29,360.074z"/><polygon style="fill:#f7b239" id="polygon664" points="96.246 472.668 131.998 512 9.902 512 9.902 461.6 48.036 419.644"/><polygon style="fill:#fff" id="polygon666" points="330.864 34.388 311.759 34.388 264.953 34.388 264.953 76.419 284.058 76.419 284.058 53.494 311.759 53.494 311.759 131.821 292.654 131.821 292.654 150.927 311.759 150.927 330.864 150.927 349.968 150.927 349.968 131.821 330.864 131.821 330.864 53.494 358.564 53.494 358.564 76.419 377.67 76.419 377.67 34.388"/><g id="g692"><rect x="74.864" y="34.708" style="fill:gray" id="rect668" width="84.06" height="15.284"/><rect x="44.297" y="76.064" style="fill:gray" id="rect670" width="114.627" height="15.284"/><rect x="44.297" y="117.422" style="fill:gray" id="rect672" width="114.627" height="15.284"/><rect x="44.297" y="158.779" style="fill:gray" id="rect674" width="114.627" height="15.284"/><rect x="44.297" y="200.136" style="fill:gray" id="rect676" width="114.627" height="15.284"/><rect x="44.297" y="241.493" style="fill:gray" id="rect678" width="57.314" height="15.284"/><rect x="294.568" y="255.223" style="fill:gray" id="rect680" width="84.06" height="15.284"/><rect x="263.999" y="296.58" style="fill:gray" id="rect682" width="114.627" height="15.284"/><rect x="263.999" y="337.937" style="fill:gray" id="rect684" width="114.627" height="15.284"/><rect x="263.999" y="379.294" style="fill:gray" id="rect686" width="114.627" height="15.284"/><rect x="263.999" y="420.651" style="fill:gray" id="rect688" width="114.627" height="15.284"/><rect x="263.999" y="462.007" style="fill:gray" id="rect690" width="57.314" height="15.284"/></g><polygon style="fill:#f9f9f9" id="polygon694" points="483.625 50.673 502.098 50.673 475.982 .001 449.867 50.673 468.34 50.673 468.34 461.329 449.867 461.329 475.982 512 502.098 461.329 483.625 461.329"/><path style="fill:#e4eaf6" id="path1187" d="m 675.00661,307.98715 h -490.376 c -5.971,0 -10.812,-4.841 -10.812,-10.811 v -84.308 c 0,-5.971 4.841,-10.812 10.812,-10.812 h 490.377 c 5.971,0 10.812,4.841 10.812,10.812 v 84.308 c -10e-4,5.97 -4.842,10.811 -10.813,10.811 z"/><path style="fill:#2a7fff" id="path1189" d="m 593.12861,307.98715 h 79.448 c 7.313,0 13.241,-5.929 13.241,-13.241 v -79.448 c 0,-7.313 -5.929,-13.241 -13.241,-13.241 h -79.448 c -7.313,0 -13.241,5.929 -13.241,13.241 v 79.448 c 0,7.312 5.929,13.241 13.241,13.241 z"/><path style="fill:#fff" id="path1191" d="m 665.57661,275.26315 -17.655,-17.655 c -0.023,-0.023 -0.054,-0.029 -0.076,-0.051 1.657,-3.457 2.663,-7.281 2.663,-11.363 0,-14.603 -11.88,-26.483 -26.483,-26.483 -14.603,0 -26.483,11.88 -26.483,26.483 0,14.603 11.88,26.483 26.483,26.483 4.083,0 7.906,-1.006 11.363,-2.663 0.022,0.023 0.028,0.054 0.051,0.076 l 17.655,17.655 c 1.724,1.725 3.982,2.586 6.241,2.586 2.259,0 4.518,-0.862 6.241,-2.586 3.449,-3.448 3.449,-9.033 0,-12.482 z m -41.551,-20.241 c -4.866,0 -8.828,-3.961 -8.828,-8.828 0,-4.867 3.961,-8.828 8.828,-8.828 4.867,0 8.828,3.961 8.828,8.828 0,4.867 -3.962,8.828 -8.828,8.828 z"/><circle style="fill:#f2f2f2" id="circle1193" cx="531.336" cy="255.022" r="22.069"/><circle style="fill:#f9f9f9" id="circle1195" cx="469.543" cy="255.022" r="22.069"/><circle style="fill:#fff" id="circle1195-6" cx="408.296" cy="255.674" r="22.069"/></svg>