<svg xmlns="http://www.w3.org/2000/svg" xmlns:xlink="http://www.w3.org/1999/xlink" width="762" height="689.787" xmlns:v="https://vecta.io/nano"><path d="M690.398 563.201H70.892A40.156 29.944 0 0 1 30.78 533.29V170.46a29.419 21.938 0 0 1 29.385-21.913h640.449a29.928 22.317 0 0 1 29.894 22.292V533.29a40.156 29.944 0 0 1-40.111 29.911z" fill="#ccc"/><path d="M85.746 548.449h588.168a42.231 31.391 0 0 0 42.231-31.391V215.804a42.231 31.391 0 0 0-42.231-31.391H85.746a42.231 31.391 0 0 0-42.231 31.391v301.254a42.231 31.391 0 0 0 42.231 31.391z" fill="#fff"/><path d="M730.735 169.98h-700v-22.484a40.306 44.359 0 0 1 40.272-44.295h619.455a40.306 44.359 0 0 1 40.272 44.295z" fill="#06f"/><g fill="#fff"><ellipse ry="7.75" rx="6.997" cy="136.315" cx="67.693"/><ellipse ry="7.75" rx="6.997" cy="136.315" cx="94.251"/><ellipse ry="7.75" rx="6.997" cy="136.315" cx="120.808"/></g><path fill="#00b0ff" d="M616.659 338.018l.152-5.152a80.797 85.009 0 0 0-80.797-85.009v90.161z"/><path fill="#4d4b69" d="M529.428 346.292v-83.885a80.797 79.091 0 1 0 80.645 83.885z"/><g fill="#ccc"><use xlink:href="#B"/><use xlink:href="#B" y="37.859"/><use xlink:href="#B" y="75.717"/><use xlink:href="#B" y="113.576"/></g><path d="M196.252 414.926h-26.806a4.627 5.574 0 0 1-4.622-5.567v-30.064a4.627 5.574 0 0 1 4.622-5.567h26.806a4.627 5.574 0 0 1 4.622 5.567v30.064a4.627 5.574 0 0 1-4.622 5.567zm60.084 0H229.53a4.627 5.574 0 0 1-4.622-5.567v-67.923a4.627 5.574 0 0 1 4.622-5.567h26.806a4.627 5.574 0 0 1 4.622 5.567v67.923a4.627 5.574 0 0 1-4.622 5.567z" fill="#00b0ff"/><path d="M317.343 414.926h-26.806a4.627 5.574 0 0 1-4.622-5.567V303.578a4.627 5.574 0 0 1 4.622-5.567h26.806a4.627 5.574 0 0 1 4.622 5.567v105.781a4.627 5.574 0 0 1-4.622 5.567z" fill="#0cf"/><path d="M380.199 414.926h-26.806a4.627 5.574 0 0 1-4.622-5.567V266.833a4.627 5.574 0 0 1 4.622-5.567h26.806a4.627 5.574 0 0 1 4.622 5.567v142.526a4.627 5.574 0 0 1-4.622 5.567z" fill="#00b0ff"/><use xlink:href="#B" y="151.434" fill="#3f3d56"/><use xlink:href="#C" fill="#ccc"/><ellipse ry="18.044" rx="18.567" cx="161.756" cy="475.099" fill="#00b0ff"/><use xlink:href="#C" x="166.013" fill="#e6e6e6"/><ellipse ry="18.044" rx="18.567" cx="327.77" cy="475.099" fill="#00b0ff"/><use xlink:href="#C" x="332.026" fill="#ccc"/><ellipse ry="18.044" rx="18.567" cx="493.783" cy="475.099" fill="#00b0ff"/><defs ><path id="B" d="M418.098 263.492h-273.61a.924 1.113 0 0 1 0-2.227h273.61a.924 1.113 0 0 1 0 2.227z"/><path id="C" d="M205.99 470.853a4.915 4.776 0 0 0 0 9.553h68.808a4.915 4.776 0 0 0 0-9.553z"/></defs></svg>