<svg xmlns="http://www.w3.org/2000/svg" width="584.062" height="375.099" viewBox="0 0 154.533 99.245" xmlns:v="https://vecta.io/nano"><defs><linearGradient id="A" x1="105.822" y1="187.316" x2="105.815" y2="167.693" gradientUnits="userSpaceOnUse"><stop stop-color="#fff"/><stop offset="1" stop-color="#eee"/></linearGradient></defs><g transform="translate(-25.26 -83.918)"><path d="M102.527 183.163c42.673 0 77.267-1.658 77.267-3.704s-34.593-3.704-77.267-3.704-77.267 1.658-77.267 3.704 34.593 3.704 77.267 3.704z" fill="url(#A)"/><path d="M148.42 100.31l-22.146 3.745.062 14.122-13.893-6.308-6.623 11.273-.548-.224-38.193-15.105-1.021 21.4-23.752 2.563-.149-1.394 22.557-2.426 1.071-22.159 39.45 15.602 6.647-11.322 13.046 5.935-.062-13.139 21.91-3.695-2.378-12.454 1.369-.261z" fill="#e1e4e5"/><path d="M68.2 104.205c1.282.585 1.843 2.09 1.27 3.359a2.54 2.54 0 0 1-3.373 1.257 2.53 2.53 0 0 1-1.257-3.359 2.528 2.528 0 0 1 3.361-1.257zm-1.755 22.072a2.53 2.53 0 0 1 1.257 3.359 2.54 2.54 0 0 1-3.373 1.257 2.53 2.53 0 0 1-1.258-3.359c.585-1.269 2.092-1.841 3.374-1.257zm40.558-7.241a2.53 2.53 0 0 1 1.257 3.359c-.585 1.281-2.092 1.841-3.361 1.257a2.53 2.53 0 0 1-1.257-3.359c.573-1.281 2.079-1.841 3.361-1.257zm6.349-10.663c1.282.585 1.843 2.09 1.27 3.359a2.542 2.542 0 0 1-3.374 1.257c-1.282-.585-1.843-2.09-1.27-3.359.585-1.269 2.091-1.841 3.373-1.257zm13.134-7.278a2.54 2.54 0 0 1 1.257 3.372c-.585 1.281-2.092 1.841-3.361 1.257a2.53 2.53 0 0 1 2.104-4.628zm22.171-3.658a2.53 2.53 0 0 1 1.257 3.359 2.542 2.542 0 0 1-3.374 1.257 2.54 2.54 0 0 1-1.257-3.372c.585-1.269 2.091-1.829 3.374-1.244zm-2.353-13.288c1.27.585 1.843 2.09 1.27 3.359a2.54 2.54 0 1 1-4.631-2.115 2.54 2.54 0 0 1 3.361-1.244zM43.365 129.462c1.27.572 1.842 2.09 1.257 3.359-.585 1.282-2.092 1.841-3.361 1.257-1.282-.585-1.842-2.09-1.27-3.359.585-1.281 2.091-1.841 3.374-1.256z" fill="#2a7fff"/><path d="M79.088 175.94v-47.508h6.578v47.508zm10.69-.094v-47.428h7.569v47.428zm11.607.094v-56.977h6.883v56.977zm10.996-.094v-31.888h7.569v31.888zm11.607 0v-64.834h6.772v64.834zm10.691 0v-47.428h7.569v47.428zm-61.285-20.952v21.044l-12.88.138.154-21.182zm-19.062-10.998v31.724l-12.877.205.157-31.929z" fill="#e1e4e5" stroke="#e1e4e5" stroke-width="1.058"/><path d="M94.695 160.2h-15.2v16.262h15.2zm-19.874 0h-15.2v16.262h15.2zm-20.087-8.167H39.461v24.436h15.272zm58.087 5.666H99.015v18.763h13.806zm18.088 7.714h-15.187v11.048h15.187z" fill="#666af6"/><g fill="#f8ae9d"><path d="M141.421 110.249c.138 1.062.506 2.343 1.101 2.777.675.494.884 1.018.884 1.018l.687-.212.821-.253-.004-.223a6.058 6.058 0 0 0-.044-.55s-.156-.336.063-.664.32-.886.166-1.277-.185-1.273-.331-1.28c-.352-.02-.111 1.239-.305 1.416-.175.162-.324.058-.351.036l-.005-.004c-.852-.637-1.483-3.152-2.062-2.966-.216.069-.678 1.729-.619 2.182zm34.649 26.137s-.728 1.259-.402 1.985 1.453 1.695 1.744 2.075 1.274 1.382 1.67.737-.303-2.355-.789-3-.53-1.756-.53-1.756z"/><path d="M175.605 138.162l.121 1.758c.066.371.132.258.386.008s.251-.975.346-1.023-.853-.743-.853-.743z"/></g><g fill="#31446c"><path d="M162.877 110.097s-8.488 9.149-11.13 10.583l-6.657-7.858s-1.25.088-2.032 1.141c0 0 2.583 11.083 7.295 12.618s14.32-9.256 14.32-9.256zm-7.914 67.064h8.716c.419-.494.265-2.316.202-2.912l-.022-.189s-2.976-2.298-3.385-.538a2.042 2.042 0 0 1-.044.163c-.515 1.646-2.825 2.394-4.159 2.603-.868.135-1.189.57-1.308.874z"/><path d="M160.831 177.162h8.716c.419-.494.264-2.316.202-2.912l-.022-.189s-2.976-2.298-3.385-.538a1.937 1.937 0 0 1-.044.163c-.515 1.646-2.825 2.394-4.158 2.603-.868.135-1.189.57-1.308.874z"/></g><g fill="#2a7fff"><path d="M157.344 137.972l.907 9.931 1.546 18.123.686 7.735s1.303 1.131 3.911.654c0 0 2.324-6.795 2.988-13.984l.031-.355 1.577-22.73z"/><path d="M159.708 138.281l1.719 9.833 3.027 17.951 1.319 7.66s1.417 1.049 4.034.42c0 0 1.821-6.901 1.92-14.098l.002-.355c.042-7.322-.217-22.72-.217-22.72z"/></g><g fill="#f8ae9d"><path d="M161.058 111.745c2.995.946 7.938-1.721 7.938-1.721s-2.521-1.959-2.377-6.269l-2.316 1.867-1.573 1.267s.006.748.178 2.057c.046.344.129.882-.129 1.158-1.003 1.07-1.721 1.64-1.721 1.64z"/><path d="M161.814 106.819s4.948.822 5.412-2.267 1.416-5.064-1.724-5.719-3.933.43-4.338 1.424-.625 6.269.649 6.562z"/></g><g fill="#31446c"><path d="M156.877 139.571c.09.075.195.12.315.12 1.125-.015 4.405.61 7.181.325 2.339-.225 4.411-.918 6.635-1.914.296-.133.975-.496.96-.826l-.091-1.546c-.158-2.296-.431-6.244-.164-10.799.048-.848.074-1.689.077-2.518.023-6.174-1.201-11.604-3.662-13.442-.211-.15-1.5.48-2.686 1.064-1.095.541-1.954.597-2.989.388l-1.271.917c-1.26 1.17-2.64 2.761-3.241 5.175-.51 2.056-.81 5.761-.975 9.601l-.151 5.16v.059c-.014.165-.014.346-.014.51-.06 4.277 0 7.667.075 7.727z"/><path d="M176.812 137.027c-.939.128-1.941-.004-1.941-.004l-2.575-9.474c-.31-.798-7.611-10.459-7.611-10.459l3.735-7.979s7.655 14.643 8.4 16.682c1.232 3.368 1.299 10.765 1.299 10.765s-.57.369-1.308.469zm-9.03-33.582c-.269.557-1.05.639-.978.025.082-.699.081-1.613-.487-1.444s-.597.625-.831.36-.237-1.385-1.93-1.464-2.38.511-3.166.165c-.471-.207-.675-.717-.763-1.093-.025-.107.053-.255.124-.172s.236.074.188-.018c-.298-.566-.744-1.8.392-2.72 1.52-1.231 3.07-.425 3.949-.372 1.938.117 3.19.233 3.822 1.507.524 1.056.434 3.666-.32 5.227z"/></g><g fill="#e1e4e5"><path d="M99.546 105.375h.037c.216 2.904 2.496 2.948 2.496 2.948s-2.514.047-2.514 3.402c0-3.355-2.514-3.402-2.514-3.402s2.279-.044 2.495-2.948zm-24.467 10.848h.023c.137 2.057 1.576 2.088 1.576 2.088s-1.588.033-1.588 2.41c0-2.376-1.588-2.41-1.588-2.41s1.439-.031 1.576-2.088zm-6.093 22.754h.039c.228 3.025 2.627 3.071 2.627 3.071s-2.646.048-2.646 3.543c0-3.495-2.646-3.543-2.646-3.543s2.398-.047 2.626-3.071zm-36.777 5.027h.039c.228 3.025 2.627 3.071 2.627 3.071s-2.646.048-2.646 3.543c0-3.495-2.646-3.543-2.646-3.543s2.398-.047 2.626-3.071zm22.623-26.723h.036c.216 3.146 2.496 3.194 2.496 3.194s-2.514.05-2.514 3.685c0-3.635-2.514-3.685-2.514-3.685s2.279-.048 2.495-3.194zm83.74-26.723h.039c.228 3.025 2.627 3.071 2.627 3.071s-2.646.048-2.646 3.543c0-3.495-2.646-3.543-2.646-3.543s2.398-.047 2.626-3.071z"/><g transform="rotate(135)"><rect x="92.99" y="-142.12" width="9.108" height="1.061" rx=".53"/><rect x="95.442" y="-139.633" width="3.382" height="1.061" rx=".53"/></g></g></g></svg>