<svg xmlns="http://www.w3.org/2000/svg" xmlns:xlink="http://www.w3.org/1999/xlink" viewBox="0 0 646.259 520.926" width="385" height="305.992" xmlns:v="https://vecta.io/nano"><style><![CDATA[.D{animation:QNbfpNsy_draw_0 7200ms linear 0ms infinite,QNbfpNsy_fade 7200ms linear 0ms infinite}.E{animation:QNbfpNsy_draw_1 7200ms linear 0ms infinite,QNbfpNsy_fade 7200ms linear 0ms infinite}.K{animation:QNbfpNsy_draw_2 7200ms linear 0ms infinite,QNbfpNsy_fade 7200ms linear 0ms infinite}.Q{animation:QNbfpNsy_draw_3 7200ms linear 0ms infinite,QNbfpNsy_fade 7200ms linear 0ms infinite}.AO{animation:QNbfpNsy_draw_4 7200ms linear 0ms infinite,QNbfpNsy_fade 7200ms linear 0ms infinite}.AP{animation:QNbfpNsy_draw_5 7200ms linear 0ms infinite,QNbfpNsy_fade 7200ms linear 0ms infinite}.AS{animation:QNbfpNsy_draw_6 7200ms linear 0ms infinite,QNbfpNsy_fade 7200ms linear 0ms infinite}.AU{animation:QNbfpNsy_draw_7 7200ms linear 0ms infinite,QNbfpNsy_fade 7200ms linear 0ms infinite}.AV{animation:QNbfpNsy_draw_8 7200ms linear 0ms infinite,QNbfpNsy_fade 7200ms linear 0ms infinite}.AW{animation:QNbfpNsy_draw_9 7200ms linear 0ms infinite,QNbfpNsy_fade 7200ms linear 0ms infinite}.AX{animation:QNbfpNsy_draw_10 7200ms linear 0ms infinite,QNbfpNsy_fade 7200ms linear 0ms infinite}.AZ{animation:QNbfpNsy_draw_11 7200ms linear 0ms infinite,QNbfpNsy_fade 7200ms linear 0ms infinite}.Aa{animation:QNbfpNsy_draw_12 7200ms linear 0ms infinite,QNbfpNsy_fade 7200ms linear 0ms infinite}.Ab{animation:QNbfpNsy_draw_13 7200ms linear 0ms infinite,QNbfpNsy_fade 7200ms linear 0ms infinite}.Ac{animation:QNbfpNsy_draw_14 7200ms linear 0ms infinite,QNbfpNsy_fade 7200ms linear 0ms infinite}.Ad{animation:QNbfpNsy_draw_15 7200ms linear 0ms infinite,QNbfpNsy_fade 7200ms linear 0ms infinite}.Ae{animation:QNbfpNsy_draw_16 7200ms linear 0ms infinite,QNbfpNsy_fade 7200ms linear 0ms infinite}.Ah{animation:QNbfpNsy_draw_17 7200ms linear 0ms infinite,QNbfpNsy_fade 7200ms linear 0ms infinite}.Ai{animation:QNbfpNsy_draw_18 7200ms linear 0ms infinite,QNbfpNsy_fade 7200ms linear 0ms infinite}.Aj{animation:QNbfpNsy_draw_19 7200ms linear 0ms infinite,QNbfpNsy_fade 7200ms linear 0ms infinite}.Ak{animation:QNbfpNsy_draw_20 7200ms linear 0ms infinite,QNbfpNsy_fade 7200ms linear 0ms infinite}.Al{animation:QNbfpNsy_draw_21 7200ms linear 0ms infinite,QNbfpNsy_fade 7200ms linear 0ms infinite}.Am{animation:QNbfpNsy_draw_22 7200ms linear 0ms infinite,QNbfpNsy_fade 7200ms linear 0ms infinite}.An{animation:QNbfpNsy_draw_23 7200ms linear 0ms infinite,QNbfpNsy_fade 7200ms linear 0ms infinite}.Ao{animation:QNbfpNsy_draw_24 7200ms linear 0ms infinite,QNbfpNsy_fade 7200ms linear 0ms infinite}.Ap{animation:QNbfpNsy_draw_25 7200ms linear 0ms infinite,QNbfpNsy_fade 7200ms linear 0ms infinite}.As{animation:QNbfpNsy_draw_26 7200ms linear 0ms infinite,QNbfpNsy_fade 7200ms linear 0ms infinite}.Av{animation:QNbfpNsy_draw_27 7200ms linear 0ms infinite,QNbfpNsy_fade 7200ms linear 0ms infinite}.Ay{animation:QNbfpNsy_draw_28 7200ms linear 0ms infinite,QNbfpNsy_fade 7200ms linear 0ms infinite}.Az{animation:QNbfpNsy_draw_29 7200ms linear 0ms infinite,QNbfpNsy_fade 7200ms linear 0ms infinite}.BA{animation:QNbfpNsy_draw_30 7200ms linear 0ms infinite,QNbfpNsy_fade 7200ms linear 0ms infinite}.BB{animation:QNbfpNsy_draw_31 7200ms linear 0ms infinite,QNbfpNsy_fade 7200ms linear 0ms infinite}.BE{animation:QNbfpNsy_draw_32 7200ms linear 0ms infinite,QNbfpNsy_fade 7200ms linear 0ms infinite}.BH{animation:QNbfpNsy_draw_33 7200ms linear 0ms infinite,QNbfpNsy_fade 7200ms linear 0ms infinite}.BK{animation:QNbfpNsy_draw_34 7200ms linear 0ms infinite,QNbfpNsy_fade 7200ms linear 0ms infinite}.BL{animation:QNbfpNsy_draw_35 7200ms linear 0ms infinite,QNbfpNsy_fade 7200ms linear 0ms infinite}.BM{animation:QNbfpNsy_draw_36 7200ms linear 0ms infinite,QNbfpNsy_fade 7200ms linear 0ms infinite}.BN{animation:QNbfpNsy_draw_37 7200ms linear 0ms infinite,QNbfpNsy_fade 7200ms linear 0ms infinite}@keyframes QNbfpNsy_draw{100%{stroke-dashoffset:0}} @keyframes QNbfpNsy_fade{0%{stroke-opacity:1}94.44444444444444%{stroke-opacity:1}100%{stroke-opacity:0}} @keyframes QNbfpNsy_draw_0{11.11111111111111%{stroke-dashoffset:271}38.88888888888889%{stroke-dashoffset:0}100%{stroke-dashoffset:0}} @keyframes QNbfpNsy_draw_1{11.486486486486486%{stroke-dashoffset:105}39.26426426426426%{stroke-dashoffset:0}100%{stroke-dashoffset:0}} @keyframes QNbfpNsy_draw_2{11.861861861861863%{stroke-dashoffset:52}39.63963963963964%{stroke-dashoffset:0}100%{stroke-dashoffset:0}} @keyframes QNbfpNsy_draw_3{12.237237237237236%{stroke-dashoffset:149}40.01501501501501%{stroke-dashoffset:0}100%{stroke-dashoffset:0}} @keyframes QNbfpNsy_draw_4{12.612612612612613%{stroke-dashoffset:1654}40.390390390390394%{stroke-dashoffset:0}100%{stroke-dashoffset:0}} @keyframes QNbfpNsy_draw_5{12.987987987987987%{stroke-dashoffset:1367}40.765765765765764%{stroke-dashoffset:0}100%{stroke-dashoffset:0}} @keyframes QNbfpNsy_draw_6{13.363363363363364%{stroke-dashoffset:258}41.14114114114114%{stroke-dashoffset:0}100%{stroke-dashoffset:0}} @keyframes QNbfpNsy_draw_7{13.738738738738737%{stroke-dashoffset:367}41.51651651651652%{stroke-dashoffset:0}100%{stroke-dashoffset:0}} @keyframes QNbfpNsy_draw_8{14.114114114114114%{stroke-dashoffset:337}41.891891891891895%{stroke-dashoffset:0}100%{stroke-dashoffset:0}} @keyframes QNbfpNsy_draw_9{14.48948948948949%{stroke-dashoffset:269}42.267267267267265%{stroke-dashoffset:0}100%{stroke-dashoffset:0}} @keyframes QNbfpNsy_draw_10{14.864864864864863%{stroke-dashoffset:2262}42.642642642642635%{stroke-dashoffset:0}100%{stroke-dashoffset:0}} @keyframes QNbfpNsy_draw_11{15.24024024024024%{stroke-dashoffset:1547}43.018018018018026%{stroke-dashoffset:0}100%{stroke-dashoffset:0}} @keyframes QNbfpNsy_draw_12{15.615615615615615%{stroke-dashoffset:866}43.393393393393396%{stroke-dashoffset:0}100%{stroke-dashoffset:0}} @keyframes QNbfpNsy_draw_13{15.990990990990989%{stroke-dashoffset:1447}43.768768768768766%{stroke-dashoffset:0}100%{stroke-dashoffset:0}} @keyframes QNbfpNsy_draw_14{16.366366366366368%{stroke-dashoffset:276}44.14414414414414%{stroke-dashoffset:0}100%{stroke-dashoffset:0}} @keyframes QNbfpNsy_draw_15{16.74174174174174%{stroke-dashoffset:161}44.51951951951952%{stroke-dashoffset:0}100%{stroke-dashoffset:0}} @keyframes QNbfpNsy_draw_16{17.117117117117118%{stroke-dashoffset:129}44.8948948948949%{stroke-dashoffset:0}100%{stroke-dashoffset:0}} @keyframes QNbfpNsy_draw_17{17.492492492492495%{stroke-dashoffset:605}45.270270270270274%{stroke-dashoffset:0}100%{stroke-dashoffset:0}} @keyframes QNbfpNsy_draw_18{17.86786786786787%{stroke-dashoffset:249}45.64564564564565%{stroke-dashoffset:0}100%{stroke-dashoffset:0}} @keyframes QNbfpNsy_draw_19{18.243243243243242%{stroke-dashoffset:130}46.02102102102102%{stroke-dashoffset:0}100%{stroke-dashoffset:0}} @keyframes QNbfpNsy_draw_20{18.61861861861862%{stroke-dashoffset:87}46.3963963963964%{stroke-dashoffset:0}100%{stroke-dashoffset:0}} @keyframes QNbfpNsy_draw_21{18.993993993993993%{stroke-dashoffset:105}46.77177177177177%{stroke-dashoffset:0}100%{stroke-dashoffset:0}} @keyframes QNbfpNsy_draw_22{19.36936936936937%{stroke-dashoffset:129}47.147147147147145%{stroke-dashoffset:0}100%{stroke-dashoffset:0}} @keyframes QNbfpNsy_draw_23{19.744744744744747%{stroke-dashoffset:39}47.52252252252253%{stroke-dashoffset:0}100%{stroke-dashoffset:0}} @keyframes QNbfpNsy_draw_24{20.12012012012012%{stroke-dashoffset:32}47.8978978978979%{stroke-dashoffset:0}100%{stroke-dashoffset:0}} @keyframes QNbfpNsy_draw_25{20.495495495495497%{stroke-dashoffset:296}48.273273273273276%{stroke-dashoffset:0}100%{stroke-dashoffset:0}} @keyframes QNbfpNsy_draw_26{20.870870870870874%{stroke-dashoffset:231}48.648648648648646%{stroke-dashoffset:0}100%{stroke-dashoffset:0}} @keyframes QNbfpNsy_draw_27{21.246246246246248%{stroke-dashoffset:166}49.02402402402403%{stroke-dashoffset:0}100%{stroke-dashoffset:0}} @keyframes QNbfpNsy_draw_28{21.62162162162162%{stroke-dashoffset:296}49.3993993993994%{stroke-dashoffset:0}100%{stroke-dashoffset:0}} @keyframes QNbfpNsy_draw_29{21.996996996996995%{stroke-dashoffset:231}49.77477477477477%{stroke-dashoffset:0}100%{stroke-dashoffset:0}} @keyframes QNbfpNsy_draw_30{22.372372372372375%{stroke-dashoffset:166}50.150150150150154%{stroke-dashoffset:0}100%{stroke-dashoffset:0}} @keyframes QNbfpNsy_draw_31{22.74774774774775%{stroke-dashoffset:215}50.52552552552553%{stroke-dashoffset:0}100%{stroke-dashoffset:0}} @keyframes QNbfpNsy_draw_32{23.123123123123122%{stroke-dashoffset:169}50.9009009009009%{stroke-dashoffset:0}100%{stroke-dashoffset:0}} @keyframes QNbfpNsy_draw_33{23.4984984984985%{stroke-dashoffset:120}51.27627627627628%{stroke-dashoffset:0}100%{stroke-dashoffset:0}} @keyframes QNbfpNsy_draw_34{23.873873873873876%{stroke-dashoffset:215}51.651651651651655%{stroke-dashoffset:0}100%{stroke-dashoffset:0}} @keyframes QNbfpNsy_draw_35{24.249249249249246%{stroke-dashoffset:169}52.02702702702703%{stroke-dashoffset:0}100%{stroke-dashoffset:0}} @keyframes QNbfpNsy_draw_36{24.624624624624623%{stroke-dashoffset:120}52.4024024024024%{stroke-dashoffset:0}100%{stroke-dashoffset:0}} @keyframes QNbfpNsy_draw_37{25%{stroke-dashoffset:63}52.77777777777778%{stroke-dashoffset:0}100%{stroke-dashoffset:0}}.BO{opacity:.24}.BP{fill:#4fbefb}.BQ{stroke-width:2.078}.BR{stroke-width:1.449}.BS{fill:#fff}.BT{stroke-dasharray:104 106}.BU{stroke-dashoffset:105}.BV{stroke-dasharray:128 130}.BW{stroke-dashoffset:129}.BX{stroke-dasharray:295 297}.BY{stroke-dashoffset:296}.BZ{stroke-dasharray:230 232}.Ba{stroke-dashoffset:231}.Bb{stroke-dasharray:165 167}.Bc{stroke-dashoffset:166}.Bd{stroke-dasharray:214 216}.Be{stroke-dashoffset:215}.Bf{stroke-dasharray:168 170}.Bg{stroke-dashoffset:169}.Bh{stroke-dasharray:119 121}.Bi{stroke-dashoffset:120}]]></style><defs><linearGradient id="A" x1="486.03" y1="221.36" x2="449.74" y2="315.1" gradientUnits="userSpaceOnUse"><stop offset="0" stop-color="#010101" stop-opacity="0"/><stop offset=".95" stop-color="#010101"/></linearGradient><linearGradient id="B" x1="475.54" y1="295.98" x2="566.26" y2="121.93" gradientUnits="userSpaceOnUse"><stop offset="0" stop-color="#fff" stop-opacity="0"/><stop offset=".95" stop-color="#fff"/></linearGradient><linearGradient id="C" x1="485.73" y1="265.76" x2="502.36" y2="169.38" xlink:href="#B"/><linearGradient id="D" x1="434.189" y1="201.574" x2="443.067" y2="184.589" xlink:href="#A"/><linearGradient id="E" x1="426.771" y1="167.692" x2="455.477" y2="167.692" xlink:href="#B"/><linearGradient id="F" x1="462.82" y1="158.03" x2="483.76" y2="158.03" xlink:href="#A"/><linearGradient id="G" x1="447.78" y1="205.13" x2="468.73" y2="205.13" gradientTransform="matrix(-0.97,-0.24,-0.24,0.97,1017.13,122.17)" xlink:href="#A"/><linearGradient id="H" x1="521.62" y1="265.18" x2="281.23" y2="322.26" xlink:href="#B"/><linearGradient id="I" x1="453.304" y1="148.335" x2="463.061" y2="148.335" xlink:href="#A"/><path id="J" d="M510.03 232.73q-1.28 15.9-7 23-7.37 9.12-20.82 9.14-13 0-20.66-9.34c-5-6.2-7.53-16.27-7.57-30.33a79.16 79.16 0 0 1 2.17-7.73 27.88 27.88 0 0 0 9.18-8.5c3.51-5.19 5.32-11.55 9.71-16 1.49-1.49 3.22-2.78 4.31-4.56a9.14 9.14 0 0 0 1.25-3.78c.36-2.66-.08-5.56-.12-8.3a26.72 26.72 0 0 1 3.94-14.21c8.34.12 16.55 3.9 24.73 5.39 3.58 6-2.66 13.74-.93 20.54.61 2.42 2.22 4.47 2.9 6.89 1.13 4.11-.6 8.13-2.29 12.24a41.35 41.35 0 0 0-1.94 5.68c-1.6 6.62.5 13.4 3.14 19.87z" class="D" stroke-dasharray="270 272" stroke-dashoffset="271"/><path id="K" d="M477.73 140.52c-5.55 5.27-11.31 10.86-13.62 18.16-1.73 5.43-1.36 11.27-1 17 .11 1.53.43 3.37 1.86 3.92 1.62.62 3.2-.94 4.19-2.36 3.36-4.82 6.19-10.19 10.84-13.77a8.74 8.74 0 0 0 2.14-2 7.17 7.17 0 0 0 .81-3.73c.26-7.1.74-14.33.78-21.37-2.38.62-4.16 2.39-6 4.15z" class="E BT BU"/><linearGradient xlink:href="#A" id="L"/><linearGradient xlink:href="#B" id="M"/><path id="N" d="M428.352 192.762s-.406 5.534.712 7.156 8.679 4.773 11.605 3.366a19.792 18.715 0 0 0 4.948-3.528l1.474-5.116z" class="K" stroke-dasharray="51 53" stroke-dashoffset="52"/><path id="O" d="M426.771 183.822s3.225-41.738 20.447-46.309 2.136 55.471 2.136 55.471-22.583 16.285-22.583-9.162z" class="Q" stroke-dasharray="148 150" stroke-dashoffset="149"/></defs><g stroke="#0050ff"><g class="BR"><path d="M599.919 251.004c-9.13 30.534-25.942 58.126-42.194 85.543-7.482 12.55-15.063 25.642-16.678 40.143-1.18 10.767.979 21.667.201 32.451-2.184 30.809-28.645 55.91-58.252 65.16s-61.675 5.533-92.053-.833-60.42-15.301-91.426-16.342c-22.31-.742-44.487 2.584-66.53 6.009-26.729 4.167-54.027 8.334-80.647 3.658S99.418 446.8 89.074 421.891c-12.879-30.976 1.674-67.018-6.277-99.611-2.326-9.651-6.511-18.525-11.457-27.151-3.707-6.509-7.85-12.851-11.959-19.167-7.18-11.109-14.226-22.351-18.57-34.701-11.39-32.384-1.657-71.077 23.758-94.303 46.027-42.117 116.874-27.884 169.88-55.41 58.479-30.401 107.117-63.626 176.407-34.668 19.173 8.025 36.528 19.909 55.776 27.826 16.142 6.667 33.399 10.301 50.01 15.734l1.498.516a188.157 187.372 0 0 1 23.867 9.801c21.759 10.834 41.005 26.242 52.436 47.318 15.248 27.984 14.578 62.385 5.473 92.928z" opacity=".501" fill="#acf" class="AO" stroke-dasharray="1653 1655" stroke-dashoffset="1654"/><path d="M530.16 105.659l-.954 68.51-16.837 9.209-4.268-51.027-170.909 113.336-89.116-73.893L71.342 295.13c-3.707-6.509-7.85-12.851-11.959-19.167l189.872-132.595 89.476 74.26L494.1 117.001c.167.049-44.596-15.591-44.596-15.591 1.322-.942 9.456-10 10.879-11.025l57.742 10.567c8.159 2.717 4.319.884 12.034 4.709z" fill="#2a7fff" opacity=".987" class="AP" stroke-dasharray="1366 1368" stroke-dashoffset="1367"/></g><g transform="matrix(.836848 0 0 .833356 36.093139 45.740421)" class="BQ"><g class="BP"><path class="AS BO" d="M548.97 146.03h82.68a9 9 0 0 1 9 9v17.27a9 9 0 0 1-9 9h-82.68a9 9 0 0 1-9-9v-17.27a9 9 0 0 1 9-9" stroke-dasharray="257 259" stroke-dashoffset="258"/><path class="AU BO" d="M452.61 421.36h116.33a14 14 0 0 1 14 14v22.56a14 14 0 0 1-14 14H452.61a14 14 0 0 1-14-14v-22.56a14 14 0 0 1 14-14" stroke-dasharray="366 368" stroke-dashoffset="367"/><path class="AV BO" d="M73.58 304h107.43a12 12 0 0 1 12 12v22.56a12 12 0 0 1-12 12H73.58a12 12 0 0 1-12-12V316a12 12 0 0 1 12-12" stroke-dasharray="336 338" stroke-dashoffset="337"/><path class="AW BO" d="M113.23 415.5h82.57a10 10 0 0 1 10 10v19.78a10 10 0 0 1-10 10h-82.57a10 10 0 0 1-10-10V425.5a10 10 0 0 1 10-10" stroke-dasharray="268 270" stroke-dashoffset="269"/><path d="M408.46 242.81q0-36.75 18.85-57.22 18.85-20.47 52.51-20.47 34.5 0 53.16 20.11 18.66 20.11 18.67 56.35 0 26.31-8.16 43.15a61 61 0 0 1-23.57 26.2q-15.4 9.33-38.41 9.33-23.37 0-38.69-8.09-15.32-8.09-24.79-25.55-9.57-17.5-9.57-43.81zm42.7.21q0 22.73 7.78 32.65 7.78 9.92 21.16 9.93 13.76 0 21.3-9.73 7.54-9.73 7.54-34.9 0-21.19-7.87-31-7.87-9.81-21.35-9.71a25.1 25.1 0 0 0-20.69 9.9q-7.86 9.93-7.87 32.86zm-320.22 26.41l40.86-2.56q1.33 10 5.41 15.17 6.63 8.45 19 8.44 9.2 0 14.17-4.32 4.97-4.32 5-10 0-5.4-4.74-9.67-4.74-4.27-22-8.06-28.25-6.35-40.29-16.87a33.94 33.94 0 0 1-12.13-26.83 36.44 36.44 0 0 1 6.21-20.24q6.21-9.53 18.67-15 12.46-5.47 34.18-5.45 26.64 0 40.62 9.91 13.98 9.91 16.64 31.52l-40.51 2.39q-1.62-9.39-6.78-13.65-5.16-4.26-14.27-4.27-7.48 0-11.28 3.18a9.73 9.73 0 0 0-3.79 7.73 7.73 7.73 0 0 0 3.13 6q3 2.74 14.41 5.12 28.16 6.06 40.34 12.27 12.18 6.21 17.72 15.41a39 39 0 0 1 5.52 20.54 44.07 44.07 0 0 1-7.4 24.65 46.2 46.2 0 0 1-20.66 17.11q-13.27 5.83-33.47 5.83-35.44 0-49.1-13.65-13.66-13.65-15.46-34.7zm147.61-93h115.09v29.68h-72.05v22.08h66.83v28.35h-66.83v27.4h74.13v31.47H278.55z" opacity=".37" class="AX" stroke-dasharray="2261 2263" stroke-dashoffset="2262"/></g><g class="BS"><path d="M132.08 247.32l40.86-2.56q1.32 10 5.4 15.17 6.65 8.44 19 8.44 9.19 0 14.17-4.32 4.98-4.32 5-10 0-5.4-4.74-9.67-4.74-4.27-22-8.06-28.26-6.35-40.29-16.87a34 34 0 0 1-12.14-26.83 36.44 36.44 0 0 1 6.21-20.24q6.21-9.52 18.68-15 12.47-5.48 34.17-5.45 26.64 0 40.63 9.91 13.99 9.91 16.63 31.52l-40.48 2.37q-1.6-9.39-6.78-13.65-5.18-4.26-14.26-4.27-7.5 0-11.28 3.18a9.73 9.73 0 0 0-3.8 7.72 7.73 7.73 0 0 0 3.13 6q3 2.76 14.41 5.13 28.15 6.06 40.34 12.27 12.19 6.21 17.73 15.41a39.12 39.12 0 0 1 5.54 20.57 44.14 44.14 0 0 1-7.39 24.65 46.29 46.29 0 0 1-20.67 17.11q-13.27 5.84-33.46 5.83-35.46 0-49.11-13.65-13.65-13.65-15.5-34.71zm147.6-93h115.09v29.67h-72.05v22.09h66.84v28.35h-66.84v27.4h74.14v31.43H279.68z" class="AZ" stroke-dasharray="1546 1548" stroke-dashoffset="1547"/><path d="M152.15 358.59h369.62a14 14 0 0 1 14 14v18.87a14 14 0 0 1-14 14H152.15a14 14 0 0 1-14-14v-18.87a14 14 0 0 1 14-14" class="Aa" stroke-dasharray="865 867" stroke-dashoffset="866"/></g></g><g class="BP BR"><path d="M477.379 343.832c-1.606-.63-3.307-.949-5.021-.942h-308.57c-7.597.004-13.76 6.126-13.783 13.693v15.001c.019 7.569 6.183 13.696 13.783 13.7h308.604c7.576-.05 13.703-6.156 13.749-13.7v-15.001c-.004-5.642-3.482-10.704-8.762-12.75zm5.398 27.784c-.013 5.706-4.656 10.329-10.385 10.342H163.788c-5.741 0-10.4-4.625-10.419-10.342v-15.001c.024-5.713 4.682-10.334 10.419-10.334h308.604c5.727.014 10.367 4.631 10.385 10.334z" class="Ab BO" stroke-dasharray="1446 1448" stroke-dashoffset="1447"/><path d="M163.637 367.858c.684.422 1.459.654 2.251.675 1.239 0 1.816-.616 1.816-1.391s-.485-1.25-1.741-1.717c-1.674-.6-2.511-1.525-2.511-2.642 0-1.508 1.221-2.742 3.238-2.742a4.71 4.71 0 0 1 2.31.576l-.427 1.242a3.65 3.65 0 0 0-1.916-.542c-1.012 0-1.573.576-1.573 1.275s.561 1.117 1.782 1.583c1.632.608 2.46 1.425 2.46 2.816 0 1.666-1.28 2.8-3.506 2.8a5.4 5.4 0 0 1-2.637-.641zm8.887-2.626a2.99 2.99 0 0 0 .847 2.341 3.01 3.01 0 0 0 2.332.893c.892.031 1.781-.135 2.602-.483l.293 1.217c-.993.414-2.055.613-3.122.583-2.895 0-4.619-1.892-4.619-4.716s1.674-5 4.402-5c3.063 0 3.874 2.684 3.874 4.4a7.23 7.23 0 0 1-.051.792zm5.021-1.217c0-1.083-.451-2.758-2.369-2.758-1.724 0-2.511 1.575-2.619 2.758zm8.896 5.576l-.134-1.175h-.059a3.51 3.51 0 0 1-2.87 1.391 2.68 2.68 0 0 1-2.025-.716c-.539-.496-.848-1.214-.845-1.968 0-2.258 2.017-3.492 5.641-3.475v-.183a1.92 1.92 0 0 0-.534-1.598c-.425-.427-1.008-.634-1.592-.568-.859.001-1.702.242-2.444.699l-.394-1.125c.932-.558 2.001-.847 3.088-.833 2.87 0 3.565 1.95 3.565 3.816v3.5a13.03 13.03 0 0 0 .15 2.233zm-.252-4.767c-1.858-.042-3.975.292-3.975 2.108-.035.436.122.865.431 1.176a1.51 1.51 0 0 0 1.175.441c1.017.03 1.935-.602 2.267-1.559a1.79 1.79 0 0 0 .1-.542zm4.394-1.659l-.075-2.917h1.489l.059 1.833h.075c.333-1.17 1.382-1.994 2.602-2.041a1.74 1.74 0 0 1 .485.058v1.601a2.4 2.4 0 0 0-.585-.058 2.39 2.39 0 0 0-2.285 2.184 4.38 4.38 0 0 0-.075.792v5h-1.674zm12.829 6.083a6.26 6.26 0 0 1-2.694.542c-2.828 0-4.67-1.916-4.67-4.775-.058-1.356.456-2.671 1.403-3.591.957-.946 2.272-1.442 3.618-1.368a5.75 5.75 0 0 1 2.369.483l-.394 1.317a3.93 3.93 0 0 0-1.975-.451c-2.151 0-3.348 1.583-3.348 3.533-.083.906.223 1.805.845 2.472a3.23 3.23 0 0 0 2.411 1.027 4.9 4.9 0 0 0 2.092-.467zm1.991-13.358h1.674v5.833a3.24 3.24 0 0 1 1.221-1.2 3.6 3.6 0 0 1 1.749-.475c1.264 0 3.272.766 3.272 3.992v5.558h-1.674v-5.366c0-1.5-.561-2.775-2.168-2.775-1.039.017-1.955.685-2.285 1.666a1.97 1.97 0 0 0-.118.833v5.634H205.4z" opacity=".56" class="Ac" stroke-dasharray="275 277" stroke-dashoffset="276"/><path d="M486.141 356.583v15.001a13.51 13.51 0 0 1-5.489 10.908h-40.168v-38.66h36.905c5.277 2.049 8.751 7.111 8.753 12.75z" class="Ad" stroke-dasharray="160 162" stroke-dashoffset="161"/></g><g class="BR BS"><path d="M458.208 370.832c-4.784.004-9.099-2.865-10.932-7.265a11.74 11.74 0 0 1 2.561-12.836c3.383-3.368 8.471-4.376 12.89-2.551s7.299 6.121 7.296 10.886c-.014 6.493-5.297 11.753-11.817 11.768zm0-20.267c-3.453-.004-6.568 2.066-7.892 5.241s-.596 6.833 1.845 9.266 6.112 3.162 9.304 1.847 5.271-4.416 5.272-7.855c0-4.69-3.817-8.496-8.528-8.501z" class="Ae BV BW"/><path d="M462.381 367.314l2.783-2.192 7.844 9.876-2.783 2.192zm20.463-179.578q-15.281-15.75-43.441-15.776-27.508 0-42.939 16.042c-10.243 10.741-15.406 25.676-15.406 44.909q0 20.642 7.791 34.368 7.791 13.726 20.319 20.068 12.494 6.35 31.616 6.342 18.803 0 31.374-7.351c8.301-4.814 14.995-11.956 19.248-20.534q6.611-13.251 6.637-33.868.016-28.384-15.197-44.201zM415.98 233.08q0-18.025 6.369-25.776c3.855-4.835 9.701-7.671 15.9-7.717a5.48 5.48 0 0 1 1.046-.067q11.004 0 17.456 7.65c2.575 3.279 4.33 7.12 5.121 11.208.927 4.302 1.368 8.693 1.314 13.092 0 2.95-.1 5.667-.301 8.217q-1.071 13.251-5.858 19.167-6.168 7.601-17.424 7.617-10.879 0-17.29-7.784c-4.185-5.167-6.302-13.559-6.334-25.276z" class="Ah" stroke-dasharray="604 606" stroke-dashoffset="605"/></g><use xlink:href="#J" transform="matrix(.836848 0 0 .833356 36.093139 45.740421)" class="BP BQ"/><g transform="matrix(.836848 0 0 .833356 34.44455 5.95604)" class="BQ"><use xlink:href="#J" x="1.97" y="47.74" fill="url(#L)"/><path d="M506.89 283.07q-1 15.89-5.25 23c-3.68 6.08-8.87 9.15-15.6 9.15q-9.78 0-15.48-9.35c-3.74-6.2-5.64-16.27-5.67-30.32q.67-4 1.63-7.73a25.16 25.16 0 0 0 6.88-8.5c2.62-5.2 4-11.56 7.27-16a26.11 26.11 0 0 0 3.23-4.55 11.46 11.46 0 0 0 .93-3.79 76.65 76.65 0 0 0-.09-8.29 33.79 33.79 0 0 1 3-14.22c6.24.12 12.4 3.91 18.52 5.4 2.69 6-2 13.73-.69 20.54.45 2.41 1.66 4.47 2.17 6.88.85 4.11-.45 8.14-1.72 12.25a53.49 53.49 0 0 0-1.45 5.67c-1.21 6.61.36 13.41 2.32 19.86z" fill="url(#M)" class="Ai" stroke-dasharray="248 250" stroke-dashoffset="249"/><path d="M486.64 243.89l1.3-1.45a31.82 31.82 0 0 1-7 20.75c-2.17 2.68-4.87 5.16-5.71 8.51a39.79 39.79 0 0 0 17.16-25.7c.7-3.71 1-7.77 3.36-10.7l.49 5.11a104.84 104.84 0 0 0 5.37-12.24c.3-.81.54-1.85-.11-2.42a2.24 2.24 0 0 0-1.27-.41c-4-.39-8.44-1.72-10.5 2.34-2.35 4.66-2.89 11.11-3.09 16.21z" fill="url(#C)" class="Aj" stroke-dasharray="129 131" stroke-dashoffset="130"/></g><g transform="matrix(1.175439 0 0 1.237912 -63.369489 -55.594813)" stroke-width=".996"><use xlink:href="#N" class="BP"/><use xlink:href="#N" fill="url(#D)"/><use xlink:href="#O" class="BP"/><use xlink:href="#O" fill="url(#E)"/></g><g transform="matrix(.836848 0 0 .833356 36.093139 45.740421)" class="BQ"><use xlink:href="#K" class="BP"/><use xlink:href="#K" fill="url(#F)"/></g><path d="M472.283 168.211c3.473 5.366 7.047 11.034 7.482 17.393.327 4.741-1.138 9.401-2.578 13.925-.384 1.217-1.012 2.642-2.285 2.809-1.448.183-2.419-1.391-2.946-2.742-1.774-4.558-3.013-9.466-6.084-13.284a7.372 7.342 0 0 1-1.347-2.017 6.109 6.083 0 0 1 .075-3.184l3.606-17.5c1.833 1.034 2.929 2.816 4.075 4.6z" class="Ak BP BR" stroke-dasharray="86 88" stroke-dashoffset="87"/><g transform="matrix(.836848 0 0 .833356 34.44455 5.95604)" class="BQ"><path d="M523.17 194.88c4.14 6.43 8.41 13.23 8.93 20.87.39 5.68-1.35 11.27-3.08 16.71-.46 1.46-1.21 3.17-2.73 3.36-1.72.22-2.89-1.67-3.52-3.29-2.12-5.47-3.6-11.35-7.26-15.93a8.59 8.59 0 0 1-1.61-2.42 7.19 7.19 0 0 1 .08-3.82l4.31-21c2.2 1.24 3.5 3.38 4.88 5.52z" fill="url(#G)" class="Al BT BU"/><path d="M495.72 248.4a33 33 0 0 0-2.42 7.78c-.36 2.66-.06 5.37-.3 8-.47 5.42-3.08 10.39-4.53 15.64-2.06 7.48-1.71 15.38-1.34 23.12L496 274.4a44.59 44.59 0 0 0 2-8 62.5 62.5 0 0 0-.05-9.28 93.07 93.07 0 0 1 1.1-16.17c-1.53 2.13-2.34 4.99-3.33 7.45z" fill="url(#H)" class="Am BV BW"/></g><g class="BR"><path class="An BP" d="M452.232 148.351a5.992 5.967 0 1 1 11.984 0 5.992 5.967 0 1 1-11.984 0" stroke-dasharray="38 40" stroke-dashoffset="39"/><path fill="url(#I)" d="M453.303 148.335a4.879 4.859 0 1 1 9.758 0 4.879 4.859 0 1 1-9.758 0" class="Ao" stroke-dasharray="31 33" stroke-dashoffset="32"/><path class="Ap BS BX BY" d="M418.696 403.209h94.087a11 11 0 0 1 11 11v18.493a11 11 0 0 1-11 11h-94.087a11 11 0 0 1-11-11v-18.493a11 11 0 0 1 11-11"/></g><g transform="matrix(.836848 0 0 .833356 36.093139 45.740421)" class="BP BQ"><path class="As BO BZ Ba" d="M460.41 442.27h108.33a2 2 0 0 1 2 2v.18a2 2 0 0 1-2 2H460.41a2 2 0 0 1-2-2v-.18a2 2 0 0 1 2-2"/><path class="Av BO Bb Bc" d="M459.41 453.83h77.06a1 1 0 0 1 1 1v1.95a1 1 0 0 1-1 1h-77.06a1 1 0 0 1-1-1v-1.95a1 1 0 0 1 1-1"/></g><path class="Ay BR BS BX BY" d="M88.215 290.305h94.087a11 11 0 0 1 11 11v18.493a11 11 0 0 1-11 11H88.215a11 11 0 0 1-11-11v-18.493a11 11 0 0 1 11-11"/><g transform="matrix(.836848 0 0 .833356 36.093139 45.740421)" class="BP BQ"><path class="Az BO BZ Ba" d="M65.51 306.79h108.33a2 2 0 0 1 2 2v.18a2 2 0 0 1-2 2H65.51a2 2 0 0 1-2-2v-.18a2 2 0 0 1 2-2"/><path class="BA BO Bb Bc" d="M64.51 318.35h77.06a1 1 0 0 1 1 1v1.95a1 1 0 0 1-1 1H64.51a1 1 0 0 1-1-1v-1.95a1 1 0 0 1 1-1"/></g><path class="BB BR BS Bd Be" d="M128.473 396.2h68.254a8 8 0 0 1 8 8v13.393a8 8 0 0 1-8 8h-68.254a8 8 0 0 1-8-8V404.2a8 8 0 0 1 8-8"/><g transform="matrix(.836848 0 0 .833356 36.093139 45.740421)" class="BP BQ"><path class="BE BO Bf Bg" d="M112.26 430.21h79.53a1 1 0 0 1 1 1v1.03a1 1 0 0 1-1 1h-79.53a1 1 0 0 1-1-1v-1.03a1 1 0 0 1 1-1"/><path class="BH BO Bh Bi" d="M112.26 438.6h55.39a1 1 0 0 1 1 1v.87a1 1 0 0 1-1 1h-55.39a1 1 0 0 1-1-1v-.87a1 1 0 0 1 1-1"/></g><path class="BK BR BS Bd Be" d="M498.736 158.301h68.254a8 8 0 0 1 8 8v13.393a8 8 0 0 1-8 8h-68.254a8 8 0 0 1-8-8v-13.393a8 8 0 0 1 8-8"/><g transform="matrix(.836848 0 0 .833356 36.093139 45.740421)" class="BP BQ"><path class="BL BO Bf Bg" d="M554.71 144.74h79.53a1 1 0 0 1 1 1v1.03a1 1 0 0 1-1 1h-79.53a1 1 0 0 1-1-1v-1.03a1 1 0 0 1 1-1"/><path class="BM BO Bh Bi" d="M554.71 153.13h55.39a1 1 0 0 1 1 1v.87a1 1 0 0 1-1 1h-55.39a1 1 0 0 1-1-1v-.87a1 1 0 0 1 1-1"/><path d="M216.01 365.39h1.51v29.48h-1.51z" class="BN BO" stroke-dasharray="62 64" stroke-dashoffset="63"/></g></g></svg>