<svg xmlns="http://www.w3.org/2000/svg" xmlns:xlink="http://www.w3.org/1999/xlink" id="visual" width="900" height="600" version="1.1" viewBox="0 0 900 600"><path fill="#000" d="M0 55L82 127L164 157L245 55L327 163L409 61L491 91L573 85L655 151L736 103L818 133L900 157L900 0L818 0L736 0L655 0L573 0L491 0L409 0L327 0L245 0L164 0L82 0L0 0Z"/><path fill="#00009e" d="M0 169L82 229L164 349L245 343L327 361L409 163L491 259L573 313L655 343L736 277L818 241L900 337L900 155L818 131L736 101L655 149L573 83L491 89L409 59L327 161L245 53L164 155L82 125L0 53Z"/><path fill="#001bc2" d="M0 211L82 349L164 397L245 415L327 415L409 229L491 301L573 409L655 439L736 331L818 313L900 379L900 335L818 239L736 275L655 341L573 311L491 257L409 161L327 359L245 341L164 347L82 227L0 167Z"/><path fill="#0432df" d="M0 301L82 415L164 439L245 487L327 487L409 319L491 397L573 499L655 481L736 427L818 409L900 421L900 377L818 311L736 329L655 437L573 407L491 299L409 227L327 413L245 413L164 395L82 347L0 209Z"/><path fill="#0048fd" d="M0 601L82 601L164 601L245 601L327 601L409 601L491 601L573 601L655 601L736 601L818 601L900 601L900 419L818 407L736 425L655 479L573 497L491 395L409 317L327 485L245 485L164 437L82 413L0 299Z"/></svg>