<?xml version="1.0" encoding="UTF-8" standalone="no"?>
<!-- Created with Inkscape (http://www.inkscape.org/) -->

<svg
   width="174.79449mm"
   height="110.69195mm"
   viewBox="0 0 174.79449 110.69195"
   version="1.1"
   id="svg89353"
   inkscape:version="1.1.1 (3bf5ae0d25, 2021-09-20)"
   sodipodi:docname="Static assets-bro v2.svg"
   xmlns:inkscape="http://www.inkscape.org/namespaces/inkscape"
   xmlns:sodipodi="http://sodipodi.sourceforge.net/DTD/sodipodi-0.dtd"
   xmlns="http://www.w3.org/2000/svg"
   xmlns:svg="http://www.w3.org/2000/svg">
  <sodipodi:namedview
     id="namedview89355"
     pagecolor="#ffffff"
     bordercolor="#666666"
     borderopacity="1.0"
     inkscape:pageshadow="2"
     inkscape:pageopacity="0.0"
     inkscape:pagecheckerboard="0"
     inkscape:document-units="mm"
     showgrid="false"
     inkscape:zoom="0.72515432"
     inkscape:cx="338.54863"
     inkscape:cy="284.76697"
     inkscape:window-width="1920"
     inkscape:window-height="1003"
     inkscape:window-x="-9"
     inkscape:window-y="-9"
     inkscape:window-maximized="1"
     inkscape:current-layer="layer1" />
  <defs
     id="defs89350" />
  <g
     inkscape:label="Layer 1"
     inkscape:groupmode="layer"
     id="layer1"
     transform="translate(-15.494644,-73.45132)">
    <path
       d="M 181.45933,183.83013 H 24.396841 c -4.79293,0 -8.51667,-3.67464 -8.51667,-7.99793 V 82.312411 c 0,-4.323289 3.72374,-7.997936 8.51667,-7.997936 H 181.45933 c 4.79292,0 8.51667,3.674647 8.51667,7.997936 V 175.8322 c 0,4.32329 -3.72375,7.99793 -8.51667,7.99793 z"
       fill="#ffffff"
       stroke="#E1E4E5"
       stroke-width="4"
       id="path15807"
       style="stroke:#c2c5c6;stroke-width:0.626282;stroke-miterlimit:4;stroke-dasharray:none;stroke-opacity:1" />
    <path
       d="m 42.947141,121.6905 c -2.8874,0 -5.2279,-2.34077 -5.2279,-5.22817 0,-2.88739 2.3405,-5.2279 5.2279,-5.2279 2.8874,0 5.22817,2.34051 5.22817,5.2279 0,2.8874 -2.34077,5.22817 -5.22817,5.22817 z"
       fill="#ffffff"
       id="path15811"
       style="stroke:#c2c5c6;stroke-width:0.0330729;stroke-miterlimit:4;stroke-dasharray:none;stroke-opacity:1" />
    <path
       d="M 189.78891,84.926299 H 15.693081 V 82.16643 c 0,-4.702969 3.8137,-8.516673 8.51667,-8.516673 H 181.27224 c 4.70297,0 8.51667,3.813704 8.51667,8.516673 z"
       fill="#ffffff"
       stroke="#E1E4E5"
       stroke-width="4"
       id="path15813"
       style="stroke:#c2c5c6;stroke-width:0.396875;stroke-miterlimit:4;stroke-dasharray:none;stroke-opacity:1" />
    <path
       d="m 23.851981,82.188475 a 1.9425708,1.9425708 0 1 0 0,-3.885141 1.9425708,1.9425708 0 0 0 0,3.885141 z m 8.0944,0 a 1.9427031,1.9427031 0 1 0 -2.7e-4,-3.885406 1.9427031,1.9427031 0 0 0 2.7e-4,3.885406 z m 7.77055,0 a 1.9425708,1.9425708 0 1 0 0,-3.885141 1.9425708,1.9425708 0 0 0 0,3.885141 z"
       fill="#E1E4E5"
       id="path15815"
       style="fill:#2a7fff;stroke:#c2c5c6;stroke-width:0.0330729;stroke-miterlimit:4;stroke-dasharray:none;stroke-opacity:1" />
    <rect
       x="96.617668"
       y="123.78922"
       width="38.138607"
       height="3.7073636"
       rx="1.011251"
       fill="#e1e4e5"
       id="rect15817"
       style="stroke:#c2c5c6;stroke-width:0.024449;stroke-miterlimit:4;stroke-dasharray:none;stroke-opacity:1" />
    <rect
       x="96.617668"
       y="134.11688"
       width="38.138607"
       height="3.7073636"
       rx="1.011251"
       fill="#e1e4e5"
       id="rect15821"
       style="fill:#ececec;stroke:#c2c5c6;stroke-width:0.024449;stroke-miterlimit:4;stroke-dasharray:none;stroke-opacity:1" />
    <rect
       x="96.415977"
       y="143.23163"
       width="39.024895"
       height="3.441612"
       rx="1.0187221"
       fill="#E1E4E5"
       id="rect15825"
       style="fill:#0055d4;stroke:#c2c5c6;stroke-width:0.025462;stroke-miterlimit:4;stroke-dasharray:none;stroke-opacity:1" />
    <g
       id="freepik--Icons--inject-531"
       transform="matrix(0.26458333,0,0,0.26458333,-15.603689,58.781717)"
       style="stroke:#c2c5c6;stroke-width:0.5;stroke-miterlimit:4;stroke-dasharray:none;stroke-opacity:1">
      <rect
         x="264.85001"
         y="237.24001"
         width="94"
         height="94"
         rx="7.2399998"
         style="fill:#263238;stroke:#c2c5c6;stroke-width:0.5;stroke-miterlimit:4;stroke-dasharray:none;stroke-opacity:1"
         id="rect63613" />
      <path
         d="m 356.12,283 -15.55,-21.9 -24.09,36.74 -24.48,-9.48 -20.58,34.39 a 4.23,4.23 0 0 0 3.63,6.4 h 73.84 a 7.24,7.24 0 0 0 7.24,-7.24 z"
         style="fill:#2a7fff;stroke:#c2c5c6;stroke-width:0.5;stroke-miterlimit:4;stroke-dasharray:none;stroke-opacity:1"
         id="path63615" />
      <circle
         cx="289.51001"
         cy="258.59"
         r="10.06"
         style="fill:#ffffff;stroke:#c2c5c6;stroke-width:0.5;stroke-miterlimit:4;stroke-dasharray:none;stroke-opacity:1"
         id="circle63617" />
      <path
         d="m 307.38,320.3 a 1.94,1.94 0 0 1 3.87,0 1.94,1.94 0 1 1 -3.87,0 z"
         style="fill:#ffffff;stroke:#c2c5c6;stroke-width:0.5;stroke-miterlimit:4;stroke-dasharray:none;stroke-opacity:1"
         id="path63619" />
      <path
         d="m 325.06,316.73 a 5.22,5.22 0 0 1 -5.35,5.53 4.17,4.17 0 0 1 -3.23,-1.3 v 5 h -3.11 v -14.6 h 3 v 1.23 a 4.2,4.2 0 0 1 3.37,-1.39 5.21,5.21 0 0 1 5.32,5.53 z m -3.15,0 a 2.74,2.74 0 1 0 -2.73,3 2.71,2.71 0 0 0 2.73,-3 z"
         style="fill:#ffffff;stroke:#c2c5c6;stroke-width:0.5;stroke-miterlimit:4;stroke-dasharray:none;stroke-opacity:1"
         id="path63621" />
      <path
         d="m 338.12,316 v 6.15 H 335 v -5.67 c 0,-1.74 -0.8,-2.54 -2.17,-2.54 -1.37,0 -2.58,0.92 -2.58,2.9 v 5.31 h -3.11 v -10.79 h 3 v 1.25 a 4.74,4.74 0 0 1 3.56,-1.41 c 2.5,0 4.42,1.47 4.42,4.8 z"
         style="fill:#ffffff;stroke:#c2c5c6;stroke-width:0.5;stroke-miterlimit:4;stroke-dasharray:none;stroke-opacity:1"
         id="path63623" />
      <path
         d="m 352.13,311.36 v 8.94 c 0,4 -2.16,5.83 -6,5.83 a 8.83,8.83 0 0 1 -5.27,-1.48 l 1.24,-2.23 a 6.44,6.44 0 0 0 3.79,1.21 c 2.19,0 3.15,-1 3.15,-2.93 v -0.46 a 4.41,4.41 0 0 1 -3.39,1.34 5.19,5.19 0 1 1 0,-10.38 4.32,4.32 0 0 1 3.55,1.53 v -1.37 z m -3.08,5 a 2.83,2.83 0 1 0 -2.81,2.63 2.61,2.61 0 0 0 2.81,-2.6 z"
         style="fill:#ffffff;stroke:#c2c5c6;stroke-width:0.5;stroke-miterlimit:4;stroke-dasharray:none;stroke-opacity:1"
         id="path63625" />
      <rect
         x="149.11"
         y="237.24001"
         width="94"
         height="94"
         rx="7.2399998"
         style="fill:#263238;stroke:#c2c5c6;stroke-width:0.5;stroke-miterlimit:4;stroke-dasharray:none;stroke-opacity:1"
         id="rect63627" />
      <path
         d="m 240.38,283 -15.55,-21.9 -24.09,36.74 -24.49,-9.48 -20.58,34.39 a 4.23,4.23 0 0 0 3.62,6.4 h 73.85 a 7.24,7.24 0 0 0 7.24,-7.24 z"
         style="fill:#ffffff;stroke:#c2c5c6;stroke-width:0.5;stroke-miterlimit:4;stroke-dasharray:none;stroke-opacity:1"
         id="path63629" />
      <circle
         cx="173.77"
         cy="258.59"
         r="10.06"
         style="fill:#0066ff;stroke:#c2c5c6;stroke-width:0.5;stroke-miterlimit:4;stroke-dasharray:none;stroke-opacity:1"
         id="circle63631" />
      <path
         d="m 196.25,320.39 a 2.13,2.13 0 0 1 4.26,0 2.13,2.13 0 1 1 -4.26,0 z"
         style="fill:#263238;stroke:#c2c5c6;stroke-width:0.5;stroke-miterlimit:4;stroke-dasharray:none;stroke-opacity:1"
         id="path63633" />
      <path
         d="m 199.44,326.14 0.92,-2.48 a 2.54,2.54 0 0 0 1.45,0.42 c 0.85,0 1.4,-0.55 1.4,-1.71 v -11.81 h 3.42 v 11.78 a 4.09,4.09 0 0 1 -4.45,4.46 5,5 0 0 1 -2.74,-0.66 z M 202.79,307 a 2,2 0 0 1 2.13,-1.91 1.92,1.92 0 0 1 2.13,1.84 2.14,2.14 0 0 1 -4.26,0.07 z"
         style="fill:#263238;stroke:#c2c5c6;stroke-width:0.5;stroke-miterlimit:4;stroke-dasharray:none;stroke-opacity:1"
         id="path63635" />
      <path
         d="m 222.65,316.46 a 5.73,5.73 0 0 1 -5.88,6.08 4.56,4.56 0 0 1 -3.55,-1.43 v 5.51 h -3.42 v -16.06 h 3.26 v 1.36 a 4.6,4.6 0 0 1 3.71,-1.53 5.73,5.73 0 0 1 5.88,6.07 z m -3.46,0 a 3,3 0 1 0 -3,3.27 3,3 0 0 0 3,-3.27 z"
         style="fill:#263238;stroke:#c2c5c6;stroke-width:0.5;stroke-miterlimit:4;stroke-dasharray:none;stroke-opacity:1"
         id="path63637" />
      <path
         d="m 237.12,310.56 v 9.83 c 0,4.39 -2.37,6.41 -6.63,6.41 a 9.68,9.68 0 0 1 -5.79,-1.63 l 1.36,-2.45 a 7.06,7.06 0 0 0 4.17,1.34 c 2.41,0 3.46,-1.1 3.46,-3.23 v -0.51 a 4.85,4.85 0 0 1 -3.69,1.48 5.71,5.71 0 1 1 0,-11.41 4.74,4.74 0 0 1 3.91,1.68 v -1.51 z m -3.38,5.53 a 3.11,3.11 0 1 0 -3.1,2.9 2.88,2.88 0 0 0 3.1,-2.9 z"
         style="fill:#263238;stroke:#c2c5c6;stroke-width:0.5;stroke-miterlimit:4;stroke-dasharray:none;stroke-opacity:1"
         id="path63639" />
      <path
         d="m 206.81,214.7 v -79.52 a 7.24,7.24 0 0 1 7.24,-7.24 h 79.52 a 7.24,7.24 0 0 1 7.24,7.24 v 79.52 a 7.24,7.24 0 0 1 -7.24,7.24 h -79.52 a 7.24,7.24 0 0 1 -7.24,-7.24 z"
         style="fill:#0055d4;stroke:#c2c5c6;stroke-width:0.5;stroke-miterlimit:4;stroke-dasharray:none;stroke-opacity:1"
         id="path63641" />
      <path
         d="m 224.52,182.9 a 3.08,3.08 0 0 1 6.15,0 3.08,3.08 0 1 1 -6.15,0 z"
         style="fill:#ffffff;stroke:#c2c5c6;stroke-width:0.5;stroke-miterlimit:4;stroke-dasharray:none;stroke-opacity:1"
         id="path63643" />
      <path
         d="m 232.53,177.23 c 0,-5.13 4,-8.77 9.5,-8.77 3.58,0 6.4,1.55 7.63,4.33 l -3.83,2.06 a 4.26,4.26 0 0 0 -3.83,-2.34 4.73,4.73 0 0 0 0,9.44 4.19,4.19 0 0 0 3.83,-2.35 l 3.83,2.09 c -1.23,2.73 -4,4.31 -7.63,4.31 -5.54,0 -9.5,-3.64 -9.5,-8.77 z"
         style="fill:#ffffff;stroke:#c2c5c6;stroke-width:0.5;stroke-miterlimit:4;stroke-dasharray:none;stroke-opacity:1"
         id="path63645" />
      <path
         d="m 250.87,184.16 1.64,-3.54 a 11.66,11.66 0 0 0 5.92,1.64 c 2.28,0 3.14,-0.6 3.14,-1.55 0,-2.79 -10.29,0.06 -10.29,-6.74 0,-3.23 2.91,-5.51 7.88,-5.51 a 14,14 0 0 1 6.56,1.48 l -1.65,3.52 a 9.8,9.8 0 0 0 -4.91,-1.27 c -2.21,0 -3.16,0.7 -3.16,1.59 0,2.91 10.29,0.09 10.29,6.8 0,3.17 -3,5.42 -8.05,5.42 a 14.53,14.53 0 0 1 -7.37,-1.84 z"
         style="fill:#ffffff;stroke:#c2c5c6;stroke-width:0.5;stroke-miterlimit:4;stroke-dasharray:none;stroke-opacity:1"
         id="path63647" />
      <path
         d="m 267.68,184.16 1.64,-3.54 a 11.7,11.7 0 0 0 5.93,1.64 c 2.28,0 3.13,-0.6 3.13,-1.55 0,-2.79 -10.29,0.06 -10.29,-6.74 0,-3.23 2.91,-5.51 7.88,-5.51 a 14,14 0 0 1 6.56,1.48 l -1.65,3.52 a 9.78,9.78 0 0 0 -4.91,-1.27 c -2.21,0 -3.16,0.7 -3.16,1.59 0,2.91 10.29,0.09 10.29,6.8 0,3.17 -3,5.42 -8,5.42 a 14.55,14.55 0 0 1 -7.42,-1.84 z"
         style="fill:#ffffff;stroke:#c2c5c6;stroke-width:0.5;stroke-miterlimit:4;stroke-dasharray:none;stroke-opacity:1"
         id="path63649" />
      <path
         d="M 206.81,433.49 V 354 a 7.24,7.24 0 0 1 7.24,-7.24 h 79.52 a 7.24,7.24 0 0 1 7.24,7.24 v 79.52 a 7.24,7.24 0 0 1 -7.24,7.24 h -79.52 a 7.24,7.24 0 0 1 -7.24,-7.27 z"
         style="fill:#0066ff;stroke:#c2c5c6;stroke-width:0.5;stroke-miterlimit:4;stroke-dasharray:none;stroke-opacity:1"
         id="path63651" />
      <path
         d="m 236.82,399.53 a 3.24,3.24 0 0 1 6.48,0 3.24,3.24 0 1 1 -6.48,0 z"
         style="fill:#ffffff;stroke:#c2c5c6;stroke-width:0.5;stroke-miterlimit:4;stroke-dasharray:none;stroke-opacity:1"
         id="path63653" />
      <path
         d="m 241.66,408.28 1.4,-3.77 a 3.85,3.85 0 0 0 2.21,0.63 c 1.3,0 2.13,-0.83 2.13,-2.6 v -18 h 5.21 v 17.96 c 0,4.15 -2.43,6.78 -6.78,6.78 a 7.58,7.58 0 0 1 -4.17,-1 z m 5.11,-29.12 a 3,3 0 0 1 3.24,-2.91 c 1.94,0 3.24,1.2 3.24,2.81 a 3.25,3.25 0 0 1 -6.48,0.1 z"
         style="fill:#ffffff;stroke:#c2c5c6;stroke-width:0.5;stroke-miterlimit:4;stroke-dasharray:none;stroke-opacity:1"
         id="path63655" />
      <path
         d="m 255.69,400.87 1.73,-3.74 a 12.36,12.36 0 0 0 6.25,1.73 c 2.4,0 3.31,-0.63 3.31,-1.63 0,-2.94 -10.86,0.06 -10.86,-7.12 0,-3.4 3.07,-5.81 8.32,-5.81 a 14.78,14.78 0 0 1 6.91,1.57 l -1.74,3.71 a 10.34,10.34 0 0 0 -5.17,-1.34 c -2.34,0 -3.34,0.74 -3.34,1.67 0,3.07 10.85,0.1 10.85,7.18 0,3.34 -3.1,5.72 -8.48,5.72 a 15.44,15.44 0 0 1 -7.78,-1.94 z"
         style="fill:#ffffff;stroke:#c2c5c6;stroke-width:0.5;stroke-miterlimit:4;stroke-dasharray:none;stroke-opacity:1"
         id="path63657" />
    </g>
    <rect
       x="83.096245"
       y="114.80004"
       width="51.708038"
       height="3.4380572"
       rx="1.3498082"
       fill="#E1E4E5"
       id="rect15825-6-4"
       style="fill:#0055d4;stroke:#c2c5c6;stroke-width:0.0292936;stroke-miterlimit:4;stroke-dasharray:none;stroke-opacity:1" />
    <rect
       style="fill:#0066ff;stroke-width:0.0739502"
       width="38.026581"
       height="37.699398"
       id="rect75042"
       x="142.88701"
       y="112.65518"
       ry="6.1883483" />
    <g
       id="g75054"
       transform="matrix(0.07427068,0,0,0.07363163,142.88702,112.65521)">
      <path
         style="fill:#ffffff"
         d="m 155.64,250.944 c -4.84,2.496 -15.528,5.008 -29.064,5.008 -35.736,0 -57.44,-22.384 -57.44,-56.608 0,-37.08 25.712,-59.456 60.112,-59.456 13.528,0 23.216,2.832 27.392,5.008 l -4.504,16.368 c -5.344,-2.336 -12.696,-4.344 -22.048,-4.344 -22.872,0 -39.408,14.368 -39.408,41.416 0,24.72 14.52,40.576 39.24,40.576 8.352,0 17.032,-1.664 22.376,-4.168 z"
         id="path75044" />
      <path
         style="fill:#ffffff"
         d="m 171.872,135.712 h 20.704 v 118.56 h -20.704 z"
         id="path75046" />
      <path
         style="fill:#ffffff"
         d="m 236.68,150.24 c 0,6.176 -4.504,11.024 -11.688,11.024 -6.848,0 -11.36,-4.84 -11.36,-11.024 0,-6.344 4.68,-11.184 11.52,-11.184 7.016,-0.008 11.36,4.84 11.528,11.184 z m -21.872,104.04 v -81.336 h 20.704 v 81.328 z"
         id="path75048" />
      <path
         style="fill:#ffffff"
         d="m 317.352,251.768 c -4.344,2.008 -12.856,4.176 -23.048,4.176 -25.384,0 -41.912,-16.2 -41.912,-41.416 0,-24.384 16.704,-43.424 45.256,-43.424 7.512,0 15.192,1.672 19.864,3.84 l -3.672,15.36 c -3.336,-1.504 -8.176,-3.168 -15.528,-3.168 -15.696,0 -25.048,11.52 -24.88,26.392 0,16.696 10.856,26.208 24.88,26.208 7.176,0 12.192,-1.504 16.2,-3.168 z"
         id="path75050" />
      <path
         style="fill:#ffffff"
         d="m 353.112,208.688 h 0.336 c 2,-3.168 4.336,-6.68 6.504,-9.52 l 19.704,-26.216 h 24.72 l -30.064,33.232 34.408,48.096 h -25.216 l -23.376,-35.904 -7.016,8.184 v 27.72 H 332.576 V 135.72 h 20.536 z"
         id="path75052" />
    </g>
    <rect
       x="-23.998194"
       y="-224.15152"
       transform="matrix(-0.71015536,0.704045,-0.71015536,-0.704045,0,0)"
       width="2.933789"
       height="6.8602242"
       id="rect75056"
       style="fill:#ffffff;stroke-width:0.0739513" />
    <polygon
       points="324.16,288.552 342.176,392.12 427.736,306.568 "
       id="polygon75058"
       transform="matrix(0.07427068,0,0,0.07363163,142.88702,112.65521)"
       style="fill:#ffffff" />
    <path
       d="m 180.53499,157.07047 h -73.46235 v 1.37934 h 73.46235 z"
       fill="#dadddf"
       id="path84537"
       style="stroke-width:0.441611" />
    <path
       d="m 180.53499,161.73332 h -73.46235 v 1.37933 h 73.46235 z"
       fill="#dadddf"
       id="path84539"
       style="fill:#5599ff;stroke-width:0.441611" />
    <path
       d="m 180.53499,166.39616 h -73.46235 v 1.37934 h 73.46235 z"
       fill="#dadddf"
       id="path84541"
       style="stroke-width:0.441611" />
    <path
       d="m 154.4574,171.05901 h -47.38476 v 1.37933 h 47.38476 z"
       fill="#dadddf"
       id="path84543"
       style="fill:#0066ff;stroke-width:0.441611" />
    <path
       d="M 100.81368,154.12485 H 73.312581 v 21.2539 h 27.501099 z"
       fill="#f4f4f4"
       id="path84545"
       style="stroke-width:0.420412" />
    <path
       d="m 92.023431,165.99494 c 0.65524,-2.92176 -1.03827,-5.8561 -3.78349,-6.55357 -2.74481,-0.69791 -5.50144,1.1052 -6.15667,4.02696 -0.65565,2.92176 1.03827,5.8561 3.78308,6.55401 2.74522,0.69747 5.50144,-1.10564 6.15708,-4.0274 z"
       fill="#dadddf"
       id="path84547"
       style="fill:#2a7fff;stroke-width:0.420412" />
    <path
       d="m 88.780671,164.75224 -1.33247,0.81979 -1.33655,0.81979 v -1.63958 -1.63959 l 1.33655,0.8198 z"
       fill="#f4f4f4"
       id="path84549"
       style="stroke-width:0.420412" />
    <path
       d="M 165.74873,107.10771 H 76.208971 a 4.6005522,4.9406002 0 0 1 -4.59535,-4.93502 v -4.486373 a 4.6005522,4.9406002 0 0 1 4.59535,-4.935019 h 89.539759 a 4.6005522,4.9406002 0 0 1 4.59535,4.935019 v 4.486373 a 4.6005522,4.9406002 0 0 1 -4.59535,4.93502 z M 76.208971,93.050391 a 4.3217483,4.6411887 0 0 0 -4.31685,4.635926 v 4.486373 a 4.3217483,4.6411887 0 0 0 4.31685,4.63593 h 89.539759 a 4.3217483,4.6411887 0 0 0 4.31684,-4.63593 v -4.486373 a 4.3217483,4.6411887 0 0 0 -4.31684,-4.635926 z"
       fill="#3f3d56"
       id="path87892"
       style="stroke-width:0.15912" />
    <rect
       x="80.386559"
       y="97.088127"
       width="64.752701"
       height="5.6827455"
       rx="2.6458061"
       fill="#e6e6e6"
       id="rect87894"
       style="stroke-width:0.15912" />
    <path
       d="m 161.63987,102.99914 a 0.41673928,0.44754239 0 0 1 -0.58035,0.10992 l -2.27353,-1.69889 a 0.4167301,0.44753252 0 1 1 0.47801,-0.73319 l 2.27353,1.69888 a 0.41673772,0.44754072 0 0 1 0.10234,0.62328 z"
       fill="#f92427"
       id="path87902"
       style="fill:#2a7fff;stroke-width:0.15912" />
    <path
       d="m 159.05878,101.06897 a 2.958339,3.1770036 0 1 1 -0.72654,-4.424696 2.9616894,3.1806017 0 0 1 0.72654,4.424696 z m -4.24085,-3.188893 a 2.2187483,2.3827461 0 1 0 3.0901,-0.585185 2.2212634,2.3854471 0 0 0 -3.0901,0.585185 z"
       fill="#f92427"
       id="path87904"
       style="fill:#2a7fff;stroke-width:0.15912" />
  </g>
</svg>
