<?xml version="1.0" encoding="UTF-8" standalone="no"?>
<svg
   xmlns:dc="http://purl.org/dc/elements/1.1/"
   xmlns:cc="http://creativecommons.org/ns#"
   xmlns:rdf="http://www.w3.org/1999/02/22-rdf-syntax-ns#"
   xmlns:svg="http://www.w3.org/2000/svg"
   xmlns="http://www.w3.org/2000/svg"
   xmlns:sodipodi="http://sodipodi.sourceforge.net/DTD/sodipodi-0.dtd"
   xmlns:inkscape="http://www.inkscape.org/namespaces/inkscape"
   width="995.201"
   height="654.481"
   version="1.1"
   id="svg1025"
   sodipodi:docname="JunTechPC-Aruba-Static-Website-Design-Packages.svg"
   inkscape:version="1.0.2-2 (e86c870879, 2021-01-15)">
  <metadata
     id="metadata1031">
    <rdf:RDF>
      <cc:Work
         rdf:about="">
        <dc:format>image/svg+xml</dc:format>
        <dc:type
           rdf:resource="http://purl.org/dc/dcmitype/StillImage" />
        <dc:title></dc:title>
      </cc:Work>
    </rdf:RDF>
  </metadata>
  <defs
     id="defs1029" />
  <sodipodi:namedview
     pagecolor="#ffffff"
     bordercolor="#666666"
     borderopacity="1"
     objecttolerance="10"
     gridtolerance="10"
     guidetolerance="10"
     inkscape:pageopacity="0"
     inkscape:pageshadow="2"
     inkscape:window-width="1920"
     inkscape:window-height="1001"
     id="namedview1027"
     showgrid="false"
     inkscape:zoom="0.86540714"
     inkscape:cx="565.71837"
     inkscape:cy="406.63178"
     inkscape:window-x="-9"
     inkscape:window-y="-9"
     inkscape:window-maximized="1"
     inkscape:current-layer="svg1025"
     inkscape:document-rotation="0" />
  <style
     id="style933"><![CDATA[.B{fill:#f5f5f5}.C{fill:#263238}.D{fill:#407bff}]]></style>
  <path
     fill="#0066ff"
     d="m 143.8059,415.69553 92.542,-351.158005 580.127,176.035005 -92.542,351.158 z"
     id="path935" />
  <g
     fill="#ffffff"
     id="g947"
     transform="translate(-72.798104,1.1555255)">
    <ellipse
       cx="357.40701"
       cy="104.066"
       rx="4.8049998"
       ry="5.1560001"
       id="ellipse937" />
    <ellipse
       cx="372.202"
       cy="108.556"
       rx="4.8049998"
       ry="5.1560001"
       id="ellipse939" />
    <ellipse
       cx="386.99701"
       cy="113.045"
       rx="4.8049998"
       ry="5.1560001"
       id="ellipse941" />
    <path
       d="m 617.027,286.204 a 56.13,60.231 0 0 0 -23.443,0.594 56.03,60.123 0 0 0 1.657,-25.418 55.702,59.771 0 0 0 -20.955,14.51 55.702,59.771 0 0 0 -10.77,-24.137 56.029,60.122 0 0 0 -10.993,22.585 56.13,60.231 0 0 0 -19.682,-13.68 c 0,0 -3.499,19.095 4.925,34.764 7.498,13.946 21.903,20.472 24.982,21.74 l 0.073,0.093 0.038,-0.047 0.487,0.192 c 0,0 0.066,-0.367 0.157,-1.021 l 0.173,-0.23 0.035,0.293 c -0.242,0.609 -0.364,0.959 -0.364,0.959 0,0 0.181,0.043 0.509,0.11 l 0.011,0.062 0.106,-0.038 c 3.242,0.651 18.699,3.186 31.892,-4.482 14.823,-8.615 21.162,-26.848 21.162,-26.848 z"
       id="path943" />
    <ellipse
       cx="588.276"
       cy="224.022"
       rx="12.492"
       ry="13.405"
       id="ellipse945" />
  </g>
  <path
     fill="#f9f9f9"
     d="m 296.9159,285.30053 375.414,113.917 -2.31,8.764 -375.414,-113.917 z"
     id="path949" />
  <path
     d="m 320.5479,339.61953 64.727,19.641 -18.304,69.455 -64.727,-19.641 z m 120.207,36.476 64.727,19.641 -18.304,69.455 -64.727,-19.641 z m 118.719,36.476 64.727,19.641 -18.304,69.455 -64.727,-19.641 z m -252.568,12.919 48.083,14.59 -1.569,5.953 -48.083,-14.59 z m 120.206,36.476 48.083,14.59 -1.569,5.953 -48.083,-14.59 z m 120.207,36.476 48.083,14.59 -1.569,5.953 -48.083,-14.59 z M 149.7159,1.1555255 h 72.194 V 33.552525 h -42.002 v 32.397 h 42.006 v 32.395 h -72.197 z m 86.634,0 h 72.195 V 29.326525 h -42.004 v 5.634 h 42.004 v 64.794 h -72.193 v -29.583 h 42.004 v -5.634 h -42.008 V 1.1555255 Z m 86.636,0 h 72.195 V 29.326525 h -42.004 v 5.634 h 42.004 v 64.794 h -72.195 v -29.583 h 42.004 v -5.634 h -42.002 V 1.1555255 Z M 88.853895,400.37453 l 28.699005,8.001 -8.393,30.426 26.254,7.319 8.393,-30.426 28.701,8.002 -25.417,92.136 -28.699,-8.001 8.511,-30.853 -26.254,-7.319 -8.511005,30.853 -28.699,-8.001 25.417,-92.136 z m 112.963005,64.398 -25.262,-7.043 8.429,-30.555 79.243,22.093 -8.429,30.555 -25.278,-7.047 -16.988,61.582 -28.699,-8.001 16.988,-61.582 z m 74.987,-11.998 29.925,8.343 9.477,37.506 27.321,-27.247 29.937,8.346 -25.417,92.136 -28.582,-7.969 12.598,-45.668 -28.782,27.255 -0.495,-0.138 -10.72,-38.268 -12.598,45.668 -28.08,-7.829 z m 110.942,30.93 28.708,8.004 -17.016,61.682 40.359,11.252 -8.401,30.454 -69.069,-19.256 25.417,-92.136 z"
     fill="#ffffff"
     id="path951" />
  <path
     d="m 907.1069,637.57053 c -8.177,-3.624 -17.612,-2.916 -25.163,1.889 -2.001,-14.061 -10.206,-26.464 -22.331,-33.756 -12.125,-7.292 -26.876,-8.695 -40.146,-3.818 -2.358,-16.122 -12.369,-30.083 -26.838,-37.429 -14.469,-7.346 -31.587,-7.157 -45.893,0.505 -9.517,-7.551 -21.978,-10.242 -33.74,-7.287 -11.762,2.955 -21.499,11.223 -26.364,22.388 -12.764,-11.238 -30.653,-14.479 -46.516,-8.427 -15.863,6.052 -27.11,20.408 -29.245,37.329 a 41.23,41.23 0 0 0 -35.406,4.61 c -10.293,6.855 -21.021,27.845 -22.031,40.204 l 367.422,1.858 c -1.232,-8.723 -5.788,-14.43 -13.748,-18.066 z"
     class="B"
     id="path953" />
  <g
     fill="#ffffff"
     id="g959"
     transform="translate(-72.798104,1.1555255)">
    <path
       d="m 773.471,250.275 39.022,49.588 -78.458,0.294 z"
       id="path955" />
    <path
       d="m 755.746,292.159 35.739,-0.132 0.53,145.289 -35.739,0.132 z"
       id="path957" />
  </g>
  <g
     class="B"
     id="g965"
     transform="translate(-72.798104,1.1555255)">
    <path
       d="m 834.524,237.662 21.789,27.693 -43.82,0.162 z"
       id="path961" />
    <path
       d="m 824.626,261.054 19.96,-0.074 0.296,81.129 -19.96,0.074 z"
       id="path963" />
  </g>
  <path
     d="m 524.8729,644.96153 c 66.519,2.754 131.129,-15.195 186.638,-52.145 54.972,-36.802 86.631,-97.581 109.409,-159.903 l 46.093,15.903 c 0,0 -29.224,140.791 -109.096,205.845 h -234.122 z"
     class="D"
     id="path967" />
  <path
     d="m 525.3909,645.61853 c 66.519,2.754 130.611,-15.852 186.12,-52.802 54.972,-36.802 86.631,-97.581 109.409,-159.903 l 46.093,15.903 c 0,0 -29.224,147.25 -109.096,205.845 h -234.122 z"
     fill="#ffffff"
     opacity="0.6"
     id="path969" />
  <path
     d="m 815.7089,449.41553 c 0.343,0.122 0.202,1.472 -0.384,3.94 l -1.202,4.519 -0.849,2.854 -1.111,3.209 -2.748,7.495 -3.697,8.744 c -1.344,3.128 -3.03,6.398 -4.667,9.891 -1.637,3.493 -3.677,7.058 -5.728,10.836 l -1.566,2.864 -1.727,2.864 -3.566,5.9 -0.919,1.513 -1.01,1.493 -2.02,3.047 -4.172,6.184 c -3.03,4.062 -5.97,8.398 -9.405,12.562 -1.687,2.102 -3.344,4.296 -5.152,6.398 l -5.515,6.377 -1.404,1.625 -1.475,1.574 -2.94,3.148 -3.03,3.209 c -1.01,1.076 -2.091,2.031 -3.152,3.138 l -6.485,6.306 -6.849,6.174 a 294.62,294.62 0 0 1 -30.537,23.245 c -20.657,13.553 -42.831,24.611 -66.064,32.943 l -7.94,2.752 -7.829,2.386 -3.839,1.158 -3.818,1.016 -7.455,1.919 -7.263,1.574 c -2.374,0.559 -4.707,1.016 -7.071,1.391 l -6.778,1.127 c -1.111,0.173 -2.202,0.386 -3.293,0.528 l -3.222,0.386 c -4.263,0.498 -8.303,1.016 -12.122,1.259 -3.819,0.243 -7.465,0.599 -10.869,0.589 -3.404,-0.01 -6.556,0.152 -9.465,0.112 -2.909,-0.04 -5.566,-0.223 -7.95,-0.345 l -3.364,-0.203 -2.96,-0.345 c -1.828,-0.223 -3.364,-0.447 -4.606,-0.66 -2.485,-0.416 -3.778,-0.823 -3.758,-1.188 0.02,-0.365 1.354,-0.67 3.839,-0.934 a 109.33,109.33 0 0 1 4.596,-0.366 l 2.919,-0.142 3.323,-0.284 q 3.515,-0.284 7.788,-0.579 l 9.223,-0.955 c 3.303,-0.325 6.819,-0.894 10.546,-1.391 3.727,-0.497 7.677,-1.31 11.718,-1.98 l 3.121,-0.559 c 1.01,-0.193 2.101,-0.447 3.162,-0.68 l 6.546,-1.422 c 2.232,-0.437 4.465,-1.076 6.758,-1.655 l 7,-1.808 7.162,-2.122 3.667,-1.087 3.687,-1.239 7.526,-2.529 7.637,-2.874 a 337.08,337.08 0 0 0 63.64,-32.639 311.44,311.44 0 0 0 29.597,-22.26 l 6.697,-5.87 c 2.172,-1.98 4.253,-4.062 6.364,-5.992 1.01,-1.016 2.111,-1.95 3.101,-2.975 l 2.97,-3.047 2.95,-3.047 1.465,-1.483 1.394,-1.533 5.495,-6.042 c 1.808,-2.031 3.465,-4.062 5.162,-6.093 3.455,-3.93 6.465,-8.023 9.536,-11.861 1.505,-1.94 2.879,-3.94 4.283,-5.849 l 2.081,-2.843 1.01,-1.412 1.01,-1.422 3.748,-5.575 1.818,-2.691 1.677,-2.701 c 2.202,-3.564 4.404,-6.906 6.233,-10.216 1.829,-3.31 3.758,-6.327 5.273,-9.302 1.515,-2.975 3.03,-5.687 4.414,-8.205 1.384,-2.518 2.455,-4.915 3.536,-7.017 0.545,-1.016 1.01,-2.031 1.535,-2.975 0.525,-0.944 0.889,-1.818 1.283,-2.64 0.808,-1.635 1.525,-3.047 2.131,-4.062 1.202,-2.173 2.01,-3.27 2.354,-3.148 z m 2.545,21.661 a 54.45,54.45 0 0 0 -10.667,18.401 4.88,4.88 0 0 0 1.682,5.436 4.82,4.82 0 0 0 5.662,0.108 l 0.101,-0.071 a 201.82,201.82 0 0 0 -8.273,24.931 6.01,6.01 0 0 0 2.36,6.457 c 2.06,1.439 4.795,1.427 6.843,-0.029 18.009,-12.833 30.775,-31.798 35.931,-53.376 z"
     class="D"
     id="path971" />
  <path
     d="m 819.8599,479.78953 c -0.87,0.869 -1.557,1.905 -2.02,3.047 a 3.18,3.18 0 0 0 0.697,3.382 c 1.384,1.178 3.758,0.467 5.051,1.716 1.293,1.249 0.566,3.666 -0.354,5.372 l -2.909,5.413 c -0.707,1.32 -1.404,3.047 -0.485,4.225 0.919,1.178 3.091,0.853 4.576,0.102 6.95,-3.633 11.682,-10.466 12.657,-18.279 z"
     opacity="0.3"
     id="path973" />
  <path
     d="m 899.9649,407.17053 0.273,0.396 c 15.684,23.575 19.882,53.03 11.415,80.084 l -5.303,16.969 -26.213,-33.989 z"
     class="D"
     id="path975" />
  <path
     d="m 899.9649,407.17053 -0.091,0.315 -0.283,0.924 -1.071,3.514 -4.041,13.151 -14.142,45.617 v -0.223 l 23.9,30.973 2.313,3.047 -0.455,0.091 q 1.596,-5.078 3.131,-10.003 c 1.01,-3.29 2.091,-6.52 2.95,-9.718 a 94.53,94.53 0 0 0 3.273,-18.807 91.38,91.38 0 0 0 -0.384,-17.264 c -0.242,-2.701 -0.768,-5.26 -1.182,-7.728 a 52.07,52.07 0 0 0 -1.697,-6.997 92.88,92.88 0 0 0 -8.233,-20.067 c -1.172,-2.275 -2.293,-3.91 -2.97,-5.078 l -1.061,-1.757 c 0,0 0.101,0.122 0.313,0.416 l 0.828,1.28 c 0.707,1.148 1.869,2.772 3.03,5.078 3.576,6.317 6.381,13.044 8.354,20.036 0.707,2.194 1.162,4.57 1.748,7.017 0.424,2.478 0.96,5.078 1.212,7.759 a 90.42,90.42 0 0 1 0.434,17.325 94.9,94.9 0 0 1 -3.253,18.919 c -0.859,3.229 -1.95,6.438 -2.95,9.729 l -3.121,10.003 -0.152,0.487 -0.313,-0.406 -2.313,-3.047 -23.88,-30.994 -0.071,-0.102 v -0.122 l 14.445,-45.749 4.132,-13.029 1.101,-3.443 0.444,-0.894 a 1.51,1.51 0 0 1 0.051,-0.254 z"
     class="C"
     id="path977" />
  <path
     d="m 804.2329,376.95853 -0.455,0.173 c -25.914,10.185 -45.832,31.64 -54.154,58.331 l -5.222,16.736 40.275,-12.653 z"
     class="D"
     id="path979" />
  <path
     d="m 804.2329,376.95853 c 0,0 0,0.091 -0.081,0.284 -0.081,0.193 -0.152,0.508 -0.263,0.873 l -1.01,3.412 -3.98,12.867 -13.97,45.201 v 0.132 h -0.121 l -36.709,11.557 -3.566,1.117 -0.475,0.152 0.152,-0.487 3.03,-9.861 3.03,-9.546 a 93.88,93.88 0 0 1 7.98,-17.162 c 2.917,-4.908 6.3,-9.519 10.102,-13.77 1.727,-2.031 3.596,-3.828 5.334,-5.595 1.738,-1.767 3.546,-3.311 5.344,-4.692 5.524,-4.526 11.571,-8.366 18.011,-11.435 2.243,-1.158 4.041,-1.808 5.303,-2.336 l 1.394,-0.569 0.495,-0.162 -1.849,0.823 c -1.202,0.559 -3.03,1.239 -5.253,2.417 -6.384,3.148 -12.381,7.033 -17.87,11.577 -1.778,1.391 -3.475,3.047 -5.303,4.702 -1.828,1.655 -3.576,3.544 -5.283,5.585 a 88.48,88.48 0 0 0 -9.99,13.74 c -3.193,5.397 -5.839,11.102 -7.899,17.03 -1.101,3.047 -2.02,6.306 -3.03,9.536 l -3.03,9.871 -0.323,-0.335 3.566,-1.117 36.719,-11.516 -0.162,0.162 14.142,-44.906 4.101,-12.938 1.101,-3.453 0.293,-0.904 c 0.017,-0.086 0.041,-0.171 0.071,-0.254 z"
     fill="#ffffff"
     id="path981" />
  <path
     d="m 903.9549,225.90053 c -7.576,-2.386 -27.658,12.907 -50.881,41.717 -22.86,28.374 -32.325,56.453 -32.325,56.453 l -44.235,141.593 37.113,11.719 21.506,6.784 37.113,11.719 40.143,-128.483 c 3.94,-12.552 6.676,-25.453 8.172,-38.529 1.537,-13.107 2.027,-26.318 1.465,-39.504 -1.838,-36.884 -10.445,-61.073 -18.031,-63.47"
     class="B"
     id="path983" />
  <path
     d="m 903.9549,225.90053 0.333,0.122 0.414,0.162 0.535,0.305 a 11.5,11.5 0 0 1 2.98,2.843 c 2.232,2.894 4.626,7.799 6.718,14.441 a 151.7,151.7 0 0 1 5.303,24.87 c 0.677,4.935 1.222,10.236 1.606,15.893 0.384,5.657 0.616,11.648 0.545,17.954 -0.071,6.306 -0.404,12.917 -1.01,19.803 a 215.78,215.78 0 0 1 -2.889,21.387 c -1.437,7.605 -3.292,15.125 -5.556,22.524 q -3.566,11.435 -7.344,23.57 l -33.143,106.193 -0.071,0.254 -0.253,-0.081 -47.861,-15.111 -47.871,-15.121 -0.253,-0.071 0.081,-0.254 33.214,-106.193 q 3.788,-12.125 7.364,-23.56 1.788,-5.707 3.525,-11.252 c 1.242,-3.676 2.727,-7.18 4.243,-10.592 5.667,-12.594 12.506,-24.62 20.425,-35.919 a 265.18,265.18 0 0 1 21.466,-26.16 168.54,168.54 0 0 1 18.506,-17.396 c 5.445,-4.306 10.102,-7.048 13.607,-8.195 a 11.19,11.19 0 0 1 4.041,-0.66 l 0.606,0.051 0.434,0.102 0.333,0.091 -0.343,-0.061 -0.424,-0.091 -0.606,-0.051 a 11.53,11.53 0 0 0 -4.041,0.711 c -3.435,1.168 -8.081,3.93 -13.526,8.256 a 171.19,171.19 0 0 0 -18.354,17.386 266.94,266.94 0 0 0 -21.324,26.221 c -7.887,11.289 -14.695,23.302 -20.334,35.878 -1.505,3.412 -3.03,6.916 -4.212,10.561 l -3.515,11.252 q -3.566,11.435 -7.344,23.57 l -33.152,106.213 -0.172,-0.335 47.831,15.131 47.861,15.121 -0.333,0.173 33.204,-106.182 7.364,-23.55 c 2.256,-7.39 4.104,-14.899 5.536,-22.494 1.404,-7.332 2.293,-14.471 2.919,-21.326 0.626,-6.855 0.95,-13.476 1.01,-19.782 0.06,-6.306 -0.121,-12.278 -0.505,-17.924 -0.384,-5.646 -0.909,-10.947 -1.576,-15.873 -1.043,-8.415 -2.787,-16.728 -5.212,-24.85 -2.02,-6.641 -4.414,-11.546 -6.616,-14.441 -0.801,-1.121 -1.792,-2.091 -2.929,-2.864 l -0.525,-0.315 -0.404,-0.162 z"
     class="C"
     id="path985" />
  <path
     d="m 783.5149,443.22053 94.944,29.369"
     class="B"
     id="path987" />
  <path
     d="m 878.4589,472.58953 c 0,0.142 -21.334,-6.327 -47.548,-14.43 l -47.396,-14.938 c 0.081,-0.142 21.334,6.327 47.558,14.43 z"
     class="C"
     id="path989" />
  <path
     d="m 781.7569,447.38453 94.944,29.359"
     class="B"
     id="path991" />
  <path
     d="m 876.6809,476.74353 c 0,0.142 -21.334,-6.317 -47.548,-14.42 l -47.406,-14.938 c 0,-0.142 21.324,6.317 47.548,14.43 z"
     class="C"
     id="path993" />
  <path
     d="m 780.4139,451.93353 94.944,29.369"
     class="B"
     id="path995" />
  <path
     d="m 875.3579,481.30253 c 0,0.132 -21.334,-6.327 -47.548,-14.43 l -47.396,-14.938 c 0.081,-0.142 21.324,6.317 47.548,14.43 z"
     class="C"
     id="path997" />
  <path
     d="m 779.0699,456.48353 94.944,29.369"
     class="B"
     id="path999" />
  <path
     d="m 874.0139,485.85253 c 0,0.142 -21.334,-6.327 -47.548,-14.43 l -47.396,-14.938 c 0.081,-0.142 21.334,6.327 47.558,14.43 z"
     class="C"
     id="path1001" />
  <path
     d="m 777.7369,461.04353 94.944,29.359"
     class="B"
     id="path1003" />
  <path
     d="m 872.6409,490.40153 c -0.051,0.142 -21.334,-6.317 -47.548,-14.43 l -47.396,-14.928 c 0.081,-0.132 21.365,6.296 47.588,14.42 z"
     class="C"
     id="path1005" />
  <path
     d="m 852.2459,392.19153 c -0.005,0.234 -0.039,0.466 -0.101,0.691 -0.061,0.467 -0.263,1.107 -0.485,1.96 l -2.071,7.109 -7.344,23.255 -7.617,23.174 -2.374,6.997 -0.677,1.899 a 3.34,3.34 0 0 1 -0.263,0.65 c 0.029,-0.235 0.084,-0.467 0.162,-0.691 l 0.586,-1.919 2.212,-7.048 7.465,-23.225 7.485,-23.205 2.243,-7.038 0.576,-1.919 c 0.054,-0.234 0.122,-0.464 0.202,-0.691 z"
     fill="#e0e0e0"
     id="path1007" />
  <path
     d="m 899.9649,407.17053 c -0.051,0.132 -21.334,-6.449 -47.548,-14.705 l -47.396,-15.233 c 0.081,-0.173 21.324,6.438 47.548,14.695 z"
     fill="#ebebeb"
     id="path1009" />
  <path
     d="m 845.3669,441.33253 a 1.36,1.36 0 0 1 0.717,-0.234 3.18,3.18 0 0 1 2.02,0.477 3.05,3.05 0 0 1 1.495,2.671 3.25,3.25 0 0 1 -2.095,3.093 3.22,3.22 0 0 1 -3.603,-0.94 3.06,3.06 0 0 1 -0.626,-3.047 3.13,3.13 0 0 1 1.202,-1.676 1.29,1.29 0 0 1 0.697,-0.305 c 0,0 -0.232,0.152 -0.566,0.467 a 3.19,3.19 0 0 0 -1.01,1.615 2.7,2.7 0 0 0 0.626,2.569 2.76,2.76 0 0 0 3.061,0.783 c 1.083,-0.407 1.8,-1.449 1.798,-2.611 0.034,-0.942 -0.426,-1.832 -1.212,-2.346 a 3.2,3.2 0 0 0 -1.788,-0.579 c -0.485,0.03 -0.717,0.112 -0.717,0.061 z m 9.02,-27.206 a 1.31,1.31 0 0 1 0.717,-0.234 3.21,3.21 0 0 1 2.02,0.477 3.05,3.05 0 0 1 1.485,2.671 3.25,3.25 0 0 1 -2.095,3.093 3.22,3.22 0 0 1 -3.603,-0.94 3.06,3.06 0 0 1 -0.626,-3.047 3.21,3.21 0 0 1 1.162,-1.615 1.32,1.32 0 0 1 0.697,-0.294 c 0,0 -0.222,0.152 -0.566,0.457 a 3.27,3.27 0 0 0 -1.01,1.625 2.67,2.67 0 0 0 0.616,2.569 3.02,3.02 0 0 0 3.03,0.782 c 1.054,-0.449 1.755,-1.47 1.798,-2.62 0.039,-0.938 -0.418,-1.826 -1.202,-2.336 a 3.34,3.34 0 0 0 -1.798,-0.589 c -0.354,-0.03 -0.616,0.051 -0.626,0 z m -14.384,-43.942 a 1.36,1.36 0 0 1 0.717,-0.234 3.18,3.18 0 0 1 2.02,0.477 3.05,3.05 0 0 1 1.495,2.671 3.25,3.25 0 0 1 -2.095,3.093 3.22,3.22 0 0 1 -3.603,-0.94 3.06,3.06 0 0 1 -0.626,-3.047 3.13,3.13 0 0 1 1.202,-1.676 1.29,1.29 0 0 1 0.697,-0.305 c 0,0 -0.222,0.152 -0.566,0.457 -0.49,0.428 -0.842,0.994 -1.01,1.625 a 2.7,2.7 0 0 0 0.626,2.569 2.76,2.76 0 0 0 3.061,0.783 c 1.083,-0.407 1.8,-1.449 1.798,-2.611 0.034,-0.942 -0.426,-1.832 -1.212,-2.346 a 3.2,3.2 0 0 0 -1.788,-0.579 c -0.404,0.03 -0.707,0.112 -0.717,0.061 z"
     fill="#e0e0e0"
     id="path1011" />
  <path
     d="m 838.4269,349.80353 c 0.131,0 -2.212,7.809 -5.233,17.345 -3.021,9.536 -5.596,17.264 -5.738,17.193 -0.142,-0.071 2.202,-7.809 5.233,-17.355 z"
     fill="#ebebeb"
     id="path1013" />
  <path
     d="m 785.1919,437.88953 c 0,0 13.768,-40.793 19.041,-60.931 -6.96,8.368 -14.809,17.975 -18.9,28.069 a 45.74,45.74 0 0 0 -0.141,32.862 z"
     opacity="0.3"
     id="path1015" />
  <path
     d="m 800.2629,546.29553 a 5.15,5.15 0 0 0 -3.875,6.071 c 0.57,2.747 3.223,4.53 5.966,4.008 2.743,-0.522 4.565,-3.155 4.097,-5.922 -0.468,-2.767 -3.053,-4.647 -5.814,-4.228"
     class="D"
     id="path1017" />
  <path
     d="m 902.1769,281.77553 c -6.201,-6.234 -14.445,-9.667 -23.214,-9.667 -8.769,0 -17.013,3.433 -23.214,9.667 -6.201,6.234 -9.616,14.522 -9.616,23.338 0,8.816 3.415,17.104 9.616,23.338 6.201,6.234 14.445,9.667 23.214,9.667 8.769,0 17.013,-3.433 23.214,-9.667 6.201,-6.234 9.616,-14.522 9.616,-23.338 0,-8.816 -3.415,-17.104 -9.616,-23.338 z m -23.214,53.712 c -16.66,0 -30.214,-13.626 -30.214,-30.375 0,-16.749 13.554,-30.375 30.214,-30.375 16.66,0 30.214,13.626 30.214,30.375 0,16.749 -13.554,30.375 -30.214,30.375 z"
     fill="#00aaff"
     id="path1019" />
  <ellipse
     ry="32.075001"
     rx="31.906"
     cy="305.21951"
     cx="878.90692"
     id="ellipse1021" />
  <path
     d="m 870.0829,302.04053 h -7.932 l -3.944,6.92 3.944,6.911 h 7.932 l 3.944,-6.911 z m 5.43,-7.762 -3.953,6.911 3.953,6.92 h 7.889 l 3.979,-6.92 -3.979,-6.911 z m -3.953,22.443 3.953,6.946 h 7.889 l 3.979,-6.946 -3.979,-6.911 h -7.889 z m 2.468,-23.293 -3.944,-6.946 h -7.932 l -3.944,6.946 3.944,6.911 h 7.932 z m 10.86,-0.035 3.944,6.946 h 7.932 l 3.944,-6.911 -3.944,-6.946 h -7.932 z"
     fill="#0662ff"
     stroke="#0066ff"
     stroke-width="0.177"
     id="path1023" />
</svg>
