<svg xmlns="http://www.w3.org/2000/svg" xmlns:v="https://vecta.io/nano" width="676" height="676"><path fill="#2a7fff" d="M576 338a237.192 237.192 0 0 1-19.167 93.721l-.789 1.817A238.394 238.394 0 0 1 296.702 572.43q-2.144-.38-4.281-.789a235.874 235.874 0 0 1-43.051-12.696q-3.39-1.363-6.732-2.824l-4.549-2.049A238.292 238.292 0 0 1 100 338c0-131.442 106.558-238 238-238s238 106.558 238 238z"/><path d="M256.118 270.065c-4.493 25.347 5.425 48.299 5.425 48.299s17.202-18.144 21.695-43.492-5.425-48.299-5.425-48.299-17.202 18.145-21.695 43.492z" opacity=".2"/><g fill="#f4e3d7"><circle cx="337.511" cy="297.919" r="92.785"/><path d="M301.267 368.958s11.598 55.091 11.598 60.89 55.091 31.895 55.091 31.895l49.292-8.699 17.397-52.192s-28.995-43.493-28.995-60.89z"/></g><path d="M556.833 431.721l-.789 1.817A238.394 238.394 0 0 1 296.702 572.43q-2.144-.38-4.281-.789a235.874 235.874 0 0 1-43.051-12.696q-3.39-1.363-6.732-2.824l-4.549-2.049a237.713 237.713 0 0 1-38.904-22.73l-10.999-31.905 6.182-4.718 12.717-9.71 13.569-10.358 3.528-2.697 53.24-40.643 3.929-3 27.673-21.124.007-.007s29.926 48.762 73.421 34.264 42.545-56.071 42.545-56.071z"/><path fill="#1a1a1a" d="M257.049 223.166s29.459-63.828 85.922-49.098 88.377 36.824 90.831 58.918-1.227 55.235-1.227 55.235-6.137-45.416-45.416-35.596-100.651 2.455-100.651 2.455l-9.82 88.377s-11.047-15.957-23.322-6.137-35.596-94.514 3.682-114.153z"/><path d="M249.37 558.946q-3.39-1.363-6.732-2.824l-4.549-2.049a238.588 238.588 0 0 1-61.676-41.333c6.471-8.816 11.773-13.301 11.773-13.301h43.495l6.52 21.927zm269.362-131.999l37.312 6.591a237.961 237.961 0 0 1-39.967 62.366z"/><ellipse cx="484.683" cy="456.607" rx="19.597" ry="19.421"/><path fill="#06f" d="M498.605 442.89c-3.701-3.668-8.623-5.688-13.857-5.688s-10.156 2.02-13.857 5.688-5.74 8.545-5.74 13.733 2.038 10.065 5.74 13.733 8.623 5.688 13.857 5.688 10.156-2.02 13.857-5.688 5.74-8.545 5.74-13.733-2.038-10.065-5.74-13.733zm-13.857 31.607c-9.945 0-18.035-8.018-18.035-17.874s8.091-17.874 18.035-17.874 18.035 8.018 18.035 17.874-8.091 17.874-18.035 17.874zm-12.743-15.58l2.376 4.087h4.778l2.376-4.087-2.376-4.092h-4.778zm10.424-.503h4.752l2.397-4.092-2.397-4.087h-4.752l-2.381 4.087zm4.752 9.201l2.397-4.108-2.397-4.087h-4.752l-2.381 4.087 2.381 4.108zm-12.8-21.991l-2.376 4.108 2.376 4.087h4.778l2.376-4.087-2.376-4.108zm20.848 8.195l2.376-4.087-2.376-4.108h-4.778l-2.376 4.087 2.376 4.108z"/></svg>