<?xml version="1.0" encoding="UTF-8" standalone="no"?>
<svg
   height="483.10959"
   width="533.93524"
   version="1.1"
   id="svg3449"
   sodipodi:docname="Team-JunTech-Web-Solutions-Aruba.svg"
   inkscape:version="1.1 (c68e22c387, 2021-05-23)"
   xmlns:inkscape="http://www.inkscape.org/namespaces/inkscape"
   xmlns:sodipodi="http://sodipodi.sourceforge.net/DTD/sodipodi-0.dtd"
   xmlns="http://www.w3.org/2000/svg"
   xmlns:svg="http://www.w3.org/2000/svg">
  <defs
     id="defs3453" />
  <sodipodi:namedview
     id="namedview3451"
     pagecolor="#ffffff"
     bordercolor="#666666"
     borderopacity="1.0"
     inkscape:pageshadow="2"
     inkscape:pageopacity="0.0"
     inkscape:pagecheckerboard="0"
     showgrid="false"
     inkscape:zoom="1.1612426"
     inkscape:cx="263.08026"
     inkscape:cy="282.88663"
     inkscape:window-width="1920"
     inkscape:window-height="1003"
     inkscape:window-x="-9"
     inkscape:window-y="-9"
     inkscape:window-maximized="1"
     inkscape:current-layer="svg3449" />
  <path
     fill="#2a7fff"
     d="m 487.04106,262.11687 a 218.35905,216.47582 0 0 1 -17.64515,85.53548 l -0.72636,1.6583 A 219.46561,217.57284 0 0 1 229.9192,476.07192 q -1.97377,-0.34681 -3.94109,-0.72008 a 217.1457,215.27294 0 0 1 -39.63277,-11.58715 q -3.12083,-1.24395 -6.19748,-2.57735 l -4.18781,-1.87004 A 219.37171,217.47975 0 0 1 48.835265,262.11687 c 0,-119.96195 98.097335,-217.213251 219.102895,-217.213251 121.00556,0 219.1029,97.251301 219.1029,217.213251 z"
     id="path3429"
     style="stroke-width:0.916621" />
  <path
     opacity="0.2"
     d="m 192.55755,201.46561 c -4.13625,23.33447 4.99426,44.4641 4.99426,44.4641 0,0 15.83617,-16.70338 19.97243,-40.03877 4.13626,-23.33539 -4.99426,-44.4641 -4.99426,-44.4641 0,0 -15.83617,16.7043 -19.97243,40.03877 z"
     id="path3431"
     style="stroke-width:0.9206" />
  <g
     fill="#f4e3d7"
     id="g3437"
     transform="matrix(0.92060041,0,0,0.9206009,-43.22478,-47.156471)">
    <circle
       cy="297.91901"
       cx="337.51099"
       r="92.785004"
       id="circle3433" />
    <path
       d="m 301.267,368.958 c 0,0 11.598,55.091 11.598,60.89 0,5.799 55.091,31.895 55.091,31.895 l 49.292,-8.699 17.397,-52.192 c 0,0 -28.995,-43.493 -28.995,-60.89 z"
       id="path3435" />
  </g>
  <path
     d="m 469.39591,350.28627 -0.72636,1.67273 A 219.46561,219.46573 0 0 1 229.9192,479.8231 q -1.97377,-0.34983 -3.94109,-0.72635 A 217.1457,217.14582 0 0 1 186.34534,467.4088 q -3.12083,-1.25478 -6.19748,-2.59978 l -4.18781,-1.88631 a 218.83869,218.8388 0 0 1 -35.81504,-20.92526 l -10.12568,-29.37177 5.69115,-4.34339 11.70727,-8.93904 12.49163,-9.53558 3.24788,-2.48286 49.01277,-37.41599 3.61704,-2.7618 25.47577,-19.44677 0.006,-0.006 c 0,0 27.54989,44.89034 67.59141,31.54347 40.04151,-13.34687 39.16694,-51.61901 39.16694,-51.61901 z"
     id="path3439"
     style="stroke-width:0.9206" />
  <path
     fill="#1a1a1a"
     d="m 193.41463,158.29035 c 0,0 27.11997,-58.760112 79.09983,-45.19966 51.97986,13.56045 81.3599,33.9002 83.61906,54.23996 2.25915,20.33976 -1.12958,50.84939 -1.12958,50.84939 0,0 -5.64972,-41.81001 -41.80999,-32.76971 -36.16026,9.0403 -92.65935,2.26008 -92.65935,2.26008 l -9.04029,81.35994 c 0,0 -10.16988,-14.69003 -21.47025,-5.64973 -11.30037,9.04031 -32.76969,-87.00967 3.38965,-105.08935 z"
     id="path3441"
     style="stroke-width:0.9206" />
  <path
     d="m 186.34534,467.40972 q -3.12083,-1.25478 -6.19748,-2.59978 l -4.18781,-1.88631 a 219.64421,219.64433 0 0 1 -56.77895,-38.0512 c 5.9572,-8.11601 10.83823,-12.24491 10.83823,-12.24491 h 40.04151 l 6.00232,20.18602 z m 247.97477,-121.5184 34.34944,6.06768 a 219.06699,219.06711 0 0 1 -36.79363,57.4142 z"
     id="path3443"
     style="stroke-width:0.9206" />
  <ellipse
     ry="17.87899"
     rx="18.041006"
     cy="373.19632"
     cx="402.97458"
     id="ellipse3445"
     style="stroke-width:0.9206" />
  <g
     transform="matrix(0.09563041,0,0,0.09504314,368.46196,358.48576)"
     style="opacity:1;fill:#0684ff;fill-opacity:1;stroke:#0066ff;stroke-width:2.0264;stroke-miterlimit:4;stroke-dasharray:none;stroke-opacity:1"
     id="g263">
    <g
       style="fill:#0684ff;fill-opacity:1;stroke:#0066ff;stroke-width:2.0264;stroke-miterlimit:4;stroke-dasharray:none;stroke-opacity:1"
       id="g261">
      <g
         style="fill:#0684ff;fill-opacity:1;stroke:#0066ff;stroke-width:2.0264;stroke-miterlimit:4;stroke-dasharray:none;stroke-opacity:1"
         id="g259">
        <polygon
           style="fill:#0684ff;fill-opacity:1;stroke:#0066ff;stroke-width:2.0264;stroke-miterlimit:4;stroke-dasharray:none;stroke-opacity:1"
           id="polygon249"
           points="45.4,210 0,288.9 45.4,367.7 136.7,367.7 182.1,288.9 136.7,210 " />
        <polygon
           style="fill:#0684ff;fill-opacity:1;stroke:#0066ff;stroke-width:2.0264;stroke-miterlimit:4;stroke-dasharray:none;stroke-opacity:1"
           id="polygon251"
           points="153.7,200.3 199.2,279.2 290,279.2 335.8,200.3 290,121.5 199.2,121.5 " />
        <polygon
           style="fill:#0684ff;fill-opacity:1;stroke:#0066ff;stroke-width:2.0264;stroke-miterlimit:4;stroke-dasharray:none;stroke-opacity:1"
           id="polygon253"
           points="199.2,456.6 290,456.6 335.8,377.4 290,298.6 199.2,298.6 153.7,377.4 " />
        <polygon
           style="fill:#0684ff;fill-opacity:1;stroke:#0066ff;stroke-width:2.0264;stroke-miterlimit:4;stroke-dasharray:none;stroke-opacity:1"
           id="polygon255"
           points="136.7,32.6 45.4,32.6 0,111.8 45.4,190.6 136.7,190.6 182.1,111.8 " />
        <polygon
           style="fill:#0684ff;fill-opacity:1;stroke:#0066ff;stroke-width:2.0264;stroke-miterlimit:4;stroke-dasharray:none;stroke-opacity:1"
           id="polygon257"
           points="352.5,190.6 443.8,190.6 489.2,111.8 443.8,32.6 352.5,32.6 307.1,111.4 " />
      </g>
    </g>
  </g>
</svg>
