<!--?xml version="1.0" encoding="UTF-8" standalone="no"?-->
<svg data-name="Layer 1" width="676" height="676" viewBox="0 0 676 676" version="1.1" id="svg2318" sodipodi:docname="Team-JunTech-Web-Solutions-Aruba.svg" inkscape:version="1.1.1 (3bf5ae0d25, 2021-09-20)" xmlns:inkscape="http://www.inkscape.org/namespaces/inkscape" xmlns:sodipodi="http://sodipodi.sourceforge.net/DTD/sodipodi-0.dtd" xmlns="http://www.w3.org/2000/svg" xmlns:svg="http://www.w3.org/2000/svg" xmlns:rdf="http://www.w3.org/1999/02/22-rdf-syntax-ns#" xmlns:cc="http://creativecommons.org/ns#" xmlns:dc="http://purl.org/dc/elements/1.1/" style="">
  <defs id="defs2322"></defs>
  <sodipodi:namedview id="namedview2320" pagecolor="#ffffff" bordercolor="#666666" borderopacity="1.0" inkscape:pageshadow="2" inkscape:pageopacity="0.0" inkscape:pagecheckerboard="0" showgrid="false" inkscape:zoom="0.60059172" inkscape:cx="338.83251" inkscape:cy="272.23153" inkscape:window-width="1920" inkscape:window-height="1001" inkscape:window-x="-9" inkscape:window-y="-9" inkscape:window-maximized="1" inkscape:current-layer="svg2318"></sodipodi:namedview>
  <title id="title2288">male_avatar</title>
  <path d="m 626.06855,339.6213 a 287.13935,287.145 0 0 1 -23.20287,113.45932 l -0.95471,2.19929 A 288.59444,288.60011 0 0 1 287.95619,623.42305 q -2.59563,-0.46032 -5.18272,-0.95474 a 285.54457,285.55019 0 0 1 -52.11695,-15.36943 q -4.10441,-1.64946 -8.14914,-3.41826 c -1.84122,-0.8013 -3.68245,-1.62816 -5.50663,-2.4806 A 288.47104,288.47671 0 0 1 49.832682,339.6213 c 0,-159.12436 128.996708,-288.123594 288.117938,-288.123594 159.12122,0 288.11793,128.999234 288.11793,288.123594 z" fill="#00b0ff" id="path2290" style="stroke: rgb(0, 45, 255); stroke-width: 1.36388; stroke-miterlimit: 4; stroke-opacity: 1;" class="yCGRyTRM_0"></path>
  <path d="m 238.82653,257.37939 c -5.43883,30.68544 6.56752,58.47056 6.56752,58.47056 0,0 20.82444,-21.9658 26.26327,-52.65124 5.43883,-30.68543 -6.56752,-58.47055 -6.56752,-58.47055 0,0 -20.82445,21.9658 -26.26327,52.65123 z" opacity="0.2" id="path2300" style="stroke-width:0.852428" class="yCGRyTRM_1"></path>
  <path fill="#d0cde1" id="circle2306" style="fill:#f4e3d7;stroke-width:0.852428" d="M225.03564,291.09958A112.32349,112.3257 0,1,1 449.68262,291.09958A112.32349,112.3257 0,1,1 225.03564,291.09958" class="yCGRyTRM_2"></path>
  <path d="m 293.48275,377.09894 c 0,0 14.04043,66.69339 14.04043,73.71374 0,7.02036 66.69208,38.61197 66.69208,38.61197 l 59.67181,-10.53054 21.06074,-63.18321 c 0,0 -35.1011,-52.65267 -35.1011,-73.71374 z" fill="#d0cde1" id="path2308" style="fill:#f4e3d7;stroke-width:0.852428" class="yCGRyTRM_3"></path>
  <path d="m 602.86568,453.08062 -0.95471,2.19929 A 288.59444,288.60011 0 0 1 287.95619,623.42305 q -2.59563,-0.46032 -5.18272,-0.95474 a 285.54457,285.55019 0 0 1 -52.11695,-15.36943 q -4.10441,-1.64946 -8.14914,-3.41826 c -1.84122,-0.8013 -3.68245,-1.62816 -5.50663,-2.4806 a 287.77076,287.77643 0 0 1 -47.0962,-27.51666 l -13.31479,-38.6239 7.48424,-5.71128 15.3947,-11.7551 16.42613,-12.53935 4.27063,-3.26483 64.45147,-49.20265 4.7565,-3.63138 33.50011,-25.5731 0.009,-0.009 c 0,0 36.22785,59.03124 88.88183,41.47956 52.65397,-17.55167 51.50321,-67.87953 51.50321,-67.87953 z" fill="#2f2e41" id="path2310" style="fill: rgb(0, 0, 0); stroke: rgb(1, 100, 250); stroke-width: 1.44913; stroke-miterlimit: 4; stroke-opacity: 1;" class="yCGRyTRM_4"></path>
  <path d="m 239.95248,200.60252 c 0,0 35.6623,-77.26981 104.01502,-59.43832 68.35273,17.83149 106.98687,44.57873 109.95876,71.32599 2.97189,26.74724 -1.48594,66.86809 -1.48594,66.86809 0,0 -7.42968,-54.98046 -54.97937,-43.09278 -47.54969,11.88768 -121.84616,2.97192 -121.84616,2.97192 L 263.72735,346.2264 c 0,0 -13.37336,-19.31746 -28.23265,-7.42979 -14.85928,11.88767 -43.09193,-114.41878 4.45778,-138.19409 z" fill="#2f2e41" id="path2312" style="fill: rgb(26, 26, 26); stroke: rgb(1, 100, 250); stroke-width: 1.44913; stroke-miterlimit: 4; stroke-opacity: 1;" class="yCGRyTRM_5"></path>
  <path d="m 230.65652,607.09888 q -4.10441,-1.64946 -8.14914,-3.41826 c -1.84122,-0.8013 -3.68245,-1.62816 -5.50663,-2.4806 a 288.8297,288.83538 0 0 1 -74.66346,-50.03803 c 7.83374,-10.67251 14.25247,-16.10253 14.25247,-16.10253 h 52.65397 l 7.89341,26.54488 z" fill="#2f2e41" id="path2314" style="fill:#000000;stroke-width:0.852428" class="yCGRyTRM_6"></path>
  <path d="m 556.74124,447.3011 45.16973,7.97881 a 288.07049,288.07615 0 0 1 -48.38336,75.50031 z" fill="#2f2e41" id="path2316" style="fill:#000000;stroke-width:0.852428" class="yCGRyTRM_7"></path>
  <g transform="matrix(0.08151727,0,0,0.08101825,486.19869,502.18789)" style="fill:#0684ff;fill-opacity:1;stroke:#002dff;stroke-width:11.5381;stroke-miterlimit:4;stroke-dasharray:none;stroke-opacity:1" id="g263">
    <g style="fill:#0684ff;fill-opacity:1;stroke:#002dff;stroke-width:11.5381;stroke-miterlimit:4;stroke-dasharray:none;stroke-opacity:1" id="g261">
      <g style="fill:#0684ff;fill-opacity:1;stroke:#002dff;stroke-width:11.5381;stroke-miterlimit:4;stroke-dasharray:none;stroke-opacity:1" id="g259">
        <path style="fill: rgb(6, 132, 255); fill-opacity: 1; stroke: rgb(0, 45, 255); stroke-width: 11.5381; stroke-miterlimit: 4; stroke-opacity: 1;" id="polygon249" d="M0,288.9L45.4,367.7L136.7,367.7L182.1,288.9L136.7,210L45.4,210Z" class="yCGRyTRM_8"></path>
        <path style="fill: rgb(6, 132, 255); fill-opacity: 1; stroke: rgb(0, 45, 255); stroke-width: 11.5381; stroke-miterlimit: 4; stroke-opacity: 1;" id="polygon251" d="M199.2,279.2L290,279.2L335.8,200.3L290,121.5L199.2,121.5L153.7,200.3Z" class="yCGRyTRM_9"></path>
        <path style="fill: rgb(6, 132, 255); fill-opacity: 1; stroke: rgb(0, 45, 255); stroke-width: 11.5381; stroke-miterlimit: 4; stroke-opacity: 1;" id="polygon253" d="M290,456.6L335.8,377.4L290,298.6L199.2,298.6L153.7,377.4L199.2,456.6Z" class="yCGRyTRM_10"></path>
        <path style="fill: rgb(6, 132, 255); fill-opacity: 1; stroke: rgb(0, 45, 255); stroke-width: 11.5381; stroke-miterlimit: 4; stroke-opacity: 1;" id="polygon255" d="M45.4,32.6L0,111.8L45.4,190.6L136.7,190.6L182.1,111.8L136.7,32.6Z" class="yCGRyTRM_11"></path>
        <path style="fill: rgb(6, 132, 255); fill-opacity: 1; stroke: rgb(0, 45, 255); stroke-width: 11.5381; stroke-miterlimit: 4; stroke-opacity: 1;" id="polygon257" d="M443.8,190.6L489.2,111.8L443.8,32.6L352.5,32.6L307.1,111.4L352.5,190.6Z" class="yCGRyTRM_12"></path>
      </g>
    </g>
  </g>
  <metadata id="metadata3557">
    <rdf:rdf>
      <cc:work rdf:about="">
        <dc:title>male_avatar</dc:title>
      </cc:work>
    </rdf:rdf>
  </metadata>
<style data-made-with="vivus-instant">.yCGRyTRM_0{stroke-dasharray:1811 1813;stroke-dashoffset:1812;animation:yCGRyTRM_draw_0 7200ms ease-out 0ms infinite,yCGRyTRM_fade 7200ms linear 0ms infinite;}.yCGRyTRM_1{stroke-dasharray:239 241;stroke-dashoffset:240;animation:yCGRyTRM_draw_1 7200ms ease-out 0ms infinite,yCGRyTRM_fade 7200ms linear 0ms infinite;}.yCGRyTRM_2{stroke-dasharray:706 708;stroke-dashoffset:707;animation:yCGRyTRM_draw_2 7200ms ease-out 0ms infinite,yCGRyTRM_fade 7200ms linear 0ms infinite;}.yCGRyTRM_3{stroke-dasharray:494 496;stroke-dashoffset:495;animation:yCGRyTRM_draw_3 7200ms ease-out 0ms infinite,yCGRyTRM_fade 7200ms linear 0ms infinite;}.yCGRyTRM_4{stroke-dasharray:1107 1109;stroke-dashoffset:1108;animation:yCGRyTRM_draw_4 7200ms ease-out 0ms infinite,yCGRyTRM_fade 7200ms linear 0ms infinite;}.yCGRyTRM_5{stroke-dasharray:833 835;stroke-dashoffset:834;animation:yCGRyTRM_draw_5 7200ms ease-out 0ms infinite,yCGRyTRM_fade 7200ms linear 0ms infinite;}.yCGRyTRM_6{stroke-dasharray:255 257;stroke-dashoffset:256;animation:yCGRyTRM_draw_6 7200ms ease-out 0ms infinite,yCGRyTRM_fade 7200ms linear 0ms infinite;}.yCGRyTRM_7{stroke-dasharray:220 222;stroke-dashoffset:221;animation:yCGRyTRM_draw_7 7200ms ease-out 0ms infinite,yCGRyTRM_fade 7200ms linear 0ms infinite;}.yCGRyTRM_8{stroke-dasharray:547 549;stroke-dashoffset:548;animation:yCGRyTRM_draw_8 7200ms ease-out 0ms infinite,yCGRyTRM_fade 7200ms linear 0ms infinite;}.yCGRyTRM_9{stroke-dasharray:547 549;stroke-dashoffset:548;animation:yCGRyTRM_draw_9 7200ms ease-out 0ms infinite,yCGRyTRM_fade 7200ms linear 0ms infinite;}.yCGRyTRM_10{stroke-dasharray:547 549;stroke-dashoffset:548;animation:yCGRyTRM_draw_10 7200ms ease-out 0ms infinite,yCGRyTRM_fade 7200ms linear 0ms infinite;}.yCGRyTRM_11{stroke-dasharray:548 550;stroke-dashoffset:549;animation:yCGRyTRM_draw_11 7200ms ease-out 0ms infinite,yCGRyTRM_fade 7200ms linear 0ms infinite;}.yCGRyTRM_12{stroke-dasharray:548 550;stroke-dashoffset:549;animation:yCGRyTRM_draw_12 7200ms ease-out 0ms infinite,yCGRyTRM_fade 7200ms linear 0ms infinite;}@keyframes yCGRyTRM_draw{100%{stroke-dashoffset:0;}}@keyframes yCGRyTRM_fade{0%{stroke-opacity:1;}94.44444444444444%{stroke-opacity:1;}100%{stroke-opacity:0;}}@keyframes yCGRyTRM_draw_0{11.11111111111111%{stroke-dashoffset: 1812}38.88888888888889%{ stroke-dashoffset: 0;}100%{ stroke-dashoffset: 0;}}@keyframes yCGRyTRM_draw_1{12.268518518518519%{stroke-dashoffset: 240}40.0462962962963%{ stroke-dashoffset: 0;}100%{ stroke-dashoffset: 0;}}@keyframes yCGRyTRM_draw_2{13.425925925925924%{stroke-dashoffset: 707}41.2037037037037%{ stroke-dashoffset: 0;}100%{ stroke-dashoffset: 0;}}@keyframes yCGRyTRM_draw_3{14.583333333333334%{stroke-dashoffset: 495}42.36111111111111%{ stroke-dashoffset: 0;}100%{ stroke-dashoffset: 0;}}@keyframes yCGRyTRM_draw_4{15.740740740740739%{stroke-dashoffset: 1108}43.51851851851851%{ stroke-dashoffset: 0;}100%{ stroke-dashoffset: 0;}}@keyframes yCGRyTRM_draw_5{16.898148148148145%{stroke-dashoffset: 834}44.675925925925924%{ stroke-dashoffset: 0;}100%{ stroke-dashoffset: 0;}}@keyframes yCGRyTRM_draw_6{18.055555555555554%{stroke-dashoffset: 256}45.83333333333333%{ stroke-dashoffset: 0;}100%{ stroke-dashoffset: 0;}}@keyframes yCGRyTRM_draw_7{19.212962962962962%{stroke-dashoffset: 221}46.99074074074074%{ stroke-dashoffset: 0;}100%{ stroke-dashoffset: 0;}}@keyframes yCGRyTRM_draw_8{20.37037037037037%{stroke-dashoffset: 548}48.148148148148145%{ stroke-dashoffset: 0;}100%{ stroke-dashoffset: 0;}}@keyframes yCGRyTRM_draw_9{21.52777777777778%{stroke-dashoffset: 548}49.30555555555556%{ stroke-dashoffset: 0;}100%{ stroke-dashoffset: 0;}}@keyframes yCGRyTRM_draw_10{22.685185185185183%{stroke-dashoffset: 548}50.462962962962955%{ stroke-dashoffset: 0;}100%{ stroke-dashoffset: 0;}}@keyframes yCGRyTRM_draw_11{23.84259259259259%{stroke-dashoffset: 549}51.620370370370374%{ stroke-dashoffset: 0;}100%{ stroke-dashoffset: 0;}}@keyframes yCGRyTRM_draw_12{25%{stroke-dashoffset: 549}52.77777777777778%{ stroke-dashoffset: 0;}100%{ stroke-dashoffset: 0;}}</style></svg>
