<!--?xml version="1.0" encoding="UTF-8" standalone="no"?-->
<svg data-name="Layer 1" width="977.59998" height="977.71057" viewBox="0 0 977.59998 977.71057" version="1.1" id="svg2318" sodipodi:docname="Team-JunTech-Web-Solutions-Aruba.svg" inkscape:version="1.1.1 (3bf5ae0d25, 2021-09-20)" xmlns:inkscape="http://www.inkscape.org/namespaces/inkscape" xmlns:sodipodi="http://sodipodi.sourceforge.net/DTD/sodipodi-0.dtd" xmlns="http://www.w3.org/2000/svg" xmlns:svg="http://www.w3.org/2000/svg" xmlns:rdf="http://www.w3.org/1999/02/22-rdf-syntax-ns#" xmlns:cc="http://creativecommons.org/ns#" xmlns:dc="http://purl.org/dc/elements/1.1/" style="">
  <defs id="defs2322"></defs>
  <sodipodi:namedview id="namedview2320" pagecolor="#ffffff" bordercolor="#666666" borderopacity="1.0" inkscape:pageshadow="2" inkscape:pageopacity="0.0" inkscape:pagecheckerboard="0" showgrid="false" inkscape:zoom="0.6776723" inkscape:cx="837.4254" inkscape:cy="455.23478" inkscape:window-width="1920" inkscape:window-height="1001" inkscape:window-x="-9" inkscape:window-y="-9" inkscape:window-maximized="1" inkscape:current-layer="svg2318"></sodipodi:namedview>
  <title id="title2288">male_avatar</title>
  <path d="m 928.2108,505.1821 a 436.27678,436.25534 0 0 1 -35.25419,172.37713 l -1.45061,3.34135 A 438.48762,438.46609 0 0 1 414.48615,936.35809 q -3.94378,-0.69936 -7.87459,-1.45053 a 433.85367,433.83238 0 0 1 -79.18599,-23.35058 q -6.2362,-2.50597 -12.38173,-5.19329 c -2.79751,-1.2174 -5.59507,-2.47364 -8.3667,-3.76874 A 438.30013,438.27859 0 0 1 52.683578,505.1821 c 0,-241.75541 195.996342,-437.742128 437.763622,-437.742128 241.76724,0 437.7636,195.986718 437.7636,437.742128 z" fill="#00b0ff" id="path2290" style="fill: rgb(0, 161, 236); fill-opacity: 1; stroke: rgb(0, 45, 255); stroke-width: 2.07239; stroke-miterlimit: 4; stroke-opacity: 1;" class="iKpoYfeM_0"></path>
  <path d="m 339.83902,380.23314 c -8.26372,46.61991 9.97863,88.83348 9.97863,88.83348 0,0 31.64044,-33.37233 39.90414,-79.9923 8.26373,-46.61994 -9.97863,-88.83346 -9.97863,-88.83346 0,0 -31.64046,33.37235 -39.90414,79.99228 z" opacity="0.2" id="path2300" style="stroke-width:1.29513" class="iKpoYfeM_1"></path>
  <path fill="#d0cde1" id="circle2306" style="fill:#f4e3d7;stroke-width:1.29513" d="M318.88521,431.46368A170.66325,170.65485 0,1,1 660.21171,431.46368A170.66325,170.65485 0,1,1 318.88521,431.46368" class="iKpoYfeM_2"></path>
  <path d="m 422.88315,562.12133 c 0,0 21.33288,101.32635 21.33288,111.99227 0,10.66591 101.33131,58.66262 101.33131,58.66262 l 90.66478,-15.99892 31.99949,-95.99337 c 0,0 -53.33227,-79.99445 -53.33227,-111.99222 z" fill="#d0cde1" id="path2308" style="fill:#f4e3d7;stroke-width:1.29513" class="iKpoYfeM_3"></path>
  <path d="m 892.95662,677.55923 -1.45062,3.34135 c -79.22586,186.14606 -278.16264,290.26298 -477.01985,255.45751 -2.6292,-0.46624 -5.25404,-0.94976 -7.87459,-1.45053 -27.0776,-5.24887 -51.13327,-11.94983 -76.72631,-22.23262 -4.15747,-1.67063 -10.74438,-4.51971 -14.84141,-6.31125 -2.79751,-1.2174 -5.59507,-2.47364 -8.3667,-3.76874 C 281.55471,890.9567 257.5946,876.95862 235.1196,860.78926 l -20.23035,-58.68071 11.37148,-8.67709 23.39057,-17.85935 24.9577,-19.05088 6.48876,-4.96019 97.92693,-74.75289 7.22697,-5.5171 50.89977,-38.85286 0.0129,-0.0129 c 0,0 55.04426,89.68532 135.04619,63.01934 C 652.21246,668.77859 650.464,592.31619 650.464,592.31619 Z" fill="#2f2e41" id="path2310" style="fill: rgb(0, 0, 0); stroke: rgb(1, 100, 250); stroke-width: 2.20153; stroke-miterlimit: 4; stroke-opacity: 1;" sodipodi:nodetypes="cccccccccccccccccscc" class="iKpoYfeM_4"></path>
  <path d="m 341.54977,293.97282 c 0,0 54.18495,-117.39494 158.03941,-90.30381 103.8545,27.09114 162.55482,67.72786 167.0703,108.36459 4.51544,40.63669 -2.25773,101.59172 -2.25773,101.59172 0,0 -11.28859,-83.53101 -83.53513,-65.47026 -72.24653,18.06082 -185.13188,4.51521 -185.13188,4.51521 l -18.06167,162.54686 c 0,0 -20.31935,-29.34874 -42.89642,-11.28797 -22.57702,18.06078 -65.47345,-173.83485 6.77312,-209.95634 z" fill="#2f2e41" id="path2312" style="fill: rgb(26, 26, 26); stroke: rgb(1, 100, 250); stroke-width: 2.20173; stroke-miterlimit: 4; stroke-opacity: 1;" class="iKpoYfeM_5"></path>
  <path d="m 279.35013,858.78942 c -4.15749,-1.67064 54.32518,54.06121 50.22817,52.26971 0,0 -20.12953,-7.16908 -22.90116,-8.46418 -41.54982,-19.26605 -79.82749,-44.91726 -113.44295,-76.02208 11.90251,-16.21457 23.02134,-24.079 23.02134,-24.079 72.55924,92.64164 52.45881,-0.26856 78.63566,-0.38532 l 11.99318,40.32924 z" fill="#2f2e41" id="path2314" style="fill:#000000;stroke-width:1.29513" sodipodi:nodetypes="cccccccc" class="iKpoYfeM_6"></path>
  <path d="M 822.87557,668.77849 891.506,680.90058 A 437.69154,437.67002 0 0 1 817.99281,795.60714 Z" fill="#2f2e41" id="path2316" style="fill:#000000;stroke-width:1.29513" class="iKpoYfeM_7"></path>
  <g transform="matrix(0.12385656,0,0,0.12308989,715.69391,752.16723)" style="fill:#0684ff;fill-opacity:1;stroke:#002dff;stroke-width:11.5381;stroke-miterlimit:4;stroke-dasharray:none;stroke-opacity:1" id="g263">
    <g style="fill:#0684ff;fill-opacity:1;stroke:#002dff;stroke-width:11.5381;stroke-miterlimit:4;stroke-dasharray:none;stroke-opacity:1" id="g261">
      <g style="fill:#0684ff;fill-opacity:1;stroke:#002dff;stroke-width:11.5381;stroke-miterlimit:4;stroke-dasharray:none;stroke-opacity:1" id="g259">
        <path style="fill: rgb(6, 132, 255); fill-opacity: 1; stroke: rgb(0, 45, 255); stroke-width: 11.5381; stroke-miterlimit: 4; stroke-opacity: 1;" id="polygon249" d="M45.4,367.7L136.7,367.7L182.1,288.9L136.7,210L45.4,210L0,288.9Z" class="iKpoYfeM_8"></path>
        <path style="fill: rgb(6, 132, 255); fill-opacity: 1; stroke: rgb(0, 45, 255); stroke-width: 11.5381; stroke-miterlimit: 4; stroke-opacity: 1;" id="polygon251" d="M290,279.2L335.8,200.3L290,121.5L199.2,121.5L153.7,200.3L199.2,279.2Z" class="iKpoYfeM_9"></path>
        <path style="fill: rgb(6, 132, 255); fill-opacity: 1; stroke: rgb(0, 45, 255); stroke-width: 11.5381; stroke-miterlimit: 4; stroke-opacity: 1;" id="polygon253" d="M335.8,377.4L290,298.6L199.2,298.6L153.7,377.4L199.2,456.6L290,456.6Z" class="iKpoYfeM_10"></path>
        <path style="fill: rgb(6, 132, 255); fill-opacity: 1; stroke: rgb(0, 45, 255); stroke-width: 11.5381; stroke-miterlimit: 4; stroke-opacity: 1;" id="polygon255" d="M0,111.8L45.4,190.6L136.7,190.6L182.1,111.8L136.7,32.6L45.4,32.6Z" class="iKpoYfeM_11"></path>
        <path style="fill: rgb(6, 132, 255); fill-opacity: 1; stroke: rgb(0, 45, 255); stroke-width: 11.5381; stroke-miterlimit: 4; stroke-opacity: 1;" id="polygon257" d="M489.2,111.8L443.8,32.6L352.5,32.6L307.1,111.4L352.5,190.6L443.8,190.6Z" class="iKpoYfeM_12"></path>
      </g>
    </g>
  </g>
  <metadata id="metadata3557">
    <rdf:rdf>
      <cc:work rdf:about="">
        <dc:title>male_avatar</dc:title>
      </cc:work>
    </rdf:rdf>
  </metadata>
<style data-made-with="vivus-instant">.iKpoYfeM_0{stroke-dasharray:2751 2753;stroke-dashoffset:2752;animation:iKpoYfeM_draw_0 7200ms ease-out 0ms infinite,iKpoYfeM_fade 7200ms linear 0ms infinite;}.iKpoYfeM_1{stroke-dasharray:362 364;stroke-dashoffset:363;animation:iKpoYfeM_draw_1 7200ms ease-out 0ms infinite,iKpoYfeM_fade 7200ms linear 0ms infinite;}.iKpoYfeM_2{stroke-dasharray:1073 1075;stroke-dashoffset:1074;animation:iKpoYfeM_draw_2 7200ms ease-out 0ms infinite,iKpoYfeM_fade 7200ms linear 0ms infinite;}.iKpoYfeM_3{stroke-dasharray:750 752;stroke-dashoffset:751;animation:iKpoYfeM_draw_3 7200ms ease-out 0ms infinite,iKpoYfeM_fade 7200ms linear 0ms infinite;}.iKpoYfeM_4{stroke-dasharray:1682 1684;stroke-dashoffset:1683;animation:iKpoYfeM_draw_4 7200ms ease-out 0ms infinite,iKpoYfeM_fade 7200ms linear 0ms infinite;}.iKpoYfeM_5{stroke-dasharray:1266 1268;stroke-dashoffset:1267;animation:iKpoYfeM_draw_5 7200ms ease-out 0ms infinite,iKpoYfeM_fade 7200ms linear 0ms infinite;}.iKpoYfeM_6{stroke-dasharray:462 464;stroke-dashoffset:463;animation:iKpoYfeM_draw_6 7200ms ease-out 0ms infinite,iKpoYfeM_fade 7200ms linear 0ms infinite;}.iKpoYfeM_7{stroke-dasharray:334 336;stroke-dashoffset:335;animation:iKpoYfeM_draw_7 7200ms ease-out 0ms infinite,iKpoYfeM_fade 7200ms linear 0ms infinite;}.iKpoYfeM_8{stroke-dasharray:547 549;stroke-dashoffset:548;animation:iKpoYfeM_draw_8 7200ms ease-out 0ms infinite,iKpoYfeM_fade 7200ms linear 0ms infinite;}.iKpoYfeM_9{stroke-dasharray:547 549;stroke-dashoffset:548;animation:iKpoYfeM_draw_9 7200ms ease-out 0ms infinite,iKpoYfeM_fade 7200ms linear 0ms infinite;}.iKpoYfeM_10{stroke-dasharray:547 549;stroke-dashoffset:548;animation:iKpoYfeM_draw_10 7200ms ease-out 0ms infinite,iKpoYfeM_fade 7200ms linear 0ms infinite;}.iKpoYfeM_11{stroke-dasharray:548 550;stroke-dashoffset:549;animation:iKpoYfeM_draw_11 7200ms ease-out 0ms infinite,iKpoYfeM_fade 7200ms linear 0ms infinite;}.iKpoYfeM_12{stroke-dasharray:548 550;stroke-dashoffset:549;animation:iKpoYfeM_draw_12 7200ms ease-out 0ms infinite,iKpoYfeM_fade 7200ms linear 0ms infinite;}@keyframes iKpoYfeM_draw{100%{stroke-dashoffset:0;}}@keyframes iKpoYfeM_fade{0%{stroke-opacity:1;}94.44444444444444%{stroke-opacity:1;}100%{stroke-opacity:0;}}@keyframes iKpoYfeM_draw_0{11.11111111111111%{stroke-dashoffset: 2752}38.88888888888889%{ stroke-dashoffset: 0;}100%{ stroke-dashoffset: 0;}}@keyframes iKpoYfeM_draw_1{12.268518518518519%{stroke-dashoffset: 363}40.0462962962963%{ stroke-dashoffset: 0;}100%{ stroke-dashoffset: 0;}}@keyframes iKpoYfeM_draw_2{13.425925925925924%{stroke-dashoffset: 1074}41.2037037037037%{ stroke-dashoffset: 0;}100%{ stroke-dashoffset: 0;}}@keyframes iKpoYfeM_draw_3{14.583333333333334%{stroke-dashoffset: 751}42.36111111111111%{ stroke-dashoffset: 0;}100%{ stroke-dashoffset: 0;}}@keyframes iKpoYfeM_draw_4{15.740740740740739%{stroke-dashoffset: 1683}43.51851851851851%{ stroke-dashoffset: 0;}100%{ stroke-dashoffset: 0;}}@keyframes iKpoYfeM_draw_5{16.898148148148145%{stroke-dashoffset: 1267}44.675925925925924%{ stroke-dashoffset: 0;}100%{ stroke-dashoffset: 0;}}@keyframes iKpoYfeM_draw_6{18.055555555555554%{stroke-dashoffset: 463}45.83333333333333%{ stroke-dashoffset: 0;}100%{ stroke-dashoffset: 0;}}@keyframes iKpoYfeM_draw_7{19.212962962962962%{stroke-dashoffset: 335}46.99074074074074%{ stroke-dashoffset: 0;}100%{ stroke-dashoffset: 0;}}@keyframes iKpoYfeM_draw_8{20.37037037037037%{stroke-dashoffset: 548}48.148148148148145%{ stroke-dashoffset: 0;}100%{ stroke-dashoffset: 0;}}@keyframes iKpoYfeM_draw_9{21.52777777777778%{stroke-dashoffset: 548}49.30555555555556%{ stroke-dashoffset: 0;}100%{ stroke-dashoffset: 0;}}@keyframes iKpoYfeM_draw_10{22.685185185185183%{stroke-dashoffset: 548}50.462962962962955%{ stroke-dashoffset: 0;}100%{ stroke-dashoffset: 0;}}@keyframes iKpoYfeM_draw_11{23.84259259259259%{stroke-dashoffset: 549}51.620370370370374%{ stroke-dashoffset: 0;}100%{ stroke-dashoffset: 0;}}@keyframes iKpoYfeM_draw_12{25%{stroke-dashoffset: 549}52.77777777777778%{ stroke-dashoffset: 0;}100%{ stroke-dashoffset: 0;}}</style></svg>
