<?xml version="1.0" encoding="UTF-8" standalone="no"?>
<svg
   data-name="Layer 1"
   width="676"
   height="676"
   viewBox="0 0 676 676"
   version="1.1"
   id="svg2318"
   sodipodi:docname="Team-JunTech-Web-Solutions-Aruba.svg"
   inkscape:version="1.1.1 (3bf5ae0d25, 2021-09-20)"
   xmlns:inkscape="http://www.inkscape.org/namespaces/inkscape"
   xmlns:sodipodi="http://sodipodi.sourceforge.net/DTD/sodipodi-0.dtd"
   xmlns="http://www.w3.org/2000/svg"
   xmlns:svg="http://www.w3.org/2000/svg"
   xmlns:rdf="http://www.w3.org/1999/02/22-rdf-syntax-ns#"
   xmlns:cc="http://creativecommons.org/ns#"
   xmlns:dc="http://purl.org/dc/elements/1.1/">
  <defs
     id="defs2322" />
  <sodipodi:namedview
     id="namedview2320"
     pagecolor="#ffffff"
     bordercolor="#666666"
     borderopacity="1.0"
     inkscape:pageshadow="2"
     inkscape:pageopacity="0.0"
     inkscape:pagecheckerboard="0"
     showgrid="false"
     inkscape:zoom="1.2011834"
     inkscape:cx="338.41626"
     inkscape:cy="405.01724"
     inkscape:window-width="1920"
     inkscape:window-height="1001"
     inkscape:window-x="-9"
     inkscape:window-y="-9"
     inkscape:window-maximized="1"
     inkscape:current-layer="svg2318" />
  <title
     id="title2288">male_avatar</title>
  <path
     d="M938,450a336.852,336.852,0,0,1-27.22,133.1L909.66,585.68A338.559,338.559,0,0,1,541.35,782.93q-3.045-.54-6.08-1.12a334.98111,334.98111,0,0,1-61.14-18.03q-4.815-1.935-9.56-4.01c-2.16-.94-4.32-1.91-6.46-2.91A338.41424,338.41424,0,0,1,262,450c0-186.67,151.33-338,338-338S938,263.33,938,450Z"
     transform="translate(-262 -112)"
     fill="#00b0ff"
     id="path2290"
     style="stroke:#002dff;stroke-opacity:1;stroke-width:1.7;stroke-miterlimit:4;stroke-dasharray:none" />
  <path
     d="M483.71449,353.52139c-6.38046,35.99732,7.70456,68.59225,7.70456,68.59225s24.42979-25.76825,30.81025-61.76557-7.70457-68.59225-7.70457-68.59225S490.09494,317.52407,483.71449,353.52139Z"
     transform="translate(-262 -112)"
     opacity="0.2"
     id="path2300" />
  <circle
     cx="337.30608"
     cy="281.0788"
     r="131.77014"
     fill="#d0cde1"
     id="circle2306"
     style="fill:#f4e3d7" />
  <path
     d="M547.83337,493.96531s16.47127,78.23852,16.47127,86.47415,78.23852,45.296,78.23852,45.296L712.546,613.382,737.253,539.26129s-41.17817-61.76725-41.17817-86.47415Z"
     transform="translate(-262 -112)"
     fill="#d0cde1"
     id="path2308"
     style="fill:#f4e3d7" />
  <path
     d="M910.78,583.1,909.66,585.68A338.559,338.559,0,0,1,541.35,782.93q-3.045-.54-6.08-1.12a334.98111,334.98111,0,0,1-61.14-18.03q-4.815-1.935-9.56-4.01c-2.16-.94-4.32-1.91-6.46-2.91a337.59273,337.59273,0,0,1-55.25-32.28l-15.62-45.31,8.78-6.69995,18.06-13.79,19.27-14.71,5.01-3.83,75.61-57.72,5.58-4.26,39.3-30,.01-.01s42.5,69.25,104.27,48.66,60.42-79.63,60.42-79.63Z"
     transform="translate(-262 -112)"
     fill="#2f2e41"
     id="path2310"
     style="fill:#000000;stroke:#0164fa;stroke-opacity:1;stroke-width:1.7;stroke-miterlimit:4;stroke-dasharray:none" />
  <path
     d="M485.03538,286.916s41.83653-90.64581,122.02321-69.72755,125.50958,52.29566,128.996,83.67306-1.74319,78.44348-1.74319,78.44348-8.716-64.498-64.498-50.55247-142.94147,3.48638-142.94147,3.48638L512.9264,457.74849s-15.6887-22.66145-33.12058-8.71594S429.25335,314.807,485.03538,286.916Z"
     transform="translate(-262 -112)"
     fill="#2f2e41"
     id="path2312"
     style="fill:#1a1a1a;stroke-width:1.7;stroke-miterlimit:4;stroke-dasharray:none;stroke:#0164fa;stroke-opacity:1" />
  <path
     d="M474.13,763.78q-4.815-1.935-9.56-4.01c-2.16-.94-4.32-1.91-6.46-2.91a338.835,338.835,0,0,1-87.59-58.7c9.19-12.52,16.72-18.89,16.72-18.89h61.77l9.26,31.14Z"
     transform="translate(-262 -112)"
     fill="#2f2e41"
     id="path2314"
     style="fill:#000000" />
  <path
     d="M856.67,576.32l52.99,9.36A337.94434,337.94434,0,0,1,852.9,674.25Z"
     transform="translate(-262 -112)"
     fill="#2f2e41"
     id="path2316"
     style="fill:#000000" />
  <g
     transform="matrix(0.09563041,0,0,0.09504314,511.91437,528.70811)"
     style="fill:#0684ff;fill-opacity:1;stroke:#002dff;stroke-width:11.5381;stroke-miterlimit:4;stroke-dasharray:none;stroke-opacity:1"
     id="g263">
    <g
       style="fill:#0684ff;fill-opacity:1;stroke:#002dff;stroke-width:11.5381;stroke-miterlimit:4;stroke-dasharray:none;stroke-opacity:1"
       id="g261">
      <g
         style="fill:#0684ff;fill-opacity:1;stroke:#002dff;stroke-width:11.5381;stroke-miterlimit:4;stroke-dasharray:none;stroke-opacity:1"
         id="g259">
        <polygon
           style="fill:#0684ff;fill-opacity:1;stroke:#002dff;stroke-width:11.5381;stroke-miterlimit:4;stroke-dasharray:none;stroke-opacity:1"
           id="polygon249"
           points="182.1,288.9 136.7,210 45.4,210 0,288.9 45.4,367.7 136.7,367.7 " />
        <polygon
           style="fill:#0684ff;fill-opacity:1;stroke:#002dff;stroke-width:11.5381;stroke-miterlimit:4;stroke-dasharray:none;stroke-opacity:1"
           id="polygon251"
           points="290,121.5 199.2,121.5 153.7,200.3 199.2,279.2 290,279.2 335.8,200.3 " />
        <polygon
           style="fill:#0684ff;fill-opacity:1;stroke:#002dff;stroke-width:11.5381;stroke-miterlimit:4;stroke-dasharray:none;stroke-opacity:1"
           id="polygon253"
           points="199.2,298.6 153.7,377.4 199.2,456.6 290,456.6 335.8,377.4 290,298.6 " />
        <polygon
           style="fill:#0684ff;fill-opacity:1;stroke:#002dff;stroke-width:11.5381;stroke-miterlimit:4;stroke-dasharray:none;stroke-opacity:1"
           id="polygon255"
           points="136.7,190.6 182.1,111.8 136.7,32.6 45.4,32.6 0,111.8 45.4,190.6 " />
        <polygon
           style="fill:#0684ff;fill-opacity:1;stroke:#002dff;stroke-width:11.5381;stroke-miterlimit:4;stroke-dasharray:none;stroke-opacity:1"
           id="polygon257"
           points="352.5,32.6 307.1,111.4 352.5,190.6 443.8,190.6 489.2,111.8 443.8,32.6 " />
      </g>
    </g>
  </g>
  <metadata
     id="metadata3557">
    <rdf:RDF>
      <cc:Work
         rdf:about="">
        <dc:title>male_avatar</dc:title>
      </cc:Work>
    </rdf:RDF>
  </metadata>
</svg>
