<?xml version="1.0" encoding="UTF-8" standalone="no"?>
<svg
   data-name="Layer 1"
   width="676"
   height="676"
   viewBox="0 0 676 676"
   version="1.1"
   id="svg19263"
   sodipodi:docname="Team-JunTech-Web-Solutions-Aruba.svg"
   inkscape:version="1.1.1 (3bf5ae0d25, 2021-09-20)"
   xmlns:inkscape="http://www.inkscape.org/namespaces/inkscape"
   xmlns:sodipodi="http://sodipodi.sourceforge.net/DTD/sodipodi-0.dtd"
   xmlns:xlink="http://www.w3.org/1999/xlink"
   xmlns="http://www.w3.org/2000/svg"
   xmlns:svg="http://www.w3.org/2000/svg"
   xmlns:rdf="http://www.w3.org/1999/02/22-rdf-syntax-ns#"
   xmlns:cc="http://creativecommons.org/ns#"
   xmlns:dc="http://purl.org/dc/elements/1.1/">
  <defs
     id="defs19267">
    <linearGradient
       inkscape:collect="always"
       xlink:href="#linearGradient8692"
       id="linearGradient8694"
       x1="-506.28784"
       y1="135.10474"
       x2="490.36859"
       y2="244.60001"
       gradientUnits="userSpaceOnUse" />
    <linearGradient
       inkscape:collect="always"
       id="linearGradient8692">
      <stop
         style="stop-color:#0684ff;stop-opacity:1;"
         offset="0"
         id="stop943" />
      <stop
         style="stop-color:#0684ff;stop-opacity:0;"
         offset="1"
         id="stop945" />
    </linearGradient>
    <linearGradient
       inkscape:collect="always"
       xlink:href="#linearGradient5718"
       id="linearGradient5720"
       x1="3980.0288"
       y1="530.04456"
       x2="-538.38361"
       y2="530.04456"
       gradientUnits="userSpaceOnUse" />
    <linearGradient
       inkscape:collect="always"
       id="linearGradient5718">
      <stop
         style="stop-color:#2a7fff;stop-opacity:1;"
         offset="0"
         id="stop5714" />
      <stop
         style="stop-color:#2a7fff;stop-opacity:0;"
         offset="1"
         id="stop5716" />
    </linearGradient>
    <linearGradient
       inkscape:collect="always"
       xlink:href="#linearGradient5718"
       id="linearGradient6348"
       gradientUnits="userSpaceOnUse"
       x1="3783.1174"
       y1="514.69495"
       x2="2640.4011"
       y2="427.97873" />
    <linearGradient
       inkscape:collect="always"
       xlink:href="#linearGradient8692"
       id="linearGradient20488"
       gradientUnits="userSpaceOnUse"
       x1="-506.28784"
       y1="135.10474"
       x2="490.36859"
       y2="244.60001" />
    <linearGradient
       inkscape:collect="always"
       xlink:href="#linearGradient8692"
       id="linearGradient20490"
       gradientUnits="userSpaceOnUse"
       x1="-506.28784"
       y1="135.10474"
       x2="490.36859"
       y2="244.60001" />
    <linearGradient
       inkscape:collect="always"
       xlink:href="#linearGradient8692"
       id="linearGradient20492"
       gradientUnits="userSpaceOnUse"
       x1="-506.28784"
       y1="135.10474"
       x2="490.36859"
       y2="244.60001" />
    <linearGradient
       inkscape:collect="always"
       xlink:href="#linearGradient8692"
       id="linearGradient20494"
       gradientUnits="userSpaceOnUse"
       x1="-506.28784"
       y1="135.10474"
       x2="490.36859"
       y2="244.60001" />
    <linearGradient
       inkscape:collect="always"
       xlink:href="#linearGradient8692"
       id="linearGradient20496"
       gradientUnits="userSpaceOnUse"
       x1="-506.28784"
       y1="135.10474"
       x2="490.36859"
       y2="244.60001" />
    <linearGradient
       inkscape:collect="always"
       xlink:href="#linearGradient8692"
       id="linearGradient20498"
       gradientUnits="userSpaceOnUse"
       x1="-506.28784"
       y1="135.10474"
       x2="490.36859"
       y2="244.60001" />
    <linearGradient
       inkscape:collect="always"
       xlink:href="#linearGradient8692"
       id="linearGradient20500"
       gradientUnits="userSpaceOnUse"
       x1="-506.28784"
       y1="135.10474"
       x2="490.36859"
       y2="244.60001" />
    <linearGradient
       inkscape:collect="always"
       xlink:href="#linearGradient5718"
       id="linearGradient20502"
       gradientUnits="userSpaceOnUse"
       x1="3980.0288"
       y1="530.04456"
       x2="-538.38361"
       y2="530.04456" />
    <linearGradient
       inkscape:collect="always"
       xlink:href="#linearGradient5718"
       id="linearGradient20504"
       gradientUnits="userSpaceOnUse"
       x1="3980.0288"
       y1="530.04456"
       x2="-538.38361"
       y2="530.04456" />
  </defs>
  <sodipodi:namedview
     id="namedview19265"
     pagecolor="#ffffff"
     bordercolor="#666666"
     borderopacity="1.0"
     inkscape:pageshadow="2"
     inkscape:pageopacity="0.0"
     inkscape:pagecheckerboard="0"
     showgrid="false"
     inkscape:zoom="1.158284"
     inkscape:cx="569.37676"
     inkscape:cy="338"
     inkscape:window-width="1920"
     inkscape:window-height="1001"
     inkscape:window-x="-9"
     inkscape:window-y="-9"
     inkscape:window-maximized="1"
     inkscape:current-layer="svg19263" />
  <title
     id="title19233">male_avatar</title>
  <path
     d="M938,450a336.852,336.852,0,0,1-27.22,133.1L909.66,585.68A338.559,338.559,0,0,1,541.35,782.93q-3.045-.54-6.08-1.12a334.98111,334.98111,0,0,1-61.14-18.03q-4.815-1.935-9.56-4.01c-2.16-.94-4.32-1.91-6.46-2.91A338.41424,338.41424,0,0,1,262,450c0-186.67,151.33-338,338-338S938,263.33,938,450Z"
     transform="translate(-262 -112)"
     fill="#0084ff"
     id="path19235" />
  <path
     d="M483.71449,353.52139c-6.38046,35.99732,7.70456,68.59225,7.70456,68.59225s24.42979-25.76825,30.81025-61.76557-7.70457-68.59225-7.70457-68.59225S490.09494,317.52407,483.71449,353.52139Z"
     transform="translate(-262 -112)"
     opacity="0.2"
     id="path19245" />
  <circle
     cx="337.30608"
     cy="281.0788"
     r="131.77014"
     fill="#d0cde1"
     id="circle19251"
     style="fill:#ffe6d5" />
  <path
     d="M547.83337,493.96531s16.47127,78.23852,16.47127,86.47415,78.23852,45.296,78.23852,45.296L712.546,613.382,737.253,539.26129s-41.17817-61.76725-41.17817-86.47415Z"
     transform="translate(-262 -112)"
     fill="#d0cde1"
     id="path19253"
     style="fill:#ffe6d5" />
  <path
     d="M910.78,583.1,909.66,585.68A338.559,338.559,0,0,1,541.35,782.93q-3.045-.54-6.08-1.12a334.98111,334.98111,0,0,1-61.14-18.03q-4.815-1.935-9.56-4.01c-2.16-.94-4.32-1.91-6.46-2.91a337.59273,337.59273,0,0,1-55.25-32.28l-15.62-45.31,8.78-6.69995,18.06-13.79,19.27-14.71,5.01-3.83,75.61-57.72,5.58-4.26,39.3-30,.01-.01s42.5,69.25,104.27,48.66,60.42-79.63,60.42-79.63Z"
     transform="translate(-262 -112)"
     fill="#2f2e41"
     id="path19255"
     style="fill:#1a1a1a" />
  <path
     d="M485.03538,286.916s41.83653-90.64581,122.02321-69.72755,125.50958,52.29566,128.996,83.67306-1.74319,78.44348-1.74319,78.44348-8.716-64.498-64.498-50.55247-142.94147,3.48638-142.94147,3.48638L512.9264,457.74849s-15.6887-22.66145-33.12058-8.71594S429.25335,314.807,485.03538,286.916Z"
     transform="translate(-262 -112)"
     fill="#2f2e41"
     id="path19257"
     style="fill:#000000" />
  <path
     d="M474.13,763.78q-4.815-1.935-9.56-4.01c-2.16-.94-4.32-1.91-6.46-2.91a338.835,338.835,0,0,1-87.59-58.7c9.19-12.52,16.72-18.89,16.72-18.89h61.77l9.26,31.14Z"
     transform="translate(-262 -112)"
     fill="#2f2e41"
     id="path19259"
     style="fill:#1a1a1a" />
  <path
     d="M856.67,576.32l52.99,9.36A337.94434,337.94434,0,0,1,852.9,674.25Z"
     transform="translate(-262 -112)"
     fill="#2f2e41"
     id="path19261"
     style="fill:#1a1a1a" />
  <g
     transform="matrix(0.05906364,0,0,0.05683435,539.64965,534.11426)"
     style="fill:url(#linearGradient8694);fill-opacity:1;stroke:#0066ff;stroke-width:4.84023;stroke-miterlimit:4;stroke-dasharray:none;stroke-opacity:1"
     id="g263">
    <g
       style="fill:url(#linearGradient20500);fill-opacity:1;stroke:#0066ff;stroke-width:4.84023;stroke-miterlimit:4;stroke-dasharray:none;stroke-opacity:1"
       id="g261">
      <g
         style="fill:url(#linearGradient20498);fill-opacity:1;stroke:#0066ff;stroke-width:4.84023;stroke-miterlimit:4;stroke-dasharray:none;stroke-opacity:1"
         id="g259">
        <polygon
           style="fill:url(#linearGradient20488);fill-opacity:1;stroke:#0066ff;stroke-width:4.84023;stroke-miterlimit:4;stroke-dasharray:none;stroke-opacity:1"
           id="polygon249"
           points="136.7,210 45.4,210 0,288.9 45.4,367.7 136.7,367.7 182.1,288.9 " />
        <polygon
           style="fill:url(#linearGradient20490);fill-opacity:1;stroke:#0066ff;stroke-width:4.84023;stroke-miterlimit:4;stroke-dasharray:none;stroke-opacity:1"
           id="polygon251"
           points="199.2,121.5 153.7,200.3 199.2,279.2 290,279.2 335.8,200.3 290,121.5 " />
        <polygon
           style="fill:url(#linearGradient20492);fill-opacity:1;stroke:#0066ff;stroke-width:4.84023;stroke-miterlimit:4;stroke-dasharray:none;stroke-opacity:1"
           id="polygon253"
           points="153.7,377.4 199.2,456.6 290,456.6 335.8,377.4 290,298.6 199.2,298.6 " />
        <polygon
           style="fill:url(#linearGradient20494);fill-opacity:1;stroke:#0066ff;stroke-width:4.84023;stroke-miterlimit:4;stroke-dasharray:none;stroke-opacity:1"
           id="polygon255"
           points="182.1,111.8 136.7,32.6 45.4,32.6 0,111.8 45.4,190.6 136.7,190.6 " />
        <polygon
           style="fill:url(#linearGradient20496);fill-opacity:1;stroke:#0066ff;stroke-width:4.84023;stroke-miterlimit:4;stroke-dasharray:none;stroke-opacity:1"
           id="polygon257"
           points="307.1,111.4 352.5,190.6 443.8,190.6 489.2,111.8 443.8,32.6 352.5,32.6 " />
      </g>
    </g>
  </g>
  <g
     transform="matrix(0.01855672,0,0,-0.01780881,464.85833,555.08865)"
     fill="#000000"
     stroke="none"
     id="g4505"
     style="fill:url(#linearGradient5720);fill-opacity:1;stroke:#0049f8;stroke-width:15.2475;stroke-miterlimit:4;stroke-dasharray:none;stroke-opacity:1">
    <path
       d="m 220,1073 c 0,-4 24,-62 53,-130 L 325,820 H 528 730 V 540 260 L 399,258 67,255 34,140 C 16,77 0,19 0,13 0,3 102,0 475,0 c 462,0 476,1 495,20 19,19 20,33 20,540 v 520 H 605 c -212,0 -385,-3 -385,-7 z"
       id="path4499"
       style="fill:url(#linearGradient20502);fill-opacity:1;stroke:#0049f8;stroke-width:15.2475;stroke-miterlimit:4;stroke-dasharray:none;stroke-opacity:1" />
    <path
       d="m 1220,539 c 0,-349 3,-539 10,-537 5,1 145,122 310,268 166,146 305,265 309,265 5,0 144,-120 311,-267 166,-148 306,-268 311,-268 5,0 9,232 9,540 v 540 h -135 -135 l -2,-249 -3,-248 -178,159 -178,158 -160,-142 c -88,-79 -169,-149 -180,-157 -19,-13 -19,-8 -19,233 v 246 h -135 -135 z"
       id="path4501"
       style="fill:url(#linearGradient20504);fill-opacity:1;stroke:#0049f8;stroke-width:15.2475;stroke-miterlimit:4;stroke-dasharray:none;stroke-opacity:1" />
    <path
       d="m 2720,1053 c -20,-26 -21,-35 -18,-299 3,-251 4,-274 22,-293 19,-21 24,-21 493,-21 h 473 V 350 260 H 3251 2812 L 2758,133 2703,5 3308,2 c 553,-2 607,-1 624,14 17,16 18,39 18,335 0,317 0,318 -22,333 -20,14 -83,16 -490,16 h -468 v 60 60 h 439 l 448.7118,6.13176 56.4938,107.43784 c 41.2576,69.2876 79.745,141.2115 79.745,141.2115 C 3857.7576,1077.2691 3772,1080 3346,1080 h -605 z"
       id="path4503"
       style="fill:url(#linearGradient6348);fill-opacity:1;stroke:#0049f8;stroke-width:15.2475;stroke-miterlimit:4;stroke-dasharray:none;stroke-opacity:1"
       sodipodi:nodetypes="cccscccccccccscsccccccsscc" />
  </g>
  <text
     xml:space="preserve"
     style="font-style:normal;font-variant:normal;font-weight:normal;font-stretch:normal;font-size:38.6667px;line-height:1.25;font-family:sans-serif;-inkscape-font-specification:sans-serif;white-space:pre;inline-size:600.632;fill:#ffffff;fill-opacity:1;stroke:none"
     x="0.70710695"
     y="209.30362"
     id="text9140"
     transform="matrix(0.14417545,0,0,0.14559917,465.12465,530.17056)"><tspan
       x="0.70710695"
       y="209.30362"
       id="tspan20639">JunTech Web Solutions Aruba </tspan></text>
  <metadata
     id="metadata20592">
    <rdf:RDF>
      <cc:Work
         rdf:about="">
        <dc:title>male_avatar</dc:title>
      </cc:Work>
    </rdf:RDF>
  </metadata>
</svg>
