<!--?xml version="1.0" encoding="UTF-8" standalone="no"?-->
<svg data-name="Layer 1" width="1077.6" height="1077.7108" viewBox="0 0 1077.6 1077.7108" version="1.1" id="svg2318" sodipodi:docname="Team-JunTech-Web-Solutions-Aruba.svg" inkscape:version="1.1.1 (3bf5ae0d25, 2021-09-20)" xmlns:inkscape="http://www.inkscape.org/namespaces/inkscape" xmlns:sodipodi="http://sodipodi.sourceforge.net/DTD/sodipodi-0.dtd" xmlns="http://www.w3.org/2000/svg" xmlns:svg="http://www.w3.org/2000/svg" xmlns:rdf="http://www.w3.org/1999/02/22-rdf-syntax-ns#" xmlns:cc="http://creativecommons.org/ns#" xmlns:dc="http://purl.org/dc/elements/1.1/" style="">
  <defs id="defs2322"></defs>
  <sodipodi:namedview id="namedview2320" pagecolor="#ffffff" bordercolor="#666666" borderopacity="1.0" inkscape:pageshadow="2" inkscape:pageopacity="0.0" inkscape:pagecheckerboard="0" showgrid="false" inkscape:zoom="0.47918668" inkscape:cx="785.70631" inkscape:cy="625.01737" inkscape:window-width="1920" inkscape:window-height="1001" inkscape:window-x="-9" inkscape:window-y="-9" inkscape:window-maximized="1" inkscape:current-layer="svg2318"></sodipodi:namedview>
  <title id="title2288">male_avatar</title>
  <path d="m 1022.3564,547.20184 a 485.98927,485.95905 0 0 1 -39.27124,192.0165 l -1.61591,3.72204 A 488.45204,488.42167 0 0 1 450.09434,1027.5028 q -4.39316,-0.779 -8.77188,-1.6157 a 483.29007,483.26003 0 0 1 -88.209,-26.0111 q -6.94681,-2.79143 -13.7926,-5.78497 c -3.11627,-1.35613 -6.23261,-2.75552 -9.32007,-4.19809 A 488.24318,488.21281 0 0 1 47.065387,547.20184 c 0,-269.29923 218.329563,-487.615237 487.645543,-487.615237 269.31594,0 487.64547,218.316007 487.64547,487.615237 z" fill="#00b0ff" id="path2290" style="fill: rgb(0, 161, 236); fill-opacity: 1; stroke: rgb(0, 45, 255); stroke-width: 2.30852; stroke-miterlimit: 4; stroke-opacity: 1;" class="wcptJElk_0"></path>
  <path d="m 366.94139,408.01711 c -9.20536,51.93144 11.11566,98.95451 11.11566,98.95451 0,0 35.24577,-37.17453 44.4511,-89.10602 9.20537,-51.93147 -11.11566,-98.9545 -11.11566,-98.9545 0,0 -35.24581,37.17456 -44.4511,89.10601 z" opacity="0.2" id="path2300" style="stroke-width:1.4427" class="wcptJElk_1"></path>
  <path fill="#d0cde1" id="circle2306" style="fill:#f4e3d7;stroke-width:1.4427" d="M343.59986999999995,465.0845A190.10985,190.09799 0,1,1 723.8195699999999,465.0845A190.10985,190.09799 0,1,1 343.59986999999995,465.0845" class="wcptJElk_2"></path>
  <path d="m 459.44815,610.6283 c 0,0 23.76371,112.87073 23.76371,124.75183 0,11.88111 112.87773,65.34621 112.87773,65.34621 L 697.08536,782.90463 732.7311,675.97449 c 0,0 -59.40933,-89.10843 -59.40933,-124.75179 z" fill="#d0cde1" id="path2308" style="fill:#f4e3d7;stroke-width:1.4427" class="wcptJElk_3"></path>
  <path d="m 983.08516,739.21834 -1.61591,3.72204 c -88.25343,207.35416 -309.85848,323.33332 -531.37491,284.56242 -2.92879,-0.5194 -5.85271,-1.058 -8.77188,-1.6157 -30.16301,-5.8469 -56.95976,-13.3113 -85.46905,-24.7657 -4.6312,-1.86096 -11.96868,-5.03474 -16.53255,-7.03037 -3.11627,-1.35613 -6.23261,-2.75552 -9.32007,-4.19809 -27.98505,-12.96426 -54.67534,-28.5571 -79.71131,-46.56869 l -22.53554,-65.36636 12.66722,-9.66569 26.05587,-19.89411 27.80156,-21.2214 7.22813,-5.52532 109.08542,-83.26969 8.05047,-6.14567 56.69966,-43.27946 0.0143,-0.0143 c 0,0 61.31639,99.9034 150.43432,70.1993 89.11793,-29.70421 87.17024,-114.87816 87.17024,-114.87816 z" fill="#2f2e41" id="path2310" style="fill: rgb(0, 0, 0); stroke: rgb(1, 100, 250); stroke-width: 2.45237; stroke-miterlimit: 4; stroke-opacity: 1;" sodipodi:nodetypes="cccccccccccccccccscc" class="wcptJElk_4"></path>
  <path d="m 368.84707,311.92893 c 0,0 60.35917,-130.77006 176.04755,-100.59235 115.68843,30.17769 181.07748,75.44427 186.10748,120.71085 5.02997,45.26653 -2.51499,113.16633 -2.51499,113.16633 0,0 -12.57489,-93.04792 -93.05372,-72.92947 -80.47882,20.11854 -206.22712,5.02964 -206.22712,5.02964 l -20.11976,181.06625 c 0,0 -22.63468,-32.69252 -47.78434,-12.57403 -25.14962,20.11849 -72.93396,-193.64031 7.5449,-233.87722 z" fill="#2f2e41" id="path2312" style="fill: rgb(26, 26, 26); stroke: rgb(1, 100, 250); stroke-width: 2.45259; stroke-miterlimit: 4; stroke-opacity: 1;" class="wcptJElk_5"></path>
  <path d="m 299.55996,941.0966 c -4.63123,-1.86106 60.51538,60.2204 55.95153,58.22489 0,0 -22.42324,-7.98598 -25.5107,-9.42855 -46.28429,-21.46112 -88.9236,-50.03478 -126.36943,-84.68345 13.25875,-18.06194 25.64455,-26.82238 25.64455,-26.82238 80.82715,103.19656 58.43633,-0.29916 87.59596,-0.42922 l 13.35977,44.92409 z" fill="#2f2e41" id="path2314" style="fill:#000000;stroke-width:1.4427" sodipodi:nodetypes="cccccccc" class="wcptJElk_6"></path>
  <path d="m 905.01858,729.43719 76.45067,13.50319 a 487.56525,487.53491 0 0 1 -81.88981,127.77537 z" fill="#2f2e41" id="path2316" style="fill:#000000;stroke-width:1.4427" class="wcptJElk_7"></path>
  <g transform="matrix(0.13796966,0,0,0.13711384,785.62386,822.32663)" style="fill:#0684ff;fill-opacity:1;stroke:#002dff;stroke-width:11.5381;stroke-miterlimit:4;stroke-dasharray:none;stroke-opacity:1" id="g263">
    <g style="fill:#0684ff;fill-opacity:1;stroke:#002dff;stroke-width:11.5381;stroke-miterlimit:4;stroke-dasharray:none;stroke-opacity:1" id="g261">
      <g style="fill:#0684ff;fill-opacity:1;stroke:#002dff;stroke-width:11.5381;stroke-miterlimit:4;stroke-dasharray:none;stroke-opacity:1" id="g259">
        <path style="fill: rgb(6, 132, 255); fill-opacity: 1; stroke: rgb(0, 45, 255); stroke-width: 11.5381; stroke-miterlimit: 4; stroke-opacity: 1;" id="polygon249" d="M136.7,367.7L182.1,288.9L136.7,210L45.4,210L0,288.9L45.4,367.7Z" class="wcptJElk_8"></path>
        <path style="fill: rgb(6, 132, 255); fill-opacity: 1; stroke: rgb(0, 45, 255); stroke-width: 11.5381; stroke-miterlimit: 4; stroke-opacity: 1;" id="polygon251" d="M335.8,200.3L290,121.5L199.2,121.5L153.7,200.3L199.2,279.2L290,279.2Z" class="wcptJElk_9"></path>
        <path style="fill: rgb(6, 132, 255); fill-opacity: 1; stroke: rgb(0, 45, 255); stroke-width: 11.5381; stroke-miterlimit: 4; stroke-opacity: 1;" id="polygon253" d="M290,298.6L199.2,298.6L153.7,377.4L199.2,456.6L290,456.6L335.8,377.4Z" class="wcptJElk_10"></path>
        <path style="fill: rgb(6, 132, 255); fill-opacity: 1; stroke: rgb(0, 45, 255); stroke-width: 11.5381; stroke-miterlimit: 4; stroke-opacity: 1;" id="polygon255" d="M45.4,190.6L136.7,190.6L182.1,111.8L136.7,32.6L45.4,32.6L0,111.8Z" class="wcptJElk_11"></path>
        <path style="fill: rgb(6, 132, 255); fill-opacity: 1; stroke: rgb(0, 45, 255); stroke-width: 11.5381; stroke-miterlimit: 4; stroke-opacity: 1;" id="polygon257" d="M443.8,32.6L352.5,32.6L307.1,111.4L352.5,190.6L443.8,190.6L489.2,111.8Z" class="wcptJElk_12"></path>
      </g>
    </g>
  </g>
  <metadata id="metadata3557">
    <rdf:rdf>
      <cc:work rdf:about="">
        <dc:title>male_avatar</dc:title>
      </cc:work>
    </rdf:rdf>
  </metadata>
<style data-made-with="vivus-instant">.wcptJElk_0{stroke-dasharray:3065 3067;stroke-dashoffset:3066;animation:wcptJElk_draw_0 7200ms ease-out 0ms infinite,wcptJElk_fade 7200ms linear 0ms infinite;}.wcptJElk_1{stroke-dasharray:404 406;stroke-dashoffset:405;animation:wcptJElk_draw_1 7200ms ease-out 0ms infinite,wcptJElk_fade 7200ms linear 0ms infinite;}.wcptJElk_2{stroke-dasharray:1195 1197;stroke-dashoffset:1196;animation:wcptJElk_draw_2 7200ms ease-out 0ms infinite,wcptJElk_fade 7200ms linear 0ms infinite;}.wcptJElk_3{stroke-dasharray:835 837;stroke-dashoffset:836;animation:wcptJElk_draw_3 7200ms ease-out 0ms infinite,wcptJElk_fade 7200ms linear 0ms infinite;}.wcptJElk_4{stroke-dasharray:1874 1876;stroke-dashoffset:1875;animation:wcptJElk_draw_4 7200ms ease-out 0ms infinite,wcptJElk_fade 7200ms linear 0ms infinite;}.wcptJElk_5{stroke-dasharray:1410 1412;stroke-dashoffset:1411;animation:wcptJElk_draw_5 7200ms ease-out 0ms infinite,wcptJElk_fade 7200ms linear 0ms infinite;}.wcptJElk_6{stroke-dasharray:515 517;stroke-dashoffset:516;animation:wcptJElk_draw_6 7200ms ease-out 0ms infinite,wcptJElk_fade 7200ms linear 0ms infinite;}.wcptJElk_7{stroke-dasharray:372 374;stroke-dashoffset:373;animation:wcptJElk_draw_7 7200ms ease-out 0ms infinite,wcptJElk_fade 7200ms linear 0ms infinite;}.wcptJElk_8{stroke-dasharray:547 549;stroke-dashoffset:548;animation:wcptJElk_draw_8 7200ms ease-out 0ms infinite,wcptJElk_fade 7200ms linear 0ms infinite;}.wcptJElk_9{stroke-dasharray:547 549;stroke-dashoffset:548;animation:wcptJElk_draw_9 7200ms ease-out 0ms infinite,wcptJElk_fade 7200ms linear 0ms infinite;}.wcptJElk_10{stroke-dasharray:547 549;stroke-dashoffset:548;animation:wcptJElk_draw_10 7200ms ease-out 0ms infinite,wcptJElk_fade 7200ms linear 0ms infinite;}.wcptJElk_11{stroke-dasharray:548 550;stroke-dashoffset:549;animation:wcptJElk_draw_11 7200ms ease-out 0ms infinite,wcptJElk_fade 7200ms linear 0ms infinite;}.wcptJElk_12{stroke-dasharray:548 550;stroke-dashoffset:549;animation:wcptJElk_draw_12 7200ms ease-out 0ms infinite,wcptJElk_fade 7200ms linear 0ms infinite;}@keyframes wcptJElk_draw{100%{stroke-dashoffset:0;}}@keyframes wcptJElk_fade{0%{stroke-opacity:1;}94.44444444444444%{stroke-opacity:1;}100%{stroke-opacity:0;}}@keyframes wcptJElk_draw_0{11.11111111111111%{stroke-dashoffset: 3066}38.88888888888889%{ stroke-dashoffset: 0;}100%{ stroke-dashoffset: 0;}}@keyframes wcptJElk_draw_1{12.268518518518519%{stroke-dashoffset: 405}40.0462962962963%{ stroke-dashoffset: 0;}100%{ stroke-dashoffset: 0;}}@keyframes wcptJElk_draw_2{13.425925925925924%{stroke-dashoffset: 1196}41.2037037037037%{ stroke-dashoffset: 0;}100%{ stroke-dashoffset: 0;}}@keyframes wcptJElk_draw_3{14.583333333333334%{stroke-dashoffset: 836}42.36111111111111%{ stroke-dashoffset: 0;}100%{ stroke-dashoffset: 0;}}@keyframes wcptJElk_draw_4{15.740740740740739%{stroke-dashoffset: 1875}43.51851851851851%{ stroke-dashoffset: 0;}100%{ stroke-dashoffset: 0;}}@keyframes wcptJElk_draw_5{16.898148148148145%{stroke-dashoffset: 1411}44.675925925925924%{ stroke-dashoffset: 0;}100%{ stroke-dashoffset: 0;}}@keyframes wcptJElk_draw_6{18.055555555555554%{stroke-dashoffset: 516}45.83333333333333%{ stroke-dashoffset: 0;}100%{ stroke-dashoffset: 0;}}@keyframes wcptJElk_draw_7{19.212962962962962%{stroke-dashoffset: 373}46.99074074074074%{ stroke-dashoffset: 0;}100%{ stroke-dashoffset: 0;}}@keyframes wcptJElk_draw_8{20.37037037037037%{stroke-dashoffset: 548}48.148148148148145%{ stroke-dashoffset: 0;}100%{ stroke-dashoffset: 0;}}@keyframes wcptJElk_draw_9{21.52777777777778%{stroke-dashoffset: 548}49.30555555555556%{ stroke-dashoffset: 0;}100%{ stroke-dashoffset: 0;}}@keyframes wcptJElk_draw_10{22.685185185185183%{stroke-dashoffset: 548}50.462962962962955%{ stroke-dashoffset: 0;}100%{ stroke-dashoffset: 0;}}@keyframes wcptJElk_draw_11{23.84259259259259%{stroke-dashoffset: 549}51.620370370370374%{ stroke-dashoffset: 0;}100%{ stroke-dashoffset: 0;}}@keyframes wcptJElk_draw_12{25%{stroke-dashoffset: 549}52.77777777777778%{ stroke-dashoffset: 0;}100%{ stroke-dashoffset: 0;}}</style></svg>
