<?xml version="1.0" encoding="UTF-8" standalone="no"?>
<svg
   data-name="Layer 1"
   width="676"
   height="676"
   viewBox="0 0 676 676"
   version="1.1"
   id="svg2318"
   sodipodi:docname="Team-JunTech-Web-Solutions-Aruba.svg"
   inkscape:version="1.1.1 (3bf5ae0d25, 2021-09-20)"
   xmlns:inkscape="http://www.inkscape.org/namespaces/inkscape"
   xmlns:sodipodi="http://sodipodi.sourceforge.net/DTD/sodipodi-0.dtd"
   xmlns="http://www.w3.org/2000/svg"
   xmlns:svg="http://www.w3.org/2000/svg"
   xmlns:rdf="http://www.w3.org/1999/02/22-rdf-syntax-ns#"
   xmlns:cc="http://creativecommons.org/ns#"
   xmlns:dc="http://purl.org/dc/elements/1.1/">
  <defs
     id="defs2322" />
  <sodipodi:namedview
     id="namedview2320"
     pagecolor="#ffffff"
     bordercolor="#666666"
     borderopacity="1.0"
     inkscape:pageshadow="2"
     inkscape:pageopacity="0.0"
     inkscape:pagecheckerboard="0"
     showgrid="false"
     inkscape:zoom="0.60059172"
     inkscape:cx="338.83251"
     inkscape:cy="272.23153"
     inkscape:window-width="1920"
     inkscape:window-height="1001"
     inkscape:window-x="-9"
     inkscape:window-y="-9"
     inkscape:window-maximized="1"
     inkscape:current-layer="svg2318" />
  <title
     id="title2288">male_avatar</title>
  <path
     d="m 626.06855,339.6213 a 287.13935,287.145 0 0 1 -23.20287,113.45932 l -0.95471,2.19929 A 288.59444,288.60011 0 0 1 287.95619,623.42305 q -2.59563,-0.46032 -5.18272,-0.95474 a 285.54457,285.55019 0 0 1 -52.11695,-15.36943 q -4.10441,-1.64946 -8.14914,-3.41826 c -1.84122,-0.8013 -3.68245,-1.62816 -5.50663,-2.4806 A 288.47104,288.47671 0 0 1 49.832682,339.6213 c 0,-159.12436 128.996708,-288.123594 288.117938,-288.123594 159.12122,0 288.11793,128.999234 288.11793,288.123594 z"
     fill="#00b0ff"
     id="path2290"
     style="stroke:#002dff;stroke-width:1.36388;stroke-miterlimit:4;stroke-dasharray:none;stroke-opacity:1" />
  <path
     d="m 238.82653,257.37939 c -5.43883,30.68544 6.56752,58.47056 6.56752,58.47056 0,0 20.82444,-21.9658 26.26327,-52.65124 5.43883,-30.68543 -6.56752,-58.47055 -6.56752,-58.47055 0,0 -20.82445,21.9658 -26.26327,52.65123 z"
     opacity="0.2"
     id="path2300"
     style="stroke-width:0.852428" />
  <ellipse
     cx="337.35913"
     cy="291.09958"
     fill="#d0cde1"
     id="circle2306"
     style="fill:#f4e3d7;stroke-width:0.852428"
     rx="112.32349"
     ry="112.3257" />
  <path
     d="m 293.48275,377.09894 c 0,0 14.04043,66.69339 14.04043,73.71374 0,7.02036 66.69208,38.61197 66.69208,38.61197 l 59.67181,-10.53054 21.06074,-63.18321 c 0,0 -35.1011,-52.65267 -35.1011,-73.71374 z"
     fill="#d0cde1"
     id="path2308"
     style="fill:#f4e3d7;stroke-width:0.852428" />
  <path
     d="m 602.86568,453.08062 -0.95471,2.19929 A 288.59444,288.60011 0 0 1 287.95619,623.42305 q -2.59563,-0.46032 -5.18272,-0.95474 a 285.54457,285.55019 0 0 1 -52.11695,-15.36943 q -4.10441,-1.64946 -8.14914,-3.41826 c -1.84122,-0.8013 -3.68245,-1.62816 -5.50663,-2.4806 a 287.77076,287.77643 0 0 1 -47.0962,-27.51666 l -13.31479,-38.6239 7.48424,-5.71128 15.3947,-11.7551 16.42613,-12.53935 4.27063,-3.26483 64.45147,-49.20265 4.7565,-3.63138 33.50011,-25.5731 0.009,-0.009 c 0,0 36.22785,59.03124 88.88183,41.47956 52.65397,-17.55167 51.50321,-67.87953 51.50321,-67.87953 z"
     fill="#2f2e41"
     id="path2310"
     style="fill:#000000;stroke:#0164fa;stroke-width:1.44913;stroke-miterlimit:4;stroke-dasharray:none;stroke-opacity:1" />
  <path
     d="m 239.95248,200.60252 c 0,0 35.6623,-77.26981 104.01502,-59.43832 68.35273,17.83149 106.98687,44.57873 109.95876,71.32599 2.97189,26.74724 -1.48594,66.86809 -1.48594,66.86809 0,0 -7.42968,-54.98046 -54.97937,-43.09278 -47.54969,11.88768 -121.84616,2.97192 -121.84616,2.97192 L 263.72735,346.2264 c 0,0 -13.37336,-19.31746 -28.23265,-7.42979 -14.85928,11.88767 -43.09193,-114.41878 4.45778,-138.19409 z"
     fill="#2f2e41"
     id="path2312"
     style="fill:#1a1a1a;stroke:#0164fa;stroke-width:1.44913;stroke-miterlimit:4;stroke-dasharray:none;stroke-opacity:1" />
  <path
     d="m 230.65652,607.09888 q -4.10441,-1.64946 -8.14914,-3.41826 c -1.84122,-0.8013 -3.68245,-1.62816 -5.50663,-2.4806 a 288.8297,288.83538 0 0 1 -74.66346,-50.03803 c 7.83374,-10.67251 14.25247,-16.10253 14.25247,-16.10253 h 52.65397 l 7.89341,26.54488 z"
     fill="#2f2e41"
     id="path2314"
     style="fill:#000000;stroke-width:0.852428" />
  <path
     d="m 556.74124,447.3011 45.16973,7.97881 a 288.07049,288.07615 0 0 1 -48.38336,75.50031 z"
     fill="#2f2e41"
     id="path2316"
     style="fill:#000000;stroke-width:0.852428" />
  <g
     transform="matrix(0.08151727,0,0,0.08101825,486.19869,502.18789)"
     style="fill:#0684ff;fill-opacity:1;stroke:#002dff;stroke-width:11.5381;stroke-miterlimit:4;stroke-dasharray:none;stroke-opacity:1"
     id="g263">
    <g
       style="fill:#0684ff;fill-opacity:1;stroke:#002dff;stroke-width:11.5381;stroke-miterlimit:4;stroke-dasharray:none;stroke-opacity:1"
       id="g261">
      <g
         style="fill:#0684ff;fill-opacity:1;stroke:#002dff;stroke-width:11.5381;stroke-miterlimit:4;stroke-dasharray:none;stroke-opacity:1"
         id="g259">
        <polygon
           style="fill:#0684ff;fill-opacity:1;stroke:#002dff;stroke-width:11.5381;stroke-miterlimit:4;stroke-dasharray:none;stroke-opacity:1"
           id="polygon249"
           points="0,288.9 45.4,367.7 136.7,367.7 182.1,288.9 136.7,210 45.4,210 " />
        <polygon
           style="fill:#0684ff;fill-opacity:1;stroke:#002dff;stroke-width:11.5381;stroke-miterlimit:4;stroke-dasharray:none;stroke-opacity:1"
           id="polygon251"
           points="199.2,279.2 290,279.2 335.8,200.3 290,121.5 199.2,121.5 153.7,200.3 " />
        <polygon
           style="fill:#0684ff;fill-opacity:1;stroke:#002dff;stroke-width:11.5381;stroke-miterlimit:4;stroke-dasharray:none;stroke-opacity:1"
           id="polygon253"
           points="290,456.6 335.8,377.4 290,298.6 199.2,298.6 153.7,377.4 199.2,456.6 " />
        <polygon
           style="fill:#0684ff;fill-opacity:1;stroke:#002dff;stroke-width:11.5381;stroke-miterlimit:4;stroke-dasharray:none;stroke-opacity:1"
           id="polygon255"
           points="45.4,32.6 0,111.8 45.4,190.6 136.7,190.6 182.1,111.8 136.7,32.6 " />
        <polygon
           style="fill:#0684ff;fill-opacity:1;stroke:#002dff;stroke-width:11.5381;stroke-miterlimit:4;stroke-dasharray:none;stroke-opacity:1"
           id="polygon257"
           points="443.8,190.6 489.2,111.8 443.8,32.6 352.5,32.6 307.1,111.4 352.5,190.6 " />
      </g>
    </g>
  </g>
  <metadata
     id="metadata3557">
    <rdf:RDF>
      <cc:Work
         rdf:about="">
        <dc:title>male_avatar</dc:title>
      </cc:Work>
    </rdf:RDF>
  </metadata>
</svg>
