<?xml version="1.0" encoding="UTF-8" standalone="no"?>
<svg
   data-name="Layer 1"
   width="282.00003"
   height="282.00015"
   viewBox="0 0 282.00003 282.00015"
   version="1.1"
   id="svg7978"
   sodipodi:docname="undraw_share_link_re_54rx.svg"
   inkscape:version="1.2.2 (732a01da63, 2022-12-09)"
   xmlns:inkscape="http://www.inkscape.org/namespaces/inkscape"
   xmlns:sodipodi="http://sodipodi.sourceforge.net/DTD/sodipodi-0.dtd"
   xmlns="http://www.w3.org/2000/svg"
   xmlns:svg="http://www.w3.org/2000/svg">
  <defs
     id="defs7982" />
  <sodipodi:namedview
     id="namedview7980"
     pagecolor="#ffffff"
     bordercolor="#000000"
     borderopacity="0.25"
     inkscape:showpageshadow="2"
     inkscape:pageopacity="0.0"
     inkscape:pagecheckerboard="0"
     inkscape:deskcolor="#d1d1d1"
     showgrid="false"
     inkscape:zoom="1.3384271"
     inkscape:cx="72.473127"
     inkscape:cy="109.08326"
     inkscape:window-width="1366"
     inkscape:window-height="697"
     inkscape:window-x="-8"
     inkscape:window-y="-8"
     inkscape:window-maximized="1"
     inkscape:current-layer="svg7978"
     showguides="false" />
  <path
     d="m 453.45325,341.8443 h -720.73046 a 1,1 0 0 1 0,-2 h 720.73046 a 1,1 0 0 1 0,2 z"
     fill="#e6e6e6"
     id="path7920" />
  <circle
     cx="141.00273"
     cy="140.99805"
     r="140"
     fill="#6c63ff"
     id="circle7934"
     style="opacity:0.274262;fill:#ff0000;stroke:#ff0000;stroke-width:0;stroke-dasharray:none;stroke-opacity:1" />
  <path
     d="m 132.26727,186.3212 a 34.19886,34.19886 0 0 1 -48.364448,0 v -8e-5 a 34.20534,34.20534 0 0 1 -4.62155,-42.61667 l -7.52385,7.67608 a 34.19884,34.19884 0 0 0 0,48.36444 v 8e-5 a 34.19886,34.19886 0 0 0 48.364448,0 l 16.6733,-17.31253 0.25368,-1.07625 z"
     opacity="0.2"
     id="path7936" />
  <path
     d="m 148.15016,79.36443 a 34.19884,34.19884 0 0 1 47.51695,9.01436 v 8e-5 a 34.20537,34.20537 0 0 1 -3.4025,42.73128 l 8.8227,-6.13925 a 34.19886,34.19886 0 0 0 9.01436,-47.517 v -9e-5 a 34.19884,34.19884 0 0 0 -47.51695,-9.01435 l -19.60796,13.90158 -0.44983,1.0101 z"
     opacity="0.2"
     id="path7938" />
  <path
     d="m 95.939762,214.04012 a 37.19872,37.19872 0 0 1 -26.30371,-63.50244 l 31.568358,-32.20752 a 37.19814,37.19814 0 0 1 52.62793,-0.021 2.9996813,2.9996813 0 0 1 -4.24219,4.24219 31.19932,31.19932 0 0 0 -44.12183,9e-5 c -4.63672,16.3462 -14.655278,27.562 -31.568358,32.20752 a 31.1992,31.1992 0 1 0 44.101068,44.14356 c -0.68359,-6.70606 1.27588,-13.00977 16.63379,-17.27246 a 2.99975,2.99975 0 1 1 4.32105,4.162 l -16.67332,17.31253 a 36.98475,36.98475 0 0 1 -26.342788,10.93553 z"
     fill="#ffffff"
     id="path7940"
     style="stroke:#ff0000;stroke-opacity:1" />
  <path
     d="m 147.19124,168.47759 a 36.95558,36.95558 0 0 1 -26.30371,-10.896 3.0000278,3.0000278 0 0 1 4.24317,-4.24219 31.19775,31.19775 0 0 0 44.12133,9e-5 c 3.99805,-24.08447 20.29834,-27.4834 34.4668,-34.46582 A 31.199192,31.199192 0 0 0 159.59627,74.75159 c -3.94141,11.37109 -7.811,22.87646 -19.54981,19.5498 a 2.9997945,2.9997945 0 0 1 -4.24242,-4.24228 l 19.5498,-19.5498 a 37.198561,37.198561 0 1 1 52.60692,52.6065 l -34.4663,34.4663 a 36.95515,36.95515 0 0 1 -26.30322,10.89548 z"
     fill="#ffffff"
     id="path7942"
     style="stroke:#ff0000;stroke-opacity:1;stroke-width:1.0015748;stroke-dasharray:none" />
  <path
     d="M 262.64018,69.75009 A 142.54233,142.54233 0 0 0 241.56987,42.25986 c -1.81006,-1.83985 -3.67969,-3.64014 -5.58985,-5.39014 -1.06005,-0.96972 -2.12988,-1.91992 -3.22021,-2.8501 -2.06982,-1.77978 -4.19971,-3.5 -6.36963,-5.15966 A 140.28645,140.28645 0 0 0 141.00001,8.9620528e-5 C 63.259782,8.9620528e-5 1.240777e-5,63.25009 1.240777e-5,141.00009 A 140.73243,140.73243 0 0 0 2.3296024,166.55966 a 0.765,0.765 0 0 0 0.0205,0.14014 c 0.71,3.87012 1.58985,7.68994 2.60987,11.43994 A 140.99,140.99 0 0 0 260.70997,215.4498 q 2.92455,-4.71021 5.5,-9.66016 a 140.803,140.803 0 0 0 -3.5698,-136.03955 z m -121.64017,210.25 a 138.95232,138.95232 0 0 1 -138.9999976,-139 C 2.0000124,64.3497 64.359882,2.0000896 141.00001,2.0000896 a 138.95426,138.95426 0 0 1 99.48,42.0195304 133.0646,133.0646 0 0 1 9.54,10.86036 134.82842,134.82842 0 0 1 8.25,11.56982 138.92664,138.92664 0 0 1 16.19971,113.41016 c -1.23,4.23974 -2.66992,8.39013 -4.29,12.46 -1.62988,4.08008 -3.43994,8.08008 -5.43994,11.96 a 139.47249,139.47249 0 0 1 -123.73977,75.72013 z"
     fill="#3f3d56"
     id="path7944"
     style="fill:#fd0202;fill-opacity:1" />
  <circle
     cx="90.246658"
     cy="137.28336"
     r="3"
     fill="#6c63ff"
     id="circle7966"
     style="fill:#ff0000" />
  <circle
     cx="185.24666"
     cy="135.28336"
     r="3"
     fill="#6c63ff"
     id="circle7968"
     style="fill:#ff0000" />
</svg>
