<?xml version="1.0" encoding="UTF-8" standalone="no"?>
<svg
   id="Capa_1"
   enable-background="new 0 0 511 511"
   height="399.40457"
   viewBox="0 0 493.52605 398.62448"
   width="494.49185"
   version="1.1"
   sodipodi:docname="Web Design Services from JunTech Web Solutions!.svg"
   inkscape:version="1.1 (c68e22c387, 2021-05-23)"
   xmlns:inkscape="http://www.inkscape.org/namespaces/inkscape"
   xmlns:sodipodi="http://sodipodi.sourceforge.net/DTD/sodipodi-0.dtd"
   xmlns="http://www.w3.org/2000/svg"
   xmlns:svg="http://www.w3.org/2000/svg">
  <defs
     id="defs1001" />
  <sodipodi:namedview
     id="namedview999"
     pagecolor="#ffffff"
     bordercolor="#666666"
     borderopacity="1.0"
     inkscape:pageshadow="2"
     inkscape:pageopacity="0.0"
     inkscape:pagecheckerboard="0"
     showgrid="false"
     inkscape:zoom="1.5332031"
     inkscape:cx="150.99109"
     inkscape:cy="222.73631"
     inkscape:window-width="1920"
     inkscape:window-height="1003"
     inkscape:window-x="-9"
     inkscape:window-y="-9"
     inkscape:window-maximized="1"
     inkscape:current-layer="Capa_1" />
  <g
     id="Outline_23_"
     fill="#233d91"
     transform="matrix(0.55879198,0,0,0.54644038,111.63074,49.812805)"
     style="fill:#2a7fff">
    <path
       d="m -14.113382,18 v 437.5 c 0,20.678 17.4672906,37.5 38.938497,37.5 H 477.55003 c 21.47121,0 38.93851,-16.822 38.93851,-37.5 V 18 Z M 500.91313,455.5 c 0,12.407 -10.48119,22.5 -23.3631,22.5 H 24.825115 C 11.943222,478 1.4620169,467.907 1.4620169,455.5 V 101 H 500.91313 Z m 0,-369.5 H 1.4620169 V 33 H 500.91313 Z"
       id="path983"
       style="fill:#ffffff;stroke-width:1.019" />
    <path
       d="m 43.5,52 h 15 v 15 h -15 z"
       id="path985"
       style="fill:#2a7fff" />
    <path
       d="m 73.5,52 h 15 v 15 h -15 z"
       id="path987"
       style="fill:#2a7fff" />
    <path
       d="m 103.5,52 h 15 v 15 h -15 z"
       id="path989"
       style="fill:#0066ff" />
    <path
       d="M 264.5,313 H 303 v 42.43 L 391.21,313 h 43.29 c 20.678,0 37.5,-16.822 37.5,-37.5 v -112 C 472,142.822 455.178,126 434.5,126 h -170 c -20.678,0 -37.5,16.822 -37.5,37.5 v 112 c 0,20.678 16.822,37.5 37.5,37.5 z M 242,163.5 c 0,-12.407 10.094,-22.5 22.5,-22.5 h 170 c 12.406,0 22.5,10.093 22.5,22.5 v 112 c 0,12.407 -10.094,22.5 -22.5,22.5 H 387.79 L 318,331.57 V 298 H 264.5 C 252.094,298 242,287.907 242,275.5 Z"
       id="path991"
       style="fill:#2a7fff" />
    <path
       d="m 351.5,277 h 19 v -15 h -19 c -11.766,0 -23.119,-4.965 -31.151,-13.623 -8.137,-8.771 -12.123,-20.19 -11.226,-32.155 1.557,-20.733 18.365,-37.542 39.099,-39.099 11.963,-0.894 23.385,3.088 32.155,11.225 8.657,8.033 13.623,19.387 13.623,31.152 v 5 c 0,4.136 -3.364,7.5 -7.5,7.5 -4.136,0 -7.5,-3.364 -7.5,-7.5 v -5 c 0,-15.164 -12.337,-27.5 -27.5,-27.5 -15.163,0 -27.5,12.336 -27.5,27.5 0,15.164 12.337,27.5 27.5,27.5 7.131,0 13.635,-2.729 18.527,-7.196 4.111,4.422 9.973,7.196 16.473,7.196 12.406,0 22.5,-10.093 22.5,-22.5 v -5 c 0,-15.924 -6.715,-31.287 -18.422,-42.148 -11.863,-11.007 -27.297,-16.4 -43.479,-15.187 -28.069,2.107 -50.826,24.864 -52.933,52.934 -1.215,16.174 4.179,31.615 15.186,43.479 C 320.213,270.286 335.575,277 351.5,277 Z m 0,-45 c -6.893,0 -12.5,-5.607 -12.5,-12.5 0,-6.893 5.607,-12.5 12.5,-12.5 6.893,0 12.5,5.607 12.5,12.5 0,6.893 -5.607,12.5 -12.5,12.5 z"
       id="path993"
       style="fill:#ffffff" />
    <path
       d="m 114.41515,377.12486 c 38.838,38.837 82.124,83 127.515,83 39.983,0 66.221,-33.84 70.393,-37.058 10.743,-10.741 10.747,-28.133 10e-4,-38.878 l -42.408,-42.408 c -10.719,-10.719 -28.158,-10.719 -38.879,0 l -5.82,5.82 c -22.077,22.078 -29.558,17.08 -35.569,13.066 -8.894,-5.938 -52.836,-49.881 -58.773,-58.774 -4.015,-6.011 -9.011,-13.493 13.065,-35.569 l 5.822,-5.821 c 10.718,-10.719 10.718,-28.16 0,-38.878 l -42.408,-42.408 c -10.743994,-10.744 -28.133994,-10.746 -38.877994,0 -3.076,4.764 -56.108,43.26 -29.431,104.473 12.924,29.659 40.57,58.636 75.369994,93.435 z m 127.228,-24.737 c 4.87,-4.869 12.796,-4.87 17.666,0 41.02,42.657 46.066,42.212 46.066,51.24 0,7.429 -5.759,10.276 -8.957,14.131 l -60.073,-60.073 z M 87.913156,186.16586 c 9.028997,0 8.597,5.058 51.239994,46.066 4.87,4.87 4.87,12.794 10e-4,17.665 l -5.3,5.299 -60.072994,-60.073 c 4.013,-3.33 6.677,-8.957 14.132,-8.957 z m -24.238,20.064 60.079994,60.08 c -13.29,16.632 -14.709,29.908 -5.357,43.913 7.062,10.578 52.341,55.856 62.918,62.919 14.006,9.352 27.282,7.933 43.914,-5.357 l 60.078,60.078 c -14.353,11.632 -28.424,17.343 -43.169,17.341 -40.373,-0.004 -83.562,-45.13 -117.117,-78.686 -33.661994,-33.662 -60.353994,-61.576 -72.227994,-88.821 -11.231,-25.77 -7.932,-48.252 10.881,-71.467 z"
       id="path995"
       style="fill:#2a7fff" />
  </g>
</svg>
