<?xml version="1.0" encoding="UTF-8" standalone="no"?>
<svg
   viewBox="0 0 453.90683 352.35201"
   version="1.1"
   id="svg1518"
   sodipodi:docname="Web-Design-process-JunTechPC-Aruba.svg"
   width="453.9068"
   height="352.35202"
   inkscape:version="1.1 (c68e22c387, 2021-05-23)"
   xmlns:inkscape="http://www.inkscape.org/namespaces/inkscape"
   xmlns:sodipodi="http://sodipodi.sourceforge.net/DTD/sodipodi-0.dtd"
   xmlns:xlink="http://www.w3.org/1999/xlink"
   xmlns="http://www.w3.org/2000/svg"
   xmlns:svg="http://www.w3.org/2000/svg">
  <sodipodi:namedview
     id="namedview1520"
     pagecolor="#ffffff"
     bordercolor="#666666"
     borderopacity="1.0"
     inkscape:pageshadow="2"
     inkscape:pageopacity="0.0"
     inkscape:pagecheckerboard="0"
     showgrid="false"
     inkscape:zoom="1.7864458"
     inkscape:cx="292.48019"
     inkscape:cy="173.24903"
     inkscape:window-width="1920"
     inkscape:window-height="1003"
     inkscape:window-x="-9"
     inkscape:window-y="-9"
     inkscape:window-maximized="1"
     inkscape:current-layer="svg1518" />
  <style
     id="style1173"><![CDATA[.H{opacity:.65}.I{fill:#178bc4}.J{fill:#1a1a1a}.K{fill:#f4ad7d}]]></style>
  <defs
     id="defs1252">
    <linearGradient
       gradientUnits="userSpaceOnUse"
       y2="195.217"
       x2="151.815"
       y1="193.097"
       x1="83.153"
       id="A">
      <stop
         stop-opacity="0"
         stop-color="#010101"
         offset="0"
         id="stop1175" />
      <stop
         stop-color="#010101"
         offset=".95"
         id="stop1177" />
    </linearGradient>
    <linearGradient
       xlink:href="#A"
       y2="183.765"
       x2="185.84399"
       y1="179.22501"
       x1="88.600998"
       id="B"
       gradientTransform="matrix(0.36112137,-0.69397807,0.73877198,0.33922552,-105.59214,119.76309)" />
    <linearGradient
       xlink:href="#A"
       y2="151.37801"
       x2="256.54901"
       y1="167.16499"
       x1="95.193001"
       id="C"
       gradientTransform="matrix(0.36112137,-0.69397807,0.73877198,0.33922552,-92.39407,118.51172)" />
    <linearGradient
       gradientUnits="userSpaceOnUse"
       y2="137.558"
       x2="341.064"
       y1="152.83"
       x1="106.582"
       id="D">
      <stop
         stop-opacity="0"
         stop-color="#010101"
         offset="0"
         id="stop1182" />
      <stop
         stop-opacity=".36"
         stop-color="#010101"
         offset=".36"
         id="stop1184" />
      <stop
         stop-color="#010101"
         offset=".95"
         id="stop1186" />
    </linearGradient>
    <linearGradient
       gradientUnits="userSpaceOnUse"
       y2="125.889"
       x2="237.116"
       y1="126.927"
       x1="109.011"
       id="E">
      <stop
         stop-opacity="0"
         stop-color="#fff"
         offset="0"
         id="stop1189" />
      <stop
         stop-opacity=".22"
         stop-color="#fff"
         offset=".07"
         id="stop1191" />
      <stop
         stop-opacity=".45"
         stop-color="#fff"
         offset=".16"
         id="stop1193" />
      <stop
         stop-opacity=".65"
         stop-color="#fff"
         offset=".25"
         id="stop1195" />
      <stop
         stop-opacity=".8"
         stop-color="#fff"
         offset=".33"
         id="stop1197" />
      <stop
         stop-opacity=".91"
         stop-color="#fff"
         offset=".4"
         id="stop1199" />
      <stop
         stop-opacity=".98"
         stop-color="#fff"
         offset=".46"
         id="stop1201" />
      <stop
         stop-color="#fff"
         offset=".51"
         id="stop1203" />
    </linearGradient>
    <linearGradient
       xlink:href="#E"
       y2="111.556"
       x2="178.164"
       y1="114.03"
       x1="106.484"
       id="F"
       gradientTransform="matrix(0.36112137,-0.69397807,0.73877198,0.33922552,-41.2053,113.73798)" />
    <linearGradient
       xlink:href="#E"
       y2="325.26199"
       x2="281.203"
       y1="159.71899"
       x1="283.522"
       id="G"
       gradientTransform="translate(-66.63707,-60.773)" />
    <linearGradient
       xlink:href="#A"
       y2="370.27301"
       x2="284.328"
       y1="320.651"
       x1="281.72101"
       id="H"
       gradientTransform="translate(-66.63707,-60.773)" />
    <linearGradient
       xlink:href="#A"
       y2="262.30801"
       x2="516.51501"
       y1="253.32401"
       x1="398.259"
       id="I"
       gradientTransform="translate(-66.63707,-60.773)" />
    <linearGradient
       xlink:href="#E"
       y2="160.707"
       x2="413.767"
       y1="159.888"
       x1="401.71201"
       id="J"
       gradientTransform="translate(-66.63707,-60.773)" />
    <linearGradient
       xlink:href="#A"
       y2="154.45799"
       x2="408.91599"
       y1="154.17999"
       x1="404.74701"
       id="K"
       gradientTransform="translate(-66.63707,-60.773)" />
    <linearGradient
       xlink:href="#A"
       y2="354.26801"
       x2="406.97501"
       y1="329.76599"
       x1="406.31699"
       id="L"
       gradientTransform="translate(-66.63707,-60.773)" />
    <linearGradient
       xlink:href="#A"
       y2="361.08099"
       x2="389.879"
       y1="337.39801"
       x1="416.185"
       id="M"
       gradientTransform="translate(-66.63707,-60.773)" />
    <linearGradient
       xlink:href="#A"
       y2="235.496"
       x2="610.76801"
       y1="241.621"
       x1="400.79099"
       id="N"
       gradientTransform="translate(-66.63707,-60.773)" />
    <linearGradient
       xlink:href="#E"
       y2="97.75"
       x2="543.64001"
       y1="100.88"
       x1="442.95999"
       id="O" />
    <linearGradient
       xlink:href="#E"
       y2="97.75"
       x2="543.64001"
       y1="100.87"
       x1="442.95999"
       id="P" />
    <linearGradient
       xlink:href="#E"
       y2="152.19501"
       x2="1476.874"
       y1="192.942"
       x1="80.320999"
       id="Q"
       gradientTransform="translate(-66.63707,-60.773)" />
    <linearGradient
       xlink:href="#E"
       y2="333.57401"
       x2="201.159"
       y1="179.60899"
       x1="198.55299"
       id="R"
       gradientTransform="translate(-66.63707,-60.773)" />
    <linearGradient
       xlink:href="#E"
       y2="298.98401"
       x2="279.065"
       y1="194.394"
       x1="280.52899"
       id="S"
       gradientTransform="translate(-66.63707,-60.773)" />
    <linearGradient
       xlink:href="#A"
       y2="67.278999"
       x2="262.38901"
       y1="277.185"
       x1="256.88699"
       id="T" />
    <linearGradient
       xlink:href="#A"
       y2="84.156998"
       x2="261.953"
       y1="294.06299"
       x1="256.44299"
       id="U" />
    <linearGradient
       xlink:href="#A"
       y2="83.748001"
       x2="261.952"
       y1="293.646"
       x1="256.44299"
       id="V" />
    <linearGradient
       xlink:href="#E"
       y2="255.92101"
       x2="351.79001"
       y1="226.86501"
       x1="352.48901"
       id="W"
       gradientTransform="translate(-66.63707,-60.773)" />
    <linearGradient
       xlink:href="#E"
       y2="302.33701"
       x2="351.33899"
       y1="252.661"
       x1="352.03799"
       id="X"
       gradientTransform="translate(-66.63707,-60.773)" />
    <linearGradient
       xlink:href="#E"
       y2="208.244"
       x2="199.506"
       y1="201.80901"
       x1="199.597"
       id="Y"
       gradientTransform="translate(-66.63707,-60.773)" />
    <linearGradient
       xlink:href="#A"
       y2="195.08099"
       x2="161.97301"
       y1="192.97501"
       x1="93.313004"
       id="Z"
       gradientTransform="matrix(0.64140148,-0.48664385,0.51805504,0.60251143,-99.67973,55.67287)" />
    <linearGradient
       xlink:href="#A"
       y2="187.793"
       x2="201.174"
       y1="183.24699"
       x1="103.923"
       id="a"
       gradientTransform="matrix(0.64049694,-0.48444082,0.51570981,0.60166173,-92.6161,59.80548)" />
    <linearGradient
       xlink:href="#A"
       y2="159.55"
       x2="277.04099"
       y1="175.336"
       x1="115.685"
       id="b"
       gradientTransform="matrix(0.64049694,-0.48444082,0.51570981,0.60166173,-85.54423,63.94582)" />
    <linearGradient
       xlink:href="#D"
       y2="149.87199"
       x2="366.72198"
       y1="165.158"
       x1="132.242"
       id="c"
       gradientTransform="matrix(0.64049694,-0.48444082,0.51570981,0.60166173,-78.47237,68.08615)" />
    <linearGradient
       xlink:href="#E"
       y2="100.217"
       x2="241.20599"
       y1="153.446"
       x1="171.992"
       id="d"
       gradientTransform="translate(-66.63707,-60.773)" />
    <linearGradient
       xlink:href="#E"
       y2="135.838"
       x2="218.65601"
       y1="138.31"
       x1="146.991"
       id="e"
       gradientTransform="matrix(0.64049694,-0.48444082,0.51570981,0.60166173,-58.161324,80.02051)" />
    <linearGradient
       xlink:href="#E"
       y2="198.54201"
       x2="167.06599"
       y1="198.133"
       x1="151.632"
       id="f" />
    <linearGradient
       xlink:href="#A"
       y2="213.358"
       x2="174.771"
       y1="209.07001"
       x1="134.774"
       id="g"
       gradientTransform="translate(-66.63707,-60.773)" />
    <linearGradient
       xlink:href="#A"
       y2="181.61099"
       x2="181.32899"
       y1="155.037"
       x1="153.38"
       id="h"
       gradientTransform="translate(-66.63707,-60.773)" />
    <linearGradient
       xlink:href="#A"
       y2="274.44"
       x2="243.52"
       y1="367.84"
       x1="263.60999"
       id="i" />
    <linearGradient
       xlink:href="#A"
       y2="376.46799"
       x2="229.175"
       y1="324.60599"
       x1="295.69199"
       id="j"
       gradientTransform="translate(-66.63707,-60.773)" />
    <path
       id="k"
       d="m 75.879,168.367 6.732,-13.773 22.164,10.834 -6.732,13.773 z" />
    <path
       id="l"
       d="m 450.65,99.23 h 13.75 v 2.38 h -13.75 z" />
    <path
       id="m"
       d="m 249.25,246.71 h -37.23 v -35.47 h 37.23 z m -33.48,-3.75 h 29.73 v -28 h -29.73 z" />
    <path
       id="n"
       d="m 87.414,161.871 11.957,-9.658 15.542,19.243 -11.957,9.658 z" />
    <path
       id="o"
       d="m 98.68,152.43 11.941,-9.614 15.472,19.215 -11.941,9.614 z" />
    <path
       id="p"
       d="m 291.25,362.2 c -0.23,6 -4.85,28.05 -5,34.06 0,2 0.53,5.07 -0.11,7 -1.32,4.09 -6,3.53 -6.61,1.12 l -0.23,-1.2 c -2.17,-11.68 1.32,-24.93 0,-40.18 -0.79,-9.31 -4.47,-27.26 -6.88,-27.38 -1.27,0 -30.26,61.52 -32.78,65.31 -1.24,1.91 -4.73,1.61 -6.42,3.15 -1.69,1.54 14.08,-46.64 20.69,-72.1 a 81.06,81.06 0 0 0 3,-16.11 c 0.18,-3.15 -0.83,-4.21 2.06,-5.14 2,-0.64 4.77,-0.46 6.91,-0.61 2.33,-0.18 24,-0.22 24,1.32 -0.21,8.36 1.93,36.9 1.37,50.76 z" />
    <linearGradient
       xlink:href="#A"
       id="q"
       gradientTransform="matrix(0.36112137,-0.69397807,0.73877198,0.33922552,-118.79021,121.01446)" />
    <linearGradient
       xlink:href="#D"
       id="r"
       gradientTransform="matrix(0.36112137,-0.69397807,0.73877198,0.33922552,-79.18778,117.26808)" />
    <linearGradient
       xlink:href="#E"
       id="s"
       gradientTransform="matrix(0.36112137,-0.69397807,0.73877198,0.33922552,-54.403369,114.98935)" />
    <linearGradient
       xlink:href="#E"
       id="t"
       x1="442.95999"
       y1="100.87"
       x2="543.64001"
       y2="97.739998" />
    <linearGradient
       xlink:href="#E"
       id="u"
       x1="442.95999"
       y1="100.88"
       x2="543.64001"
       y2="97.75" />
    <linearGradient
       xlink:href="#E"
       id="v"
       x1="442.95999"
       y1="100.87"
       x2="543.64001"
       y2="97.75" />
    <path
       id="w"
       d="m 262.981,304.105 h 38.254 v 29.678 h -38.254 z" />
    <path
       id="x"
       d="m 256.024,245.028 h 3.314 v 3.267 h -3.314 z" />
    <path
       id="y"
       d="m 159.246,180.212 v 45.652 h -8.494 v -45.652 a 4.21,3.955 0 0 1 2.837,-3.739 v -4.557 a 1.513,1.421 0 1 1 3.026,0 v 4.635 a 4.235,3.978 0 0 1 2.631,3.661 z" />
    <linearGradient
       inkscape:collect="always"
       xlink:href="#E"
       id="linearGradient1994"
       x1="442.95999"
       y1="100.87"
       x2="543.64001"
       y2="97.739998" />
    <linearGradient
       inkscape:collect="always"
       xlink:href="#E"
       id="linearGradient1996"
       x1="442.95999"
       y1="100.87"
       x2="543.64001"
       y2="97.739998" />
    <linearGradient
       inkscape:collect="always"
       xlink:href="#E"
       id="linearGradient1998"
       x1="442.95999"
       y1="100.88"
       x2="543.64001"
       y2="97.75" />
    <linearGradient
       inkscape:collect="always"
       xlink:href="#E"
       id="linearGradient2000"
       x1="442.95999"
       y1="100.88"
       x2="543.64001"
       y2="97.75" />
    <linearGradient
       inkscape:collect="always"
       xlink:href="#E"
       id="linearGradient2002"
       x1="442.95999"
       y1="100.88"
       x2="543.64001"
       y2="97.75" />
    <linearGradient
       inkscape:collect="always"
       xlink:href="#E"
       id="linearGradient2004"
       x1="442.95999"
       y1="100.87"
       x2="543.64001"
       y2="97.75" />
    <linearGradient
       inkscape:collect="always"
       xlink:href="#E"
       id="linearGradient2006"
       x1="442.95999"
       y1="100.87"
       x2="543.64001"
       y2="97.75" />
    <linearGradient
       inkscape:collect="always"
       xlink:href="#E"
       id="linearGradient2008"
       x1="442.95999"
       y1="100.87"
       x2="543.64001"
       y2="97.75" />
    <linearGradient
       inkscape:collect="always"
       xlink:href="#E"
       id="linearGradient2010"
       x1="442.95999"
       y1="100.87"
       x2="543.64001"
       y2="97.75" />
    <linearGradient
       inkscape:collect="always"
       xlink:href="#E"
       id="linearGradient2012"
       x1="442.95999"
       y1="100.87"
       x2="543.64001"
       y2="97.739998" />
    <linearGradient
       inkscape:collect="always"
       xlink:href="#E"
       id="linearGradient2014"
       x1="442.95999"
       y1="100.87"
       x2="543.64001"
       y2="97.739998" />
    <linearGradient
       inkscape:collect="always"
       xlink:href="#E"
       id="linearGradient2016"
       x1="442.95999"
       y1="100.87"
       x2="543.64001"
       y2="97.739998" />
    <linearGradient
       inkscape:collect="always"
       xlink:href="#E"
       id="linearGradient2018"
       x1="442.95999"
       y1="100.87"
       x2="543.64001"
       y2="97.739998" />
    <linearGradient
       inkscape:collect="always"
       xlink:href="#E"
       id="linearGradient2020"
       x1="442.95999"
       y1="100.87"
       x2="543.64001"
       y2="97.739998" />
    <linearGradient
       inkscape:collect="always"
       xlink:href="#E"
       id="linearGradient2022"
       x1="442.95999"
       y1="100.87"
       x2="543.64001"
       y2="97.739998" />
    <linearGradient
       inkscape:collect="always"
       xlink:href="#E"
       id="linearGradient2024"
       x1="442.95999"
       y1="100.87"
       x2="543.64001"
       y2="97.739998" />
    <linearGradient
       inkscape:collect="always"
       xlink:href="#E"
       id="linearGradient2026"
       x1="442.95999"
       y1="100.88"
       x2="543.64001"
       y2="97.75" />
    <linearGradient
       inkscape:collect="always"
       xlink:href="#E"
       id="linearGradient2028"
       x1="442.95999"
       y1="100.87"
       x2="543.64001"
       y2="97.75" />
    <linearGradient
       inkscape:collect="always"
       xlink:href="#E"
       id="linearGradient2030"
       x1="442.95999"
       y1="100.87"
       x2="543.64001"
       y2="97.75" />
    <linearGradient
       inkscape:collect="always"
       xlink:href="#E"
       id="linearGradient2032"
       x1="442.95999"
       y1="100.87"
       x2="543.64001"
       y2="97.75" />
    <linearGradient
       inkscape:collect="always"
       xlink:href="#E"
       id="linearGradient2034"
       x1="442.95999"
       y1="100.87"
       x2="543.64001"
       y2="97.75" />
    <linearGradient
       inkscape:collect="always"
       xlink:href="#E"
       id="linearGradient2036"
       x1="442.95999"
       y1="100.87"
       x2="543.64001"
       y2="97.75" />
    <linearGradient
       inkscape:collect="always"
       xlink:href="#E"
       id="linearGradient2038"
       x1="442.95999"
       y1="100.87"
       x2="543.64001"
       y2="97.739998" />
    <linearGradient
       inkscape:collect="always"
       xlink:href="#E"
       id="linearGradient2040"
       x1="442.95999"
       y1="100.87"
       x2="543.64001"
       y2="97.739998" />
    <linearGradient
       inkscape:collect="always"
       xlink:href="#E"
       id="linearGradient2042"
       x1="442.95999"
       y1="100.87"
       x2="543.64001"
       y2="97.739998" />
    <linearGradient
       inkscape:collect="always"
       xlink:href="#E"
       id="linearGradient2044"
       x1="442.95999"
       y1="100.87"
       x2="543.64001"
       y2="97.739998" />
    <linearGradient
       inkscape:collect="always"
       xlink:href="#E"
       id="linearGradient2046"
       x1="442.95999"
       y1="100.87"
       x2="543.64001"
       y2="97.739998" />
    <linearGradient
       inkscape:collect="always"
       xlink:href="#E"
       id="linearGradient2048"
       x1="442.95999"
       y1="100.87"
       x2="543.64001"
       y2="97.739998" />
    <linearGradient
       inkscape:collect="always"
       xlink:href="#E"
       id="linearGradient2050"
       x1="442.95999"
       y1="100.87"
       x2="543.64001"
       y2="97.739998" />
    <linearGradient
       inkscape:collect="always"
       xlink:href="#E"
       id="linearGradient2052"
       x1="442.95999"
       y1="100.87"
       x2="543.64001"
       y2="97.75" />
    <linearGradient
       inkscape:collect="always"
       xlink:href="#E"
       id="linearGradient2054"
       x1="442.95999"
       y1="100.87"
       x2="543.64001"
       y2="97.75" />
    <linearGradient
       inkscape:collect="always"
       xlink:href="#E"
       id="linearGradient2056"
       x1="442.95999"
       y1="100.87"
       x2="543.64001"
       y2="97.739998" />
  </defs>
  <g
     class="I"
     id="g1258"
     transform="translate(-66.63707,-60.773)">
    <path
       opacity="0.35"
       d="m 172.946,346.266 c -18.222,1.707 -37.004,3.584 -53.039,11.934 -2.146,1.12 -4.325,2.441 -5.509,4.457 -2.376,4.055 0.321,9.401 4.506,11.842 4.185,2.441 9.35,2.719 14.275,2.92 87.708,3.561 175.547,2.163 263.328,0.772 25.492,-0.402 51.386,-0.865 75.817,-7.763 4.391,-1.236 9.218,-3.09 10.871,-7.13 2.163,-5.284 -2.771,-11.139 -8.527,-12.784 -5.756,-1.645 -11.899,-0.417 -17.852,0.301 -20.673,2.495 -41.527,-1.321 -62.109,-4.372 -40.293,-5.963 -82.099,-10.814 -122.911,-11.718 -13.913,-0.301 -25.796,4.194 -39.413,5.971 -19.661,2.58 -39.668,3.715 -59.437,5.569 z"
       id="path1256" />
  </g>
  <path
     fill="#ffffff"
     d="m 35.23193,125.966 45.434,-87.042 27.06,12.463 -45.434,87.042 z"
     id="path1260" />
  <use
     xlink:href="#k"
     transform="matrix(0.82231,0,0,0.772451,-16.63469,-6.772033)"
     class="I"
     id="use1262"
     x="0"
     y="0"
     width="100%"
     height="100%" />
  <path
     fill="url(#q)"
     d="m 45.76093,123.283 5.536,-10.639 18.226,8.369 -5.536,10.639 z"
     id="path1264"
     style="fill:url(#q)" />
  <use
     xlink:href="#k"
     x="6.7329998"
     y="-13.665"
     transform="matrix(0.82231,0,0,0.772451,-16.63469,-6.772033)"
     class="I"
     id="use1266"
     width="100%"
     height="100%" />
  <path
     fill="url(#B)"
     d="m 51.29793,112.728 5.536,-10.639 18.226,8.369 -5.536,10.639 z"
     id="path1268"
     style="fill:url(#B)" />
  <use
     xlink:href="#k"
     x="13.457"
     y="-27.334"
     transform="matrix(0.82231,0,0,0.772451,-16.63469,-6.772033)"
     class="I"
     id="use1270"
     width="100%"
     height="100%" />
  <path
     fill="url(#C)"
     d="m 56.82693,102.169 5.536,-10.639 18.226,8.369 -5.536,10.639 z"
     id="path1272"
     style="fill:url(#C)" />
  <use
     xlink:href="#k"
     x="20.201"
     y="-40.990002"
     transform="matrix(0.82231,0,0,0.772451,-16.63469,-6.772033)"
     class="I"
     id="use1274"
     width="100%"
     height="100%" />
  <path
     fill="url(#r)"
     d="m 62.37193,91.621 5.536,-10.639 18.226,8.369 -5.536,10.639 z"
     id="path1276"
     style="fill:url(#r)" />
  <g
     transform="matrix(0.82231,0,0,0.772451,-16.63469,-6.772033)"
     class="I"
     id="g1284">
    <use
       xlink:href="#k"
       x="26.929001"
       y="-54.667999"
       id="use1278"
       width="100%"
       height="100%" />
    <use
       xlink:href="#k"
       x="33.661999"
       y="-68.322998"
       id="use1280"
       width="100%"
       height="100%" />
    <use
       xlink:href="#k"
       x="40.387001"
       y="-81.992996"
       id="use1282"
       width="100%"
       height="100%" />
  </g>
  <path
     fill="url(#s)"
     d="m 72.81893,71.831 5.536,-10.639 18.226,8.369 -5.536,10.639 z"
     id="path1286"
     style="fill:url(#s)" />
  <path
     fill="url(#F)"
     d="m 78.35993,61.268 5.536,-10.639 18.226,8.369 -5.536,10.639 z"
     id="path1288"
     style="fill:url(#F)" />
  <use
     xlink:href="#w"
     class="I"
     id="use1290"
     x="0"
     y="0"
     width="100%"
     height="100%"
     transform="translate(-66.63707,-60.773)" />
  <use
     xlink:href="#w"
     fill="#999999"
     id="use1292"
     x="0"
     y="0"
     width="100%"
     height="100%"
     transform="translate(-66.63707,-60.773)" />
  <rect
     rx="7.7049999"
     height="131.123"
     width="202.987"
     y="116.83599"
     x="114.67194"
     class="J"
     id="rect1294" />
  <path
     fill="url(#G)"
     d="m 311.51593,128.376 v 108.313 a 7.203,6.767 0 0 1 -7.195,6.79 h -177.224 a 7.212,6.774 0 0 1 -7.195,-6.79 V 128.376 a 7.212,6.774 0 0 1 7.195,-6.79 h 177.224 a 7.203,6.767 0 0 1 7.195,6.79 z"
     class="H"
     id="path1296"
     style="fill:url(#G)" />
  <path
     d="m 178.37593,270.012 h 80.858 v 7.894 h -80.858 z"
     class="J"
     id="path1298" />
  <path
     fill="url(#H)"
     d="m 196.38493,265.926 h 38.254 v 4.187 h -38.254 z"
     id="path1300"
     style="fill:url(#H)" />
  <path
     fill="#ffffff"
     d="m 257.22693,60.902 v -7.547 h -5.337 a 22.737,21.358 0 0 0 -3.371,-7.392 l 4.112,-3.862 -5.649,-5.361 -4.112,3.8 a 23.082,21.683 0 0 0 -9.045,-3.715 v -5.307 h -8.026 v 5.191 a 21.75,20.431 0 0 0 -9.045,3.221 l -3.289,-3.221 -5.806,5.253 3.215,3.128 a 22.498,21.134 0 0 0 -4.112,8.265 h -5.756 v 7.547 h 5.559 a 22.696,21.32 0 0 0 4.046,9.687 l -3.462,3.19 5.682,5.407 3.487,-3.252 a 22.564,21.196 0 0 0 9.547,3.515 v 4.781 h 8.026 v -4.897 a 23.025,21.629 0 0 0 8.527,-3.368 l 4.169,4.063 5.806,-5.253 -4.235,-4.117 a 22.498,21.134 0 0 0 4.112,-9.717 z m -27.885,9.949 c -7.48,-0.008 -13.536,-5.712 -13.527,-12.738 0.009,-7.026 6.08,-12.715 13.56,-12.707 7.48,0.008 13.536,5.712 13.527,12.738 a 13.519,12.699 0 0 1 -13.56,12.707 z"
     id="path1302" />
  <path
     fill="#2a7fff"
     d="m 286.65793,70.998 0.362,-4.465 -3.166,-0.216 a 13.247,12.444 0 0 0 -1.645,-4.519 l 2.631,-2.109 -3.092,-3.406 -2.607,2.078 a 13.552,12.73 0 0 0 -5.148,-2.572 l 0.255,-3.144 -4.745,-0.332 -0.247,3.09 a 12.992,12.205 0 0 0 -5.485,1.545 l -1.784,-2.039 -3.684,2.858 1.752,1.985 a 13.437,12.622 0 0 0 -2.804,4.72 l -3.396,-0.239 -0.354,4.457 3.199,0.232 a 13.412,12.599 0 0 0 1.932,5.894 l -2.196,1.746 3.1,3.407 2.22,-1.777 a 13.379,12.568 0 0 0 5.477,2.48 l -0.23,2.827 4.745,0.332 0.238,-2.897 a 13.683,12.854 0 0 0 5.197,-1.63 l 2.27,2.572 3.684,-2.858 -2.311,-2.619 a 13.289,12.483 0 0 0 2.87,-5.569 z m -16.956,4.696 c -4.417,-0.319 -7.725,-3.94 -7.388,-8.09 0.337,-4.15 4.19,-7.259 8.608,-6.944 4.418,0.315 7.73,3.932 7.397,8.082 a 8.009,7.524 0 0 1 -8.618,6.952 z"
     id="path1304" />
  <path
     d="m 347.64893,108.037 v 178.436 a 7.162,6.728 0 0 1 -7.138,6.705 h -0.822 a 7.138,6.705 0 0 1 -7.105,-6.705 V 108.037 l 7.162,-17.689 z"
     opacity="0.984"
     class="I"
     id="path1306" />
  <path
     fill="url(#I)"
     d="m 339.51593,108.022 h 8.116 v 170.874 h -8.116 z"
     id="path1308"
     style="fill:url(#I)" />
  <path
     fill="url(#J)"
     d="m 347.70593,108.3 -15.13,-0.263 7.162,-17.697 2.747,6.18 z"
     class="H"
     id="path1310"
     style="fill:url(#J)" />
  <path
     fill="url(#K)"
     d="m 342.48393,96.52 h -5.246 l 2.5,-6.18 z"
     id="path1312"
     style="fill:url(#K)" />
  <path
     fill="url(#L)"
     d="m 332.23793,276.038 h 15.435 v 6.126 h -15.435 z"
     id="path1314"
     style="fill:url(#L)" />
  <path
     fill="url(#M)"
     d="m 347.64893,280.958 v 5.538 a 7.162,6.728 0 0 1 -7.138,6.705 h -0.822 a 7.138,6.705 0 0 1 -7.105,-6.705 v -5.538 z"
     id="path1316"
     style="fill:url(#M)" />
  <path
     fill="#1ca8ff"
     d="m 353.86493,66.642 h 40.573 v 227.054 h -40.573 z"
     id="path1318" />
  <path
     fill="url(#N)"
     d="m 353.86493,66.232 h 21.306 v 227.464 h -21.306 z"
     id="path1320"
     style="fill:url(#N)" />
  <g
     transform="matrix(0.82231,0,0,0.772451,-16.63469,-6.772033)"
     id="g1406">
    <use
       xlink:href="#l"
       fill="url(#t)"
       class="H"
       id="use1322"
       x="0"
       y="0"
       width="100%"
       height="100%"
       style="fill:url(#linearGradient1994)" />
    <use
       xlink:href="#l"
       y="7.27"
       fill="url(#t)"
       class="H"
       id="use1324"
       x="0"
       width="100%"
       height="100%"
       style="fill:url(#linearGradient1996)" />
    <use
       xlink:href="#l"
       y="14.53"
       fill="url(#u)"
       class="H"
       id="use1326"
       x="0"
       width="100%"
       height="100%"
       style="fill:url(#linearGradient1998)" />
    <use
       xlink:href="#l"
       y="21.799999"
       fill="url(#u)"
       class="H"
       id="use1328"
       x="0"
       width="100%"
       height="100%"
       style="fill:url(#linearGradient2000)" />
    <use
       xlink:href="#l"
       y="29.07"
       fill="url(#u)"
       class="H"
       id="use1330"
       x="0"
       width="100%"
       height="100%"
       style="fill:url(#linearGradient2002)" />
    <use
       xlink:href="#l"
       y="36.34"
       fill="url(#v)"
       class="H"
       id="use1332"
       x="0"
       width="100%"
       height="100%"
       style="fill:url(#linearGradient2004)" />
    <use
       xlink:href="#l"
       y="43.610001"
       fill="url(#v)"
       class="H"
       id="use1334"
       x="0"
       width="100%"
       height="100%"
       style="fill:url(#linearGradient2006)" />
    <use
       xlink:href="#l"
       y="50.880001"
       fill="url(#v)"
       class="H"
       id="use1336"
       x="0"
       width="100%"
       height="100%"
       style="fill:url(#linearGradient2008)" />
    <use
       xlink:href="#l"
       y="58.150002"
       fill="url(#v)"
       class="H"
       id="use1338"
       x="0"
       width="100%"
       height="100%"
       style="fill:url(#linearGradient2010)" />
    <use
       xlink:href="#l"
       y="65.419998"
       fill="url(#t)"
       class="H"
       id="use1340"
       x="0"
       width="100%"
       height="100%"
       style="fill:url(#linearGradient2012)" />
    <use
       xlink:href="#l"
       y="72.690002"
       fill="url(#t)"
       class="H"
       id="use1342"
       x="0"
       width="100%"
       height="100%"
       style="fill:url(#linearGradient2014)" />
    <use
       xlink:href="#l"
       y="79.959999"
       fill="url(#t)"
       class="H"
       id="use1344"
       x="0"
       width="100%"
       height="100%"
       style="fill:url(#linearGradient2016)" />
    <use
       xlink:href="#l"
       y="87.230003"
       fill="url(#t)"
       class="H"
       id="use1346"
       x="0"
       width="100%"
       height="100%"
       style="fill:url(#linearGradient2018)" />
    <use
       xlink:href="#l"
       y="94.5"
       fill="url(#t)"
       class="H"
       id="use1348"
       x="0"
       width="100%"
       height="100%"
       style="fill:url(#linearGradient2020)" />
    <use
       xlink:href="#l"
       y="101.77"
       fill="url(#t)"
       class="H"
       id="use1350"
       x="0"
       width="100%"
       height="100%"
       style="fill:url(#linearGradient2022)" />
    <use
       xlink:href="#l"
       y="109.04"
       fill="url(#t)"
       class="H"
       id="use1352"
       x="0"
       width="100%"
       height="100%"
       style="fill:url(#linearGradient2024)" />
    <use
       xlink:href="#l"
       y="116.3"
       fill="url(#u)"
       class="H"
       id="use1354"
       x="0"
       width="100%"
       height="100%"
       style="fill:url(#linearGradient2026)" />
    <use
       xlink:href="#l"
       y="123.57"
       fill="url(#u)"
       class="H"
       id="use1356"
       x="0"
       width="100%"
       height="100%"
       style="fill:url(#u)" />
    <use
       xlink:href="#l"
       y="130.84"
       fill="url(#v)"
       class="H"
       id="use1358"
       x="0"
       width="100%"
       height="100%"
       style="fill:url(#linearGradient2028)" />
    <use
       xlink:href="#l"
       y="138.11"
       fill="url(#v)"
       class="H"
       id="use1360"
       x="0"
       width="100%"
       height="100%"
       style="fill:url(#linearGradient2030)" />
    <use
       xlink:href="#l"
       y="145.38"
       fill="url(#v)"
       class="H"
       id="use1362"
       x="0"
       width="100%"
       height="100%"
       style="fill:url(#linearGradient2032)" />
    <use
       xlink:href="#l"
       y="152.64999"
       fill="url(#v)"
       class="H"
       id="use1364"
       x="0"
       width="100%"
       height="100%"
       style="fill:url(#linearGradient2034)" />
    <use
       xlink:href="#l"
       y="159.92"
       fill="url(#v)"
       class="H"
       id="use1366"
       x="0"
       width="100%"
       height="100%"
       style="fill:url(#linearGradient2036)" />
    <use
       xlink:href="#l"
       y="167.19"
       fill="url(#t)"
       class="H"
       id="use1368"
       x="0"
       width="100%"
       height="100%"
       style="fill:url(#linearGradient2038)" />
    <use
       xlink:href="#l"
       y="174.46001"
       fill="url(#t)"
       class="H"
       id="use1370"
       x="0"
       width="100%"
       height="100%"
       style="fill:url(#linearGradient2040)" />
    <use
       xlink:href="#l"
       y="181.73"
       fill="url(#t)"
       class="H"
       id="use1372"
       x="0"
       width="100%"
       height="100%"
       style="fill:url(#linearGradient2042)" />
    <use
       xlink:href="#l"
       y="189"
       fill="url(#t)"
       class="H"
       id="use1374"
       x="0"
       width="100%"
       height="100%"
       style="fill:url(#linearGradient2044)" />
    <use
       xlink:href="#l"
       y="196.27"
       fill="url(#t)"
       class="H"
       id="use1376"
       x="0"
       width="100%"
       height="100%"
       style="fill:url(#linearGradient2046)" />
    <use
       xlink:href="#l"
       y="203.53999"
       fill="url(#t)"
       class="H"
       id="use1378"
       x="0"
       width="100%"
       height="100%"
       style="fill:url(#linearGradient2048)" />
    <use
       xlink:href="#l"
       y="210.81"
       fill="url(#t)"
       class="H"
       id="use1380"
       x="0"
       width="100%"
       height="100%"
       style="fill:url(#linearGradient2050)" />
    <g
       fill="url(#O)"
       id="g1386"
       style="fill:url(#O)">
      <use
         xlink:href="#l"
         y="218.07001"
         fill="url(#u)"
         class="H"
         id="use1382"
         x="0"
         width="100%"
         height="100%"
         style="fill:url(#u)" />
      <use
         xlink:href="#l"
         y="225.34"
         class="H"
         id="use1384"
         x="0"
         width="100%"
         height="100%"
         style="fill:url(#O)" />
    </g>
    <g
       fill="url(#P)"
       id="g1398"
       style="fill:url(#P)">
      <use
         xlink:href="#l"
         y="232.61"
         fill="url(#v)"
         class="H"
         id="use1388"
         x="0"
         width="100%"
         height="100%"
         style="fill:url(#linearGradient2052)" />
      <use
         xlink:href="#l"
         y="239.88"
         fill="url(#v)"
         class="H"
         id="use1390"
         x="0"
         width="100%"
         height="100%"
         style="fill:url(#linearGradient2054)" />
      <use
         xlink:href="#l"
         y="247.14999"
         fill="url(#v)"
         class="H"
         id="use1392"
         x="0"
         width="100%"
         height="100%"
         style="fill:url(#v)" />
      <use
         xlink:href="#l"
         y="254.42"
         fill="url(#v)"
         class="H"
         id="use1394"
         x="0"
         width="100%"
         height="100%"
         style="fill:url(#v)" />
      <use
         xlink:href="#l"
         y="261.69"
         class="H"
         id="use1396"
         x="0"
         width="100%"
         height="100%"
         style="fill:url(#P)" />
    </g>
    <use
       xlink:href="#l"
       y="268.95999"
       fill="url(#t)"
       class="H"
       id="use1400"
       x="0"
       width="100%"
       height="100%"
       style="fill:url(#linearGradient2056)" />
    <use
       xlink:href="#l"
       y="276.23001"
       fill="url(#t)"
       class="H"
       id="use1402"
       x="0"
       width="100%"
       height="100%"
       style="fill:url(#t)" />
    <use
       xlink:href="#l"
       y="283.5"
       fill="url(#t)"
       class="H"
       id="use1404"
       x="0"
       width="100%"
       height="100%"
       style="fill:url(#t)" />
  </g>
  <path
     fill="url(#Q)"
     d="m 311.51593,128.376 v 2.379 h -191.598 v -2.379 a 7.212,6.774 0 0 1 7.195,-6.79 h 177.208 a 7.203,6.767 0 0 1 7.195,6.79 z"
     id="path1408"
     style="fill:url(#Q)" />
  <path
     fill="url(#R)"
     d="m 123.88993,142.195 h 18.255 v 83.718 h -18.255 z"
     id="path1410"
     style="fill:url(#R)" />
  <path
     fill="url(#S)"
     d="m 169.68393,147.772 h 86.943 v 77.322 h -86.943 z"
     id="path1412"
     style="fill:url(#S)" />
  <use
     xlink:href="#x"
     fill="#cccccc"
     id="use1414"
     x="0"
     y="0"
     width="100%"
     height="100%"
     transform="translate(-66.63707,-60.773)" />
  <use
     xlink:href="#x"
     y="-15.379"
     fill="url(#T)"
     id="use1416"
     x="0"
     width="100%"
     height="100%"
     style="fill:url(#T)"
     transform="translate(-66.63707,-60.773)" />
  <use
     xlink:href="#x"
     x="-37.012001"
     fill="#e6e6e6"
     id="use1418"
     y="0"
     width="100%"
     height="100%"
     transform="translate(-66.63707,-60.773)" />
  <use
     xlink:href="#x"
     x="-37.012001"
     y="-15.379"
     fill="#f9f9f9"
     id="use1420"
     width="100%"
     height="100%"
     transform="translate(-66.63707,-60.773)" />
  <use
     xlink:href="#x"
     y="-32.264999"
     fill="url(#U)"
     id="use1422"
     x="0"
     width="100%"
     height="100%"
     style="fill:url(#U)"
     transform="translate(-66.63707,-60.773)" />
  <use
     xlink:href="#x"
     x="-36.075001"
     y="-32.264999"
     fill="#ffffff"
     id="use1424"
     width="100%"
     height="100%"
     transform="translate(-66.63707,-60.773)" />
  <use
     xlink:href="#x"
     x="-17.737"
     y="-32.264999"
     fill="url(#V)"
     id="use1426"
     width="100%"
     height="100%"
     style="fill:url(#V)"
     transform="translate(-66.63707,-60.773)" />
  <use
     xlink:href="#x"
     x="-17.737"
     y="0.27000001"
     fill="#e6e6e6"
     id="use1428"
     width="100%"
     height="100%"
     transform="translate(-66.63707,-60.773)" />
  <g
     transform="matrix(0.82231,0,0,0.772451,-16.63469,-6.772033)"
     id="g1434">
    <use
       xlink:href="#m"
       class="I"
       id="use1430"
       x="0"
       y="0"
       width="100%"
       height="100%" />
    <use
       xlink:href="#m"
       fill="#0055d4"
       id="use1432"
       x="0"
       y="0"
       width="100%"
       height="100%" />
  </g>
  <path
     fill="url(#W)"
     d="m 265.93593,170.013 h 39.125 v 21.498 h -39.125 z"
     id="path1436"
     style="fill:url(#W)" />
  <path
     fill="url(#X)"
     d="m 265.48393,198.592 h 39.125 v 36.753 h -39.125 z"
     id="path1438"
     style="fill:url(#X)" />
  <path
     fill="url(#Y)"
     d="m 123.56093,141.986 h 18.691 v 4.596 h -18.691 z"
     class="H"
     id="path1440"
     style="fill:url(#Y)" />
  <path
     fill="#ffffff"
     d="m 43.97993,116.558 80.461,-60.705 18.872,22.073 -80.461,60.705 z"
     id="path1442" />
  <use
     xlink:href="#n"
     transform="matrix(0.82231,0,0,0.772451,-16.63469,-6.772033)"
     class="I"
     id="use1444"
     x="0"
     y="0"
     width="100%"
     height="100%" />
  <path
     fill="url(#Z)"
     d="m 55.24693,118.265 9.833,-7.46 12.78,14.864 -9.833,7.46 z"
     id="path1446"
     style="fill:url(#Z)" />
  <use
     xlink:href="#o"
     transform="matrix(0.82231,0,0,0.772451,-16.63469,-6.772033)"
     class="I"
     id="use1448"
     x="0"
     y="0"
     width="100%"
     height="100%" />
  <path
     fill="url(#a)"
     d="m 64.51093,110.973 9.819,-7.426 12.723,14.843 -9.819,7.426 z"
     id="path1450"
     style="fill:url(#a)" />
  <use
     xlink:href="#o"
     x="11.899"
     y="-9.5179996"
     transform="matrix(0.82231,0,0,0.772451,-16.63469,-6.772033)"
     class="I"
     id="use1452"
     width="100%"
     height="100%" />
  <path
     fill="url(#b)"
     d="m 74.29493,103.62 9.819,-7.426 12.723,14.843 -9.819,7.426 z"
     id="path1454"
     style="fill:url(#b)" />
  <use
     xlink:href="#o"
     x="23.789"
     y="-19.030001"
     transform="matrix(0.82231,0,0,0.772451,-16.63469,-6.772033)"
     class="I"
     id="use1456"
     width="100%"
     height="100%" />
  <path
     fill="url(#c)"
     d="m 84.07293,96.273 9.819,-7.426 12.723,14.843 -9.819,7.426 z"
     id="path1458"
     style="fill:url(#c)" />
  <g
     transform="matrix(0.82231,0,0,0.772451,-16.63469,-6.772033)"
     class="I"
     id="g1466">
    <use
       xlink:href="#n"
       x="47.514999"
       y="-38.242001"
       id="use1460"
       width="100%"
       height="100%" />
    <use
       xlink:href="#n"
       x="59.478001"
       y="-47.985001"
       id="use1462"
       width="100%"
       height="100%" />
    <use
       xlink:href="#o"
       x="59.473"
       y="-47.59"
       id="use1464"
       width="100%"
       height="100%" />
  </g>
  <path
     fill="url(#d)"
     d="m 124.97493,90.031 -8.404,6.196 -12.721,-14.846 8.404,-6.195 z"
     id="path1468"
     style="fill:url(#d)" />
  <path
     fill="url(#e)"
     d="m 112.25593,75.169 9.819,-7.426 12.723,14.843 -9.819,7.426 z"
     id="path1470"
     style="fill:url(#e)" />
  <use
     xlink:href="#y"
     class="I"
     id="use1472"
     x="0"
     y="0"
     width="100%"
     height="100%"
     transform="translate(-66.63707,-60.773)" />
  <use
     xlink:href="#y"
     fill="url(#f)"
     opacity="0.941"
     id="use1474"
     x="0"
     y="0"
     width="100%"
     height="100%"
     style="fill:url(#f)"
     transform="translate(-66.63707,-60.773)" />
  <g
     transform="matrix(0.82231,0,0,0.772451,-16.63469,-6.772033)"
     class="I"
     id="g1480">
    <rect
       rx="2.25"
       height="4.4899998"
       width="23.530001"
       y="201.3"
       x="115.91"
       id="rect1476" />
    <path
       d="m 127.9,241.13 v 0 c -4.09,0 -7.49,-6.13 -7.49,-10.22 v -27.09 h 14.8 v 27.09 c 0,4.09 -3.23,10.22 -7.31,10.22 z"
       id="path1478" />
  </g>
  <rect
     fill="url(#g)"
     rx="1.85"
     height="3.4679999"
     width="19.349001"
     y="148.72198"
     x="78.678925"
     id="rect1482"
     style="fill:url(#g)" />
  <path
     fill="url(#h)"
     d="m 88.53893,179.489 v 0 c -3.363,0 -6.159,-4.735 -6.159,-7.894 v -19.466 h 12.17 v 19.466 c 0,3.159 -2.656,7.894 -6.011,7.894 z"
     id="path1484"
     style="fill:url(#h)" />
  <path
     fill="#28353d"
     d="m 167.09393,201.643 c -0.312,-1.506 -0.51,-3.638 0.09,-3.785 1.266,-0.324 -0.09,3.785 -0.09,3.785 z"
     id="path1486" />
  <g
     transform="matrix(0.82231,0,0,0.772451,-16.63469,-6.772033)"
     id="g1492">
    <use
       xlink:href="#p"
       fill="#606161"
       id="use1488"
       x="0"
       y="0"
       width="100%"
       height="100%" />
    <use
       xlink:href="#p"
       fill="url(#i)"
       id="use1490"
       x="0"
       y="0"
       width="100%"
       height="100%"
       style="fill:url(#i)" />
  </g>
  <path
     d="m 201.97593,174.144 c -0.148,-1.452 -0.872,-2.24 -1.579,-2.24 -0.707,0 -1.143,0.772 -0.995,2.24 a 2.36,2.217 0 0 0 2.039,2.132 c 0.715,0 0.691,-0.68 0.534,-2.132 z m 13.124,0.085 c 0.099,-1.452 0.822,-2.24 1.571,-2.24 0.749,0 1.233,0.772 1.118,2.24 a 2.294,2.155 0 0 1 -2.056,2.124 c -0.74,0 -0.748,-0.672 -0.633,-2.124 z"
     fill="#ffcd9c"
     id="path1494" />
  <path
     d="m 216.11993,180.393 c -0.099,0.772 -3.495,4.156 -7.36,4.156 -3.865,0 -7.055,-3.09 -7.73,-4.326 -0.675,-1.236 2.039,-17.133 3.61,-18.462 1.571,-1.329 7.935,-0.456 8.47,0.247 1.283,1.661 3.429,15.302 3.01,18.384 z"
     class="K"
     id="path1496" />
  <path
     d="m 214.55793,168.659 c -0.559,0.247 -2.755,-4.905 -3.215,-5.77 -0.46,-0.865 -0.386,-1.753 0.173,-2.001 0.559,-0.248 1.381,0.263 1.842,1.12 0.461,0.857 1.752,6.411 1.201,6.651 z m -11.833,-0.386 c -0.584,-0.178 0.962,-5.407 1.299,-6.311 0.337,-0.904 1.094,-1.499 1.645,-1.321 0.551,0.178 0.781,1.058 0.444,1.97 -0.337,0.912 -2.837,5.84 -3.388,5.662 z"
     fill="#ffcd9c"
     id="path1498" />
  <g
     class="K"
     id="g1504"
     transform="translate(-66.63707,-60.773)">
    <path
       d="m 271.146,240.803 h 8.725 l 1.307,7.238 c -4.753,2.24 -7.524,1.993 -11.233,-0.494 z"
       id="path1500" />
    <path
       d="m 274.6,242.178 c 0,-0.147 0.312,-0.27 0.691,-0.27 0.379,0 0.691,0.124 0.691,0.27 0,0.146 -0.304,0.17 -0.691,0.17 -0.387,0 -0.691,-0.015 -0.691,-0.17 z"
       id="path1502" />
  </g>
  <path
     d="m 217.26193,177.759 c 0.326,-1.777 0.86,-14.499 -0.447,-16.183 -1.307,-1.684 -9.133,-2.773 -10.319,-2.51 -2.657,0.587 -2.193,2.317 -2.193,2.317 a 4.575,4.109 0 0 0 -2.244,0.564 c -0.912,0.556 -2.83,8.574 -1.298,14.638 0.688,2.727 3.397,5.098 8.075,5.214 5.762,0.139 8.032,-1.838 8.428,-4.04 z"
     class="J"
     id="path1506" />
  <path
     fill="#2a7fff"
     d="m 192.74193,186.147 a 8.174,7.678 0 0 0 -3.799,1.228 c -1.949,1.437 -2.097,4.117 -2.064,6.45 a 58.03,54.512 0 0 0 0.715,9.656 c 0.584,2.928 1.645,5.739 2.516,8.605 a 59.321,55.725 0 0 1 2.146,14.314 c 0,2.657 -0.049,5.577 1.719,7.655 1.932,2.256 5.353,2.696 8.429,2.858 a 140.15,140.15 0 0 0 13.116,0.1 c 2.927,-0.124 6.044,-0.394 8.363,-2.078 1.85,-1.344 6.184,-46.818 2.821,-47.969 -3.363,-1.151 -6.981,-1.444 -10.55,-1.723 -8.001,-0.633 -15.533,-1.136 -23.411,0.904 z"
     id="path1508" />
  <path
     fill="url(#j)"
     d="m 217.08193,280.78 c -0.428,5.168 -1.447,23.946 -1.447,23.946 l -2.599,-0.085 c -1.784,-9.022 1.085,-19.257 0,-31.037 -0.65,-7.192 -3.676,-21.057 -5.657,-21.15 0.592,-4.635 3.922,-3.94 3.922,-3.94 a 72.133,67.759 0 0 1 6.241,10.76 c 1.982,4.882 -0.025,16.314 -0.46,21.505 z"
     id="path1510"
     style="fill:url(#j)" />
  <path
     d="m 168.11393,304.726 a 2.607,2.449 0 0 0 -0.888,1.128 1.867,1.753 0 0 0 0.107,1.105 3.388,3.182 0 0 0 2.36,1.723 9.933,9.331 0 0 0 3.084,0.1 l 3.289,-0.209 a 9.087,8.536 0 0 0 2.467,-0.378 3.034,2.85 0 0 0 1.826,-1.483 4.243,3.986 0 0 0 0.222,-1.63 c 0,-2.557 -0.954,-4.635 -3.931,-4.009 a 19.596,18.407 0 0 0 -8.536,3.654 z m 54.618,1.012 a 2.302,2.163 0 0 1 0.781,0.996 1.645,1.545 0 0 1 -0.09,0.966 2.944,2.765 0 0 1 -2.072,1.506 8.519,8.003 0 0 1 -2.705,0.093 l -2.862,-0.185 a 7.911,7.431 0 0 1 -2.146,-0.324 2.648,2.487 0 0 1 -1.595,-1.305 3.774,3.546 0 0 1 -0.197,-1.429 c 0,-2.24 0.822,-4.086 3.445,-3.515 a 17.112,16.075 0 0 1 7.442,3.198 z"
     id="path1512" />
  <path
     d="m 226.70293,186.951 c 0,0 12.54,7.107 16.306,16.09 3.766,8.983 -12.335,30.635 -12.335,30.635 l -3.445,-3.406 c 0,0 8.404,-16.337 7.105,-20.424 -1.299,-4.087 -6.389,-7.894 -6.389,-7.894 z m -36.872,14.182 c 0,0 -17.828,7.493 -25.072,3.816 -7.244,-3.677 0.214,-22.146 0.214,-22.146 l 4.852,1.545 c 0,0 -4.054,9.416 0.584,10.814 4.638,1.398 18.535,-7.786 18.535,-7.786 z"
     fill="#5599ff"
     id="path1514" />
  <path
     d="m 223.39793,232.819 a 3.651,3.43 0 0 0 -1.176,1.275 3.289,3.09 0 0 0 -0.173,1.352 3.939,3.7 0 0 0 1.365,2.897 4.638,4.357 0 0 0 2.056,0.572 3.865,3.631 0 0 0 1.34,0 1.357,1.275 0 0 0 1.003,-0.772 3.289,3.09 0 0 0 0.074,-0.772 c 0.058,-1.275 1.011,-2.317 1.801,-3.36 a 1.455,1.367 0 0 0 0.354,-0.718 1.406,1.321 0 0 0 -0.312,-0.811 c -0.534,-0.726 -1.858,-2.062 -2.919,-1.947 -1.061,0.115 -2.59,1.653 -3.413,2.286 z m -50.621,-52.372 a 2.804,2.634 0 0 0 0.444,-1.012 0.954,0.896 0 0 0 -0.502,-0.919 c -0.567,-0.209 -1.242,0.34 -1.801,0.108 a 1.258,1.182 0 0 1 -0.46,-0.417 6.217,5.84 0 0 1 -1.094,-3.043 6.578,6.18 0 0 0 -0.164,-1.73 1.307,1.228 0 0 0 -1.398,-0.904 c -0.526,0.116 -0.822,0.618 -1.151,1.02 -0.329,0.402 -0.987,0.881 -1.414,1.383 a 7.277,6.836 0 0 0 -1.209,3.468 c -0.23,1.545 -0.378,3.314 0.773,4.426 0.888,0.857 3.593,1.869 4.835,1.414 1.373,-0.51 2.45,-2.68 3.141,-3.793 z"
     class="K"
     id="path1516" />
</svg>
