<svg xmlns="http://www.w3.org/2000/svg" xmlns:svg="http://www.w3.org/2000/svg" xmlns:xlink="http://www.w3.org/1999/xlink" id="svg1518" width="446.63" height="329.274" version="1.1" viewBox="0 0 446.63 329.274"><style id="style1173">.H{opacity:.65}.I{fill:#178bc4}.J{fill:#1a1a1a}.K{fill:#f4ad7d}</style><defs id="defs1252"><linearGradient id="A" x1="83.153" x2="151.815" y1="193.097" y2="195.217" gradientUnits="userSpaceOnUse"><stop id="stop1175" offset="0" stop-color="#010101" stop-opacity="0"/><stop id="stop1177" offset=".95" stop-color="#010101"/></linearGradient><linearGradient id="B" x1="88.601" x2="185.844" y1="179.225" y2="183.765" gradientTransform="matrix(0.36112137,-0.69397807,0.73877198,0.33922552,-111.22347,114.20909)" xlink:href="#A"/><linearGradient id="C" x1="95.193" x2="256.549" y1="167.165" y2="151.378" gradientTransform="matrix(0.36112137,-0.69397807,0.73877198,0.33922552,-98.025402,112.95772)" xlink:href="#A"/><linearGradient id="D" x1="106.582" x2="341.064" y1="152.83" y2="137.558" gradientUnits="userSpaceOnUse"><stop id="stop1182" offset="0" stop-color="#010101" stop-opacity="0"/><stop id="stop1184" offset=".36" stop-color="#010101" stop-opacity=".36"/><stop id="stop1186" offset=".95" stop-color="#010101"/></linearGradient><linearGradient id="E" x1="109.011" x2="237.116" y1="126.927" y2="125.889" gradientUnits="userSpaceOnUse"><stop id="stop1189" offset="0" stop-color="#fff" stop-opacity="0"/><stop id="stop1191" offset=".07" stop-color="#fff" stop-opacity=".22"/><stop id="stop1193" offset=".16" stop-color="#fff" stop-opacity=".45"/><stop id="stop1195" offset=".25" stop-color="#fff" stop-opacity=".65"/><stop id="stop1197" offset=".33" stop-color="#fff" stop-opacity=".8"/><stop id="stop1199" offset=".4" stop-color="#fff" stop-opacity=".91"/><stop id="stop1201" offset=".46" stop-color="#fff" stop-opacity=".98"/><stop id="stop1203" offset=".51" stop-color="#fff"/></linearGradient><linearGradient id="F" x1="106.484" x2="178.164" y1="114.03" y2="111.556" gradientTransform="matrix(0.36112137,-0.69397807,0.73877198,0.33922552,-46.836632,108.18398)" xlink:href="#E"/><linearGradient id="G" x1="283.522" x2="281.203" y1="159.719" y2="325.262" gradientTransform="translate(-72.268402,-66.327)" xlink:href="#E"/><linearGradient id="H" x1="281.721" x2="284.328" y1="320.651" y2="370.273" gradientTransform="translate(-72.268402,-66.327)" xlink:href="#A"/><linearGradient id="I" x1="398.259" x2="516.515" y1="253.324" y2="262.308" gradientTransform="translate(-72.268402,-66.327)" xlink:href="#A"/><linearGradient id="J" x1="401.712" x2="413.767" y1="159.888" y2="160.707" gradientTransform="translate(-72.268402,-66.327)" xlink:href="#E"/><linearGradient id="K" x1="404.747" x2="408.916" y1="154.18" y2="154.458" gradientTransform="translate(-72.268402,-66.327)" xlink:href="#A"/><linearGradient id="L" x1="406.317" x2="406.975" y1="329.766" y2="354.268" gradientTransform="translate(-72.268402,-66.327)" xlink:href="#A"/><linearGradient id="M" x1="416.185" x2="389.879" y1="337.398" y2="361.081" gradientTransform="translate(-72.268402,-66.327)" xlink:href="#A"/><linearGradient id="N" x1="400.791" x2="610.768" y1="241.621" y2="235.496" gradientTransform="translate(-72.268402,-66.327)" xlink:href="#A"/><linearGradient id="O" x1="442.96" x2="543.64" y1="100.88" y2="97.75" xlink:href="#E"/><linearGradient id="P" x1="442.96" x2="543.64" y1="100.87" y2="97.75" xlink:href="#E"/><linearGradient id="Q" x1="80.321" x2="1476.874" y1="192.942" y2="152.195" gradientTransform="translate(-72.268402,-66.327)" xlink:href="#E"/><linearGradient id="R" x1="198.553" x2="201.159" y1="179.609" y2="333.574" gradientTransform="translate(-72.268402,-66.327)" xlink:href="#E"/><linearGradient id="S" x1="280.529" x2="279.065" y1="194.394" y2="298.984" gradientTransform="translate(-72.268402,-66.327)" xlink:href="#E"/><linearGradient id="T" x1="256.887" x2="262.389" y1="277.185" y2="67.279" xlink:href="#A"/><linearGradient id="U" x1="256.443" x2="261.953" y1="294.063" y2="84.157" xlink:href="#A"/><linearGradient id="V" x1="256.443" x2="261.952" y1="293.646" y2="83.748" xlink:href="#A"/><linearGradient id="W" x1="352.489" x2="351.79" y1="226.865" y2="255.921" gradientTransform="translate(-72.268402,-66.327)" xlink:href="#E"/><linearGradient id="X" x1="352.038" x2="351.339" y1="252.661" y2="302.337" gradientTransform="translate(-72.268402,-66.327)" xlink:href="#E"/><linearGradient id="Y" x1="199.597" x2="199.506" y1="201.809" y2="208.244" gradientTransform="translate(-72.268402,-66.327)" xlink:href="#E"/><linearGradient id="Z" x1="93.313" x2="161.973" y1="192.975" y2="195.081" gradientTransform="matrix(0.64140148,-0.48664385,0.51805504,0.60251143,-105.31106,50.11887)" xlink:href="#A"/><linearGradient id="a" x1="103.923" x2="201.174" y1="183.247" y2="187.793" gradientTransform="matrix(0.64049694,-0.48444082,0.51570981,0.60166173,-98.247432,54.25148)" xlink:href="#A"/><linearGradient id="b" x1="115.685" x2="277.041" y1="175.336" y2="159.55" gradientTransform="matrix(0.64049694,-0.48444082,0.51570981,0.60166173,-91.175562,58.39182)" xlink:href="#A"/><linearGradient id="c" x1="132.242" x2="366.722" y1="165.158" y2="149.872" gradientTransform="matrix(0.64049694,-0.48444082,0.51570981,0.60166173,-84.103702,62.53215)" xlink:href="#D"/><linearGradient id="d" x1="171.992" x2="241.206" y1="153.446" y2="100.217" gradientTransform="translate(-72.268402,-66.327)" xlink:href="#E"/><linearGradient id="e" x1="146.991" x2="218.656" y1="138.31" y2="135.838" gradientTransform="matrix(0.64049694,-0.48444082,0.51570981,0.60166173,-63.792656,74.46651)" xlink:href="#E"/><linearGradient id="f" x1="151.632" x2="167.066" y1="198.133" y2="198.542" xlink:href="#E"/><linearGradient id="g" x1="134.774" x2="174.771" y1="209.07" y2="213.358" gradientTransform="translate(-72.268402,-66.327)" xlink:href="#A"/><linearGradient id="h" x1="153.38" x2="181.329" y1="155.037" y2="181.611" gradientTransform="translate(-72.268402,-66.327)" xlink:href="#A"/><linearGradient id="i" x1="263.61" x2="243.52" y1="367.84" y2="274.44" xlink:href="#A"/><linearGradient id="j" x1="295.692" x2="229.175" y1="324.606" y2="376.468" gradientTransform="translate(-72.268402,-66.327)" xlink:href="#A"/><path id="k" d="m 75.879,168.367 6.732,-13.773 22.164,10.834 -6.732,13.773 z"/><path id="l" d="m 450.65,99.23 h 13.75 v 2.38 h -13.75 z"/><path id="m" d="m 249.25,246.71 h -37.23 v -35.47 h 37.23 z m -33.48,-3.75 h 29.73 v -28 h -29.73 z"/><path id="n" d="m 87.414,161.871 11.957,-9.658 15.542,19.243 -11.957,9.658 z"/><path id="o" d="m 98.68,152.43 11.941,-9.614 15.472,19.215 -11.941,9.614 z"/><path id="p" d="m 291.25,362.2 c -0.23,6 -4.85,28.05 -5,34.06 0,2 0.53,5.07 -0.11,7 -1.32,4.09 -6,3.53 -6.61,1.12 l -0.23,-1.2 c -2.17,-11.68 1.32,-24.93 0,-40.18 -0.79,-9.31 -4.47,-27.26 -6.88,-27.38 -1.27,0 -30.26,61.52 -32.78,65.31 -1.24,1.91 -4.73,1.61 -6.42,3.15 -1.69,1.54 14.08,-46.64 20.69,-72.1 a 81.06,81.06 0 0 0 3,-16.11 c 0.18,-3.15 -0.83,-4.21 2.06,-5.14 2,-0.64 4.77,-0.46 6.91,-0.61 2.33,-0.18 24,-0.22 24,1.32 -0.21,8.36 1.93,36.9 1.37,50.76 z"/><linearGradient id="q" gradientTransform="matrix(0.36112137,-0.69397807,0.73877198,0.33922552,-124.42154,115.46046)" xlink:href="#A"/><linearGradient id="r" gradientTransform="matrix(0.36112137,-0.69397807,0.73877198,0.33922552,-84.819112,111.71408)" xlink:href="#D"/><linearGradient id="s" gradientTransform="matrix(0.36112137,-0.69397807,0.73877198,0.33922552,-60.034701,109.43535)" xlink:href="#E"/><linearGradient id="t" x1="442.96" x2="543.64" y1="100.87" y2="97.74" xlink:href="#E"/><linearGradient id="u" x1="442.96" x2="543.64" y1="100.88" y2="97.75" xlink:href="#E"/><linearGradient id="v" x1="442.96" x2="543.64" y1="100.87" y2="97.75" xlink:href="#E"/><path id="w" d="m 262.981,304.105 h 38.254 v 29.678 h -38.254 z"/><path id="x" d="m 256.024,245.028 h 3.314 v 3.267 h -3.314 z"/><path id="y" d="m 159.246,180.212 v 45.652 h -8.494 v -45.652 a 4.21,3.955 0 0 1 2.837,-3.739 v -4.557 a 1.513,1.421 0 1 1 3.026,0 v 4.635 a 4.235,3.978 0 0 1 2.631,3.661 z"/><linearGradient id="linearGradient1994" x1="442.96" x2="543.64" y1="100.87" y2="97.74" xlink:href="#E"/><linearGradient id="linearGradient1996" x1="442.96" x2="543.64" y1="100.87" y2="97.74" xlink:href="#E"/><linearGradient id="linearGradient1998" x1="442.96" x2="543.64" y1="100.88" y2="97.75" xlink:href="#E"/><linearGradient id="linearGradient2000" x1="442.96" x2="543.64" y1="100.88" y2="97.75" xlink:href="#E"/><linearGradient id="linearGradient2002" x1="442.96" x2="543.64" y1="100.88" y2="97.75" xlink:href="#E"/><linearGradient id="linearGradient2004" x1="442.96" x2="543.64" y1="100.87" y2="97.75" xlink:href="#E"/><linearGradient id="linearGradient2006" x1="442.96" x2="543.64" y1="100.87" y2="97.75" xlink:href="#E"/><linearGradient id="linearGradient2008" x1="442.96" x2="543.64" y1="100.87" y2="97.75" xlink:href="#E"/><linearGradient id="linearGradient2010" x1="442.96" x2="543.64" y1="100.87" y2="97.75" xlink:href="#E"/><linearGradient id="linearGradient2012" x1="442.96" x2="543.64" y1="100.87" y2="97.74" xlink:href="#E"/><linearGradient id="linearGradient2014" x1="442.96" x2="543.64" y1="100.87" y2="97.74" xlink:href="#E"/><linearGradient id="linearGradient2016" x1="442.96" x2="543.64" y1="100.87" y2="97.74" xlink:href="#E"/><linearGradient id="linearGradient2018" x1="442.96" x2="543.64" y1="100.87" y2="97.74" xlink:href="#E"/><linearGradient id="linearGradient2020" x1="442.96" x2="543.64" y1="100.87" y2="97.74" xlink:href="#E"/><linearGradient id="linearGradient2022" x1="442.96" x2="543.64" y1="100.87" y2="97.74" xlink:href="#E"/><linearGradient id="linearGradient2024" x1="442.96" x2="543.64" y1="100.87" y2="97.74" xlink:href="#E"/><linearGradient id="linearGradient2026" x1="442.96" x2="543.64" y1="100.88" y2="97.75" xlink:href="#E"/><linearGradient id="linearGradient2028" x1="442.96" x2="543.64" y1="100.87" y2="97.75" xlink:href="#E"/><linearGradient id="linearGradient2030" x1="442.96" x2="543.64" y1="100.87" y2="97.75" xlink:href="#E"/><linearGradient id="linearGradient2032" x1="442.96" x2="543.64" y1="100.87" y2="97.75" xlink:href="#E"/><linearGradient id="linearGradient2034" x1="442.96" x2="543.64" y1="100.87" y2="97.75" xlink:href="#E"/><linearGradient id="linearGradient2036" x1="442.96" x2="543.64" y1="100.87" y2="97.75" xlink:href="#E"/><linearGradient id="linearGradient2038" x1="442.96" x2="543.64" y1="100.87" y2="97.74" xlink:href="#E"/><linearGradient id="linearGradient2040" x1="442.96" x2="543.64" y1="100.87" y2="97.74" xlink:href="#E"/><linearGradient id="linearGradient2042" x1="442.96" x2="543.64" y1="100.87" y2="97.74" xlink:href="#E"/><linearGradient id="linearGradient2044" x1="442.96" x2="543.64" y1="100.87" y2="97.74" xlink:href="#E"/><linearGradient id="linearGradient2046" x1="442.96" x2="543.64" y1="100.87" y2="97.74" xlink:href="#E"/><linearGradient id="linearGradient2048" x1="442.96" x2="543.64" y1="100.87" y2="97.74" xlink:href="#E"/><linearGradient id="linearGradient2050" x1="442.96" x2="543.64" y1="100.87" y2="97.74" xlink:href="#E"/><linearGradient id="linearGradient2052" x1="442.96" x2="543.64" y1="100.87" y2="97.75" xlink:href="#E"/><linearGradient id="linearGradient2054" x1="442.96" x2="543.64" y1="100.87" y2="97.75" xlink:href="#E"/><linearGradient id="linearGradient2056" x1="442.96" x2="543.64" y1="100.87" y2="97.74" xlink:href="#E"/></defs><g id="g1258" class="I" transform="translate(-72.268402,-66.327)"><path id="path1256" d="m 172.946,346.266 c -18.222,1.707 -37.004,3.584 -53.039,11.934 -2.146,1.12 -4.325,2.441 -5.509,4.457 -2.376,4.055 0.321,9.401 4.506,11.842 4.185,2.441 9.35,2.719 14.275,2.92 87.708,3.561 175.547,2.163 263.328,0.772 25.492,-0.402 51.386,-0.865 75.817,-7.763 4.391,-1.236 9.218,-3.09 10.871,-7.13 2.163,-5.284 -2.771,-11.139 -8.527,-12.784 -5.756,-1.645 -11.899,-0.417 -17.852,0.301 -20.673,2.495 -41.527,-1.321 -62.109,-4.372 -40.293,-5.963 -82.099,-10.814 -122.911,-11.718 -13.913,-0.301 -25.796,4.194 -39.413,5.971 -19.661,2.58 -39.668,3.715 -59.437,5.569 z" opacity=".35"/></g><path id="path1260" fill="#fff" d="M 29.600598,120.412 75.034598,33.37 102.0946,45.833 56.660598,132.875 Z"/><use id="use1262" width="100%" height="100%" x="0" y="0" class="I" transform="matrix(0.82231,0,0,0.772451,-22.266022,-12.326033)" xlink:href="#k"/><path id="path1264" fill="url(#q)" d="m 40.129598,117.729 5.536,-10.639 18.226,8.369 -5.536,10.639 z" style="fill:url(#q)"/><use id="use1266" width="100%" height="100%" x="6.733" y="-13.665" class="I" transform="matrix(0.82231,0,0,0.772451,-22.266022,-12.326033)" xlink:href="#k"/><path id="path1268" fill="url(#B)" d="m 45.666598,107.174 5.536,-10.639 18.226,8.369 -5.536,10.639 z" style="fill:url(#B)"/><use id="use1270" width="100%" height="100%" x="13.457" y="-27.334" class="I" transform="matrix(0.82231,0,0,0.772451,-22.266022,-12.326033)" xlink:href="#k"/><path id="path1272" fill="url(#C)" d="m 51.195598,96.615 5.536,-10.639 18.226,8.369 -5.536,10.639 z" style="fill:url(#C)"/><use id="use1274" width="100%" height="100%" x="20.201" y="-40.99" class="I" transform="matrix(0.82231,0,0,0.772451,-22.266022,-12.326033)" xlink:href="#k"/><path id="path1276" fill="url(#r)" d="m 56.740598,86.067 5.536,-10.639 18.226,8.369 -5.536,10.639 z" style="fill:url(#r)"/><g id="g1284" class="I" transform="matrix(0.82231,0,0,0.772451,-22.266022,-12.326033)"><use id="use1278" width="100%" height="100%" x="26.929" y="-54.668" xlink:href="#k"/><use id="use1280" width="100%" height="100%" x="33.662" y="-68.323" xlink:href="#k"/><use id="use1282" width="100%" height="100%" x="40.387" y="-81.993" xlink:href="#k"/></g><path id="path1286" fill="url(#s)" d="m 67.187598,66.277 5.536,-10.639 18.226,8.369 -5.536,10.639 z" style="fill:url(#s)"/><path id="path1288" fill="url(#F)" d="m 72.728598,55.714 5.536,-10.639 18.226,8.369 -5.536,10.639 z" style="fill:url(#F)"/><use id="use1290" width="100%" height="100%" x="0" y="0" class="I" transform="translate(-72.268402,-66.327)" xlink:href="#w"/><use id="use1292" width="100%" height="100%" x="0" y="0" fill="#999" transform="translate(-72.268402,-66.327)" xlink:href="#w"/><rect id="rect1294" width="202.987" height="131.123" x="109.041" y="111.282" class="J" rx="7.705"/><path id="path1296" fill="url(#G)" d="m 305.8846,122.822 v 108.313 a 7.203,6.767 0 0 1 -7.195,6.79 h -177.224 a 7.212,6.774 0 0 1 -7.195,-6.79 V 122.822 a 7.212,6.774 0 0 1 7.195,-6.79 h 177.224 a 7.203,6.767 0 0 1 7.195,6.79 z" class="H" style="fill:url(#G)"/><path id="path1298" d="m 172.7446,264.458 h 80.858 v 7.894 h -80.858 z" class="J"/><path id="path1300" fill="url(#H)" d="m 190.7536,260.372 h 38.254 v 4.187 h -38.254 z" style="fill:url(#H)"/><path id="path1302" fill="#fff" d="m 251.5956,55.348 v -7.547 h -5.337 a 22.737,21.358 0 0 0 -3.371,-7.392 l 4.112,-3.862 -5.649,-5.361 -4.112,3.8 a 23.082,21.683 0 0 0 -9.045,-3.715 v -5.307 h -8.026 v 5.191 a 21.75,20.431 0 0 0 -9.045,3.221 l -3.289,-3.221 -5.806,5.253 3.215,3.128 a 22.498,21.134 0 0 0 -4.112,8.265 h -5.756 v 7.547 h 5.559 a 22.696,21.32 0 0 0 4.046,9.687 l -3.462,3.19 5.682,5.407 3.487,-3.252 a 22.564,21.196 0 0 0 9.547,3.515 v 4.781 h 8.026 v -4.897 a 23.025,21.629 0 0 0 8.527,-3.368 l 4.169,4.063 5.806,-5.253 -4.235,-4.117 a 22.498,21.134 0 0 0 4.112,-9.717 z m -27.885,9.949 c -7.48,-0.008 -13.536,-5.712 -13.527,-12.738 0.009,-7.026 6.08,-12.715 13.56,-12.707 7.48,0.008 13.536,5.712 13.527,12.738 a 13.519,12.699 0 0 1 -13.56,12.707 z"/><path id="path1304" fill="#2a7fff" d="m 281.0266,65.444 0.362,-4.465 -3.166,-0.216 a 13.247,12.444 0 0 0 -1.645,-4.519 l 2.631,-2.109 -3.092,-3.406 -2.607,2.078 a 13.552,12.73 0 0 0 -5.148,-2.572 l 0.255,-3.144 -4.745,-0.332 -0.247,3.09 a 12.992,12.205 0 0 0 -5.485,1.545 l -1.784,-2.039 -3.684,2.858 1.752,1.985 a 13.437,12.622 0 0 0 -2.804,4.72 l -3.396,-0.239 -0.354,4.457 3.199,0.232 a 13.412,12.599 0 0 0 1.932,5.894 l -2.196,1.746 3.1,3.407 2.22,-1.777 a 13.379,12.568 0 0 0 5.477,2.48 l -0.23,2.827 4.745,0.332 0.238,-2.897 a 13.683,12.854 0 0 0 5.197,-1.63 l 2.27,2.572 3.684,-2.858 -2.311,-2.619 a 13.289,12.483 0 0 0 2.87,-5.569 z m -16.956,4.696 c -4.417,-0.319 -7.725,-3.94 -7.388,-8.09 0.337,-4.15 4.19,-7.259 8.608,-6.944 4.418,0.315 7.73,3.932 7.397,8.082 a 8.009,7.524 0 0 1 -8.618,6.952 z"/><path id="path1306" d="m 342.0176,102.483 v 178.436 a 7.162,6.728 0 0 1 -7.138,6.705 h -0.822 a 7.138,6.705 0 0 1 -7.105,-6.705 V 102.483 l 7.162,-17.689 z" class="I" opacity=".984"/><path id="path1308" fill="url(#I)" d="m 333.8846,102.468 h 8.116 v 170.874 h -8.116 z" style="fill:url(#I)"/><path id="path1310" fill="url(#J)" d="m 342.0746,102.746 -15.13,-0.263 7.162,-17.697 2.747,6.18 z" class="H" style="fill:url(#J)"/><path id="path1312" fill="url(#K)" d="m 336.8526,90.966 h -5.246 l 2.5,-6.18 z" style="fill:url(#K)"/><path id="path1314" fill="url(#L)" d="m 326.6066,270.484 h 15.435 v 6.126 h -15.435 z" style="fill:url(#L)"/><path id="path1316" fill="url(#M)" d="m 342.0176,275.404 v 5.538 a 7.162,6.728 0 0 1 -7.138,6.705 h -0.822 a 7.138,6.705 0 0 1 -7.105,-6.705 v -5.538 z" style="fill:url(#M)"/><path id="path1318" fill="#1ca8ff" d="m 348.2336,61.088 h 40.573 v 227.054 h -40.573 z" style="fill:#f9f9f9"/><path id="path1320" fill="url(#N)" d="m 348.2336,60.678 h 21.306 v 227.464 h -21.306 z" style="fill:url(#N)"/><g id="g1406" transform="matrix(0.82231,0,0,0.772451,-22.266022,-12.326033)"><use id="use1322" width="100%" height="100%" x="0" y="0" fill="url(#t)" class="H" xlink:href="#l" style="fill:url(#linearGradient1994)"/><use id="use1324" width="100%" height="100%" x="0" y="7.27" fill="url(#t)" class="H" xlink:href="#l" style="fill:url(#linearGradient1996)"/><use id="use1326" width="100%" height="100%" x="0" y="14.53" fill="url(#u)" class="H" xlink:href="#l" style="fill:url(#linearGradient1998)"/><use id="use1328" width="100%" height="100%" x="0" y="21.8" fill="url(#u)" class="H" xlink:href="#l" style="fill:url(#linearGradient2000)"/><use id="use1330" width="100%" height="100%" x="0" y="29.07" fill="url(#u)" class="H" xlink:href="#l" style="fill:url(#linearGradient2002)"/><use id="use1332" width="100%" height="100%" x="0" y="36.34" fill="url(#v)" class="H" xlink:href="#l" style="fill:url(#linearGradient2004)"/><use id="use1334" width="100%" height="100%" x="0" y="43.61" fill="url(#v)" class="H" xlink:href="#l" style="fill:url(#linearGradient2006)"/><use id="use1336" width="100%" height="100%" x="0" y="50.88" fill="url(#v)" class="H" xlink:href="#l" style="fill:url(#linearGradient2008)"/><use id="use1338" width="100%" height="100%" x="0" y="58.15" fill="url(#v)" class="H" xlink:href="#l" style="fill:url(#linearGradient2010)"/><use id="use1340" width="100%" height="100%" x="0" y="65.42" fill="url(#t)" class="H" xlink:href="#l" style="fill:url(#linearGradient2012)"/><use id="use1342" width="100%" height="100%" x="0" y="72.69" fill="url(#t)" class="H" xlink:href="#l" style="fill:url(#linearGradient2014)"/><use id="use1344" width="100%" height="100%" x="0" y="79.96" fill="url(#t)" class="H" xlink:href="#l" style="fill:url(#linearGradient2016)"/><use id="use1346" width="100%" height="100%" x="0" y="87.23" fill="url(#t)" class="H" xlink:href="#l" style="fill:url(#linearGradient2018)"/><use id="use1348" width="100%" height="100%" x="0" y="94.5" fill="url(#t)" class="H" xlink:href="#l" style="fill:url(#linearGradient2020)"/><use id="use1350" width="100%" height="100%" x="0" y="101.77" fill="url(#t)" class="H" xlink:href="#l" style="fill:url(#linearGradient2022)"/><use id="use1352" width="100%" height="100%" x="0" y="109.04" fill="url(#t)" class="H" xlink:href="#l" style="fill:url(#linearGradient2024)"/><use id="use1354" width="100%" height="100%" x="0" y="116.3" fill="url(#u)" class="H" xlink:href="#l" style="fill:url(#linearGradient2026)"/><use id="use1356" width="100%" height="100%" x="0" y="123.57" fill="url(#u)" class="H" xlink:href="#l" style="fill:url(#u)"/><use id="use1358" width="100%" height="100%" x="0" y="130.84" fill="url(#v)" class="H" xlink:href="#l" style="fill:url(#linearGradient2028)"/><use id="use1360" width="100%" height="100%" x="0" y="138.11" fill="url(#v)" class="H" xlink:href="#l" style="fill:url(#linearGradient2030)"/><use id="use1362" width="100%" height="100%" x="0" y="145.38" fill="url(#v)" class="H" xlink:href="#l" style="fill:url(#linearGradient2032)"/><use id="use1364" width="100%" height="100%" x="0" y="152.65" fill="url(#v)" class="H" xlink:href="#l" style="fill:url(#linearGradient2034)"/><use id="use1366" width="100%" height="100%" x="0" y="159.92" fill="url(#v)" class="H" xlink:href="#l" style="fill:url(#linearGradient2036)"/><use id="use1368" width="100%" height="100%" x="0" y="167.19" fill="url(#t)" class="H" xlink:href="#l" style="fill:url(#linearGradient2038)"/><use id="use1370" width="100%" height="100%" x="0" y="174.46" fill="url(#t)" class="H" xlink:href="#l" style="fill:url(#linearGradient2040)"/><use id="use1372" width="100%" height="100%" x="0" y="181.73" fill="url(#t)" class="H" xlink:href="#l" style="fill:url(#linearGradient2042)"/><use id="use1374" width="100%" height="100%" x="0" y="189" fill="url(#t)" class="H" xlink:href="#l" style="fill:url(#linearGradient2044)"/><use id="use1376" width="100%" height="100%" x="0" y="196.27" fill="url(#t)" class="H" xlink:href="#l" style="fill:url(#linearGradient2046)"/><use id="use1378" width="100%" height="100%" x="0" y="203.54" fill="url(#t)" class="H" xlink:href="#l" style="fill:url(#linearGradient2048)"/><use id="use1380" width="100%" height="100%" x="0" y="210.81" fill="url(#t)" class="H" xlink:href="#l" style="fill:url(#linearGradient2050)"/><g id="g1386" fill="url(#O)" style="fill:url(#O)"><use id="use1382" width="100%" height="100%" x="0" y="218.07" fill="url(#u)" class="H" xlink:href="#l" style="fill:url(#u)"/><use id="use1384" width="100%" height="100%" x="0" y="225.34" class="H" xlink:href="#l" style="fill:url(#O)"/></g><g id="g1398" fill="url(#P)" style="fill:url(#P)"><use id="use1388" width="100%" height="100%" x="0" y="232.61" fill="url(#v)" class="H" xlink:href="#l" style="fill:url(#linearGradient2052)"/><use id="use1390" width="100%" height="100%" x="0" y="239.88" fill="url(#v)" class="H" xlink:href="#l" style="fill:url(#linearGradient2054)"/><use id="use1392" width="100%" height="100%" x="0" y="247.15" fill="url(#v)" class="H" xlink:href="#l" style="fill:url(#v)"/><use id="use1394" width="100%" height="100%" x="0" y="254.42" fill="url(#v)" class="H" xlink:href="#l" style="fill:url(#v)"/><use id="use1396" width="100%" height="100%" x="0" y="261.69" class="H" xlink:href="#l" style="fill:url(#P)"/></g><use id="use1400" width="100%" height="100%" x="0" y="268.96" fill="url(#t)" class="H" xlink:href="#l" style="fill:url(#linearGradient2056)"/><use id="use1402" width="100%" height="100%" x="0" y="276.23" fill="url(#t)" class="H" xlink:href="#l" style="fill:url(#t)"/><use id="use1404" width="100%" height="100%" x="0" y="283.5" fill="url(#t)" class="H" xlink:href="#l" style="fill:url(#t)"/></g><path id="path1408" fill="url(#Q)" d="m 305.8846,122.822 v 2.379 h -191.598 v -2.379 a 7.212,6.774 0 0 1 7.195,-6.79 h 177.208 a 7.203,6.767 0 0 1 7.195,6.79 z" style="fill:url(#Q)"/><path id="path1410" fill="url(#R)" d="m 118.2586,136.641 h 18.255 v 83.718 h -18.255 z" style="fill:url(#R)"/><path id="path1412" fill="url(#S)" d="m 164.0526,142.218 h 86.943 v 77.322 h -86.943 z" style="fill:url(#S)"/><use id="use1414" width="100%" height="100%" x="0" y="0" fill="#ccc" transform="translate(-72.268402,-66.327)" xlink:href="#x"/><use id="use1416" width="100%" height="100%" x="0" y="-15.379" fill="url(#T)" transform="translate(-72.268402,-66.327)" xlink:href="#x" style="fill:url(#T)"/><use id="use1418" width="100%" height="100%" x="-37.012" y="0" fill="#e6e6e6" transform="translate(-72.268402,-66.327)" xlink:href="#x"/><use id="use1420" width="100%" height="100%" x="-37.012" y="-15.379" fill="#f9f9f9" transform="translate(-72.268402,-66.327)" xlink:href="#x"/><use id="use1422" width="100%" height="100%" x="0" y="-32.265" fill="url(#U)" transform="translate(-72.268402,-66.327)" xlink:href="#x" style="fill:url(#U)"/><use id="use1424" width="100%" height="100%" x="-36.075" y="-32.265" fill="#fff" transform="translate(-72.268402,-66.327)" xlink:href="#x"/><use id="use1426" width="100%" height="100%" x="-17.737" y="-32.265" fill="url(#V)" transform="translate(-72.268402,-66.327)" xlink:href="#x" style="fill:url(#V)"/><use id="use1428" width="100%" height="100%" x="-17.737" y=".27" fill="#e6e6e6" transform="translate(-72.268402,-66.327)" xlink:href="#x"/><g id="g1434" transform="matrix(0.82231,0,0,0.772451,-22.266022,-12.326033)"><use id="use1430" width="100%" height="100%" x="0" y="0" class="I" xlink:href="#m"/><use id="use1432" width="100%" height="100%" x="0" y="0" fill="#0055d4" xlink:href="#m"/></g><path id="path1436" fill="url(#W)" d="m 260.3046,164.459 h 39.125 v 21.498 h -39.125 z" style="fill:url(#W)"/><path id="path1438" fill="url(#X)" d="m 259.8526,193.038 h 39.125 v 36.753 h -39.125 z" style="fill:url(#X)"/><path id="path1440" fill="url(#Y)" d="m 117.9296,136.432 h 18.691 v 4.596 h -18.691 z" class="H" style="fill:url(#Y)"/><path id="path1442" fill="#fff" d="M 38.348598,111.004 118.8096,50.299 137.6816,72.372 57.220598,133.077 Z"/><use id="use1444" width="100%" height="100%" x="0" y="0" class="I" transform="matrix(0.82231,0,0,0.772451,-22.266022,-12.326033)" xlink:href="#n"/><path id="path1446" fill="url(#Z)" d="m 49.615598,112.711 9.833,-7.46 12.78,14.864 -9.833,7.46 z" style="fill:url(#Z)"/><use id="use1448" width="100%" height="100%" x="0" y="0" class="I" transform="matrix(0.82231,0,0,0.772451,-22.266022,-12.326033)" xlink:href="#o"/><path id="path1450" fill="url(#a)" d="m 58.879598,105.419 9.819,-7.426 12.723,14.843 -9.819,7.426 z" style="fill:url(#a)"/><use id="use1452" width="100%" height="100%" x="11.899" y="-9.518" class="I" transform="matrix(0.82231,0,0,0.772451,-22.266022,-12.326033)" xlink:href="#o"/><path id="path1454" fill="url(#b)" d="m 68.663598,98.066 9.819,-7.426 12.723,14.843 -9.819,7.426 z" style="fill:url(#b)"/><use id="use1456" width="100%" height="100%" x="23.789" y="-19.03" class="I" transform="matrix(0.82231,0,0,0.772451,-22.266022,-12.326033)" xlink:href="#o"/><path id="path1458" fill="url(#c)" d="m 78.441598,90.719 9.819,-7.426 12.723002,14.843 -9.819002,7.426 z" style="fill:url(#c)"/><g id="g1466" class="I" transform="matrix(0.82231,0,0,0.772451,-22.266022,-12.326033)"><use id="use1460" width="100%" height="100%" x="47.515" y="-38.242" xlink:href="#n"/><use id="use1462" width="100%" height="100%" x="59.478" y="-47.985" xlink:href="#n"/><use id="use1464" width="100%" height="100%" x="59.473" y="-47.59" xlink:href="#o"/></g><path id="path1468" fill="url(#d)" d="m 119.3436,84.477 -8.404,6.196 -12.721002,-14.846 8.404002,-6.195 z" style="fill:url(#d)"/><path id="path1470" fill="url(#e)" d="m 106.6246,69.615 9.819,-7.426 12.723,14.843 -9.819,7.426 z" style="fill:url(#e)"/><use id="use1472" width="100%" height="100%" x="0" y="0" class="I" transform="translate(-72.268402,-66.327)" xlink:href="#y"/><use id="use1474" width="100%" height="100%" x="0" y="0" fill="url(#f)" opacity=".941" transform="translate(-72.268402,-66.327)" xlink:href="#y" style="fill:url(#f)"/><g id="g1480" class="I" transform="matrix(0.82231,0,0,0.772451,-22.266022,-12.326033)"><rect id="rect1476" width="23.53" height="4.49" x="115.91" y="201.3" rx="2.25"/><path id="path1478" d="m 127.9,241.13 v 0 c -4.09,0 -7.49,-6.13 -7.49,-10.22 v -27.09 h 14.8 v 27.09 c 0,4.09 -3.23,10.22 -7.31,10.22 z"/></g><rect id="rect1482" width="19.349" height="3.468" x="73.048" y="143.168" fill="url(#g)" rx="1.85" style="fill:url(#g)"/><path id="path1484" fill="url(#h)" d="m 82.907598,173.935 v 0 c -3.363,0 -6.159,-4.735 -6.159,-7.894 v -19.466 h 12.17 v 19.466 c 0,3.159 -2.656,7.894 -6.011,7.894 z" style="fill:url(#h)"/><path id="path1486" fill="#28353d" d="m 161.4626,196.089 c -0.312,-1.506 -0.51,-3.638 0.09,-3.785 1.266,-0.324 -0.09,3.785 -0.09,3.785 z"/><g id="g1492" transform="matrix(0.82231,0,0,0.772451,-22.266022,-12.326033)"><use id="use1488" width="100%" height="100%" x="0" y="0" fill="#606161" xlink:href="#p"/><use id="use1490" width="100%" height="100%" x="0" y="0" fill="url(#i)" xlink:href="#p" style="fill:url(#i)"/></g><path id="path1494" fill="#ffcd9c" d="m 196.3446,168.59 c -0.148,-1.452 -0.872,-2.24 -1.579,-2.24 -0.707,0 -1.143,0.772 -0.995,2.24 a 2.36,2.217 0 0 0 2.039,2.132 c 0.715,0 0.691,-0.68 0.534,-2.132 z m 13.124,0.085 c 0.099,-1.452 0.822,-2.24 1.571,-2.24 0.749,0 1.233,0.772 1.118,2.24 a 2.294,2.155 0 0 1 -2.056,2.124 c -0.74,0 -0.748,-0.672 -0.633,-2.124 z"/><path id="path1496" d="m 210.4886,174.839 c -0.099,0.772 -3.495,4.156 -7.36,4.156 -3.865,0 -7.055,-3.09 -7.73,-4.326 -0.675,-1.236 2.039,-17.133 3.61,-18.462 1.571,-1.329 7.935,-0.456 8.47,0.247 1.283,1.661 3.429,15.302 3.01,18.384 z" class="K"/><path id="path1498" fill="#ffcd9c" d="m 208.9266,163.105 c -0.559,0.247 -2.755,-4.905 -3.215,-5.77 -0.46,-0.865 -0.386,-1.753 0.173,-2.001 0.559,-0.248 1.381,0.263 1.842,1.12 0.461,0.857 1.752,6.411 1.201,6.651 z m -11.833,-0.386 c -0.584,-0.178 0.962,-5.407 1.299,-6.311 0.337,-0.904 1.094,-1.499 1.645,-1.321 0.551,0.178 0.781,1.058 0.444,1.97 -0.337,0.912 -2.837,5.84 -3.388,5.662 z"/><g id="g1504" class="K" transform="translate(-72.268402,-66.327)"><path id="path1500" d="m 271.146,240.803 h 8.725 l 1.307,7.238 c -4.753,2.24 -7.524,1.993 -11.233,-0.494 z"/><path id="path1502" d="m 274.6,242.178 c 0,-0.147 0.312,-0.27 0.691,-0.27 0.379,0 0.691,0.124 0.691,0.27 0,0.146 -0.304,0.17 -0.691,0.17 -0.387,0 -0.691,-0.015 -0.691,-0.17 z"/></g><path id="path1506" d="m 211.6306,172.205 c 0.326,-1.777 0.86,-14.499 -0.447,-16.183 -1.307,-1.684 -9.133,-2.773 -10.319,-2.51 -2.657,0.587 -2.193,2.317 -2.193,2.317 a 4.575,4.109 0 0 0 -2.244,0.564 c -0.912,0.556 -2.83,8.574 -1.298,14.638 0.688,2.727 3.397,5.098 8.075,5.214 5.762,0.139 8.032,-1.838 8.428,-4.04 z" class="J"/><path id="path1508" fill="#2a7fff" d="m 187.1106,180.593 a 8.174,7.678 0 0 0 -3.799,1.228 c -1.949,1.437 -2.097,4.117 -2.064,6.45 a 58.03,54.512 0 0 0 0.715,9.656 c 0.584,2.928 1.645,5.739 2.516,8.605 a 59.321,55.725 0 0 1 2.146,14.314 c 0,2.657 -0.049,5.577 1.719,7.655 1.932,2.256 5.353,2.696 8.429,2.858 a 140.15,140.15 0 0 0 13.116,0.1 c 2.927,-0.124 6.044,-0.394 8.363,-2.078 1.85,-1.344 6.184,-46.818 2.821,-47.969 -3.363,-1.151 -6.981,-1.444 -10.55,-1.723 -8.001,-0.633 -15.533,-1.136 -23.411,0.904 z"/><path id="path1510" fill="url(#j)" d="m 211.4506,275.226 c -0.428,5.168 -1.447,23.946 -1.447,23.946 l -2.599,-0.085 c -1.784,-9.022 1.085,-19.257 0,-31.037 -0.65,-7.192 -3.676,-21.057 -5.657,-21.15 0.592,-4.635 3.922,-3.94 3.922,-3.94 a 72.133,67.759 0 0 1 6.241,10.76 c 1.982,4.882 -0.025,16.314 -0.46,21.505 z" style="fill:url(#j)"/><path id="path1512" d="m 162.4826,299.172 a 2.607,2.449 0 0 0 -0.888,1.128 1.867,1.753 0 0 0 0.107,1.105 3.388,3.182 0 0 0 2.36,1.723 9.933,9.331 0 0 0 3.084,0.1 l 3.289,-0.209 a 9.087,8.536 0 0 0 2.467,-0.378 3.034,2.85 0 0 0 1.826,-1.483 4.243,3.986 0 0 0 0.222,-1.63 c 0,-2.557 -0.954,-4.635 -3.931,-4.009 a 19.596,18.407 0 0 0 -8.536,3.654 z m 54.618,1.012 a 2.302,2.163 0 0 1 0.781,0.996 1.645,1.545 0 0 1 -0.09,0.966 2.944,2.765 0 0 1 -2.072,1.506 8.519,8.003 0 0 1 -2.705,0.093 l -2.862,-0.185 a 7.911,7.431 0 0 1 -2.146,-0.324 2.648,2.487 0 0 1 -1.595,-1.305 3.774,3.546 0 0 1 -0.197,-1.429 c 0,-2.24 0.822,-4.086 3.445,-3.515 a 17.112,16.075 0 0 1 7.442,3.198 z"/><path id="path1514" fill="#59f" d="m 221.0716,181.397 c 0,0 12.54,7.107 16.306,16.09 3.766,8.983 -12.335,30.635 -12.335,30.635 l -3.445,-3.406 c 0,0 8.404,-16.337 7.105,-20.424 -1.299,-4.087 -6.389,-7.894 -6.389,-7.894 z m -36.872,14.182 c 0,0 -17.828,7.493 -25.072,3.816 -7.244,-3.677 0.214,-22.146 0.214,-22.146 l 4.852,1.545 c 0,0 -4.054,9.416 0.584,10.814 4.638,1.398 18.535,-7.786 18.535,-7.786 z"/><path id="path1516" d="m 217.7666,227.265 a 3.651,3.43 0 0 0 -1.176,1.275 3.289,3.09 0 0 0 -0.173,1.352 3.939,3.7 0 0 0 1.365,2.897 4.638,4.357 0 0 0 2.056,0.572 3.865,3.631 0 0 0 1.34,0 1.357,1.275 0 0 0 1.003,-0.772 3.289,3.09 0 0 0 0.074,-0.772 c 0.058,-1.275 1.011,-2.317 1.801,-3.36 a 1.455,1.367 0 0 0 0.354,-0.718 1.406,1.321 0 0 0 -0.312,-0.811 c -0.534,-0.726 -1.858,-2.062 -2.919,-1.947 -1.061,0.115 -2.59,1.653 -3.413,2.286 z m -50.621,-52.372 a 2.804,2.634 0 0 0 0.444,-1.012 0.954,0.896 0 0 0 -0.502,-0.919 c -0.567,-0.209 -1.242,0.34 -1.801,0.108 a 1.258,1.182 0 0 1 -0.46,-0.417 6.217,5.84 0 0 1 -1.094,-3.043 6.578,6.18 0 0 0 -0.164,-1.73 1.307,1.228 0 0 0 -1.398,-0.904 c -0.526,0.116 -0.822,0.618 -1.151,1.02 -0.329,0.402 -0.987,0.881 -1.414,1.383 a 7.277,6.836 0 0 0 -1.209,3.468 c -0.23,1.545 -0.378,3.314 0.773,4.426 0.888,0.857 3.593,1.869 4.835,1.414 1.373,-0.51 2.45,-2.68 3.141,-3.793 z" class="K"/></svg>