<svg xmlns="http://www.w3.org/2000/svg" xmlns:xlink="http://www.w3.org/1999/xlink" viewBox="0 0 562.72 439.42" xmlns:v="https://vecta.io/nano"><style><![CDATA[.H{opacity:.65}.I{fill:#178bc4}.J{fill:#1a1a1a}.K{fill:#f4ad7d}]]></style><defs><linearGradient gradientUnits="userSpaceOnUse" y2="195.217" x2="151.815" y1="193.097" x1="83.153" id="A"><stop stop-opacity="0" stop-color="#010101" offset="0"/><stop stop-color="#010101" offset=".95"/></linearGradient><linearGradient xlink:href="#A" y2="183.765" x2="185.844" y1="179.225" x1="88.601" id="B" gradientTransform="matrix(0.36112137,-0.69397807,0.73877198,0.33922552,-38.955071,180.53609)"/><linearGradient xlink:href="#A" y2="151.378" x2="256.549" y1="167.165" x1="95.193" id="C" gradientTransform="matrix(0.36112137,-0.69397807,0.73877198,0.33922552,-25.757002,179.28472)"/><linearGradient gradientUnits="userSpaceOnUse" y2="137.558" x2="341.064" y1="152.83" x1="106.582" id="D"><stop stop-opacity="0" stop-color="#010101" offset="0"/><stop stop-opacity=".36" stop-color="#010101" offset=".36"/><stop stop-color="#010101" offset=".95"/></linearGradient><linearGradient gradientUnits="userSpaceOnUse" y2="125.889" x2="237.116" y1="126.927" x1="109.011" id="E"><stop stop-opacity="0" stop-color="#fff" offset="0"/><stop stop-opacity=".22" stop-color="#fff" offset=".07"/><stop stop-opacity=".45" stop-color="#fff" offset=".16"/><stop stop-opacity=".65" stop-color="#fff" offset=".25"/><stop stop-opacity=".8" stop-color="#fff" offset=".33"/><stop stop-opacity=".91" stop-color="#fff" offset=".4"/><stop stop-opacity=".98" stop-color="#fff" offset=".46"/><stop stop-color="#fff" offset=".51"/></linearGradient><linearGradient xlink:href="#E" y2="111.556" x2="178.164" y1="114.03" x1="106.484" id="F" gradientTransform="matrix(0.36112137,-0.69397807,0.73877198,0.33922552,25.43177,174.51098)"/><linearGradient xlink:href="#E" y2="325.262" x2="281.203" y1="159.719" x1="283.522" id="G"/><linearGradient xlink:href="#A" y2="370.273" x2="284.328" y1="320.651" x1="281.721" id="H"/><linearGradient xlink:href="#A" y2="262.308" x2="516.515" y1="253.324" x1="398.259" id="I"/><linearGradient xlink:href="#E" y2="160.707" x2="413.767" y1="159.888" x1="401.712" id="J"/><linearGradient xlink:href="#A" y2="154.458" x2="408.916" y1="154.18" x1="404.747" id="K"/><linearGradient xlink:href="#A" y2="354.268" x2="406.975" y1="329.766" x1="406.317" id="L"/><linearGradient xlink:href="#A" y2="361.081" x2="389.879" y1="337.398" x1="416.185" id="M"/><linearGradient xlink:href="#A" y2="235.496" x2="610.768" y1="241.621" x1="400.791" id="N"/><linearGradient xlink:href="#E" y2="97.75" x2="543.64" y1="100.88" x1="442.96" id="O"/><linearGradient xlink:href="#E" y2="97.75" x2="543.64" y1="100.87" x1="442.96" id="P"/><linearGradient xlink:href="#E" y2="152.195" x2="1476.874" y1="192.942" x1="80.321" id="Q"/><linearGradient xlink:href="#E" y2="333.574" x2="201.159" y1="179.609" x1="198.553" id="R"/><linearGradient xlink:href="#E" y2="298.984" x2="279.065" y1="194.394" x1="280.529" id="S"/><linearGradient xlink:href="#A" y2="67.279" x2="262.389" y1="277.185" x1="256.887" id="T"/><linearGradient xlink:href="#A" y2="84.157" x2="261.953" y1="294.063" x1="256.443" id="U"/><linearGradient xlink:href="#A" y2="83.748" x2="261.952" y1="293.646" x1="256.443" id="V"/><linearGradient xlink:href="#E" y2="255.921" x2="351.79" y1="226.865" x1="352.489" id="W"/><linearGradient xlink:href="#E" y2="302.337" x2="351.339" y1="252.661" x1="352.038" id="X"/><linearGradient xlink:href="#E" y2="208.244" x2="199.506" y1="201.809" x1="199.597" id="Y"/><linearGradient xlink:href="#A" y2="195.081" x2="161.973" y1="192.975" x1="93.313" id="Z" gradientTransform="matrix(0.64140148,-0.48664385,0.51805504,0.60251143,-33.042665,116.44587)"/><linearGradient xlink:href="#A" y2="187.793" x2="201.174" y1="183.247" x1="103.923" id="a" gradientTransform="matrix(0.64049694,-0.48444082,0.51570981,0.60166173,-25.979026,120.57848)"/><linearGradient xlink:href="#A" y2="159.55" x2="277.041" y1="175.336" x1="115.685" id="b" gradientTransform="matrix(0.64049694,-0.48444082,0.51570981,0.60166173,-18.907163,124.71882)"/><linearGradient xlink:href="#D" y2="149.872" x2="366.722" y1="165.158" x1="132.242" id="c" gradientTransform="matrix(0.64049694,-0.48444082,0.51570981,0.60166173,-11.835301,128.85915)"/><linearGradient xlink:href="#E" y2="100.217" x2="241.206" y1="153.446" x1="171.992" id="d"/><linearGradient xlink:href="#E" y2="135.838" x2="218.656" y1="138.31" x1="146.991" id="e" gradientTransform="matrix(0.64049694,-0.48444082,0.51570981,0.60166173,8.475746,140.79351)"/><linearGradient xlink:href="#E" y2="198.542" x2="167.066" y1="198.133" x1="151.632" id="f"/><linearGradient xlink:href="#A" y2="213.358" x2="174.771" y1="209.07" x1="134.774" id="g"/><linearGradient xlink:href="#A" y2="181.611" x2="181.329" y1="155.037" x1="153.38" id="h"/><linearGradient xlink:href="#A" y2="274.44" x2="243.52" y1="367.84" x1="263.61" id="i"/><linearGradient xlink:href="#A" y2="376.468" x2="229.175" y1="324.606" x1="295.692" id="j"/><path id="k" d="M75.879 168.367l6.732-13.773 22.164 10.834-6.732 13.773z"/><path id="l" d="M450.65 99.23h13.75v2.38h-13.75z"/><path id="m" d="M249.25 246.71h-37.23v-35.47h37.23zm-33.48-3.75h29.73v-28h-29.73z"/><path id="n" d="M87.414 161.871l11.957-9.658 15.542 19.243-11.957 9.658z"/><path id="o" d="M98.68 152.43l11.941-9.614 15.472 19.215-11.941 9.614z"/><path id="p" d="M291.25 362.2c-.23 6-4.85 28.05-5 34.06 0 2 .53 5.07-.11 7-1.32 4.09-6 3.53-6.61 1.12l-.23-1.2c-2.17-11.68 1.32-24.93 0-40.18-.79-9.31-4.47-27.26-6.88-27.38-1.27 0-30.26 61.52-32.78 65.31-1.24 1.91-4.73 1.61-6.42 3.15s14.08-46.64 20.69-72.1a81.06 81.06 0 0 0 3-16.11c.18-3.15-.83-4.21 2.06-5.14 2-.64 4.77-.46 6.91-.61 2.33-.18 24-.22 24 1.32-.21 8.36 1.93 36.9 1.37 50.76z"/><linearGradient xlink:href="#A" id="q" gradientTransform="matrix(0.36112137,-0.69397807,0.73877198,0.33922552,-52.15314,181.78746)"/><linearGradient xlink:href="#D" id="r" gradientTransform="matrix(0.36112137,-0.69397807,0.73877198,0.33922552,-12.55071,178.04108)"/><linearGradient xlink:href="#E" id="s" gradientTransform="matrix(0.36112137,-0.69397807,0.73877198,0.33922552,12.233701,175.76235)"/><linearGradient xlink:href="#E" id="t" x1="442.96" y1="100.87" x2="543.64" y2="97.74"/><linearGradient xlink:href="#E" id="u" x1="442.96" y1="100.88" x2="543.64" y2="97.75"/><linearGradient xlink:href="#E" id="v" x1="442.96" y1="100.87" x2="543.64" y2="97.75"/><path id="w" d="M262.981 304.105h38.254v29.678h-38.254z"/><path id="x" d="M256.024 245.028h3.314v3.267h-3.314z"/><path id="y" d="M159.246 180.212v45.652h-8.494v-45.652a4.21 3.955 0 0 1 2.837-3.739v-4.557a1.513 1.421 0 1 1 3.026 0v4.635a4.235 3.978 0 0 1 2.631 3.661z"/></defs><g class="I"><path opacity=".24" d="M148.885 79.353c-37.251 29.392-43.023 84.97-68.252 125.971-8.782 14.267-20.13 27.036-26.051 42.863-13.593 36.228 5.115 77.322 30.154 106.096 11.94 13.726 25.886 26.302 42.76 32.088 12.976 4.449 26.89 4.635 40.548 4.751l239.292 2.317c26.717.255 56.402-.664 75.611-20.084 13.239-13.371 18.617-32.899 23.181-51.538 5.608-22.903 10.69-47.776 1.965-69.59-9.966-24.958-35.17-39.101-50.827-60.637-25.409-34.892-24.826-87.665-57.183-115.52-15.106-13-35.039-18.099-54.462-20.648-36.617-4.812-71.303 4.272-107.262 3.005-30.738-1.081-63.976.803-89.476 20.926z"/><path opacity=".35" d="M172.946 346.266c-18.222 1.707-37.004 3.584-53.039 11.934-2.146 1.12-4.325 2.441-5.509 4.457-2.376 4.055.321 9.401 4.506 11.842s9.35 2.719 14.275 2.92c87.708 3.561 175.547 2.163 263.328.772 25.492-.402 51.386-.865 75.817-7.763 4.391-1.236 9.218-3.09 10.871-7.13 2.163-5.284-2.771-11.139-8.527-12.784s-11.899-.417-17.852.301c-20.673 2.495-41.527-1.321-62.109-4.372-40.293-5.963-82.099-10.814-122.911-11.718-13.913-.301-25.796 4.194-39.413 5.971-19.661 2.58-39.668 3.715-59.437 5.569z"/></g><path fill="#fff" d="M101.869 186.739l45.434-87.042 27.06 12.463-45.434 87.042z"/><use xlink:href="#k" transform="matrix(.82231 0 0 .772451 50.00238 54.000967)" class="I"/><path fill="url(#q)" d="M112.398 184.056l5.536-10.639 18.226 8.369-5.536 10.639z"/><use xlink:href="#k" x="6.733" y="-13.665" transform="matrix(.82231 0 0 .772451 50.00238 54.000967)" class="I"/><path fill="url(#B)" d="M117.935 173.501l5.536-10.639 18.226 8.369-5.536 10.639z"/><use xlink:href="#k" x="13.457" y="-27.334" transform="matrix(.82231 0 0 .772451 50.00238 54.000967)" class="I"/><path fill="url(#C)" d="M123.464 162.942L129 152.303l18.226 8.369-5.536 10.639z"/><use xlink:href="#k" x="20.201" y="-40.99" transform="matrix(.82231 0 0 .772451 50.00238 54.000967)" class="I"/><path fill="url(#r)" d="M129.009 152.394l5.536-10.639 18.226 8.369-5.536 10.639z"/><g transform="matrix(.82231 0 0 .772451 50.00238 54.000967)" class="I"><use xlink:href="#k" x="26.929" y="-54.668"/><use xlink:href="#k" x="33.662" y="-68.323"/><use xlink:href="#k" x="40.387" y="-81.993"/></g><path fill="url(#s)" d="M139.456 132.604l5.536-10.639 18.226 8.369-5.536 10.639z"/><path fill="url(#F)" d="M144.997 122.041l5.536-10.639 18.226 8.369-5.536 10.639z"/><use xlink:href="#w" class="I"/><use xlink:href="#w" fill="#999"/><rect rx="7.705" height="131.123" width="202.987" y="177.609" x="181.309" class="J"/><path fill="url(#G)" d="M378.153 189.149v108.313a7.203 6.767 0 0 1-7.195 6.79H193.734a7.212 6.774 0 0 1-7.195-6.79V189.149a7.212 6.774 0 0 1 7.195-6.79h177.224a7.203 6.767 0 0 1 7.195 6.79z" class="H"/><path d="M245.013 330.785h80.858v7.894h-80.858z" class="J"/><path fill="url(#H)" d="M263.022 326.699h38.254v4.187h-38.254z"/><path fill="#fff" d="M323.864 121.675v-7.547h-5.337a22.737 21.358 0 0 0-3.371-7.392l4.112-3.862-5.649-5.361-4.112 3.8a23.082 21.683 0 0 0-9.045-3.715v-5.307h-8.026v5.191a21.75 20.431 0 0 0-9.045 3.221l-3.289-3.221-5.806 5.253 3.215 3.128a22.498 21.134 0 0 0-4.112 8.265h-5.756v7.547h5.559a22.696 21.32 0 0 0 4.046 9.687l-3.462 3.19 5.682 5.407 3.487-3.252a22.564 21.196 0 0 0 9.547 3.515v4.781h8.026v-4.897a23.025 21.629 0 0 0 8.527-3.368l4.169 4.063 5.806-5.253-4.235-4.117a22.498 21.134 0 0 0 4.112-9.717zm-27.885 9.949c-7.48-.008-13.536-5.712-13.527-12.738s6.08-12.715 13.56-12.707 13.536 5.712 13.527 12.738a13.519 12.699 0 0 1-13.56 12.707z"/><path fill="#2a7fff" d="M353.295 131.771l.362-4.465-3.166-.216a13.247 12.444 0 0 0-1.645-4.519l2.631-2.109-3.092-3.406-2.607 2.078a13.552 12.73 0 0 0-5.148-2.572l.255-3.144-4.745-.332-.247 3.09a12.992 12.205 0 0 0-5.485 1.545l-1.784-2.039-3.684 2.858 1.752 1.985a13.437 12.622 0 0 0-2.804 4.72l-3.396-.239-.354 4.457 3.199.232a13.412 12.599 0 0 0 1.932 5.894l-2.196 1.746 3.1 3.407 2.22-1.777a13.379 12.568 0 0 0 5.477 2.48l-.23 2.827 4.745.332.238-2.897a13.683 12.854 0 0 0 5.197-1.63l2.27 2.572 3.684-2.858-2.311-2.619a13.289 12.483 0 0 0 2.87-5.569zm-16.956 4.696c-4.417-.319-7.725-3.94-7.388-8.09s4.19-7.259 8.608-6.944 7.73 3.932 7.397 8.082a8.009 7.524 0 0 1-8.618 6.952z"/><path d="M414.286 168.81v178.436a7.162 6.728 0 0 1-7.138 6.705h-.822a7.138 6.705 0 0 1-7.105-6.705V168.81l7.162-17.689z" opacity=".984" class="I"/><path fill="url(#I)" d="M406.153 168.795h8.116v170.874h-8.116z"/><path fill="url(#J)" d="M414.343 169.073l-15.13-.263 7.162-17.697 2.747 6.18z" class="H"/><path fill="url(#K)" d="M409.121 157.293h-5.246l2.5-6.18z"/><path fill="url(#L)" d="M398.875 336.811h15.435v6.126h-15.435z"/><path fill="url(#M)" d="M414.286 341.731v5.538a7.162 6.728 0 0 1-7.138 6.705h-.822a7.138 6.705 0 0 1-7.105-6.705v-5.538z"/><path fill="#1ca8ff" d="M420.502 127.415h40.573v227.054h-40.573z"/><path fill="url(#N)" d="M420.502 127.005h21.306v227.464h-21.306z"/><g transform="matrix(.82231 0 0 .772451 50.00238 54.000967)"><use xlink:href="#l" fill="url(#t)" class="H"/><use xlink:href="#l" y="7.27" fill="url(#t)" class="H"/><use xlink:href="#l" y="14.53" fill="url(#u)" class="H"/><use xlink:href="#l" y="21.8" fill="url(#u)" class="H"/><use xlink:href="#l" y="29.07" fill="url(#u)" class="H"/><use xlink:href="#l" y="36.34" fill="url(#v)" class="H"/><use xlink:href="#l" y="43.61" fill="url(#v)" class="H"/><use xlink:href="#l" y="50.88" fill="url(#v)" class="H"/><use xlink:href="#l" y="58.15" fill="url(#v)" class="H"/><use xlink:href="#l" y="65.42" fill="url(#t)" class="H"/><use xlink:href="#l" y="72.69" fill="url(#t)" class="H"/><use xlink:href="#l" y="79.96" fill="url(#t)" class="H"/><use xlink:href="#l" y="87.23" fill="url(#t)" class="H"/><use xlink:href="#l" y="94.5" fill="url(#t)" class="H"/><use xlink:href="#l" y="101.77" fill="url(#t)" class="H"/><use xlink:href="#l" y="109.04" fill="url(#t)" class="H"/><use xlink:href="#l" y="116.3" fill="url(#u)" class="H"/><use xlink:href="#l" y="123.57" fill="url(#u)" class="H"/><use xlink:href="#l" y="130.84" fill="url(#v)" class="H"/><use xlink:href="#l" y="138.11" fill="url(#v)" class="H"/><use xlink:href="#l" y="145.38" fill="url(#v)" class="H"/><use xlink:href="#l" y="152.65" fill="url(#v)" class="H"/><use xlink:href="#l" y="159.92" fill="url(#v)" class="H"/><use xlink:href="#l" y="167.19" fill="url(#t)" class="H"/><use xlink:href="#l" y="174.46" fill="url(#t)" class="H"/><use xlink:href="#l" y="181.73" fill="url(#t)" class="H"/><use xlink:href="#l" y="189" fill="url(#t)" class="H"/><use xlink:href="#l" y="196.27" fill="url(#t)" class="H"/><use xlink:href="#l" y="203.54" fill="url(#t)" class="H"/><use xlink:href="#l" y="210.81" fill="url(#t)" class="H"/><g fill="url(#O)"><use xlink:href="#l" y="218.07" fill="url(#u)" class="H"/><use xlink:href="#l" y="225.34" class="H"/></g><g fill="url(#P)"><use xlink:href="#l" y="232.61" fill="url(#v)" class="H"/><use xlink:href="#l" y="239.88" fill="url(#v)" class="H"/><use xlink:href="#l" y="247.15" fill="url(#v)" class="H"/><use xlink:href="#l" y="254.42" fill="url(#v)" class="H"/><use xlink:href="#l" y="261.69" class="H"/></g><use xlink:href="#l" y="268.96" fill="url(#t)" class="H"/><use xlink:href="#l" y="276.23" fill="url(#t)" class="H"/><use xlink:href="#l" y="283.5" fill="url(#t)" class="H"/></g><path fill="url(#Q)" d="M378.153 189.149v2.379H186.555v-2.379a7.212 6.774 0 0 1 7.195-6.79h177.208a7.203 6.767 0 0 1 7.195 6.79z"/><path fill="url(#R)" d="M190.527 202.968h18.255v83.718h-18.255z"/><path fill="url(#S)" d="M236.321 208.545h86.943v77.322h-86.943z"/><use xlink:href="#x" fill="#ccc"/><use xlink:href="#x" y="-15.379" fill="url(#T)"/><use xlink:href="#x" x="-37.012" fill="#e6e6e6"/><use xlink:href="#x" x="-37.012" y="-15.379" fill="#f9f9f9"/><use xlink:href="#x" y="-32.265" fill="url(#U)"/><use xlink:href="#x" x="-36.075" y="-32.265" fill="#fff"/><use xlink:href="#x" x="-17.737" y="-32.265" fill="url(#V)"/><use xlink:href="#x" x="-17.737" y="0.27" fill="#e6e6e6"/><g transform="matrix(.82231 0 0 .772451 50.00238 54.000967)"><use xlink:href="#m" class="I"/><use xlink:href="#m" fill="#0055d4"/></g><path fill="url(#W)" d="M332.573 230.786h39.125v21.498h-39.125z"/><path fill="url(#X)" d="M332.121 259.365h39.125v36.753h-39.125z"/><path fill="url(#Y)" d="M190.198 202.759h18.691v4.596h-18.691z" class="H"/><path fill="#fff" d="M110.617 177.331l80.461-60.705 18.872 22.073-80.461 60.705z"/><use xlink:href="#n" transform="matrix(.82231 0 0 .772451 50.00238 54.000967)" class="I"/><path fill="url(#Z)" d="M121.884 179.038l9.833-7.46 12.78 14.864-9.833 7.46z"/><use xlink:href="#o" transform="matrix(.82231 0 0 .772451 50.00238 54.000967)" class="I"/><path fill="url(#a)" d="M131.148 171.746l9.819-7.426 12.723 14.843-9.819 7.426z"/><use xlink:href="#o" x="11.899" y="-9.518" transform="matrix(.82231 0 0 .772451 50.00238 54.000967)" class="I"/><path fill="url(#b)" d="M140.932 164.393l9.819-7.426 12.723 14.843-9.819 7.426z"/><use xlink:href="#o" x="23.789" y="-19.03" transform="matrix(.82231 0 0 .772451 50.00238 54.000967)" class="I"/><path fill="url(#c)" d="M150.71 157.046l9.819-7.426 12.723 14.843-9.819 7.426z"/><g transform="matrix(.82231 0 0 .772451 50.00238 54.000967)" class="I"><use xlink:href="#n" x="47.515" y="-38.242"/><use xlink:href="#n" x="59.478" y="-47.985"/><use xlink:href="#o" x="59.473" y="-47.59"/></g><path fill="url(#d)" d="M191.612 150.804L183.208 157l-12.721-14.846 8.404-6.195z"/><path fill="url(#e)" d="M178.893 135.942l9.819-7.426 12.723 14.843-9.819 7.426z"/><use xlink:href="#y" class="I"/><use xlink:href="#y" fill="url(#f)" opacity=".941"/><g transform="matrix(.82231 0 0 .772451 50.00238 54.000967)" class="I"><rect rx="2.25" height="4.49" width="23.53" y="201.3" x="115.91"/><path d="M127.9 241.13h0c-4.09 0-7.49-6.13-7.49-10.22v-27.09h14.8v27.09c0 4.09-3.23 10.22-7.31 10.22z"/></g><rect fill="url(#g)" rx="1.85" height="3.468" width="19.349" y="209.495" x="145.316"/><path fill="url(#h)" d="M155.176 240.262h0c-3.363 0-6.159-4.735-6.159-7.894v-19.466h12.17v19.466c0 3.159-2.656 7.894-6.011 7.894z"/><path fill="#28353d" d="M233.731 262.416c-.312-1.506-.51-3.638.09-3.785 1.266-.324-.09 3.785-.09 3.785z"/><g transform="matrix(.82231 0 0 .772451 50.00238 54.000967)"><use xlink:href="#p" fill="#606161"/><use xlink:href="#p" fill="url(#i)"/></g><path d="M268.613 234.917c-.148-1.452-.872-2.24-1.579-2.24s-1.143.772-.995 2.24a2.36 2.217 0 0 0 2.039 2.132c.715 0 .691-.68.534-2.132zm13.124.085c.099-1.452.822-2.24 1.571-2.24s1.233.772 1.118 2.24a2.294 2.155 0 0 1-2.056 2.124c-.74 0-.748-.672-.633-2.124z" fill="#ffcd9c"/><path d="M282.757 241.166c-.099.772-3.495 4.156-7.36 4.156s-7.055-3.09-7.73-4.326 2.039-17.133 3.61-18.462 7.935-.456 8.47.247c1.283 1.661 3.429 15.302 3.01 18.384z" class="K"/><path d="M281.195 229.432c-.559.247-2.755-4.905-3.215-5.77s-.386-1.753.173-2.001 1.381.263 1.842 1.12 1.752 6.411 1.201 6.651zm-11.833-.386c-.584-.178.962-5.407 1.299-6.311s1.094-1.499 1.645-1.321.781 1.058.444 1.97-2.837 5.84-3.388 5.662z" fill="#ffcd9c"/><g class="K"><path d="M271.146 240.803h8.725l1.307 7.238c-4.753 2.24-7.524 1.993-11.233-.494z"/><path d="M274.6 242.178c0-.147.312-.27.691-.27s.691.124.691.27-.304.17-.691.17-.691-.015-.691-.17z"/></g><path d="M283.899 238.532c.326-1.777.86-14.499-.447-16.183s-9.133-2.773-10.319-2.51c-2.657.587-2.193 2.317-2.193 2.317a4.575 4.109 0 0 0-2.244.564c-.912.556-2.83 8.574-1.298 14.638.688 2.727 3.397 5.098 8.075 5.214 5.762.139 8.032-1.838 8.428-4.04z" class="J"/><path fill="#2a7fff" d="M259.379 246.92a8.174 7.678 0 0 0-3.799 1.228c-1.949 1.437-2.097 4.117-2.064 6.45a58.03 54.512 0 0 0 .715 9.656c.584 2.928 1.645 5.739 2.516 8.605a59.321 55.725 0 0 1 2.146 14.314c0 2.657-.049 5.577 1.719 7.655 1.932 2.256 5.353 2.696 8.429 2.858a140.15 140.15 0 0 0 13.116.1c2.927-.124 6.044-.394 8.363-2.078 1.85-1.344 6.184-46.818 2.821-47.969s-6.981-1.444-10.55-1.723c-8.001-.633-15.533-1.136-23.411.904z"/><path fill="url(#j)" d="M283.719 341.553c-.428 5.168-1.447 23.946-1.447 23.946l-2.599-.085c-1.784-9.022 1.085-19.257 0-31.037-.65-7.192-3.676-21.057-5.657-21.15.592-4.635 3.922-3.94 3.922-3.94a72.133 67.759 0 0 1 6.241 10.76c1.982 4.882-.025 16.314-.46 21.505z"/><path d="M234.751 365.499a2.607 2.449 0 0 0-.888 1.128 1.867 1.753 0 0 0 .107 1.105 3.388 3.182 0 0 0 2.36 1.723 9.933 9.331 0 0 0 3.084.1l3.289-.209a9.087 8.536 0 0 0 2.467-.378 3.034 2.85 0 0 0 1.826-1.483 4.243 3.986 0 0 0 .222-1.63c0-2.557-.954-4.635-3.931-4.009a19.596 18.407 0 0 0-8.536 3.654zm54.618 1.012a2.302 2.163 0 0 1 .781.996 1.645 1.545 0 0 1-.09.966 2.944 2.765 0 0 1-2.072 1.506 8.519 8.003 0 0 1-2.705.093l-2.862-.185a7.911 7.431 0 0 1-2.146-.324 2.648 2.487 0 0 1-1.595-1.305 3.774 3.546 0 0 1-.197-1.429c0-2.24.822-4.086 3.445-3.515a17.112 16.075 0 0 1 7.442 3.198z"/><path d="M293.34 247.724s12.54 7.107 16.306 16.09-12.335 30.635-12.335 30.635l-3.445-3.406s8.404-16.337 7.105-20.424-6.389-7.894-6.389-7.894zm-36.872 14.182s-17.828 7.493-25.072 3.816.214-22.146.214-22.146l4.852 1.545s-4.054 9.416.584 10.814 18.535-7.786 18.535-7.786z" fill="#59f"/><path d="M290.035 293.592a3.651 3.43 0 0 0-1.176 1.275 3.289 3.09 0 0 0-.173 1.352 3.939 3.7 0 0 0 1.365 2.897 4.638 4.357 0 0 0 2.056.572 3.865 3.631 0 0 0 1.34 0 1.357 1.275 0 0 0 1.003-.772 3.289 3.09 0 0 0 .074-.772c.058-1.275 1.011-2.317 1.801-3.36a1.455 1.367 0 0 0 .354-.718 1.406 1.321 0 0 0-.312-.811c-.534-.726-1.858-2.062-2.919-1.947s-2.59 1.653-3.413 2.286zm-50.621-52.372a2.804 2.634 0 0 0 .444-1.012.954.896 0 0 0-.502-.919c-.567-.209-1.242.34-1.801.108a1.258 1.182 0 0 1-.46-.417 6.217 5.84 0 0 1-1.094-3.043 6.578 6.18 0 0 0-.164-1.73 1.307 1.228 0 0 0-1.398-.904c-.526.116-.822.618-1.151 1.02s-.987.881-1.414 1.383a7.277 6.836 0 0 0-1.209 3.468c-.23 1.545-.378 3.314.773 4.426.888.857 3.593 1.869 4.835 1.414 1.373-.51 2.45-2.68 3.141-3.793z" class="K"/></svg>