<svg xmlns="http://www.w3.org/2000/svg" xmlns:v="https://vecta.io/nano" xmlns:xlink="http://www.w3.org/1999/xlink" width="1566.954" height="1058.268" fill="none"><style>.B{fill:#000}.C{fill:#4d61fc}.D{opacity:.3}.E{fill:#fff}.F{opacity:.2}.G{fill:#dadddf}.H{fill:#fc9d9d}.I{opacity:.15}.J{stroke-miterlimit:10}.K{stroke:#000}.L{fill:#f4f4f4}.M{fill:#b2b6bb}.N{fill:#21252b}.O{stroke-linecap:round}.P{stroke-width:.962}</style><path d="M1504.368 1039.37H73.155a2.01 2.01 0 0 1-1.162-.7c-.295-.36-.457-.812-.457-1.277a2.02 2.02 0 0 1 1.62-1.977h1431.213a1.98 1.98 0 0 1 1.621 1.977c0 .465-.158.917-.461 1.277a1.98 1.98 0 0 1-1.16.7z" class="M"/><path d="M321.628 199.806a166.77 166.77 0 0 0-12.362 51.316h-.659l-44.439-.936h-.567v-1.318l.448-3.493a125.31 125.31 0 0 1 3.4-17.927c2.571-9.663 6.181-19.02 10.767-27.905a1.03 1.03 0 0 1 .449-.514c.203-.115.44-.157.671-.119l41.526.87zm-3.796 115.153h-.725l-41.223-.857a.95.95 0 0 1-1.002-.672 128.01 128.01 0 0 1-9.752-31.952 129.17 129.17 0 0 1-1.726-16.108 4.44 4.44 0 0 0-.105-.54v-1.318h.685l44.188.923c.817 0 .778 0 .817.844l.646 11.02c.463 5.822 1.276 11.61 2.438 17.334a157.73 157.73 0 0 0 5.548 20.669c.132.185.132.395.211.659zm176.161 16.991l-.369.62a125.23 125.23 0 0 1-12.217 15.159c-5.37 5.821-11.318 11.082-17.752 15.699a125.08 125.08 0 0 1-41.25 19.614 129.97 129.97 0 0 1-17.554 3.335l-1.726.264h-1.015l-.949-.646 1.12-.765a134.51 134.51 0 0 0 33.764-31.399c5.29-6.965 9.968-14.375 13.983-22.145a.97.97 0 0 1 .415-.504.98.98 0 0 1 .639-.129l42.172.896zm-40.367-77.836l-58.922-1.226 1.081-51.501a6.02 6.02 0 0 1 .685 0l45.322.936a.85.85 0 0 1 .569.141.84.84 0 0 1 .34.478 143.44 143.44 0 0 1 8.751 30.384 152.37 152.37 0 0 1 1.924 16.385l.25 4.403zm-.633 13.747l-.25 3.625-1.041 8.581c-.633 3.954-1.318 7.909-2.188 11.758a141.3 141.3 0 0 1-8.171 25.045.97.97 0 0 1-.403.581.98.98 0 0 1-.691.157l-46.389-.989h-.843l1.054-49.906zm-70.506-66.449l-1.081 51.58-57.538-1.213.343-3.849 1.16-8.621c.791-4.363 1.634-8.713 2.636-13.023a135.94 135.94 0 0 1 8.843-25.216.91.91 0 0 1 1.002-.606l43.872.936zm-1.305 65.618l-1.028 48.495v.738h-.778l-45.203-.936a.94.94 0 0 1-.63-.163.93.93 0 0 1-.372-.535c-3.324-8.443-5.766-17.207-7.288-26.152-.764-4.6-1.318-9.227-1.805-13.88-.329-3.019-.343-6.09-.488-9.135v-.316a5.71 5.71 0 0 1 .672 0l56.181 1.16c.567-.013.751.119.738.725zM516.12 255.8l-48.287-1.015a168.41 168.41 0 0 0-10.174-52.133h.751l44.254.91a1.01 1.01 0 0 1 .634.15c.188.12.332.299.407.509a127.24 127.24 0 0 1 10.411 32.532 140.18 140.18 0 0 1 1.964 18.164c.066.277.039.554.039.883zm-.238 12.984l-.237 3.374a123.86 123.86 0 0 1-11.334 41.786l-2.135 4.429a.7.7 0 0 1-.286.347c-.13.081-.286.117-.439.101l-44.373-.949h-.474l1.674-4.521a154.72 154.72 0 0 0 6.471-23.397 152.82 152.82 0 0 0 2.438-17.479l.316-4.139c0-.382.132-.554.527-.514a2.43 2.43 0 0 0 .435 0zm-20.216-78.485l-.105.185h-.606l-42.238-.87c-.212.021-.424-.029-.605-.141s-.32-.279-.397-.478a144.88 144.88 0 0 0-20.322-31.517c-4.785-5.538-10.079-10.613-15.815-15.159-2.833-2.28-5.772-4.416-8.672-6.591l-.488-.382.593-.382c-.066-.277-.145-.554-.25-.923a126.34 126.34 0 0 1 50.585 18.434c15.341 9.708 28.411 22.609 38.319 37.825zM370.468 385.388a5.57 5.57 0 0 1-1.226.171 116.3 116.3 0 0 1-13.719-2.966 124.15 124.15 0 0 1-48.959-26.535 120.06 120.06 0 0 1-14.721-15.33 130.83 130.83 0 0 1-9.093-13.182l-.185-.409h.698l39.325.804a.97.97 0 0 1 .598.165.98.98 0 0 1 .377.494 151.74 151.74 0 0 0 13.956 23.898 149.23 149.23 0 0 0 16.553 19.113 130.36 130.36 0 0 0 16.025 13.445 2.82 2.82 0 0 1 .369.33zm4.718-250.78l-6.049 4.258a147.07 147.07 0 0 0-19.425 17.334c-8.055 8.441-14.979 17.891-20.598 28.116-.343.646-.672 1.318-1.054 1.938-.074.1-.166.185-.273.248a.9.9 0 0 1-.347.121h-2.148l-38.442-.804c22.048-29.79 51.199-47.375 87.915-52.16l-.264.488zm59.252 196.13a138.09 138.09 0 0 1-20.005 25.928c-6.783 7.028-14.379 13.224-22.628 18.454l.949-45.2zm-54.639-1.134l-.936 44.33a128.3 128.3 0 0 1-39.062-45.16zm56.299-140.752l-40.024-.83.883-42.181a122.19 122.19 0 0 1 22.061 19.272 142.07 142.07 0 0 1 17.08 23.74zm-52.451-42.023l-.87 41.258-38.429-.751c9.743-16.398 23.205-30.274 39.299-40.507z" class="G"/><path d="M1368.733 608.857c24.012-28.604 19.333-66.369 4.099-85.68l-30.061 2.636c12.836 9.398 18.608 34.76 8.843 47.309s-32.538 18.454-44.808 8.265c-9.634-7.909-16.566-30.41-28.993-29.118-1.634-26.666-26.845-49.642-53.545-48.772-3.242-6.795-7.973-12.769-13.838-17.475a49.91 49.91 0 0 0-20.071-9.702 49.84 49.84 0 0 0-22.285.008 49.87 49.87 0 0 0-20.058 9.716l-1.318 100.694s17.804 28.828 52.451 25.137c9.12-.975 16.895-3.045 22.997-8.252.87 1.106 1.937 2.037 3.15 2.742 4.758 2.742 10.886 2.135 15.814-.343a31.43 31.43 0 0 0 1.832-1.055c9.897 15.343 30.311 29.342 46.785 33.099 23.998 5.431 63.205-10.374 79.007-29.21z" class="E"/><path d="M1275.295 562.142a1.28 1.28 0 0 1 0-.448l.25-1.318.356-2.096.329-2.874a47.3 47.3 0 0 0-2.043-18.204c-1.265-4.057-3.084-7.917-5.416-11.468-2.636-4.09-5.957-7.697-9.818-10.664a46.92 46.92 0 0 0-31.181-9.741c-1.621 0-3.202.303-4.692.501h-.29l-.092-.264c-3.506-10.093-10.411-18.659-19.518-24.241a48.33 48.33 0 0 0-6.326-3.216c-2.069-.825-4.191-1.52-6.352-2.083a47.85 47.85 0 0 0-11.861-1.714c-5.785-.157-11.545.982-16.829 3.335-.83.345-1.647.742-2.438 1.186a16.7 16.7 0 0 0-1.726.962l-1.054.62a1.72 1.72 0 0 1-.369.198s.105-.092.329-.25l1.015-.685a17.97 17.97 0 0 1 1.713-1.028 25.91 25.91 0 0 1 2.425-1.239 38.25 38.25 0 0 1 16.948-3.572c4.046.045 8.065.598 11.966 1.648a55.18 55.18 0 0 1 6.431 2.07 48.16 48.16 0 0 1 6.418 3.243 46.72 46.72 0 0 1 19.86 24.544l-.382-.224a46.96 46.96 0 0 1 19.175.907 47 47 0 0 1 17.198 8.505c3.901 3.028 7.248 6.702 9.91 10.862a45.6 45.6 0 0 1 5.39 11.626 46.61 46.61 0 0 1 1.845 18.375c-.079 1.094-.264 2.056-.395 2.887a18.68 18.68 0 0 1-.422 2.083l-.316 1.318c0 .154-.013.31-.04.461zm16.79 3.228c-.132 0-.303-1.147-1.081-2.834-.461-.978-1.028-1.902-1.7-2.755a15.87 15.87 0 0 0-2.82-2.781c-1.067-.784-2.214-1.439-3.44-1.951a14.1 14.1 0 0 0-3.123-.857c-1.832-.29-3.005-.145-3.018-.277a2.35 2.35 0 0 1 .817-.185 9.55 9.55 0 0 1 2.267 0 12.87 12.87 0 0 1 3.282.751 15.6 15.6 0 0 1 3.637 2.004 16.05 16.05 0 0 1 2.913 2.939c.672.911 1.212 1.903 1.634 2.953a9 9 0 0 1 .593 2.188c.066.501.092.791.04.804zm-4.836 34.339s-.264-.791-.909-2.149a15.96 15.96 0 0 0-3.822-5.035c-2.372-2.146-5.377-3.468-8.553-3.77a15.62 15.62 0 0 0-11.07 3.269l-.422.343-.119-.527c-.382-1.76-.975-3.468-1.766-5.088a24.48 24.48 0 0 0-9.054-10.203 24.23 24.23 0 0 0-10.648-3.506c-2.544-.217-5.1-.058-7.604.475-1.779.409-2.728.765-2.741.699.211-.136.435-.237.672-.303a16.28 16.28 0 0 1 2.003-.646 24.27 24.27 0 0 1 9.594-.509 24.32 24.32 0 0 1 9.054 3.251c4.059 2.51 7.301 6.133 9.344 10.44.804 1.681 1.41 3.45 1.805 5.273l-.54-.198c3.268-2.561 7.406-3.757 11.545-3.335a15.21 15.21 0 0 1 8.803 3.954c1.608 1.474 2.886 3.27 3.743 5.273.237.533.422 1.084.567 1.648a1.79 1.79 0 0 1 .119.646zm95.045-14.961c-.053.351-.145.696-.264 1.028l-.936 2.913a61.29 61.29 0 0 1-4.85 10.123 71.81 71.81 0 0 1-10.24 13.182c-2.293 2.338-4.731 4.54-7.288 6.591a92.09 92.09 0 0 1-8.54 6.209 108.91 108.91 0 0 1-33.922 14.592 63.17 63.17 0 0 1-11.097 1.648h-3.057a6.21 6.21 0 0 1-1.067-.092c.356-.03.712-.03 1.067 0 .698 0 1.726 0 3.031-.132a69.55 69.55 0 0 0 11.017-1.859 112.07 112.07 0 0 0 33.645-14.684 96.21 96.21 0 0 0 8.5-6.169c2.544-2.058 4.968-4.258 7.261-6.591 3.901-3.915 7.341-8.257 10.266-12.944a67.12 67.12 0 0 0 5.021-9.965c.488-1.239.791-2.215 1.054-2.86.105-.337.237-.668.395-.989zm-27.122-24.373a7.9 7.9 0 0 1 0 1.766c-.145 1.594-.435 3.173-.843 4.719-1.384 5.157-4.178 9.828-8.065 13.493-3.875 3.666-8.698 6.181-13.93 7.268a25.02 25.02 0 0 1-4.758.58 7.52 7.52 0 0 1-1.753-.079 58.98 58.98 0 0 0 6.405-.962c5.087-1.19 9.765-3.709 13.574-7.297a29.58 29.58 0 0 0 8.052-13.134 52.16 52.16 0 0 0 1.318-6.354z" class="B" opacity=".04"/><use class="C" xlink:href="#B"/><use class="E" opacity=".6" xlink:href="#B"/><g class="C"><path d="M477.572 235.052h712.22c1.502 0 2.939.596 3.993 1.657 1.068 1.06 1.66 2.498 1.66 3.998v39.136H471.945v-39.136c0-1.495.592-2.929 1.646-3.989a5.66 5.66 0 0 1 3.981-1.666z" opacity=".4"/><use xlink:href="#C"/></g><use class="E" opacity=".8" xlink:href="#C"/><use class="C" xlink:href="#D"/><use class="E" opacity=".6" xlink:href="#D"/><path d="M470.218 235.052h712.22c1.502 0 2.939.596 3.993 1.657 1.068 1.06 1.66 2.498 1.66 3.998v39.136H464.578v-39.136a5.66 5.66 0 0 1 1.651-3.994c1.057-1.06 2.492-1.657 3.989-1.661z" class="C"/><g class="E"><use xlink:href="#E"/><use x="20.321" xlink:href="#E"/><use x="40.63" xlink:href="#E"/><path d="M1060.416 451.56H592.359c-9.804 0-17.752 7.95-17.752 17.756v1.872c0 9.807 7.948 17.756 17.752 17.756h468.057c9.805 0 17.752-7.949 17.752-17.756v-1.872c0-9.806-7.947-17.756-17.752-17.756z"/></g><path d="M1060.416 451.56h-38.917v37.37h38.917c4.705 0 9.225-1.87 12.546-5.2a17.74 17.74 0 0 0 5.206-12.555v-1.859c0-4.708-1.871-9.224-5.206-12.555-3.321-3.33-7.841-5.2-12.546-5.2z" class="C"/><path d="M1035.995 480.111a.93.93 0 0 1-.185-.315c-.04-.116-.055-.24-.047-.364a.91.91 0 0 1 .097-.352.93.93 0 0 1 .227-.287l7.393-6.709c.083-.078.18-.138.289-.177s.221-.055.335-.047.225.038.327.091a.83.83 0 0 1 .262.212l.936 1.12a.92.92 0 0 1 .187.314.93.93 0 0 1 .051.362.98.98 0 0 1-.094.353.93.93 0 0 1-.224.289l-7.446 6.683a.83.83 0 0 1-.626.212.86.86 0 0 1-.324-.092.85.85 0 0 1-.262-.212zm16.263-21.154a8.31 8.31 0 0 1 2.636.448 8.21 8.21 0 0 1 4.362 3.571 8.32 8.32 0 0 1 1.054 5.544c-.316 1.914-1.305 3.654-2.768 4.917a8.27 8.27 0 0 1-5.285 1.984c-.897-.008-1.787-.159-2.636-.448a8.23 8.23 0 0 1-4.412-3.559 8.22 8.22 0 0 1-1.063-5.568c.317-1.923 1.306-3.672 2.791-4.934a8.22 8.22 0 0 1 5.32-1.955zm0 2.228c-1.415.008-2.781.515-3.859 1.433a6.01 6.01 0 0 0-1.282 7.628 6.02 6.02 0 0 0 3.177 2.618 6.37 6.37 0 0 0 1.964.33c1.252.001 2.465-.388 3.492-1.113a6.03 6.03 0 0 0 2.188-2.934 5.78 5.78 0 0 0 .316-2.321 5.91 5.91 0 0 0-.593-2.266c-.343-.709-.83-1.343-1.41-1.865-.593-.523-1.278-.924-2.03-1.18h0a5.82 5.82 0 0 0-1.964-.33z" class="E"/><g class="M"><use xlink:href="#F"/><use x="10.767" xlink:href="#F"/><use x="21.52" xlink:href="#F"/><use x="32.288" xlink:href="#F"/><use x="43.041" xlink:href="#F"/><use x="53.808" xlink:href="#F"/></g><g class="E"><use xlink:href="#G"/><use xlink:href="#H"/><use x="55.654" xlink:href="#H"/><use x="166.962" xlink:href="#G"/><path d="M905.091 366.922h-.013a12.76 12.76 0 0 0-12.757 12.76v31.372a12.76 12.76 0 0 0 12.757 12.76h.013a12.76 12.76 0 0 0 12.757-12.76v-31.372a12.76 12.76 0 0 0-12.757-12.76zm48.722 19.418h-5.008a12.76 12.76 0 0 0-12.757 12.76v11.943a12.76 12.76 0 0 0 12.757 12.76h5.008a12.76 12.76 0 0 0 12.757-12.76V399.1a12.76 12.76 0 0 0-12.757-12.76z"/><use xlink:href="#I"/></g><g class="G"><use xlink:href="#J"/><use y="14.17" xlink:href="#J"/><use y="28.34" xlink:href="#J"/><path d="M903.298 594.491H764.408v4.192h138.891z"/></g><path d="M744.165 543.028h-88.943v64.59h88.943z" class="L"/><path d="M655.221 589.454l26.239-14.96 18.305 10.308 28.796-19.84 15.604 12.59v30.067H655.38zm38.127-33.27a7.69 7.69 0 0 1-1.295 4.271 7.68 7.68 0 0 1-11.825 1.159 7.68 7.68 0 0 1 1.179-11.826 7.68 7.68 0 0 1 4.273-1.289c2.036.004 3.987.815 5.424 2.255a7.69 7.69 0 0 1 2.246 5.43z" class="G"/><use y="93.59" class="E" xlink:href="#I"/><g class="G"><use y="93.589" xlink:href="#J"/><use y="107.76" xlink:href="#J"/><use y="121.93" xlink:href="#J"/><path d="M903.298 688.08H764.408v4.192h138.891z"/></g><path d="M744.165 636.618h-88.943v64.59h88.943z" class="L"/><path d="M715.736 672.691c2.119-8.879-3.358-17.796-12.236-19.916s-17.793 3.359-19.912 12.238 3.358 17.796 12.235 19.917a16.53 16.53 0 0 0 19.913-12.239z" class="G"/><path d="M705.248 668.914l-4.309 2.491-4.323 2.491v-4.983-4.983l4.323 2.491z" class="L"/><use class="C" xlink:href="#K"/><use class="B F" xlink:href="#K"/><path d="M1134.717 884.076l85.438 59.62 76.516-109.697-63.429-44.264-36.584 5.549z" class="G"/><path d="M1233.242 789.735l-36.584 5.549 21.995 15.357z" class="B F"/><path d="M1275.585 846.549l-47.509-33.146-1.964 2.822 47.509 33.145zm-4.968 7.129l-47.496-33.146-1.964 2.822 47.496 33.146zm-4.929 7.104l-47.509-33.146-1.964 2.822 47.496 33.145zm-4.981 7.112l-69.597-48.562-1.964 2.822 69.597 48.561zm-4.969 7.105l-69.597-48.561-1.964 2.821 69.597 48.562zm-4.942 7.096l-69.597-48.561-1.964 2.821 69.597 48.562zm-4.968 7.128l-69.597-48.561-1.977 2.821 69.597 48.562zm-4.942 7.104l-69.597-48.562-1.977 2.822 69.597 48.561zm-4.969 7.098l-69.597-48.562-1.964 2.822 69.597 48.561zm-4.968 7.126l-69.597-48.562-1.964 2.822 69.584 48.562zm-4.955 7.107l-69.597-48.562-1.964 2.822 69.597 48.561zm-4.969 7.104l-69.597-48.561-1.964 2.821 69.597 48.562z" class="F B"/><use class="C" xlink:href="#L"/><path d="M802.072 933.02l-112.349 26.548c-.407.095-.836.025-1.191-.195a1.58 1.58 0 0 1-.706-.978l-34.265-145.13c-.049-.2-.058-.407-.026-.612a1.57 1.57 0 0 1 .212-.573 1.55 1.55 0 0 1 .416-.447 1.54 1.54 0 0 1 .557-.253l84.173-19.891 36.387 21.222 27.965 118.41c.095.407.025.836-.195 1.192s-.572.609-.978.707z" class="G"/><g class="B"><path d="M738.893 791.489l36.387 21.222-28.189 6.657a1.58 1.58 0 0 1-1.191-.195c-.355-.22-.609-.571-.706-.978z" class="F"/><path d="M683.309 940.948l116.343-27.488 4.292 18.179c.076.323.021.663-.153.946s-.455.484-.778.56l-113.907 26.912a1.26 1.26 0 0 1-.488.017c-.162-.026-.318-.084-.459-.171a1.24 1.24 0 0 1-.357-.332c-.096-.134-.165-.285-.203-.446z" opacity=".1"/></g><path d="M731.223 893.607l-5.812-.198-1.516-49.734 5.812.198zm-15.603-5.669l-23.827-10.071 16.381-21.038 4.586 3.572-11.729 15.067 16.856 7.105zm31.247-7.381l-4.428-3.783 11.887-13.908-17.211-8.211 2.504-5.246 24.051 11.48z" class="E"/><use class="C" xlink:href="#K"/><use class="B F" xlink:href="#K"/><use class="C" xlink:href="#L"/><path d="M409.411 962.731l34.976-.105-5.469 50.09h-29.599z" class="H"/><path d="M409.411 1013.02l.105-35.485 33.355-.105-.514 4.258-21.284 3.243a4.22 4.22 0 0 0-2.538 1.318c-.666.722-1.06 1.654-1.112 2.636l-.712 15.409z" class="B I"/><path d="M408.686 1001.564l-.105 2.939a22.41 22.41 0 0 1-1.318 7.303l-3.651 10.242c-1.004 2.9-1.516 5.948-1.516 9.016v.514c.017.5.133.991.341 1.445a3.77 3.77 0 0 0 .874 1.202 3.79 3.79 0 0 0 2.739.991h36.387a3.84 3.84 0 0 0 2.72-1.011c.739-.68 1.182-1.624 1.234-2.627v-1.318a25.97 25.97 0 0 0-1.212-7.817l-3.15-10.44a20.8 20.8 0 0 1-1.015-6.591v-3.849a9.5 9.5 0 0 0-2.636-6.499l-.501-.606a18.05 18.05 0 0 0-25.448-.303l-.909.909a10.18 10.18 0 0 0-2.833 6.499z" class="C"/><path d="M402.097 1028.733h44.188a7.51 7.51 0 0 1 .105 1.529v1.318c-.017.5-.133.991-.341 1.445a3.77 3.77 0 0 1-2.143 1.972c-.47.171-.97.245-1.469.222h-36.387c-1.004.032-1.981-.331-2.72-1.011s-1.182-1.624-1.234-2.627z" class="B" opacity=".6"/><path d="M432.738 1003.187a.99.99 0 0 0-.408-1.226 17.12 17.12 0 0 0-15.103 0c-.216.107-.382.295-.46.523a.91.91 0 0 0 .045.696c.107.216.295.382.523.46s.48.063.696-.045a15.58 15.58 0 0 1 6.695-1.511 15.57 15.57 0 0 1 6.695 1.511c.119.075.257.105.395.092a1.11 1.11 0 0 0 .526-.13 1.09 1.09 0 0 0 .397-.37zm0 4.664c.091-.22.099-.464.024-.689a.99.99 0 0 0-.432-.537 17.12 17.12 0 0 0-15.102 0 .91.91 0 0 0-.286.215c-.08.091-.141.196-.179.311a.88.88 0 0 0-.042.356.92.92 0 0 0 .099.344c.05.108.123.206.212.285a.87.87 0 0 0 .308.178.86.86 0 0 0 .353.038c.12-.012.235-.047.339-.106 2.091-.995 4.379-1.512 6.695-1.512a15.58 15.58 0 0 1 6.695 1.512c.092.106.303.106.395.106a1.11 1.11 0 0 0 .526-.131 1.08 1.08 0 0 0 .397-.37zm0 4.563a.99.99 0 0 0 .024-.689c-.075-.225-.228-.415-.432-.536a17.12 17.12 0 0 0-15.103 0c-.216.107-.382.295-.46.523a.91.91 0 0 0 .045.696c.107.216.295.382.523.46a.91.91 0 0 0 .696-.044 15.58 15.58 0 0 1 13.39 0c.119.075.257.105.395.092a1.11 1.11 0 0 0 .526-.131 1.09 1.09 0 0 0 .397-.37z" class="E"/><path d="M515.869 965.051l34.344-.092.87 19.772c.109 2.548.799 5.038 2.014 7.28s2.923 4.18 4.997 5.664l25.185 17.993-63.126-1.556z" class="H"/><path d="M538.431 1006.152l9.054 3.599-27.53 3.019-3.018-33.468h33.659l.198 3.954-20.137 2.926a4.12 4.12 0 0 0-2.644 1.534 4.13 4.13 0 0 0-.862 2.934v.395a18.01 18.01 0 0 0 3.508 9.145 18.02 18.02 0 0 0 7.773 5.961z" class="B I"/><path d="M519.467 1000.221l13.429 4.178c.962.298 1.983.348 2.969.145s1.906-.651 2.671-1.305l10.543-9.056c1.156-.998 2.623-1.563 4.149-1.599a6.59 6.59 0 0 1 4.22 1.401l23.933 18.586 18.872 6.235c2.714.908 5.073 2.644 6.749 4.964s2.583 5.105 2.595 7.967a3.03 3.03 0 0 1-3.018 3.019h-83.606c-.946 0-1.883-.181-2.758-.541s-1.668-.891-2.338-1.559a7.21 7.21 0 0 1-1.559-2.338 7.18 7.18 0 0 1-.54-2.759v-24.623a2.88 2.88 0 0 1 .318-1.275c.203-.395.496-.737.853-1s.771-.44 1.208-.517.886-.05 1.311.077z" class="C"/><path d="M515.869 1028.719h93.385c.279.981.413 1.998.395 3.019-.004.799-.323 1.565-.888 2.13a3.03 3.03 0 0 1-2.13.888h-83.659c-1.707 0-3.358-.61-4.659-1.716a7.21 7.21 0 0 1-2.445-4.321z" class="B" opacity=".6"/><path d="M557.606 1003.62l5.047-5.444c.141-.141.221-.333.221-.534a.76.76 0 0 0-.221-.534c-.141-.141-.333-.221-.534-.221a.76.76 0 0 0-.534.221l-5.061 5.444a.76.76 0 0 0-.217.534c0 .199.078.392.217.534a.76.76 0 0 0 .488.198 1.32 1.32 0 0 0 .593-.198zm3.954 3.11l5.061-5.444c.141-.141.221-.333.221-.534a.76.76 0 0 0-.221-.534c-.141-.141-.333-.22-.534-.22a.76.76 0 0 0-.534.22l-5.061 5.444c-.14.144-.217.335-.217.534a.76.76 0 0 0 .217.534.69.69 0 0 0 .488.198 1.31 1.31 0 0 0 .58-.198zm4.02 3.138l5.061-5.457a.76.76 0 0 0 .217-.533.77.77 0 0 0-.217-.535.78.78 0 0 0-1.081 0l-5.047 5.444a.78.78 0 0 0-.219.542c0 .202.079.394.219.539a.75.75 0 0 0 .488.186.86.86 0 0 0 .58-.186z" class="E"/><path d="M538.102 618.809l15.696 360.438h-38.363l-33.804-289.692c-.113-.966-.58-1.857-1.309-2.502s-1.671-.998-2.645-.991c-.974.012-1.91.382-2.628 1.043a3.95 3.95 0 0 0-1.26 2.53l-28.545 289.613h-37.876l4.81-350.802z" class="N"/><path d="M426.148 627.377l-10.293 351.87h-8.513l4.81-350.802zm51.595 58.713a3.95 3.95 0 0 1 3.954 3.493l33.738 289.666h10.543l-31.985-285.738c-1.595-11.534-16.249-7.421-16.249-7.421z" class="D B"/><path d="M569.625 392.89l-60.464-47.137 15.498-16.411s76.582 37.713 93.398 63.549l-17.198 12.931zM346.153 595.213l25.461 70.917 18.78-5.259-10.174-71.668z" class="H"/><path d="M462.034 408.787l37.256-.237s22.404-5.694 31.787-6.868l38.548-8.832s35.108 6.999 48.406 0c0 0 7.657 18.797-12.388 28.762l-80.983 40.494 3.519 23.463s12.151 93.286 15.169 172.27c.018.442-.137.871-.434 1.2a1.68 1.68 0 0 1-1.148.554l-131.577 9.768c-.227.016-.453-.013-.669-.087s-.412-.188-.582-.34a1.71 1.71 0 0 1-.405-.539c-.096-.206-.152-.428-.162-.655l-5.641-123.538-18.753-44.567-5.865 55.112 4.692 34.009-39.365 6.947-8.869-36.75c-.669-2.785-.887-5.66-.646-8.515l7.815-94.196s0-23.463 16.421-31.636l57.024-17.874z" class="C"/><g class="B"><path d="M445.244 979.249l.554-6.433h-38.311l-.145 6.433zm69.531-6.433h38.719l.303 6.433h-38.324z" class="D"/><path d="M473.473 349.785c3.564-.435 6.808-2.269 9.02-5.096a13.54 13.54 0 0 0 2.775-9.984c-.435-3.564-2.268-6.81-5.095-9.021s-6.418-3.211-9.982-2.776c-.409 0-1.516-.145-1.318.25 3.914 11.468 1.608 26.864 4.599 26.627z"/></g><path d="M415.184 406.719c0 .685 25.791 17.255 37.349 14.935 5.865-1.173 9.634-12.153 9.502-12.826l-3.163-18.177v-9.425c.54-2.175 3.137-4.231 3.137-7.105.817-13.248 2.319-25.269 2.319-25.269s-43.292-29-46.02 4.785l-1.094 4.917z" class="H"/><path d="M431.789 387.696c3.137 3.164 7.077 5.826 14.787 6.301 5.904 3.493 9.594 3.48 12.994 3.071l-1.002-7.461c-3.69 3.954-19.201 4.983-25.764-2.966-.158-.25-.712-.211-.962 0a1.12 1.12 0 0 0-.053 1.055z" class="B I"/><path d="M467.714 307.486s21.824 78.127-14.497 84.916c-31.445 5.853-37.507-43.407-37.507-43.407l-.132-32.058 23.919-10.967z" class="H"/><g class="B"><path d="M458.766 327.272c-4.099-4.877-10.543-8.186-17.053-7.527-7.341.738-12.849 7.079-11.479 15.607l.29 1.885a3.32 3.32 0 0 1-.579 2.443c-.506.708-1.268 1.189-2.123 1.341h0a6.12 6.12 0 0 0-2.296.703 6.11 6.11 0 0 0-1.849 1.53c-.51.627-.891 1.35-1.12 2.125s-.303 1.587-.217 2.391l.593 5.576c.022.324-.084.645-.297.891s-.513.399-.837.427c0 0-1.608.395-1.99-.936l-1.318-5.932 2.978-34.272 27.438-9.623 12.52 8.977z"/><path d="M416.185 355.98s1.977 6.525 3.519 3.519l-2.346 5.866z" class="I"/></g><path d="M460.176 374.516l-14.839-2.228c.058 1.673.692 3.276 1.794 4.536s2.605 2.102 4.255 2.385c7.077 1.213 8.79-4.693 8.79-4.693z" class="E"/><path d="M443.913 346.833a3 3 0 0 0-1.622.643c-.465.37-.81.87-.991 1.435s-.191 1.174-.026 1.745a3 3 0 0 0 .948 1.466c.455.385 1.012.625 1.603.692a3.01 3.01 0 0 0 1.716-.316c.528-.273.965-.696 1.252-1.217a3.01 3.01 0 0 0 .364-1.707 3 3 0 0 0-3.242-2.742z" class="B"/><path d="M445.525 349.427a.54.54 0 1 0-.087-1.078.54.54 0 1 0 .087 1.078z" class="E"/><path d="M467.503 351.763c1.659 0 3.005-1.346 3.005-3.005s-1.346-3.005-3.005-3.005-3.005 1.345-3.005 3.005 1.346 3.005 3.005 3.005z" class="B"/><path d="M468.717 348.209a.54.54 0 1 0-.088-1.077.54.54 0 1 0 .088 1.077z" class="E"/><g class="B"><path d="M458.225 366.105l-3.809.435c-.223-.01-.439-.084-.619-.216s-.318-.312-.395-.522c.016-.221.094-.434.224-.613s.308-.319.514-.402l3.809-.448c.443-.068.842-.303 1.119-.655s.409-.796.37-1.243c-.224-.949-1.107-1.7-1.911-1.49-.221-.016-.434-.094-.613-.224s-.319-.308-.402-.514c-.171-.395.343-.857.738-1.028a3.61 3.61 0 0 1 3.954 2.979c.074.456.055.921-.055 1.371a3.42 3.42 0 0 1-.59 1.238c-.278.368-.629.676-1.029.906s-.845.374-1.303.427z" opacity=".25"/><path d="M406.855 327.521c.395-8.674 4.362-15.436 11.716-17.677a20.29 20.29 0 0 1 9.568-.369c.286.07.584.079.874.03a2.16 2.16 0 0 0 .813-.319 2.14 2.14 0 0 0 .622-.614c.163-.245.274-.521.327-.811.478-2.888 1.903-5.534 4.05-7.521s4.896-3.206 7.811-3.459a12.75 12.75 0 0 1 10.912 4.469c.188.235.424.426.693.562a2.11 2.11 0 0 0 .862.227c.3.014.601-.037.88-.148s.531-.279.741-.496c0 0 8.144-7.645 20.15-1.503 4.05 2.212 7.136 5.847 8.66 10.204s1.378 9.123-.41 13.378c-3.888 9.504-15.643 13.182-23.564 6.854-3.342-2.822-5.478-6.818-5.97-11.165-.601-2.991-.575-6.075.079-9.056l-3.809.316c-4.507.092-11.65-.158-18.253 1.318.158.119.29.105.435.237l-11.518 4.917s-1.133 31.636-3.057 31.491c-8.395-1.068-13.073-13.023-12.612-20.866z"/><path d="M383.99 477.332c-.142-.003-.279-.055-.386-.149s-.175-.224-.194-.365a48 48 0 0 0-6.028-18.032c-3.191-5.548-7.459-10.402-12.554-14.276a.59.59 0 0 1-.162-.161c-.043-.063-.072-.136-.088-.211s-.016-.153-.001-.228.045-.148.087-.211a.59.59 0 0 1 .161-.162c.063-.043.136-.072.211-.088s.153-.016.228-.001a.59.59 0 0 1 .211.087c5.236 3.966 9.623 8.944 12.903 14.636s5.385 11.983 6.193 18.503c.009.076.003.153-.018.227a.54.54 0 0 1-.104.203.57.57 0 0 1-.174.148c-.067.037-.141.061-.217.069z" opacity=".16"/><path d="M410.162 669.361l15.986-1.12-2.636-40.863-5.272-77.666a48.54 48.54 0 0 0-4.349-15.686l-26.951-57.261-4.692-10.545 1.054 3.691c2.397 8.372 2.874 17.176 1.397 25.757l-.685 3.954 18.753 44.567 5.641 123.538c.007.223.058.443.149.646a1.7 1.7 0 0 0 .386.538 1.67 1.67 0 0 0 1.218.451zM524.66 462.105l81.01-40.454c20.045-9.965 12.388-28.762 12.388-28.762a22.24 22.24 0 0 1-5.456 1.898h0c2.359 15.95-25.501 26.851-25.501 26.851l-67.212 25.203z" class="D"/><path d="M524.66 462.7a.6.6 0 0 1-.351-.12.59.59 0 0 1-.216-.302c0-.211-6.458-21.697-8.751-26.284a.61.61 0 0 1-.088-.231.58.58 0 0 1 .014-.248c.021-.08.059-.156.113-.22a.59.59 0 0 1 .432-.216c.084-.004.167.011.244.041a.59.59 0 0 1 .207.137.6.6 0 0 1 .132.21c2.333 4.679 8.566 25.586 8.83 26.482a.6.6 0 0 1-.051.443c-.073.136-.196.236-.344.282zm-60.161 113.294a.58.58 0 0 1-.358-.12.57.57 0 0 1-.208-.315.59.59 0 0 1 .409-.712c.25-.066 24.473-6.789 35.833-27.681a.6.6 0 0 1 .355-.279c.149-.045.311-.029.449.042a.62.62 0 0 1 .237.804c-11.624 21.367-36.321 28.209-36.571 28.275zm-99.302-20.654a.58.58 0 0 1-.54-.356.61.61 0 0 1 .316-.778c4.257-1.806 12.915-.105 13.284 0 .075.016.146.046.211.09a.6.6 0 0 1 .159.162.61.61 0 0 1 .086.212.58.58 0 0 1-.001.228c-.016.076-.046.148-.09.211a.57.57 0 0 1-.162.161c-.065.042-.136.071-.212.086s-.153.013-.228-.003c-.079 0-8.658-1.7-12.586 0a.5.5 0 0 1-.237-.013z" opacity=".16"/></g><path stroke-width="5.272" d="M451.214 422.97s14.273 37.225 18.16 54.361" class="J K" opacity=".5"/><path d="M453.705 332.53s-3.795 9.978 19.768 6.749l-.527-4.165-8.711-4.93z" class="B" opacity=".1"/><g class="N"><path d="M515.092 668.03c-11.928-4.172-24.825-4.712-37.06-1.553s-23.258 9.877-31.676 19.303a63.91 63.91 0 0 0-15.616 33.651 63.92 63.92 0 0 0 5.705 36.658c5.485 11.386 14.223 20.89 25.107 27.31a63.87 63.87 0 0 0 70.878-3.991c10.095-7.601 17.71-18.026 21.882-29.955a63.92 63.92 0 0 0 3.482-24.692c-.472-8.38-2.588-16.584-6.231-24.145a63.89 63.89 0 0 0-14.995-19.921 63.87 63.87 0 0 0-21.476-12.665zm-38.891 111.24a53.93 53.93 0 0 1-25.283-18.471 53.95 53.95 0 0 1-10.762-29.407 53.94 53.94 0 0 1 7.387-30.432c5.416-9.19 13.436-16.568 23.044-21.199a53.92 53.92 0 0 1 30.937-4.819c10.561 1.488 20.444 6.077 28.399 13.184s13.624 16.414 16.29 26.743a53.95 53.95 0 0 1-1.311 31.289c-4.721 13.503-14.611 24.577-27.495 30.787s-27.706 7.046-41.206 2.325z"/><path d="M354.398 667.819l84.846 29.793-4.642 13.221-84.845-29.793c-.581-.204-1.116-.521-1.575-.931a4.69 4.69 0 0 1-1.098-1.463c-.266-.555-.42-1.157-.455-1.772s.053-1.23.257-1.811l1.535-4.374a4.69 4.69 0 0 1 5.975-2.871z"/></g><path d="M493.993 785.226c31.406 0 56.866-25.466 56.866-56.879s-25.46-56.879-56.866-56.879-56.866 25.466-56.866 56.879 25.46 56.879 56.866 56.879z" class="B D"/><path d="M440.065 728.349l76.687-48.667s19.043 9.333 27.254 28.103l-95.203 49.576s-9.476-14.302-8.738-29.013zm15.986 38.067l91.895-46.07s.672 13.274-2.24 22.633l-75.593 33.982c-.29.264-9.963-5.892-14.062-10.545z" class="D E"/><path d="M506.46 322.037l-5.522-1.569-14.365-4.35-12.638 2.135c-.303.113-.555.335-.705.622a1.31 1.31 0 0 0-.112.933c.369 1.41 1.318 3.48 4.059 2.531l-9.37.699a1.66 1.66 0 0 0-1.45 1.252l-.224.857c-.329 1.318 3.044 2.636 4.454 2.636h.738l-8.316.343a1.46 1.46 0 0 0-.523.301 1.48 1.48 0 0 0-.36.484c-.086.185-.132.384-.136.587a1.48 1.48 0 0 0 .109.593c.435 1.068 1.015 2.333 1.423 2.478s-5.878.791-8.289 1.002a.81.81 0 0 0-.344.108c-.104.062-.194.148-.26.25s-.108.217-.123.339 0 .243.041.357c.514 1.463 2.385 4.02 9.133 3.954 9.423-.105 12.981-1.7 12.981-1.7l7.512 2.004-.369 4.521-10.214-.158.461 5.734c1.502.712 13.179 2.004 13.179 2.004s15.815.237 20.045-1.819 7.367-3.73 7.367-3.73l11.716-15.251z" class="H"/><path stroke-width=".883" d="M485.387 337.288s8.184-4.759 11.69-10.624m-22.853 17.006l14.365.264s6.299-6.92 12.968-5.352m-37.23-5.26s9.845-.198 13.68-2.834c0 0 2.082 2.636 7.38 2.452m-14.101-5.101a57.92 57.92 0 0 0 9.963-1.753 13.87 13.87 0 0 0 8.052 3.256m-13.258-6.552a22.59 22.59 0 0 0 8.869-1.437l6.326 2.926" class="I J K O"/><path d="M389.959 660.345l8.645 14.763 5.403 12.707-8.158-2.03s-3.492 16.688-4.863 17.136-5.272-.923-4.889-4.126c-.573.563-1.269.989-2.031 1.242a5.28 5.28 0 0 1-2.371.221c-2.451-.514-3.044-2.096-2.768-5.141 0 0-1.16 2.307-4.56.87-2.069-.87-1.555-3.954-1.555-3.954s-3.716.316-4.23-1.608c-.535-3.154-.602-6.371-.198-9.543l2.214-10.677.843-6.894z" class="H"/><path stroke-width=".87" d="M372.814 692.019c.639-2.147 1.049-4.357 1.226-6.591m4.77 9.532a35.37 35.37 0 0 0 1.542-7.711m5.746 11.532a57.41 57.41 0 0 0 1.832-9.636" class="I J K O"/><g class="B"><path d="M353.402 593.937l20.638 70.495-3.954 17.242v10.044s-1.581.527-1.74-3.427l-.145-5.549.448-2.926 2.636-14.579-25.119-70.021z" class="I"/><path d="M341.738 456.241l-7.841 94.183c-.241 2.854-.024 5.729.646 8.514l8.856 36.75 10.003-1.765-10.543-38.597 7.683-109.063s.369-14.104 9.568-22.29l-1.937.605c-16.434 8.212-16.434 31.664-16.434 31.664z" class="D"/><path d="M475.99 341.653h-12.836-1.779-11.202-14.615c-1.123-.003-2.202.439-2.999 1.23a4.24 4.24 0 0 0-1.257 2.988v3.269a11.55 11.55 0 0 0 3.382 8.166c2.165 2.164 5.101 3.381 8.163 3.381s5.998-1.217 8.163-3.381a11.55 11.55 0 0 0 3.382-8.166v-3.282a3.53 3.53 0 0 0-.191-1.375 3.51 3.51 0 0 0-.705-1.196h4.52c-.316.359-.557.776-.709 1.229s-.211.932-.174 1.408v3.282a11.55 11.55 0 0 0 3.382 8.166c2.165 2.164 5.101 3.381 8.163 3.381s5.998-1.217 8.163-3.381a11.55 11.55 0 0 0 3.382-8.166v-3.282a4.48 4.48 0 0 0-1.293-2.95 4.49 4.49 0 0 0-2.938-1.321zm-23.102 4.337v3.282a9.85 9.85 0 0 1-3.005 6.729c-1.836 1.769-4.284 2.758-6.833 2.758s-4.997-.989-6.833-2.758a9.85 9.85 0 0 1-3.005-6.729v-3.282c.026-.663.3-1.292.77-1.76a2.64 2.64 0 0 1 1.761-.771h14.615c.644.078 1.243.37 1.701.829s.751 1.058.829 1.702zm25.646 3.374c-.094 2.548-1.17 4.96-3.006 6.729a9.84 9.84 0 0 1-6.832 2.758c-2.549 0-4.997-.989-6.833-2.758a9.85 9.85 0 0 1-3.005-6.729v-3.282a2.56 2.56 0 0 1 2.517-2.531h1.779 12.836a2.55 2.55 0 0 1 1.776.745c.473.471.743 1.106.754 1.773z"/></g><use class="C" xlink:href="#M"/><g class="B"><use opacity=".5" xlink:href="#M"/><path d="M341.844 589.202l40.077-6.591.857 6.143-39.378 6.947zm277.413-191.107l-1.226-5.207c-13.297 6.999-48.406 0-48.406 0l-6.748 1.397a93.94 93.94 0 0 0 56.379 3.809z" opacity=".5"/></g><g class="E"><use xlink:href="#N"/><use x="6.59" y="18.454" xlink:href="#N"/><use x="11.861" y="34.272" xlink:href="#N"/><use x="17.133" y="48.772" xlink:href="#N"/></g><path d="M511.665 347.716l10.622-19.206 5.733 2.531-12.059 20.01z" class="N"/><path d="M454.483 386.378c-4.346-1.136-8.832-1.656-13.324-1.542-2.807 0-5.192-1.463-7.393-3.216-10.583-8.423-11.9-36.104-11.9-36.104l-2.016 14.935c3.334 16.701 12.559 35.841 33.382 31.965 8.026-1.503 13.179-6.499 16.421-13.34l1.674-4.969a31.35 31.35 0 0 1-7.775 10.11c-1.207 1.095-2.671 1.868-4.255 2.245a9.67 9.67 0 0 1-4.812-.083z" class="B" opacity=".7"/><path d="M418.281 345.095a5.59 5.59 0 0 0-1.154-2.124 5.57 5.57 0 0 0-4.311-1.919 5.57 5.57 0 0 0-2.35.563c-6.906 2.636-4.52 16.82 5.14 19.324 5.944.738 4.837-2.729 4.046-7.461z" class="H"/><g class="B"><path d="M410.004 345.632a3.85 3.85 0 0 1 1.605-.741c.586-.119 1.191-.1 1.769.055.536.171 1.035.447 1.464.811s.783.811 1.04 1.312a7.26 7.26 0 0 1 .883 4.179l.105 1.226c.02.109.014.22-.017.326a.71.71 0 0 1-.162.283c-.076.079-.17.141-.274.178s-.215.049-.324.034a.71.71 0 0 1-.304-.116.7.7 0 0 1-.217-.243.69.69 0 0 1-.086-.315.7.7 0 0 1 .067-.319l-.105-1.226a9.35 9.35 0 0 0-.685-3.506 3.55 3.55 0 0 0-1.634-1.503 3.26 3.26 0 0 0-2.161.448.84.84 0 0 1-.521.061c-.175-.036-.335-.125-.455-.258-.369.026-.264-.395.013-.685z" opacity=".25"/><path d="M443.966 369.823c2.254-1.318 9.66-.791 9.66-.791s7.301 1.437 9.12 3.282c.521.465.891 1.073 1.067 1.749s.148 1.387-.079 2.047c0 0-.738-2.518-2.24-2.412-.751 0-6.589-.277-7.907-1.898-.078-.096-.188-.159-.311-.177a.49.49 0 0 0-.348.084c-1.647 1.2-7.367-.158-8.118-.224-1.16-.092-2.754 1.476-2.754 1.476a3.17 3.17 0 0 1 .456-1.873 3.18 3.18 0 0 1 1.455-1.264z" opacity=".7"/></g><path fill="#3f4249" d="M225.08 885.725c-7.499-107.575-15.815-114.68-16.131-114.93l.514-.975c.369.171 9.041 5.484 16.724 115.827zm7.749-.014h-1.107c4.929-78.589-.435-121.442-.488-121.864l1.107-.145c0 .422 5.43 43.368.488 122.075m6.761 2.281c-5.983-49.009 9.225-86.34 9.41-86.709l1.028.422c-.158.369-15.274 37.449-9.331 86.155zm6.247 5.985a177.27 177.27 0 0 1 .395-52.726l1.094.211a175.68 175.68 0 0 0-.395 52.331z"/><path d="M249.223 802.23l4.837-.409c3.428-.277 6.754-1.293 9.752-2.979 1.46-.869 2.98-1.635 4.547-2.294 5.97-2.399 12.638-1.964 19.07-2.294a79.03 79.03 0 0 0 30.311-7.751c.55-.257 1.009-.676 1.318-1.2.988-1.806-.857-3.427-2.438-4.403-8.144-5.022-16.434-10.097-25.672-12.588s-19.702-2.07-27.583 3.348c-9.225 6.367-12.625 19.443-14.18 30.568" class="C"/><g class="B"><path d="M319.176 784.713a6.14 6.14 0 0 1-.817-.382l-2.293-1.2-8.461-4.324c-4.208-2.068-8.591-3.758-13.1-5.049a43.21 43.21 0 0 0-16.974-1.318c-5.695.621-11.079 2.913-15.472 6.591-3.425 3.183-6.165 7.032-8.052 11.31-1.7 3.625-2.741 6.709-3.506 8.818l-.857 2.439a8.36 8.36 0 0 1-.343.844c.038-.301.108-.597.211-.883l.751-2.478a79.44 79.44 0 0 1 3.334-8.924 34.39 34.39 0 0 1 8.065-11.573 29.42 29.42 0 0 1 15.815-6.841 43.03 43.03 0 0 1 17.211 1.45 75.37 75.37 0 0 1 13.179 5.207c3.598 1.793 6.431 3.401 8.382 4.508l2.227 1.318c.274.136.531.303.764.501" class="D"/><path d="M307.566 790.947c-.092.145-6.418-3.954-14.114-9.135s-13.851-9.517-13.759-9.662 6.418 3.954 14.114 9.135 13.864 9.517 13.759 9.662zm-6.734-19.14a24.44 24.44 0 0 1-9.304.765 32.4 32.4 0 0 1 4.639-.461c1.546-.215 3.105-.316 4.665-.303m-27.676-3.598c-.517 1.182-1.215 2.276-2.069 3.243a14.5 14.5 0 0 1-2.636 2.979c.51-1.185 1.21-2.28 2.069-3.243a13.75 13.75 0 0 1 2.636-2.979m5.667 26.455c-1.069-.442-2.09-.994-3.044-1.648l-6.932-4.64-6.589-5.062a18.51 18.51 0 0 1-2.636-2.241c1.028.527 2.001 1.159 2.899 1.885l6.734 4.89 6.8 4.785c.987.596 1.923 1.275 2.794 2.03" class="D"/></g><g fill="#61656d"><path d="M262.31 955.784h-47.839l-8.909-65.658h65.643z"/><path d="M276.767 900.143h-76.766l-1.107-14.46h78.993z"/></g><g class="B"><path d="M206.92 900.144h62.929l-7.538 55.64-7.565-.514 4.217-50.67-51.555-.87z" class="F"/><path d="M260.333 885.788l-2.227 14.355h18.661l1.12-14.46z" class="F"/></g><path d="M266.764 916.676h-56.919v1.107h56.919zm0 4.454h-56.919v1.107h56.919z" class="E" opacity=".008"/><path d="M210.254 770.279c-4.613-3.493-9.476-4.179-15.248-3.954-5.785.382-11.448 1.845-16.697 4.31-9.027 3.954-17.515 9.781-22.905 18.032s-7.275 19.166-3.229 28.156a3.95 3.95 0 0 0 1.832 2.228c1.002.289 2.074.204 3.018-.237 10.266-3.348 20.612-6.736 30.048-11.982s18.029-12.536 23.102-22.079c1.305-2.25 2.13-4.745 2.425-7.329a9.14 9.14 0 0 0-.402-3.832c-.405-1.234-1.067-2.367-1.944-3.326" class="C"/><g class="B"><path d="M210.346 769.2c-.237.132-.489.235-.751.303l-2.148.738-1.555.527-1.819.699-4.402 1.832-2.517 1.147-2.636 1.318c-1.858.91-3.743 2.083-5.746 3.256a99.76 99.76 0 0 0-12.164 9.029 98.07 98.07 0 0 0-10.543 10.914l-3.954 5.273-1.687 2.465-1.463 2.36c-.962 1.476-1.674 2.9-2.372 4.126l-.936 1.714-.712 1.476-1.002 2.043c-.107.245-.24.48-.395.699a4.71 4.71 0 0 1 .277-.751l.896-2.096.672-1.503.883-1.753 2.293-4.192 1.436-2.386 1.674-2.505c1.133-1.753 2.53-3.493 3.954-5.365a88.17 88.17 0 0 1 22.799-20.062l5.812-3.23 2.702-1.318 2.557-1.12c1.608-.751 3.137-1.239 4.441-1.74l1.858-.659 1.568-.475 2.201-.62a3.84 3.84 0 0 1 .778-.185m-35.977 19.521a105.88 105.88 0 0 1-11.202 3.612c-3.736 1.211-7.538 2.209-11.386 2.992 3.668-1.4 7.406-2.606 11.202-3.612a108.61 108.61 0 0 1 11.386-2.992" class="D"/><path d="M173.907 813.462a17.83 17.83 0 0 1-.25-3.493v-8.436l.448-8.423a19.43 19.43 0 0 1 .435-3.467 19.33 19.33 0 0 1 0 3.493l-.25 8.423-.211 8.41a20.52 20.52 0 0 1-.211 3.493m21.217-10.849c-.185 0-.751-6.05-1.318-13.538s-.791-13.564-.619-13.577.738 6.05 1.318 13.538.791 13.564.619 13.577z" class="D"/><path d="M168.728 774.907c1.189-.144 2.389-.179 3.585-.105l8.645.198 8.632.369c1.203.005 2.404.124 3.585.356-1.19.134-2.389.17-3.585.105-2.214 0-5.272-.079-8.658-.198l-8.632-.382a19.45 19.45 0 0 1-3.571-.343" class="D"/></g><use class="C" xlink:href="#O"/><use class="B F" xlink:href="#O"/><path d="M232.829 766.26l-53.532-31.636c-.554-.33-1.147-.699-1.318-1.318s.382-1.555.949-2.149c3.681-3.821 8.142-6.803 13.08-8.743s10.235-2.793 15.531-2.501a32.73 32.73 0 0 1 14.929 4.869c4.507 2.812 8.262 6.678 10.941 11.265 5.166 9.227 5.337 21.446-.593 30.212" class="C"/><g class="B"><path d="M187.007 724.579a2.6 2.6 0 0 1 .698-.092l2.03-.092c2.491-.041 4.979.153 7.433.58a43.35 43.35 0 0 1 21.911 10.618 43.36 43.36 0 0 1 12.736 20.754c.667 2.396 1.108 4.85 1.318 7.329.092.883 0 1.107.079 1.569a2.63 2.63 0 0 1-.409 1.16 8.93 8.93 0 0 0 .079-2.636 46.73 46.73 0 0 0-1.516-7.237c-2.678-9.032-8.154-16.981-15.638-22.699a44.45 44.45 0 0 0-26.007-9.122h-2.728" class="D"/><path d="M225.581 744.457a12.48 12.48 0 0 1-2.702 1.226l-6.761 2.373-6.879 1.964c-.952.295-1.933.481-2.926.554a14 14 0 0 1 2.794-.989l6.827-2.135 6.8-2.188a13.69 13.69 0 0 1 2.847-.804m-8.421-22.659c.474 1.954.687 3.961.633 5.971.152 2.005.041 4.022-.329 5.998-.266-1.979-.372-3.976-.316-5.971-.163-1.996-.163-4.002 0-5.998m-38.325 12.269a21.75 21.75 0 0 1 3.888-1.318l9.607-2.636 9.726-2.056c1.344-.294 2.711-.48 4.085-.554a27.97 27.97 0 0 1-3.954 1.002l-9.673 2.228-9.62 2.425c-1.318.398-2.661.711-4.02.936" class="D"/></g><path d="M255.193 826.103c-4.613-1.226-10.095 3.269-11.057 7.909s.804 9.451 2.86 13.762c4.381 9.667 10.896 18.217 19.056 25.005a47.18 47.18 0 0 0 29.151 10.73c-1.95-9.043.514-18.454-.567-27.681-.95-8.111-4.626-15.657-10.424-21.406s-13.378-9.355-21.495-10.23c-2.939-.316-6.352-.778-7.525 1.938" class="C"/><g class="B"><path d="M295.204 883.47a2.4 2.4 0 0 1-.659-.303c-.608-.337-1.185-.725-1.726-1.16a18.18 18.18 0 0 1-4.547-6.077l-2.359-4.693-2.425-5.484c-.895-2.015-1.911-3.974-3.044-5.866a46.09 46.09 0 0 0-4.204-5.708c-3.15-3.704-6.589-6.907-9.476-9.978a64.58 64.58 0 0 1-7.222-8.673c-1.446-2.095-2.632-4.357-3.532-6.736a19.63 19.63 0 0 1-.619-1.977c-.072-.232-.121-.471-.145-.712.066 0 .329.936 1.002 2.636.982 2.321 2.21 4.531 3.664 6.591a71.1 71.1 0 0 0 7.275 8.515c2.952 3.032 6.365 6.235 9.541 9.978a44.16 44.16 0 0 1 4.244 5.787 52.92 52.92 0 0 1 3.057 5.945l2.425 5.51c.764 1.74 1.568 3.269 2.28 4.706a18.69 18.69 0 0 0 4.296 6.103c1.318 1.16 2.267 1.595 2.227 1.648m-23.893-7.567a14.49 14.49 0 0 1 .422-3.111l1.753-7.342 2.346-7.184a13.12 13.12 0 0 1 1.252-2.86 15.3 15.3 0 0 1-.83 3.005l-2.148 7.21-1.924 7.276c-.196 1.027-.488 2.033-.87 3.005" class="D"/><path d="M294.334 853.731a18.02 18.02 0 0 1-3.255-.751l-7.775-1.911-7.907-1.608a19.38 19.38 0 0 1-3.255-.712 15.28 15.28 0 0 1 3.334.264l7.907 1.424 7.762 2.109a15.55 15.55 0 0 1 3.123 1.186m-40.01 6.459a19.05 19.05 0 0 1 .501-3.599l1.911-8.529 2.504-8.384a19.14 19.14 0 0 1 1.318-3.374c-.195 1.192-.492 2.365-.883 3.506l-2.319 8.41-2.082 8.463c-.215 1.194-.532 2.367-.949 3.506m29.493-25.82c0 .171-5.772-.29-12.849-1.041a126 126 0 0 1-12.783-1.687c0-.171 5.772.29 12.849 1.041a124.95 124.95 0 0 1 12.783 1.687z" class="D"/></g><path d="M232.473 780.51c-.395-4.192-4.639-7.369-8.856-7.408-2.11.094-4.17.666-6.025 1.673a13.94 13.94 0 0 0-4.689 4.14 33.46 33.46 0 0 0-5.166 11.468c-2.833 9.886-4.389 20.286-3.176 30.502s5.364 20.273 12.691 27.497c1.186 1.173 2.741 2.346 4.375 1.99.882-.261 1.678-.753 2.306-1.424a68.29 68.29 0 0 0 16.68-23.554 68.3 68.3 0 0 0 5.46-28.342c-.119-3.889-.619-7.909-2.781-11.165s-7.156-6.683-10.82-5.378" class="C"/><g class="B"><path d="M219.545 849.789a5.55 5.55 0 0 1-.079-.725l-.092-2.056v-7.593a183.17 183.17 0 0 1 .659-11.231c.382-4.231 1.028-8.832 1.885-13.656s1.95-9.359 3.044-13.458a136.48 136.48 0 0 1 3.347-10.756c1.081-3.019 1.99-5.457 2.702-7.105l.817-1.911a4.31 4.31 0 0 1 .316-.646 2.9 2.9 0 0 1-.198.699l-.698 1.938c-.646 1.674-1.502 4.126-2.517 7.158s-2.109 6.696-3.189 10.783-2.109 8.621-2.992 13.419-1.476 9.398-1.924 13.603-.685 7.988-.804 11.191-.171 5.774-.171 7.566v2.056c.03.241.03.485 0 .725" class="D"/><path d="M222.378 814.78c-.63.849-1.346 1.631-2.135 2.333l-5.601 5.207-5.891 4.877a15.18 15.18 0 0 1-2.636 1.806 17.13 17.13 0 0 1 2.319-2.162l5.759-4.996 5.706-5.062c.749-.749 1.57-1.42 2.451-2.004m16.963 13.593a25.31 25.31 0 0 1-2.267-3.15l-5.272-7.711-5.39-7.659a24.99 24.99 0 0 1-2.174-3.23 21.57 21.57 0 0 1 2.53 2.966l5.561 7.553 5.153 7.909a20.75 20.75 0 0 1 1.885 3.388m-8.895-42.998c.092.145-5.535 3.954-12.573 8.463s-12.823 8.08-12.928 7.909 5.535-3.954 12.586-8.463 12.823-8.08 12.915-7.909z" class="D"/><path d="M246.311 802.573c-5.821-5.089-11.356-10.498-16.579-16.2a104.78 104.78 0 0 1 8.513 7.909 99.84 99.84 0 0 1 8.065 8.331" class="D"/></g><path fill="#3f4249" d="M274.131 920.707v34.496h-34.489v-34.496h-3.334v34.496H201.82v-34.496h-3.334v116.842h3.334v-72.328h34.489v72.328h3.334v-72.328h34.489v72.328h3.347v-72.328-10.018-34.496z"/><path d="M1360.048 472.06l-15.076 5.536-15.09 5.497-.633 15.106c-.659 16.121 6.286 30.318 20.111 40.415 7.459 5.457 15.34 9.451 20.796 7.448s8.856-10.15 11.004-19.14c3.954-16.688.079-31.979-10.872-43.829l-10.266-11.086z" class="C"/><path d="M1360.087 472.059l-15.076 5.549-15.129 5.563-.619 15.106c-.672 16.121 6.273 30.318 20.098 40.415 7.459 5.457 15.353 9.451 20.796 7.448s8.869-10.15 11.004-19.14c3.954-16.688.079-31.979-10.872-43.829l-10.253-11.099z" class="B F"/><g class="E"><path d="M1357.188 473.06l-12.217 4.482-12.204 4.495-.501 12.233c-.54 13.05 5.087 24.518 16.276 32.717 6.049 4.429 12.428 7.659 16.842 6.037s7.169-8.225 8.909-15.502c3.216-13.511 0-25.889-8.803-35.485z" class="F"/><path d="M1354.315 474.116l-9.344 3.427-9.331 3.44-.382 9.346c-.409 9.992 3.954 18.771 12.454 25.045 4.613 3.388 9.502 5.853 12.876 4.614s5.482-6.288 6.813-11.863c2.464-10.334 0-19.772-6.734-27.141z" class="F"/><path d="M1351.442 475.168l-6.471 2.373-6.458 2.386-.264 6.472c-.158 3.385.54 6.756 2.056 9.79 1.502 3.034 3.769 5.632 6.563 7.544 3.202 2.346 6.589 4.06 8.922 3.203s3.795-4.363 4.718-8.212a19.86 19.86 0 0 0 .092-9.984c-.804-3.281-2.451-6.301-4.757-8.774l-4.402-4.759z"/></g><path d="M1356.331 416.828l34.647 20.682c.277.159.488.411.606.712l7.196 19.588c.026.07.04.145.026.22 0 .075-.026.146-.079.208a.4.4 0 0 1-.158.145c-.079.034-.145.049-.224.046l-26.358-.33z" class="C"/><path d="M1360.812 419.503l14.339 38.991-3.097-.395-15.722-41.272z" class="B F"/><path d="M1299.109 437.879l-12.994 38.227c-.119.302-.119.635 0 .936l7.196 19.588c.026.071.066.133.119.183a.6.6 0 0 0 .198.104.46.46 0 0 0 .224 0c.079-.017.145-.053.198-.103l19.768-17.294z" class="C"/><path d="M1297.172 442.915l14.352 39.004 2.109-2.32-14.773-41.628z" class="B F"/><path d="M1288.883 325.283c-4.692 1.766-8.737 17.136-9.093 40.481-.237 13.738 1.726 27.426 5.812 40.547l32.947 87.289 22.997-8.687 13.324-5.035 22.997-8.7-29.916-79.195a129.45 129.45 0 0 0-10.899-22.251c-4.323-7.08-9.212-13.802-14.602-20.102-15.221-17.518-28.901-26.126-33.593-24.346" class="M"/><path d="M1288.883 325.281c-3.677 1.239-6.879 10.888-8.316 25.928l31.326-12.483c-11.004-10.558-18.279-15.04-23.01-13.445z" class="C"/><path d="M1372.976 459.242l-59.001 21.711.329.903 59.001-21.711zm.673 1.818l-59.001 21.711.343.903 58.988-21.711zm.658 1.81l-58.988 21.711.329.903 59.001-21.711zm.673 1.809l-59.001 21.711.329.903 59.001-21.711zm.659 1.793l-59.001 21.71.329.904 59.001-21.711zm.658 1.81l-59.001 21.71.343.904 58.988-21.711zm.673 1.805l-58.988 21.711.329.903 58.988-21.711z" class="B" opacity=".09"/><path d="M1335.377 437.43l11.413 30.99m-21.481-75.095l15.498 42.102" class="D J K P"/><path d="M1322.686 400.952c8.382-6.314 10.042-18.225 3.729-26.602s-18.213-10.048-26.595-3.733c-8.369 6.314-10.042 18.225-3.73 26.602a18.99 18.99 0 0 0 26.595 3.733z" class="E"/><path d="M1318.377 405.068c-4.652 1.72-9.765 1.689-14.391-.087-4.639-1.776-8.461-5.176-10.767-9.565s-2.939-9.468-1.779-14.29a20.45 20.45 0 0 1 8.079-11.918c4.046-2.858 9.001-4.146 13.93-3.622a20.4 20.4 0 0 1 12.862 6.472c3.361 3.647 5.285 8.391 5.403 13.349a20.46 20.46 0 0 1-4.744 13.597h0a20.37 20.37 0 0 1-8.592 6.064zm-13.179-35.59c-2.53.924-4.823 2.42-6.682 4.372-1.871 1.952-3.255 4.306-4.059 6.882s-1.002 5.302-.593 7.967c.422 2.665 1.45 5.199 3.005 7.403a17.54 17.54 0 0 0 5.97 5.306c2.372 1.287 5.008 2.009 7.71 2.112 2.688.101 5.377-.419 7.841-1.521a17.48 17.48 0 0 0 6.352-4.839h0c2.227-2.663 3.611-5.926 3.993-9.379.369-3.451-.29-6.936-1.898-10.013s-4.099-5.607-7.143-7.271a17.54 17.54 0 0 0-9.976-2.073 17.97 17.97 0 0 0-4.52 1.002z" class="C"/><g class="J K P"><use class="D" xlink:href="#P"/><use x="4.995" y="13.563" class="D" xlink:href="#P"/><use x="18.055" y="32.36" class="D" xlink:href="#P"/><path d="M1349.36 458.785a1.45 1.45 0 1 0 0-2.9 1.45 1.45 0 1 0 0 2.9zm-46.073-9.542l57.222-21.064" class="D"/></g><path d="M1151.415 185.675L1140.78 283.1l15.828-14.078 13.495 14.539-3.545-95.659zm35.411-8.712l54.613 81.357-20.546-5.128-5.206 19.153-41.249-86.379z" class="G"/><path d="M1163.553 207.597c26.437 0 47.879-21.441 47.879-47.889s-21.442-47.889-47.879-47.889-47.878 21.44-47.878 47.889 21.442 47.889 47.878 47.889z" class="C"/><path d="M1195.458 189.853c-.817 1.637-1.502 3.334-2.069 5.075-.883 2.636-1.726 5.049-3.137 6.037s-3.954.87-6.497.83h-1.792l3.624 7.593a15.36 15.36 0 0 0 9.001-2.201c3.413-2.386 4.771-6.288 5.944-9.741zm-28.229 16.135l-1.068.659c-2.175 1.318-4.415 2.729-5.996 2.636s-3.703-1.793-5.799-3.572c-1.476-1.333-3.057-2.524-4.758-3.559l-.936 8.647.804.685c2.794 2.36 5.957 5.035 10.134 5.339a10.94 10.94 0 0 0 3.427-.303 18.49 18.49 0 0 0 4.507-1.885z" class="F B"/><path d="M1163.039 213.46a10.92 10.92 0 0 1-3.427.303c-4.178-.303-7.341-2.979-10.134-5.339a19.49 19.49 0 0 0-4.468-3.203 19.83 19.83 0 0 0-5.522-.87c-3.624-.264-7.723-.567-10.886-3.243s-4.125-6.591-4.995-10.123c-.343-1.865-.962-3.671-1.819-5.365a18.7 18.7 0 0 0-3.822-3.783c-2.82-2.373-6.009-5.049-7.024-9.227s.567-7.988 1.964-11.389a19.54 19.54 0 0 0 1.621-5.141c-.026-1.894-.316-3.775-.87-5.589-.857-3.519-1.832-7.5-.277-11.297s5.061-5.998 8.145-7.909c1.647-.896 3.15-2.019 4.481-3.335a19.58 19.58 0 0 0 2.478-4.917c1.318-3.388 2.939-7.224 6.497-9.438s7.472-1.832 11.044-1.582c1.924.25 3.875.224 5.785-.079 1.832-.634 3.571-1.521 5.166-2.636 3.044-1.885 6.497-4.02 10.543-3.73s7.341 2.979 10.121 5.352c1.239 1.404 2.794 2.502 4.52 3.208 1.739.707 3.611 1.003 5.482.865 3.611.264 7.723.567 10.886 3.23s4.112 6.591 4.982 10.123a20.34 20.34 0 0 0 1.832 5.365c1.081 1.438 2.372 2.711 3.822 3.783 2.807 2.373 5.996 5.062 7.024 9.227s-.567 8.001-1.964 11.402c-.791 1.623-1.331 3.349-1.634 5.128a20.17 20.17 0 0 0 .883 5.602c.857 3.506 1.819 7.487.277 11.283s-5.061 5.998-8.144 7.909c-1.713.742-3.242 1.872-4.455 3.301a12.11 12.11 0 0 0-2.517 4.938c-1.318 3.388-2.926 7.224-6.484 9.438s-7.486 1.832-11.057 1.582c-1.911-.407-3.888-.377-5.785.091a12.95 12.95 0 0 0-5.153 2.611 25.79 25.79 0 0 1-7.117 3.454zm-23.063-93.8c-.356.086-.698.224-1.015.409-1.463.91-2.438 3.309-3.466 5.853a24.81 24.81 0 0 1-3.703 6.934 25.39 25.39 0 0 1-6.273 4.89c-2.32 1.437-4.507 2.794-5.14 4.35s0 4.126.619 6.591c.778 2.563 1.133 5.233 1.068 7.909-.33 2.581-1.054 5.095-2.161 7.448-1.054 2.57-2.056 4.983-1.621 6.723s2.425 3.414 4.547 5.194a24.85 24.85 0 0 1 5.39 5.602c1.292 2.353 2.214 4.892 2.728 7.527.619 2.504 1.318 5.101 2.53 6.169s3.848 1.318 6.589 1.476c2.662-.088 5.311.386 7.789 1.393a19.01 19.01 0 0 1 6.537 4.446c2.095 1.766 4.072 3.454 5.799 3.572s3.822-1.318 5.996-2.636c2.24-1.558 4.718-2.746 7.327-3.519a26.01 26.01 0 0 1 8.131-.29c2.543.185 5.179.369 6.589-.475s2.438-3.309 3.479-5.839c.857-2.497 2.109-4.842 3.703-6.947 1.819-1.952 3.94-3.603 6.273-4.89 2.319-1.437 4.494-2.794 5.14-4.35s0-4.126-.633-6.591c-.764-2.565-1.12-5.233-1.068-7.909.33-2.586 1.054-5.104 2.175-7.461 1.054-2.557 2.043-4.983 1.621-6.723s-2.438-3.414-4.547-5.194a24.66 24.66 0 0 1-5.39-5.602c-1.292-2.35-2.214-4.89-2.728-7.527-.633-2.505-1.318-5.101-2.53-6.169s-3.848-1.318-6.589-1.463c-2.662-.059-5.311-.54-7.828-1.424-2.385-1.12-4.586-2.615-6.51-4.429-2.095-1.766-4.059-3.44-5.785-3.572s-3.822 1.318-5.996 2.636c-2.254 1.546-4.731 2.734-7.341 3.519a25.86 25.86 0 0 1-8.118.277 20.04 20.04 0 0 0-5.588.092z" class="C"/><path stroke="#fff" stroke-width="2.517" d="M1163.553 200.979c22.786 0 41.263-18.477 41.263-41.272s-18.477-41.272-41.263-41.272-41.263 18.478-41.263 41.272 18.477 41.272 41.263 41.272z" class="J"/><path d="M1158.36 138.59l10.279 12.206 15.894-1.542-8.448 13.551 6.379 14.632-15.485-3.836-11.94 10.598-1.147-15.923-13.759-8.094 14.787-6.011z" class="L"/><path d="M252.426 572.423l-87.691 28.261a1.23 1.23 0 0 1-.484.058 1.21 1.21 0 0 1-.468-.132c-.146-.075-.275-.178-.382-.303s-.185-.27-.235-.427l-36.505-113.322a1.32 1.32 0 0 1 .817-1.582l65.683-21.17 30.311 14.566 29.705 92.469a1.24 1.24 0 0 1-.049.946 1.23 1.23 0 0 1-.702.635z" class="G"/><path d="M212.054 481.247l-67.607 22.066 1.021 3.131 67.607-22.066zm3.333 10.945l-67.67 22.032 1.02 3.135 67.67-22.032zm3.247 10.034l-67.67 22.032 1.02 3.133 67.67-22.032zm3.27 10.017l-67.672 22.032 1.02 3.133 67.67-22.03zm3.259 10.028l-67.67 22.032 1.02 3.133 67.67-22.032zm3.274 10.03l-67.67 22.032 1.019 3.133 67.672-22.032zm3.256 10.021l-67.67 22.032 1.02 3.133 67.67-22.032zm3.213 9.04l-67.607 22.066 1.021 3.131 67.607-22.066z" class="E"/><path d="M193.161 463.858l30.311 14.566-21.995 7.092a1.32 1.32 0 0 1-1.581-.817z" class="G"/><path d="M193.161 463.858l30.311 14.566-21.995 7.092a1.32 1.32 0 0 1-1.581-.817z" class="B F"/><defs><path id="B" d="M1189.133 235.989H478.758c-3.122 0-5.654 2.532-5.654 5.655V759.26c0 3.123 2.532 5.655 5.654 5.655h710.375c3.123 0 5.654-2.532 5.654-5.655V241.644c0-3.123-2.53-5.655-5.654-5.655z"/><path id="C" d="M1181.568 235.859H471.193c-3.122 0-5.654 2.531-5.654 5.655v517.616c0 3.123 2.532 5.655 5.654 5.655h710.375c3.123 0 5.654-2.532 5.654-5.655V241.513c0-3.124-2.53-5.655-5.654-5.655z"/><path id="D" d="M1181.107 765.691H471.668c-5.627 0-7.051-1.318-7.051-6.854V241.801c0-5.523 1.423-6.854 7.051-6.854h709.439c5.627 0 7.051 1.318 7.051 6.854v517.036c0 5.51-1.423 6.854-7.051 6.854zM471.668 236.765c-4.613 0-5.192.514-5.192 5.035v517.036c0 4.508.58 5.035 5.192 5.035h709.439c4.599 0 5.192-.527 5.192-5.035V241.801c0-4.521-.593-5.035-5.192-5.035z"/><path id="E" d="M489.644 264.58c3.531 0 6.392-2.862 6.392-6.393s-2.861-6.393-6.392-6.393-6.392 2.863-6.392 6.393 2.861 6.393 6.392 6.393z"/><path id="F" d="M600.965 473.207a3.23 3.23 0 0 0 3.229-3.229 3.23 3.23 0 0 0-3.229-3.229 3.23 3.23 0 0 0-3.229 3.229 3.23 3.23 0 0 0 3.229 3.229z"/><path id="G" d="M694.402 366.922h-11.94a12.76 12.76 0 0 0-12.757 12.76v31.372a12.76 12.76 0 0 0 12.757 12.76h11.94a12.76 12.76 0 0 0 12.757-12.76v-31.372a12.76 12.76 0 0 0-12.757-12.76z"/><path id="H" d="M750.056 386.34h-11.94a12.76 12.76 0 0 0-12.757 12.76v11.943a12.76 12.76 0 0 0 12.757 12.76h11.94a12.76 12.76 0 0 0 12.757-12.76V399.1a12.76 12.76 0 0 0-12.757-12.76z"/><path id="I" d="M999.253 537.861H653.508c-2.322 0-4.204 1.882-4.204 4.205v66.514c0 2.323 1.882 4.205 4.204 4.205h345.745c2.322 0 4.204-1.882 4.204-4.205v-66.514c0-2.323-1.882-4.205-4.204-4.205z"/><path id="J" d="M979.735 551.98H764.408v4.192h215.328z"/><path id="K" d="M1180.435 837.519l.659-9.781c.013-.167-.013-.337-.105-.481s-.224-.252-.382-.311l-26.529-8.331c-.198-.047-.409-.017-.58.087a.79.79 0 0 0-.356.468l-2.965 9.464-30.812 98.032c-.04.094-.053.194-.053.295s.026.2.066.291c.053.092.105.175.185.244a.71.71 0 0 0 .25.158l134.95 42.445c.198.047.409.014.58-.092a.76.76 0 0 0 .356-.475l30.562-97.255c.066-.192.066-.403-.026-.59a.79.79 0 0 0-.422-.411l-104.903-32.954c-.158-.058-.29-.17-.382-.316a.78.78 0 0 1-.092-.486z"/><path id="L" d="M1119.417 927.536l134.95 42.432a.8.8 0 0 0 .316.01c.119-.02.211-.063.303-.123s.171-.138.224-.231c.066-.091.105-.194.119-.302l18.767-91.968a.71.71 0 0 0-.066-.542.68.68 0 0 0-.409-.355l-107.156-33.719a.75.75 0 0 1-.356-.266c-.079-.123-.132-.269-.132-.419l-.435-9.385c0-.15-.053-.297-.132-.419-.092-.121-.211-.215-.356-.266l-24.341-7.645c-.105-.025-.211-.028-.33-.008-.105.02-.198.061-.29.121s-.171.14-.224.231c-.066.092-.105.195-.119.302l-20.743 101.644c-.053.175-.039.362.04.53s.211.301.369.38z"/><path id="M" d="M414.274 402.116s19.294 13.103 37.164 16.477c0 0 7.538-6.499 10.069-14.091l1.74 4.284a32.95 32.95 0 0 1-10.714 16.793s-27.069-6.485-39.404-18.243z"/><path id="N" d="M450.858 423.287a1.32 1.32 0 0 0 1.318-1.318 1.32 1.32 0 0 0-1.318-1.318 1.32 1.32 0 0 0-1.318 1.318 1.32 1.32 0 0 0 1.318 1.318z"/><path id="O" d="M201.002 746.882l-5.944 10.756c-.132.25-.316.527-.606.554s-.54-.264-.712-.527l-15.683-24.096 3.611-2.056z"/><path id="P" d="M1326.31 412.873c.804 0 1.45-.649 1.45-1.45a1.45 1.45 0 0 0-1.45-1.45 1.45 1.45 0 0 0-1.45 1.45c0 .801.646 1.45 1.45 1.45z"/></defs></svg>