<svg xmlns="http://www.w3.org/2000/svg" xmlns:xlink="http://www.w3.org/1999/xlink" width="1434.454" height="925.984" fill="none" xmlns:v="https://vecta.io/nano"><style><![CDATA[.i{fill:#000}.j{fill:#fff}.k{fill:#4d61fc}.l{opacity:.2}.m{opacity:.3}.n{fill:#dadddf}.o{fill:#fc9d9d}.p{opacity:.15}.q{stroke:#fff}.r{stroke-miterlimit:10}.s{stroke-width:1.312}.t{stroke:#000}.u{fill:#f4f4f4}.v{stroke-linecap:round}.w{stroke-width:.958}]]></style><g class="j"><path d="M250.092 93.471a164.22 164.22 0 0 0-12.362 50.885h-.659l-44.439-.928h-.567v-1.307l.448-3.464c.696-6 1.833-11.942 3.4-17.776A136.61 136.61 0 0 1 206.68 93.21c.087-.216.245-.395.449-.51a1.03 1.03 0 0 1 .671-.118l41.526.863zm-3.796 114.187h-.725l-41.223-.85a.96.96 0 0 1-.622-.156.95.95 0 0 1-.38-.511 126.15 126.15 0 0 1-9.752-31.684 127.16 127.16 0 0 1-1.726-15.973 4.37 4.37 0 0 0-.105-.536v-1.307h.685l44.188.915c.817 0 .778 0 .817.837l.646 10.927a142.3 142.3 0 0 0 2.438 17.188 155.36 155.36 0 0 0 5.548 20.495c.132.183.132.392.211.654z" class="q s"/><path d="M422.457 224.506l-.369.614c-3.673 5.317-7.757 10.343-12.217 15.032a116.55 116.55 0 0 1-17.752 15.567c-12.43 8.938-26.413 15.532-41.25 19.449-5.768 1.501-11.633 2.605-17.554 3.307l-1.726.261h-1.015l-.949-.64 1.12-.758c12.977-8.373 24.4-18.907 33.764-31.135 5.29-6.907 9.968-14.254 13.983-21.959a.96.96 0 0 1 .415-.499.99.99 0 0 1 .639-.128l42.172.889z"/><path d="M382.09 147.324l-58.922-1.216 1.081-51.068a5.98 5.98 0 0 1 .685 0l45.322.928c.2-.022.402.028.569.14s.287.281.34.474a141.32 141.32 0 0 1 8.751 30.128 149.78 149.78 0 0 1 1.924 16.247l.25 4.366zm-.632 13.631l-.25 3.594-1.041 8.509c-.633 3.921-1.318 7.843-2.188 11.659a139.28 139.28 0 0 1-8.171 24.835.96.96 0 0 1-.403.576c-.203.134-.449.191-.691.156l-46.389-.98h-.843l1.054-49.486zm-70.507-65.89l-1.081 51.146-57.538-1.203.343-3.817 1.16-8.548c.791-4.326 1.634-8.64 2.636-12.914 2.113-8.602 5.074-16.978 8.843-25.005.068-.2.207-.371.39-.481a.92.92 0 0 1 .611-.12l43.872.928zm-1.304 65.067l-1.028 48.088v.732h-.778l-45.203-.928c-.223.022-.447-.035-.63-.162a.92.92 0 0 1-.372-.531 129.73 129.73 0 0 1-7.288-25.933c-.764-4.562-1.318-9.15-1.805-13.764-.329-2.993-.343-6.039-.488-9.058v-.314a5.75 5.75 0 0 1 .672 0l56.181 1.15c.567-.013.751.118.738.719zm134.937-11.137l-48.287-1.006a165.77 165.77 0 0 0-10.174-51.695h.751l44.254.902c.223-.021.445.031.634.149a1 1 0 0 1 .407.505 125.39 125.39 0 0 1 10.411 32.259c1.049 5.955 1.705 11.972 1.964 18.012.066.274.039.549.039.876z" class="q s"/></g><path d="M444.347 161.87l-.237 3.346c-1.295 14.365-5.132 28.39-11.334 41.435-.685 1.477-1.436 2.928-2.135 4.392a.7.7 0 0 1-.725.445l-44.373-.941h-.474l1.674-4.483a152.41 152.41 0 0 0 6.471-23.201 150.34 150.34 0 0 0 2.438-17.332l.316-4.104c0-.379.132-.549.527-.51a2.41 2.41 0 0 0 .435 0z" class="n"/><g class="j"><path d="M424.131 84.045l-.105.183h-.606l-42.238-.863a.97.97 0 0 1-1.002-.614 143.53 143.53 0 0 0-20.322-31.253 116.33 116.33 0 0 0-15.815-15.032c-2.833-2.261-5.772-4.379-8.672-6.535l-.488-.379.593-.379c-.066-.274-.145-.549-.25-.915 17.99 2.418 35.243 8.653 50.585 18.28s28.411 22.419 38.319 37.507zm-125.199 193.45c-.401.102-.812.158-1.226.17a117.15 117.15 0 0 1-13.719-2.941 124.47 124.47 0 0 1-48.959-26.312c-5.351-4.626-10.277-9.713-14.721-15.201a129.7 129.7 0 0 1-9.093-13.071l-.185-.405h.698l39.325.797a.98.98 0 0 1 .975.653 150.15 150.15 0 0 0 13.956 23.698 148.34 148.34 0 0 0 16.553 18.953 130.08 130.08 0 0 0 16.025 13.332c.132.098.256.207.369.327zm4.718-248.673l-6.049 4.222a146.65 146.65 0 0 0-19.425 17.188c-8.055 8.371-14.979 17.741-20.598 27.88-.343.64-.672 1.307-1.054 1.921a.92.92 0 0 1-.273.246c-.105.063-.224.105-.347.12h-2.148l-38.442-.797c22.048-29.54 51.199-46.977 87.915-51.722l-.264.484z" class="q s"/><path d="M362.902 223.305a137.08 137.08 0 0 1-20.005 25.71 122.73 122.73 0 0 1-22.628 18.299l.949-44.82z"/><path d="M308.263 222.179l-.936 43.957c-16.39-11.672-29.773-27.015-39.062-44.781z" class="q s"/><path d="M364.563 82.61l-40.024-.823.883-41.827a121.85 121.85 0 0 1 22.061 19.11 140.86 140.86 0 0 1 17.08 23.541z"/><path d="M312.111 40.94l-.87 40.912-38.429-.745c9.743-16.26 23.205-30.02 39.299-40.167z" class="q s"/><path d="M1297.197 499.087c24.012-28.364 19.333-65.812 4.099-84.961l-30.061 2.614c12.836 9.32 18.608 34.468 8.843 46.911s-32.538 18.299-44.808 8.195c-9.634-7.843-16.566-30.155-28.993-28.874-1.634-26.442-26.845-49.225-53.545-48.362-3.242-6.738-7.973-12.662-13.838-17.328a50.09 50.09 0 0 0-20.071-9.62 50.25 50.25 0 0 0-22.285.008c-7.327 1.669-14.194 4.963-20.058 9.635l-1.318 99.849s17.804 28.586 52.451 24.926c9.12-.967 16.895-3.019 22.997-8.182a11.1 11.1 0 0 0 3.15 2.719c4.758 2.719 10.886 2.117 15.814-.34.619-.327 1.239-.68 1.832-1.046 9.897 15.215 30.311 29.096 46.785 32.821 23.998 5.385 63.205-10.287 79.007-28.965z"/></g><path opacity=".04" d="M1203.76 452.764a1.26 1.26 0 0 1 0-.444l.25-1.307.356-2.078.329-2.849c.514-6.092-.185-12.224-2.043-18.051-1.265-4.023-3.084-7.85-5.416-11.372-2.636-4.056-5.957-7.632-9.818-10.574a47.19 47.19 0 0 0-31.181-9.659c-1.621 0-3.202.301-4.692.497h-.29l-.092-.261c-3.506-10.008-10.411-18.502-19.518-24.037a48.49 48.49 0 0 0-6.326-3.189 53.99 53.99 0 0 0-6.352-2.065 48.23 48.23 0 0 0-11.861-1.699 39.1 39.1 0 0 0-16.829 3.307 23.18 23.18 0 0 0-2.438 1.176c-.593.285-1.173.603-1.726.954l-1.054.614c-.119.081-.237.146-.369.196 0 0 .105-.091.329-.248l1.015-.68c.554-.371 1.12-.711 1.713-1.02.791-.452 1.595-.863 2.425-1.229 5.298-2.449 11.097-3.661 16.948-3.542a48.45 48.45 0 0 1 11.966 1.634c2.188.554 4.336 1.24 6.431 2.052a48.32 48.32 0 0 1 6.418 3.215c9.265 5.58 16.289 14.185 19.86 24.338l-.382-.222a47.36 47.36 0 0 1 19.175.899 47.16 47.16 0 0 1 17.198 8.433c3.901 3.002 7.248 6.645 9.91 10.77 2.333 3.571 4.151 7.453 5.39 11.529a45.85 45.85 0 0 1 1.845 18.221c-.079 1.085-.264 2.039-.395 2.863-.105.695-.237 1.386-.422 2.065l-.316 1.307a2.66 2.66 0 0 1-.04.457zm16.79 3.201c-.132 0-.303-1.137-1.081-2.81a14.15 14.15 0 0 0-1.7-2.732 15.81 15.81 0 0 0-2.82-2.758c-1.067-.778-2.214-1.427-3.44-1.934-1.002-.401-2.056-.686-3.123-.85-1.832-.288-3.005-.144-3.018-.274a2.36 2.36 0 0 1 .817-.183 9.67 9.67 0 0 1 2.267 0 12.96 12.96 0 0 1 3.282.745 15.64 15.64 0 0 1 3.637 1.987 15.95 15.95 0 0 1 2.913 2.915 13.18 13.18 0 0 1 1.634 2.928 8.88 8.88 0 0 1 .593 2.17c.066.497.092.784.04.797zm-4.837 34.051s-.264-.784-.909-2.131a15.84 15.84 0 0 0-3.822-4.993 14.91 14.91 0 0 0-8.553-3.738c-3.967-.361-7.934.799-11.07 3.242l-.422.34-.119-.523a22.16 22.16 0 0 0-1.766-5.045c-1.99-4.154-5.127-7.661-9.054-10.117a24.37 24.37 0 0 0-10.648-3.477 26.12 26.12 0 0 0-7.604.471c-1.779.405-2.728.758-2.741.693a2.47 2.47 0 0 1 .672-.301 16.25 16.25 0 0 1 2.003-.64 24.47 24.47 0 0 1 9.594-.505c3.202.467 6.286 1.562 9.054 3.223 4.059 2.489 7.301 6.082 9.344 10.352a23.67 23.67 0 0 1 1.805 5.228l-.54-.196a16.17 16.17 0 0 1 11.545-3.307c3.282.325 6.379 1.701 8.803 3.921a15.22 15.22 0 0 1 3.743 5.228 10.25 10.25 0 0 1 .567 1.634 1.77 1.77 0 0 1 .119.64zm95.045-14.835a5.42 5.42 0 0 1-.264 1.02l-.936 2.889c-1.305 3.486-2.926 6.847-4.85 10.038-2.886 4.736-6.326 9.121-10.24 13.071-2.293 2.319-4.731 4.502-7.288 6.535a92.05 92.05 0 0 1-8.54 6.156 109.39 109.39 0 0 1-33.922 14.469c-3.637.869-7.354 1.416-11.097 1.634h-3.057a6.29 6.29 0 0 1-1.067-.091 6.33 6.33 0 0 1 1.067 0c.698 0 1.726 0 3.031-.131a70.21 70.21 0 0 0 11.017-1.843 112.56 112.56 0 0 0 33.645-14.561 96.23 96.23 0 0 0 8.5-6.117 85.85 85.85 0 0 0 7.261-6.535c3.901-3.882 7.341-8.188 10.266-12.836a66.34 66.34 0 0 0 5.021-9.882c.488-1.229.791-2.196 1.054-2.836a6.75 6.75 0 0 1 .395-.98zm-27.122-24.169c.066.582.066 1.17 0 1.751-.145 1.58-.435 3.146-.843 4.679-1.384 5.113-4.178 9.746-8.065 13.379a28.87 28.87 0 0 1-13.93 7.207 25.22 25.22 0 0 1-4.758.575 7.58 7.58 0 0 1-1.753-.078 59.45 59.45 0 0 0 6.405-.954 29.72 29.72 0 0 0 13.574-7.236c3.795-3.559 6.576-8.053 8.052-13.024.567-2.07 1.015-4.175 1.318-6.3z" class="i"/><use xlink:href="#A" class="k"/><use xlink:href="#A" opacity=".6" class="j"/><g class="k"><path opacity=".4" d="M406.036 128.422h712.22a5.65 5.65 0 0 1 3.993 1.643c1.068 1.051 1.66 2.477 1.66 3.964v38.807h-723.5v-38.807c0-1.482.592-2.904 1.646-3.955s2.487-1.644 3.981-1.652z"/><use xlink:href="#B"/></g><use xlink:href="#B" opacity=".8" class="j"/><use xlink:href="#C" class="k"/><use xlink:href="#C" opacity=".6" class="j"/><path d="M398.682 128.422h712.22a5.65 5.65 0 0 1 3.993 1.643c1.068 1.051 1.66 2.477 1.66 3.964v38.807H393.042v-38.807a5.59 5.59 0 0 1 1.651-3.96 5.68 5.68 0 0 1 3.989-1.647z" class="k"/><g class="j"><use xlink:href="#D"/><use xlink:href="#D" x="20.322"/><use xlink:href="#D" x="40.63"/><path d="M988.88 343.111H520.823c-9.804 0-17.752 7.883-17.752 17.606v1.856c0 9.725 7.948 17.607 17.752 17.607H988.88c9.805 0 17.752-7.882 17.752-17.607v-1.856c0-9.723-7.947-17.606-17.752-17.606z"/></g><path d="M988.88 343.111h-38.917v37.056h38.917c4.705 0 9.225-1.855 12.546-5.156a17.52 17.52 0 0 0 5.206-12.45v-1.843a17.52 17.52 0 0 0-5.206-12.45c-3.321-3.302-7.841-5.156-12.546-5.156z" class="k"/><path d="M964.46 371.423c-.082-.091-.145-.197-.184-.312a.94.94 0 0 1-.047-.361.94.94 0 0 1 .097-.349.93.93 0 0 1 .227-.285l7.393-6.653a.83.83 0 0 1 .624-.222c.113.008.225.038.327.09a.83.83 0 0 1 .262.21l.936 1.111a.91.91 0 0 1 .187.311c.041.115.058.238.051.359a.97.97 0 0 1-.094.35c-.055.108-.13.207-.224.286l-7.446 6.627a.83.83 0 0 1-.626.21.87.87 0 0 1-.324-.091.85.85 0 0 1-.262-.21zm16.262-20.976a8.37 8.37 0 0 1 2.636.444 8.2 8.2 0 0 1 4.362 3.541c.988 1.653 1.357 3.6 1.054 5.498-.316 1.898-1.305 3.623-2.768 4.875a8.31 8.31 0 0 1-5.285 1.967c-.897-.008-1.787-.158-2.636-.444-1.846-.621-3.409-1.872-4.412-3.529a8.1 8.1 0 0 1-1.063-5.521 8.14 8.14 0 0 1 2.791-4.892 8.26 8.26 0 0 1 5.32-1.938zm0 2.209c-1.415.008-2.781.511-3.859 1.421a5.95 5.95 0 0 0-2.031 3.55c-.235 1.383.03 2.805.749 4.014a6.01 6.01 0 0 0 3.177 2.596 6.42 6.42 0 0 0 1.964.327c1.252.001 2.465-.384 3.492-1.103a5.98 5.98 0 0 0 2.188-2.91 5.69 5.69 0 0 0 .316-2.302c-.04-.78-.25-1.544-.593-2.247a6.04 6.04 0 0 0-1.41-1.85 5.98 5.98 0 0 0-2.029-1.17h0c-.633-.22-1.292-.331-1.964-.327z" class="j"/><g fill="#b2b6bb"><use xlink:href="#E"/><use xlink:href="#E" x="10.767"/><use xlink:href="#E" x="21.521"/><use xlink:href="#E" x="32.288"/><use xlink:href="#E" x="43.042"/><use xlink:href="#E" x="53.809"/></g><g class="j"><use xlink:href="#F"/><use xlink:href="#G"/><use xlink:href="#G" x="55.654"/><use xlink:href="#F" x="166.962"/><path d="M833.555 259.184h-.013c-7.045 0-12.757 5.665-12.757 12.653v31.109c0 6.988 5.712 12.653 12.757 12.653h.013c7.045 0 12.757-5.665 12.757-12.653v-31.109c0-6.988-5.712-12.653-12.757-12.653zm48.722 19.255h-5.008c-7.045 0-12.757 5.665-12.757 12.653v11.842c0 6.988 5.712 12.653 12.757 12.653h5.008c7.045 0 12.757-5.665 12.757-12.653v-11.842c0-6.988-5.712-12.653-12.757-12.653z"/><use xlink:href="#H"/></g><path d="M908.2 442.688H692.872v4.157H908.2zm0 14.051H692.872v4.157H908.2zm0 14.051H692.872v4.157H908.2zm-76.437 14.052H692.872v4.157h138.891z" class="n"/><path d="M672.629 433.811h-88.943v64.047h88.943z" class="u"/><path d="M583.686 479.847l26.239-14.834 18.305 10.221 28.796-19.673 15.604 12.484v29.815h-88.785zm38.126-32.991c0 1.508-.451 2.981-1.295 4.235a7.67 7.67 0 0 1-3.45 2.806 7.74 7.74 0 0 1-4.441.431 7.7 7.7 0 0 1-3.934-2.089 7.6 7.6 0 0 1-2.099-3.906 7.56 7.56 0 0 1 .443-4.404 7.63 7.63 0 0 1 2.835-3.417 7.72 7.72 0 0 1 4.273-1.278c2.036.004 3.987.808 5.424 2.236a7.59 7.59 0 0 1 2.246 5.384z" fill="#06f"/><use xlink:href="#H" y="92.803" class="j"/><path d="M908.2 535.491H692.872v4.157H908.2zm0 14.051H692.872v4.157H908.2zm0 14.052H692.872v4.157H908.2zm-76.437 14.051H692.872v4.157h138.891z" class="n"/><path d="M672.629 526.615h-88.943v64.047h88.943z" class="u"/><path d="M644.2 562.385c2.119-8.805-3.358-17.647-12.236-19.749s-17.793 3.33-19.912 12.135 3.358 17.647 12.235 19.75 17.793-3.332 19.913-12.136z" class="n"/><path d="M633.712 558.64l-4.309 2.47-4.323 2.47v-4.941-4.941l4.323 2.47z" fill="#d40000"/><use xlink:href="#I" class="k"/><use xlink:href="#I" class="i l"/><path d="M1063.182 771.995l85.438 59.12 76.516-108.776-63.429-43.892-36.584 5.503z" class="n"/><path d="M1161.706 678.446l-36.584 5.503 21.995 15.228zm42.344 56.337l-47.509-32.868-1.964 2.798 47.509 32.867zm-4.969 7.069l-47.496-32.868-1.964 2.798 47.496 32.868zm-4.928 7.043l-47.509-32.868-1.964 2.798 47.496 32.867zm-4.982 7.054l-69.597-48.154-1.964 2.798 69.597 48.153zm-4.968 7.045l-69.597-48.153-1.964 2.797 69.597 48.154zm-4.942 7.036l-69.597-48.153-1.964 2.797 69.597 48.154zm-4.969 7.069l-69.597-48.153-1.977 2.797 69.597 48.154zm-4.942 7.043l-69.597-48.154-1.977 2.798 69.597 48.153zm-4.968 7.039l-69.597-48.154-1.964 2.798 69.597 48.153zm-4.969 7.066l-69.597-48.154-1.964 2.798 69.584 48.154zm-4.955 7.047l-69.597-48.154-1.964 2.798 69.597 48.153zm-4.968 7.045l-69.597-48.153-1.964 2.797 69.597 48.154z" class="l i"/><use xlink:href="#J" class="k"/><path d="M730.537 820.527l-112.349 26.325c-.407.094-.836.024-1.191-.194a1.57 1.57 0 0 1-.706-.97l-34.265-143.911a1.54 1.54 0 0 1-.026-.606 1.55 1.55 0 0 1 .212-.569 1.54 1.54 0 0 1 .416-.443 1.55 1.55 0 0 1 .557-.251l84.173-19.724 36.387 21.044 27.965 117.416a1.56 1.56 0 0 1-.195 1.182c-.22.353-.572.604-.978.701z" class="n"/><g fill="#111e30" fill-opacity=".95"><path d="M667.358 680.185l36.387 21.044-28.189 6.601c-.407.094-.836.025-1.191-.193s-.609-.566-.706-.97z" class="l"/><path opacity=".1" d="M611.774 828.389l116.343-27.257 4.292 18.026a1.24 1.24 0 0 1-.931 1.494l-113.907 26.686a1.27 1.27 0 0 1-.488.017 1.25 1.25 0 0 1-.459-.17 1.23 1.23 0 0 1-.357-.329 1.25 1.25 0 0 1-.203-.442z"/></g><path d="M659.688 781.445l-5.812-.196-1.516-49.316 5.812.196zm-15.604-5.621l-23.827-9.986 16.381-20.861 4.586 3.542-11.729 14.94 16.856 7.045zm31.247-7.319l-4.428-3.751 11.887-13.791-17.211-8.142 2.504-5.202 24.051 11.383z" class="j"/><use xlink:href="#I" class="k"/><use xlink:href="#I" class="i l"/><use xlink:href="#J" class="k"/><path d="M337.876 849.989l34.976-.105-5.469 49.669h-29.599z" class="o"/><path d="M337.876 899.856l.105-35.187 33.355-.105-.514 4.222-21.284 3.215a4.23 4.23 0 0 0-2.538 1.307 4.17 4.17 0 0 0-1.112 2.614l-.712 15.28z" class="i p"/><path d="M337.151 888.496l-.105 2.915a22.05 22.05 0 0 1-1.318 7.241l-3.651 10.156a27.12 27.12 0 0 0-1.516 8.94v.51c.017.495.133.983.341 1.433a3.74 3.74 0 0 0 .874 1.192c.368.336.8.595 1.269.765a3.82 3.82 0 0 0 1.469.218h36.387a3.86 3.86 0 0 0 2.72-1.002 3.79 3.79 0 0 0 1.234-2.605v-1.307a25.56 25.56 0 0 0-1.212-7.751l-3.15-10.352a20.47 20.47 0 0 1-1.015-6.535v-3.817a9.38 9.38 0 0 0-2.636-6.444l-.501-.601c-3.342-3.373-7.894-5.298-12.662-5.354a18.13 18.13 0 0 0-12.786 5.053l-.909.902c-1.692 1.741-2.698 4.029-2.833 6.444z" class="k"/><path opacity=".6" d="M330.561 915.436h44.188c.087.499.123 1.008.105 1.516v1.307c-.017.495-.133.983-.341 1.433a3.74 3.74 0 0 1-.874 1.192c-.368.336-.8.595-1.269.763a3.8 3.8 0 0 1-1.469.22h-36.387a3.85 3.85 0 0 1-2.72-1.003 3.79 3.79 0 0 1-1.234-2.605z" class="i"/><path d="M361.202 890.105c.09-.218.099-.46.024-.684a.98.98 0 0 0-.432-.532 17.24 17.24 0 0 0-15.103 0 .91.91 0 0 0-.46.519c-.078.228-.062.475.045.69a.91.91 0 0 0 1.219.412 15.69 15.69 0 0 1 13.39 0c.119.074.257.105.395.091a1.12 1.12 0 0 0 .526-.129c.162-.087.298-.214.397-.367zm0 4.625a.97.97 0 0 0 .024-.683c-.075-.222-.228-.412-.432-.532a17.24 17.24 0 0 0-15.102 0 .91.91 0 0 0-.286.213.89.89 0 0 0-.179.308.87.87 0 0 0-.042.353.88.88 0 0 0 .099.341.86.86 0 0 0 .212.283.85.85 0 0 0 .308.176c.113.036.233.049.353.038a.9.9 0 0 0 .339-.105 15.69 15.69 0 0 1 13.39 0c.092.105.303.105.395.105a1.12 1.12 0 0 0 .526-.13c.161-.086.298-.213.397-.367zm0 4.524c.09-.218.099-.46.024-.684a.98.98 0 0 0-.432-.532 17.24 17.24 0 0 0-15.103 0 .91.91 0 0 0-.46.519c-.078.227-.062.474.045.69a.91.91 0 0 0 .523.456.92.92 0 0 0 .696-.044c2.091-.987 4.378-1.498 6.695-1.498a15.69 15.69 0 0 1 6.695 1.498.63.63 0 0 0 .395.091 1.12 1.12 0 0 0 .526-.13c.161-.086.298-.214.397-.367z" class="j"/><path d="M444.334 852.289l34.344-.091.87 19.606a16.54 16.54 0 0 0 2.014 7.219 16.69 16.69 0 0 0 4.997 5.617l25.185 17.842-63.126-1.543z" class="o"/><path d="M466.896 893.046l9.054 3.568-27.53 2.993-3.018-33.187h33.659l.198 3.921-20.137 2.902c-1.045.152-1.991.697-2.644 1.521a4.07 4.07 0 0 0-.862 2.91v.392c.302 3.286 1.517 6.426 3.508 9.069s4.681 4.69 7.773 5.911z" class="i p"/><path d="M447.931 887.164l13.429 4.143c.962.295 1.983.345 2.969.144a5.99 5.99 0 0 0 2.671-1.294l10.543-8.98c1.156-.989 2.623-1.55 4.149-1.586s3.018.455 4.22 1.389l23.933 18.43 18.872 6.183c2.714.901 5.073 2.622 6.749 4.923s2.583 5.062 2.595 7.9c-.004.793-.323 1.552-.888 2.112a3.04 3.04 0 0 1-2.13.881h-83.606a7.3 7.3 0 0 1-2.758-.536 7.21 7.21 0 0 1-2.338-1.546c-.668-.664-1.198-1.452-1.559-2.319s-.544-1.797-.54-2.736v-24.416a2.84 2.84 0 0 1 .318-1.264 2.86 2.86 0 0 1 .853-.992c.357-.261.771-.437 1.208-.512s.886-.05 1.311.076z" class="k"/><path opacity=".6" d="M444.334 915.423h93.385c.279.972.413 1.981.395 2.993-.004.792-.323 1.552-.888 2.112a3.04 3.04 0 0 1-2.13.881h-83.659a7.23 7.23 0 0 1-4.659-1.702c-1.301-1.097-2.167-2.614-2.445-4.285z" class="i"/><path d="M486.071 890.535l5.047-5.398c.141-.14.221-.331.221-.529a.75.75 0 0 0-.221-.529.76.76 0 0 0-1.067 0l-5.061 5.398a.75.75 0 0 0-.217.529.76.76 0 0 0 .705.726 1.33 1.33 0 0 0 .593-.196zm3.953 3.083l5.061-5.398a.75.75 0 0 0 0-1.059.76.76 0 0 0-1.067 0l-5.061 5.398c-.14.142-.217.332-.217.529a.75.75 0 0 0 .217.529c.13.127.306.197.488.196a1.32 1.32 0 0 0 .58-.196zm4.02 3.112l5.061-5.411a.75.75 0 0 0 .217-.528.76.76 0 0 0-.217-.531.78.78 0 0 0-1.08 0l-5.047 5.398a.77.77 0 0 0-.219.537c0 .2.079.391.219.535.136.117.308.183.488.184.21.011.415-.055.58-.184z" class="j"/><path d="M466.566 508.956l15.696 357.411h-38.363l-33.804-287.259a3.91 3.91 0 0 0-1.309-2.481c-.729-.639-1.671-.989-2.645-.983a3.97 3.97 0 0 0-2.628 1.034 3.91 3.91 0 0 0-1.26 2.508l-28.545 287.181h-37.876l4.81-347.856z" fill="#4d4d4d"/><path d="M354.613 517.452L344.32 866.367h-8.513l4.81-347.856zm51.595 58.219a3.97 3.97 0 0 1 2.644.982 3.91 3.91 0 0 1 1.31 2.482L443.9 866.368h10.543L422.457 583.03c-1.595-11.437-16.249-7.359-16.249-7.359z" class="i m"/><path d="M498.09 284.934l-60.464-46.742 15.498-16.273s76.582 37.396 93.398 63.015l-17.198 12.823zM274.618 485.558l25.461 70.321 18.78-5.215-10.174-71.066z" class="o"/><path d="M390.498 300.697l37.256-.235s22.404-5.647 31.787-6.81l38.548-8.758s35.108 6.941 48.406 0c0 0 7.657 18.639-12.388 28.521l-80.983 40.154 3.519 23.266s12.151 92.503 15.169 170.824a1.66 1.66 0 0 1-.434 1.189c-.295.325-.708.523-1.148.549l-131.577 9.686a1.72 1.72 0 0 1-.669-.086 1.69 1.69 0 0 1-.582-.337 1.7 1.7 0 0 1-.405-.535 1.71 1.71 0 0 1-.162-.65l-5.641-122.5-18.753-44.193-5.865 54.649 4.692 33.723-39.365 6.888-8.869-36.442c-.669-2.762-.887-5.613-.646-8.444l7.815-93.405s0-23.266 16.421-31.37l57.024-17.724z" class="k"/><g class="i"><path d="M373.709 866.368l.554-6.379h-38.311l-.145 6.379zm69.531-6.379h38.719l.303 6.379h-38.324z" class="m"/><path d="M401.938 242.191a13.56 13.56 0 0 0 9.02-5.053c2.213-2.805 3.21-6.366 2.775-9.9s-2.268-6.752-5.095-8.946-6.418-3.184-9.982-2.753c-.409 0-1.516-.144-1.318.248 3.914 11.372 1.608 26.638 4.599 26.403z"/></g><path d="M343.648 298.647c0 .68 25.791 17.11 37.349 14.809 5.865-1.163 9.634-12.051 9.502-12.718l-3.163-18.025v-9.346c.54-2.157 3.137-4.196 3.137-7.045.817-13.136 2.319-25.057 2.319-25.057s-43.292-28.756-46.02 4.745l-1.094 4.875z" class="o"/><path d="M360.253 279.784c3.137 3.137 7.077 5.777 14.787 6.248 5.904 3.464 9.594 3.451 12.994 3.046l-1.002-7.398c-3.69 3.921-19.201 4.941-25.764-2.941-.158-.248-.712-.209-.962 0a1.1 1.1 0 0 0-.053 1.045z" class="i p"/><path d="M396.179 200.248s21.824 77.471-14.497 84.203c-31.445 5.803-37.507-43.042-37.507-43.042l-.132-31.788 23.919-10.875z" class="o"/><g class="i"><path d="M387.23 219.867c-4.099-4.836-10.543-8.117-17.053-7.463-7.341.732-12.849 7.019-11.479 15.476l.29 1.869a3.27 3.27 0 0 1-.579 2.422c-.506.702-1.268 1.179-2.123 1.329h0a6.16 6.16 0 0 0-2.296.697 6.1 6.1 0 0 0-1.849 1.518c-.51.622-.891 1.338-1.12 2.107s-.303 1.574-.217 2.371l.593 5.529a1.22 1.22 0 0 1-.297.884c-.212.244-.513.396-.837.423 0 0-1.608.392-1.99-.928l-1.318-5.882 2.978-33.984 27.438-9.542 12.52 8.901z"/><path d="M344.65 248.334s1.977 6.47 3.519 3.49l-2.346 5.817z" class="p"/></g><path d="M388.64 266.714l-14.839-2.209a7.18 7.18 0 0 0 1.794 4.498c1.102 1.251 2.605 2.085 4.255 2.365 7.077 1.203 8.79-4.653 8.79-4.653z" class="j"/><path d="M372.378 239.264a3.01 3.01 0 0 0-1.622.638 2.98 2.98 0 0 0-.991 1.423c-.182.562-.191 1.165-.026 1.731s.494 1.073.948 1.453 1.012.62 1.603.686a3.03 3.03 0 0 0 1.716-.314 2.99 2.99 0 0 0 1.252-1.206c.287-.516.414-1.106.364-1.693a2.97 2.97 0 0 0-1.054-2.025 3.02 3.02 0 0 0-2.188-.694z" class="i"/><path d="M373.989 241.837a.54.54 0 0 0 .496-.578.54.54 0 0 0-.582-.491c-.298.025-.519.284-.494.578a.54.54 0 0 0 .581.491z" class="j"/><path d="M395.968 244.153c1.659 0 3.005-1.335 3.005-2.98s-1.346-2.98-3.005-2.98-3.005 1.333-3.005 2.98 1.346 2.98 3.005 2.98z" class="i"/><path d="M397.181 240.629c.297-.025.519-.282.494-.578s-.285-.515-.582-.49-.518.282-.494.576a.54.54 0 0 0 .582.491z" class="j"/><g class="i"><path opacity=".25" d="M386.69 258.374l-3.809.431c-.223-.01-.439-.084-.619-.214a1.12 1.12 0 0 1-.395-.518 1.17 1.17 0 0 1 .224-.608c.13-.178.308-.316.514-.399l3.809-.444a1.77 1.77 0 0 0 1.119-.65 1.74 1.74 0 0 0 .37-1.233c-.224-.941-1.107-1.686-1.911-1.477a1.19 1.19 0 0 1-.613-.222c-.179-.129-.319-.306-.402-.51-.171-.392.343-.85.738-1.02.915-.099 1.833.15 2.567.699s1.231 1.355 1.386 2.255c.074.452.055.914-.055 1.359a3.38 3.38 0 0 1-.59 1.227c-.278.365-.629.671-1.029.898s-.845.371-1.303.423z"/><path d="M335.319 220.114c.395-8.601 4.362-15.306 11.716-17.528 3.114-.877 6.394-1.003 9.568-.366.286.069.584.078.874.03a2.17 2.17 0 0 0 .813-.316c.248-.158.459-.366.622-.609s.274-.516.327-.804c.478-2.864 1.903-5.487 4.05-7.458s4.896-3.179 7.811-3.43a12.85 12.85 0 0 1 6.003.89 12.75 12.75 0 0 1 4.909 3.541c.188.233.424.422.693.557s.561.212.862.225.601-.037.88-.146a2.12 2.12 0 0 0 .741-.491s8.144-7.581 20.15-1.49c4.05 2.193 7.136 5.798 8.66 10.118s1.378 9.046-.41 13.266c-3.888 9.424-15.643 13.071-23.564 6.797-3.342-2.798-5.478-6.76-5.97-11.071a21.66 21.66 0 0 1 .079-8.98l-3.809.314c-4.507.091-11.65-.157-18.253 1.307.158.118.29.105.435.235l-11.518 4.875s-1.133 31.37-3.057 31.226c-8.395-1.059-13.073-12.914-12.612-20.691z"/><path opacity=".16" d="M312.454 368.667a.61.61 0 0 1-.386-.148.59.59 0 0 1-.194-.362c-.787-6.299-2.836-12.378-6.028-17.881a47.71 47.71 0 0 0-12.554-14.156c-.065-.042-.119-.097-.162-.159s-.072-.135-.088-.209-.016-.152-.001-.226a.6.6 0 0 1 .087-.209c.042-.064.098-.118.161-.161s.136-.072.211-.088a.58.58 0 0 1 .228-.001.59.59 0 0 1 .211.086 48.86 48.86 0 0 1 12.903 14.513 48.48 48.48 0 0 1 6.193 18.348.57.57 0 0 1-.018.225.55.55 0 0 1-.104.201c-.049.059-.107.11-.174.146a.58.58 0 0 1-.217.068z"/><path d="M338.627 559.083l15.986-1.111-2.636-40.52-5.272-77.014a47.82 47.82 0 0 0-4.349-15.554l-26.951-56.78-4.692-10.457 1.054 3.66c2.397 8.301 2.874 17.031 1.397 25.541l-.685 3.921 18.753 44.193 5.641 122.5a1.69 1.69 0 0 0 .149.64 1.7 1.7 0 0 0 .95.877 1.69 1.69 0 0 0 .654.103zm114.497-205.515l81.01-40.115c20.045-9.882 12.388-28.521 12.388-28.521a22.34 22.34 0 0 1-5.456 1.882h0c2.359 15.816-25.501 26.625-25.501 26.625l-67.212 24.992z" class="m"/><path opacity=".16" d="M453.124 354.157a.61.61 0 0 1-.351-.119.59.59 0 0 1-.216-.299c0-.209-6.458-21.515-8.751-26.063a.6.6 0 0 1-.088-.229c-.013-.082-.008-.166.014-.246a.56.56 0 0 1 .113-.218.59.59 0 0 1 .192-.153c.075-.037.157-.059.24-.061a.59.59 0 0 1 .451.176.6.6 0 0 1 .132.208c2.333 4.64 8.566 25.371 8.83 26.259a.59.59 0 0 1-.395.719zM392.963 466.5a.58.58 0 0 1-.358-.119.56.56 0 0 1-.208-.312.58.58 0 0 1 .062-.434.59.59 0 0 1 .347-.272c.25-.065 24.473-6.732 35.833-27.449a.6.6 0 0 1 .355-.277.61.61 0 0 1 .449.042.62.62 0 0 1 .275.353.61.61 0 0 1-.038.444c-11.624 21.188-36.321 27.972-36.571 28.037zm-99.302-20.481a.58.58 0 0 1-.54-.353.6.6 0 0 1 .001-.448c.059-.144.171-.259.315-.323 4.257-1.791 12.915-.105 13.284 0a.6.6 0 0 1 .456.46.57.57 0 0 1-.253.594.59.59 0 0 1-.212.085.58.58 0 0 1-.228-.003c-.079 0-8.658-1.686-12.586 0a.5.5 0 0 1-.237-.013z"/></g><path opacity=".5" d="M379.679 314.762s14.273 36.912 18.16 53.904" stroke-width="5.25" class="r t"/><path opacity=".1" d="M382.169 225.081s-3.795 9.895 19.768 6.692l-.527-4.13-8.711-4.889z" class="i"/><g fill="#21252b"><path d="M443.556 557.763a64.39 64.39 0 0 0-37.06-1.54c-12.234 3.133-23.258 9.794-31.676 19.141s-13.852 20.959-15.616 33.369.221 25.06 5.705 36.35 14.223 20.715 25.107 27.08a64.3 64.3 0 0 0 36.044 8.683c12.616-.703 24.738-5.103 34.834-12.641s17.71-17.874 21.882-29.704a62.89 62.89 0 0 0 3.482-24.484c-.472-8.309-2.588-16.444-6.231-23.942s-8.738-14.211-14.995-19.754-13.556-9.812-21.476-12.559zm-38.891 110.305c-10.069-3.491-18.867-9.865-25.283-18.316s-10.161-18.599-10.762-29.16a53.13 53.13 0 0 1 7.387-30.177c5.416-9.113 13.436-16.429 23.044-21.021s20.376-6.256 30.937-4.779 20.444 6.026 28.399 13.074a53.41 53.41 0 0 1 16.29 26.518 53.07 53.07 0 0 1-1.311 31.026c-4.721 13.39-14.611 24.371-27.495 30.528a54.34 54.34 0 0 1-41.206 2.306z"/><path d="M282.862 557.554l84.846 29.543-4.642 13.11-84.845-29.543a4.72 4.72 0 0 1-1.575-.923 4.64 4.64 0 0 1-1.098-1.451 4.63 4.63 0 0 1-.455-1.757 4.6 4.6 0 0 1 .257-1.796l1.535-4.337a4.67 4.67 0 0 1 2.393-2.651 4.73 4.73 0 0 1 3.582-.196z"/></g><path d="M422.457 673.975c31.406 0 56.866-25.252 56.866-56.401s-25.46-56.401-56.866-56.401-56.866 25.252-56.866 56.401 25.46 56.401 56.866 56.401z" class="i m"/><path d="M368.529 617.575l76.687-48.258s19.043 9.254 27.254 27.867l-95.203 49.16s-9.476-14.182-8.738-28.769zm15.986 37.748l91.895-45.683s.672 13.162-2.24 22.443l-75.593 33.697c-.29.261-9.963-5.843-14.062-10.457z" class="j m"/><path d="M434.924 214.677l-5.522-1.555-14.365-4.313-12.638 2.118c-.303.112-.555.332-.705.617a1.29 1.29 0 0 0-.112.925c.369 1.399 1.318 3.451 4.059 2.51l-9.37.693c-.341.034-.664.17-.924.393s-.443.519-.526.848l-.224.85c-.329 1.307 3.044 2.614 4.454 2.614h.738l-8.316.34c-.194.063-.372.163-.523.298a1.47 1.47 0 0 0-.36.48c-.086.183-.132.38-.136.582s.033.403.109.588c.435 1.059 1.015 2.314 1.423 2.457s-5.878.784-8.289.993c-.121.01-.239.046-.344.107s-.194.146-.26.248-.108.216-.123.336 0 .24.041.354c.514 1.451 2.385 3.987 9.133 3.921 9.423-.105 12.981-1.686 12.981-1.686l7.512 1.987-.369 4.483-10.214-.157.461 5.686c1.502.706 13.179 1.987 13.179 1.987s15.815.235 20.045-1.804 7.367-3.699 7.367-3.699l11.716-15.123z" class="o"/><path d="M413.851 229.8s8.184-4.719 11.69-10.535m-22.852 16.862l14.365.261s6.299-6.862 12.968-5.307m-37.23-5.214s9.845-.196 13.68-2.81c0 0 2.082 2.614 7.38 2.431m-14.102-5.059a58.34 58.34 0 0 0 9.963-1.738 13.93 13.93 0 0 0 8.052 3.228m-13.258-6.496a22.76 22.76 0 0 0 8.869-1.425l6.326 2.902" stroke-width=".879" class="p r t v"/><path d="M318.424 550.142l8.645 14.639 5.403 12.6-8.158-2.013s-3.492 16.548-4.863 16.992-5.272-.915-4.889-4.091c-.573.558-1.269.98-2.031 1.231a5.32 5.32 0 0 1-2.371.22c-2.451-.51-3.044-2.078-2.768-5.098 0 0-1.16 2.287-4.56.863-2.069-.863-1.555-3.921-1.555-3.921s-3.716.314-4.23-1.595c-.535-3.128-.602-6.317-.198-9.463l2.214-10.587.843-6.836z" class="o"/><path d="M301.278 581.55a31.41 31.41 0 0 0 1.226-6.535m4.771 9.452c.799-2.483 1.317-5.049 1.542-7.646m5.745 11.435a56.5 56.5 0 0 0 1.832-9.555" stroke-width=".866" class="p r t v"/><g class="i"><path d="M281.866 484.293l20.638 69.903-3.954 17.097v9.96s-1.581.523-1.74-3.398l-.145-5.503.448-2.902 2.636-14.456-25.119-69.433z" class="p"/><path d="M270.203 347.753l-7.841 93.392a26.34 26.34 0 0 0 .646 8.442l8.856 36.442 10.003-1.75-10.543-38.273 7.683-108.147s.369-13.986 9.568-22.103l-1.937.6c-16.434 8.143-16.434 31.398-16.434 31.398z" class="m"/><path d="M404.455 234.127h-12.836-1.779-11.202-14.615a4.26 4.26 0 0 0-2.999 1.22c-.799.784-1.251 1.85-1.257 2.963v3.242c0 3.038 1.216 5.95 3.382 8.097s5.101 3.353 8.163 3.353 5.998-1.206 8.163-3.353 3.382-5.06 3.382-8.097v-3.255a3.47 3.47 0 0 0-.896-2.549h4.52a3.54 3.54 0 0 0-.709 1.218 3.49 3.49 0 0 0-.174 1.396v3.255c0 3.038 1.216 5.95 3.382 8.097s5.101 3.353 8.163 3.353 5.998-1.206 8.163-3.353 3.382-5.06 3.382-8.097v-3.255a4.42 4.42 0 0 0-1.293-2.925 4.51 4.51 0 0 0-2.938-1.31zm-23.102 4.3v3.255a9.73 9.73 0 0 1-3.005 6.673 9.89 9.89 0 0 1-13.666 0 9.73 9.73 0 0 1-3.005-6.673v-3.255a2.6 2.6 0 0 1 .77-1.745 2.65 2.65 0 0 1 1.761-.765h14.615c.644.077 1.243.367 1.701.822a2.86 2.86 0 0 1 .829 1.687zm25.646 3.346c-.094 2.527-1.17 4.919-3.006 6.673a9.89 9.89 0 0 1-13.665 0 9.73 9.73 0 0 1-3.005-6.673v-3.255a2.53 2.53 0 0 1 .743-1.762 2.57 2.57 0 0 1 1.774-.748h1.779 12.836a2.56 2.56 0 0 1 1.776.739 2.53 2.53 0 0 1 .754 1.758z"/></g><use xlink:href="#K" class="k"/><g class="i"><use xlink:href="#K" opacity=".5"/><path opacity=".5" d="M270.308 479.597l40.077-6.535.857 6.091-39.378 6.888zm277.413-189.501l-1.226-5.163c-13.297 6.941-48.406 0-48.406 0l-6.748 1.386a94.69 94.69 0 0 0 56.379 3.777z"/></g><g class="j"><use xlink:href="#L"/><use xlink:href="#L" x="6.589" y="18.3"/><use xlink:href="#L" x="11.861" y="33.985"/><use xlink:href="#L" x="17.132" y="48.363"/></g><path d="M440.13 240.14l10.622-19.044 5.733 2.51-12.059 19.842z" fill="#21252b"/><path opacity=".7" d="M382.947 278.477a48.29 48.29 0 0 0-13.324-1.529c-2.807 0-5.192-1.451-7.393-3.189-10.583-8.352-11.9-35.801-11.9-35.801l-2.016 14.809c3.334 16.561 12.559 35.54 33.382 31.697 8.026-1.49 13.179-6.444 16.421-13.228l1.674-4.928a31.12 31.12 0 0 1-7.775 10.025 9.69 9.69 0 0 1-4.255 2.226 9.75 9.75 0 0 1-4.812-.082z" class="i"/><path d="M346.745 237.54c-.225-.778-.619-1.495-1.154-2.106a5.57 5.57 0 0 0-1.943-1.425 5.61 5.61 0 0 0-4.718.08c-6.906 2.614-4.52 16.678 5.14 19.162 5.944.732 4.837-2.706 4.046-7.398z" class="o"/><g class="i"><path opacity=".25" d="M338.469 238.073c.47-.365 1.02-.617 1.605-.735a3.89 3.89 0 0 1 1.769.055 4.29 4.29 0 0 1 1.464.804 4.26 4.26 0 0 1 1.04 1.301 7.15 7.15 0 0 1 .883 4.143l.105 1.216a.69.69 0 0 1-.017.323.7.7 0 0 1-.162.281.71.71 0 0 1-.274.176.7.7 0 0 1-.324.034.71.71 0 0 1-.304-.115c-.09-.061-.165-.144-.217-.24a.68.68 0 0 1-.086-.312.69.69 0 0 1 .067-.316l-.105-1.216a9.2 9.2 0 0 0-.685-3.477 3.54 3.54 0 0 0-1.634-1.49 3.28 3.28 0 0 0-2.161.444.85.85 0 0 1-.521.06c-.175-.035-.335-.124-.455-.256-.369.026-.264-.392.013-.68z"/><path opacity=".7" d="M372.43 262.061c2.254-1.307 9.66-.784 9.66-.784s7.301 1.425 9.12 3.255a3.51 3.51 0 0 1 1.067 1.735c.175.669.148 1.375-.079 2.03 0 0-.738-2.497-2.24-2.392-.751 0-6.589-.274-7.907-1.882a.49.49 0 0 0-.659-.091c-1.647 1.189-7.367-.157-8.118-.222-1.16-.091-2.754 1.464-2.754 1.464a3.12 3.12 0 0 1 .456-1.857 3.17 3.17 0 0 1 1.455-1.253z"/></g><path d="M1288.512 363.439l-15.076 5.49-15.09 5.451-.633 14.979c-.659 15.986 6.286 30.063 20.111 40.075 7.459 5.411 15.34 9.372 20.796 7.385s8.856-10.065 11.004-18.979c3.954-16.548.079-31.71-10.872-43.461l-10.266-10.993z" class="k"/><path d="M1288.552 363.438l-15.076 5.503-15.129 5.516-.619 14.979c-.672 15.986 6.273 30.063 20.098 40.075 7.459 5.411 15.353 9.372 20.796 7.385s8.869-10.065 11.004-18.979c3.954-16.548.079-31.71-10.872-43.461l-10.253-11.006z" class="i l"/><g class="j"><path d="M1285.652 364.431l-12.217 4.444-12.204 4.457-.501 12.13c-.54 12.94 5.087 24.312 16.276 32.442 6.049 4.392 12.428 7.594 16.842 5.986s7.169-8.156 8.909-15.371c3.216-13.398 0-25.671-8.803-35.187z" class="l"/><path d="M1282.78 365.478l-9.344 3.398-9.331 3.412-.382 9.267c-.409 9.908 3.954 18.613 12.454 24.835 4.613 3.359 9.502 5.803 12.876 4.575s5.482-6.235 6.813-11.764c2.464-10.248 0-19.606-6.734-26.913z" class="l"/><path d="M1279.907 366.521l-6.471 2.353-6.458 2.366-.264 6.418a19.52 19.52 0 0 0 2.056 9.708 19.67 19.67 0 0 0 6.563 7.48c3.202 2.327 6.589 4.026 8.922 3.176s3.795-4.326 4.718-8.143c.883-3.238.909-6.645.092-9.9-.804-3.253-2.451-6.248-4.757-8.7l-4.402-4.719z"/></g><path d="M1284.796 308.671l34.647 20.508a1.4 1.4 0 0 1 .606.706l7.196 19.423c.026.069.04.144.026.218a.31.31 0 0 1-.079.207.4.4 0 0 1-.158.144.49.49 0 0 1-.224.046l-26.358-.327z" class="k"/><path d="M1289.277 311.324l14.339 38.664-3.097-.392-15.722-40.925z" class="i l"/><path d="M1227.574 329.545l-12.994 37.906a1.25 1.25 0 0 0 0 .928l7.196 19.423c.026.07.066.132.119.182a.6.6 0 0 0 .198.103.47.47 0 0 0 .224 0 .41.41 0 0 0 .198-.102l19.768-17.149z" class="k"/><path d="M1225.636 334.539l14.352 38.677 2.109-2.3-14.773-41.278z" class="i l"/><path d="M1217.347 217.895c-4.692 1.752-8.737 16.992-9.093 40.141-.237 13.622 1.726 27.195 5.812 40.206l32.947 86.555 22.997-8.614 13.324-4.993 22.997-8.627-29.916-78.53c-2.912-7.683-6.563-15.071-10.899-22.064a154.64 154.64 0 0 0-14.602-19.933c-15.221-17.371-28.901-25.906-33.593-24.142" fill="#b2b6bb"/><path d="M1217.347 217.893c-3.677 1.229-6.879 10.797-8.316 25.71l31.326-12.378c-11.004-10.47-18.279-14.914-23.01-13.332z" class="k"/><path opacity=".09" d="M1301.441 350.729l-59.001 21.529.329.895 59.001-21.529zm.672 1.802l-59.001 21.529.343.895 58.988-21.529zm.659 1.795l-58.988 21.529.329.895 59.001-21.529zm.672 1.794l-59.001 21.529.329.895 59.001-21.529zm.659 1.778l-59.001 21.528.329.897 59.001-21.529zm.659 1.795l-59.001 21.528.343.897 58.988-21.529zm.672 1.789l-58.988 21.529.329.895 58.988-21.529z" class="i"/><path d="M1263.842 329.101l11.413 30.73m-21.482-74.466l15.498 41.748" class="m r t w"/><path d="M1251.151 292.928a18.73 18.73 0 0 0 3.729-26.378c-6.313-8.307-18.213-9.964-26.595-3.702-8.369 6.261-10.042 18.072-3.73 26.378s18.226 9.964 26.595 3.702z" class="j"/><path d="M1246.841 297.01c-4.652 1.706-9.765 1.674-14.391-.086a20.34 20.34 0 0 1-10.767-9.484c-2.306-4.353-2.939-9.389-1.779-14.17s4.033-8.982 8.079-11.817 9.001-4.111 13.93-3.592c4.942.52 9.502 2.801 12.862 6.418s5.285 8.321 5.403 13.237a20.18 20.18 0 0 1-4.744 13.483h0c-2.28 2.714-5.245 4.787-8.592 6.013zm-13.179-35.291c-2.53.916-4.823 2.4-6.682 4.336a17.27 17.27 0 0 0-4.059 6.824c-.804 2.553-1.002 5.257-.593 7.9.422 2.643 1.45 5.155 3.005 7.341a17.49 17.49 0 0 0 5.97 5.261 17.68 17.68 0 0 0 7.71 2.094c2.688.101 5.377-.416 7.841-1.508s4.639-2.736 6.352-4.798h0a17.41 17.41 0 0 0 3.993-9.3 17.31 17.31 0 0 0-1.898-9.929 17.48 17.48 0 0 0-7.143-7.21c-3.044-1.65-6.524-2.365-9.976-2.056a18.1 18.1 0 0 0-4.52.993z" class="k"/><g class="r t w"><use xlink:href="#M" class="m"/><use xlink:href="#M" x="4.994" y="13.449" class="m"/><use xlink:href="#M" x="18.055" y="32.088" class="m"/><path d="M1277.824 350.275a1.44 1.44 0 0 0 1.45-1.436c0-.795-.646-1.439-1.45-1.439s-1.45.644-1.45 1.439a1.44 1.44 0 0 0 1.45 1.436zm-46.073-9.462l57.222-20.887" class="m"/></g><path d="M1079.879 79.46l-10.635 96.607 15.828-13.96 13.495 14.417-3.545-94.855zm35.412-8.639l54.613 80.674-20.546-5.085-5.206 18.992-41.249-85.654z" class="n"/><path d="M1092.017 101.198c26.437 0 47.879-21.261 47.879-47.487s-21.442-47.487-47.879-47.487-47.878 21.26-47.878 47.487 21.442 47.487 47.878 47.487z" class="k"/><path d="M1123.923 83.603c-.817 1.623-1.502 3.306-2.069 5.032-.883 2.614-1.726 5.006-3.137 5.986s-3.954.863-6.497.823h-1.792l3.624 7.529a15.46 15.46 0 0 0 9.001-2.183c3.413-2.366 4.771-6.235 5.944-9.659zm-28.229 15.999l-1.068.654c-2.175 1.307-4.415 2.706-5.996 2.614s-3.703-1.778-5.799-3.542a31.6 31.6 0 0 0-4.758-3.529l-.936 8.575.804.68c2.794 2.34 5.957 4.993 10.134 5.294a11 11 0 0 0 3.427-.301 18.58 18.58 0 0 0 4.507-1.869z" class="i l"/><path d="M1091.503 107.012a11.01 11.01 0 0 1-3.427.301c-4.178-.301-7.341-2.954-10.134-5.294a19.45 19.45 0 0 0-4.468-3.176 19.98 19.98 0 0 0-5.522-.863c-3.624-.261-7.723-.562-10.886-3.215s-4.125-6.535-4.995-10.038c-.343-1.85-.962-3.64-1.819-5.32a18.62 18.62 0 0 0-3.822-3.751c-2.82-2.353-6.009-5.006-7.024-9.15s.567-7.921 1.964-11.293a19.26 19.26 0 0 0 1.621-5.098 19.75 19.75 0 0 0-.87-5.542c-.857-3.49-1.832-7.437-.277-11.202s5.061-5.947 8.145-7.843a19.89 19.89 0 0 0 4.481-3.307c1.054-1.499 1.884-3.141 2.478-4.875 1.318-3.359 2.939-7.163 6.497-9.359s7.472-1.817 11.044-1.569a20.46 20.46 0 0 0 5.785-.078 21.07 21.07 0 0 0 5.166-2.614c3.044-1.869 6.497-3.987 10.543-3.699s7.341 2.954 10.121 5.307c1.239 1.392 2.794 2.481 4.52 3.181a12.26 12.26 0 0 0 5.482.857c3.611.261 7.723.562 10.886 3.202s4.112 6.535 4.982 10.038c.356 1.85.975 3.64 1.832 5.32a18.56 18.56 0 0 0 3.822 3.751c2.807 2.353 5.996 5.019 7.024 9.15s-.567 7.934-1.964 11.306c-.791 1.609-1.331 3.321-1.634 5.085.026 1.885.33 3.754.883 5.555.857 3.477 1.819 7.424.277 11.189s-5.061 5.947-8.144 7.843c-1.713.736-3.242 1.856-4.455 3.273a11.97 11.97 0 0 0-2.517 4.896c-1.318 3.359-2.926 7.163-6.484 9.359s-7.486 1.817-11.057 1.569a13.02 13.02 0 0 0-5.785.09 12.99 12.99 0 0 0-5.153 2.589c-2.175 1.498-4.586 2.652-7.117 3.425zM1068.44 14c-.356.085-.698.222-1.015.405-1.463.902-2.438 3.281-3.466 5.803-.857 2.472-2.109 4.792-3.703 6.875a25.36 25.36 0 0 1-6.273 4.849c-2.32 1.425-4.507 2.771-5.14 4.313s0 4.091.619 6.535a24.7 24.7 0 0 1 1.068 7.843 24.54 24.54 0 0 1-2.161 7.385c-1.054 2.549-2.056 4.941-1.621 6.666s2.425 3.385 4.547 5.15c2.082 1.563 3.901 3.436 5.39 5.555a25.63 25.63 0 0 1 2.728 7.463c.619 2.483 1.318 5.058 2.53 6.117s3.848 1.307 6.589 1.464a19.14 19.14 0 0 1 7.789 1.382 19 19 0 0 1 6.537 4.409c2.095 1.751 4.072 3.425 5.799 3.542s3.822-1.307 5.996-2.614a25.67 25.67 0 0 1 7.327-3.49c2.675-.518 5.417-.616 8.131-.288 2.543.183 5.179.366 6.589-.471s2.438-3.281 3.479-5.79a24.62 24.62 0 0 1 3.703-6.888 25.23 25.23 0 0 1 6.273-4.849c2.319-1.425 4.494-2.771 5.14-4.313s0-4.091-.633-6.535a25.52 25.52 0 0 1-1.068-7.843c.33-2.565 1.054-5.061 2.175-7.398 1.054-2.536 2.043-4.941 1.621-6.666s-2.438-3.385-4.547-5.15c-2.082-1.558-3.901-3.432-5.39-5.555-1.292-2.331-2.214-4.849-2.728-7.463-.633-2.483-1.318-5.058-2.53-6.117s-3.848-1.307-6.589-1.451c-2.662-.059-5.311-.536-7.828-1.412-2.385-1.111-4.586-2.593-6.51-4.392-2.095-1.752-4.059-3.412-5.785-3.542s-3.822 1.307-5.996 2.614a26.57 26.57 0 0 1-7.341 3.49 26.05 26.05 0 0 1-8.118.274 20.21 20.21 0 0 0-5.588.091z" class="k"/><path d="M1092.017 94.635c22.786 0 41.263-18.321 41.263-40.925s-18.477-40.925-41.263-40.925-41.263 18.323-41.263 40.925 18.477 40.925 41.263 40.925z" stroke-width="2.507" class="q r"/><path d="M1086.825 32.77l10.279 12.104 15.894-1.529-8.448 13.437 6.379 14.509-15.485-3.804-11.94 10.509-1.147-15.79-13.759-8.026 14.787-5.96z" class="u"/><path d="M180.89 462.96l-87.691 28.024c-.156.051-.32.071-.484.058s-.323-.056-.468-.131-.275-.176-.382-.301a1.24 1.24 0 0 1-.235-.423l-36.505-112.37c-.086-.315-.05-.651.101-.941a1.32 1.32 0 0 1 .716-.627l65.683-20.992 30.311 14.443 29.705 91.692a1.22 1.22 0 0 1-.049.938c-.14.294-.393.522-.702.63z" class="n"/><path d="M140.519 372.549L72.911 394.43l1.021 3.104 67.607-21.881zm3.332 10.853l-67.67 21.847 1.02 3.108 67.67-21.847zm3.248 9.95l-67.67 21.847 1.02 3.107 67.67-21.847zm3.269 9.932l-67.672 21.847 1.02 3.107 67.67-21.845zm3.259 9.945l-67.67 21.847 1.02 3.107 67.67-21.847zm3.274 9.945l-67.67 21.847 1.019 3.107 67.672-21.847zm3.256 9.937l-67.67 21.847 1.02 3.107 67.67-21.847zm3.213 8.964l-67.607 21.881 1.021 3.104 67.607-21.881z" class="j"/><use xlink:href="#N" class="n"/><use xlink:href="#N" class="i l"/><defs><path id="A" d="M1117.597 129.351H407.222c-3.122 0-5.654 2.511-5.654 5.607v513.268c0 3.096 2.532 5.607 5.654 5.607h710.375c3.123 0 5.654-2.511 5.654-5.607V134.959c0-3.096-2.53-5.607-5.654-5.607z"/><path id="B" d="M1110.032 129.222H399.658c-3.122 0-5.654 2.51-5.654 5.607v513.268c0 3.097 2.532 5.607 5.654 5.607h710.375c3.123 0 5.654-2.511 5.654-5.607V134.829c0-3.098-2.53-5.607-5.654-5.607z"/><path id="C" d="M1109.571 654.604H400.132c-5.627 0-7.051-1.307-7.051-6.797V135.114c0-5.477 1.423-6.797 7.051-6.797h709.439c5.627 0 7.051 1.307 7.051 6.797v512.693c0 5.464-1.423 6.797-7.051 6.797zM400.132 130.121c-4.613 0-5.192.51-5.192 4.993v512.693c0 4.47.58 4.993 5.192 4.993h709.439c4.599 0 5.192-.523 5.192-4.993V135.114c0-4.483-.593-4.993-5.192-4.993z"/><path id="D" d="M418.108 157.702c3.531 0 6.392-2.838 6.392-6.339s-2.861-6.339-6.392-6.339-6.392 2.839-6.392 6.339 2.861 6.339 6.392 6.339z"/><path id="E" d="M529.429 364.576c1.783 0 3.229-1.434 3.229-3.202s-1.446-3.202-3.229-3.202-3.229 1.434-3.229 3.202 1.446 3.202 3.229 3.202z"/><path id="F" d="M622.866 259.184h-11.94c-7.045 0-12.757 5.665-12.757 12.653v31.109c0 6.988 5.712 12.653 12.757 12.653h11.94c7.045 0 12.757-5.665 12.757-12.653v-31.109c0-6.988-5.712-12.653-12.757-12.653z"/><path id="G" d="M678.52 278.439h-11.94c-7.045 0-12.757 5.665-12.757 12.653v11.842c0 6.988 5.712 12.653 12.757 12.653h11.94c7.045 0 12.757-5.665 12.757-12.653v-11.842c0-6.988-5.712-12.653-12.757-12.653z"/><path id="H" d="M927.717 428.688H581.973c-2.322 0-4.204 1.867-4.204 4.17v65.956c0 2.303 1.882 4.17 4.204 4.17h345.745c2.322 0 4.204-1.867 4.204-4.17v-65.956c0-2.303-1.882-4.17-4.204-4.17z"/><path id="I" d="M1108.899 725.828l.659-9.699c.013-.166-.013-.335-.105-.477a.78.78 0 0 0-.382-.308l-26.529-8.261a.78.78 0 0 0-.58.086c-.171.102-.303.269-.356.464l-2.965 9.385-30.812 97.208c-.04.093-.053.192-.053.293a.72.72 0 0 0 .066.289.89.89 0 0 0 .185.242.71.71 0 0 0 .25.157l134.95 42.088a.77.77 0 0 0 .58-.091c.185-.104.303-.275.356-.471l30.562-96.438c.066-.191.066-.4-.026-.586-.079-.186-.237-.331-.422-.408l-104.903-32.677c-.158-.058-.29-.169-.382-.314-.079-.146-.119-.316-.092-.482z"/><path id="J" d="M1047.881 815.089l134.95 42.075a.81.81 0 0 0 .316.01.77.77 0 0 0 .303-.122.69.69 0 0 0 .224-.229.64.64 0 0 0 .119-.299l18.767-91.196c.053-.18.026-.373-.066-.537a.68.68 0 0 0-.409-.352l-107.156-33.436a.75.75 0 0 1-.356-.264c-.079-.122-.132-.267-.132-.416l-.435-9.306c0-.149-.053-.294-.132-.416a.77.77 0 0 0-.356-.264l-24.341-7.581a.82.82 0 0 0-.33-.008.78.78 0 0 0-.29.12.71.71 0 0 0-.224.229.65.65 0 0 0-.119.299l-20.743 100.79c-.053.174-.039.359.04.525s.211.298.369.376z"/><path id="K" d="M342.739 294.082s19.294 12.992 37.164 16.339c0 0 7.538-6.444 10.069-13.973l1.74 4.248c-1.754 6.515-5.496 12.331-10.714 16.652 0 0-27.069-6.431-39.404-18.09z"/><path id="L" d="M379.323 315.075c.727 0 1.318-.586 1.318-1.307s-.59-1.307-1.318-1.307-1.318.586-1.318 1.307.59 1.307 1.318 1.307z"/><path id="M" d="M1254.775 304.749a1.44 1.44 0 0 0 1.45-1.438c0-.793-.646-1.438-1.45-1.438s-1.45.644-1.45 1.438a1.44 1.44 0 0 0 1.45 1.438z"/><path id="N" d="M121.625 355.306l30.311 14.443-21.995 7.032a1.33 1.33 0 0 1-.95-.099 1.31 1.31 0 0 1-.631-.711z"/></defs></svg>