<svg xmlns="http://www.w3.org/2000/svg" xmlns:v="https://vecta.io/nano" xmlns:xlink="http://www.w3.org/1999/xlink" width="453.907" height="352.352"><style>.E{opacity:.65}.F{fill:#178bc4}.G{fill:#1a1a1a}.H{fill:#f4ad7d}</style><defs><linearGradient id="A" x1="83.153" x2="151.815" y1="193.097" y2="195.217" gradientUnits="userSpaceOnUse"><stop offset="0" stop-color="#010101" stop-opacity="0"/><stop offset=".95" stop-color="#010101"/></linearGradient><linearGradient id="B" x1="88.601" x2="185.844" y1="179.225" y2="183.765" gradientTransform="matrix(0.36112137,-0.69397807,0.73877198,0.33922552,-105.59214,119.76309)" xlink:href="#A"/><linearGradient id="C" x1="95.193" x2="256.549" y1="167.165" y2="151.378" gradientTransform="matrix(0.36112137,-0.69397807,0.73877198,0.33922552,-92.39407,118.51172)" xlink:href="#A"/><linearGradient id="D" x1="106.582" x2="341.064" y1="152.83" y2="137.558" gradientUnits="userSpaceOnUse"><stop offset="0" stop-color="#010101" stop-opacity="0"/><stop offset=".36" stop-color="#010101" stop-opacity=".36"/><stop offset=".95" stop-color="#010101"/></linearGradient><linearGradient id="E" x1="109.011" x2="237.116" y1="126.927" y2="125.889" gradientUnits="userSpaceOnUse"><stop offset="0" stop-color="#fff" stop-opacity="0"/><stop offset=".07" stop-color="#fff" stop-opacity=".22"/><stop offset=".16" stop-color="#fff" stop-opacity=".45"/><stop offset=".25" stop-color="#fff" stop-opacity=".65"/><stop offset=".33" stop-color="#fff" stop-opacity=".8"/><stop offset=".4" stop-color="#fff" stop-opacity=".91"/><stop offset=".46" stop-color="#fff" stop-opacity=".98"/><stop offset=".51" stop-color="#fff"/></linearGradient><linearGradient id="F" x1="106.484" x2="178.164" y1="114.03" y2="111.556" gradientTransform="matrix(0.36112137,-0.69397807,0.73877198,0.33922552,-41.2053,113.73798)" xlink:href="#E"/><linearGradient id="G" x1="216.885" x2="214.566" y1="98.946" y2="264.489" xlink:href="#E"/><linearGradient id="H" x1="215.084" x2="217.691" y1="259.878" y2="309.5" xlink:href="#A"/><linearGradient id="I" x1="331.622" x2="449.878" y1="192.551" y2="201.535" xlink:href="#A"/><linearGradient id="J" x1="335.075" x2="347.13" y1="99.115" y2="99.934" xlink:href="#E"/><linearGradient id="K" x1="338.11" x2="342.279" y1="93.407" y2="93.685" xlink:href="#A"/><linearGradient id="L" x1="339.68" x2="340.338" y1="268.993" y2="293.495" xlink:href="#A"/><linearGradient id="M" x1="349.548" x2="323.242" y1="276.625" y2="300.308" xlink:href="#A"/><linearGradient id="N" x1="334.154" x2="544.131" y1="180.848" y2="174.723" xlink:href="#A"/><linearGradient id="O" x1="442.96" x2="543.64" y1="100.88" y2="97.75" xlink:href="#E"/><linearGradient id="P" x1="442.96" x2="543.64" y1="100.87" y2="97.75" xlink:href="#E"/><linearGradient id="Q" x1="13.684" x2="1410.237" y1="132.169" y2="91.422" xlink:href="#E"/><linearGradient id="R" x1="131.916" x2="134.522" y1="118.836" y2="272.801" xlink:href="#E"/><linearGradient id="S" x1="213.892" x2="212.428" y1="133.621" y2="238.211" xlink:href="#E"/><linearGradient id="T" x1="256.887" x2="262.389" y1="277.185" y2="67.279" xlink:href="#A"/><linearGradient id="U" x1="256.443" x2="261.953" y1="294.063" y2="84.157" xlink:href="#A"/><linearGradient id="V" x1="256.443" x2="261.952" y1="293.646" y2="83.748" xlink:href="#A"/><linearGradient id="W" x1="285.852" x2="285.153" y1="166.092" y2="195.148" xlink:href="#E"/><linearGradient id="X" x1="285.401" x2="284.702" y1="191.888" y2="241.564" xlink:href="#E"/><linearGradient id="Y" x1="132.96" x2="132.869" y1="141.036" y2="147.471" xlink:href="#E"/><linearGradient id="Z" x1="93.313" x2="161.973" y1="192.975" y2="195.081" gradientTransform="matrix(0.64140148,-0.48664385,0.51805504,0.60251143,-99.67973,55.67287)" xlink:href="#A"/><linearGradient id="a" x1="103.923" x2="201.174" y1="183.247" y2="187.793" gradientTransform="matrix(0.64049694,-0.48444082,0.51570981,0.60166173,-92.6161,59.80548)" xlink:href="#A"/><linearGradient id="b" x1="115.685" x2="277.041" y1="175.336" y2="159.55" gradientTransform="matrix(0.64049694,-0.48444082,0.51570981,0.60166173,-85.54423,63.94582)" xlink:href="#A"/><linearGradient id="c" x1="132.242" x2="366.722" y1="165.158" y2="149.872" gradientTransform="matrix(0.64049694,-0.48444082,0.51570981,0.60166173,-78.47237,68.08615)" xlink:href="#D"/><linearGradient id="d" x1="105.355" x2="174.569" y1="92.673" y2="39.444" xlink:href="#E"/><linearGradient id="e" x1="146.991" x2="218.656" y1="138.31" y2="135.838" gradientTransform="matrix(0.64049694,-0.48444082,0.51570981,0.60166173,-58.161324,80.02051)" xlink:href="#E"/><linearGradient id="f" x1="151.632" x2="167.066" y1="198.133" y2="198.542" xlink:href="#E"/><linearGradient id="g" x1="68.137" x2="108.134" y1="148.297" y2="152.585" xlink:href="#A"/><linearGradient id="h" x1="86.743" x2="114.692" y1="94.264" y2="120.838" xlink:href="#A"/><linearGradient id="i" x1="263.61" x2="243.52" y1="367.84" y2="274.44" xlink:href="#A"/><linearGradient id="j" x1="229.055" x2="162.538" y1="263.833" y2="315.695" xlink:href="#A"/><path id="k" d="M75.879 168.367l6.732-13.773 22.164 10.834-6.732 13.773z"/><path id="l" d="M450.65 99.23h13.75v2.38h-13.75z"/><path id="m" d="M249.25 246.71h-37.23v-35.47h37.23zm-33.48-3.75h29.73v-28h-29.73z"/><path id="n" d="M87.414 161.871l11.957-9.658 15.542 19.243-11.957 9.658z"/><path id="o" d="M98.68 152.43l11.941-9.614 15.472 19.215-11.941 9.614z"/><path id="p" d="M291.25 362.2c-.23 6-4.85 28.05-5 34.06 0 2 .53 5.07-.11 7-1.32 4.09-6 3.53-6.61 1.12l-.23-1.2c-2.17-11.68 1.32-24.93 0-40.18-.79-9.31-4.47-27.26-6.88-27.38-1.27 0-30.26 61.52-32.78 65.31-1.24 1.91-4.73 1.61-6.42 3.15s14.08-46.64 20.69-72.1a81.06 81.06 0 0 0 3-16.11c.18-3.15-.83-4.21 2.06-5.14 2-.64 4.77-.46 6.91-.61 2.33-.18 24-.22 24 1.32-.21 8.36 1.93 36.9 1.37 50.76z"/><linearGradient id="q" gradientTransform="matrix(0.36112137,-0.69397807,0.73877198,0.33922552,-118.79021,121.01446)" xlink:href="#A"/><linearGradient id="r" gradientTransform="matrix(0.36112137,-0.69397807,0.73877198,0.33922552,-79.18778,117.26808)" xlink:href="#D"/><linearGradient id="s" gradientTransform="matrix(0.36112137,-0.69397807,0.73877198,0.33922552,-54.403369,114.98935)" xlink:href="#E"/><linearGradient id="t" x1="442.96" x2="543.64" y1="100.87" y2="97.74" xlink:href="#E"/><linearGradient id="u" x1="442.96" x2="543.64" y1="100.88" y2="97.75" xlink:href="#E"/><linearGradient id="v" x1="442.96" x2="543.64" y1="100.87" y2="97.75" xlink:href="#E"/><path id="w" d="M262.981 304.105h38.254v29.678h-38.254z"/><path id="x" d="M256.024 245.028h3.314v3.267h-3.314z"/><path id="y" d="M159.246 180.212v45.652h-8.494v-45.652a4.21 3.955 0 0 1 2.837-3.739v-4.557a1.513 1.421 0 1 1 3.026 0v4.635a4.235 3.978 0 0 1 2.631 3.661z"/></defs><path d="M106.309 285.493c-18.222 1.707-37.004 3.584-53.039 11.934-2.146 1.12-4.325 2.441-5.509 4.457-2.376 4.055.321 9.401 4.506 11.842s9.35 2.719 14.275 2.92c87.708 3.561 175.547 2.163 263.328.772 25.492-.402 51.386-.865 75.817-7.763 4.391-1.236 9.218-3.09 10.871-7.13 2.163-5.284-2.771-11.139-8.527-12.784s-11.899-.417-17.852.301c-20.673 2.495-41.527-1.321-62.109-4.372-40.293-5.963-82.099-10.814-122.911-11.718-13.913-.301-25.796 4.194-39.413 5.971-19.661 2.58-39.668 3.715-59.437 5.569z" class="F" opacity=".35"/><path fill="#fff" d="M35.232 125.966l45.434-87.042 27.06 12.463-45.434 87.042z"/><use class="F" transform="matrix(.82231 0 0 .772451 -16.63469 -6.772033)" xlink:href="#k"/><path fill="url(#q)" d="M45.761 123.283l5.536-10.639 18.226 8.369-5.536 10.639z"/><use x="6.733" y="-13.665" class="F" transform="matrix(.82231 0 0 .772451 -16.63469 -6.772033)" xlink:href="#k"/><path fill="url(#B)" d="M51.298 112.728l5.536-10.639 18.226 8.369-5.536 10.639z"/><use x="13.457" y="-27.334" class="F" transform="matrix(.82231 0 0 .772451 -16.63469 -6.772033)" xlink:href="#k"/><path fill="url(#C)" d="M56.827 102.169l5.536-10.639 18.226 8.369-5.536 10.639z"/><use x="20.201" y="-40.99" class="F" transform="matrix(.82231 0 0 .772451 -16.63469 -6.772033)" xlink:href="#k"/><path fill="url(#r)" d="M62.372 91.621l5.536-10.639 18.226 8.369-5.536 10.639z"/><g class="F" transform="matrix(.82231 0 0 .772451 -16.63469 -6.772033)"><use x="26.929" y="-54.668" xlink:href="#k"/><use x="33.662" y="-68.323" xlink:href="#k"/><use x="40.387" y="-81.993" xlink:href="#k"/></g><path fill="url(#s)" d="M72.819 71.831l5.536-10.639 18.226 8.369L91.045 80.2z"/><path fill="url(#F)" d="M78.36 61.268l5.536-10.639 18.226 8.369-5.536 10.639z"/><use x="-66.637" y="-60.773" class="F" xlink:href="#w"/><use x="-66.637" y="-60.773" fill="#999" xlink:href="#w"/><rect width="202.987" height="131.123" x="114.672" y="116.836" class="G" rx="7.705"/><path fill="url(#G)" d="M311.516 128.376v108.313a7.203 6.767 0 0 1-7.195 6.79H127.097a7.212 6.774 0 0 1-7.195-6.79V128.376a7.212 6.774 0 0 1 7.195-6.79h177.224a7.203 6.767 0 0 1 7.195 6.79z" class="E"/><path d="M178.376 270.012h80.858v7.894h-80.858z" class="G"/><path fill="url(#H)" d="M196.385 265.926h38.254v4.187h-38.254z"/><path fill="#fff" d="M257.227 60.902v-7.547h-5.337a22.737 21.358 0 0 0-3.371-7.392l4.112-3.862-5.649-5.361-4.112 3.8a23.082 21.683 0 0 0-9.045-3.715v-5.307h-8.026v5.191a21.75 20.431 0 0 0-9.045 3.221l-3.289-3.221-5.806 5.253 3.215 3.128a22.498 21.134 0 0 0-4.112 8.265h-5.756v7.547h5.559a22.696 21.32 0 0 0 4.046 9.687l-3.462 3.19 5.682 5.407 3.487-3.252a22.564 21.196 0 0 0 9.547 3.515v4.781h8.026v-4.897a23.025 21.629 0 0 0 8.527-3.368l4.169 4.063 5.806-5.253-4.235-4.117a22.498 21.134 0 0 0 4.112-9.717zm-27.885 9.949c-7.48-.008-13.536-5.712-13.527-12.738s6.08-12.715 13.56-12.707 13.536 5.712 13.527 12.738a13.519 12.699 0 0 1-13.56 12.707z"/><path fill="#2a7fff" d="M286.658 70.998l.362-4.465-3.166-.216a13.247 12.444 0 0 0-1.645-4.519l2.631-2.109-3.092-3.406-2.607 2.078a13.552 12.73 0 0 0-5.148-2.572l.255-3.144-4.745-.332-.247 3.09a12.992 12.205 0 0 0-5.485 1.545l-1.784-2.039-3.684 2.858 1.752 1.985a13.437 12.622 0 0 0-2.804 4.72l-3.396-.239-.354 4.457 3.199.232a13.412 12.599 0 0 0 1.932 5.894l-2.196 1.746 3.1 3.407 2.22-1.777a13.379 12.568 0 0 0 5.477 2.48l-.23 2.827 4.745.332.238-2.897a13.683 12.854 0 0 0 5.197-1.63l2.27 2.572 3.684-2.858-2.311-2.619a13.289 12.483 0 0 0 2.87-5.569zm-16.956 4.696c-4.417-.319-7.725-3.94-7.388-8.09s4.19-7.259 8.608-6.944 7.73 3.932 7.397 8.082a8.009 7.524 0 0 1-8.618 6.952z"/><path d="M347.649 108.037v178.436a7.162 6.728 0 0 1-7.138 6.705h-.822a7.138 6.705 0 0 1-7.105-6.705V108.037l7.162-17.689z" class="F" opacity=".984"/><path fill="url(#I)" d="M339.516 108.022h8.116v170.874h-8.116z"/><path fill="url(#J)" d="M347.706 108.3l-15.13-.263 7.162-17.697 2.747 6.18z" class="E"/><path fill="url(#K)" d="M342.484 96.52h-5.246l2.5-6.18z"/><path fill="url(#L)" d="M332.238 276.038h15.435v6.126h-15.435z"/><path fill="url(#M)" d="M347.649 280.958v5.538a7.162 6.728 0 0 1-7.138 6.705h-.822a7.138 6.705 0 0 1-7.105-6.705v-5.538z"/><path fill="#f9f9f9" d="M353.865 66.642h40.573v227.054h-40.573z"/><path fill="url(#N)" d="M353.865 66.232h21.306v227.464h-21.306z"/><g transform="matrix(.82231 0 0 .772451 -16.63469 -6.772033)"><use fill="url(#t)" class="E" xlink:href="#l"/><use y="7.27" fill="url(#t)" class="E" xlink:href="#l"/><use y="14.53" fill="url(#u)" class="E" xlink:href="#l"/><use y="21.8" fill="url(#u)" class="E" xlink:href="#l"/><use y="29.07" fill="url(#u)" class="E" xlink:href="#l"/><use y="36.34" fill="url(#v)" class="E" xlink:href="#l"/><use y="43.61" fill="url(#v)" class="E" xlink:href="#l"/><use y="50.88" fill="url(#v)" class="E" xlink:href="#l"/><use y="58.15" fill="url(#v)" class="E" xlink:href="#l"/><use y="65.42" fill="url(#t)" class="E" xlink:href="#l"/><use y="72.69" fill="url(#t)" class="E" xlink:href="#l"/><use y="79.96" fill="url(#t)" class="E" xlink:href="#l"/><use y="87.23" fill="url(#t)" class="E" xlink:href="#l"/><use y="94.5" fill="url(#t)" class="E" xlink:href="#l"/><use y="101.77" fill="url(#t)" class="E" xlink:href="#l"/><use y="109.04" fill="url(#t)" class="E" xlink:href="#l"/><use y="116.3" fill="url(#u)" class="E" xlink:href="#l"/><use y="123.57" fill="url(#u)" class="E" xlink:href="#l"/><use y="130.84" fill="url(#v)" class="E" xlink:href="#l"/><use y="138.11" fill="url(#v)" class="E" xlink:href="#l"/><use y="145.38" fill="url(#v)" class="E" xlink:href="#l"/><use y="152.65" fill="url(#v)" class="E" xlink:href="#l"/><use y="159.92" fill="url(#v)" class="E" xlink:href="#l"/><use y="167.19" fill="url(#t)" class="E" xlink:href="#l"/><use y="174.46" fill="url(#t)" class="E" xlink:href="#l"/><use y="181.73" fill="url(#t)" class="E" xlink:href="#l"/><use y="189" fill="url(#t)" class="E" xlink:href="#l"/><use y="196.27" fill="url(#t)" class="E" xlink:href="#l"/><use y="203.54" fill="url(#t)" class="E" xlink:href="#l"/><use y="210.81" fill="url(#t)" class="E" xlink:href="#l"/><g fill="url(#O)"><use y="218.07" fill="url(#u)" class="E" xlink:href="#l"/><use y="225.34" class="E" xlink:href="#l"/></g><g fill="url(#P)"><use y="232.61" fill="url(#v)" class="E" xlink:href="#l"/><use y="239.88" fill="url(#v)" class="E" xlink:href="#l"/><g fill="url(#v)"><use y="247.15" class="E" xlink:href="#l"/><use y="254.42" class="E" xlink:href="#l"/></g><use y="261.69" class="E" xlink:href="#l"/></g><use y="268.96" fill="url(#t)" class="E" xlink:href="#l"/><g fill="url(#t)"><use y="276.23" class="E" xlink:href="#l"/><use y="283.5" class="E" xlink:href="#l"/></g></g><path fill="url(#Q)" d="M311.516 128.376v2.379H119.918v-2.379a7.212 6.774 0 0 1 7.195-6.79h177.208a7.203 6.767 0 0 1 7.195 6.79z"/><path fill="url(#R)" d="M123.89 142.195h18.255v83.718H123.89z"/><path fill="url(#S)" d="M169.684 147.772h86.943v77.322h-86.943z"/><use x="-66.637" y="-60.773" fill="#ccc" xlink:href="#x"/><use x="-66.637" y="-76.152" fill="url(#T)" xlink:href="#x"/><use x="-103.649" y="-60.773" fill="#e6e6e6" xlink:href="#x"/><use x="-103.649" y="-76.152" fill="#f9f9f9" xlink:href="#x"/><use x="-66.637" y="-93.038" fill="url(#U)" xlink:href="#x"/><use x="-102.712" y="-93.038" fill="#fff" xlink:href="#x"/><use x="-84.374" y="-93.038" fill="url(#V)" xlink:href="#x"/><use x="-84.374" y="-60.503" fill="#e6e6e6" xlink:href="#x"/><g transform="matrix(.82231 0 0 .772451 -16.63469 -6.772033)"><use class="F" xlink:href="#m"/><use fill="#0055d4" xlink:href="#m"/></g><path fill="url(#W)" d="M265.936 170.013h39.125v21.498h-39.125z"/><path fill="url(#X)" d="M265.484 198.592h39.125v36.753h-39.125z"/><path fill="url(#Y)" d="M123.561 141.986h18.691v4.596h-18.691z" class="E"/><path fill="#fff" d="M43.98 116.558l80.461-60.705 18.872 22.073-80.461 60.705z"/><use class="F" transform="matrix(.82231 0 0 .772451 -16.63469 -6.772033)" xlink:href="#n"/><path fill="url(#Z)" d="M55.247 118.265l9.833-7.46 12.78 14.864-9.833 7.46z"/><use class="F" transform="matrix(.82231 0 0 .772451 -16.63469 -6.772033)" xlink:href="#o"/><path fill="url(#a)" d="M64.511 110.973l9.819-7.426 12.723 14.843-9.819 7.426z"/><use x="11.899" y="-9.518" class="F" transform="matrix(.82231 0 0 .772451 -16.63469 -6.772033)" xlink:href="#o"/><path fill="url(#b)" d="M74.295 103.62l9.819-7.426 12.723 14.843-9.819 7.426z"/><use x="23.789" y="-19.03" class="F" transform="matrix(.82231 0 0 .772451 -16.63469 -6.772033)" xlink:href="#o"/><path fill="url(#c)" d="M84.073 96.273l9.819-7.426 12.723 14.843-9.819 7.426z"/><g class="F" transform="matrix(.82231 0 0 .772451 -16.63469 -6.772033)"><use x="47.515" y="-38.242" xlink:href="#n"/><use x="59.478" y="-47.985" xlink:href="#n"/><use x="59.473" y="-47.59" xlink:href="#o"/></g><path fill="url(#d)" d="M124.975 90.031l-8.404 6.196-12.721-14.846 8.404-6.195z"/><path fill="url(#e)" d="M112.256 75.169l9.819-7.426 12.723 14.843-9.819 7.426z"/><use x="-66.637" y="-60.773" class="F" xlink:href="#y"/><use x="-66.637" y="-60.773" fill="url(#f)" opacity=".941" xlink:href="#y"/><g class="F" transform="matrix(.82231 0 0 .772451 -16.63469 -6.772033)"><rect width="23.53" height="4.49" x="115.91" y="201.3" rx="2.25"/><path d="M127.9 241.13h0c-4.09 0-7.49-6.13-7.49-10.22v-27.09h14.8v27.09c0 4.09-3.23 10.22-7.31 10.22z"/></g><rect width="19.349" height="3.468" x="78.679" y="148.722" fill="url(#g)" rx="1.85"/><path fill="url(#h)" d="M88.539 179.489h0c-3.363 0-6.159-4.735-6.159-7.894v-19.466h12.17v19.466c0 3.159-2.656 7.894-6.011 7.894z"/><path fill="#28353d" d="M167.094 201.643c-.312-1.506-.51-3.638.09-3.785 1.266-.324-.09 3.785-.09 3.785z"/><g transform="matrix(.82231 0 0 .772451 -16.63469 -6.772033)"><use fill="#606161" xlink:href="#p"/><use fill="url(#i)" xlink:href="#p"/></g><path fill="#ffcd9c" d="M201.976 174.144c-.148-1.452-.872-2.24-1.579-2.24s-1.143.772-.995 2.24a2.36 2.217 0 0 0 2.039 2.132c.715 0 .691-.68.534-2.132zm13.124.085c.099-1.452.822-2.24 1.571-2.24s1.233.772 1.118 2.24a2.294 2.155 0 0 1-2.056 2.124c-.74 0-.748-.672-.633-2.124z"/><path d="M216.12 180.393c-.099.772-3.495 4.156-7.36 4.156s-7.055-3.09-7.73-4.326 2.039-17.133 3.61-18.462 7.935-.456 8.47.247c1.283 1.661 3.429 15.302 3.01 18.384z" class="H"/><path fill="#ffcd9c" d="M214.558 168.659c-.559.247-2.755-4.905-3.215-5.77s-.386-1.753.173-2.001 1.381.263 1.842 1.12 1.752 6.411 1.201 6.651zm-11.833-.386c-.584-.178.962-5.407 1.299-6.311s1.094-1.499 1.645-1.321.781 1.058.444 1.97-2.837 5.84-3.388 5.662z"/><g class="H"><path d="M204.509 180.03h8.725l1.307 7.238c-4.753 2.24-7.524 1.993-11.233-.494z"/><path d="M207.963 181.405c0-.147.312-.27.691-.27s.691.124.691.27-.304.17-.691.17-.691-.015-.691-.17z"/></g><path d="M217.262 177.759c.326-1.777.86-14.499-.447-16.183s-9.133-2.773-10.319-2.51c-2.657.587-2.193 2.317-2.193 2.317a4.575 4.109 0 0 0-2.244.564c-.912.556-2.83 8.574-1.298 14.638.688 2.727 3.397 5.098 8.075 5.214 5.762.139 8.032-1.838 8.428-4.04z" class="G"/><path fill="#2a7fff" d="M192.742 186.147a8.174 7.678 0 0 0-3.799 1.228c-1.949 1.437-2.097 4.117-2.064 6.45a58.03 54.512 0 0 0 .715 9.656c.584 2.928 1.645 5.739 2.516 8.605a59.321 55.725 0 0 1 2.146 14.314c0 2.657-.049 5.577 1.719 7.655 1.932 2.256 5.353 2.696 8.429 2.858a140.15 140.15 0 0 0 13.116.1c2.927-.124 6.044-.394 8.363-2.078 1.85-1.344 6.184-46.818 2.821-47.969s-6.981-1.444-10.55-1.723c-8.001-.633-15.533-1.136-23.411.904z"/><path fill="url(#j)" d="M217.082 280.78c-.428 5.168-1.447 23.946-1.447 23.946l-2.599-.085c-1.784-9.022 1.085-19.257 0-31.037-.65-7.192-3.676-21.057-5.657-21.15.592-4.635 3.922-3.94 3.922-3.94a72.133 67.759 0 0 1 6.241 10.76c1.982 4.882-.025 16.314-.46 21.505z"/><path d="M168.114 304.726a2.607 2.449 0 0 0-.888 1.128 1.867 1.753 0 0 0 .107 1.105 3.388 3.182 0 0 0 2.36 1.723 9.933 9.331 0 0 0 3.084.1l3.289-.209a9.087 8.536 0 0 0 2.467-.378 3.034 2.85 0 0 0 1.826-1.483 4.243 3.986 0 0 0 .222-1.63c0-2.557-.954-4.635-3.931-4.009a19.596 18.407 0 0 0-8.536 3.654zm54.618 1.012a2.302 2.163 0 0 1 .781.996 1.645 1.545 0 0 1-.09.966 2.944 2.765 0 0 1-2.072 1.506 8.519 8.003 0 0 1-2.705.093l-2.862-.185a7.911 7.431 0 0 1-2.146-.324 2.648 2.487 0 0 1-1.595-1.305 3.774 3.546 0 0 1-.197-1.429c0-2.24.822-4.086 3.445-3.515a17.112 16.075 0 0 1 7.442 3.198z"/><path fill="#59f" d="M226.703 186.951s12.54 7.107 16.306 16.09-12.335 30.635-12.335 30.635l-3.445-3.406s8.404-16.337 7.105-20.424-6.389-7.894-6.389-7.894zm-36.872 14.182s-17.828 7.493-25.072 3.816.214-22.146.214-22.146l4.852 1.545s-4.054 9.416.584 10.814 18.535-7.786 18.535-7.786z"/><path d="M223.398 232.819a3.651 3.43 0 0 0-1.176 1.275 3.289 3.09 0 0 0-.173 1.352 3.939 3.7 0 0 0 1.365 2.897 4.638 4.357 0 0 0 2.056.572 3.865 3.631 0 0 0 1.34 0 1.357 1.275 0 0 0 1.003-.772 3.289 3.09 0 0 0 .074-.772c.058-1.275 1.011-2.317 1.801-3.36a1.455 1.367 0 0 0 .354-.718 1.406 1.321 0 0 0-.312-.811c-.534-.726-1.858-2.062-2.919-1.947s-2.59 1.653-3.413 2.286zm-50.621-52.372a2.804 2.634 0 0 0 .444-1.012.954.896 0 0 0-.502-.919c-.567-.209-1.242.34-1.801.108a1.258 1.182 0 0 1-.46-.417 6.217 5.84 0 0 1-1.094-3.043 6.578 6.18 0 0 0-.164-1.73 1.307 1.228 0 0 0-1.398-.904c-.526.116-.822.618-1.151 1.02s-.987.881-1.414 1.383a7.277 6.836 0 0 0-1.209 3.468c-.23 1.545-.378 3.314.773 4.426.888.857 3.593 1.869 4.835 1.414 1.373-.51 2.45-2.68 3.141-3.793z" class="H"/></svg>