<svg xmlns="http://www.w3.org/2000/svg" xmlns:v="https://vecta.io/nano" width="1213.905" height="1039.37"><style>.S{fill:#d6d8e5}.T{fill:#b1b4c4}.U{fill:#e7e9f2}.V{fill:#0055d4}.W{fill:#232733}.X{fill:#e9eaf2}.Y{fill:#353c4c}.Z{fill:#2b303f}</style><g stroke="#0050ff" transform="scale(2.6504473 2.548645)"><path d="M310.52 385.65L262.7 358c-3.45-2-3-5.47 1-7.77l31-17.89 60.3 34.87-31 17.89c-4 2.29-10 2.54-13.48.55z" class="S" opacity=".4"/><g class="T"><path d="M314.84 383.12L267 355.51c-3.44-2-3-5.47 1-7.77l31-17.89 60.32 34.83-31 17.89c-4.01 2.29-10.03 2.54-13.48.55z"/><path d="M359.28 362.85l-2.79 1.61 2.79.22zm-94.59-12.49l2.86 1.19-2.86.67z"/></g><path d="M314.84 381.3L267 353.68c-3.44-2-3-5.46 1-7.76L299 328l60.32 34.82-31 17.89c-4.01 2.29-10.03 2.58-13.48.59z" class="S"/><g fill="#9ea1af"><path d="M291.66 303.35l60.97 34.97 6.65 24.53-60.15-34.74z"/><path d="M357.51 363.87l1.77-1-2.63-2.1z"/></g><g class="T"><path d="M289.74 304.28l60.97 34.97 6.8 24.62-60.31-34.83z"/><path d="M452 405.61L216 269.35c-3.31-1.91-6-7-6-11.46V75.33c0-4.41 2.68-6.44 6-4.53l236 136.26c3.31 1.91 6 7 6 11.45v182.57c0 4.41-2.71 6.44-6 4.53z"/><path d="M455.81 405.98l-1.13-7.75-1.49 9.26zM209.55 71.93l2.58-1.49 3.7 2.11-4 .58c-.06-.02-2.28-1.2-2.28-1.2z"/></g><path fill="#e4e7f2" d="M449.82 406.86l-236-136.26c-3.31-1.91-6-7-6-11.46V76.58c0-4.41 2.69-6.44 6-4.53l236 136.26c3.31 1.91 6 7 6 11.45v182.57c-.01 4.41-2.69 6.44-6 4.53z"/><path d="M449.4 407.09l-236-136.26c-3.31-1.91-6-7-6-11.45V76.82c0-4.41 2.68-6.44 6-4.53l236 136.26c3.31 1.91 6 7 6 11.45v182.56c0 4.44-2.69 6.44-6 4.53z" class="S"/><path fill="#fff" d="M452.15 396L210.39 256.42l.13-178.87c0-1.83 1.29-2.57 2.87-1.66l236 136.26a6.35 6.35 0 0 1 2.87 5z"/><path d="M437.18 240.5l-214.3-123.72a5.85 5.85 0 0 1-2.44-4.66V96.65c0-1.79 1.09-2.62 2.44-1.84l214.3 123.72a5.85 5.85 0 0 1 2.44 4.67v15.46c0 1.8-1.09 2.62-2.44 1.84zM426 281.91l-50.37-29.08a5.85 5.85 0 0 1-2.44-4.66v-32.51c0-1.8 1.09-2.62 2.44-1.84L426 242.9a5.83 5.83 0 0 1 2.44 4.66v32.51c-.04 1.79-1.13 2.62-2.44 1.84z" class="X"/><path fill="#ccc" d="M359.61 292.47l-126.36-73a2.9 2.9 0 0 1-1.22-2.33v-5.59c0-.9.54-1.32 1.22-.93l126.36 73a2.93 2.93 0 0 1 1.22 2.33v5.6c0 .89-.55 1.31-1.22.92z"/><path d="M347.17 298.53L233.61 233a2.94 2.94 0 0 1-1.22-2.33v-2.79c0-.9.55-1.31 1.22-.92l113.56 65.56a2.93 2.93 0 0 1 1.22 2.33v2.78c0 .87-.55 1.29-1.22.9z" class="X"/><path d="M347.17 309.09l-113.56-65.56a2.93 2.93 0 0 1-1.22-2.33v-2.79c0-.89.55-1.31 1.22-.92l113.56 65.56a2.93 2.93 0 0 1 1.22 2.33v2.79c0 .9-.55 1.31-1.22.92z" class="V"/><path d="M318.14 302.89l-84.53-48.8a2.93 2.93 0 0 1-1.22-2.33V249c0-.9.55-1.31 1.22-.93l84.53 48.8a3 3 0 0 1 1.22 2.34V302c0 .87-.55 1.28-1.22.89zm109.04-7.46l-52.81-30.49a2.9 2.9 0 0 1-1.22-2.33v-2.79c0-.9.54-1.31 1.22-.92l52.81 30.49a2.93 2.93 0 0 1 1.22 2.33v2.79c0 .9-.55 1.31-1.22.92zm0 10.57l-52.81-30.5a2.9 2.9 0 0 1-1.22-2.33v-2.78c0-.9.54-1.32 1.22-.93L427.18 300a2.91 2.91 0 0 1 1.22 2.33v2.78c0 .89-.55 1.27-1.22.89zm-13.83 2.57l-39-22.51a2.9 2.9 0 0 1-1.22-2.33V281c0-.9.54-1.31 1.22-.92l39 22.5a2.92 2.92 0 0 1 1.22 2.33v2.79c0 .85-.57 1.3-1.22.87zM426 363.31l-50.37-29.08a5.85 5.85 0 0 1-2.44-4.66v-32.51c0-1.79 1.09-2.62 2.44-1.84L426 324.3a5.85 5.85 0 0 1 2.4 4.7v32.51c0 1.75-1.09 2.58-2.4 1.8zm1.18 13.52l-52.81-30.49a2.9 2.9 0 0 1-1.22-2.33v-2.78c0-.9.54-1.32 1.22-.93l52.81 30.49a3 3 0 0 1 1.22 2.34v2.78c0 .9-.55 1.31-1.22.92z" class="X"/><ellipse cx="230.26" cy="109.98" class="V" rx="3.83" ry="6.64" transform="rotate(330 230.271 109.981)"/><path fill="#dadce5" d="M341.68 176.35l-18.54-10.7a1.47 1.47 0 0 1-.61-1.17V162c0-.45.27-.66.61-.46l18.54 10.7a1.43 1.43 0 0 1 .61 1.16v2.46c0 .48-.29.69-.61.49z"/><path fill="#ccc" d="M371.68 193.68L353.14 183a1.46 1.46 0 0 1-.61-1.16v-2.46c0-.45.28-.66.61-.46l18.54 10.7a1.47 1.47 0 0 1 .61 1.17v2.46c0 .41-.29.62-.61.43z"/><path fill="#dadce5" d="M401.2 210.72L382.66 200a1.43 1.43 0 0 1-.61-1.16v-2.46c0-.45.27-.65.61-.46l18.54 10.7a1.47 1.47 0 0 1 .61 1.17v2.46c0 .46-.27.66-.61.47z"/><path d="M431.2 228l-18.53-10.7a1.47 1.47 0 0 1-.61-1.17v-2.46c0-.45.27-.65.61-.46L431.2 224a1.43 1.43 0 0 1 .61 1.16v2.46c0 .38-.27.62-.61.38z" class="V"/><path fill="#06f" d="M396.75 237.7l-6.47 9.21-3.54-9.11-6.43 9.16 7.06 4.08 5.81 3.35 12.95 7.48z"/><g fill="#ccc"><ellipse cx="416.37" cy="247.33" rx="3.45" ry="5.97" transform="matrix(.87 -.5 .5 .87 -67.88 241.33)"/><path d="M397.12 320.3l-6.48 9.21-3.53-9.11-6.44 9.16 7.07 4.08 5.81 3.35 12.95 7.48z"/></g><ellipse cx="416.74" cy="329.93" class="V" rx="3.45" ry="5.97" transform="rotate(330 416.774 329.934)"/><path d="M267 224.07v-16.04l4.68-2.7zm-54.51-31.76v-16.04l4.68-2.71z" class="W"/><path d="M294.14 289.83L182.72 225.5a5.23 5.23 0 0 1-2.18-4.18v-57c0-1.61 1-2.35 2.18-1.65L294.14 227a5.21 5.21 0 0 1 2.19 4.17v57.05c0 1.57-.98 2.31-2.19 1.61z" class="X"/><path fill="#06f" d="M224.8 207.25L213.73 223l-6.04-15.57-11 15.65 12.08 6.98 9.92 5.73 22.15 12.79z"/><ellipse cx="270.85" cy="230.93" class="V" rx="5.89" ry="10.21" transform="rotate(330 270.879 230.942)"/><path d="M271.68 205.33l-6.73-3.89-.01-21.38-6.06-4.55v25.93l-6.74 3.89 9.77 5.64z" class="Y"/><path d="M267 224.07v-15.13-.91l-5.09 2.94z" class="W"/><path d="M256.47 217.91l10.53 6.16-5.09-13.1-9.77-5.64z" class="Z"/><path d="M217.17 173.56l-6.74-3.88v-25.94h-6.06v25.93l-6.74 3.89 9.77 5.65z" class="Y"/><path d="M212.49 192.31v-15.13-.91l-5.09 2.94z" class="W"/><path d="M201.96 186.14l10.53 6.17-5.09-13.1-9.77-5.65z" class="Z"/><path d="M83.41 255.72l-72.73 41.99 65.07 37.74 72.74-41.99v-5.44l-4.72 2.72z" class="S" opacity=".4"/><path d="M83.41 330.74l72.73-42v-5.44l-4.71 2.72-68.02-39.27-68.02 39.27-4.71-2.72v5.44z" class="T"/><path d="M10.68 283.3l72.73-41.99 72.73 41.99-72.73 41.99z" class="U"/><g class="T"><path d="M87.93 265.01V62.2l-4.75 2.74v202.81z"/><path d="M116.77 200.25l4.75-1.94-33.59-53.08-4.37 2.46z"/></g><g class="S"><path d="M116.59 209.86v-9.88l-33.23-52.63v9.69z"/><path d="M83.36 267.75V64.94l-4.75-2.74v202.81zm37.98 21.93V86.87l-4.75-2.74v202.81z"/></g><path d="M125.91 286.94V84.13l-4.75 2.74v202.81z" class="T"/><path d="M116.59 213.34v-9.54l-33.23 39.85v9.48z" class="S"/><path d="M87.93 250.63l28.66-34.55v-3.48l-33.23 40.53z" class="T"/><path d="M116.59 107.9v-9.54l-33.23 39.85v9.48z" class="S"/><g class="T"><path d="M87.93 145.18l28.66-34.54v-3.48l-33.23 40.53zm-37.7 141.73V84.1l-4.75 2.74v202.81z"/><path d="M79.07 222.14l4.75-1.93-33.59-53.08-4.37 2.46z"/></g><g class="S"><path d="M78.89 231.75v-9.87l-33.23-52.64v9.7z"/><path d="M45.66 289.65V86.84l-4.74-2.74v202.81zm37.98 21.92v-202.8l-4.75-2.75v202.81z"/></g><path d="M88.21 308.83V106.02l-4.75 2.75v202.8z" class="T"/><path d="M78.89 235.24v-9.55l-33.23 39.86v9.48z" class="S"/><path d="M50.23 272.52l28.66-34.54v-3.49l-33.23 40.54z" class="T"/><path d="M78.89 129.8v-9.55L45.66 160.1v9.49z" class="S"/><path d="M50.23 167.08l28.66-34.55v-3.48l-33.23 40.54z" class="T"/><path fill="#d40000" d="M34.61 90.73l49.03-28.3 49.03 28.3-49.03 28.31z"/><path d="M21.86 71.47L5.22 61.86 63.35 28.3l16.64 9.61z" class="Y"/><path d="M5.22 61.86l16.64 9.61v13.46L5.22 75.32z" class="Z"/><path d="M21.86 84.93l58.13-33.56V37.91L21.86 71.47v12.15" class="W"/><path d="M21.86 56.37L5.22 46.76 63.35 13.2l16.64 9.61z" class="Y"/><path d="M5.22 46.76l16.64 9.61v13.47L5.22 60.23z" class="Z"/><path d="M21.86 69.84l58.13-33.56V22.81L21.86 56.37v12.16" class="W"/><path d="M0 43.87v-7.54l36.05 20.55v7.67z" class="S"/><path d="M0 36.33l6.53-3.77 88.21 50.49-6.53 3.77z" class="U"/><path d="M30.42 26.43v-7.55l45.29 24.27v9.48z" class="S"/><path d="M30.42 18.89l6.53-3.77 79.64 45.2-6.53 3.77z" class="U"/><path d="M54.55 40.34l3.1 21.71 4.6 2.86-7.7-32.11z" class="S"/><path d="M62.22 37.23l-7.67-4.43 4.65 30.45 8.98 4.88z" class="U"/><path d="M53.51 32.18l1.04.62v7.54l-23.79 6.27-12.22-7.06z" class="T"/><g class="U"><path d="M21.42 41.22l-7.12-4.11 33.39-8.53 6.86 4.22z"/><path d="M34.61 28.31L83.64 0l49.03 28.31-49.03 28.31z"/></g><path d="M34.61 28.31l49.03 28.31v87.42l-49.03-28.31z" class="S"/><path d="M132.67 115.73l-49.03 28.31V56.61l49.03-28.3z" class="T"/><path fill="#04a" d="M55.49 70.82l-9.05-28.8 37.2 21.48v23.57z"/><path d="M132.67 58.76L83.64 87.08V63.51l49.03-28.32z" class="V"/><path d="M90.12 96.78v-7.54l212.15 122.49v7.54z" class="S"/><path d="M90.12 89.25l6.53-3.77L308.8 207.96l-6.53 3.77z" class="U"/><path d="M120.54 79.34V71.8l212.15 122.49v7.54z" class="S"/><path d="M120.54 71.8l6.53-3.77 212.15 122.49-6.53 3.77z" class="U"/><path d="M302.27 219.27v-7.55l36.95-21.18v7.54z" class="T"/><path d="M302.29 211.73l-5.53-3.19 36.93-21.19 5.53 3.19z" class="U"/><path d="M305.05 178.3l1.05.62v7.54l-23.8 6.27-12.22-7.06z" class="T"/><path d="M272.97 187.34l-7.12-4.12 33.38-8.52 6.87 4.22z" class="U"/><path d="M252.41 155.5l3.1 21.71 4.6 2.85-7.7-32.1z" class="S"/><path d="M260.08 152.39l-7.67-4.43 4.66 30.45 8.97 4.88z" class="U"/><path d="M251.37 147.34l1.04.62v7.54l-23.79 6.27-12.22-7.06z" class="T"/><path d="M219.29 156.38l-7.12-4.11 33.38-8.53 6.86 4.22z" class="U"/><path d="M198.54 124.37l3.09 21.71 4.61 2.86-7.7-32.11z" class="S"/><path d="M206.21 121.26l-7.67-4.43 4.65 30.45 8.98 4.88z" class="U"/><path d="M197.5 116.21l1.04.62v7.54l-23.79 6.27-12.22-7.06z" class="T"/><path d="M165.41 125.25l-7.12-4.11 33.39-8.53 6.86 4.22z" class="U"/><path d="M144.67 93.26l3.09 21.71 4.61 2.85-7.7-32.1z" class="S"/><path d="M152.34 90.15l-7.67-4.43 4.65 30.45 8.97 4.88z" class="U"/><path d="M143.63 85.1l1.04.62v7.54l-23.79 6.27-12.22-7.06z" class="T"/><path d="M111.54 94.14l-7.12-4.11 33.38-8.53 6.87 4.22z" class="U"/><g class="S"><path d="M31.75 345.63L5 329.94c-3-1.78-2.66-4.89.85-6.94l13.6-8c3.51-2 8.81-2.27 11.85-.49l26.79 15.69c3 1.77 2.65 4.88-.85 6.94l-13.6 8c-3.55 2.05-8.86 2.27-11.89.49z" opacity=".4"/><path d="M65 330.16v-37.93L7.78 285.7v38.17h0a3.51 3.51 0 0 0 2 3.11l26.82 15.69c3 1.78 8.35 1.56 11.85-.5l13.6-8c2-1.16 3-2.65 2.9-4z"/></g><path fill="#edf0f9" d="M64.94 296.37v-4.14h-4.4l-24.42-14.32c-3-1.78-8.35-1.55-11.85.5l-13.6 8a7.21 7.21 0 0 0-.71.46l-2.18-1.17v4.52h0a3.53 3.53 0 0 0 2 3.1L36.6 309c3 1.78 8.35 1.55 11.85-.5l13.6-8c2-1.19 3-2.73 2.89-4.17z"/><path fill="#e2e5f2" d="M36.6 304.5L9.82 288.81c-3-1.78-2.66-4.89.85-6.94l13.6-8c3.5-2 8.81-2.28 11.85-.5l26.79 15.69c3 1.78 2.65 4.89-.86 6.94l-13.6 8c-3.45 2.05-8.81 2.28-11.85.5z"/><path d="M30.57 283.08v-1.51h-.91l-.29-.18a6.3 6.3 0 0 0-5.79 0 2.93 2.93 0 0 0-.48.34l-.71-.16v1.51a2 2 0 0 0 1.19 1.7 6.36 6.36 0 0 0 5.79 0 2.08 2.08 0 0 0 1.2-1.7z" class="V"/><g fill="#06f"><ellipse cx="26.48" cy="281.57" rx="4.09" ry="2.4"/><path d="M40.45 288.77v-1.51h-.91l-.28-.18a6.3 6.3 0 0 0-5.79 0 2.64 2.64 0 0 0-.49.34l-.71-.16v1.51a2.08 2.08 0 0 0 1.2 1.7 6.36 6.36 0 0 0 5.79 0 2 2 0 0 0 1.19-1.7z"/></g><g class="V"><ellipse cx="36.36" cy="287.26" rx="4.09" ry="2.4"/><path d="M50.35 294.85v-1.51h-.92l-.28-.18a6.3 6.3 0 0 0-5.79 0 3.23 3.23 0 0 0-.49.34l-.71-.16v1.51a2.06 2.06 0 0 0 1.2 1.7 6.3 6.3 0 0 0 5.79 0 2.06 2.06 0 0 0 1.2-1.7z"/></g><ellipse cx="46.25" cy="293.34" fill="#06f" rx="4.09" ry="2.4"/></g></svg>