<svg xmlns="http://www.w3.org/2000/svg" xmlns:xlink="http://www.w3.org/1999/xlink" width="762" height="689.787" xmlns:v="https://vecta.io/nano"><style><![CDATA[.U{opacity:.1}.V{fill:#ccc}.W{fill:#fff}.X{fill:#e6e6e6}.Y{fill:#72351c}.Z{fill:#fdb797}.a{fill:#00b0ff}.b{fill:#f55f44}.c{fill:#ffb8b8}.d{fill:#2f2e41}]]></style><defs><linearGradient y2="215.689" x2="-515.22" y1="240.206" x1="-515.22" id="A" gradientUnits="userSpaceOnUse"><stop offset="0" stop-color="gray" stop-opacity=".25"/><stop offset=".54" stop-color="gray" stop-opacity=".12"/><stop offset="1" stop-color="gray" stop-opacity=".1"/></linearGradient><path id="B" d="M330.788 367.848a4.989 5.109 0 0 0 0 10.216h89.831a4.989 5.109 0 0 0 .163-10.216q-.082-.001-.163 0z"/><path id="C" d="M298.683 382.433a9.228 9.45 0 1 1 9.228-9.45 9.238 9.461 0 0 1-9.228 9.45zm0-17.182a7.55 7.732 0 1 0 7.55 7.732 7.558 7.741 0 0 0-7.55-7.732z"/><path id="D" d="M203.406 427.853h9.787v3.611h-5.694v.722h5.694v8.305h-9.787V436.7h5.694v-.722h-5.694z"/><path id="E" d="M-517.557 222.888a.172.146 0 0 0 .135.146 2.696 2.295 0 0 1 1.041.443c.572.381-.609-.762-.609-.762l-.396.075-.161.124z"/><path id="F" d="M-517.557 230.641l.604-.022.52.071h-.182z"/><path id="G" d="M-513.487 228.156h.604l.52.044h-.182z"/><path id="H" d="M-517.557 231.053h.604l.52.053h-.182z"/><path id="I" d="M-513.451 228.156h.604l.52.044h-.172z"/></defs><path d="M690.398 613.201H70.892A40.156 29.944 0 0 1 30.78 583.29V220.46a29.419 21.938 0 0 1 29.385-21.913h640.449a29.928 22.317 0 0 1 29.894 22.292V583.29a40.156 29.944 0 0 1-40.111 29.911z" class="V"/><path d="M85.746 598.449h588.168a42.231 31.391 0 0 0 42.231-31.391V265.804a42.231 31.391 0 0 0-42.231-31.391H85.746a42.231 31.391 0 0 0-42.231 31.391v301.254a42.231 31.391 0 0 0 42.231 31.391z" class="W"/><path d="M730.735 219.98h-700v-22.484a40.306 44.359 0 0 1 40.272-44.295h619.455a40.306 44.359 0 0 1 40.272 44.295z" fill="#06f"/><g class="W"><ellipse ry="7.75" rx="6.997" cy="186.315" cx="67.693"/><ellipse ry="7.75" rx="6.997" cy="186.315" cx="94.251"/><ellipse ry="7.75" rx="6.997" cy="186.315" cx="120.808"/></g><g class="X"><path d="M74.411 260.531l.849-1.224 163.83 158.565-.849 1.224z"/><path d="M71.492 415.463l169.277-156.45.88 1.198-169.277 156.45z"/></g><path fill="#1a1a1a" d="M675.105 339.125H494.959a5.304 6.539 0 0 1-5.298-6.532v-73.718a5.304 6.539 0 0 1 5.298-6.532h180.145a5.304 6.539 0 0 1 5.298 6.532v73.718a5.304 6.539 0 0 1-5.298 6.532zM494.96 254.209a3.789 4.671 0 0 0-3.785 4.666v73.718a3.789 4.671 0 0 0 3.785 4.666h180.145a3.789 4.671 0 0 0 3.785-4.666v-73.718a3.789 4.671 0 0 0-3.785-4.666z"/><path fill="#b3b3b3" d="M557.66 448.05h-76.448a5.305 6.54 0 0 1-5.298-6.532V367.8a5.304 6.539 0 0 1 5.298-6.532h76.448a5.304 6.539 0 0 1 5.298 6.532v73.718a5.305 6.54 0 0 1-5.298 6.532zm-76.448-84.916a3.789 4.671 0 0 0-3.785 4.666v73.718a3.789 4.671 0 0 0 3.785 4.666h76.448a3.789 4.671 0 0 0 3.785-4.666V367.8a3.789 4.671 0 0 0-3.785-4.666z"/><path fill="#999" d="M238.241 419.097H77.288a4.739 5.49 0 0 1-4.734-5.484V262.421a4.739 5.49 0 0 1 4.734-5.484h160.953a4.739 5.49 0 0 1 4.734 5.484v151.192a4.74 5.49 0 0 1-4.734 5.484zM77.288 258.504a3.385 3.922 0 0 0-3.381 3.917v151.192a3.385 3.922 0 0 0 3.381 3.917h160.953a3.385 3.922 0 0 0 3.381-3.917V262.421a3.385 3.922 0 0 0-3.381-3.917z"/><g class="W"><path d="M507.622 420.591h-38.379c-.048.001-.096-.002-.143-.01l18.152-30.282a1.28 1.28 0 0 1 1.106-.621 1.28 1.28 0 0 1 1.106.621l12.766 21.294z"/><ellipse cy="391.995" cx="503.972" rx="5.686" ry="5.476"/></g><use xlink:href="#B" y="50" class="X"/><use xlink:href="#B" fill="#ececec" y="50"/><use xlink:href="#B" y="50" class="V"/><use xlink:href="#B" y="50" class="X"/><use xlink:href="#B" y="50" class="V"/><use xlink:href="#B" fill="#ececec" y="50"/><use xlink:href="#C" y="50" class="X"/><use xlink:href="#C" y="50" class="V"/><g transform="translate(0 50)" class="X"><use xlink:href="#C" y="53.237"/><use xlink:href="#C" y="79.869"/><use xlink:href="#C" y="106.501"/></g><use xlink:href="#C" y="50" class="V"/><g class="a"><ellipse cy="422.983" cx="298.683" rx="4.194" ry="4.295"/><ellipse cy="476.247" cx="298.683" rx="4.194" ry="4.295" opacity=".843"/><ellipse cy="502.879" cx="298.683" rx="4.194" ry="4.295"/><path d="M526.18 436.661h-61.547c-5.239-.006-9.485-4.407-9.491-9.838V381.51c.006-5.431 4.252-9.832 9.491-9.838h61.547c5.239.006 9.485 4.407 9.491 9.838v45.313c-.006 5.431-4.252 9.832-9.491 9.838z"/></g><path d="M503.432 400.888h-16.106a4.602 4.77 0 0 1 0-9.539h16.106a4.602 4.77 0 0 1 0 9.539zm9.518 16.098h-35.087a4.602 4.77 0 0 1 0-9.539h35.087a4.602 4.77 0 0 1 0 9.539z" class="W"/><path fill-rule="evenodd" fill="#7952b3" d="M530.704 476.394c-5.827 0-10.138 4.715-9.945 9.828.185 4.912-.056 11.274-1.788 16.463-1.739 5.203-4.677 8.5-9.477 8.923v4.778c4.8.424 7.738 3.72 9.477 8.923 1.733 5.188 1.973 11.55 1.788 16.463-.193 5.112 4.118 9.828 9.946 9.828h59.702c5.826 0 10.137-4.715 9.944-9.828-.185-4.912.056-11.274 1.788-16.463 1.739-5.204 4.67-8.5 9.47-8.923v-4.778c-4.8-.424-7.731-3.719-9.47-8.923-1.733-5.188-1.973-11.55-1.788-16.463.193-5.112-4.117-9.828-9.944-9.828zm48.02 46.294c0 7.04-5.68 11.31-15.107 11.31H547.57a1.731 1.6 0 0 1-1.731-1.6v-36.802a1.731 1.6 0 0 1 1.731-1.6h15.955c7.86 0 13.019 3.936 13.019 9.98 0 4.242-3.47 8.039-7.891 8.704v.221c6.018.61 10.071 4.464 10.071 9.787zm-16.856-23.62h-9.149v11.948h7.706c5.957 0 9.242-2.218 9.242-6.182 0-3.715-2.825-5.766-7.799-5.766zm-9.149 16.689v13.167h9.486c6.203 0 9.488-2.301 9.488-6.625s-3.378-6.543-9.887-6.543h-9.087z"/><path fill="#f7df1e" d="M327.79 284.053h95.844v88.39H327.79z"/><path d="M352.99 357.918l7.335-4.094c1.415 2.314 2.702 4.271 5.79 4.271 2.96 0 4.826-1.068 4.826-5.221v-28.243h9.007v28.36c0 8.603-5.468 12.519-13.446 12.519-7.205 0-11.388-3.441-13.511-7.595m31.848-.887l7.334-3.916c1.931 2.908 4.44 5.043 8.879 5.043 3.732 0 6.112-1.721 6.112-4.094 0-2.848-2.445-3.857-6.562-5.518l-2.251-.891c-6.498-2.551-10.809-5.755-10.809-12.519 0-6.23 5.147-10.977 13.189-10.977 5.726 0 9.843 1.84 12.803 6.646l-7.013 4.153c-1.544-2.551-3.216-3.56-5.79-3.56-2.638 0-4.311 1.543-4.311 3.56 0 2.492 1.673 3.501 5.533 5.044l2.252.89c7.656 3.026 11.967 6.111 11.967 13.053 0 7.476-6.369 11.57-14.926 11.57-8.364 0-13.768-3.678-16.405-8.485"/><path fill="#e44d26" d="M142.505 458.805l-5.917 61.482-26.597 6.839-26.524-6.83-5.911-61.492z"/><path fill="#f16529" d="M110.032 521.898l21.491-5.527 5.056-52.539h-26.548z"/><path d="M98.529 478.916h11.502v-7.542H89.643l2.193 22.806h18.195v-7.542H99.272zm1.833 19.035H92.2l1.139 11.842 16.655 4.289.037-.01v-7.847l-.036.009-9.055-2.268-.579-6.015z" fill="#ebebeb"/><path d="M83.6 442.094h4.132v3.787h3.78v-3.787h4.132v11.467h-4.132v-3.84h-3.78v3.84H83.6zm17.478 3.803H97.44v-3.803h11.409v3.803h-3.639v7.664h-4.132zm9.582-3.803h4.309l2.65 4.029 2.648-4.029h4.31v11.467h-4.115v-5.684l-2.843 4.077h-.071l-2.845-4.077v5.684h-4.043zm15.973 0h4.133v7.676h5.811v3.79h-9.944z"/><path d="M110.003 494.181h10.012l-.944 9.781-9.068 2.27v7.846l16.669-4.285 2.231-23.154h-18.9zm0-15.283v.018h19.64l.728-7.542h-20.368v7.523z" class="W"/><path fill="#264de4" d="M208.705 570.294l-26.359-7.425-5.874-66.85h64.546l-5.88 66.839z"/><path fill="#2965f1" d="M230.103 558.603l5.025-57.117h-26.384v63.125z"/><path d="M189.938 526.28l.724 8.199h18.083v-8.199zm-1.455-16.595l.735 8.199h19.527v-8.199zm20.262 37.888l-.035.01-8.999-2.466-.575-6.539h-8.112l1.132 12.873 16.552 4.662.037-.01z" fill="#ebebeb"/><path d="M191.662 477.853h9.787v4.153h-5.694v4.153h5.694v4.153h-9.787z"/><use xlink:href="#D" y="50"/><use xlink:href="#D" x="11.745" y="50"/><path d="M227.5 526.28l1.459-16.595h-20.242v8.199h11.386l-.735 8.396h-10.651v8.199h9.95l-.938 10.633-9.012 2.468v8.53l16.565-4.658 2.02-22.97z" class="W"/><g transform="matrix(.975961 0 0 .994743 1062.2327 87.61757)"><path d="M-476.187 252.618l-106.662.397c-5.116-3.695-2.841-16.255-2.117-14.791 26.705-8.803 67.267-13.879 108.779 14.394z" class="a"/><path fill="#00c7ff" d="M-396.663 250.776v2.06h-131.83v-.439s64.87-45.657 131.83-1.62z"/><ellipse fill="#ffda00" cy="188.156" cx="-566.32" rx="7.405" ry="7.088"/><g class="a"><path d="M-527.545 249.35h-4.724s-1.476-36.433 4.724-47.677h1.181s-4.134 41.222-1.181 47.677z" opacity=".775"/><path d="M-530.793 199.799s-3.838 7.496-2.067 10.827c0 0 2.657-6.871 5.754-7.912s6.345 7.912 6.345 7.912 1.772-5.622-1.476-10.189c0 0 6.496 2.499 9.744 7.288 0 0 .591-3.101-7.086-9.578 0 0 6.791 1.249 11.22 4.164 0 0 1.476-2.29-7.677-6.038 0 0 1.181-2.707 8.267-1.458 0 0 0-3.544-11.22-2.915 0 0 0-2.29 7.381-1.874 0 0 0-2.915-8.562-1.874 0 0 1.771-1.874 2.953-2.29a5.937 4.186 0 0 0-4.134.833s.295-3.748-4.134-5.205l-.591 5.205s-4.963-4.124-3.838-3.331c.295.208 1.181 2.707.886 3.956 0 0-5.026-2.915-11.22.208 0 0 7.677.416 8.858 2.29 0 0-6.495-.833-7.972-.208 0 0 5.026 1.249 4.724 2.082 0 0-8.858 0-10.051 2.29 0 0 9.153.833 9.744 1.458 0 0-10.629 5.414-11.22 6.871 0 0 10.924-4.581 12.696-4.581s-7.972 6.645-7.381 8.329c.025-.013 8.022-6.676 10.058-6.26z" opacity=".775"/><path d="M-469.279 247.985h3.606s1.131-27.834-3.606-36.424h-.905s3.166 31.485.905 36.424z"/><path d="M-466.798 210.13s2.934 5.728 1.577 8.271c0 0-2.029-5.25-4.397-6.043s-4.85 6.043-4.85 6.043-1.351-4.293 1.131-7.793a19.606 13.826 0 0 0-7.444 5.569s-.452-2.388 5.415-7.319c0 0-5.189.952-8.569 3.181 0 0-1.131-1.75 5.868-4.612 0 0-.905-2.069-6.313-1.112 0 0 0-2.702 8.569-2.215 0 0 0-1.75-5.654-1.431 0 0 0-2.215 6.54-1.431 0 0-1.351-1.431-2.255-1.75a4.536 3.199 0 0 1 3.141.638s-.226-2.862 3.141-3.987l.452 3.987 2.934-2.543a9.894 6.977 0 0 0-.678 3.021s3.832-2.215 8.569.159c0 0-5.868.319-6.766 1.75 0 0 4.963-.638 6.087-.159 0 0-3.832.952-3.606 1.59 0 0 6.766 0 7.67 1.75 0 0-6.992.638-7.444 1.112 0 0 8.123 4.138 8.569 5.25 0 0-8.343-3.5-9.7-3.5s6.087 5.09 5.654 6.362c.031-.018-6.056-5.099-7.639-4.789zm40.696 32.415h2.236s.697-17.238-2.236-22.558h-.559s1.954 19.515.559 22.558z"/><path d="M-424.563 219.101s1.815 3.544.98 5.121c0 0-1.256-3.252-2.726-3.743s-3.003 3.743-3.003 3.743-.836-2.658.697-4.829a12.143 8.563 0 0 0-4.611 3.447s-.276-1.48 3.355-4.532a14.172 9.994 0 0 0-5.308 1.971s-.697-1.085 3.631-2.857c0 0-.559-1.28-3.914-.691 0 0 0-1.675 5.308-1.378 0 0 0-1.085-3.493-.886 0 0 0-1.378 4.052-.886a6.138 4.328 0 0 0-1.395-1.085 2.808 1.98 0 0 1 1.954.394s-.138-1.772 1.954-2.463l.276 2.463 1.815-1.577a6.125 4.319 0 0 0-.421 1.87 4.353 3.07 0 0 1 5.308.097s-3.631.195-4.19 1.085c0 0 3.072-.394 3.769-.097 0 0-2.375.589-2.236.983 0 0 4.19 0 4.749 1.085 0 0-4.328.394-4.611.691 0 0 5.026 2.561 5.308 3.252l-6.006-2.166c-.836 0 3.769 3.154 3.493 3.938.013.005-3.763-3.15-4.737-2.95z"/></g><path fill="url(#A)" d="M-509.954 223.052h0l-.39-1.772a1.129.961 0 0 0-.354-.696l-1.806-.753a2.045 1.741 0 0 1-.323-.443l.031-.04a1.082.921 0 0 0 .208-.359.718.611 0 0 0 0-.102h.026a.671.571 0 0 0 .744-.443v-.04a.671.571 0 0 1-.609.443 1.842 1.568 0 0 0 .817-1.302v-.066a.666.567 0 0 0 .307-.381v-.04a.666.567 0 0 1-.317.354 1.832 1.559 0 0 0-.115-.443h.047a.671.571 0 0 0 .671-.571v-.04a.671.571 0 0 1-.666.532h-.083v-.027a1.098.935 0 0 0 .77-.758v-.04a.666.567 0 0 1-.135.306.671.571 0 0 0-1.322-.168l-.12-.058a.671.571 0 0 1 .604-.416h-.047a.671.571 0 0 0-.64.385 1.842 1.568 0 0 0-2.321.567c-.14.089-.323.217-.317.328a1.275 1.085 0 0 0-.161.168 2.55 2.171 0 0 0-.208 1.183 1.473 1.254 0 0 1-.479 1.085.635.54 0 0 0 .489 0 1.884 1.604 0 0 0 .432-.217.968.824 0 0 0 .307-.253v-.022a1.52 1.294 0 0 0 .276.124c.037.266.047.571-.094.673h0l.026-.049a1.691 1.44 0 0 1-1.171.284 1.462 1.245 0 0 0-1.212.665l-.567 2.016v.071a.182.155 0 0 0 .135.111l.177.04a3.674 3.128 0 0 1-.12 1.023 10.268 8.741 0 0 0-.203 1.506c.041.253.115 1.568.151 2.193a7.629 6.495 0 0 0-.151.647l-.838 4.279-.593 4.461-.109.598s-1.702 1.816-1.202 2.073 1.27.368 2.004-.598a1.837 1.564 0 0 1 .468-.598.687.585 0 0 0 .234-.501l-.052-.443.088.027h.052s.838-2.344.744-3.987c0 0 1.561-4.705 2.732-5.445v-.031l.109-.044.25 4.559-.255 5.024-.057.301s-1.702 1.816-1.202 2.073 1.27.368 2.004-.598a1.837 1.564 0 0 1 .468-.598.687.585 0 0 0 .234-.501l-.078-.665c.291-.846 1.041-3.283.734-4.696l.52-3.004c.52-.501.453-1.772.453-1.772.411-.731.521-3.597.521-3.597l.104-1.418a1.384 1.178 0 0 1 .234 0h.083v-.027a.156.133 0 0 0 .037-.04h.031v-.036zm-1.457 2.88l-.156-.292h-.042v-.036a.203.173 0 0 1 0-.036v-.036a1.436 1.223 0 0 0 .062-.146.651.554 0 0 0 .099-.306 3.404 2.897 0 0 1 .037.851zm-.156-1.214l-.104-.948.031-.075.14 1.205zm-4.934.128a.39.332 0 0 0-.094.257v.031a1.265 1.077 0 0 0 .047.284l-.161.594v-1.134a2.946 2.507 0 0 0 .281-.381.729.62 0 0 1-.073.35z"/><path d="M-515.449 217.528a2.456 2.091 0 0 0-.203 1.139 1.421 1.209 0 0 1-.463 1.046.614.523 0 0 0 .473 0 1.816 1.546 0 0 0 .416-.208.932.793 0 0 0 .297-.244 1.103.939 0 0 0 .068-.483 6.016 5.121 0 0 1 .089-.864c.031-.177.229-.66 0-.753s-.578.235-.677.368z" class="Y"/><path d="M-518.889 236.36l-.161.886s-1.639 1.772-1.155 1.998 1.223.354 1.931-.576a1.769 1.506 0 0 1 .448-.576h0a.661.563 0 0 0 .224-.483l-.161-1.351zm4.933.35l-.161.886s-1.639 1.772-1.155 1.998 1.223.354 1.931-.576a1.769 1.506 0 0 1 .447-.576h0a.661.563 0 0 0 .224-.483l-.161-1.351z" fill="#333"/><path fill="#4d8af0" d="M-516.511 226.118s-.77.474-1.041 2.122l-.807 4.124s-.682 3.739-.557 4.457l1.364.399s.807-2.259.718-3.832c0 0 1.639-4.971 2.789-5.316l.245 4.39-.26 4.94 1.166.199s1.181-3.145.807-4.811l.609-3.544s.697-1.892-.271-3.544z"/><path d="M-514.164 228.138v-.075c-1.15.35-2.789 5.316-2.789 5.316-.028 1.286-.264 2.562-.703 3.792l.146.044s.807-2.259.718-3.832c-.005.004 1.494-4.514 2.628-5.245zm2.462-2.414h-.156c.56 1.111.651 2.352.26 3.513l-.609 3.544c.359 1.577-.687 4.479-.796 4.785l.151.027s1.181-3.145.807-4.811l.609-3.544s.703-1.883-.265-3.513z" class="U"/><use xlink:href="#E" class="b"/><use xlink:href="#E" class="U"/><path d="M-511.926 223.898a3.643 3.101 0 0 1 1.624-.545.151.128 0 0 0 .151-.128h0s-1.363-.456-1.775.673z" class="b"/><path d="M-510.152 223.221s-1.363-.443-1.775.673c0 0 1.004-.656 1.702-.549" class="U"/><ellipse cy="217.882" cx="-513.508" rx="1.775" ry="1.511" class="Y"/><path d="M-514.731 218.941s.25.886 0 1.068-.755.518-.375.78 1.738.704 2.191.487.968-.151.843-.594-1.114-.35-1.129-2.552z" class="Z"/><path d="M-517.245 222.623a6.495 5.529 0 0 1-.109 1.435 9.888 8.417 0 0 0-.198 1.449c.052.319.161 2.428.161 2.428s-.198 1.847.859 1.679-.161-2.109-.161-2.109l.052-2.521a2.763 2.352 0 0 0 .52-1.13c.078-.607-1.124-1.232-1.124-1.232z" class="U"/><path d="M-517.26 222.623a6.495 5.529 0 0 1-.109 1.435 9.888 8.417 0 0 0-.198 1.449c.052.319.161 2.428.161 2.428s-.198 1.847.859 1.679-.161-2.109-.161-2.109l.052-2.521a2.763 2.352 0 0 0 .52-1.13c.073-.607-1.124-1.232-1.124-1.232z" class="Z"/><path d="M-510.5 222.76l-.146 1.971s-.089 2.764-.484 3.464c0 0 .109 1.94-.952 1.892s.177-2.122.177-2.122.567-2.157.276-2.84l-.276-2.366z" class="U"/><path d="M-510.485 222.76l-.146 1.971s-.088 2.764-.484 3.464c0 0 .109 1.94-.952 1.892s.177-2.122.177-2.122.567-2.157.276-2.84l-.276-2.366z" class="Z"/><path d="M-513.925 220.851s.859.337 1.327-.665l1.743.727a1.088.926 0 0 1 .338.673l.375 1.71s-1.275-.368-1.671.642l.109.961a1.218 1.037 0 0 1-.057.718.187.159 0 0 0 0 .128.552.47 0 0 1-.52.611 10.58 9.006 0 0 0-1.4.093c-.375.093-1.509-.182-1.884 0s-1.166-.137-1.166-.137l.213-.78s-.146-.381.037-.518.073-1.329-.089-1.666c0 0-.645-.518-1.041-.443l.52-1.971a1.405 1.196 0 0 1 1.166-.642 1.634 1.391 0 0 0 1.129-.275s-.39.727.869.833z" class="U"/><path d="M-513.836 220.815c.234.053.859.111 1.233-.691l1.743.727a1.088.926 0 0 1 .338.673l.375 1.71s-1.275-.368-1.671.642l.109.961.073.19a.64.545 0 0 1-.089.487.203.173 0 0 0-.036.177.552.47 0 0 1-.52.611 10.58 9.006 0 0 0-1.4.093c-.375.093-1.509-.182-1.884 0s-1.166-.137-1.166-.137l.213-.78s-.146-.381.036-.518.073-1.329-.088-1.666c0 0-.645-.518-1.041-.443l.52-1.971a1.405 1.196 0 0 1 1.166-.642 1.634 1.391 0 0 0 1.129-.275s-.422.656.687.797z" class="U"/><path d="M-513.836 220.846c.234.053.859.111 1.233-.691l1.743.727a1.088.926 0 0 1 .338.673l.375 1.71s-1.275-.368-1.671.642l.109.961a1.218 1.037 0 0 1-.057.718.187.159 0 0 0 0 .128.552.47 0 0 1-.521.611 10.58 9.006 0 0 0-1.4.093c-.375.093-1.509-.182-1.884 0s-1.166-.137-1.166-.137l.213-.78s-.146-.381.036-.518.073-1.329-.089-1.666c0 0-.645-.518-1.041-.443l.52-1.971a1.405 1.196 0 0 1 1.166-.642 1.634 1.391 0 0 0 1.129-.275s-.422.656.687.797z" class="b"/><path d="M-513.175 218.21l-1.525.811a4.954 4.217 0 0 1 .089.443 1.468 1.249 0 0 0 .546.089 1.561 1.329 0 0 0 .989-.381 5.928 5.046 0 0 1-.099-.961z" class="U"/><ellipse cy="218.201" cx="-514.096" rx="1.473" ry="1.254" class="Z"/><g class="Y"><ellipse cy="216.691" cx="-511.926" rx=".645" ry=".549"/><path d="M-511.801 217.271a.645.549 0 0 1-.645-.509v.04a.646.549 0 1 0 1.291 0v-.04a.645.549 0 0 1-.645.509z"/><path d="M-512.171 217.794a.645.549 0 0 1-.52-.602v.036a.646.55 0 1 0 1.27.199v-.04a.645.549 0 0 1-.749.408zm-.499 1.329a.645.549 0 0 1-.52-.602v.036a.646.55 0 0 0 1.27.199v-.04a.645.549 0 0 1-.749.408z"/><path d="M-511.801 216.979a.645.549 0 0 1-.645-.514v.04a.646.549 0 1 0 1.291 0v-.04a.645.549 0 0 1-.645.514z"/><path d="M-512.702 216.682a.645.549 0 0 1 .609-.545h-.047a.646.55 0 0 0 0 1.099h.047a.645.549 0 0 1-.609-.554z"/></g><path d="M-512.051 221.865a2.326 1.98 0 0 1 0 .824s-.089.718.052.842m-4.413-1.498a2.326 1.98 0 0 1 0 .824s-.088.718.053.842m-.09 1.28a.64.545 0 0 0 .432 0 .895.762 0 0 1 .52 0m-.733-1.081a3.721 3.168 0 0 0 1.488-.199s1.832.381 2.352.106" class="U"/><rect ry=".297" rx=".349" height=".594" width="1.129" y="230.482" x="-517.562" class="Z"/><g fill="#f0e4e4"><use xlink:href="#F"/><use xlink:href="#G"/><use xlink:href="#G" y=".106"/><use xlink:href="#G" y=".217"/><use xlink:href="#G" y=".323"/><use xlink:href="#H"/><use xlink:href="#H" y="-.053"/><use xlink:href="#H" y="-.106"/><use xlink:href="#H" y="-.159"/><use xlink:href="#F" y="-.08"/><use xlink:href="#F" y="-.173"/></g><path d="M-513.846 217.399a3.56 3.03 0 0 0 .208 1.382 1.931 1.644 0 0 1-.078 1.329.52.443 0 0 0 .458-.097 1.775 1.511 0 0 0 .333-.332 1.041.886 0 0 0 .203-.346 1.608 1.369 0 0 0-.104-.585 8.847 7.531 0 0 1-.219-1.032c-.031-.213 0-.824-.281-.886s-.468.39-.52.567z" class="U"/><path d="M-513.81 217.386a3.56 3.03 0 0 0 .208 1.382 1.931 1.644 0 0 1-.078 1.329.52.443 0 0 0 .458-.097 1.775 1.511 0 0 0 .333-.332 1.041.886 0 0 0 .203-.346 1.608 1.369 0 0 0-.104-.585 8.847 7.531 0 0 1-.219-1.032c-.031-.213 0-.824-.281-.886s-.468.385-.52.567z" class="Y"/><path d="M-514.445 217.714c.125.111.151.275.255.399a.921.784 0 0 0 .729.248.411.35 0 0 1 .213.04c.115.062.12.204.193.301a.416.354 0 0 0 .609 0 1.004.855 0 0 0 .234-.545 4.007 3.411 0 0 0 0-.66 1.187 1.01 0 0 0-.328-.673 1.384 1.178 0 0 0-.578-.213 1.712 1.458 0 0 0-.89-.058 1.603 1.364 0 0 0-.406.173q-.265.146-.52.297c-.192.115-.557.346-.203.47.224.089.505.049.692.222z" class="U"/><path d="M-514.409 217.696c.125.111.151.275.255.399a.921.784 0 0 0 .729.248.411.35 0 0 1 .213.04c.115.062.12.204.192.301a.416.354 0 0 0 .609 0 1.004.855 0 0 0 .234-.545 4.007 3.411 0 0 0 0-.66 1.187 1.01 0 0 0-.328-.673 1.384 1.178 0 0 0-.578-.213 1.712 1.458 0 0 0-.89-.058 1.603 1.364 0 0 0-.406.173q-.265.146-.52.297c-.192.115-.557.346-.203.47.224.089.52.053.692.221z" class="Y"/><g fill="#f0e4e4"><use xlink:href="#I"/><use xlink:href="#I" y=".106"/><use xlink:href="#I" y=".217"/><use xlink:href="#I" y=".323"/><use xlink:href="#G" x="-.224" y="6.202"/><use xlink:href="#G" x="-.224" y="6.313"/><use xlink:href="#G" x="-.224" y="6.419"/><use xlink:href="#G" x="-.224" y="6.525"/></g><path d="M-473.903 386.096l-2.855 1.428s-11.422 5.235-8.09 8.09 12.373-2.855 12.373-2.855l1.904-2.38z" class="c"/><path d="M-412.511 486.035l-7.138-3.331 6.662-56.632-19.036-16.181 1.428-23.795 40.236-.711-8.826 59.247z" class="d"/><path d="M-420.602 484.132s8.09-4.283 8.566 1.904l-.952 6.187s2.855 10.946-6.663 8.566-2.855-9.518-2.855-9.518z"/><path d="M-425.837 404.656l-6.187 5.235s0 32.361 4.283 37.12 31.41 29.03 32.361 29.982 5.235-9.518 5.235-9.518l-25.699-29.982 1.904-18.56z" class="d"/><path d="M-392.999 466.048s7.614-1.428 7.614 3.807a115.23 115.23 0 0 0 .952 12.373s1.904 16.657-4.283 14.277-8.566-19.036-8.566-19.036a7.09 7.09 0 0 1 2.855-3.331c1.904-.952 1.428-8.09 1.428-8.09z"/><g class="c"><path d="M-415.366 332.319l-3.807 6.662-10.47-9.994-.952-13.325 13.801-.952z"/><circle cx="-425.361" cy="309" r="11.422"/></g><path fill="#d0cde1" d="M-409.655 397.517l-23.32-4.759-1.903-63.771 4.756-6.699 9.521 9.555 4.759-13.801 8.566 9.518 15.705 60.439-11.898 7.139-5.234-7.615z"/><g fill="#333"><path d="M-436.306 327.084l-11.422 7.614 7.615 27.127 2.379 28.554 10.47 9.042-2.855-77.096z"/><path d="M-457.246 362.776l-19.036 23.796 7.139 7.614 21.891-21.416 8.091-17.608-5.235-19.988-3.332-.476z"/></g><path d="M-392.424 386.532l-.649 3.126s-2.971 12.208 1.335 11.363 5.428-11.48 5.428-11.48l-.688-2.969z" class="c"/><path fill="#333" d="M-395.854 355.162l5.711 31.41-5.711 6.186-21.116-71.444.384-4.045 23.587 9.339z"/><path d="M-424.763 289.817l3.353-1.676v1.676l2.235-1.118v2.794s8.382 6.146 6.705 13.41-1.676 7.823-1.676 7.823-2.119-13.814-10.501-11.579-9.056 2.639-11.291 8.785l-.606 2.636s-9.451-21.635 11.782-22.752z" class="d"/><path fill="#333" d="M-386.336 359.921v29.03l-7.614-1.428-6.187-43.783 3.807-17.132h3.807z"/></g><path d="M218.122 311.115a16.15 14.905 0 0 0-12.896 5.918 10.633 9.814 0 0 0-14.837 9.012h43.91a16.177 14.93 0 0 0-16.178-14.93z" class="X"/><ellipse ry="24.043" rx="26.052" cy="345.512" cx="121.927" class="a"/><path fill="#3f3d56" d="M268.198 395.062a12.193 11.656 0 0 1-2.815.311H97.47a12.192 11.655 0 0 1-5.913-1.452l.448-.614 18.734-25.788 32.535-44.776a3.189 3.048 0 0 1 5.24 0l43.428 59.768 30.909-42.176a3.193 3.052 0 0 1 5.233 0l20.968 28.607z"/><path d="M183.546 336.045a19.925 18.389 0 0 0-15.911 7.301 13.119 12.108 0 0 0-18.305 11.119h54.175a19.959 18.42 0 0 0-19.959-18.42z" class="V"/><path fill="#3f3d56" d="M265.695 395.739H97.268a12.649 12.055 0 0 1-12.661-12.066v-91.497a12.675 12.08 0 0 1 12.661-12.066h168.427a12.675 12.08 0 0 1 12.661 12.066v91.497a12.646 12.052 0 0 1-12.661 12.066zM97.268 280.841a11.907 11.348 0 0 0-11.893 11.335v91.497a11.882 11.324 0 0 0 11.893 11.335h168.427a11.88 11.321 0 0 0 11.893-11.335v-91.497a11.907 11.348 0 0 0-11.893-11.335z"/></svg>