<?xml version="1.0" encoding="UTF-8" standalone="no"?>
<svg
   data-name="Layer 1"
   width="567.47705"
   height="350.54782"
   viewBox="0 0 567.47704 350.54782"
   version="1.1"
   id="svg374"
   sodipodi:docname="Website-Design-AWS-Aruba.svg"
   inkscape:version="1.2.2 (732a01da63, 2022-12-09)"
   xmlns:inkscape="http://www.inkscape.org/namespaces/inkscape"
   xmlns:sodipodi="http://sodipodi.sourceforge.net/DTD/sodipodi-0.dtd"
   xmlns="http://www.w3.org/2000/svg"
   xmlns:svg="http://www.w3.org/2000/svg">
  <defs
     id="defs378" />
  <sodipodi:namedview
     id="namedview376"
     pagecolor="#ffffff"
     bordercolor="#000000"
     borderopacity="0.25"
     inkscape:showpageshadow="2"
     inkscape:pageopacity="0.0"
     inkscape:pagecheckerboard="0"
     inkscape:deskcolor="#d1d1d1"
     showgrid="false"
     inkscape:zoom="1.0561606"
     inkscape:cx="222.50404"
     inkscape:cy="108.88495"
     inkscape:window-width="1366"
     inkscape:window-height="697"
     inkscape:window-x="-8"
     inkscape:window-y="-8"
     inkscape:window-maximized="1"
     inkscape:current-layer="svg374" />
  <path
     d="M 529.57007,350.54781 H 16.73157 a 16.51867,16.51867 0 0 1 -16.5,-16.5 V 25.894 A 12.10184,12.10184 0 0 1 12.31946,13.80562 h 521.45349 a 12.31112,12.31112 0 0 1 12.29712,12.29736 v 307.94483 a 16.51868,16.51868 0 0 1 -16.5,16.5 z"
     fill="#f2f2f2"
     id="path264"
     style="fill:#f4d7d7" />
  <path
     d="m 32.73157,334.04781 h 480.8385 a 16,16 0 0 0 16,-16 V 56.49996 a 16,16 0 0 0 -16,-16 H 32.73157 a 16,16 0 0 0 -16,16 v 261.54785 a 16,16 0 0 0 16,16 z"
     fill="#ffffff"
     id="path266" />
  <path
     d="M 545.84033,24.95019 H 0 V 16.5498 A 16.57376,16.57376 0 0 1 16.56006,0 h 512.72021 a 16.57368,16.57368 0 0 1 16.56006,16.5498 z"
     fill="#f50004"
     id="path268" />
  <circle
     cx="30.095356"
     cy="12.499954"
     r="4.2834201"
     fill="#ffffff"
     id="circle270" />
  <circle
     cx="46.35416"
     cy="12.499954"
     r="4.2834201"
     fill="#ffffff"
     id="circle272" />
  <circle
     cx="62.612965"
     cy="12.499954"
     r="4.2834201"
     fill="#ffffff"
     id="circle274" />
  <path
     d="m 288.15425,277.32673 h -43 a 9.51081,9.51081 0 0 1 -9.5,-9.5 v -43 a 9.51081,9.51081 0 0 1 9.5,-9.5 h 43 a 9.51081,9.51081 0 0 1 9.5,9.5 v 43 a 9.51081,9.51081 0 0 1 -9.5,9.5 z m -43,-60 a 7.50835,7.50835 0 0 0 -7.5,7.5 v 43 a 7.50836,7.50836 0 0 0 7.5,7.5 h 43 a 7.50836,7.50836 0 0 0 7.5,-7.5 v -43 a 7.50835,7.50835 0 0 0 -7.5,-7.5 z"
     fill="#ccc"
     id="path276"
     style="fill:#333333" />
  <path
     d="m 279.65425,265.32673 h -26 a 3.00328,3.00328 0 0 1 -3,-3 v -32 a 3.00328,3.00328 0 0 1 3,-3 h 18.83935 a 3.0073,3.0073 0 0 1 1.8794,0.66162 l 7.16016,5.7539 a 2.9844,2.9844 0 0 1 1.12109,2.33838 v 26.2461 a 3.00328,3.00328 0 0 1 -3,3 z m -26,-36 a 1.0013,1.0013 0 0 0 -1,1 v 32 a 1.0013,1.0013 0 0 0 1,1 h 26 a 1.0013,1.0013 0 0 0 1,-1 v -26.2461 a 0.99457,0.99457 0 0 0 -0.37354,-0.77929 l -7.16113,-5.7544 a 1.00206,1.00206 0 0 0 -0.626,-0.22021 z"
     fill="#ccc"
     id="path278"
     style="fill:#ff0000" />
  <path
     d="m 274.65425,241.32673 h -16 a 1,1 0 0 1 0,-2 h 16 a 1,1 0 0 1 0,2 z"
     fill="#ccc"
     id="path280"
     style="fill:#ff0000" />
  <path
     d="m 274.65425,247.32673 h -16 a 1,1 0 0 1 0,-2 h 16 a 1,1 0 0 1 0,2 z"
     fill="#ccc"
     id="path282"
     style="fill:#ff0000" />
  <path
     d="m 274.65425,253.32673 h -16 a 1,1 0 0 1 0,-2 h 16 a 1,1 0 0 1 0,2 z"
     fill="#ccc"
     id="path284"
     style="fill:#ff0000" />
  <path
     d="m 390.15425,277.32673 h -43 a 9.51081,9.51081 0 0 1 -9.5,-9.5 v -43 a 9.51081,9.51081 0 0 1 9.5,-9.5 h 43 a 9.51081,9.51081 0 0 1 9.5,9.5 v 43 a 9.51081,9.51081 0 0 1 -9.5,9.5 z m -43,-60 a 7.50835,7.50835 0 0 0 -7.5,7.5 v 43 a 7.50836,7.50836 0 0 0 7.5,7.5 h 43 a 7.50836,7.50836 0 0 0 7.5,-7.5 v -43 a 7.50835,7.50835 0 0 0 -7.5,-7.5 z"
     fill="#ccc"
     id="path286"
     style="fill:#241c1c" />
  <path
     d="m 382.65425,257.32673 h -28 a 3.00328,3.00328 0 0 1 -3,-3 v -16 a 3.00328,3.00328 0 0 1 3,-3 h 28 a 3.00328,3.00328 0 0 1 3,3 v 16 a 3.00328,3.00328 0 0 1 -3,3 z m -28,-20 a 1.001,1.001 0 0 0 -1,1 v 16 a 1.001,1.001 0 0 0 1,1 h 28 a 1.001,1.001 0 0 0 1,-1 v -16 a 1.001,1.001 0 0 0 -1,-1 z"
     fill="#ccc"
     id="path288"
     style="fill:#ff0000" />
  <path
     d="m 368.65425,248.96491 a 3.00345,3.00345 0 0 1 -1.58984,-0.45264 l -14.94043,-9.3374 a 1.00027,1.00027 0 0 1 1.06054,-1.69629 l 14.94043,9.3374 a 1.00555,1.00555 0 0 0 1.05957,0 l 14.93946,-9.3374 a 1.00027,1.00027 0 0 1 1.06054,1.69629 l -14.93945,9.3374 a 3.00432,3.00432 0 0 1 -1.59082,0.45264 z"
     fill="#ccc"
     id="path290"
     style="fill:#d40000" />
  <path
     d="m 186.15425,277.32673 h -43 a 9.51081,9.51081 0 0 1 -9.5,-9.5 v -43 a 9.51081,9.51081 0 0 1 9.5,-9.5 h 43 a 9.51081,9.51081 0 0 1 9.5,9.5 v 43 a 9.51081,9.51081 0 0 1 -9.5,9.5 z m -43,-60 a 7.50835,7.50835 0 0 0 -7.5,7.5 v 43 a 7.50836,7.50836 0 0 0 7.5,7.5 h 43 a 7.50836,7.50836 0 0 0 7.5,-7.5 v -43 a 7.50835,7.50835 0 0 0 -7.5,-7.5 z"
     fill="#ccc"
     id="path292"
     style="fill:#333333" />
  <path
     d="m 178.65425,257.32673 h -28 a 3.00328,3.00328 0 0 1 -3,-3 v -16 a 3.00328,3.00328 0 0 1 3,-3 h 28 a 3.00328,3.00328 0 0 1 3,3 v 16 a 3.00328,3.00328 0 0 1 -3,3 z m -28,-20 a 1.001,1.001 0 0 0 -1,1 v 16 a 1.001,1.001 0 0 0 1,1 h 28 a 1.001,1.001 0 0 0 1,-1 v -16 a 1.001,1.001 0 0 0 -1,-1 z"
     fill="#ccc"
     id="path294"
     style="fill:#ff0000" />
  <path
     d="m 174.21626,257.32673 h -20.124 a 1.99958,1.99958 0 0 1 -1.73194,-3 l 6.06153,-10.5 a 2.00022,2.00022 0 0 1 3.46435,0 l 3.915,6.78125 2.26807,-3.92871 a 2.00022,2.00022 0 0 1 3.46435,0 l 4.415,7.64746 a 2,2 0 0 1 -1.73242,3 z m 0,-2 v 0 l -4.415,-7.64746 -3.13379,5.42871 a 0.99985,0.99985 0 0 1 -0.86621,0.5 v 0 a 0.99985,0.99985 0 0 1 -0.86621,-0.5 l -4.78076,-8.28125 -6.062,10.5 z"
     fill="#ccc"
     id="path296"
     style="fill:#ff0000" />
  <circle
     cx="175.65414"
     cy="241.32654"
     r="2"
     fill="#ccc"
     id="circle298"
     style="fill:#d40000" />
  <path
     d="m 550.47725,164.72029 h -304 a 16.51867,16.51867 0 0 1 -16.5,-16.5 v -65 a 16.51868,16.51868 0 0 1 16.5,-16.5 h 304 a 16.519,16.519 0 0 1 16.5,16.5 v 65 a 16.519,16.519 0 0 1 -16.5,16.5 z"
     fill="#ffffff"
     id="path326" />
  <path
     d="m 550.47708,165.22043 h -304 a 17.01917,17.01917 0 0 1 -17,-17 v -65 a 17.01916,17.01916 0 0 1 17,-17 h 304 a 17.01916,17.01916 0 0 1 17,17 v 65 a 17.01917,17.01917 0 0 1 -17,17 z m -304,-97 a 15.017,15.017 0 0 0 -15,15 v 65 a 15.017,15.017 0 0 0 15,15 h 304 a 15.017,15.017 0 0 0 15,-15 v -65 a 15.017,15.017 0 0 0 -15,-15 z"
     fill="#3f3d56"
     id="path328" />
  <path
     d="m 513.47708,148.72043 h -230 a 16.51868,16.51868 0 0 1 -16.5,-16.5 v -34 a 16.51867,16.51867 0 0 1 16.5,-16.5 h 230 a 16.51866,16.51866 0 0 1 16.5,16.5 v 34 a 16.51867,16.51867 0 0 1 -16.5,16.5 z"
     fill="#f2f2f2"
     id="path330" />
  <circle
     cx="332.97202"
     cy="110.66249"
     r="19.732281"
     fill="#ff6584"
     id="circle332"
     style="fill:#ff0000" />
  <path
     d="m 499.18409,146.72909 -27.85254,-23.35968 -27.37158,-22.95636 a 4.00031,4.00031 0 0 0 -5.15283,0.01 l -27.28321,23.06165 -6.66406,5.6333 -10.04834,-8.42737 -30.53711,-25.61084 a 3.99964,3.99964 0 0 0 -5.15234,0.01 l -30.438,25.72833 -30.917,26.13349 a 0.99994,0.99994 0 0 0 0.64746,1.76373 l 63.38672,-0.12213 20.064,-0.0386 -0.19629,0.166 59.80762,-0.11524 57.0669,-0.10992 a 0.99989,0.99989 0 0 0 0.6406,-1.76621 z"
     fill="#3f3d56"
     id="path334" />
  <path
     d="m 81.65425,188.22043 h -43 a 9.51081,9.51081 0 0 1 -9.5,-9.5 v -43 a 9.51081,9.51081 0 0 1 9.5,-9.5 h 43 a 9.51081,9.51081 0 0 1 9.5,9.5 v 43 a 9.51081,9.51081 0 0 1 -9.5,9.5 z"
     fill="#ffffff"
     id="path366" />
  <path
     d="m 81.65425,188.22043 h -43 a 9.51081,9.51081 0 0 1 -9.5,-9.5 v -43 a 9.51081,9.51081 0 0 1 9.5,-9.5 h 43 a 9.51081,9.51081 0 0 1 9.5,9.5 v 43 a 9.51081,9.51081 0 0 1 -9.5,9.5 z m -43,-60 a 7.50836,7.50836 0 0 0 -7.5,7.5 v 43 a 7.50836,7.50836 0 0 0 7.5,7.5 h 43 a 7.50836,7.50836 0 0 0 7.5,-7.5 v -43 a 7.50836,7.50836 0 0 0 -7.5,-7.5 z"
     fill="#3f3d56"
     id="path368" />
  <path
     d="m 74.15425,170.72043 h -28 a 3.00328,3.00328 0 0 1 -3,-3 v -21 a 3.00328,3.00328 0 0 1 3,-3 h 7.88232 a 2.98117,2.98117 0 0 1 2.55518,1.42724 l 2.19824,3.57276 h 15.36426 a 3.00328,3.00328 0 0 1 3,3 v 16 a 3.00328,3.00328 0 0 1 -3,3 z"
     fill="#f50004"
     id="path370" />
</svg>
