<?xml version="1.0" encoding="UTF-8" standalone="no"?>
<svg
   width="626.5"
   height="379.01199"
   fill="none"
   version="1.1"
   id="svg29219"
   sodipodi:docname="Website-Analytics-AWS-Aruba.svg"
   inkscape:version="1.2.2 (732a01da63, 2022-12-09)"
   xmlns:inkscape="http://www.inkscape.org/namespaces/inkscape"
   xmlns:sodipodi="http://sodipodi.sourceforge.net/DTD/sodipodi-0.dtd"
   xmlns="http://www.w3.org/2000/svg"
   xmlns:svg="http://www.w3.org/2000/svg">
  <sodipodi:namedview
     id="namedview29221"
     pagecolor="#ffffff"
     bordercolor="#000000"
     borderopacity="0.25"
     inkscape:showpageshadow="2"
     inkscape:pageopacity="0.0"
     inkscape:pagecheckerboard="0"
     inkscape:deskcolor="#d1d1d1"
     showgrid="false"
     inkscape:zoom="0.78666667"
     inkscape:cx="313.98305"
     inkscape:cy="179.23729"
     inkscape:window-width="1366"
     inkscape:window-height="697"
     inkscape:window-x="-8"
     inkscape:window-y="-8"
     inkscape:window-maximized="1"
     inkscape:current-layer="svg29219" />
  <style
     id="style29128"><![CDATA[.B{stroke:#e6e2e2}.C{fill:#2a7fff}.D{fill:#e1e4e5}.E{stroke-linecap:round}.F{fill-rule:evenodd}.G{stroke-linejoin:round}]]></style>
  <path
     fill="transparent"
     d="m -136.5,-121.347 h 900 v 600 h -900 z"
     id="path29130" />
  <g
     fill="#ffffff"
     stroke-width="4"
     class="B"
     id="g29136"
     transform="translate(-136.5,-121.347)">
    <path
       d="M 695.814,485.589 H 202.062 c -14.598,0 -26.437,-11.838 -26.437,-26.436 V 149.784 c 0,-14.598 11.839,-26.437 26.437,-26.437 h 493.752 c 14.599,0 26.437,11.839 26.437,26.437 v 309.369 c 0,14.598 -11.838,26.436 -26.437,26.436 z"
       id="path29132" />
    <path
       d="m 722.251,149.784 a 8.34,8.34 0 0 1 -8.34,8.339 H 183.965 a 8.34,8.34 0 0 1 -8.34,-8.339 c 0,-14.598 11.839,-26.437 26.437,-26.437 h 493.752 c 14.599,0 26.437,11.839 26.437,26.437 z"
       id="path29134" />
  </g>
  <path
     d="m 65.615,26.742 a 6.107,6.107 0 1 0 0,-12.213 6.107,6.107 0 0 0 0,12.213 z m 25.445,0 a 6.107,6.107 0 1 0 0,-12.213 6.107,6.107 0 0 0 0,12.213 z m 24.428,0 a 6.107,6.107 0 1 0 0,-12.213 6.107,6.107 0 0 0 0,12.213 z"
     fill="#59f"
     class="B"
     id="path29138"
     style="fill:#ffffff" />
  <rect
     x="0.5"
     y="85.666"
     width="229.744"
     height="88.106003"
     rx="11.013"
     fill="#06f"
     class="B"
     id="rect29140"
     style="fill:#ff0000" />
  <g
     fill="#ffffff"
     class="B"
     id="g29148"
     transform="translate(-136.5,-121.347)">
    <rect
       x="203.05099"
       y="234.07001"
       width="140.06"
       height="10.345"
       rx="5.1729999"
       id="rect29142" />
    <rect
       x="203.05099"
       y="257.14801"
       width="90.721001"
       height="10.345"
       rx="5.1729999"
       id="rect29144" />
    <circle
       cx="174.40199"
       cy="250.782"
       r="16.712"
       id="circle29146" />
  </g>
  <rect
     x="349.5"
     y="185.653"
     width="206.55901"
     height="192.85899"
     rx="11.013"
     class="B C"
     id="rect29150"
     style="fill:#ff2a2a" />
  <g
     fill="#ffffff"
     class="B"
     id="g29172"
     transform="translate(-136.5,-121.347)">
    <rect
       x="545.38501"
       y="438.82101"
       width="125.925"
       height="9.3009996"
       rx="4.651"
       id="rect29152" />
    <rect
       x="545.01703"
       y="419.76401"
       width="81.148003"
       height="9.4849997"
       rx="4.7420001"
       transform="rotate(-90,545.017,419.764)"
       id="rect29154" />
    <rect
       x="586.11798"
       y="419.76401"
       width="81.148003"
       height="9.4849997"
       rx="4.7420001"
       transform="rotate(-90,586.118,419.764)"
       id="rect29156" />
    <rect
       x="627.21899"
       y="419.76401"
       width="81.148003"
       height="9.4849997"
       rx="4.7420001"
       transform="rotate(-90,627.219,419.764)"
       id="rect29158" />
    <rect
       x="545.38501"
       y="459.57101"
       width="81.565002"
       height="9.3009996"
       rx="4.651"
       id="rect29160" />
    <rect
       x="566.09399"
       y="419.76401"
       width="52.694"
       height="8.4309998"
       rx="4.2150002"
       transform="rotate(-90,566.094,419.764)"
       id="rect29162" />
    <rect
       x="607.19501"
       y="419.76401"
       width="52.694"
       height="8.4309998"
       rx="4.2150002"
       transform="rotate(-90,607.195,419.764)"
       id="rect29164" />
    <rect
       x="648.29602"
       y="419.76401"
       width="52.694"
       height="8.4309998"
       rx="4.2150002"
       transform="rotate(-90,648.296,419.764)"
       id="rect29166" />
    <circle
       cx="519.62799"
       cy="453.84601"
       r="15.025"
       id="circle29168" />
    <rect
       x="528.93298"
       y="147.064"
       width="232.067"
       height="86.530998"
       rx="18"
       stroke-width="4"
       id="rect29170" />
  </g>
  <rect
     x="458.302"
     y="51.518997"
     width="143.91499"
     height="10.63"
     rx="5.3150001"
     class="B D"
     id="rect29174" />
  <rect
     x="458.302"
     y="75.233002"
     width="93.218002"
     height="10.63"
     rx="5.3150001"
     class="B C"
     id="rect29176"
     style="fill:#ff5555" />
  <path
     d="m 427.845,91.804 c -12.513,0 -22.658,-10.289 -22.658,-22.978 0,-12.689 10.145,-22.977 22.658,-22.977 12.513,0 22.658,10.288 22.658,22.977 0,12.689 -10.145,22.978 -22.658,22.978 z"
     fill="#0055d4"
     class="B F"
     id="path29178"
     style="fill:#ff0000" />
  <path
     d="m 435.823,64.997 -9.571,10.212 -5.747,-6.126"
     stroke-width="3.568"
     class="B E G"
     id="path29180" />
  <g
     class="D B"
     id="g29186"
     transform="translate(-136.5,-121.347)">
    <path
       d="m 529.283,287.709 c -1.706,-0.629 -3.152,-1.477 -4.149,-2.15 a 1.626,1.626 0 0 1 -0.316,-2.415 1.63,1.63 0 0 1 2.142,-0.283 c 0.826,0.556 2.038,1.272 3.45,1.792 l 0.158,0.058 c 3.363,1.191 6.254,0.7 8.591,-1.46 l 3.444,-3.257 c 4.447,-4.265 6.897,-6.614 11.576,-7.227 4.773,-0.625 7.908,2.927 10.674,6.062 1.985,2.249 3.861,4.373 5.782,4.281 l 0.42,-0.02 0.253,0.128 c 0.327,0.083 3.56,0.713 8.201,-5.15 2.908,-3.675 5.66,-5.652 8.414,-6.042 1.835,-0.261 3.398,0.202 4.743,0.887 a 1.622,1.622 0 0 1 0.623,2.344 1.614,1.614 0 0 1 -2.09,0.543 c -1.988,-1.041 -4.71,-1.3 -9.134,4.289 -5.651,7.139 -10.196,6.654 -11.581,6.282 -3.324,-0.008 -5.736,-2.742 -8.072,-5.388 -2.444,-2.769 -4.753,-5.386 -7.807,-4.985 -3.619,0.474 -5.539,2.314 -9.745,6.347 a 247.946,247.946 0 0 1 -3.487,3.298 c -3.276,3.027 -7.421,3.754 -11.99,2.103 -0.034,-0.014 -0.067,-0.025 -0.1,-0.037 z"
       id="path29182" />
    <path
       d="m 594.92,277.714 c -1.706,-0.629 -3.152,-1.477 -4.149,-2.151 a 1.625,1.625 0 0 1 -0.316,-2.414 1.63,1.63 0 0 1 2.142,-0.284 c 0.826,0.557 2.038,1.273 3.45,1.793 l 0.158,0.058 c 3.363,1.191 6.254,0.7 8.591,-1.46 l 3.444,-3.257 c 4.447,-4.265 6.897,-6.614 11.576,-7.227 4.773,-0.625 7.908,2.927 10.674,6.062 1.985,2.249 3.861,4.373 5.782,4.281 l 0.42,-0.02 0.253,0.128 c 0.327,0.083 3.56,0.713 8.201,-5.15 2.908,-3.675 5.66,-5.652 8.414,-6.043 1.835,-0.26 3.398,0.203 4.743,0.888 a 1.622,1.622 0 0 1 0.623,2.344 1.614,1.614 0 0 1 -2.09,0.543 c -1.988,-1.041 -4.71,-1.3 -9.134,4.289 -5.651,7.139 -10.196,6.654 -11.581,6.282 -3.324,-0.009 -5.736,-2.742 -8.072,-5.388 -2.444,-2.77 -4.753,-5.386 -7.807,-4.986 -3.619,0.474 -5.539,2.315 -9.745,6.348 a 253.597,253.597 0 0 1 -3.487,3.298 c -3.276,3.027 -7.421,3.754 -11.99,2.103 -0.034,-0.014 -0.067,-0.025 -0.1,-0.037 z"
       id="path29184" />
  </g>
  <path
     d="M 91.499,210.995 80.26,222.223 74.8,216.779 m 41.05,-11.157 h 33.216 m -32.957,16.479 h 54.93 m -79.54,27.346 -11.239,11.228 -5.46,-5.444 m 41.05,-11.157 h 33.216 m -32.957,16.479 h 54.93 m 0,38.451 H 115.85 m 55.189,-16.479 h -54.93"
     class="E"
     id="path29188"
     style="stroke:#e6e2e2;stroke-width:5.5;stroke-linejoin:round" />
  <path
     d="M 83.149,304.498 A 10.99,10.99 0 0 0 94.136,293.512 10.99,10.99 0 0 0 83.149,282.526 10.99,10.99 0 0 0 72.163,293.512 10.99,10.99 0 0 0 83.149,304.498 Z"
     fill="#0066ff"
     id="path29190"
     style="fill:#ff0000;stroke:#e6e2e2;stroke-width:5.5;stroke-linejoin:round" />
  <path
     d="m 233.772,210.995 -11.239,11.228 -5.46,-5.444 m 41.049,-11.157 h 33.217 m -32.958,16.479 h 54.931 m -79.54,27.346 -11.239,11.228 -5.46,-5.444 m 41.049,-11.157 h 33.217 m -32.958,16.479 h 54.931 m -0.001,38.451 h -55.189 m 55.19,-16.479 h -54.931"
     class="E"
     id="path29192"
     style="stroke:#e6e2e2;stroke-width:5.5;stroke-linejoin:round" />
  <path
     d="m 225.422,304.498 a 10.99,10.99 0 0 0 10.986,-10.986 10.99,10.99 0 0 0 -10.986,-10.986 10.99,10.99 0 0 0 -10.986,10.986 10.99,10.99 0 0 0 10.986,10.986 z"
     class="C"
     id="path29194"
     style="fill:#ff0000;stroke:#e6e2e2;stroke-width:5.5;stroke-linejoin:round" />
  <g
     class="D B"
     id="g29202"
     transform="translate(-136.5,-121.347)">
    <circle
       cx="660.48901"
       cy="261.21799"
       r="6.1599998"
       transform="rotate(10.422,660.489,261.218)"
       id="circle29198" />
    <path
       d="m 512.74,242.705 h -2.171 a 0.948,0.948 0 0 1 -0.947,-0.947 v -2.171 a 0.95,0.95 0 0 1 0.947,-0.947 h 2.171 a 0.95,0.95 0 0 1 0.947,0.947 v 2.171 a 0.944,0.944 0 0 1 -0.947,0.947 z m -7.526,0 h -2.171 a 0.95,0.95 0 0 1 -0.947,-0.947 v -2.171 a 0.95,0.95 0 0 1 0.947,-0.947 h 2.171 a 0.95,0.95 0 0 1 0.947,0.947 v 2.171 a 0.95,0.95 0 0 1 -0.947,0.947 z m -7.531,0 h -2.17 a 0.951,0.951 0 0 1 -0.948,-0.947 v -2.171 a 0.95,0.95 0 0 1 0.948,-0.947 h 2.17 a 0.95,0.95 0 0 1 0.948,0.947 v 2.171 a 0.946,0.946 0 0 1 -0.948,0.947 z m -7.526,0 h -2.17 a 0.951,0.951 0 0 1 -0.948,-0.947 v -2.171 a 0.95,0.95 0 0 1 0.948,-0.947 h 2.17 c 0.525,0 0.952,0.427 0.952,0.947 v 2.171 a 0.957,0.957 0 0 1 -0.952,0.947 z m -7.526,0 h -2.171 a 0.952,0.952 0 0 1 -0.952,-0.947 v -2.171 a 0.95,0.95 0 0 1 0.952,-0.947 h 2.171 a 0.95,0.95 0 0 1 0.947,0.947 v 2.171 a 0.95,0.95 0 0 1 -0.947,0.947 z m 22.307,-8.207 h -2.17 a 0.951,0.951 0 0 1 -0.948,-0.947 v -2.175 a 0.95,0.95 0 0 1 0.948,-0.948 h 2.17 a 0.95,0.95 0 0 1 0.948,0.948 v 2.17 a 0.947,0.947 0 0 1 -0.948,0.952 z m -7.526,0 h -2.171 a 0.95,0.95 0 0 1 -0.947,-0.947 v -2.175 a 0.95,0.95 0 0 1 0.947,-0.948 h 2.171 a 0.95,0.95 0 0 1 0.948,0.948 v 2.17 a 0.947,0.947 0 0 1 -0.948,0.952 z m -7.526,0 h -2.171 a 0.952,0.952 0 0 1 -0.952,-0.947 v -2.175 c 0,-0.521 0.427,-0.948 0.952,-0.948 h 2.171 a 0.95,0.95 0 0 1 0.947,0.948 v 2.17 a 0.952,0.952 0 0 1 -0.947,0.952 z m 7.797,17.024 h -2.17 a 0.951,0.951 0 0 1 -0.948,-0.948 v -2.17 a 0.95,0.95 0 0 1 0.948,-0.948 h 2.17 a 0.95,0.95 0 0 1 0.948,0.948 v 2.17 a 0.946,0.946 0 0 1 -0.948,0.948 z m -7.526,0 h -2.17 a 0.951,0.951 0 0 1 -0.948,-0.948 v -2.17 a 0.95,0.95 0 0 1 0.948,-0.948 h 2.17 c 0.525,0 0.952,0.427 0.952,0.948 v 2.17 a 0.957,0.957 0 0 1 -0.952,0.948 z m -15.356,-42.541 h -2.171 a 0.948,0.948 0 0 1 -0.947,-0.947 v -2.171 a 0.95,0.95 0 0 1 0.947,-0.947 h 2.171 a 0.95,0.95 0 0 1 0.947,0.947 v 2.171 a 0.944,0.944 0 0 1 -0.947,0.947 z m -7.526,0 h -2.171 a 0.952,0.952 0 0 1 -0.948,-0.947 v -2.171 a 0.95,0.95 0 0 1 0.948,-0.947 h 2.171 a 0.95,0.95 0 0 1 0.947,0.947 v 2.171 a 0.95,0.95 0 0 1 -0.947,0.947 z m -7.531,0 h -2.171 a 0.95,0.95 0 0 1 -0.947,-0.947 v -2.171 a 0.95,0.95 0 0 1 0.947,-0.947 h 2.171 a 0.95,0.95 0 0 1 0.948,0.947 v 2.171 a 0.946,0.946 0 0 1 -0.948,0.947 z m -7.526,0 h -2.171 a 0.95,0.95 0 0 1 -0.947,-0.947 v -2.171 a 0.95,0.95 0 0 1 0.947,-0.947 h 2.171 c 0.525,0 0.952,0.427 0.952,0.947 v 2.171 a 0.958,0.958 0 0 1 -0.952,0.947 z m -7.526,0 h -2.171 a 0.952,0.952 0 0 1 -0.952,-0.947 v -2.171 a 0.95,0.95 0 0 1 0.952,-0.947 h 2.171 a 0.95,0.95 0 0 1 0.947,0.947 v 2.171 a 0.95,0.95 0 0 1 -0.947,0.947 z m 22.307,-8.207 h -2.171 a 0.95,0.95 0 0 1 -0.947,-0.947 v -2.175 a 0.95,0.95 0 0 1 0.947,-0.948 h 2.171 a 0.95,0.95 0 0 1 0.947,0.948 v 2.17 a 0.946,0.946 0 0 1 -0.947,0.952 z m -7.526,0 h -2.171 a 0.95,0.95 0 0 1 -0.947,-0.947 v -2.175 a 0.95,0.95 0 0 1 0.947,-0.948 h 2.171 a 0.95,0.95 0 0 1 0.947,0.948 v 2.17 a 0.946,0.946 0 0 1 -0.947,0.952 z m -7.526,0 h -2.171 a 0.952,0.952 0 0 1 -0.952,-0.947 v -2.175 c 0,-0.521 0.427,-0.948 0.952,-0.948 h 2.171 a 0.95,0.95 0 0 1 0.947,0.948 v 2.17 a 0.952,0.952 0 0 1 -0.947,0.952 z m 7.797,17.024 h -2.171 a 0.952,0.952 0 0 1 -0.947,-0.948 v -2.171 a 0.95,0.95 0 0 1 0.947,-0.947 h 2.171 a 0.95,0.95 0 0 1 0.948,0.947 v 2.171 a 0.947,0.947 0 0 1 -0.948,0.948 z m -7.526,0 h -2.171 A 0.952,0.952 0 0 1 449.1,216.85 v -2.171 a 0.95,0.95 0 0 1 0.947,-0.947 h 2.171 c 0.525,0 0.952,0.427 0.952,0.947 v 2.171 a 0.96,0.96 0 0 1 -0.952,0.948 z"
       class="F"
       id="path29200" />
  </g>
  <g
     transform="rotate(75,423.93524,107.15637)"
     class="B"
     id="g29208">
    <circle
       cx="413.11401"
       cy="256.77499"
       r="24.954"
       fill="url(#A)"
       id="circle29204"
       style="fill:url(#A)" />
    <circle
       cx="413.11401"
       cy="256.77499"
       fill="#ffffff"
       r="17.823999"
       id="circle29206" />
  </g>
  <path
     d="m 283.073,159.532 a 24.954,24.954 0 1 1 6.018,-45.715 l -3.743,6.484 a 17.456,17.456 0 0 0 -16.459,-0.539 17.465,17.465 0 0 0 -3.792,28.799 17.475,17.475 0 0 0 16.038,3.74 z"
     class="B C"
     id="path29210"
     style="fill:#ff0000" />
  <defs
     id="defs29217">
    <linearGradient
       id="A"
       x1="414.17899"
       y1="309.70999"
       x2="412.64001"
       y2="177.53"
       gradientUnits="userSpaceOnUse">
      <stop
         stop-color="#fff"
         id="stop29212" />
      <stop
         offset="1"
         stop-color="#eee"
         id="stop29214" />
    </linearGradient>
  </defs>
</svg>
