<?xml version="1.0" encoding="UTF-8" standalone="no"?>
<!--?xml version="1.0" encoding="UTF-8" standalone="no"?-->

<svg
   data-name="Layer 1"
   width="622.01044"
   height="499.4108"
   viewBox="0 0 622.01046 499.4108"
   version="1.1"
   id="svg2316"
   sodipodi:docname="website-seo-audit-services-AWS-Aruba.svg"
   inkscape:version="1.2.2 (732a01da63, 2022-12-09)"
   style=""
   xmlns:inkscape="http://www.inkscape.org/namespaces/inkscape"
   xmlns:sodipodi="http://sodipodi.sourceforge.net/DTD/sodipodi-0.dtd"
   xmlns="http://www.w3.org/2000/svg"
   xmlns:svg="http://www.w3.org/2000/svg">
  <defs
     id="defs2320" />
  <sodipodi:namedview
     id="namedview2318"
     pagecolor="#ffffff"
     bordercolor="#666666"
     borderopacity="1.0"
     inkscape:pageshadow="2"
     inkscape:pageopacity="0.0"
     inkscape:pagecheckerboard="0"
     showgrid="false"
     inkscape:zoom="0.5536265"
     inkscape:cx="281.77842"
     inkscape:cy="348.61048"
     inkscape:window-width="1366"
     inkscape:window-height="697"
     inkscape:window-x="-8"
     inkscape:window-y="-8"
     inkscape:window-maximized="1"
     inkscape:current-layer="svg2316"
     inkscape:showpageshadow="2"
     inkscape:deskcolor="#d1d1d1" />
  <path
     d="M 381.61176,238.72516 H 0 V 0 h 381.61176 z"
     fill="#ffffff"
     id="path2256"
     style="fill:#333333;stroke:none"
     class="tmOwnPMf_0" />
  <path
     d="M 381.61176,238.72516 H 0 V 0 H 381.61176 Z M 1.74252,236.98264 H 379.86924 V 1.74252 H 1.74252 Z"
     fill="#3f3d56"
     id="path2258"
     style="stroke:none;stroke-opacity:1;stroke-width:0.623622;stroke-miterlimit:4"
     class="tmOwnPMf_1" />
  <path
     d="M 333.49489,499.4108 H 115.67996 V 260.68564 h 217.81493 z"
     fill="#ffffff"
     id="path2260"
     style="fill:#333333;stroke:none"
     class="tmOwnPMf_2" />
  <path
     d="M 333.49489,499.4108 H 115.67996 V 260.68564 H 333.49489 Z M 117.42248,497.66828 H 331.75237 V 262.42815 H 117.42248 Z"
     fill="#3f3d56"
     id="path2262"
     style="stroke:none;stroke-opacity:1;stroke-width:0.623622;stroke-miterlimit:4"
     class="tmOwnPMf_3" />
  <path
     width="45.305511"
     height="1.8367"
     fill="#3f3d56"
     id="rect2264"
     style="fill:#ffffff;stroke:none"
     d="M258.56659 476.8638 L303.87210100000004 476.8638 L303.87210100000004 478.70050000000003 L258.56659 478.70050000000003 Z"
     class="tmOwnPMf_4" />
  <path
     width="45.305511"
     height="1.8367"
     fill="#3f3d56"
     id="rect2266"
     style="fill:#ffffff;stroke:none"
     d="M258.56659 482.37387 L303.87210100000004 482.37387 L303.87210100000004 484.21057 L258.56659 484.21057 Z"
     class="tmOwnPMf_5" />
  <path
     width="45.305511"
     height="1.8367"
     fill="#3f3d56"
     id="rect2268"
     style="fill:#ffffff;stroke:none"
     d="M258.56659 487.88406 L303.87210100000004 487.88406 L303.87210100000004 489.72076 L258.56659 489.72076 Z"
     class="tmOwnPMf_6" />
  <path
     d="m 224.58745,303.37715 v 19.16772 a 57.50315,57.50315 0 0 1 40.66088,98.164 l 13.55361,13.55361 A 76.67086,76.67086 0 0 0 224.58745,303.37715 Z"
     fill="#e6e6e6"
     id="path2270"
     style="stroke:none;stroke-opacity:1"
     class="tmOwnPMf_7" />
  <path
     d="m 278.80194,434.26249 -13.55361,-13.55361 a 57.48875,57.48875 0 0 1 -75.4511,5.11572 l -11.60149,15.26513 a 76.66891,76.66891 0 0 0 100.6062,-6.82724 z"
     fill="#575a89"
     id="path2272"
     style="fill:#ff0000;stroke:none;stroke-opacity:1"
     class="tmOwnPMf_8" />
  <path
     d="m 167.08431,380.048 a 57.50312,57.50312 0 0 1 57.50314,-57.50314 v -19.16771 a 76.6701,76.6701 0 0 0 -46.39171,137.71259 l 11.60152,-15.26513 A 57.403,57.403 0 0 1 167.08431,380.048 Z"
     fill="#0474f9"
     id="path2274"
     style="stroke:none;stroke-opacity:1;fill:#ff5555"
     class="tmOwnPMf_9" />
  <path
     d="M 622.01042,366.34135 H 404.19549 V 127.61576 h 217.81493 z"
     fill="#ffffff"
     id="path2276"
     style="fill:#333333;stroke:none"
     class="tmOwnPMf_10" />
  <path
     d="M 622.01042,366.34135 H 404.19549 V 127.61576 h 217.81493 z m -216.07241,-1.7425 H 620.2679 V 129.35828 H 405.93801 Z"
     fill="#3f3d56"
     id="path2278"
     style="stroke:none;stroke-opacity:1;stroke-width:0.623622;stroke-miterlimit:4"
     class="tmOwnPMf_11" />
  <path
     width="39.206692"
     height="62.730701"
     fill="#575a89"
     id="rect2280"
     style="fill:#d40000;stroke:none;stroke-opacity:1"
     d="M435.56085 273.55197 L474.767542 273.55197 L474.767542 336.282671 L435.56085 336.282671 Z"
     class="tmOwnPMf_12" />
  <path
     width="39.206692"
     height="105.42243"
     fill="#e6e6e6"
     id="rect2282"
     style="stroke:none;stroke-opacity:1"
     d="M492.19275 230.86023 L531.399442 230.86023 L531.399442 336.28266 L492.19275 336.28266 Z"
     class="tmOwnPMf_13" />
  <path
     width="39.206692"
     height="155.08423"
     fill="#0474f9"
     id="rect2284"
     style="stroke:none;stroke-opacity:1;fill:#ff0000"
     d="M548.82465 181.19844 L588.031342 181.19844 L588.031342 336.28267 L548.82465 336.28267 Z"
     class="tmOwnPMf_14" />
  <path
     fill="#3f3d56"
     id="polygon2286"
     transform="translate(-35.355045,-54.913155)"
     style="fill:#ffffff;stroke:none"
     d="M462.203,210.845L462.203,391.196L636.455,391.196L636.455,392.939L460.461,392.939L460.461,210.845Z"
     class="tmOwnPMf_15" />
  <path
     d="M 328.61499,188.7986 H 52.99677 a 0.86259,0.86259 0 0 1 -0.86256,-0.86255 V 55.83223 a 0.86256,0.86256 0 0 1 1.72512,0 v 131.24126 h 274.75566 a 0.86256,0.86256 0 1 1 0,1.72511 z"
     fill="#3f3d56"
     id="path2292"
     style="fill:#ffffff;stroke:none"
     class="tmOwnPMf_16" />
  <path
     d="M 111.88438,179.31045 H 86.81583 a 2.56337,2.56337 0 0 1 -2.56052,-2.5603 V 142.193 a 2.56337,2.56337 0 0 1 2.56052,-2.5603 h 25.06855 a 2.56337,2.56337 0 0 1 2.56051,2.5603 v 34.55712 a 2.56337,2.56337 0 0 1 -2.56051,2.56033 z"
     fill="#0474f9"
     id="path2294"
     style="stroke:none;stroke-opacity:1;fill:#ff0000"
     class="tmOwnPMf_17" />
  <path
     d="m 157.60002,179.31045 h -25.06855 a 2.56336,2.56336 0 0 1 -2.56051,-2.5603 v -67.33438 a 2.56337,2.56337 0 0 1 2.56051,-2.5603 h 25.06855 a 2.56337,2.56337 0 0 1 2.56051,2.5603 v 67.33438 a 2.56336,2.56336 0 0 1 -2.56051,2.5603 z"
     fill="#0474f9"
     id="path2296"
     style="stroke:none;stroke-opacity:1;fill:#ff2a2a"
     class="tmOwnPMf_18" />
  <path
     d="m 203.31566,179.31045 h -25.06854 a 2.56337,2.56337 0 0 1 -2.56051,-2.5603 V 142.193 a 2.56337,2.56337 0 0 1 2.56051,-2.5603 h 25.06855 a 2.56337,2.56337 0 0 1 2.56052,2.5603 v 34.55712 a 2.56337,2.56337 0 0 1 -2.56053,2.56033 z"
     fill="#0474f9"
     id="path2298"
     style="stroke:none;stroke-opacity:1;stroke-width:1.00157;stroke-miterlimit:4;fill:#ff0000"
     class="tmOwnPMf_19" />
  <path
     d="m 249.03131,179.31045 h -25.06856 a 2.50734,2.50734 0 0 1 -2.56051,-2.44431 V 96.3614 a 2.50734,2.50734 0 0 1 2.56051,-2.44432 h 25.06856 a 2.50734,2.50734 0 0 1 2.56051,2.44432 v 80.50474 a 2.50734,2.50734 0 0 1 -2.56051,2.44431 z"
     fill="#0474f9"
     id="path2300"
     style="stroke:none;stroke-opacity:1;fill:#d40000"
     class="tmOwnPMf_20" />
  <path
     d="M 294.74695,179.31045 H 269.6784 a 2.56336,2.56336 0 0 1 -2.56051,-2.5603 V 73.18828 a 2.56337,2.56337 0 0 1 2.56051,-2.5603 h 25.06855 a 2.56337,2.56337 0 0 1 2.56051,2.5603 v 103.56187 a 2.56337,2.56337 0 0 1 -2.56051,2.5603 z"
     fill="#0474f9"
     id="path2302"
     style="stroke:none;stroke-opacity:1;stroke-width:1.00157;stroke-miterlimit:4;fill:#d40000"
     class="tmOwnPMf_21" />
  <path
     fill="#3f3d56"
     id="circle2304"
     style="fill:#ffffff;stroke:none"
     d="M94.1747378,124.10666A5.1753602,5.1753602 0,1,1 104.5254582,124.10666A5.1753602,5.1753602 0,1,1 94.1747378,124.10666"
     class="tmOwnPMf_22" />
  <path
     fill="#3f3d56"
     id="circle2306"
     style="fill:#ffffff;stroke:none"
     d="M139.8903698,90.46685A5.1753602,5.1753602 0,1,1 150.2410902,90.46685A5.1753602,5.1753602 0,1,1 139.8903698,90.46685"
     class="tmOwnPMf_23" />
  <path
     fill="#3f3d56"
     id="circle2308"
     style="fill:#ffffff;stroke:none"
     d="M185.6060298,124.10666A5.1753602,5.1753602 0,1,1 195.9567502,124.10666A5.1753602,5.1753602 0,1,1 185.6060298,124.10666"
     class="tmOwnPMf_24" />
  <path
     fill="#3f3d56"
     id="circle2310"
     style="fill:#ffffff;stroke:none"
     d="M231.3216598,74.078217A5.1753602,5.1753602 0,1,1 241.6723802,74.078217A5.1753602,5.1753602 0,1,1 231.3216598,74.078217"
     class="tmOwnPMf_25" />
  <path
     fill="#3f3d56"
     id="circle2312"
     style="fill:#ffffff;stroke:none"
     d="M277.0373198,55.10191A5.1753602,5.1753602 0,1,1 287.3880402,55.10191A5.1753602,5.1753602 0,1,1 277.0373198,55.10191"
     class="tmOwnPMf_26" />
  <path
     fill="#3f3d56"
     id="polygon2314"
     style="fill:#ffffff;stroke:none"
     d="M99.867,124.797L98.833,123.416L145.066,88.787L190.672,122.947L235.993,73.352L236.175,73.278L281.89,54.858L282.535,56.459L237.001,74.805L190.89,125.266L145.066,90.943Z"
     class="tmOwnPMf_27" />
  <style
     data-made-with="vivus-instant"
     id="style25279">.tmOwnPMf_0{stroke-dasharray:1241 1243;stroke-dashoffset:1242;animation:tmOwnPMf_draw_0 7200ms ease-in-out 0ms infinite,tmOwnPMf_fade 7200ms linear 0ms infinite;}.tmOwnPMf_1{stroke-dasharray:2468 2470;stroke-dashoffset:2469;animation:tmOwnPMf_draw_1 7200ms ease-in-out 0ms infinite,tmOwnPMf_fade 7200ms linear 0ms infinite;}.tmOwnPMf_2{stroke-dasharray:914 916;stroke-dashoffset:915;animation:tmOwnPMf_draw_2 7200ms ease-in-out 0ms infinite,tmOwnPMf_fade 7200ms linear 0ms infinite;}.tmOwnPMf_3{stroke-dasharray:1813 1815;stroke-dashoffset:1814;animation:tmOwnPMf_draw_3 7200ms ease-in-out 0ms infinite,tmOwnPMf_fade 7200ms linear 0ms infinite;}.tmOwnPMf_4{stroke-dasharray:95 97;stroke-dashoffset:96;animation:tmOwnPMf_draw_4 7200ms ease-in-out 0ms infinite,tmOwnPMf_fade 7200ms linear 0ms infinite;}.tmOwnPMf_5{stroke-dasharray:95 97;stroke-dashoffset:96;animation:tmOwnPMf_draw_5 7200ms ease-in-out 0ms infinite,tmOwnPMf_fade 7200ms linear 0ms infinite;}.tmOwnPMf_6{stroke-dasharray:95 97;stroke-dashoffset:96;animation:tmOwnPMf_draw_6 7200ms ease-in-out 0ms infinite,tmOwnPMf_fade 7200ms linear 0ms infinite;}.tmOwnPMf_7{stroke-dasharray:355 357;stroke-dashoffset:356;animation:tmOwnPMf_draw_7 7200ms ease-in-out 0ms infinite,tmOwnPMf_fade 7200ms linear 0ms infinite;}.tmOwnPMf_8{stroke-dasharray:231 233;stroke-dashoffset:232;animation:tmOwnPMf_draw_8 7200ms ease-in-out 0ms infinite,tmOwnPMf_fade 7200ms linear 0ms infinite;}.tmOwnPMf_9{stroke-dasharray:373 375;stroke-dashoffset:374;animation:tmOwnPMf_draw_9 7200ms ease-in-out 0ms infinite,tmOwnPMf_fade 7200ms linear 0ms infinite;}.tmOwnPMf_10{stroke-dasharray:914 916;stroke-dashoffset:915;animation:tmOwnPMf_draw_10 7200ms ease-in-out 0ms infinite,tmOwnPMf_fade 7200ms linear 0ms infinite;}.tmOwnPMf_11{stroke-dasharray:1813 1815;stroke-dashoffset:1814;animation:tmOwnPMf_draw_11 7200ms ease-in-out 0ms infinite,tmOwnPMf_fade 7200ms linear 0ms infinite;}.tmOwnPMf_12{stroke-dasharray:204 206;stroke-dashoffset:205;animation:tmOwnPMf_draw_12 7200ms ease-in-out 0ms infinite,tmOwnPMf_fade 7200ms linear 0ms infinite;}.tmOwnPMf_13{stroke-dasharray:290 292;stroke-dashoffset:291;animation:tmOwnPMf_draw_13 7200ms ease-in-out 0ms infinite,tmOwnPMf_fade 7200ms linear 0ms infinite;}.tmOwnPMf_14{stroke-dasharray:389 391;stroke-dashoffset:390;animation:tmOwnPMf_draw_14 7200ms ease-in-out 0ms infinite,tmOwnPMf_fade 7200ms linear 0ms infinite;}.tmOwnPMf_15{stroke-dasharray:717 719;stroke-dashoffset:718;animation:tmOwnPMf_draw_15 7200ms ease-in-out 0ms infinite,tmOwnPMf_fade 7200ms linear 0ms infinite;}.tmOwnPMf_16{stroke-dasharray:821 823;stroke-dashoffset:822;animation:tmOwnPMf_draw_16 7200ms ease-in-out 0ms infinite,tmOwnPMf_fade 7200ms linear 0ms infinite;}.tmOwnPMf_17{stroke-dasharray:136 138;stroke-dashoffset:137;animation:tmOwnPMf_draw_17 7200ms ease-in-out 0ms infinite,tmOwnPMf_fade 7200ms linear 0ms infinite;}.tmOwnPMf_18{stroke-dasharray:201 203;stroke-dashoffset:202;animation:tmOwnPMf_draw_18 7200ms ease-in-out 0ms infinite,tmOwnPMf_fade 7200ms linear 0ms infinite;}.tmOwnPMf_19{stroke-dasharray:136 138;stroke-dashoffset:137;animation:tmOwnPMf_draw_19 7200ms ease-in-out 0ms infinite,tmOwnPMf_fade 7200ms linear 0ms infinite;}.tmOwnPMf_20{stroke-dasharray:227 229;stroke-dashoffset:228;animation:tmOwnPMf_draw_20 7200ms ease-in-out 0ms infinite,tmOwnPMf_fade 7200ms linear 0ms infinite;}.tmOwnPMf_21{stroke-dasharray:274 276;stroke-dashoffset:275;animation:tmOwnPMf_draw_21 7200ms ease-in-out 0ms infinite,tmOwnPMf_fade 7200ms linear 0ms infinite;}.tmOwnPMf_22{stroke-dasharray:33 35;stroke-dashoffset:34;animation:tmOwnPMf_draw_22 7200ms ease-in-out 0ms infinite,tmOwnPMf_fade 7200ms linear 0ms infinite;}.tmOwnPMf_23{stroke-dasharray:33 35;stroke-dashoffset:34;animation:tmOwnPMf_draw_23 7200ms ease-in-out 0ms infinite,tmOwnPMf_fade 7200ms linear 0ms infinite;}.tmOwnPMf_24{stroke-dasharray:33 35;stroke-dashoffset:34;animation:tmOwnPMf_draw_24 7200ms ease-in-out 0ms infinite,tmOwnPMf_fade 7200ms linear 0ms infinite;}.tmOwnPMf_25{stroke-dasharray:33 35;stroke-dashoffset:34;animation:tmOwnPMf_draw_25 7200ms ease-in-out 0ms infinite,tmOwnPMf_fade 7200ms linear 0ms infinite;}.tmOwnPMf_26{stroke-dasharray:33 35;stroke-dashoffset:34;animation:tmOwnPMf_draw_26 7200ms ease-in-out 0ms infinite,tmOwnPMf_fade 7200ms linear 0ms infinite;}.tmOwnPMf_27{stroke-dasharray:467 469;stroke-dashoffset:468;animation:tmOwnPMf_draw_27 7200ms ease-in-out 0ms infinite,tmOwnPMf_fade 7200ms linear 0ms infinite;}@keyframes tmOwnPMf_draw{100%{stroke-dashoffset:0;}}@keyframes tmOwnPMf_fade{0%{stroke-opacity:1;}94.44444444444444%{stroke-opacity:1;}100%{stroke-opacity:0;}}@keyframes tmOwnPMf_draw_0{11.11111111111111%{stroke-dashoffset: 1242}38.88888888888889%{ stroke-dashoffset: 0;}100%{ stroke-dashoffset: 0;}}@keyframes tmOwnPMf_draw_1{11.62551440329218%{stroke-dashoffset: 2469}39.40329218106996%{ stroke-dashoffset: 0;}100%{ stroke-dashoffset: 0;}}@keyframes tmOwnPMf_draw_2{12.139917695473251%{stroke-dashoffset: 915}39.91769547325102%{ stroke-dashoffset: 0;}100%{ stroke-dashoffset: 0;}}@keyframes tmOwnPMf_draw_3{12.654320987654321%{stroke-dashoffset: 1814}40.4320987654321%{ stroke-dashoffset: 0;}100%{ stroke-dashoffset: 0;}}@keyframes tmOwnPMf_draw_4{13.168724279835391%{stroke-dashoffset: 96}40.94650205761317%{ stroke-dashoffset: 0;}100%{ stroke-dashoffset: 0;}}@keyframes tmOwnPMf_draw_5{13.683127572016463%{stroke-dashoffset: 96}41.46090534979424%{ stroke-dashoffset: 0;}100%{ stroke-dashoffset: 0;}}@keyframes tmOwnPMf_draw_6{14.19753086419753%{stroke-dashoffset: 96}41.9753086419753%{ stroke-dashoffset: 0;}100%{ stroke-dashoffset: 0;}}@keyframes tmOwnPMf_draw_7{14.711934156378598%{stroke-dashoffset: 356}42.489711934156375%{ stroke-dashoffset: 0;}100%{ stroke-dashoffset: 0;}}@keyframes tmOwnPMf_draw_8{15.22633744855967%{stroke-dashoffset: 232}43.004115226337454%{ stroke-dashoffset: 0;}100%{ stroke-dashoffset: 0;}}@keyframes tmOwnPMf_draw_9{15.740740740740744%{stroke-dashoffset: 374}43.518518518518526%{ stroke-dashoffset: 0;}100%{ stroke-dashoffset: 0;}}@keyframes tmOwnPMf_draw_10{16.255144032921812%{stroke-dashoffset: 915}44.03292181069959%{ stroke-dashoffset: 0;}100%{ stroke-dashoffset: 0;}}@keyframes tmOwnPMf_draw_11{16.76954732510288%{stroke-dashoffset: 1814}44.547325102880656%{ stroke-dashoffset: 0;}100%{ stroke-dashoffset: 0;}}@keyframes tmOwnPMf_draw_12{17.28395061728395%{stroke-dashoffset: 205}45.06172839506173%{ stroke-dashoffset: 0;}100%{ stroke-dashoffset: 0;}}@keyframes tmOwnPMf_draw_13{17.79835390946502%{stroke-dashoffset: 291}45.57613168724281%{ stroke-dashoffset: 0;}100%{ stroke-dashoffset: 0;}}@keyframes tmOwnPMf_draw_14{18.31275720164609%{stroke-dashoffset: 390}46.090534979423865%{ stroke-dashoffset: 0;}100%{ stroke-dashoffset: 0;}}@keyframes tmOwnPMf_draw_15{18.82716049382716%{stroke-dashoffset: 718}46.60493827160494%{ stroke-dashoffset: 0;}100%{ stroke-dashoffset: 0;}}@keyframes tmOwnPMf_draw_16{19.34156378600823%{stroke-dashoffset: 822}47.11934156378601%{ stroke-dashoffset: 0;}100%{ stroke-dashoffset: 0;}}@keyframes tmOwnPMf_draw_17{19.8559670781893%{stroke-dashoffset: 137}47.63374485596707%{ stroke-dashoffset: 0;}100%{ stroke-dashoffset: 0;}}@keyframes tmOwnPMf_draw_18{20.370370370370374%{stroke-dashoffset: 202}48.14814814814815%{ stroke-dashoffset: 0;}100%{ stroke-dashoffset: 0;}}@keyframes tmOwnPMf_draw_19{20.88477366255144%{stroke-dashoffset: 137}48.66255144032922%{ stroke-dashoffset: 0;}100%{ stroke-dashoffset: 0;}}@keyframes tmOwnPMf_draw_20{21.399176954732514%{stroke-dashoffset: 228}49.17695473251029%{ stroke-dashoffset: 0;}100%{ stroke-dashoffset: 0;}}@keyframes tmOwnPMf_draw_21{21.91358024691358%{stroke-dashoffset: 275}49.691358024691354%{ stroke-dashoffset: 0;}100%{ stroke-dashoffset: 0;}}@keyframes tmOwnPMf_draw_22{22.42798353909465%{stroke-dashoffset: 34}50.20576131687243%{ stroke-dashoffset: 0;}100%{ stroke-dashoffset: 0;}}@keyframes tmOwnPMf_draw_23{22.94238683127572%{stroke-dashoffset: 34}50.7201646090535%{ stroke-dashoffset: 0;}100%{ stroke-dashoffset: 0;}}@keyframes tmOwnPMf_draw_24{23.45679012345679%{stroke-dashoffset: 34}51.23456790123456%{ stroke-dashoffset: 0;}100%{ stroke-dashoffset: 0;}}@keyframes tmOwnPMf_draw_25{23.971193415637863%{stroke-dashoffset: 34}51.74897119341564%{ stroke-dashoffset: 0;}100%{ stroke-dashoffset: 0;}}@keyframes tmOwnPMf_draw_26{24.48559670781893%{stroke-dashoffset: 34}52.263374485596714%{ stroke-dashoffset: 0;}100%{ stroke-dashoffset: 0;}}@keyframes tmOwnPMf_draw_27{25%{stroke-dashoffset: 468}52.77777777777778%{ stroke-dashoffset: 0;}100%{ stroke-dashoffset: 0;}}</style>
</svg>
