<svg xmlns="http://www.w3.org/2000/svg" xmlns:xlink="http://www.w3.org/1999/xlink" width="762" height="689.787" xmlns:v="https://vecta.io/nano"><style><![CDATA[.W{opacity:.1}.X{fill:#fff}.Y{fill:#e6e6e6}.Z{fill:#ccc}.a{fill:#2f2e41}.b{fill:#00b0ff}.c{fill:#72351c}.d{fill:#fdb797}.e{fill:#ffb8b8}.f{fill:#ececec}.g{fill:#f55f44}]]></style><defs><linearGradient y2="215.689" x2="-515.22" y1="240.206" x1="-515.22" id="A" gradientUnits="userSpaceOnUse"><stop offset="0" stop-color="gray" stop-opacity=".25"/><stop offset=".54" stop-color="gray" stop-opacity=".12"/><stop offset="1" stop-color="gray" stop-opacity=".1"/></linearGradient><path id="B" d="M333.659 348.734a4.737 4.875 0 0 0 0 9.749h85.302a4.737 4.875 0 0 0 .155-9.749q-.077-.001-.155 0z"/><path id="C" d="M303.172 362.652a8.762 9.018 0 1 1 8.763-9.018 8.772 9.028 0 0 1-8.763 9.018zm0-16.395a7.169 7.378 0 1 0 7.169 7.378 7.177 7.386 0 0 0-7.169-7.378z"/><path id="D" d="M303.172 388.065a8.762 9.018 0 1 1 8.763-9.017 8.772 9.028 0 0 1-8.763 9.017zm0-16.395a7.169 7.378 0 1 0 7.169 7.378 7.177 7.386 0 0 0-7.169-7.378z"/><path id="E" d="M-517.557 222.888a.172.146 0 0 0 .135.146 2.696 2.295 0 0 1 1.041.443c.572.381-.609-.762-.609-.762l-.396.075-.161.124z"/><path id="F" d="M-517.557 230.641l.604-.022.52.071h-.182z"/><path id="G" d="M-513.487 228.156h.604l.52.044h-.182z"/><path id="H" d="M-517.557 231.053h.604l.52.053h-.182z"/><path id="I" d="M-513.451 228.156h.604l.52.044h-.172z"/></defs><path d="M675.136 535.145H86.867a38.132 28.574 0 0 1-38.089-28.541V160.381a27.936 20.934 0 0 1 27.904-20.91h608.156a28.419 21.296 0 0 1 28.387 21.272v345.861a38.132 28.574 0 0 1-38.089 28.541z" class="Z"/><path d="M100.972 521.069h558.511a40.102 29.954 0 0 0 40.102-29.954V203.65a40.102 29.954 0 0 0-40.102-29.954H100.972A40.102 29.954 0 0 0 60.87 203.65v287.465a40.102 29.954 0 0 0 40.102 29.954z" class="X"/><path d="M713.439 159.923H48.735v-21.454a38.273 42.329 0 0 1 38.242-42.268h588.221a38.273 42.329 0 0 1 38.242 42.268z" fill="#06f"/><g class="X"><ellipse ry="7.396" rx="6.644" cy="127.799" cx="83.83"/><ellipse ry="7.396" rx="6.644" cy="127.799" cx="109.048"/><ellipse ry="7.396" rx="6.644" cy="127.799" cx="134.266"/></g><g class="Y"><path d="M90.209 198.618l.806-1.168 155.569 151.307-.806 1.168z"/><path d="M87.437 346.458L248.179 197.17l.836 1.143L88.273 347.601z"/></g><path fill="#1a1a1a" d="M660.614 273.614H489.552a5.037 6.24 0 0 1-5.031-6.233v-70.343a5.037 6.24 0 0 1 5.031-6.233h171.062a5.037 6.24 0 0 1 5.031 6.233v70.343a5.037 6.24 0 0 1-5.031 6.233zm-171.062-81.029a3.598 4.457 0 0 0-3.594 4.452v70.343a3.598 4.457 0 0 0 3.594 4.452h171.062a3.598 4.457 0 0 0 3.594-4.452v-70.343a3.598 4.457 0 0 0-3.594-4.452z"/><path fill="#b3b3b3" d="M549.091 377.554h-72.593a5.037 6.24 0 0 1-5.031-6.233v-70.343a5.037 6.24 0 0 1 5.031-6.233h72.593a5.037 6.24 0 0 1 5.031 6.233v70.343a5.037 6.24 0 0 1-5.031 6.233zm-72.593-81.029a3.598 4.457 0 0 0-3.594 4.452v70.343a3.598 4.457 0 0 0 3.594 4.452h72.593a3.598 4.457 0 0 0 3.594-4.452v-70.343a3.598 4.457 0 0 0-3.594-4.452z"/><path fill="#999" d="M245.778 349.926H92.94a4.5 5.239 0 0 1-4.495-5.233V200.421a4.5 5.239 0 0 1 4.495-5.233h152.838a4.5 5.239 0 0 1 4.495 5.233v144.272a4.501 5.239 0 0 1-4.495 5.233zM92.94 196.684a3.215 3.742 0 0 0-3.211 3.738v144.272a3.215 3.742 0 0 0 3.211 3.738h152.838a3.215 3.742 0 0 0 3.211-3.738V200.421a3.215 3.742 0 0 0-3.211-3.738z"/><g class="X"><path d="M501.576 351.352h-36.444a.743.72 0 0 1-.136-.01l17.236-28.896a1.207 1.168 0 0 1 2.101 0l11.568 19.391.554.928z"/><ellipse cy="324.064" cx="498.111" rx="5.399" ry="5.225"/></g><use xlink:href="#B" class="Y"/><use xlink:href="#B" y="25.413" class="f"/><use xlink:href="#B" y="50.826" class="Z"/><use xlink:href="#B" y="76.239" class="Y"/><use xlink:href="#B" y="101.652" class="Z"/><use xlink:href="#B" y="127.065" class="f"/><use xlink:href="#C" class="Y"/><use xlink:href="#D" class="Z"/><g class="Y"><use xlink:href="#C" y="50.8"/><use xlink:href="#C" y="76.213"/><use xlink:href="#D" y="76.213"/></g><path d="M303.172 489.691a8.762 9.018 0 1 1 8.763-9.018 8.772 9.028 0 0 1-8.763 9.018zm0-16.396a7.169 7.378 0 1 0 7.169 7.378 7.177 7.386 0 0 0-7.169-7.378z" class="Z"/><g class="b"><ellipse cy="353.634" cx="303.172" rx="3.983" ry="4.099"/><ellipse cy="404.46" cx="303.172" rx="3.983" ry="4.099" opacity=".843"/><ellipse cy="429.873" cx="303.172" rx="3.983" ry="4.099"/><path d="M519.198 366.686h-58.443a9.023 9.398 0 0 1-9.012-9.387V314.06a9.023 9.398 0 0 1 9.012-9.387h58.443a9.023 9.398 0 0 1 9.012 9.387v43.238a9.023 9.398 0 0 1-9.012 9.387z"/></g><path d="M497.598 332.55h-15.294a4.37 4.552 0 0 1 0-9.103h15.294a4.37 4.552 0 0 1 0 9.103zm9.038 15.361h-33.318a4.37 4.552 0 0 1 0-9.103h33.318a4.37 4.552 0 0 1 0 9.103z" class="X"/><path fill-rule="evenodd" fill="#7952b3" d="M523.494 404.6c-5.533 0-9.627 4.499-9.443 9.378.176 4.687-.053 10.758-1.698 15.709-1.651 4.965-4.441 8.111-8.999 8.515v4.559c4.558.405 7.348 3.549 8.999 8.515 1.645 4.951 1.874 11.022 1.698 15.709-.183 4.878 3.911 9.378 9.444 9.378h56.691c5.533 0 9.626-4.499 9.442-9.378-.176-4.687.053-10.758 1.698-15.709 1.651-4.965 4.434-8.111 8.992-8.515v-4.559c-4.558-.405-7.341-3.549-8.992-8.515-1.645-4.95-1.873-11.022-1.698-15.709.183-4.878-3.91-9.378-9.442-9.378h-56.693zm45.599 44.175c0 6.718-5.394 10.793-14.345 10.793H539.51a1.643 1.527 0 0 1-1.643-1.527v-35.118a1.643 1.527 0 0 1 1.643-1.527h15.151c7.464 0 12.362 3.756 12.362 9.523 0 4.048-3.295 7.671-7.493 8.306v.211c5.715.582 9.563 4.26 9.563 9.339zm-16.007-22.539h-8.688v11.401h7.318c5.657 0 8.776-2.116 8.776-5.899 0-3.545-2.682-5.502-7.405-5.502zm-8.688 15.925v12.565h9.008c5.89 0 9.01-2.196 9.01-6.322s-3.207-6.243-9.388-6.243h-8.629z"/><path fill="#f7df1e" d="M330.811 221.064h91.011v84.345h-91.011z"/><path d="M354.741 291.548l6.965-3.906c1.344 2.208 2.566 4.076 5.498 4.076 2.81 0 4.582-1.019 4.582-4.982v-26.95h8.553v27.062c0 8.21-5.193 11.946-12.768 11.946-6.842 0-10.813-3.284-12.829-7.247m30.243-.848l6.964-3.737c1.833 2.775 4.216 4.813 8.431 4.813 3.544 0 5.804-1.642 5.804-3.907 0-2.718-2.321-3.68-6.231-5.265l-2.138-.85c-6.171-2.434-10.264-5.491-10.264-11.946 0-5.945 4.887-10.474 12.524-10.474 5.437 0 9.347 1.755 12.157 6.341l-6.659 3.963c-1.466-2.434-3.054-3.397-5.498-3.397-2.505 0-4.093 1.472-4.093 3.397 0 2.378 1.589 3.341 5.254 4.813l2.138.849c7.27 2.888 11.363 5.831 11.363 12.455 0 7.134-6.048 11.04-14.173 11.04-7.942 0-13.074-3.51-15.578-8.096"/><path fill="#e44d26" d="M154.87 387.816l-5.619 58.668-25.256 6.526-25.186-6.517-5.613-58.677z"/><path fill="#f16529" d="M124.033 448.022l20.408-5.274 4.801-50.134h-25.209z"/><path d="M113.111 407.007h10.922v-7.197h-19.36l.185 1.931 1.898 19.832h17.278v-7.196h-10.217zm1.74 18.164h-7.75l1.082 11.299 15.816 4.092.036-.009v-7.487l-.034.008-8.599-2.164-.55-5.74z" fill="#ebebeb"/><path d="M98.935 371.87h3.924v3.613h3.589v-3.613h3.924v10.942h-3.924v-3.664h-3.589v3.664h-3.924V371.87zm16.596 3.629h-3.454v-3.628h10.834v3.628h-3.456v7.313h-3.924v-7.313zm9.099-3.629h4.091l2.517 3.845 2.514-3.845h4.093v10.942h-3.907v-5.423l-2.699 3.89h-.067l-2.701-3.89v5.423h-3.839zm15.168 0h3.925v7.325h5.518v3.617h-9.443z"/><path d="M124.006 421.573h9.507l-.896 9.333-8.611 2.166v7.487l15.828-4.089.116-1.216 1.814-18.946.188-1.932h-17.947zm0-14.583v.018h18.649l.155-1.618.352-3.648.185-1.931h-19.341v7.179z" class="X"/><path fill="#264de4" d="M217.731 494.203l-25.03-7.085-5.578-63.79h61.291l-5.584 63.78z"/><path fill="#2965f1" d="M238.051 483.046l4.772-54.503H217.77v60.236z"/><path d="M199.91 452.203l.688 7.823h17.171v-7.823zm-1.381-15.835l.698 7.824h18.543v-7.824zm19.24 36.153l-.034.009-8.546-2.353-.546-6.24h-7.703l1.075 12.284 15.718 4.449.035-.01v-8.14z" fill="#ebebeb"/><path d="M201.548 405.993h9.293v3.963h-5.407v3.963h5.407v3.963h-9.293zm11.152 0h9.293v3.446h-5.407v.689h5.407v7.925H212.7v-3.618h5.407v-.689H212.7zm11.152 0h9.293v3.446h-5.407v.689h5.407v7.925h-9.293v-3.618h5.407v-.689h-5.407z"/><path d="M235.578 452.203l1.385-15.835h-19.221v7.824h10.812l-.698 8.011h-10.114v7.823h9.448l-.891 10.147-8.558 2.355v8.139l15.73-4.445.115-1.322 1.803-20.597z" class="X"/><g transform="matrix(.926751 0 0 .94921 1028.2218 33.619657)"><path d="M-476.187 252.618l-106.662.397c-5.116-3.695-2.841-16.255-2.117-14.791 26.705-8.803 67.267-13.879 108.779 14.394z" class="b"/><path fill="#00c7ff" d="M-396.663 250.776v2.06h-131.83v-.439s64.87-45.657 131.83-1.62z"/><ellipse fill="#ffda00" cy="188.156" cx="-566.32" rx="7.405" ry="7.088"/><g class="b"><path d="M-527.545 249.35h-4.724s-1.476-36.433 4.724-47.677h1.181s-4.134 41.222-1.181 47.677z" opacity=".775"/><path d="M-530.793 199.799s-3.838 7.496-2.067 10.827c0 0 2.657-6.871 5.754-7.912s6.345 7.912 6.345 7.912 1.772-5.622-1.476-10.189c0 0 6.496 2.499 9.744 7.288 0 0 .591-3.101-7.086-9.578 0 0 6.791 1.249 11.22 4.164 0 0 1.476-2.29-7.677-6.038 0 0 1.181-2.707 8.267-1.458 0 0 0-3.544-11.22-2.915 0 0 0-2.29 7.381-1.874 0 0 0-2.915-8.562-1.874 0 0 1.771-1.874 2.953-2.29a5.937 4.186 0 0 0-4.134.833s.295-3.748-4.134-5.205l-.591 5.205s-4.963-4.124-3.838-3.331c.295.208 1.181 2.707.886 3.956 0 0-5.026-2.915-11.22.208 0 0 7.677.416 8.858 2.29 0 0-6.495-.833-7.972-.208 0 0 5.026 1.249 4.724 2.082 0 0-8.858 0-10.051 2.29 0 0 9.153.833 9.744 1.458 0 0-10.629 5.414-11.22 6.871 0 0 10.924-4.581 12.696-4.581s-7.972 6.645-7.381 8.329c.025-.013 8.022-6.676 10.058-6.26z" opacity=".775"/><path d="M-469.279 247.985h3.606s1.131-27.834-3.606-36.424h-.905s3.166 31.485.905 36.424z"/><path d="M-466.798 210.13s2.934 5.728 1.577 8.271c0 0-2.029-5.25-4.397-6.043s-4.85 6.043-4.85 6.043-1.351-4.293 1.131-7.793a19.606 13.826 0 0 0-7.444 5.569s-.452-2.388 5.415-7.319c0 0-5.189.952-8.569 3.181 0 0-1.131-1.75 5.868-4.612 0 0-.905-2.069-6.313-1.112 0 0 0-2.702 8.569-2.215 0 0 0-1.75-5.654-1.431 0 0 0-2.215 6.54-1.431 0 0-1.351-1.431-2.255-1.75a4.536 3.199 0 0 1 3.141.638s-.226-2.862 3.141-3.987l.452 3.987 2.934-2.543a9.894 6.977 0 0 0-.678 3.021s3.832-2.215 8.569.159c0 0-5.868.319-6.766 1.75 0 0 4.963-.638 6.087-.159 0 0-3.832.952-3.606 1.59 0 0 6.766 0 7.67 1.75 0 0-6.992.638-7.444 1.112 0 0 8.123 4.138 8.569 5.25 0 0-8.343-3.5-9.7-3.5s6.087 5.09 5.654 6.362c.031-.018-6.056-5.099-7.639-4.789zm40.696 32.415h2.236s.697-17.238-2.236-22.558h-.559s1.954 19.515.559 22.558z"/><path d="M-424.563 219.101s1.815 3.544.98 5.121c0 0-1.256-3.252-2.726-3.743s-3.003 3.743-3.003 3.743-.836-2.658.697-4.829a12.143 8.563 0 0 0-4.611 3.447s-.276-1.48 3.355-4.532a14.172 9.994 0 0 0-5.308 1.971s-.697-1.085 3.631-2.857c0 0-.559-1.28-3.914-.691 0 0 0-1.675 5.308-1.378 0 0 0-1.085-3.493-.886 0 0 0-1.378 4.052-.886a6.138 4.328 0 0 0-1.395-1.085 2.808 1.98 0 0 1 1.954.394s-.138-1.772 1.954-2.463l.276 2.463 1.815-1.577a6.125 4.319 0 0 0-.421 1.87 4.353 3.07 0 0 1 5.308.097s-3.631.195-4.19 1.085c0 0 3.072-.394 3.769-.097 0 0-2.375.589-2.236.983 0 0 4.19 0 4.749 1.085 0 0-4.328.394-4.611.691 0 0 5.026 2.561 5.308 3.252l-6.006-2.166c-.836 0 3.769 3.154 3.493 3.938.013.005-3.763-3.15-4.737-2.95z"/></g><path fill="url(#A)" d="M-509.954 223.052h0l-.39-1.772a1.129.961 0 0 0-.354-.696l-1.806-.753h0a2.045 1.741 0 0 1-.323-.443l.031-.04a1.082.921 0 0 0 .208-.359.718.611 0 0 0 0-.102h.026a.671.571 0 0 0 .744-.443v-.04a.671.571 0 0 1-.609.443 1.842 1.568 0 0 0 .817-1.302v-.066a.666.567 0 0 0 .307-.381v-.04a.666.567 0 0 1-.317.354 1.832 1.559 0 0 0-.115-.443h.047a.671.571 0 0 0 .671-.571v-.04a.671.571 0 0 1-.666.532h-.083v-.027a1.098.935 0 0 0 .77-.758v-.04a.666.567 0 0 1-.135.306.671.571 0 0 0-1.322-.168l-.12-.058a.671.571 0 0 1 .604-.416h-.047a.671.571 0 0 0-.64.385 1.842 1.568 0 0 0-2.321.567c-.14.089-.323.217-.317.328a1.275 1.085 0 0 0-.161.168 2.55 2.171 0 0 0-.208 1.183 1.473 1.254 0 0 1-.479 1.085.635.54 0 0 0 .489 0 1.884 1.604 0 0 0 .432-.217.968.824 0 0 0 .307-.253v-.022a1.52 1.294 0 0 0 .276.124c.037.266.047.571-.094.673h0 0l.026-.049a1.691 1.44 0 0 1-1.171.284 1.462 1.245 0 0 0-1.212.665l-.567 2.016h0v.036h0v.036h0a.182.155 0 0 0 .135.111l.177.04a3.674 3.128 0 0 1-.12 1.023 10.268 8.741 0 0 0-.203 1.506c.041.253.115 1.568.151 2.193a7.629 6.495 0 0 0-.151.647l-.838 4.279-.593 4.461-.109.598s-1.702 1.816-1.202 2.073 1.27.368 2.004-.598a1.837 1.564 0 0 1 .468-.598.687.585 0 0 0 .234-.501l-.052-.443.088.027h0 .052s.838-2.344.744-3.987c0 0 1.561-4.705 2.732-5.445v-.031l.109-.044.25 4.559-.255 5.024-.057.301s-1.702 1.816-1.202 2.073 1.27.368 2.004-.598a1.837 1.564 0 0 1 .468-.598.687.585 0 0 0 .234-.501l-.078-.665c.291-.846 1.041-3.283.734-4.696l.52-3.004c.52-.501.453-1.772.453-1.772.411-.731.521-3.597.521-3.597l.104-1.418a1.384 1.178 0 0 1 .234 0h.052.031v-.027a.156.133 0 0 0 .037-.04h.031v-.036h0zm-1.457 2.88l-.156-.292h-.042v-.036a.203.173 0 0 1 0-.036v-.036a1.436 1.223 0 0 0 .062-.146.651.554 0 0 0 .099-.306 3.404 2.897 0 0 1 .037.851zm-.156-1.214l-.104-.948.031-.075.14 1.205zm-4.934.128a.39.332 0 0 0-.094.257v.031a1.265 1.077 0 0 0 .047.284l-.161.594v-1.134a2.946 2.507 0 0 0 .281-.381.729.62 0 0 1-.073.35z"/><path d="M-515.449 217.528a2.456 2.091 0 0 0-.203 1.139 1.421 1.209 0 0 1-.463 1.046.614.523 0 0 0 .473 0 1.816 1.546 0 0 0 .416-.208.932.793 0 0 0 .297-.244 1.103.939 0 0 0 .068-.483 6.016 5.121 0 0 1 .089-.864c.031-.177.229-.66 0-.753s-.578.235-.677.368z" class="c"/><path d="M-518.889 236.36l-.161.886s-1.639 1.772-1.155 1.998 1.223.354 1.931-.576a1.769 1.506 0 0 1 .448-.576h0a.661.563 0 0 0 .224-.483l-.161-1.351zm4.933.35l-.161.886s-1.639 1.772-1.155 1.998 1.223.354 1.931-.576a1.769 1.506 0 0 1 .447-.576h0a.661.563 0 0 0 .224-.483l-.161-1.351z" fill="#333"/><path fill="#4d8af0" d="M-516.511 226.118s-.77.474-1.041 2.122l-.807 4.124s-.682 3.739-.557 4.457l1.364.399s.807-2.259.718-3.832c0 0 1.639-4.971 2.789-5.316l.245 4.39-.26 4.94 1.166.199s1.181-3.145.807-4.811l.609-3.544s.697-1.892-.271-3.544z"/><path d="M-514.164 228.138v-.075c-1.15.35-2.789 5.316-2.789 5.316-.028 1.286-.264 2.562-.703 3.792l.146.044s.807-2.259.718-3.832c-.005.004 1.494-4.514 2.628-5.245zm2.462-2.414h-.156c.56 1.111.651 2.352.26 3.513l-.609 3.544c.359 1.577-.687 4.479-.796 4.785l.151.027s1.181-3.145.807-4.811l.609-3.544s.703-1.883-.265-3.513z" class="W"/><use xlink:href="#E" class="g"/><use xlink:href="#E" class="W"/><path d="M-511.926 223.898a3.643 3.101 0 0 1 1.624-.545.151.128 0 0 0 .151-.128h0s-1.363-.456-1.775.673z" class="g"/><path d="M-510.152 223.221s-1.363-.443-1.775.673c0 0 1.004-.656 1.702-.549" class="W"/><ellipse cy="217.882" cx="-513.508" rx="1.775" ry="1.511" class="c"/><path d="M-514.731 218.941s.25.886 0 1.068-.755.518-.375.78 1.738.704 2.191.487.968-.151.843-.594-1.114-.35-1.129-2.552z" class="d"/><path d="M-517.245 222.623a6.495 5.529 0 0 1-.109 1.435 9.888 8.417 0 0 0-.198 1.449c.052.319.161 2.428.161 2.428s-.198 1.847.859 1.679-.161-2.109-.161-2.109l.052-2.521a2.763 2.352 0 0 0 .52-1.13c.078-.607-1.124-1.232-1.124-1.232z" class="W"/><path d="M-517.26 222.623a6.495 5.529 0 0 1-.109 1.435 9.888 8.417 0 0 0-.198 1.449c.052.319.161 2.428.161 2.428s-.198 1.847.859 1.679-.161-2.109-.161-2.109l.052-2.521a2.763 2.352 0 0 0 .52-1.13c.073-.607-1.124-1.232-1.124-1.232z" class="d"/><path d="M-510.5 222.76l-.146 1.971s-.089 2.764-.484 3.464c0 0 .109 1.94-.952 1.892s.177-2.122.177-2.122.567-2.157.276-2.84l-.276-2.366z" class="W"/><path d="M-510.485 222.76l-.146 1.971s-.088 2.764-.484 3.464c0 0 .109 1.94-.952 1.892s.177-2.122.177-2.122.567-2.157.276-2.84l-.276-2.366z" class="d"/><path d="M-513.925 220.851s.859.337 1.327-.665l1.743.727a1.088.926 0 0 1 .338.673l.375 1.71s-1.275-.368-1.671.642l.109.961h0a1.218 1.037 0 0 1-.057.718.187.159 0 0 0 0 .128.552.47 0 0 1-.52.611 10.58 9.006 0 0 0-1.4.093c-.375.093-1.509-.182-1.884 0s-1.166-.137-1.166-.137l.213-.78s-.146-.381.037-.518.073-1.329-.089-1.666c0 0-.645-.518-1.041-.443l.52-1.971a1.405 1.196 0 0 1 1.166-.642 1.634 1.391 0 0 0 1.129-.275s-.39.727.869.833z" class="W"/><path d="M-513.836 220.815c.234.053.859.111 1.233-.691l1.743.727a1.088.926 0 0 1 .338.673l.375 1.71s-1.275-.368-1.671.642l.109.961.073.19a.64.545 0 0 1-.089.487.203.173 0 0 0-.036.177.552.47 0 0 1-.52.611 10.58 9.006 0 0 0-1.4.093c-.375.093-1.509-.182-1.884 0s-1.166-.137-1.166-.137l.213-.78s-.146-.381.036-.518.073-1.329-.088-1.666c0 0-.645-.518-1.041-.443l.52-1.971a1.405 1.196 0 0 1 1.166-.642 1.634 1.391 0 0 0 1.129-.275s-.422.656.687.797z" class="W"/><path d="M-513.836 220.846c.234.053.859.111 1.233-.691l1.743.727a1.088.926 0 0 1 .338.673l.375 1.71s-1.275-.368-1.671.642l.109.961h0a1.218 1.037 0 0 1-.057.718.187.159 0 0 0 0 .128.552.47 0 0 1-.521.611 10.58 9.006 0 0 0-1.4.093c-.375.093-1.509-.182-1.884 0s-1.166-.137-1.166-.137l.213-.78s-.146-.381.036-.518.073-1.329-.089-1.666c0 0-.645-.518-1.041-.443l.52-1.971a1.405 1.196 0 0 1 1.166-.642 1.634 1.391 0 0 0 1.129-.275s-.422.656.687.797z" class="g"/><path d="M-513.175 218.21l-1.525.811a4.954 4.217 0 0 1 .089.443 1.468 1.249 0 0 0 .546.089 1.561 1.329 0 0 0 .989-.381 5.928 5.046 0 0 1-.099-.961z" class="W"/><ellipse cy="218.201" cx="-514.096" rx="1.473" ry="1.254" class="d"/><g class="c"><ellipse cy="216.691" cx="-511.926" rx=".645" ry=".549"/><path d="M-511.801 217.271a.645.549 0 0 1-.645-.509v.04a.645.549 0 1 0 1.291 0v-.04a.645.549 0 0 1-.645.509z"/><path d="M-512.171 217.794a.645.549 0 0 1-.52-.602v.036a.646.55 0 1 0 1.27.199v-.04a.645.549 0 0 1-.749.408zm-.499 1.329a.645.549 0 0 1-.52-.602v.036a.646.55 0 0 0 1.27.199v-.04a.645.549 0 0 1-.749.408z"/><path d="M-511.801 216.979a.645.549 0 0 1-.645-.514v.04a.645.549 0 1 0 1.291 0v-.04a.645.549 0 0 1-.645.514z"/><path d="M-512.702 216.682a.645.549 0 0 1 .609-.545h-.047a.645.549 0 0 0 0 1.099h.047a.645.549 0 0 1-.609-.554z"/></g><path d="M-512.051 221.865a2.326 1.98 0 0 1 0 .824s-.089.718.052.842m-4.413-1.498a2.326 1.98 0 0 1 0 .824s-.088.718.053.842m-.09 1.28a.64.545 0 0 0 .432 0 .895.762 0 0 1 .52 0m-.733-1.081a3.721 3.168 0 0 0 1.488-.199s1.832.381 2.352.106" class="W"/><rect ry=".297" rx=".349" height=".594" width="1.129" y="230.482" x="-517.562" class="d"/><g fill="#f0e4e4"><use xlink:href="#F"/><use xlink:href="#G"/><use xlink:href="#G" y=".106"/><use xlink:href="#G" y=".217"/><use xlink:href="#G" y=".323"/><use xlink:href="#H"/><use xlink:href="#H" y="-.053"/><use xlink:href="#H" y="-.106"/><use xlink:href="#H" y="-.159"/><use xlink:href="#F" y="-.08"/><use xlink:href="#F" y="-.173"/></g><path d="M-513.846 217.399a3.56 3.03 0 0 0 .208 1.382 1.931 1.644 0 0 1-.078 1.329.52.443 0 0 0 .458-.097 1.775 1.511 0 0 0 .333-.332 1.041.886 0 0 0 .203-.346 1.608 1.369 0 0 0-.104-.585 8.847 7.531 0 0 1-.219-1.032c-.031-.213 0-.824-.281-.886s-.468.39-.52.567z" class="W"/><path d="M-513.81 217.386a3.56 3.03 0 0 0 .208 1.382 1.931 1.644 0 0 1-.078 1.329.52.443 0 0 0 .458-.097 1.775 1.511 0 0 0 .333-.332 1.041.886 0 0 0 .203-.346 1.608 1.369 0 0 0-.104-.585 8.847 7.531 0 0 1-.219-1.032c-.031-.213 0-.824-.281-.886s-.468.385-.52.567z" class="c"/><path d="M-514.445 217.714c.125.111.151.275.255.399a.921.784 0 0 0 .729.248.411.35 0 0 1 .213.04c.115.062.12.204.193.301a.416.354 0 0 0 .609 0 1.004.855 0 0 0 .234-.545 4.007 3.411 0 0 0 0-.66 1.187 1.01 0 0 0-.328-.673 1.384 1.178 0 0 0-.578-.213 1.712 1.458 0 0 0-.89-.058 1.603 1.364 0 0 0-.406.173q-.265.146-.52.297c-.192.115-.557.346-.203.47.224.089.505.049.692.222z" class="W"/><path d="M-514.409 217.696c.125.111.151.275.255.399a.921.784 0 0 0 .729.248.411.35 0 0 1 .213.04c.115.062.12.204.192.301a.416.354 0 0 0 .609 0 1.004.855 0 0 0 .234-.545 4.007 3.411 0 0 0 0-.66 1.187 1.01 0 0 0-.328-.673 1.384 1.178 0 0 0-.578-.213 1.712 1.458 0 0 0-.89-.058 1.603 1.364 0 0 0-.406.173q-.265.146-.52.297c-.192.115-.557.346-.203.47.224.089.52.053.692.221z" class="c"/><g fill="#f0e4e4"><use xlink:href="#I"/><use xlink:href="#I" y=".106"/><use xlink:href="#I" y=".217"/><use xlink:href="#I" y=".323"/><use xlink:href="#G" x="-.224" y="6.202"/><use xlink:href="#G" x="-.224" y="6.313"/><use xlink:href="#G" x="-.224" y="6.419"/><use xlink:href="#G" x="-.224" y="6.525"/></g><path d="M-473.903 386.096l-2.855 1.428s-11.422 5.235-8.09 8.09 12.373-2.855 12.373-2.855l1.904-2.38z" class="e"/><path d="M-412.511 486.035l-7.138-3.331 6.662-56.632-19.036-16.181 1.428-23.795 40.236-.711-8.826 59.247z" class="a"/><path d="M-420.602 484.132s8.09-4.283 8.566 1.904l-.952 6.187s2.855 10.946-6.663 8.566-2.855-9.518-2.855-9.518z"/><path d="M-425.837 404.656l-6.187 5.235s0 32.361 4.283 37.12 31.41 29.03 32.361 29.982 5.235-9.518 5.235-9.518l-25.699-29.982 1.904-18.56z" class="a"/><path d="M-392.999 466.048s7.614-1.428 7.614 3.807a115.23 115.23 0 0 0 .952 12.373s1.904 16.657-4.283 14.277-8.566-19.036-8.566-19.036a7.09 7.09 0 0 1 2.855-3.331c1.904-.952 1.428-8.09 1.428-8.09z"/><g class="e"><path d="M-430.595 315.662l13.801-.952 1.428 17.609-3.807 6.662-10.47-9.994z"/><circle cx="-425.361" cy="309" r="11.422"/></g><path fill="#d0cde1" d="M-430.122 322.288l9.521 9.555 4.759-13.801 8.566 9.518 15.705 60.439-11.898 7.139-5.234-7.615-.952 9.994-23.32-4.759-1.903-63.771z"/><g fill="#333"><path d="M-430.119 322.325l-6.187 4.759-11.422 7.614 7.615 27.127 2.379 28.554 10.47 9.042z"/><path d="M-457.246 362.776l-19.036 23.796 7.139 7.614 21.891-21.416 8.091-17.608-5.235-19.988-3.332-.476z"/></g><path d="M-392.424 386.532l-.649 3.126s-2.971 12.208 1.335 11.363 5.428-11.48 5.428-11.48l-.688-2.969z" class="e"/><path fill="#333" d="M-392.999 326.608l-2.855 28.554 5.711 31.41-5.711 6.186-21.116-71.444.384-4.045z"/><path d="M-424.763 289.817l3.353-1.676v1.676l2.235-1.118v2.794s8.382 6.146 6.705 13.41-1.676 7.823-1.676 7.823-2.119-13.814-10.501-11.579-9.056 2.639-11.291 8.785l-.606 2.636s-9.451-21.635 11.782-22.752z" class="a"/><path fill="#333" d="M-392.523 326.608l6.187 33.313v29.03l-7.614-1.428-6.187-43.783 3.807-17.132z"/></g><path d="M226.673 246.887a15.335 14.222 0 0 0-12.246 5.647 10.097 9.364 0 0 0-14.089 8.6h41.696a15.362 14.247 0 0 0-15.362-14.247z" class="Y"/><ellipse ry="22.943" rx="24.738" cy="279.71" cx="135.328" class="b"/><path fill="#3f3d56" d="M274.225 326.992a11.578 11.122 0 0 1-2.673.297H112.105a11.577 11.121 0 0 1-5.615-1.385l.425-.586 17.79-24.608 26.361-36.457.385-.534 4.148-5.736a3.028 2.909 0 0 1 4.976 0l13.78 19.053v.004l8.107 11.214 19.352 26.761 29.35-40.246a3.032 2.913 0 0 1 4.969 0l18.828 25.815 1.082 1.483z"/><path d="M193.841 270.676a18.92 17.547 0 0 0-15.109 6.967 12.458 11.553 0 0 0-17.382 10.61h51.444a18.953 17.577 0 0 0-18.953-17.577z" class="Z"/><path fill="#3f3d56" d="M271.848 327.637H111.914a12.012 11.503 0 0 1-12.022-11.514v-87.309a12.036 11.527 0 0 1 12.022-11.514h159.934a12.036 11.527 0 0 1 12.022 11.514v87.309a12.009 11.5 0 0 1-12.022 11.514zM111.914 217.999a11.307 10.828 0 0 0-11.294 10.816v87.309a11.283 10.806 0 0 0 11.294 10.816h159.934a11.281 10.803 0 0 0 11.294-10.816v-87.309a11.307 10.828 0 0 0-11.294-10.816z"/><g class="f"><ellipse cx="267.576" cy="627.873" rx="20.7" ry="7.559" class="W"/><ellipse cx="351.969" cy="627.873" rx="20.7" ry="7.559" class="W"/></g><path d="M349.776 348.201v23.221H267.38v-21.801h-2.388v278.252h2.388v-49.814h82.396v49.814h2.388V348.201zm0 25.74v38.304H267.38v-38.304zM267.38 493.892v-38.304h82.396v38.304zm82.396 2.52v38.304H267.38v-38.304zm-82.396-43.343v-38.305h82.396v38.305zm0 122.471v-38.304h82.396v38.304z" class="a"/><path d="M241.399 353.73v3.48s-2.357.994-2.357 4.972-1.885 18.894-1.885 18.894 3.299 2.983 6.127 1.989a11.514 12.146 0 0 0 4.242-2.486l.471-15.414-1.885-3.978v-6.961zm90.171-138.226s-8.197.994-8.197 4.972-6.558 18.894-6.558 18.894 11.476 2.983 21.313 1.989 14.755-2.486 14.755-2.486l1.639-15.414-6.558-3.978z" class="b"/><path d="M332.369 250.309v-9.447s-9.898-20.883-1.885-20.883 8.956 18.894 8.956 18.894v13.425zm-84.842 98.946s-5.185-2.983-6.127 0-3.771 9.447 0 9.944 7.542-2.983 7.542-2.983z" class="e"/><g class="a"><path d="M273.045 369.395s-2.838 3.954 1.28 42.53 1.745 66.665 9.562 66.28c0 0-2.04 8.365 4.602 8.673s9.678.795 10.195-1.138 1.327-10.873-.477-10.784c0 0 .112 2.537.866-7.671s-1.38-58.418 1.346-64.91l10.66 22.997s.477 10.784 2.506 15.77 6.327 34.017 6.327 34.017l-.405 4.47s14.544 1.827 15.033-.74.321-6.373-.337-7.612-.658-1.239.433-3.836a7.29 7.69 0 0 0 .321-6.373c-.686-1.873-2.51-43.105-2.51-43.105s-3.421-50.053-10.749-52.235-48.652 3.667-48.652 3.667z"/><path d="M285.859 481.923l-4.418 9.118s-7.643-2.484-5.817 4.737a120.297 126.9 0 0 0 21.935-1.398s3.063 1.121 3.58-.812-1.882-8.49-3.686-8.401-11.594-3.243-11.594-3.243zm34.765-4.255s-4.305 11.655-2.473 12.2 18.18 2.283 19.411 2.858 7.272.913 7.705-2.922-3.231-4.927-3.231-4.927-6.671-.943-8.756-7.197-12.656-.014-12.656-.014z"/></g><g class="e"><ellipse cx="279.802" cy="261.549" rx="12.591" ry="13.282"/><path d="M273.176 267.84s3.313 18.175 1.988 21.67 18.555-1.398 18.555-1.398-3.976-18.175-3.313-22.369-17.229 2.097-17.229 2.097z"/></g><path d="M279.42 245.144a7.117 7.507 0 0 0-3.15.147 8.212 8.663 0 0 0-2.238 1.549 26.198 27.636 0 0 1-3.827 2.675 8.93 9.42 0 0 0-2.978 2.202 6.336 6.684 0 0 0-.841 1.678 19.063 20.11 0 0 0-1.002 10.945 4.769 5.031 0 0 0 .441 1.503c.689 1.339 2.21 1.866 3.491 2.568 2.433 1.332 4.277 3.576 6.273 5.558a12.263 12.936 0 0 0 2.478 2.015c2.847 1.637 6.326 1.103 9.522.524a1.716 1.81 0 0 0 1.713-1.828l2.522-11.968a18.51 19.526 0 0 0 .646-5.443c-.176-2.905-1.667-6.93-3.688-8.993-2.355-2.405-6.286-2.787-9.364-3.131z" class="a"/><g fill="#575a88"><path d="M270.151 290.583s.943-6.961 6.599-7.458a46.631 49.191 0 0 0 9.427-1.989c.471 0 6.599.497 9.427 3.481 0 0 1.885 2.983 2.828.994s.943-2.983 2.828-1.989 1.885-2.983 5.185-2.486 11.784 22.872 11.784 22.872l-2.828 3.481s-3.771 26.85 2.828 38.286 9.427 23.866 2.828 26.353-52.791 24.861-50.905 10.939.471-35.8-1.414-36.297-12.255-39.777-12.255-39.777a14.64 15.444 0 0 1 8.484-11.436c7.542-3.481 5.185-4.972 5.185-4.972z"/><path d="M304.088 283.125l2.357-1.989s4.242 0 4.713-.994 2.828-.994 4.713-1.989-.471-2.486 1.885-3.481 2.357 0 2.357-2.486 6.127-4.972 6.599-7.955 5.185-16.905 5.185-16.905l8.956 2.983-2.357 17.9s0 8.95-4.242 14.917-13.669 20.883-18.382 21.38-11.784-21.38-11.784-21.38zm-44.778 21.38l-2.828 2.486-.943 11.436c0 .497.943 6.464 0 6.961s-2.828 10.442-2.357 10.939h0v1.492l-6.599 10.939V359.2l15.554-10.442s8.956-.994 7.542-9.447-10.37-34.805-10.37-34.805z"/></g><path d="M326.431 87.012c1.235 4.234 2.949 8.317 5.117 12.148l-6.175 7.787c-2.017 2.545-1.789 6.174.479 8.468l10.635 10.635c2.293 2.293 5.922 2.495 8.469.479l7.736-6.124c3.982 2.294 8.217 4.083 12.627 5.343l1.159 9.956c.378 3.225 3.1 5.645 6.325 5.645h15.046c3.226 0 5.948-2.42 6.326-5.645l1.108-9.603a56.75 56.75 0 0 0 13.534-5.469l7.484 5.923c2.546 2.016 6.176 1.79 8.469-.479l10.636-10.636c2.294-2.293 2.494-5.922.479-8.467l-5.822-7.384c2.42-4.185 4.311-8.646 5.57-13.308l8.973-1.033c3.226-.379 5.645-3.101 5.645-6.326V63.875c0-3.225-2.419-5.947-5.645-6.325l-8.847-1.034c-1.21-4.612-3.024-9.022-5.343-13.156l5.444-6.881a6.39 6.39 0 0 0-.479-8.467l-10.61-10.61c-2.294-2.293-5.924-2.496-8.469-.479l-6.679 5.292c-4.335-2.545-8.972-4.486-13.837-5.796l-1.008-8.644c-.377-3.226-3.099-5.646-6.325-5.646h-15.046c-3.227 0-5.948 2.42-6.326 5.646l-1.008 8.644a55.86 55.86 0 0 0-14.188 5.998l-6.931-5.494c-2.546-2.017-6.175-1.789-8.469.479l-10.633 10.636c-2.294 2.293-2.496 5.922-.479 8.467l5.797 7.335c-2.318 4.183-4.083 8.645-5.242 13.281l-9.275 1.059c-3.225.378-5.645 3.1-5.645 6.326v15.045c0 3.226 2.42 5.948 5.645 6.326zm54.513-40.702c13.71 0 24.875 11.164 24.875 24.874S394.654 96.06 380.944 96.06s-24.875-11.165-24.875-24.876 11.165-24.874 24.875-24.874z" class="X"/><path d="M529.689 90.717l-7.938-6.704c-2.445-2.066-6.049-1.965-8.368.227l-4.385 4.108c-3.704-1.789-7.637-3.049-11.693-3.78l-1.235-6.048a6.34 6.34 0 0 0-6.704-5.041l-10.358.882c-3.175.277-5.671 2.874-5.771 6.074l-.201 6.15c-3.982 1.436-7.736 3.402-11.164 5.872l-5.242-3.479a6.3 6.3 0 0 0-8.292 1.185l-6.704 7.99a6.28 6.28 0 0 0 .227 8.367l4.588 4.889c-1.589 3.579-2.723 7.334-3.377 11.191l-6.554 1.335a6.34 6.34 0 0 0-5.04 6.705l.882 10.358c.277 3.175 2.874 5.67 6.073 5.771l7.083.226c1.285 3.377 2.974 6.578 5.015 9.577l-3.957 5.973c-1.764 2.671-1.26 6.225 1.186 8.292l7.938 6.705c2.445 2.066 6.049 1.965 8.367-.227l5.192-4.864c3.402 1.588 6.981 2.772 10.661 3.478l1.437 7.107c.63 3.125 3.528 5.292 6.704 5.041l10.357-.882c3.176-.278 5.671-2.873 5.771-6.075l.228-6.956c3.78-1.335 7.358-3.15 10.659-5.393l5.723 3.78c2.671 1.764 6.224 1.26 8.29-1.185l6.705-7.938c2.065-2.445 1.965-6.048-.228-8.368l-4.612-4.889c1.688-3.579 2.924-7.359 3.629-11.241l6.301-1.285a6.34 6.34 0 0 0 5.04-6.704l-.882-10.359c-.276-3.175-2.872-5.67-6.073-5.771l-6.326-.202c-1.311-3.679-3.074-7.157-5.268-10.383l3.453-5.191a6.27 6.27 0 0 0-1.137-8.318zm-39.038 59.881c-11.189.958-21.07-7.384-22.003-18.575-.957-11.189 7.385-21.069 18.574-22.001 11.19-.958 21.069 7.385 22.002 18.574.958 11.19-7.383 21.069-18.573 22.002z" class="Y"/><path fill="#80b3ff" d="M362.673 178.471a6.3 6.3 0 0 0-5.646 6.2l-.075 6.375a6.28 6.28 0 0 0 5.494 6.326l4.688.605c.781 2.847 1.89 5.57 3.326 8.14l-3.024 3.731c-2.017 2.495-1.865 6.074.378 8.367l4.461 4.562a6.29 6.29 0 0 0 8.367.58l3.755-2.898c2.647 1.563 5.444 2.799 8.367 3.654l.505 4.839c.328 3.175 2.998 5.62 6.199 5.645l6.377.076c3.199.05 5.922-2.318 6.325-5.494l.58-4.587c3.176-.781 6.2-1.966 9.072-3.528l3.528 2.848c2.496 2.016 6.074 1.864 8.369-.378l4.561-4.462a6.29 6.29 0 0 0 .58-8.367l-2.697-3.503a36.55 36.55 0 0 0 3.831-8.821l4.183-.429c3.176-.327 5.621-3 5.646-6.2l.074-6.376a6.28 6.28 0 0 0-5.493-6.326l-4.083-.529c-.781-3.074-1.939-6.048-3.451-8.821l2.545-3.125c2.016-2.495 1.864-6.074-.379-8.368l-4.46-4.562c-2.243-2.293-5.822-2.545-8.368-.58l-3.05 2.344a37.09 37.09 0 0 0-9.173-3.982l-.403-3.956c-.328-3.176-2.999-5.621-6.2-5.646l-6.376-.075c-3.201-.051-5.923 2.318-6.327 5.494l-.504 3.932a38.05 38.05 0 0 0-9.5 3.881l-3.15-2.571c-2.495-2.016-6.074-1.865-8.368.378l-4.587 4.487a6.29 6.29 0 0 0-.579 8.367l2.696 3.479c-1.562 2.771-2.797 5.72-3.604 8.821zm41.155-7.208c9.147.101 16.482 7.636 16.382 16.785s-7.638 16.482-16.785 16.381-16.482-7.636-16.381-16.785 7.636-16.481 16.784-16.381z"/></svg>