<svg xmlns="http://www.w3.org/2000/svg" width="500" height="500" style="width: 100%; height: 100%; content-visibility: visible;"><defs><clipPath id="a"><path d="M0 0h500v500H0z" class="iiqLpCaf_0"></path></clipPath></defs><g clip-path="url(#a)"><g display="block"><path stroke-linecap="round" stroke-linejoin="round" stroke="#FFF" stroke-width="12.04" d="M387.712 410.119H112.288c-12.375 0-22.407-10.032-22.407-22.407V112.288c0-12.375 10.032-22.407 22.407-22.407h275.424c12.375 0 22.407 10.032 22.407 22.407v275.424c0 12.375-10.032 22.407-22.407 22.407zM408.119 141.254H89.881" fill="none" class="iiqLpCaf_1"></path><path stroke-linecap="round" stroke-linejoin="round" stroke="#2F80E8" stroke-width="15.05" d="M177.864 115.567H178M121.568 115.567h.136M149.716 115.567h.136" fill="none" class="iiqLpCaf_2"></path></g><g display="block"><path stroke-linecap="round" stroke-linejoin="round" stroke="#2F80E8" stroke-width="12.04" d="M167.94 285.47l161.161-98.734m-20.605-3.553l20.61 3.55-3.55 20.61" fill="none" class="iiqLpCaf_3"></path><path stroke-linecap="round" stroke-linejoin="round" stroke="#2F80E8" stroke-width="0" d="M167.801 284.263s0 0 0 0m0 0s0 0 0 0 0 0 0 0" fill="none" class="iiqLpCaf_4"></path><g><path stroke-linecap="round" stroke-linejoin="round" stroke="#2F80E8" stroke-width="12.04" d="M196.687 369.089H167.94v-39.193h28.747v39.193zm66.343 0h-28.747v-78.387h28.747v78.387zm66.343 0h-28.746V249.877h28.746v119.212z" fill="none" class="iiqLpCaf_5"></path></g></g></g><style data-made-with="vivus-instant">.iiqLpCaf_0{stroke-dasharray:2000 2002;stroke-dashoffset:2001;animation:iiqLpCaf_draw_0 7200ms ease-in-out 0ms infinite,iiqLpCaf_fade 7200ms linear 0ms infinite;}.iiqLpCaf_1{stroke-dasharray:1561 1563;stroke-dashoffset:1562;animation:iiqLpCaf_draw_1 7200ms ease-in-out 0ms infinite,iiqLpCaf_fade 7200ms linear 0ms infinite;}.iiqLpCaf_2{stroke-dasharray:1 3;stroke-dashoffset:2;animation:iiqLpCaf_draw_2 7200ms ease-in-out 0ms infinite,iiqLpCaf_fade 7200ms linear 0ms infinite;}.iiqLpCaf_3{stroke-dasharray:231 233;stroke-dashoffset:232;animation:iiqLpCaf_draw_3 7200ms ease-in-out 0ms infinite,iiqLpCaf_fade 7200ms linear 0ms infinite;}.iiqLpCaf_4{stroke-dasharray:0 2;stroke-dashoffset:1;animation:iiqLpCaf_draw_4 7200ms ease-in-out 0ms infinite,iiqLpCaf_fade 7200ms linear 0ms infinite;}.iiqLpCaf_5{stroke-dasharray:647 649;stroke-dashoffset:648;animation:iiqLpCaf_draw_5 7200ms ease-in-out 0ms infinite,iiqLpCaf_fade 7200ms linear 0ms infinite;}@keyframes iiqLpCaf_draw{100%{stroke-dashoffset:0;}}@keyframes iiqLpCaf_fade{0%{stroke-opacity:1;}94.44444444444444%{stroke-opacity:1;}100%{stroke-opacity:0;}}@keyframes iiqLpCaf_draw_0{11.11111111111111%{stroke-dashoffset: 2001}38.88888888888889%{ stroke-dashoffset: 0;}100%{ stroke-dashoffset: 0;}}@keyframes iiqLpCaf_draw_1{13.88888888888889%{stroke-dashoffset: 1562}41.66666666666667%{ stroke-dashoffset: 0;}100%{ stroke-dashoffset: 0;}}@keyframes iiqLpCaf_draw_2{16.666666666666664%{stroke-dashoffset: 2}44.44444444444444%{ stroke-dashoffset: 0;}100%{ stroke-dashoffset: 0;}}@keyframes iiqLpCaf_draw_3{19.444444444444446%{stroke-dashoffset: 232}47.22222222222222%{ stroke-dashoffset: 0;}100%{ stroke-dashoffset: 0;}}@keyframes iiqLpCaf_draw_4{22.22222222222222%{stroke-dashoffset: 1}50%{ stroke-dashoffset: 0;}100%{ stroke-dashoffset: 0;}}@keyframes iiqLpCaf_draw_5{25%{stroke-dashoffset: 648}52.77777777777778%{ stroke-dashoffset: 0;}100%{ stroke-dashoffset: 0;}}</style></svg>