<svg xmlns="http://www.w3.org/2000/svg" xmlns:svg="http://www.w3.org/2000/svg" xmlns:xlink="http://www.w3.org/1999/xlink" id="svg6403" width="517.359" height="353.098" version="1.1" viewBox="0 0 502.202 342.753"><metadata id="metadata6407"/><defs id="defs6357"><path id="A" d="m 142.806,254.967 h -41.037 c -3.333,0 -6.035,-2.603 -6.035,-5.814 0,-3.211 2.702,-5.814 6.035,-5.814 h 41.037 c 3.333,0 6.035,2.603 6.035,5.814 0,3.211 -2.702,5.814 -6.035,5.814 z"/><linearGradient id="B" x1="-506.288" x2="490.369" y1="135.105" y2="244.6" gradientUnits="userSpaceOnUse"><stop id="stop6352" offset="0" stop-color="#0684ff"/><stop id="stop6354" offset="1" stop-color="#0684ff" stop-opacity="0"/></linearGradient><linearGradient id="linearGradient6409" x1="-506.288" x2="490.369" y1="135.105" y2="244.6" gradientUnits="userSpaceOnUse" xlink:href="#B"/><linearGradient id="linearGradient6411" x1="-506.288" x2="490.369" y1="135.105" y2="244.6" gradientUnits="userSpaceOnUse" xlink:href="#B"/><linearGradient id="linearGradient6413" x1="-506.288" x2="490.369" y1="135.105" y2="244.6" gradientUnits="userSpaceOnUse" xlink:href="#B"/><linearGradient id="linearGradient6415" x1="-506.288" x2="490.369" y1="135.105" y2="244.6" gradientUnits="userSpaceOnUse" xlink:href="#B"/><linearGradient id="linearGradient6417" x1="-506.288" x2="490.369" y1="135.105" y2="244.6" gradientUnits="userSpaceOnUse" xlink:href="#B"/></defs><path id="path6359" fill="#ddeafb" d="m 399.92946,30.102 v 239.266 h -280.713 l -46.002005,-4.295 -45.73,4.294 h -16.057 C 5.1164552,269.368 -5.4481526e-4,264.438 -5.4481526e-4,258.357 V 30.102 L 202.28146,19.736 Z"/><path id="path6361" fill="#cbe2ff" d="m 380.81846,22.97 v 246.398 h 19.111 V 30.102 Z"/><path id="path6363" fill="#2a7fff" d="m 361.70646,0 6.914,15.051 -6.914,15.051 H -5.4481526e-4 V 11.01 C -5.4481526e-4,4.929 5.1164552,0 11.427455,0 Z"/><path id="path6365" fill="#59f" d="m 399.92946,11.01 v 19.092 h -38.223 V 0 h 26.794 c 6.311,0 11.428,4.929 11.428,11.01 z"/><path id="path6367" fill="#80b3ff" d="m 388.50146,0 h -19.111 c 6.312,0 11.428,4.93 11.428,11.011 v 19.092 h 19.111 V 11.01 c 0,-6.081 -5.117,-11.01 -11.428,-11.01 z"/><path id="path6369" fill="#59f" d="m 119.21446,60.592 v 88.539 l -46.000005,5.603 -45.734,-5.603 V 60.592 c 0,-2.636 2.229,-4.775 4.965,-4.775 h 81.813005 c 2.736,0 4.957,2.14 4.957,4.775 z"/><path id="path6371" fill="#fff9df" d="m 119.21446,149.13 v 35.281 c 0,3.132 -2.631,5.675 -5.882,5.675 H 33.370455 c -3.251,0 -5.89,-2.543 -5.89,-5.675 V 149.13 Z"/><path id="path6373" fill="#2a7fff" d="M 119.08046,269.368 H 27.347455 v -51.414 c 0,-2.64 2.221,-4.779 4.961,-4.779 h 81.810005 c 2.74,0 4.961,2.14 4.961,4.779 v 51.414 z m 127.178,-208.776 v 38.04 l -45.863,6.642 -45.863,-6.642 v -38.04 c 0,-2.636 2.221,-4.775 4.957,-4.775 h 81.813 c 2.736,0 4.957,2.14 4.957,4.775 z"/><path id="path6375" fill="#80b3ff" d="m 246.25846,168.759 v 38.04 l -43.977,4.483 -47.749,-4.483 v -38.04 c 0,-2.644 2.221,-4.783 4.957,-4.783 h 81.813 c 2.736,0 4.957,2.14 4.957,4.783 z"/><path id="path6377" fill="#59f" d="m 373.31846,60.592 v 38.04 l -45.919,6.642 -45.816,-6.642 v -38.04 c 0,-2.636 2.221,-4.775 4.965,-4.775 h 81.805 c 2.744,0 4.965,2.14 4.965,4.775 z"/><path id="path6379" fill="#fff9df" d="m 246.25846,98.632 v 35.281 c 0,3.132 -2.631,5.675 -5.882,5.675 h -79.962 c -3.251,0 -5.882,-2.543 -5.882,-5.675 V 98.632 Z m 127.06,0 v 35.281 c 0,3.132 -2.639,5.675 -5.89,5.675 h -79.962 c -3.251,0 -5.882,-2.543 -5.882,-5.675 V 98.632 Z m -127.06,108.167 v 35.281 c 0,3.132 -2.631,5.667 -5.882,5.667 h -79.962 c -3.251,0 -5.882,-2.535 -5.882,-5.667 v -35.281 z"/><path id="path6381" fill="#2a7fff" d="m 196.24646,233.086 h -15.967 c -3.333,0 -6.035,-2.603 -6.035,-5.814 0,-3.211 2.702,-5.814 6.035,-5.814 h 15.967 c 3.333,0 6.035,2.603 6.035,5.814 0,3.211 -2.702,5.814 -6.035,5.814 z"/><g id="g6389" fill="#2a7fff" transform="translate(-48.535545,-79.164)"><use id="use6383" width="100%" height="100%" x="0" y="0" xlink:href="#A"/><use id="use6385" width="100%" height="100%" x="127.046" y="-50.88" xlink:href="#A"/><path id="path6387" d="M 396.906,204.087 H 355.87 c -3.333,0 -6.035,-2.603 -6.035,-5.814 0,-3.211 2.702,-5.814 6.035,-5.814 h 41.037 c 3.333,0 6.035,2.603 6.035,5.814 0,3.211 -2.703,5.814 -6.036,5.814 z"/></g><g id="g6401" stroke="#06f" stroke-width="2.026" transform="matrix(0.456118,0,0,0.437403,278.53605,142.59206)"><path id="path6391" fill="url(#B)" d="M 136.7,367.7 182.1,288.9 136.7,210 H 45.4 L 0,288.9 45.4,367.7 Z" style="fill:url(#linearGradient6409)"/><path id="path6393" fill="url(#B)" d="M 335.8,200.3 290,121.5 h -90.8 l -45.5,78.8 45.5,78.9 H 290 Z" style="fill:url(#linearGradient6411)"/><path id="path6395" fill="url(#B)" d="m 290,298.6 h -90.8 l -45.5,78.8 45.5,79.2 H 290 l 45.8,-79.2 z" style="fill:url(#linearGradient6413)"/><path id="path6397" fill="url(#B)" d="m 45.4,190.6 h 91.3 L 182.1,111.8 136.7,32.6 H 45.4 L 0,111.8 Z" style="fill:url(#linearGradient6415)"/><path id="path6399" fill="url(#B)" d="m 443.8,32.6 h -91.3 l -45.4,78.8 45.4,79.2 h 91.3 l 45.4,-78.8 z" style="fill:url(#linearGradient6417)"/></g></svg>