<svg xmlns="http://www.w3.org/2000/svg" xmlns:xlink="http://www.w3.org/1999/xlink" viewBox="0 0 750 500" xmlns:v="https://vecta.io/nano"><style><![CDATA[.B{fill:#263238}.C{fill:#455a64}.D{fill:#407bff}.E{fill:#fff}.F{fill:#ebebeb}.G{fill:#dbdbdb}.H{opacity:.1}.I{fill:#c7c7c7}]]></style><g class="F"><path d="M625.123 216.551l5.89-9.49-2.94-1.8a2.67 2.67 0 0 1-1.23-2.5 13.25 13.25 0 0 0 .05-1.67 2.68 2.68 0 0 1 1.39-2.41l3-1.61-5.21-9.85-3 1.65a2.66 2.66 0 0 1-2.77-.18 17.55 17.55 0 0 0-1.42-.88 2.64 2.64 0 0 1-1.4-2.41l.11-3.42-11.17-.34-.1 3.43a2.67 2.67 0 0 1-1.56 2.31l-.73.37-.72.41a2.68 2.68 0 0 1-2.77 0l-2.93-1.82-5.92 9.53 2.91 1.81a2.66 2.66 0 0 1 1.23 2.5 15.35 15.35 0 0 0-.06 1.66 2.66 2.66 0 0 1-1.38 2.41l-3 1.62 5.28 9.84 3-1.61a2.64 2.64 0 0 1 2.77.17 16 16 0 0 0 1.42.88 2.66 2.66 0 0 1 1.4 2.41l-.11 3.42 11.16.35.11-3.43a2.66 2.66 0 0 1 1.55-2.3l.74-.38.72-.4a2.67 2.67 0 0 1 2.79 0zm-9.45-7.05a9.14 9.14 0 1 1 3.75-12.38 9.14 9.14 0 0 1-3.75 12.38zM127 332.79l-3.93-6.79-2.07 1.2a1.85 1.85 0 0 1-2-.07 10.14 10.14 0 0 0-1-.58 1.86 1.86 0 0 1-1-1.66v-2.39h-7.83v2.39a1.86 1.86 0 0 1-1 1.66 10.14 10.14 0 0 0-1 .58 1.85 1.85 0 0 1-2 .07l-2.07-1.2-3.91 6.78 2.08 1.2a1.85 1.85 0 0 1 .91 1.72v.58.57a1.84 1.84 0 0 1-.91 1.72l-2.08 1.21 3.91 6.78 2.08-1.2a1.85 1.85 0 0 1 2 .07c.32.21.66.4 1 .58a1.85 1.85 0 0 1 1 1.65v2.4H117v-2.4a1.85 1.85 0 0 1 1-1.65l1-.58a1.85 1.85 0 0 1 1.95-.07l2.08 1.2 3.91-6.78-2.08-1.2a1.86 1.86 0 0 1-.9-1.72v-.58-.58a1.85 1.85 0 0 1 .91-1.72zm-7.48 3.5a6.41 6.41 0 1 1-6.4-6.41 6.39 6.39 0 0 1 6.38 6.41zm-24.34-103.2a30.47 30.47 0 1 0 30.47 30.47 30.46 30.46 0 0 0-30.47-30.47zm0 44.69a14.23 14.23 0 1 1 14.23-14.22 14.22 14.22 0 0 1-14.23 14.22z"/><path d="M101.04 234.35H89.32l.65-8.29h10.42l.65 8.29zm-22.31 3.95l-8.28 8.28-5.41-6.32 7.37-7.37 6.32 5.41zm-12.97 18.56v11.72l-8.3-.65v-10.42l8.3-.65zm3.94 22.3l8.29 8.29-6.32 5.41-7.37-7.37 5.4-6.33zm18.57 12.98h11.71l-.64 8.3H88.92l-.65-8.3zm22.3-3.95l8.29-8.28 5.4 6.32-7.37 7.37-6.32-5.41zm12.98-18.56v-11.72l8.29.65v10.43l-8.29.64zm-3.95-22.3l-8.28-8.29 6.32-5.4 7.37 7.36-5.41 6.33zm536.27-164.5a30.48 30.48 0 1 0 30.48 30.48 30.47 30.47 0 0 0-30.48-30.48zm0 44.7a14.23 14.23 0 1 1 14.24-14.22 14.22 14.22 0 0 1-14.24 14.22z"/><path d="M661.73 84.1h-11.72l.65-8.3h10.43l.64 8.3zm-22.3 3.95l-8.29 8.28-5.4-6.32 7.37-7.37 6.32 5.41zm-12.98 18.56v11.72l-8.29-.65v-10.42l8.29-.65zm3.95 22.3l8.28 8.29-6.32 5.4-7.37-7.36 5.41-6.33zm18.56 12.98h11.72l-.65 8.3h-10.42l-.65-8.3zm22.3-3.95l8.29-8.28 5.41 6.32-7.37 7.37-6.33-5.41zm12.98-18.56v-11.72l8.3.65v10.42l-8.3.65zm-3.94-22.3l-8.29-8.29 6.32-5.41 7.37 7.37-5.4 6.33zm-104.67 195.1l-.99 6.04-1.05 6.49-9.66 59.19h-15.78l9.65-59.19 1.06-6.49.98-6.04h15.79z"/></g><g class="I"><path d="M573.34 292.18l-2.63 18-2.78 17.94L565 346l-1.5 9-1.56 8.94 1.28-9 1.35-9 2.78-17.94 2.92-17.92 3.07-17.9z"/><path d="M574.64 298.22l-1.05 6.49H557.8l1.06-6.49h15.78z"/></g><path d="M653.56 292.18l.98 6.04 1.06 6.49 9.65 59.19h15.79l-9.65-59.19-1.06-6.49-.98-6.04h-15.79z" class="F"/><g class="I"><path d="M655.9 292.18l2.63 18 2.78 17.94 2.92 17.88 1.5 8.95 1.57 8.94-1.28-9-1.35-9-2.78-17.89-2.89-17.93-3.1-17.89z"/><path d="M654.54 298.22h15.79l1.06 6.49H655.6l-1.06-6.49zm-79.49-22.69h-12.52l1.56-11.67h9.41l1.55 11.67z"/></g><path d="M580.46 255.52a11.67 11.67 0 1 1-11.67-11.66 11.66 11.66 0 0 1 11.67 11.66z" class="G"/><path d="M577.66 255.52a8.87 8.87 0 1 1-8.87-8.86 8.87 8.87 0 0 1 8.87 8.86z" class="E"/><path d="M576.21 255a7.67 7.67 0 0 0-2.9-5.44 7.82 7.82 0 0 0-6-1.56 7.48 7.48 0 0 0-5.13 3.33 7.85 7.85 0 0 0-.94 6.4 7.38 7.38 0 0 0 3.47 4.38 7.7 7.7 0 0 0 5.42.83 8 8 0 0 0 4.56-2.78 8.4 8.4 0 0 0 1.87-4.94c0-.09 0-.16-.07-.16s-.08.06-.08.15a7.81 7.81 0 0 1-.42 2.14 8.28 8.28 0 0 1-1 1.92 8.78 8.78 0 0 1-1.45 1.6 9.51 9.51 0 0 1-1.84 1.19 7.42 7.42 0 0 1-6 .14 7.28 7.28 0 0 1-4.11-4.5 7.5 7.5 0 0 1 .78-6.21 7.15 7.15 0 0 1 5-3.28 7.44 7.44 0 0 1 8.33 4.79 8.94 8.94 0 0 1 .47 2.06l.04-.06zm-1.04 0a6.66 6.66 0 0 0-2.52-4.65 6.82 6.82 0 0 0-5.09-1.35 6.46 6.46 0 0 0-4.44 2.83 6.81 6.81 0 0 0-.86 5.54 6.29 6.29 0 0 0 3 3.83 6.66 6.66 0 0 0 4.73.71 7 7 0 0 0 3.94-2.44 7.36 7.36 0 0 0 1.63-4.29c0-.07 0-.13-.08-.13s-.08.05-.08.13a7.08 7.08 0 0 1-4 5.91 6.38 6.38 0 0 1-5.24.15 6.2 6.2 0 0 1-3.54-3.91 6.43 6.43 0 0 1 .71-5.35 6.12 6.12 0 0 1 4.3-2.77 6.43 6.43 0 0 1 7.12 4.06 7.93 7.93 0 0 1 .42 1.76.07.07 0 0 0 0-.03zm-1.04 0a5.62 5.62 0 0 0-2.13-3.85 5.77 5.77 0 0 0-4.23-1.14 5.37 5.37 0 0 0-3.74 2.32 5.73 5.73 0 0 0-.79 4.68 5.29 5.29 0 0 0 2.55 3.28 5.67 5.67 0 0 0 4 .59 5.94 5.94 0 0 0 3.33-2.1 6.39 6.39 0 0 0 1.37-3.63c0-.06 0-.11-.07-.11s-.08 0-.09.11a6 6 0 0 1-3.41 5 5.33 5.33 0 0 1-4.42.16 5.23 5.23 0 0 1-3-3.31 5.45 5.45 0 0 1 .64-4.5 5.09 5.09 0 0 1 3.61-2.25 6.1 6.1 0 0 1 2.86.34 5.35 5.35 0 0 1 2.39 1.71 6 6 0 0 1 .73 1.29 6.94 6.94 0 0 1 .37 1.46h0a.06.06 0 0 0 .03-.05zm-1.04 0a4.6 4.6 0 0 0-1.75-3.05 4.78 4.78 0 0 0-3.35-.93 4.38 4.38 0 0 0-3.06 1.82 4.72 4.72 0 0 0-.71 3.83 4.29 4.29 0 0 0 2.09 2.73 4.63 4.63 0 0 0 3.35.45 4.92 4.92 0 0 0 2.72-1.75 5.34 5.34 0 0 0 1.11-3 .08.08 0 0 0-.07-.09.1.1 0 0 0-.09.09 5 5 0 0 1-2.77 4 4.31 4.31 0 0 1-3.6.17 4.17 4.17 0 0 1-2.43-2.72 4.38 4.38 0 0 1 .57-3.63 4.06 4.06 0 0 1 2.92-1.75 5.28 5.28 0 0 1 2.25.29 4.37 4.37 0 0 1 1.86 1.32 4.93 4.93 0 0 1 .59 1 5.37 5.37 0 0 1 .33 1.16h0s.05.11.04.06z" class="F"/><path d="M666.38 275.53h-12.52l1.56-11.67h9.41l1.55 11.67z" class="I"/><path d="M671.79 255.52a11.67 11.67 0 1 1-11.67-11.66 11.67 11.67 0 0 1 11.67 11.66z" class="G"/><path d="M669 255.52a8.87 8.87 0 1 1-8.87-8.86 8.87 8.87 0 0 1 8.87 8.86z" class="E"/><path d="M667.53 255a7.62 7.62 0 0 0-2.89-5.44 7.82 7.82 0 0 0-6-1.56 7.48 7.48 0 0 0-5.13 3.33 7.85 7.85 0 0 0-.94 6.4 7.38 7.38 0 0 0 3.47 4.38 7.7 7.7 0 0 0 5.42.83 8 8 0 0 0 4.56-2.78 8.4 8.4 0 0 0 1.87-4.94c0-.09 0-.16-.07-.16s-.08.06-.08.15a7.81 7.81 0 0 1-.42 2.14 8.69 8.69 0 0 1-1 1.92 8.78 8.78 0 0 1-1.45 1.6 9.51 9.51 0 0 1-1.84 1.19 7.42 7.42 0 0 1-6.05.14 7.28 7.28 0 0 1-4.11-4.5 7.5 7.5 0 0 1 .78-6.21 7.13 7.13 0 0 1 5-3.28A7.44 7.44 0 0 1 667 253a8.94 8.94 0 0 1 .47 2.06.06.06 0 0 0 .06-.06zm-1.03 0a6.66 6.66 0 0 0-2.52-4.65 6.82 6.82 0 0 0-5.09-1.35 6.46 6.46 0 0 0-4.44 2.83 6.81 6.81 0 0 0-.86 5.54 6.29 6.29 0 0 0 3 3.83 6.66 6.66 0 0 0 4.73.71 7 7 0 0 0 3.94-2.44 7.28 7.28 0 0 0 1.62-4.29c0-.07 0-.13-.07-.13s-.08.05-.08.13a7.08 7.08 0 0 1-4 5.91 6.38 6.38 0 0 1-5.24.15 6.2 6.2 0 0 1-3.54-3.91 6.46 6.46 0 0 1 .7-5.35 6.16 6.16 0 0 1 4.3-2.77 6.43 6.43 0 0 1 7.13 4.06 7.93 7.93 0 0 1 .42 1.76.07.07 0 0 0 0-.03zm-1.04 0a5.62 5.62 0 0 0-2.13-3.85 5.77 5.77 0 0 0-4.23-1.15 5.37 5.37 0 0 0-3.74 2.32 5.73 5.73 0 0 0-.79 4.68 5.29 5.29 0 0 0 2.55 3.28 5.67 5.67 0 0 0 4 .59 5.94 5.94 0 0 0 3.33-2.1 6.39 6.39 0 0 0 1.37-3.63c0-.06 0-.11-.07-.11s-.08 0-.09.11a6.06 6.06 0 0 1-3.41 5 5.33 5.33 0 0 1-4.42.16 5.21 5.21 0 0 1-3-3.31 5.45 5.45 0 0 1 .64-4.5 5.09 5.09 0 0 1 3.61-2.25 6.1 6.1 0 0 1 2.86.34 5.4 5.4 0 0 1 2.33 1.71 6 6 0 0 1 .73 1.29 6.94 6.94 0 0 1 .37 1.46h0a.06.06 0 0 0 .09-.04zm-1.04 0a4.6 4.6 0 0 0-1.75-3.05 4.78 4.78 0 0 0-3.35-.93 4.38 4.38 0 0 0-3.06 1.82 4.72 4.72 0 0 0-.71 3.83 4.29 4.29 0 0 0 2.09 2.73 4.62 4.62 0 0 0 3.35.45 4.92 4.92 0 0 0 2.72-1.75 5.41 5.41 0 0 0 1.11-3 .08.08 0 0 0-.07-.09.1.1 0 0 0-.09.09 5 5 0 0 1-2.77 4 4.31 4.31 0 0 1-3.6.17 4.17 4.17 0 0 1-2.43-2.72 4.38 4.38 0 0 1 .57-3.63 4.06 4.06 0 0 1 2.92-1.75 5.28 5.28 0 0 1 2.25.29 4.28 4.28 0 0 1 1.85 1.32 4.55 4.55 0 0 1 .6 1 5.37 5.37 0 0 1 .33 1.16h0s.04.11.04.06z" class="F"/><path d="M535.95 269.58h157.3v30.09h-157.3z" class="G"/><path d="M568.27 269.58l-11.41 30.09h-20.32l11.42-30.09h20.31zm41.64 0l-11.41 30.09h-20.32l11.41-30.09h20.32zm41.64 0l-11.42 30.09h-20.31l11.42-30.09h20.31zm41.64 0l-11.42 30.09h-20.32l11.42-30.09h20.32z" class="F"/><path d="M539.13 327.48h150.93v19.04H539.13z" class="G"/><g class="F"><path d="M570.15 327.48l-10.95 19.04h-19.49l10.95-19.04h19.49zm39.95 0l-10.95 19.04h-19.5l10.96-19.04h19.49zm39.95 0l-10.95 19.04h-19.49l10.95-19.04h19.49zm39.96 0l-10.96 19.04h-19.5l10.96-19.04h19.5z"/><ellipse cx="492.62" cy="445.33" rx="182.16" ry="12.3"/></g><path d="M56.76 363.88l79.56-.24 79.56-.09 159.12-.16 159.12.16 79.56.09 79.56.24-79.56.25-79.56.09-159.12.16-159.12-.16-79.56-.09-79.56-.25z" class="B"/><path d="M182.97 109.9h384.06v256.91H182.97z" class="G"/><path d="M185.76 113.04h378.48v250.64H185.76z" class="B"/><path d="M132.95 386.07h484.1v17.63h-484.1z" class="I"/><path d="M132.95 386.07l50.02-19.26h384.06l50.02 19.26h-484.1z" class="G"/><path d="M187.44 379.24l32.28-12.43h310.56l32.28 12.43H187.44z" class="B"/><path d="M206.87 131.99h336.27v212.73H206.87z" class="E"/><path d="M206.87 131.99h336.27v8.19H206.87z" class="C"/><path d="M213.37 136.08a2 2 0 1 1-2-2 2 2 0 0 1 2 2z" class="D"/><path d="M221.66 136.08a2 2 0 1 1-2-2 2 2 0 0 1 2 2z" class="F"/><path d="M230 136.08a2 2 0 1 1-2-2 2 2 0 0 1 2 2z" class="E"/><path d="M428.94 278.94h-61.27v-47.01h61.27z" class="F"/><path d="M373.76 242.22a5.57 5.57 0 1 0 4.37-4.37 5.57 5.57 0 0 0-4.37 4.37z" class="E"/><path d="M387.88 268.82h41.05l-20.53-25.3-20.52 25.3z" class="I"/><g class="G"><path d="M367.66 268.84h36.41l-18.2-16.48-18.21 16.48z"/><path d="M367.66 268.82h61.27v10.13h-61.27zm-144.19-36.88h46.02v3.87h-46.02zm0 8.98h133.18v3.87H223.47zm0 8.52h133.18v3.87H223.47zm0 8.52h133.18v3.87H223.47zm0 8.52h133.18v3.87H223.47zm0 8.51h133.18v3.87H223.47zm110.91-119.06h46.02v10.36h-46.02zm0 17.5h94.55v3.87h-94.55zm0 8.52h94.55v3.87h-94.55zm0 8.52h94.55v3.87h-94.55zm0 8.52h94.55v3.87h-94.55zm0 11.33h94.55v3.87h-94.55zm0 8.52h94.55v3.87h-94.55z"/></g><path d="M442.36 155.93h84.16v10.54h-84.16z" class="D"/><path d="M442.59 166.56h83.71v165.33h-83.71z" class="E"/><g class="G"><path d="M526.53,332.16H442.36V166.29h84.17Zm-83.71-.54h83.24V166.83H442.82Z"/><path d="M442.81 331.99l-.44-.2 83.71-165.33.43.2-83.7 165.33z"/><path d="M526.08 331.99l-83.71-165.33.44-.2 83.7 165.33-.43.2z"/></g><path d="M223.65 156.11h100.3v66.41h-100.3z" class="E"/><g class="G"><path d="M223.49 222.71v-.17-66.58h.17 100.46v66.75H324zm.32-66.42v66.08h100V156.3z"/><path d="M223.81 156.29L249 172.51l25.05 16.42 24.95 16.6 12.43 8.36 12.37 8.45-12.63-8.06-12.56-8.15-25.06-16.42-24.94-16.61-24.8-16.81z"/><path d="M323.79 156.29l-24.8 16.81-24.94 16.61L249 206.13l-12.57 8.15-12.62 8.06 12.37-8.45 12.42-8.36 24.94-16.6 25.06-16.42 25.19-16.22z"/></g><path d="M223.81 332.03v-46.7h204.65v46.7z" class="E"/><g class="G"><path d="M428.8,285.2v47H223.47v-47Zm-.68,46.7V285.46h-204V331.9Z"/><path d="M428.59 331.91l-.25.24-204.66-46.7.25-.24 204.66 46.7z"/><path d="M428.59 285.45l-204.66 46.7-.25-.24 204.66-46.7.25.24z"/></g><use xlink:href="#B" class="B"/><g class="C"><use xlink:href="#C"/><use xlink:href="#C" y="-23.61"/><use xlink:href="#D"/></g><use xlink:href="#B" x="-0.003" y="23.608" class="B"/><g class="C"><use xlink:href="#C" y="23.61"/><use xlink:href="#C"/><use xlink:href="#D" x="-0.004" y="23.609"/></g><use xlink:href="#B" x="-0.005" y="47.216" class="B"/><g class="C"><use xlink:href="#C" y="47.22"/><use xlink:href="#C" y="23.61"/><use xlink:href="#D" x="0.001" y="47.219"/></g><use xlink:href="#B" x="0.002" y="70.824" class="B"/><g class="C"><use xlink:href="#C" y="70.83"/><use xlink:href="#C" y="47.22"/><use xlink:href="#D" x="0.006" y="70.829"/></g><use xlink:href="#B" x="-0.001" y="94.442" class="B"/><g class="C"><path d="M121.18 232.97h21.88V236h-21.88z"/><use xlink:href="#C" y="70.83"/><use xlink:href="#D" x="0.004" y="94.432"/></g><use xlink:href="#B" x="0.006" y="118.051" class="B"/><g class="C"><use xlink:href="#C" y="118.04"/><path d="M121.18 232.97h21.88V236h-21.88z"/><use xlink:href="#D" x="-0.001" y="118.042"/></g><use xlink:href="#B" x="-0.004" y="141.652" class="B"/><g class="C"><use xlink:href="#C" y="141.65"/><use xlink:href="#C" y="118.04"/><use xlink:href="#D" x="0.005" y="141.642"/></g><use xlink:href="#B" x="0.003" y="165.25" class="B"/><g class="C"><use xlink:href="#C" y="165.26"/><use xlink:href="#C" y="141.65"/><use xlink:href="#D" x="0.01" y="165.251"/></g><use xlink:href="#B" x="0.01" y="188.848" class="B"/><g class="C"><use xlink:href="#C" y="188.87"/><use xlink:href="#C" y="165.26"/><use xlink:href="#D" x="0.005" y="188.861"/></g><path d="M120.082 350.535l21.356-22.663 2.205 2.078-21.356 22.663z" class="B"/><g class="C"><use xlink:href="#C" y="212.48"/><use xlink:href="#C" y="188.87"/><use xlink:href="#D" x="0.01" y="212.481"/></g><path d="M120.075 374.137l21.356-22.663 2.205 2.078-21.356 22.663z" class="B"/><g class="C"><use xlink:href="#C" y="236.09"/><use xlink:href="#C" y="212.48"/><use xlink:href="#D" x="0.008" y="236.074"/><path d="M147.44 374.3v13.75h-31.56V374.3z"/><path d="M123.78 116.16v259h-7.91v-259zm23.66 0v259h-7.91v-259zm207.89-1.85l-23.64-23.3-199.54-37.18-60.64 37.36-1.59-2.59 61.64-37.97L333.15 88.2l24.31 23.94-2.13 2.17z"/></g><g class="B"><path d="M156.21 94.28l-24.3-33.78-23.26 33.73-5-3.45 28.15-40.82 29.34 40.77-4.93 3.55z"/><use xlink:href="#E"/></g><g class="C"><use xlink:href="#F"/><use xlink:href="#F" x="-23.61"/><path d="M307.357 115.077l22.659-21.36 2.078 2.205-22.659 21.36z"/></g><use xlink:href="#E" x="-23.615" class="B"/><g class="C"><use xlink:href="#F" x="-23.61"/><use xlink:href="#F" x="-47.22"/><use xlink:href="#G"/></g><use xlink:href="#E" x="-47.23" class="B"/><g class="C"><use xlink:href="#F" x="-47.22"/><use xlink:href="#F" x="-70.83"/><use xlink:href="#G" x="-23.607" y="-0.002"/></g><use xlink:href="#E" x="-70.835" class="B"/><g class="C"><use xlink:href="#F" x="-70.83"/><use xlink:href="#F" x="-94.44"/><use xlink:href="#G" x="-47.214" y="0.006"/></g><use xlink:href="#E" x="-94.444" y="-0.008" class="B"/><g class="C"><use xlink:href="#F" x="-94.44"/><use xlink:href="#F" x="-118.04"/><use xlink:href="#G" x="-70.821" y="0.014"/></g><use xlink:href="#E" x="-118.049" y="-0.008" class="B"/><g class="C"><use xlink:href="#F" x="-118.04"/><use xlink:href="#F" x="-141.65"/><use xlink:href="#G" x="-94.428" y="0.012"/></g><use xlink:href="#E" x="-141.664" y="-0.008" class="B"/><g class="C"><use xlink:href="#F" x="-141.65"/><use xlink:href="#F" x="-165.26"/><use xlink:href="#G" x="-118.028" y="0.014"/></g><use xlink:href="#E" x="-165.269" y="-0.008" class="B"/><g class="C"><use xlink:href="#F" x="-165.26"/><use xlink:href="#F" x="-188.87"/><use xlink:href="#G" x="-141.635" y="0.012"/></g><use xlink:href="#E" x="-188.884" y="-0.008" class="B"/><g class="C"><use xlink:href="#F" x="-188.87"/><path d="M118 94.28h3.03v21.88H118z"/><path d="M118.474 115.044L141.13 93.68l2.079 2.204-22.655 21.364z"/></g><use xlink:href="#E" x="-212.49" y="-0.008" class="B"/><g class="C"><path d="M118 94.28h3.03v21.88H118z"/><use xlink:href="#F" x="-236.09"/><use xlink:href="#G" x="-188.859" y="0.008"/></g><path d="M71.8 96.088l2.091-2.212 22.732 21.487-2.091 2.212z" class="B"/><g class="C"><use xlink:href="#F" x="-236.09"/><use xlink:href="#F" x="-259.7"/><use xlink:href="#G" x="-212.466" y="0.016"/></g><path d="M56.16 88.55h13.73v31.56H56.16z" class="B"/><g class="C"><path d="M69.89 88.55h13.75v31.56H69.89z"/><path d="M75.43 120.11h26.36v15.74H75.43z"/><path d="M69.89 112.2h287.57v7.91H69.89zm271.16-15.74H69.89v-7.91h263.43l7.73 7.91z"/><use xlink:href="#F" x="5.17"/></g><path d="M227.92 206.13l19-3.04 19-2.94 38.04-5.73.1-.01.1.02 63.3 16.42 31.64 8.29 31.6 8.4-31.73-7.91-31.7-8.03-63.36-16.21.2.01-38.08 5.49-19.04 2.67-19.07 2.57zm61.46-82.79h3.03v44.8h-3.03zm25.67 1h3.03v44.8h-3.03z" class="B"/><path d="M283.94 120.11h40.01v6.45h-40.01z" class="C"/><path d="M305.46,175.67l-.34,6.73-1-1.16a10.78,10.78,0,0,1,3.06,1.32,7.21,7.21,0,0,1,2.4,2.36,6,6,0,0,1-.16,6.4,6.24,6.24,0,0,1-5.41,2.8,6.58,6.58,0,0,1-5-3,6.28,6.28,0,0,0,5,2.4,5.39,5.39,0,0,0,4.41-2.82,4.55,4.55,0,0,0-.3-4.81,7,7,0,0,0-4.41-2.33l-.92-.16-.05-1-.33-6.73Z" class="B"/><path d="M323.95 161.87v10.98l-20.01 4.75-20-4.75v-10.98h40.01z" class="C"/><path d="M293.12 168.31a2.33 2.33 0 1 1-2.33-2.32 2.32 2.32 0 0 1 2.33 2.32zm26.29 0a2.32 2.32 0 1 1-2.32-2.32 2.32 2.32 0 0 1 2.32 2.32z" class="B"/><g class="D"><path d="M425.743 273.818L221.7 251.868l4.979-46.283 204.043 21.95z"/><path d="M333.24 253.79l93.56 10.07-44.08-30.2-49.48 20.13z"/></g><path d="M333.24 253.79l93.56 10.07-44.08-30.2-49.48 20.13z" opacity=".2"/><path d="M287.17 248.86l82.97 8.93-39.72-20.85-43.25 11.92z" class="D"/><path d="M287.17 248.86l82.97 8.93-39.72-20.85-43.25 11.92z" class="H"/><path d="M222.743 241.925l204.043 21.95-1.073 9.972-204.043-21.95z" class="D"/><path d="M222.743 241.925l204.043 21.95-1.073 9.972-204.043-21.95z" class="H"/><path d="M251.82 223.65a6.33 6.33 0 1 1-5.61-7 6.32 6.32 0 0 1 5.61 7z" opacity=".6" class="E"/><path d="M137,52.23a5.12,5.12,0,1,1-5.12-5.12A5.12,5.12,0,0,1,137,52.23Z" fill="#a6a6a6"/><path d="M134.25 52.23a2.4 2.4 0 1 1-2.39-2.39 2.39 2.39 0 0 1 2.39 2.39z" class="C"/><path d="M109.57 388.05h44.18v10.44h-44.18z" class="B"/><path d="M99.99 398.49h63.34v20.48H99.99z" class="C"/><path d="M157.35,138.37H110.07V86H141a10.78,10.78,0,0,1,10.69,9.36Z" class="D"/><path d="M144.48 122.47h-22.16a2.07 2.07 0 0 1-.71-.11 2.5 2.5 0 0 1-1.78-2.39V92h15.76a7.49 7.49 0 0 1 1.58.15 8.54 8.54 0 0 1 3.31 1.32 8.38 8.38 0 0 1 1.84 1.67 8.76 8.76 0 0 1 2 4.49l2.66 20a2.52 2.52 0 0 1-2.5 2.84z" class="B"/><path d="M142.1 107.88a2.44 2.44 0 0 1-.73 1.75l-12.83 12.84h-6.22a2.07 2.07 0 0 1-.71-.11l16.25-16.24a2.49 2.49 0 0 1 4.24 1.76zm.22-12.73l-22.49 22.48v-3.5l20.65-20.65a8.38 8.38 0 0 1 1.84 1.67zm-5.15-2.99l-12.77 12.77a1.87 1.87 0 0 1-3.19-1.32 1.84 1.84 0 0 1 .55-1.3L132.06 92h3.53a7.49 7.49 0 0 1 1.58.16z" opacity=".4" class="E"/><path d="M106.73 356.33l-.95 6.8-1.03 7.31-9.4 66.61H79.99l9.4-66.61 1.03-7.31.95-6.8h15.36z" class="D"/><path d="M104.51 356.33l-2.56 20.22-2.71 20.2-2.84 20.16L94.94 427l-1.53 10.06 1.25-10.11L96 416.83l2.71-20.19 2.84-20.17 2.96-20.14z" class="H"/><path d="M105.78 363.13l-1.03 7.31H89.39l1.03-7.31h15.36z" class="H"/><path d="M182.56 356.33l.95 6.8 1.03 7.31 9.39 66.61h15.36l-9.39-66.61-1.03-7.31-.95-6.8h-15.36z" class="D"/><path d="M184.83 356.33l2.56 20.22 2.71 20.2 2.84 20.16L194.4 427l1.53 10.06-1.25-10.11-1.31-10.11-2.71-20.19-2.84-20.17-2.99-20.15z" class="H"/><path d="M183.51 363.13h15.36l1.03 7.31h-15.36l-1.03-7.31z" class="H"/><path d="M106.17 342.36H93.99l1.52-11.35h9.15l1.51 11.35z" class="D"/><path d="M106.17 342.36H93.99l1.52-11.35h9.15l1.51 11.35z" class="H"/><path d="M111.43 322.89a11.35 11.35 0 1 1-11.35-11.35 11.35 11.35 0 0 1 11.35 11.35z" class="D"/><path d="M108.71 322.89a8.63 8.63 0 1 1-8.63-8.62 8.63 8.63 0 0 1 8.63 8.62z" class="E"/><path d="M107.29 322.39a7.47 7.47 0 0 0-2.81-5.29 7.66 7.66 0 0 0-5.81-1.52 7.27 7.27 0 0 0-5 3.24 7.59 7.59 0 0 0-.91 6.22 7.11 7.11 0 0 0 3.37 4.27 7.47 7.47 0 0 0 5.28.81 7.75 7.75 0 0 0 4.43-2.71 8.23 8.23 0 0 0 1.82-4.81c0-.08 0-.15-.07-.15s-.08.06-.08.15a8.15 8.15 0 0 1-.4 2.08 8 8 0 0 1-2.37 3.42 9 9 0 0 1-1.79 1.16 7.2 7.2 0 0 1-5.89.14 7.07 7.07 0 0 1-4-4.38 7.3 7.3 0 0 1 .76-6 7 7 0 0 1 4.86-3.2 7.49 7.49 0 0 1 7.14 2.85 7.76 7.76 0 0 1 1 1.79 9.15 9.15 0 0 1 .45 2 .06.06 0 0 0 .02-.07zm-1.01.01a6.47 6.47 0 0 0-2.44-4.52 6.63 6.63 0 0 0-5-1.31 6.24 6.24 0 0 0-4.31 2.75 6.58 6.58 0 0 0-.84 5.39 6.17 6.17 0 0 0 2.92 3.73 6.6 6.6 0 0 0 4.61.69 6.72 6.72 0 0 0 3.83-2.38 7.2 7.2 0 0 0 1.58-4.17c0-.07 0-.13-.07-.13s-.08.05-.08.13a6.89 6.89 0 0 1-3.94 5.75 6.19 6.19 0 0 1-5.09.15 6.11 6.11 0 0 1-3.45-3.81 6.31 6.31 0 0 1 .69-5.2 6 6 0 0 1 4.19-2.7 6.49 6.49 0 0 1 6.09 2.42 6.91 6.91 0 0 1 .84 1.53 8.05 8.05 0 0 1 .41 1.71 0 0 0 0 0 0 0 0 0 0 0 0 .06-.03zm-1.01.01a5.4 5.4 0 0 0-2.07-3.74 5.57 5.57 0 0 0-4.11-1.11 5.23 5.23 0 0 0-3.64 2.25 5.58 5.58 0 0 0-.77 4.56 5.14 5.14 0 0 0 2.48 3.19 5.48 5.48 0 0 0 3.93.57 5.71 5.71 0 0 0 3.24-2 6.21 6.21 0 0 0 1.33-3.53c0-.06 0-.11-.07-.11s-.08 0-.08.11a5.9 5.9 0 0 1-3.32 4.84 5.2 5.2 0 0 1-4.3.15 5.07 5.07 0 0 1-2.89-3.26 5.27 5.27 0 0 1 .63-4.37 5 5 0 0 1 3.51-2.2 6 6 0 0 1 2.78.33 5.19 5.19 0 0 1 2.26 1.66 5.59 5.59 0 0 1 .71 1.26 6.74 6.74 0 0 1 .37 1.42s.02 0 .01-.02zm-1.01.01a4.4 4.4 0 0 0-1.7-3 4.64 4.64 0 0 0-3.26-.91 4.24 4.24 0 0 0-3 1.77 4.57 4.57 0 0 0-.7 3.73 4.19 4.19 0 0 0 2 2.65 4.47 4.47 0 0 0 3.25.44 4.68 4.68 0 0 0 2.65-1.71 5.17 5.17 0 0 0 1.08-2.88c0-.05 0-.09-.07-.09a.09.09 0 0 0-.08.09 4.86 4.86 0 0 1-2.7 3.92 4.16 4.16 0 0 1-3.5.17 4.09 4.09 0 0 1-2.3-2.6 4.26 4.26 0 0 1 .56-3.54 3.94 3.94 0 0 1 2.84-1.69 5.15 5.15 0 0 1 2.19.28 4.13 4.13 0 0 1 1.8 1.29 4.64 4.64 0 0 1 .59 1 6.83 6.83 0 0 1 .32 1.14h0s.04-.05.03-.06zm90.77 19.94h-12.18l1.52-11.35h9.15l1.51 11.35z" class="D"/><path d="M195.03 342.36h-12.18l1.52-11.35h9.15l1.51 11.35z" class="H"/><path d="M200.29 322.89a11.35 11.35 0 1 1-11.35-11.35 11.35 11.35 0 0 1 11.35 11.35z" class="D"/><path d="M197.57 322.89a8.63 8.63 0 1 1-8.63-8.62 8.63 8.63 0 0 1 8.63 8.62z" class="E"/><g class="D"><path d="M196.15 322.39a7.47 7.47 0 0 0-2.81-5.29 7.66 7.66 0 0 0-5.81-1.52 7.27 7.27 0 0 0-5 3.24 7.59 7.59 0 0 0-.91 6.22 7.11 7.11 0 0 0 3.37 4.27 7.47 7.47 0 0 0 5.28.81 7.75 7.75 0 0 0 4.43-2.71 8.16 8.16 0 0 0 1.82-4.81c0-.08 0-.15-.07-.15s-.08.06-.08.15a7.74 7.74 0 0 1-.4 2.08 8 8 0 0 1-2.37 3.42 9 9 0 0 1-1.79 1.16 7.2 7.2 0 0 1-5.89.14 7.07 7.07 0 0 1-4-4.38 7.3 7.3 0 0 1 .76-6 7 7 0 0 1 4.86-3.2 7.49 7.49 0 0 1 7.14 2.85 7.76 7.76 0 0 1 1 1.79 9.15 9.15 0 0 1 .45 2 .11.11 0 0 0 .02-.07zm-1.01.01a6.47 6.47 0 0 0-2.44-4.52 6.63 6.63 0 0 0-5-1.31 6.24 6.24 0 0 0-4.31 2.75 6.58 6.58 0 0 0-.84 5.39 6.17 6.17 0 0 0 2.92 3.73 6.6 6.6 0 0 0 4.61.69 6.72 6.72 0 0 0 3.83-2.38 7.2 7.2 0 0 0 1.58-4.17c0-.07 0-.13-.07-.13s-.08.05-.08.13a6.89 6.89 0 0 1-3.94 5.75 6.19 6.19 0 0 1-5.09.15 6.11 6.11 0 0 1-3.46-3.81 6.31 6.31 0 0 1 .69-5.2 6 6 0 0 1 4.19-2.7 6.49 6.49 0 0 1 6.09 2.42 6.91 6.91 0 0 1 .84 1.53 8.05 8.05 0 0 1 .41 1.71s.08-.01.07-.03z"/><path d="M194.13 322.41a5.4 5.4 0 0 0-2.07-3.74 5.57 5.57 0 0 0-4.11-1.11 5.23 5.23 0 0 0-3.64 2.25 5.58 5.58 0 0 0-.77 4.56 5.14 5.14 0 0 0 2.48 3.19 5.48 5.48 0 0 0 3.93.57 5.71 5.71 0 0 0 3.24-2 6.14 6.14 0 0 0 1.33-3.53c0-.06 0-.11-.07-.11s-.08 0-.08.11a5.9 5.9 0 0 1-3.32 4.84 5.2 5.2 0 0 1-4.3.15 5.07 5.07 0 0 1-2.91-3.22 5.27 5.27 0 0 1 .63-4.37 5 5 0 0 1 3.51-2.2 6 6 0 0 1 2.78.33 5.06 5.06 0 0 1 3 2.92 6.74 6.74 0 0 1 .37 1.42s.01-.04 0-.06zm-1.01.01a4.4 4.4 0 0 0-1.7-3 4.63 4.63 0 0 0-3.26-.91 4.24 4.24 0 0 0-3 1.77 4.6 4.6 0 0 0-.7 3.73 4.19 4.19 0 0 0 2 2.65 4.47 4.47 0 0 0 3.25.44 4.68 4.68 0 0 0 2.65-1.71 5.17 5.17 0 0 0 1.08-2.88c0-.05 0-.09-.07-.09a.09.09 0 0 0-.08.09 4.86 4.86 0 0 1-2.7 3.92 4.16 4.16 0 0 1-3.5.17 4.09 4.09 0 0 1-2.37-2.65 4.26 4.26 0 0 1 .56-3.54 3.94 3.94 0 0 1 2.84-1.69 5.15 5.15 0 0 1 2.19.28 4.13 4.13 0 0 1 1.8 1.29 4.64 4.64 0 0 1 .59 1 6.83 6.83 0 0 1 .32 1.14h0s.11 0 .1-.01z"/></g><path d="M68.12 336.57h153.04v29.27H68.12z" class="E"/><path d="M221.42 366.09H67.87v-29.77h153.55zm-153-.5h152.5v-28.77H68.37z" class="B"/><path d="M99.58 336.57l-11.11 29.28H68.71l11.1-29.28h19.77zm40.51 0l-11.1 29.28h-19.78l11.11-29.28h19.77zm40.51 0l-11.11 29.28h-19.76l11.11-29.28h19.76zm40.52 0l-11.11 29.28h-19.77l11.1-29.28h19.78z" class="D"/><path d="M71.22 401.62h146.85v18.53H71.22z" class="E"/><path d="M218.32,420.4H71v-19H218.32Zm-146.85-.5H217.82v-18H71.47Z" class="B"/><path d="M101.4 401.62l-10.66 18.53H71.78l10.66-18.53h18.96zm38.88 0l-10.66 18.53h-18.97l10.66-18.53h18.97zm38.86 0l-10.65 18.53h-18.97l10.66-18.53h18.96zm38.88 0l-10.66 18.53h-18.97l10.66-18.53h18.97z" class="D"/><circle cx="144.64" cy="351.21" r="23.82" transform="matrix(.232087 -.972695 .972695 .232087 -230.55 410.38)" class="E"/><path d="M144.64 375.27a24.07 24.07 0 1 1 24.07-24.06 24.08 24.08 0 0 1-24.07 24.06zm0-47.63a23.57 23.57 0 1 0 23.57 23.57 23.59 23.59 0 0 0-23.57-23.57z" class="B"/><circle cx="144.64" cy="351.21" r="20.19" transform="matrix(.231748 -.972776 .972776 .231748 -230.52 410.52)" class="D"/><path d="M131.98 348.86h25.32v4.69h-25.32z" class="E"/><path d="M477.88 439.5l5.06-34.82 1.47.66 2.34 1.06 10.16 4.6 9.09 4.1 6 2.71 9.11 4.12 5 2.25a4.81 4.81 0 0 1-1.29 8.93l-2.11.29h0l-3.32.45-9.89 1.34-6.52.89-9.9 1.35-4.14.57z" class="D"/><path d="M484.66,405.65a22.28,22.28,0,0,1-1.86,3.76c-3.09,4.82-5.32,14.68-3.64,26a14.45,14.45,0,0,0,.75,3.59l2.12-.14s9.87-21.66,42.14-15.64l-3-1.38-9.1-4.1-6-2.71-9.1-4.12Z" style="mix-blend-mode:multiply" class="H"/><path d="M509.49 435.19l2.52-17.38 9.11 4.12-1.74 11.92-9.89 1.34zm-16.42 2.24l3.84-26.44 9.11 4.12-3.05 20.97-9.9 1.35z" class="F"/><g class="D"><path d="M389,438.64h-33.9l.42-1.5.69-2.38,3-10.32,2.66-9.25,1.75-6.09,2.66-9.25,1.46-5.07a4.62,4.62,0,0,1,8.68,0l.57,2h0l.89,3.09,2.66,9.25,1.75,6.09,2.66,9.25,1.11,3.87Z"/><path d="M390.25 447.43H345.7l7.1-17.59h0 44.55 0l-7.1 17.59h0z"/></g><path d="M380.55 409.1h-16.92l2.66-9.24h11.6l2.66 9.24zm4.41 15.34h-25.74l2.66-9.25h20.42l2.66 9.25z" class="F"/><path d="M354.66 436.28a35.42 35.42 0 0 0 8.6 2.61 46.42 46.42 0 0 0 8.89.68l4.46-.34 2.22-.28 2.21-.4 1.11-.21 1.09-.27 2.19-.53 4.36-1.26-4.16 1.86-2.17.74-1.08.36-1.11.29-2.24.53c-.74.17-1.51.25-2.26.38a44 44 0 0 1-4.59.42 36.41 36.41 0 0 1-9.13-1 24.94 24.94 0 0 1-8.39-3.58z" class="B"/><path d="M355.83,436.86a21.76,21.76,0,0,1,3.84,1.25c5,2.28,14.73,3,25.34-.14a14,14,0,0,0,3.31-1.21l-.43-2s-22-6.4-20.74-38l-.89,3.09-2.66,9.25-1.75,6.09-2.66,9.25Z" style="mix-blend-mode:multiply" class="H"/><path d="M468.66 439.44l6.65-45.78 17.02 9.93-6.66 45.77-17.01-9.92h0z" class="D"/><path d="M485.61 422.53c-.95 8.46-4 15.06-6.84 14.74s-4.35-7.43-3.4-15.89 4-15.05 6.85-14.73 4.34 7.43 3.39 15.88z" class="B"/><defs ><path id="B" d="M120.074 138.052l21.364-22.655 2.204 2.079-21.364 22.655z"/><path id="C" d="M121.18 138.53h21.88v3.03h-21.88z"/><path id="D" d="M120.075 117.467l2.205-2.078 21.36 22.659-2.205 2.078z"/><path id="E" d="M307.361 95.924l2.078-2.205 22.659 21.36-2.078 2.205z"/><path id="F" d="M330.48 94.28h3.03v21.88h-3.03z"/><path id="G" d="M283.726 115.034l22.655-21.364 2.079 2.204-22.655 21.364z"/></defs></svg>