<svg xmlns="http://www.w3.org/2000/svg" width="500" height="500" style="width:100%;height:100%;content-visibility:visible"><defs><clipPath id="a"><path d="M0 0h500v500H0z"/></clipPath><clipPath id="b"><path d="M0 0h500v500H0z"/></clipPath></defs><g clip-path="url(#a)"><g clip-path="url(#b)" transform="matrix(.9 0 0 .9 25 25)" display="block"><path stroke-linecap="round" stroke-linejoin="round" stroke="#2F80E8" stroke-width="12.915" d="M249.913 434.497c-62.837 0-113.777-82.604-113.777-184.5 0-101.895 50.94-184.5 113.777-184.5M249.913 434.497c.307-32.287.613-82.604.613-184.5 0-101.895-.306-126.382-.613-184.5" fill="none" display="block"/><path stroke-linecap="round" stroke-linejoin="round" stroke="#2F80E8" stroke-width="12.915" d="M249.913 434.497c64.874 0 117.464-82.604 117.464-184.5 0-101.895-52.59-184.5-117.464-184.5M65.413 249.997h369" fill="none" display="block"/><path stroke-linecap="round" stroke-linejoin="round" stroke="#2F80E8" stroke-width="12.915" d="M369.2 109.268c-32.14 16.826-73.763 26.974-119.26 26.974-45.499 0-87.122-10.148-119.299-26.974M130.641 390.734c32.14-16.826 73.764-26.974 119.261-26.974 45.498 0 87.121 10.148 119.298 26.974" fill="none" display="block"/></g><path stroke-linecap="round" stroke-linejoin="round" stroke="#FFF" stroke-width="11.6235" d="M415.975 250c0 91.706-74.344 166.05-166.05 166.05-91.706 0-166.05-74.344-166.05-166.05 0-91.706 74.344-166.05 166.05-166.05 91.706 0 166.05 74.344 166.05 166.05z" fill="none" display="block"/></g></svg>