<svg xmlns="http://www.w3.org/2000/svg" xmlns:xlink="http://www.w3.org/1999/xlink" width="1015.041" height="680.315" xmlns:v="https://vecta.io/nano"><style><![CDATA[.B{fill:#263238}.C{fill:#455a64}.D{fill:#407bff}.E{fill:#fff}.F{fill:#ebebeb}.G{fill:#dbdbdb}.H{opacity:.1}.I{fill:#c7c7c7}]]></style><g class="F"><path d="M906.498 280.798l9.384-15.727-4.684-2.983c-1.349-.889-2.106-2.489-1.96-4.143a22.83 22.83 0 0 0 .08-2.768c-.036-1.657.818-3.197 2.215-3.994l4.78-2.668-8.301-16.323-4.78 2.734a4.1 4.1 0 0 1-4.413-.298c-.733-.53-1.498-1.011-2.262-1.458-1.414-.781-2.278-2.33-2.231-3.994l.175-5.668-17.797-.563-.159 5.684c-.072 1.66-1.032 3.139-2.485 3.828l-1.163.613-1.147.679a4.13 4.13 0 0 1-4.413 0l-4.668-3.016-9.432 15.793 4.636 3c1.352.886 2.11 2.488 1.96 4.143a26.59 26.59 0 0 0-.096 2.751c.046 1.655-.803 3.198-2.199 3.994l-4.78 2.685 8.412 16.307 4.78-2.668a4.07 4.07 0 0 1 4.413.282 25.35 25.35 0 0 0 2.262 1.458c1.408.787 2.271 2.332 2.231 3.994l-.175 5.668 17.781.58.175-5.684c.071-1.652 1.024-3.123 2.47-3.812l1.179-.63 1.147-.663c1.364-.869 3.081-.869 4.445 0zm-15.056-11.683c-7.092 3.94-15.911 1.156-19.702-6.219s-1.119-16.549 5.969-20.496 15.91-1.172 19.708 6.198c1.826 3.544 2.223 7.698 1.102 11.547s-3.667 7.075-7.077 8.97zM112.866 473.43l-6.261-11.252-3.298 1.989a2.85 2.85 0 0 1-3.186-.116c-.513-.352-1.045-.673-1.593-.961-.985-.534-1.6-1.596-1.593-2.751v-3.961H84.458v3.961c.006 1.155-.609 2.217-1.593 2.751-.548.289-1.08.61-1.593.961a2.85 2.85 0 0 1-3.186.116l-3.298-1.989-6.23 11.236 3.314 1.989c.963.588 1.525 1.691 1.45 2.85v.961.945c.079 1.16-.484 2.266-1.45 2.85l-3.314 2.005 6.23 11.236 3.314-1.989a2.85 2.85 0 0 1 3.186.116c.51.348 1.052.663 1.593.961.982.528 1.597 1.584 1.593 2.734v3.977h12.459v-3.977c-.004-1.15.611-2.206 1.593-2.734l1.593-.961a2.85 2.85 0 0 1 3.107-.116l3.314 1.989 6.23-11.236-3.314-1.989c-.955-.595-1.508-1.696-1.434-2.85v-.961-.961c-.075-1.159.486-2.263 1.45-2.85zm-11.917 5.8c0 4.298-2.49 8.172-6.308 9.816s-8.212.731-11.132-2.31-3.789-7.613-2.204-11.582 5.315-6.553 9.447-6.546c2.703.004 5.293 1.127 7.2 3.119s2.973 4.692 2.965 7.503zM62.168 308.207c-26.811 0-48.546 22.607-48.546 50.495s21.735 50.495 48.546 50.495 48.546-22.607 48.546-50.495c.004-13.393-5.109-26.24-14.214-35.71s-21.455-14.789-34.332-14.785zm0 74.06c-9.171 0-17.439-5.747-20.948-14.561s-1.566-18.958 4.922-25.701 16.242-8.757 24.713-5.101 13.991 12.259 13.985 21.799c0 6.253-2.389 12.249-6.641 16.669s-10.019 6.901-16.03 6.896z"/><path d="M71.505 310.295H52.832l1.036-13.738H70.47zm-35.545 6.546l-13.192 13.722-8.619-10.474 11.742-12.214zm-20.665 30.757v19.422l-13.224-1.077v-17.268zm6.278 36.956l13.208 13.738-10.069 8.965-11.742-12.214zm29.586 21.51h18.657l-1.02 13.755H52.195zm35.53-6.546l13.208-13.722 8.604 10.474-11.742 12.214zm20.68-30.757v-19.422l13.208 1.077V367.7zm-6.293-36.956l-13.192-13.738 10.069-8.949 11.742 12.197zm854.41-272.61c-26.82 0-48.562 22.615-48.562 50.512s21.742 50.512 48.562 50.512 48.562-22.615 48.562-50.512c.004-13.398-5.111-26.248-14.219-35.722s-21.463-14.794-34.343-14.79zm0 74.077c-12.521-.009-22.665-10.575-22.656-23.599s10.166-23.575 22.688-23.565 22.665 10.575 22.656 23.599c0 6.256-2.391 12.255-6.647 16.675s-10.027 6.899-16.041 6.89z"/><path d="M964.822 61.3h-18.673l1.036-13.755h16.618zm-35.529 6.546l-13.208 13.722-8.604-10.474 11.742-12.214zm-20.681 30.758v19.422l-13.208-1.077V99.681zm6.294 36.955l13.192 13.738-10.069 8.949-11.742-12.197zm29.57 21.511h18.673l-1.036 13.755h-16.602zm35.53-6.546l13.208-13.722 8.619 10.474-11.742 12.214zm20.68-30.758v-19.422l13.224 1.077v17.268zm-6.277-36.956l-13.208-13.738 10.069-8.965 11.742 12.214zM783.861 524.985l15.375-98.09 1.689-10.755 1.561-10.01h25.157l-1.577 10.01-1.673 10.755-15.391 98.09z"/></g><g class="I"><path d="M823.995 406.131l-4.19 29.83-4.429 29.73-4.668 29.631-2.39 14.915-2.485 14.815 2.039-14.915 2.151-14.915 4.429-29.73 4.652-29.697 4.891-29.664z"/><path d="M826.066 416.14l-1.673 10.755h-25.157l1.689-10.755z"/></g><path d="M995.588 524.985l-15.375-98.09-1.689-10.755-1.561-10.01h-25.157l1.561 10.01 1.689 10.755 15.375 98.09z" class="F"/><g class="I"><path d="M955.533 406.131l4.19 29.83 4.429 29.73 4.652 29.631 2.39 14.832 2.501 14.815-2.039-14.915-2.151-14.915-4.429-29.647-4.604-29.714-4.939-29.647z"/><path d="M953.367 416.14h25.157l1.689 10.755h-25.157zm-126.648-37.602h-19.947l2.485-19.34h14.992z"/></g><path d="M835.339 345.378c.006 7.824-4.52 14.881-11.467 17.879s-14.947 1.348-20.268-4.182-6.915-13.849-4.038-21.078 9.658-11.942 17.179-11.942c4.93-.004 9.659 2.029 13.146 5.654s5.447 8.542 5.447 13.669z" class="G"/><use xlink:href="#B" class="E"/><path d="M828.568 344.516c-.26-3.545-1.936-6.814-4.62-9.015-2.708-2.195-6.167-3.13-9.559-2.585-3.356.544-6.329 2.552-8.173 5.518-1.942 3.147-2.487 7.011-1.498 10.606.857 3.08 2.842 5.686 5.529 7.259 2.619 1.545 5.692 2.035 8.635 1.375 2.858-.625 5.422-2.251 7.265-4.607a14.25 14.25 0 0 0 2.979-8.187c0-.149 0-.265-.112-.265s-.127.099-.127.249a13.4 13.4 0 0 1-.669 3.546c-.395 1.129-.931 2.198-1.593 3.182a14.22 14.22 0 0 1-2.31 2.652 15.1 15.1 0 0 1-2.932 1.972c-3.013 1.474-6.484 1.558-9.559.232-3.126-1.37-5.519-4.095-6.548-7.457-1.047-3.455-.594-7.213 1.243-10.291 1.765-2.935 4.675-4.921 7.966-5.436 5.694-1.079 11.304 2.277 13.272 7.938a15.32 15.32 0 0 1 .749 3.414l.064-.099zm-1.657 0c-.258-3.035-1.711-5.824-4.015-7.706-2.306-1.845-5.227-2.651-8.11-2.237-2.891.447-5.463 2.153-7.074 4.69a11.67 11.67 0 0 0-1.37 9.181c.71 2.697 2.433 4.984 4.78 6.347 2.285 1.349 4.971 1.769 7.536 1.177 2.473-.567 4.687-1.993 6.277-4.044 1.572-2.021 2.482-4.512 2.597-7.109 0-.116 0-.215-.127-.215s-.127.083-.127.215c-.271 4.221-2.706 7.963-6.373 9.794a9.81 9.81 0 0 1-8.349.249c-2.714-1.179-4.781-3.554-5.64-6.48-.891-2.985-.478-6.226 1.131-8.866 1.53-2.497 4.033-4.174 6.851-4.59 4.844-.879 9.605 1.945 11.344 6.728a13.57 13.57 0 0 1 .669 2.917.12.12 0 0 0 0-.05zm-1.657 0c-.251-2.518-1.476-4.822-3.394-6.38-1.92-1.527-4.342-2.206-6.739-1.889-2.423.337-4.592 1.737-5.959 3.845-1.478 2.274-1.937 5.103-1.259 7.756.585 2.312 2.053 4.276 4.063 5.436a8.73 8.73 0 0 0 6.373.978c2.097-.499 3.969-1.727 5.306-3.48a10.85 10.85 0 0 0 2.183-6.016c0-.099 0-.182-.112-.182s-.127 0-.143.182c-.241 3.579-2.317 6.746-5.433 8.286-2.2 1.145-4.769 1.242-7.042.265-2.302-.993-4.055-3.006-4.78-5.485-.72-2.522-.348-5.245 1.02-7.457 1.302-2.057 3.403-3.419 5.752-3.729a9.37 9.37 0 0 1 4.557.563c1.499.556 2.818 1.538 3.808 2.834.471.66.862 1.378 1.163 2.138a11.88 11.88 0 0 1 .59 2.42h0a.1.1 0 0 0 .048-.083zm-1.657 0c-.249-2.002-1.252-3.82-2.788-5.054-1.53-1.192-3.435-1.743-5.337-1.541-1.962.242-3.734 1.338-4.875 3.016a8.08 8.08 0 0 0-1.131 6.347c.455 1.925 1.662 3.565 3.33 4.524 1.625.939 3.531 1.206 5.337.746 1.717-.431 3.245-1.453 4.334-2.9 1.064-1.43 1.681-3.165 1.769-4.972.005-.035-.005-.071-.026-.099s-.052-.046-.086-.05c-.076.008-.136.07-.143.149-.269 2.855-1.938 5.363-4.413 6.629a6.63 6.63 0 0 1-5.736.282c-1.887-.805-3.315-2.467-3.872-4.508-.56-2.047-.228-4.246.908-6.016 1.067-1.629 2.768-2.689 4.652-2.9a8.11 8.11 0 0 1 3.585.481 6.96 6.96 0 0 1 2.963 2.188 8.25 8.25 0 0 1 .94 1.657c.244.618.42 1.263.526 1.922h0s.08.182.064.099z" class="F"/><path d="M972.231 378.538h-19.947l2.485-19.34h14.992z" class="I"/><path d="M980.85 345.378c.006 7.824-4.52 14.881-11.467 17.879s-14.947 1.348-20.268-4.182-6.915-13.849-4.038-21.078 9.658-11.942 17.179-11.942c10.263 0 18.584 8.649 18.593 19.323z" class="G"/><use xlink:href="#B" x="145.527" class="E"/><path d="M974.063 344.516c-.247-3.545-1.918-6.818-4.604-9.015-2.708-2.195-6.167-3.13-9.559-2.585-3.356.544-6.329 2.552-8.173 5.518-1.942 3.147-2.487 7.011-1.498 10.606.857 3.08 2.842 5.686 5.529 7.259 2.619 1.545 5.692 2.035 8.635 1.375 2.858-.625 5.422-2.251 7.265-4.607a14.25 14.25 0 0 0 2.979-8.187c0-.149 0-.265-.112-.265s-.127.099-.127.249a13.4 13.4 0 0 1-.669 3.546c-.402 1.126-.937 2.194-1.593 3.182-.662.979-1.438 1.87-2.31 2.652a15.1 15.1 0 0 1-2.932 1.972c-3.035 1.499-6.54 1.583-9.639.232-3.126-1.37-5.519-4.095-6.548-7.457-1.047-3.455-.594-7.213 1.243-10.291 1.761-2.939 4.673-4.925 7.966-5.436 5.705-1.096 11.334 2.262 13.304 7.938a15.32 15.32 0 0 1 .749 3.414c.053 0 .096-.045.096-.099zm-1.641 0c-.258-3.035-1.711-5.824-4.015-7.706-2.306-1.845-5.227-2.651-8.11-2.237-2.891.447-5.463 2.153-7.074 4.69a11.67 11.67 0 0 0-1.37 9.181c.71 2.697 2.433 4.984 4.78 6.347 2.285 1.349 4.971 1.769 7.536 1.177 2.473-.567 4.687-1.993 6.277-4.044 1.574-2.019 2.479-4.512 2.581-7.109 0-.116 0-.215-.112-.215s-.127.083-.127.215c-.271 4.221-2.706 7.963-6.373 9.794a9.81 9.81 0 0 1-8.349.249c-2.714-1.179-4.781-3.554-5.64-6.48a11.08 11.08 0 0 1 1.115-8.866c1.536-2.491 4.036-4.165 6.851-4.59 4.849-.888 9.62 1.937 11.36 6.728a13.57 13.57 0 0 1 .669 2.917.12.12 0 0 0 0-.05zm-1.657 0c-.251-2.518-1.476-4.822-3.394-6.38-1.918-1.533-4.339-2.217-6.739-1.906-2.423.337-4.592 1.737-5.959 3.845-1.478 2.274-1.937 5.103-1.259 7.756.585 2.312 2.053 4.276 4.063 5.436a8.73 8.73 0 0 0 6.373.978c2.097-.499 3.969-1.727 5.306-3.48a10.85 10.85 0 0 0 2.183-6.016c0-.099 0-.182-.112-.182s-.127 0-.143.182c-.26 3.572-2.331 6.73-5.433 8.286-2.2 1.145-4.769 1.242-7.042.265-2.304-.989-4.059-3.003-4.78-5.485-.72-2.522-.348-5.245 1.02-7.457 1.302-2.057 3.403-3.419 5.752-3.729a9.37 9.37 0 0 1 4.557.563 8.63 8.63 0 0 1 3.712 2.834c.471.66.862 1.378 1.163 2.138a11.88 11.88 0 0 1 .59 2.42h0c.027.017.06.019.088.006a.1.1 0 0 0 .055-.072zm-1.657 0c-.249-2.002-1.252-3.82-2.788-5.054-1.53-1.192-3.435-1.743-5.337-1.541-1.962.242-3.734 1.338-4.875 3.016a8.08 8.08 0 0 0-1.131 6.347c.455 1.925 1.662 3.565 3.33 4.524a7.11 7.11 0 0 0 5.337.746c1.717-.431 3.245-1.453 4.334-2.9 1.058-1.434 1.674-3.167 1.769-4.972.005-.035-.005-.071-.026-.099s-.052-.046-.086-.05c-.076.008-.136.07-.143.149-.269 2.855-1.938 5.363-4.413 6.629a6.63 6.63 0 0 1-5.736.282c-1.887-.805-3.315-2.467-3.872-4.508-.56-2.047-.228-4.246.908-6.016 1.067-1.629 2.768-2.689 4.652-2.9a8.11 8.11 0 0 1 3.585.481c1.154.44 2.172 1.195 2.948 2.188.386.507.707 1.064.956 1.657.244.618.42 1.263.526 1.922h0s.064.182.064.099z" class="F"/><path d="M764.424 368.678h250.618v49.865H764.424z" class="G"/><path d="M815.917 368.678l-18.179 49.865h-32.375l18.195-49.865zm66.343 0l-18.179 49.865h-32.375l18.179-49.865zm66.343 0l-18.195 49.865h-32.359l18.195-49.865zm66.342 0l-18.195 49.865h-32.375l18.195-49.865z" class="F"/><path d="M769.49 464.63h240.469v31.553H769.49z" class="G"/><path d="M818.913 464.63l-17.446 31.553h-31.052l17.446-31.553zm63.65 0l-17.446 31.553h-31.068l17.462-31.553zm63.65 0l-17.446 31.553h-31.052l17.446-31.553zm63.666 0l-17.462 31.553h-31.068l17.462-31.553z" class="F"/><path d="M.956 524.952l126.759-.398 126.759-.149 253.517-.265 253.517.265 126.759.149 126.759.398-126.759.414-126.759.149-253.517.265-253.517-.265-126.759-.149z" class="B"/><path d="M202.04 104.056h611.902v425.752H202.04z" class="G"/><path d="M206.485 109.259h603.012v415.361H206.485z" class="B"/><path d="M122.345 561.726h771.29v29.216h-771.29z" class="I"/><path d="M122.345 561.726l79.694-31.918h611.902l79.694 31.918z" class="G"/><path d="M209.161 550.407l51.43-20.599H755.39l51.43 20.599z" class="B"/><path d="M240.118 140.663h535.761V493.2H240.118z" class="E"/><path d="M240.118 140.663h535.761v13.572H240.118z" class="C"/><use xlink:href="#C" class="D"/><use xlink:href="#C" x="13.208" class="F"/><use xlink:href="#C" x="26.496" class="E"/><path d="M593.93 384.189h-97.618v-77.905h97.618z" class="F"/><path d="M506.015 323.337c-.767 3.989 1.067 8.029 4.515 9.948s7.697 1.265 10.462-1.612 3.394-7.296 1.549-10.882-5.73-5.494-9.564-4.696c-3.514.731-6.26 3.587-6.962 7.242z" class="E"/><path d="M528.512 367.418h65.403l-32.709-41.927z" class="I"/><g class="G"><path d="M496.296 367.452h58.01l-28.997-27.311z"/><path d="M496.296 367.418h97.618v16.787h-97.618zm-229.73-61.117h73.321v6.413h-73.321z"/><use xlink:href="#D"/><use xlink:href="#D" y="14.119"/><use xlink:href="#D" y="28.238"/><use xlink:href="#D" y="42.358"/><use xlink:href="#D" y="56.46"/><path d="M443.273 180.337h73.321v17.169h-73.321z"/><use xlink:href="#E"/><use xlink:href="#E" y="14.119"/><use xlink:href="#E" y="28.239"/><use xlink:href="#E" y="42.358"/><use xlink:href="#E" y="61.134"/><use xlink:href="#E" y="75.253"/></g><path d="M615.312 180.337h134.088v17.467H615.312z" class="D"/><path d="M615.678 197.953h133.371v273.985H615.678z" class="E"/><g class="G"><path d="M749.415 472.386H615.312v-274.88h134.104zm-133.371-.895h132.622V198.4H616.044z"/><path d="M616.029 472.104l-.701-.331 133.371-273.985.685.331z"/><path d="M748.698 472.104L615.328 198.119l.701-.331 133.355 273.985z"/></g><path d="M266.853 180.635h159.803V290.69H266.853z" class="E"/><g class="G"><path d="M266.598 291.005v-.282-110.337h.271 160.057v110.618h-.191zm.51-110.071v109.508h159.325V180.95z"/><path d="M267.108 180.933l40.134 26.88 39.911 27.211 39.751 27.51 19.804 13.854 19.708 14.003-20.123-13.357-20.011-13.506-39.927-27.211-39.736-27.526-39.513-27.858z"/><path d="M426.4 180.933l-39.513 27.858-39.736 27.526-39.911 27.211-20.027 13.506-20.107 13.357 19.708-14.003 19.788-13.854 39.736-27.51 39.927-27.211 40.134-26.88z"/></g><path d="M267.108 472.17v-77.391h326.058v77.391z" class="E"/><g class="G"><path d="M593.707 394.563v77.889H266.566v-77.889zm-1.083 77.391v-76.961H267.602v76.961z"/><path d="M593.373 471.971l-.398.398-326.074-77.391.398-.398z"/><path d="M593.373 394.978l-326.074 77.391-.398-.398 326.074-77.391z"/></g><g transform="matrix(1.593246 0 0 1.657203 -89.476706 -78.070833)"><use xlink:href="#F" class="B"/><g class="C"><use xlink:href="#G"/><use xlink:href="#G" y="-23.61"/><use xlink:href="#H"/></g><use xlink:href="#F" x="-0.003" y="23.608" class="B"/><g class="C"><use xlink:href="#G" y="23.61"/><use xlink:href="#G"/><use xlink:href="#H" x="-0.004" y="23.609"/></g><use xlink:href="#F" x="-0.005" y="47.216" class="B"/><g class="C"><use xlink:href="#G" y="47.22"/><use xlink:href="#G" y="23.61"/><use xlink:href="#H" x="0.001" y="47.219"/></g><use xlink:href="#F" x="0.002" y="70.824" class="B"/><g class="C"><use xlink:href="#G" y="70.83"/><use xlink:href="#G" y="47.22"/><use xlink:href="#H" x="0.006" y="70.829"/></g><use xlink:href="#F" x="-0.001" y="94.442" class="B"/><g class="C"><path d="M121.18 232.97h21.88V236h-21.88z"/><use xlink:href="#G" y="70.83"/><use xlink:href="#H" x="0.004" y="94.432"/></g><use xlink:href="#F" x="0.006" y="118.051" class="B"/><g class="C"><use xlink:href="#G" y="118.04"/><path d="M121.18 232.97h21.88V236h-21.88z"/><use xlink:href="#H" x="-0.001" y="118.042"/></g><use xlink:href="#F" x="-0.004" y="141.652" class="B"/><g class="C"><use xlink:href="#G" y="141.65"/><use xlink:href="#G" y="118.04"/><use xlink:href="#H" x="0.005" y="141.642"/></g><use xlink:href="#F" x="0.003" y="165.25" class="B"/><g class="C"><use xlink:href="#G" y="165.26"/><use xlink:href="#G" y="141.65"/><use xlink:href="#H" x="0.01" y="165.251"/></g><use xlink:href="#F" x="0.01" y="188.848" class="B"/><g class="C"><use xlink:href="#G" y="188.87"/><use xlink:href="#G" y="165.26"/><use xlink:href="#H" x="0.005" y="188.861"/></g><path d="M120.082 350.535l21.356-22.663 2.205 2.078-21.356 22.663z" class="B"/><g class="C"><use xlink:href="#G" y="212.48"/><use xlink:href="#G" y="188.87"/><use xlink:href="#H" x="0.01" y="212.481"/></g><path d="M120.075 374.137l21.356-22.663 2.205 2.078-21.356 22.663z" class="B"/><g class="C"><use xlink:href="#G" y="236.09"/><use xlink:href="#G" y="212.48"/><use xlink:href="#H" x="0.008" y="236.074"/><path d="M147.44 374.3v13.75h-31.56V374.3z"/><path d="M123.78 116.16v259h-7.91v-259zm23.66 0v259h-7.91v-259zM69.92 88.6l61.64-37.97L333.15 88.2l24.31 23.94-2.13 2.17-23.64-23.3-199.54-37.18-60.64 37.36z"/></g><g class="B"><path d="M156.21 94.28l-24.3-33.78-23.26 33.73-5-3.45 28.15-40.82 29.34 40.77z"/><use xlink:href="#I"/></g><g class="C"><use xlink:href="#J"/><use xlink:href="#J" x="-23.61"/><path d="M307.357 115.077l22.659-21.36 2.078 2.205-22.659 21.36z"/></g><use xlink:href="#I" x="-23.615" class="B"/><g class="C"><use xlink:href="#J" x="-23.61"/><use xlink:href="#J" x="-47.22"/><use xlink:href="#K"/></g><use xlink:href="#I" x="-47.23" class="B"/><g class="C"><use xlink:href="#J" x="-47.22"/><use xlink:href="#J" x="-70.83"/><use xlink:href="#K" x="-23.607" y="-0.002"/></g><use xlink:href="#I" x="-70.835" class="B"/><g class="C"><use xlink:href="#J" x="-70.83"/><use xlink:href="#J" x="-94.44"/><use xlink:href="#K" x="-47.214" y="0.006"/></g><use xlink:href="#I" x="-94.444" y="-0.008" class="B"/><g class="C"><use xlink:href="#J" x="-94.44"/><use xlink:href="#J" x="-118.04"/><use xlink:href="#K" x="-70.821" y="0.014"/></g><use xlink:href="#I" x="-118.049" y="-0.008" class="B"/><g class="C"><use xlink:href="#J" x="-118.04"/><use xlink:href="#J" x="-141.65"/><use xlink:href="#K" x="-94.428" y="0.012"/></g><use xlink:href="#I" x="-141.664" y="-0.008" class="B"/><g class="C"><use xlink:href="#J" x="-141.65"/><use xlink:href="#J" x="-165.26"/><use xlink:href="#K" x="-118.028" y="0.014"/></g><use xlink:href="#I" x="-165.269" y="-0.008" class="B"/><g class="C"><use xlink:href="#J" x="-165.26"/><use xlink:href="#J" x="-188.87"/><use xlink:href="#K" x="-141.635" y="0.012"/></g><use xlink:href="#I" x="-188.884" y="-0.008" class="B"/><g class="C"><use xlink:href="#J" x="-188.87"/><path d="M118 94.28h3.03v21.88H118z"/><path d="M118.474 115.044L141.13 93.68l2.079 2.204-22.655 21.364z"/></g><use xlink:href="#I" x="-212.49" y="-0.008" class="B"/><g class="C"><path d="M118 94.28h3.03v21.88H118z"/><use xlink:href="#J" x="-236.09"/><use xlink:href="#K" x="-188.859" y="0.008"/></g><path d="M71.8 96.088l2.091-2.212 22.732 21.487-2.091 2.212z" class="B"/><g class="C"><use xlink:href="#J" x="-236.09"/><use xlink:href="#J" x="-259.7"/><use xlink:href="#K" x="-212.466" y="0.016"/></g><path d="M56.16 88.55h13.73v31.56H56.16z" class="B"/><g class="C"><path d="M69.89 88.55h13.75v31.56H69.89z"/><path d="M75.43 120.11h26.36v15.74H75.43z"/><path d="M69.89 112.2h287.57v7.91H69.89zm271.16-15.74H69.89v-7.91h263.43z"/><use xlink:href="#J" x="5.17"/></g><path d="M304.11 195.4l-38.08 5.49-19.04 2.67-19.07 2.57 19-3.04 19-2.94 38.04-5.73.1-.01.1.02 63.3 16.42 31.64 8.29 31.6 8.4-31.73-7.91-31.7-8.03-63.36-16.21zm-14.73-72.06h3.03v44.8h-3.03zm25.67 1h3.03v44.8h-3.03z" class="B"/><path d="M283.94 120.11h40.01v6.45h-40.01z" class="C"/><path d="M305.46 175.67l-.34 6.73-1-1.16a10.78 10.78 0 0 1 3.06 1.32 7.21 7.21 0 0 1 2.4 2.36 6 6 0 0 1-.16 6.4 6.24 6.24 0 0 1-5.41 2.8 6.58 6.58 0 0 1-5-3 6.28 6.28 0 0 0 5 2.4 5.39 5.39 0 0 0 4.41-2.82 4.55 4.55 0 0 0-.3-4.81 7 7 0 0 0-4.41-2.33l-.92-.16-.05-1-.33-6.73z" class="B"/><path d="M303.94 177.6l-20-4.75v-10.98h40.01v10.98z" class="C"/><path d="M293.12 168.31a2.33 2.33 0 1 1-2.33-2.32 2.32 2.32 0 0 1 2.33 2.32zm26.29 0a2.32 2.32 0 1 1-2.32-2.32 2.32 2.32 0 0 1 2.32 2.32z" class="B"/><g class="D"><path d="M425.743 273.818L221.7 251.868l4.979-46.283 204.043 21.95z"/><path d="M333.24 253.79l93.56 10.07-44.08-30.2z"/></g><path d="M333.24 253.79l93.56 10.07-44.08-30.2z" opacity=".2"/><path d="M287.17 248.86l82.97 8.93-39.72-20.85z" class="D"/><path d="M287.17 248.86l82.97 8.93-39.72-20.85z" class="H"/><path d="M222.743 241.925l204.043 21.95-1.073 9.972-204.043-21.95z" class="D"/><path d="M222.743 241.925l204.043 21.95-1.073 9.972-204.043-21.95z" class="H"/><path d="M251.82 223.65a6.33 6.33 0 1 1-5.61-7 6.32 6.32 0 0 1 5.61 7z" opacity=".6" class="E"/><path d="M137 52.23a5.12 5.12 0 1 1-5.12-5.12 5.12 5.12 0 0 1 5.12 5.12z" fill="#a6a6a6"/><path d="M134.25 52.23a2.4 2.4 0 1 1-2.39-2.39 2.39 2.39 0 0 1 2.39 2.39z" class="C"/><path d="M109.57 388.05h44.18v10.44h-44.18z" class="B"/><path d="M99.99 398.49h63.34v20.48H99.99z" class="C"/><path d="M157.35 138.37h-47.28V86H141a10.78 10.78 0 0 1 10.69 9.36z" class="D"/><path d="M144.48 122.47h-22.16a2.07 2.07 0 0 1-.71-.11 2.5 2.5 0 0 1-1.78-2.39V92h15.76a7.49 7.49 0 0 1 1.58.15 8.54 8.54 0 0 1 3.31 1.32 8.38 8.38 0 0 1 1.84 1.67 8.76 8.76 0 0 1 2 4.49l2.66 20a2.52 2.52 0 0 1-2.5 2.84z" class="B"/><path d="M142.1 107.88a2.44 2.44 0 0 1-.73 1.75l-12.83 12.84h-6.22a2.07 2.07 0 0 1-.71-.11l16.25-16.24a2.49 2.49 0 0 1 4.24 1.76zm.22-12.73l-22.49 22.48v-3.5l20.65-20.65a8.38 8.38 0 0 1 1.84 1.67zm-5.15-2.99l-12.77 12.77a1.87 1.87 0 0 1-3.19-1.32 1.84 1.84 0 0 1 .55-1.3L132.06 92h3.53a7.49 7.49 0 0 1 1.58.16z" opacity=".4" class="E"/><path d="M79.99 437.05l9.4-66.61 1.03-7.31.95-6.8h15.36l-.95 6.8-1.03 7.31-9.4 66.61z" class="D"/><path d="M104.51 356.33l-2.56 20.22-2.71 20.2-2.84 20.16L94.94 427l-1.53 10.06 1.25-10.11L96 416.83l2.71-20.19 2.84-20.17 2.96-20.14z" class="H"/><path d="M105.78 363.13l-1.03 7.31H89.39l1.03-7.31z" class="H"/><path d="M209.29 437.05l-9.39-66.61-1.03-7.31-.95-6.8h-15.36l.95 6.8 1.03 7.31 9.39 66.61z" class="D"/><path d="M184.83 356.33l2.56 20.22 2.71 20.2 2.84 20.16L194.4 427l1.53 10.06-1.25-10.11-1.31-10.11-2.71-20.19-2.84-20.17-2.99-20.15z" class="H"/><path d="M183.51 363.13h15.36l1.03 7.31h-15.36z" class="H"/><path d="M106.17 342.36H93.99l1.52-11.35h9.15z" class="D"/><path d="M106.17 342.36H93.99l1.52-11.35h9.15z" class="H"/><path d="M111.43 322.89a11.35 11.35 0 1 1-11.35-11.35 11.35 11.35 0 0 1 11.35 11.35z" class="D"/><path d="M108.71 322.89a8.63 8.63 0 1 1-8.63-8.62 8.63 8.63 0 0 1 8.63 8.62z" class="E"/><path d="M107.29 322.39a7.47 7.47 0 0 0-2.81-5.29 7.66 7.66 0 0 0-5.81-1.52 7.27 7.27 0 0 0-5 3.24 7.59 7.59 0 0 0-.91 6.22 7.11 7.11 0 0 0 3.37 4.27 7.47 7.47 0 0 0 5.28.81 7.75 7.75 0 0 0 4.43-2.71 8.23 8.23 0 0 0 1.82-4.81c0-.08 0-.15-.07-.15s-.08.06-.08.15a8.15 8.15 0 0 1-.4 2.08 8 8 0 0 1-2.37 3.42 9 9 0 0 1-1.79 1.16 7.2 7.2 0 0 1-5.89.14 7.07 7.07 0 0 1-4-4.38 7.3 7.3 0 0 1 .76-6 7 7 0 0 1 4.86-3.2 7.49 7.49 0 0 1 7.14 2.85 7.76 7.76 0 0 1 1 1.79 9.15 9.15 0 0 1 .45 2 .06.06 0 0 0 .02-.07zm-1.01.01a6.47 6.47 0 0 0-2.44-4.52 6.63 6.63 0 0 0-5-1.31 6.24 6.24 0 0 0-4.31 2.75 6.58 6.58 0 0 0-.84 5.39 6.17 6.17 0 0 0 2.92 3.73 6.6 6.6 0 0 0 4.61.69 6.72 6.72 0 0 0 3.83-2.38 7.2 7.2 0 0 0 1.58-4.17c0-.07 0-.13-.07-.13s-.08.05-.08.13a6.89 6.89 0 0 1-3.94 5.75 6.19 6.19 0 0 1-5.09.15 6.11 6.11 0 0 1-3.45-3.81 6.31 6.31 0 0 1 .69-5.2 6 6 0 0 1 4.19-2.7 6.49 6.49 0 0 1 6.09 2.42 6.91 6.91 0 0 1 .84 1.53 8.05 8.05 0 0 1 .41 1.71zm-1.01.01a5.4 5.4 0 0 0-2.07-3.74 5.57 5.57 0 0 0-4.11-1.11 5.23 5.23 0 0 0-3.64 2.25 5.58 5.58 0 0 0-.77 4.56 5.14 5.14 0 0 0 2.48 3.19 5.48 5.48 0 0 0 3.93.57 5.71 5.71 0 0 0 3.24-2 6.21 6.21 0 0 0 1.33-3.53c0-.06 0-.11-.07-.11s-.08 0-.08.11a5.9 5.9 0 0 1-3.32 4.84 5.2 5.2 0 0 1-4.3.15 5.07 5.07 0 0 1-2.89-3.26 5.27 5.27 0 0 1 .63-4.37 5 5 0 0 1 3.51-2.2 6 6 0 0 1 2.78.33 5.19 5.19 0 0 1 2.26 1.66 5.59 5.59 0 0 1 .71 1.26 6.74 6.74 0 0 1 .37 1.42s.02 0 .01-.02zm-1.01.01a4.4 4.4 0 0 0-1.7-3 4.64 4.64 0 0 0-3.26-.91 4.24 4.24 0 0 0-3 1.77 4.57 4.57 0 0 0-.7 3.73 4.19 4.19 0 0 0 2 2.65 4.47 4.47 0 0 0 3.25.44 4.68 4.68 0 0 0 2.65-1.71 5.17 5.17 0 0 0 1.08-2.88c0-.05 0-.09-.07-.09a.09.09 0 0 0-.08.09 4.86 4.86 0 0 1-2.7 3.92 4.16 4.16 0 0 1-3.5.17 4.09 4.09 0 0 1-2.3-2.6 4.26 4.26 0 0 1 .56-3.54 3.94 3.94 0 0 1 2.84-1.69 5.15 5.15 0 0 1 2.19.28 4.13 4.13 0 0 1 1.8 1.29 4.64 4.64 0 0 1 .59 1 6.83 6.83 0 0 1 .32 1.14h0s.04-.05.03-.06zm90.77 19.94h-12.18l1.52-11.35h9.15z" class="D"/><path d="M195.03 342.36h-12.18l1.52-11.35h9.15z" class="H"/><path d="M200.29 322.89a11.35 11.35 0 1 1-11.35-11.35 11.35 11.35 0 0 1 11.35 11.35z" class="D"/><path d="M197.57 322.89a8.63 8.63 0 1 1-8.63-8.62 8.63 8.63 0 0 1 8.63 8.62z" class="E"/><g class="D"><path d="M196.15 322.39a7.47 7.47 0 0 0-2.81-5.29 7.66 7.66 0 0 0-5.81-1.52 7.27 7.27 0 0 0-5 3.24 7.59 7.59 0 0 0-.91 6.22 7.11 7.11 0 0 0 3.37 4.27 7.47 7.47 0 0 0 5.28.81 7.75 7.75 0 0 0 4.43-2.71 8.16 8.16 0 0 0 1.82-4.81c0-.08 0-.15-.07-.15s-.08.06-.08.15a7.74 7.74 0 0 1-.4 2.08 8 8 0 0 1-2.37 3.42 9 9 0 0 1-1.79 1.16 7.2 7.2 0 0 1-5.89.14 7.07 7.07 0 0 1-4-4.38 7.3 7.3 0 0 1 .76-6 7 7 0 0 1 4.86-3.2 7.49 7.49 0 0 1 7.14 2.85 7.76 7.76 0 0 1 1 1.79 9.15 9.15 0 0 1 .45 2 .11.11 0 0 0 .02-.07zm-1.01.01a6.47 6.47 0 0 0-2.44-4.52 6.63 6.63 0 0 0-5-1.31 6.24 6.24 0 0 0-4.31 2.75 6.58 6.58 0 0 0-.84 5.39 6.17 6.17 0 0 0 2.92 3.73 6.6 6.6 0 0 0 4.61.69 6.72 6.72 0 0 0 3.83-2.38 7.2 7.2 0 0 0 1.58-4.17c0-.07 0-.13-.07-.13s-.08.05-.08.13a6.89 6.89 0 0 1-3.94 5.75 6.19 6.19 0 0 1-5.09.15 6.11 6.11 0 0 1-3.46-3.81 6.31 6.31 0 0 1 .69-5.2 6 6 0 0 1 4.19-2.7 6.49 6.49 0 0 1 6.09 2.42 6.91 6.91 0 0 1 .84 1.53 8.05 8.05 0 0 1 .41 1.71s.08-.01.07-.03z"/><path d="M194.13 322.41a5.4 5.4 0 0 0-2.07-3.74 5.57 5.57 0 0 0-4.11-1.11 5.23 5.23 0 0 0-3.64 2.25 5.58 5.58 0 0 0-.77 4.56 5.14 5.14 0 0 0 2.48 3.19 5.48 5.48 0 0 0 3.93.57 5.71 5.71 0 0 0 3.24-2 6.14 6.14 0 0 0 1.33-3.53c0-.06 0-.11-.07-.11s-.08 0-.08.11a5.9 5.9 0 0 1-3.32 4.84 5.2 5.2 0 0 1-4.3.15 5.07 5.07 0 0 1-2.91-3.22 5.27 5.27 0 0 1 .63-4.37 5 5 0 0 1 3.51-2.2 6 6 0 0 1 2.78.33 5.06 5.06 0 0 1 3 2.92 6.74 6.74 0 0 1 .37 1.42s.01-.04 0-.06zm-1.01.01a4.4 4.4 0 0 0-1.7-3 4.63 4.63 0 0 0-3.26-.91 4.24 4.24 0 0 0-3 1.77 4.6 4.6 0 0 0-.7 3.73 4.19 4.19 0 0 0 2 2.65 4.47 4.47 0 0 0 3.25.44 4.68 4.68 0 0 0 2.65-1.71 5.17 5.17 0 0 0 1.08-2.88c0-.05 0-.09-.07-.09a.09.09 0 0 0-.08.09 4.86 4.86 0 0 1-2.7 3.92 4.16 4.16 0 0 1-3.5.17 4.09 4.09 0 0 1-2.37-2.65 4.26 4.26 0 0 1 .56-3.54 3.94 3.94 0 0 1 2.84-1.69 5.15 5.15 0 0 1 2.19.28 4.13 4.13 0 0 1 1.8 1.29 4.64 4.64 0 0 1 .59 1 6.83 6.83 0 0 1 .32 1.14h0s.11 0 .1-.01z"/></g><path d="M68.12 336.57h153.04v29.27H68.12z" class="E"/><path d="M221.42 366.09H67.87v-29.77h153.55zm-153-.5h152.5v-28.77H68.37z" class="B"/><path d="M99.58 336.57l-11.11 29.28H68.71l11.1-29.28zm40.51 0l-11.1 29.28h-19.78l11.11-29.28zm40.51 0l-11.11 29.28h-19.76l11.11-29.28zm40.52 0l-11.11 29.28h-19.77l11.1-29.28z" class="D"/><path d="M71.22 401.62h146.85v18.53H71.22z" class="E"/><path d="M218.32 420.4H71v-19h147.32zm-146.85-.5h146.35v-18H71.47z" class="B"/><path d="M101.4 401.62l-10.66 18.53H71.78l10.66-18.53zm38.88 0l-10.66 18.53h-18.97l10.66-18.53zm38.86 0l-10.65 18.53h-18.97l10.66-18.53zm38.88 0l-10.66 18.53h-18.97l10.66-18.53z" class="D"/><circle cx="144.64" cy="351.21" r="23.82" transform="rotate(283.42 144.634 351.206)" class="E"/><path d="M144.64 375.27a24.07 24.07 0 1 1 24.07-24.06 24.08 24.08 0 0 1-24.07 24.06zm0-47.63a23.57 23.57 0 1 0 23.57 23.57 23.59 23.59 0 0 0-23.57-23.57z" class="B"/><circle cx="144.64" cy="351.21" r="20.19" transform="rotate(283.4 144.644 351.204)" class="D"/><path d="M131.98 348.86h25.32v4.69h-25.32z" class="E"/></g><path d="M671.904 650.27l8.062-57.704 2.342 1.094 3.728 1.757 16.187 7.623 14.483 6.795 9.559 4.491 14.514 6.828 7.966 3.729c2.818 1.593 4.385 4.842 3.926 8.144s-2.845 5.957-5.981 6.655l-3.362.481h0l-5.29.746-15.757 2.221-10.388 1.475-15.773 2.237-6.596.945z" class="D"/><path d="M682.706 594.174c-.797 2.169-1.789 4.256-2.963 6.231-4.923 7.988-8.476 24.328-5.799 43.087.154 2.028.555 4.027 1.195 5.949l3.378-.232s15.725-35.895 67.139-25.919l-4.78-2.287-14.499-6.795-9.559-4.491-14.499-6.828z" style="mix-blend-mode:multiply" class="H"/><path d="M722.266 643.127l4.015-28.802 14.514 6.828-2.772 19.754zm-26.161 3.712l6.118-43.816 14.514 6.828-4.859 34.752z" class="F"/><g class="D"><path d="M530.296 648.845h-54.011l.669-2.486 1.099-3.944 4.78-17.102 4.238-15.329 2.788-10.092 4.238-15.329 2.326-8.402c1.06-3.021 3.823-5.031 6.915-5.031s5.855 2.01 6.915 5.031l.908 3.314h0l1.418 5.121 4.238 15.329 2.788 10.092 4.238 15.329 1.769 6.413z"/><path d="M472.62 634.261H543.6l-11.312 29.15h-70.979z"/></g><path d="M516.833 599.891h-26.958l4.238-15.313h18.482zm7.026 25.421h-41.01l4.238-15.329h32.534z" class="F"/><path d="M475.584 644.934c4.372 2.041 8.977 3.495 13.702 4.325a71.17 71.17 0 0 0 14.164 1.127c2.374-.166 4.78-.182 7.106-.563 1.179-.166 2.374-.249 3.537-.464l3.521-.663 1.769-.348 1.737-.447 3.489-.878c2.31-.646 4.589-1.458 6.947-2.088-2.183 1.077-4.381 2.154-6.628 3.082l-3.457 1.226-1.721.597c-.59.182-1.179.315-1.769.481l-3.569.878c-1.179.282-2.406.414-3.601.63a67.47 67.47 0 0 1-7.313.696 55.87 55.87 0 0 1-14.546-1.657c-4.769-1.106-9.3-3.117-13.367-5.933z" class="B"/><path d="M477.448 645.895a33.73 33.73 0 0 1 6.118 2.072c7.966 3.778 23.469 4.972 40.373-.232a21.76 21.76 0 0 0 5.274-2.005l-.685-3.314s-35.051-10.606-33.044-62.974l-1.418 5.121-4.238 15.329-2.788 10.092-4.238 15.329z" style="mix-blend-mode:multiply" class="H"/><path d="M657.214 650.17l10.595-75.867 27.117 16.456-10.611 75.85z" class="D"/><path d="M684.219 622.147c-1.514 14.02-6.373 24.957-10.898 24.427s-6.931-12.313-5.417-26.333 6.373-24.941 10.914-24.411 6.915 12.313 5.401 26.316z" class="B"/><defs ><path id="B" d="M830.878 345.378c.006 5.947-3.433 11.312-8.713 13.592s-11.361 1.027-15.406-3.176-5.257-10.526-3.071-16.021 7.341-9.078 13.058-9.078c7.799 0 14.123 6.571 14.132 14.683z"/><path id="C" d="M250.474 147.441c0 1.83-1.427 3.314-3.186 3.314s-3.186-1.484-3.186-3.314 1.427-3.314 3.186-3.314 3.186 1.484 3.186 3.314z"/><path id="D" d="M266.566 321.183h212.188v6.413H266.566z"/><path id="E" d="M443.273 209.338h150.641v6.413H443.273z"/><path id="F" d="M120.074 138.052l21.364-22.655 2.204 2.079-21.364 22.655z"/><path id="G" d="M121.18 138.53h21.88v3.03h-21.88z"/><path id="H" d="M120.075 117.467l2.205-2.078 21.36 22.659-2.205 2.078z"/><path id="I" d="M307.361 95.924l2.078-2.205 22.659 21.36-2.078 2.205z"/><path id="J" d="M330.48 94.28h3.03v21.88h-3.03z"/><path id="K" d="M283.726 115.034l22.655-21.364 2.079 2.204-22.655 21.364z"/></defs></svg>