<?xml version="1.0" encoding="UTF-8" standalone="no"?>
<svg
   width="1015.041"
   height="680.315"
   version="1.1"
   id="svg1548"
   sodipodi:docname="website-maintenance-services-meta.svg"
   inkscape:version="1.2.2 (732a01da63, 2022-12-09)"
   xmlns:inkscape="http://www.inkscape.org/namespaces/inkscape"
   xmlns:sodipodi="http://sodipodi.sourceforge.net/DTD/sodipodi-0.dtd"
   xmlns:xlink="http://www.w3.org/1999/xlink"
   xmlns="http://www.w3.org/2000/svg"
   xmlns:svg="http://www.w3.org/2000/svg">
  <sodipodi:namedview
     id="namedview1550"
     pagecolor="#ffffff"
     bordercolor="#000000"
     borderopacity="0.25"
     inkscape:showpageshadow="2"
     inkscape:pageopacity="0.0"
     inkscape:pagecheckerboard="0"
     inkscape:deskcolor="#d1d1d1"
     showgrid="false"
     inkscape:zoom="0.50853901"
     inkscape:cx="424.74617"
     inkscape:cy="342.15664"
     inkscape:window-width="1366"
     inkscape:window-height="697"
     inkscape:window-x="-8"
     inkscape:window-y="-8"
     inkscape:window-maximized="1"
     inkscape:current-layer="svg1548"
     showguides="true" />
  <style
     id="style1040"><![CDATA[.B{fill:#263238}.C{fill:#455a64}.D{fill:#407bff}.E{fill:#fff}.F{fill:#ebebeb}.G{fill:#dbdbdb}.H{opacity:.1}.I{fill:#c7c7c7}]]></style>
  <path
     d="m 906.498,280.798 9.384,-15.727 -4.684,-2.983 c -1.349,-0.889 -2.106,-2.489 -1.96,-4.143 a 22.83,22.83 0 0 0 0.08,-2.768 c -0.036,-1.657 0.818,-3.197 2.215,-3.994 l 4.78,-2.668 -8.301,-16.323 -4.78,2.734 a 4.1,4.1 0 0 1 -4.413,-0.298 c -0.733,-0.53 -1.498,-1.011 -2.262,-1.458 -1.414,-0.781 -2.278,-2.33 -2.231,-3.994 l 0.175,-5.668 -17.797,-0.563 -0.159,5.684 c -0.072,1.66 -1.032,3.139 -2.485,3.828 l -1.163,0.613 -1.147,0.679 a 4.13,4.13 0 0 1 -4.413,0 l -4.668,-3.016 -9.432,15.793 4.636,3 c 1.352,0.886 2.11,2.488 1.96,4.143 a 26.59,26.59 0 0 0 -0.096,2.751 c 0.046,1.655 -0.803,3.198 -2.199,3.994 l -4.78,2.685 8.412,16.307 4.78,-2.668 a 4.07,4.07 0 0 1 4.413,0.282 25.35,25.35 0 0 0 2.262,1.458 c 1.408,0.787 2.271,2.332 2.231,3.994 l -0.175,5.668 17.781,0.58 0.175,-5.684 c 0.071,-1.652 1.024,-3.123 2.47,-3.812 l 1.179,-0.63 1.147,-0.663 c 1.364,-0.869 3.081,-0.869 4.445,0 z m -15.056,-11.683 c -7.092,3.94 -15.911,1.156 -19.702,-6.219 -3.791,-7.375 -1.119,-16.549 5.969,-20.496 7.088,-3.947 15.91,-1.172 19.708,6.198 1.826,3.544 2.223,7.698 1.102,11.547 -1.121,3.849 -3.667,7.075 -7.077,8.97 z m -778.576,204.315 -6.261,-11.252 -3.298,1.989 a 2.85,2.85 0 0 1 -3.186,-0.116 c -0.513,-0.352 -1.045,-0.673 -1.593,-0.961 -0.985,-0.534 -1.6,-1.596 -1.593,-2.751 v -3.961 H 84.458 v 3.961 c 0.006,1.155 -0.609,2.217 -1.593,2.751 -0.548,0.289 -1.08,0.61 -1.593,0.961 a 2.85,2.85 0 0 1 -3.186,0.116 l -3.298,-1.989 -6.23,11.236 3.314,1.989 c 0.963,0.588 1.525,1.691 1.45,2.85 v 0.961 0.945 c 0.079,1.16 -0.484,2.266 -1.45,2.85 l -3.314,2.005 6.23,11.236 3.314,-1.989 a 2.85,2.85 0 0 1 3.186,0.116 c 0.51,0.348 1.052,0.663 1.593,0.961 0.982,0.528 1.597,1.584 1.593,2.734 v 3.977 h 12.459 v -3.977 c -0.004,-1.15 0.611,-2.206 1.593,-2.734 l 1.593,-0.961 a 2.85,2.85 0 0 1 3.107,-0.116 l 3.314,1.989 6.23,-11.236 -3.314,-1.989 c -0.955,-0.595 -1.508,-1.696 -1.434,-2.85 v -0.961 -0.961 c -0.075,-1.159 0.486,-2.263 1.45,-2.85 z m -11.917,5.8 c 0,4.298 -2.49,8.172 -6.308,9.816 -3.818,1.644 -8.212,0.731 -11.132,-2.31 -2.92,-3.041 -3.789,-7.613 -2.204,-11.582 1.585,-3.969 5.315,-6.553 9.447,-6.546 2.703,0.004 5.293,1.127 7.2,3.119 1.907,1.992 2.973,4.692 2.965,7.503 z M 62.168,308.207 c -26.811,0 -48.546,22.607 -48.546,50.495 0,27.888 21.735,50.495 48.546,50.495 26.811,0 48.546,-22.607 48.546,-50.495 0.004,-13.393 -5.109,-26.24 -14.214,-35.71 -9.105,-9.47 -21.455,-14.789 -34.332,-14.785 z m 0,74.06 c -9.171,0 -17.439,-5.747 -20.948,-14.561 -3.509,-8.814 -1.566,-18.958 4.922,-25.701 6.488,-6.743 16.242,-8.757 24.713,-5.101 8.471,3.656 13.991,12.259 13.985,21.799 0,6.253 -2.389,12.249 -6.641,16.669 -4.252,4.42 -10.019,6.901 -16.03,6.896 z"
     id="path1042"
     style="fill:#ebebeb" />
  <path
     d="M 71.505,310.295 H 52.832 l 1.036,-13.738 H 70.47 Z M 35.96,316.841 22.768,330.563 14.149,320.089 25.891,307.875 Z M 15.295,347.598 V 367.02 L 2.071,365.943 v -17.268 z m 6.278,36.956 13.208,13.738 -10.069,8.965 -11.742,-12.214 z m 29.586,21.51 h 18.657 l -1.02,13.755 H 52.195 Z m 35.53,-6.546 13.208,-13.722 8.604,10.474 -11.742,12.214 z m 20.68,-30.757 v -19.422 l 13.208,1.077 V 367.7 Z m -6.293,-36.956 -13.192,-13.738 10.069,-8.949 11.742,12.197 z m 854.41,-272.61 c -26.82,0 -48.562,22.615 -48.562,50.512 0,27.897 21.742,50.512 48.562,50.512 26.82,0 48.562,-22.615 48.562,-50.512 0,-13.398 -5.111,-26.248 -14.219,-35.722 -9.108,-9.474 -21.463,-14.794 -34.343,-14.79 z m 0,74.077 c -12.521,-0.009 -22.665,-10.575 -22.656,-23.599 0.009,-13.024 10.166,-23.575 22.688,-23.565 12.522,0.01 22.665,10.575 22.656,23.599 0,6.256 -2.391,12.255 -6.647,16.675 -4.256,4.42 -10.027,6.899 -16.041,6.89 z"
     id="path1044"
     style="fill:#ebebeb" />
  <path
     d="m 964.822,61.3 h -18.673 l 1.036,-13.755 h 16.618 z m -35.529,6.546 -13.208,13.722 -8.604,-10.474 11.742,-12.214 z m -20.681,30.758 v 19.422 l -13.208,-1.077 V 99.681 Z m 6.294,36.955 13.192,13.738 -10.069,8.949 -11.742,-12.197 z m 29.57,21.511 h 18.673 l -1.036,13.755 h -16.602 z m 35.53,-6.546 13.208,-13.722 8.619,10.474 -11.742,12.214 z m 20.68,-30.758 v -19.422 l 13.224,1.077 v 17.268 z m -6.277,-36.956 -13.208,-13.738 10.069,-8.965 11.742,12.214 z m -210.548,442.175 15.375,-98.09 1.689,-10.755 1.561,-10.01 h 25.157 l -1.577,10.01 -1.673,10.755 -15.391,98.09 z"
     id="path1046"
     style="fill:#ebebeb" />
  <path
     d="m 823.995,406.131 -4.19,29.83 -4.429,29.73 -4.668,29.631 -2.39,14.915 -2.485,14.815 2.039,-14.915 2.151,-14.915 4.429,-29.73 4.652,-29.697 z"
     id="path1050"
     style="fill:#c7c7c7" />
  <path
     d="m 826.066,416.14 -1.673,10.755 h -25.157 l 1.689,-10.755 z"
     id="path1052"
     style="fill:#c7c7c7" />
  <path
     d="M995.588 524.985l-15.375-98.09-1.689-10.755-1.561-10.01h-25.157l1.561 10.01 1.689 10.755 15.375 98.09z"
     class="F"
     id="path1056" />
  <path
     d="m 955.533,406.131 4.19,29.83 4.429,29.73 4.652,29.631 2.39,14.832 2.501,14.815 -2.039,-14.915 -2.151,-14.915 -4.429,-29.647 -4.604,-29.714 z"
     id="path1058"
     style="fill:#c7c7c7" />
  <path
     d="m 953.367,416.14 h 25.157 l 1.689,10.755 H 955.056 Z M 826.719,378.538 h -19.947 l 2.485,-19.34 h 14.992 z"
     id="path1060"
     style="fill:#c7c7c7" />
  <path
     d="M835.339 345.378c.006 7.824-4.52 14.881-11.467 17.879s-14.947 1.348-20.268-4.182-6.915-13.849-4.038-21.078 9.658-11.942 17.179-11.942c4.93-.004 9.659 2.029 13.146 5.654s5.447 8.542 5.447 13.669z"
     class="G"
     id="path1064" />
  <use
     xlink:href="#B"
     class="E"
     id="use1066" />
  <path
     d="M828.568 344.516c-.26-3.545-1.936-6.814-4.62-9.015-2.708-2.195-6.167-3.13-9.559-2.585-3.356.544-6.329 2.552-8.173 5.518-1.942 3.147-2.487 7.011-1.498 10.606.857 3.08 2.842 5.686 5.529 7.259 2.619 1.545 5.692 2.035 8.635 1.375 2.858-.625 5.422-2.251 7.265-4.607a14.25 14.25 0 0 0 2.979-8.187c0-.149 0-.265-.112-.265s-.127.099-.127.249a13.4 13.4 0 0 1-.669 3.546c-.395 1.129-.931 2.198-1.593 3.182a14.22 14.22 0 0 1-2.31 2.652 15.1 15.1 0 0 1-2.932 1.972c-3.013 1.474-6.484 1.558-9.559.232-3.126-1.37-5.519-4.095-6.548-7.457-1.047-3.455-.594-7.213 1.243-10.291 1.765-2.935 4.675-4.921 7.966-5.436 5.694-1.079 11.304 2.277 13.272 7.938a15.32 15.32 0 0 1 .749 3.414l.064-.099zm-1.657 0c-.258-3.035-1.711-5.824-4.015-7.706-2.306-1.845-5.227-2.651-8.11-2.237-2.891.447-5.463 2.153-7.074 4.69a11.67 11.67 0 0 0-1.37 9.181c.71 2.697 2.433 4.984 4.78 6.347 2.285 1.349 4.971 1.769 7.536 1.177 2.473-.567 4.687-1.993 6.277-4.044 1.572-2.021 2.482-4.512 2.597-7.109 0-.116 0-.215-.127-.215s-.127.083-.127.215c-.271 4.221-2.706 7.963-6.373 9.794a9.81 9.81 0 0 1-8.349.249c-2.714-1.179-4.781-3.554-5.64-6.48-.891-2.985-.478-6.226 1.131-8.866 1.53-2.497 4.033-4.174 6.851-4.59 4.844-.879 9.605 1.945 11.344 6.728a13.57 13.57 0 0 1 .669 2.917.12.12 0 0 0 0-.05zm-1.657 0c-.251-2.518-1.476-4.822-3.394-6.38-1.92-1.527-4.342-2.206-6.739-1.889-2.423.337-4.592 1.737-5.959 3.845-1.478 2.274-1.937 5.103-1.259 7.756.585 2.312 2.053 4.276 4.063 5.436a8.73 8.73 0 0 0 6.373.978c2.097-.499 3.969-1.727 5.306-3.48a10.85 10.85 0 0 0 2.183-6.016c0-.099 0-.182-.112-.182s-.127 0-.143.182c-.241 3.579-2.317 6.746-5.433 8.286-2.2 1.145-4.769 1.242-7.042.265-2.302-.993-4.055-3.006-4.78-5.485-.72-2.522-.348-5.245 1.02-7.457 1.302-2.057 3.403-3.419 5.752-3.729a9.37 9.37 0 0 1 4.557.563c1.499.556 2.818 1.538 3.808 2.834.471.66.862 1.378 1.163 2.138a11.88 11.88 0 0 1 .59 2.42h0a.1.1 0 0 0 .048-.083zm-1.657 0c-.249-2.002-1.252-3.82-2.788-5.054-1.53-1.192-3.435-1.743-5.337-1.541-1.962.242-3.734 1.338-4.875 3.016a8.08 8.08 0 0 0-1.131 6.347c.455 1.925 1.662 3.565 3.33 4.524 1.625.939 3.531 1.206 5.337.746 1.717-.431 3.245-1.453 4.334-2.9 1.064-1.43 1.681-3.165 1.769-4.972.005-.035-.005-.071-.026-.099s-.052-.046-.086-.05c-.076.008-.136.07-.143.149-.269 2.855-1.938 5.363-4.413 6.629a6.63 6.63 0 0 1-5.736.282c-1.887-.805-3.315-2.467-3.872-4.508-.56-2.047-.228-4.246.908-6.016 1.067-1.629 2.768-2.689 4.652-2.9a8.11 8.11 0 0 1 3.585.481 6.96 6.96 0 0 1 2.963 2.188 8.25 8.25 0 0 1 .94 1.657c.244.618.42 1.263.526 1.922h0s.08.182.064.099z"
     class="F"
     id="path1068" />
  <path
     d="M972.231 378.538h-19.947l2.485-19.34h14.992z"
     class="I"
     id="path1070" />
  <path
     d="M980.85 345.378c.006 7.824-4.52 14.881-11.467 17.879s-14.947 1.348-20.268-4.182-6.915-13.849-4.038-21.078 9.658-11.942 17.179-11.942c10.263 0 18.584 8.649 18.593 19.323z"
     class="G"
     id="path1072" />
  <use
     xlink:href="#B"
     x="145.527"
     class="E"
     id="use1074" />
  <path
     d="M974.063 344.516c-.247-3.545-1.918-6.818-4.604-9.015-2.708-2.195-6.167-3.13-9.559-2.585-3.356.544-6.329 2.552-8.173 5.518-1.942 3.147-2.487 7.011-1.498 10.606.857 3.08 2.842 5.686 5.529 7.259 2.619 1.545 5.692 2.035 8.635 1.375 2.858-.625 5.422-2.251 7.265-4.607a14.25 14.25 0 0 0 2.979-8.187c0-.149 0-.265-.112-.265s-.127.099-.127.249a13.4 13.4 0 0 1-.669 3.546c-.402 1.126-.937 2.194-1.593 3.182-.662.979-1.438 1.87-2.31 2.652a15.1 15.1 0 0 1-2.932 1.972c-3.035 1.499-6.54 1.583-9.639.232-3.126-1.37-5.519-4.095-6.548-7.457-1.047-3.455-.594-7.213 1.243-10.291 1.761-2.939 4.673-4.925 7.966-5.436 5.705-1.096 11.334 2.262 13.304 7.938a15.32 15.32 0 0 1 .749 3.414c.053 0 .096-.045.096-.099zm-1.641 0c-.258-3.035-1.711-5.824-4.015-7.706-2.306-1.845-5.227-2.651-8.11-2.237-2.891.447-5.463 2.153-7.074 4.69a11.67 11.67 0 0 0-1.37 9.181c.71 2.697 2.433 4.984 4.78 6.347 2.285 1.349 4.971 1.769 7.536 1.177 2.473-.567 4.687-1.993 6.277-4.044 1.574-2.019 2.479-4.512 2.581-7.109 0-.116 0-.215-.112-.215s-.127.083-.127.215c-.271 4.221-2.706 7.963-6.373 9.794a9.81 9.81 0 0 1-8.349.249c-2.714-1.179-4.781-3.554-5.64-6.48a11.08 11.08 0 0 1 1.115-8.866c1.536-2.491 4.036-4.165 6.851-4.59 4.849-.888 9.62 1.937 11.36 6.728a13.57 13.57 0 0 1 .669 2.917.12.12 0 0 0 0-.05zm-1.657 0c-.251-2.518-1.476-4.822-3.394-6.38-1.918-1.533-4.339-2.217-6.739-1.906-2.423.337-4.592 1.737-5.959 3.845-1.478 2.274-1.937 5.103-1.259 7.756.585 2.312 2.053 4.276 4.063 5.436a8.73 8.73 0 0 0 6.373.978c2.097-.499 3.969-1.727 5.306-3.48a10.85 10.85 0 0 0 2.183-6.016c0-.099 0-.182-.112-.182s-.127 0-.143.182c-.26 3.572-2.331 6.73-5.433 8.286-2.2 1.145-4.769 1.242-7.042.265-2.304-.989-4.059-3.003-4.78-5.485-.72-2.522-.348-5.245 1.02-7.457 1.302-2.057 3.403-3.419 5.752-3.729a9.37 9.37 0 0 1 4.557.563 8.63 8.63 0 0 1 3.712 2.834c.471.66.862 1.378 1.163 2.138a11.88 11.88 0 0 1 .59 2.42h0c.027.017.06.019.088.006a.1.1 0 0 0 .055-.072zm-1.657 0c-.249-2.002-1.252-3.82-2.788-5.054-1.53-1.192-3.435-1.743-5.337-1.541-1.962.242-3.734 1.338-4.875 3.016a8.08 8.08 0 0 0-1.131 6.347c.455 1.925 1.662 3.565 3.33 4.524a7.11 7.11 0 0 0 5.337.746c1.717-.431 3.245-1.453 4.334-2.9 1.058-1.434 1.674-3.167 1.769-4.972.005-.035-.005-.071-.026-.099s-.052-.046-.086-.05c-.076.008-.136.07-.143.149-.269 2.855-1.938 5.363-4.413 6.629a6.63 6.63 0 0 1-5.736.282c-1.887-.805-3.315-2.467-3.872-4.508-.56-2.047-.228-4.246.908-6.016 1.067-1.629 2.768-2.689 4.652-2.9a8.11 8.11 0 0 1 3.585.481c1.154.44 2.172 1.195 2.948 2.188.386.507.707 1.064.956 1.657.244.618.42 1.263.526 1.922h0s.064.182.064.099z"
     class="F"
     id="path1076" />
  <path
     d="M764.424 368.678h250.618v49.865H764.424z"
     class="G"
     id="path1078" />
  <path
     d="M815.917 368.678l-18.179 49.865h-32.375l18.195-49.865zm66.343 0l-18.179 49.865h-32.375l18.179-49.865zm66.343 0l-18.195 49.865h-32.359l18.195-49.865zm66.342 0l-18.195 49.865h-32.375l18.195-49.865z"
     class="F"
     id="path1080" />
  <path
     d="M769.49 464.63h240.469v31.553H769.49z"
     class="G"
     id="path1082" />
  <path
     d="M818.913 464.63l-17.446 31.553h-31.052l17.446-31.553zm63.65 0l-17.446 31.553h-31.068l17.462-31.553zm63.65 0l-17.446 31.553h-31.052l17.446-31.553zm63.666 0l-17.462 31.553h-31.068l17.462-31.553z"
     class="F"
     id="path1084" />
  <path
     d="M.956 524.952l126.759-.398 126.759-.149 253.517-.265 253.517.265 126.759.149 126.759.398-126.759.414-126.759.149-253.517.265-253.517-.265-126.759-.149z"
     class="B"
     id="path1086" />
  <path
     d="M202.04 104.056h611.902v425.752H202.04z"
     class="G"
     id="path1088" />
  <path
     d="M206.485 109.259h603.012v415.361H206.485z"
     class="B"
     id="path1090" />
  <path
     d="M122.345 561.726h771.29v29.216h-771.29z"
     class="I"
     id="path1092" />
  <path
     d="M122.345 561.726l79.694-31.918h611.902l79.694 31.918z"
     class="G"
     id="path1094" />
  <path
     d="M209.161 550.407l51.43-20.599H755.39l51.43 20.599z"
     class="B"
     id="path1096" />
  <path
     d="M240.118 140.663h535.761V493.2H240.118z"
     class="E"
     id="path1098" />
  <path
     d="M240.118 140.663h535.761v13.572H240.118z"
     class="C"
     id="path1100" />
  <use
     xlink:href="#C"
     class="D"
     id="use1102"
     style="fill:#ff2a2a" />
  <use
     xlink:href="#C"
     x="13.208"
     class="F"
     id="use1104" />
  <use
     xlink:href="#C"
     x="26.496"
     class="E"
     id="use1106" />
  <path
     d="M593.93 384.189h-97.618v-77.905h97.618z"
     class="F"
     id="path1108" />
  <path
     d="M506.015 323.337c-.767 3.989 1.067 8.029 4.515 9.948s7.697 1.265 10.462-1.612 3.394-7.296 1.549-10.882-5.73-5.494-9.564-4.696c-3.514.731-6.26 3.587-6.962 7.242z"
     class="E"
     id="path1110" />
  <path
     d="M528.512 367.418h65.403l-32.709-41.927z"
     class="I"
     id="path1112" />
  <path
     d="m 496.296,367.452 h 58.01 l -28.997,-27.311 z"
     id="path1114"
     style="fill:#dbdbdb" />
  <path
     d="m 496.296,367.418 h 97.618 v 16.787 h -97.618 z m -229.73,-61.117 h 73.321 v 6.413 h -73.321 z"
     id="path1116"
     style="fill:#dbdbdb" />
  <use
     xlink:href="#D"
     id="use1118"
     style="fill:#dbdbdb" />
  <use
     xlink:href="#D"
     y="14.119"
     id="use1120"
     style="fill:#dbdbdb" />
  <use
     xlink:href="#D"
     y="28.238001"
     id="use1122"
     style="fill:#dbdbdb" />
  <use
     xlink:href="#D"
     y="42.358002"
     id="use1124"
     style="fill:#dbdbdb" />
  <use
     xlink:href="#D"
     y="56.459999"
     id="use1126"
     style="fill:#dbdbdb" />
  <path
     d="m 443.273,180.337 h 73.321 v 17.169 h -73.321 z"
     id="path1128"
     style="fill:#dbdbdb" />
  <use
     xlink:href="#E"
     id="use1130"
     style="fill:#dbdbdb" />
  <use
     xlink:href="#E"
     y="14.119"
     id="use1132"
     style="fill:#dbdbdb" />
  <use
     xlink:href="#E"
     y="28.239"
     id="use1134"
     style="fill:#dbdbdb" />
  <use
     xlink:href="#E"
     y="42.358002"
     id="use1136"
     style="fill:#dbdbdb" />
  <use
     xlink:href="#E"
     y="61.133999"
     id="use1138"
     style="fill:#dbdbdb" />
  <use
     xlink:href="#E"
     y="75.252998"
     id="use1140"
     style="fill:#dbdbdb" />
  <path
     d="M615.312 180.337h134.088v17.467H615.312z"
     class="D"
     id="path1144"
     style="fill:#ff0000" />
  <path
     d="M615.678 197.953h133.371v273.985H615.678z"
     class="E"
     id="path1146" />
  <path
     d="M 749.415,472.386 H 615.312 V 197.506 H 749.416 Z M 616.044,471.491 H 748.666 V 198.4 H 616.044 Z"
     id="path1148"
     style="fill:#dbdbdb" />
  <path
     d="m 616.029,472.104 -0.701,-0.331 133.371,-273.985 0.685,0.331 z"
     id="path1150"
     style="fill:#dbdbdb" />
  <path
     d="m 748.698,472.104 -133.37,-273.985 0.701,-0.331 133.355,273.985 z"
     id="path1152"
     style="fill:#dbdbdb" />
  <path
     d="M266.853 180.635h159.803V290.69H266.853z"
     class="E"
     id="path1156" />
  <path
     d="m 266.598,291.005 v -0.282 -110.337 h 0.271 160.057 v 110.618 h -0.191 z m 0.51,-110.071 V 290.442 H 426.433 V 180.95 Z"
     id="path1158"
     style="fill:#dbdbdb" />
  <path
     d="m 267.108,180.933 40.134,26.88 39.911,27.211 39.751,27.51 19.804,13.854 19.708,14.003 -20.123,-13.357 -20.011,-13.506 -39.927,-27.211 -39.736,-27.526 -39.513,-27.858 z"
     id="path1160"
     style="fill:#dbdbdb" />
  <path
     d="m 426.4,180.933 -39.513,27.858 -39.736,27.526 -39.911,27.211 -20.027,13.506 -20.107,13.357 19.708,-14.003 19.788,-13.854 39.736,-27.51 39.927,-27.211 40.134,-26.88 z"
     id="path1162"
     style="fill:#dbdbdb" />
  <path
     d="M267.108 472.17v-77.391h326.058v77.391z"
     class="E"
     id="path1166" />
  <path
     d="m 593.707,394.563 v 77.889 H 266.566 v -77.889 z m -1.083,77.391 V 394.993 H 267.602 v 76.961 z"
     id="path1168"
     style="fill:#dbdbdb" />
  <path
     d="m 593.373,471.971 -0.398,0.398 -326.074,-77.391 0.398,-0.398 z"
     id="path1170"
     style="fill:#dbdbdb" />
  <path
     d="m 593.373,394.978 -326.074,77.391 -0.398,-0.398 326.074,-77.391 z"
     id="path1172"
     style="fill:#dbdbdb" />
  <use
     xlink:href="#F"
     class="B"
     id="use1176"
     transform="matrix(1.593246,0,0,1.657203,-89.476706,-78.070833)" />
  <use
     xlink:href="#G"
     id="use1178"
     transform="matrix(1.593246,0,0,1.657203,-89.476706,-78.070833)"
     style="fill:#455a64" />
  <use
     xlink:href="#G"
     y="-23.610001"
     id="use1180"
     transform="matrix(1.593246,0,0,1.657203,-89.476706,-78.070833)"
     style="fill:#455a64" />
  <use
     xlink:href="#H"
     id="use1182"
     transform="matrix(1.593246,0,0,1.657203,-89.476706,-78.070833)"
     style="fill:#455a64" />
  <use
     xlink:href="#F"
     x="-0.003"
     y="23.608"
     class="B"
     id="use1186"
     transform="matrix(1.593246,0,0,1.657203,-89.476706,-78.070833)" />
  <use
     xlink:href="#G"
     y="23.610001"
     id="use1188"
     transform="matrix(1.593246,0,0,1.657203,-89.476706,-78.070833)"
     style="fill:#455a64" />
  <use
     xlink:href="#G"
     id="use1190"
     transform="matrix(1.593246,0,0,1.657203,-89.476706,-78.070833)"
     style="fill:#455a64" />
  <use
     xlink:href="#H"
     x="-0.0040000002"
     y="23.608999"
     id="use1192"
     transform="matrix(1.593246,0,0,1.657203,-89.476706,-78.070833)"
     style="fill:#455a64" />
  <use
     xlink:href="#F"
     x="-0.0049999999"
     y="47.216"
     class="B"
     id="use1196"
     transform="matrix(1.593246,0,0,1.657203,-89.476706,-78.070833)" />
  <use
     xlink:href="#G"
     y="47.220001"
     id="use1198"
     transform="matrix(1.593246,0,0,1.657203,-89.476706,-78.070833)"
     style="fill:#455a64" />
  <use
     xlink:href="#G"
     y="23.610001"
     id="use1200"
     transform="matrix(1.593246,0,0,1.657203,-89.476706,-78.070833)"
     style="fill:#455a64" />
  <use
     xlink:href="#H"
     x="0.001"
     y="47.219002"
     id="use1202"
     transform="matrix(1.593246,0,0,1.657203,-89.476706,-78.070833)"
     style="fill:#455a64" />
  <use
     xlink:href="#F"
     x="0.0020000001"
     y="70.823997"
     class="B"
     id="use1206"
     transform="matrix(1.593246,0,0,1.657203,-89.476706,-78.070833)" />
  <use
     xlink:href="#G"
     y="70.830002"
     id="use1208"
     transform="matrix(1.593246,0,0,1.657203,-89.476706,-78.070833)"
     style="fill:#455a64" />
  <use
     xlink:href="#G"
     y="47.220001"
     id="use1210"
     transform="matrix(1.593246,0,0,1.657203,-89.476706,-78.070833)"
     style="fill:#455a64" />
  <use
     xlink:href="#H"
     x="0.0060000001"
     y="70.829002"
     id="use1212"
     transform="matrix(1.593246,0,0,1.657203,-89.476706,-78.070833)"
     style="fill:#455a64" />
  <use
     xlink:href="#F"
     x="-0.001"
     y="94.442001"
     class="B"
     id="use1216"
     transform="matrix(1.593246,0,0,1.657203,-89.476706,-78.070833)" />
  <path
     d="m 103.59284,308.00775 h 34.86023 v 5.02132 h -34.86023 z"
     id="path1218"
     style="fill:#455a64;stroke-width:1.62491" />
  <use
     xlink:href="#G"
     y="70.830002"
     id="use1220"
     transform="matrix(1.593246,0,0,1.657203,-89.476706,-78.070833)"
     style="fill:#455a64" />
  <use
     xlink:href="#H"
     x="0.0040000002"
     y="94.431999"
     id="use1222"
     transform="matrix(1.593246,0,0,1.657203,-89.476706,-78.070833)"
     style="fill:#455a64" />
  <use
     xlink:href="#F"
     x="0.0060000001"
     y="118.051"
     class="B"
     id="use1226"
     transform="matrix(1.593246,0,0,1.657203,-89.476706,-78.070833)" />
  <use
     xlink:href="#G"
     y="118.04"
     id="use1228"
     transform="matrix(1.593246,0,0,1.657203,-89.476706,-78.070833)"
     style="fill:#455a64" />
  <path
     d="m 103.59284,308.00775 h 34.86023 v 5.02132 h -34.86023 z"
     id="path1230"
     style="fill:#455a64;stroke-width:1.62491" />
  <use
     xlink:href="#H"
     x="-0.001"
     y="118.042"
     id="use1232"
     transform="matrix(1.593246,0,0,1.657203,-89.476706,-78.070833)"
     style="fill:#455a64" />
  <use
     xlink:href="#F"
     x="-0.0040000002"
     y="141.65199"
     class="B"
     id="use1236"
     transform="matrix(1.593246,0,0,1.657203,-89.476706,-78.070833)" />
  <use
     xlink:href="#G"
     y="141.64999"
     id="use1238"
     transform="matrix(1.593246,0,0,1.657203,-89.476706,-78.070833)"
     style="fill:#455a64" />
  <use
     xlink:href="#G"
     y="118.04"
     id="use1240"
     transform="matrix(1.593246,0,0,1.657203,-89.476706,-78.070833)"
     style="fill:#455a64" />
  <use
     xlink:href="#H"
     x="0.0049999999"
     y="141.642"
     id="use1242"
     transform="matrix(1.593246,0,0,1.657203,-89.476706,-78.070833)"
     style="fill:#455a64" />
  <use
     xlink:href="#F"
     x="0.003"
     y="165.25"
     class="B"
     id="use1246"
     transform="matrix(1.593246,0,0,1.657203,-89.476706,-78.070833)" />
  <use
     xlink:href="#G"
     y="165.25999"
     id="use1248"
     transform="matrix(1.593246,0,0,1.657203,-89.476706,-78.070833)"
     style="fill:#455a64" />
  <use
     xlink:href="#G"
     y="141.64999"
     id="use1250"
     transform="matrix(1.593246,0,0,1.657203,-89.476706,-78.070833)"
     style="fill:#455a64" />
  <use
     xlink:href="#H"
     x="0.0099999998"
     y="165.25101"
     id="use1252"
     transform="matrix(1.593246,0,0,1.657203,-89.476706,-78.070833)"
     style="fill:#455a64" />
  <use
     xlink:href="#F"
     x="0.0099999998"
     y="188.84801"
     class="B"
     id="use1256"
     transform="matrix(1.593246,0,0,1.657203,-89.476706,-78.070833)" />
  <use
     xlink:href="#G"
     y="188.87"
     id="use1258"
     transform="matrix(1.593246,0,0,1.657203,-89.476706,-78.070833)"
     style="fill:#455a64" />
  <use
     xlink:href="#G"
     y="165.25999"
     id="use1260"
     transform="matrix(1.593246,0,0,1.657203,-89.476706,-78.070833)"
     style="fill:#455a64" />
  <use
     xlink:href="#H"
     x="0.0049999999"
     y="188.86099"
     id="use1262"
     transform="matrix(1.593246,0,0,1.657203,-89.476706,-78.070833)"
     style="fill:#455a64" />
  <path
     d="m 101.84346,502.83682 34.02536,-37.55719 3.51311,3.44367 -34.02536,37.55719 z"
     class="B"
     id="path1266"
     style="stroke-width:1.62491" />
  <use
     xlink:href="#G"
     y="212.48"
     id="use1268"
     transform="matrix(1.593246,0,0,1.657203,-89.476706,-78.070833)"
     style="fill:#455a64" />
  <use
     xlink:href="#G"
     y="188.87"
     id="use1270"
     transform="matrix(1.593246,0,0,1.657203,-89.476706,-78.070833)"
     style="fill:#455a64" />
  <use
     xlink:href="#H"
     x="0.0099999998"
     y="212.481"
     id="use1272"
     transform="matrix(1.593246,0,0,1.657203,-89.476706,-78.070833)"
     style="fill:#455a64" />
  <path
     d="m 101.83231,541.95013 34.02536,-37.5572 3.51311,3.44367 -34.02537,37.55719 z"
     class="B"
     id="path1276"
     style="stroke-width:1.62491" />
  <use
     xlink:href="#G"
     y="236.09"
     id="use1278"
     transform="matrix(1.593246,0,0,1.657203,-89.476706,-78.070833)"
     style="fill:#455a64" />
  <use
     xlink:href="#G"
     y="212.48"
     id="use1280"
     transform="matrix(1.593246,0,0,1.657203,-89.476706,-78.070833)"
     style="fill:#455a64" />
  <use
     xlink:href="#H"
     x="0.0080000004"
     y="236.07401"
     id="use1282"
     transform="matrix(1.593246,0,0,1.657203,-89.476706,-78.070833)"
     style="fill:#455a64" />
  <path
     d="m 145.43148,542.22025 v 22.78654 H 95.14864 v -22.78654 z"
     id="path1284"
     style="fill:#455a64;stroke-width:1.62491" />
  <path
     d="M 107.73528,114.42987 V 543.64544 H 95.132708 V 114.42987 Z m 37.6962,0 V 543.64544 H 132.82891 V 114.42987 Z M 21.923054,68.757353 120.13074,5.8333549 441.3132,68.094472 480.04501,107.76791 476.6514,111.36404 438.98706,72.751212 121.07075,11.136404 24.456315,73.049509 Z"
     id="path1286"
     style="fill:#455a64;stroke-width:1.62491" />
  <path
     d="M 159.40425,78.170266 120.68837,22.189948 83.629472,78.087406 75.663242,72.370055 120.51312,4.7230289 167.25895,72.287195 Z"
     id="path1290"
     style="fill:#263238;stroke-width:1.62491" />
  <use
     xlink:href="#I"
     id="use1292"
     transform="matrix(1.593246,0,0,1.657203,-89.476706,-78.070833)"
     style="fill:#263238" />
  <use
     xlink:href="#J"
     id="use1296"
     transform="matrix(1.593246,0,0,1.657203,-89.476706,-78.070833)"
     style="fill:#455a64" />
  <use
     xlink:href="#J"
     x="-23.610001"
     id="use1298"
     transform="matrix(1.593246,0,0,1.657203,-89.476706,-78.070833)"
     style="fill:#455a64" />
  <path
     d="m 400.2186,112.63512 36.10137,-35.397859 3.31076,3.654132 -36.10136,35.397857 z"
     id="path1300"
     style="fill:#455a64;stroke-width:1.62491" />
  <use
     xlink:href="#I"
     x="-23.615"
     class="B"
     id="use1304"
     transform="matrix(1.593246,0,0,1.657203,-89.476706,-78.070833)" />
  <use
     xlink:href="#J"
     x="-23.610001"
     id="use1306"
     transform="matrix(1.593246,0,0,1.657203,-89.476706,-78.070833)"
     style="fill:#455a64" />
  <use
     xlink:href="#J"
     x="-47.220001"
     id="use1308"
     transform="matrix(1.593246,0,0,1.657203,-89.476706,-78.070833)"
     style="fill:#455a64" />
  <use
     xlink:href="#K"
     id="use1310"
     transform="matrix(1.593246,0,0,1.657203,-89.476706,-78.070833)"
     style="fill:#455a64" />
  <use
     xlink:href="#I"
     x="-47.23"
     class="B"
     id="use1314"
     transform="matrix(1.593246,0,0,1.657203,-89.476706,-78.070833)" />
  <use
     xlink:href="#J"
     x="-47.220001"
     id="use1316"
     transform="matrix(1.593246,0,0,1.657203,-89.476706,-78.070833)"
     style="fill:#455a64" />
  <use
     xlink:href="#J"
     x="-70.830002"
     id="use1318"
     transform="matrix(1.593246,0,0,1.657203,-89.476706,-78.070833)"
     style="fill:#455a64" />
  <use
     xlink:href="#K"
     x="-23.607"
     y="-0.0020000001"
     id="use1320"
     transform="matrix(1.593246,0,0,1.657203,-89.476706,-78.070833)"
     style="fill:#455a64" />
  <use
     xlink:href="#I"
     x="-70.834999"
     class="B"
     id="use1324"
     transform="matrix(1.593246,0,0,1.657203,-89.476706,-78.070833)" />
  <use
     xlink:href="#J"
     x="-70.830002"
     id="use1326"
     transform="matrix(1.593246,0,0,1.657203,-89.476706,-78.070833)"
     style="fill:#455a64" />
  <use
     xlink:href="#J"
     x="-94.440002"
     id="use1328"
     transform="matrix(1.593246,0,0,1.657203,-89.476706,-78.070833)"
     style="fill:#455a64" />
  <use
     xlink:href="#K"
     x="-47.214001"
     y="0.0060000001"
     id="use1330"
     transform="matrix(1.593246,0,0,1.657203,-89.476706,-78.070833)"
     style="fill:#455a64" />
  <use
     xlink:href="#I"
     x="-94.444"
     y="-0.0080000004"
     class="B"
     id="use1334"
     transform="matrix(1.593246,0,0,1.657203,-89.476706,-78.070833)" />
  <use
     xlink:href="#J"
     x="-94.440002"
     id="use1336"
     transform="matrix(1.593246,0,0,1.657203,-89.476706,-78.070833)"
     style="fill:#455a64" />
  <use
     xlink:href="#J"
     x="-118.04"
     id="use1338"
     transform="matrix(1.593246,0,0,1.657203,-89.476706,-78.070833)"
     style="fill:#455a64" />
  <use
     xlink:href="#K"
     x="-70.820999"
     y="0.014"
     id="use1340"
     transform="matrix(1.593246,0,0,1.657203,-89.476706,-78.070833)"
     style="fill:#455a64" />
  <use
     xlink:href="#I"
     x="-118.049"
     y="-0.0080000004"
     class="B"
     id="use1344"
     transform="matrix(1.593246,0,0,1.657203,-89.476706,-78.070833)" />
  <use
     xlink:href="#J"
     x="-118.04"
     id="use1346"
     transform="matrix(1.593246,0,0,1.657203,-89.476706,-78.070833)"
     style="fill:#455a64" />
  <use
     xlink:href="#J"
     x="-141.64999"
     id="use1348"
     transform="matrix(1.593246,0,0,1.657203,-89.476706,-78.070833)"
     style="fill:#455a64" />
  <use
     xlink:href="#K"
     x="-94.428001"
     y="0.012"
     id="use1350"
     transform="matrix(1.593246,0,0,1.657203,-89.476706,-78.070833)"
     style="fill:#455a64" />
  <use
     xlink:href="#I"
     x="-141.664"
     y="-0.0080000004"
     class="B"
     id="use1354"
     transform="matrix(1.593246,0,0,1.657203,-89.476706,-78.070833)" />
  <use
     xlink:href="#J"
     x="-141.64999"
     id="use1356"
     transform="matrix(1.593246,0,0,1.657203,-89.476706,-78.070833)"
     style="fill:#455a64" />
  <use
     xlink:href="#J"
     x="-165.25999"
     id="use1358"
     transform="matrix(1.593246,0,0,1.657203,-89.476706,-78.070833)"
     style="fill:#455a64" />
  <use
     xlink:href="#K"
     x="-118.028"
     y="0.014"
     id="use1360"
     transform="matrix(1.593246,0,0,1.657203,-89.476706,-78.070833)"
     style="fill:#455a64" />
  <use
     xlink:href="#I"
     x="-165.269"
     y="-0.0080000004"
     class="B"
     id="use1364"
     transform="matrix(1.593246,0,0,1.657203,-89.476706,-78.070833)" />
  <use
     xlink:href="#J"
     x="-165.25999"
     id="use1366"
     transform="matrix(1.593246,0,0,1.657203,-89.476706,-78.070833)"
     style="fill:#455a64" />
  <use
     xlink:href="#J"
     x="-188.87"
     id="use1368"
     transform="matrix(1.593246,0,0,1.657203,-89.476706,-78.070833)"
     style="fill:#455a64" />
  <use
     xlink:href="#K"
     x="-141.63499"
     y="0.012"
     id="use1370"
     transform="matrix(1.593246,0,0,1.657203,-89.476706,-78.070833)"
     style="fill:#455a64" />
  <use
     xlink:href="#I"
     x="-188.884"
     y="-0.0080000004"
     class="B"
     id="use1374"
     transform="matrix(1.593246,0,0,1.657203,-89.476706,-78.070833)" />
  <use
     xlink:href="#J"
     x="-188.87"
     id="use1376"
     transform="matrix(1.593246,0,0,1.657203,-89.476706,-78.070833)"
     style="fill:#455a64" />
  <path
     d="m 98.526322,78.170266 h 4.827538 v 36.259604 h -4.827538 z"
     id="path1378"
     style="fill:#455a64;stroke-width:1.62491" />
  <path
     d="M 99.281521,112.58043 135.3781,77.175944 138.69046,80.828419 102.59547,116.2329 Z"
     id="path1380"
     style="fill:#455a64;stroke-width:1.62491" />
  <use
     xlink:href="#I"
     x="-212.49001"
     y="-0.0080000004"
     class="B"
     id="use1384"
     transform="matrix(1.593246,0,0,1.657203,-89.476706,-78.070833)" />
  <path
     d="m 98.526322,78.170266 h 4.827538 v 36.259604 h -4.827538 z"
     id="path1386"
     style="fill:#455a64;stroke-width:1.62491" />
  <use
     xlink:href="#J"
     x="-236.09"
     id="use1388"
     transform="matrix(1.593246,0,0,1.657203,-89.476706,-78.070833)"
     style="fill:#455a64" />
  <use
     xlink:href="#K"
     x="-188.85899"
     y="0.0080000004"
     id="use1390"
     transform="matrix(1.593246,0,0,1.657203,-89.476706,-78.070833)"
     style="fill:#455a64" />
  <path
     d="m 24.918357,81.166489 3.331477,-3.665733 36.217668,35.608324 -3.331477,3.66573 z"
     class="B"
     id="path1394"
     style="stroke-width:1.62491" />
  <use
     xlink:href="#J"
     x="-236.09"
     id="use1396"
     transform="matrix(1.593246,0,0,1.657203,-89.476706,-78.070833)"
     style="fill:#455a64" />
  <use
     xlink:href="#J"
     x="-259.70001"
     id="use1398"
     transform="matrix(1.593246,0,0,1.657203,-89.476706,-78.070833)"
     style="fill:#455a64" />
  <use
     xlink:href="#K"
     x="-212.466"
     y="0.016000001"
     id="use1400"
     transform="matrix(1.593246,0,0,1.657203,-89.476706,-78.070833)"
     style="fill:#455a64" />
  <path
     d="M -1.064e-5,68.674493 H 21.875257 V 120.97582 H -1.064e-5 Z"
     class="B"
     id="path1404"
     style="stroke-width:1.62491" />
  <path
     d="M 21.875257,68.674493 H 43.782389 V 120.97582 H 21.875257 Z"
     id="path1406"
     style="fill:#455a64;stroke-width:1.62491" />
  <path
     d="m 30.70184,120.97582 h 41.997964 v 26.08437 H 30.70184 Z"
     id="path1408"
     style="fill:#455a64;stroke-width:1.62491" />
  <path
     d="M 21.875257,107.86734 H 480.04501 v 13.10848 H 21.875257 Z M 453.89984,81.782968 H 21.875257 V 68.674493 H 441.58405 Z"
     id="path1410"
     style="fill:#455a64;stroke-width:1.62491" />
  <use
     xlink:href="#J"
     x="5.1700001"
     id="use1412"
     transform="matrix(1.593246,0,0,1.657203,-89.476706,-78.070833)"
     style="fill:#455a64" />
  <path
     d="m 395.04534,245.74663 -60.67081,9.09805 -30.33541,4.42473 -30.3832,4.25901 30.27168,-5.0379 30.27167,-4.87217 60.60708,-9.49578 0.15932,-0.0166 0.15933,0.0332 100.85247,27.21127 50.4103,13.73821 50.34658,13.92051 -50.5537,-13.10848 -50.5059,-13.30734 -100.94806,-26.86326 z M 371.57682,126.32859 h 4.82754 v 74.24269 h -4.82754 z m 40.89863,1.6572 h 4.82753 v 74.24269 h -4.82753 z"
     class="B"
     id="path1416"
     style="stroke-width:1.62491" />
  <path
     d="m 362.90956,120.97582 h 63.74578 v 10.68896 h -63.74578 z"
     class="C"
     id="path1418"
     style="stroke-width:1.62491" />
  <path
     d="m 397.19622,213.05002 -0.54171,11.15297 -1.59324,-1.92235 a 17.175192,17.864648 0 0 1 4.87533,2.18751 11.487304,11.948434 0 0 1 3.82379,3.911 9.559476,9.943218 0 0 1 -0.25492,10.60609 9.941855,10.340947 0 0 1 -8.61946,4.64017 10.483559,10.904396 0 0 1 -7.96623,-4.97161 10.005585,10.407235 0 0 0 7.96623,3.97729 8.5875959,8.9323242 0 0 0 7.02622,-4.67331 7.2492693,7.5402736 0 0 0 -0.47798,-7.97115 11.152722,11.600421 0 0 0 -7.02621,-3.86128 l -1.46579,-0.26515 -0.0797,-1.65721 -0.52577,-11.15297 z"
     class="B"
     id="path1420"
     style="stroke-width:1.62491" />
  <path
     d="m 394.77448,216.24842 -31.86492,-7.87171 v -18.19609 h 63.74578 v 18.19609 z"
     class="C"
     id="path1422"
     style="stroke-width:1.62491" />
  <path
     d="m 377.53556,200.853 a 3.7122632,3.861283 0 1 1 -3.71226,-3.84471 3.6963307,3.844711 0 0 1 3.71226,3.84471 z m 41.88644,0 a 3.6963307,3.844711 0 1 1 -3.69633,-3.84471 3.6963307,3.844711 0 0 1 3.69633,3.84471 z"
     class="B"
     id="path1424"
     style="stroke-width:1.62491" />
  <path
     d="m 588.83663,375.70118 -325.0907,-36.37561 7.93277,-76.70032 325.0907,36.3756 z"
     id="path1426"
     style="fill:#ff5555;stroke-width:1.62491" />
  <path
     d="m 441.45659,342.51072 149.0641,16.68803 -70.23029,-50.04753 z"
     id="path1428"
     style="fill:#407bff;stroke-width:1.62491" />
  <path
     d="m 441.45659,342.51072 149.0641,16.68803 -70.23029,-50.04753 z"
     opacity="0.2"
     id="path1432"
     style="stroke-width:1.62491;stroke:none;stroke-opacity:1;opacity:1;fill:#aa0000" />
  <path
     d="m 368.05575,334.34071 132.19162,14.79882 -63.28373,-34.55268 z"
     class="D"
     id="path1434"
     style="stroke-width:1.62491" />
  <path
     d="m 368.05575,334.34071 132.19162,14.79882 -63.28373,-34.55268 z"
     class="H"
     id="path1436"
     style="stroke-width:1.62491;opacity:1;fill:#ff0000;stroke:none" />
  <path
     d="m 265.40769,322.848 325.09069,36.37561 -1.70955,16.52563 -325.0907,-36.37561 z"
     class="D"
     id="path1438"
     style="stroke-width:1.62491" />
  <path
     d="m 265.40769,322.848 325.09069,36.37561 -1.70955,16.52563 -325.0907,-36.37561 z"
     class="H"
     id="path1440"
     style="stroke-width:1.62491;fill:#ff0000;opacity:1;stroke:none" />
  <path
     d="m 311.7345,292.56262 a 10.085247,10.490095 0 1 1 -8.93811,-11.60042 10.069315,10.473523 0 0 1 8.93811,11.60042 z"
     opacity="0.6"
     class="E"
     id="path1442"
     style="stroke-width:1.62491;fill:#ffffff" />
  <path
     d="M 128.798,8.4848797 A 8.1574195,8.4848794 0 1 1 120.64058,3.3000001e-7 8.1574195,8.4848794 0 0 1 128.798,8.4848797 Z"
     fill="#a6a6a6"
     id="path1444"
     style="stroke-width:1.62491" />
  <path
     d="m 124.41657,8.4848797 a 3.8237904,3.9772872 0 1 1 -3.80786,-3.9607152 3.8078579,3.9607152 0 0 1 3.80786,3.9607152 z"
     class="C"
     id="path1446"
     style="stroke-width:1.62491" />
  <path
     d="m 85.095258,565.00679 h 70.389612 v 17.3012 H 85.095258 Z"
     class="B"
     id="path1448"
     style="stroke-width:1.62491" />
  <path
     d="M 69.831962,582.30799 H 170.74816 v 33.93952 H 69.831962 Z"
     class="C"
     id="path1450"
     style="stroke-width:1.62491" />
  <path
     d="M 161.22055,151.23635 H 85.891881 V 64.448625 h 49.279099 a 17.175192,17.864648 0 0 1 17.0318,15.51142 z"
     class="D"
     id="path1452"
     style="stroke-width:1.62491;fill:#ff0000" />
  <path
     d="m 140.71548,124.88682 h -35.30634 a 3.2980192,3.4304102 0 0 1 -1.1312,-0.18229 3.983115,4.1430075 0 0 1 -2.83598,-3.96072 V 74.391843 h 25.10956 a 11.933413,12.41245 0 0 1 2.51733,0.24858 13.606321,14.152514 0 0 1 5.27364,2.187508 13.351401,13.887361 0 0 1 2.93157,2.767529 13.956835,14.517098 0 0 1 3.1865,7.440842 l 4.23803,33.144058 a 4.0149799,4.1761516 0 0 1 -3.98311,4.70646 z"
     class="B"
     id="path1454"
     style="stroke-width:1.62491" />
  <path
     d="m 136.92355,100.70823 a 3.8875202,4.0435753 0 0 1 -1.16307,2.9001 l -20.44135,21.27849 h -9.90999 a 3.2980192,3.4304102 0 0 1 -1.1312,-0.18229 l 25.89025,-26.912981 a 3.9671825,4.1264355 0 0 1 6.75536,2.916681 z m 0.35051,-21.096198 -35.8321,37.253928 v -5.80021 l 32.90053,-34.221247 a 13.351401,13.887361 0 0 1 2.93157,2.767529 z m -8.20521,-4.955037 -20.34575,21.162483 a 2.97937,3.0989696 0 0 1 -5.08246,-2.187508 2.9315726,3.0492535 0 0 1 0.87629,-2.154364 l 16.41043,-17.085763 h 5.62416 a 11.933413,12.41245 0 0 1 2.51733,0.265152 z"
     opacity="0.4"
     class="E"
     id="path1456"
     style="stroke-width:1.62491" />
  <path
     d="m 37.967042,646.20974 14.976512,-110.38629 1.641043,-12.11416 1.513584,-11.26898 H 80.57044 L 79.056856,523.70929 77.415812,535.82345 62.4393,646.20974 Z"
     class="D"
     id="path1458"
     style="stroke-width:1.62491;fill:#d40000" />
  <path
     d="m 77.033433,512.44031 -4.078709,33.50865 -4.317697,33.4755 -4.524819,33.40921 -2.326139,16.72118 -2.437666,16.67146 1.991557,-16.75432 2.13495,-16.7709 4.317697,-33.45893 4.524818,-33.42578 z"
     class="H"
     id="path1460"
     style="stroke-width:1.62491;fill:#d40000" />
  <path
     d="m 79.056856,523.70929 -1.641044,12.11416 H 52.943554 l 1.641043,-12.11416 z"
     class="H"
     id="path1462"
     style="stroke-width:1.62491" />
  <path
     d="m 243.97375,646.20974 -14.96058,-110.38629 -1.64104,-12.11416 -1.51359,-11.26898 h -24.47226 l 1.51359,11.26898 1.64104,12.11416 14.96058,110.38629 z"
     class="D"
     id="path1464"
     style="stroke-width:1.62491;fill:#d40000" />
  <path
     d="m 205.00295,512.44031 4.07871,33.50865 4.3177,33.4755 4.52482,33.40921 2.32614,16.72118 2.43766,16.67146 -1.99155,-16.75432 -2.08716,-16.75432 -4.31769,-33.45893 -4.52482,-33.42579 z"
     class="H"
     id="path1466"
     style="stroke-width:1.62491" />
  <path
     d="m 202.89987,523.70929 h 24.47226 l 1.64104,12.11416 h -24.47226 z"
     class="H"
     id="path1468"
     style="stroke-width:1.62491" />
  <path
     d="M 79.678222,489.28919 H 60.272486 l 2.421733,-18.80926 H 77.27242 Z"
     class="D"
     id="path1470"
     style="stroke-width:1.62491" />
  <path
     d="M 79.678222,489.28919 H 60.272486 l 2.421733,-18.80926 H 77.27242 Z"
     class="H"
     id="path1472"
     style="stroke-width:1.62491;fill:#d40000;opacity:1" />
  <path
     d="M 88.058696,457.02344 A 18.083342,18.809254 0 1 1 69.975354,438.21419 18.083342,18.809254 0 0 1 88.058696,457.02344 Z"
     class="D"
     id="path1474"
     style="stroke-width:1.62491;fill:#ff2a2a" />
  <path
     d="M 83.725067,457.02344 A 13.749713,14.301662 0 1 1 69.975354,442.73835 13.749713,14.301662 0 0 1 83.725067,457.02344 Z"
     class="E"
     id="path1476"
     style="stroke-width:1.62491" />
  <path
     d="m 81.462657,456.19484 a 11.901548,12.379306 0 0 0 -4.477021,-8.7666 12.204264,12.694175 0 0 0 -9.256759,-2.51895 11.582898,12.047866 0 0 0 -7.96623,5.36934 12.092737,12.578171 0 0 0 -1.449854,10.3078 11.327979,11.782713 0 0 0 5.369239,7.07626 11.901548,12.379306 0 0 0 8.412339,1.34233 12.347656,12.843323 0 0 0 7.05808,-4.49102 13.112415,13.638781 0 0 0 2.899707,-7.97115 c 0,-0.13257 0,-0.24858 -0.111527,-0.24858 -0.111527,0 -0.12746,0.0994 -0.12746,0.24858 a 12.984955,13.506204 0 0 1 -0.637298,3.44699 12.745968,13.257624 0 0 1 -3.775993,5.66763 14.339214,14.914827 0 0 1 -2.85191,1.92236 11.471371,11.931862 0 0 1 -9.384219,0.23201 11.264249,11.716425 0 0 1 -6.372984,-7.25855 11.630696,12.097582 0 0 1 1.210867,-9.94322 11.152722,11.600421 0 0 1 7.743175,-5.30305 11.933413,12.41245 0 0 1 11.375777,4.72303 12.363589,12.859895 0 0 1 1.593246,2.96639 14.578201,15.163407 0 0 1 0.71696,3.31441 0.09559476,0.09943218 0 0 0 0.03186,-0.11601 z m -1.609178,0.0166 a 10.308302,10.722103 0 0 0 -3.88752,-7.49055 10.563221,10.987256 0 0 0 -7.96623,-2.17094 9.941855,10.340947 0 0 0 -6.866891,4.55731 10.483559,10.904396 0 0 0 -1.338326,8.93232 9.8303278,10.224943 0 0 0 4.652278,6.18137 10.515424,10.93754 0 0 0 7.344864,1.14347 10.706613,11.136404 0 0 0 6.102132,-3.94414 11.471371,11.931862 0 0 0 2.517329,-6.91054 c 0,-0.116 0,-0.21544 -0.111527,-0.21544 -0.111527,0 -0.12746,0.0829 -0.12746,0.21544 a 10.977465,11.418129 0 0 1 -6.277389,9.52892 9.8621927,10.258087 0 0 1 -8.109622,0.24858 9.7347331,10.12551 0 0 1 -5.496699,-6.31394 10.053382,10.456951 0 0 1 1.09934,-8.61746 9.559476,9.943218 0 0 1 6.6757,-4.47445 10.340167,10.755247 0 0 1 9.702869,4.01043 11.00933,11.451273 0 0 1 1.338326,2.53552 12.82563,13.340484 0 0 1 0.653231,2.83382 z m -1.609179,0.0166 a 8.6035284,8.9488962 0 0 0 -3.298019,-6.19794 8.8743802,9.2306207 0 0 0 -6.548241,-1.8395 8.3326766,8.6671717 0 0 0 -5.799415,3.72871 8.8903127,9.2471927 0 0 0 -1.2268,7.55684 8.1892844,8.5180234 0 0 0 3.95125,5.28648 8.7309881,9.0814724 0 0 0 6.261457,0.94461 9.0974347,9.4626291 0 0 0 5.162117,-3.31441 9.8940577,10.291231 0 0 0 2.119017,-5.84993 c 0,-0.0994 0,-0.18229 -0.111527,-0.18229 -0.111527,0 -0.12746,0 -0.12746,0.18229 a 9.4001514,9.7774977 0 0 1 -5.289576,8.02087 8.2848792,8.6174556 0 0 1 -6.850958,0.24858 8.0777572,8.4020192 0 0 1 -4.604481,-5.40248 8.3964064,8.7334598 0 0 1 1.003745,-7.24198 7.96623,8.286015 0 0 1 5.592293,-3.64585 9.559476,9.943218 0 0 1 4.429224,0.54688 8.2689467,8.6008836 0 0 1 3.600736,2.75096 8.9062451,9.2637648 0 0 1 1.131205,2.08807 10.738478,11.169548 0 0 1 0.589501,2.35323 c 0,0 0.03186,0 0.01593,-0.0331 z m -1.609178,0.0166 a 7.0102824,7.2916932 0 0 0 -2.708518,-4.97161 7.3926614,7.6894219 0 0 0 -5.193982,-1.50806 6.755363,7.0265407 0 0 0 -4.779738,2.93325 7.2811342,7.5734177 0 0 0 -1.115272,6.18137 6.6757007,6.9436806 0 0 0 3.186492,4.39159 7.1218096,7.4076974 0 0 0 5.178049,0.72917 7.4563913,7.75571 0 0 0 4.222102,-2.83382 8.2370818,8.5677395 0 0 0 1.720706,-4.77274 c 0,-0.0829 0,-0.14915 -0.111528,-0.14915 a 0.14339214,0.14914827 0 0 0 -0.127459,0.14915 7.7431756,8.0540066 0 0 1 -4.301764,6.49623 6.6279034,6.8939645 0 0 1 -5.576361,0.28173 6.5163761,6.7779603 0 0 1 -3.664466,-4.30873 6.787228,7.0596848 0 0 1 0.892218,-5.8665 6.2773892,6.5293798 0 0 1 4.524818,-2.80067 8.2052169,8.5345955 0 0 1 3.489209,0.46401 6.580106,6.8442484 0 0 1 2.867843,2.1378 7.3926614,7.6894219 0 0 1 0.940015,1.6572 10.88187,11.318696 0 0 1 0.509839,1.88921 v 0 c 0,0 0.06373,-0.0829 0.0478,-0.0994 z m 144.618938,33.04463 h -19.40573 l 2.42173,-18.80926 h 14.5782 z"
     class="D"
     id="path1478"
     style="stroke-width:1.62491;fill:#ff0000" />
  <path
     d="m 221.25406,489.28919 h -19.40573 l 2.42173,-18.80926 h 14.5782 z"
     class="H"
     id="path1480"
     style="stroke-width:1.62491;fill:#ff0000;stroke:none;opacity:1" />
  <path
     d="m 229.63454,457.02344 a 18.083342,18.809254 0 1 1 -18.08335,-18.80925 18.083342,18.809254 0 0 1 18.08335,18.80925 z"
     class="D"
     id="path1482"
     style="stroke-width:1.62491;fill:#ff2a2a" />
  <path
     d="m 225.30091,457.02344 a 13.749713,14.301662 0 1 1 -13.74972,-14.28509 13.749713,14.301662 0 0 1 13.74972,14.28509 z"
     class="E"
     id="path1484"
     style="stroke-width:1.62491" />
  <path
     d="m 223.0385,456.19484 a 11.901548,12.379306 0 0 0 -4.47702,-8.7666 12.204264,12.694175 0 0 0 -9.25676,-2.51895 11.582898,12.047866 0 0 0 -7.96623,5.36934 12.092737,12.578171 0 0 0 -1.44986,10.3078 11.327979,11.782713 0 0 0 5.36924,7.07626 11.901548,12.379306 0 0 0 8.41234,1.34233 12.347656,12.843323 0 0 0 7.05808,-4.49102 13.000887,13.522776 0 0 0 2.89971,-7.97115 c 0,-0.13257 0,-0.24858 -0.11153,-0.24858 -0.11153,0 -0.12746,0.0994 -0.12746,0.24858 a 12.331724,12.826751 0 0 1 -0.6373,3.44699 12.745968,13.257624 0 0 1 -3.77599,5.66763 14.339214,14.914827 0 0 1 -2.85191,1.92236 11.471371,11.931862 0 0 1 -9.38422,0.23201 11.264249,11.716425 0 0 1 -6.37298,-7.25855 11.630696,12.097582 0 0 1 1.21086,-9.94322 11.152722,11.600421 0 0 1 7.74318,-5.30305 11.933413,12.41245 0 0 1 11.37578,4.72303 12.363589,12.859895 0 0 1 1.59324,2.96639 14.578201,15.163407 0 0 1 0.71696,3.31441 0.17525706,0.18229233 0 0 0 0.0319,-0.11601 z m -1.60918,0.0166 a 10.308302,10.722103 0 0 0 -3.88752,-7.49055 10.563221,10.987256 0 0 0 -7.96623,-2.17094 9.941855,10.340947 0 0 0 -6.86689,4.55731 10.483559,10.904396 0 0 0 -1.33833,8.93232 9.8303278,10.224943 0 0 0 4.65228,6.18137 10.515424,10.93754 0 0 0 7.34486,1.14347 10.706613,11.136404 0 0 0 6.10214,-3.94414 11.471371,11.931862 0 0 0 2.51732,-6.91054 c 0,-0.116 0,-0.21544 -0.11152,-0.21544 -0.11153,0 -0.12746,0.0829 -0.12746,0.21544 a 10.977465,11.418129 0 0 1 -6.27739,9.52892 9.8621927,10.258087 0 0 1 -8.10962,0.24858 9.7347331,10.12551 0 0 1 -5.51263,-6.31394 10.053382,10.456951 0 0 1 1.09933,-8.61746 9.559476,9.943218 0 0 1 6.67571,-4.47445 10.340167,10.755247 0 0 1 9.70286,4.01043 11.00933,11.451273 0 0 1 1.33833,2.53552 12.82563,13.340484 0 0 1 0.65323,2.83382 c 0,0 0.12746,-0.0166 0.11153,-0.0497 z"
     id="path1486"
     style="fill:#ff0000;stroke-width:1.62491" />
  <path
     d="m 219.82014,456.22799 a 8.6035284,8.9488962 0 0 0 -3.29802,-6.19794 8.8743802,9.2306207 0 0 0 -6.54824,-1.8395 8.3326766,8.6671717 0 0 0 -5.79942,3.72871 8.8903127,9.2471927 0 0 0 -1.2268,7.55684 8.1892844,8.5180234 0 0 0 3.95125,5.28648 8.7309881,9.0814724 0 0 0 6.26146,0.94461 9.0974347,9.4626291 0 0 0 5.16212,-3.31441 9.7825304,10.175226 0 0 0 2.11902,-5.84993 c 0,-0.0994 0,-0.18229 -0.11153,-0.18229 -0.11153,0 -0.12746,0 -0.12746,0.18229 a 9.4001514,9.7774977 0 0 1 -5.28958,8.02087 8.2848792,8.6174556 0 0 1 -6.85096,0.24858 8.0777572,8.4020192 0 0 1 -4.63634,-5.3362 8.3964064,8.7334598 0 0 1 1.00374,-7.24197 7.96623,8.286015 0 0 1 5.5923,-3.64585 9.559476,9.943218 0 0 1 4.42922,0.54688 8.0618248,8.3854472 0 0 1 4.77974,4.83903 10.738478,11.169548 0 0 1 0.5895,2.35323 c 0,0 0.0159,-0.0663 0,-0.0994 z m -1.60918,0.0166 a 7.0102824,7.2916932 0 0 0 -2.70852,-4.97161 7.376729,7.6728499 0 0 0 -5.19398,-1.50806 6.755363,7.0265407 0 0 0 -4.77974,2.93325 7.3289316,7.6231338 0 0 0 -1.11527,6.18137 6.6757007,6.9436806 0 0 0 3.18649,4.39159 7.1218096,7.4076974 0 0 0 5.17805,0.72917 7.4563913,7.75571 0 0 0 4.2221,-2.83382 8.2370818,8.5677395 0 0 0 1.72071,-4.77274 c 0,-0.0829 0,-0.14915 -0.11153,-0.14915 a 0.14339214,0.14914827 0 0 0 -0.12746,0.14915 7.7431756,8.0540066 0 0 1 -4.30176,6.49623 6.6279034,6.8939645 0 0 1 -5.57636,0.28173 6.5163761,6.7779603 0 0 1 -3.77599,-4.39159 6.787228,7.0596848 0 0 1 0.89221,-5.8665 6.2773892,6.5293798 0 0 1 4.52482,-2.80067 8.2052169,8.5345955 0 0 1 3.48921,0.46401 6.580106,6.8442484 0 0 1 2.86784,2.1378 7.3926614,7.6894219 0 0 1 0.94002,1.6572 10.88187,11.318696 0 0 1 0.50984,1.88921 v 0 c 0,0 0.17525,0 0.15932,-0.0166 z"
     id="path1488"
     style="fill:#ff2a2a;stroke-width:1.62491" />
  <path
     d="M 19.055212,479.69398 H 262.88558 v 48.50633 H 19.055212 Z"
     class="E"
     id="path1492"
     style="stroke-width:1.62491" />
  <path
     d="M 263.29982,528.61461 H 18.6569 V 479.27968 H 263.29982 Z M 19.533185,527.78601 H 262.5032 V 480.10828 H 19.453523 Z"
     class="B"
     id="path1494"
     style="stroke-width:1.62491;fill:#ff0000" />
  <path
     d="m 69.178731,479.69398 -17.700963,48.5229 H 19.995227 l 17.68503,-48.5229 z m 64.542399,0 -17.68503,48.5229 H 84.52169 l 17.70096,-48.5229 z m 64.54239,0 -17.70096,48.5229 h -31.48254 l 17.70096,-48.5229 z m 64.55833,0 -17.70096,48.5229 h -31.49848 l 17.68503,-48.5229 z"
     class="D"
     id="path1496"
     style="stroke-width:1.62491;fill:#ff0000" />
  <path
     d="M 23.994274,587.49504 H 257.96245 v 30.70797 H 23.994274 Z"
     class="E"
     id="path1498"
     style="stroke-width:1.62491" />
  <path
     d="m 258.36076,618.61731 h -234.717 v -31.48686 h 234.717 z M 24.392586,617.78871 H 257.56414 V 587.95905 H 24.392586 Z"
     class="B"
     id="path1500"
     style="stroke-width:1.62491" />
  <path
     d="M 72.078438,587.49504 55.094436,618.20301 H 24.886492 l 16.984002,-30.70797 z m 61.945402,0 -16.984,30.70797 H 86.815964 l 16.984006,-30.70797 z m 61.91354,0 -16.96807,30.70797 h -30.22387 l 16.984,-30.70797 z m 61.94541,0 -16.98401,30.70797 h -30.22387 l 16.984,-30.70797 z"
     class="D"
     id="path1502"
     style="stroke-width:1.62491;fill:#ff0000" />
  <ellipse
     cx="-455.21909"
     cy="250.11441"
     transform="matrix(0.22358672,-0.97468404,0.97055656,0.24087334,0,0)"
     class="E"
     id="circle1504"
     rx="39.394016"
     ry="38.034733"
     style="stroke-width:1.62504" />
  <path
     d="m 140.9704,543.82774 a 38.349431,39.888876 0 1 1 38.34943,-39.87231 38.365364,39.905448 0 0 1 -38.34943,39.87231 z m 0,-78.93258 a 37.552808,39.060275 0 1 0 37.5528,39.06027 37.584673,39.093419 0 0 0 -37.5528,-39.06027 z"
     class="B"
     id="path1506"
     style="stroke-width:1.62491" />
  <ellipse
     cx="-455.32169"
     cy="249.97736"
     transform="matrix(0.22325827,-0.97475933,0.97064357,0.24052248,0,0)"
     class="D"
     id="circle1508"
     rx="33.390846"
     ry="32.238304"
     style="stroke-width:1.62504;fill:#ff0000" />
  <path
     d="m 120.7999,500.06101 h 40.34099 v 7.77228 H 120.7999 Z"
     class="E"
     id="path1510"
     style="stroke-width:1.62491" />
  <path
     d="M671.904 650.27l8.062-57.704 2.342 1.094 3.728 1.757 16.187 7.623 14.483 6.795 9.559 4.491 14.514 6.828 7.966 3.729c2.818 1.593 4.385 4.842 3.926 8.144s-2.845 5.957-5.981 6.655l-3.362.481h0l-5.29.746-15.757 2.221-10.388 1.475-15.773 2.237-6.596.945z"
     class="D"
     id="path1514"
     style="fill:#ff0000" />
  <path
     d="M682.706 594.174c-.797 2.169-1.789 4.256-2.963 6.231-4.923 7.988-8.476 24.328-5.799 43.087.154 2.028.555 4.027 1.195 5.949l3.378-.232s15.725-35.895 67.139-25.919l-4.78-2.287-14.499-6.795-9.559-4.491-14.499-6.828z"
     style="mix-blend-mode:multiply"
     class="H"
     id="path1516" />
  <path
     d="M722.266 643.127l4.015-28.802 14.514 6.828-2.772 19.754zm-26.161 3.712l6.118-43.816 14.514 6.828-4.859 34.752z"
     class="F"
     id="path1518" />
  <path
     d="m 530.296,648.845 h -54.011 l 0.669,-2.486 1.099,-3.944 4.78,-17.102 4.238,-15.329 2.788,-10.092 4.238,-15.329 2.326,-8.402 c 1.06,-3.021 3.823,-5.031 6.915,-5.031 3.092,0 5.855,2.01 6.915,5.031 l 0.908,3.314 v 0 l 1.418,5.121 4.238,15.329 2.788,10.092 4.238,15.329 1.769,6.413 z"
     id="path1520"
     style="fill:#ff0000" />
  <path
     d="m 472.62,634.261 h 70.98 l -11.312,29.15 h -70.979 z"
     id="path1522"
     style="fill:#ff2a2a" />
  <path
     d="M516.833 599.891h-26.958l4.238-15.313h18.482zm7.026 25.421h-41.01l4.238-15.329h32.534z"
     class="F"
     id="path1526" />
  <path
     d="M475.584 644.934c4.372 2.041 8.977 3.495 13.702 4.325a71.17 71.17 0 0 0 14.164 1.127c2.374-.166 4.78-.182 7.106-.563 1.179-.166 2.374-.249 3.537-.464l3.521-.663 1.769-.348 1.737-.447 3.489-.878c2.31-.646 4.589-1.458 6.947-2.088-2.183 1.077-4.381 2.154-6.628 3.082l-3.457 1.226-1.721.597c-.59.182-1.179.315-1.769.481l-3.569.878c-1.179.282-2.406.414-3.601.63a67.47 67.47 0 0 1-7.313.696 55.87 55.87 0 0 1-14.546-1.657c-4.769-1.106-9.3-3.117-13.367-5.933z"
     class="B"
     id="path1528" />
  <path
     d="M477.448 645.895a33.73 33.73 0 0 1 6.118 2.072c7.966 3.778 23.469 4.972 40.373-.232a21.76 21.76 0 0 0 5.274-2.005l-.685-3.314s-35.051-10.606-33.044-62.974l-1.418 5.121-4.238 15.329-2.788 10.092-4.238 15.329z"
     style="mix-blend-mode:multiply;fill:#d40000"
     class="H"
     id="path1530" />
  <path
     d="M657.214 650.17l10.595-75.867 27.117 16.456-10.611 75.85z"
     class="D"
     id="path1532"
     style="fill:#ff2a2a" />
  <path
     d="M684.219 622.147c-1.514 14.02-6.373 24.957-10.898 24.427s-6.931-12.313-5.417-26.333 6.373-24.941 10.914-24.411 6.915 12.313 5.401 26.316z"
     class="B"
     id="path1534" />
  <defs
     id="defs1546">
    <path
       id="B"
       d="M830.878 345.378c.006 5.947-3.433 11.312-8.713 13.592s-11.361 1.027-15.406-3.176-5.257-10.526-3.071-16.021 7.341-9.078 13.058-9.078c7.799 0 14.123 6.571 14.132 14.683z" />
    <path
       id="C"
       d="M250.474 147.441c0 1.83-1.427 3.314-3.186 3.314s-3.186-1.484-3.186-3.314 1.427-3.314 3.186-3.314 3.186 1.484 3.186 3.314z" />
    <path
       id="D"
       d="M266.566 321.183h212.188v6.413H266.566z" />
    <path
       id="E"
       d="M443.273 209.338h150.641v6.413H443.273z" />
    <path
       id="F"
       d="M120.074 138.052l21.364-22.655 2.204 2.079-21.364 22.655z" />
    <path
       id="G"
       d="M121.18 138.53h21.88v3.03h-21.88z" />
    <path
       id="H"
       d="M120.075 117.467l2.205-2.078 21.36 22.659-2.205 2.078z" />
    <path
       id="I"
       d="M307.361 95.924l2.078-2.205 22.659 21.36-2.078 2.205z" />
    <path
       id="J"
       d="M330.48 94.28h3.03v21.88h-3.03z" />
    <path
       id="K"
       d="M283.726 115.034l22.655-21.364 2.079 2.204-22.655 21.364z" />
  </defs>
</svg>
