<svg xmlns="http://www.w3.org/2000/svg" xmlns:xlink="http://www.w3.org/1999/xlink" width="666.667" height="666.667" xmlns:v="https://vecta.io/nano"><style><![CDATA[.B{fill:#1a2e35}.C{fill:#fff}.D{fill:#f5f5f5}.E{stroke-width:.283}.F{opacity:.6}.G{fill:#375a64}.H{fill:#2a7fff}.I{fill:#ff9a6c}.J{fill:#ececec}.K{fill:#0055d4}.L{fill:#ffbf9d}]]></style><defs><clipPath id="A"><path d="M0 500h500V0H0z"/></clipPath><clipPath id="B"><path d="M87.036 234.703h4.818v-3.048h-4.818z"/></clipPath><clipPath id="C"><path d="M38.248 330.794h.07v-2.615h-.07z"/></clipPath><clipPath id="D"><path d="M38.24 324.579h.026v-1.613h-.026z"/></clipPath><clipPath id="E"><path d="M258.265 332.432h.226v-13.493h-.226z"/></clipPath><clipPath id="F"><path d="M251.57 364.683h1.48v-4.23h-1.48z"/></clipPath><clipPath id="G"><path d="M177.185 116.898h25.535V98.207h-25.535z"/></clipPath><clipPath ><path d="M0 500h500V0H0z"/></clipPath><clipPath id="I"><path d="M0 500h500V0H0z"/></clipPath><clipPath id="J"><path d="M0 500h500V0H0z"/></clipPath><clipPath id="K"><path d="M0 500h500V0H0z"/></clipPath><clipPath id="L"><path d="M396.663 377.43h15.531v-14.128h-15.531z"/></clipPath><clipPath id="M"><path d="M329.197 375.104h35.098V352.43h-35.098z"/></clipPath><clipPath id="N"><path d="M0 500h500V0H0z"/></clipPath><clipPath id="O"><path d="M0 500h500V0H0z"/></clipPath><clipPath id="P"><path d="M0 500h500V0H0z"/></clipPath><clipPath id="Q"><path d="M255.378 123.266h82.545V54.894h-82.545z"/></clipPath><clipPath ><path d="M360.746 134.263h57.993V84.034h-57.993z"/></clipPath><clipPath id="S"><path d="M0 500h500V0H0z"/></clipPath><clipPath id="T"><path d="M121.673 34.146h2.988v-2.812h-2.988z"/></clipPath><clipPath id="U"><path d="M116.094 25.211h38.295v-3.83h-38.295z"/></clipPath><clipPath id="V"><path d="M77.097 32.871h2.959v-2.808h-2.959z"/></clipPath><clipPath id="W"><path d="M46.043 26.444h38.243v-6.352H46.043z"/></clipPath><path id="X" d="M115.383 358.958a3.52 3.52 0 0 0-3.517-3.517 3.52 3.52 0 0 0-3.517 3.517 3.52 3.52 0 0 0 3.517 3.517 3.52 3.52 0 0 0 3.517-3.517"/><path id="Y" d="M402.239 405.686c.081-.051-7.661-12.421-17.29-27.626l-17.583-27.444c-.08.051 7.66 12.419 17.292 27.629l17.581 27.441"/><path id="Z" d="M215.683 255.322c0 .794.589 1.315 1.329 1.315s1.329-.521 1.329-1.315c0-.781-.589-1.343-1.329-1.343s-1.329.562-1.329 1.343"/><path id="a" d="M259.837 64.378a5.2 5.2 0 0 0-4.405 5.886l6.431 44.727c.328 2.277 2.563 3.838 4.994 3.489l4.206-.605c1.715-.247 3.41.463 4.338 1.819l1.168 1.705c.929 1.355 2.623 2.066 4.339 1.819l19.965-2.871c1.557-.224 2.886-1.2 3.497-2.57l.757-1.694c.611-1.369 1.941-2.346 3.498-2.569l25.45-3.66c2.43-.349 4.135-2.478 3.808-4.753l-6.578-45.747a5.2 5.2 0 0 0-5.885-4.406z"/></defs><g transform="matrix(1.333333 0 0 -1.333333 0 666.66667)"><g clip-path="url(#A)" stroke="#aaa7a7" class="E"><path d="M452.426 154.7l-41.07 15.642a5.5 5.5 0 0 0-3.182 7.095l21.649 56.848a5.5 5.5 0 0 0 7.096 3.182l26.047-9.92 12.249-28.46-15.692-41.205a5.5 5.5 0 0 0-7.097-3.182" fill="gray"/><path d="M462.966 227.547l-6.093-15.999c-1.005-2.64.32-5.594 2.959-6.6l15.383-5.861z" fill="#e1e1e1"/><g class="C"><path d="M453.678 213.512c-.078-.206-4.396 1.248-9.642 3.246s-9.437 3.784-9.359 3.99 4.395-1.247 9.643-3.246 9.436-3.785 9.358-3.99m8.828-13.719c-.079-.205-7.144 2.294-15.777 5.583s-15.575 6.121-15.496 6.327 7.141-2.294 15.779-5.583 15.572-6.121 15.494-6.327m-.061-8.626c-.078-.206-7.773 2.534-17.186 6.118s-16.982 6.658-16.904 6.864 7.773-2.534 17.188-6.119 16.98-6.658 16.902-6.863m-2.715-7.127c-.078-.206-7.773 2.534-17.185 6.119s-16.982 6.658-16.904 6.863 7.773-2.533 17.188-6.119 16.98-6.657 16.901-6.863m-2.714-7.127c-.078-.205-7.773 2.534-17.186 6.119s-16.981 6.658-16.903 6.863 7.772-2.533 17.188-6.119 16.979-6.657 16.901-6.863m-2.714-7.126c-.078-.206-7.773 2.534-17.186 6.118s-16.982 6.658-16.903 6.864 7.772-2.534 17.187-6.12 16.98-6.657 16.902-6.862"/></g><g class="D"><path d="M257.951 337.104l-.436 3.73-.581 3.903.581-3.903.436-3.73m-10.006-15.463c-1.081 2.441-1.325 5.143-2.04 7.705-.383 1.378-1.028 2.842-2.318 3.452-.854.401-1.865.348-2.771.628-3.261.976-4.15 5.526-7.235 6.938-.976.436-2.057.523-3.103.645-4.132.487-8.403 1.917-11 5.16-.854 1.046-1.5 2.284-2.545 3.138-1.064.854-2.702 1.22-3.731.348l2.58-5.212c.785-1.569 1.586-3.19 2.894-4.341 1.325-1.168 3.277-1.778 4.863-1.045.524.243 1.047.645 1.639.574.419-.052.785-.348 1.063-.679 2.249-2.493 1.517-6.624-.679-9.17-2.179-2.528-5.422-3.852-8.542-5.09-1.116-.436-2.301-.889-3.487-.68-2.161.401-3.312 2.754-3.94 4.863-1.412 4.673-2.091 9.745-4.985 13.685-.924 1.238-2.075 2.371-2.632 3.818-.593 1.569-.454 3.399-1.395 4.777-.977 1.446-3.051 2.283-3.19 4.027-.088 1.22.924 2.301 2.039 2.824 1.116.54 2.371.697 3.522 1.168.453.191.958.523.976 1.01 0 .732-1.011 1.029-1.273 1.709-.278.767.506 1.482.837 2.231.715 1.709-1.064 3.434-2.789 4.132-1.709.697-3.783 1.202-4.585 2.876-.366.767-.401 1.656-.558 2.493-.401 2.109-1.952 4.149-4.079 4.498-2.144.349-4.515-1.552-4.166-3.679.209-1.168 1.081-2.074 1.551-3.155.488-1.081.349-2.685-.767-3.033-1.83-.558-3.591 2.789-5.125 1.639l1.866-6.451c-2.406-1.22-5.283.994-6.311 3.505-1.029 2.492-1.064 5.351-2.284 7.757-1.22 2.423-4.515 4.218-6.607 2.51-.105-3.103 3.992-4.358 5.805-6.868 1.308-1.813 1.116-4.759-.819-5.91-1.918-1.151-4.968.854-4.236 2.964.261.732.871 1.342.941 2.127.07.976-.75 1.76-1.499 2.387l-3.504 2.947c-.75.628-1.552 1.29-2.493 1.569-2.406.697-4.811-1.255-6.084-3.399-1.273-2.162-1.988-4.69-3.748-6.486-2.528-2.614-7.322-2.771-9.692-.034-2.389 2.737-1.169 7.862 2.335 8.856 1.325.365 2.999.331 3.696 1.499 1.22 2.074-2.266 4.724-1.063 6.816.924 1.603 3.364.871 5.143 1.412 1.76.54 2.754 2.318 3.799 3.852 1.029 1.517 2.65 3.051 4.463 2.65-.139 1.064-.279 2.214.192 3.173.471.976 1.796 1.603 2.667.976-.889-1.464.175-3.503 1.726-4.236s3.365-.558 5.073-.366c1.709.209 3.853.837 3.992 2.545.052.558-.157 1.15.052 1.674.75 2.039 4.516-.767 5.962.871.837.854-.087 2.371-1.255 2.65-1.15.297-2.354-.14-3.539-.175-1.185-.051-2.632.576-2.685 1.761-.051 1.169 1.256 2.005 1.395 3.155.227 1.953-3.085 2.458-4.253.872-1.151-1.586-.75-3.765-.401-5.7.366-1.935.54-4.219-.889-5.579-.61-.924-2.197-.435-2.72.541-.54.976-.418 2.162-.505 3.259-.087 1.117-.575 2.372-1.656 2.668-.75.209-1.552-.157-2.319-.262-3.033-.366-5.142 3.556-4.184 6.45.942 2.912 3.696 4.777 6.363 6.259 1.953 1.081 4.376 2.091 6.311.993.906-.505 1.534-1.377 2.423-1.9 1.534-.906 3.434-.575 5.195-.61 2.772-.07 5.508-1.133 7.583-2.946.784-.715 1.517-1.9.906-2.755-.662-.906-2.562-1.098-2.231-2.161 2.057-.68 4.516.907 4.742 3.051 1.011-.454 1.743-1.482 1.83-2.581 2.214 2.249 6.468 1.918 8.281-.679.488-.68.836-1.5 1.534-1.97.697-.454 1.918-.227 2.005.593.034.261-.053.523-.14.767l-1.273 3.521c1.622.872 3.539-.488 4.638-1.953 4.079-5.456 6.99-2.178 12.743-3.068 3.887-.592 5.596-3.085 7.792-6.101 6.729-9.274 15.62-16.875 21.739-26.567.645-1.011 1.237-2.04 1.794-3.085-.103.261-.191.522-.295.784a107.39 107.39 0 0 1-8.891 18.077c-.75 1.221-1.517 2.423-2.301 3.609l-1.499 2.196c-.645.942-1.325 1.848-2.005 2.754-.54.733-1.081 1.448-1.639 2.145l-1.185 1.464a23.37 23.37 0 0 1-1.36 1.639l-1.464 1.691c-.14.174-.297.349-.471.523-.505.593-1.046 1.168-1.586 1.743-.035.07-.087.122-.157.174-.139.158-.296.314-.453.471-.436.488-.907.959-1.36 1.429-.75.767-1.517 1.534-2.301 2.267-.645.645-1.307 1.255-1.987 1.865l-1.796 1.604a77.54 77.54 0 0 1-1.795 1.534 79.89 79.89 0 0 1-2.249 1.848h-.018c-2.109 1.691-4.288 3.294-6.52 4.794l-1.656 1.115c-.557.384-1.133.732-1.691 1.081l-1.708 1.046c-.575.366-1.151.697-1.726 1.029-.47.279-.924.54-1.395.784-.243.157-.47.279-.714.401a71.02 71.02 0 0 1-3.016 1.604c-.505.262-1.011.523-1.534.767a40.84 40.84 0 0 1-1.97.941 1.52 1.52 0 0 1-.296.14l-1.796.819-2.562 1.081-2.947 1.168c-1.098.418-2.196.819-3.312 1.185a108.51 108.51 0 0 1-3.382 1.099c-1.133.349-2.266.662-3.417.976a112.39 112.39 0 0 1-6.885 1.621c-.035.017-.087.017-.122.035l-2.667.488c-.07.017-.122.035-.175.035-.383.07-.784.139-1.185.192-1.657.279-3.33.505-5.021.697-.192.035-.401.052-.61.07-.488.069-.976.104-1.482.157-1.115.104-2.232.191-3.364.261-1.168.087-2.353.139-3.539.174-1.238.053-2.475.07-3.713.07a105.45 105.45 0 0 1-9.727-.436c-.768-.052-1.517-.122-2.267-.209l-2.353-.279-2.336-.331-2.336-.384c-.662-.104-1.342-.226-2.005-.366-1.638-.313-3.259-.662-4.863-1.045-.75-.175-1.5-.367-2.25-.576-.749-.192-1.499-.401-2.23-.61-1.238-.349-2.441-.732-3.644-1.116h-.018l-2.928-.993c-.017 0-.052-.018-.07-.035-.994-.349-1.952-.715-2.928-1.098l-.158-.053-2.649-1.081c-1.099-.453-2.179-.941-3.243-1.429l-2.667-1.273-2.806-1.429c-.035-.018-.07-.035-.105-.052-.889-.471-1.778-.959-2.65-1.465-.906-.505-1.795-1.028-2.685-1.586h-.017l-2.475-1.534c-.314-.192-.611-.401-.924-.61-.872-.558-1.709-1.134-2.563-1.726-1.046-.715-2.057-1.464-3.068-2.214-.889-.663-1.761-1.342-2.615-2.022-4.933-3.94-9.536-8.28-13.702-12.987a105.04 105.04 0 0 1-4.236-5.021c-1.151-1.464-2.266-2.946-3.33-4.48a99.32 99.32 0 0 1-2.774-4.075 99.32 99.32 0 0 0 2.774 4.075c.279.035.558.069.837.087 1.569.122 3.225.069 4.637.749 1.307.645 2.232 1.813 3.417 2.65 3.033 2.162 8.002 2.563 8.821 6.189.279 1.22-.052 2.545.401 3.713.854 2.179 3.765 2.493 6.101 2.458.994 0 2.162-.139 2.615-1.011.331-.61.139-1.377-.104-2.022-1.43-4.08-4.324-7.601-8.002-9.832-3.033-1.848-6.991-3.278-7.827-6.729.418-1.168 2.544-1.081 2.719-2.301.122-.976-1.133-1.482-1.586-2.354-.663-1.272.854-2.824 2.301-2.754s2.65 1.116 3.714 2.092c3.172 2.946 6.501 6.119 7.652 10.302.488 1.726.662 3.748 2.057 4.899 1.656 1.36 4.62.418 5.177-1.656 1.378.767 3.522 1.342 4.237-.087.244-.506.174-1.098.296-1.639.453-2.232 3.504-3.242 3.818-5.491.366-2.598-2.964-3.94-5.561-4.341l-7.061-1.116c-1.028-.157-2.091-.331-2.928-.941-.837-.627-1.36-1.813-.872-2.737.279-.505.819-.836 1.221-1.255 1.952-1.953.348-5.979-2.406-6.067-.942-.034-1.866.314-2.807.349-2.789.122-5.003-2.336-6.328-4.794s-2.318-5.265-4.55-6.938c-3.591-2.702-9.779-2.075-11.523-6.224-.697-1.673-.331-3.555-.052-5.351.279-1.778.401-3.765-.645-5.247-1.029-1.465-3.713-1.779-4.48-.14-.331.715-.227 1.552-.105 2.319l1.221 7.74c.296 1.918.557 4.062-.576 5.63-1.586 2.197-5.142 1.988-7.2.227-2.039-1.761-2.893-4.515-3.468-7.147-.419-1.953-.907-4.707-1.988-6.938h0c-.366-2.162-.663-4.359-.889-6.572a108.81 108.81 0 0 1-.47-6.817 9.71 9.71 0 0 1 .889.837c1.098 1.133 3.312 5.927 5.299 3.574.505-.593.523-1.552.035-2.179-.61-.785-1.831-.959-2.301-1.813-.575-1.011.226-2.266 1.168-2.929.941-.68 2.092-1.098 2.754-2.057 1.273-1.831.053-4.603 1.29-6.467 1.063-1.604 3.33-1.709 5.264-1.918l.663-.105c.541 3.835 2.336 6.956 7.566 8.141 7.217 1.639 16.701-4.34 20.762-9.779 4.532-6.084 6.677-14.696 13.615-17.747 4.968-2.179 12.028-1.395 14.452-6.258 2.161-4.358-1.604-9.257-2.18-14.086-.365-3.19.681-6.363.924-9.553.227-3.208-.715-6.938-3.626-8.28-1.621-.732-3.66-.645-4.968-1.866-2.318-2.196-.418-6.729-2.737-8.925-.819-.766-1.952-1.046-2.946-1.552-5.212-2.631-5.073-10.302-2.65-15.619l.262-.557c7.705-4.62 16.003-8.316 24.772-10.931 10.041-3.051 20.692-4.672 31.727-4.672 18.67 0 36.277 4.654 51.687 12.865h.018a110.11 110.11 0 0 1 9.745 5.875 108.71 108.71 0 0 1 13.684 10.878c2.946 2.754 5.753 5.665 8.368 8.734 1.848 2.127 3.591 4.341 5.265 6.607.854 1.168 1.69 2.336 2.475 3.539 2.406 3.521 4.602 7.199 6.572 11 2.859 5.473 5.247 11.226 7.13 17.188 1.936 6.014 3.347 12.255 4.201 18.671.331 2.475.593 4.985.767 7.512-1.202-1.167-2.772-2.004-4.427-1.969-2.65.035-4.83 2.249-5.893 4.689m-195.35-24.405c-.348 3.156.698 6.311.75 9.501l-.157 6.729c-1.883.087-3.765.349-5.596.785-.383.087-.802.209-1.028.523-.244.331-.209.767-.227 1.168-.139 2.475-2.528 4.113-4.672 5.351-1.098.645-2.214 1.273-3.399 1.674l.017-.768c.436-12.255 2.876-24.022 7.008-34.952a105.59 105.59 0 0 1 6.729-14.434c1.081-2.005 2.266-3.974 3.504-5.91 1.534-2.388 3.138-4.724 4.864-6.973 1.603-2.161 3.312-4.271 5.107-6.293 2.458-2.806 5.056-5.474 7.793-8.019 2.423-2.266 4.951-4.41 7.583-6.45-6.014 16.143-11.68 32.617-21.965 46.354-2.702 3.591-5.805 7.252-6.311 11.714m-14.347 30.942l-.035-1.987.026-1.613-.026 1.613.035 1.987"/></g><g clip-path="url(#B)" class="F D"><path d="M87.035 234.703l2.813-1.828 2.005-1.22-2.005 1.22-2.813 1.828"/></g><path d="M180.334 241.613a9.6 9.6 0 0 0-2.055.218c-2.273.498-4.001 1.805-4.863 3.681-.696 1.513-.771 3.182-.845 4.797-.049 1.094-.1 2.225-.348 3.28-.445 1.9-1.485 3.535-2.587 5.265-.82 1.288-1.668 2.62-2.24 4.066-1.047 2.649-1.128 5.547-1.206 8.351l-.02.677c-.581 19.375-5.983 35.103-15.622 45.482-1.339 1.441-2.838 2.844-4.73 3.346a5.88 5.88 0 0 1-6.064-2.092c-.346-.457-.635-.985-.915-1.495-.438-.8-.892-1.627-1.594-2.269-1.002-.915-2.379-1.287-3.879-1.049-1.965.312-3.863 1.621-4.835 3.336-1.709 3.014-1.402 6.728-1.155 9.711l.996 12.023c.153 1.856.363 4.396 1.868 6.137 1.165 1.347 2.844 1.965 4.468 2.563 1.202.442 2.446.9 3.446 1.65 1.93 1.445 2.785 3.726 3.692 6.142.504 1.344 1.026 2.734 1.751 3.975 1.31 2.242 4.408 3.763 6.904 3.396 1.181-.174 2.056-.765 2.533-1.692 1.192 2.24 2.665 3.587 4.488 4.11 3.983 1.143 8.837-2.009 13.531-5.056 4.286-2.781 8.331-5.408 11.51-4.83.8.145 1.614.374 2.401.596 1.673.471 3.402.959 5.17.709 4.628-.647 6.99-5.668 8.53-9.97l7.53-21.039c.937-2.62 2.145-5.495 4.634-6.459.976-.379 2.03-.418 3.147-.46 1.089-.041 2.216-.083 3.274-.468 1.878-.683 3.074-2.152 3.46-4.247.641-3.474-1.102-8.02-4.053-10.573-1.364-1.18-2.914-2.235-4.413-3.256-3.404-2.318-6.619-4.507-8.005-8.105-.742-1.926-.834-4.077-.924-6.158-.094-2.226-.192-4.528-1.071-6.623-.759-1.809-2.039-3.316-3.277-4.773-.757-.893-1.541-1.814-2.189-2.79-2.41-3.632-3.078-8.137-3.724-12.493l-.252-1.669c-.754-4.853-2.055-10.268-5.994-13.644-1.724-1.477-4.115-2.301-6.473-2.301" class="J"/><g clip-path="url(#C)" class="F D"><path d="M38.318 330.776v.018-.018l-.035-.61-.035-1.988.035 1.988c0 .209.017.401.035.61"/></g><g clip-path="url(#D)" class="F D"><path d="M38.239 324.579l.026-1.612-.026 1.612"/></g><g class="J"><path d="M53.38 317.737l-.663.104c-1.935.21-4.201.314-5.264 1.918-1.238 1.865-.017 4.637-1.29 6.468-.662.959-1.813 1.377-2.754 2.057-.942.662-1.744 1.917-1.168 2.929.47.854 1.691 1.028 2.301 1.813.488.627.47 1.586-.035 2.178-1.987 2.354-4.201-2.44-5.299-3.573-.314-.331-.611-.61-.89-.837v-.017l-.035-.61-.034-1.988-.035-1.987.026-1.613.026-1.612c1.186-.401 2.301-1.029 3.399-1.674 2.145-1.237 4.533-2.876 4.672-5.351.018-.401-.017-.837.227-1.168.227-.314.645-.436 1.028-.523 1.831-.436 3.714-.698 5.596-.785"/><path d="M53.188 313.466l.157-6.729c-.052-3.19-1.098-6.345-.749-9.501.505-4.462 3.608-8.123 6.31-11.714 10.285-13.737 15.951-30.211 21.965-46.354h.018a78.26 78.26 0 0 1 3.399-2.545c.906-.653 1.822-1.295 2.748-1.92a94.01 94.01 0 0 1 2.813-1.828c.662-.418 1.325-.819 2.005-1.22l-.262.558c-2.423 5.316-2.562 12.987 2.65 15.619.993.506 2.127.785 2.946 1.552 2.319 2.196.418 6.729 2.737 8.925 1.307 1.22 3.347 1.134 4.968 1.865 2.912 1.343 3.853 5.073 3.626 8.281-.244 3.19-1.289 6.363-.924 9.553.576 4.829 4.341 9.728 2.179 14.085-2.423 4.864-9.483 4.08-14.451 6.259-6.938 3.051-9.083 11.662-13.615 17.746-4.062 5.439-13.545 11.419-20.762 9.78-5.23-1.185-7.026-4.306-7.566-8.141m-8.246 40.53c2.057 1.761 5.613 1.97 7.2-.227 1.133-1.568.871-3.712.575-5.63l-1.22-7.74c-.122-.767-.227-1.604.104-2.319.767-1.639 3.452-1.325 4.48.14 1.046 1.482.924 3.469.646 5.247-.28 1.796-.646 3.678.052 5.351 1.743 4.149 7.932 3.522 11.523 6.224 2.231 1.673 3.225 4.48 4.55 6.938s3.539 4.916 6.328 4.794c.941-.035 1.865-.383 2.806-.349 2.755.088 4.359 4.114 2.406 6.067-.401.419-.941.75-1.221 1.255-.487.924.036 2.11.873 2.737.836.61 1.899.784 2.928.941l7.06 1.116c2.598.401 5.928 1.743 5.561 4.341-.314 2.249-3.364 3.26-3.818 5.491-.122.541-.052 1.133-.296 1.639-.715 1.429-2.859.854-4.236.087-.558 2.074-3.521 3.016-5.178 1.656-1.394-1.151-1.568-3.173-2.056-4.899-1.151-4.183-4.481-7.356-7.653-10.302-1.063-.976-2.267-2.022-3.713-2.092s-2.964 1.482-2.302 2.754c.454.872 1.709 1.378 1.586 2.354-.174 1.22-2.3 1.133-2.718 2.301.836 3.451 4.793 4.881 7.826 6.729 3.679 2.231 6.573 5.752 8.002 9.832.244.645.436 1.412.105 2.022-.454.872-1.621 1.011-2.615 1.011-2.336.035-5.248-.279-6.102-2.458-.453-1.168-.122-2.493-.4-3.713-.82-3.626-5.788-4.027-8.821-6.189-1.186-.837-2.11-2.005-3.417-2.65-1.412-.68-3.069-.627-4.637-.749-.279-.018-.558-.052-.837-.087a97.35 97.35 0 0 1-2.774-4.075c-.891-1.381-1.75-2.785-2.578-4.206-3.905-6.676-7.113-13.806-9.553-21.302-.854-2.606-1.608-5.256-2.262-7.945a110.35 110.35 0 0 1-1.661-8.18c1.082 2.231 1.57 4.985 1.988 6.938.575 2.632 1.429 5.386 3.469 7.147m92.404 51.094c1.041 1.366.737 3.33 1.412 4.91 1.122 2.623 4.608 3.561 5.816 6.146.465.994.58 2.209 1.391 2.947.676.617 1.679.741 2.405 1.297 1.625 1.244.951 4.075-.773 5.175-4.32 2.759-12.273-.431-16.006-3.131-4.8-3.473-9.495-7.655-15.881-7.247-1.76.112-3.591.596-5.241-.028s-2.666-3.097-1.246-4.144c.79-.582 1.91-.42 2.801-.832 1.646-.763 1.81-3.145 1.007-4.772s-2.251-2.843-3.201-4.389a8.32 8.32 0 0 1-1.186-5.047c.109-1.218.539-2.479 1.495-3.242 1.988-1.585 5.009-.227 6.692 1.678s2.844 4.369 5.027 5.673c1.089.651 2.345.953 3.579 1.247l8.326 1.979c1.326.315 2.757.697 3.583 1.78"/></g><g clip-path="url(#E)" class="F D"><path d="M258.457 327.708l-.142 4.724.142-4.724.034-1.517-.226-7.252.226 7.252-.034 1.517"/></g><g clip-path="url(#F)" class="F D"><path d="M251.57 364.665l1.48-4.212-1.48 4.212s.018.017 0 .017v.001-.001z"/></g><g class="J"><path d="M258.457 327.708l-.142 4.724-.364 4.672-.435 3.73-.581 3.903c-.653 3.881-1.516 7.699-2.575 11.438-.41 1.438-.845 2.864-1.309 4.278s-.957 2.817-1.481 4.212v.017.001c-.557 1.046-1.15 2.074-1.795 3.085-6.118 9.692-15.009 17.293-21.738 26.567-2.197 3.016-3.905 5.509-7.792 6.102-5.753.889-8.664-2.389-12.744 3.067-1.098 1.465-3.015 2.825-4.637 1.953l1.273-3.521c.087-.244.174-.506.139-.767-.087-.82-1.307-1.046-2.005-.593-.697.47-1.045 1.29-1.533 1.97-1.813 2.597-6.067 2.929-8.281.68-.087 1.098-.819 2.127-1.83 2.58-.227-2.144-2.685-3.731-4.742-3.051-.331 1.063 1.569 1.255 2.231 2.161.611.855-.122 2.041-.906 2.755-2.075 1.813-4.812 2.876-7.583 2.946-1.761.035-3.661-.296-5.195.611-.889.522-1.517 1.394-2.423 1.899-1.935 1.099-4.359.088-6.311-.993-2.667-1.482-5.422-3.347-6.363-6.259-.959-2.894 1.151-6.816 4.184-6.45.767.105 1.569.471 2.318.262 1.081-.296 1.57-1.551 1.657-2.667.087-1.098-.036-2.284.505-3.26.523-.976 2.109-1.465 2.72-.541 1.429 1.36 1.255 3.644.889 5.579-.349 1.935-.75 4.114.401 5.701 1.168 1.585 4.48 1.08 4.253-.873-.139-1.15-1.447-1.986-1.395-3.155.052-1.185 1.5-1.812 2.685-1.761 1.185.036 2.388.472 3.539.175 1.168-.279 2.092-1.796 1.255-2.65-1.447-1.638-5.212 1.168-5.962-.871-.209-.524 0-1.116-.052-1.674-.14-1.708-2.284-2.336-3.992-2.545-1.708-.192-3.522-.366-5.073.366s-2.615 2.772-1.726 4.236c-.872.628-2.196 0-2.667-.976-.471-.959-.332-2.109-.192-3.173-1.813.401-3.434-1.133-4.463-2.65-1.046-1.533-2.039-3.312-3.8-3.852-1.778-.541-4.218.191-5.143-1.412-1.202-2.092 2.284-4.742 1.064-6.816-.697-1.168-2.371-1.134-3.696-1.499-3.504-.994-4.724-6.119-2.335-8.856 2.37-2.737 7.164-2.58 9.691.034 1.761 1.796 2.476 4.324 3.749 6.486 1.272 2.144 3.678 4.096 6.084 3.399.941-.279 1.743-.941 2.493-1.569l3.504-2.947c.749-.627 1.568-1.411 1.499-2.387-.07-.785-.68-1.395-.941-2.127-.732-2.11 2.318-4.114 4.236-2.964 1.935 1.151 2.126 4.097.819 5.91-1.813 2.51-5.91 3.765-5.805 6.868 2.092 1.708 5.386-.087 6.607-2.51 1.22-2.406 1.254-5.265 2.284-7.757 1.028-2.511 3.905-4.725 6.31-3.505l-1.865 6.451c1.534 1.15 3.295-2.197 5.125-1.639 1.116.348 1.255 1.952.767 3.033-.471 1.081-1.342 1.987-1.552 3.155-.348 2.127 2.022 4.028 4.167 3.679 2.126-.349 3.678-2.389 4.079-4.498.157-.837.192-1.726.558-2.493.802-1.674 2.876-2.179 4.585-2.876 1.725-.697 3.504-2.423 2.789-4.131-.331-.75-1.116-1.465-.837-2.232.261-.68 1.273-.977 1.273-1.708-.018-.488-.523-.82-.976-1.011-1.151-.471-2.406-.628-3.522-1.168-1.116-.523-2.127-1.604-2.039-2.824.139-1.744 2.213-2.58 3.19-4.027.941-1.378.802-3.208 1.395-4.777.557-1.447 1.708-2.58 2.631-3.817 2.894-3.94 3.574-9.013 4.986-13.686.628-2.109 1.779-4.462 3.94-4.863 1.186-.209 2.371.244 3.487.68 3.12 1.238 6.362 2.562 8.542 5.09 2.196 2.546 2.928 6.677.679 9.17-.279.331-.644.627-1.063.679-.593.071-1.116-.331-1.639-.574-1.586-.733-3.539-.122-4.863 1.045-1.308 1.151-2.11 2.773-2.894 4.341l-2.58 5.212c1.028.872 2.667.506 3.731-.348 1.045-.854 1.691-2.092 2.545-3.138 2.597-3.243 6.868-4.672 11-5.16 1.045-.122 2.126-.209 3.103-.645 3.085-1.412 3.974-5.962 7.234-6.938.907-.28 1.918-.227 2.772-.628 1.29-.61 1.935-2.074 2.318-3.452.715-2.562.959-5.264 2.04-7.705 1.063-2.44 3.242-4.654 5.893-4.689 1.655-.035 3.224.802 4.427 1.969v.018c.139 2.406.226 4.811.226 7.252 0 .506 0 1.012-.034 1.517m-44.586-45.724c-1.641-.323-1.969-1.288-2.86-2.504-1.161-1.582-2.824-3.166-3.881-4.727-1.792-2.648-.178-6.777-2.535-9.004-.48-.454-1.101-.752-1.532-1.253-.947-1.101-.593-2.97.564-3.846s2.857-.814 4.106-.075 2.082 2.051 2.515 3.436c.313.999.487 2.129 1.274 2.818 1.35 1.18 3.445.304 5.221.552 7.554 1.059 4.308 16.016-2.872 14.603"/></g><path d="M211.676 57.104l-39.338-12.3a5.16 5.16 0 0 0-6.461 3.383l-17.024 54.449a5.16 5.16 0 0 0 3.383 6.461l24.948 7.801 25.535-13.866 12.34-39.467a5.16 5.16 0 0 0-3.383-6.461" class="H"/><path d="M211.389 57.014l-38.882-12.157c-2.811-.879-5.803.687-6.682 3.499l-4.508 14.417 49.182 15.377 4.471-14.298a5.46 5.46 0 0 0-3.581-6.838" class="K"/><g class="C"><path d="M182.341 63.257l2.486-7.951-1.762-.551-1.019 3.261-3.46-1.082 1.02-3.261-1.763-.551-2.486 7.951 1.762.551.98-3.135 3.461 1.082-.981 3.135zm7.861-5.947c-.267-.37-.74-.655-1.262-.818-1.381-.432-2.417.054-2.871 1.508l-.785 2.511-.903-.282-.426 1.363.902.282-.465 1.488 1.697.53.466-1.487 1.457.456.426-1.364-1.457-.456.778-2.488c.164-.522.524-.72.981-.577.25.078.475.235.614.439zm9.847 6.596l1.095-3.499-1.698-.53-1.008 3.225c-.309.99-.876 1.311-1.561 1.097-.762-.238-1.135-.916-.794-2.007l.959-3.067-1.698-.531-1.008 3.226c-.309.988-.853 1.317-1.56 1.096-.751-.235-1.124-.912-.784-2.003l.959-3.068-1.696-.53-1.911 6.112 1.621.506.221-.704c.271.658.838 1.135 1.589 1.37.816.255 1.615.144 2.238-.397.273.77.918 1.384 1.798 1.659 1.393.436 2.655-.092 3.238-1.955m-.01 5.408l1.697.53 2.635-8.428-1.697-.531zm-25.628 20.933l-5.671-4.813 7.396-.705.888-2.837-10.629 1.187-.923 2.951 8.059 7.032zm4.405 10.598l2.729.853.209-23.414-2.729-.852zm15.461-5.809l.923-2.951-8.06-7.031-.887 2.837 5.678 4.792-7.404.726-.879 2.815z"/></g><g clip-path="url(#G)" opacity=".3" class="C"><path d="M177.185 116.898l4.791-15.324c.791-2.529 3.48-3.937 6.009-3.147l14.735 4.605z" opacity="1"/></g><path d="M182.597 100.292s.968-3.776 5.582-3.676a5.29 5.29 0 0 1 .518.042c2.031.258 15.401 1.965 15.31 2.256l-1.287 4.118-14.735-4.607s-3.718-1.025-5.388 1.867" fill="#59f"/></g><g clip-path="url(#I)" class="B"><path d="M455.941 23.069c0-.144-92.211-.26-205.931-.26l-205.951.26c0 .144 92.191.261 205.951.261l205.931-.261"/></g><path d="M394.557 145.921H95.87v224.437h298.687z" class="C"/><g clip-path="url(#J)"><g class="B"><path d="M394.557 145.921l-.023 1.051-.024 3.066-.049 11.933-.109 45.357-.223 163.03.428-.428-298.662-.093h-.025l.52.521-.05-224.437-.47.47 215.582-.235 61.232-.125 16.247-.056 4.189-.028 1.069-.012.368-.014-.341-.015-1.042-.012-4.137-.028-16.154-.056-61.126-.125-215.887-.235h-.47v.471l-.051 224.437v.521h.521.025l298.662-.094h.428l-.001-.427-.223-163.297-.109-45.262-.048-11.853-.024-3.021-.023-1.004m-1.494 196.953c0-.018-.256-.036-.755-.053l-2.216-.05-8.517-.089-31.328-.085-103.355.525-103.367.83-31.324.245-8.516.106-2.215.054-.755.054a8.33 8.33 0 0 0 .755.052l2.215.05 8.517.09 31.326.085 103.372-.525 103.35-.83 31.325-.246 8.517-.106 2.216-.053.755-.054"/></g><use xlink:href="#X" fill="#80b3ff"/><path d="M129.451 358.958a3.52 3.52 0 0 0-3.517-3.517 3.52 3.52 0 0 0-3.517 3.517 3.52 3.52 0 0 0 3.517 3.517 3.52 3.52 0 0 0 3.517-3.517" class="H"/><path d="M143.519 358.958a3.52 3.52 0 0 0-3.517-3.517 3.52 3.52 0 0 0-3.517 3.517 3.52 3.52 0 0 0 3.517 3.517 3.52 3.52 0 0 0 3.517-3.517" fill="#06f"/><g stroke="#aaa7a7"><path d="M209.314 166.637h-61.379v45.948h61.379z" stroke-width=".15" class="J"/><path d="M276.721 166.637h-61.379v45.948h61.379z" fill="#e6e6e6" class="E"/><path d="M355.284 166.637h-61.38v45.948h61.38z" fill="#ccc" stroke-width=".15"/></g></g><g clip-path="url(#K)"><path d="M460.806 322.093c-1.869 34.642-38.068 52.066-56.59 54.314l-14.817-17.448c11.934 1.795 41.602-14.765 43.05-26.748s-7.682-27.294-19.701-28.393c-9.441-.864-25.175 7.513-31.173.171-15.136 13.481-40.993 12.37-54.915-2.362-10.709 3.832-23.14 2.494-32.789-3.529s-16.309-16.604-17.569-27.908l55.743-32.363s23.239-20.821 39.073-7.986c5.409 4.384 7.469 10.674 7.974 16.735 1.059-.124 2.138-.063 3.16.209 4.024 1.072 7.003 4.679 8.315 8.63.169.508.304 1.027.424 1.55 13.536-2.97 31.997.396 42.887 7.195 15.827 9.88 27.934 39.303 26.928 57.933" class="D"/><g class="B"><path d="M385.517 297.287c-.008-.004-.077.087-.205.271l-.555.824-.929 1.316-1.361 1.726c-2.116 2.514-5.584 5.962-10.832 8.712a34.7 34.7 0 0 1-9.039 3.277c-3.385.728-7.125.993-10.992.494-7.703-.914-15.982-4.712-21.999-11.432-.834-.9-1.564-1.875-2.253-2.776l-.135-.177-.192.096c-7.717 3.836-16.324 4.316-23.468 2.604-1.803-.402-3.498-1.012-5.123-1.643-1.595-.703-3.129-1.436-4.537-2.273-2.848-1.623-5.289-3.481-7.289-5.405-4.027-3.853-6.195-7.914-7.28-10.793-.298-.716-.502-1.372-.678-1.942a15.05 15.05 0 0 1-.415-1.448l-.235-.897c-.055-.202-.087-.305-.096-.303s.008.108.047.313l.185.911a13.43 13.43 0 0 0 .37 1.467c.161.577.353 1.242.638 1.968 1.035 2.919 3.177 7.053 7.215 10.982 2.006 1.961 4.46 3.857 7.326 5.511 1.418.855 2.96 1.602 4.576 2.323 1.644.648 3.36 1.273 5.186 1.688 7.236 1.762 15.966 1.296 23.81-2.598l-.327-.081c.699.916 1.441 1.907 2.287 2.822 6.112 6.823 14.515 10.658 22.33 11.559 3.922.493 7.718.207 11.141-.548a34.82 34.82 0 0 0 9.12-3.374 35.25 35.25 0 0 0 10.816-8.908c.544-.63.955-1.246 1.33-1.764a15.34 15.34 0 0 0 .891-1.35l.513-.853c.113-.193.167-.295.159-.299m10.773 7.239c-.056-.081-.778.449-2.097.942-.655.255-1.471.454-2.387.584-.92.103-1.943.121-3.003-.015-1.059-.154-2.039-.445-2.898-.792-.847-.371-1.58-.782-2.143-1.204-1.138-.828-1.691-1.533-1.766-1.47-.028.022.091.21.335.536.234.332.646.759 1.206 1.226.556.475 1.301.94 2.177 1.352.886.388 1.91.708 3.018.868 1.111.143 2.183.11 3.141-.026.954-.162 1.796-.409 2.459-.718.664-.299 1.176-.6 1.491-.858.322-.247.488-.396.467-.425m15.751-21.068c-.022-.042-.565.281-1.637.664-1.065.375-2.701.788-4.752.674-2.029-.108-4.506-.791-6.621-2.554-2.105-1.722-3.842-4.47-4.21-7.676l-.047-.412-.348.225a17.77 17.77 0 0 1-3.666 1.799c-3.509 1.272-7.195 1.355-10.332.648-3.151-.731-5.737-2.237-7.607-3.803-1.884-1.574-3.091-3.183-3.839-4.331-.741-1.159-1.059-1.858-1.105-1.835-.016.007.053.186.2.52.14.339.388.818.733 1.422.703 1.193 1.883 2.864 3.773 4.505a18.43 18.43 0 0 0 7.736 3.989c3.219.754 7.008.683 10.617-.625 1.358-.484 2.635-1.12 3.77-1.857l-.395-.187c.396 3.359 2.226 6.203 4.433 7.97 2.222 1.812 4.807 2.479 6.893 2.543 2.111.07 3.77-.408 4.833-.842a8.21 8.21 0 0 0 1.189-.581c.26-.155.39-.242.382-.256m43.181 58.867c.016.008.154-.232.403-.699l1.052-2.065c.828-1.832 1.933-4.545 2.8-8.047s1.468-7.776 1.514-12.544c.01-2.382-.087-4.887-.379-7.463-.259-2.58-.698-5.233-1.28-7.918-2.339-10.765-6.608-19.917-10.462-25.983-1.912-3.054-3.74-5.34-5.099-6.825-.695-.73-1.237-1.293-1.641-1.638-.393-.356-.604-.535-.617-.522s.176.219.544.598c.379.368.895.95 1.562 1.696 1.305 1.518 3.078 3.823 4.939 6.885 3.752 6.083 7.941 15.204 10.265 25.899.579 2.668 1.018 5.302 1.282 7.862.296 2.558.404 5.042.406 7.406-.019 4.731-.573 8.98-1.392 12.462s-1.86 6.2-2.627 8.049c-.393.921-.749 1.615-.96 2.1-.219.481-.327.738-.31.747m-27.658-1.352c.022.021.368-.306.927-.959s1.303-1.657 2.07-2.995c1.538-2.647 3.028-6.822 2.877-11.571a22.26 22.26 0 0 0-3.614-11.364c-.851-1.286-1.658-2.241-2.259-2.855s-.965-.92-.985-.899c-.082.073 1.334 1.365 2.933 3.951 1.599 2.554 3.254 6.55 3.405 11.184s-1.249 8.726-2.68 11.377c-1.43 2.683-2.76 4.064-2.674 4.131"/></g><path d="M390.902 367.83c2.545-3.911 5.889-7.291 9.747-9.913 2.522-1.712 5.769.823 4.754 3.697l-.027.076a131.17 131.17 0 0 1 14.275-9.512c3.168-1.824 6.887 1.284 5.634 4.717-4.908 13.456-14.785 25.106-27.41 31.912z" fill="#06f"/><g clip-path="url(#L)" opacity=".3"><path d="M396.663 367.352c.441-.663.9-1.343 1.564-1.784s1.589-.587 2.247-.136c.982.673.944 2.295 1.959 2.919 1.079.662 2.407-.269 3.323-1.142l2.905-2.77c.712-.678 1.671-1.41 2.58-1.035 1.007.415 1.068 1.812.85 2.878-1.016 4.941-4.632 9.27-9.314 11.148z"/></g><path d="M435.163 343.528c-.093-1.754 1.396-3.44 3.149-3.565s3.465 1.334 3.622 3.083-1.269 3.489-3.015 3.679-3.512-1.205-3.734-2.947" class="K"/><path d="M251.295 464.191c-2.814-4.387 3.353-19.727 17.491-39.373 13.921-19.343 29.964-30.182 29.964-30.182l81.538-52.306 13.782 21.485 7.988 12.452 13.782 21.485-73.992 47.464c-7.229 4.638-14.87 8.609-22.849 11.788-6.862 2.734-15.468 5.694-24.623 7.705-23.547 5.17-40.267 3.869-43.081-.518" class="D"/><path d="M364.749 430.526l.3.103c17.544 5.897 36.819 3.477 52.398-6.517l9.772-6.268-25.931-10.757z" class="K"/><path d="M364.749 430.526c.005 0 .068-.039.188-.114l.53-.332 2.03-1.285 7.582-4.816 26.295-16.757-.147.013 23.631 9.817 2.294.952-.027-.305-5.76 3.697-5.607 3.538a61.84 61.84 0 0 1-11.281 5.3c-3.747 1.338-7.443 2.182-10.928 2.714-1.738.31-3.441.416-5.069.581-1.634.058-3.202.181-4.7.123a60.38 60.38 0 0 1-14.031-1.743c-1.636-.351-2.861-.786-3.71-1.014l-1.29-.369a4.88 4.88 0 0 0 .317.126l.953.308c.842.25 2.064.705 3.698 1.077 3.234.841 8.04 1.775 14.06 1.855 1.504.065 3.078-.05 4.721-.101 1.635-.159 3.347-.259 5.094-.564 3.502-.523 7.22-1.36 10.988-2.696 3.771-1.318 7.609-3.069 11.351-5.309 1.885-1.1 3.717-2.337 5.619-3.538l5.762-3.695.277-.178-.305-.126-2.294-.952-23.64-9.794-.079-.033-.07.046-26.315 16.992-7.493 4.855-1.979 1.286-.504.33c-.111.074-.165.111-.161.111" class="B"/><path d="M329.197 375.104l.03-.311c1.929-18.154 12.026-34.441 27.392-44.298l9.638-6.183-1.019 27.672z" class="K"/><path d="M329.197 375.104c-.003.004.053-.029.165-.099l.503-.315 1.967-1.245 7.434-4.721 26.058-16.605.071-.045.003-.084.941-25.223.09-2.449.012-.329-.277.178-5.682 3.646-5.483 3.583c-3.547 2.434-6.697 5.155-9.428 7.994-2.748 2.829-5.027 5.818-6.936 8.744-.993 1.441-1.786 2.933-2.6 4.334-.722 1.452-1.473 2.816-2.032 4.192-2.405 5.431-3.542 10.123-4.119 13.369-.338 1.618-.432 2.9-.555 3.759l-.115.98c-.018.233-.017.336-.017.336l.199-1.308c.145-.855.26-2.132.617-3.743a59.7 59.7 0 0 1 4.208-13.296c.566-1.367 1.32-2.722 2.044-4.164.818-1.391 1.613-2.874 2.606-4.304 1.91-2.906 4.187-5.873 6.927-8.681 2.724-2.817 5.861-5.519 9.39-7.934 1.749-1.227 3.62-2.365 5.479-3.573l5.682-3.643-.264-.152-.091 2.448-.916 25.225.073-.129-25.837 16.685-7.435 4.817-1.988 1.292-.515.338c-.117.077-.177.118-.179.122" class="B"/><path d="M251.295 464.191c-2.302-3.309 1.02-13.338 9.121-26.759l21.935 29.549c-15.775 1.947-28.099 1.46-31.056-2.79" fill="#06f"/><path d="M367.366 350.616l34.873 55.07" class="D"/><use xlink:href="#Y" class="B"/><path d="M369.68 348.785l34.873 55.069" class="D"/><path d="M404.553 403.855c.081-.051-7.661-12.421-17.29-27.625l-17.583-27.444c-.081.05 7.66 12.418 17.292 27.628l17.581 27.441" class="B"/><path d="M372.316 347.156l34.873 55.07" class="D"/><path d="M407.189 402.225c.081-.051-7.661-12.421-17.29-27.626l-17.583-27.444c-.08.051 7.66 12.419 17.292 27.629l17.581 27.441" class="B"/><path d="M374.952 345.526l34.873 55.07" class="D"/><path d="M409.825 400.596c.081-.051-7.661-12.421-17.29-27.626l-17.583-27.444c-.081.051 7.66 12.419 17.292 27.629l17.581 27.441" class="B"/><path d="M377.588 343.897l34.873 55.069" class="D"/><g class="B"><path d="M412.461 398.967c.081-.051-7.661-12.421-17.29-27.626l-17.583-27.444c-.08.051 7.66 12.419 17.292 27.629l17.581 27.441m-65.358 3.918c.003.011.146-.051.419-.183.281-.124.651-.361 1.148-.644l4.111-2.533 13.378-8.64 13.279-8.795 3.997-2.706 1.077-.75.362-.282s-.144.067-.401.223l-1.112.697-4.058 2.614-13.334 8.709-13.32 8.725-4.049 2.624-1.107.695-.39.246"/><path d="M364.749 430.526c.08-.051-7.737-12.401-17.458-27.581l-17.751-27.397c-.08.052 7.735 12.399 17.46 27.583l17.749 27.395m12.093-40.449c-.017-.002-.068.172-.023.493s.215.782.643 1.189c.406.404 1.161.731 1.941.486.752-.217 1.484-.912 1.585-1.858.076-.949-.517-1.767-1.215-2.12-.722-.383-1.524-.201-1.997.121-.497.321-.751.748-.853 1.05s-.084.488-.066.489c.029.004.057-.168.19-.437a2.13 2.13 0 0 1 .855-.893c.447-.263 1.123-.386 1.723-.048.59.312 1.086 1.033 1.02 1.806-.077.772-.698 1.389-1.335 1.586-.653.221-1.294-.023-1.685-.364a2.13 2.13 0 0 1-.676-1.035c-.081-.29-.077-.464-.107-.465m-15.571 10.401c-.018-.002-.069.172-.024.493s.215.782.644 1.189c.406.404 1.16.731 1.941.486.752-.217 1.484-.912 1.585-1.858.075-.949-.517-1.767-1.216-2.12-.722-.383-1.523-.201-1.997.121-.496.321-.751.748-.852 1.05s-.085.488-.067.489c.029.004.058-.167.191-.437a2.12 2.12 0 0 1 .855-.893c.446-.263 1.123-.386 1.722-.048.591.312 1.086 1.033 1.021 1.806-.078.771-.698 1.389-1.336 1.586-.652.222-1.294-.023-1.685-.364a2.13 2.13 0 0 1-.675-1.035c-.081-.29-.078-.464-.107-.465m-29.986 7.241c-.018-.002-.068.172-.024.493s.216.782.644 1.19c.406.403 1.16.73 1.941.485.752-.217 1.484-.912 1.585-1.858.076-.949-.517-1.767-1.216-2.12-.722-.383-1.523-.201-1.996.121-.497.321-.752.748-.853 1.05s-.084.488-.067.489c.029.004.058-.167.191-.437a2.12 2.12 0 0 1 .855-.893c.446-.263 1.123-.386 1.722-.048.591.312 1.086 1.033 1.021 1.806-.078.772-.698 1.389-1.335 1.586-.653.222-1.294-.023-1.686-.364a2.13 2.13 0 0 1-.675-1.035c-.081-.29-.077-.464-.107-.465"/><path d="M317.934 410.966c.059.078 5.778-3.074 12.773-7.04l12.561-7.324c-.059-.078-5.777 3.074-12.774 7.041l-12.56 7.323"/></g><g clip-path="url(#M)" opacity=".3"><path d="M364.296 352.589s-23.315 15.723-35.099 22.515c4.069-5.836 8.764-12.458 14.413-16.779 5.707-4.365 13.543-6.523 20.686-5.736"/></g><path d="M327.197 426.433c-.62-10.875-9.938-19.188-20.813-18.568s-19.188 9.938-18.568 20.812 9.938 19.188 20.813 18.568 19.187-9.937 18.568-20.812" class="C"/><g class="B"><path d="M327.197 426.433c-.009 0-.018.109-.024.321l-.021.937a9.72 9.72 0 0 1-.092 1.517c-.063.598-.117 1.289-.304 2.049-.268 1.534-.882 3.364-1.899 5.322a19.56 19.56 0 0 1-4.665 5.809c-2.115 1.779-4.82 3.343-8.001 4.092-3.16.727-6.766.83-10.269-.279-1.76-.501-3.475-1.313-5.07-2.37-.82-.498-1.55-1.138-2.31-1.75-.696-.687-1.422-1.356-2.033-2.146-2.573-3.044-4.154-7.058-4.433-11.27-.202-4.217.912-8.386 3.123-11.704.517-.854 1.163-1.602 1.775-2.363.686-.695 1.338-1.415 2.098-2.002 1.463-1.232 3.076-2.233 4.768-2.932 3.353-1.5 6.949-1.807 10.171-1.443 3.246.382 6.111 1.629 8.415 3.157 2.311 1.543 4.054 3.419 5.294 5.241 1.232 1.83 2.051 3.578 2.491 5.072.272.733.404 1.414.535 2.001.152.583.222 1.086.264 1.496l.126.929c.032.209.052.316.061.316s.006-.109-.008-.32l-.075-.938a9.03 9.03 0 0 0-.216-1.514c-.116-.594-.234-1.285-.494-2.03-.415-1.52-1.215-3.302-2.442-5.175a19.72 19.72 0 0 0-5.33-5.383c-2.333-1.577-5.25-2.87-8.566-3.281-3.291-.391-6.972-.093-10.416 1.432-1.735.709-3.392 1.73-4.896 2.99-.781.601-1.452 1.336-2.157 2.048-.63.779-1.294 1.546-1.826 2.421-1.095 1.714-2.029 3.606-2.544 5.657-.538 2.04-.766 4.189-.671 6.355.285 4.323 1.915 8.446 4.56 11.565.628.809 1.375 1.495 2.09 2.197.781.627 1.531 1.281 2.374 1.789 1.638 1.081 3.399 1.906 5.204 2.415 3.595 1.123 7.285 1.001 10.511.238 3.247-.784 5.998-2.401 8.136-4.232a19.7 19.7 0 0 0 4.685-5.953c1.007-2 1.6-3.863 1.839-5.419.174-.77.212-1.47.26-2.074.068-.603.064-1.115.043-1.529l-.033-.941c-.009-.211-.019-.318-.028-.318m-75.902 37.758a3.46 3.46 0 0 0 .13.192c.082.132.231.308.452.521.439.423 1.201.949 2.305 1.408 2.207.925 5.715 1.603 10.259 1.789 4.547.199 10.141-.058 16.587-.895 6.44-.852 13.762-2.194 21.692-4.436 3.962-1.127 8.074-2.471 12.306-4.036s8.59-3.353 12.977-5.495 8.824-4.589 13.236-7.382l13.577-8.689 61.163-39.2.217-.139-.14-.217-17.77-27.708-17.782-27.713-.138-.217-.217.139-61.145 39.259-13.561 8.714-6.476 4.162c-2.107 1.421-4.052 2.964-5.944 4.51-7.536 6.215-13.838 12.772-19.093 19.112-5.191 6.403-9.352 12.565-12.769 18.09-3.407 5.534-5.994 10.494-7.755 14.689-1.77 4.189-2.684 7.64-2.803 10.031-.06 1.194.089 2.107.289 2.684.1.29.197.499.283.629a3.72 3.72 0 0 0 .12.198c.028-.014-.182-.26-.357-.842-.182-.575-.315-1.48-.24-2.664.149-2.37 1.087-5.797 2.878-9.963 1.782-4.174 4.389-9.11 7.812-14.621 3.433-5.502 7.611-11.645 12.805-18.014 5.26-6.31 11.56-12.836 19.086-19.017 1.885-1.534 3.837-3.076 5.918-4.473l6.482-4.151 13.574-8.693 61.173-39.207-.355-.077 17.776 27.716 17.777 27.705.077-.355-61.131 39.25-13.562 8.708a137.06 137.06 0 0 1-13.181 7.383c-4.371 2.145-8.71 3.936-12.931 5.508s-8.32 2.923-12.269 4.058c-7.905 2.259-15.209 3.623-21.634 4.499-6.43.861-12.01 1.146-16.544.975-4.533-.157-8.03-.803-10.231-1.692-1.101-.442-1.862-.948-2.308-1.355-.453-.405-.591-.697-.615-.678"/></g></g><g clip-path="url(#N)"><path d="M332.046 237.827H158.382c-11.34 0-20.534 9.193-20.534 20.534s9.194 20.534 20.534 20.534h173.664c11.34 0 20.533-9.193 20.533-20.534s-9.193-20.534-20.533-20.534" class="C"/><path d="M332.046 237.827l1.227.089c.405.025.911.036 1.502.153s1.292.16 2.05.395l1.215.318 1.312.477.7.264.704.342c.474.244.994.448 1.475.773 1.998 1.147 4.125 2.841 5.953 5.223l1.301 1.905c.437.663.787 1.395 1.137 2.149.384.74.604 1.571.923 2.381l.326 1.281.166.651.103.672.206 1.366.069 1.409.032.715-.038.722-.09 1.465a21.75 21.75 0 0 1-1.584 5.92c-1.704 3.883-4.814 7.514-9.062 9.813-2.119 1.144-4.517 1.913-7.036 2.226-2.517.287-5.166.142-7.856.175l-168.387-.077c-2.032-.041-4.047-.322-5.984-.896-1.92-.623-3.743-1.499-5.417-2.606-1.649-1.143-3.117-2.518-4.387-4.051-1.258-1.547-2.237-3.292-3.008-5.109-.761-1.829-1.17-3.772-1.396-5.718-.161-1.957-.06-3.921.294-5.836.419-1.899 1.021-3.757 1.931-5.464.93-1.687 2.016-3.295 3.367-4.657 2.661-2.747 6.068-4.734 9.725-5.606.901-.279 1.844-.34 2.764-.504.937-.036 1.856-.131 2.804-.109l5.623-.002 21.882-.009 75.704-.055 51.036-.083 13.876-.049 3.609-.026 1.229-.027s-.417-.018-1.229-.026l-3.609-.026-13.876-.05-51.036-.082-75.704-.055-21.882-.009-5.623-.002c-.937-.023-1.903.072-2.856.11-.942.166-1.909.231-2.832.514-3.75.894-7.244 2.927-9.973 5.741-1.384 1.397-2.5 3.043-3.452 4.774-.935 1.75-1.554 3.655-1.983 5.602a22.66 22.66 0 0 0-.303 5.984c.23 1.995.65 3.989 1.43 5.865.789 1.864 1.794 3.654 3.084 5.24 1.302 1.573 2.808 2.983 4.499 4.155a22.74 22.74 0 0 0 5.556 2.673c1.987.59 4.055.879 6.137.92l168.387-.076c2.694-.04 5.321.102 7.9-.195 2.562-.325 4.999-1.114 7.149-2.282 4.311-2.348 7.456-6.044 9.172-9.989.836-1.987 1.357-4.017 1.586-6.008.051-.497.056-.994.086-1.484l.035-.731-.035-.724-.075-1.426-.214-1.382-.108-.679-.169-.659-.337-1.295c-.326-.818-.552-1.657-.943-2.403-.358-.761-.716-1.5-1.159-2.167-.393-.698-.864-1.317-1.325-1.919-1.859-2.395-4.015-4.091-6.036-5.233-.487-.322-1.013-.525-1.491-.767l-.712-.339-.707-.259c-.463-.164-.9-.335-1.324-.468l-1.224-.309c-.765-.227-1.471-.266-2.065-.37s-1.102-.111-1.51-.128l-1.229-.036" class="B"/><path d="M333.304 259.485a9.14 9.14 0 0 0-9.137-9.137 9.14 9.14 0 0 0-9.136 9.137 9.14 9.14 0 0 0 9.136 9.137 9.14 9.14 0 0 0 9.137-9.137" class="C"/><g class="B"><path d="M324.168 268.121a8.65 8.65 0 0 1-8.637-8.637 8.65 8.65 0 0 1 8.637-8.636 8.65 8.65 0 0 1 8.637 8.636 8.65 8.65 0 0 1-8.637 8.637m0-18.273a9.65 9.65 0 0 0-9.637 9.636 9.65 9.65 0 0 0 9.637 9.637 9.65 9.65 0 0 0 9.637-9.637 9.65 9.65 0 0 0-9.637-9.636"/><path d="M338.996 248.783l-7.733 4.883.533.846 7.733-4.883z"/></g></g><g clip-path="url(#O)" class="B"><path d="M166.689 255.034l.753 1.672a5.65 5.65 0 0 1 3.166-1.001c1.315 0 1.85.439 1.85 1.028 0 1.795-5.577.562-5.577 4.125 0 1.63 1.315 2.987 4.042 2.987 1.206 0 2.439-.288 3.329-.85l-.685-1.685c-.89.507-1.808.753-2.658.753-1.315 0-1.822-.493-1.822-1.096 0-1.767 5.577-.548 5.577-4.069 0-1.604-1.329-2.974-4.07-2.974-1.521 0-3.055.452-3.905 1.11m10.918 3.385h3.631c-.151.932-.85 1.535-1.809 1.535-.972 0-1.672-.59-1.822-1.535m5.604-1.247h-5.577c.206-.918.987-1.48 2.11-1.48.781 0 1.343.233 1.85.713l1.138-1.234c-.686-.781-1.713-1.192-3.042-1.192-2.549 0-4.207 1.604-4.207 3.796 0 2.206 1.686 3.795 3.933 3.795 2.165 0 3.836-1.452 3.836-3.822 0-.165-.027-.398-.041-.576m5.641-.754v.753h-1.466c-1 0-1.315-.37-1.315-.863 0-.534.452-.89 1.205-.89.713 0 1.329.329 1.576 1m2.138 1.877v-4.207h-2.001v.918c-.397-.671-1.164-1.027-2.247-1.027-1.726 0-2.754.959-2.754 2.233 0 1.302.918 2.206 3.165 2.206h1.699c0 .918-.548 1.453-1.699 1.453-.781 0-1.589-.261-2.124-.685l-.767 1.493c.808.576 2.001.891 3.179.891 2.247 0 3.549-1.042 3.549-3.275m6.505 3.275v-1.973l-.479.027c-1.179 0-1.96-.644-1.96-2.055v-3.48h-2.138v7.372h2.042v-.974c.521.713 1.398 1.083 2.535 1.083m.656-3.795c0 2.22 1.713 3.795 4.111 3.795 1.548 0 2.767-.671 3.302-1.877l-1.658-.891c-.398.7-.986 1.015-1.658 1.015-1.082 0-1.932-.754-1.932-2.042s.85-2.042 1.932-2.042c.672 0 1.26.302 1.658 1.014l1.658-.904c-.535-1.178-1.754-1.864-3.302-1.864-2.398 0-4.111 1.576-4.111 3.796m16.125.534v-4.22h-2.138v3.891c0 1.192-.548 1.741-1.493 1.741-1.028 0-1.768-.631-1.768-1.987v-3.645h-2.138v10.167h2.138v-3.563c.576.576 1.398.877 2.343.877 1.741 0 3.056-1.014 3.056-3.261"/><use xlink:href="#Z"/><path d="M219.272 255.322c0 .794.589 1.315 1.329 1.315s1.329-.521 1.329-1.315c0-.781-.589-1.343-1.329-1.343s-1.329.562-1.329 1.343m3.589 0c0 .794.589 1.315 1.329 1.315s1.329-.521 1.329-1.315c0-.781-.589-1.343-1.329-1.343s-1.329.562-1.329 1.343"/></g><g clip-path="url(#P)"><use xlink:href="#a" class="G"/><g clip-path="url(#Q)" opacity=".3"><use xlink:href="#a"/></g><path d="M306.113 113.875l-16.185 2.363-1.057 2.913c-.686 1.889-2.443 3.273-4.537 3.575l-15.826 2.275c-2.817.405-5.408-1.405-5.788-4.043l-.264-1.846-6.985-48.567c-.43-2.997 1.815-5.8 5.015-6.26l64.284-9.244c3.2-.46 6.144 1.597 6.574 4.594l6.598 45.88c.294 2.047-1.126 3.945-3.173 4.239z" class="G"/><path d="M316.77 77.803l-38.258 5.501 2.315 16.097 38.257-5.502z" class="C"/><g class="B"><path d="M312.174 87.651c-.021-.143-5.923.588-13.181 1.632s-13.128 2.006-13.107 2.148 5.921-.589 13.182-1.633 13.126-2.004 13.106-2.147m-.494-3.429c-.021-.143-5.923.588-13.181 1.632s-13.128 2.006-13.107 2.147 5.921-.588 13.182-1.632 13.127-2.004 13.106-2.147"/></g><path d="M375.927 84.26a3.41 3.41 0 0 0-4.406 1.967l-10.605 27.702c-.539 1.409.243 3.019 1.749 3.596l2.605.997c1.063.406 1.807 1.355 1.907 2.429l.125 1.35c.099 1.075.844 2.023 1.906 2.431l12.365 4.732c.964.369 2.039.234 2.827-.355l.975-.73c.788-.59 1.863-.724 2.826-.356l15.763 6.034c1.506.576 3.163-.1 3.702-1.509l10.846-28.333c.674-1.761-.207-3.733-1.967-4.407z" fill="#04a"/><path d="M386.647 127.428l-10.036-3.816-1.537 1.332c-.997.864-2.447 1.096-3.744.599l-9.801-3.752c-1.745-.667-2.653-2.533-2.027-4.167l.438-1.143 11.514-30.079c.711-1.857 2.893-2.746 4.876-1.989l39.813 15.242c1.983.758 3.014 2.877 2.303 4.734l-10.877 28.416a2.46 2.46 0 0 1-3.175 1.416z" class="H"/><path d="M404.284 110.15l-23.695-9.07-3.817 9.969 23.696 9.071z" class="C"/><g class="B"><path d="M398.501 114.328c.052-.134-3.552-1.639-8.047-3.359l-8.234-2.873c-.051.134 3.552 1.638 8.048 3.359l8.233 2.873m.812-2.123c.052-.135-3.552-1.639-8.047-3.359l-8.233-2.873c-.052.133 3.551 1.637 8.048 3.359l8.232 2.873"/></g></g><g clip-path="url(#S)"><path d="M116.703 51.36l-.609-29.077 38.275-.902c-.133 3.461-19.751 10.865-19.751 10.865l1.199 18.615z" class="G"/><g clip-path="url(#T)" class="F C"><path d="M122.824 34.093c-.746-.175-1.278-.949-1.125-1.661s.982-1.23 1.731-1.068 1.419 1.074 1.183 1.764-1.247 1.249-1.933.923"/></g><g clip-path="url(#U)" class="F C"><path d="M116.094 22.283l.183 2.929 36.628-1.959s1.686-.741 1.463-1.871z"/></g><g class="B"><path d="M135.243 32.416c-.011-.177-.947-.234-1.882-.781-.95-.524-1.444-1.278-1.614-1.203-.171.039.135 1.088 1.279 1.73 1.137.652 2.262.415 2.217.254m3.973-1.664c.038-.172-.779-.453-1.434-1.186-.676-.713-.858-1.517-1.044-1.505-.176-.024-.278 1.013.554 1.909.823.902 1.924.951 1.924.782"/><path d="M141.376 26.157c-.17-.033-.407.855.098 1.812.498.959 1.39 1.32 1.465 1.17.102-.147-.48-.653-.882-1.444-.421-.781-.494-1.524-.681-1.538m-6.358 10.529c-.083-.159-.934.105-1.992.062-1.059-.023-1.89-.338-1.983-.184-.105.13.715.765 1.962.799 1.246.043 2.109-.54 2.013-.677M134.22 41c0-.073-.741-.165-1.917.055a8.91 8.91 0 0 0-1.99.629c-.358.162-.724.353-1.086.578-.174.111-.38.224-.568.44-.202.189-.307.66-.061.942.204.273.554.384.83.383.283.003.51-.056.716-.11a7.14 7.14 0 0 0 1.182-.414c.723-.332 1.307-.743 1.739-1.139.867-.798 1.153-1.465 1.088-1.497-.086-.056-.504.507-1.39 1.169-.443.33-1.009.674-1.686.951-.339.137-.705.256-1.092.347-.403.11-.748.121-.856-.048-.04-.063-.045-.089.037-.203.085-.105.246-.211.417-.321.333-.217.669-.407.998-.571.66-.329 1.292-.557 1.836-.714 1.089-.316 1.809-.381 1.803-.477"/><path d="M133.97 40.753c-.067-.026-.421.615-.459 1.762-.018.567.063 1.254.313 1.976.127.361.297.729.518 1.089.233.352.52.824 1.247.886.379.005.686-.282.787-.525.12-.247.139-.458.179-.668a3.81 3.81 0 0 0-.031-1.22c-.14-.768-.491-1.4-.868-1.853-.772-.919-1.558-1.112-1.572-1.051-.06.089.6.416 1.197 1.302.293.438.56 1.018.65 1.689a3.51 3.51 0 0 1-.007 1.048c-.05.385-.194.699-.348.663-.189.007-.521-.275-.686-.577-.205-.32-.37-.648-.501-.971-.256-.649-.378-1.272-.419-1.799-.08-1.061.103-1.727 0-1.751"/></g><path d="M87.695 48.945l-3.657-28.853-37.993 4.715c.638 3.405 21.129 7.854 21.129 7.854l1.541 18.591z" class="G"/><g clip-path="url(#V)" class="F C"><path d="M79.111 32.76c.712-.281 1.125-1.126.87-1.808s-1.152-1.072-1.87-.802-1.246 1.269-.911 1.918 1.416 1.053 2.047.63"/></g><g clip-path="url(#W)" class="F C"><path d="M84.038 20.093l.248 2.923-36.52 3.429s-1.776-.487-1.722-1.637z"/></g><g class="B"><path d="M66.58 32.921c-.015-.177.903-.371 1.747-1.049.863-.656 1.242-1.474 1.42-1.426.176.013.026 1.096-1.011 1.899-1.03.812-2.177.742-2.156.576m-4.174-1.064c-.063-.165.704-.563 1.244-1.383.566-.805.628-1.628.813-1.643.171-.049.424.963-.268 1.97-.682 1.013-1.765 1.222-1.789 1.056"/><path d="M59.596 27.629c.164-.059.528.786.168 1.806-.352 1.022-1.181 1.509-1.277 1.373-.122-.131.379-.717.661-1.558.302-.835.266-1.581.448-1.621m7.832 9.484c.059-.17.939-.033 1.979-.231 1.045-.177 1.82-.612 1.935-.473.123.113-.595.861-1.824 1.078-1.226.225-2.165-.226-2.09-.374m1.421 4.149c-.011-.072.709-.271 1.904-.227a8.96 8.96 0 0 1 2.061.331c.378.107.768.243 1.159.413.188.085.409.166.626.351.228.157.401.609.198.923-.161.3-.49.462-.764.502a2.72 2.72 0 0 1-.725-.005 7.19 7.19 0 0 1-1.23-.236 6.82 6.82 0 0 1-1.886-.871c-.975-.662-1.356-1.281-1.296-1.323.077-.068.573.428 1.547.954.485.261 1.096.518 1.806.693a7.34 7.34 0 0 0 1.131.182c.415.051.758.011.84-.171.03-.07.032-.095-.066-.197-.099-.091-.275-.172-.46-.256a10.13 10.13 0 0 0-1.071-.418 10.94 10.94 0 0 0-1.92-.439c-1.123-.151-1.846-.111-1.854-.206"/><path d="M69.06 40.981c.063-.035.507.548.713 1.675.099.559.121 1.25-.021 2.002a5.76 5.76 0 0 1-.352 1.152c-.18.383-.394.892-1.104 1.059-.374.06-.72-.179-.855-.403-.155-.227-.206-.433-.276-.635a3.81 3.81 0 0 1-.147-1.211c.026-.781.28-1.457.586-1.96.63-1.023 1.379-1.328 1.402-1.271.073.08-.533.499-.993 1.464-.226.476-.405 1.089-.397 1.765.003.338.051.69.161 1.036.106.374.295.663.441.605.189-.02.475-.347.594-.672a5.88 5.88 0 0 0 .353-1.034 6.18 6.18 0 0 0 .151-1.841c-.076-1.06-.353-1.692-.256-1.731"/><path d="M146.392 205.685l-59.594-1.905-13.657-100.309-8.661-68.033 25.203-.884 6.73 37.161c1.839 10.047 5.196 24.787 6.106 33.176s15.65 66.976 15.65 66.976l-1.064-70.801c.025-2.794-2.913-66.458-2.913-66.458h25.025c1.293 11.49 4.364 57.472 5.025 66.764l5.511 76.286c.549 12.111-3.361 28.027-3.361 28.027"/></g><g class="G"><path d="M142.465 205.227c-.12 0-.218.957-.218 2.138s.098 2.136.218 2.136.218-.956.218-2.136-.097-2.138-.218-2.138m2.475-1.125c-.113-.019-.375 1.21-.244 2.739.123 1.531.586 2.698.694 2.66.121-.035-.141-1.218-.26-2.696l-.19-2.703m-22.26 4.466c.018-.077-.664.006-1.261-.703-.278-.337-.517-.863-.412-1.412.087-.55.614-1.017 1.262-1.139s1.31.116 1.593.596c.299.472.27 1.05.135 1.465-.296.879-.961 1.051-.916 1.117.005.019.168.022.422-.11s.575-.422.782-.898c.193-.466.284-1.148-.081-1.783-.356-.653-1.23-.975-2.016-.815-.79.14-1.484.76-1.576 1.497-.106.725.229 1.327.579 1.689.366.367.776.522 1.057.549s.435-.033.432-.053M95.207 105.083c-.045-.111-2.903.957-6.382 2.386l-6.217 2.789c.045.111 2.903-.957 6.383-2.386l6.216-2.789"/></g><path d="M91.968 346.644c.197 3.469 2.33 5.603 5.319 7.375s6.866 1.947 10.003.453c2.098-.999 3.935-2.705 6.24-3.002 3.796-.49 7.388 3.027 11.113 2.149 2.205-.52 3.885-2.726 3.8-4.99s-1.925-4.338-4.162-4.691c2.485-.36 3.893-3.504 2.974-5.841s-3.528-3.694-6.039-3.748-4.924.97-7.096 2.231-4.2 2.777-6.465 3.861-4.872 1.718-7.298 1.071c-3.286-.874-5.614-3.976-6.472-7.266s-.487-6.766.023-10.128 1.159-6.752.839-10.137c-.037-.397-.126-.852-.475-1.045-.505-.278-1.084.198-1.455.639a49.89 49.89 0 0 0-9.38 16.991c-1.147 3.604-1.779 7.112-.403 10.634s6.015 6.875 8.934 5.444" class="B"/><path d="M88.768 329.879l5.555-34.272c1.037-6.4 5.196-12.584 15.24-10.483 8.577 2.48 7.939 8.65 6.822 16.256 0 0 .029-.293 0 0 0 0 9.435 2.455 8.59 12.049-.409 4.637-2.028 14.118-3.591 22.679-1.679 9.194-10.149 15.55-19.448 14.615l-.924-.093c-9.911-1.584-14.103-10.887-12.244-20.751" class="L"/><path d="M116.385 301.38s-6.004-.961-12.848 2.434c0 0 3.763-7.128 13.238-5.303z" class="I"/><g class="B"><path d="M119.502 327.722c.098-.72-.431-1.397-1.181-1.513s-1.436.371-1.535 1.092.431 1.398 1.179 1.514 1.438-.373 1.537-1.093m.296 3.475c-.152-.195-1.266.468-2.738.315-1.473-.13-2.477-.996-2.655-.832-.086.072.054.412.49.801.429.388 1.186.799 2.103.887s1.724-.172 2.202-.473c.488-.302.673-.61.598-.698m-13.706-5.597c.098-.72-.431-1.397-1.181-1.513s-1.436.371-1.534 1.092.43 1.397 1.179 1.513 1.438-.372 1.536-1.092m-.465 3.871c-.152-.195-1.267.467-2.738.315-1.473-.13-2.478-.996-2.656-.832-.086.072.053.411.491.801.428.388 1.185.799 2.103.888s1.723-.173 2.202-.474c.486-.302.673-.61.598-.698m6.166-10.387c-.016.083.884.333 2.348.672.373.077.721.187.758.45.061.281-.136.67-.363 1.089l-1.4 2.752-3.25 7.239c.158.077 1.871-3.039 3.825-6.96l1.355-2.774c.185-.413.479-.873.344-1.456-.074-.291-.329-.523-.563-.612-.234-.098-.446-.123-.63-.153-1.485-.23-2.41-.33-2.424-.247m-6.643 16.193c-.105-.416-1.594-.373-3.301-.755-1.715-.348-3.057-.994-3.322-.658-.12.162.085.563.609 1.007s1.374.901 2.4 1.12 1.991.149 2.646-.044 1.011-.474.968-.67m13.677.128c-.225-.36-1.274-.115-2.496-.222-1.225-.063-2.23-.451-2.503-.125-.121.16.007.511.427.873.413.36 1.131.693 1.972.752s1.598-.173 2.057-.473c.465-.3.641-.63.543-.805"/></g><path d="M90.264 322.862c-.171.055-6.78 1.286-5.912-5.245s7.245-4.312 7.231-4.123-1.319 9.368-1.319 9.368" class="L"/><path d="M89.259 315.703c-.032.017-.104-.095-.284-.208s-.49-.213-.848-.131c-.723.161-1.45 1.18-1.638 2.352a3.79 3.79 0 0 0 .102 1.671c.136.504.4.879.74.987.335.126.608-.049.713-.222.111-.171.087-.307.123-.314.021-.013.126.128.037.391a.73.73 0 0 1-.311.375c-.174.106-.413.141-.651.083-.499-.102-.891-.626-1.054-1.171a3.91 3.91 0 0 1-.153-1.873c.218-1.31 1.055-2.452 2.035-2.599.475-.059.84.131 1.018.311.18.188.195.339.171.348" class="I"/><path d="M120.601 345.043c-1.042 1.797-2.714 3.15-4.489 4.23-3.826 2.328-8.363 3.562-12.825 3.182s-8.817-2.431-11.729-5.833c-2.33-2.724-3.68-6.21-4.111-9.768s.023-7.186 1.005-10.633c.431-1.513 1.012-3.07 2.207-4.093.747-.639 1.954-.988 2.669-.314.421.396.527 1.015.611 1.588.752 5.182 1.45 10.743-.892 15.427 1.088 1.758 2.394 3.425 4.096 4.601s3.843 1.82 5.87 1.412c3.011-.605 5.096-3.265 7.626-5.007a13.91 13.91 0 0 1 12.573-1.534z" class="B"/><path d="M113.089 315.105c-.105-.615-.214-1.24-.489-1.8s-.745-1.056-1.349-1.212c-.644-.167-1.351.086-1.827.551s-.74 1.112-.847 1.768c-.096.594.026 1.351.596 1.543.237.08.496.036.742-.009l3.332-.603" class="I"/><path d="M112.391 312.322c-.036.093-.652-.322-1.68-.14-.497.089-1.076.349-1.473.866-.396.51-.612 1.267-.461 2 .032.182.101.357.172.515.095.153.073.143.21.151.132-.008.354-.06.532-.09l.548-.1 1.898-.319c1.084-.165 1.762-.23 1.777-.154s-.635.278-1.699.542l-1.875.437-.544.119c-.195.035-.348.088-.609.113-.127.009-.301-.008-.453-.108s-.226-.231-.282-.339a2.67 2.67 0 0 1-.224-.655c-.185-.915.096-1.825.608-2.437.523-.624 1.245-.886 1.823-.934.587-.054 1.055.086 1.341.227s.41.278.391.306" class="B"/><g class="L"><path d="M136.743 329.205l1.544.418 24.128-23.456 19.542-2.353s-.194 5.91-7.549 13.451c-6.561 6.726-21.909 14.75-27.103 18.875-1.297 1.029-2.251 1.342-2.251 1.342z"/><path d="M136.731 340.364l-2.469.692-5.819 2.763-6.622-2.464s.147-2.266 1.892-1.648l-6.939-2.289s.569-1.643.881-1.753-4.071-.478-4.071-.478-.039-2.23 4.143-2.187 5.76.752 5.76.752l3.332-.888-.134-1.981-4.532.066.206-2.543c.665-.315 5.845-.891 5.845-.891s7.002-.102 8.897.811l4.318 2.236 3.635 6.921z"/></g><g class="I"><path d="M130.483 339.186c-.043-.055-.396.136-1 .411-.597.294-1.453.631-2.354 1.25l.301-.005-.267-.176c-.973-.617-1.994-.906-2.731-1s-1.202-.023-1.203.042c-.02.156 1.825.232 3.657 1.399l.25.163.153.1.148-.105c.808-.569 1.661-.982 2.218-1.358.571-.363.87-.669.828-.721m-2.137-3.521c.012-.044-.441-.16-1.12.122-.686.251-1.419.967-2.366 1.403l.24.02c-.398-.27-.848-.532-1.335-.761a9.63 9.63 0 0 0-3.744-.921c-.991-.032-1.592.113-1.585.175-.009.157 2.464-.047 5.107 1.217.463.218.894.46 1.28.706l.124.079.116-.059c1.075-.544 1.71-1.28 2.3-1.576.57-.329.985-.332.983-.405m6.205-2.173c-.027-.083-.515.071-1.304.061-.782-.004-1.882-.22-2.881-.869-.618-.402-1.1-.915-1.424-1.411l-.059-.09-.089-.016c-1.401-.263-2.358-.386-2.379-.289s.898.387 2.281.737l-.148-.106c.324.574.849 1.167 1.534 1.612 1.108.72 2.343.894 3.182.799.851-.089 1.311-.378 1.287-.428"/><path d="M141.419 330.562c.005-.008-.064-.054-.203-.137l-.622-.352-2.42-1.312c-.528-.265-1.094-.653-1.832-.823-.717-.182-1.507-.289-2.356-.376-1.699-.17-3.637-.241-5.785-.239h-.007l-.008.001-2.605.266c-.92.13-1.819.172-2.856.486l-.101.031-.021.132-.457 2.795-.045.276.281-.012 4.314-.174-.252-.225.129 1.98.182-.254-3.333.883.168.013c-1.619-.565-3.285-.679-5.007-.76-.851-.027-1.745-.044-2.636.131-.869.166-1.838.553-2.365 1.437-.142.263-.245.521-.258.862l-.009.233.248.022 3.072.296.743.098.16.032c-.011-.013.015.016-.063-.049-.061-.057-.078-.172-.057-.224-.02-.088.181-.207.142-.174a.55.55 0 0 0-.162.109c-.138.139-.195.254-.265.374-.253.476-.428.945-.601 1.426l-.089.246.251.082 6.942 2.277.159-.463c-.272-.078-.561-.158-.871-.096-.306.048-.591.223-.781.447-.379.461-.499.983-.559 1.512l-.019.174.173.064 6.63 2.441.086.031.08-.038 5.804-2.795-.027.011 2.429-.7 2.116-.751 3.368-1.211 2.109-.78.721-.303c-.006-.016-.264.056-.753.208l-2.139.691-3.391 1.129-2.126.713-2.431.662-.013.004-.015.007-5.834 2.73.165-.007-6.613-2.487.154.238c.047-.43.179-.916.449-1.226.266-.32.688-.363 1.124-.207l.159-.463-6.935-2.3.163.328c.164-.456.345-.929.568-1.344a1.17 1.17 0 0 1 .166-.247.47.47 0 0 1-.054-.119l-.003-.009-.001-.004c.096.259.037.068.063.123a.3.3 0 0 0 .074-.046c.048-.041.08-.101.092-.147.016-.058-.005-.179-.072-.242-.082-.073-.064-.046-.078-.058a.6.6 0 0 0-.094-.035c-.085-.023-.145-.032-.214-.044l-.77-.103-3.089-.3.238.255c.007-.17.083-.41.191-.596.394-.671 1.207-1.035 2.015-1.184.82-.162 1.665-.151 2.515-.124 1.673.067 3.379.207 4.818.704l.097.033.072-.019 3.33-.895.196-.053-.013-.201-.139-1.981-.016-.236-.236.011-4.312.2.236.265.436-2.798-.122.163c.83-.254 1.84-.347 2.718-.472l2.592-.292-.015.001 5.751.158c.841.072 1.624.164 2.32.325.695.141 1.259.507 1.801.762l2.464 1.217.647.305c.147.066.225.095.229.087m-8.363 7.529c.105-.084-.898-1.428-2.569-2.612-1.665-1.193-3.263-1.703-3.307-1.575-.061.14 1.397.846 3.004 1.999l2.872 2.188"/></g><g class="H"><path d="M181.787 304.539l-19.372 1.628-22.831-8.69-5.032-3.058 7.145-24.398s35.789 21.086 37.311 22.891c4.686 5.553 2.779 11.627 2.779 11.627"/><path d="M78.388 286.591l-6.661-4.134 15.379-60.544-2.786-34.858c3.97-3.46 14.001-6.432 33.03-5.353s31.687 9.313 31.687 9.313l-1.82 35.907-4.325 40.519-4.895 27.697-14.642-1.058-5.701 3.38-2.56-1.28-3.281-9.094-8.547 6.17-9.998 4.819-3.651-6.816z"/></g><g class="B"><path d="M137.998 288.093c.034.011.22-.469.527-1.347l1.19-3.756c.943-3.19 2.07-7.654 2.961-12.656s1.368-9.584 1.582-12.904c.108-1.66.166-3.004.177-3.935s.005-1.445-.031-1.446-.095.51-.172 1.436l-.341 3.916c-.307 3.303-.844 7.858-1.727 12.842-.889 4.982-1.954 9.441-2.803 12.649l-1.03 3.794c-.247.895-.367 1.396-.333 1.407m-28.918-.481c-.009-.029-.529.079-1.376.507a8.77 8.77 0 0 0-3.027 2.587l.36.099a33.78 33.78 0 0 0-1.782-8.745l-.112-.322-.282.194-.703.484-8.773 6.143-2.625 1.911-.922.759s.388-.183 1.037-.592l2.719-1.775 8.86-6.017.703-.485-.393-.129c1.116 3.188 1.652 6.239 1.877 8.607l.051.541.308-.442c.933-1.337 2.029-2.147 2.812-2.624l1.268-.701m13.693 5.353c.078-.075-1.269-1.594-3.254-3.694l-.181-.191-.176.205c-.62.722-1.35 1.477-2.175 2.203l-1.24 1.016-.609.444c-.09.063-.139.06-.121.06.006.015-.049-.042-.085-.144l-.935-2.381-.988-2.15c-.068.025.183.893.642 2.278l.833 2.424c.05.117.102.308.343.425.256.101.466-.022.58-.093l.646-.455 1.279-1.033a19.28 19.28 0 0 0 2.199-2.287l-.357.014 3.599 3.359"/></g><g class="G"><path d="M133.577 105.59c11.832 2.237 22.458 9.942 27.917 21.667 4.356 9.36 4.807 19.858 1.269 29.559s-10.642 17.442-20.003 21.798-19.859 4.81-29.559 1.27-17.443-10.642-21.8-20.003-4.808-19.858-1.269-29.559 10.641-17.442 20.003-21.798c7.599-3.538 15.774-4.384 23.442-2.934m-14.771 78.684c8.22 1.554 16.979.648 25.125-3.144 10.032-4.669 17.646-12.967 21.438-23.363s3.31-21.648-1.36-31.681c-9.64-20.711-34.333-29.718-55.045-20.078-10.033 4.67-17.647 12.968-21.439 23.364a41.15 41.15 0 0 0 1.361 31.68c5.849 12.565 17.24 20.824 29.92 23.222"/><path d="M126.469 180.244c-4.237 0-8.484-.744-12.583-2.239-9.199-3.356-16.54-10.092-20.672-18.969s-4.559-18.83-1.203-28.028 10.09-16.54 18.967-20.672a36.37 36.37 0 0 1 22.227-2.781c11.612 2.196 21.509 9.876 26.475 20.544a36.42 36.42 0 0 1 1.204 28.03 36.41 36.41 0 0 1-18.968 20.672c-4.922 2.291-10.176 3.443-15.447 3.443m-.084-80.118c-6.239 0-12.45 1.361-18.266 4.068-10.517 4.896-18.498 13.594-22.473 24.491s-3.469 22.693 1.427 33.21c5.885 12.643 17.609 21.744 31.361 24.343 8.959 1.693 18.067.556 26.341-3.295a43.15 43.15 0 0 0 22.473-24.491c3.975-10.898 3.469-22.693-1.426-33.21-4.888-10.502-13.588-18.477-24.499-22.456-4.867-1.776-9.912-2.66-14.938-2.66"/><path d="M25.668 184.047l.368.902c.786 1.933 2.508 3.058 3.846 2.514l60.541-24.632c.299-.122.399-.57.223-1.001l-2.58-6.34c-.175-.431-.559-.682-.857-.56l-60.542 24.632c-1.338.544-1.786 2.552-.999 4.485"/></g><g class="L"><path d="M82.214 253.757l-7.283-24.09 3.65-49.095-10.737-1.356s-12.307 41.838-11.08 49.348 6.198 29.574 6.198 29.574z"/><path d="M78.555 180.921l5-8.539 3.124-8.028-4.716 1.857s-2.019-9.657-2.812-9.915-3.062.532-2.832 2.385c0 0-1.132-1.137-2.549-.842s-1.755 1.21-1.599 2.973c0 0-1.653-1.346-2.64-.507s-.894 2.299-.894 2.299-2.151-.187-2.447.931-.372 4.301-.119 5.516l1.285 6.175.488 3.991z"/></g><g class="I"><path d="M77.381 164.249c-.122.022-.458-1.205-.751-2.743s-.433-2.804-.311-2.826.457 1.204.75 2.742.433 2.804.312 2.827m-4.385 1.115c-.121.024-.42-.954-.667-2.186s-.349-2.249-.228-2.273.419.954.666 2.186.35 2.249.229 2.273"/><path d="M69.343 166.391c-.134.009-.234-.864-.392-1.893-.168-1.024-.437-1.844-.315-1.895.103-.049.575.725.757 1.822.165 1.09.062 1.961-.05 1.966m12.984 2.606c-.124.022-.437-1.188-.799-2.681s-.634-2.714-.513-2.751c.115-.036.584 1.137.947 2.646s.485 2.765.365 2.786"/></g><path d="M56.175 212.341c0 .817-3.366 12.264-2.343 18.191s13.222 45.998 14.858 48.86 5.214 4.415 5.214 4.415 7.255-3.393 9.708-12.183 2.454-19.828 2.454-19.828l-9.812-24.326 1.171-13.817z" class="H"/><g class="B"><path d="M85.436 252.601c-.099.008.091 1.795-.006 4.676-.04 1.44-.201 3.15-.485 5.03a45.23 45.23 0 0 1-1.419 6.017c-.673 2.09-1.48 4.024-2.304 5.738-.85 1.702-1.704 3.192-2.501 4.393l-2.687 3.826c.027.023.338-.3.879-.907.549-.598 1.278-1.524 2.114-2.714.843-1.185 1.74-2.673 2.624-4.384a41.53 41.53 0 0 0 2.371-5.795 41.51 41.51 0 0 0 1.397-6.102c.263-1.907.386-3.64.379-5.095.002-1.454-.061-2.63-.166-3.436l-.196-1.247m-.629-5.089c.063-.024-.305-1.191-1.015-3.034l-3.025-7.094-3.159-7.022-1.355-2.893c-.063.023.304 1.19 1.015 3.033l3.025 7.096 3.159 7.02 1.355 2.894"/><path d="M76.822 226.527c-.087-.145-2.829 1.772-6.722 2.923-3.883 1.189-7.227 1.102-7.22 1.271-.002.063.828.166 2.177.115s3.213-.294 5.193-.887 3.668-1.422 4.819-2.124 1.789-1.247 1.753-1.298"/></g><g class="C"><path d="M140.681 157.617c.093-.109-7.791-7.009-17.607-15.408l-17.947-15.013c-.093.109 7.789 7.007 17.609 15.409l17.945 15.012m10.14 0c.094-.109-6.546-5.971-14.829-13.09l-15.17-12.696c-.093.109 6.545 5.97 14.831 13.091l15.168 12.695"/></g><g class="B"><path d="M165.754 143.569l-.059.636-.12 1.866-.082 1.373-.249 1.642-.304 1.913c-.082.687-.337 1.384-.514 2.142-.692 3.036-2.112 6.623-4.353 10.426a39.07 39.07 0 0 1-9.955 11.099l-1.692 1.259c-.594.39-1.22.747-1.839 1.128-.632.359-1.23.796-1.908 1.103l-2.03.974-1.033.489-1.085.394-2.2.802c-.747.247-1.53.405-2.303.616-.782.177-1.551.452-2.366.535-1.616.229-3.249.563-4.942.572-.843.029-1.692.111-2.548.097l-2.586-.133c-.433-.031-.872-.028-1.305-.085l-1.303-.201c-.87-.144-1.754-.246-2.629-.426-1.724-.47-3.511-.821-5.209-1.53-1.753-.561-3.401-1.426-5.094-2.239-.825-.447-1.616-.969-2.433-1.453-.399-.256-.826-.475-1.207-.763l-1.15-.861c-1.587-1.09-2.976-2.453-4.43-3.766-1.314-1.454-2.694-2.877-3.826-4.526l-.899-1.202-.786-1.285-.785-1.293c-.273-.426-.523-.866-.728-1.332l-1.326-2.754-1.059-2.892a41.75 41.75 0 0 1-2.016-12.319c.056-4.238.74-8.403 2.013-12.324l1.059-2.893 1.326-2.755.334-.683.394-.65.785-1.293.786-1.286.899-1.201c1.133-1.65 2.513-3.074 3.827-4.528 1.454-1.314 2.843-2.677 4.431-3.767l1.15-.861c.381-.289.807-.508 1.207-.764.817-.484 1.608-1.006 2.433-1.453 1.694-.813 3.342-1.679 5.095-2.239 1.698-.71 3.485-1.061 5.21-1.53.875-.181 1.759-.283 2.629-.427l1.303-.201c.434-.057.872-.054 1.305-.085l2.587-.133c.856-.013 1.705.069 2.548.098 1.693.009 3.326.343 4.942.572.816.083 1.585.358 2.366.535.774.211 1.557.369 2.304.617l2.2.801 1.085.395 1.032.489 2.031.974c.677.308 1.276.744 1.907 1.103.619.381 1.246.738 1.839 1.128l1.692 1.259c4.438 3.358 7.696 7.314 9.954 11.1 2.24 3.803 3.661 7.39 4.353 10.425.176.758.432 1.455.513 2.142l.304 1.912c.089.593.197 1.139.249 1.642l.082 1.373.12 1.865c.03.421.059.637.059.637s.007-.216-.005-.638l-.069-1.87-.057-1.38c-.045-.506-.145-1.053-.225-1.65l-.282-1.925c-.074-.691-.322-1.394-.493-2.158-.665-3.059-2.066-6.679-4.299-10.525-2.251-3.828-5.516-7.834-9.981-11.243l-1.702-1.278c-.598-.396-1.229-.759-1.852-1.146-.637-.366-1.241-.808-1.923-1.122l-2.048-.99-1.042-.498-1.094-.403-2.221-.817c-.755-.253-1.545-.416-2.327-.63-.79-.182-1.567-.462-2.39-.549-1.634-.237-3.285-.577-4.997-.592-.852-.031-1.711-.116-2.576-.105l-2.617.129c-.438.03-.882.027-1.321.083l-1.319.2c-.88.143-1.775.246-2.661.426-1.747.471-3.556.824-5.276 1.538-1.776.566-3.447 1.439-5.163 2.259-.836.452-1.638.979-2.466 1.468-.405.259-.837.479-1.223.771l-1.166.872c-1.609 1.101-3.018 2.479-4.492 3.809-1.333 1.47-2.732 2.912-3.881 4.582l-.911 1.218-.798 1.301-.796 1.31-.4.657-.338.693-1.345 2.79-1.076 2.932c-1.292 3.972-1.985 8.193-2.041 12.487.056 4.292.752 8.512 2.044 12.482l1.076 2.931 1.344 2.789c.208.472.462.918.739 1.35l.796 1.309.798 1.301.91 1.217c1.15 1.67 2.548 3.111 3.881 4.581 1.474 1.329 2.883 2.707 4.492 3.808l1.166.871c.385.292.817.512 1.223.771.827.489 1.629 1.016 2.465 1.467 1.716.821 3.386 1.694 5.162 2.26 1.72.713 3.529 1.066 5.276 1.537.885.181 1.78.283 2.66.426l1.319.201c.439.056.882.053 1.321.083l2.616.129c.866.01 1.725-.074 2.576-.106 1.712-.015 3.363-.354 4.996-.591.824-.088 1.601-.367 2.391-.549.782-.214 1.571-.377 2.326-.629l2.221-.818 1.095-.402 1.042-.498 2.047-.991c.683-.313 1.287-.755 1.923-1.121.624-.387 1.254-.75 1.852-1.146l1.703-1.278a39.19 39.19 0 0 0 9.982-11.244c2.234-3.844 3.634-7.465 4.3-10.524.17-.764.418-1.467.493-2.159l.282-1.924c.08-.598.18-1.145.225-1.651l.057-1.38.069-1.871c.012-.421.005-.637.005-.637m-14.509-20.867c-.031.027.34.488.985 1.338s1.539 2.108 2.503 3.748c1.935 3.256 4.02 8.203 4.626 13.983a35.26 35.26 0 0 1-1.623 14.641c-.602 1.804-1.213 3.223-1.67 4.186s-.723 1.492-.686 1.512c.015.009.101-.112.25-.351.143-.244.372-.593.617-1.071.516-.94 1.184-2.348 1.837-4.156 1.32-3.593 2.411-8.94 1.792-14.815s-2.791-10.878-4.827-14.119c-1.015-1.633-1.961-2.872-2.66-3.685-.339-.416-.636-.71-.826-.918s-.304-.305-.318-.293m-2.073-3.595c.071-.125-.238-.436-.69-.694s-.877-.367-.949-.242.238.436.691.694.877.367.948.242"/></g><g class="C"><path d="M97.612 126.736c-.017-.007-.1.155-.243.47l-.588 1.395c-.484 1.223-1.081 3.038-1.586 5.34-1.031 4.574-1.448 11.271.44 18.261s5.621 12.569 8.813 16.002c1.597 1.734 3.026 3.002 4.06 3.814.505.421.933.703 1.21.909.283.201.436.298.447.285.026-.036-.54-.491-1.527-1.349s-2.369-2.156-3.915-3.905c-3.095-3.465-6.724-8.997-8.585-15.892s-1.512-13.498-.583-18.051c.455-2.289.994-4.108 1.417-5.345s.681-1.917.64-1.934m23.211 49.016c.012-.143-1.025-.347-2.315-.454s-2.348-.078-2.36.064 1.025.347 2.316.455 2.347.079 2.359-.065"/></g></g></g></svg>