<svg xmlns="http://www.w3.org/2000/svg" width="500" height="500" style="width: 100%; height: 100%; content-visibility: visible;"><defs><clipPath id="a"><path d="M0 0h500v500H0z" class="wsJNhhzO_0"></path></clipPath><clipPath id="b"><path d="M0 0h500v500H0z" class="wsJNhhzO_1"></path></clipPath></defs><g clip-path="url(#a)"><g clip-path="url(#b)" transform="matrix(.9 0 0 .9 25 25)" display="block"><path stroke-linecap="round" stroke-linejoin="round" stroke="#2F80E8" stroke-width="12.915" d="M249.913 434.497c-62.837 0-113.777-82.604-113.777-184.5 0-101.895 50.94-184.5 113.777-184.5M249.913 434.497c.307-32.287.613-82.604.613-184.5 0-101.895-.306-126.382-.613-184.5" fill="none" display="block" class="wsJNhhzO_2"></path><path stroke-linecap="round" stroke-linejoin="round" stroke="#2F80E8" stroke-width="12.915" d="M249.913 434.497c64.874 0 117.464-82.604 117.464-184.5 0-101.895-52.59-184.5-117.464-184.5M65.413 249.997h369" fill="none" display="block" class="wsJNhhzO_3"></path><path stroke-linecap="round" stroke-linejoin="round" stroke="#2F80E8" stroke-width="12.915" d="M369.2 109.268c-32.14 16.826-73.763 26.974-119.26 26.974-45.499 0-87.122-10.148-119.299-26.974M130.641 390.734c32.14-16.826 73.764-26.974 119.261-26.974 45.498 0 87.121 10.148 119.298 26.974" fill="none" display="block" class="wsJNhhzO_4"></path></g><path stroke-linecap="round" stroke-linejoin="round" stroke="#FFF" stroke-width="11.6235" d="M415.975 250c0 91.706-74.344 166.05-166.05 166.05-91.706 0-166.05-74.344-166.05-166.05 0-91.706 74.344-166.05 166.05-166.05 91.706 0 166.05 74.344 166.05 166.05z" fill="none" display="block" class="wsJNhhzO_5"></path></g><style data-made-with="vivus-instant">.wsJNhhzO_0{stroke-dasharray:2000 2002;stroke-dashoffset:2001;animation:wsJNhhzO_draw_0 7200ms ease 0ms infinite,wsJNhhzO_fade 7200ms linear 0ms infinite;}.wsJNhhzO_1{stroke-dasharray:2000 2002;stroke-dashoffset:2001;animation:wsJNhhzO_draw_1 7200ms ease 0ms infinite,wsJNhhzO_fade 7200ms linear 0ms infinite;}.wsJNhhzO_2{stroke-dasharray:845 847;stroke-dashoffset:846;animation:wsJNhhzO_draw_2 7200ms ease 0ms infinite,wsJNhhzO_fade 7200ms linear 0ms infinite;}.wsJNhhzO_3{stroke-dasharray:850 852;stroke-dashoffset:851;animation:wsJNhhzO_draw_3 7200ms ease 0ms infinite,wsJNhhzO_fade 7200ms linear 0ms infinite;}.wsJNhhzO_4{stroke-dasharray:494 496;stroke-dashoffset:495;animation:wsJNhhzO_draw_4 7200ms ease 0ms infinite,wsJNhhzO_fade 7200ms linear 0ms infinite;}.wsJNhhzO_5{stroke-dasharray:1044 1046;stroke-dashoffset:1045;animation:wsJNhhzO_draw_5 7200ms ease 0ms infinite,wsJNhhzO_fade 7200ms linear 0ms infinite;}@keyframes wsJNhhzO_draw{100%{stroke-dashoffset:0;}}@keyframes wsJNhhzO_fade{0%{stroke-opacity:1;}94.44444444444444%{stroke-opacity:1;}100%{stroke-opacity:0;}}@keyframes wsJNhhzO_draw_0{11.11111111111111%{stroke-dashoffset: 2001}38.88888888888889%{ stroke-dashoffset: 0;}100%{ stroke-dashoffset: 0;}}@keyframes wsJNhhzO_draw_1{13.88888888888889%{stroke-dashoffset: 2001}41.66666666666667%{ stroke-dashoffset: 0;}100%{ stroke-dashoffset: 0;}}@keyframes wsJNhhzO_draw_2{16.666666666666664%{stroke-dashoffset: 846}44.44444444444444%{ stroke-dashoffset: 0;}100%{ stroke-dashoffset: 0;}}@keyframes wsJNhhzO_draw_3{19.444444444444446%{stroke-dashoffset: 851}47.22222222222222%{ stroke-dashoffset: 0;}100%{ stroke-dashoffset: 0;}}@keyframes wsJNhhzO_draw_4{22.22222222222222%{stroke-dashoffset: 495}50%{ stroke-dashoffset: 0;}100%{ stroke-dashoffset: 0;}}@keyframes wsJNhhzO_draw_5{25%{stroke-dashoffset: 1045}52.77777777777778%{ stroke-dashoffset: 0;}100%{ stroke-dashoffset: 0;}}</style></svg>