<?xml version="1.0" encoding="UTF-8" standalone="no"?>
<svg
   viewBox="0 0 1015.0412 680.31494"
   version="1.1"
   id="svg2234"
   sodipodi:docname="Website-Maintenance-JWS-Aruba.svg"
   inkscape:version="1.1.1 (3bf5ae0d25, 2021-09-20)"
   width="1015.0413"
   height="680.31494"
   xmlns:inkscape="http://www.inkscape.org/namespaces/inkscape"
   xmlns:sodipodi="http://sodipodi.sourceforge.net/DTD/sodipodi-0.dtd"
   xmlns="http://www.w3.org/2000/svg"
   xmlns:svg="http://www.w3.org/2000/svg">
  <defs
     id="defs2238" />
  <sodipodi:namedview
     id="namedview2236"
     pagecolor="#ffffff"
     bordercolor="#666666"
     borderopacity="1.0"
     inkscape:pageshadow="2"
     inkscape:pageopacity="0.0"
     inkscape:pagecheckerboard="0"
     showgrid="false"
     inkscape:zoom="0.55366461"
     inkscape:cx="577.06415"
     inkscape:cy="266.40677"
     inkscape:window-width="1920"
     inkscape:window-height="1001"
     inkscape:window-x="-9"
     inkscape:window-y="-9"
     inkscape:window-maximized="1"
     inkscape:current-layer="svg2234" />
  <g
     id="freepik--background-complete--inject-470"
     transform="matrix(1.5932462,0,0,1.657203,-89.476706,-78.070833)">
    <path
       d="m 625.1228,216.55101 5.89,-9.49 -2.94,-1.8 a 2.67,2.67 0 0 1 -1.23,-2.5 13.25,13.25 0 0 0 0.05,-1.67 2.68,2.68 0 0 1 1.39,-2.41 l 3,-1.61 -5.21,-9.85 -3,1.65 a 2.66,2.66 0 0 1 -2.77,-0.18 c -0.46,-0.32 -0.94,-0.61 -1.42,-0.88 a 2.64,2.64 0 0 1 -1.4,-2.41 l 0.11,-3.42 -11.17,-0.34 -0.1,3.43 a 2.67,2.67 0 0 1 -1.56,2.31 c -0.24,0.11 -0.49,0.24 -0.73,0.37 -0.24,0.13 -0.48,0.26 -0.72,0.41 a 2.68,2.68 0 0 1 -2.77,0 l -2.93,-1.82 -5.92,9.53 2.91,1.81 a 2.66,2.66 0 0 1 1.23,2.5 15.35,15.35 0 0 0 -0.06,1.66 2.66,2.66 0 0 1 -1.38,2.41 l -3,1.62 5.28,9.84 3,-1.61 a 2.64,2.64 0 0 1 2.77,0.17 16,16 0 0 0 1.42,0.88 2.66,2.66 0 0 1 1.4,2.41 l -0.11,3.42 11.16,0.35 0.11,-3.43 a 2.66,2.66 0 0 1 1.55,-2.3 c 0.25,-0.12 0.5,-0.24 0.74,-0.38 l 0.72,-0.4 a 2.67,2.67 0 0 1 2.79,0 z m -9.45,-7.05 a 9.14,9.14 0 1 1 3.75,-12.38 9.14,9.14 0 0 1 -3.75,12.38 z"
       style="fill:#ebebeb"
       id="path1532" />
    <path
       d="M 127,332.79 123.07,326 121,327.2 a 1.85,1.85 0 0 1 -2,-0.07 10.14,10.14 0 0 0 -1,-0.58 1.86,1.86 0 0 1 -1,-1.66 v -2.39 h -7.83 v 2.39 a 1.86,1.86 0 0 1 -1,1.66 10.14,10.14 0 0 0 -1,0.58 1.85,1.85 0 0 1 -2,0.07 l -2.07,-1.2 -3.91,6.78 2.08,1.2 a 1.85,1.85 0 0 1 0.91,1.72 c 0,0.19 0,0.39 0,0.58 0,0.19 0,0.38 0,0.57 a 1.84,1.84 0 0 1 -0.91,1.72 l -2.08,1.21 3.91,6.78 2.08,-1.2 a 1.85,1.85 0 0 1 2,0.07 c 0.32,0.21 0.66,0.4 1,0.58 a 1.85,1.85 0 0 1 1,1.65 v 2.4 H 117 v -2.4 a 1.85,1.85 0 0 1 1,-1.65 c 0.34,-0.18 0.68,-0.37 1,-0.58 a 1.85,1.85 0 0 1 1.95,-0.07 l 2.08,1.2 3.91,-6.78 -2.08,-1.2 a 1.86,1.86 0 0 1 -0.9,-1.72 c 0,-0.19 0,-0.39 0,-0.58 0,-0.19 0,-0.39 0,-0.58 a 1.85,1.85 0 0 1 0.91,-1.72 z m -7.48,3.5 a 6.41,6.41 0 1 1 -6.4,-6.41 6.39,6.39 0 0 1 6.38,6.41 z"
       style="fill:#ebebeb"
       id="path1534" />
    <path
       d="m 95.18,233.09 a 30.47,30.47 0 1 0 30.47,30.47 30.46,30.46 0 0 0 -30.47,-30.47 z m 0,44.69 a 14.23,14.23 0 1 1 14.23,-14.22 14.22,14.22 0 0 1 -14.23,14.22 z"
       style="fill:#ebebeb"
       id="path1536" />
    <polygon
       points="101.04,234.35 89.32,234.35 89.97,226.06 100.39,226.06 "
       style="fill:#ebebeb"
       id="polygon1538" />
    <polygon
       points="78.73,238.3 70.45,246.58 65.04,240.26 72.41,232.89 "
       style="fill:#ebebeb"
       id="polygon1540" />
    <polygon
       points="65.76,256.86 65.76,268.58 57.46,267.93 57.46,257.51 "
       style="fill:#ebebeb"
       id="polygon1542" />
    <polygon
       points="69.7,279.16 77.99,287.45 71.67,292.86 64.3,285.49 "
       style="fill:#ebebeb"
       id="polygon1544" />
    <polygon
       points="88.27,292.14 99.98,292.14 99.34,300.44 88.92,300.44 "
       style="fill:#ebebeb"
       id="polygon1546" />
    <polygon
       points="110.57,288.19 118.86,279.91 124.26,286.23 116.89,293.6 "
       style="fill:#ebebeb"
       id="polygon1548" />
    <polygon
       points="123.55,269.63 123.55,257.91 131.84,258.56 131.84,268.99 "
       style="fill:#ebebeb"
       id="polygon1550" />
    <polygon
       points="119.6,247.33 111.32,239.04 117.64,233.64 125.01,241 "
       style="fill:#ebebeb"
       id="polygon1552" />
    <path
       d="m 655.87,82.83 a 30.48,30.48 0 1 0 30.48,30.48 30.47,30.47 0 0 0 -30.48,-30.48 z m 0,44.7 a 14.23,14.23 0 1 1 14.24,-14.22 14.22,14.22 0 0 1 -14.24,14.22 z"
       style="fill:#ebebeb"
       id="path1554" />
    <polygon
       points="661.73,84.1 650.01,84.1 650.66,75.8 661.09,75.8 "
       style="fill:#ebebeb"
       id="polygon1556" />
    <polygon
       points="639.43,88.05 631.14,96.33 625.74,90.01 633.11,82.64 "
       style="fill:#ebebeb"
       id="polygon1558" />
    <polygon
       points="626.45,106.61 626.45,118.33 618.16,117.68 618.16,107.26 "
       style="fill:#ebebeb"
       id="polygon1560" />
    <polygon
       points="630.4,128.91 638.68,137.2 632.36,142.6 624.99,135.24 "
       style="fill:#ebebeb"
       id="polygon1562" />
    <polygon
       points="648.96,141.89 660.68,141.89 660.03,150.19 649.61,150.19 "
       style="fill:#ebebeb"
       id="polygon1564" />
    <polygon
       points="671.26,137.94 679.55,129.66 684.96,135.98 677.59,143.35 "
       style="fill:#ebebeb"
       id="polygon1566" />
    <polygon
       points="684.24,119.38 684.24,107.66 692.54,108.31 692.54,118.73 "
       style="fill:#ebebeb"
       id="polygon1568" />
    <polygon
       points="680.3,97.08 672.01,88.79 678.33,83.38 685.7,90.75 "
       style="fill:#ebebeb"
       id="polygon1570" />
    <polygon
       points="548.15,363.9 557.8,304.71 558.86,298.22 559.84,292.18 575.63,292.18 574.64,298.22 573.59,304.71 563.93,363.9 "
       style="fill:#ebebeb"
       id="polygon1572" />
    <path
       d="m 573.34,292.18 c -0.83,6 -1.73,12 -2.63,18 l -2.78,17.94 -2.93,17.88 -1.5,9 -1.56,8.94 1.28,-9 1.35,-9 2.78,-17.94 2.92,-17.92 c 0.99,-5.97 2,-11.94 3.07,-17.9 z"
       style="fill:#c7c7c7"
       id="path1574" />
    <polygon
       points="574.64,298.22 573.59,304.71 557.8,304.71 558.86,298.22 "
       style="fill:#c7c7c7"
       id="polygon1576" />
    <polygon
       points="681.04,363.9 671.39,304.71 670.33,298.22 669.35,292.18 653.56,292.18 654.54,298.22 655.6,304.71 665.25,363.9 "
       style="fill:#ebebeb"
       id="polygon1578" />
    <path
       d="m 655.9,292.18 c 0.83,6 1.72,12 2.63,18 l 2.78,17.94 2.92,17.88 1.5,8.95 1.57,8.94 -1.28,-9 -1.35,-9 L 661.89,328 659,310.07 c -1,-5.96 -2,-11.93 -3.1,-17.89 z"
       style="fill:#c7c7c7"
       id="path1580" />
    <polygon
       points="654.54,298.22 670.33,298.22 671.39,304.71 655.6,304.71 "
       style="fill:#c7c7c7"
       id="polygon1582" />
    <polygon
       points="575.05,275.53 562.53,275.53 564.09,263.86 573.5,263.86 "
       style="fill:#c7c7c7"
       id="polygon1584" />
    <path
       d="m 580.46,255.52 a 11.67,11.67 0 1 1 -11.67,-11.66 11.66,11.66 0 0 1 11.67,11.66 z"
       style="fill:#dbdbdb"
       id="path1586" />
    <path
       d="m 577.66,255.52 a 8.87,8.87 0 1 1 -8.87,-8.86 8.87,8.87 0 0 1 8.87,8.86 z"
       style="fill:#ffffff"
       id="path1588" />
    <path
       d="m 576.21,255 a 7.67,7.67 0 0 0 -2.9,-5.44 7.82,7.82 0 0 0 -6,-1.56 7.48,7.48 0 0 0 -5.13,3.33 7.85,7.85 0 0 0 -0.94,6.4 7.38,7.38 0 0 0 3.47,4.38 7.7,7.7 0 0 0 5.42,0.83 8,8 0 0 0 4.56,-2.78 8.4,8.4 0 0 0 1.87,-4.94 c 0,-0.09 0,-0.16 -0.07,-0.16 -0.07,0 -0.08,0.06 -0.08,0.15 a 7.81,7.81 0 0 1 -0.42,2.14 8.28,8.28 0 0 1 -1,1.92 8.78,8.78 0 0 1 -1.45,1.6 9.51,9.51 0 0 1 -1.84,1.19 7.42,7.42 0 0 1 -6,0.14 7.28,7.28 0 0 1 -4.11,-4.5 7.5,7.5 0 0 1 0.78,-6.21 7.15,7.15 0 0 1 5,-3.28 7.44,7.44 0 0 1 8.33,4.79 8.94,8.94 0 0 1 0.47,2.06 c 0,0 0,0 0,0 0,0 0.04,-0.06 0.04,-0.06 z"
       style="fill:#ebebeb"
       id="path1590" />
    <path
       d="m 575.17,255 a 6.66,6.66 0 0 0 -2.52,-4.65 6.82,6.82 0 0 0 -5.09,-1.35 6.46,6.46 0 0 0 -4.44,2.83 6.81,6.81 0 0 0 -0.86,5.54 6.29,6.29 0 0 0 3,3.83 6.66,6.66 0 0 0 4.73,0.71 7,7 0 0 0 3.94,-2.44 7.36,7.36 0 0 0 1.63,-4.29 c 0,-0.07 0,-0.13 -0.08,-0.13 -0.08,0 -0.08,0.05 -0.08,0.13 a 7.08,7.08 0 0 1 -4,5.91 6.38,6.38 0 0 1 -5.24,0.15 6.2,6.2 0 0 1 -3.54,-3.91 6.43,6.43 0 0 1 0.71,-5.35 6.12,6.12 0 0 1 4.3,-2.77 6.43,6.43 0 0 1 7.12,4.06 7.93,7.93 0 0 1 0.42,1.76 c 0,0 0,0 0,0 a 0.07,0.07 0 0 0 0,-0.03 z"
       style="fill:#ebebeb"
       id="path1592" />
    <path
       d="m 574.13,255 a 5.62,5.62 0 0 0 -2.13,-3.85 5.77,5.77 0 0 0 -4.23,-1.14 5.37,5.37 0 0 0 -3.74,2.32 5.73,5.73 0 0 0 -0.79,4.68 5.29,5.29 0 0 0 2.55,3.28 5.67,5.67 0 0 0 4,0.59 5.94,5.94 0 0 0 3.33,-2.1 6.39,6.39 0 0 0 1.37,-3.63 c 0,-0.06 0,-0.11 -0.07,-0.11 -0.07,0 -0.08,0 -0.09,0.11 a 6,6 0 0 1 -3.41,5 5.33,5.33 0 0 1 -4.42,0.16 5.23,5.23 0 0 1 -3,-3.31 5.45,5.45 0 0 1 0.64,-4.5 5.09,5.09 0 0 1 3.61,-2.25 6.1,6.1 0 0 1 2.86,0.34 5.35,5.35 0 0 1 2.39,1.71 6,6 0 0 1 0.73,1.29 6.94,6.94 0 0 1 0.37,1.46 v 0 a 0.06,0.06 0 0 0 0.03,-0.05 z"
       style="fill:#ebebeb"
       id="path1594" />
    <path
       d="m 573.09,255 a 4.6,4.6 0 0 0 -1.75,-3.05 4.78,4.78 0 0 0 -3.35,-0.93 4.38,4.38 0 0 0 -3.06,1.82 4.72,4.72 0 0 0 -0.71,3.83 4.29,4.29 0 0 0 2.09,2.73 4.63,4.63 0 0 0 3.35,0.45 4.92,4.92 0 0 0 2.72,-1.75 5.34,5.34 0 0 0 1.11,-3 0.08,0.08 0 0 0 -0.07,-0.09 0.1,0.1 0 0 0 -0.09,0.09 5,5 0 0 1 -2.77,4 4.31,4.31 0 0 1 -3.6,0.17 4.17,4.17 0 0 1 -2.43,-2.72 4.38,4.38 0 0 1 0.57,-3.63 4.06,4.06 0 0 1 2.92,-1.75 5.28,5.28 0 0 1 2.25,0.29 4.37,4.37 0 0 1 1.86,1.32 4.93,4.93 0 0 1 0.59,1 5.37,5.37 0 0 1 0.33,1.16 v 0 c 0,0 0.05,0.11 0.04,0.06 z"
       style="fill:#ebebeb"
       id="path1596" />
    <polygon
       points="666.38,275.53 653.86,275.53 655.42,263.86 664.83,263.86 "
       style="fill:#c7c7c7"
       id="polygon1598" />
    <path
       d="m 671.79,255.52 a 11.67,11.67 0 1 1 -11.67,-11.66 11.67,11.67 0 0 1 11.67,11.66 z"
       style="fill:#dbdbdb"
       id="path1600" />
    <path
       d="m 669,255.52 a 8.87,8.87 0 1 1 -8.87,-8.86 8.87,8.87 0 0 1 8.87,8.86 z"
       style="fill:#ffffff"
       id="path1602" />
    <path
       d="m 667.53,255 a 7.62,7.62 0 0 0 -2.89,-5.44 7.82,7.82 0 0 0 -6,-1.56 7.48,7.48 0 0 0 -5.13,3.33 7.85,7.85 0 0 0 -0.94,6.4 7.38,7.38 0 0 0 3.47,4.38 7.7,7.7 0 0 0 5.42,0.83 8,8 0 0 0 4.56,-2.78 8.4,8.4 0 0 0 1.87,-4.94 c 0,-0.09 0,-0.16 -0.07,-0.16 -0.07,0 -0.08,0.06 -0.08,0.15 a 7.81,7.81 0 0 1 -0.42,2.14 8.69,8.69 0 0 1 -1,1.92 8.78,8.78 0 0 1 -1.45,1.6 9.51,9.51 0 0 1 -1.84,1.19 7.42,7.42 0 0 1 -6.05,0.14 7.28,7.28 0 0 1 -4.11,-4.5 7.5,7.5 0 0 1 0.78,-6.21 7.13,7.13 0 0 1 5,-3.28 7.44,7.44 0 0 1 8.35,4.79 8.94,8.94 0 0 1 0.47,2.06 c 0,0 0,0 0,0 a 0.06,0.06 0 0 0 0.06,-0.06 z"
       style="fill:#ebebeb"
       id="path1604" />
    <path
       d="m 666.5,255 a 6.66,6.66 0 0 0 -2.52,-4.65 6.82,6.82 0 0 0 -5.09,-1.35 6.46,6.46 0 0 0 -4.44,2.83 6.81,6.81 0 0 0 -0.86,5.54 6.29,6.29 0 0 0 3,3.83 6.66,6.66 0 0 0 4.73,0.71 7,7 0 0 0 3.94,-2.44 7.28,7.28 0 0 0 1.62,-4.29 c 0,-0.07 0,-0.13 -0.07,-0.13 -0.07,0 -0.08,0.05 -0.08,0.13 a 7.08,7.08 0 0 1 -4,5.91 6.38,6.38 0 0 1 -5.24,0.15 6.2,6.2 0 0 1 -3.54,-3.91 6.46,6.46 0 0 1 0.7,-5.35 6.16,6.16 0 0 1 4.3,-2.77 6.43,6.43 0 0 1 7.13,4.06 7.93,7.93 0 0 1 0.42,1.76 c 0,0 0,0 0,0 a 0.07,0.07 0 0 0 0,-0.03 z"
       style="fill:#ebebeb"
       id="path1606" />
    <path
       d="m 665.46,255 a 5.62,5.62 0 0 0 -2.13,-3.85 5.77,5.77 0 0 0 -4.23,-1.15 5.37,5.37 0 0 0 -3.74,2.32 5.73,5.73 0 0 0 -0.79,4.68 5.29,5.29 0 0 0 2.55,3.28 5.67,5.67 0 0 0 4,0.59 5.94,5.94 0 0 0 3.33,-2.1 6.39,6.39 0 0 0 1.37,-3.63 c 0,-0.06 0,-0.11 -0.07,-0.11 -0.07,0 -0.08,0 -0.09,0.11 a 6.06,6.06 0 0 1 -3.41,5 5.33,5.33 0 0 1 -4.42,0.16 5.21,5.21 0 0 1 -3,-3.31 5.45,5.45 0 0 1 0.64,-4.5 5.09,5.09 0 0 1 3.61,-2.25 6.1,6.1 0 0 1 2.86,0.34 5.4,5.4 0 0 1 2.33,1.71 6,6 0 0 1 0.73,1.29 6.94,6.94 0 0 1 0.37,1.46 v 0 a 0.06,0.06 0 0 0 0.09,-0.04 z"
       style="fill:#ebebeb"
       id="path1608" />
    <path
       d="m 664.42,255 a 4.6,4.6 0 0 0 -1.75,-3.05 4.78,4.78 0 0 0 -3.35,-0.93 4.38,4.38 0 0 0 -3.06,1.82 4.72,4.72 0 0 0 -0.71,3.83 4.29,4.29 0 0 0 2.09,2.73 4.62,4.62 0 0 0 3.35,0.45 4.92,4.92 0 0 0 2.72,-1.75 5.41,5.41 0 0 0 1.11,-3 0.08,0.08 0 0 0 -0.07,-0.09 0.1,0.1 0 0 0 -0.09,0.09 5,5 0 0 1 -2.77,4 4.31,4.31 0 0 1 -3.6,0.17 4.17,4.17 0 0 1 -2.43,-2.72 4.38,4.38 0 0 1 0.57,-3.63 4.06,4.06 0 0 1 2.92,-1.75 5.28,5.28 0 0 1 2.25,0.29 4.28,4.28 0 0 1 1.85,1.32 4.55,4.55 0 0 1 0.6,1 5.37,5.37 0 0 1 0.33,1.16 v 0 c 0,0 0.04,0.11 0.04,0.06 z"
       style="fill:#ebebeb"
       id="path1610" />
    <rect
       x="535.95001"
       y="269.57999"
       width="157.3"
       height="30.09"
       style="fill:#dbdbdb"
       id="rect1612" />
    <polygon
       points="568.27,269.58 556.86,299.67 536.54,299.67 547.96,269.58 "
       style="fill:#ebebeb"
       id="polygon1614" />
    <polygon
       points="609.91,269.58 598.5,299.67 578.18,299.67 589.59,269.58 "
       style="fill:#ebebeb"
       id="polygon1616" />
    <polygon
       points="651.55,269.58 640.13,299.67 619.82,299.67 631.24,269.58 "
       style="fill:#ebebeb"
       id="polygon1618" />
    <polygon
       points="693.19,269.58 681.77,299.67 661.45,299.67 672.87,269.58 "
       style="fill:#ebebeb"
       id="polygon1620" />
    <rect
       x="539.13"
       y="327.48001"
       width="150.92999"
       height="19.040001"
       style="fill:#dbdbdb"
       id="rect1622" />
    <polygon
       points="570.15,327.48 559.2,346.52 539.71,346.52 550.66,327.48 "
       style="fill:#ebebeb"
       id="polygon1624" />
    <polygon
       points="610.1,327.48 599.15,346.52 579.65,346.52 590.61,327.48 "
       style="fill:#ebebeb"
       id="polygon1626" />
    <polygon
       points="650.05,327.48 639.1,346.52 619.61,346.52 630.56,327.48 "
       style="fill:#ebebeb"
       id="polygon1628" />
    <polygon
       points="690.01,327.48 679.05,346.52 659.55,346.52 670.51,327.48 "
       style="fill:#ebebeb"
       id="polygon1630" />
  </g>
  <g
     id="freepik--Shadow--inject-470"
     transform="matrix(1.5932462,0,0,1.657203,-89.476706,-78.070833)">
    <ellipse
       cx="492.62"
       cy="445.32999"
       rx="182.16"
       ry="12.3"
       style="fill:#ebebeb"
       id="ellipse1633" />
  </g>
  <g
     id="freepik--Floor--inject-470"
     transform="matrix(1.5932462,0,0,1.657203,-89.476706,-78.070833)">
    <polygon
       points="56.76,363.88 136.32,363.64 215.88,363.55 375,363.39 534.12,363.55 613.68,363.64 693.24,363.88 613.68,364.13 534.12,364.22 375,364.38 215.88,364.22 136.32,364.13 "
       style="fill:#263238"
       id="polygon1636" />
  </g>
  <g
     id="freepik--Device--inject-470"
     transform="matrix(1.5932462,0,0,1.657203,-89.476706,-78.070833)">
    <rect
       x="182.97"
       y="109.9"
       width="384.06"
       height="256.91"
       style="fill:#dbdbdb"
       id="rect1639" />
    <rect
       x="185.75999"
       y="113.04"
       width="378.48001"
       height="250.64"
       style="fill:#263238"
       id="rect1641" />
    <rect
       x="132.95"
       y="386.07001"
       width="484.10001"
       height="17.629999"
       style="fill:#c7c7c7"
       id="rect1643" />
    <polygon
       points="132.95,386.07 182.97,366.81 567.03,366.81 617.05,386.07 "
       style="fill:#dbdbdb"
       id="polygon1645" />
    <polygon
       points="187.44,379.24 219.72,366.81 530.28,366.81 562.56,379.24 "
       style="fill:#263238"
       id="polygon1647" />
    <rect
       x="206.87"
       y="131.99001"
       width="336.26999"
       height="212.73"
       style="fill:#ffffff"
       id="rect1649" />
    <rect
       x="206.87"
       y="131.99001"
       width="336.26999"
       height="8.1899996"
       style="fill:#455a64"
       id="rect1651" />
    <path
       d="m 213.37,136.08 a 2,2 0 1 1 -2,-2 2,2 0 0 1 2,2 z"
       style="fill:#407bff"
       id="path1653" />
    <path
       d="m 221.66,136.08 a 2,2 0 1 1 -2,-2 2,2 0 0 1 2,2 z"
       style="fill:#ebebeb"
       id="path1655" />
    <path
       d="m 230,136.08 a 2,2 0 1 1 -2,-2 2,2 0 0 1 2,2 z"
       style="fill:#ffffff"
       id="path1657" />
    <rect
       x="367.66"
       y="231.94"
       width="61.27"
       height="47.009998"
       transform="rotate(180,398.3,255.44)"
       style="fill:#ebebeb"
       id="rect1659" />
    <path
       d="m 373.76,242.22 a 5.57,5.57 0 1 0 4.37,-4.37 5.57,5.57 0 0 0 -4.37,4.37 z"
       style="fill:#ffffff"
       id="path1661" />
    <polygon
       points="387.88,268.82 428.93,268.82 408.4,243.52 "
       style="fill:#c7c7c7"
       id="polygon1663" />
    <polygon
       points="367.66,268.84 404.07,268.84 385.87,252.36 "
       style="fill:#dbdbdb"
       id="polygon1665" />
    <rect
       x="367.66"
       y="268.82001"
       width="61.27"
       height="10.13"
       style="fill:#dbdbdb"
       id="rect1667" />
    <rect
       x="223.47"
       y="231.94"
       width="46.02"
       height="3.8699999"
       style="fill:#dbdbdb"
       id="rect1669" />
    <rect
       x="223.47"
       y="240.92"
       width="133.17999"
       height="3.8699999"
       style="fill:#dbdbdb"
       id="rect1671" />
    <rect
       x="223.47"
       y="249.44"
       width="133.17999"
       height="3.8699999"
       style="fill:#dbdbdb"
       id="rect1673" />
    <rect
       x="223.47"
       y="257.95999"
       width="133.17999"
       height="3.8699999"
       style="fill:#dbdbdb"
       id="rect1675" />
    <rect
       x="223.47"
       y="266.48001"
       width="133.17999"
       height="3.8699999"
       style="fill:#dbdbdb"
       id="rect1677" />
    <rect
       x="223.47"
       y="274.98999"
       width="133.17999"
       height="3.8699999"
       style="fill:#dbdbdb"
       id="rect1679" />
    <rect
       x="334.38"
       y="155.92999"
       width="46.02"
       height="10.36"
       style="fill:#dbdbdb"
       id="rect1681" />
    <rect
       x="334.38"
       y="173.42999"
       width="94.550003"
       height="3.8699999"
       style="fill:#dbdbdb"
       id="rect1683" />
    <rect
       x="334.38"
       y="181.95"
       width="94.550003"
       height="3.8699999"
       style="fill:#dbdbdb"
       id="rect1685" />
    <rect
       x="334.38"
       y="190.47"
       width="94.550003"
       height="3.8699999"
       style="fill:#dbdbdb"
       id="rect1687" />
    <rect
       x="334.38"
       y="198.99001"
       width="94.550003"
       height="3.8699999"
       style="fill:#dbdbdb"
       id="rect1689" />
    <rect
       x="334.38"
       y="210.32001"
       width="94.550003"
       height="3.8699999"
       style="fill:#dbdbdb"
       id="rect1691" />
    <rect
       x="334.38"
       y="218.84"
       width="94.550003"
       height="3.8699999"
       style="fill:#dbdbdb"
       id="rect1693" />
    <rect
       x="442.35999"
       y="155.92999"
       width="84.160004"
       height="10.54"
       style="fill:#407bff"
       id="rect1695" />
    <rect
       x="442.59"
       y="166.56"
       width="83.709999"
       height="165.33"
       style="fill:#ffffff"
       id="rect1697" />
    <path
       d="M 526.53,332.16 H 442.36 V 166.29 h 84.17 z m -83.71,-0.54 h 83.24 V 166.83 h -83.24 z"
       style="fill:#dbdbdb"
       id="path1699" />
    <polygon
       points="442.81,331.99 442.37,331.79 526.08,166.46 526.51,166.66 "
       style="fill:#dbdbdb"
       id="polygon1701" />
    <polygon
       points="526.08,331.99 442.37,166.66 442.81,166.46 526.51,331.79 "
       style="fill:#dbdbdb"
       id="polygon1703" />
    <rect
       x="223.64999"
       y="156.11"
       width="100.3"
       height="66.410004"
       style="fill:#ffffff"
       id="rect1705" />
    <path
       d="m 223.49,222.71 v -0.17 -66.58 h 0.17 100.46 v 66.75 H 324 Z m 0.32,-66.42 v 66.08 h 100 V 156.3 Z"
       style="fill:#dbdbdb"
       id="path1707" />
    <path
       d="m 223.81,156.29 c 8.43,5.35 16.82,10.78 25.19,16.22 l 25.05,16.42 24.95,16.6 12.43,8.36 12.37,8.45 -12.63,-8.06 -12.56,-8.15 -25.06,-16.42 -24.94,-16.61 C 240.32,167.54 232,162 223.81,156.29 Z"
       style="fill:#dbdbdb"
       id="path1709" />
    <path
       d="m 323.79,156.29 c -8.23,5.67 -16.51,11.25 -24.8,16.81 l -24.94,16.61 -25.05,16.42 -12.57,8.15 -12.62,8.06 12.37,-8.45 12.42,-8.36 24.94,-16.6 25.06,-16.42 c 8.4,-5.44 16.75,-10.87 25.19,-16.22 z"
       style="fill:#dbdbdb"
       id="path1711" />
    <rect
       x="302.79001"
       y="206.36"
       width="46.700001"
       height="204.64999"
       transform="rotate(-90,326.135,308.685)"
       style="fill:#ffffff"
       id="rect1713" />
    <path
       d="m 428.8,285.2 v 47 H 223.47 v -47 z m -0.68,46.7 v -46.44 h -204 v 46.44 z"
       style="fill:#dbdbdb"
       id="path1715" />
    <polygon
       points="428.59,331.91 428.34,332.15 223.68,285.45 223.93,285.21 "
       style="fill:#dbdbdb"
       id="polygon1717" />
    <polygon
       points="428.59,285.45 223.93,332.15 223.68,331.91 428.34,285.21 "
       style="fill:#dbdbdb"
       id="polygon1719" />
  </g>
  <g
     id="freepik--Crane--inject-470"
     transform="matrix(1.5932462,0,0,1.657203,-89.476706,-78.070833)">
    <rect
       x="116.29"
       y="126.25"
       width="31.139999"
       height="3.03"
       transform="rotate(-46.68,131.85765,127.76564)"
       style="fill:#263238"
       id="rect1722" />
    <rect
       x="121.18"
       y="138.53"
       width="21.879999"
       height="3.03"
       style="fill:#455a64"
       id="rect1724" />
    <rect
       x="121.18"
       y="114.92"
       width="21.879999"
       height="3.03"
       style="fill:#455a64"
       id="rect1726" />
    <rect
       x="130.34"
       y="112.2"
       width="3.03"
       height="31.139999"
       transform="rotate(-43.31,131.83997,127.75976)"
       style="fill:#455a64"
       id="rect1728" />
    <rect
       x="116.29"
       y="149.86"
       width="31.139999"
       height="3.03"
       transform="rotate(-46.68,131.85406,151.37813)"
       style="fill:#263238"
       id="rect1730" />
    <rect
       x="121.18"
       y="162.14"
       width="21.879999"
       height="3.03"
       style="fill:#455a64"
       id="rect1732" />
    <rect
       x="121.18"
       y="138.53"
       width="21.879999"
       height="3.03"
       style="fill:#455a64"
       id="rect1734" />
    <rect
       x="130.34"
       y="135.81"
       width="3.03"
       height="31.139999"
       transform="rotate(-43.31,131.83742,151.37579)"
       style="fill:#455a64"
       id="rect1736" />
    <rect
       x="116.29"
       y="173.47"
       width="31.139999"
       height="3.03"
       transform="rotate(-46.68,131.85046,174.99062)"
       style="fill:#263238"
       id="rect1738" />
    <rect
       x="121.18"
       y="185.75"
       width="21.879999"
       height="3.03"
       style="fill:#455a64"
       id="rect1740" />
    <rect
       x="121.18"
       y="162.14"
       width="21.879999"
       height="3.03"
       style="fill:#455a64"
       id="rect1742" />
    <rect
       x="130.34"
       y="159.42"
       width="3.03"
       height="31.139999"
       transform="rotate(-43.31,131.83986,174.97922)"
       style="fill:#455a64"
       id="rect1744" />
    <rect
       x="116.29"
       y="197.08"
       width="31.139999"
       height="3.03"
       transform="rotate(-46.68,131.85187,198.59152)"
       style="fill:#263238"
       id="rect1746" />
    <rect
       x="121.18"
       y="209.36"
       width="21.879999"
       height="3.03"
       style="fill:#455a64"
       id="rect1748" />
    <rect
       x="121.18"
       y="185.75"
       width="21.879999"
       height="3.03"
       style="fill:#455a64"
       id="rect1750" />
    <rect
       x="130.34"
       y="183.03"
       width="3.03"
       height="31.139999"
       transform="rotate(-43.31,131.84231,198.58265)"
       style="fill:#455a64"
       id="rect1752" />
    <rect
       x="116.29"
       y="220.69"
       width="31.139999"
       height="3.03"
       transform="rotate(-46.68,131.85987,222.20901)"
       style="fill:#263238"
       id="rect1754" />
    <rect
       x="121.18"
       y="232.97"
       width="21.879999"
       height="3.03"
       style="fill:#455a64"
       id="rect1756" />
    <rect
       x="121.18"
       y="209.36"
       width="21.879999"
       height="3.03"
       style="fill:#455a64"
       id="rect1758" />
    <rect
       x="130.34"
       y="206.63"
       width="3.03"
       height="31.139999"
       transform="rotate(-43.31,131.84475,222.18609)"
       style="fill:#455a64"
       id="rect1760" />
    <rect
       x="116.29"
       y="244.3"
       width="31.139999"
       height="3.03"
       transform="rotate(-46.68,131.86128,245.80991)"
       style="fill:#263238"
       id="rect1762" />
    <rect
       x="121.18"
       y="256.57001"
       width="21.879999"
       height="3.03"
       style="fill:#455a64"
       id="rect1764" />
    <rect
       x="121.18"
       y="232.97"
       width="21.879999"
       height="3.03"
       style="fill:#455a64"
       id="rect1766" />
    <rect
       x="130.34"
       y="230.24001"
       width="3.03"
       height="31.139999"
       transform="rotate(-43.31,131.8422,245.80211)"
       style="fill:#455a64"
       id="rect1768" />
    <rect
       x="116.29"
       y="267.89999"
       width="31.139999"
       height="3.03"
       transform="rotate(-46.68,131.85769,269.4224)"
       style="fill:#263238"
       id="rect1770" />
    <rect
       x="121.18"
       y="280.17999"
       width="21.879999"
       height="3.03"
       style="fill:#455a64"
       id="rect1772" />
    <rect
       x="121.18"
       y="256.57001"
       width="21.879999"
       height="3.03"
       style="fill:#455a64"
       id="rect1774" />
    <rect
       x="130.34"
       y="253.85001"
       width="3.03"
       height="31.139999"
       transform="rotate(-43.31,131.83205,269.40055)"
       style="fill:#455a64"
       id="rect1776" />
    <rect
       x="116.29"
       y="291.51001"
       width="31.139999"
       height="3.03"
       transform="rotate(-46.68,131.84751,293.0183)"
       style="fill:#263238"
       id="rect1778" />
    <rect
       x="121.18"
       y="303.79001"
       width="21.879999"
       height="3.03"
       style="fill:#455a64"
       id="rect1780" />
    <rect
       x="121.18"
       y="280.17999"
       width="21.879999"
       height="3.03"
       style="fill:#455a64"
       id="rect1782" />
    <rect
       x="130.34"
       y="277.45999"
       width="3.03"
       height="31.139999"
       transform="rotate(-43.31,131.83449,293.00398)"
       style="fill:#455a64"
       id="rect1784" />
    <rect
       x="116.29"
       y="315.12"
       width="31.139999"
       height="3.03"
       transform="rotate(-46.68,131.83733,316.6142)"
       style="fill:#263238"
       id="rect1786" />
    <rect
       x="121.18"
       y="327.39999"
       width="21.879999"
       height="3.03"
       style="fill:#455a64"
       id="rect1788" />
    <rect
       x="121.18"
       y="303.79001"
       width="21.879999"
       height="3.03"
       style="fill:#455a64"
       id="rect1790" />
    <rect
       x="130.34"
       y="301.07001"
       width="3.03"
       height="31.139999"
       transform="rotate(-43.31,131.83194,316.62001)"
       style="fill:#455a64"
       id="rect1792" />
    <rect
       x="116.29"
       y="338.73001"
       width="31.139999"
       height="3.03"
       transform="rotate(-46.7,131.85822,340.24004)"
       style="fill:#263238"
       id="rect1794" />
    <rect
       x="121.18"
       y="351.01001"
       width="21.879999"
       height="3.03"
       style="fill:#455a64"
       id="rect1796" />
    <rect
       x="121.18"
       y="327.39999"
       width="21.879999"
       height="3.03"
       style="fill:#455a64"
       id="rect1798" />
    <rect
       x="130.34"
       y="324.67999"
       width="3.03"
       height="31.139999"
       transform="rotate(-43.31,131.84698,340.22844)"
       style="fill:#455a64"
       id="rect1800" />
    <rect
       x="116.29"
       y="362.34"
       width="31.139999"
       height="3.03"
       transform="rotate(-46.7,131.84551,363.85457)"
       style="fill:#263238"
       id="rect1802" />
    <rect
       x="121.18"
       y="374.62"
       width="21.879999"
       height="3.03"
       style="fill:#455a64"
       id="rect1804" />
    <rect
       x="121.18"
       y="351.01001"
       width="21.879999"
       height="3.03"
       style="fill:#455a64"
       id="rect1806" />
    <rect
       x="130.34"
       y="348.28"
       width="3.03"
       height="31.139999"
       transform="rotate(-43.31,131.83683,363.82688)"
       style="fill:#455a64"
       id="rect1808" />
    <rect
       x="124.79"
       y="365.39001"
       width="13.75"
       height="31.559999"
       transform="rotate(90,131.66,381.17)"
       style="fill:#455a64"
       id="rect1810" />
    <rect
       x="-9.6700001"
       y="241.71001"
       width="259"
       height="7.9099998"
       transform="rotate(90,119.83,245.66)"
       style="fill:#455a64"
       id="rect1812" />
    <rect
       x="13.98"
       y="241.71001"
       width="259"
       height="7.9099998"
       transform="rotate(90,143.485,245.665)"
       style="fill:#455a64"
       id="rect1814" />
    <polygon
       points="69.92,88.6 131.56,50.63 333.15,88.2 357.46,112.14 355.33,114.31 331.69,91.01 132.15,53.83 71.51,91.19 "
       style="fill:#455a64"
       id="polygon1816" />
    <polygon
       points="156.21,94.28 131.91,60.5 108.65,94.23 103.65,90.78 131.8,49.96 161.14,90.73 "
       style="fill:#263238"
       id="polygon1818" />
    <rect
       x="318.20001"
       y="89.910004"
       width="3.03"
       height="31.139999"
       transform="rotate(-46.69,319.74783,105.47374)"
       style="fill:#263238"
       id="rect1820" />
    <rect
       x="330.48001"
       y="94.279999"
       width="3.03"
       height="21.879999"
       style="fill:#455a64"
       id="rect1822" />
    <rect
       x="306.87"
       y="94.279999"
       width="3.03"
       height="21.879999"
       style="fill:#455a64"
       id="rect1824" />
    <rect
       x="304.14999"
       y="103.96"
       width="31.139999"
       height="3.03"
       transform="rotate(-43.31,319.75257,105.48018)"
       style="fill:#455a64"
       id="rect1826" />
    <rect
       x="294.59"
       y="89.910004"
       width="3.03"
       height="31.139999"
       transform="rotate(-46.69,296.13512,105.47967)"
       style="fill:#263238"
       id="rect1828" />
    <rect
       x="306.87"
       y="94.279999"
       width="3.03"
       height="21.879999"
       style="fill:#455a64"
       id="rect1830" />
    <rect
       x="283.26001"
       y="94.279999"
       width="3.03"
       height="21.879999"
       style="fill:#455a64"
       id="rect1832" />
    <rect
       x="280.54001"
       y="103.96"
       width="31.139999"
       height="3.03"
       transform="rotate(-43.32,296.07486,105.48528)"
       style="fill:#455a64"
       id="rect1834" />
    <rect
       x="270.98001"
       y="89.910004"
       width="3.03"
       height="31.139999"
       transform="rotate(-46.69,272.5224,105.48561)"
       style="fill:#263238"
       id="rect1836" />
    <rect
       x="283.26001"
       y="94.279999"
       width="3.03"
       height="21.879999"
       style="fill:#455a64"
       id="rect1838" />
    <rect
       x="259.64999"
       y="94.279999"
       width="3.03"
       height="21.879999"
       style="fill:#455a64"
       id="rect1840" />
    <rect
       x="256.92999"
       y="103.96"
       width="31.139999"
       height="3.03"
       transform="rotate(-43.32,272.46402,105.48067)"
       style="fill:#455a64"
       id="rect1842" />
    <rect
       x="247.37"
       y="89.910004"
       width="3.03"
       height="31.139999"
       transform="rotate(-46.69,248.91469,105.47996)"
       style="fill:#263238"
       id="rect1844" />
    <rect
       x="259.64999"
       y="94.279999"
       width="3.03"
       height="21.879999"
       style="fill:#455a64"
       id="rect1846" />
    <rect
       x="236.03999"
       y="94.279999"
       width="3.03"
       height="21.879999"
       style="fill:#455a64"
       id="rect1848" />
    <rect
       x="233.32001"
       y="103.96"
       width="31.139999"
       height="3.03"
       transform="rotate(-43.32,248.86578,105.48105)"
       style="fill:#455a64"
       id="rect1850" />
    <rect
       x="223.77"
       y="89.910004"
       width="3.03"
       height="31.139999"
       transform="rotate(-46.69,225.30197,105.48589)"
       style="fill:#263238"
       id="rect1852" />
    <rect
       x="236.03999"
       y="94.279999"
       width="3.03"
       height="21.879999"
       style="fill:#455a64"
       id="rect1854" />
    <rect
       x="212.44"
       y="94.279999"
       width="3.03"
       height="21.879999"
       style="fill:#455a64"
       id="rect1856" />
    <rect
       x="209.71001"
       y="103.96"
       width="31.139999"
       height="3.03"
       transform="rotate(-43.32,225.26753,105.48144)"
       style="fill:#455a64"
       id="rect1858" />
    <rect
       x="200.16"
       y="89.910004"
       width="3.03"
       height="31.139999"
       transform="rotate(-46.69,201.69426,105.48024)"
       style="fill:#263238"
       id="rect1860" />
    <rect
       x="212.44"
       y="94.279999"
       width="3.03"
       height="21.879999"
       style="fill:#455a64"
       id="rect1862" />
    <rect
       x="188.83"
       y="94.279999"
       width="3.03"
       height="21.879999"
       style="fill:#455a64"
       id="rect1864" />
    <rect
       x="186.10001"
       y="103.96"
       width="31.139999"
       height="3.03"
       transform="rotate(-43.32,201.65669,105.47682)"
       style="fill:#455a64"
       id="rect1866" />
    <rect
       x="176.55"
       y="89.910004"
       width="3.03"
       height="31.139999"
       transform="rotate(-46.69,178.08154,105.48617)"
       style="fill:#263238"
       id="rect1868" />
    <rect
       x="188.83"
       y="94.279999"
       width="3.03"
       height="21.879999"
       style="fill:#455a64"
       id="rect1870" />
    <rect
       x="165.22"
       y="94.279999"
       width="3.03"
       height="21.879999"
       style="fill:#455a64"
       id="rect1872" />
    <rect
       x="162.5"
       y="103.96"
       width="31.139999"
       height="3.03"
       transform="rotate(-43.32,178.05844,105.4772)"
       style="fill:#455a64"
       id="rect1874" />
    <rect
       x="152.94"
       y="89.910004"
       width="3.03"
       height="31.139999"
       transform="rotate(-46.69,154.47383,105.48052)"
       style="fill:#263238"
       id="rect1876" />
    <rect
       x="165.22"
       y="94.279999"
       width="3.03"
       height="21.879999"
       style="fill:#455a64"
       id="rect1878" />
    <rect
       x="141.61"
       y="94.279999"
       width="3.03"
       height="21.879999"
       style="fill:#455a64"
       id="rect1880" />
    <rect
       x="138.89"
       y="103.96"
       width="31.139999"
       height="3.03"
       transform="rotate(-43.32,154.44761,105.47259)"
       style="fill:#455a64"
       id="rect1882" />
    <rect
       x="129.33"
       y="89.910004"
       width="3.03"
       height="31.139999"
       transform="rotate(-46.69,130.86112,105.48645)"
       style="fill:#263238"
       id="rect1884" />
    <rect
       x="141.61"
       y="94.279999"
       width="3.03"
       height="21.879999"
       style="fill:#455a64"
       id="rect1886" />
    <rect
       x="118"
       y="94.279999"
       width="3.03"
       height="21.879999"
       style="fill:#455a64"
       id="rect1888" />
    <rect
       x="115.28"
       y="103.96"
       width="31.139999"
       height="3.03"
       transform="rotate(-43.32,130.83177,105.48056)"
       style="fill:#455a64"
       id="rect1890" />
    <rect
       x="105.72"
       y="89.910004"
       width="3.03"
       height="31.139999"
       transform="rotate(-46.69,107.2534,105.4808)"
       style="fill:#263238"
       id="rect1892" />
    <rect
       x="118"
       y="94.279999"
       width="3.03"
       height="21.879999"
       style="fill:#455a64"
       id="rect1894" />
    <rect
       x="94.389999"
       y="94.279999"
       width="3.03"
       height="21.879999"
       style="fill:#455a64"
       id="rect1896" />
    <rect
       x="91.669998"
       y="103.96"
       width="31.139999"
       height="3.03"
       transform="rotate(-43.32,107.22093,105.47595)"
       style="fill:#455a64"
       id="rect1898" />
    <rect
       x="82.110001"
       y="89.910004"
       width="3.03"
       height="31.139999"
       transform="matrix(0.69,-0.73,0.73,0.69,-50.49,93.99)"
       style="fill:#263238"
       id="rect1900" />
    <rect
       x="94.389999"
       y="94.279999"
       width="3.03"
       height="21.879999"
       style="fill:#455a64"
       id="rect1902" />
    <rect
       x="70.779999"
       y="94.279999"
       width="3.03"
       height="21.879999"
       style="fill:#455a64"
       id="rect1904" />
    <rect
       x="68.059998"
       y="103.96"
       width="31.139999"
       height="3.03"
       transform="rotate(-43.32,83.622687,105.47633)"
       style="fill:#455a64"
       id="rect1906" />
    <rect
       x="56.16"
       y="88.550003"
       width="13.73"
       height="31.559999"
       style="fill:#263238"
       id="rect1908" />
    <rect
       x="69.889999"
       y="88.550003"
       width="13.75"
       height="31.559999"
       style="fill:#455a64"
       id="rect1910" />
    <rect
       x="75.43"
       y="120.11"
       width="26.360001"
       height="15.74"
       style="fill:#455a64"
       id="rect1912" />
    <rect
       x="69.889999"
       y="112.2"
       width="287.57001"
       height="7.9099998"
       style="fill:#455a64"
       id="rect1914" />
    <polygon
       points="341.05,96.46 69.89,96.46 69.89,88.55 333.32,88.55 "
       style="fill:#455a64"
       id="polygon1916" />
    <rect
       x="335.64999"
       y="94.279999"
       width="3.03"
       height="21.879999"
       style="fill:#455a64"
       id="rect1918" />
    <polygon
       points="304.11,195.4 266.03,200.89 246.99,203.56 227.92,206.13 246.92,203.09 265.92,200.15 303.96,194.42 304.06,194.41 304.16,194.43 367.46,210.85 399.1,219.14 430.7,227.54 398.97,219.63 367.27,211.6 303.91,195.39 "
       style="fill:#263238"
       id="polygon1920" />
    <rect
       x="289.38"
       y="123.34"
       width="3.03"
       height="44.799999"
       style="fill:#263238"
       id="rect1922" />
    <rect
       x="315.04999"
       y="124.34"
       width="3.03"
       height="44.799999"
       style="fill:#263238"
       id="rect1924" />
    <rect
       x="283.94"
       y="120.11"
       width="40.009998"
       height="6.4499998"
       style="fill:#455a64"
       id="rect1926" />
    <path
       d="m 305.46,175.67 -0.34,6.73 -1,-1.16 a 10.78,10.78 0 0 1 3.06,1.32 7.21,7.21 0 0 1 2.4,2.36 6,6 0 0 1 -0.16,6.4 6.24,6.24 0 0 1 -5.41,2.8 6.58,6.58 0 0 1 -5,-3 6.28,6.28 0 0 0 5,2.4 5.39,5.39 0 0 0 4.41,-2.82 4.55,4.55 0 0 0 -0.3,-4.81 7,7 0 0 0 -4.41,-2.33 l -0.92,-0.16 -0.05,-1 -0.33,-6.73 z"
       style="fill:#263238"
       id="path1928" />
    <polygon
       points="303.94,177.6 283.94,172.85 283.94,161.87 323.95,161.87 323.95,172.85 "
       style="fill:#455a64"
       id="polygon1930" />
    <path
       d="m 293.12,168.31 a 2.33,2.33 0 1 1 -2.33,-2.32 2.32,2.32 0 0 1 2.33,2.32 z"
       style="fill:#263238"
       id="path1932" />
    <path
       d="m 319.41,168.31 a 2.32,2.32 0 1 1 -2.32,-2.32 2.32,2.32 0 0 1 2.32,2.32 z"
       style="fill:#263238"
       id="path1934" />
    <rect
       x="223.58"
       y="216.44"
       width="205.22"
       height="46.549999"
       transform="rotate(-173.86,326.19997,239.70765)"
       style="fill:#407bff"
       id="rect1936" />
    <polygon
       points="333.24,253.79 426.8,263.86 382.72,233.66 "
       style="fill:#407bff"
       id="polygon1938" />
    <polygon
       points="333.24,253.79 426.8,263.86 382.72,233.66 "
       style="opacity:0.2"
       id="polygon1940" />
    <polygon
       points="287.17,248.86 370.14,257.79 330.42,236.94 "
       style="fill:#407bff"
       id="polygon1942" />
    <polygon
       points="287.17,248.86 370.14,257.79 330.42,236.94 "
       style="opacity:0.1"
       id="polygon1944" />
    <rect
       x="221.63"
       y="252.86"
       width="205.22"
       height="10.03"
       transform="rotate(6.14,324.13303,257.76995)"
       style="fill:#407bff"
       id="rect1946" />
    <rect
       x="221.63"
       y="252.86"
       width="205.22"
       height="10.03"
       transform="rotate(6.14,324.13303,257.76995)"
       style="opacity:0.1"
       id="rect1948" />
    <path
       d="m 251.82,223.65 a 6.33,6.33 0 1 1 -5.61,-7 6.32,6.32 0 0 1 5.61,7 z"
       style="opacity:0.6;fill:#ffffff"
       id="path1950" />
    <path
       d="m 137,52.23 a 5.12,5.12 0 1 1 -5.12,-5.12 5.12,5.12 0 0 1 5.12,5.12 z"
       style="fill:#a6a6a6"
       id="path1952" />
    <path
       d="m 134.25,52.23 a 2.4,2.4 0 1 1 -2.39,-2.39 2.39,2.39 0 0 1 2.39,2.39 z"
       style="fill:#455a64"
       id="path1954" />
    <rect
       x="109.57"
       y="388.04999"
       width="44.18"
       height="10.44"
       style="fill:#263238"
       id="rect1956" />
    <rect
       x="99.989998"
       y="398.48999"
       width="63.34"
       height="20.48"
       style="fill:#455a64"
       id="rect1958" />
    <path
       d="M 157.35,138.37 H 110.07 V 86 H 141 a 10.78,10.78 0 0 1 10.69,9.36 z"
       style="fill:#407bff"
       id="path1960" />
    <path
       d="m 144.48,122.47 h -22.16 a 2.07,2.07 0 0 1 -0.71,-0.11 2.5,2.5 0 0 1 -1.78,-2.39 V 92 h 15.76 a 7.49,7.49 0 0 1 1.58,0.15 8.54,8.54 0 0 1 3.31,1.32 8.38,8.38 0 0 1 1.84,1.67 8.76,8.76 0 0 1 2,4.49 l 2.66,20 a 2.52,2.52 0 0 1 -2.5,2.84 z"
       style="fill:#263238"
       id="path1962" />
    <g
       style="opacity:0.4"
       id="g1970">
      <path
         d="m 142.1,107.88 a 2.44,2.44 0 0 1 -0.73,1.75 l -12.83,12.84 h -6.22 a 2.07,2.07 0 0 1 -0.71,-0.11 l 16.25,-16.24 a 2.49,2.49 0 0 1 4.24,1.76 z"
         style="fill:#ffffff"
         id="path1964" />
      <path
         d="m 142.32,95.15 -22.49,22.48 v -3.5 l 20.65,-20.65 a 8.38,8.38 0 0 1 1.84,1.67 z"
         style="fill:#ffffff"
         id="path1966" />
      <path
         d="m 137.17,92.16 -12.77,12.77 a 1.87,1.87 0 0 1 -3.19,-1.32 1.84,1.84 0 0 1 0.55,-1.3 L 132.06,92 h 3.53 a 7.49,7.49 0 0 1 1.58,0.16 z"
         style="fill:#ffffff"
         id="path1968" />
    </g>
  </g>
  <g
     id="freepik--Fence--inject-470"
     transform="matrix(1.5932462,0,0,1.657203,-89.476706,-78.070833)">
    <polygon
       points="79.99,437.05 89.39,370.44 90.42,363.13 91.37,356.33 106.73,356.33 105.78,363.13 104.75,370.44 95.35,437.05 "
       style="fill:#407bff"
       id="polygon1973" />
    <path
       d="m 104.51,356.33 c -0.81,6.75 -1.68,13.49 -2.56,20.22 l -2.71,20.2 -2.84,20.16 -1.46,10.09 -1.53,10.06 1.25,-10.11 1.34,-10.12 2.71,-20.19 2.84,-20.17 c 0.94,-6.72 1.92,-13.47 2.96,-20.14 z"
       style="opacity:0.1"
       id="path1975" />
    <polygon
       points="105.78,363.13 104.75,370.44 89.39,370.44 90.42,363.13 "
       style="opacity:0.1"
       id="polygon1977" />
    <polygon
       points="209.29,437.05 199.9,370.44 198.87,363.13 197.92,356.33 182.56,356.33 183.51,363.13 184.54,370.44 193.93,437.05 "
       style="fill:#407bff"
       id="polygon1979" />
    <path
       d="m 184.83,356.33 c 0.81,6.75 1.68,13.49 2.56,20.22 l 2.71,20.2 2.84,20.16 1.46,10.09 1.53,10.06 -1.25,-10.11 -1.31,-10.11 -2.71,-20.19 -2.84,-20.17 c -0.97,-6.73 -1.95,-13.48 -2.99,-20.15 z"
       style="opacity:0.1"
       id="path1981" />
    <polygon
       points="183.51,363.13 198.87,363.13 199.9,370.44 184.54,370.44 "
       style="opacity:0.1"
       id="polygon1983" />
    <polygon
       points="106.17,342.36 93.99,342.36 95.51,331.01 104.66,331.01 "
       style="fill:#407bff"
       id="polygon1985" />
    <polygon
       points="106.17,342.36 93.99,342.36 95.51,331.01 104.66,331.01 "
       style="opacity:0.1"
       id="polygon1987" />
    <path
       d="m 111.43,322.89 a 11.35,11.35 0 1 1 -11.35,-11.35 11.35,11.35 0 0 1 11.35,11.35 z"
       style="fill:#407bff"
       id="path1989" />
    <path
       d="m 108.71,322.89 a 8.63,8.63 0 1 1 -8.63,-8.62 8.63,8.63 0 0 1 8.63,8.62 z"
       style="fill:#ffffff"
       id="path1991" />
    <path
       d="m 107.29,322.39 a 7.47,7.47 0 0 0 -2.81,-5.29 7.66,7.66 0 0 0 -5.81,-1.52 7.27,7.27 0 0 0 -5,3.24 7.59,7.59 0 0 0 -0.91,6.22 7.11,7.11 0 0 0 3.37,4.27 7.47,7.47 0 0 0 5.28,0.81 7.75,7.75 0 0 0 4.43,-2.71 8.23,8.23 0 0 0 1.82,-4.81 c 0,-0.08 0,-0.15 -0.07,-0.15 -0.07,0 -0.08,0.06 -0.08,0.15 a 8.15,8.15 0 0 1 -0.4,2.08 8,8 0 0 1 -2.37,3.42 9,9 0 0 1 -1.79,1.16 7.2,7.2 0 0 1 -5.89,0.14 7.07,7.07 0 0 1 -4,-4.38 7.3,7.3 0 0 1 0.76,-6 7,7 0 0 1 4.86,-3.2 7.49,7.49 0 0 1 7.14,2.85 7.76,7.76 0 0 1 1,1.79 9.15,9.15 0 0 1 0.45,2 c 0,0 0,0 0,0 a 0.06,0.06 0 0 0 0.02,-0.07 z"
       style="fill:#407bff"
       id="path1993" />
    <path
       d="m 106.28,322.4 a 6.47,6.47 0 0 0 -2.44,-4.52 6.63,6.63 0 0 0 -5,-1.31 6.24,6.24 0 0 0 -4.31,2.75 6.58,6.58 0 0 0 -0.84,5.39 6.17,6.17 0 0 0 2.92,3.73 6.6,6.6 0 0 0 4.61,0.69 6.72,6.72 0 0 0 3.83,-2.38 7.2,7.2 0 0 0 1.58,-4.17 c 0,-0.07 0,-0.13 -0.07,-0.13 -0.07,0 -0.08,0.05 -0.08,0.13 a 6.89,6.89 0 0 1 -3.94,5.75 6.19,6.19 0 0 1 -5.09,0.15 6.11,6.11 0 0 1 -3.45,-3.81 6.31,6.31 0 0 1 0.69,-5.2 6,6 0 0 1 4.19,-2.7 6.49,6.49 0 0 1 6.09,2.42 6.91,6.91 0 0 1 0.84,1.53 8.05,8.05 0 0 1 0.41,1.71 z"
       style="fill:#407bff"
       id="path1995" />
    <path
       d="m 105.27,322.41 a 5.4,5.4 0 0 0 -2.07,-3.74 5.57,5.57 0 0 0 -4.11,-1.11 5.23,5.23 0 0 0 -3.64,2.25 5.58,5.58 0 0 0 -0.77,4.56 5.14,5.14 0 0 0 2.48,3.19 5.48,5.48 0 0 0 3.93,0.57 5.71,5.71 0 0 0 3.24,-2 6.21,6.21 0 0 0 1.33,-3.53 c 0,-0.06 0,-0.11 -0.07,-0.11 -0.07,0 -0.08,0 -0.08,0.11 a 5.9,5.9 0 0 1 -3.32,4.84 5.2,5.2 0 0 1 -4.3,0.15 5.07,5.07 0 0 1 -2.89,-3.26 5.27,5.27 0 0 1 0.63,-4.37 5,5 0 0 1 3.51,-2.2 6,6 0 0 1 2.78,0.33 5.19,5.19 0 0 1 2.26,1.66 5.59,5.59 0 0 1 0.71,1.26 6.74,6.74 0 0 1 0.37,1.42 c 0,0 0,0 0,0 0,0 0.02,0 0.01,-0.02 z"
       style="fill:#407bff"
       id="path1997" />
    <path
       d="m 104.26,322.42 a 4.4,4.4 0 0 0 -1.7,-3 4.64,4.64 0 0 0 -3.26,-0.91 4.24,4.24 0 0 0 -3,1.77 4.57,4.57 0 0 0 -0.7,3.73 4.19,4.19 0 0 0 2,2.65 4.47,4.47 0 0 0 3.25,0.44 4.68,4.68 0 0 0 2.65,-1.71 5.17,5.17 0 0 0 1.08,-2.88 c 0,-0.05 0,-0.09 -0.07,-0.09 a 0.09,0.09 0 0 0 -0.08,0.09 4.86,4.86 0 0 1 -2.7,3.92 4.16,4.16 0 0 1 -3.5,0.17 4.09,4.09 0 0 1 -2.3,-2.6 4.26,4.26 0 0 1 0.56,-3.54 3.94,3.94 0 0 1 2.84,-1.69 5.15,5.15 0 0 1 2.19,0.28 4.13,4.13 0 0 1 1.8,1.29 4.64,4.64 0 0 1 0.59,1 6.83,6.83 0 0 1 0.32,1.14 v 0 c 0,0 0.04,-0.05 0.03,-0.06 z"
       style="fill:#407bff"
       id="path1999" />
    <polygon
       points="195.03,342.36 182.85,342.36 184.37,331.01 193.52,331.01 "
       style="fill:#407bff"
       id="polygon2001" />
    <polygon
       points="195.03,342.36 182.85,342.36 184.37,331.01 193.52,331.01 "
       style="opacity:0.1"
       id="polygon2003" />
    <path
       d="m 200.29,322.89 a 11.35,11.35 0 1 1 -11.35,-11.35 11.35,11.35 0 0 1 11.35,11.35 z"
       style="fill:#407bff"
       id="path2005" />
    <path
       d="m 197.57,322.89 a 8.63,8.63 0 1 1 -8.63,-8.62 8.63,8.63 0 0 1 8.63,8.62 z"
       style="fill:#ffffff"
       id="path2007" />
    <path
       d="m 196.15,322.39 a 7.47,7.47 0 0 0 -2.81,-5.29 7.66,7.66 0 0 0 -5.81,-1.52 7.27,7.27 0 0 0 -5,3.24 7.59,7.59 0 0 0 -0.91,6.22 7.11,7.11 0 0 0 3.37,4.27 7.47,7.47 0 0 0 5.28,0.81 7.75,7.75 0 0 0 4.43,-2.71 8.16,8.16 0 0 0 1.82,-4.81 c 0,-0.08 0,-0.15 -0.07,-0.15 -0.07,0 -0.08,0.06 -0.08,0.15 a 7.74,7.74 0 0 1 -0.4,2.08 8,8 0 0 1 -2.37,3.42 9,9 0 0 1 -1.79,1.16 7.2,7.2 0 0 1 -5.89,0.14 7.07,7.07 0 0 1 -4,-4.38 7.3,7.3 0 0 1 0.76,-6 7,7 0 0 1 4.86,-3.2 7.49,7.49 0 0 1 7.14,2.85 7.76,7.76 0 0 1 1,1.79 9.15,9.15 0 0 1 0.45,2 c 0,0 0,0 0,0 a 0.11,0.11 0 0 0 0.02,-0.07 z"
       style="fill:#407bff"
       id="path2009" />
    <path
       d="m 195.14,322.4 a 6.47,6.47 0 0 0 -2.44,-4.52 6.63,6.63 0 0 0 -5,-1.31 6.24,6.24 0 0 0 -4.31,2.75 6.58,6.58 0 0 0 -0.84,5.39 6.17,6.17 0 0 0 2.92,3.73 6.6,6.6 0 0 0 4.61,0.69 6.72,6.72 0 0 0 3.83,-2.38 7.2,7.2 0 0 0 1.58,-4.17 c 0,-0.07 0,-0.13 -0.07,-0.13 -0.07,0 -0.08,0.05 -0.08,0.13 a 6.89,6.89 0 0 1 -3.94,5.75 6.19,6.19 0 0 1 -5.09,0.15 6.11,6.11 0 0 1 -3.46,-3.81 6.31,6.31 0 0 1 0.69,-5.2 6,6 0 0 1 4.19,-2.7 6.49,6.49 0 0 1 6.09,2.42 6.91,6.91 0 0 1 0.84,1.53 8.05,8.05 0 0 1 0.41,1.71 c 0,0 0,0 0,0 0,0 0.08,-0.01 0.07,-0.03 z"
       style="fill:#407bff"
       id="path2011" />
    <path
       d="m 194.13,322.41 a 5.4,5.4 0 0 0 -2.07,-3.74 5.57,5.57 0 0 0 -4.11,-1.11 5.23,5.23 0 0 0 -3.64,2.25 5.58,5.58 0 0 0 -0.77,4.56 5.14,5.14 0 0 0 2.48,3.19 5.48,5.48 0 0 0 3.93,0.57 5.71,5.71 0 0 0 3.24,-2 6.14,6.14 0 0 0 1.33,-3.53 c 0,-0.06 0,-0.11 -0.07,-0.11 -0.07,0 -0.08,0 -0.08,0.11 a 5.9,5.9 0 0 1 -3.32,4.84 5.2,5.2 0 0 1 -4.3,0.15 5.07,5.07 0 0 1 -2.91,-3.22 5.27,5.27 0 0 1 0.63,-4.37 5,5 0 0 1 3.51,-2.2 6,6 0 0 1 2.78,0.33 5.06,5.06 0 0 1 3,2.92 6.74,6.74 0 0 1 0.37,1.42 c 0,0 0,0 0,0 0,0 0.01,-0.04 0,-0.06 z"
       style="fill:#407bff"
       id="path2013" />
    <path
       d="m 193.12,322.42 a 4.4,4.4 0 0 0 -1.7,-3 4.63,4.63 0 0 0 -3.26,-0.91 4.24,4.24 0 0 0 -3,1.77 4.6,4.6 0 0 0 -0.7,3.73 4.19,4.19 0 0 0 2,2.65 4.47,4.47 0 0 0 3.25,0.44 4.68,4.68 0 0 0 2.65,-1.71 5.17,5.17 0 0 0 1.08,-2.88 c 0,-0.05 0,-0.09 -0.07,-0.09 a 0.09,0.09 0 0 0 -0.08,0.09 4.86,4.86 0 0 1 -2.7,3.92 4.16,4.16 0 0 1 -3.5,0.17 4.09,4.09 0 0 1 -2.37,-2.65 4.26,4.26 0 0 1 0.56,-3.54 3.94,3.94 0 0 1 2.84,-1.69 5.15,5.15 0 0 1 2.19,0.28 4.13,4.13 0 0 1 1.8,1.29 4.64,4.64 0 0 1 0.59,1 6.83,6.83 0 0 1 0.32,1.14 v 0 c 0,0 0.11,0 0.1,-0.01 z"
       style="fill:#407bff"
       id="path2015" />
    <rect
       x="68.120003"
       y="336.57001"
       width="153.03999"
       height="29.27"
       style="fill:#ffffff"
       id="rect2017" />
    <path
       d="M 221.42,366.09 H 67.87 v -29.77 h 153.55 z m -153,-0.5 h 152.5 V 336.82 H 68.37 Z"
       style="fill:#263238"
       id="path2019" />
    <polygon
       points="99.58,336.57 88.47,365.85 68.71,365.85 79.81,336.57 "
       style="fill:#407bff"
       id="polygon2021" />
    <polygon
       points="140.09,336.57 128.99,365.85 109.21,365.85 120.32,336.57 "
       style="fill:#407bff"
       id="polygon2023" />
    <polygon
       points="180.6,336.57 169.49,365.85 149.73,365.85 160.84,336.57 "
       style="fill:#407bff"
       id="polygon2025" />
    <polygon
       points="221.12,336.57 210.01,365.85 190.24,365.85 201.34,336.57 "
       style="fill:#407bff"
       id="polygon2027" />
    <rect
       x="71.220001"
       y="401.62"
       width="146.85001"
       height="18.530001"
       style="fill:#ffffff"
       id="rect2029" />
    <path
       d="M 218.32,420.4 H 71 v -19 H 218.32 Z M 71.47,419.9 h 146.35 v -18 H 71.47 Z"
       style="fill:#263238"
       id="path2031" />
    <polygon
       points="101.4,401.62 90.74,420.15 71.78,420.15 82.44,401.62 "
       style="fill:#407bff"
       id="polygon2033" />
    <polygon
       points="140.28,401.62 129.62,420.15 110.65,420.15 121.31,401.62 "
       style="fill:#407bff"
       id="polygon2035" />
    <polygon
       points="179.14,401.62 168.49,420.15 149.52,420.15 160.18,401.62 "
       style="fill:#407bff"
       id="polygon2037" />
    <polygon
       points="218.02,401.62 207.36,420.15 188.39,420.15 199.05,401.62 "
       style="fill:#407bff"
       id="polygon2039" />
    <circle
       cx="144.64"
       cy="351.20999"
       r="23.82"
       transform="rotate(-76.58,144.63386,351.20586)"
       style="fill:#ffffff"
       id="circle2041" />
    <path
       d="m 144.64,375.27 a 24.07,24.07 0 1 1 24.07,-24.06 24.08,24.08 0 0 1 -24.07,24.06 z m 0,-47.63 a 23.57,23.57 0 1 0 23.57,23.57 23.59,23.59 0 0 0 -23.57,-23.57 z"
       style="fill:#263238"
       id="path2043" />
    <circle
       cx="144.64"
       cy="351.20999"
       r="20.190001"
       transform="rotate(-76.6,144.64424,351.20447)"
       style="fill:#407bff"
       id="circle2045" />
    <rect
       x="131.98"
       y="348.85999"
       width="25.32"
       height="4.6900001"
       style="fill:#ffffff"
       id="rect2047" />
  </g>
  <g
     id="freepik--Cones--inject-470"
     transform="matrix(1.5932462,0,0,1.657203,-89.476706,-78.070833)">
    <path
       d="m 477.88,439.5 5.06,-34.82 1.47,0.66 2.34,1.06 10.16,4.6 9.09,4.1 6,2.71 9.11,4.12 5,2.25 a 4.81,4.81 0 0 1 -1.29,8.93 l -2.11,0.29 v 0 l -3.32,0.45 -9.89,1.34 -6.52,0.89 -9.9,1.35 -4.14,0.57 z"
       style="fill:#407bff"
       id="path2050" />
    <path
       d="m 484.66,405.65 a 22.28,22.28 0 0 1 -1.86,3.76 c -3.09,4.82 -5.32,14.68 -3.64,26 a 14.45,14.45 0 0 0 0.75,3.59 l 2.12,-0.14 c 0,0 9.87,-21.66 42.14,-15.64 l -3,-1.38 -9.1,-4.1 -6,-2.71 -9.1,-4.12 z"
       style="opacity:0.1;mix-blend-mode:multiply"
       id="path2052" />
    <polygon
       points="509.49,435.19 512.01,417.81 521.12,421.93 519.38,433.85 "
       style="fill:#ebebeb"
       id="polygon2054" />
    <polygon
       points="493.07,437.43 496.91,410.99 506.02,415.11 502.97,436.08 "
       style="fill:#ebebeb"
       id="polygon2056" />
    <path
       d="m 389,438.64 h -33.9 l 0.42,-1.5 0.69,-2.38 3,-10.32 2.66,-9.25 1.75,-6.09 2.66,-9.25 1.46,-5.07 a 4.62,4.62 0 0 1 8.68,0 l 0.57,2 v 0 l 0.89,3.09 2.66,9.25 1.75,6.09 2.66,9.25 1.11,3.87 z"
       style="fill:#407bff"
       id="path2058" />
    <polygon
       points="352.8,429.84 397.35,429.84 390.25,447.43 345.7,447.43 "
       style="fill:#407bff"
       id="polygon2060" />
    <polygon
       points="380.55,409.1 363.63,409.1 366.29,399.86 377.89,399.86 "
       style="fill:#ebebeb"
       id="polygon2062" />
    <polygon
       points="384.96,424.44 359.22,424.44 361.88,415.19 382.3,415.19 "
       style="fill:#ebebeb"
       id="polygon2064" />
    <path
       d="m 354.66,436.28 a 35.42,35.42 0 0 0 8.6,2.61 46.42,46.42 0 0 0 8.89,0.68 c 1.49,-0.1 3,-0.11 4.46,-0.34 0.74,-0.1 1.49,-0.15 2.22,-0.28 0.73,-0.13 1.47,-0.28 2.21,-0.4 0.37,-0.07 0.74,-0.13 1.11,-0.21 l 1.09,-0.27 2.19,-0.53 c 1.45,-0.39 2.88,-0.88 4.36,-1.26 -1.37,0.65 -2.75,1.3 -4.16,1.86 l -2.17,0.74 -1.08,0.36 c -0.37,0.11 -0.74,0.19 -1.11,0.29 l -2.24,0.53 c -0.74,0.17 -1.51,0.25 -2.26,0.38 a 44,44 0 0 1 -4.59,0.42 36.41,36.41 0 0 1 -9.13,-1 24.94,24.94 0 0 1 -8.39,-3.58 z"
       style="fill:#263238"
       id="path2066" />
    <path
       d="m 355.83,436.86 a 21.76,21.76 0 0 1 3.84,1.25 c 5,2.28 14.73,3 25.34,-0.14 a 14,14 0 0 0 3.31,-1.21 l -0.43,-2 c 0,0 -22,-6.4 -20.74,-38 l -0.89,3.09 -2.66,9.25 -1.75,6.09 -2.66,9.25 z"
       style="opacity:0.1;mix-blend-mode:multiply"
       id="path2068" />
    <polygon
       points="468.66,439.44 475.31,393.66 492.33,403.59 485.67,449.36 "
       style="fill:#407bff"
       id="polygon2070" />
    <path
       d="m 485.61,422.53 c -0.95,8.46 -4,15.06 -6.84,14.74 -2.84,-0.32 -4.35,-7.43 -3.4,-15.89 0.95,-8.46 4,-15.05 6.85,-14.73 2.85,0.32 4.34,7.43 3.39,15.88 z"
       style="fill:#263238"
       id="path2072" />
  </g>
</svg>
